<?xml version="1.0" encoding="UTF-8" standalone="no"?>
<!DOCTYPE svg PUBLIC "-//W3C//DTD SVG 1.1//EN"
 "http://www.w3.org/Graphics/SVG/1.1/DTD/svg11.dtd">
<!-- Generated by graphviz version 2.48.0 (20210719.0153)
 -->
<!-- Title: /github/workspace/kratos/processes/add_dofs_nodal_process.h Pages: 1 -->
<!--zoomable 240 -->
<svg id="main" version="1.1" xmlns="http://www.w3.org/2000/svg" xmlns:xlink="http://www.w3.org/1999/xlink" xml:space="preserve" onload="init(evt)">
<style type="text/css"><![CDATA[
.edge:hover path { stroke: red; }
.edge:hover polygon { stroke: red; fill: red; }
]]></style>
<script type="text/javascript"><![CDATA[
var edges = document.getElementsByTagName('g');
if (edges && edges.length) {
  for (var i=0;i<edges.length;i++) {
    if (edges[i].id.substr(0,4)=='edge') {
      edges[i].setAttribute('class','edge');
    }
  }
}
]]></script>
        <defs>
                <circle id="rim" cx="0" cy="0" r="7"/>
                <circle id="rim2" cx="0" cy="0" r="3.5"/>
                <g id="zoomPlus">
                        <use xlink:href="#rim" fill="#404040">
                                <set attributeName="fill" to="#808080" begin="zoomplus.mouseover" end="zoomplus.mouseout"/>
                        </use>
                        <path d="M-4,0h8M0,-4v8" fill="none" stroke="white" stroke-width="1.5" pointer-events="none"/>
                </g>
                <g id="zoomMin">
                        <use xlink:href="#rim" fill="#404040">
                                <set attributeName="fill" to="#808080" begin="zoomminus.mouseover" end="zoomminus.mouseout"/>
                        </use>
                        <path d="M-4,0h8" fill="none" stroke="white" stroke-width="1.5" pointer-events="none"/>
                </g>
                <g id="dirArrow">
                        <path fill="none" stroke="white" stroke-width="1.5" d="M0,-3.0v7 M-2.5,-0.5L0,-3.0L2.5,-0.5"/>
                </g>
               <g id="resetDef">
                       <use xlink:href="#rim2" fill="#404040">
                               <set attributeName="fill" to="#808080" begin="reset.mouseover" end="reset.mouseout"/>
                       </use>
               </g>
        </defs>

<script type="text/javascript">
var viewWidth = 665;
var viewHeight = 240;
var sectionId = 'dynsection-0';
</script>
<script xlink:href="../../svgpan.js"/>
<svg id="graph" class="graph">
<g id="viewport">
<title>/github/workspace/kratos/processes/add_dofs_nodal_process.h</title>
<!-- Node1 -->
<g id="node1" class="node">
<title>Node1</title>
<g id="a_node1"><a xlink:title=" ">
<polygon fill="#bfbfbf" stroke="black" points="49,-190.5 49,-231.5 185,-231.5 185,-190.5 49,-190.5"/>
<text text-anchor="start" x="57" y="-219.5" font-family="Helvetica,sans-Serif" font-size="10.00">/github/workspace/kratos</text>
<text text-anchor="start" x="57" y="-208.5" font-family="Helvetica,sans-Serif" font-size="10.00">/processes/add_dofs_nodal</text>
<text text-anchor="middle" x="117" y="-197.5" font-family="Helvetica,sans-Serif" font-size="10.00">_process.h</text>
</a>
</g>
</g>
<!-- Node2 -->
<g id="node2" class="node">
<title>Node2</title>
<g id="a_node2"><a xlink:title=" ">
<polygon fill="none" stroke="#bfbfbf" points="26.5,-62 26.5,-81 67.5,-81 67.5,-62 26.5,-62"/>
<text text-anchor="middle" x="47" y="-69" font-family="Helvetica,sans-Serif" font-size="10.00">string</text>
</a>
</g>
</g>
<!-- Node1&#45;&gt;Node2 -->
<g id="edge1" class="edge">
<title>Node1&#45;&gt;Node2</title>
<path fill="none" stroke="midnightblue" d="M106.97,-190.3C93.29,-163.42 68.98,-115.67 55.91,-90"/>
<polygon fill="midnightblue" stroke="midnightblue" points="59,-88.36 51.35,-81.04 52.76,-91.54 59,-88.36"/>
</g>
<!-- Node3 -->
<g id="node3" class="node">
<title>Node3</title>
<g id="a_node3"><a xlink:title=" ">
<polygon fill="none" stroke="#bfbfbf" points="86,-62 86,-81 140,-81 140,-62 86,-62"/>
<text text-anchor="middle" x="113" y="-69" font-family="Helvetica,sans-Serif" font-size="10.00">iostream</text>
</a>
</g>
</g>
<!-- Node1&#45;&gt;Node3 -->
<g id="edge2" class="edge">
<title>Node1&#45;&gt;Node3</title>
<path fill="none" stroke="midnightblue" d="M107.18,-190.32C102.48,-179.83 97.37,-166.52 95,-154 92.44,-140.46 92.65,-136.58 95,-123 96.91,-111.94 101.02,-100.09 104.83,-90.65"/>
<polygon fill="midnightblue" stroke="midnightblue" points="108.16,-91.76 108.87,-81.19 101.72,-89.01 108.16,-91.76"/>
</g>
<!-- Node4 -->
<g id="node4" class="node">
<title>Node4</title>
<g id="a_node4"><a xlink:title=" ">
<polygon fill="none" stroke="#bfbfbf" points="0,-0.5 0,-19.5 52,-19.5 52,-0.5 0,-0.5"/>
<text text-anchor="middle" x="26" y="-7.5" font-family="Helvetica,sans-Serif" font-size="10.00">sstream</text>
</a>
</g>
</g>
<!-- Node1&#45;&gt;Node4 -->
<g id="edge3" class="edge">
<title>Node1&#45;&gt;Node4</title>
<path fill="none" stroke="midnightblue" d="M93.28,-190.28C68.69,-168.12 31.82,-129.63 17,-87 10.41,-68.03 14.73,-44.98 19.39,-29.27"/>
<polygon fill="midnightblue" stroke="midnightblue" points="22.73,-30.3 22.53,-19.7 16.08,-28.11 22.73,-30.3"/>
</g>
<!-- Node5 -->
<g id="node5" class="node">
<title>Node5</title>
<g id="a_node5"><a xlink:href="../../df/d67/define_8h.html" target="_top" xlink:title=" ">
<polygon fill="none" stroke="black" points="196.5,-62 196.5,-81 285.5,-81 285.5,-62 196.5,-62"/>
<text text-anchor="middle" x="241" y="-69" font-family="Helvetica,sans-Serif" font-size="10.00">includes/define.h</text>
</a>
</g>
</g>
<!-- Node1&#45;&gt;Node5 -->
<g id="edge4" class="edge">
<title>Node1&#45;&gt;Node5</title>
<path fill="none" stroke="midnightblue" d="M171.99,-190.44C189.58,-181.74 207.67,-169.81 220,-154 234.22,-135.77 238.89,-108.93 240.37,-91.1"/>
<polygon fill="midnightblue" stroke="midnightblue" points="243.87,-91.27 240.95,-81.09 236.88,-90.87 243.87,-91.27"/>
</g>
<!-- Node10 -->
<g id="node10" class="node">
<title>Node10</title>
<g id="a_node10"><a xlink:href="../../da/d42/process_8h.html" target="_top" xlink:title=" ">
<polygon fill="none" stroke="black" points="104.5,-129 104.5,-148 211.5,-148 211.5,-129 104.5,-129"/>
<text text-anchor="middle" x="158" y="-136" font-family="Helvetica,sans-Serif" font-size="10.00">processes/process.h</text>
</a>
</g>
</g>
<!-- Node1&#45;&gt;Node10 -->
<g id="edge10" class="edge">
<title>Node1&#45;&gt;Node10</title>
<path fill="none" stroke="midnightblue" d="M128.42,-190.36C134.53,-179.86 141.98,-167.05 147.87,-156.91"/>
<polygon fill="midnightblue" stroke="midnightblue" points="150.95,-158.58 152.96,-148.17 144.9,-155.06 150.95,-158.58"/>
</g>
<!-- Node11 -->
<g id="node11" class="node">
<title>Node11</title>
<g id="a_node11"><a xlink:href="../../d4/d35/pointer__vector__set_8h.html" target="_top" xlink:title=" ">
<polygon fill="none" stroke="black" points="268,-123.5 268,-153.5 362,-153.5 362,-123.5 268,-123.5"/>
<text text-anchor="start" x="276" y="-141.5" font-family="Helvetica,sans-Serif" font-size="10.00">containers/pointer</text>
<text text-anchor="middle" x="315" y="-130.5" font-family="Helvetica,sans-Serif" font-size="10.00">_vector_set.h</text>
</a>
</g>
</g>
<!-- Node1&#45;&gt;Node11 -->
<g id="edge14" class="edge">
<title>Node1&#45;&gt;Node11</title>
<path fill="none" stroke="midnightblue" d="M171.89,-190.46C201.27,-179.99 237.17,-167.21 265.66,-157.07"/>
<polygon fill="midnightblue" stroke="midnightblue" points="267.16,-160.25 275.41,-153.6 264.81,-153.65 267.16,-160.25"/>
</g>
<!-- Node5&#45;&gt;Node4 -->
<g id="edge6" class="edge">
<title>Node5&#45;&gt;Node4</title>
<path fill="none" stroke="midnightblue" d="M210.2,-61.98C170.94,-51.11 103.2,-32.36 61.72,-20.88"/>
<polygon fill="midnightblue" stroke="midnightblue" points="62.6,-17.5 52.02,-18.2 60.73,-24.24 62.6,-17.5"/>
</g>
<!-- Node6 -->
<g id="node6" class="node">
<title>Node6</title>
<g id="a_node6"><a xlink:title=" ">
<polygon fill="none" stroke="#bfbfbf" points="70.5,-0.5 70.5,-19.5 129.5,-19.5 129.5,-0.5 70.5,-0.5"/>
<text text-anchor="middle" x="100" y="-7.5" font-family="Helvetica,sans-Serif" font-size="10.00">stdexcept</text>
</a>
</g>
</g>
<!-- Node5&#45;&gt;Node6 -->
<g id="edge5" class="edge">
<title>Node5&#45;&gt;Node6</title>
<path fill="none" stroke="midnightblue" d="M220.8,-61.98C196.93,-51.9 157,-35.05 129.63,-23.5"/>
<polygon fill="midnightblue" stroke="midnightblue" points="130.74,-20.17 120.16,-19.51 128.02,-26.62 130.74,-20.17"/>
</g>
<!-- Node7 -->
<g id="node7" class="node">
<title>Node7</title>
<g id="a_node7"><a xlink:title=" ">
<polygon fill="none" stroke="#bfbfbf" points="435.5,-0.5 435.5,-19.5 538.5,-19.5 538.5,-0.5 435.5,-0.5"/>
<text text-anchor="middle" x="487" y="-7.5" font-family="Helvetica,sans-Serif" font-size="10.00">boost/smart_ptr.hpp</text>
</a>
</g>
</g>
<!-- Node5&#45;&gt;Node7 -->
<g id="edge7" class="edge">
<title>Node5&#45;&gt;Node7</title>
<path fill="none" stroke="midnightblue" d="M275.62,-61.96C283.63,-60 292.11,-57.92 300,-56 348.05,-44.32 403.08,-31.09 440.94,-22.02"/>
<polygon fill="midnightblue" stroke="midnightblue" points="442.23,-25.31 451.14,-19.58 440.6,-18.5 442.23,-25.31"/>
</g>
<!-- Node8 -->
<g id="node8" class="node">
<title>Node8</title>
<g id="a_node8"><a xlink:title=" ">
<polygon fill="none" stroke="#bfbfbf" points="147.5,-0.5 147.5,-19.5 278.5,-19.5 278.5,-0.5 147.5,-0.5"/>
<text text-anchor="middle" x="213" y="-7.5" font-family="Helvetica,sans-Serif" font-size="10.00">boost/current_function.hpp</text>
</a>
</g>
</g>
<!-- Node5&#45;&gt;Node8 -->
<g id="edge8" class="edge">
<title>Node5&#45;&gt;Node8</title>
<path fill="none" stroke="midnightblue" d="M236.99,-61.98C232.91,-53.32 226.48,-39.65 221.3,-28.65"/>
<polygon fill="midnightblue" stroke="midnightblue" points="224.43,-27.07 217,-19.51 218.1,-30.05 224.43,-27.07"/>
</g>
<!-- Node9 -->
<g id="node9" class="node">
<title>Node9</title>
<g id="a_node9"><a xlink:href="../../de/d17/kratos__config_8h.html" target="_top" xlink:title=" ">
<polygon fill="none" stroke="black" points="296.5,-0.5 296.5,-19.5 417.5,-19.5 417.5,-0.5 296.5,-0.5"/>
<text text-anchor="middle" x="357" y="-7.5" font-family="Helvetica,sans-Serif" font-size="10.00">includes/kratos_config.h</text>
</a>
</g>
</g>
<!-- Node5&#45;&gt;Node9 -->
<g id="edge9" class="edge">
<title>Node5&#45;&gt;Node9</title>
<path fill="none" stroke="midnightblue" d="M257.62,-61.98C276.92,-52.08 308.96,-35.64 331.43,-24.12"/>
<polygon fill="midnightblue" stroke="midnightblue" points="333.11,-27.19 340.41,-19.51 329.92,-20.96 333.11,-27.19"/>
</g>
<!-- Node10&#45;&gt;Node2 -->
<g id="edge11" class="edge">
<title>Node10&#45;&gt;Node2</title>
<path fill="none" stroke="midnightblue" d="M143.03,-128.73C124.39,-117.82 92.34,-99.05 70.43,-86.22"/>
<polygon fill="midnightblue" stroke="midnightblue" points="72.13,-83.16 61.73,-81.13 68.59,-89.2 72.13,-83.16"/>
</g>
<!-- Node10&#45;&gt;Node3 -->
<g id="edge12" class="edge">
<title>Node10&#45;&gt;Node3</title>
<path fill="none" stroke="midnightblue" d="M151.93,-128.73C144.98,-118.7 133.43,-102.01 124.71,-89.42"/>
<polygon fill="midnightblue" stroke="midnightblue" points="127.54,-87.36 118.97,-81.13 121.79,-91.34 127.54,-87.36"/>
</g>
<!-- Node10&#45;&gt;Node5 -->
<g id="edge13" class="edge">
<title>Node10&#45;&gt;Node5</title>
<path fill="none" stroke="midnightblue" d="M169.19,-128.73C182.63,-118.21 205.4,-100.38 221.7,-87.62"/>
<polygon fill="midnightblue" stroke="midnightblue" points="224.27,-90.05 229.98,-81.13 219.95,-84.54 224.27,-90.05"/>
</g>
<!-- Node11&#45;&gt;Node2 -->
<g id="edge17" class="edge">
<title>Node11&#45;&gt;Node2</title>
<path fill="none" stroke="midnightblue" d="M267.58,-130.89C218.89,-123.31 141.34,-109.01 77,-87 75.38,-86.45 73.74,-85.83 72.09,-85.17"/>
<polygon fill="midnightblue" stroke="midnightblue" points="73.45,-81.94 62.89,-81.06 70.6,-88.33 73.45,-81.94"/>
</g>
<!-- Node11&#45;&gt;Node3 -->
<g id="edge18" class="edge">
<title>Node11&#45;&gt;Node3</title>
<path fill="none" stroke="midnightblue" d="M268.71,-123.46C236.46,-113.57 192.49,-99.84 154,-87 151.56,-86.18 149.03,-85.33 146.5,-84.46"/>
<polygon fill="midnightblue" stroke="midnightblue" points="147.39,-81.06 136.8,-81.08 145.09,-87.67 147.39,-81.06"/>
</g>
<!-- Node11&#45;&gt;Node4 -->
<g id="edge19" class="edge">
<title>Node11&#45;&gt;Node4</title>
<path fill="none" stroke="midnightblue" d="M269.59,-123.43C244.38,-114.69 212.97,-102.22 187,-87 168.19,-75.98 167.94,-66.78 149,-56 121.38,-40.28 87.27,-28.31 61.97,-20.69"/>
<polygon fill="midnightblue" stroke="midnightblue" points="62.64,-17.23 52.06,-17.78 60.67,-23.95 62.64,-17.23"/>
</g>
<!-- Node11&#45;&gt;Node5 -->
<g id="edge23" class="edge">
<title>Node11&#45;&gt;Node5</title>
<path fill="none" stroke="midnightblue" d="M298.94,-123.4C287.06,-112.96 270.89,-98.75 258.64,-88"/>
<polygon fill="midnightblue" stroke="midnightblue" points="260.72,-85.16 250.9,-81.19 256.1,-90.42 260.72,-85.16"/>
</g>
<!-- Node11&#45;&gt;Node7 -->
<g id="edge21" class="edge">
<title>Node11&#45;&gt;Node7</title>
<path fill="none" stroke="midnightblue" d="M314.06,-123.44C313.65,-105.45 315.78,-74.41 333,-56 346.32,-41.76 391.12,-29.64 428.99,-21.58"/>
<polygon fill="midnightblue" stroke="midnightblue" points="429.87,-24.97 438.95,-19.51 428.45,-18.11 429.87,-24.97"/>
</g>
<!-- Node12 -->
<g id="node12" class="node">
<title>Node12</title>
<g id="a_node12"><a xlink:title=" ">
<polygon fill="none" stroke="#bfbfbf" points="342,-62 342,-81 386,-81 386,-62 342,-62"/>
<text text-anchor="middle" x="364" y="-69" font-family="Helvetica,sans-Serif" font-size="10.00">vector</text>
</a>
</g>
</g>
<!-- Node11&#45;&gt;Node12 -->
<g id="edge15" class="edge">
<title>Node11&#45;&gt;Node12</title>
<path fill="none" stroke="midnightblue" d="M325.63,-123.4C333.2,-113.36 343.39,-99.84 351.37,-89.25"/>
<polygon fill="midnightblue" stroke="midnightblue" points="354.22,-91.29 357.45,-81.19 348.63,-87.07 354.22,-91.29"/>
</g>
<!-- Node13 -->
<g id="node13" class="node">
<title>Node13</title>
<g id="a_node13"><a xlink:title=" ">
<polygon fill="none" stroke="#bfbfbf" points="404.5,-62 404.5,-81 463.5,-81 463.5,-62 404.5,-62"/>
<text text-anchor="middle" x="434" y="-69" font-family="Helvetica,sans-Serif" font-size="10.00">functional</text>
</a>
</g>
</g>
<!-- Node11&#45;&gt;Node13 -->
<g id="edge16" class="edge">
<title>Node11&#45;&gt;Node13</title>
<path fill="none" stroke="midnightblue" d="M340.82,-123.4C361.24,-112.24 389.55,-96.78 409.59,-85.83"/>
<polygon fill="midnightblue" stroke="midnightblue" points="411.33,-88.87 418.43,-81.01 407.97,-82.73 411.33,-88.87"/>
</g>
<!-- Node14 -->
<g id="node14" class="node">
<title>Node14</title>
<g id="a_node14"><a xlink:title=" ">
<polygon fill="none" stroke="#bfbfbf" points="481.5,-62 481.5,-81 530.5,-81 530.5,-62 481.5,-62"/>
<text text-anchor="middle" x="506" y="-69" font-family="Helvetica,sans-Serif" font-size="10.00">cstddef</text>
</a>
</g>
</g>
<!-- Node11&#45;&gt;Node14 -->
<g id="edge20" class="edge">
<title>Node11&#45;&gt;Node14</title>
<path fill="none" stroke="midnightblue" d="M362.11,-123.85C393.76,-114.34 436.23,-100.91 473,-87 474.61,-86.39 476.25,-85.75 477.91,-85.08"/>
<polygon fill="midnightblue" stroke="midnightblue" points="479.44,-88.23 487.29,-81.13 476.72,-81.78 479.44,-88.23"/>
</g>
<!-- Node15 -->
<g id="node15" class="node">
<title>Node15</title>
<g id="a_node15"><a xlink:title=" ">
<polygon fill="none" stroke="#bfbfbf" points="549,-56.5 549,-86.5 657,-86.5 657,-56.5 549,-56.5"/>
<text text-anchor="start" x="557" y="-74.5" font-family="Helvetica,sans-Serif" font-size="10.00">boost/iterator/indirect</text>
<text text-anchor="middle" x="603" y="-63.5" font-family="Helvetica,sans-Serif" font-size="10.00">_iterator.hpp</text>
</a>
</g>
</g>
<!-- Node11&#45;&gt;Node15 -->
<g id="edge22" class="edge">
<title>Node11&#45;&gt;Node15</title>
<path fill="none" stroke="midnightblue" d="M362.42,-126.93C405.84,-117.25 472.13,-102.4 538.86,-87.25"/>
<polygon fill="midnightblue" stroke="midnightblue" points="539.73,-90.64 548.71,-85.02 538.18,-83.82 539.73,-90.64"/>
</g>
</g>
</svg>
        <g id="navigator" transform="translate(0 0)" fill="#404254">
                <rect fill="#f2f5e9" fill-opacity="0.5" stroke="#606060" stroke-width=".5" x="0" y="0" width="60" height="60"/>
                <use id="zoomplus" xlink:href="#zoomPlus" x="17" y="9" onmousedown="handleZoom(evt,'in')"/>
                <use id="zoomminus" xlink:href="#zoomMin" x="42" y="9" onmousedown="handleZoom(evt,'out')"/>
                <use id="reset" xlink:href="#resetDef" x="30" y="36" onmousedown="handleReset()"/>
                <g id="arrowUp" xlink:href="#dirArrow" transform="translate(30 24)" onmousedown="handlePan(0,-1)">
                  <use xlink:href="#rim" fill="#404040">
                        <set attributeName="fill" to="#808080" begin="arrowUp.mouseover" end="arrowUp.mouseout"/>
                  </use>
                  <path fill="none" stroke="white" stroke-width="1.5" d="M0,-3.0v7 M-2.5,-0.5L0,-3.0L2.5,-0.5"/>
                </g>
                <g id="arrowRight" xlink:href="#dirArrow" transform="rotate(90) translate(36 -43)" onmousedown="handlePan(1,0)">
                  <use xlink:href="#rim" fill="#404040">
                        <set attributeName="fill" to="#808080" begin="arrowRight.mouseover" end="arrowRight.mouseout"/>
                  </use>
                  <path fill="none" stroke="white" stroke-width="1.5" d="M0,-3.0v7 M-2.5,-0.5L0,-3.0L2.5,-0.5"/>
                </g>
                <g id="arrowDown" xlink:href="#dirArrow" transform="rotate(180) translate(-30 -48)" onmousedown="handlePan(0,1)">
                  <use xlink:href="#rim" fill="#404040">
                        <set attributeName="fill" to="#808080" begin="arrowDown.mouseover" end="arrowDown.mouseout"/>
                  </use>
                  <path fill="none" stroke="white" stroke-width="1.5" d="M0,-3.0v7 M-2.5,-0.5L0,-3.0L2.5,-0.5"/>
                </g>
                <g id="arrowLeft" xlink:href="#dirArrow" transform="rotate(270) translate(-36 17)" onmousedown="handlePan(-1,0)">
                  <use xlink:href="#rim" fill="#404040">
                        <set attributeName="fill" to="#808080" begin="arrowLeft.mouseover" end="arrowLeft.mouseout"/>
                  </use>
                  <path fill="none" stroke="white" stroke-width="1.5" d="M0,-3.0v7 M-2.5,-0.5L0,-3.0L2.5,-0.5"/>
                </g>
        </g>
        <svg viewBox="0 0 15 15" width="100%" height="30px" preserveAspectRatio="xMaxYMin meet">
         <g id="arrow_out" transform="scale(0.3 0.3)">
          <a xlink:href="add__dofs__nodal__process_8h__incl_org.svg" target="_base">
           <rect id="button" ry="5" rx="5" y="6" x="6" height="38" width="38"
                fill="#f2f5e9" fill-opacity="0.5" stroke="#606060" stroke-width="1.0"/>
           <path id="arrow"
             d="M 11.500037,31.436501 C 11.940474,20.09759 22.043105,11.32322 32.158766,21.979434 L 37.068811,17.246167 C 37.068811,17.246167 37.088388,32 37.088388,32 L 22.160133,31.978069 C 22.160133,31.978069 26.997745,27.140456 26.997745,27.140456 C 18.528582,18.264221 13.291696,25.230495 11.500037,31.436501 z"
             style="fill:#404040;"/>
          </a>
         </g>
        </svg>
</svg>
