<?xml version="1.0" encoding="UTF-8" standalone="no"?>
<!DOCTYPE svg PUBLIC "-//W3C//DTD SVG 1.1//EN"
 "http://www.w3.org/Graphics/SVG/1.1/DTD/svg11.dtd">
<!-- Generated by graphviz version 2.48.0 (20210719.0153)
 -->
<!-- Title: /github/workspace/applications/MeshingApplication/meshing_application.h Pages: 1 -->
<!--zoomable 228 -->
<svg id="main" version="1.1" xmlns="http://www.w3.org/2000/svg" xmlns:xlink="http://www.w3.org/1999/xlink" xml:space="preserve" onload="init(evt)">
<style type="text/css"><![CDATA[
.edge:hover path { stroke: red; }
.edge:hover polygon { stroke: red; fill: red; }
]]></style>
<script type="text/javascript"><![CDATA[
var edges = document.getElementsByTagName('g');
if (edges && edges.length) {
  for (var i=0;i<edges.length;i++) {
    if (edges[i].id.substr(0,4)=='edge') {
      edges[i].setAttribute('class','edge');
    }
  }
}
]]></script>
        <defs>
                <circle id="rim" cx="0" cy="0" r="7"/>
                <circle id="rim2" cx="0" cy="0" r="3.5"/>
                <g id="zoomPlus">
                        <use xlink:href="#rim" fill="#404040">
                                <set attributeName="fill" to="#808080" begin="zoomplus.mouseover" end="zoomplus.mouseout"/>
                        </use>
                        <path d="M-4,0h8M0,-4v8" fill="none" stroke="white" stroke-width="1.5" pointer-events="none"/>
                </g>
                <g id="zoomMin">
                        <use xlink:href="#rim" fill="#404040">
                                <set attributeName="fill" to="#808080" begin="zoomminus.mouseover" end="zoomminus.mouseout"/>
                        </use>
                        <path d="M-4,0h8" fill="none" stroke="white" stroke-width="1.5" pointer-events="none"/>
                </g>
                <g id="dirArrow">
                        <path fill="none" stroke="white" stroke-width="1.5" d="M0,-3.0v7 M-2.5,-0.5L0,-3.0L2.5,-0.5"/>
                </g>
               <g id="resetDef">
                       <use xlink:href="#rim2" fill="#404040">
                               <set attributeName="fill" to="#808080" begin="reset.mouseover" end="reset.mouseout"/>
                       </use>
               </g>
        </defs>

<script type="text/javascript">
var viewWidth = 1879;
var viewHeight = 228;
var sectionId = 'dynsection-1';
</script>
<script xlink:href="../../svgpan.js"/>
<svg id="graph" class="graph">
<g id="viewport">
<title>/github/workspace/applications/MeshingApplication/meshing_application.h</title>
<!-- Node1 -->
<g id="node1" class="node">
<title>Node1</title>
<g id="a_node1"><a xlink:title=" ">
<polygon fill="#bfbfbf" stroke="black" points="875,-178.5 875,-219.5 1026,-219.5 1026,-178.5 875,-178.5"/>
<text text-anchor="start" x="883" y="-207.5" font-family="Helvetica,sans-Serif" font-size="10.00">/github/workspace/applications</text>
<text text-anchor="start" x="883" y="-196.5" font-family="Helvetica,sans-Serif" font-size="10.00">/MeshingApplication/meshing</text>
<text text-anchor="middle" x="950.5" y="-185.5" font-family="Helvetica,sans-Serif" font-size="10.00">_application.h</text>
</a>
</g>
</g>
<!-- Node2 -->
<g id="node2" class="node">
<title>Node2</title>
<g id="a_node2"><a xlink:href="../../d8/d45/_generate_model_part_utilities_8h.html" target="_top" xlink:title=" ">
<polygon fill="none" stroke="black" points="169.5,-95 169.5,-136 349.5,-136 349.5,-95 169.5,-95"/>
<text text-anchor="start" x="177.5" y="-124" font-family="Helvetica,sans-Serif" font-size="10.00">/github/workspace/applications</text>
<text text-anchor="start" x="177.5" y="-113" font-family="Helvetica,sans-Serif" font-size="10.00">/MeshingApplication/custom</text>
<text text-anchor="middle" x="259.5" y="-102" font-family="Helvetica,sans-Serif" font-size="10.00">_utilities/GenerateModelPartUtilities.h</text>
</a>
</g>
</g>
<!-- Node1&#45;&gt;Node2 -->
<g id="edge1" class="edge">
<title>Node1&#45;&gt;Node2</title>
<path fill="none" stroke="midnightblue" d="M864.55,-194.13C748.86,-187.95 536.92,-173.22 358.5,-142 349.15,-140.36 339.38,-138.3 329.78,-136.05"/>
<polygon fill="midnightblue" stroke="midnightblue" points="864.59,-197.64 874.76,-194.66 864.96,-190.64 864.59,-197.64"/>
</g>
<!-- Node4 -->
<g id="node4" class="node">
<title>Node4</title>
<g id="a_node4"><a xlink:href="../../df/dab/projection_8h.html" target="_top" xlink:title=" ">
<polygon fill="none" stroke="black" points="0,-95 0,-136 151,-136 151,-95 0,-95"/>
<text text-anchor="start" x="8" y="-124" font-family="Helvetica,sans-Serif" font-size="10.00">/github/workspace/applications</text>
<text text-anchor="start" x="8" y="-113" font-family="Helvetica,sans-Serif" font-size="10.00">/MeshingApplication/custom</text>
<text text-anchor="middle" x="75.5" y="-102" font-family="Helvetica,sans-Serif" font-size="10.00">_utilities/projection.h</text>
</a>
</g>
</g>
<!-- Node1&#45;&gt;Node4 -->
<g id="edge3" class="edge">
<title>Node1&#45;&gt;Node4</title>
<path fill="none" stroke="midnightblue" d="M864.7,-198.08C718.8,-196.86 413.59,-188.35 160.5,-142 152.01,-140.45 143.17,-138.35 134.54,-136.03"/>
<polygon fill="midnightblue" stroke="midnightblue" points="864.9,-201.59 874.92,-198.16 864.95,-194.59 864.9,-201.59"/>
</g>
<!-- Node5 -->
<g id="node5" class="node">
<title>Node5</title>
<g id="a_node5"><a xlink:href="../../d1/d67/tetgen__mesh__suite__optimized_8h.html" target="_top" xlink:title=" ">
<polygon fill="none" stroke="black" points="368,-89.5 368,-141.5 519,-141.5 519,-89.5 368,-89.5"/>
<text text-anchor="start" x="376" y="-129.5" font-family="Helvetica,sans-Serif" font-size="10.00">/github/workspace/applications</text>
<text text-anchor="start" x="376" y="-118.5" font-family="Helvetica,sans-Serif" font-size="10.00">/MeshingApplication/external</text>
<text text-anchor="start" x="376" y="-107.5" font-family="Helvetica,sans-Serif" font-size="10.00">_includes/tetgen_mesh_suite</text>
<text text-anchor="middle" x="443.5" y="-96.5" font-family="Helvetica,sans-Serif" font-size="10.00">_optimized.h</text>
</a>
</g>
</g>
<!-- Node1&#45;&gt;Node5 -->
<g id="edge5" class="edge">
<title>Node1&#45;&gt;Node5</title>
<path fill="none" stroke="midnightblue" d="M865.01,-190.81C779.07,-182.62 643.11,-167.03 527.5,-142 524.82,-141.42 522.1,-140.79 519.36,-140.13"/>
<polygon fill="midnightblue" stroke="midnightblue" points="864.7,-194.3 874.98,-191.75 865.35,-187.33 864.7,-194.3"/>
</g>
<!-- Node7 -->
<g id="node7" class="node">
<title>Node7</title>
<g id="a_node7"><a xlink:href="../../da/dcb/tetgen__mesh__suite__refine_8h.html" target="_top" xlink:title=" ">
<polygon fill="none" stroke="black" points="537,-89.5 537,-141.5 688,-141.5 688,-89.5 537,-89.5"/>
<text text-anchor="start" x="545" y="-129.5" font-family="Helvetica,sans-Serif" font-size="10.00">/github/workspace/applications</text>
<text text-anchor="start" x="545" y="-118.5" font-family="Helvetica,sans-Serif" font-size="10.00">/MeshingApplication/external</text>
<text text-anchor="start" x="545" y="-107.5" font-family="Helvetica,sans-Serif" font-size="10.00">_includes/tetgen_mesh_suite</text>
<text text-anchor="middle" x="612.5" y="-96.5" font-family="Helvetica,sans-Serif" font-size="10.00">_refine.h</text>
</a>
</g>
</g>
<!-- Node1&#45;&gt;Node7 -->
<g id="edge7" class="edge">
<title>Node1&#45;&gt;Node7</title>
<path fill="none" stroke="midnightblue" d="M864.82,-180.84C815.39,-170.51 752.19,-156.57 696.5,-142 693.85,-141.31 691.15,-140.58 688.43,-139.84"/>
<polygon fill="midnightblue" stroke="midnightblue" points="864.33,-184.31 874.83,-182.92 865.76,-177.46 864.33,-184.31"/>
</g>
<!-- Node8 -->
<g id="node8" class="node">
<title>Node8</title>
<g id="a_node8"><a xlink:href="../../d4/d8a/tetgen__pfem__refine_8h.html" target="_top" xlink:title=" ">
<polygon fill="none" stroke="black" points="875,-95 875,-136 1026,-136 1026,-95 875,-95"/>
<text text-anchor="start" x="883" y="-124" font-family="Helvetica,sans-Serif" font-size="10.00">/github/workspace/applications</text>
<text text-anchor="start" x="883" y="-113" font-family="Helvetica,sans-Serif" font-size="10.00">/MeshingApplication/external</text>
<text text-anchor="middle" x="950.5" y="-102" font-family="Helvetica,sans-Serif" font-size="10.00">_includes/tetgen_pfem_refine.h</text>
</a>
</g>
</g>
<!-- Node1&#45;&gt;Node8 -->
<g id="edge8" class="edge">
<title>Node1&#45;&gt;Node8</title>
<path fill="none" stroke="midnightblue" d="M950.5,-168.06C950.5,-157.38 950.5,-145.63 950.5,-136.05"/>
<polygon fill="midnightblue" stroke="midnightblue" points="947,-168.27 950.5,-178.27 954,-168.27 947,-168.27"/>
</g>
<!-- Node11 -->
<g id="node11" class="node">
<title>Node11</title>
<g id="a_node11"><a xlink:href="../../dc/d80/trigen__cdt_8h.html" target="_top" xlink:title=" ">
<polygon fill="none" stroke="black" points="1551,-95 1551,-136 1702,-136 1702,-95 1551,-95"/>
<text text-anchor="start" x="1559" y="-124" font-family="Helvetica,sans-Serif" font-size="10.00">/github/workspace/applications</text>
<text text-anchor="start" x="1559" y="-113" font-family="Helvetica,sans-Serif" font-size="10.00">/MeshingApplication/external</text>
<text text-anchor="middle" x="1626.5" y="-102" font-family="Helvetica,sans-Serif" font-size="10.00">_includes/trigen_cdt.h</text>
</a>
</g>
</g>
<!-- Node1&#45;&gt;Node11 -->
<g id="edge12" class="edge">
<title>Node1&#45;&gt;Node11</title>
<path fill="none" stroke="midnightblue" d="M1036.66,-195.26C1152.59,-190.34 1364.78,-177.01 1542.5,-142 1550.57,-140.41 1558.98,-138.35 1567.22,-136.1"/>
<polygon fill="midnightblue" stroke="midnightblue" points="1036.27,-191.77 1026.43,-195.68 1036.56,-198.76 1036.27,-191.77"/>
</g>
<!-- Node12 -->
<g id="node12" class="node">
<title>Node12</title>
<g id="a_node12"><a xlink:href="../../d8/db5/trigen__mesh__suite_8h.html" target="_top" xlink:title=" ">
<polygon fill="none" stroke="black" points="706,-95 706,-136 857,-136 857,-95 706,-95"/>
<text text-anchor="start" x="714" y="-124" font-family="Helvetica,sans-Serif" font-size="10.00">/github/workspace/applications</text>
<text text-anchor="start" x="714" y="-113" font-family="Helvetica,sans-Serif" font-size="10.00">/MeshingApplication/external</text>
<text text-anchor="middle" x="781.5" y="-102" font-family="Helvetica,sans-Serif" font-size="10.00">_includes/trigen_mesh_suite.h</text>
</a>
</g>
</g>
<!-- Node1&#45;&gt;Node12 -->
<g id="edge14" class="edge">
<title>Node1&#45;&gt;Node12</title>
<path fill="none" stroke="midnightblue" d="M901,-174.13C875.85,-162 845.68,-147.45 821.94,-136"/>
<polygon fill="midnightblue" stroke="midnightblue" points="899.49,-177.29 910.02,-178.48 902.53,-170.98 899.49,-177.29"/>
</g>
<!-- Node13 -->
<g id="node13" class="node">
<title>Node13</title>
<g id="a_node13"><a xlink:href="../../df/def/trigen__mesh__suite__refine_8h.html" target="_top" xlink:title=" ">
<polygon fill="none" stroke="black" points="1213,-89.5 1213,-141.5 1364,-141.5 1364,-89.5 1213,-89.5"/>
<text text-anchor="start" x="1221" y="-129.5" font-family="Helvetica,sans-Serif" font-size="10.00">/github/workspace/applications</text>
<text text-anchor="start" x="1221" y="-118.5" font-family="Helvetica,sans-Serif" font-size="10.00">/MeshingApplication/external</text>
<text text-anchor="start" x="1221" y="-107.5" font-family="Helvetica,sans-Serif" font-size="10.00">_includes/trigen_mesh_suite</text>
<text text-anchor="middle" x="1288.5" y="-96.5" font-family="Helvetica,sans-Serif" font-size="10.00">_refine.h</text>
</a>
</g>
</g>
<!-- Node1&#45;&gt;Node13 -->
<g id="edge17" class="edge">
<title>Node1&#45;&gt;Node13</title>
<path fill="none" stroke="midnightblue" d="M1036.18,-180.84C1085.61,-170.51 1148.81,-156.57 1204.5,-142 1207.15,-141.31 1209.85,-140.58 1212.57,-139.84"/>
<polygon fill="midnightblue" stroke="midnightblue" points="1035.24,-177.46 1026.17,-182.92 1036.67,-184.31 1035.24,-177.46"/>
</g>
<!-- Node14 -->
<g id="node14" class="node">
<title>Node14</title>
<g id="a_node14"><a xlink:href="../../d8/d94/trigen__pfem__refine_8h.html" target="_top" xlink:title=" ">
<polygon fill="none" stroke="black" points="1382,-95 1382,-136 1533,-136 1533,-95 1382,-95"/>
<text text-anchor="start" x="1390" y="-124" font-family="Helvetica,sans-Serif" font-size="10.00">/github/workspace/applications</text>
<text text-anchor="start" x="1390" y="-113" font-family="Helvetica,sans-Serif" font-size="10.00">/MeshingApplication/external</text>
<text text-anchor="middle" x="1457.5" y="-102" font-family="Helvetica,sans-Serif" font-size="10.00">_includes/trigen_pfem_refine.h</text>
</a>
</g>
</g>
<!-- Node1&#45;&gt;Node14 -->
<g id="edge18" class="edge">
<title>Node1&#45;&gt;Node14</title>
<path fill="none" stroke="midnightblue" d="M1035.99,-190.81C1121.93,-182.62 1257.89,-167.03 1373.5,-142 1381.25,-140.32 1389.31,-138.28 1397.25,-136.08"/>
<polygon fill="midnightblue" stroke="midnightblue" points="1035.65,-187.33 1026.02,-191.75 1036.3,-194.3 1035.65,-187.33"/>
</g>
<!-- Node15 -->
<g id="node15" class="node">
<title>Node15</title>
<g id="a_node15"><a xlink:href="../../d9/d68/trigen__refine_8h.html" target="_top" xlink:title=" ">
<polygon fill="none" stroke="black" points="1044,-95 1044,-136 1195,-136 1195,-95 1044,-95"/>
<text text-anchor="start" x="1052" y="-124" font-family="Helvetica,sans-Serif" font-size="10.00">/github/workspace/applications</text>
<text text-anchor="start" x="1052" y="-113" font-family="Helvetica,sans-Serif" font-size="10.00">/MeshingApplication/external</text>
<text text-anchor="middle" x="1119.5" y="-102" font-family="Helvetica,sans-Serif" font-size="10.00">_includes/trigen_refine.h</text>
</a>
</g>
</g>
<!-- Node1&#45;&gt;Node15 -->
<g id="edge21" class="edge">
<title>Node1&#45;&gt;Node15</title>
<path fill="none" stroke="midnightblue" d="M1000,-174.13C1025.15,-162 1055.32,-147.45 1079.06,-136"/>
<polygon fill="midnightblue" stroke="midnightblue" points="998.47,-170.98 990.98,-178.48 1001.51,-177.29 998.47,-170.98"/>
</g>
<!-- Node16 -->
<g id="node16" class="node">
<title>Node16</title>
<g id="a_node16"><a xlink:href="../../d8/d26/meshing__application_8cpp.html" target="_top" xlink:title=" ">
<polygon fill="none" stroke="black" points="1720,-95 1720,-136 1871,-136 1871,-95 1720,-95"/>
<text text-anchor="start" x="1728" y="-124" font-family="Helvetica,sans-Serif" font-size="10.00">/github/workspace/applications</text>
<text text-anchor="start" x="1728" y="-113" font-family="Helvetica,sans-Serif" font-size="10.00">/MeshingApplication/meshing</text>
<text text-anchor="middle" x="1795.5" y="-102" font-family="Helvetica,sans-Serif" font-size="10.00">_application.cpp</text>
</a>
</g>
</g>
<!-- Node1&#45;&gt;Node16 -->
<g id="edge24" class="edge">
<title>Node1&#45;&gt;Node16</title>
<path fill="none" stroke="midnightblue" d="M1036.37,-197.84C1178.15,-196.2 1469.61,-187.04 1711.5,-142 1719.89,-140.44 1728.63,-138.34 1737.16,-136.01"/>
<polygon fill="midnightblue" stroke="midnightblue" points="1035.97,-194.34 1026.01,-197.95 1036.04,-201.34 1035.97,-194.34"/>
</g>
<!-- Node3 -->
<g id="node3" class="node">
<title>Node3</title>
<g id="a_node3"><a xlink:href="../../d4/d31/_meshing_application_2custom__python_2add__custom__utilities__to__python_8cpp.html" target="_top" xlink:title=" ">
<polygon fill="none" stroke="black" points="92,-0.5 92,-52.5 243,-52.5 243,-0.5 92,-0.5"/>
<text text-anchor="start" x="100" y="-40.5" font-family="Helvetica,sans-Serif" font-size="10.00">/github/workspace/applications</text>
<text text-anchor="start" x="100" y="-29.5" font-family="Helvetica,sans-Serif" font-size="10.00">/MeshingApplication/custom</text>
<text text-anchor="start" x="100" y="-18.5" font-family="Helvetica,sans-Serif" font-size="10.00">_python/add_custom_utilities</text>
<text text-anchor="middle" x="167.5" y="-7.5" font-family="Helvetica,sans-Serif" font-size="10.00">_to_python.cpp</text>
</a>
</g>
</g>
<!-- Node2&#45;&gt;Node3 -->
<g id="edge2" class="edge">
<title>Node2&#45;&gt;Node3</title>
<path fill="none" stroke="midnightblue" d="M231.19,-87.73C219.43,-76.6 205.84,-63.75 194.24,-52.79"/>
<polygon fill="midnightblue" stroke="midnightblue" points="228.95,-90.43 238.62,-94.76 233.76,-85.34 228.95,-90.43"/>
</g>
<!-- Node4&#45;&gt;Node3 -->
<g id="edge4" class="edge">
<title>Node4&#45;&gt;Node3</title>
<path fill="none" stroke="midnightblue" d="M103.81,-87.73C115.57,-76.6 129.16,-63.75 140.76,-52.79"/>
<polygon fill="midnightblue" stroke="midnightblue" points="101.24,-85.34 96.38,-94.76 106.05,-90.43 101.24,-85.34"/>
</g>
<!-- Node6 -->
<g id="node6" class="node">
<title>Node6</title>
<g id="a_node6"><a xlink:href="../../dd/d57/_u_l_fapplication_2custom__python_2add__meshers__to__python_8cpp.html" target="_top" xlink:title=" ">
<polygon fill="none" stroke="black" points="704,-6 704,-47 859,-47 859,-6 704,-6"/>
<text text-anchor="start" x="712" y="-35" font-family="Helvetica,sans-Serif" font-size="10.00">/github/workspace/applications</text>
<text text-anchor="start" x="712" y="-24" font-family="Helvetica,sans-Serif" font-size="10.00">/ULFapplication/custom_python</text>
<text text-anchor="middle" x="781.5" y="-13" font-family="Helvetica,sans-Serif" font-size="10.00">/add_meshers_to_python.cpp</text>
</a>
</g>
</g>
<!-- Node5&#45;&gt;Node6 -->
<g id="edge6" class="edge">
<title>Node5&#45;&gt;Node6</title>
<path fill="none" stroke="midnightblue" d="M529.25,-88.57C592.89,-71.38 655.96,-56.22 703.95,-45.06"/>
<polygon fill="midnightblue" stroke="midnightblue" points="528.18,-85.23 519.45,-91.23 530.02,-91.99 528.18,-85.23"/>
</g>
<!-- Node8&#45;&gt;Node6 -->
<g id="edge11" class="edge">
<title>Node8&#45;&gt;Node6</title>
<path fill="none" stroke="midnightblue" d="M903.5,-90.3C877.04,-76.68 844.44,-59.9 819.59,-47.11"/>
<polygon fill="midnightblue" stroke="midnightblue" points="902.08,-93.51 912.57,-94.98 905.28,-87.29 902.08,-93.51"/>
</g>
<!-- Node9 -->
<g id="node9" class="node">
<title>Node9</title>
<g id="a_node9"><a xlink:href="../../de/dff/_meshing_application_2custom__python_2add__meshers__to__python_8cpp.html" target="_top" xlink:title=" ">
<polygon fill="none" stroke="black" points="1207,-6 1207,-47 1384,-47 1384,-6 1207,-6"/>
<text text-anchor="start" x="1215" y="-35" font-family="Helvetica,sans-Serif" font-size="10.00">/github/workspace/applications</text>
<text text-anchor="start" x="1215" y="-24" font-family="Helvetica,sans-Serif" font-size="10.00">/MeshingApplication/custom</text>
<text text-anchor="middle" x="1295.5" y="-13" font-family="Helvetica,sans-Serif" font-size="10.00">_python/add_meshers_to_python.cpp</text>
</a>
</g>
</g>
<!-- Node8&#45;&gt;Node9 -->
<g id="edge9" class="edge">
<title>Node8&#45;&gt;Node9</title>
<path fill="none" stroke="midnightblue" d="M1024.07,-92.14C1027.93,-91.06 1031.76,-90 1035.5,-89 1092.29,-73.78 1156.58,-58.56 1207.02,-47.06"/>
<polygon fill="midnightblue" stroke="midnightblue" points="1023.09,-88.78 1014.43,-94.88 1025.01,-95.51 1023.09,-88.78"/>
</g>
<!-- Node10 -->
<g id="node10" class="node">
<title>Node10</title>
<g id="a_node10"><a xlink:href="../../d9/d24/mesh__suites_8cpp.html" target="_top" xlink:title=" ">
<polygon fill="none" stroke="black" points="877,-6 877,-47 1028,-47 1028,-6 877,-6"/>
<text text-anchor="start" x="885" y="-35" font-family="Helvetica,sans-Serif" font-size="10.00">/github/workspace/applications</text>
<text text-anchor="start" x="885" y="-24" font-family="Helvetica,sans-Serif" font-size="10.00">/MeshingApplication/external</text>
<text text-anchor="middle" x="952.5" y="-13" font-family="Helvetica,sans-Serif" font-size="10.00">_includes/mesh_suites.cpp</text>
</a>
</g>
</g>
<!-- Node8&#45;&gt;Node10 -->
<g id="edge10" class="edge">
<title>Node8&#45;&gt;Node10</title>
<path fill="none" stroke="midnightblue" d="M951.19,-84.44C951.47,-72.1 951.8,-58.16 952.05,-47.16"/>
<polygon fill="midnightblue" stroke="midnightblue" points="947.68,-84.68 950.95,-94.76 954.68,-84.84 947.68,-84.68"/>
</g>
<!-- Node11&#45;&gt;Node9 -->
<g id="edge13" class="edge">
<title>Node11&#45;&gt;Node9</title>
<path fill="none" stroke="midnightblue" d="M1553.46,-92.09C1549.76,-91.03 1546.09,-89.99 1542.5,-89 1488.08,-73.98 1426.47,-58.63 1378.39,-47.03"/>
<polygon fill="midnightblue" stroke="midnightblue" points="1552.72,-95.52 1563.3,-94.94 1554.68,-88.79 1552.72,-95.52"/>
</g>
<!-- Node12&#45;&gt;Node6 -->
<g id="edge16" class="edge">
<title>Node12&#45;&gt;Node6</title>
<path fill="none" stroke="midnightblue" d="M781.5,-84.44C781.5,-72.1 781.5,-58.16 781.5,-47.16"/>
<polygon fill="midnightblue" stroke="midnightblue" points="778,-84.76 781.5,-94.76 785,-84.76 778,-84.76"/>
</g>
<!-- Node12&#45;&gt;Node10 -->
<g id="edge15" class="edge">
<title>Node12&#45;&gt;Node10</title>
<path fill="none" stroke="midnightblue" d="M829.06,-90.3C855.83,-76.68 888.82,-59.9 913.96,-47.11"/>
<polygon fill="midnightblue" stroke="midnightblue" points="827.2,-87.32 819.88,-94.98 830.38,-93.56 827.2,-87.32"/>
</g>
<!-- Node14&#45;&gt;Node9 -->
<g id="edge19" class="edge">
<title>Node14&#45;&gt;Node9</title>
<path fill="none" stroke="midnightblue" d="M1412.11,-90.12C1386.81,-76.54 1355.73,-59.84 1332.01,-47.11"/>
<polygon fill="midnightblue" stroke="midnightblue" points="1410.68,-93.33 1421.14,-94.98 1413.99,-87.16 1410.68,-93.33"/>
</g>
<!-- Node14&#45;&gt;Node10 -->
<g id="edge20" class="edge">
<title>Node14&#45;&gt;Node10</title>
<path fill="none" stroke="midnightblue" d="M1386.89,-92.24C1382.37,-91.07 1377.89,-89.98 1373.5,-89 1254.02,-62.29 1112.77,-44.39 1028.03,-35.08"/>
<polygon fill="midnightblue" stroke="midnightblue" points="1386.2,-95.68 1396.77,-94.89 1388.02,-88.92 1386.2,-95.68"/>
</g>
<!-- Node15&#45;&gt;Node6 -->
<g id="edge23" class="edge">
<title>Node15&#45;&gt;Node6</title>
<path fill="none" stroke="midnightblue" d="M1047.33,-92.17C1043.33,-91.07 1039.37,-90 1035.5,-89 962,-69.96 942.09,-71.69 868.5,-53 861.33,-51.18 853.86,-49.17 846.44,-47.1"/>
<polygon fill="midnightblue" stroke="midnightblue" points="1046.7,-95.63 1057.28,-94.99 1048.61,-88.9 1046.7,-95.63"/>
</g>
<!-- Node15&#45;&gt;Node9 -->
<g id="edge22" class="edge">
<title>Node15&#45;&gt;Node9</title>
<path fill="none" stroke="midnightblue" d="M1168.09,-90.48C1195.7,-76.83 1229.84,-59.96 1255.83,-47.11"/>
<polygon fill="midnightblue" stroke="midnightblue" points="1166.41,-87.41 1159,-94.98 1169.51,-93.68 1166.41,-87.41"/>
</g>
</g>
</svg>
        <g id="navigator" transform="translate(0 0)" fill="#404254">
                <rect fill="#f2f5e9" fill-opacity="0.5" stroke="#606060" stroke-width=".5" x="0" y="0" width="60" height="60"/>
                <use id="zoomplus" xlink:href="#zoomPlus" x="17" y="9" onmousedown="handleZoom(evt,'in')"/>
                <use id="zoomminus" xlink:href="#zoomMin" x="42" y="9" onmousedown="handleZoom(evt,'out')"/>
                <use id="reset" xlink:href="#resetDef" x="30" y="36" onmousedown="handleReset()"/>
                <g id="arrowUp" xlink:href="#dirArrow" transform="translate(30 24)" onmousedown="handlePan(0,-1)">
                  <use xlink:href="#rim" fill="#404040">
                        <set attributeName="fill" to="#808080" begin="arrowUp.mouseover" end="arrowUp.mouseout"/>
                  </use>
                  <path fill="none" stroke="white" stroke-width="1.5" d="M0,-3.0v7 M-2.5,-0.5L0,-3.0L2.5,-0.5"/>
                </g>
                <g id="arrowRight" xlink:href="#dirArrow" transform="rotate(90) translate(36 -43)" onmousedown="handlePan(1,0)">
                  <use xlink:href="#rim" fill="#404040">
                        <set attributeName="fill" to="#808080" begin="arrowRight.mouseover" end="arrowRight.mouseout"/>
                  </use>
                  <path fill="none" stroke="white" stroke-width="1.5" d="M0,-3.0v7 M-2.5,-0.5L0,-3.0L2.5,-0.5"/>
                </g>
                <g id="arrowDown" xlink:href="#dirArrow" transform="rotate(180) translate(-30 -48)" onmousedown="handlePan(0,1)">
                  <use xlink:href="#rim" fill="#404040">
                        <set attributeName="fill" to="#808080" begin="arrowDown.mouseover" end="arrowDown.mouseout"/>
                  </use>
                  <path fill="none" stroke="white" stroke-width="1.5" d="M0,-3.0v7 M-2.5,-0.5L0,-3.0L2.5,-0.5"/>
                </g>
                <g id="arrowLeft" xlink:href="#dirArrow" transform="rotate(270) translate(-36 17)" onmousedown="handlePan(-1,0)">
                  <use xlink:href="#rim" fill="#404040">
                        <set attributeName="fill" to="#808080" begin="arrowLeft.mouseover" end="arrowLeft.mouseout"/>
                  </use>
                  <path fill="none" stroke="white" stroke-width="1.5" d="M0,-3.0v7 M-2.5,-0.5L0,-3.0L2.5,-0.5"/>
                </g>
        </g>
        <svg viewBox="0 0 15 15" width="100%" height="30px" preserveAspectRatio="xMaxYMin meet">
         <g id="arrow_out" transform="scale(0.3 0.3)">
          <a xlink:href="meshing__application_8h__dep__incl_org.svg" target="_base">
           <rect id="button" ry="5" rx="5" y="6" x="6" height="38" width="38"
                fill="#f2f5e9" fill-opacity="0.5" stroke="#606060" stroke-width="1.0"/>
           <path id="arrow"
             d="M 11.500037,31.436501 C 11.940474,20.09759 22.043105,11.32322 32.158766,21.979434 L 37.068811,17.246167 C 37.068811,17.246167 37.088388,32 37.088388,32 L 22.160133,31.978069 C 22.160133,31.978069 26.997745,27.140456 26.997745,27.140456 C 18.528582,18.264221 13.291696,25.230495 11.500037,31.436501 z"
             style="fill:#404040;"/>
          </a>
         </g>
        </svg>
</svg>
