<?xml version="1.0" encoding="UTF-8" standalone="no"?>
<!DOCTYPE svg PUBLIC "-//W3C//DTD SVG 1.1//EN"
 "http://www.w3.org/Graphics/SVG/1.1/DTD/svg11.dtd">
<!-- Generated by graphviz version 2.48.0 (20210719.0153)
 -->
<!-- Title: /github/workspace/kratos/python/pyconversions.h Pages: 1 -->
<svg width="160pt" height="95pt"
 viewBox="0.00 0.00 160.00 95.00" xmlns="http://www.w3.org/2000/svg" xmlns:xlink="http://www.w3.org/1999/xlink">
<g id="graph0" class="graph" transform="scale(1 1) rotate(0) translate(4 91)">
<title>/github/workspace/kratos/python/pyconversions.h</title>
<!-- Node1 -->
<g id="node1" class="node">
<title>Node1</title>
<g id="a_node1"><a xlink:title=" ">
<polygon fill="#bfbfbf" stroke="black" points="1,-56.5 1,-86.5 127,-86.5 127,-56.5 1,-56.5"/>
<text text-anchor="start" x="9" y="-74.5" font-family="Helvetica,sans-Serif" font-size="10.00">/github/workspace/kratos</text>
<text text-anchor="middle" x="64" y="-63.5" font-family="Helvetica,sans-Serif" font-size="10.00">/python/pyconversions.h</text>
</a>
</g>
</g>
<!-- Node2 -->
<g id="node2" class="node">
<title>Node2</title>
<g id="a_node2"><a xlink:title=" ">
<polygon fill="none" stroke="#bfbfbf" points="0,-0.5 0,-19.5 44,-19.5 44,-0.5 0,-0.5"/>
<text text-anchor="middle" x="22" y="-7.5" font-family="Helvetica,sans-Serif" font-size="10.00">vector</text>
</a>
</g>
</g>
<!-- Node1&#45;&gt;Node2 -->
<g id="edge1" class="edge">
<title>Node1&#45;&gt;Node2</title>
<path fill="none" stroke="midnightblue" d="M54.05,-56.4C48.01,-47.84 40.26,-36.87 33.9,-27.86"/>
<polygon fill="midnightblue" stroke="midnightblue" points="36.74,-25.81 28.11,-19.66 31.02,-29.85 36.74,-25.81"/>
</g>
<!-- Node3 -->
<g id="node3" class="node">
<title>Node3</title>
<g id="a_node3"><a xlink:title=" ">
<polygon fill="none" stroke="#bfbfbf" points="62,-0.5 62,-19.5 152,-19.5 152,-0.5 62,-0.5"/>
<text text-anchor="middle" x="107" y="-7.5" font-family="Helvetica,sans-Serif" font-size="10.00">boost/python.hpp</text>
</a>
</g>
</g>
<!-- Node1&#45;&gt;Node3 -->
<g id="edge2" class="edge">
<title>Node1&#45;&gt;Node3</title>
<path fill="none" stroke="midnightblue" d="M74.19,-56.4C80.37,-47.84 88.3,-36.87 94.82,-27.86"/>
<polygon fill="midnightblue" stroke="midnightblue" points="97.72,-29.81 100.74,-19.66 92.05,-25.71 97.72,-29.81"/>
</g>
</g>
</svg>
