<?xml version="1.0" encoding="UTF-8" standalone="no"?>
<!DOCTYPE svg PUBLIC "-//W3C//DTD SVG 1.1//EN"
 "http://www.w3.org/Graphics/SVG/1.1/DTD/svg11.dtd">
<!-- Generated by graphviz version 2.48.0 (20210719.0153)
 -->
<!-- Title: /github/workspace/kratos/python/add_mesh_to_python.h Pages: 1 -->
<svg width="865pt" height="128pt"
 viewBox="0.00 0.00 865.00 128.00" xmlns="http://www.w3.org/2000/svg" xmlns:xlink="http://www.w3.org/1999/xlink">
<g id="graph0" class="graph" transform="scale(1 1) rotate(0) translate(4 124)">
<title>/github/workspace/kratos/python/add_mesh_to_python.h</title>
<!-- Node1 -->
<g id="node1" class="node">
<title>Node1</title>
<g id="a_node1"><a xlink:title=" ">
<polygon fill="#bfbfbf" stroke="black" points="345,-89.5 345,-119.5 496,-119.5 496,-89.5 345,-89.5"/>
<text text-anchor="start" x="353" y="-107.5" font-family="Helvetica,sans-Serif" font-size="10.00">/github/workspace/kratos</text>
<text text-anchor="middle" x="420.5" y="-96.5" font-family="Helvetica,sans-Serif" font-size="10.00">/python/add_mesh_to_python.h</text>
</a>
</g>
</g>
<!-- Node2 -->
<g id="node2" class="node">
<title>Node2</title>
<g id="a_node2"><a xlink:href="../../df/d0b/add__mesh__to__python_8cpp.html" target="_top" xlink:title=" ">
<polygon fill="none" stroke="black" points="0,-11.5 0,-41.5 161,-41.5 161,-11.5 0,-11.5"/>
<text text-anchor="start" x="8" y="-29.5" font-family="Helvetica,sans-Serif" font-size="10.00">/github/workspace/kratos</text>
<text text-anchor="middle" x="80.5" y="-18.5" font-family="Helvetica,sans-Serif" font-size="10.00">/python/add_mesh_to_python.cpp</text>
</a>
</g>
</g>
<!-- Node1&#45;&gt;Node2 -->
<g id="edge1" class="edge">
<title>Node1&#45;&gt;Node2</title>
<path fill="none" stroke="midnightblue" d="M335.13,-87.94C286.65,-78.68 224.95,-66.19 170.5,-53 156.45,-49.6 141.29,-45.48 127.5,-41.55"/>
<polygon fill="midnightblue" stroke="midnightblue" points="334.48,-91.38 344.96,-89.81 335.79,-84.5 334.48,-91.38"/>
</g>
<!-- Node3 -->
<g id="node3" class="node">
<title>Node3</title>
<g id="a_node3"><a xlink:href="../../d7/db8/add__node__to__python_8cpp.html" target="_top" xlink:title=" ">
<polygon fill="none" stroke="black" points="179.5,-11.5 179.5,-41.5 337.5,-41.5 337.5,-11.5 179.5,-11.5"/>
<text text-anchor="start" x="187.5" y="-29.5" font-family="Helvetica,sans-Serif" font-size="10.00">/github/workspace/kratos</text>
<text text-anchor="middle" x="258.5" y="-18.5" font-family="Helvetica,sans-Serif" font-size="10.00">/python/add_node_to_python.cpp</text>
</a>
</g>
</g>
<!-- Node1&#45;&gt;Node3 -->
<g id="edge2" class="edge">
<title>Node1&#45;&gt;Node3</title>
<path fill="none" stroke="midnightblue" d="M381.12,-85.02C352.56,-71.63 314.52,-53.78 288.43,-41.54"/>
<polygon fill="midnightblue" stroke="midnightblue" points="379.87,-88.3 390.41,-89.38 382.84,-81.97 379.87,-88.3"/>
</g>
<!-- Node4 -->
<g id="node4" class="node">
<title>Node4</title>
<g id="a_node4"><a xlink:href="../../d6/dc7/kratos__python_8cpp.html" target="_top" xlink:title=" ">
<polygon fill="none" stroke="black" points="355.5,-11.5 355.5,-41.5 485.5,-41.5 485.5,-11.5 355.5,-11.5"/>
<text text-anchor="start" x="363.5" y="-29.5" font-family="Helvetica,sans-Serif" font-size="10.00">/github/workspace/kratos</text>
<text text-anchor="middle" x="420.5" y="-18.5" font-family="Helvetica,sans-Serif" font-size="10.00">/python/kratos_python.cpp</text>
</a>
</g>
</g>
<!-- Node1&#45;&gt;Node4 -->
<g id="edge3" class="edge">
<title>Node1&#45;&gt;Node4</title>
<path fill="none" stroke="midnightblue" d="M420.5,-79.09C420.5,-66.76 420.5,-52.22 420.5,-41.73"/>
<polygon fill="midnightblue" stroke="midnightblue" points="417,-79.2 420.5,-89.2 424,-79.21 417,-79.2"/>
</g>
<!-- Node5 -->
<g id="node5" class="node">
<title>Node5</title>
<g id="a_node5"><a xlink:href="../../d4/db1/add__conditions__to__python_8cpp.html" target="_top" xlink:title=" ">
<polygon fill="none" stroke="black" points="503.5,-6 503.5,-47 687.5,-47 687.5,-6 503.5,-6"/>
<text text-anchor="start" x="511.5" y="-35" font-family="Helvetica,sans-Serif" font-size="10.00">/github/workspace/applications</text>
<text text-anchor="start" x="511.5" y="-24" font-family="Helvetica,sans-Serif" font-size="10.00">/structural_application/custom</text>
<text text-anchor="middle" x="595.5" y="-13" font-family="Helvetica,sans-Serif" font-size="10.00">_python/add_conditions_to_python.cpp</text>
</a>
</g>
</g>
<!-- Node1&#45;&gt;Node5 -->
<g id="edge4" class="edge">
<title>Node1&#45;&gt;Node5</title>
<path fill="none" stroke="midnightblue" d="M462.4,-85.31C488.91,-73.79 523.18,-58.91 550.3,-47.13"/>
<polygon fill="midnightblue" stroke="midnightblue" points="460.78,-82.19 453.01,-89.38 463.57,-88.61 460.78,-82.19"/>
</g>
<!-- Node6 -->
<g id="node6" class="node">
<title>Node6</title>
<g id="a_node6"><a xlink:href="../../d0/d75/add__constitutive__laws__to__python_8cpp.html" target="_top" xlink:title=" ">
<polygon fill="none" stroke="black" points="706,-0.5 706,-52.5 857,-52.5 857,-0.5 706,-0.5"/>
<text text-anchor="start" x="714" y="-40.5" font-family="Helvetica,sans-Serif" font-size="10.00">/github/workspace/applications</text>
<text text-anchor="start" x="714" y="-29.5" font-family="Helvetica,sans-Serif" font-size="10.00">/structural_application/custom</text>
<text text-anchor="start" x="714" y="-18.5" font-family="Helvetica,sans-Serif" font-size="10.00">_python/add_constitutive_laws</text>
<text text-anchor="middle" x="781.5" y="-7.5" font-family="Helvetica,sans-Serif" font-size="10.00">_to_python.cpp</text>
</a>
</g>
</g>
<!-- Node1&#45;&gt;Node6 -->
<g id="edge5" class="edge">
<title>Node1&#45;&gt;Node6</title>
<path fill="none" stroke="midnightblue" d="M506.25,-90.32C561,-81.29 633.3,-68.21 696.5,-53 699.5,-52.28 702.54,-51.51 705.61,-50.72"/>
<polygon fill="midnightblue" stroke="midnightblue" points="505.54,-86.89 496.24,-91.96 506.67,-93.8 505.54,-86.89"/>
</g>
</g>
</svg>
