<?xml version="1.0" encoding="UTF-8" standalone="no"?>
<!DOCTYPE svg PUBLIC "-//W3C//DTD SVG 1.1//EN"
 "http://www.w3.org/Graphics/SVG/1.1/DTD/svg11.dtd">
<!-- Generated by graphviz version 2.48.0 (20210719.0153)
 -->
<!-- Title: /github/workspace/applications/structural_application/constitutive_laws/isotropic_2d.h Pages: 1 -->
<svg width="734pt" height="139pt"
 viewBox="0.00 0.00 734.00 139.00" xmlns="http://www.w3.org/2000/svg" xmlns:xlink="http://www.w3.org/1999/xlink">
<g id="graph0" class="graph" transform="scale(1 1) rotate(0) translate(4 135)">
<title>/github/workspace/applications/structural_application/constitutive_laws/isotropic_2d.h</title>
<!-- Node1 -->
<g id="node1" class="node">
<title>Node1</title>
<g id="a_node1"><a xlink:title=" ">
<polygon fill="#bfbfbf" stroke="black" points="290,-89.5 290,-130.5 455,-130.5 455,-89.5 290,-89.5"/>
<text text-anchor="start" x="298" y="-118.5" font-family="Helvetica,sans-Serif" font-size="10.00">/github/workspace/applications</text>
<text text-anchor="start" x="298" y="-107.5" font-family="Helvetica,sans-Serif" font-size="10.00">/structural_application/constitutive</text>
<text text-anchor="middle" x="372.5" y="-96.5" font-family="Helvetica,sans-Serif" font-size="10.00">_laws/isotropic_2d.h</text>
</a>
</g>
</g>
<!-- Node2 -->
<g id="node2" class="node">
<title>Node2</title>
<g id="a_node2"><a xlink:href="../../da/dcd/isotropic__2d_8cpp.html" target="_top" xlink:title=" ">
<polygon fill="none" stroke="black" points="0,-6 0,-47 165,-47 165,-6 0,-6"/>
<text text-anchor="start" x="8" y="-35" font-family="Helvetica,sans-Serif" font-size="10.00">/github/workspace/applications</text>
<text text-anchor="start" x="8" y="-24" font-family="Helvetica,sans-Serif" font-size="10.00">/structural_application/constitutive</text>
<text text-anchor="middle" x="82.5" y="-13" font-family="Helvetica,sans-Serif" font-size="10.00">_laws/isotropic_2d.cpp</text>
</a>
</g>
</g>
<!-- Node1&#45;&gt;Node2 -->
<g id="edge1" class="edge">
<title>Node1&#45;&gt;Node2</title>
<path fill="none" stroke="midnightblue" d="M293.19,-86.71C248.97,-74.28 194.41,-58.95 151.9,-47"/>
<polygon fill="midnightblue" stroke="midnightblue" points="292.46,-90.14 303.04,-89.48 294.36,-83.4 292.46,-90.14"/>
</g>
<!-- Node3 -->
<g id="node3" class="node">
<title>Node3</title>
<g id="a_node3"><a xlink:href="../../d6/d69/crisfield__truss__element_8cpp.html" target="_top" xlink:title=" ">
<polygon fill="none" stroke="black" points="183.5,-6 183.5,-47 365.5,-47 365.5,-6 183.5,-6"/>
<text text-anchor="start" x="191.5" y="-35" font-family="Helvetica,sans-Serif" font-size="10.00">/github/workspace/applications</text>
<text text-anchor="start" x="191.5" y="-24" font-family="Helvetica,sans-Serif" font-size="10.00">/structural_application/custom</text>
<text text-anchor="middle" x="274.5" y="-13" font-family="Helvetica,sans-Serif" font-size="10.00">_elements/crisfield_truss_element.cpp</text>
</a>
</g>
</g>
<!-- Node1&#45;&gt;Node3 -->
<g id="edge2" class="edge">
<title>Node1&#45;&gt;Node3</title>
<path fill="none" stroke="midnightblue" d="M340.86,-82.69C326.93,-71.1 310.85,-57.73 298,-47.05"/>
<polygon fill="midnightblue" stroke="midnightblue" points="338.85,-85.57 348.78,-89.27 343.33,-80.19 338.85,-85.57"/>
</g>
<!-- Node4 -->
<g id="node4" class="node">
<title>Node4</title>
<g id="a_node4"><a xlink:href="../../dc/d54/_hypoelastic__element_8cpp.html" target="_top" xlink:title=" ">
<polygon fill="none" stroke="black" points="384,-6 384,-47 557,-47 557,-6 384,-6"/>
<text text-anchor="start" x="392" y="-35" font-family="Helvetica,sans-Serif" font-size="10.00">/github/workspace/applications</text>
<text text-anchor="start" x="392" y="-24" font-family="Helvetica,sans-Serif" font-size="10.00">/structural_application/custom</text>
<text text-anchor="middle" x="470.5" y="-13" font-family="Helvetica,sans-Serif" font-size="10.00">_elements/Hypoelastic_element.cpp</text>
</a>
</g>
</g>
<!-- Node1&#45;&gt;Node4 -->
<g id="edge3" class="edge">
<title>Node1&#45;&gt;Node4</title>
<path fill="none" stroke="midnightblue" d="M404.14,-82.69C418.07,-71.1 434.15,-57.73 447,-47.05"/>
<polygon fill="midnightblue" stroke="midnightblue" points="401.67,-80.19 396.22,-89.27 406.15,-85.57 401.67,-80.19"/>
</g>
<!-- Node5 -->
<g id="node5" class="node">
<title>Node5</title>
<g id="a_node5"><a xlink:href="../../d0/d75/add__constitutive__laws__to__python_8cpp.html" target="_top" xlink:title=" ">
<polygon fill="none" stroke="black" points="575,-0.5 575,-52.5 726,-52.5 726,-0.5 575,-0.5"/>
<text text-anchor="start" x="583" y="-40.5" font-family="Helvetica,sans-Serif" font-size="10.00">/github/workspace/applications</text>
<text text-anchor="start" x="583" y="-29.5" font-family="Helvetica,sans-Serif" font-size="10.00">/structural_application/custom</text>
<text text-anchor="start" x="583" y="-18.5" font-family="Helvetica,sans-Serif" font-size="10.00">_python/add_constitutive_laws</text>
<text text-anchor="middle" x="650.5" y="-7.5" font-family="Helvetica,sans-Serif" font-size="10.00">_to_python.cpp</text>
</a>
</g>
</g>
<!-- Node1&#45;&gt;Node5 -->
<g id="edge4" class="edge">
<title>Node1&#45;&gt;Node5</title>
<path fill="none" stroke="midnightblue" d="M451.02,-86.6C486.35,-76.45 528.56,-64.24 566.5,-53 569.28,-52.18 572.1,-51.34 574.96,-50.49"/>
<polygon fill="midnightblue" stroke="midnightblue" points="449.9,-83.28 441.25,-89.4 451.83,-90.01 449.9,-83.28"/>
</g>
</g>
</svg>
