<?xml version="1.0" encoding="UTF-8" standalone="no"?>
<!DOCTYPE svg PUBLIC "-//W3C//DTD SVG 1.1//EN"
 "http://www.w3.org/Graphics/SVG/1.1/DTD/svg11.dtd">
<!-- Generated by graphviz version 2.48.0 (20210719.0153)
 -->
<!-- Title: /github/workspace/kratos/python/add_compressed_matrix_to_python.cpp Pages: 1 -->
<svg width="2607pt" height="318pt"
 viewBox="0.00 0.00 2607.00 318.00" xmlns="http://www.w3.org/2000/svg" xmlns:xlink="http://www.w3.org/1999/xlink">
<g id="graph0" class="graph" transform="scale(1 1) rotate(0) translate(4 314)">
<title>/github/workspace/kratos/python/add_compressed_matrix_to_python.cpp</title>
<!-- Node1 -->
<g id="node1" class="node">
<title>Node1</title>
<g id="a_node1"><a xlink:title=" ">
<polygon fill="#bfbfbf" stroke="black" points="614,-268.5 614,-309.5 740,-309.5 740,-268.5 614,-268.5"/>
<text text-anchor="start" x="622" y="-297.5" font-family="Helvetica,sans-Serif" font-size="10.00">/github/workspace/kratos</text>
<text text-anchor="start" x="622" y="-286.5" font-family="Helvetica,sans-Serif" font-size="10.00">/python/add_compressed</text>
<text text-anchor="middle" x="677" y="-275.5" font-family="Helvetica,sans-Serif" font-size="10.00">_matrix_to_python.cpp</text>
</a>
</g>
</g>
<!-- Node2 -->
<g id="node2" class="node">
<title>Node2</title>
<g id="a_node2"><a xlink:title=" ">
<polygon fill="none" stroke="#bfbfbf" points="0,-207 0,-226 90,-226 90,-207 0,-207"/>
<text text-anchor="middle" x="45" y="-214" font-family="Helvetica,sans-Serif" font-size="10.00">boost/python.hpp</text>
</a>
</g>
</g>
<!-- Node1&#45;&gt;Node2 -->
<g id="edge1" class="edge">
<title>Node1&#45;&gt;Node2</title>
<path fill="none" stroke="midnightblue" d="M613.86,-284.8C507.88,-278.77 287.75,-263.39 104,-232 98.14,-231 92,-229.74 85.98,-228.37"/>
<polygon fill="midnightblue" stroke="midnightblue" points="86.59,-224.92 76.06,-226.02 84.98,-231.73 86.59,-224.92"/>
</g>
<!-- Node3 -->
<g id="node3" class="node">
<title>Node3</title>
<g id="a_node3"><a xlink:href="../../df/d67/define_8h.html" target="_top" xlink:title=" ">
<polygon fill="none" stroke="black" points="508.5,-62 508.5,-81 597.5,-81 597.5,-62 508.5,-62"/>
<text text-anchor="middle" x="553" y="-69" font-family="Helvetica,sans-Serif" font-size="10.00">includes/define.h</text>
</a>
</g>
</g>
<!-- Node1&#45;&gt;Node3 -->
<g id="edge2" class="edge">
<title>Node1&#45;&gt;Node3</title>
<path fill="none" stroke="midnightblue" d="M613.68,-281.91C494.59,-268.93 245.08,-233.92 199,-165 188.63,-149.48 186.77,-137.1 199,-123 237.05,-79.13 408.56,-72.41 498.13,-71.97"/>
<polygon fill="midnightblue" stroke="midnightblue" points="498.38,-75.47 508.37,-71.95 498.37,-68.47 498.38,-75.47"/>
</g>
<!-- Node9 -->
<g id="node9" class="node">
<title>Node9</title>
<g id="a_node9"><a xlink:href="../../d9/d3e/ublas__interface_8h.html" target="_top" xlink:title=" ">
<polygon fill="none" stroke="black" points="1364.5,-134.5 1364.5,-153.5 1493.5,-153.5 1493.5,-134.5 1364.5,-134.5"/>
<text text-anchor="middle" x="1429" y="-141.5" font-family="Helvetica,sans-Serif" font-size="10.00">includes/ublas_interface.h</text>
</a>
</g>
</g>
<!-- Node1&#45;&gt;Node9 -->
<g id="edge8" class="edge">
<title>Node1&#45;&gt;Node9</title>
<path fill="none" stroke="midnightblue" d="M740.14,-275.99C884.69,-248.51 1237.64,-181.39 1373.99,-155.46"/>
<polygon fill="midnightblue" stroke="midnightblue" points="1375.02,-158.83 1384.19,-153.52 1373.72,-151.95 1375.02,-158.83"/>
</g>
<!-- Node27 -->
<g id="node27" class="node">
<title>Node27</title>
<g id="a_node27"><a xlink:href="../../df/daf/matrix__python__interface_8h.html" target="_top" xlink:title=" ">
<polygon fill="none" stroke="black" points="370,-201.5 370,-231.5 478,-231.5 478,-201.5 370,-201.5"/>
<text text-anchor="start" x="378" y="-219.5" font-family="Helvetica,sans-Serif" font-size="10.00">python/matrix_python</text>
<text text-anchor="middle" x="424" y="-208.5" font-family="Helvetica,sans-Serif" font-size="10.00">_interface.h</text>
</a>
</g>
</g>
<!-- Node1&#45;&gt;Node27 -->
<g id="edge27" class="edge">
<title>Node1&#45;&gt;Node27</title>
<path fill="none" stroke="midnightblue" d="M613.81,-270.39C574.14,-259.34 523.28,-245.17 484.2,-234.27"/>
<polygon fill="midnightblue" stroke="midnightblue" points="485.1,-230.89 474.53,-231.58 483.22,-237.64 485.1,-230.89"/>
</g>
<!-- Node30 -->
<g id="node30" class="node">
<title>Node30</title>
<g id="a_node30"><a xlink:href="../../dd/d92/matrix__vector__operator__python_8h.html" target="_top" xlink:title=" ">
<polygon fill="none" stroke="black" points="623.5,-129 623.5,-159 730.5,-159 730.5,-129 623.5,-129"/>
<text text-anchor="start" x="631.5" y="-147" font-family="Helvetica,sans-Serif" font-size="10.00">python/matrix_vector</text>
<text text-anchor="middle" x="677" y="-136" font-family="Helvetica,sans-Serif" font-size="10.00">_operator_python.h</text>
</a>
</g>
</g>
<!-- Node1&#45;&gt;Node30 -->
<g id="edge49" class="edge">
<title>Node1&#45;&gt;Node30</title>
<path fill="none" stroke="midnightblue" d="M677,-268.42C677,-242.62 677,-197.26 677,-169.31"/>
<polygon fill="midnightblue" stroke="midnightblue" points="680.5,-169.18 677,-159.18 673.5,-169.18 680.5,-169.18"/>
</g>
<!-- Node32 -->
<g id="node32" class="node">
<title>Node32</title>
<g id="a_node32"><a xlink:href="../../d9/d71/matrix__scalar__operator__python_8h.html" target="_top" xlink:title=" ">
<polygon fill="none" stroke="black" points="748,-129 748,-159 854,-159 854,-129 748,-129"/>
<text text-anchor="start" x="756" y="-147" font-family="Helvetica,sans-Serif" font-size="10.00">python/matrix_scalar</text>
<text text-anchor="middle" x="801" y="-136" font-family="Helvetica,sans-Serif" font-size="10.00">_operator_python.h</text>
</a>
</g>
</g>
<!-- Node1&#45;&gt;Node32 -->
<g id="edge41" class="edge">
<title>Node1&#45;&gt;Node32</title>
<path fill="none" stroke="midnightblue" d="M693.98,-268.42C717.04,-241.82 758.13,-194.44 782.13,-166.76"/>
<polygon fill="midnightblue" stroke="midnightblue" points="784.8,-169.03 788.71,-159.18 779.51,-164.44 784.8,-169.03"/>
</g>
<!-- Node33 -->
<g id="node33" class="node">
<title>Node33</title>
<g id="a_node33"><a xlink:href="../../de/dfa/matrix__scalar__assignment__operator__python_8h.html" target="_top" xlink:title=" ">
<polygon fill="none" stroke="black" points="872.5,-123.5 872.5,-164.5 985.5,-164.5 985.5,-123.5 872.5,-123.5"/>
<text text-anchor="start" x="880.5" y="-152.5" font-family="Helvetica,sans-Serif" font-size="10.00">python/matrix_scalar</text>
<text text-anchor="start" x="880.5" y="-141.5" font-family="Helvetica,sans-Serif" font-size="10.00">_assignment_operator</text>
<text text-anchor="middle" x="929" y="-130.5" font-family="Helvetica,sans-Serif" font-size="10.00">_python.h</text>
</a>
</g>
</g>
<!-- Node1&#45;&gt;Node33 -->
<g id="edge45" class="edge">
<title>Node1&#45;&gt;Node33</title>
<path fill="none" stroke="midnightblue" d="M711.51,-268.42C756.81,-242.71 836.35,-197.57 885.66,-169.59"/>
<polygon fill="midnightblue" stroke="midnightblue" points="887.53,-172.56 894.5,-164.58 884.08,-166.47 887.53,-172.56"/>
</g>
<!-- Node4 -->
<g id="node4" class="node">
<title>Node4</title>
<g id="a_node4"><a xlink:title=" ">
<polygon fill="none" stroke="#bfbfbf" points="602.5,-0.5 602.5,-19.5 661.5,-19.5 661.5,-0.5 602.5,-0.5"/>
<text text-anchor="middle" x="632" y="-7.5" font-family="Helvetica,sans-Serif" font-size="10.00">stdexcept</text>
</a>
</g>
</g>
<!-- Node3&#45;&gt;Node4 -->
<g id="edge3" class="edge">
<title>Node3&#45;&gt;Node4</title>
<path fill="none" stroke="midnightblue" d="M564.32,-61.98C576.87,-52.52 597.35,-37.1 612.5,-25.69"/>
<polygon fill="midnightblue" stroke="midnightblue" points="614.82,-28.32 620.7,-19.51 610.61,-22.73 614.82,-28.32"/>
</g>
<!-- Node5 -->
<g id="node5" class="node">
<title>Node5</title>
<g id="a_node5"><a xlink:title=" ">
<polygon fill="none" stroke="#bfbfbf" points="680,-0.5 680,-19.5 732,-19.5 732,-0.5 680,-0.5"/>
<text text-anchor="middle" x="706" y="-7.5" font-family="Helvetica,sans-Serif" font-size="10.00">sstream</text>
</a>
</g>
</g>
<!-- Node3&#45;&gt;Node5 -->
<g id="edge4" class="edge">
<title>Node3&#45;&gt;Node5</title>
<path fill="none" stroke="midnightblue" d="M574.92,-61.98C601.05,-51.81 644.91,-34.76 674.63,-23.2"/>
<polygon fill="midnightblue" stroke="midnightblue" points="676.07,-26.4 684.12,-19.51 673.53,-19.87 676.07,-26.4"/>
</g>
<!-- Node6 -->
<g id="node6" class="node">
<title>Node6</title>
<g id="a_node6"><a xlink:title=" ">
<polygon fill="none" stroke="#bfbfbf" points="134.5,-0.5 134.5,-19.5 237.5,-19.5 237.5,-0.5 134.5,-0.5"/>
<text text-anchor="middle" x="186" y="-7.5" font-family="Helvetica,sans-Serif" font-size="10.00">boost/smart_ptr.hpp</text>
</a>
</g>
</g>
<!-- Node3&#45;&gt;Node6 -->
<g id="edge5" class="edge">
<title>Node3&#45;&gt;Node6</title>
<path fill="none" stroke="midnightblue" d="M508.37,-63.26C443.14,-52.69 321.55,-32.98 247.77,-21.01"/>
<polygon fill="midnightblue" stroke="midnightblue" points="248.12,-17.53 237.69,-19.38 247,-24.44 248.12,-17.53"/>
</g>
<!-- Node7 -->
<g id="node7" class="node">
<title>Node7</title>
<g id="a_node7"><a xlink:title=" ">
<polygon fill="none" stroke="#bfbfbf" points="314.5,-0.5 314.5,-19.5 445.5,-19.5 445.5,-0.5 314.5,-0.5"/>
<text text-anchor="middle" x="380" y="-7.5" font-family="Helvetica,sans-Serif" font-size="10.00">boost/current_function.hpp</text>
</a>
</g>
</g>
<!-- Node3&#45;&gt;Node7 -->
<g id="edge6" class="edge">
<title>Node3&#45;&gt;Node7</title>
<path fill="none" stroke="midnightblue" d="M528.21,-61.98C498.41,-51.72 448.21,-34.46 414.6,-22.9"/>
<polygon fill="midnightblue" stroke="midnightblue" points="415.34,-19.45 404.74,-19.51 413.06,-26.07 415.34,-19.45"/>
</g>
<!-- Node8 -->
<g id="node8" class="node">
<title>Node8</title>
<g id="a_node8"><a xlink:href="../../de/d17/kratos__config_8h.html" target="_top" xlink:title=" ">
<polygon fill="none" stroke="black" points="463.5,-0.5 463.5,-19.5 584.5,-19.5 584.5,-0.5 463.5,-0.5"/>
<text text-anchor="middle" x="524" y="-7.5" font-family="Helvetica,sans-Serif" font-size="10.00">includes/kratos_config.h</text>
</a>
</g>
</g>
<!-- Node3&#45;&gt;Node8 -->
<g id="edge7" class="edge">
<title>Node3&#45;&gt;Node8</title>
<path fill="none" stroke="midnightblue" d="M548.85,-61.98C544.62,-53.32 537.96,-39.65 532.6,-28.65"/>
<polygon fill="midnightblue" stroke="midnightblue" points="535.67,-26.96 528.15,-19.51 529.38,-30.03 535.67,-26.96"/>
</g>
<!-- Node9&#45;&gt;Node3 -->
<g id="edge26" class="edge">
<title>Node9&#45;&gt;Node3</title>
<path fill="none" stroke="midnightblue" d="M1364.45,-141.27C1227.72,-136.99 899.05,-123.49 626,-87 617.9,-85.92 609.34,-84.48 601.05,-82.94"/>
<polygon fill="midnightblue" stroke="midnightblue" points="601.6,-79.48 591.11,-81.02 600.27,-86.35 601.6,-79.48"/>
</g>
<!-- Node10 -->
<g id="node10" class="node">
<title>Node10</title>
<g id="a_node10"><a xlink:title=" ">
<polygon fill="none" stroke="#bfbfbf" points="635.5,-62 635.5,-81 676.5,-81 676.5,-62 635.5,-62"/>
<text text-anchor="middle" x="656" y="-69" font-family="Helvetica,sans-Serif" font-size="10.00">string</text>
</a>
</g>
</g>
<!-- Node9&#45;&gt;Node10 -->
<g id="edge9" class="edge">
<title>Node9&#45;&gt;Node10</title>
<path fill="none" stroke="midnightblue" d="M1364.25,-139.51C1195.46,-130.21 750.57,-104.37 686,-87 684.07,-86.48 682.12,-85.84 680.18,-85.12"/>
<polygon fill="midnightblue" stroke="midnightblue" points="681.4,-81.83 670.83,-81.03 678.59,-88.24 681.4,-81.83"/>
</g>
<!-- Node11 -->
<g id="node11" class="node">
<title>Node11</title>
<g id="a_node11"><a xlink:title=" ">
<polygon fill="none" stroke="#bfbfbf" points="695,-62 695,-81 749,-81 749,-62 695,-62"/>
<text text-anchor="middle" x="722" y="-69" font-family="Helvetica,sans-Serif" font-size="10.00">iostream</text>
</a>
</g>
</g>
<!-- Node9&#45;&gt;Node11 -->
<g id="edge10" class="edge">
<title>Node9&#45;&gt;Node11</title>
<path fill="none" stroke="midnightblue" d="M1364.41,-140.07C1219.47,-133.11 872.09,-114.09 758,-87 755.33,-86.37 752.59,-85.56 749.88,-84.67"/>
<polygon fill="midnightblue" stroke="midnightblue" points="750.93,-81.32 740.34,-81.12 748.49,-87.88 750.93,-81.32"/>
</g>
<!-- Node12 -->
<g id="node12" class="node">
<title>Node12</title>
<g id="a_node12"><a xlink:title=" ">
<polygon fill="none" stroke="#bfbfbf" points="1629,-56.5 1629,-86.5 1733,-86.5 1733,-56.5 1629,-56.5"/>
<text text-anchor="start" x="1637" y="-74.5" font-family="Helvetica,sans-Serif" font-size="10.00">boost/numeric/ublas</text>
<text text-anchor="middle" x="1681" y="-63.5" font-family="Helvetica,sans-Serif" font-size="10.00">/vector.hpp</text>
</a>
</g>
</g>
<!-- Node9&#45;&gt;Node12 -->
<g id="edge11" class="edge">
<title>Node9&#45;&gt;Node12</title>
<path fill="none" stroke="midnightblue" d="M1459.4,-134.5C1499.28,-123.34 1570.17,-103.5 1621.04,-89.27"/>
<polygon fill="midnightblue" stroke="midnightblue" points="1622.25,-92.57 1630.94,-86.51 1620.36,-85.83 1622.25,-92.57"/>
</g>
<!-- Node13 -->
<g id="node13" class="node">
<title>Node13</title>
<g id="a_node13"><a xlink:title=" ">
<polygon fill="none" stroke="#bfbfbf" points="1751,-56.5 1751,-86.5 1855,-86.5 1855,-56.5 1751,-56.5"/>
<text text-anchor="start" x="1759" y="-74.5" font-family="Helvetica,sans-Serif" font-size="10.00">boost/numeric/ublas</text>
<text text-anchor="middle" x="1803" y="-63.5" font-family="Helvetica,sans-Serif" font-size="10.00">/vector_proxy.hpp</text>
</a>
</g>
</g>
<!-- Node9&#45;&gt;Node13 -->
<g id="edge12" class="edge">
<title>Node9&#45;&gt;Node13</title>
<path fill="none" stroke="midnightblue" d="M1481.79,-134.49C1542.08,-124.56 1643.89,-107.16 1740.83,-87.18"/>
<polygon fill="midnightblue" stroke="midnightblue" points="1741.72,-90.57 1750.8,-85.11 1740.3,-83.72 1741.72,-90.57"/>
</g>
<!-- Node14 -->
<g id="node14" class="node">
<title>Node14</title>
<g id="a_node14"><a xlink:title=" ">
<polygon fill="none" stroke="#bfbfbf" points="1873,-56.5 1873,-86.5 1977,-86.5 1977,-56.5 1873,-56.5"/>
<text text-anchor="start" x="1881" y="-74.5" font-family="Helvetica,sans-Serif" font-size="10.00">boost/numeric/ublas</text>
<text text-anchor="middle" x="1925" y="-63.5" font-family="Helvetica,sans-Serif" font-size="10.00">/vector_sparse.hpp</text>
</a>
</g>
</g>
<!-- Node9&#45;&gt;Node14 -->
<g id="edge13" class="edge">
<title>Node9&#45;&gt;Node14</title>
<path fill="none" stroke="midnightblue" d="M1493.82,-136.81C1577.02,-128.39 1725.98,-111.69 1862.6,-87.14"/>
<polygon fill="midnightblue" stroke="midnightblue" points="1863.62,-90.51 1872.83,-85.28 1862.37,-83.62 1863.62,-90.51"/>
</g>
<!-- Node15 -->
<g id="node15" class="node">
<title>Node15</title>
<g id="a_node15"><a xlink:title=" ">
<polygon fill="none" stroke="#bfbfbf" points="1995,-56.5 1995,-86.5 2111,-86.5 2111,-56.5 1995,-56.5"/>
<text text-anchor="start" x="2003" y="-74.5" font-family="Helvetica,sans-Serif" font-size="10.00">boost/numeric/ublas</text>
<text text-anchor="middle" x="2053" y="-63.5" font-family="Helvetica,sans-Serif" font-size="10.00">/vector_expression.hpp</text>
</a>
</g>
</g>
<!-- Node9&#45;&gt;Node15 -->
<g id="edge14" class="edge">
<title>Node9&#45;&gt;Node15</title>
<path fill="none" stroke="midnightblue" d="M1493.63,-138.88C1595.87,-131.84 1801.29,-115.58 1984.86,-87.06"/>
<polygon fill="midnightblue" stroke="midnightblue" points="1985.63,-90.49 1994.97,-85.48 1984.55,-83.57 1985.63,-90.49"/>
</g>
<!-- Node16 -->
<g id="node16" class="node">
<title>Node16</title>
<g id="a_node16"><a xlink:title=" ">
<polygon fill="none" stroke="#bfbfbf" points="2129,-56.5 2129,-86.5 2233,-86.5 2233,-56.5 2129,-56.5"/>
<text text-anchor="start" x="2137" y="-74.5" font-family="Helvetica,sans-Serif" font-size="10.00">boost/numeric/ublas</text>
<text text-anchor="middle" x="2181" y="-63.5" font-family="Helvetica,sans-Serif" font-size="10.00">/matrix.hpp</text>
</a>
</g>
</g>
<!-- Node9&#45;&gt;Node16 -->
<g id="edge15" class="edge">
<title>Node9&#45;&gt;Node16</title>
<path fill="none" stroke="midnightblue" d="M1493.69,-141.05C1614.74,-136.68 1883.7,-123.58 2118.75,-87.04"/>
<polygon fill="midnightblue" stroke="midnightblue" points="2119.53,-90.46 2128.86,-85.45 2118.44,-83.54 2119.53,-90.46"/>
</g>
<!-- Node17 -->
<g id="node17" class="node">
<title>Node17</title>
<g id="a_node17"><a xlink:title=" ">
<polygon fill="none" stroke="#bfbfbf" points="2251,-56.5 2251,-86.5 2355,-86.5 2355,-56.5 2251,-56.5"/>
<text text-anchor="start" x="2259" y="-74.5" font-family="Helvetica,sans-Serif" font-size="10.00">boost/numeric/ublas</text>
<text text-anchor="middle" x="2303" y="-63.5" font-family="Helvetica,sans-Serif" font-size="10.00">/matrix_sparse.hpp</text>
</a>
</g>
</g>
<!-- Node9&#45;&gt;Node17 -->
<g id="edge16" class="edge">
<title>Node9&#45;&gt;Node17</title>
<path fill="none" stroke="midnightblue" d="M1493.68,-142.15C1630.24,-139.58 1957.96,-129.3 2240.82,-87.01"/>
<polygon fill="midnightblue" stroke="midnightblue" points="2241.5,-90.44 2250.87,-85.49 2240.46,-83.52 2241.5,-90.44"/>
</g>
<!-- Node18 -->
<g id="node18" class="node">
<title>Node18</title>
<g id="a_node18"><a xlink:title=" ">
<polygon fill="none" stroke="#bfbfbf" points="2373,-56.5 2373,-86.5 2477,-86.5 2477,-56.5 2373,-56.5"/>
<text text-anchor="start" x="2381" y="-74.5" font-family="Helvetica,sans-Serif" font-size="10.00">boost/numeric/ublas</text>
<text text-anchor="middle" x="2425" y="-63.5" font-family="Helvetica,sans-Serif" font-size="10.00">/matrix_proxy.hpp</text>
</a>
</g>
</g>
<!-- Node9&#45;&gt;Node18 -->
<g id="edge17" class="edge">
<title>Node9&#45;&gt;Node18</title>
<path fill="none" stroke="midnightblue" d="M1493.73,-142.98C1644.66,-142.09 2031.6,-135.04 2362.6,-87.03"/>
<polygon fill="midnightblue" stroke="midnightblue" points="2363.49,-90.43 2372.87,-85.52 2362.47,-83.51 2363.49,-90.43"/>
</g>
<!-- Node19 -->
<g id="node19" class="node">
<title>Node19</title>
<g id="a_node19"><a xlink:title=" ">
<polygon fill="none" stroke="#bfbfbf" points="2495,-56.5 2495,-86.5 2599,-86.5 2599,-56.5 2495,-56.5"/>
<text text-anchor="start" x="2503" y="-74.5" font-family="Helvetica,sans-Serif" font-size="10.00">boost/numeric/ublas</text>
<text text-anchor="middle" x="2547" y="-63.5" font-family="Helvetica,sans-Serif" font-size="10.00">/symmetric.hpp</text>
</a>
</g>
</g>
<!-- Node9&#45;&gt;Node19 -->
<g id="edge18" class="edge">
<title>Node9&#45;&gt;Node19</title>
<path fill="none" stroke="midnightblue" d="M1493.74,-143.62C1658.18,-144.32 2105.19,-140.81 2484.79,-86.99"/>
<polygon fill="midnightblue" stroke="midnightblue" points="2485.47,-90.43 2494.88,-85.54 2484.48,-83.5 2485.47,-90.43"/>
</g>
<!-- Node20 -->
<g id="node20" class="node">
<title>Node20</title>
<g id="a_node20"><a xlink:title=" ">
<polygon fill="none" stroke="#bfbfbf" points="767,-56.5 767,-86.5 871,-86.5 871,-56.5 767,-56.5"/>
<text text-anchor="start" x="775" y="-74.5" font-family="Helvetica,sans-Serif" font-size="10.00">boost/numeric/ublas</text>
<text text-anchor="middle" x="819" y="-63.5" font-family="Helvetica,sans-Serif" font-size="10.00">/hermitian.hpp</text>
</a>
</g>
</g>
<!-- Node9&#45;&gt;Node20 -->
<g id="edge19" class="edge">
<title>Node9&#45;&gt;Node20</title>
<path fill="none" stroke="midnightblue" d="M1364.39,-139.18C1263.25,-132.58 1061.28,-116.97 881.07,-87.04"/>
<polygon fill="midnightblue" stroke="midnightblue" points="881.59,-83.58 871.15,-85.37 880.43,-90.48 881.59,-83.58"/>
</g>
<!-- Node21 -->
<g id="node21" class="node">
<title>Node21</title>
<g id="a_node21"><a xlink:title=" ">
<polygon fill="none" stroke="#bfbfbf" points="889,-56.5 889,-86.5 993,-86.5 993,-56.5 889,-56.5"/>
<text text-anchor="start" x="897" y="-74.5" font-family="Helvetica,sans-Serif" font-size="10.00">boost/numeric/ublas</text>
<text text-anchor="middle" x="941" y="-63.5" font-family="Helvetica,sans-Serif" font-size="10.00">/banded.hpp</text>
</a>
</g>
</g>
<!-- Node9&#45;&gt;Node21 -->
<g id="edge20" class="edge">
<title>Node9&#45;&gt;Node21</title>
<path fill="none" stroke="midnightblue" d="M1364.29,-136.61C1282.41,-128.06 1136.9,-111.31 1003.18,-87.1"/>
<polygon fill="midnightblue" stroke="midnightblue" points="1003.63,-83.63 993.17,-85.27 1002.38,-90.52 1003.63,-83.63"/>
</g>
<!-- Node22 -->
<g id="node22" class="node">
<title>Node22</title>
<g id="a_node22"><a xlink:title=" ">
<polygon fill="none" stroke="#bfbfbf" points="1011,-56.5 1011,-86.5 1115,-86.5 1115,-56.5 1011,-56.5"/>
<text text-anchor="start" x="1019" y="-74.5" font-family="Helvetica,sans-Serif" font-size="10.00">boost/numeric/ublas</text>
<text text-anchor="middle" x="1063" y="-63.5" font-family="Helvetica,sans-Serif" font-size="10.00">/triangular.hpp</text>
</a>
</g>
</g>
<!-- Node9&#45;&gt;Node22 -->
<g id="edge21" class="edge">
<title>Node9&#45;&gt;Node22</title>
<path fill="none" stroke="midnightblue" d="M1378.11,-134.49C1319.51,-124.5 1220.12,-106.99 1125.26,-87.21"/>
<polygon fill="midnightblue" stroke="midnightblue" points="1125.71,-83.72 1115.2,-85.1 1124.27,-90.58 1125.71,-83.72"/>
</g>
<!-- Node23 -->
<g id="node23" class="node">
<title>Node23</title>
<g id="a_node23"><a xlink:title=" ">
<polygon fill="none" stroke="#bfbfbf" points="1133,-56.5 1133,-86.5 1237,-86.5 1237,-56.5 1133,-56.5"/>
<text text-anchor="start" x="1141" y="-74.5" font-family="Helvetica,sans-Serif" font-size="10.00">boost/numeric/ublas</text>
<text text-anchor="middle" x="1185" y="-63.5" font-family="Helvetica,sans-Serif" font-size="10.00">/io.hpp</text>
</a>
</g>
</g>
<!-- Node9&#45;&gt;Node23 -->
<g id="edge22" class="edge">
<title>Node9&#45;&gt;Node23</title>
<path fill="none" stroke="midnightblue" d="M1399.57,-134.5C1361.03,-123.36 1292.59,-103.59 1243.36,-89.36"/>
<polygon fill="midnightblue" stroke="midnightblue" points="1244.05,-85.92 1233.47,-86.51 1242.11,-92.64 1244.05,-85.92"/>
</g>
<!-- Node24 -->
<g id="node24" class="node">
<title>Node24</title>
<g id="a_node24"><a xlink:title=" ">
<polygon fill="none" stroke="#bfbfbf" points="1255,-56.5 1255,-86.5 1359,-86.5 1359,-56.5 1255,-56.5"/>
<text text-anchor="start" x="1263" y="-74.5" font-family="Helvetica,sans-Serif" font-size="10.00">boost/numeric/ublas</text>
<text text-anchor="middle" x="1307" y="-63.5" font-family="Helvetica,sans-Serif" font-size="10.00">/operation.hpp</text>
</a>
</g>
</g>
<!-- Node9&#45;&gt;Node24 -->
<g id="edge23" class="edge">
<title>Node9&#45;&gt;Node24</title>
<path fill="none" stroke="midnightblue" d="M1414.04,-134.36C1395.76,-123.79 1364.29,-105.61 1340.19,-91.68"/>
<polygon fill="midnightblue" stroke="midnightblue" points="1341.77,-88.55 1331.36,-86.58 1338.27,-94.61 1341.77,-88.55"/>
</g>
<!-- Node25 -->
<g id="node25" class="node">
<title>Node25</title>
<g id="a_node25"><a xlink:title=" ">
<polygon fill="none" stroke="#bfbfbf" points="1377,-56.5 1377,-86.5 1481,-86.5 1481,-56.5 1377,-56.5"/>
<text text-anchor="start" x="1385" y="-74.5" font-family="Helvetica,sans-Serif" font-size="10.00">boost/numeric/ublas</text>
<text text-anchor="middle" x="1429" y="-63.5" font-family="Helvetica,sans-Serif" font-size="10.00">/lu.hpp</text>
</a>
</g>
</g>
<!-- Node9&#45;&gt;Node25 -->
<g id="edge24" class="edge">
<title>Node9&#45;&gt;Node25</title>
<path fill="none" stroke="midnightblue" d="M1429,-134.36C1429,-125.05 1429,-109.83 1429,-96.81"/>
<polygon fill="midnightblue" stroke="midnightblue" points="1432.5,-96.58 1429,-86.58 1425.5,-96.58 1432.5,-96.58"/>
</g>
<!-- Node26 -->
<g id="node26" class="node">
<title>Node26</title>
<g id="a_node26"><a xlink:title=" ">
<polygon fill="none" stroke="#bfbfbf" points="1499,-56.5 1499,-86.5 1611,-86.5 1611,-56.5 1499,-56.5"/>
<text text-anchor="start" x="1507" y="-74.5" font-family="Helvetica,sans-Serif" font-size="10.00">boost/numeric/ublas</text>
<text text-anchor="middle" x="1555" y="-63.5" font-family="Helvetica,sans-Serif" font-size="10.00">/operation_sparse.hpp</text>
</a>
</g>
</g>
<!-- Node9&#45;&gt;Node26 -->
<g id="edge25" class="edge">
<title>Node9&#45;&gt;Node26</title>
<path fill="none" stroke="midnightblue" d="M1444.45,-134.36C1463.41,-123.75 1496.12,-105.45 1521.05,-91.5"/>
<polygon fill="midnightblue" stroke="midnightblue" points="1522.82,-94.51 1529.84,-86.58 1519.41,-88.4 1522.82,-94.51"/>
</g>
<!-- Node27&#45;&gt;Node3 -->
<g id="edge40" class="edge">
<title>Node27&#45;&gt;Node3</title>
<path fill="none" stroke="midnightblue" d="M369.7,-210.64C292.51,-201.69 165.39,-178.2 213,-123 249.14,-81.09 411.36,-73.4 498.02,-72.34"/>
<polygon fill="midnightblue" stroke="midnightblue" points="498.23,-75.84 508.19,-72.25 498.16,-68.84 498.23,-75.84"/>
</g>
<!-- Node27&#45;&gt;Node6 -->
<g id="edge28" class="edge">
<title>Node27&#45;&gt;Node6</title>
<path fill="none" stroke="midnightblue" d="M369.82,-210.63C310.56,-204.09 221.04,-190.27 199,-165 165.72,-126.83 174.45,-61.23 181.33,-29.4"/>
<polygon fill="midnightblue" stroke="midnightblue" points="184.74,-30.18 183.61,-19.65 177.92,-28.58 184.74,-30.18"/>
</g>
<!-- Node28 -->
<g id="node28" class="node">
<title>Node28</title>
<g id="a_node28"><a xlink:title=" ">
<polygon fill="none" stroke="#bfbfbf" points="222.5,-123.5 222.5,-164.5 347.5,-164.5 347.5,-123.5 222.5,-123.5"/>
<text text-anchor="start" x="230.5" y="-152.5" font-family="Helvetica,sans-Serif" font-size="10.00">boost/python/suite</text>
<text text-anchor="start" x="230.5" y="-141.5" font-family="Helvetica,sans-Serif" font-size="10.00">/indexing/vector_indexing</text>
<text text-anchor="middle" x="285" y="-130.5" font-family="Helvetica,sans-Serif" font-size="10.00">_suite.hpp</text>
</a>
</g>
</g>
<!-- Node27&#45;&gt;Node28 -->
<g id="edge29" class="edge">
<title>Node27&#45;&gt;Node28</title>
<path fill="none" stroke="midnightblue" d="M396.21,-201.4C378.05,-192.2 353.88,-179.94 332.71,-169.2"/>
<polygon fill="midnightblue" stroke="midnightblue" points="334.04,-165.95 323.54,-164.55 330.87,-172.19 334.04,-165.95"/>
</g>
<!-- Node29 -->
<g id="node29" class="node">
<title>Node29</title>
<g id="a_node29"><a xlink:href="../../d6/d1a/readonly__matrix__python__interface_8h.html" target="_top" xlink:title=" ">
<polygon fill="none" stroke="black" points="366,-129 366,-159 482,-159 482,-129 366,-129"/>
<text text-anchor="start" x="374" y="-147" font-family="Helvetica,sans-Serif" font-size="10.00">python/readonly_matrix</text>
<text text-anchor="middle" x="424" y="-136" font-family="Helvetica,sans-Serif" font-size="10.00">_python_interface.h</text>
</a>
</g>
</g>
<!-- Node27&#45;&gt;Node29 -->
<g id="edge30" class="edge">
<title>Node27&#45;&gt;Node29</title>
<path fill="none" stroke="midnightblue" d="M424,-201.23C424,-192.16 424,-180.16 424,-169.58"/>
<polygon fill="midnightblue" stroke="midnightblue" points="427.5,-169.25 424,-159.25 420.5,-169.25 427.5,-169.25"/>
</g>
<!-- Node27&#45;&gt;Node30 -->
<g id="edge32" class="edge">
<title>Node27&#45;&gt;Node30</title>
<path fill="none" stroke="midnightblue" d="M478.14,-202.01C516.5,-192.25 569.09,-178.46 615,-165 618.15,-164.08 621.38,-163.11 624.63,-162.11"/>
<polygon fill="midnightblue" stroke="midnightblue" points="625.89,-165.38 634.4,-159.07 623.81,-158.7 625.89,-165.38"/>
</g>
<!-- Node31 -->
<g id="node31" class="node">
<title>Node31</title>
<g id="a_node31"><a xlink:href="../../dd/d0a/matrix__matrix__operator__python_8h.html" target="_top" xlink:title=" ">
<polygon fill="none" stroke="black" points="500,-129 500,-159 606,-159 606,-129 500,-129"/>
<text text-anchor="start" x="508" y="-147" font-family="Helvetica,sans-Serif" font-size="10.00">python/matrix_matrix</text>
<text text-anchor="middle" x="553" y="-136" font-family="Helvetica,sans-Serif" font-size="10.00">_operator_python.h</text>
</a>
</g>
</g>
<!-- Node27&#45;&gt;Node31 -->
<g id="edge36" class="edge">
<title>Node27&#45;&gt;Node31</title>
<path fill="none" stroke="midnightblue" d="M449.8,-201.4C469.48,-190.64 496.8,-175.71 518.39,-163.92"/>
<polygon fill="midnightblue" stroke="midnightblue" points="520.15,-166.94 527.25,-159.07 516.8,-160.8 520.15,-166.94"/>
</g>
<!-- Node29&#45;&gt;Node3 -->
<g id="edge31" class="edge">
<title>Node29&#45;&gt;Node3</title>
<path fill="none" stroke="midnightblue" d="M449.8,-128.9C472.7,-116.39 505.93,-98.22 528.45,-85.92"/>
<polygon fill="midnightblue" stroke="midnightblue" points="530.29,-88.9 537.39,-81.03 526.93,-82.76 530.29,-88.9"/>
</g>
<!-- Node30&#45;&gt;Node3 -->
<g id="edge35" class="edge">
<title>Node30&#45;&gt;Node3</title>
<path fill="none" stroke="midnightblue" d="M652.2,-128.9C630.29,-116.44 598.53,-98.38 576.89,-86.08"/>
<polygon fill="midnightblue" stroke="midnightblue" points="578.43,-82.93 568.01,-81.03 574.97,-89.02 578.43,-82.93"/>
</g>
<!-- Node30&#45;&gt;Node10 -->
<g id="edge33" class="edge">
<title>Node30&#45;&gt;Node10</title>
<path fill="none" stroke="midnightblue" d="M672.75,-128.73C669.52,-117.89 665.05,-102.88 661.54,-91.1"/>
<polygon fill="midnightblue" stroke="midnightblue" points="664.86,-89.98 658.65,-81.39 658.15,-91.98 664.86,-89.98"/>
</g>
<!-- Node30&#45;&gt;Node11 -->
<g id="edge34" class="edge">
<title>Node30&#45;&gt;Node11</title>
<path fill="none" stroke="midnightblue" d="M686.11,-128.73C693.24,-117.56 703.2,-101.96 710.81,-90.02"/>
<polygon fill="midnightblue" stroke="midnightblue" points="713.89,-91.71 716.32,-81.39 707.99,-87.94 713.89,-91.71"/>
</g>
<!-- Node31&#45;&gt;Node3 -->
<g id="edge39" class="edge">
<title>Node31&#45;&gt;Node3</title>
<path fill="none" stroke="midnightblue" d="M553,-128.73C553,-118 553,-103.19 553,-91.46"/>
<polygon fill="midnightblue" stroke="midnightblue" points="556.5,-91.39 553,-81.39 549.5,-91.39 556.5,-91.39"/>
</g>
<!-- Node31&#45;&gt;Node10 -->
<g id="edge37" class="edge">
<title>Node31&#45;&gt;Node10</title>
<path fill="none" stroke="midnightblue" d="M573.84,-128.73C591.56,-116.6 616.9,-99.26 634.74,-87.05"/>
<polygon fill="midnightblue" stroke="midnightblue" points="637.03,-89.73 643.3,-81.19 633.07,-83.95 637.03,-89.73"/>
</g>
<!-- Node31&#45;&gt;Node11 -->
<g id="edge38" class="edge">
<title>Node31&#45;&gt;Node11</title>
<path fill="none" stroke="midnightblue" d="M586.79,-128.9C617.6,-116.05 662.68,-97.24 692.18,-84.94"/>
<polygon fill="midnightblue" stroke="midnightblue" points="693.66,-88.11 701.54,-81.03 690.97,-81.65 693.66,-88.11"/>
</g>
<!-- Node32&#45;&gt;Node3 -->
<g id="edge44" class="edge">
<title>Node32&#45;&gt;Node3</title>
<path fill="none" stroke="midnightblue" d="M758.39,-128.96C751.91,-126.91 745.29,-124.87 739,-123 690.47,-108.59 634.35,-93.58 596.55,-83.71"/>
<polygon fill="midnightblue" stroke="midnightblue" points="596.96,-80.2 586.4,-81.06 595.19,-86.97 596.96,-80.2"/>
</g>
<!-- Node32&#45;&gt;Node10 -->
<g id="edge42" class="edge">
<title>Node32&#45;&gt;Node10</title>
<path fill="none" stroke="midnightblue" d="M772.01,-128.9C745.92,-116.22 707.9,-97.73 682.58,-85.42"/>
<polygon fill="midnightblue" stroke="midnightblue" points="684.08,-82.26 673.55,-81.03 681.01,-88.55 684.08,-82.26"/>
</g>
<!-- Node32&#45;&gt;Node11 -->
<g id="edge43" class="edge">
<title>Node32&#45;&gt;Node11</title>
<path fill="none" stroke="midnightblue" d="M785.01,-128.73C771.87,-117 753.27,-100.4 739.68,-88.28"/>
<polygon fill="midnightblue" stroke="midnightblue" points="741.76,-85.44 731.97,-81.39 737.1,-90.66 741.76,-85.44"/>
</g>
<!-- Node33&#45;&gt;Node3 -->
<g id="edge48" class="edge">
<title>Node33&#45;&gt;Node3</title>
<path fill="none" stroke="midnightblue" d="M872.26,-125.24C869.14,-124.44 866.04,-123.69 863,-123 759.08,-99.49 730.94,-105.38 626,-87 618.91,-85.76 611.45,-84.37 604.12,-82.96"/>
<polygon fill="midnightblue" stroke="midnightblue" points="604.73,-79.51 594.25,-81.03 603.39,-86.38 604.73,-79.51"/>
</g>
<!-- Node33&#45;&gt;Node10 -->
<g id="edge46" class="edge">
<title>Node33&#45;&gt;Node10</title>
<path fill="none" stroke="midnightblue" d="M872.21,-125.42C869.1,-124.58 866.02,-123.76 863,-123 785.17,-103.34 762.06,-112.67 686,-87 684.38,-86.45 682.73,-85.84 681.09,-85.18"/>
<polygon fill="midnightblue" stroke="midnightblue" points="682.44,-81.95 671.88,-81.09 679.6,-88.35 682.44,-81.95"/>
</g>
<!-- Node33&#45;&gt;Node11 -->
<g id="edge47" class="edge">
<title>Node33&#45;&gt;Node11</title>
<path fill="none" stroke="midnightblue" d="M872.45,-125.52C838.98,-114.92 795.86,-100.81 758,-87 756.1,-86.31 754.15,-85.58 752.19,-84.83"/>
<polygon fill="midnightblue" stroke="midnightblue" points="753.06,-81.41 742.47,-81.02 750.5,-87.93 753.06,-81.41"/>
</g>
</g>
</svg>
