<?xml version="1.0" encoding="UTF-8" standalone="no"?>
<!DOCTYPE svg PUBLIC "-//W3C//DTD SVG 1.1//EN"
 "http://www.w3.org/Graphics/SVG/1.1/DTD/svg11.dtd">
<!-- Generated by graphviz version 2.48.0 (20210719.0153)
 -->
<!-- Title: boost::numeric::ublas::scalar_minus_assign&lt; T1, T2 &gt; Pages: 1 -->
<svg width="121pt" height="215pt"
 viewBox="0.00 0.00 121.00 215.00" xmlns="http://www.w3.org/2000/svg" xmlns:xlink="http://www.w3.org/1999/xlink">
<g id="graph0" class="graph" transform="scale(1 1) rotate(0) translate(4 211)">
<title>boost::numeric::ublas::scalar_minus_assign&lt; T1, T2 &gt;</title>
<!-- Node1 -->
<g id="node1" class="node">
<title>Node1</title>
<g id="a_node1"><a xlink:title=" ">
<polygon fill="#bfbfbf" stroke="black" points="0,-0.5 0,-90.5 113,-90.5 113,-0.5 0,-0.5"/>
<text text-anchor="start" x="8" y="-78.5" font-family="Helvetica,sans-Serif" font-size="10.00">boost::numeric::ublas</text>
<text text-anchor="start" x="8" y="-67.5" font-family="Helvetica,sans-Serif" font-size="10.00">::scalar_minus_assign</text>
<text text-anchor="middle" x="56.5" y="-56.5" font-family="Helvetica,sans-Serif" font-size="10.00">&lt; T1, T2 &gt;</text>
<polyline fill="none" stroke="black" points="0,-49.5 113,-49.5 "/>
<text text-anchor="start" x="8" y="-37.5" font-family="Helvetica,sans-Serif" font-size="10.00">+ computed</text>
<polyline fill="none" stroke="black" points="0,-30.5 113,-30.5 "/>
<text text-anchor="start" x="8" y="-18.5" font-family="Helvetica,sans-Serif" font-size="10.00">+ apply()</text>
<text text-anchor="start" x="8" y="-7.5" font-family="Helvetica,sans-Serif" font-size="10.00">+ apply()</text>
</a>
</g>
</g>
<!-- Node2 -->
<g id="node2" class="node">
<title>Node2</title>
<g id="a_node2"><a xlink:href="../../d7/d56/structboost_1_1numeric_1_1ublas_1_1scalar__binary__assign__functor.html" target="_top" xlink:title=" ">
<polygon fill="none" stroke="black" points="0.5,-127.5 0.5,-206.5 112.5,-206.5 112.5,-127.5 0.5,-127.5"/>
<text text-anchor="start" x="8.5" y="-194.5" font-family="Helvetica,sans-Serif" font-size="10.00">boost::numeric::ublas</text>
<text text-anchor="start" x="8.5" y="-183.5" font-family="Helvetica,sans-Serif" font-size="10.00">::scalar_binary_assign</text>
<text text-anchor="middle" x="56.5" y="-172.5" font-family="Helvetica,sans-Serif" font-size="10.00">_functor&lt; T1, T2 &gt;</text>
<polyline fill="none" stroke="black" points="0.5,-165.5 112.5,-165.5 "/>
<text text-anchor="middle" x="56.5" y="-153.5" font-family="Helvetica,sans-Serif" font-size="10.00"> </text>
<polyline fill="none" stroke="black" points="0.5,-146.5 112.5,-146.5 "/>
<text text-anchor="middle" x="56.5" y="-134.5" font-family="Helvetica,sans-Serif" font-size="10.00"> </text>
</a>
</g>
</g>
<!-- Node2&#45;&gt;Node1 -->
<g id="edge1" class="edge">
<title>Node2&#45;&gt;Node1</title>
<path fill="none" stroke="midnightblue" d="M49.85,-117.19C49.69,-108.49 49.72,-99.48 49.95,-90.91"/>
<polygon fill="none" stroke="midnightblue" points="46.35,-117.3 50.13,-127.2 53.35,-117.11 46.35,-117.3"/>
</g>
<!-- Node2&#45;&gt;Node1 -->
<g id="edge2" class="edge">
<title>Node2&#45;&gt;Node1</title>
<path fill="none" stroke="midnightblue" d="M63.15,-117.19C63.31,-108.49 63.28,-99.48 63.05,-90.91"/>
<polygon fill="none" stroke="midnightblue" points="59.65,-117.11 62.87,-127.2 66.65,-117.3 59.65,-117.11"/>
</g>
</g>
</svg>
