<?xml version="1.0" encoding="UTF-8" standalone="no"?>
<!DOCTYPE svg PUBLIC "-//W3C//DTD SVG 1.1//EN"
 "http://www.w3.org/Graphics/SVG/1.1/DTD/svg11.dtd">
<!-- Generated by graphviz version 2.48.0 (20210719.0153)
 -->
<!-- Title: boost::numeric::ublas::index_triple&lt; M &gt; Pages: 1 -->
<!--zoomable 551 -->
<svg id="main" version="1.1" xmlns="http://www.w3.org/2000/svg" xmlns:xlink="http://www.w3.org/1999/xlink" xml:space="preserve" onload="init(evt)">
<style type="text/css"><![CDATA[
.edge:hover path { stroke: red; }
.edge:hover polygon { stroke: red; fill: red; }
]]></style>
<script type="text/javascript"><![CDATA[
var edges = document.getElementsByTagName('g');
if (edges && edges.length) {
  for (var i=0;i<edges.length;i++) {
    if (edges[i].id.substr(0,4)=='edge') {
      edges[i].setAttribute('class','edge');
    }
  }
}
]]></script>
        <defs>
                <circle id="rim" cx="0" cy="0" r="7"/>
                <circle id="rim2" cx="0" cy="0" r="3.5"/>
                <g id="zoomPlus">
                        <use xlink:href="#rim" fill="#404040">
                                <set attributeName="fill" to="#808080" begin="zoomplus.mouseover" end="zoomplus.mouseout"/>
                        </use>
                        <path d="M-4,0h8M0,-4v8" fill="none" stroke="white" stroke-width="1.5" pointer-events="none"/>
                </g>
                <g id="zoomMin">
                        <use xlink:href="#rim" fill="#404040">
                                <set attributeName="fill" to="#808080" begin="zoomminus.mouseover" end="zoomminus.mouseout"/>
                        </use>
                        <path d="M-4,0h8" fill="none" stroke="white" stroke-width="1.5" pointer-events="none"/>
                </g>
                <g id="dirArrow">
                        <path fill="none" stroke="white" stroke-width="1.5" d="M0,-3.0v7 M-2.5,-0.5L0,-3.0L2.5,-0.5"/>
                </g>
               <g id="resetDef">
                       <use xlink:href="#rim2" fill="#404040">
                               <set attributeName="fill" to="#808080" begin="reset.mouseover" end="reset.mouseout"/>
                       </use>
               </g>
        </defs>

<script type="text/javascript">
var viewWidth = 256;
var viewHeight = 551;
var sectionId = 'dynsection-0';
</script>
<script xlink:href="../../svgpan.js"/>
<svg id="graph" class="graph">
<g id="viewport">
<title>boost::numeric::ublas::index_triple&lt; M &gt;</title>
<!-- Node1 -->
<g id="node1" class="node">
<title>Node1</title>
<g id="a_node1"><a xlink:title=" ">
<polygon fill="#bfbfbf" stroke="black" points="62,-0.5 62,-211.5 169,-211.5 169,-0.5 62,-0.5"/>
<text text-anchor="start" x="70" y="-199.5" font-family="Helvetica,sans-Serif" font-size="10.00">boost::numeric::ublas</text>
<text text-anchor="middle" x="115.5" y="-188.5" font-family="Helvetica,sans-Serif" font-size="10.00">::index_triple&lt; M &gt;</text>
<polyline fill="none" stroke="black" points="62,-181.5 169,-181.5 "/>
<text text-anchor="middle" x="115.5" y="-169.5" font-family="Helvetica,sans-Serif" font-size="10.00"> </text>
<polyline fill="none" stroke="black" points="62,-162.5 169,-162.5 "/>
<text text-anchor="start" x="70" y="-150.5" font-family="Helvetica,sans-Serif" font-size="10.00">+ index_triple()</text>
<text text-anchor="start" x="70" y="-139.5" font-family="Helvetica,sans-Serif" font-size="10.00">+ index_triple()</text>
<text text-anchor="start" x="70" y="-128.5" font-family="Helvetica,sans-Serif" font-size="10.00">+ ~index_triple()</text>
<text text-anchor="start" x="70" y="-117.5" font-family="Helvetica,sans-Serif" font-size="10.00">+ operator=()</text>
<text text-anchor="start" x="70" y="-106.5" font-family="Helvetica,sans-Serif" font-size="10.00">+ swap()</text>
<text text-anchor="start" x="70" y="-95.5" font-family="Helvetica,sans-Serif" font-size="10.00">+ equal()</text>
<text text-anchor="start" x="70" y="-84.5" font-family="Helvetica,sans-Serif" font-size="10.00">+ less()</text>
<text text-anchor="start" x="70" y="-73.5" font-family="Helvetica,sans-Serif" font-size="10.00">+ index_triple()</text>
<text text-anchor="start" x="70" y="-62.5" font-family="Helvetica,sans-Serif" font-size="10.00">+ index_triple()</text>
<text text-anchor="start" x="70" y="-51.5" font-family="Helvetica,sans-Serif" font-size="10.00">+ ~index_triple()</text>
<text text-anchor="start" x="70" y="-40.5" font-family="Helvetica,sans-Serif" font-size="10.00">+ operator=()</text>
<text text-anchor="start" x="70" y="-29.5" font-family="Helvetica,sans-Serif" font-size="10.00">+ swap()</text>
<text text-anchor="start" x="70" y="-18.5" font-family="Helvetica,sans-Serif" font-size="10.00">+ equal()</text>
<text text-anchor="start" x="70" y="-7.5" font-family="Helvetica,sans-Serif" font-size="10.00">+ less()</text>
</a>
</g>
</g>
<!-- Node2 -->
<g id="node2" class="node">
<title>Node2</title>
<g id="a_node2"><a xlink:title=" ">
<polygon fill="none" stroke="#bfbfbf" points="0,-303.5 0,-360.5 99,-360.5 99,-303.5 0,-303.5"/>
<text text-anchor="middle" x="49.5" y="-348.5" font-family="Helvetica,sans-Serif" font-size="10.00">boost::noncopyable</text>
<polyline fill="none" stroke="#bfbfbf" points="0,-341.5 99,-341.5 "/>
<text text-anchor="middle" x="49.5" y="-329.5" font-family="Helvetica,sans-Serif" font-size="10.00"> </text>
<polyline fill="none" stroke="#bfbfbf" points="0,-322.5 99,-322.5 "/>
<text text-anchor="middle" x="49.5" y="-310.5" font-family="Helvetica,sans-Serif" font-size="10.00"> </text>
</a>
</g>
</g>
<!-- Node2&#45;&gt;Node1 -->
<g id="edge1" class="edge">
<title>Node2&#45;&gt;Node1</title>
<path fill="none" stroke="#8b1a1a" d="M55.42,-293.26C60.94,-270.69 69.24,-240.8 77.95,-211.59"/>
<polygon fill="none" stroke="#8b1a1a" points="51.99,-292.54 53.08,-303.08 58.8,-294.16 51.99,-292.54"/>
</g>
<!-- Node2&#45;&gt;Node1 -->
<g id="edge5" class="edge">
<title>Node2&#45;&gt;Node1</title>
<path fill="none" stroke="#8b1a1a" d="M65.72,-293.56C73.52,-270.96 82.88,-240.93 91.42,-211.59"/>
<polygon fill="none" stroke="#8b1a1a" points="62.39,-292.49 62.37,-303.08 68.99,-294.81 62.39,-292.49"/>
</g>
<!-- Node3 -->
<g id="node3" class="node">
<title>Node3</title>
<g id="a_node3"><a xlink:href="../../dc/d0a/classboost_1_1numeric_1_1ublas_1_1container__reference.html" target="_top" xlink:title=" ">
<polygon fill="none" stroke="black" points="117,-248.5 117,-415.5 248,-415.5 248,-248.5 117,-248.5"/>
<text text-anchor="start" x="125" y="-403.5" font-family="Helvetica,sans-Serif" font-size="10.00">boost::numeric::ublas</text>
<text text-anchor="middle" x="182.5" y="-392.5" font-family="Helvetica,sans-Serif" font-size="10.00">::container_reference&lt; M &gt;</text>
<polyline fill="none" stroke="black" points="117,-385.5 248,-385.5 "/>
<text text-anchor="middle" x="182.5" y="-373.5" font-family="Helvetica,sans-Serif" font-size="10.00"> </text>
<polyline fill="none" stroke="black" points="117,-366.5 248,-366.5 "/>
<text text-anchor="start" x="125" y="-354.5" font-family="Helvetica,sans-Serif" font-size="10.00">+ container_reference()</text>
<text text-anchor="start" x="125" y="-343.5" font-family="Helvetica,sans-Serif" font-size="10.00">+ container_reference()</text>
<text text-anchor="start" x="125" y="-332.5" font-family="Helvetica,sans-Serif" font-size="10.00">+ container_reference()</text>
<text text-anchor="start" x="125" y="-321.5" font-family="Helvetica,sans-Serif" font-size="10.00">+ container_reference()</text>
<text text-anchor="start" x="125" y="-310.5" font-family="Helvetica,sans-Serif" font-size="10.00">+ operator()()</text>
<text text-anchor="start" x="125" y="-299.5" font-family="Helvetica,sans-Serif" font-size="10.00">+ operator()()</text>
<text text-anchor="start" x="125" y="-288.5" font-family="Helvetica,sans-Serif" font-size="10.00">+ assign()</text>
<text text-anchor="start" x="125" y="-277.5" font-family="Helvetica,sans-Serif" font-size="10.00">+ assign()</text>
<text text-anchor="start" x="125" y="-266.5" font-family="Helvetica,sans-Serif" font-size="10.00">+ same_closure()</text>
<text text-anchor="start" x="125" y="-255.5" font-family="Helvetica,sans-Serif" font-size="10.00">+ same_closure()</text>
</a>
</g>
</g>
<!-- Node3&#45;&gt;Node1 -->
<g id="edge2" class="edge">
<title>Node3&#45;&gt;Node1</title>
<path fill="none" stroke="midnightblue" d="M148.15,-238.42C145.45,-229.66 142.75,-220.74 140.13,-211.88"/>
<polygon fill="none" stroke="midnightblue" points="144.89,-239.72 151.2,-248.23 151.57,-237.64 144.89,-239.72"/>
</g>
<!-- Node3&#45;&gt;Node1 -->
<g id="edge6" class="edge">
<title>Node3&#45;&gt;Node1</title>
<path fill="none" stroke="midnightblue" d="M161.47,-238.42C158.93,-229.66 156.29,-220.74 153.61,-211.88"/>
<polygon fill="none" stroke="midnightblue" points="158.16,-239.58 164.28,-248.23 164.89,-237.65 158.16,-239.58"/>
</g>
<!-- Node4 -->
<g id="node4" class="node">
<title>Node4</title>
<g id="a_node4"><a xlink:href="../../d2/dbf/classboost_1_1numeric_1_1ublas_1_1nonassignable___1_1nonassignable.html" target="_top" xlink:title=" ">
<polygon fill="none" stroke="black" points="133.5,-452.5 133.5,-542.5 231.5,-542.5 231.5,-452.5 133.5,-452.5"/>
<text text-anchor="middle" x="182.5" y="-530.5" font-family="Helvetica,sans-Serif" font-size="10.00">nonassignable</text>
<polyline fill="none" stroke="black" points="133.5,-523.5 231.5,-523.5 "/>
<text text-anchor="middle" x="182.5" y="-511.5" font-family="Helvetica,sans-Serif" font-size="10.00"> </text>
<polyline fill="none" stroke="black" points="133.5,-504.5 231.5,-504.5 "/>
<text text-anchor="start" x="141.5" y="-492.5" font-family="Helvetica,sans-Serif" font-size="10.00"># nonassignable()</text>
<text text-anchor="start" x="141.5" y="-481.5" font-family="Helvetica,sans-Serif" font-size="10.00"># ~nonassignable()</text>
<text text-anchor="start" x="141.5" y="-470.5" font-family="Helvetica,sans-Serif" font-size="10.00"># nonassignable()</text>
<text text-anchor="start" x="141.5" y="-459.5" font-family="Helvetica,sans-Serif" font-size="10.00"># ~nonassignable()</text>
</a>
</g>
</g>
<!-- Node4&#45;&gt;Node3 -->
<g id="edge3" class="edge">
<title>Node4&#45;&gt;Node3</title>
<path fill="none" stroke="#8b1a1a" d="M176.1,-442.13C175.87,-433.63 175.76,-424.68 175.75,-415.72"/>
<polygon fill="none" stroke="#8b1a1a" points="172.6,-442.37 176.43,-452.25 179.6,-442.15 172.6,-442.37"/>
</g>
<!-- Node4&#45;&gt;Node3 -->
<g id="edge4" class="edge">
<title>Node4&#45;&gt;Node3</title>
<path fill="none" stroke="#8b1a1a" d="M188.9,-442.13C189.13,-433.63 189.24,-424.68 189.25,-415.72"/>
<polygon fill="none" stroke="#8b1a1a" points="185.4,-442.15 188.57,-452.25 192.4,-442.37 185.4,-442.15"/>
</g>
</g>
</svg>
        <g id="navigator" transform="translate(0 0)" fill="#404254">
                <rect fill="#f2f5e9" fill-opacity="0.5" stroke="#606060" stroke-width=".5" x="0" y="0" width="60" height="60"/>
                <use id="zoomplus" xlink:href="#zoomPlus" x="17" y="9" onmousedown="handleZoom(evt,'in')"/>
                <use id="zoomminus" xlink:href="#zoomMin" x="42" y="9" onmousedown="handleZoom(evt,'out')"/>
                <use id="reset" xlink:href="#resetDef" x="30" y="36" onmousedown="handleReset()"/>
                <g id="arrowUp" xlink:href="#dirArrow" transform="translate(30 24)" onmousedown="handlePan(0,-1)">
                  <use xlink:href="#rim" fill="#404040">
                        <set attributeName="fill" to="#808080" begin="arrowUp.mouseover" end="arrowUp.mouseout"/>
                  </use>
                  <path fill="none" stroke="white" stroke-width="1.5" d="M0,-3.0v7 M-2.5,-0.5L0,-3.0L2.5,-0.5"/>
                </g>
                <g id="arrowRight" xlink:href="#dirArrow" transform="rotate(90) translate(36 -43)" onmousedown="handlePan(1,0)">
                  <use xlink:href="#rim" fill="#404040">
                        <set attributeName="fill" to="#808080" begin="arrowRight.mouseover" end="arrowRight.mouseout"/>
                  </use>
                  <path fill="none" stroke="white" stroke-width="1.5" d="M0,-3.0v7 M-2.5,-0.5L0,-3.0L2.5,-0.5"/>
                </g>
                <g id="arrowDown" xlink:href="#dirArrow" transform="rotate(180) translate(-30 -48)" onmousedown="handlePan(0,1)">
                  <use xlink:href="#rim" fill="#404040">
                        <set attributeName="fill" to="#808080" begin="arrowDown.mouseover" end="arrowDown.mouseout"/>
                  </use>
                  <path fill="none" stroke="white" stroke-width="1.5" d="M0,-3.0v7 M-2.5,-0.5L0,-3.0L2.5,-0.5"/>
                </g>
                <g id="arrowLeft" xlink:href="#dirArrow" transform="rotate(270) translate(-36 17)" onmousedown="handlePan(-1,0)">
                  <use xlink:href="#rim" fill="#404040">
                        <set attributeName="fill" to="#808080" begin="arrowLeft.mouseover" end="arrowLeft.mouseout"/>
                  </use>
                  <path fill="none" stroke="white" stroke-width="1.5" d="M0,-3.0v7 M-2.5,-0.5L0,-3.0L2.5,-0.5"/>
                </g>
        </g>
        <svg viewBox="0 0 15 15" width="100%" height="30px" preserveAspectRatio="xMaxYMin meet">
         <g id="arrow_out" transform="scale(0.3 0.3)">
          <a xlink:href="classboost_1_1numeric_1_1ublas_1_1index__triple__inherit__graph_org.svg" target="_base">
           <rect id="button" ry="5" rx="5" y="6" x="6" height="38" width="38"
                fill="#f2f5e9" fill-opacity="0.5" stroke="#606060" stroke-width="1.0"/>
           <path id="arrow"
             d="M 11.500037,31.436501 C 11.940474,20.09759 22.043105,11.32322 32.158766,21.979434 L 37.068811,17.246167 C 37.068811,17.246167 37.088388,32 37.088388,32 L 22.160133,31.978069 C 22.160133,31.978069 26.997745,27.140456 26.997745,27.140456 C 18.528582,18.264221 13.291696,25.230495 11.500037,31.436501 z"
             style="fill:#404040;"/>
          </a>
         </g>
        </svg>
</svg>
