<?xml version="1.0" encoding="UTF-8" standalone="no"?>
<!DOCTYPE svg PUBLIC "-//W3C//DTD SVG 1.1//EN"
 "http://www.w3.org/Graphics/SVG/1.1/DTD/svg11.dtd">
<!-- Generated by graphviz version 2.48.0 (20210719.0153)
 -->
<!-- Title: /github/workspace/kratos/solving_strategies/strategies/residualbased_newton_raphson_strategy.h Pages: 1 -->
<svg width="553pt" height="239pt"
 viewBox="0.00 0.00 552.50 239.00" xmlns="http://www.w3.org/2000/svg" xmlns:xlink="http://www.w3.org/1999/xlink">
<g id="graph0" class="graph" transform="scale(1 1) rotate(0) translate(4 235)">
<title>/github/workspace/kratos/solving_strategies/strategies/residualbased_newton_raphson_strategy.h</title>
<!-- Node1 -->
<g id="node1" class="node">
<title>Node1</title>
<g id="a_node1"><a xlink:title=" ">
<polygon fill="#bfbfbf" stroke="black" points="171,-178.5 171,-230.5 327,-230.5 327,-178.5 171,-178.5"/>
<text text-anchor="start" x="179" y="-218.5" font-family="Helvetica,sans-Serif" font-size="10.00">/github/workspace/kratos</text>
<text text-anchor="start" x="179" y="-207.5" font-family="Helvetica,sans-Serif" font-size="10.00">/solving_strategies/strategies</text>
<text text-anchor="start" x="179" y="-196.5" font-family="Helvetica,sans-Serif" font-size="10.00">/residualbased_newton_raphson</text>
<text text-anchor="middle" x="249" y="-185.5" font-family="Helvetica,sans-Serif" font-size="10.00">_strategy.h</text>
</a>
</g>
</g>
<!-- Node2 -->
<g id="node2" class="node">
<title>Node2</title>
<g id="a_node2"><a xlink:href="../../d8/dd7/add__strategies__to__python_8cpp.html" target="_top" xlink:title=" ">
<polygon fill="none" stroke="black" points="0,-95 0,-136 126,-136 126,-95 0,-95"/>
<text text-anchor="start" x="8" y="-124" font-family="Helvetica,sans-Serif" font-size="10.00">/github/workspace/kratos</text>
<text text-anchor="start" x="8" y="-113" font-family="Helvetica,sans-Serif" font-size="10.00">/python/add_strategies</text>
<text text-anchor="middle" x="63" y="-102" font-family="Helvetica,sans-Serif" font-size="10.00">_to_python.cpp</text>
</a>
</g>
</g>
<!-- Node1&#45;&gt;Node2 -->
<g id="edge1" class="edge">
<title>Node1&#45;&gt;Node2</title>
<path fill="none" stroke="midnightblue" d="M185.92,-173.99C159.18,-161.49 128.76,-147.26 104.87,-136.08"/>
<polygon fill="midnightblue" stroke="midnightblue" points="184.66,-177.27 195.2,-178.34 187.63,-170.93 184.66,-177.27"/>
</g>
<!-- Node3 -->
<g id="node3" class="node">
<title>Node3</title>
<g id="a_node3"><a xlink:href="../../d4/de9/residualbased__convdiff__strategy__nonlinear_8h.html" target="_top" xlink:title=" ">
<polygon fill="none" stroke="black" points="144.5,-89.5 144.5,-141.5 353.5,-141.5 353.5,-89.5 144.5,-89.5"/>
<text text-anchor="start" x="152.5" y="-129.5" font-family="Helvetica,sans-Serif" font-size="10.00">/github/workspace/applications</text>
<text text-anchor="start" x="152.5" y="-118.5" font-family="Helvetica,sans-Serif" font-size="10.00">/convection_diffusion_application</text>
<text text-anchor="start" x="152.5" y="-107.5" font-family="Helvetica,sans-Serif" font-size="10.00">/custom_strategies/strategies/residualbased</text>
<text text-anchor="middle" x="249" y="-96.5" font-family="Helvetica,sans-Serif" font-size="10.00">_convdiff_strategy_nonlinear.h</text>
</a>
</g>
</g>
<!-- Node1&#45;&gt;Node3 -->
<g id="edge2" class="edge">
<title>Node1&#45;&gt;Node3</title>
<path fill="none" stroke="midnightblue" d="M249,-168.19C249,-159.28 249,-149.9 249,-141.61"/>
<polygon fill="midnightblue" stroke="midnightblue" points="245.5,-168.34 249,-178.34 252.5,-168.34 245.5,-168.34"/>
</g>
<!-- Node5 -->
<g id="node5" class="node">
<title>Node5</title>
<g id="a_node5"><a xlink:href="../../d6/d05/residualbased__uzawa__newton__raphson__strategy_8h.html" target="_top" xlink:title=" ">
<polygon fill="none" stroke="black" points="371.5,-89.5 371.5,-141.5 544.5,-141.5 544.5,-89.5 371.5,-89.5"/>
<text text-anchor="start" x="379.5" y="-129.5" font-family="Helvetica,sans-Serif" font-size="10.00">/github/workspace/applications</text>
<text text-anchor="start" x="379.5" y="-118.5" font-family="Helvetica,sans-Serif" font-size="10.00">/structural_application/custom</text>
<text text-anchor="start" x="379.5" y="-107.5" font-family="Helvetica,sans-Serif" font-size="10.00">_strategies/strategies/residualbased</text>
<text text-anchor="middle" x="458" y="-96.5" font-family="Helvetica,sans-Serif" font-size="10.00">_uzawa_newton_raphson_strategy.h</text>
</a>
</g>
</g>
<!-- Node1&#45;&gt;Node5 -->
<g id="edge4" class="edge">
<title>Node1&#45;&gt;Node5</title>
<path fill="none" stroke="midnightblue" d="M318.48,-174.58C344.19,-163.88 373.09,-151.85 397.89,-141.52"/>
<polygon fill="midnightblue" stroke="midnightblue" points="317.06,-171.38 309.17,-178.45 319.75,-177.84 317.06,-171.38"/>
</g>
<!-- Node4 -->
<g id="node4" class="node">
<title>Node4</title>
<g id="a_node4"><a xlink:href="../../de/d74/convection__diffusion__application_2custom__python_2add__custom__strategies__to__python_8cpp.html" target="_top" xlink:title=" ">
<polygon fill="none" stroke="black" points="154,-0.5 154,-52.5 344,-52.5 344,-0.5 154,-0.5"/>
<text text-anchor="start" x="162" y="-40.5" font-family="Helvetica,sans-Serif" font-size="10.00">/github/workspace/applications</text>
<text text-anchor="start" x="162" y="-29.5" font-family="Helvetica,sans-Serif" font-size="10.00">/convection_diffusion_application</text>
<text text-anchor="start" x="162" y="-18.5" font-family="Helvetica,sans-Serif" font-size="10.00">/custom_python/add_custom_strategies</text>
<text text-anchor="middle" x="249" y="-7.5" font-family="Helvetica,sans-Serif" font-size="10.00">_to_python.cpp</text>
</a>
</g>
</g>
<!-- Node3&#45;&gt;Node4 -->
<g id="edge3" class="edge">
<title>Node3&#45;&gt;Node4</title>
<path fill="none" stroke="midnightblue" d="M249,-79.19C249,-70.28 249,-60.9 249,-52.61"/>
<polygon fill="midnightblue" stroke="midnightblue" points="245.5,-79.34 249,-89.34 252.5,-79.34 245.5,-79.34"/>
</g>
</g>
</svg>
