<?xml version="1.0" encoding="UTF-8" standalone="no"?>
<!DOCTYPE svg PUBLIC "-//W3C//DTD SVG 1.1//EN"
 "http://www.w3.org/Graphics/SVG/1.1/DTD/svg11.dtd">
<!-- Generated by graphviz version 2.48.0 (20210719.0153)
 -->
<!-- Title: /github/workspace/kratos/linear_solvers/tfqmr_solver.h Pages: 1 -->
<svg width="611pt" height="341pt"
 viewBox="0.00 0.00 611.00 341.00" xmlns="http://www.w3.org/2000/svg" xmlns:xlink="http://www.w3.org/1999/xlink">
<g id="graph0" class="graph" transform="scale(1 1) rotate(0) translate(4 337)">
<title>/github/workspace/kratos/linear_solvers/tfqmr_solver.h</title>
<!-- Node1 -->
<g id="node1" class="node">
<title>Node1</title>
<g id="a_node1"><a xlink:title=" ">
<polygon fill="#bfbfbf" stroke="black" points="59.5,-302.5 59.5,-332.5 203.5,-332.5 203.5,-302.5 59.5,-302.5"/>
<text text-anchor="start" x="67.5" y="-320.5" font-family="Helvetica,sans-Serif" font-size="10.00">/github/workspace/kratos</text>
<text text-anchor="middle" x="131.5" y="-309.5" font-family="Helvetica,sans-Serif" font-size="10.00">/linear_solvers/tfqmr_solver.h</text>
</a>
</g>
</g>
<!-- Node2 -->
<g id="node2" class="node">
<title>Node2</title>
<g id="a_node2"><a xlink:title=" ">
<polygon fill="none" stroke="#bfbfbf" points="0,-0.5 0,-19.5 103,-19.5 103,-0.5 0,-0.5"/>
<text text-anchor="middle" x="51.5" y="-7.5" font-family="Helvetica,sans-Serif" font-size="10.00">boost/smart_ptr.hpp</text>
</a>
</g>
</g>
<!-- Node1&#45;&gt;Node2 -->
<g id="edge1" class="edge">
<title>Node1&#45;&gt;Node2</title>
<path fill="none" stroke="midnightblue" d="M115.69,-302.38C92.38,-279.92 51.5,-233.54 51.5,-184.5 51.5,-184.5 51.5,-184.5 51.5,-121 51.5,-88.95 51.5,-51.64 51.5,-29.75"/>
<polygon fill="midnightblue" stroke="midnightblue" points="55,-29.56 51.5,-19.56 48,-29.56 55,-29.56"/>
</g>
<!-- Node3 -->
<g id="node3" class="node">
<title>Node3</title>
<g id="a_node3"><a xlink:href="../../df/d67/define_8h.html" target="_top" xlink:title=" ">
<polygon fill="none" stroke="black" points="167,-56.5 167,-75.5 256,-75.5 256,-56.5 167,-56.5"/>
<text text-anchor="middle" x="211.5" y="-63.5" font-family="Helvetica,sans-Serif" font-size="10.00">includes/define.h</text>
</a>
</g>
</g>
<!-- Node1&#45;&gt;Node3 -->
<g id="edge2" class="edge">
<title>Node1&#45;&gt;Node3</title>
<path fill="none" stroke="midnightblue" d="M123.14,-302.48C117.78,-292.65 111.32,-278.99 108.5,-266 96.9,-212.56 136.75,-115.78 139.5,-112 149.68,-98.02 165.65,-87.41 179.96,-80.01"/>
<polygon fill="midnightblue" stroke="midnightblue" points="181.58,-83.11 189.05,-75.6 178.53,-76.81 181.58,-83.11"/>
</g>
<!-- Node8 -->
<g id="node8" class="node">
<title>Node8</title>
<g id="a_node8"><a xlink:href="../../da/df8/iterative__solver_8h.html" target="_top" xlink:title=" ">
<polygon fill="none" stroke="black" points="117.5,-235.5 117.5,-265.5 231.5,-265.5 231.5,-235.5 117.5,-235.5"/>
<text text-anchor="start" x="125.5" y="-253.5" font-family="Helvetica,sans-Serif" font-size="10.00">linear_solvers/iterative</text>
<text text-anchor="middle" x="174.5" y="-242.5" font-family="Helvetica,sans-Serif" font-size="10.00">_solver.h</text>
</a>
</g>
</g>
<!-- Node1&#45;&gt;Node8 -->
<g id="edge8" class="edge">
<title>Node1&#45;&gt;Node8</title>
<path fill="none" stroke="midnightblue" d="M140.83,-302.4C146.3,-294.13 153.33,-283.51 159.55,-274.1"/>
<polygon fill="midnightblue" stroke="midnightblue" points="162.59,-275.85 165.19,-265.58 156.75,-271.99 162.59,-275.85"/>
</g>
<!-- Node15 -->
<g id="node15" class="node">
<title>Node15</title>
<g id="a_node15"><a xlink:title=" ">
<polygon fill="none" stroke="#bfbfbf" points="249.5,-241 249.5,-260 295.5,-260 295.5,-241 249.5,-241"/>
<text text-anchor="middle" x="272.5" y="-248" font-family="Helvetica,sans-Serif" font-size="10.00">math.h</text>
</a>
</g>
</g>
<!-- Node1&#45;&gt;Node15 -->
<g id="edge26" class="edge">
<title>Node1&#45;&gt;Node15</title>
<path fill="none" stroke="midnightblue" d="M162.09,-302.4C186.73,-291.04 221.05,-275.22 244.86,-264.24"/>
<polygon fill="midnightblue" stroke="midnightblue" points="246.43,-267.37 254.05,-260.01 243.5,-261.02 246.43,-267.37"/>
</g>
<!-- Node3&#45;&gt;Node2 -->
<g id="edge5" class="edge">
<title>Node3&#45;&gt;Node2</title>
<path fill="none" stroke="midnightblue" d="M186.15,-56.44C159.23,-47.36 116.5,-32.94 86.41,-22.78"/>
<polygon fill="midnightblue" stroke="midnightblue" points="87.33,-19.4 76.73,-19.52 85.09,-26.03 87.33,-19.4"/>
</g>
<!-- Node4 -->
<g id="node4" class="node">
<title>Node4</title>
<g id="a_node4"><a xlink:title=" ">
<polygon fill="none" stroke="#bfbfbf" points="260,-0.5 260,-19.5 319,-19.5 319,-0.5 260,-0.5"/>
<text text-anchor="middle" x="289.5" y="-7.5" font-family="Helvetica,sans-Serif" font-size="10.00">stdexcept</text>
</a>
</g>
</g>
<!-- Node3&#45;&gt;Node4 -->
<g id="edge3" class="edge">
<title>Node3&#45;&gt;Node4</title>
<path fill="none" stroke="midnightblue" d="M224.03,-56.32C236.09,-47.98 254.53,-35.21 268.77,-25.35"/>
<polygon fill="midnightblue" stroke="midnightblue" points="270.77,-28.22 277,-19.65 266.78,-22.47 270.77,-28.22"/>
</g>
<!-- Node5 -->
<g id="node5" class="node">
<title>Node5</title>
<g id="a_node5"><a xlink:title=" ">
<polygon fill="none" stroke="#bfbfbf" points="546.5,-0.5 546.5,-19.5 598.5,-19.5 598.5,-0.5 546.5,-0.5"/>
<text text-anchor="middle" x="572.5" y="-7.5" font-family="Helvetica,sans-Serif" font-size="10.00">sstream</text>
</a>
</g>
</g>
<!-- Node3&#45;&gt;Node5 -->
<g id="edge4" class="edge">
<title>Node3&#45;&gt;Node5</title>
<path fill="none" stroke="midnightblue" d="M256.13,-58.32C328.47,-47.5 469.93,-26.34 536.38,-16.4"/>
<polygon fill="midnightblue" stroke="midnightblue" points="537.01,-19.85 546.38,-14.91 535.97,-12.92 537.01,-19.85"/>
</g>
<!-- Node6 -->
<g id="node6" class="node">
<title>Node6</title>
<g id="a_node6"><a xlink:title=" ">
<polygon fill="none" stroke="#bfbfbf" points="337,-0.5 337,-19.5 468,-19.5 468,-0.5 337,-0.5"/>
<text text-anchor="middle" x="402.5" y="-7.5" font-family="Helvetica,sans-Serif" font-size="10.00">boost/current_function.hpp</text>
</a>
</g>
</g>
<!-- Node3&#45;&gt;Node6 -->
<g id="edge6" class="edge">
<title>Node3&#45;&gt;Node6</title>
<path fill="none" stroke="midnightblue" d="M241.76,-56.44C274.46,-47.2 326.68,-32.44 362.68,-22.26"/>
<polygon fill="midnightblue" stroke="midnightblue" points="363.71,-25.61 372.38,-19.52 361.8,-18.87 363.71,-25.61"/>
</g>
<!-- Node7 -->
<g id="node7" class="node">
<title>Node7</title>
<g id="a_node7"><a xlink:href="../../de/d17/kratos__config_8h.html" target="_top" xlink:title=" ">
<polygon fill="none" stroke="black" points="121,-0.5 121,-19.5 242,-19.5 242,-0.5 121,-0.5"/>
<text text-anchor="middle" x="181.5" y="-7.5" font-family="Helvetica,sans-Serif" font-size="10.00">includes/kratos_config.h</text>
</a>
</g>
</g>
<!-- Node3&#45;&gt;Node7 -->
<g id="edge7" class="edge">
<title>Node3&#45;&gt;Node7</title>
<path fill="none" stroke="midnightblue" d="M206.55,-56.08C202.4,-48.61 196.35,-37.72 191.23,-28.52"/>
<polygon fill="midnightblue" stroke="midnightblue" points="194.28,-26.79 186.36,-19.75 188.16,-30.19 194.28,-26.79"/>
</g>
<!-- Node8&#45;&gt;Node3 -->
<g id="edge11" class="edge">
<title>Node8&#45;&gt;Node3</title>
<path fill="none" stroke="midnightblue" d="M166.14,-235.48C160.78,-225.65 154.32,-211.99 151.5,-199 143.3,-161.21 134.21,-146.58 151.5,-112 158.23,-98.54 171.11,-88.07 183.21,-80.62"/>
<polygon fill="midnightblue" stroke="midnightblue" points="185.23,-83.5 192.2,-75.52 181.78,-77.41 185.23,-83.5"/>
</g>
<!-- Node9 -->
<g id="node9" class="node">
<title>Node9</title>
<g id="a_node9"><a xlink:title=" ">
<polygon fill="none" stroke="#bfbfbf" points="516,-56.5 516,-75.5 557,-75.5 557,-56.5 516,-56.5"/>
<text text-anchor="middle" x="536.5" y="-63.5" font-family="Helvetica,sans-Serif" font-size="10.00">string</text>
</a>
</g>
</g>
<!-- Node8&#45;&gt;Node9 -->
<g id="edge9" class="edge">
<title>Node8&#45;&gt;Node9</title>
<path fill="none" stroke="midnightblue" d="M231.73,-236.89C234.7,-236.25 237.63,-235.62 240.5,-235 399.03,-200.9 498.1,-265.25 590.5,-132 603.33,-113.5 581.36,-93.81 561.71,-81.02"/>
<polygon fill="midnightblue" stroke="midnightblue" points="563.33,-77.91 552.98,-75.65 559.67,-83.87 563.33,-77.91"/>
</g>
<!-- Node10 -->
<g id="node10" class="node">
<title>Node10</title>
<g id="a_node10"><a xlink:title=" ">
<polygon fill="none" stroke="#bfbfbf" points="311.5,-56.5 311.5,-75.5 365.5,-75.5 365.5,-56.5 311.5,-56.5"/>
<text text-anchor="middle" x="338.5" y="-63.5" font-family="Helvetica,sans-Serif" font-size="10.00">iostream</text>
</a>
</g>
</g>
<!-- Node8&#45;&gt;Node10 -->
<g id="edge10" class="edge">
<title>Node8&#45;&gt;Node10</title>
<path fill="none" stroke="midnightblue" d="M175.71,-235.42C178.78,-208.06 189.27,-147.29 223.5,-112 244.23,-90.63 276.31,-79.2 301.32,-73.22"/>
<polygon fill="midnightblue" stroke="midnightblue" points="302.2,-76.61 311.21,-71.04 300.69,-69.77 302.2,-76.61"/>
</g>
<!-- Node11 -->
<g id="node11" class="node">
<title>Node11</title>
<g id="a_node11"><a xlink:href="../../d2/d9f/linear__solver_8h.html" target="_top" xlink:title=" ">
<polygon fill="none" stroke="black" points="258,-168.5 258,-198.5 361,-198.5 361,-168.5 258,-168.5"/>
<text text-anchor="start" x="266" y="-186.5" font-family="Helvetica,sans-Serif" font-size="10.00">linear_solvers/linear</text>
<text text-anchor="middle" x="309.5" y="-175.5" font-family="Helvetica,sans-Serif" font-size="10.00">_solver.h</text>
</a>
</g>
</g>
<!-- Node8&#45;&gt;Node11 -->
<g id="edge12" class="edge">
<title>Node8&#45;&gt;Node11</title>
<path fill="none" stroke="midnightblue" d="M203.79,-235.4C223.52,-225.9 249.73,-213.28 271.12,-202.98"/>
<polygon fill="midnightblue" stroke="midnightblue" points="272.77,-206.07 280.26,-198.58 269.74,-199.76 272.77,-206.07"/>
</g>
<!-- Node14 -->
<g id="node14" class="node">
<title>Node14</title>
<g id="a_node14"><a xlink:href="../../d0/dd3/preconditioner_8h.html" target="_top" xlink:title=" ">
<polygon fill="none" stroke="black" points="417.5,-112.5 417.5,-131.5 565.5,-131.5 565.5,-112.5 417.5,-112.5"/>
<text text-anchor="middle" x="491.5" y="-119.5" font-family="Helvetica,sans-Serif" font-size="10.00">linear_solvers/preconditioner.h</text>
</a>
</g>
</g>
<!-- Node8&#45;&gt;Node14 -->
<g id="edge22" class="edge">
<title>Node8&#45;&gt;Node14</title>
<path fill="none" stroke="midnightblue" d="M231.69,-236.82C280.2,-225.7 345.73,-209.66 370.5,-199 408.92,-182.46 449.22,-154.74 472.26,-137.74"/>
<polygon fill="midnightblue" stroke="midnightblue" points="474.57,-140.38 480.48,-131.59 470.37,-134.78 474.57,-140.38"/>
</g>
<!-- Node11&#45;&gt;Node3 -->
<g id="edge17" class="edge">
<title>Node11&#45;&gt;Node3</title>
<path fill="none" stroke="midnightblue" d="M270.81,-168.47C253.76,-160.36 235.03,-148.45 223.5,-132 214.14,-118.64 211.47,-100.07 210.95,-86.2"/>
<polygon fill="midnightblue" stroke="midnightblue" points="214.45,-85.86 210.92,-75.87 207.45,-85.88 214.45,-85.86"/>
</g>
<!-- Node11&#45;&gt;Node5 -->
<g id="edge15" class="edge">
<title>Node11&#45;&gt;Node5</title>
<path fill="none" stroke="midnightblue" d="M361.22,-180.85C434.23,-177.32 561.84,-166.27 590.5,-132 615.16,-102.52 595.96,-54.25 582.58,-28.49"/>
<polygon fill="midnightblue" stroke="midnightblue" points="585.55,-26.61 577.68,-19.52 579.41,-29.97 585.55,-26.61"/>
</g>
<!-- Node11&#45;&gt;Node9 -->
<g id="edge13" class="edge">
<title>Node11&#45;&gt;Node9</title>
<path fill="none" stroke="midnightblue" d="M361.2,-180.22C430.52,-175.95 547.96,-164.07 574.5,-132 587.42,-116.39 570.76,-95.86 555.61,-82.08"/>
<polygon fill="midnightblue" stroke="midnightblue" points="557.86,-79.4 547.99,-75.56 553.31,-84.72 557.86,-79.4"/>
</g>
<!-- Node11&#45;&gt;Node10 -->
<g id="edge14" class="edge">
<title>Node11&#45;&gt;Node10</title>
<path fill="none" stroke="midnightblue" d="M313.06,-168.34C318.28,-147.53 328.04,-108.66 333.83,-85.58"/>
<polygon fill="midnightblue" stroke="midnightblue" points="337.28,-86.22 336.32,-75.67 330.49,-84.52 337.28,-86.22"/>
</g>
<!-- Node12 -->
<g id="node12" class="node">
<title>Node12</title>
<g id="a_node12"><a xlink:title=" ">
<polygon fill="none" stroke="#bfbfbf" points="232,-112.5 232,-131.5 281,-131.5 281,-112.5 232,-112.5"/>
<text text-anchor="middle" x="256.5" y="-119.5" font-family="Helvetica,sans-Serif" font-size="10.00">cstddef</text>
</a>
</g>
</g>
<!-- Node11&#45;&gt;Node12 -->
<g id="edge16" class="edge">
<title>Node11&#45;&gt;Node12</title>
<path fill="none" stroke="midnightblue" d="M296.94,-168.4C289.16,-159.66 279.14,-148.41 271.02,-139.3"/>
<polygon fill="midnightblue" stroke="midnightblue" points="273.48,-136.8 264.21,-131.66 268.25,-141.45 273.48,-136.8"/>
</g>
<!-- Node13 -->
<g id="node13" class="node">
<title>Node13</title>
<g id="a_node13"><a xlink:href="../../d5/d67/reorderer_8h.html" target="_top" xlink:title=" ">
<polygon fill="none" stroke="black" points="337.5,-112.5 337.5,-131.5 399.5,-131.5 399.5,-112.5 337.5,-112.5"/>
<text text-anchor="middle" x="368.5" y="-119.5" font-family="Helvetica,sans-Serif" font-size="10.00">reorderer.h</text>
</a>
</g>
</g>
<!-- Node11&#45;&gt;Node13 -->
<g id="edge18" class="edge">
<title>Node11&#45;&gt;Node13</title>
<path fill="none" stroke="midnightblue" d="M323.48,-168.4C332.23,-159.58 343.53,-148.18 352.62,-139.02"/>
<polygon fill="midnightblue" stroke="midnightblue" points="355.36,-141.22 359.91,-131.66 350.39,-136.29 355.36,-141.22"/>
</g>
<!-- Node13&#45;&gt;Node3 -->
<g id="edge21" class="edge">
<title>Node13&#45;&gt;Node3</title>
<path fill="none" stroke="midnightblue" d="M343.62,-112.44C317.21,-103.36 275.28,-88.94 245.76,-78.78"/>
<polygon fill="midnightblue" stroke="midnightblue" points="246.86,-75.46 236.26,-75.52 244.58,-82.08 246.86,-75.46"/>
</g>
<!-- Node13&#45;&gt;Node9 -->
<g id="edge19" class="edge">
<title>Node13&#45;&gt;Node9</title>
<path fill="none" stroke="midnightblue" d="M395.12,-112.44C425.34,-102.73 474.55,-86.91 506.21,-76.74"/>
<polygon fill="midnightblue" stroke="midnightblue" points="507.38,-80.04 515.83,-73.64 505.24,-73.37 507.38,-80.04"/>
</g>
<!-- Node13&#45;&gt;Node10 -->
<g id="edge20" class="edge">
<title>Node13&#45;&gt;Node10</title>
<path fill="none" stroke="midnightblue" d="M363.55,-112.08C359.4,-104.61 353.35,-93.72 348.23,-84.52"/>
<polygon fill="midnightblue" stroke="midnightblue" points="351.28,-82.79 343.36,-75.75 345.16,-86.19 351.28,-82.79"/>
</g>
<!-- Node14&#45;&gt;Node3 -->
<g id="edge25" class="edge">
<title>Node14&#45;&gt;Node3</title>
<path fill="none" stroke="midnightblue" d="M447.13,-112.44C397.88,-102.94 318.37,-87.61 265.53,-77.42"/>
<polygon fill="midnightblue" stroke="midnightblue" points="266.14,-73.97 255.66,-75.52 264.82,-80.85 266.14,-73.97"/>
</g>
<!-- Node14&#45;&gt;Node9 -->
<g id="edge23" class="edge">
<title>Node14&#45;&gt;Node9</title>
<path fill="none" stroke="midnightblue" d="M498.93,-112.08C505.35,-104.38 514.81,-93.03 522.62,-83.65"/>
<polygon fill="midnightblue" stroke="midnightblue" points="525.49,-85.67 529.21,-75.75 520.12,-81.19 525.49,-85.67"/>
</g>
<!-- Node14&#45;&gt;Node10 -->
<g id="edge24" class="edge">
<title>Node14&#45;&gt;Node10</title>
<path fill="none" stroke="midnightblue" d="M467.26,-112.44C441.63,-103.4 401.01,-89.06 372.26,-78.92"/>
<polygon fill="midnightblue" stroke="midnightblue" points="373.22,-75.54 362.63,-75.52 370.89,-82.15 373.22,-75.54"/>
</g>
</g>
</svg>
