<?xml version="1.0" encoding="UTF-8" standalone="no"?>
<!DOCTYPE svg PUBLIC "-//W3C//DTD SVG 1.1//EN"
 "http://www.w3.org/Graphics/SVG/1.1/DTD/svg11.dtd">
<!-- Generated by graphviz version 2.48.0 (20210719.0153)
 -->
<!-- Title: /github/workspace/kratos/solving_strategies/convergencecriterias/displacement_criteria.h Pages: 1 -->
<svg width="362pt" height="228pt"
 viewBox="0.00 0.00 361.50 228.00" xmlns="http://www.w3.org/2000/svg" xmlns:xlink="http://www.w3.org/1999/xlink">
<g id="graph0" class="graph" transform="scale(1 1) rotate(0) translate(4 224)">
<title>/github/workspace/kratos/solving_strategies/convergencecriterias/displacement_criteria.h</title>
<!-- Node1 -->
<g id="node1" class="node">
<title>Node1</title>
<g id="a_node1"><a xlink:title=" ">
<polygon fill="#bfbfbf" stroke="black" points="60.5,-178.5 60.5,-219.5 251.5,-219.5 251.5,-178.5 60.5,-178.5"/>
<text text-anchor="start" x="68.5" y="-207.5" font-family="Helvetica,sans-Serif" font-size="10.00">/github/workspace/kratos</text>
<text text-anchor="start" x="68.5" y="-196.5" font-family="Helvetica,sans-Serif" font-size="10.00">/solving_strategies/convergencecriterias</text>
<text text-anchor="middle" x="156" y="-185.5" font-family="Helvetica,sans-Serif" font-size="10.00">/displacement_criteria.h</text>
</a>
</g>
</g>
<!-- Node2 -->
<g id="node2" class="node">
<title>Node2</title>
<g id="a_node2"><a xlink:href="../../d8/dd7/add__strategies__to__python_8cpp.html" target="_top" xlink:title=" ">
<polygon fill="none" stroke="black" points="0,-95 0,-136 126,-136 126,-95 0,-95"/>
<text text-anchor="start" x="8" y="-124" font-family="Helvetica,sans-Serif" font-size="10.00">/github/workspace/kratos</text>
<text text-anchor="start" x="8" y="-113" font-family="Helvetica,sans-Serif" font-size="10.00">/python/add_strategies</text>
<text text-anchor="middle" x="63" y="-102" font-family="Helvetica,sans-Serif" font-size="10.00">_to_python.cpp</text>
</a>
</g>
</g>
<!-- Node1&#45;&gt;Node2 -->
<g id="edge1" class="edge">
<title>Node1&#45;&gt;Node2</title>
<path fill="none" stroke="midnightblue" d="M125.61,-171.36C112.47,-159.85 97.38,-146.63 85.31,-136.05"/>
<polygon fill="midnightblue" stroke="midnightblue" points="123.66,-174.31 133.49,-178.27 128.27,-169.05 123.66,-174.31"/>
</g>
<!-- Node3 -->
<g id="node3" class="node">
<title>Node3</title>
<g id="a_node3"><a xlink:href="../../d4/de9/residualbased__convdiff__strategy__nonlinear_8h.html" target="_top" xlink:title=" ">
<polygon fill="none" stroke="black" points="144.5,-89.5 144.5,-141.5 353.5,-141.5 353.5,-89.5 144.5,-89.5"/>
<text text-anchor="start" x="152.5" y="-129.5" font-family="Helvetica,sans-Serif" font-size="10.00">/github/workspace/applications</text>
<text text-anchor="start" x="152.5" y="-118.5" font-family="Helvetica,sans-Serif" font-size="10.00">/convection_diffusion_application</text>
<text text-anchor="start" x="152.5" y="-107.5" font-family="Helvetica,sans-Serif" font-size="10.00">/custom_strategies/strategies/residualbased</text>
<text text-anchor="middle" x="249" y="-96.5" font-family="Helvetica,sans-Serif" font-size="10.00">_convdiff_strategy_nonlinear.h</text>
</a>
</g>
</g>
<!-- Node1&#45;&gt;Node3 -->
<g id="edge2" class="edge">
<title>Node1&#45;&gt;Node3</title>
<path fill="none" stroke="midnightblue" d="M186.21,-171.52C197.18,-161.92 209.52,-151.09 220.35,-141.61"/>
<polygon fill="midnightblue" stroke="midnightblue" points="183.73,-169.05 178.51,-178.27 188.34,-174.31 183.73,-169.05"/>
</g>
<!-- Node4 -->
<g id="node4" class="node">
<title>Node4</title>
<g id="a_node4"><a xlink:href="../../de/d74/convection__diffusion__application_2custom__python_2add__custom__strategies__to__python_8cpp.html" target="_top" xlink:title=" ">
<polygon fill="none" stroke="black" points="154,-0.5 154,-52.5 344,-52.5 344,-0.5 154,-0.5"/>
<text text-anchor="start" x="162" y="-40.5" font-family="Helvetica,sans-Serif" font-size="10.00">/github/workspace/applications</text>
<text text-anchor="start" x="162" y="-29.5" font-family="Helvetica,sans-Serif" font-size="10.00">/convection_diffusion_application</text>
<text text-anchor="start" x="162" y="-18.5" font-family="Helvetica,sans-Serif" font-size="10.00">/custom_python/add_custom_strategies</text>
<text text-anchor="middle" x="249" y="-7.5" font-family="Helvetica,sans-Serif" font-size="10.00">_to_python.cpp</text>
</a>
</g>
</g>
<!-- Node3&#45;&gt;Node4 -->
<g id="edge3" class="edge">
<title>Node3&#45;&gt;Node4</title>
<path fill="none" stroke="midnightblue" d="M249,-79.19C249,-70.28 249,-60.9 249,-52.61"/>
<polygon fill="midnightblue" stroke="midnightblue" points="245.5,-79.34 249,-89.34 252.5,-79.34 245.5,-79.34"/>
</g>
</g>
</svg>
