<?xml version="1.0" encoding="UTF-8" standalone="no"?>
<!DOCTYPE svg PUBLIC "-//W3C//DTD SVG 1.1//EN"
 "http://www.w3.org/Graphics/SVG/1.1/DTD/svg11.dtd">
<!-- Generated by graphviz version 2.48.0 (20210719.0153)
 -->
<!-- Title: /github/workspace/applications/structural_application/custom_utilities/circle_3d.h Pages: 1 -->
<!--zoomable 307 -->
<svg id="main" version="1.1" xmlns="http://www.w3.org/2000/svg" xmlns:xlink="http://www.w3.org/1999/xlink" xml:space="preserve" onload="init(evt)">
<style type="text/css"><![CDATA[
.edge:hover path { stroke: red; }
.edge:hover polygon { stroke: red; fill: red; }
]]></style>
<script type="text/javascript"><![CDATA[
var edges = document.getElementsByTagName('g');
if (edges && edges.length) {
  for (var i=0;i<edges.length;i++) {
    if (edges[i].id.substr(0,4)=='edge') {
      edges[i].setAttribute('class','edge');
    }
  }
}
]]></script>
        <defs>
                <circle id="rim" cx="0" cy="0" r="7"/>
                <circle id="rim2" cx="0" cy="0" r="3.5"/>
                <g id="zoomPlus">
                        <use xlink:href="#rim" fill="#404040">
                                <set attributeName="fill" to="#808080" begin="zoomplus.mouseover" end="zoomplus.mouseout"/>
                        </use>
                        <path d="M-4,0h8M0,-4v8" fill="none" stroke="white" stroke-width="1.5" pointer-events="none"/>
                </g>
                <g id="zoomMin">
                        <use xlink:href="#rim" fill="#404040">
                                <set attributeName="fill" to="#808080" begin="zoomminus.mouseover" end="zoomminus.mouseout"/>
                        </use>
                        <path d="M-4,0h8" fill="none" stroke="white" stroke-width="1.5" pointer-events="none"/>
                </g>
                <g id="dirArrow">
                        <path fill="none" stroke="white" stroke-width="1.5" d="M0,-3.0v7 M-2.5,-0.5L0,-3.0L2.5,-0.5"/>
                </g>
               <g id="resetDef">
                       <use xlink:href="#rim2" fill="#404040">
                               <set attributeName="fill" to="#808080" begin="reset.mouseover" end="reset.mouseout"/>
                       </use>
               </g>
        </defs>

<script type="text/javascript">
var viewWidth = 2292;
var viewHeight = 307;
var sectionId = 'dynsection-0';
</script>
<script xlink:href="../../svgpan.js"/>
<svg id="graph" class="graph">
<g id="viewport">
<title>/github/workspace/applications/structural_application/custom_utilities/circle_3d.h</title>
<!-- Node1 -->
<g id="node1" class="node">
<title>Node1</title>
<g id="a_node1"><a xlink:title=" ">
<polygon fill="#bfbfbf" stroke="black" points="114,-257.5 114,-298.5 265,-298.5 265,-257.5 114,-257.5"/>
<text text-anchor="start" x="122" y="-286.5" font-family="Helvetica,sans-Serif" font-size="10.00">/github/workspace/applications</text>
<text text-anchor="start" x="122" y="-275.5" font-family="Helvetica,sans-Serif" font-size="10.00">/structural_application/custom</text>
<text text-anchor="middle" x="189.5" y="-264.5" font-family="Helvetica,sans-Serif" font-size="10.00">_utilities/circle_3d.h</text>
</a>
</g>
</g>
<!-- Node2 -->
<g id="node2" class="node">
<title>Node2</title>
<g id="a_node2"><a xlink:title=" ">
<polygon fill="none" stroke="#bfbfbf" points="0,-0.5 0,-19.5 103,-19.5 103,-0.5 0,-0.5"/>
<text text-anchor="middle" x="51.5" y="-7.5" font-family="Helvetica,sans-Serif" font-size="10.00">boost/smart_ptr.hpp</text>
</a>
</g>
</g>
<!-- Node1&#45;&gt;Node2 -->
<g id="edge1" class="edge">
<title>Node1&#45;&gt;Node2</title>
<path fill="none" stroke="midnightblue" d="M157.46,-257.26C143.04,-247.45 126.39,-234.75 113.5,-221 89.3,-195.19 82.68,-187.22 70.5,-154 54.96,-111.61 51.89,-58.02 51.43,-30.02"/>
<polygon fill="midnightblue" stroke="midnightblue" points="54.92,-29.67 51.36,-19.69 47.92,-29.71 54.92,-29.67"/>
</g>
<!-- Node3 -->
<g id="node3" class="node">
<title>Node3</title>
<g id="a_node3"><a xlink:title=" ">
<polygon fill="none" stroke="#bfbfbf" points="79.5,-129 79.5,-148 123.5,-148 123.5,-129 79.5,-129"/>
<text text-anchor="middle" x="101.5" y="-136" font-family="Helvetica,sans-Serif" font-size="10.00">cmath</text>
</a>
</g>
</g>
<!-- Node1&#45;&gt;Node3 -->
<g id="edge2" class="edge">
<title>Node1&#45;&gt;Node3</title>
<path fill="none" stroke="midnightblue" d="M164.39,-257.28C153.11,-247.37 140.37,-234.6 131.5,-221 118.66,-201.32 110.34,-175.39 105.79,-158.12"/>
<polygon fill="midnightblue" stroke="midnightblue" points="109.13,-157.04 103.33,-148.17 102.33,-158.72 109.13,-157.04"/>
</g>
<!-- Node4 -->
<g id="node4" class="node">
<title>Node4</title>
<g id="a_node4"><a xlink:href="../../df/d67/define_8h.html" target="_top" xlink:title=" ">
<polygon fill="none" stroke="black" points="213,-62 213,-81 302,-81 302,-62 213,-62"/>
<text text-anchor="middle" x="257.5" y="-69" font-family="Helvetica,sans-Serif" font-size="10.00">includes/define.h</text>
</a>
</g>
</g>
<!-- Node1&#45;&gt;Node4 -->
<g id="edge3" class="edge">
<title>Node1&#45;&gt;Node4</title>
<path fill="none" stroke="midnightblue" d="M217.09,-257.41C228.46,-247.79 240.57,-235.22 247.5,-221 268.29,-178.35 264.4,-120.48 260.54,-91.17"/>
<polygon fill="midnightblue" stroke="midnightblue" points="263.98,-90.49 259.06,-81.11 257.05,-91.51 263.98,-90.49"/>
</g>
<!-- Node9 -->
<g id="node9" class="node">
<title>Node9</title>
<g id="a_node9"><a xlink:href="../../d9/d36/array__1d_8h.html" target="_top" xlink:title=" ">
<polygon fill="none" stroke="black" points="1038,-196 1038,-215 1147,-215 1147,-196 1038,-196"/>
<text text-anchor="middle" x="1092.5" y="-203" font-family="Helvetica,sans-Serif" font-size="10.00">containers/array_1d.h</text>
</a>
</g>
</g>
<!-- Node1&#45;&gt;Node9 -->
<g id="edge9" class="edge">
<title>Node1&#45;&gt;Node9</title>
<path fill="none" stroke="midnightblue" d="M265.32,-271.08C439.28,-257.5 864.59,-224.29 1027.52,-211.57"/>
<polygon fill="midnightblue" stroke="midnightblue" points="1028.17,-215.03 1037.87,-210.77 1027.63,-208.05 1028.17,-215.03"/>
</g>
<!-- Node31 -->
<g id="node31" class="node">
<title>Node31</title>
<g id="a_node31"><a xlink:href="../../d2/d10/sd__math__utils_8h.html" target="_top" xlink:title=" ">
<polygon fill="none" stroke="black" points="140.5,-190.5 140.5,-220.5 238.5,-220.5 238.5,-190.5 140.5,-190.5"/>
<text text-anchor="start" x="148.5" y="-208.5" font-family="Helvetica,sans-Serif" font-size="10.00">custom_utilities/sd</text>
<text text-anchor="middle" x="189.5" y="-197.5" font-family="Helvetica,sans-Serif" font-size="10.00">_math_utils.h</text>
</a>
</g>
</g>
<!-- Node1&#45;&gt;Node31 -->
<g id="edge36" class="edge">
<title>Node1&#45;&gt;Node31</title>
<path fill="none" stroke="midnightblue" d="M189.5,-257.36C189.5,-249.23 189.5,-239.7 189.5,-231.11"/>
<polygon fill="midnightblue" stroke="midnightblue" points="193,-230.89 189.5,-220.89 186,-230.89 193,-230.89"/>
</g>
<!-- Node4&#45;&gt;Node2 -->
<g id="edge6" class="edge">
<title>Node4&#45;&gt;Node2</title>
<path fill="none" stroke="midnightblue" d="M227.99,-61.98C191.88,-51.55 130.65,-33.86 90.65,-22.31"/>
<polygon fill="midnightblue" stroke="midnightblue" points="91.54,-18.92 80.96,-19.51 89.6,-25.65 91.54,-18.92"/>
</g>
<!-- Node5 -->
<g id="node5" class="node">
<title>Node5</title>
<g id="a_node5"><a xlink:title=" ">
<polygon fill="none" stroke="#bfbfbf" points="480,-0.5 480,-19.5 539,-19.5 539,-0.5 480,-0.5"/>
<text text-anchor="middle" x="509.5" y="-7.5" font-family="Helvetica,sans-Serif" font-size="10.00">stdexcept</text>
</a>
</g>
</g>
<!-- Node4&#45;&gt;Node5 -->
<g id="edge4" class="edge">
<title>Node4&#45;&gt;Node5</title>
<path fill="none" stroke="midnightblue" d="M287.71,-61.97C295.14,-59.95 303.09,-57.84 310.5,-56 378.6,-39.08 398.37,-36.64 469.71,-20.39"/>
<polygon fill="midnightblue" stroke="midnightblue" points="470.67,-23.76 479.64,-18.11 469.11,-16.93 470.67,-23.76"/>
</g>
<!-- Node6 -->
<g id="node6" class="node">
<title>Node6</title>
<g id="a_node6"><a xlink:title=" ">
<polygon fill="none" stroke="#bfbfbf" points="121.5,-0.5 121.5,-19.5 173.5,-19.5 173.5,-0.5 121.5,-0.5"/>
<text text-anchor="middle" x="147.5" y="-7.5" font-family="Helvetica,sans-Serif" font-size="10.00">sstream</text>
</a>
</g>
</g>
<!-- Node4&#45;&gt;Node6 -->
<g id="edge5" class="edge">
<title>Node4&#45;&gt;Node6</title>
<path fill="none" stroke="midnightblue" d="M241.74,-61.98C223.52,-52.12 193.33,-35.79 172.03,-24.27"/>
<polygon fill="midnightblue" stroke="midnightblue" points="173.69,-21.19 163.23,-19.51 170.36,-27.35 173.69,-21.19"/>
</g>
<!-- Node7 -->
<g id="node7" class="node">
<title>Node7</title>
<g id="a_node7"><a xlink:title=" ">
<polygon fill="none" stroke="#bfbfbf" points="192,-0.5 192,-19.5 323,-19.5 323,-0.5 192,-0.5"/>
<text text-anchor="middle" x="257.5" y="-7.5" font-family="Helvetica,sans-Serif" font-size="10.00">boost/current_function.hpp</text>
</a>
</g>
</g>
<!-- Node4&#45;&gt;Node7 -->
<g id="edge7" class="edge">
<title>Node4&#45;&gt;Node7</title>
<path fill="none" stroke="midnightblue" d="M257.5,-61.98C257.5,-53.58 257.5,-40.48 257.5,-29.66"/>
<polygon fill="midnightblue" stroke="midnightblue" points="261,-29.51 257.5,-19.51 254,-29.51 261,-29.51"/>
</g>
<!-- Node8 -->
<g id="node8" class="node">
<title>Node8</title>
<g id="a_node8"><a xlink:href="../../de/d17/kratos__config_8h.html" target="_top" xlink:title=" ">
<polygon fill="none" stroke="black" points="341,-0.5 341,-19.5 462,-19.5 462,-0.5 341,-0.5"/>
<text text-anchor="middle" x="401.5" y="-7.5" font-family="Helvetica,sans-Serif" font-size="10.00">includes/kratos_config.h</text>
</a>
</g>
</g>
<!-- Node4&#45;&gt;Node8 -->
<g id="edge8" class="edge">
<title>Node4&#45;&gt;Node8</title>
<path fill="none" stroke="midnightblue" d="M278.13,-61.98C302.62,-51.86 343.65,-34.9 371.61,-23.35"/>
<polygon fill="midnightblue" stroke="midnightblue" points="373,-26.56 380.91,-19.51 370.33,-20.09 373,-26.56"/>
</g>
<!-- Node9&#45;&gt;Node4 -->
<g id="edge13" class="edge">
<title>Node9&#45;&gt;Node4</title>
<path fill="none" stroke="midnightblue" d="M1037.76,-200.11C951.79,-192.85 779.98,-176.83 635.5,-154 489.82,-130.99 453.92,-121.37 310.5,-87 306.16,-85.96 301.63,-84.81 297.13,-83.64"/>
<polygon fill="midnightblue" stroke="midnightblue" points="297.97,-80.24 287.41,-81.04 296.16,-87 297.97,-80.24"/>
</g>
<!-- Node10 -->
<g id="node10" class="node">
<title>Node10</title>
<g id="a_node10"><a xlink:title=" ">
<polygon fill="none" stroke="#bfbfbf" points="2170,-62 2170,-81 2211,-81 2211,-62 2170,-62"/>
<text text-anchor="middle" x="2190.5" y="-69" font-family="Helvetica,sans-Serif" font-size="10.00">string</text>
</a>
</g>
</g>
<!-- Node9&#45;&gt;Node10 -->
<g id="edge10" class="edge">
<title>Node9&#45;&gt;Node10</title>
<path fill="none" stroke="midnightblue" d="M1147.09,-198.06C1192.61,-191.26 1258.37,-178.09 1311.5,-154 1332.96,-144.27 1332.25,-130.74 1354.5,-123 1523.84,-64.12 1986.67,-130.91 2160.5,-87 2162.43,-86.51 2164.39,-85.89 2166.33,-85.18"/>
<polygon fill="midnightblue" stroke="midnightblue" points="2167.91,-88.31 2175.69,-81.12 2165.12,-81.89 2167.91,-88.31"/>
</g>
<!-- Node11 -->
<g id="node11" class="node">
<title>Node11</title>
<g id="a_node11"><a xlink:title=" ">
<polygon fill="none" stroke="#bfbfbf" points="2229.5,-62 2229.5,-81 2283.5,-81 2283.5,-62 2229.5,-62"/>
<text text-anchor="middle" x="2256.5" y="-69" font-family="Helvetica,sans-Serif" font-size="10.00">iostream</text>
</a>
</g>
</g>
<!-- Node9&#45;&gt;Node11 -->
<g id="edge11" class="edge">
<title>Node9&#45;&gt;Node11</title>
<path fill="none" stroke="midnightblue" d="M1147.1,-200.59C1200,-195.22 1281.52,-182.71 1346.5,-154 1367.72,-144.62 1366.62,-130.73 1388.5,-123 1563,-61.36 2039.62,-126.13 2220.5,-87 2223.34,-86.39 2226.24,-85.57 2229.11,-84.63"/>
<polygon fill="midnightblue" stroke="midnightblue" points="2230.41,-87.88 2238.57,-81.11 2227.97,-81.32 2230.41,-87.88"/>
</g>
<!-- Node12 -->
<g id="node12" class="node">
<title>Node12</title>
<g id="a_node12"><a xlink:title=" ">
<polygon fill="none" stroke="#bfbfbf" points="1397,-129 1397,-148 1480,-148 1480,-129 1397,-129"/>
<text text-anchor="middle" x="1438.5" y="-136" font-family="Helvetica,sans-Serif" font-size="10.00">boost/array.hpp</text>
</a>
</g>
</g>
<!-- Node9&#45;&gt;Node12 -->
<g id="edge12" class="edge">
<title>Node9&#45;&gt;Node12</title>
<path fill="none" stroke="midnightblue" d="M1147,-196.36C1205.48,-187.31 1300.95,-171.63 1382.5,-154 1387.46,-152.93 1392.65,-151.71 1397.78,-150.45"/>
<polygon fill="midnightblue" stroke="midnightblue" points="1398.66,-153.84 1407.5,-148 1396.95,-147.05 1398.66,-153.84"/>
</g>
<!-- Node13 -->
<g id="node13" class="node">
<title>Node13</title>
<g id="a_node13"><a xlink:href="../../d9/d3e/ublas__interface_8h.html" target="_top" xlink:title=" ">
<polygon fill="none" stroke="black" points="1173,-129 1173,-148 1302,-148 1302,-129 1173,-129"/>
<text text-anchor="middle" x="1237.5" y="-136" font-family="Helvetica,sans-Serif" font-size="10.00">includes/ublas_interface.h</text>
</a>
</g>
</g>
<!-- Node9&#45;&gt;Node13 -->
<g id="edge14" class="edge">
<title>Node9&#45;&gt;Node13</title>
<path fill="none" stroke="midnightblue" d="M1111.75,-195.87C1136.67,-184.7 1180.29,-165.15 1209.03,-152.26"/>
<polygon fill="midnightblue" stroke="midnightblue" points="1210.47,-155.45 1218.17,-148.17 1207.61,-149.06 1210.47,-155.45"/>
</g>
<!-- Node17 -->
<g id="node17" class="node">
<title>Node17</title>
<g id="a_node17"><a xlink:title=" ">
<polygon fill="none" stroke="#bfbfbf" points="319.5,-56.5 319.5,-86.5 435.5,-86.5 435.5,-56.5 319.5,-56.5"/>
<text text-anchor="start" x="327.5" y="-74.5" font-family="Helvetica,sans-Serif" font-size="10.00">boost/numeric/ublas</text>
<text text-anchor="middle" x="377.5" y="-63.5" font-family="Helvetica,sans-Serif" font-size="10.00">/vector_expression.hpp</text>
</a>
</g>
</g>
<!-- Node9&#45;&gt;Node17 -->
<g id="edge33" class="edge">
<title>Node9&#45;&gt;Node17</title>
<path fill="none" stroke="midnightblue" d="M1041.98,-195.94C934.29,-177.56 674.04,-132.45 445.41,-87.15"/>
<polygon fill="midnightblue" stroke="midnightblue" points="446.07,-83.71 435.58,-85.19 444.71,-90.58 446.07,-83.71"/>
</g>
<!-- Node29 -->
<g id="node29" class="node">
<title>Node29</title>
<g id="a_node29"><a xlink:title=" ">
<polygon fill="none" stroke="#bfbfbf" points="907.5,-123.5 907.5,-153.5 1011.5,-153.5 1011.5,-123.5 907.5,-123.5"/>
<text text-anchor="start" x="915.5" y="-141.5" font-family="Helvetica,sans-Serif" font-size="10.00">boost/numeric/ublas</text>
<text text-anchor="middle" x="959.5" y="-130.5" font-family="Helvetica,sans-Serif" font-size="10.00">/storage.hpp</text>
</a>
</g>
</g>
<!-- Node9&#45;&gt;Node29 -->
<g id="edge34" class="edge">
<title>Node9&#45;&gt;Node29</title>
<path fill="none" stroke="midnightblue" d="M1074.84,-195.87C1055.14,-186.24 1022.7,-170.39 997.23,-157.94"/>
<polygon fill="midnightblue" stroke="midnightblue" points="998.72,-154.77 988.2,-153.53 995.65,-161.06 998.72,-154.77"/>
</g>
<!-- Node30 -->
<g id="node30" class="node">
<title>Node30</title>
<g id="a_node30"><a xlink:title=" ">
<polygon fill="none" stroke="#bfbfbf" points="1030,-123.5 1030,-153.5 1155,-153.5 1155,-123.5 1030,-123.5"/>
<text text-anchor="start" x="1038" y="-141.5" font-family="Helvetica,sans-Serif" font-size="10.00">boost/numeric/ublas</text>
<text text-anchor="middle" x="1092.5" y="-130.5" font-family="Helvetica,sans-Serif" font-size="10.00">/detail/vector_assign.hpp</text>
</a>
</g>
</g>
<!-- Node9&#45;&gt;Node30 -->
<g id="edge35" class="edge">
<title>Node9&#45;&gt;Node30</title>
<path fill="none" stroke="midnightblue" d="M1092.5,-195.73C1092.5,-187.54 1092.5,-174.92 1092.5,-163.71"/>
<polygon fill="midnightblue" stroke="midnightblue" points="1096,-163.59 1092.5,-153.59 1089,-163.59 1096,-163.59"/>
</g>
<!-- Node13&#45;&gt;Node4 -->
<g id="edge32" class="edge">
<title>Node13&#45;&gt;Node4</title>
<path fill="none" stroke="midnightblue" d="M1200.16,-128.94C1188.77,-126.63 1176.17,-124.4 1164.5,-123 787.3,-77.86 685.86,-145.49 310.5,-87 305.08,-86.16 299.42,-84.96 293.9,-83.61"/>
<polygon fill="midnightblue" stroke="midnightblue" points="294.77,-80.22 284.21,-81.06 292.99,-86.99 294.77,-80.22"/>
</g>
<!-- Node13&#45;&gt;Node10 -->
<g id="edge15" class="edge">
<title>Node13&#45;&gt;Node10</title>
<path fill="none" stroke="midnightblue" d="M1277.93,-128.96C1290.26,-126.66 1303.89,-124.42 1316.5,-123 1503.05,-102 1978.45,-132.79 2160.5,-87 2162.44,-86.51 2164.39,-85.89 2166.33,-85.19"/>
<polygon fill="midnightblue" stroke="midnightblue" points="2167.91,-88.32 2175.69,-81.13 2165.13,-81.9 2167.91,-88.32"/>
</g>
<!-- Node13&#45;&gt;Node11 -->
<g id="edge16" class="edge">
<title>Node13&#45;&gt;Node11</title>
<path fill="none" stroke="midnightblue" d="M1298.43,-128.99C1316.45,-126.73 1336.24,-124.51 1354.5,-123 1546.46,-107.14 2032.21,-127.57 2220.5,-87 2223.34,-86.39 2226.25,-85.57 2229.11,-84.63"/>
<polygon fill="midnightblue" stroke="midnightblue" points="2230.41,-87.89 2238.57,-81.12 2227.97,-81.32 2230.41,-87.89"/>
</g>
<!-- Node14 -->
<g id="node14" class="node">
<title>Node14</title>
<g id="a_node14"><a xlink:title=" ">
<polygon fill="none" stroke="#bfbfbf" points="2047.5,-56.5 2047.5,-86.5 2151.5,-86.5 2151.5,-56.5 2047.5,-56.5"/>
<text text-anchor="start" x="2055.5" y="-74.5" font-family="Helvetica,sans-Serif" font-size="10.00">boost/numeric/ublas</text>
<text text-anchor="middle" x="2099.5" y="-63.5" font-family="Helvetica,sans-Serif" font-size="10.00">/vector.hpp</text>
</a>
</g>
</g>
<!-- Node13&#45;&gt;Node14 -->
<g id="edge17" class="edge">
<title>Node13&#45;&gt;Node14</title>
<path fill="none" stroke="midnightblue" d="M1278.35,-128.94C1290.57,-126.67 1304.03,-124.45 1316.5,-123 1632.37,-86.3 1718.66,-131.4 2037.4,-86.96"/>
<polygon fill="midnightblue" stroke="midnightblue" points="2037.97,-90.42 2047.38,-85.55 2036.99,-83.49 2037.97,-90.42"/>
</g>
<!-- Node15 -->
<g id="node15" class="node">
<title>Node15</title>
<g id="a_node15"><a xlink:title=" ">
<polygon fill="none" stroke="#bfbfbf" points="453.5,-56.5 453.5,-86.5 557.5,-86.5 557.5,-56.5 453.5,-56.5"/>
<text text-anchor="start" x="461.5" y="-74.5" font-family="Helvetica,sans-Serif" font-size="10.00">boost/numeric/ublas</text>
<text text-anchor="middle" x="505.5" y="-63.5" font-family="Helvetica,sans-Serif" font-size="10.00">/vector_proxy.hpp</text>
</a>
</g>
</g>
<!-- Node13&#45;&gt;Node15 -->
<g id="edge18" class="edge">
<title>Node13&#45;&gt;Node15</title>
<path fill="none" stroke="midnightblue" d="M1199.77,-128.99C1188.48,-126.72 1176.03,-124.49 1164.5,-123 903.78,-89.42 831.72,-125.01 567.9,-87.02"/>
<polygon fill="midnightblue" stroke="midnightblue" points="568.03,-83.5 557.63,-85.52 567.02,-90.43 568.03,-83.5"/>
</g>
<!-- Node16 -->
<g id="node16" class="node">
<title>Node16</title>
<g id="a_node16"><a xlink:title=" ">
<polygon fill="none" stroke="#bfbfbf" points="575.5,-56.5 575.5,-86.5 679.5,-86.5 679.5,-56.5 575.5,-56.5"/>
<text text-anchor="start" x="583.5" y="-74.5" font-family="Helvetica,sans-Serif" font-size="10.00">boost/numeric/ublas</text>
<text text-anchor="middle" x="627.5" y="-63.5" font-family="Helvetica,sans-Serif" font-size="10.00">/vector_sparse.hpp</text>
</a>
</g>
</g>
<!-- Node13&#45;&gt;Node16 -->
<g id="edge19" class="edge">
<title>Node13&#45;&gt;Node16</title>
<path fill="none" stroke="midnightblue" d="M1199,-128.95C1187.91,-126.73 1175.77,-124.54 1164.5,-123 957.58,-94.73 899.93,-118.85 689.76,-87.02"/>
<polygon fill="midnightblue" stroke="midnightblue" points="690.05,-83.53 679.64,-85.46 688.99,-90.45 690.05,-83.53"/>
</g>
<!-- Node13&#45;&gt;Node17 -->
<g id="edge20" class="edge">
<title>Node13&#45;&gt;Node17</title>
<path fill="none" stroke="midnightblue" d="M1200.16,-128.99C1188.77,-126.69 1176.17,-124.44 1164.5,-123 849.78,-84.09 763.89,-128.1 445.47,-86.97"/>
<polygon fill="midnightblue" stroke="midnightblue" points="445.87,-83.49 435.5,-85.66 444.96,-90.43 445.87,-83.49"/>
</g>
<!-- Node18 -->
<g id="node18" class="node">
<title>Node18</title>
<g id="a_node18"><a xlink:title=" ">
<polygon fill="none" stroke="#bfbfbf" points="697.5,-56.5 697.5,-86.5 801.5,-86.5 801.5,-56.5 697.5,-56.5"/>
<text text-anchor="start" x="705.5" y="-74.5" font-family="Helvetica,sans-Serif" font-size="10.00">boost/numeric/ublas</text>
<text text-anchor="middle" x="749.5" y="-63.5" font-family="Helvetica,sans-Serif" font-size="10.00">/matrix.hpp</text>
</a>
</g>
</g>
<!-- Node13&#45;&gt;Node18 -->
<g id="edge21" class="edge">
<title>Node13&#45;&gt;Node18</title>
<path fill="none" stroke="midnightblue" d="M1198.22,-128.99C1187.33,-126.82 1175.49,-124.65 1164.5,-123 1011.31,-100.05 968.19,-112.79 811.64,-87.04"/>
<polygon fill="midnightblue" stroke="midnightblue" points="812.09,-83.57 801.65,-85.37 810.94,-90.48 812.09,-83.57"/>
</g>
<!-- Node19 -->
<g id="node19" class="node">
<title>Node19</title>
<g id="a_node19"><a xlink:title=" ">
<polygon fill="none" stroke="#bfbfbf" points="819.5,-56.5 819.5,-86.5 923.5,-86.5 923.5,-56.5 819.5,-56.5"/>
<text text-anchor="start" x="827.5" y="-74.5" font-family="Helvetica,sans-Serif" font-size="10.00">boost/numeric/ublas</text>
<text text-anchor="middle" x="871.5" y="-63.5" font-family="Helvetica,sans-Serif" font-size="10.00">/matrix_sparse.hpp</text>
</a>
</g>
</g>
<!-- Node13&#45;&gt;Node19 -->
<g id="edge22" class="edge">
<title>Node13&#45;&gt;Node19</title>
<path fill="none" stroke="midnightblue" d="M1196.25,-128.99C1185.9,-126.94 1174.81,-124.82 1164.5,-123 1064.86,-105.38 1036.59,-106.96 933.56,-87.12"/>
<polygon fill="midnightblue" stroke="midnightblue" points="934.17,-83.67 923.68,-85.19 932.83,-90.54 934.17,-83.67"/>
</g>
<!-- Node20 -->
<g id="node20" class="node">
<title>Node20</title>
<g id="a_node20"><a xlink:title=" ">
<polygon fill="none" stroke="#bfbfbf" points="941.5,-56.5 941.5,-86.5 1045.5,-86.5 1045.5,-56.5 941.5,-56.5"/>
<text text-anchor="start" x="949.5" y="-74.5" font-family="Helvetica,sans-Serif" font-size="10.00">boost/numeric/ublas</text>
<text text-anchor="middle" x="993.5" y="-63.5" font-family="Helvetica,sans-Serif" font-size="10.00">/matrix_proxy.hpp</text>
</a>
</g>
</g>
<!-- Node13&#45;&gt;Node20 -->
<g id="edge23" class="edge">
<title>Node13&#45;&gt;Node20</title>
<path fill="none" stroke="midnightblue" d="M1205.35,-128.94C1167.41,-118.83 1103.47,-101.8 1055.74,-89.08"/>
<polygon fill="midnightblue" stroke="midnightblue" points="1056.38,-85.63 1045.81,-86.44 1054.57,-92.39 1056.38,-85.63"/>
</g>
<!-- Node21 -->
<g id="node21" class="node">
<title>Node21</title>
<g id="a_node21"><a xlink:title=" ">
<polygon fill="none" stroke="#bfbfbf" points="1063.5,-56.5 1063.5,-86.5 1167.5,-86.5 1167.5,-56.5 1063.5,-56.5"/>
<text text-anchor="start" x="1071.5" y="-74.5" font-family="Helvetica,sans-Serif" font-size="10.00">boost/numeric/ublas</text>
<text text-anchor="middle" x="1115.5" y="-63.5" font-family="Helvetica,sans-Serif" font-size="10.00">/symmetric.hpp</text>
</a>
</g>
</g>
<!-- Node13&#45;&gt;Node21 -->
<g id="edge24" class="edge">
<title>Node13&#45;&gt;Node21</title>
<path fill="none" stroke="midnightblue" d="M1221.3,-128.87C1203.45,-119.36 1174.18,-103.77 1150.95,-91.39"/>
<polygon fill="midnightblue" stroke="midnightblue" points="1152.53,-88.26 1142.06,-86.65 1149.24,-94.44 1152.53,-88.26"/>
</g>
<!-- Node22 -->
<g id="node22" class="node">
<title>Node22</title>
<g id="a_node22"><a xlink:title=" ">
<polygon fill="none" stroke="#bfbfbf" points="1185.5,-56.5 1185.5,-86.5 1289.5,-86.5 1289.5,-56.5 1185.5,-56.5"/>
<text text-anchor="start" x="1193.5" y="-74.5" font-family="Helvetica,sans-Serif" font-size="10.00">boost/numeric/ublas</text>
<text text-anchor="middle" x="1237.5" y="-63.5" font-family="Helvetica,sans-Serif" font-size="10.00">/hermitian.hpp</text>
</a>
</g>
</g>
<!-- Node13&#45;&gt;Node22 -->
<g id="edge25" class="edge">
<title>Node13&#45;&gt;Node22</title>
<path fill="none" stroke="midnightblue" d="M1237.5,-128.73C1237.5,-120.54 1237.5,-107.92 1237.5,-96.71"/>
<polygon fill="midnightblue" stroke="midnightblue" points="1241,-96.59 1237.5,-86.59 1234,-96.59 1241,-96.59"/>
</g>
<!-- Node23 -->
<g id="node23" class="node">
<title>Node23</title>
<g id="a_node23"><a xlink:title=" ">
<polygon fill="none" stroke="#bfbfbf" points="1307.5,-56.5 1307.5,-86.5 1411.5,-86.5 1411.5,-56.5 1307.5,-56.5"/>
<text text-anchor="start" x="1315.5" y="-74.5" font-family="Helvetica,sans-Serif" font-size="10.00">boost/numeric/ublas</text>
<text text-anchor="middle" x="1359.5" y="-63.5" font-family="Helvetica,sans-Serif" font-size="10.00">/banded.hpp</text>
</a>
</g>
</g>
<!-- Node13&#45;&gt;Node23 -->
<g id="edge26" class="edge">
<title>Node13&#45;&gt;Node23</title>
<path fill="none" stroke="midnightblue" d="M1253.7,-128.87C1271.55,-119.36 1300.82,-103.77 1324.05,-91.39"/>
<polygon fill="midnightblue" stroke="midnightblue" points="1325.76,-94.44 1332.94,-86.65 1322.47,-88.26 1325.76,-94.44"/>
</g>
<!-- Node24 -->
<g id="node24" class="node">
<title>Node24</title>
<g id="a_node24"><a xlink:title=" ">
<polygon fill="none" stroke="#bfbfbf" points="1429.5,-56.5 1429.5,-86.5 1533.5,-86.5 1533.5,-56.5 1429.5,-56.5"/>
<text text-anchor="start" x="1437.5" y="-74.5" font-family="Helvetica,sans-Serif" font-size="10.00">boost/numeric/ublas</text>
<text text-anchor="middle" x="1481.5" y="-63.5" font-family="Helvetica,sans-Serif" font-size="10.00">/triangular.hpp</text>
</a>
</g>
</g>
<!-- Node13&#45;&gt;Node24 -->
<g id="edge27" class="edge">
<title>Node13&#45;&gt;Node24</title>
<path fill="none" stroke="midnightblue" d="M1269.65,-128.94C1307.59,-118.83 1371.53,-101.8 1419.26,-89.08"/>
<polygon fill="midnightblue" stroke="midnightblue" points="1420.43,-92.39 1429.19,-86.44 1418.62,-85.63 1420.43,-92.39"/>
</g>
<!-- Node25 -->
<g id="node25" class="node">
<title>Node25</title>
<g id="a_node25"><a xlink:title=" ">
<polygon fill="none" stroke="#bfbfbf" points="1551.5,-56.5 1551.5,-86.5 1655.5,-86.5 1655.5,-56.5 1551.5,-56.5"/>
<text text-anchor="start" x="1559.5" y="-74.5" font-family="Helvetica,sans-Serif" font-size="10.00">boost/numeric/ublas</text>
<text text-anchor="middle" x="1603.5" y="-63.5" font-family="Helvetica,sans-Serif" font-size="10.00">/io.hpp</text>
</a>
</g>
</g>
<!-- Node13&#45;&gt;Node25 -->
<g id="edge28" class="edge">
<title>Node13&#45;&gt;Node25</title>
<path fill="none" stroke="midnightblue" d="M1283,-128.96C1293.96,-126.95 1305.64,-124.86 1316.5,-123 1413.62,-106.35 1441.03,-106.73 1541.37,-87.14"/>
<polygon fill="midnightblue" stroke="midnightblue" points="1542.18,-90.55 1551.31,-85.18 1540.83,-83.68 1542.18,-90.55"/>
</g>
<!-- Node26 -->
<g id="node26" class="node">
<title>Node26</title>
<g id="a_node26"><a xlink:title=" ">
<polygon fill="none" stroke="#bfbfbf" points="1673.5,-56.5 1673.5,-86.5 1777.5,-86.5 1777.5,-56.5 1673.5,-56.5"/>
<text text-anchor="start" x="1681.5" y="-74.5" font-family="Helvetica,sans-Serif" font-size="10.00">boost/numeric/ublas</text>
<text text-anchor="middle" x="1725.5" y="-63.5" font-family="Helvetica,sans-Serif" font-size="10.00">/operation.hpp</text>
</a>
</g>
</g>
<!-- Node13&#45;&gt;Node26 -->
<g id="edge29" class="edge">
<title>Node13&#45;&gt;Node26</title>
<path fill="none" stroke="midnightblue" d="M1280.45,-128.98C1292.12,-126.84 1304.77,-124.68 1316.5,-123 1467.11,-101.42 1509.4,-112.53 1663.06,-87.1"/>
<polygon fill="midnightblue" stroke="midnightblue" points="1664.07,-90.48 1673.35,-85.37 1662.91,-83.58 1664.07,-90.48"/>
</g>
<!-- Node27 -->
<g id="node27" class="node">
<title>Node27</title>
<g id="a_node27"><a xlink:title=" ">
<polygon fill="none" stroke="#bfbfbf" points="1795.5,-56.5 1795.5,-86.5 1899.5,-86.5 1899.5,-56.5 1795.5,-56.5"/>
<text text-anchor="start" x="1803.5" y="-74.5" font-family="Helvetica,sans-Serif" font-size="10.00">boost/numeric/ublas</text>
<text text-anchor="middle" x="1847.5" y="-63.5" font-family="Helvetica,sans-Serif" font-size="10.00">/lu.hpp</text>
</a>
</g>
</g>
<!-- Node13&#45;&gt;Node27 -->
<g id="edge30" class="edge">
<title>Node13&#45;&gt;Node27</title>
<path fill="none" stroke="midnightblue" d="M1279.6,-128.93C1291.49,-126.73 1304.47,-124.56 1316.5,-123 1521.01,-96.47 1577.74,-118.61 1785.36,-87.01"/>
<polygon fill="midnightblue" stroke="midnightblue" points="1786.02,-90.45 1795.36,-85.46 1784.95,-83.53 1786.02,-90.45"/>
</g>
<!-- Node28 -->
<g id="node28" class="node">
<title>Node28</title>
<g id="a_node28"><a xlink:title=" ">
<polygon fill="none" stroke="#bfbfbf" points="1917.5,-56.5 1917.5,-86.5 2029.5,-86.5 2029.5,-56.5 1917.5,-56.5"/>
<text text-anchor="start" x="1925.5" y="-74.5" font-family="Helvetica,sans-Serif" font-size="10.00">boost/numeric/ublas</text>
<text text-anchor="middle" x="1973.5" y="-63.5" font-family="Helvetica,sans-Serif" font-size="10.00">/operation_sparse.hpp</text>
</a>
</g>
</g>
<!-- Node13&#45;&gt;Node28 -->
<g id="edge31" class="edge">
<title>Node13&#45;&gt;Node28</title>
<path fill="none" stroke="midnightblue" d="M1278.77,-128.95C1290.88,-126.71 1304.18,-124.5 1316.5,-123 1574.84,-91.55 1645.69,-122.99 1907.05,-87.05"/>
<polygon fill="midnightblue" stroke="midnightblue" points="1907.81,-90.47 1917.23,-85.63 1906.84,-83.54 1907.81,-90.47"/>
</g>
<!-- Node31&#45;&gt;Node3 -->
<g id="edge38" class="edge">
<title>Node31&#45;&gt;Node3</title>
<path fill="none" stroke="midnightblue" d="M170.41,-190.4C155.92,-179.7 136.07,-165.03 121.39,-154.19"/>
<polygon fill="midnightblue" stroke="midnightblue" points="123.14,-151.13 113.02,-148.01 118.98,-156.76 123.14,-151.13"/>
</g>
<!-- Node32 -->
<g id="node32" class="node">
<title>Node32</title>
<g id="a_node32"><a xlink:href="../../d8/d88/math__utils_8h.html" target="_top" xlink:title=" ">
<polygon fill="none" stroke="black" points="142,-129 142,-148 245,-148 245,-129 142,-129"/>
<text text-anchor="middle" x="193.5" y="-136" font-family="Helvetica,sans-Serif" font-size="10.00">utilities/math_utils.h</text>
</a>
</g>
</g>
<!-- Node31&#45;&gt;Node32 -->
<g id="edge37" class="edge">
<title>Node31&#45;&gt;Node32</title>
<path fill="none" stroke="midnightblue" d="M190.37,-190.4C190.95,-180.96 191.72,-168.45 192.35,-158.19"/>
<polygon fill="midnightblue" stroke="midnightblue" points="195.84,-158.39 192.96,-148.19 188.86,-157.96 195.84,-158.39"/>
</g>
</g>
</svg>
        <g id="navigator" transform="translate(0 0)" fill="#404254">
                <rect fill="#f2f5e9" fill-opacity="0.5" stroke="#606060" stroke-width=".5" x="0" y="0" width="60" height="60"/>
                <use id="zoomplus" xlink:href="#zoomPlus" x="17" y="9" onmousedown="handleZoom(evt,'in')"/>
                <use id="zoomminus" xlink:href="#zoomMin" x="42" y="9" onmousedown="handleZoom(evt,'out')"/>
                <use id="reset" xlink:href="#resetDef" x="30" y="36" onmousedown="handleReset()"/>
                <g id="arrowUp" xlink:href="#dirArrow" transform="translate(30 24)" onmousedown="handlePan(0,-1)">
                  <use xlink:href="#rim" fill="#404040">
                        <set attributeName="fill" to="#808080" begin="arrowUp.mouseover" end="arrowUp.mouseout"/>
                  </use>
                  <path fill="none" stroke="white" stroke-width="1.5" d="M0,-3.0v7 M-2.5,-0.5L0,-3.0L2.5,-0.5"/>
                </g>
                <g id="arrowRight" xlink:href="#dirArrow" transform="rotate(90) translate(36 -43)" onmousedown="handlePan(1,0)">
                  <use xlink:href="#rim" fill="#404040">
                        <set attributeName="fill" to="#808080" begin="arrowRight.mouseover" end="arrowRight.mouseout"/>
                  </use>
                  <path fill="none" stroke="white" stroke-width="1.5" d="M0,-3.0v7 M-2.5,-0.5L0,-3.0L2.5,-0.5"/>
                </g>
                <g id="arrowDown" xlink:href="#dirArrow" transform="rotate(180) translate(-30 -48)" onmousedown="handlePan(0,1)">
                  <use xlink:href="#rim" fill="#404040">
                        <set attributeName="fill" to="#808080" begin="arrowDown.mouseover" end="arrowDown.mouseout"/>
                  </use>
                  <path fill="none" stroke="white" stroke-width="1.5" d="M0,-3.0v7 M-2.5,-0.5L0,-3.0L2.5,-0.5"/>
                </g>
                <g id="arrowLeft" xlink:href="#dirArrow" transform="rotate(270) translate(-36 17)" onmousedown="handlePan(-1,0)">
                  <use xlink:href="#rim" fill="#404040">
                        <set attributeName="fill" to="#808080" begin="arrowLeft.mouseover" end="arrowLeft.mouseout"/>
                  </use>
                  <path fill="none" stroke="white" stroke-width="1.5" d="M0,-3.0v7 M-2.5,-0.5L0,-3.0L2.5,-0.5"/>
                </g>
        </g>
        <svg viewBox="0 0 15 15" width="100%" height="30px" preserveAspectRatio="xMaxYMin meet">
         <g id="arrow_out" transform="scale(0.3 0.3)">
          <a xlink:href="circle__3d_8h__incl_org.svg" target="_base">
           <rect id="button" ry="5" rx="5" y="6" x="6" height="38" width="38"
                fill="#f2f5e9" fill-opacity="0.5" stroke="#606060" stroke-width="1.0"/>
           <path id="arrow"
             d="M 11.500037,31.436501 C 11.940474,20.09759 22.043105,11.32322 32.158766,21.979434 L 37.068811,17.246167 C 37.068811,17.246167 37.088388,32 37.088388,32 L 22.160133,31.978069 C 22.160133,31.978069 26.997745,27.140456 26.997745,27.140456 C 18.528582,18.264221 13.291696,25.230495 11.500037,31.436501 z"
             style="fill:#404040;"/>
          </a>
         </g>
        </svg>
</svg>
