<?xml version="1.0" encoding="UTF-8" standalone="no"?>
<!DOCTYPE svg PUBLIC "-//W3C//DTD SVG 1.1//EN"
 "http://www.w3.org/Graphics/SVG/1.1/DTD/svg11.dtd">
<!-- Generated by graphviz version 2.48.0 (20210719.0153)
 -->
<!-- Title: /github/workspace/kratos/containers/array_1d.h Pages: 1 -->
<!--zoomable 229 -->
<svg id="main" version="1.1" xmlns="http://www.w3.org/2000/svg" xmlns:xlink="http://www.w3.org/1999/xlink" xml:space="preserve" onload="init(evt)">
<style type="text/css"><![CDATA[
.edge:hover path { stroke: red; }
.edge:hover polygon { stroke: red; fill: red; }
]]></style>
<script type="text/javascript"><![CDATA[
var edges = document.getElementsByTagName('g');
if (edges && edges.length) {
  for (var i=0;i<edges.length;i++) {
    if (edges[i].id.substr(0,4)=='edge') {
      edges[i].setAttribute('class','edge');
    }
  }
}
]]></script>
        <defs>
                <circle id="rim" cx="0" cy="0" r="7"/>
                <circle id="rim2" cx="0" cy="0" r="3.5"/>
                <g id="zoomPlus">
                        <use xlink:href="#rim" fill="#404040">
                                <set attributeName="fill" to="#808080" begin="zoomplus.mouseover" end="zoomplus.mouseout"/>
                        </use>
                        <path d="M-4,0h8M0,-4v8" fill="none" stroke="white" stroke-width="1.5" pointer-events="none"/>
                </g>
                <g id="zoomMin">
                        <use xlink:href="#rim" fill="#404040">
                                <set attributeName="fill" to="#808080" begin="zoomminus.mouseover" end="zoomminus.mouseout"/>
                        </use>
                        <path d="M-4,0h8" fill="none" stroke="white" stroke-width="1.5" pointer-events="none"/>
                </g>
                <g id="dirArrow">
                        <path fill="none" stroke="white" stroke-width="1.5" d="M0,-3.0v7 M-2.5,-0.5L0,-3.0L2.5,-0.5"/>
                </g>
               <g id="resetDef">
                       <use xlink:href="#rim2" fill="#404040">
                               <set attributeName="fill" to="#808080" begin="reset.mouseover" end="reset.mouseout"/>
                       </use>
               </g>
        </defs>

<script type="text/javascript">
var viewWidth = 2102;
var viewHeight = 229;
var sectionId = 'dynsection-0';
</script>
<script xlink:href="../../svgpan.js"/>
<svg id="graph" class="graph">
<g id="viewport">
<title>/github/workspace/kratos/containers/array_1d.h</title>
<!-- Node1 -->
<g id="node1" class="node">
<title>Node1</title>
<g id="a_node1"><a xlink:title=" ">
<polygon fill="#bfbfbf" stroke="black" points="541.5,-190.5 541.5,-220.5 667.5,-220.5 667.5,-190.5 541.5,-190.5"/>
<text text-anchor="start" x="549.5" y="-208.5" font-family="Helvetica,sans-Serif" font-size="10.00">/github/workspace/kratos</text>
<text text-anchor="middle" x="604.5" y="-197.5" font-family="Helvetica,sans-Serif" font-size="10.00">/containers/array_1d.h</text>
</a>
</g>
</g>
<!-- Node2 -->
<g id="node2" class="node">
<title>Node2</title>
<g id="a_node2"><a xlink:title=" ">
<polygon fill="none" stroke="#bfbfbf" points="23,-62 23,-81 64,-81 64,-62 23,-62"/>
<text text-anchor="middle" x="43.5" y="-69" font-family="Helvetica,sans-Serif" font-size="10.00">string</text>
</a>
</g>
</g>
<!-- Node1&#45;&gt;Node2 -->
<g id="edge1" class="edge">
<title>Node1&#45;&gt;Node2</title>
<path fill="none" stroke="midnightblue" d="M541.36,-200.72C467.28,-195.16 341.26,-182.23 236.5,-154 173.9,-137.13 104.91,-104.25 68.78,-85.82"/>
<polygon fill="midnightblue" stroke="midnightblue" points="69.98,-82.5 59.49,-81.03 66.77,-88.73 69.98,-82.5"/>
</g>
<!-- Node3 -->
<g id="node3" class="node">
<title>Node3</title>
<g id="a_node3"><a xlink:title=" ">
<polygon fill="none" stroke="#bfbfbf" points="82.5,-62 82.5,-81 136.5,-81 136.5,-62 82.5,-62"/>
<text text-anchor="middle" x="109.5" y="-69" font-family="Helvetica,sans-Serif" font-size="10.00">iostream</text>
</a>
</g>
</g>
<!-- Node1&#45;&gt;Node3 -->
<g id="edge2" class="edge">
<title>Node1&#45;&gt;Node3</title>
<path fill="none" stroke="midnightblue" d="M541.33,-195.27C486.84,-186.67 406.32,-172.41 337.5,-154 250.19,-130.65 230.11,-118.78 145.5,-87 143.66,-86.31 141.76,-85.58 139.86,-84.84"/>
<polygon fill="midnightblue" stroke="midnightblue" points="140.96,-81.52 130.37,-81.1 138.39,-88.03 140.96,-81.52"/>
</g>
<!-- Node4 -->
<g id="node4" class="node">
<title>Node4</title>
<g id="a_node4"><a xlink:title=" ">
<polygon fill="none" stroke="#bfbfbf" points="843,-129 843,-148 926,-148 926,-129 843,-129"/>
<text text-anchor="middle" x="884.5" y="-136" font-family="Helvetica,sans-Serif" font-size="10.00">boost/array.hpp</text>
</a>
</g>
</g>
<!-- Node1&#45;&gt;Node4 -->
<g id="edge3" class="edge">
<title>Node1&#45;&gt;Node4</title>
<path fill="none" stroke="midnightblue" d="M667.73,-191.79C714.08,-182.19 778.44,-168.27 834.5,-154 838.38,-153.01 842.41,-151.93 846.43,-150.82"/>
<polygon fill="midnightblue" stroke="midnightblue" points="847.63,-154.12 856.3,-148.03 845.72,-147.39 847.63,-154.12"/>
</g>
<!-- Node5 -->
<g id="node5" class="node">
<title>Node5</title>
<g id="a_node5"><a xlink:href="../../df/d67/define_8h.html" target="_top" xlink:title=" ">
<polygon fill="none" stroke="black" points="155,-62 155,-81 244,-81 244,-62 155,-62"/>
<text text-anchor="middle" x="199.5" y="-69" font-family="Helvetica,sans-Serif" font-size="10.00">includes/define.h</text>
</a>
</g>
</g>
<!-- Node1&#45;&gt;Node5 -->
<g id="edge4" class="edge">
<title>Node1&#45;&gt;Node5</title>
<path fill="none" stroke="midnightblue" d="M553.56,-190.41C518.99,-180.65 472.31,-167.11 431.5,-154 359.71,-130.93 276.53,-100.89 231.86,-84.49"/>
<polygon fill="midnightblue" stroke="midnightblue" points="233.01,-81.18 222.41,-81.01 230.59,-87.75 233.01,-81.18"/>
</g>
<!-- Node11 -->
<g id="node11" class="node">
<title>Node11</title>
<g id="a_node11"><a xlink:href="../../d9/d3e/ublas__interface_8h.html" target="_top" xlink:title=" ">
<polygon fill="none" stroke="black" points="696,-129 696,-148 825,-148 825,-129 696,-129"/>
<text text-anchor="middle" x="760.5" y="-136" font-family="Helvetica,sans-Serif" font-size="10.00">includes/ublas_interface.h</text>
</a>
</g>
</g>
<!-- Node1&#45;&gt;Node11 -->
<g id="edge10" class="edge">
<title>Node1&#45;&gt;Node11</title>
<path fill="none" stroke="midnightblue" d="M638.35,-190.4C665.84,-178.94 704.25,-162.94 730.61,-151.95"/>
<polygon fill="midnightblue" stroke="midnightblue" points="732.2,-155.08 740.08,-148.01 729.51,-148.62 732.2,-155.08"/>
</g>
<!-- Node15 -->
<g id="node15" class="node">
<title>Node15</title>
<g id="a_node15"><a xlink:title=" ">
<polygon fill="none" stroke="#bfbfbf" points="261.5,-56.5 261.5,-86.5 377.5,-86.5 377.5,-56.5 261.5,-56.5"/>
<text text-anchor="start" x="269.5" y="-74.5" font-family="Helvetica,sans-Serif" font-size="10.00">boost/numeric/ublas</text>
<text text-anchor="middle" x="319.5" y="-63.5" font-family="Helvetica,sans-Serif" font-size="10.00">/vector_expression.hpp</text>
</a>
</g>
</g>
<!-- Node1&#45;&gt;Node15 -->
<g id="edge29" class="edge">
<title>Node1&#45;&gt;Node15</title>
<path fill="none" stroke="midnightblue" d="M574.27,-190.5C522.43,-166.49 416.61,-117.48 359,-90.8"/>
<polygon fill="midnightblue" stroke="midnightblue" points="360.39,-87.58 349.85,-86.56 357.45,-93.94 360.39,-87.58"/>
</g>
<!-- Node27 -->
<g id="node27" class="node">
<title>Node27</title>
<g id="a_node27"><a xlink:title=" ">
<polygon fill="none" stroke="#bfbfbf" points="944.5,-123.5 944.5,-153.5 1048.5,-153.5 1048.5,-123.5 944.5,-123.5"/>
<text text-anchor="start" x="952.5" y="-141.5" font-family="Helvetica,sans-Serif" font-size="10.00">boost/numeric/ublas</text>
<text text-anchor="middle" x="996.5" y="-130.5" font-family="Helvetica,sans-Serif" font-size="10.00">/storage.hpp</text>
</a>
</g>
</g>
<!-- Node1&#45;&gt;Node27 -->
<g id="edge30" class="edge">
<title>Node1&#45;&gt;Node27</title>
<path fill="none" stroke="midnightblue" d="M667.6,-196.44C732.25,-187.83 835.84,-173.05 934.48,-154.11"/>
<polygon fill="midnightblue" stroke="midnightblue" points="935.17,-157.54 944.32,-152.2 933.83,-150.67 935.17,-157.54"/>
</g>
<!-- Node28 -->
<g id="node28" class="node">
<title>Node28</title>
<g id="a_node28"><a xlink:title=" ">
<polygon fill="none" stroke="#bfbfbf" points="1067,-123.5 1067,-153.5 1192,-153.5 1192,-123.5 1067,-123.5"/>
<text text-anchor="start" x="1075" y="-141.5" font-family="Helvetica,sans-Serif" font-size="10.00">boost/numeric/ublas</text>
<text text-anchor="middle" x="1129.5" y="-130.5" font-family="Helvetica,sans-Serif" font-size="10.00">/detail/vector_assign.hpp</text>
</a>
</g>
</g>
<!-- Node1&#45;&gt;Node28 -->
<g id="edge31" class="edge">
<title>Node1&#45;&gt;Node28</title>
<path fill="none" stroke="midnightblue" d="M667.76,-199.21C753.56,-191.65 911.8,-176.31 1056.76,-154.03"/>
<polygon fill="midnightblue" stroke="midnightblue" points="1057.38,-157.47 1066.73,-152.48 1056.31,-150.55 1057.38,-157.47"/>
</g>
<!-- Node6 -->
<g id="node6" class="node">
<title>Node6</title>
<g id="a_node6"><a xlink:title=" ">
<polygon fill="none" stroke="#bfbfbf" points="0,-0.5 0,-19.5 59,-19.5 59,-0.5 0,-0.5"/>
<text text-anchor="middle" x="29.5" y="-7.5" font-family="Helvetica,sans-Serif" font-size="10.00">stdexcept</text>
</a>
</g>
</g>
<!-- Node5&#45;&gt;Node6 -->
<g id="edge5" class="edge">
<title>Node5&#45;&gt;Node6</title>
<path fill="none" stroke="midnightblue" d="M175.14,-61.98C145.86,-51.72 96.53,-34.46 63.5,-22.9"/>
<polygon fill="midnightblue" stroke="midnightblue" points="64.41,-19.51 53.81,-19.51 62.09,-26.12 64.41,-19.51"/>
</g>
<!-- Node7 -->
<g id="node7" class="node">
<title>Node7</title>
<g id="a_node7"><a xlink:title=" ">
<polygon fill="none" stroke="#bfbfbf" points="77.5,-0.5 77.5,-19.5 129.5,-19.5 129.5,-0.5 77.5,-0.5"/>
<text text-anchor="middle" x="103.5" y="-7.5" font-family="Helvetica,sans-Serif" font-size="10.00">sstream</text>
</a>
</g>
</g>
<!-- Node5&#45;&gt;Node7 -->
<g id="edge6" class="edge">
<title>Node5&#45;&gt;Node7</title>
<path fill="none" stroke="midnightblue" d="M185.75,-61.98C170.13,-52.3 144.44,-36.37 125.92,-24.89"/>
<polygon fill="midnightblue" stroke="midnightblue" points="127.57,-21.8 117.23,-19.51 123.88,-27.75 127.57,-21.8"/>
</g>
<!-- Node8 -->
<g id="node8" class="node">
<title>Node8</title>
<g id="a_node8"><a xlink:title=" ">
<polygon fill="none" stroke="#bfbfbf" points="148,-0.5 148,-19.5 251,-19.5 251,-0.5 148,-0.5"/>
<text text-anchor="middle" x="199.5" y="-7.5" font-family="Helvetica,sans-Serif" font-size="10.00">boost/smart_ptr.hpp</text>
</a>
</g>
</g>
<!-- Node5&#45;&gt;Node8 -->
<g id="edge7" class="edge">
<title>Node5&#45;&gt;Node8</title>
<path fill="none" stroke="midnightblue" d="M199.5,-61.98C199.5,-53.58 199.5,-40.48 199.5,-29.66"/>
<polygon fill="midnightblue" stroke="midnightblue" points="203,-29.51 199.5,-19.51 196,-29.51 203,-29.51"/>
</g>
<!-- Node9 -->
<g id="node9" class="node">
<title>Node9</title>
<g id="a_node9"><a xlink:title=" ">
<polygon fill="none" stroke="#bfbfbf" points="269,-0.5 269,-19.5 400,-19.5 400,-0.5 269,-0.5"/>
<text text-anchor="middle" x="334.5" y="-7.5" font-family="Helvetica,sans-Serif" font-size="10.00">boost/current_function.hpp</text>
</a>
</g>
</g>
<!-- Node5&#45;&gt;Node9 -->
<g id="edge8" class="edge">
<title>Node5&#45;&gt;Node9</title>
<path fill="none" stroke="midnightblue" d="M218.84,-61.98C241.6,-51.95 279.59,-35.2 305.79,-23.65"/>
<polygon fill="midnightblue" stroke="midnightblue" points="307.45,-26.74 315.19,-19.51 304.63,-20.34 307.45,-26.74"/>
</g>
<!-- Node10 -->
<g id="node10" class="node">
<title>Node10</title>
<g id="a_node10"><a xlink:href="../../de/d17/kratos__config_8h.html" target="_top" xlink:title=" ">
<polygon fill="none" stroke="black" points="418,-0.5 418,-19.5 539,-19.5 539,-0.5 418,-0.5"/>
<text text-anchor="middle" x="478.5" y="-7.5" font-family="Helvetica,sans-Serif" font-size="10.00">includes/kratos_config.h</text>
</a>
</g>
</g>
<!-- Node5&#45;&gt;Node10 -->
<g id="edge9" class="edge">
<title>Node5&#45;&gt;Node10</title>
<path fill="none" stroke="midnightblue" d="M229.4,-61.92C236.91,-59.88 244.98,-57.78 252.5,-56 309.33,-42.59 374.83,-29.84 420.63,-21.36"/>
<polygon fill="midnightblue" stroke="midnightblue" points="421.47,-24.76 430.67,-19.51 420.2,-17.88 421.47,-24.76"/>
</g>
<!-- Node11&#45;&gt;Node2 -->
<g id="edge11" class="edge">
<title>Node11&#45;&gt;Node2</title>
<path fill="none" stroke="midnightblue" d="M695.9,-135.84C548.23,-131.55 189.81,-118.17 73.5,-87 71.57,-86.48 69.62,-85.84 67.68,-85.12"/>
<polygon fill="midnightblue" stroke="midnightblue" points="68.9,-81.83 58.33,-81.03 66.09,-88.25 68.9,-81.83"/>
</g>
<!-- Node11&#45;&gt;Node3 -->
<g id="edge12" class="edge">
<title>Node11&#45;&gt;Node3</title>
<path fill="none" stroke="midnightblue" d="M695.99,-134.66C560.16,-128.28 248.71,-111.43 145.5,-87 142.83,-86.37 140.09,-85.57 137.38,-84.67"/>
<polygon fill="midnightblue" stroke="midnightblue" points="138.43,-81.33 127.84,-81.12 135.99,-87.89 138.43,-81.33"/>
</g>
<!-- Node11&#45;&gt;Node5 -->
<g id="edge28" class="edge">
<title>Node11&#45;&gt;Node5</title>
<path fill="none" stroke="midnightblue" d="M695.86,-134.56C598.87,-129.36 410.24,-116.2 252.5,-87 247.47,-86.07 242.22,-84.89 237.07,-83.61"/>
<polygon fill="midnightblue" stroke="midnightblue" points="237.91,-80.22 227.35,-81.06 236.14,-86.99 237.91,-80.22"/>
</g>
<!-- Node12 -->
<g id="node12" class="node">
<title>Node12</title>
<g id="a_node12"><a xlink:title=" ">
<polygon fill="none" stroke="#bfbfbf" points="647.5,-56.5 647.5,-86.5 751.5,-86.5 751.5,-56.5 647.5,-56.5"/>
<text text-anchor="start" x="655.5" y="-74.5" font-family="Helvetica,sans-Serif" font-size="10.00">boost/numeric/ublas</text>
<text text-anchor="middle" x="699.5" y="-63.5" font-family="Helvetica,sans-Serif" font-size="10.00">/vector.hpp</text>
</a>
</g>
</g>
<!-- Node11&#45;&gt;Node12 -->
<g id="edge13" class="edge">
<title>Node11&#45;&gt;Node12</title>
<path fill="none" stroke="midnightblue" d="M752.27,-128.73C743.95,-119.86 730.76,-105.81 719.65,-93.97"/>
<polygon fill="midnightblue" stroke="midnightblue" points="722.12,-91.49 712.72,-86.59 717.01,-96.28 722.12,-91.49"/>
</g>
<!-- Node13 -->
<g id="node13" class="node">
<title>Node13</title>
<g id="a_node13"><a xlink:title=" ">
<polygon fill="none" stroke="#bfbfbf" points="769.5,-56.5 769.5,-86.5 873.5,-86.5 873.5,-56.5 769.5,-56.5"/>
<text text-anchor="start" x="777.5" y="-74.5" font-family="Helvetica,sans-Serif" font-size="10.00">boost/numeric/ublas</text>
<text text-anchor="middle" x="821.5" y="-63.5" font-family="Helvetica,sans-Serif" font-size="10.00">/vector_proxy.hpp</text>
</a>
</g>
</g>
<!-- Node11&#45;&gt;Node13 -->
<g id="edge14" class="edge">
<title>Node11&#45;&gt;Node13</title>
<path fill="none" stroke="midnightblue" d="M768.73,-128.73C777.05,-119.86 790.24,-105.81 801.35,-93.97"/>
<polygon fill="midnightblue" stroke="midnightblue" points="803.99,-96.28 808.28,-86.59 798.88,-91.49 803.99,-96.28"/>
</g>
<!-- Node14 -->
<g id="node14" class="node">
<title>Node14</title>
<g id="a_node14"><a xlink:title=" ">
<polygon fill="none" stroke="#bfbfbf" points="891.5,-56.5 891.5,-86.5 995.5,-86.5 995.5,-56.5 891.5,-56.5"/>
<text text-anchor="start" x="899.5" y="-74.5" font-family="Helvetica,sans-Serif" font-size="10.00">boost/numeric/ublas</text>
<text text-anchor="middle" x="943.5" y="-63.5" font-family="Helvetica,sans-Serif" font-size="10.00">/vector_sparse.hpp</text>
</a>
</g>
</g>
<!-- Node11&#45;&gt;Node14 -->
<g id="edge15" class="edge">
<title>Node11&#45;&gt;Node14</title>
<path fill="none" stroke="midnightblue" d="M784.8,-128.87C812.62,-118.99 858.9,-102.55 894.33,-89.97"/>
<polygon fill="midnightblue" stroke="midnightblue" points="895.75,-93.17 904.01,-86.53 893.41,-86.58 895.75,-93.17"/>
</g>
<!-- Node11&#45;&gt;Node15 -->
<g id="edge16" class="edge">
<title>Node11&#45;&gt;Node15</title>
<path fill="none" stroke="midnightblue" d="M695.73,-130.33C623.09,-121.93 501.56,-106.82 387.5,-87.09"/>
<polygon fill="midnightblue" stroke="midnightblue" points="388,-83.63 377.55,-85.36 386.8,-90.52 388,-83.63"/>
</g>
<!-- Node16 -->
<g id="node16" class="node">
<title>Node16</title>
<g id="a_node16"><a xlink:title=" ">
<polygon fill="none" stroke="#bfbfbf" points="1013.5,-56.5 1013.5,-86.5 1117.5,-86.5 1117.5,-56.5 1013.5,-56.5"/>
<text text-anchor="start" x="1021.5" y="-74.5" font-family="Helvetica,sans-Serif" font-size="10.00">boost/numeric/ublas</text>
<text text-anchor="middle" x="1065.5" y="-63.5" font-family="Helvetica,sans-Serif" font-size="10.00">/matrix.hpp</text>
</a>
</g>
</g>
<!-- Node11&#45;&gt;Node16 -->
<g id="edge17" class="edge">
<title>Node11&#45;&gt;Node16</title>
<path fill="none" stroke="midnightblue" d="M803.78,-128.94C850.52,-119.61 927.43,-104 1003.1,-87.28"/>
<polygon fill="midnightblue" stroke="midnightblue" points="1004.27,-90.6 1013.28,-85.02 1002.76,-83.77 1004.27,-90.6"/>
</g>
<!-- Node17 -->
<g id="node17" class="node">
<title>Node17</title>
<g id="a_node17"><a xlink:title=" ">
<polygon fill="none" stroke="#bfbfbf" points="1135.5,-56.5 1135.5,-86.5 1239.5,-86.5 1239.5,-56.5 1135.5,-56.5"/>
<text text-anchor="start" x="1143.5" y="-74.5" font-family="Helvetica,sans-Serif" font-size="10.00">boost/numeric/ublas</text>
<text text-anchor="middle" x="1187.5" y="-63.5" font-family="Helvetica,sans-Serif" font-size="10.00">/matrix_sparse.hpp</text>
</a>
</g>
</g>
<!-- Node11&#45;&gt;Node17 -->
<g id="edge18" class="edge">
<title>Node11&#45;&gt;Node17</title>
<path fill="none" stroke="midnightblue" d="M801.51,-128.93C812.22,-126.84 823.77,-124.71 834.5,-123 960.48,-102.92 996.08,-109.79 1125.45,-87.06"/>
<polygon fill="midnightblue" stroke="midnightblue" points="1126.11,-90.5 1135.34,-85.3 1124.88,-83.61 1126.11,-90.5"/>
</g>
<!-- Node18 -->
<g id="node18" class="node">
<title>Node18</title>
<g id="a_node18"><a xlink:title=" ">
<polygon fill="none" stroke="#bfbfbf" points="1257.5,-56.5 1257.5,-86.5 1361.5,-86.5 1361.5,-56.5 1257.5,-56.5"/>
<text text-anchor="start" x="1265.5" y="-74.5" font-family="Helvetica,sans-Serif" font-size="10.00">boost/numeric/ublas</text>
<text text-anchor="middle" x="1309.5" y="-63.5" font-family="Helvetica,sans-Serif" font-size="10.00">/matrix_proxy.hpp</text>
</a>
</g>
</g>
<!-- Node11&#45;&gt;Node18 -->
<g id="edge19" class="edge">
<title>Node11&#45;&gt;Node18</title>
<path fill="none" stroke="midnightblue" d="M799.92,-128.97C811.06,-126.77 823.22,-124.59 834.5,-123 1014.17,-97.66 1064.41,-115.77 1247.41,-87.01"/>
<polygon fill="midnightblue" stroke="midnightblue" points="1248.03,-90.46 1257.36,-85.43 1246.93,-83.55 1248.03,-90.46"/>
</g>
<!-- Node19 -->
<g id="node19" class="node">
<title>Node19</title>
<g id="a_node19"><a xlink:title=" ">
<polygon fill="none" stroke="#bfbfbf" points="1379.5,-56.5 1379.5,-86.5 1483.5,-86.5 1483.5,-56.5 1379.5,-56.5"/>
<text text-anchor="start" x="1387.5" y="-74.5" font-family="Helvetica,sans-Serif" font-size="10.00">boost/numeric/ublas</text>
<text text-anchor="middle" x="1431.5" y="-63.5" font-family="Helvetica,sans-Serif" font-size="10.00">/symmetric.hpp</text>
</a>
</g>
</g>
<!-- Node11&#45;&gt;Node19 -->
<g id="edge20" class="edge">
<title>Node11&#45;&gt;Node19</title>
<path fill="none" stroke="midnightblue" d="M799.14,-128.97C810.48,-126.73 822.95,-124.51 834.5,-123 1068,-92.41 1132.67,-121.9 1369.42,-86.98"/>
<polygon fill="midnightblue" stroke="midnightblue" points="1370,-90.44 1379.37,-85.49 1368.96,-83.51 1370,-90.44"/>
</g>
<!-- Node20 -->
<g id="node20" class="node">
<title>Node20</title>
<g id="a_node20"><a xlink:title=" ">
<polygon fill="none" stroke="#bfbfbf" points="1501.5,-56.5 1501.5,-86.5 1605.5,-86.5 1605.5,-56.5 1501.5,-56.5"/>
<text text-anchor="start" x="1509.5" y="-74.5" font-family="Helvetica,sans-Serif" font-size="10.00">boost/numeric/ublas</text>
<text text-anchor="middle" x="1553.5" y="-63.5" font-family="Helvetica,sans-Serif" font-size="10.00">/hermitian.hpp</text>
</a>
</g>
</g>
<!-- Node11&#45;&gt;Node20 -->
<g id="edge21" class="edge">
<title>Node11&#45;&gt;Node20</title>
<path fill="none" stroke="midnightblue" d="M798.74,-128.96C810.19,-126.68 822.81,-124.46 834.5,-123 1121.87,-87.16 1200.88,-128.09 1491.39,-86.97"/>
<polygon fill="midnightblue" stroke="midnightblue" points="1491.97,-90.42 1501.37,-85.54 1490.98,-83.49 1491.97,-90.42"/>
</g>
<!-- Node21 -->
<g id="node21" class="node">
<title>Node21</title>
<g id="a_node21"><a xlink:title=" ">
<polygon fill="none" stroke="#bfbfbf" points="1623.5,-56.5 1623.5,-86.5 1727.5,-86.5 1727.5,-56.5 1623.5,-56.5"/>
<text text-anchor="start" x="1631.5" y="-74.5" font-family="Helvetica,sans-Serif" font-size="10.00">boost/numeric/ublas</text>
<text text-anchor="middle" x="1675.5" y="-63.5" font-family="Helvetica,sans-Serif" font-size="10.00">/banded.hpp</text>
</a>
</g>
</g>
<!-- Node11&#45;&gt;Node21 -->
<g id="edge22" class="edge">
<title>Node11&#45;&gt;Node21</title>
<path fill="none" stroke="midnightblue" d="M798.36,-128.97C809.9,-126.67 822.67,-124.42 834.5,-123 1175.77,-81.92 1269.08,-134.32 1613.38,-86.96"/>
<polygon fill="midnightblue" stroke="midnightblue" points="1613.96,-90.41 1623.38,-85.57 1612.99,-83.48 1613.96,-90.41"/>
</g>
<!-- Node22 -->
<g id="node22" class="node">
<title>Node22</title>
<g id="a_node22"><a xlink:title=" ">
<polygon fill="none" stroke="#bfbfbf" points="1745.5,-56.5 1745.5,-86.5 1849.5,-86.5 1849.5,-56.5 1745.5,-56.5"/>
<text text-anchor="start" x="1753.5" y="-74.5" font-family="Helvetica,sans-Serif" font-size="10.00">boost/numeric/ublas</text>
<text text-anchor="middle" x="1797.5" y="-63.5" font-family="Helvetica,sans-Serif" font-size="10.00">/triangular.hpp</text>
</a>
</g>
</g>
<!-- Node11&#45;&gt;Node22 -->
<g id="edge23" class="edge">
<title>Node11&#45;&gt;Node22</title>
<path fill="none" stroke="midnightblue" d="M797.97,-129C809.62,-126.67 822.54,-124.4 834.5,-123 1229.67,-76.68 1337.25,-140.57 1735.32,-86.96"/>
<polygon fill="midnightblue" stroke="midnightblue" points="1735.95,-90.41 1745.38,-85.59 1735,-83.47 1735.95,-90.41"/>
</g>
<!-- Node23 -->
<g id="node23" class="node">
<title>Node23</title>
<g id="a_node23"><a xlink:title=" ">
<polygon fill="none" stroke="#bfbfbf" points="1867.5,-56.5 1867.5,-86.5 1971.5,-86.5 1971.5,-56.5 1867.5,-56.5"/>
<text text-anchor="start" x="1875.5" y="-74.5" font-family="Helvetica,sans-Serif" font-size="10.00">boost/numeric/ublas</text>
<text text-anchor="middle" x="1919.5" y="-63.5" font-family="Helvetica,sans-Serif" font-size="10.00">/io.hpp</text>
</a>
</g>
</g>
<!-- Node11&#45;&gt;Node23 -->
<g id="edge24" class="edge">
<title>Node11&#45;&gt;Node23</title>
<path fill="none" stroke="midnightblue" d="M797.97,-128.96C809.61,-126.63 822.53,-124.37 834.5,-123 1283.61,-71.43 1405.43,-146.84 1857.33,-86.95"/>
<polygon fill="midnightblue" stroke="midnightblue" points="1857.94,-90.4 1867.38,-85.61 1857.01,-83.47 1857.94,-90.4"/>
</g>
<!-- Node24 -->
<g id="node24" class="node">
<title>Node24</title>
<g id="a_node24"><a xlink:title=" ">
<polygon fill="none" stroke="#bfbfbf" points="1989.5,-56.5 1989.5,-86.5 2093.5,-86.5 2093.5,-56.5 1989.5,-56.5"/>
<text text-anchor="start" x="1997.5" y="-74.5" font-family="Helvetica,sans-Serif" font-size="10.00">boost/numeric/ublas</text>
<text text-anchor="middle" x="2041.5" y="-63.5" font-family="Helvetica,sans-Serif" font-size="10.00">/operation.hpp</text>
</a>
</g>
</g>
<!-- Node11&#45;&gt;Node24 -->
<g id="edge25" class="edge">
<title>Node11&#45;&gt;Node24</title>
<path fill="none" stroke="midnightblue" d="M797.96,-128.94C809.61,-126.6 822.53,-124.35 834.5,-123 1337.53,-66.2 1473.59,-153.11 1979.27,-86.96"/>
<polygon fill="midnightblue" stroke="midnightblue" points="1979.93,-90.4 1989.39,-85.62 1979.01,-83.46 1979.93,-90.4"/>
</g>
<!-- Node25 -->
<g id="node25" class="node">
<title>Node25</title>
<g id="a_node25"><a xlink:title=" ">
<polygon fill="none" stroke="#bfbfbf" points="395.5,-56.5 395.5,-86.5 499.5,-86.5 499.5,-56.5 395.5,-56.5"/>
<text text-anchor="start" x="403.5" y="-74.5" font-family="Helvetica,sans-Serif" font-size="10.00">boost/numeric/ublas</text>
<text text-anchor="middle" x="447.5" y="-63.5" font-family="Helvetica,sans-Serif" font-size="10.00">/lu.hpp</text>
</a>
</g>
</g>
<!-- Node11&#45;&gt;Node25 -->
<g id="edge26" class="edge">
<title>Node11&#45;&gt;Node25</title>
<path fill="none" stroke="midnightblue" d="M715.33,-128.95C666.9,-119.67 587.49,-104.14 509.69,-87.22"/>
<polygon fill="midnightblue" stroke="midnightblue" points="510.23,-83.76 499.72,-85.04 508.74,-90.59 510.23,-83.76"/>
</g>
<!-- Node26 -->
<g id="node26" class="node">
<title>Node26</title>
<g id="a_node26"><a xlink:title=" ">
<polygon fill="none" stroke="#bfbfbf" points="517.5,-56.5 517.5,-86.5 629.5,-86.5 629.5,-56.5 517.5,-56.5"/>
<text text-anchor="start" x="525.5" y="-74.5" font-family="Helvetica,sans-Serif" font-size="10.00">boost/numeric/ublas</text>
<text text-anchor="middle" x="573.5" y="-63.5" font-family="Helvetica,sans-Serif" font-size="10.00">/operation_sparse.hpp</text>
</a>
</g>
</g>
<!-- Node11&#45;&gt;Node26 -->
<g id="edge27" class="edge">
<title>Node11&#45;&gt;Node26</title>
<path fill="none" stroke="midnightblue" d="M735.67,-128.87C707.24,-118.99 659.95,-102.55 623.75,-89.97"/>
<polygon fill="midnightblue" stroke="midnightblue" points="624.45,-86.51 613.86,-86.53 622.15,-93.12 624.45,-86.51"/>
</g>
</g>
</svg>
        <g id="navigator" transform="translate(0 0)" fill="#404254">
                <rect fill="#f2f5e9" fill-opacity="0.5" stroke="#606060" stroke-width=".5" x="0" y="0" width="60" height="60"/>
                <use id="zoomplus" xlink:href="#zoomPlus" x="17" y="9" onmousedown="handleZoom(evt,'in')"/>
                <use id="zoomminus" xlink:href="#zoomMin" x="42" y="9" onmousedown="handleZoom(evt,'out')"/>
                <use id="reset" xlink:href="#resetDef" x="30" y="36" onmousedown="handleReset()"/>
                <g id="arrowUp" xlink:href="#dirArrow" transform="translate(30 24)" onmousedown="handlePan(0,-1)">
                  <use xlink:href="#rim" fill="#404040">
                        <set attributeName="fill" to="#808080" begin="arrowUp.mouseover" end="arrowUp.mouseout"/>
                  </use>
                  <path fill="none" stroke="white" stroke-width="1.5" d="M0,-3.0v7 M-2.5,-0.5L0,-3.0L2.5,-0.5"/>
                </g>
                <g id="arrowRight" xlink:href="#dirArrow" transform="rotate(90) translate(36 -43)" onmousedown="handlePan(1,0)">
                  <use xlink:href="#rim" fill="#404040">
                        <set attributeName="fill" to="#808080" begin="arrowRight.mouseover" end="arrowRight.mouseout"/>
                  </use>
                  <path fill="none" stroke="white" stroke-width="1.5" d="M0,-3.0v7 M-2.5,-0.5L0,-3.0L2.5,-0.5"/>
                </g>
                <g id="arrowDown" xlink:href="#dirArrow" transform="rotate(180) translate(-30 -48)" onmousedown="handlePan(0,1)">
                  <use xlink:href="#rim" fill="#404040">
                        <set attributeName="fill" to="#808080" begin="arrowDown.mouseover" end="arrowDown.mouseout"/>
                  </use>
                  <path fill="none" stroke="white" stroke-width="1.5" d="M0,-3.0v7 M-2.5,-0.5L0,-3.0L2.5,-0.5"/>
                </g>
                <g id="arrowLeft" xlink:href="#dirArrow" transform="rotate(270) translate(-36 17)" onmousedown="handlePan(-1,0)">
                  <use xlink:href="#rim" fill="#404040">
                        <set attributeName="fill" to="#808080" begin="arrowLeft.mouseover" end="arrowLeft.mouseout"/>
                  </use>
                  <path fill="none" stroke="white" stroke-width="1.5" d="M0,-3.0v7 M-2.5,-0.5L0,-3.0L2.5,-0.5"/>
                </g>
        </g>
        <svg viewBox="0 0 15 15" width="100%" height="30px" preserveAspectRatio="xMaxYMin meet">
         <g id="arrow_out" transform="scale(0.3 0.3)">
          <a xlink:href="array__1d_8h__incl_org.svg" target="_base">
           <rect id="button" ry="5" rx="5" y="6" x="6" height="38" width="38"
                fill="#f2f5e9" fill-opacity="0.5" stroke="#606060" stroke-width="1.0"/>
           <path id="arrow"
             d="M 11.500037,31.436501 C 11.940474,20.09759 22.043105,11.32322 32.158766,21.979434 L 37.068811,17.246167 C 37.068811,17.246167 37.088388,32 37.088388,32 L 22.160133,31.978069 C 22.160133,31.978069 26.997745,27.140456 26.997745,27.140456 C 18.528582,18.264221 13.291696,25.230495 11.500037,31.436501 z"
             style="fill:#404040;"/>
          </a>
         </g>
        </svg>
</svg>
