<?xml version="1.0" encoding="UTF-8" standalone="no"?>
<!DOCTYPE svg PUBLIC "-//W3C//DTD SVG 1.1//EN"
 "http://www.w3.org/Graphics/SVG/1.1/DTD/svg11.dtd">
<!-- Generated by graphviz version 2.48.0 (20210719.0153)
 -->
<!-- Title: boost::numeric::ublas::scalar_binary_functor&lt; T1, T2 &gt; Pages: 1 -->
<svg width="536pt" height="215pt"
 viewBox="0.00 0.00 535.50 215.00" xmlns="http://www.w3.org/2000/svg" xmlns:xlink="http://www.w3.org/1999/xlink">
<g id="graph0" class="graph" transform="scale(1 1) rotate(0) translate(4 211)">
<title>boost::numeric::ublas::scalar_binary_functor&lt; T1, T2 &gt;</title>
<!-- Node1 -->
<g id="node1" class="node">
<title>Node1</title>
<g id="a_node1"><a xlink:title=" ">
<polygon fill="#bfbfbf" stroke="black" points="217.5,-127.5 217.5,-206.5 330.5,-206.5 330.5,-127.5 217.5,-127.5"/>
<text text-anchor="start" x="225.5" y="-194.5" font-family="Helvetica,sans-Serif" font-size="10.00">boost::numeric::ublas</text>
<text text-anchor="start" x="225.5" y="-183.5" font-family="Helvetica,sans-Serif" font-size="10.00">::scalar_binary_functor</text>
<text text-anchor="middle" x="274" y="-172.5" font-family="Helvetica,sans-Serif" font-size="10.00">&lt; T1, T2 &gt;</text>
<polyline fill="none" stroke="black" points="217.5,-165.5 330.5,-165.5 "/>
<text text-anchor="middle" x="274" y="-153.5" font-family="Helvetica,sans-Serif" font-size="10.00"> </text>
<polyline fill="none" stroke="black" points="217.5,-146.5 330.5,-146.5 "/>
<text text-anchor="middle" x="274" y="-134.5" font-family="Helvetica,sans-Serif" font-size="10.00"> </text>
</a>
</g>
</g>
<!-- Node2 -->
<g id="node2" class="node">
<title>Node2</title>
<g id="a_node2"><a xlink:href="../../de/dc7/structboost_1_1numeric_1_1ublas_1_1scalar__divides.html" target="_top" xlink:title=" ">
<polygon fill="none" stroke="black" points="0,-6 0,-85 128,-85 128,-6 0,-6"/>
<text text-anchor="start" x="8" y="-73" font-family="Helvetica,sans-Serif" font-size="10.00">boost::numeric::ublas</text>
<text text-anchor="middle" x="64" y="-62" font-family="Helvetica,sans-Serif" font-size="10.00">::scalar_divides&lt; T1, T2 &gt;</text>
<polyline fill="none" stroke="black" points="0,-55 128,-55 "/>
<text text-anchor="middle" x="64" y="-43" font-family="Helvetica,sans-Serif" font-size="10.00"> </text>
<polyline fill="none" stroke="black" points="0,-36 128,-36 "/>
<text text-anchor="start" x="8" y="-24" font-family="Helvetica,sans-Serif" font-size="10.00">+ apply()</text>
<text text-anchor="start" x="8" y="-13" font-family="Helvetica,sans-Serif" font-size="10.00">+ apply()</text>
</a>
</g>
</g>
<!-- Node1&#45;&gt;Node2 -->
<g id="edge1" class="edge">
<title>Node1&#45;&gt;Node2</title>
<path fill="none" stroke="midnightblue" d="M208.05,-135.21C182.74,-121.87 153.82,-105.93 128,-91 124.66,-89.07 121.24,-87.07 117.81,-85.04"/>
<polygon fill="none" stroke="midnightblue" points="206.72,-138.46 217.2,-139.99 209.96,-132.25 206.72,-138.46"/>
</g>
<!-- Node1&#45;&gt;Node2 -->
<g id="edge2" class="edge">
<title>Node1&#45;&gt;Node2</title>
<path fill="none" stroke="midnightblue" d="M208.53,-126.24C188.4,-115.03 166.24,-102.7 146,-91 140.22,-87.66 134.21,-84.11 128.19,-80.55"/>
<polygon fill="none" stroke="midnightblue" points="206.88,-129.33 217.32,-131.13 210.29,-123.21 206.88,-129.33"/>
</g>
<!-- Node3 -->
<g id="node3" class="node">
<title>Node3</title>
<g id="a_node3"><a xlink:href="../../da/d7a/structboost_1_1numeric_1_1ublas_1_1scalar__minus.html" target="_top" xlink:title=" ">
<polygon fill="none" stroke="black" points="146.5,-6 146.5,-85 269.5,-85 269.5,-6 146.5,-6"/>
<text text-anchor="start" x="154.5" y="-73" font-family="Helvetica,sans-Serif" font-size="10.00">boost::numeric::ublas</text>
<text text-anchor="middle" x="208" y="-62" font-family="Helvetica,sans-Serif" font-size="10.00">::scalar_minus&lt; T1, T2 &gt;</text>
<polyline fill="none" stroke="black" points="146.5,-55 269.5,-55 "/>
<text text-anchor="middle" x="208" y="-43" font-family="Helvetica,sans-Serif" font-size="10.00"> </text>
<polyline fill="none" stroke="black" points="146.5,-36 269.5,-36 "/>
<text text-anchor="start" x="154.5" y="-24" font-family="Helvetica,sans-Serif" font-size="10.00">+ apply()</text>
<text text-anchor="start" x="154.5" y="-13" font-family="Helvetica,sans-Serif" font-size="10.00">+ apply()</text>
</a>
</g>
</g>
<!-- Node1&#45;&gt;Node3 -->
<g id="edge3" class="edge">
<title>Node1&#45;&gt;Node3</title>
<path fill="none" stroke="midnightblue" d="M241.13,-118.48C234.78,-107.4 228.43,-95.74 222.96,-85.1"/>
<polygon fill="none" stroke="midnightblue" points="238.15,-120.32 246.2,-127.2 244.2,-116.8 238.15,-120.32"/>
</g>
<!-- Node1&#45;&gt;Node3 -->
<g id="edge4" class="edge">
<title>Node1&#45;&gt;Node3</title>
<path fill="none" stroke="midnightblue" d="M254.2,-118.15C248.36,-107.17 241.9,-95.63 235.68,-85.1"/>
<polygon fill="none" stroke="midnightblue" points="251.2,-119.96 258.94,-127.2 257.4,-116.72 251.2,-119.96"/>
</g>
<!-- Node4 -->
<g id="node4" class="node">
<title>Node4</title>
<g id="a_node4"><a xlink:href="../../da/d82/structboost_1_1numeric_1_1ublas_1_1scalar__multiplies.html" target="_top" xlink:title=" ">
<polygon fill="none" stroke="black" points="287.5,-0.5 287.5,-90.5 394.5,-90.5 394.5,-0.5 287.5,-0.5"/>
<text text-anchor="start" x="295.5" y="-78.5" font-family="Helvetica,sans-Serif" font-size="10.00">boost::numeric::ublas</text>
<text text-anchor="start" x="295.5" y="-67.5" font-family="Helvetica,sans-Serif" font-size="10.00">::scalar_multiplies&lt;</text>
<text text-anchor="middle" x="341" y="-56.5" font-family="Helvetica,sans-Serif" font-size="10.00"> T1, T2 &gt;</text>
<polyline fill="none" stroke="black" points="287.5,-49.5 394.5,-49.5 "/>
<text text-anchor="middle" x="341" y="-37.5" font-family="Helvetica,sans-Serif" font-size="10.00"> </text>
<polyline fill="none" stroke="black" points="287.5,-30.5 394.5,-30.5 "/>
<text text-anchor="start" x="295.5" y="-18.5" font-family="Helvetica,sans-Serif" font-size="10.00">+ apply()</text>
<text text-anchor="start" x="295.5" y="-7.5" font-family="Helvetica,sans-Serif" font-size="10.00">+ apply()</text>
</a>
</g>
</g>
<!-- Node1&#45;&gt;Node4 -->
<g id="edge5" class="edge">
<title>Node1&#45;&gt;Node4</title>
<path fill="none" stroke="midnightblue" d="M294.11,-118.32C298.99,-109.28 304.3,-99.85 309.55,-90.91"/>
<polygon fill="none" stroke="midnightblue" points="290.99,-116.73 289.39,-127.2 297.17,-120.01 290.99,-116.73"/>
</g>
<!-- Node1&#45;&gt;Node4 -->
<g id="edge6" class="edge">
<title>Node1&#45;&gt;Node4</title>
<path fill="none" stroke="midnightblue" d="M307.36,-118.32C312.62,-109.28 317.88,-99.85 322.65,-90.91"/>
<polygon fill="none" stroke="midnightblue" points="304.19,-116.81 302.12,-127.2 310.22,-120.37 304.19,-116.81"/>
</g>
<!-- Node5 -->
<g id="node5" class="node">
<title>Node5</title>
<g id="a_node5"><a xlink:href="../../de/daa/structboost_1_1numeric_1_1ublas_1_1scalar__plus.html" target="_top" xlink:title=" ">
<polygon fill="none" stroke="black" points="412.5,-6 412.5,-85 527.5,-85 527.5,-6 412.5,-6"/>
<text text-anchor="start" x="420.5" y="-73" font-family="Helvetica,sans-Serif" font-size="10.00">boost::numeric::ublas</text>
<text text-anchor="middle" x="470" y="-62" font-family="Helvetica,sans-Serif" font-size="10.00">::scalar_plus&lt; T1, T2 &gt;</text>
<polyline fill="none" stroke="black" points="412.5,-55 527.5,-55 "/>
<text text-anchor="middle" x="470" y="-43" font-family="Helvetica,sans-Serif" font-size="10.00"> </text>
<polyline fill="none" stroke="black" points="412.5,-36 527.5,-36 "/>
<text text-anchor="start" x="420.5" y="-24" font-family="Helvetica,sans-Serif" font-size="10.00">+ apply()</text>
<text text-anchor="start" x="420.5" y="-13" font-family="Helvetica,sans-Serif" font-size="10.00">+ apply()</text>
</a>
</g>
</g>
<!-- Node1&#45;&gt;Node5 -->
<g id="edge7" class="edge">
<title>Node1&#45;&gt;Node5</title>
<path fill="none" stroke="midnightblue" d="M339.53,-124.36C357.62,-113.73 377.15,-102.15 395,-91 400.63,-87.49 406.46,-83.73 412.29,-79.93"/>
<polygon fill="none" stroke="midnightblue" points="337.63,-121.42 330.78,-129.5 341.17,-127.45 337.63,-121.42"/>
</g>
<!-- Node1&#45;&gt;Node5 -->
<g id="edge8" class="edge">
<title>Node1&#45;&gt;Node5</title>
<path fill="none" stroke="midnightblue" d="M339.56,-134.15C363.06,-121.12 389.48,-105.69 413,-91 416.05,-89.1 419.16,-87.12 422.27,-85.11"/>
<polygon fill="none" stroke="midnightblue" points="337.78,-131.13 330.7,-139.01 341.15,-137.26 337.78,-131.13"/>
</g>
</g>
</svg>
