<?xml version="1.0" encoding="UTF-8" standalone="no"?>
<!DOCTYPE svg PUBLIC "-//W3C//DTD SVG 1.1//EN"
 "http://www.w3.org/Graphics/SVG/1.1/DTD/svg11.dtd">
<!-- Generated by graphviz version 2.48.0 (20210719.0153)
 -->
<!-- Title: /github/workspace/applications/ExternalSolversApplication/external_includes/for_parallel_superlu/pzsp_defs.h Pages: 1 -->
<svg width="608pt" height="184pt"
 viewBox="0.00 0.00 608.00 184.00" xmlns="http://www.w3.org/2000/svg" xmlns:xlink="http://www.w3.org/1999/xlink">
<g id="graph0" class="graph" transform="scale(1 1) rotate(0) translate(4 180)">
<title>/github/workspace/applications/ExternalSolversApplication/external_includes/for_parallel_superlu/pzsp_defs.h</title>
<!-- Node1 -->
<g id="node1" class="node">
<title>Node1</title>
<g id="a_node1"><a xlink:title=" ">
<polygon fill="#bfbfbf" stroke="black" points="239,-123.5 239,-175.5 390,-175.5 390,-123.5 239,-123.5"/>
<text text-anchor="start" x="247" y="-163.5" font-family="Helvetica,sans-Serif" font-size="10.00">/github/workspace/applications</text>
<text text-anchor="start" x="247" y="-152.5" font-family="Helvetica,sans-Serif" font-size="10.00">/ExternalSolversApplication</text>
<text text-anchor="start" x="247" y="-141.5" font-family="Helvetica,sans-Serif" font-size="10.00">/external_includes/for_parallel</text>
<text text-anchor="middle" x="314.5" y="-130.5" font-family="Helvetica,sans-Serif" font-size="10.00">_superlu/pzsp_defs.h</text>
</a>
</g>
</g>
<!-- Node2 -->
<g id="node2" class="node">
<title>Node2</title>
<g id="a_node2"><a xlink:href="../../d3/d9a/slu__mt__machines_8h.html" target="_top" xlink:title=" ">
<polygon fill="none" stroke="black" points="0,-67.5 0,-86.5 101,-86.5 101,-67.5 0,-67.5"/>
<text text-anchor="middle" x="50.5" y="-74.5" font-family="Helvetica,sans-Serif" font-size="10.00">slu_mt_machines.h</text>
</a>
</g>
</g>
<!-- Node1&#45;&gt;Node2 -->
<g id="edge1" class="edge">
<title>Node1&#45;&gt;Node2</title>
<path fill="none" stroke="midnightblue" d="M238.85,-128.3C191.19,-115.57 131.47,-99.62 92.21,-89.14"/>
<polygon fill="midnightblue" stroke="midnightblue" points="93.01,-85.73 82.45,-86.53 91.21,-92.49 93.01,-85.73"/>
</g>
<!-- Node3 -->
<g id="node3" class="node">
<title>Node3</title>
<g id="a_node3"><a xlink:href="../../d5/dee/slu__mt___cnames_8h.html" target="_top" xlink:title=" ">
<polygon fill="none" stroke="black" points="119,-67.5 119,-86.5 214,-86.5 214,-67.5 119,-67.5"/>
<text text-anchor="middle" x="166.5" y="-74.5" font-family="Helvetica,sans-Serif" font-size="10.00">slu_mt_Cnames.h</text>
</a>
</g>
</g>
<!-- Node1&#45;&gt;Node3 -->
<g id="edge2" class="edge">
<title>Node1&#45;&gt;Node3</title>
<path fill="none" stroke="midnightblue" d="M261.9,-123.45C238.84,-112.46 212.74,-100.03 193.67,-90.94"/>
<polygon fill="midnightblue" stroke="midnightblue" points="194.93,-87.67 184.4,-86.53 191.92,-93.99 194.93,-87.67"/>
</g>
<!-- Node4 -->
<g id="node4" class="node">
<title>Node4</title>
<g id="a_node4"><a xlink:href="../../dd/dc0/for__parallel__superlu_2supermatrix_8h.html" target="_top" xlink:title=" ">
<polygon fill="none" stroke="black" points="232.5,-67.5 232.5,-86.5 306.5,-86.5 306.5,-67.5 232.5,-67.5"/>
<text text-anchor="middle" x="269.5" y="-74.5" font-family="Helvetica,sans-Serif" font-size="10.00">supermatrix.h</text>
</a>
</g>
</g>
<!-- Node1&#45;&gt;Node4 -->
<g id="edge3" class="edge">
<title>Node1&#45;&gt;Node4</title>
<path fill="none" stroke="midnightblue" d="M298.51,-123.45C292.56,-114.13 285.95,-103.77 280.54,-95.3"/>
<polygon fill="midnightblue" stroke="midnightblue" points="283.38,-93.24 275.05,-86.7 277.48,-97.01 283.38,-93.24"/>
</g>
<!-- Node5 -->
<g id="node5" class="node">
<title>Node5</title>
<g id="a_node5"><a xlink:href="../../de/d38/slu__mt__util_8h.html" target="_top" xlink:title=" ">
<polygon fill="none" stroke="black" points="325,-67.5 325,-86.5 396,-86.5 396,-67.5 325,-67.5"/>
<text text-anchor="middle" x="360.5" y="-74.5" font-family="Helvetica,sans-Serif" font-size="10.00">slu_mt_util.h</text>
</a>
</g>
</g>
<!-- Node1&#45;&gt;Node5 -->
<g id="edge4" class="edge">
<title>Node1&#45;&gt;Node5</title>
<path fill="none" stroke="midnightblue" d="M330.85,-123.45C336.93,-114.13 343.68,-103.77 349.21,-95.3"/>
<polygon fill="midnightblue" stroke="midnightblue" points="352.29,-96.98 354.83,-86.7 346.43,-93.16 352.29,-96.98"/>
</g>
<!-- Node10 -->
<g id="node10" class="node">
<title>Node10</title>
<g id="a_node10"><a xlink:href="../../dd/dd1/pxgstrf__synch_8h.html" target="_top" xlink:title=" ">
<polygon fill="none" stroke="black" points="414.5,-67.5 414.5,-86.5 498.5,-86.5 498.5,-67.5 414.5,-67.5"/>
<text text-anchor="middle" x="456.5" y="-74.5" font-family="Helvetica,sans-Serif" font-size="10.00">pxgstrf_synch.h</text>
</a>
</g>
</g>
<!-- Node1&#45;&gt;Node10 -->
<g id="edge9" class="edge">
<title>Node1&#45;&gt;Node10</title>
<path fill="none" stroke="midnightblue" d="M364.96,-123.45C386.99,-112.51 411.91,-100.14 430.17,-91.07"/>
<polygon fill="midnightblue" stroke="midnightblue" points="431.92,-94.11 439.33,-86.53 428.81,-87.84 431.92,-94.11"/>
</g>
<!-- Node11 -->
<g id="node11" class="node">
<title>Node11</title>
<g id="a_node11"><a xlink:href="../../d4/de3/slu__dcomplex_8h.html" target="_top" xlink:title=" ">
<polygon fill="none" stroke="black" points="517,-67.5 517,-86.5 600,-86.5 600,-67.5 517,-67.5"/>
<text text-anchor="middle" x="558.5" y="-74.5" font-family="Helvetica,sans-Serif" font-size="10.00">slu_dcomplex.h</text>
</a>
</g>
</g>
<!-- Node1&#45;&gt;Node11 -->
<g id="edge10" class="edge">
<title>Node1&#45;&gt;Node11</title>
<path fill="none" stroke="midnightblue" d="M390.03,-126.68C432.71,-114.35 484.3,-99.44 519.05,-89.4"/>
<polygon fill="midnightblue" stroke="midnightblue" points="520.19,-92.71 528.83,-86.57 518.25,-85.99 520.19,-92.71"/>
</g>
<!-- Node6 -->
<g id="node6" class="node">
<title>Node6</title>
<g id="a_node6"><a xlink:title=" ">
<polygon fill="none" stroke="#bfbfbf" points="241,-6 241,-25 286,-25 286,-6 241,-6"/>
<text text-anchor="middle" x="263.5" y="-13" font-family="Helvetica,sans-Serif" font-size="10.00">stdio.h</text>
</a>
</g>
</g>
<!-- Node5&#45;&gt;Node6 -->
<g id="edge5" class="edge">
<title>Node5&#45;&gt;Node6</title>
<path fill="none" stroke="midnightblue" d="M346.6,-67.48C330.83,-57.8 304.86,-41.87 286.15,-30.39"/>
<polygon fill="midnightblue" stroke="midnightblue" points="287.73,-27.25 277.37,-25.01 284.07,-33.22 287.73,-27.25"/>
</g>
<!-- Node7 -->
<g id="node7" class="node">
<title>Node7</title>
<g id="a_node7"><a xlink:title=" ">
<polygon fill="none" stroke="#bfbfbf" points="304,-6 304,-25 351,-25 351,-6 304,-6"/>
<text text-anchor="middle" x="327.5" y="-13" font-family="Helvetica,sans-Serif" font-size="10.00">stdlib.h</text>
</a>
</g>
</g>
<!-- Node5&#45;&gt;Node7 -->
<g id="edge6" class="edge">
<title>Node5&#45;&gt;Node7</title>
<path fill="none" stroke="midnightblue" d="M355.77,-67.48C350.92,-58.73 343.23,-44.87 337.1,-33.81"/>
<polygon fill="midnightblue" stroke="midnightblue" points="340.13,-32.06 332.22,-25.01 334.01,-35.45 340.13,-32.06"/>
</g>
<!-- Node8 -->
<g id="node8" class="node">
<title>Node8</title>
<g id="a_node8"><a xlink:title=" ">
<polygon fill="none" stroke="#bfbfbf" points="369.5,-6 369.5,-25 417.5,-25 417.5,-6 369.5,-6"/>
<text text-anchor="middle" x="393.5" y="-13" font-family="Helvetica,sans-Serif" font-size="10.00">string.h</text>
</a>
</g>
</g>
<!-- Node5&#45;&gt;Node8 -->
<g id="edge7" class="edge">
<title>Node5&#45;&gt;Node8</title>
<path fill="none" stroke="midnightblue" d="M365.23,-67.48C370.08,-58.73 377.77,-44.87 383.9,-33.81"/>
<polygon fill="midnightblue" stroke="midnightblue" points="386.99,-35.45 388.78,-25.01 380.87,-32.06 386.99,-35.45"/>
</g>
<!-- Node9 -->
<g id="node9" class="node">
<title>Node9</title>
<g id="a_node9"><a xlink:title=" ">
<polygon fill="none" stroke="#bfbfbf" points="435.5,-0.5 435.5,-30.5 561.5,-30.5 561.5,-0.5 435.5,-0.5"/>
<text text-anchor="start" x="443.5" y="-18.5" font-family="Helvetica,sans-Serif" font-size="10.00">external_includes/superlu</text>
<text text-anchor="middle" x="498.5" y="-7.5" font-family="Helvetica,sans-Serif" font-size="10.00">/slu_mt_machines.h</text>
</a>
</g>
</g>
<!-- Node5&#45;&gt;Node9 -->
<g id="edge8" class="edge">
<title>Node5&#45;&gt;Node9</title>
<path fill="none" stroke="midnightblue" d="M380.27,-67.48C400.1,-58.93 431.24,-45.5 456.58,-34.57"/>
<polygon fill="midnightblue" stroke="midnightblue" points="458.18,-37.7 465.98,-30.52 455.41,-31.27 458.18,-37.7"/>
</g>
</g>
</svg>
