<?xml version="1.0" encoding="UTF-8" standalone="no"?>
<!DOCTYPE svg PUBLIC "-//W3C//DTD SVG 1.1//EN"
 "http://www.w3.org/Graphics/SVG/1.1/DTD/svg11.dtd">
<!-- Generated by graphviz version 2.48.0 (20210719.0153)
 -->
<!-- Title: /github/workspace/applications/PFEMapplication/custom_python/add_meshers_to_python.cpp Pages: 1 -->
<svg width="547pt" height="229pt"
 viewBox="0.00 0.00 547.00 229.00" xmlns="http://www.w3.org/2000/svg" xmlns:xlink="http://www.w3.org/1999/xlink">
<g id="graph0" class="graph" transform="scale(1 1) rotate(0) translate(4 225)">
<title>/github/workspace/applications/PFEMapplication/custom_python/add_meshers_to_python.cpp</title>
<!-- Node1 -->
<g id="node1" class="node">
<title>Node1</title>
<g id="a_node1"><a xlink:title=" ">
<polygon fill="#bfbfbf" stroke="black" points="160.5,-179.5 160.5,-220.5 322.5,-220.5 322.5,-179.5 160.5,-179.5"/>
<text text-anchor="start" x="168.5" y="-208.5" font-family="Helvetica,sans-Serif" font-size="10.00">/github/workspace/applications</text>
<text text-anchor="start" x="168.5" y="-197.5" font-family="Helvetica,sans-Serif" font-size="10.00">/PFEMapplication/custom_python</text>
<text text-anchor="middle" x="241.5" y="-186.5" font-family="Helvetica,sans-Serif" font-size="10.00">/add_meshers_to_python.cpp</text>
</a>
</g>
</g>
<!-- Node2 -->
<g id="node2" class="node">
<title>Node2</title>
<g id="a_node2"><a xlink:title=" ">
<polygon fill="none" stroke="#bfbfbf" points="82.5,-118 82.5,-137 172.5,-137 172.5,-118 82.5,-118"/>
<text text-anchor="middle" x="127.5" y="-125" font-family="Helvetica,sans-Serif" font-size="10.00">boost/python.hpp</text>
</a>
</g>
</g>
<!-- Node1&#45;&gt;Node2 -->
<g id="edge1" class="edge">
<title>Node1&#45;&gt;Node2</title>
<path fill="none" stroke="midnightblue" d="M209.74,-179.36C190.84,-167.67 167.3,-153.12 150.26,-142.57"/>
<polygon fill="midnightblue" stroke="midnightblue" points="151.87,-139.46 141.53,-137.17 148.19,-145.41 151.87,-139.46"/>
</g>
<!-- Node3 -->
<g id="node3" class="node">
<title>Node3</title>
<g id="a_node3"><a xlink:href="../../df/d67/define_8h.html" target="_top" xlink:title=" ">
<polygon fill="none" stroke="black" points="155,-56.5 155,-75.5 244,-75.5 244,-56.5 155,-56.5"/>
<text text-anchor="middle" x="199.5" y="-63.5" font-family="Helvetica,sans-Serif" font-size="10.00">includes/define.h</text>
</a>
</g>
</g>
<!-- Node1&#45;&gt;Node3 -->
<g id="edge2" class="edge">
<title>Node1&#45;&gt;Node3</title>
<path fill="none" stroke="midnightblue" d="M233.68,-179.45C229.53,-168.77 224.48,-155.25 220.5,-143 214.17,-123.51 208.06,-100.84 204.08,-85.36"/>
<polygon fill="midnightblue" stroke="midnightblue" points="207.44,-84.34 201.59,-75.51 200.65,-86.06 207.44,-84.34"/>
</g>
<!-- Node9 -->
<g id="node9" class="node">
<title>Node9</title>
<g id="a_node9"><a xlink:href="../../da/d42/process_8h.html" target="_top" xlink:title=" ">
<polygon fill="none" stroke="black" points="229,-118 229,-137 336,-137 336,-118 229,-118"/>
<text text-anchor="middle" x="282.5" y="-125" font-family="Helvetica,sans-Serif" font-size="10.00">processes/process.h</text>
</a>
</g>
</g>
<!-- Node1&#45;&gt;Node9 -->
<g id="edge8" class="edge">
<title>Node1&#45;&gt;Node9</title>
<path fill="none" stroke="midnightblue" d="M252.92,-179.36C259.03,-168.86 266.48,-156.05 272.37,-145.91"/>
<polygon fill="midnightblue" stroke="midnightblue" points="275.45,-147.58 277.46,-137.17 269.4,-144.06 275.45,-147.58"/>
</g>
<!-- Node12 -->
<g id="node12" class="node">
<title>Node12</title>
<g id="a_node12"><a xlink:title=" ">
<polygon fill="none" stroke="#bfbfbf" points="354.5,-112.5 354.5,-142.5 498.5,-142.5 498.5,-112.5 354.5,-112.5"/>
<text text-anchor="start" x="362.5" y="-130.5" font-family="Helvetica,sans-Serif" font-size="10.00">custom_python/add_meshers</text>
<text text-anchor="middle" x="426.5" y="-119.5" font-family="Helvetica,sans-Serif" font-size="10.00">_to_python.h</text>
</a>
</g>
</g>
<!-- Node1&#45;&gt;Node12 -->
<g id="edge12" class="edge">
<title>Node1&#45;&gt;Node12</title>
<path fill="none" stroke="midnightblue" d="M293.03,-179.36C320.36,-168.95 353.67,-156.25 380.17,-146.15"/>
<polygon fill="midnightblue" stroke="midnightblue" points="381.51,-149.39 389.61,-142.56 379.02,-142.85 381.51,-149.39"/>
</g>
<!-- Node4 -->
<g id="node4" class="node">
<title>Node4</title>
<g id="a_node4"><a xlink:title=" ">
<polygon fill="none" stroke="#bfbfbf" points="0,-0.5 0,-19.5 59,-19.5 59,-0.5 0,-0.5"/>
<text text-anchor="middle" x="29.5" y="-7.5" font-family="Helvetica,sans-Serif" font-size="10.00">stdexcept</text>
</a>
</g>
</g>
<!-- Node3&#45;&gt;Node4 -->
<g id="edge3" class="edge">
<title>Node3&#45;&gt;Node4</title>
<path fill="none" stroke="midnightblue" d="M172.56,-56.44C143.84,-47.32 98.17,-32.81 66.18,-22.65"/>
<polygon fill="midnightblue" stroke="midnightblue" points="66.9,-19.21 56.31,-19.52 64.78,-25.88 66.9,-19.21"/>
</g>
<!-- Node5 -->
<g id="node5" class="node">
<title>Node5</title>
<g id="a_node5"><a xlink:title=" ">
<polygon fill="none" stroke="#bfbfbf" points="77.5,-0.5 77.5,-19.5 129.5,-19.5 129.5,-0.5 77.5,-0.5"/>
<text text-anchor="middle" x="103.5" y="-7.5" font-family="Helvetica,sans-Serif" font-size="10.00">sstream</text>
</a>
</g>
</g>
<!-- Node3&#45;&gt;Node5 -->
<g id="edge4" class="edge">
<title>Node3&#45;&gt;Node5</title>
<path fill="none" stroke="midnightblue" d="M184.08,-56.32C168.96,-47.82 145.68,-34.73 128.03,-24.8"/>
<polygon fill="midnightblue" stroke="midnightblue" points="129.32,-21.51 118.89,-19.65 125.89,-27.61 129.32,-21.51"/>
</g>
<!-- Node6 -->
<g id="node6" class="node">
<title>Node6</title>
<g id="a_node6"><a xlink:title=" ">
<polygon fill="none" stroke="#bfbfbf" points="148,-0.5 148,-19.5 251,-19.5 251,-0.5 148,-0.5"/>
<text text-anchor="middle" x="199.5" y="-7.5" font-family="Helvetica,sans-Serif" font-size="10.00">boost/smart_ptr.hpp</text>
</a>
</g>
</g>
<!-- Node3&#45;&gt;Node6 -->
<g id="edge5" class="edge">
<title>Node3&#45;&gt;Node6</title>
<path fill="none" stroke="midnightblue" d="M199.5,-56.08C199.5,-49.01 199.5,-38.86 199.5,-29.99"/>
<polygon fill="midnightblue" stroke="midnightblue" points="203,-29.75 199.5,-19.75 196,-29.75 203,-29.75"/>
</g>
<!-- Node7 -->
<g id="node7" class="node">
<title>Node7</title>
<g id="a_node7"><a xlink:title=" ">
<polygon fill="none" stroke="#bfbfbf" points="269,-0.5 269,-19.5 400,-19.5 400,-0.5 269,-0.5"/>
<text text-anchor="middle" x="334.5" y="-7.5" font-family="Helvetica,sans-Serif" font-size="10.00">boost/current_function.hpp</text>
</a>
</g>
</g>
<!-- Node3&#45;&gt;Node7 -->
<g id="edge6" class="edge">
<title>Node3&#45;&gt;Node7</title>
<path fill="none" stroke="midnightblue" d="M220.89,-56.44C243.21,-47.52 278.4,-33.44 303.71,-23.32"/>
<polygon fill="midnightblue" stroke="midnightblue" points="305.22,-26.48 313.21,-19.52 302.62,-19.98 305.22,-26.48"/>
</g>
<!-- Node8 -->
<g id="node8" class="node">
<title>Node8</title>
<g id="a_node8"><a xlink:href="../../de/d17/kratos__config_8h.html" target="_top" xlink:title=" ">
<polygon fill="none" stroke="black" points="418,-0.5 418,-19.5 539,-19.5 539,-0.5 418,-0.5"/>
<text text-anchor="middle" x="478.5" y="-7.5" font-family="Helvetica,sans-Serif" font-size="10.00">includes/kratos_config.h</text>
</a>
</g>
</g>
<!-- Node3&#45;&gt;Node8 -->
<g id="edge7" class="edge">
<title>Node3&#45;&gt;Node8</title>
<path fill="none" stroke="midnightblue" d="M243.71,-56.44C292.79,-46.94 372.01,-31.61 424.66,-21.42"/>
<polygon fill="midnightblue" stroke="midnightblue" points="425.35,-24.85 434.5,-19.52 424.02,-17.98 425.35,-24.85"/>
</g>
<!-- Node9&#45;&gt;Node3 -->
<g id="edge11" class="edge">
<title>Node9&#45;&gt;Node3</title>
<path fill="none" stroke="midnightblue" d="M270.61,-117.98C257.3,-108.43 235.5,-92.81 219.54,-81.37"/>
<polygon fill="midnightblue" stroke="midnightblue" points="221.54,-78.49 211.37,-75.51 217.46,-84.18 221.54,-78.49"/>
</g>
<!-- Node10 -->
<g id="node10" class="node">
<title>Node10</title>
<g id="a_node10"><a xlink:title=" ">
<polygon fill="none" stroke="#bfbfbf" points="262,-56.5 262,-75.5 303,-75.5 303,-56.5 262,-56.5"/>
<text text-anchor="middle" x="282.5" y="-63.5" font-family="Helvetica,sans-Serif" font-size="10.00">string</text>
</a>
</g>
</g>
<!-- Node9&#45;&gt;Node10 -->
<g id="edge9" class="edge">
<title>Node9&#45;&gt;Node10</title>
<path fill="none" stroke="midnightblue" d="M282.5,-117.98C282.5,-109.58 282.5,-96.48 282.5,-85.66"/>
<polygon fill="midnightblue" stroke="midnightblue" points="286,-85.51 282.5,-75.51 279,-85.51 286,-85.51"/>
</g>
<!-- Node11 -->
<g id="node11" class="node">
<title>Node11</title>
<g id="a_node11"><a xlink:title=" ">
<polygon fill="none" stroke="#bfbfbf" points="321.5,-56.5 321.5,-75.5 375.5,-75.5 375.5,-56.5 321.5,-56.5"/>
<text text-anchor="middle" x="348.5" y="-63.5" font-family="Helvetica,sans-Serif" font-size="10.00">iostream</text>
</a>
</g>
</g>
<!-- Node9&#45;&gt;Node11 -->
<g id="edge10" class="edge">
<title>Node9&#45;&gt;Node11</title>
<path fill="none" stroke="midnightblue" d="M291.96,-117.98C302.25,-108.7 318.92,-93.67 331.49,-82.33"/>
<polygon fill="midnightblue" stroke="midnightblue" points="333.98,-84.8 339.06,-75.51 329.29,-79.61 333.98,-84.8"/>
</g>
</g>
</svg>
