<?xml version="1.0" encoding="UTF-8" standalone="no"?>
<!DOCTYPE svg PUBLIC "-//W3C//DTD SVG 1.1//EN"
 "http://www.w3.org/Graphics/SVG/1.1/DTD/svg11.dtd">
<!-- Generated by graphviz version 2.48.0 (20210719.0153)
 -->
<!-- Title: /github/workspace/applications/mkl_solvers_application/external_includes/boost/numeric/ublas/matrix_proxy.hpp Pages: 1 -->
<svg width="536pt" height="128pt"
 viewBox="0.00 0.00 535.50 128.00" xmlns="http://www.w3.org/2000/svg" xmlns:xlink="http://www.w3.org/1999/xlink">
<g id="graph0" class="graph" transform="scale(1 1) rotate(0) translate(4 124)">
<title>/github/workspace/applications/mkl_solvers_application/external_includes/boost/numeric/ublas/matrix_proxy.hpp</title>
<!-- Node1 -->
<g id="node1" class="node">
<title>Node1</title>
<g id="a_node1"><a xlink:title=" ">
<polygon fill="#bfbfbf" stroke="black" points="179,-67.5 179,-119.5 357,-119.5 357,-67.5 179,-67.5"/>
<text text-anchor="start" x="187" y="-107.5" font-family="Helvetica,sans-Serif" font-size="10.00">/github/workspace/applications</text>
<text text-anchor="start" x="187" y="-96.5" font-family="Helvetica,sans-Serif" font-size="10.00">/mkl_solvers_application/external</text>
<text text-anchor="start" x="187" y="-85.5" font-family="Helvetica,sans-Serif" font-size="10.00">_includes/boost/numeric/ublas/matrix</text>
<text text-anchor="middle" x="268" y="-74.5" font-family="Helvetica,sans-Serif" font-size="10.00">_proxy.hpp</text>
</a>
</g>
</g>
<!-- Node2 -->
<g id="node2" class="node">
<title>Node2</title>
<g id="a_node2"><a xlink:title=" ">
<polygon fill="none" stroke="#bfbfbf" points="0,-0.5 0,-30.5 116,-30.5 116,-0.5 0,-0.5"/>
<text text-anchor="start" x="8" y="-18.5" font-family="Helvetica,sans-Serif" font-size="10.00">boost/numeric/ublas</text>
<text text-anchor="middle" x="58" y="-7.5" font-family="Helvetica,sans-Serif" font-size="10.00">/matrix_expression.hpp</text>
</a>
</g>
</g>
<!-- Node1&#45;&gt;Node2 -->
<g id="edge1" class="edge">
<title>Node1&#45;&gt;Node2</title>
<path fill="none" stroke="midnightblue" d="M198.66,-67.4C168.54,-56.51 133.99,-44 106.67,-34.11"/>
<polygon fill="midnightblue" stroke="midnightblue" points="107.55,-30.71 96.95,-30.6 105.16,-37.29 107.55,-30.71"/>
</g>
<!-- Node3 -->
<g id="node3" class="node">
<title>Node3</title>
<g id="a_node3"><a xlink:title=" ">
<polygon fill="none" stroke="#bfbfbf" points="134.5,-0.5 134.5,-30.5 259.5,-30.5 259.5,-0.5 134.5,-0.5"/>
<text text-anchor="start" x="142.5" y="-18.5" font-family="Helvetica,sans-Serif" font-size="10.00">boost/numeric/ublas</text>
<text text-anchor="middle" x="197" y="-7.5" font-family="Helvetica,sans-Serif" font-size="10.00">/detail/vector_assign.hpp</text>
</a>
</g>
</g>
<!-- Node1&#45;&gt;Node3 -->
<g id="edge2" class="edge">
<title>Node1&#45;&gt;Node3</title>
<path fill="none" stroke="midnightblue" d="M244.36,-67.19C235.62,-57.84 225.8,-47.33 217.38,-38.32"/>
<polygon fill="midnightblue" stroke="midnightblue" points="219.79,-35.76 210.4,-30.85 214.67,-40.54 219.79,-35.76"/>
</g>
<!-- Node4 -->
<g id="node4" class="node">
<title>Node4</title>
<g id="a_node4"><a xlink:title=" ">
<polygon fill="none" stroke="#bfbfbf" points="278,-0.5 278,-30.5 402,-30.5 402,-0.5 278,-0.5"/>
<text text-anchor="start" x="286" y="-18.5" font-family="Helvetica,sans-Serif" font-size="10.00">boost/numeric/ublas</text>
<text text-anchor="middle" x="340" y="-7.5" font-family="Helvetica,sans-Serif" font-size="10.00">/detail/matrix_assign.hpp</text>
</a>
</g>
</g>
<!-- Node1&#45;&gt;Node4 -->
<g id="edge3" class="edge">
<title>Node1&#45;&gt;Node4</title>
<path fill="none" stroke="midnightblue" d="M291.97,-67.19C300.83,-57.84 310.79,-47.33 319.33,-38.32"/>
<polygon fill="midnightblue" stroke="midnightblue" points="322.07,-40.51 326.41,-30.85 316.99,-35.7 322.07,-40.51"/>
</g>
<!-- Node5 -->
<g id="node5" class="node">
<title>Node5</title>
<g id="a_node5"><a xlink:title=" ">
<polygon fill="none" stroke="#bfbfbf" points="420.5,-0.5 420.5,-30.5 527.5,-30.5 527.5,-0.5 420.5,-0.5"/>
<text text-anchor="start" x="428.5" y="-18.5" font-family="Helvetica,sans-Serif" font-size="10.00">boost/numeric/ublas</text>
<text text-anchor="middle" x="474" y="-7.5" font-family="Helvetica,sans-Serif" font-size="10.00">/detail/temporary.hpp</text>
</a>
</g>
</g>
<!-- Node1&#45;&gt;Node5 -->
<g id="edge4" class="edge">
<title>Node1&#45;&gt;Node5</title>
<path fill="none" stroke="midnightblue" d="M336.02,-67.4C365.56,-56.51 399.45,-44 426.26,-34.11"/>
<polygon fill="midnightblue" stroke="midnightblue" points="427.62,-37.34 435.79,-30.6 425.2,-30.77 427.62,-37.34"/>
</g>
</g>
</svg>
