<?xml version="1.0" encoding="UTF-8" standalone="no"?>
<!DOCTYPE svg PUBLIC "-//W3C//DTD SVG 1.1//EN"
 "http://www.w3.org/Graphics/SVG/1.1/DTD/svg11.dtd">
<!-- Generated by graphviz version 2.48.0 (20210719.0153)
 -->
<!-- Title: /github/workspace/kratos/linear_solvers/power_iteration_eigenvalue_solver.h Pages: 1 -->
<svg width="338pt" height="139pt"
 viewBox="0.00 0.00 338.00 139.00" xmlns="http://www.w3.org/2000/svg" xmlns:xlink="http://www.w3.org/1999/xlink">
<g id="graph0" class="graph" transform="scale(1 1) rotate(0) translate(4 135)">
<title>/github/workspace/kratos/linear_solvers/power_iteration_eigenvalue_solver.h</title>
<!-- Node1 -->
<g id="node1" class="node">
<title>Node1</title>
<g id="a_node1"><a xlink:title=" ">
<polygon fill="#bfbfbf" stroke="black" points="78.5,-89.5 78.5,-130.5 227.5,-130.5 227.5,-89.5 78.5,-89.5"/>
<text text-anchor="start" x="86.5" y="-118.5" font-family="Helvetica,sans-Serif" font-size="10.00">/github/workspace/kratos</text>
<text text-anchor="start" x="86.5" y="-107.5" font-family="Helvetica,sans-Serif" font-size="10.00">/linear_solvers/power_iteration</text>
<text text-anchor="middle" x="153" y="-96.5" font-family="Helvetica,sans-Serif" font-size="10.00">_eigenvalue_solver.h</text>
</a>
</g>
</g>
<!-- Node2 -->
<g id="node2" class="node">
<title>Node2</title>
<g id="a_node2"><a xlink:href="../../d0/d87/kratos_2python_2add__linear__solvers__to__python_8cpp.html" target="_top" xlink:title=" ">
<polygon fill="none" stroke="black" points="0,-6 0,-47 132,-47 132,-6 0,-6"/>
<text text-anchor="start" x="8" y="-35" font-family="Helvetica,sans-Serif" font-size="10.00">/github/workspace/kratos</text>
<text text-anchor="start" x="8" y="-24" font-family="Helvetica,sans-Serif" font-size="10.00">/python/add_linear_solvers</text>
<text text-anchor="middle" x="66" y="-13" font-family="Helvetica,sans-Serif" font-size="10.00">_to_python.cpp</text>
</a>
</g>
</g>
<!-- Node1&#45;&gt;Node2 -->
<g id="edge1" class="edge">
<title>Node1&#45;&gt;Node2</title>
<path fill="none" stroke="midnightblue" d="M124.57,-82.36C112.28,-70.85 98.16,-57.63 86.87,-47.05"/>
<polygon fill="midnightblue" stroke="midnightblue" points="122.25,-84.99 131.94,-89.27 127.03,-79.88 122.25,-84.99"/>
</g>
<!-- Node3 -->
<g id="node3" class="node">
<title>Node3</title>
<g id="a_node3"><a xlink:href="../../dc/d9a/modal__analysis__builder__and__solver_8h.html" target="_top" xlink:title=" ">
<polygon fill="none" stroke="black" points="150,-0.5 150,-52.5 330,-52.5 330,-0.5 150,-0.5"/>
<text text-anchor="start" x="158" y="-40.5" font-family="Helvetica,sans-Serif" font-size="10.00">/github/workspace/applications</text>
<text text-anchor="start" x="158" y="-29.5" font-family="Helvetica,sans-Serif" font-size="10.00">/structural_application/custom</text>
<text text-anchor="start" x="158" y="-18.5" font-family="Helvetica,sans-Serif" font-size="10.00">_strategies/builder_and_solvers</text>
<text text-anchor="middle" x="240" y="-7.5" font-family="Helvetica,sans-Serif" font-size="10.00">/modal_analysis_builder_and_solver.h</text>
</a>
</g>
</g>
<!-- Node1&#45;&gt;Node3 -->
<g id="edge2" class="edge">
<title>Node1&#45;&gt;Node3</title>
<path fill="none" stroke="midnightblue" d="M181.56,-82.24C191.74,-72.71 203.17,-62 213.2,-52.61"/>
<polygon fill="midnightblue" stroke="midnightblue" points="178.97,-79.88 174.06,-89.27 183.75,-84.99 178.97,-79.88"/>
</g>
</g>
</svg>
