<?xml version="1.0" encoding="UTF-8" standalone="no"?>
<!DOCTYPE svg PUBLIC "-//W3C//DTD SVG 1.1//EN"
 "http://www.w3.org/Graphics/SVG/1.1/DTD/svg11.dtd">
<!-- Generated by graphviz version 2.48.0 (20210719.0153)
 -->
<!-- Title: Gstat_t Pages: 1 -->
<!--zoomable 369 -->
<svg id="main" version="1.1" xmlns="http://www.w3.org/2000/svg" xmlns:xlink="http://www.w3.org/1999/xlink" xml:space="preserve" onload="init(evt)">
<style type="text/css"><![CDATA[
.edge:hover path { stroke: red; }
.edge:hover polygon { stroke: red; fill: red; }
]]></style>
<script type="text/javascript"><![CDATA[
var edges = document.getElementsByTagName('g');
if (edges && edges.length) {
  for (var i=0;i<edges.length;i++) {
    if (edges[i].id.substr(0,4)=='edge') {
      edges[i].setAttribute('class','edge');
    }
  }
}
]]></script>
        <defs>
                <circle id="rim" cx="0" cy="0" r="7"/>
                <circle id="rim2" cx="0" cy="0" r="3.5"/>
                <g id="zoomPlus">
                        <use xlink:href="#rim" fill="#404040">
                                <set attributeName="fill" to="#808080" begin="zoomplus.mouseover" end="zoomplus.mouseout"/>
                        </use>
                        <path d="M-4,0h8M0,-4v8" fill="none" stroke="white" stroke-width="1.5" pointer-events="none"/>
                </g>
                <g id="zoomMin">
                        <use xlink:href="#rim" fill="#404040">
                                <set attributeName="fill" to="#808080" begin="zoomminus.mouseover" end="zoomminus.mouseout"/>
                        </use>
                        <path d="M-4,0h8" fill="none" stroke="white" stroke-width="1.5" pointer-events="none"/>
                </g>
                <g id="dirArrow">
                        <path fill="none" stroke="white" stroke-width="1.5" d="M0,-3.0v7 M-2.5,-0.5L0,-3.0L2.5,-0.5"/>
                </g>
               <g id="resetDef">
                       <use xlink:href="#rim2" fill="#404040">
                               <set attributeName="fill" to="#808080" begin="reset.mouseover" end="reset.mouseout"/>
                       </use>
               </g>
        </defs>

<script type="text/javascript">
var viewWidth = 578;
var viewHeight = 369;
var sectionId = 'dynsection-0';
</script>
<script xlink:href="../../svgpan.js"/>
<svg id="graph" class="graph">
<g id="viewport">
<title>Gstat_t</title>
<!-- Node1 -->
<g id="node1" class="node">
<title>Node1</title>
<g id="a_node1"><a xlink:title=" ">
<polygon fill="#bfbfbf" stroke="black" points="232.5,-0.5 232.5,-167.5 344.5,-167.5 344.5,-0.5 232.5,-0.5"/>
<text text-anchor="middle" x="288.5" y="-155.5" font-family="Helvetica,sans-Serif" font-size="10.00">Gstat_t</text>
<polyline fill="none" stroke="black" points="232.5,-148.5 344.5,-148.5 "/>
<text text-anchor="start" x="240.5" y="-136.5" font-family="Helvetica,sans-Serif" font-size="10.00">+ panel_histo</text>
<text text-anchor="start" x="240.5" y="-125.5" font-family="Helvetica,sans-Serif" font-size="10.00">+ utime</text>
<text text-anchor="start" x="240.5" y="-114.5" font-family="Helvetica,sans-Serif" font-size="10.00">+ ops</text>
<text text-anchor="start" x="240.5" y="-103.5" font-family="Helvetica,sans-Serif" font-size="10.00">+ num_panels</text>
<text text-anchor="start" x="240.5" y="-92.5" font-family="Helvetica,sans-Serif" font-size="10.00">+ dom_flopcnt</text>
<text text-anchor="start" x="240.5" y="-81.5" font-family="Helvetica,sans-Serif" font-size="10.00">+ flops_last_P_panels</text>
<text text-anchor="start" x="240.5" y="-70.5" font-family="Helvetica,sans-Serif" font-size="10.00">+ panhows</text>
<text text-anchor="start" x="240.5" y="-59.5" font-family="Helvetica,sans-Serif" font-size="10.00">+ cp_firstkid</text>
<text text-anchor="start" x="240.5" y="-48.5" font-family="Helvetica,sans-Serif" font-size="10.00">+ cp_nextkid</text>
<text text-anchor="start" x="240.5" y="-37.5" font-family="Helvetica,sans-Serif" font-size="10.00">+ height</text>
<text text-anchor="start" x="240.5" y="-26.5" font-family="Helvetica,sans-Serif" font-size="10.00">+ flops_by_height</text>
<polyline fill="none" stroke="black" points="232.5,-19.5 344.5,-19.5 "/>
<text text-anchor="middle" x="288.5" y="-7.5" font-family="Helvetica,sans-Serif" font-size="10.00"> </text>
</a>
</g>
</g>
<!-- Node2 -->
<g id="node2" class="node">
<title>Node2</title>
<g id="a_node2"><a xlink:href="../../d9/d9b/structprocstat__t.html" target="_top" xlink:title=" ">
<polygon fill="none" stroke="black" points="0,-215.5 0,-360.5 69,-360.5 69,-215.5 0,-215.5"/>
<text text-anchor="middle" x="34.5" y="-348.5" font-family="Helvetica,sans-Serif" font-size="10.00">procstat_t</text>
<polyline fill="none" stroke="black" points="0,-341.5 69,-341.5 "/>
<text text-anchor="start" x="8" y="-329.5" font-family="Helvetica,sans-Serif" font-size="10.00">+ panels</text>
<text text-anchor="start" x="8" y="-318.5" font-family="Helvetica,sans-Serif" font-size="10.00">+ fcops</text>
<text text-anchor="start" x="8" y="-307.5" font-family="Helvetica,sans-Serif" font-size="10.00">+ fctime</text>
<text text-anchor="start" x="8" y="-296.5" font-family="Helvetica,sans-Serif" font-size="10.00">+ skedwaits</text>
<text text-anchor="start" x="8" y="-285.5" font-family="Helvetica,sans-Serif" font-size="10.00">+ skedtime</text>
<text text-anchor="start" x="8" y="-274.5" font-family="Helvetica,sans-Serif" font-size="10.00">+ cs_time</text>
<text text-anchor="start" x="8" y="-263.5" font-family="Helvetica,sans-Serif" font-size="10.00">+ spintime</text>
<text text-anchor="start" x="8" y="-252.5" font-family="Helvetica,sans-Serif" font-size="10.00">+ pruned</text>
<text text-anchor="start" x="8" y="-241.5" font-family="Helvetica,sans-Serif" font-size="10.00">+ unpruned</text>
<polyline fill="none" stroke="black" points="0,-234.5 69,-234.5 "/>
<text text-anchor="middle" x="34.5" y="-222.5" font-family="Helvetica,sans-Serif" font-size="10.00"> </text>
</a>
</g>
</g>
<!-- Node2&#45;&gt;Node1 -->
<g id="edge1" class="edge">
<title>Node2&#45;&gt;Node1</title>
<path fill="none" stroke="#404040" d="M69.25,-224.91C71.89,-221.45 74.65,-218.12 77.5,-215 117.74,-171.01 176.25,-136.55 221.45,-114.2"/>
<polygon fill="none" stroke="#404040" points="221.54,-114.15 225.19,-107.93 232.34,-108.91 228.68,-115.13 221.54,-114.15"/>
<text text-anchor="middle" x="129.5" y="-189" font-family="Helvetica,sans-Serif" font-size="10.00"> +procstat</text>
</g>
<!-- Node3 -->
<g id="node3" class="node">
<title>Node3</title>
<g id="a_node3"><a xlink:href="../../dc/d83/structstat__snode__t.html" target="_top" xlink:title=" ">
<polygon fill="none" stroke="black" points="87,-243 87,-333 160,-333 160,-243 87,-243"/>
<text text-anchor="middle" x="123.5" y="-321" font-family="Helvetica,sans-Serif" font-size="10.00">stat_snode_t</text>
<polyline fill="none" stroke="black" points="87,-314 160,-314 "/>
<text text-anchor="start" x="95" y="-302" font-family="Helvetica,sans-Serif" font-size="10.00">+ ncols</text>
<text text-anchor="start" x="95" y="-291" font-family="Helvetica,sans-Serif" font-size="10.00">+ flops</text>
<text text-anchor="start" x="95" y="-280" font-family="Helvetica,sans-Serif" font-size="10.00">+ nzs</text>
<text text-anchor="start" x="95" y="-269" font-family="Helvetica,sans-Serif" font-size="10.00">+ fctime</text>
<polyline fill="none" stroke="black" points="87,-262 160,-262 "/>
<text text-anchor="middle" x="123.5" y="-250" font-family="Helvetica,sans-Serif" font-size="10.00"> </text>
</a>
</g>
</g>
<!-- Node3&#45;&gt;Node1 -->
<g id="edge2" class="edge">
<title>Node3&#45;&gt;Node1</title>
<path fill="none" stroke="#404040" d="M140.83,-242.83C149.22,-224.31 160.33,-203.15 173.5,-186 187.57,-167.68 205.33,-150.17 222.67,-135.01"/>
<polygon fill="none" stroke="#404040" points="223.11,-134.64 225.07,-127.7 232.23,-126.85 230.27,-133.78 223.11,-134.64"/>
<text text-anchor="middle" x="202" y="-189" font-family="Helvetica,sans-Serif" font-size="10.00"> +stat_snode</text>
</g>
<!-- Node4 -->
<g id="node4" class="node">
<title>Node4</title>
<g id="a_node4"><a xlink:href="../../d2/da0/structdesc__eft__t.html" target="_top" xlink:title=" ">
<polygon fill="none" stroke="black" points="178.5,-254 178.5,-322 240.5,-322 240.5,-254 178.5,-254"/>
<text text-anchor="middle" x="209.5" y="-310" font-family="Helvetica,sans-Serif" font-size="10.00">desc_eft_t</text>
<polyline fill="none" stroke="black" points="178.5,-303 240.5,-303 "/>
<text text-anchor="start" x="186.5" y="-291" font-family="Helvetica,sans-Serif" font-size="10.00">+ eft</text>
<text text-anchor="start" x="186.5" y="-280" font-family="Helvetica,sans-Serif" font-size="10.00">+ pmod</text>
<polyline fill="none" stroke="black" points="178.5,-273 240.5,-273 "/>
<text text-anchor="middle" x="209.5" y="-261" font-family="Helvetica,sans-Serif" font-size="10.00"> </text>
</a>
</g>
</g>
<!-- Node4&#45;&gt;Node1 -->
<g id="edge3" class="edge">
<title>Node4&#45;&gt;Node1</title>
<path fill="none" stroke="#404040" d="M217.43,-253.75C222.59,-233.81 229.93,-208.11 238.5,-186 239.41,-183.65 240.36,-181.28 241.33,-178.89"/>
<polygon fill="none" stroke="#404040" points="241.4,-178.74 240.06,-171.65 246.09,-167.69 247.43,-174.78 241.4,-178.74"/>
<text text-anchor="middle" x="261.5" y="-189" font-family="Helvetica,sans-Serif" font-size="10.00"> +desc_eft</text>
</g>
<!-- Node5 -->
<g id="node5" class="node">
<title>Node5</title>
<g id="a_node5"><a xlink:href="../../d7/d69/structstat__col__t.html" target="_top" xlink:title=" ">
<polygon fill="none" stroke="black" points="259,-248.5 259,-327.5 318,-327.5 318,-248.5 259,-248.5"/>
<text text-anchor="middle" x="288.5" y="-315.5" font-family="Helvetica,sans-Serif" font-size="10.00">stat_col_t</text>
<polyline fill="none" stroke="black" points="259,-308.5 318,-308.5 "/>
<text text-anchor="start" x="267" y="-296.5" font-family="Helvetica,sans-Serif" font-size="10.00">+ flops</text>
<text text-anchor="start" x="267" y="-285.5" font-family="Helvetica,sans-Serif" font-size="10.00">+ nzs</text>
<text text-anchor="start" x="267" y="-274.5" font-family="Helvetica,sans-Serif" font-size="10.00">+ fctime</text>
<polyline fill="none" stroke="black" points="259,-267.5 318,-267.5 "/>
<text text-anchor="middle" x="288.5" y="-255.5" font-family="Helvetica,sans-Serif" font-size="10.00"> </text>
</a>
</g>
</g>
<!-- Node5&#45;&gt;Node1 -->
<g id="edge4" class="edge">
<title>Node5&#45;&gt;Node1</title>
<path fill="none" stroke="#404040" d="M288.5,-248.05C288.5,-228.54 288.5,-203.97 288.5,-179.87"/>
<polygon fill="none" stroke="#404040" points="288.5,-179.73 284.5,-173.73 288.5,-167.73 292.5,-173.73 288.5,-179.73"/>
<text text-anchor="middle" x="310" y="-189" font-family="Helvetica,sans-Serif" font-size="10.00"> +stat_col</text>
</g>
<!-- Node6 -->
<g id="node6" class="node">
<title>Node6</title>
<g id="a_node6"><a xlink:href="../../d5/dd9/structcp__panel__t.html" target="_top" xlink:title=" ">
<polygon fill="none" stroke="black" points="336.5,-254 336.5,-322 400.5,-322 400.5,-254 336.5,-254"/>
<text text-anchor="middle" x="368.5" y="-310" font-family="Helvetica,sans-Serif" font-size="10.00">cp_panel_t</text>
<polyline fill="none" stroke="black" points="336.5,-303 400.5,-303 "/>
<text text-anchor="start" x="344.5" y="-291" font-family="Helvetica,sans-Serif" font-size="10.00">+ est</text>
<text text-anchor="start" x="344.5" y="-280" font-family="Helvetica,sans-Serif" font-size="10.00">+ pdiv</text>
<polyline fill="none" stroke="black" points="336.5,-273 400.5,-273 "/>
<text text-anchor="middle" x="368.5" y="-261" font-family="Helvetica,sans-Serif" font-size="10.00"> </text>
</a>
</g>
</g>
<!-- Node6&#45;&gt;Node1 -->
<g id="edge5" class="edge">
<title>Node6&#45;&gt;Node1</title>
<path fill="none" stroke="#404040" d="M358.78,-253.9C352.67,-234.01 344.3,-208.31 335.5,-186 334.57,-183.65 333.61,-181.27 332.64,-178.88"/>
<polygon fill="none" stroke="#404040" points="332.55,-178.67 326.54,-174.69 327.91,-167.61 333.92,-171.59 332.55,-178.67"/>
<text text-anchor="middle" x="363.5" y="-189" font-family="Helvetica,sans-Serif" font-size="10.00"> +cp_panel</text>
</g>
<!-- Node7 -->
<g id="node7" class="node">
<title>Node7</title>
<g id="a_node7"><a xlink:href="../../d4/dc6/structpanstat__t.html" target="_top" xlink:title=" ">
<polygon fill="none" stroke="black" points="418.5,-226.5 418.5,-349.5 484.5,-349.5 484.5,-226.5 418.5,-226.5"/>
<text text-anchor="middle" x="451.5" y="-337.5" font-family="Helvetica,sans-Serif" font-size="10.00">panstat_t</text>
<polyline fill="none" stroke="black" points="418.5,-330.5 484.5,-330.5 "/>
<text text-anchor="start" x="426.5" y="-318.5" font-family="Helvetica,sans-Serif" font-size="10.00">+ size</text>
<text text-anchor="start" x="426.5" y="-307.5" font-family="Helvetica,sans-Serif" font-size="10.00">+ pnum</text>
<text text-anchor="start" x="426.5" y="-296.5" font-family="Helvetica,sans-Serif" font-size="10.00">+ starttime</text>
<text text-anchor="start" x="426.5" y="-285.5" font-family="Helvetica,sans-Serif" font-size="10.00">+ fctime</text>
<text text-anchor="start" x="426.5" y="-274.5" font-family="Helvetica,sans-Serif" font-size="10.00">+ flopcnt</text>
<text text-anchor="start" x="426.5" y="-263.5" font-family="Helvetica,sans-Serif" font-size="10.00">+ pipewaits</text>
<text text-anchor="start" x="426.5" y="-252.5" font-family="Helvetica,sans-Serif" font-size="10.00">+ spintime</text>
<polyline fill="none" stroke="black" points="418.5,-245.5 484.5,-245.5 "/>
<text text-anchor="middle" x="451.5" y="-233.5" font-family="Helvetica,sans-Serif" font-size="10.00"> </text>
</a>
</g>
</g>
<!-- Node7&#45;&gt;Node1 -->
<g id="edge6" class="edge">
<title>Node7&#45;&gt;Node1</title>
<path fill="none" stroke="#404040" d="M418.4,-229.93C415.41,-224.87 412.41,-219.84 409.5,-215 401.68,-202 400.98,-197.84 391.5,-186 380,-171.65 366.63,-157.22 353.4,-143.94"/>
<polygon fill="none" stroke="#404040" points="353.29,-143.83 346.21,-142.46 344.75,-135.4 351.83,-136.77 353.29,-143.83"/>
<text text-anchor="middle" x="419" y="-189" font-family="Helvetica,sans-Serif" font-size="10.00"> +panstat</text>
</g>
<!-- Node8 -->
<g id="node8" class="node">
<title>Node8</title>
<g id="a_node8"><a xlink:href="../../d0/d00/structstat__relax__t.html" target="_top" xlink:title=" ">
<polygon fill="none" stroke="black" points="503,-248.5 503,-327.5 570,-327.5 570,-248.5 503,-248.5"/>
<text text-anchor="middle" x="536.5" y="-315.5" font-family="Helvetica,sans-Serif" font-size="10.00">stat_relax_t</text>
<polyline fill="none" stroke="black" points="503,-308.5 570,-308.5 "/>
<text text-anchor="start" x="511" y="-296.5" font-family="Helvetica,sans-Serif" font-size="10.00">+ flops</text>
<text text-anchor="start" x="511" y="-285.5" font-family="Helvetica,sans-Serif" font-size="10.00">+ nzs</text>
<text text-anchor="start" x="511" y="-274.5" font-family="Helvetica,sans-Serif" font-size="10.00">+ fctime</text>
<polyline fill="none" stroke="black" points="503,-267.5 570,-267.5 "/>
<text text-anchor="middle" x="536.5" y="-255.5" font-family="Helvetica,sans-Serif" font-size="10.00"> </text>
</a>
</g>
</g>
<!-- Node8&#45;&gt;Node1 -->
<g id="edge7" class="edge">
<title>Node8&#45;&gt;Node1</title>
<path fill="none" stroke="#404040" d="M517.89,-248.4C511.2,-236.86 502.95,-224.7 493.5,-215 453.66,-174.08 398.56,-140.05 355.51,-117.09"/>
<polygon fill="none" stroke="#404040" points="355.47,-117.07 348.3,-117.82 344.84,-111.49 352.01,-110.74 355.47,-117.07"/>
<text text-anchor="middle" x="499" y="-189" font-family="Helvetica,sans-Serif" font-size="10.00"> +stat_relax</text>
</g>
</g>
</svg>
        <g id="navigator" transform="translate(0 0)" fill="#404254">
                <rect fill="#f2f5e9" fill-opacity="0.5" stroke="#606060" stroke-width=".5" x="0" y="0" width="60" height="60"/>
                <use id="zoomplus" xlink:href="#zoomPlus" x="17" y="9" onmousedown="handleZoom(evt,'in')"/>
                <use id="zoomminus" xlink:href="#zoomMin" x="42" y="9" onmousedown="handleZoom(evt,'out')"/>
                <use id="reset" xlink:href="#resetDef" x="30" y="36" onmousedown="handleReset()"/>
                <g id="arrowUp" xlink:href="#dirArrow" transform="translate(30 24)" onmousedown="handlePan(0,-1)">
                  <use xlink:href="#rim" fill="#404040">
                        <set attributeName="fill" to="#808080" begin="arrowUp.mouseover" end="arrowUp.mouseout"/>
                  </use>
                  <path fill="none" stroke="white" stroke-width="1.5" d="M0,-3.0v7 M-2.5,-0.5L0,-3.0L2.5,-0.5"/>
                </g>
                <g id="arrowRight" xlink:href="#dirArrow" transform="rotate(90) translate(36 -43)" onmousedown="handlePan(1,0)">
                  <use xlink:href="#rim" fill="#404040">
                        <set attributeName="fill" to="#808080" begin="arrowRight.mouseover" end="arrowRight.mouseout"/>
                  </use>
                  <path fill="none" stroke="white" stroke-width="1.5" d="M0,-3.0v7 M-2.5,-0.5L0,-3.0L2.5,-0.5"/>
                </g>
                <g id="arrowDown" xlink:href="#dirArrow" transform="rotate(180) translate(-30 -48)" onmousedown="handlePan(0,1)">
                  <use xlink:href="#rim" fill="#404040">
                        <set attributeName="fill" to="#808080" begin="arrowDown.mouseover" end="arrowDown.mouseout"/>
                  </use>
                  <path fill="none" stroke="white" stroke-width="1.5" d="M0,-3.0v7 M-2.5,-0.5L0,-3.0L2.5,-0.5"/>
                </g>
                <g id="arrowLeft" xlink:href="#dirArrow" transform="rotate(270) translate(-36 17)" onmousedown="handlePan(-1,0)">
                  <use xlink:href="#rim" fill="#404040">
                        <set attributeName="fill" to="#808080" begin="arrowLeft.mouseover" end="arrowLeft.mouseout"/>
                  </use>
                  <path fill="none" stroke="white" stroke-width="1.5" d="M0,-3.0v7 M-2.5,-0.5L0,-3.0L2.5,-0.5"/>
                </g>
        </g>
        <svg viewBox="0 0 15 15" width="100%" height="30px" preserveAspectRatio="xMaxYMin meet">
         <g id="arrow_out" transform="scale(0.3 0.3)">
          <a xlink:href="struct_gstat__t__coll__graph_org.svg" target="_base">
           <rect id="button" ry="5" rx="5" y="6" x="6" height="38" width="38"
                fill="#f2f5e9" fill-opacity="0.5" stroke="#606060" stroke-width="1.0"/>
           <path id="arrow"
             d="M 11.500037,31.436501 C 11.940474,20.09759 22.043105,11.32322 32.158766,21.979434 L 37.068811,17.246167 C 37.068811,17.246167 37.088388,32 37.088388,32 L 22.160133,31.978069 C 22.160133,31.978069 26.997745,27.140456 26.997745,27.140456 C 18.528582,18.264221 13.291696,25.230495 11.500037,31.436501 z"
             style="fill:#404040;"/>
          </a>
         </g>
        </svg>
</svg>
