<?xml version="1.0" encoding="UTF-8" standalone="no"?>
<!DOCTYPE svg PUBLIC "-//W3C//DTD SVG 1.1//EN"
 "http://www.w3.org/Graphics/SVG/1.1/DTD/svg11.dtd">
<!-- Generated by graphviz version 2.48.0 (20210719.0153)
 -->
<!-- Title: /github/workspace/applications/metis_application Pages: 1 -->
<svg width="348pt" height="231pt"
 viewBox="0.00 0.00 348.00 231.00" xmlns="http://www.w3.org/2000/svg" xmlns:xlink="http://www.w3.org/1999/xlink">
<g id="graph0" class="graph" transform="scale(1 1) rotate(0) translate(4 227)">
<title>/github/workspace/applications/metis_application</title>
<g id="clust1" class="cluster">
<title>clusterdir_a6e4fee11f07c3b70486e88fe92cbbdc</title>
<g id="a_clust1"><a xlink:href="dir_a6e4fee11f07c3b70486e88fe92cbbdc.html" target="_top" xlink:title="applications">
<polygon fill="#ddddee" stroke="black" points="8,-56 8,-215 332,-215 332,-56 8,-56"/>
<text text-anchor="middle" x="170" y="-203" font-family="Helvetica,sans-Serif" font-size="10.00">applications</text>
</a>
</g>
</g>
<g id="clust2" class="cluster">
<title>clusterdir_8668bfec8f6bd3dae5dc18771c65fee8</title>
<g id="a_clust2"><a xlink:href="dir_8668bfec8f6bd3dae5dc18771c65fee8.html" target="_top">
<polygon fill="#eeeeff" stroke="black" points="16,-64 16,-188 324,-188 324,-64 16,-64"/>
</a>
</g>
</g>
<!-- dir_8668bfec8f6bd3dae5dc18771c65fee8 -->
<g id="node1" class="node">
<title>dir_8668bfec8f6bd3dae5dc18771c65fee8</title>
<text text-anchor="middle" x="270" y="-159.5" font-family="Helvetica,sans-Serif" font-size="10.00">metis_application</text>
</g>
<!-- dir_a76b02b81e55933d3608d7ee70e8d448 -->
<g id="node2" class="node">
<title>dir_a76b02b81e55933d3608d7ee70e8d448</title>
<g id="a_node2"><a xlink:href="dir_a76b02b81e55933d3608d7ee70e8d448.html" target="_top" xlink:title="custom_processes">
<polygon fill="white" stroke="black" points="174.5,-108 75.5,-108 75.5,-72 174.5,-72 174.5,-108"/>
<text text-anchor="middle" x="125" y="-87.5" font-family="Helvetica,sans-Serif" font-size="10.00">custom_processes</text>
</a>
</g>
</g>
<!-- dir_8fc3e8efef0bfca4a113d719cbd52afb -->
<g id="node5" class="node">
<title>dir_8fc3e8efef0bfca4a113d719cbd52afb</title>
<g id="a_node5"><a xlink:href="dir_8fc3e8efef0bfca4a113d719cbd52afb.html" target="_top" xlink:title="kratos">
<polygon fill="none" stroke="red" points="191,-36 137,-36 137,0 191,0 191,-36"/>
<text text-anchor="middle" x="164" y="-15.5" font-family="Helvetica,sans-Serif" font-size="10.00">kratos</text>
</a>
</g>
</g>
<!-- dir_a76b02b81e55933d3608d7ee70e8d448&#45;&gt;dir_8fc3e8efef0bfca4a113d719cbd52afb -->
<g id="edge1" class="edge">
<title>dir_a76b02b81e55933d3608d7ee70e8d448&#45;&gt;dir_8fc3e8efef0bfca4a113d719cbd52afb</title>
<path fill="none" stroke="black" d="M134.64,-71.7C139.13,-63.64 144.56,-53.89 149.52,-44.98"/>
<polygon fill="black" stroke="black" points="152.66,-46.54 154.47,-36.1 146.55,-43.14 152.66,-46.54"/>
<g id="a_edge1&#45;headlabel"><a xlink:href="dir_000112_000166.html" target="_top" xlink:title="15">
<text text-anchor="middle" x="153.39" y="-48.57" font-family="Helvetica,sans-Serif" font-size="10.00">15</text>
</a>
</g>
</g>
<!-- dir_c883c65ce2bb9aa9dd4b92d035bc072e -->
<g id="node3" class="node">
<title>dir_c883c65ce2bb9aa9dd4b92d035bc072e</title>
<g id="a_node3"><a xlink:href="dir_c883c65ce2bb9aa9dd4b92d035bc072e.html" target="_top" xlink:title="custom_python">
<polygon fill="white" stroke="black" points="205.5,-180 122.5,-180 122.5,-144 205.5,-144 205.5,-180"/>
<text text-anchor="middle" x="164" y="-159.5" font-family="Helvetica,sans-Serif" font-size="10.00">custom_python</text>
</a>
</g>
</g>
<!-- dir_c883c65ce2bb9aa9dd4b92d035bc072e&#45;&gt;dir_a76b02b81e55933d3608d7ee70e8d448 -->
<g id="edge3" class="edge">
<title>dir_c883c65ce2bb9aa9dd4b92d035bc072e&#45;&gt;dir_a76b02b81e55933d3608d7ee70e8d448</title>
<path fill="none" stroke="black" d="M154.36,-143.7C149.87,-135.64 144.44,-125.89 139.48,-116.98"/>
<polygon fill="black" stroke="black" points="142.45,-115.14 134.53,-108.1 136.34,-118.54 142.45,-115.14"/>
<g id="a_edge3&#45;headlabel"><a xlink:href="dir_000113_000112.html" target="_top" xlink:title="1">
<text text-anchor="middle" x="146.68" y="-114.39" font-family="Helvetica,sans-Serif" font-size="10.00">1</text>
</a>
</g>
</g>
<!-- dir_c883c65ce2bb9aa9dd4b92d035bc072e&#45;&gt;dir_8fc3e8efef0bfca4a113d719cbd52afb -->
<g id="edge2" class="edge">
<title>dir_c883c65ce2bb9aa9dd4b92d035bc072e&#45;&gt;dir_8fc3e8efef0bfca4a113d719cbd52afb</title>
<path fill="none" stroke="black" d="M172.31,-143.79C176.74,-133.63 181.74,-120.38 184,-108 188.15,-85.26 189.67,-78.41 184,-56 183.11,-52.5 181.82,-48.96 180.32,-45.54"/>
<polygon fill="black" stroke="black" points="183.29,-43.67 175.66,-36.33 177.04,-46.83 183.29,-43.67"/>
<g id="a_edge2&#45;headlabel"><a xlink:href="dir_000113_000166.html" target="_top" xlink:title="5">
<text text-anchor="middle" x="187.45" y="-43.1" font-family="Helvetica,sans-Serif" font-size="10.00">5</text>
</a>
</g>
</g>
<!-- dir_f9950aaefab994de2d18c3438b36bc4b -->
<g id="node4" class="node">
<title>dir_f9950aaefab994de2d18c3438b36bc4b</title>
<g id="a_node4"><a xlink:href="dir_f9950aaefab994de2d18c3438b36bc4b.html" target="_top" xlink:title="test_exemples">
<polygon fill="white" stroke="red" points="104,-180 24,-180 24,-144 104,-144 104,-180"/>
<text text-anchor="middle" x="64" y="-159.5" font-family="Helvetica,sans-Serif" font-size="10.00">test_exemples</text>
</a>
</g>
</g>
</g>
</svg>
