<?xml version="1.0" encoding="UTF-8" standalone="no"?>
<!DOCTYPE svg PUBLIC "-//W3C//DTD SVG 1.1//EN"
 "http://www.w3.org/Graphics/SVG/1.1/DTD/svg11.dtd">
<!-- Generated by graphviz version 2.48.0 (20210719.0153)
 -->
<!-- Title: /github/workspace/applications/ALEapplication Pages: 1 -->
<svg width="357pt" height="303pt"
 viewBox="0.00 0.00 357.00 303.00" xmlns="http://www.w3.org/2000/svg" xmlns:xlink="http://www.w3.org/1999/xlink">
<g id="graph0" class="graph" transform="scale(1 1) rotate(0) translate(4 299)">
<title>/github/workspace/applications/ALEapplication</title>
<g id="clust1" class="cluster">
<title>clusterdir_a6e4fee11f07c3b70486e88fe92cbbdc</title>
<g id="a_clust1"><a xlink:href="dir_a6e4fee11f07c3b70486e88fe92cbbdc.html" target="_top" xlink:title="applications">
<polygon fill="#ddddee" stroke="black" points="8,-56 8,-287 341,-287 341,-56 8,-56"/>
<text text-anchor="middle" x="174.5" y="-275" font-family="Helvetica,sans-Serif" font-size="10.00">applications</text>
</a>
</g>
</g>
<g id="clust2" class="cluster">
<title>clusterdir_5d393c6f8b7a54e16543e1e0ad268998</title>
<g id="a_clust2"><a xlink:href="dir_5d393c6f8b7a54e16543e1e0ad268998.html" target="_top">
<polygon fill="#eeeeff" stroke="black" points="16,-64 16,-260 333,-260 333,-64 16,-64"/>
</a>
</g>
</g>
<!-- dir_5d393c6f8b7a54e16543e1e0ad268998 -->
<g id="node1" class="node">
<title>dir_5d393c6f8b7a54e16543e1e0ad268998</title>
<text text-anchor="middle" x="65" y="-159.5" font-family="Helvetica,sans-Serif" font-size="10.00">ALEapplication</text>
</g>
<!-- dir_0c8d0862b4393ee02f9e2dff0acd4e16 -->
<g id="node2" class="node">
<title>dir_0c8d0862b4393ee02f9e2dff0acd4e16</title>
<g id="a_node2"><a xlink:href="dir_0c8d0862b4393ee02f9e2dff0acd4e16.html" target="_top" xlink:title="custom_elements">
<polygon fill="white" stroke="black" points="133,-108 39,-108 39,-72 133,-72 133,-108"/>
<text text-anchor="middle" x="86" y="-87.5" font-family="Helvetica,sans-Serif" font-size="10.00">custom_elements</text>
</a>
</g>
</g>
<!-- dir_5d393c6f8b7a54e16543e1e0ad268998&#45;&gt;dir_0c8d0862b4393ee02f9e2dff0acd4e16 -->
<g id="edge2" class="edge">
<title>dir_5d393c6f8b7a54e16543e1e0ad268998&#45;&gt;dir_0c8d0862b4393ee02f9e2dff0acd4e16</title>
<path fill="none" stroke="black" d="M70.19,-143.7C72.53,-135.9 75.35,-126.51 77.95,-117.83"/>
<polygon fill="black" stroke="black" points="81.35,-118.69 80.87,-108.1 74.64,-116.68 81.35,-118.69"/>
<g id="a_edge2&#45;headlabel"><a xlink:href="dir_000001_000002.html" target="_top" xlink:title="4">
<text text-anchor="middle" x="83.03" y="-120.45" font-family="Helvetica,sans-Serif" font-size="10.00">4</text>
</a>
</g>
</g>
<!-- dir_8fc3e8efef0bfca4a113d719cbd52afb -->
<g id="node8" class="node">
<title>dir_8fc3e8efef0bfca4a113d719cbd52afb</title>
<g id="a_node8"><a xlink:href="dir_8fc3e8efef0bfca4a113d719cbd52afb.html" target="_top" xlink:title="kratos">
<polygon fill="none" stroke="red" points="226,-36 172,-36 172,0 226,0 226,-36"/>
<text text-anchor="middle" x="199" y="-15.5" font-family="Helvetica,sans-Serif" font-size="10.00">kratos</text>
</a>
</g>
</g>
<!-- dir_5d393c6f8b7a54e16543e1e0ad268998&#45;&gt;dir_8fc3e8efef0bfca4a113d719cbd52afb -->
<g id="edge3" class="edge">
<title>dir_5d393c6f8b7a54e16543e1e0ad268998&#45;&gt;dir_8fc3e8efef0bfca4a113d719cbd52afb</title>
<path fill="none" stroke="black" d="M95.64,-143.87C110.69,-134.52 128.46,-122 142,-108 151.87,-97.8 170.62,-67.43 183.92,-44.99"/>
<polygon fill="black" stroke="black" points="187.01,-46.64 189.07,-36.24 180.98,-43.09 187.01,-46.64"/>
<g id="a_edge3&#45;headlabel"><a xlink:href="dir_000001_000166.html" target="_top" xlink:title="51">
<text text-anchor="middle" x="187.64" y="-48.67" font-family="Helvetica,sans-Serif" font-size="10.00">51</text>
</a>
</g>
</g>
<!-- dir_0c8d0862b4393ee02f9e2dff0acd4e16&#45;&gt;dir_8fc3e8efef0bfca4a113d719cbd52afb -->
<g id="edge1" class="edge">
<title>dir_0c8d0862b4393ee02f9e2dff0acd4e16&#45;&gt;dir_8fc3e8efef0bfca4a113d719cbd52afb</title>
<path fill="none" stroke="black" d="M113.64,-71.88C128.53,-62.66 147.07,-51.17 163.06,-41.26"/>
<polygon fill="black" stroke="black" points="164.98,-44.19 171.64,-35.95 161.3,-38.24 164.98,-44.19"/>
<g id="a_edge1&#45;headlabel"><a xlink:href="dir_000002_000166.html" target="_top" xlink:title="14">
<text text-anchor="middle" x="163.42" y="-46" font-family="Helvetica,sans-Serif" font-size="10.00">14</text>
</a>
</g>
</g>
<!-- dir_45b9c9876bce1fa25b2c40bab9c6fde1 -->
<g id="node3" class="node">
<title>dir_45b9c9876bce1fa25b2c40bab9c6fde1</title>
<g id="a_node3"><a xlink:href="dir_45b9c9876bce1fa25b2c40bab9c6fde1.html" target="_top" xlink:title="custom_python">
<polygon fill="white" stroke="black" points="323.5,-252 240.5,-252 240.5,-216 323.5,-216 323.5,-252"/>
<text text-anchor="middle" x="282" y="-231.5" font-family="Helvetica,sans-Serif" font-size="10.00">custom_python</text>
</a>
</g>
</g>
<!-- dir_33474d98370e14a54bbcb677eb1ff15f -->
<g id="node4" class="node">
<title>dir_33474d98370e14a54bbcb677eb1ff15f</title>
<g id="a_node4"><a xlink:href="dir_33474d98370e14a54bbcb677eb1ff15f.html" target="_top" xlink:title="custom_strategies">
<polygon fill="white" stroke="red" points="221.5,-180 124.5,-180 124.5,-144 221.5,-144 221.5,-180"/>
<text text-anchor="middle" x="173" y="-159.5" font-family="Helvetica,sans-Serif" font-size="10.00">custom_strategies</text>
</a>
</g>
</g>
<!-- dir_45b9c9876bce1fa25b2c40bab9c6fde1&#45;&gt;dir_33474d98370e14a54bbcb677eb1ff15f -->
<g id="edge6" class="edge">
<title>dir_45b9c9876bce1fa25b2c40bab9c6fde1&#45;&gt;dir_33474d98370e14a54bbcb677eb1ff15f</title>
<path fill="none" stroke="black" d="M255.34,-215.88C241.22,-206.81 223.69,-195.55 208.44,-185.76"/>
<polygon fill="black" stroke="black" points="210.07,-182.65 199.77,-180.19 206.29,-188.54 210.07,-182.65"/>
<g id="a_edge6&#45;headlabel"><a xlink:href="dir_000003_000018.html" target="_top" xlink:title="1">
<text text-anchor="middle" x="214.63" y="-179.7" font-family="Helvetica,sans-Serif" font-size="10.00">1</text>
</a>
</g>
</g>
<!-- dir_50ed2da19ef3a3a59eb04db26798be9f -->
<g id="node5" class="node">
<title>dir_50ed2da19ef3a3a59eb04db26798be9f</title>
<g id="a_node5"><a xlink:href="dir_50ed2da19ef3a3a59eb04db26798be9f.html" target="_top" xlink:title="custom_utilities">
<polygon fill="white" stroke="black" points="324.5,-180 239.5,-180 239.5,-144 324.5,-144 324.5,-180"/>
<text text-anchor="middle" x="282" y="-159.5" font-family="Helvetica,sans-Serif" font-size="10.00">custom_utilities</text>
</a>
</g>
</g>
<!-- dir_45b9c9876bce1fa25b2c40bab9c6fde1&#45;&gt;dir_50ed2da19ef3a3a59eb04db26798be9f -->
<g id="edge7" class="edge">
<title>dir_45b9c9876bce1fa25b2c40bab9c6fde1&#45;&gt;dir_50ed2da19ef3a3a59eb04db26798be9f</title>
<path fill="none" stroke="black" d="M282,-215.7C282,-207.98 282,-198.71 282,-190.11"/>
<polygon fill="black" stroke="black" points="285.5,-190.1 282,-180.1 278.5,-190.1 285.5,-190.1"/>
<g id="a_edge7&#45;headlabel"><a xlink:href="dir_000003_000020.html" target="_top" xlink:title="3">
<text text-anchor="middle" x="288.34" y="-191.2" font-family="Helvetica,sans-Serif" font-size="10.00">3</text>
</a>
</g>
</g>
<!-- dir_45b9c9876bce1fa25b2c40bab9c6fde1&#45;&gt;dir_8fc3e8efef0bfca4a113d719cbd52afb -->
<g id="edge8" class="edge">
<title>dir_45b9c9876bce1fa25b2c40bab9c6fde1&#45;&gt;dir_8fc3e8efef0bfca4a113d719cbd52afb</title>
<path fill="none" stroke="black" d="M305.75,-215.91C316.55,-206.65 328.2,-194.2 334,-180 340.05,-165.19 339.99,-158.83 334,-144 315.05,-97.1 267.89,-60.4 234.67,-39.22"/>
<polygon fill="black" stroke="black" points="236.47,-36.22 226.13,-33.92 232.78,-42.16 236.47,-36.22"/>
<g id="a_edge8&#45;headlabel"><a xlink:href="dir_000003_000166.html" target="_top" xlink:title="10">
<text text-anchor="middle" x="241.02" y="-33.2" font-family="Helvetica,sans-Serif" font-size="10.00">10</text>
</a>
</g>
</g>
<!-- dir_33474d98370e14a54bbcb677eb1ff15f&#45;&gt;dir_0c8d0862b4393ee02f9e2dff0acd4e16 -->
<g id="edge5" class="edge">
<title>dir_33474d98370e14a54bbcb677eb1ff15f&#45;&gt;dir_0c8d0862b4393ee02f9e2dff0acd4e16</title>
<path fill="none" stroke="black" d="M151.49,-143.7C140.54,-134.88 127.05,-124.03 115.18,-114.47"/>
<polygon fill="black" stroke="black" points="117.24,-111.65 107.26,-108.1 112.86,-117.1 117.24,-111.65"/>
<g id="a_edge5&#45;headlabel"><a xlink:href="dir_000018_000002.html" target="_top" xlink:title="2">
<text text-anchor="middle" x="121.82" y="-109.19" font-family="Helvetica,sans-Serif" font-size="10.00">2</text>
</a>
</g>
</g>
<!-- dir_33474d98370e14a54bbcb677eb1ff15f&#45;&gt;dir_8fc3e8efef0bfca4a113d719cbd52afb -->
<g id="edge4" class="edge">
<title>dir_33474d98370e14a54bbcb677eb1ff15f&#45;&gt;dir_8fc3e8efef0bfca4a113d719cbd52afb</title>
<path fill="none" stroke="black" d="M176.14,-143.87C180.57,-119.67 188.71,-75.21 193.98,-46.39"/>
<polygon fill="black" stroke="black" points="197.49,-46.66 195.85,-36.19 190.61,-45.4 197.49,-46.66"/>
<g id="a_edge4&#45;headlabel"><a xlink:href="dir_000018_000166.html" target="_top" xlink:title="6">
<text text-anchor="middle" x="199.64" y="-48.2" font-family="Helvetica,sans-Serif" font-size="10.00">6</text>
</a>
</g>
</g>
<!-- dir_50ed2da19ef3a3a59eb04db26798be9f&#45;&gt;dir_8fc3e8efef0bfca4a113d719cbd52afb -->
<g id="edge9" class="edge">
<title>dir_50ed2da19ef3a3a59eb04db26798be9f&#45;&gt;dir_8fc3e8efef0bfca4a113d719cbd52afb</title>
<path fill="none" stroke="black" d="M271.99,-143.87C257.59,-119.24 230.94,-73.64 214.13,-44.88"/>
<polygon fill="black" stroke="black" points="217.12,-43.06 209.05,-36.19 211.07,-46.59 217.12,-43.06"/>
<g id="a_edge9&#45;headlabel"><a xlink:href="dir_000020_000166.html" target="_top" xlink:title="12">
<text text-anchor="middle" x="221.38" y="-42.23" font-family="Helvetica,sans-Serif" font-size="10.00">12</text>
</a>
</g>
</g>
<!-- dir_b0f52183715f4b084a6947eeb8ab9ce2 -->
<g id="node6" class="node">
<title>dir_b0f52183715f4b084a6947eeb8ab9ce2</title>
<g id="a_node6"><a xlink:href="dir_b0f52183715f4b084a6947eeb8ab9ce2.html" target="_top" xlink:title="python_scripts">
<polygon fill="white" stroke="black" points="217,-252 137,-252 137,-216 217,-216 217,-252"/>
<text text-anchor="middle" x="177" y="-231.5" font-family="Helvetica,sans-Serif" font-size="10.00">python_scripts</text>
</a>
</g>
</g>
<!-- dir_5d9b3aeb0385a8d02492670d47dbdb59 -->
<g id="node7" class="node">
<title>dir_5d9b3aeb0385a8d02492670d47dbdb59</title>
<g id="a_node7"><a xlink:href="dir_5d9b3aeb0385a8d02492670d47dbdb59.html" target="_top" xlink:title="test_examples">
<polygon fill="white" stroke="red" points="109,-252 29,-252 29,-216 109,-216 109,-252"/>
<text text-anchor="middle" x="69" y="-231.5" font-family="Helvetica,sans-Serif" font-size="10.00">test_examples</text>
</a>
</g>
</g>
</g>
</svg>
