<?xml version="1.0" encoding="UTF-8" standalone="no"?>
<!DOCTYPE svg PUBLIC "-//W3C//DTD SVG 1.1//EN"
 "http://www.w3.org/Graphics/SVG/1.1/DTD/svg11.dtd">
<!-- Generated by graphviz version 2.48.0 (20210719.0153)
 -->
<!-- Title: /github/workspace/kratos/geometries Pages: 1 -->
<svg width="222pt" height="311pt"
 viewBox="0.00 0.00 222.00 311.00" xmlns="http://www.w3.org/2000/svg" xmlns:xlink="http://www.w3.org/1999/xlink">
<g id="graph0" class="graph" transform="scale(1 1) rotate(0) translate(4 307)">
<title>/github/workspace/kratos/geometries</title>
<g id="clust1" class="cluster">
<title>clusterdir_8fc3e8efef0bfca4a113d719cbd52afb</title>
<g id="a_clust1"><a xlink:href="dir_8fc3e8efef0bfca4a113d719cbd52afb.html" target="_top" xlink:title="kratos">
<polygon fill="#ddddee" stroke="black" points="8,-8 8,-295 206,-295 206,-8 8,-8"/>
<text text-anchor="middle" x="107" y="-283" font-family="Helvetica,sans-Serif" font-size="10.00">kratos</text>
</a>
</g>
</g>
<!-- dir_6da2b5da699b6e8099c18b866a052d71 -->
<g id="node1" class="node">
<title>dir_6da2b5da699b6e8099c18b866a052d71</title>
<g id="a_node1"><a xlink:href="dir_6da2b5da699b6e8099c18b866a052d71.html" target="_top" xlink:title="includes">
<polygon fill="none" stroke="black" points="92,-268 38,-268 38,-232 92,-232 92,-268"/>
<text text-anchor="middle" x="65" y="-247.5" font-family="Helvetica,sans-Serif" font-size="10.00">includes</text>
</a>
</g>
</g>
<!-- dir_70f98bb657cca0a872199855cac08757 -->
<g id="node2" class="node">
<title>dir_70f98bb657cca0a872199855cac08757</title>
<g id="a_node2"><a xlink:href="dir_70f98bb657cca0a872199855cac08757.html" target="_top" xlink:title="utilities">
<polygon fill="none" stroke="black" points="82,-52 28,-52 28,-16 82,-16 82,-52"/>
<text text-anchor="middle" x="55" y="-31.5" font-family="Helvetica,sans-Serif" font-size="10.00">utilities</text>
</a>
</g>
</g>
<!-- dir_6da2b5da699b6e8099c18b866a052d71&#45;&gt;dir_70f98bb657cca0a872199855cac08757 -->
<g id="edge6" class="edge">
<title>dir_6da2b5da699b6e8099c18b866a052d71&#45;&gt;dir_70f98bb657cca0a872199855cac08757</title>
<path fill="none" stroke="black" d="M49.9,-231.58C31.31,-202.01 5.08,-140.13 18,-88 20.32,-78.65 24.62,-69.14 29.59,-60.8"/>
<polygon fill="black" stroke="black" points="32.62,-62.56 35.19,-52.28 26.77,-58.71 32.62,-62.56"/>
<g id="a_edge6&#45;headlabel"><a xlink:href="dir_000171_000185.html" target="_top" xlink:title="5">
<text text-anchor="middle" x="33.02" y="-64.62" font-family="Helvetica,sans-Serif" font-size="10.00">5</text>
</a>
</g>
</g>
<!-- dir_80b24cd11685060440d77842b83d8f07 -->
<g id="node3" class="node">
<title>dir_80b24cd11685060440d77842b83d8f07</title>
<g id="a_node3"><a xlink:href="dir_80b24cd11685060440d77842b83d8f07.html" target="_top" xlink:title="containers">
<polygon fill="none" stroke="black" points="98,-124 36,-124 36,-88 98,-88 98,-124"/>
<text text-anchor="middle" x="67" y="-103.5" font-family="Helvetica,sans-Serif" font-size="10.00">containers</text>
</a>
</g>
</g>
<!-- dir_6da2b5da699b6e8099c18b866a052d71&#45;&gt;dir_80b24cd11685060440d77842b83d8f07 -->
<g id="edge7" class="edge">
<title>dir_6da2b5da699b6e8099c18b866a052d71&#45;&gt;dir_80b24cd11685060440d77842b83d8f07</title>
<path fill="none" stroke="black" d="M60.66,-231.87C58.44,-207.67 58.77,-163.21 61.16,-134.39"/>
<polygon fill="black" stroke="black" points="64.66,-134.49 62.17,-124.19 57.7,-133.8 64.66,-134.49"/>
<g id="a_edge7&#45;headlabel"><a xlink:href="dir_000171_000167.html" target="_top" xlink:title="25">
<text text-anchor="middle" x="67.13" y="-135.84" font-family="Helvetica,sans-Serif" font-size="10.00">25</text>
</a>
</g>
</g>
<!-- dir_9311051b33dbe6b2e08fc45590134e6c -->
<g id="node5" class="node">
<title>dir_9311051b33dbe6b2e08fc45590134e6c</title>
<g id="a_node5"><a xlink:href="dir_9311051b33dbe6b2e08fc45590134e6c.html" target="_top" xlink:title="geometries">
<polygon fill="#eeeeff" stroke="black" points="149.5,-196 84.5,-196 84.5,-160 149.5,-160 149.5,-196"/>
<text text-anchor="middle" x="117" y="-175.5" font-family="Helvetica,sans-Serif" font-size="10.00">geometries</text>
</a>
</g>
</g>
<!-- dir_6da2b5da699b6e8099c18b866a052d71&#45;&gt;dir_9311051b33dbe6b2e08fc45590134e6c -->
<g id="edge8" class="edge">
<title>dir_6da2b5da699b6e8099c18b866a052d71&#45;&gt;dir_9311051b33dbe6b2e08fc45590134e6c</title>
<path fill="none" stroke="black" d="M71.94,-231.7C77.31,-223.3 84.72,-213.07 92.04,-203.86"/>
<polygon fill="black" stroke="black" points="94.77,-206.06 98.4,-196.1 89.35,-201.62 94.77,-206.06"/>
<g id="a_edge8&#45;headlabel"><a xlink:href="dir_000171_000170.html" target="_top" xlink:title="9">
<text text-anchor="middle" x="94.68" y="-208.14" font-family="Helvetica,sans-Serif" font-size="10.00">9</text>
</a>
</g>
</g>
<!-- dir_70f98bb657cca0a872199855cac08757&#45;&gt;dir_6da2b5da699b6e8099c18b866a052d71 -->
<g id="edge5" class="edge">
<title>dir_70f98bb657cca0a872199855cac08757&#45;&gt;dir_6da2b5da699b6e8099c18b866a052d71</title>
<path fill="none" stroke="black" d="M51.04,-52.28C45.99,-62.24 39.16,-75.27 36,-88 24.34,-135.04 44.56,-190.01 57.12,-222.03"/>
<polygon fill="black" stroke="black" points="53.96,-223.55 60.88,-231.58 60.47,-220.99 53.96,-223.55"/>
<g id="a_edge5&#45;headlabel"><a xlink:href="dir_000185_000171.html" target="_top" xlink:title="12">
<text text-anchor="middle" x="50" y="-218.75" font-family="Helvetica,sans-Serif" font-size="10.00">12</text>
</a>
</g>
</g>
<!-- dir_80b24cd11685060440d77842b83d8f07&#45;&gt;dir_6da2b5da699b6e8099c18b866a052d71 -->
<g id="edge1" class="edge">
<title>dir_80b24cd11685060440d77842b83d8f07&#45;&gt;dir_6da2b5da699b6e8099c18b866a052d71</title>
<path fill="none" stroke="black" d="M71.35,-124.19C73.56,-148.42 73.22,-192.89 70.84,-221.68"/>
<polygon fill="black" stroke="black" points="67.33,-221.57 69.83,-231.87 74.3,-222.27 67.33,-221.57"/>
<g id="a_edge1&#45;headlabel"><a xlink:href="dir_000167_000171.html" target="_top" xlink:title="24">
<text text-anchor="middle" x="64.86" y="-215.22" font-family="Helvetica,sans-Serif" font-size="10.00">24</text>
</a>
</g>
</g>
<!-- dir_80b24cd11685060440d77842b83d8f07&#45;&gt;dir_70f98bb657cca0a872199855cac08757 -->
<g id="edge2" class="edge">
<title>dir_80b24cd11685060440d77842b83d8f07&#45;&gt;dir_70f98bb657cca0a872199855cac08757</title>
<path fill="none" stroke="black" d="M64.03,-87.7C62.71,-79.98 61.12,-70.71 59.65,-62.11"/>
<polygon fill="black" stroke="black" points="63.07,-61.37 57.93,-52.1 56.17,-62.55 63.07,-61.37"/>
<g id="a_edge2&#45;headlabel"><a xlink:href="dir_000167_000185.html" target="_top" xlink:title="1">
<text text-anchor="middle" x="66.48" y="-61.93" font-family="Helvetica,sans-Serif" font-size="10.00">1</text>
</a>
</g>
</g>
<!-- dir_c355b57f6366379069072c1ec6b3b5e6 -->
<g id="node4" class="node">
<title>dir_c355b57f6366379069072c1ec6b3b5e6</title>
<g id="a_node4"><a xlink:href="dir_c355b57f6366379069072c1ec6b3b5e6.html" target="_top" xlink:title="integration">
<polygon fill="none" stroke="black" points="198,-124 136,-124 136,-88 198,-88 198,-124"/>
<text text-anchor="middle" x="167" y="-103.5" font-family="Helvetica,sans-Serif" font-size="10.00">integration</text>
</a>
</g>
</g>
<!-- dir_c355b57f6366379069072c1ec6b3b5e6&#45;&gt;dir_6da2b5da699b6e8099c18b866a052d71 -->
<g id="edge3" class="edge">
<title>dir_c355b57f6366379069072c1ec6b3b5e6&#45;&gt;dir_6da2b5da699b6e8099c18b866a052d71</title>
<path fill="none" stroke="black" d="M169.91,-124.24C172.19,-143.37 172.97,-174.37 159,-196 145.84,-216.38 121.94,-229.7 101.53,-237.89"/>
<polygon fill="black" stroke="black" points="100.3,-234.62 92.16,-241.41 102.75,-241.17 100.3,-234.62"/>
<g id="a_edge3&#45;headlabel"><a xlink:href="dir_000172_000171.html" target="_top" xlink:title="8">
<text text-anchor="middle" x="102.66" y="-228.2" font-family="Helvetica,sans-Serif" font-size="10.00">8</text>
</a>
</g>
</g>
<!-- dir_c355b57f6366379069072c1ec6b3b5e6&#45;&gt;dir_9311051b33dbe6b2e08fc45590134e6c -->
<g id="edge4" class="edge">
<title>dir_c355b57f6366379069072c1ec6b3b5e6&#45;&gt;dir_9311051b33dbe6b2e08fc45590134e6c</title>
<path fill="none" stroke="black" d="M160.68,-124.1C155.63,-132.38 148.62,-142.49 141.63,-151.64"/>
<polygon fill="black" stroke="black" points="138.72,-149.68 135.28,-159.7 144.22,-154.01 138.72,-149.68"/>
<g id="a_edge4&#45;headlabel"><a xlink:href="dir_000172_000170.html" target="_top" xlink:title="1">
<text text-anchor="middle" x="138.72" y="-142.6" font-family="Helvetica,sans-Serif" font-size="10.00">1</text>
</a>
</g>
</g>
<!-- dir_9311051b33dbe6b2e08fc45590134e6c&#45;&gt;dir_6da2b5da699b6e8099c18b866a052d71 -->
<g id="edge9" class="edge">
<title>dir_9311051b33dbe6b2e08fc45590134e6c&#45;&gt;dir_6da2b5da699b6e8099c18b866a052d71</title>
<path fill="none" stroke="black" d="M110.19,-196.1C104.85,-204.47 97.46,-214.69 90.13,-223.92"/>
<polygon fill="black" stroke="black" points="87.39,-221.74 83.77,-231.7 92.81,-226.17 87.39,-221.74"/>
<g id="a_edge9&#45;headlabel"><a xlink:href="dir_000170_000171.html" target="_top" xlink:title="27">
<text text-anchor="middle" x="87.47" y="-214.66" font-family="Helvetica,sans-Serif" font-size="10.00">27</text>
</a>
</g>
</g>
<!-- dir_9311051b33dbe6b2e08fc45590134e6c&#45;&gt;dir_70f98bb657cca0a872199855cac08757 -->
<g id="edge10" class="edge">
<title>dir_9311051b33dbe6b2e08fc45590134e6c&#45;&gt;dir_70f98bb657cca0a872199855cac08757</title>
<path fill="none" stroke="black" d="M118.3,-159.7C118.97,-141.08 117.95,-111.03 107,-88 101.86,-77.2 93.61,-67.26 85.19,-58.98"/>
<polygon fill="black" stroke="black" points="87.53,-56.38 77.81,-52.15 82.77,-61.51 87.53,-56.38"/>
<g id="a_edge10&#45;headlabel"><a xlink:href="dir_000170_000185.html" target="_top" xlink:title="8">
<text text-anchor="middle" x="92.09" y="-54.23" font-family="Helvetica,sans-Serif" font-size="10.00">8</text>
</a>
</g>
</g>
<!-- dir_9311051b33dbe6b2e08fc45590134e6c&#45;&gt;dir_80b24cd11685060440d77842b83d8f07 -->
<g id="edge11" class="edge">
<title>dir_9311051b33dbe6b2e08fc45590134e6c&#45;&gt;dir_80b24cd11685060440d77842b83d8f07</title>
<path fill="none" stroke="black" d="M104.64,-159.7C98.77,-151.47 91.63,-141.48 85.16,-132.42"/>
<polygon fill="black" stroke="black" points="87.88,-130.21 79.22,-124.1 82.18,-134.28 87.88,-130.21"/>
<g id="a_edge11&#45;headlabel"><a xlink:href="dir_000170_000167.html" target="_top" xlink:title="3">
<text text-anchor="middle" x="92.28" y="-128.98" font-family="Helvetica,sans-Serif" font-size="10.00">3</text>
</a>
</g>
</g>
<!-- dir_9311051b33dbe6b2e08fc45590134e6c&#45;&gt;dir_c355b57f6366379069072c1ec6b3b5e6 -->
<g id="edge12" class="edge">
<title>dir_9311051b33dbe6b2e08fc45590134e6c&#45;&gt;dir_c355b57f6366379069072c1ec6b3b5e6</title>
<path fill="none" stroke="black" d="M123.44,-159.7C128.52,-151.39 135.55,-141.28 142.54,-132.14"/>
<polygon fill="black" stroke="black" points="145.43,-134.12 148.89,-124.1 139.94,-129.78 145.43,-134.12"/>
<g id="a_edge12&#45;headlabel"><a xlink:href="dir_000170_000172.html" target="_top" xlink:title="46">
<text text-anchor="middle" x="145.43" y="-136.2" font-family="Helvetica,sans-Serif" font-size="10.00">46</text>
</a>
</g>
</g>
</g>
</svg>
