<?xml version="1.0" encoding="UTF-8" standalone="no"?>
<!DOCTYPE svg PUBLIC "-//W3C//DTD SVG 1.1//EN"
 "http://www.w3.org/Graphics/SVG/1.1/DTD/svg11.dtd">
<!-- Generated by graphviz version 2.48.0 (20210719.0153)
 -->
<!-- Title: /github/workspace/applications/ExternalSolversApplication/custom_python Pages: 1 -->
<svg width="156pt" height="223pt"
 viewBox="0.00 0.00 156.00 223.00" xmlns="http://www.w3.org/2000/svg" xmlns:xlink="http://www.w3.org/1999/xlink">
<g id="graph0" class="graph" transform="scale(1 1) rotate(0) translate(4 219)">
<title>/github/workspace/applications/ExternalSolversApplication/custom_python</title>
<g id="clust1" class="cluster">
<title>clusterdir_6566e293fc719a78ee3fe7f77578c5de</title>
<g id="a_clust1"><a xlink:href="dir_6566e293fc719a78ee3fe7f77578c5de.html" target="_top" xlink:title="ExternalSolversApplication">
<polygon fill="#ddddee" stroke="black" points="8,-64 8,-207 140,-207 140,-64 8,-64"/>
<text text-anchor="middle" x="74" y="-195" font-family="Helvetica,sans-Serif" font-size="10.00">ExternalSolversApplication</text>
</a>
</g>
</g>
<!-- dir_15641bd6738b249a846e39c4000a33d4 -->
<g id="node1" class="node">
<title>dir_15641bd6738b249a846e39c4000a33d4</title>
<g id="a_node1"><a xlink:href="dir_15641bd6738b249a846e39c4000a33d4.html" target="_top" xlink:title="external_includes">
<polygon fill="none" stroke="red" points="120,-108 28,-108 28,-72 120,-72 120,-108"/>
<text text-anchor="middle" x="74" y="-87.5" font-family="Helvetica,sans-Serif" font-size="10.00">external_includes</text>
</a>
</g>
</g>
<!-- dir_8fc3e8efef0bfca4a113d719cbd52afb -->
<g id="node3" class="node">
<title>dir_8fc3e8efef0bfca4a113d719cbd52afb</title>
<g id="a_node3"><a xlink:href="dir_8fc3e8efef0bfca4a113d719cbd52afb.html" target="_top" xlink:title="kratos">
<polygon fill="none" stroke="red" points="138,-36 84,-36 84,0 138,0 138,-36"/>
<text text-anchor="middle" x="111" y="-15.5" font-family="Helvetica,sans-Serif" font-size="10.00">kratos</text>
</a>
</g>
</g>
<!-- dir_15641bd6738b249a846e39c4000a33d4&#45;&gt;dir_8fc3e8efef0bfca4a113d719cbd52afb -->
<g id="edge1" class="edge">
<title>dir_15641bd6738b249a846e39c4000a33d4&#45;&gt;dir_8fc3e8efef0bfca4a113d719cbd52afb</title>
<path fill="none" stroke="black" d="M83.15,-71.7C87.4,-63.64 92.56,-53.89 97.27,-44.98"/>
<polygon fill="black" stroke="black" points="100.38,-46.58 101.96,-36.1 94.19,-43.31 100.38,-46.58"/>
<g id="a_edge1&#45;headlabel"><a xlink:href="dir_000043_000166.html" target="_top" xlink:title="10">
<text text-anchor="middle" x="101.21" y="-48.59" font-family="Helvetica,sans-Serif" font-size="10.00">10</text>
</a>
</g>
</g>
<!-- dir_36dbaf3f6fd601ec70a01050ec48dc4e -->
<g id="node2" class="node">
<title>dir_36dbaf3f6fd601ec70a01050ec48dc4e</title>
<g id="a_node2"><a xlink:href="dir_36dbaf3f6fd601ec70a01050ec48dc4e.html" target="_top" xlink:title="custom_python">
<polygon fill="#eeeeff" stroke="black" points="123.5,-180 40.5,-180 40.5,-144 123.5,-144 123.5,-180"/>
<text text-anchor="middle" x="82" y="-159.5" font-family="Helvetica,sans-Serif" font-size="10.00">custom_python</text>
</a>
</g>
</g>
<!-- dir_36dbaf3f6fd601ec70a01050ec48dc4e&#45;&gt;dir_15641bd6738b249a846e39c4000a33d4 -->
<g id="edge2" class="edge">
<title>dir_36dbaf3f6fd601ec70a01050ec48dc4e&#45;&gt;dir_15641bd6738b249a846e39c4000a33d4</title>
<path fill="none" stroke="black" d="M80.02,-143.7C79.14,-135.98 78.08,-126.71 77.1,-118.11"/>
<polygon fill="black" stroke="black" points="80.57,-117.64 75.95,-108.1 73.61,-118.44 80.57,-117.64"/>
<g id="a_edge2&#45;headlabel"><a xlink:href="dir_000042_000043.html" target="_top" xlink:title="2">
<text text-anchor="middle" x="83.8" y="-118.39" font-family="Helvetica,sans-Serif" font-size="10.00">2</text>
</a>
</g>
</g>
<!-- dir_36dbaf3f6fd601ec70a01050ec48dc4e&#45;&gt;dir_8fc3e8efef0bfca4a113d719cbd52afb -->
<g id="edge3" class="edge">
<title>dir_36dbaf3f6fd601ec70a01050ec48dc4e&#45;&gt;dir_8fc3e8efef0bfca4a113d719cbd52afb</title>
<path fill="none" stroke="black" d="M103.27,-143.7C113.11,-134.31 123.76,-121.8 129,-108 136.69,-87.73 130.93,-63.55 123.94,-45.52"/>
<polygon fill="black" stroke="black" points="127.12,-44.05 120.01,-36.19 120.67,-46.77 127.12,-44.05"/>
<g id="a_edge3&#45;headlabel"><a xlink:href="dir_000042_000166.html" target="_top" xlink:title="7">
<text text-anchor="middle" x="131.13" y="-43.76" font-family="Helvetica,sans-Serif" font-size="10.00">7</text>
</a>
</g>
</g>
</g>
</svg>
