<?xml version="1.0" encoding="UTF-8" standalone="no"?>
<!DOCTYPE svg PUBLIC "-//W3C//DTD SVG 1.1//EN"
 "http://www.w3.org/Graphics/SVG/1.1/DTD/svg11.dtd">
<!-- Generated by graphviz version 2.48.0 (20210719.0153)
 -->
<!-- Title: /github/workspace/applications/PFEMapplication/custom_python Pages: 1 -->
<svg width="243pt" height="223pt"
 viewBox="0.00 0.00 243.00 223.00" xmlns="http://www.w3.org/2000/svg" xmlns:xlink="http://www.w3.org/1999/xlink">
<g id="graph0" class="graph" transform="scale(1 1) rotate(0) translate(4 219)">
<title>/github/workspace/applications/PFEMapplication/custom_python</title>
<g id="clust1" class="cluster">
<title>clusterdir_a720844cb03fe2f2299517836427bf6b</title>
<g id="a_clust1"><a xlink:href="dir_a720844cb03fe2f2299517836427bf6b.html" target="_top" xlink:title="PFEMapplication">
<polygon fill="#ddddee" stroke="black" points="8,-64 8,-207 227,-207 227,-64 8,-64"/>
<text text-anchor="middle" x="117.5" y="-195" font-family="Helvetica,sans-Serif" font-size="10.00">PFEMapplication</text>
</a>
</g>
</g>
<!-- dir_2175caaa5fbe94dce57085835af85825 -->
<g id="node1" class="node">
<title>dir_2175caaa5fbe94dce57085835af85825</title>
<g id="a_node1"><a xlink:href="dir_2175caaa5fbe94dce57085835af85825.html" target="_top" xlink:title="custom_processes">
<polygon fill="none" stroke="black" points="115.5,-108 16.5,-108 16.5,-72 115.5,-72 115.5,-108"/>
<text text-anchor="middle" x="66" y="-87.5" font-family="Helvetica,sans-Serif" font-size="10.00">custom_processes</text>
</a>
</g>
</g>
<!-- dir_8fc3e8efef0bfca4a113d719cbd52afb -->
<g id="node4" class="node">
<title>dir_8fc3e8efef0bfca4a113d719cbd52afb</title>
<g id="a_node4"><a xlink:href="dir_8fc3e8efef0bfca4a113d719cbd52afb.html" target="_top" xlink:title="kratos">
<polygon fill="none" stroke="red" points="203,-36 149,-36 149,0 203,0 203,-36"/>
<text text-anchor="middle" x="176" y="-15.5" font-family="Helvetica,sans-Serif" font-size="10.00">kratos</text>
</a>
</g>
</g>
<!-- dir_2175caaa5fbe94dce57085835af85825&#45;&gt;dir_8fc3e8efef0bfca4a113d719cbd52afb -->
<g id="edge4" class="edge">
<title>dir_2175caaa5fbe94dce57085835af85825&#45;&gt;dir_8fc3e8efef0bfca4a113d719cbd52afb</title>
<path fill="none" stroke="black" d="M92.91,-71.88C107.16,-62.81 124.85,-51.55 140.24,-41.76"/>
<polygon fill="black" stroke="black" points="142.43,-44.51 148.99,-36.19 138.67,-38.61 142.43,-44.51"/>
<g id="a_edge4&#45;headlabel"><a xlink:href="dir_000126_000166.html" target="_top" xlink:title="53">
<text text-anchor="middle" x="140.92" y="-46.34" font-family="Helvetica,sans-Serif" font-size="10.00">53</text>
</a>
</g>
</g>
<!-- dir_d4ed7bb54a8d7012b3fc44d06caeefba -->
<g id="node2" class="node">
<title>dir_d4ed7bb54a8d7012b3fc44d06caeefba</title>
<g id="a_node2"><a xlink:href="dir_d4ed7bb54a8d7012b3fc44d06caeefba.html" target="_top" xlink:title="custom_utilities">
<polygon fill="none" stroke="black" points="218.5,-108 133.5,-108 133.5,-72 218.5,-72 218.5,-108"/>
<text text-anchor="middle" x="176" y="-87.5" font-family="Helvetica,sans-Serif" font-size="10.00">custom_utilities</text>
</a>
</g>
</g>
<!-- dir_d4ed7bb54a8d7012b3fc44d06caeefba&#45;&gt;dir_8fc3e8efef0bfca4a113d719cbd52afb -->
<g id="edge5" class="edge">
<title>dir_d4ed7bb54a8d7012b3fc44d06caeefba&#45;&gt;dir_8fc3e8efef0bfca4a113d719cbd52afb</title>
<path fill="none" stroke="black" d="M176,-71.7C176,-63.98 176,-54.71 176,-46.11"/>
<polygon fill="black" stroke="black" points="179.5,-46.1 176,-36.1 172.5,-46.1 179.5,-46.1"/>
<g id="a_edge5&#45;headlabel"><a xlink:href="dir_000127_000166.html" target="_top" xlink:title="27">
<text text-anchor="middle" x="182.34" y="-47.2" font-family="Helvetica,sans-Serif" font-size="10.00">27</text>
</a>
</g>
</g>
<!-- dir_a0761053d92e9f53cf43ec11f65a8b02 -->
<g id="node3" class="node">
<title>dir_a0761053d92e9f53cf43ec11f65a8b02</title>
<g id="a_node3"><a xlink:href="dir_a0761053d92e9f53cf43ec11f65a8b02.html" target="_top" xlink:title="custom_python">
<polygon fill="#eeeeff" stroke="black" points="217.5,-180 134.5,-180 134.5,-144 217.5,-144 217.5,-180"/>
<text text-anchor="middle" x="176" y="-159.5" font-family="Helvetica,sans-Serif" font-size="10.00">custom_python</text>
</a>
</g>
</g>
<!-- dir_a0761053d92e9f53cf43ec11f65a8b02&#45;&gt;dir_2175caaa5fbe94dce57085835af85825 -->
<g id="edge1" class="edge">
<title>dir_a0761053d92e9f53cf43ec11f65a8b02&#45;&gt;dir_2175caaa5fbe94dce57085835af85825</title>
<path fill="none" stroke="black" d="M149.09,-143.88C134.84,-134.81 117.15,-123.55 101.76,-113.76"/>
<polygon fill="black" stroke="black" points="103.33,-110.61 93.01,-108.19 99.57,-116.51 103.33,-110.61"/>
<g id="a_edge1&#45;headlabel"><a xlink:href="dir_000017_000126.html" target="_top" xlink:title="3">
<text text-anchor="middle" x="107.89" y="-107.64" font-family="Helvetica,sans-Serif" font-size="10.00">3</text>
</a>
</g>
</g>
<!-- dir_a0761053d92e9f53cf43ec11f65a8b02&#45;&gt;dir_d4ed7bb54a8d7012b3fc44d06caeefba -->
<g id="edge3" class="edge">
<title>dir_a0761053d92e9f53cf43ec11f65a8b02&#45;&gt;dir_d4ed7bb54a8d7012b3fc44d06caeefba</title>
<path fill="none" stroke="black" d="M176,-143.7C176,-135.98 176,-126.71 176,-118.11"/>
<polygon fill="black" stroke="black" points="179.5,-118.1 176,-108.1 172.5,-118.1 179.5,-118.1"/>
<g id="a_edge3&#45;headlabel"><a xlink:href="dir_000017_000127.html" target="_top" xlink:title="5">
<text text-anchor="middle" x="182.34" y="-119.2" font-family="Helvetica,sans-Serif" font-size="10.00">5</text>
</a>
</g>
</g>
<!-- dir_a0761053d92e9f53cf43ec11f65a8b02&#45;&gt;dir_8fc3e8efef0bfca4a113d719cbd52afb -->
<g id="edge2" class="edge">
<title>dir_a0761053d92e9f53cf43ec11f65a8b02&#45;&gt;dir_8fc3e8efef0bfca4a113d719cbd52afb</title>
<path fill="none" stroke="black" d="M199.75,-143.91C210.55,-134.65 222.2,-122.2 228,-108 235.4,-89.9 236.13,-81.79 228,-64 224.22,-55.73 218.08,-48.39 211.33,-42.17"/>
<polygon fill="black" stroke="black" points="213.13,-39.12 203.22,-35.39 208.64,-44.49 213.13,-39.12"/>
<g id="a_edge2&#45;headlabel"><a xlink:href="dir_000017_000166.html" target="_top" xlink:title="12">
<text text-anchor="middle" x="217.71" y="-36.75" font-family="Helvetica,sans-Serif" font-size="10.00">12</text>
</a>
</g>
</g>
</g>
</svg>
