<?xml version="1.0" encoding="UTF-8" standalone="no"?>
<!DOCTYPE svg PUBLIC "-//W3C//DTD SVG 1.1//EN"
 "http://www.w3.org/Graphics/SVG/1.1/DTD/svg11.dtd">
<!-- Generated by graphviz version 2.48.0 (20210719.0153)
 -->
<!-- Title: /github/workspace/kratos/solving_strategies Pages: 1 -->
<svg width="424pt" height="391pt"
 viewBox="0.00 0.00 424.00 391.00" xmlns="http://www.w3.org/2000/svg" xmlns:xlink="http://www.w3.org/1999/xlink">
<g id="graph0" class="graph" transform="scale(1 1) rotate(0) translate(4 387)">
<title>/github/workspace/kratos/solving_strategies</title>
<g id="clust1" class="cluster">
<title>clusterdir_8fc3e8efef0bfca4a113d719cbd52afb</title>
<g id="a_clust1"><a xlink:href="dir_8fc3e8efef0bfca4a113d719cbd52afb.html" target="_top" xlink:title="kratos">
<polygon fill="#ddddee" stroke="black" points="8,-8 8,-375 408,-375 408,-8 8,-8"/>
<text text-anchor="middle" x="208" y="-363" font-family="Helvetica,sans-Serif" font-size="10.00">kratos</text>
</a>
</g>
</g>
<g id="clust2" class="cluster">
<title>clusterdir_fdea7736ef62293a5901d28bce787dd1</title>
<g id="a_clust2"><a xlink:href="dir_fdea7736ef62293a5901d28bce787dd1.html" target="_top">
<polygon fill="#eeeeff" stroke="black" points="122,-152 122,-348 387,-348 387,-152 122,-152"/>
</a>
</g>
</g>
<!-- dir_0f2a41a65b424fb18d66414e7dff174e -->
<g id="node1" class="node">
<title>dir_0f2a41a65b424fb18d66414e7dff174e</title>
<g id="a_node1"><a xlink:href="dir_0f2a41a65b424fb18d66414e7dff174e.html" target="_top" xlink:title="linear_solvers">
<polygon fill="none" stroke="black" points="113.5,-196 36.5,-196 36.5,-160 113.5,-160 113.5,-196"/>
<text text-anchor="middle" x="75" y="-175.5" font-family="Helvetica,sans-Serif" font-size="10.00">linear_solvers</text>
</a>
</g>
</g>
<!-- dir_6da2b5da699b6e8099c18b866a052d71 -->
<g id="node2" class="node">
<title>dir_6da2b5da699b6e8099c18b866a052d71</title>
<g id="a_node2"><a xlink:href="dir_6da2b5da699b6e8099c18b866a052d71.html" target="_top" xlink:title="includes">
<polygon fill="none" stroke="black" points="198,-124 144,-124 144,-88 198,-88 198,-124"/>
<text text-anchor="middle" x="171" y="-103.5" font-family="Helvetica,sans-Serif" font-size="10.00">includes</text>
</a>
</g>
</g>
<!-- dir_0f2a41a65b424fb18d66414e7dff174e&#45;&gt;dir_6da2b5da699b6e8099c18b866a052d71 -->
<g id="edge2" class="edge">
<title>dir_0f2a41a65b424fb18d66414e7dff174e&#45;&gt;dir_6da2b5da699b6e8099c18b866a052d71</title>
<path fill="none" stroke="black" d="M98.73,-159.7C110.94,-150.8 125.99,-139.82 139.18,-130.2"/>
<polygon fill="black" stroke="black" points="141.52,-132.82 147.54,-124.1 137.4,-127.17 141.52,-132.82"/>
<g id="a_edge2&#45;headlabel"><a xlink:href="dir_000173_000171.html" target="_top" xlink:title="17">
<text text-anchor="middle" x="140.29" y="-134.74" font-family="Helvetica,sans-Serif" font-size="10.00">17</text>
</a>
</g>
</g>
<!-- dir_70f98bb657cca0a872199855cac08757 -->
<g id="node3" class="node">
<title>dir_70f98bb657cca0a872199855cac08757</title>
<g id="a_node3"><a xlink:href="dir_70f98bb657cca0a872199855cac08757.html" target="_top" xlink:title="utilities">
<polygon fill="none" stroke="black" points="169,-52 115,-52 115,-16 169,-16 169,-52"/>
<text text-anchor="middle" x="142" y="-31.5" font-family="Helvetica,sans-Serif" font-size="10.00">utilities</text>
</a>
</g>
</g>
<!-- dir_0f2a41a65b424fb18d66414e7dff174e&#45;&gt;dir_70f98bb657cca0a872199855cac08757 -->
<g id="edge3" class="edge">
<title>dir_0f2a41a65b424fb18d66414e7dff174e&#45;&gt;dir_70f98bb657cca0a872199855cac08757</title>
<path fill="none" stroke="black" d="M83.08,-159.87C94.65,-135.35 116.03,-90.03 129.61,-61.26"/>
<polygon fill="black" stroke="black" points="132.79,-62.73 133.89,-52.19 126.46,-59.74 132.79,-62.73"/>
<g id="a_edge3&#45;headlabel"><a xlink:href="dir_000173_000185.html" target="_top" xlink:title="1">
<text text-anchor="middle" x="133.82" y="-64.69" font-family="Helvetica,sans-Serif" font-size="10.00">1</text>
</a>
</g>
</g>
<!-- dir_6da2b5da699b6e8099c18b866a052d71&#45;&gt;dir_70f98bb657cca0a872199855cac08757 -->
<g id="edge13" class="edge">
<title>dir_6da2b5da699b6e8099c18b866a052d71&#45;&gt;dir_70f98bb657cca0a872199855cac08757</title>
<path fill="none" stroke="black" d="M157.92,-87.7C153.88,-79.9 149.77,-70.51 146.53,-61.83"/>
<polygon fill="black" stroke="black" points="149.75,-60.43 143.19,-52.1 143.13,-62.7 149.75,-60.43"/>
<g id="a_edge13&#45;headlabel"><a xlink:href="dir_000171_000185.html" target="_top" xlink:title="5">
<text text-anchor="middle" x="153.6" y="-60.4" font-family="Helvetica,sans-Serif" font-size="10.00">5</text>
</a>
</g>
</g>
<!-- dir_70f98bb657cca0a872199855cac08757&#45;&gt;dir_6da2b5da699b6e8099c18b866a052d71 -->
<g id="edge8" class="edge">
<title>dir_70f98bb657cca0a872199855cac08757&#45;&gt;dir_6da2b5da699b6e8099c18b866a052d71</title>
<path fill="none" stroke="black" d="M154.98,-52.1C159.06,-59.96 163.22,-69.46 166.49,-78.23"/>
<polygon fill="black" stroke="black" points="163.18,-79.38 169.75,-87.7 169.8,-77.1 163.18,-79.38"/>
<g id="a_edge8&#45;headlabel"><a xlink:href="dir_000185_000171.html" target="_top" xlink:title="12">
<text text-anchor="middle" x="159.33" y="-74.4" font-family="Helvetica,sans-Serif" font-size="10.00">12</text>
</a>
</g>
</g>
<!-- dir_fdea7736ef62293a5901d28bce787dd1 -->
<g id="node4" class="node">
<title>dir_fdea7736ef62293a5901d28bce787dd1</title>
<text text-anchor="middle" x="331" y="-319.5" font-family="Helvetica,sans-Serif" font-size="10.00">solving_strategies</text>
</g>
<!-- dir_84722a22f804f3734a04c6a9d1859e65 -->
<g id="node5" class="node">
<title>dir_84722a22f804f3734a04c6a9d1859e65</title>
<g id="a_node5"><a xlink:href="dir_84722a22f804f3734a04c6a9d1859e65.html" target="_top" xlink:title="builder_and_solvers">
<polygon fill="white" stroke="black" points="233.5,-268 130.5,-268 130.5,-232 233.5,-232 233.5,-268"/>
<text text-anchor="middle" x="182" y="-247.5" font-family="Helvetica,sans-Serif" font-size="10.00">builder_and_solvers</text>
</a>
</g>
</g>
<!-- dir_84722a22f804f3734a04c6a9d1859e65&#45;&gt;dir_0f2a41a65b424fb18d66414e7dff174e -->
<g id="edge4" class="edge">
<title>dir_84722a22f804f3734a04c6a9d1859e65&#45;&gt;dir_0f2a41a65b424fb18d66414e7dff174e</title>
<path fill="none" stroke="black" d="M155.82,-231.88C141.96,-222.81 124.76,-211.55 109.79,-201.76"/>
<polygon fill="black" stroke="black" points="111.56,-198.74 101.28,-196.19 107.73,-204.59 111.56,-198.74"/>
<g id="a_edge4&#45;headlabel"><a xlink:href="dir_000178_000173.html" target="_top" xlink:title="1">
<text text-anchor="middle" x="116.12" y="-195.83" font-family="Helvetica,sans-Serif" font-size="10.00">1</text>
</a>
</g>
</g>
<!-- dir_84722a22f804f3734a04c6a9d1859e65&#45;&gt;dir_6da2b5da699b6e8099c18b866a052d71 -->
<g id="edge5" class="edge">
<title>dir_84722a22f804f3734a04c6a9d1859e65&#45;&gt;dir_6da2b5da699b6e8099c18b866a052d71</title>
<path fill="none" stroke="black" d="M193.05,-231.61C198.74,-221.62 205.08,-208.58 208,-196 212.42,-176.95 214.6,-170.41 208,-152 205.47,-144.93 201.29,-138.18 196.64,-132.15"/>
<polygon fill="black" stroke="black" points="199.23,-129.8 190.11,-124.42 193.89,-134.32 199.23,-129.8"/>
<g id="a_edge5&#45;headlabel"><a xlink:href="dir_000178_000171.html" target="_top" xlink:title="5">
<text text-anchor="middle" x="203.72" y="-128.21" font-family="Helvetica,sans-Serif" font-size="10.00">5</text>
</a>
</g>
</g>
<!-- dir_84722a22f804f3734a04c6a9d1859e65&#45;&gt;dir_70f98bb657cca0a872199855cac08757 -->
<g id="edge6" class="edge">
<title>dir_84722a22f804f3734a04c6a9d1859e65&#45;&gt;dir_70f98bb657cca0a872199855cac08757</title>
<path fill="none" stroke="black" d="M130.38,-246.27C94.97,-241.39 50.32,-228.62 27,-196 -8.47,-146.39 60.58,-88.14 106.23,-57.11"/>
<polygon fill="black" stroke="black" points="108.34,-59.91 114.73,-51.46 104.47,-54.08 108.34,-59.91"/>
<g id="a_edge6&#45;headlabel"><a xlink:href="dir_000178_000185.html" target="_top" xlink:title="1">
<text text-anchor="middle" x="106.92" y="-61.76" font-family="Helvetica,sans-Serif" font-size="10.00">1</text>
</a>
</g>
</g>
<!-- dir_a57845194016cdf310b01d0839f73000 -->
<g id="node7" class="node">
<title>dir_a57845194016cdf310b01d0839f73000</title>
<g id="a_node7"><a xlink:href="dir_a57845194016cdf310b01d0839f73000.html" target="_top" xlink:title="schemes">
<polygon fill="white" stroke="black" points="199,-196 143,-196 143,-160 199,-160 199,-196"/>
<text text-anchor="middle" x="171" y="-175.5" font-family="Helvetica,sans-Serif" font-size="10.00">schemes</text>
</a>
</g>
</g>
<!-- dir_84722a22f804f3734a04c6a9d1859e65&#45;&gt;dir_a57845194016cdf310b01d0839f73000 -->
<g id="edge7" class="edge">
<title>dir_84722a22f804f3734a04c6a9d1859e65&#45;&gt;dir_a57845194016cdf310b01d0839f73000</title>
<path fill="none" stroke="black" d="M179.28,-231.7C178.07,-223.98 176.61,-214.71 175.26,-206.11"/>
<polygon fill="black" stroke="black" points="178.7,-205.44 173.69,-196.1 171.78,-206.53 178.7,-205.44"/>
<g id="a_edge7&#45;headlabel"><a xlink:href="dir_000178_000181.html" target="_top" xlink:title="1">
<text text-anchor="middle" x="182.06" y="-206.05" font-family="Helvetica,sans-Serif" font-size="10.00">1</text>
</a>
</g>
</g>
<!-- dir_f6ed064e7e71983d02a1b567e955ecf8 -->
<g id="node6" class="node">
<title>dir_f6ed064e7e71983d02a1b567e955ecf8</title>
<g id="a_node6"><a xlink:href="dir_f6ed064e7e71983d02a1b567e955ecf8.html" target="_top" xlink:title="convergencecriterias">
<polygon fill="white" stroke="black" points="379.5,-268 272.5,-268 272.5,-232 379.5,-232 379.5,-268"/>
<text text-anchor="middle" x="326" y="-247.5" font-family="Helvetica,sans-Serif" font-size="10.00">convergencecriterias</text>
</a>
</g>
</g>
<!-- dir_f6ed064e7e71983d02a1b567e955ecf8&#45;&gt;dir_6da2b5da699b6e8099c18b866a052d71 -->
<g id="edge1" class="edge">
<title>dir_f6ed064e7e71983d02a1b567e955ecf8&#45;&gt;dir_6da2b5da699b6e8099c18b866a052d71</title>
<path fill="none" stroke="black" d="M307.3,-231.87C279.84,-206.71 228.47,-159.65 197.24,-131.04"/>
<polygon fill="black" stroke="black" points="199.5,-128.36 189.76,-124.19 194.77,-133.53 199.5,-128.36"/>
<g id="a_edge1&#45;headlabel"><a xlink:href="dir_000179_000171.html" target="_top" xlink:title="9">
<text text-anchor="middle" x="204.07" y="-126.2" font-family="Helvetica,sans-Serif" font-size="10.00">9</text>
</a>
</g>
</g>
<!-- dir_a57845194016cdf310b01d0839f73000&#45;&gt;dir_6da2b5da699b6e8099c18b866a052d71 -->
<g id="edge14" class="edge">
<title>dir_a57845194016cdf310b01d0839f73000&#45;&gt;dir_6da2b5da699b6e8099c18b866a052d71</title>
<path fill="none" stroke="black" d="M171,-159.7C171,-151.98 171,-142.71 171,-134.11"/>
<polygon fill="black" stroke="black" points="174.5,-134.1 171,-124.1 167.5,-134.1 174.5,-134.1"/>
<g id="a_edge14&#45;headlabel"><a xlink:href="dir_000181_000171.html" target="_top" xlink:title="6">
<text text-anchor="middle" x="177.34" y="-135.2" font-family="Helvetica,sans-Serif" font-size="10.00">6</text>
</a>
</g>
</g>
<!-- dir_f3fa20d41003b2417d39e1b01b1098a5 -->
<g id="node8" class="node">
<title>dir_f3fa20d41003b2417d39e1b01b1098a5</title>
<g id="a_node8"><a xlink:href="dir_f3fa20d41003b2417d39e1b01b1098a5.html" target="_top" xlink:title="strategies">
<polygon fill="white" stroke="black" points="265.5,-340 206.5,-340 206.5,-304 265.5,-304 265.5,-340"/>
<text text-anchor="middle" x="236" y="-319.5" font-family="Helvetica,sans-Serif" font-size="10.00">strategies</text>
</a>
</g>
</g>
<!-- dir_f3fa20d41003b2417d39e1b01b1098a5&#45;&gt;dir_6da2b5da699b6e8099c18b866a052d71 -->
<g id="edge9" class="edge">
<title>dir_f3fa20d41003b2417d39e1b01b1098a5&#45;&gt;dir_6da2b5da699b6e8099c18b866a052d71</title>
<path fill="none" stroke="black" d="M265.68,-307.68C268.81,-306.39 271.96,-305.14 275,-304 324.76,-285.36 357.59,-310.86 389,-268 398.46,-255.09 397.01,-245.85 389,-232 350,-164.55 259.31,-130.37 208.04,-115.87"/>
<polygon fill="black" stroke="black" points="208.91,-112.48 198.34,-113.23 207.07,-119.24 208.91,-112.48"/>
<g id="a_edge9&#45;headlabel"><a xlink:href="dir_000182_000171.html" target="_top" xlink:title="5">
<text text-anchor="middle" x="213.12" y="-108.19" font-family="Helvetica,sans-Serif" font-size="10.00">5</text>
</a>
</g>
</g>
<!-- dir_f3fa20d41003b2417d39e1b01b1098a5&#45;&gt;dir_84722a22f804f3734a04c6a9d1859e65 -->
<g id="edge10" class="edge">
<title>dir_f3fa20d41003b2417d39e1b01b1098a5&#45;&gt;dir_84722a22f804f3734a04c6a9d1859e65</title>
<path fill="none" stroke="black" d="M222.65,-303.7C216.24,-295.39 208.44,-285.28 201.39,-276.14"/>
<polygon fill="black" stroke="black" points="204.07,-273.88 195.19,-268.1 198.53,-278.16 204.07,-273.88"/>
<g id="a_edge10&#45;headlabel"><a xlink:href="dir_000182_000178.html" target="_top" xlink:title="4">
<text text-anchor="middle" x="208.52" y="-272.5" font-family="Helvetica,sans-Serif" font-size="10.00">4</text>
</a>
</g>
</g>
<!-- dir_f3fa20d41003b2417d39e1b01b1098a5&#45;&gt;dir_f6ed064e7e71983d02a1b567e955ecf8 -->
<g id="edge12" class="edge">
<title>dir_f3fa20d41003b2417d39e1b01b1098a5&#45;&gt;dir_f6ed064e7e71983d02a1b567e955ecf8</title>
<path fill="none" stroke="black" d="M258.25,-303.7C269.58,-294.88 283.53,-284.03 295.82,-274.47"/>
<polygon fill="black" stroke="black" points="298.26,-277.01 304.01,-268.1 293.97,-271.48 298.26,-277.01"/>
<g id="a_edge12&#45;headlabel"><a xlink:href="dir_000182_000179.html" target="_top" xlink:title="1">
<text text-anchor="middle" x="297.17" y="-278.95" font-family="Helvetica,sans-Serif" font-size="10.00">1</text>
</a>
</g>
</g>
<!-- dir_f3fa20d41003b2417d39e1b01b1098a5&#45;&gt;dir_a57845194016cdf310b01d0839f73000 -->
<g id="edge11" class="edge">
<title>dir_f3fa20d41003b2417d39e1b01b1098a5&#45;&gt;dir_a57845194016cdf310b01d0839f73000</title>
<path fill="none" stroke="black" d="M242.08,-303.92C247.65,-285.21 253.45,-254.84 242,-232 237.96,-223.94 222.72,-212.14 207.39,-201.72"/>
<polygon fill="black" stroke="black" points="209.2,-198.72 198.93,-196.1 205.33,-204.55 209.2,-198.72"/>
<g id="a_edge11&#45;headlabel"><a xlink:href="dir_000182_000181.html" target="_top" xlink:title="1">
<text text-anchor="middle" x="213.76" y="-195.84" font-family="Helvetica,sans-Serif" font-size="10.00">1</text>
</a>
</g>
</g>
</g>
</svg>
