<?xml version="1.0" encoding="UTF-8" standalone="no"?>
<!DOCTYPE svg PUBLIC "-//W3C//DTD SVG 1.1//EN"
 "http://www.w3.org/Graphics/SVG/1.1/DTD/svg11.dtd">
<!-- Generated by graphviz version 2.48.0 (20210719.0153)
 -->
<!-- Title: /github/workspace/kratos/containers Pages: 1 -->
<svg width="122pt" height="239pt"
 viewBox="0.00 0.00 122.00 239.00" xmlns="http://www.w3.org/2000/svg" xmlns:xlink="http://www.w3.org/1999/xlink">
<g id="graph0" class="graph" transform="scale(1 1) rotate(0) translate(4 235)">
<title>/github/workspace/kratos/containers</title>
<g id="clust1" class="cluster">
<title>clusterdir_8fc3e8efef0bfca4a113d719cbd52afb</title>
<g id="a_clust1"><a xlink:href="dir_8fc3e8efef0bfca4a113d719cbd52afb.html" target="_top" xlink:title="kratos">
<polygon fill="#ddddee" stroke="black" points="8,-8 8,-223 106,-223 106,-8 8,-8"/>
<text text-anchor="middle" x="57" y="-211" font-family="Helvetica,sans-Serif" font-size="10.00">kratos</text>
</a>
</g>
</g>
<!-- dir_6da2b5da699b6e8099c18b866a052d71 -->
<g id="node1" class="node">
<title>dir_6da2b5da699b6e8099c18b866a052d71</title>
<g id="a_node1"><a xlink:href="dir_6da2b5da699b6e8099c18b866a052d71.html" target="_top" xlink:title="includes">
<polygon fill="none" stroke="black" points="82,-196 28,-196 28,-160 82,-160 82,-196"/>
<text text-anchor="middle" x="55" y="-175.5" font-family="Helvetica,sans-Serif" font-size="10.00">includes</text>
</a>
</g>
</g>
<!-- dir_70f98bb657cca0a872199855cac08757 -->
<g id="node2" class="node">
<title>dir_70f98bb657cca0a872199855cac08757</title>
<g id="a_node2"><a xlink:href="dir_70f98bb657cca0a872199855cac08757.html" target="_top" xlink:title="utilities">
<polygon fill="none" stroke="black" points="70,-52 16,-52 16,-16 70,-16 70,-52"/>
<text text-anchor="middle" x="43" y="-31.5" font-family="Helvetica,sans-Serif" font-size="10.00">utilities</text>
</a>
</g>
</g>
<!-- dir_6da2b5da699b6e8099c18b866a052d71&#45;&gt;dir_70f98bb657cca0a872199855cac08757 -->
<g id="edge4" class="edge">
<title>dir_6da2b5da699b6e8099c18b866a052d71&#45;&gt;dir_70f98bb657cca0a872199855cac08757</title>
<path fill="none" stroke="black" d="M35.19,-159.72C27.99,-149.76 21.16,-136.73 18,-124 12.84,-103.17 17.75,-79.21 24.82,-61.4"/>
<polygon fill="black" stroke="black" points="28.05,-62.76 28.92,-52.2 21.65,-59.91 28.05,-62.76"/>
<g id="a_edge4&#45;headlabel"><a xlink:href="dir_000171_000185.html" target="_top" xlink:title="5">
<text text-anchor="middle" x="29.18" y="-64.7" font-family="Helvetica,sans-Serif" font-size="10.00">5</text>
</a>
</g>
</g>
<!-- dir_80b24cd11685060440d77842b83d8f07 -->
<g id="node3" class="node">
<title>dir_80b24cd11685060440d77842b83d8f07</title>
<g id="a_node3"><a xlink:href="dir_80b24cd11685060440d77842b83d8f07.html" target="_top" xlink:title="containers">
<polygon fill="#eeeeff" stroke="black" points="98,-124 36,-124 36,-88 98,-88 98,-124"/>
<text text-anchor="middle" x="67" y="-103.5" font-family="Helvetica,sans-Serif" font-size="10.00">containers</text>
</a>
</g>
</g>
<!-- dir_6da2b5da699b6e8099c18b866a052d71&#45;&gt;dir_80b24cd11685060440d77842b83d8f07 -->
<g id="edge5" class="edge">
<title>dir_6da2b5da699b6e8099c18b866a052d71&#45;&gt;dir_80b24cd11685060440d77842b83d8f07</title>
<path fill="none" stroke="black" d="M52.05,-159.7C52.58,-151.9 53.97,-142.51 55.82,-133.83"/>
<polygon fill="black" stroke="black" points="59.22,-134.65 58.17,-124.1 52.42,-133 59.22,-134.65"/>
<g id="a_edge5&#45;headlabel"><a xlink:href="dir_000171_000167.html" target="_top" xlink:title="25">
<text text-anchor="middle" x="61.13" y="-136.31" font-family="Helvetica,sans-Serif" font-size="10.00">25</text>
</a>
</g>
</g>
<!-- dir_70f98bb657cca0a872199855cac08757&#45;&gt;dir_6da2b5da699b6e8099c18b866a052d71 -->
<g id="edge3" class="edge">
<title>dir_70f98bb657cca0a872199855cac08757&#45;&gt;dir_6da2b5da699b6e8099c18b866a052d71</title>
<path fill="none" stroke="black" d="M42.36,-52.2C37.91,-70.23 29.88,-99.31 36,-124 38.27,-133.15 42.44,-142.46 46.48,-150.67"/>
<polygon fill="black" stroke="black" points="43.41,-152.37 51.04,-159.72 49.67,-149.22 43.41,-152.37"/>
<g id="a_edge3&#45;headlabel"><a xlink:href="dir_000185_000171.html" target="_top" xlink:title="12">
<text text-anchor="middle" x="39.26" y="-147.94" font-family="Helvetica,sans-Serif" font-size="10.00">12</text>
</a>
</g>
</g>
<!-- dir_80b24cd11685060440d77842b83d8f07&#45;&gt;dir_6da2b5da699b6e8099c18b866a052d71 -->
<g id="edge1" class="edge">
<title>dir_80b24cd11685060440d77842b83d8f07&#45;&gt;dir_6da2b5da699b6e8099c18b866a052d71</title>
<path fill="none" stroke="black" d="M69.96,-124.1C69.44,-131.88 68.07,-141.26 66.23,-149.95"/>
<polygon fill="black" stroke="black" points="62.82,-149.16 63.88,-159.7 69.63,-150.79 62.82,-149.16"/>
<g id="a_edge1&#45;headlabel"><a xlink:href="dir_000167_000171.html" target="_top" xlink:title="24">
<text text-anchor="middle" x="60.9" y="-142.5" font-family="Helvetica,sans-Serif" font-size="10.00">24</text>
</a>
</g>
</g>
<!-- dir_80b24cd11685060440d77842b83d8f07&#45;&gt;dir_70f98bb657cca0a872199855cac08757 -->
<g id="edge2" class="edge">
<title>dir_80b24cd11685060440d77842b83d8f07&#45;&gt;dir_70f98bb657cca0a872199855cac08757</title>
<path fill="none" stroke="black" d="M61.07,-87.7C58.39,-79.9 55.17,-70.51 52.2,-61.83"/>
<polygon fill="black" stroke="black" points="55.42,-60.43 48.86,-52.1 48.8,-62.7 55.42,-60.43"/>
<g id="a_edge2&#45;headlabel"><a xlink:href="dir_000167_000185.html" target="_top" xlink:title="1">
<text text-anchor="middle" x="59.27" y="-60.41" font-family="Helvetica,sans-Serif" font-size="10.00">1</text>
</a>
</g>
</g>
</g>
</svg>
