<?xml version="1.0" encoding="UTF-8" standalone="no"?>
<!DOCTYPE svg PUBLIC "-//W3C//DTD SVG 1.1//EN"
 "http://www.w3.org/Graphics/SVG/1.1/DTD/svg11.dtd">
<!-- Generated by graphviz version 2.48.0 (20210719.0153)
 -->
<!-- Title: /github/workspace/applications/structural_application/custom_python Pages: 1 -->
<svg width="347pt" height="367pt"
 viewBox="0.00 0.00 346.82 367.00" xmlns="http://www.w3.org/2000/svg" xmlns:xlink="http://www.w3.org/1999/xlink">
<g id="graph0" class="graph" transform="scale(1 1) rotate(0) translate(4 363)">
<title>/github/workspace/applications/structural_application/custom_python</title>
<g id="clust1" class="cluster">
<title>clusterdir_5b6e5246a29a3ca9076f80e3c8ba35a5</title>
<g id="a_clust1"><a xlink:href="dir_5b6e5246a29a3ca9076f80e3c8ba35a5.html" target="_top" xlink:title="structural_application">
<polygon fill="#ddddee" stroke="black" points="8,-64 8,-351 293,-351 293,-64 8,-64"/>
<text text-anchor="middle" x="150.5" y="-339" font-family="Helvetica,sans-Serif" font-size="10.00">structural_application</text>
</a>
</g>
</g>
<!-- dir_1d7efcbcbf95e3ad0a9afcd427a4c832 -->
<g id="node1" class="node">
<title>dir_1d7efcbcbf95e3ad0a9afcd427a4c832</title>
<g id="a_node1"><a xlink:href="dir_1d7efcbcbf95e3ad0a9afcd427a4c832.html" target="_top" xlink:title="custom_conditions">
<polygon fill="none" stroke="black" points="264,-180 166,-180 166,-144 264,-144 264,-180"/>
<text text-anchor="middle" x="215" y="-159.5" font-family="Helvetica,sans-Serif" font-size="10.00">custom_conditions</text>
</a>
</g>
</g>
<!-- dir_532b0acf66b5d79b872e1c636a87fa36 -->
<g id="node3" class="node">
<title>dir_532b0acf66b5d79b872e1c636a87fa36</title>
<g id="a_node3"><a xlink:href="dir_532b0acf66b5d79b872e1c636a87fa36.html" target="_top" xlink:title="custom_utilities">
<polygon fill="none" stroke="black" points="164.5,-108 79.5,-108 79.5,-72 164.5,-72 164.5,-108"/>
<text text-anchor="middle" x="122" y="-87.5" font-family="Helvetica,sans-Serif" font-size="10.00">custom_utilities</text>
</a>
</g>
</g>
<!-- dir_1d7efcbcbf95e3ad0a9afcd427a4c832&#45;&gt;dir_532b0acf66b5d79b872e1c636a87fa36 -->
<g id="edge16" class="edge">
<title>dir_1d7efcbcbf95e3ad0a9afcd427a4c832&#45;&gt;dir_532b0acf66b5d79b872e1c636a87fa36</title>
<path fill="none" stroke="black" d="M186.35,-143.88C173.72,-135.06 159.09,-124.18 146.92,-114.59"/>
<polygon fill="black" stroke="black" points="148.93,-111.71 138.93,-108.19 144.55,-117.17 148.93,-111.71"/>
<g id="a_edge16&#45;headlabel"><a xlink:href="dir_000134_000141.html" target="_top" xlink:title="9">
<text text-anchor="middle" x="153.51" y="-109.24" font-family="Helvetica,sans-Serif" font-size="10.00">9</text>
</a>
</g>
</g>
<!-- dir_8fc3e8efef0bfca4a113d719cbd52afb -->
<g id="node7" class="node">
<title>dir_8fc3e8efef0bfca4a113d719cbd52afb</title>
<g id="a_node7"><a xlink:href="dir_8fc3e8efef0bfca4a113d719cbd52afb.html" target="_top" xlink:title="kratos">
<polygon fill="none" stroke="red" points="299,-36 245,-36 245,0 299,0 299,-36"/>
<text text-anchor="middle" x="272" y="-15.5" font-family="Helvetica,sans-Serif" font-size="10.00">kratos</text>
</a>
</g>
</g>
<!-- dir_1d7efcbcbf95e3ad0a9afcd427a4c832&#45;&gt;dir_8fc3e8efef0bfca4a113d719cbd52afb -->
<g id="edge17" class="edge">
<title>dir_1d7efcbcbf95e3ad0a9afcd427a4c832&#45;&gt;dir_8fc3e8efef0bfca4a113d719cbd52afb</title>
<path fill="none" stroke="black" d="M221.88,-143.87C231.68,-119.46 249.75,-74.43 261.31,-45.64"/>
<polygon fill="black" stroke="black" points="264.62,-46.77 265.1,-36.19 258.13,-44.17 264.62,-46.77"/>
<g id="a_edge17&#45;headlabel"><a xlink:href="dir_000134_000166.html" target="_top" xlink:title="98">
<text text-anchor="middle" x="265.92" y="-48.67" font-family="Helvetica,sans-Serif" font-size="10.00">98</text>
</a>
</g>
</g>
<!-- dir_2751febf0cf0b73ad642f5078e110c1a -->
<g id="node2" class="node">
<title>dir_2751febf0cf0b73ad642f5078e110c1a</title>
<g id="a_node2"><a xlink:href="dir_2751febf0cf0b73ad642f5078e110c1a.html" target="_top" xlink:title="constitutive_laws">
<polygon fill="none" stroke="black" points="148,-180 56,-180 56,-144 148,-144 148,-180"/>
<text text-anchor="middle" x="102" y="-159.5" font-family="Helvetica,sans-Serif" font-size="10.00">constitutive_laws</text>
</a>
</g>
</g>
<!-- dir_2751febf0cf0b73ad642f5078e110c1a&#45;&gt;dir_532b0acf66b5d79b872e1c636a87fa36 -->
<g id="edge9" class="edge">
<title>dir_2751febf0cf0b73ad642f5078e110c1a&#45;&gt;dir_532b0acf66b5d79b872e1c636a87fa36</title>
<path fill="none" stroke="black" d="M106.94,-143.7C109.17,-135.9 111.85,-126.51 114.33,-117.83"/>
<polygon fill="black" stroke="black" points="117.73,-118.68 117.11,-108.1 111,-116.76 117.73,-118.68"/>
<g id="a_edge9&#45;headlabel"><a xlink:href="dir_000095_000141.html" target="_top" xlink:title="13">
<text text-anchor="middle" x="119.47" y="-120.42" font-family="Helvetica,sans-Serif" font-size="10.00">13</text>
</a>
</g>
</g>
<!-- dir_2751febf0cf0b73ad642f5078e110c1a&#45;&gt;dir_8fc3e8efef0bfca4a113d719cbd52afb -->
<g id="edge10" class="edge">
<title>dir_2751febf0cf0b73ad642f5078e110c1a&#45;&gt;dir_8fc3e8efef0bfca4a113d719cbd52afb</title>
<path fill="none" stroke="black" d="M126.47,-143.94C140.63,-133.83 158.63,-120.58 174,-108 199.59,-87.05 227.38,-61.53 246.8,-43.2"/>
<polygon fill="black" stroke="black" points="249.23,-45.73 254.07,-36.31 244.41,-40.65 249.23,-45.73"/>
<g id="a_edge10&#45;headlabel"><a xlink:href="dir_000095_000166.html" target="_top" xlink:title="175">
<text text-anchor="middle" x="248.57" y="-47.76" font-family="Helvetica,sans-Serif" font-size="10.00">175</text>
</a>
</g>
</g>
<!-- dir_532b0acf66b5d79b872e1c636a87fa36&#45;&gt;dir_1d7efcbcbf95e3ad0a9afcd427a4c832 -->
<g id="edge11" class="edge">
<title>dir_532b0acf66b5d79b872e1c636a87fa36&#45;&gt;dir_1d7efcbcbf95e3ad0a9afcd427a4c832</title>
<path fill="none" stroke="black" d="M150.62,-108.1C163.21,-116.89 177.79,-127.73 189.95,-137.31"/>
<polygon fill="black" stroke="black" points="187.93,-140.18 197.93,-143.7 192.31,-134.71 187.93,-140.18"/>
<g id="a_edge11&#45;headlabel"><a xlink:href="dir_000141_000134.html" target="_top" xlink:title="1">
<text text-anchor="middle" x="183.35" y="-137.65" font-family="Helvetica,sans-Serif" font-size="10.00">1</text>
</a>
</g>
</g>
<!-- dir_532b0acf66b5d79b872e1c636a87fa36&#45;&gt;dir_8fc3e8efef0bfca4a113d719cbd52afb -->
<g id="edge12" class="edge">
<title>dir_532b0acf66b5d79b872e1c636a87fa36&#45;&gt;dir_8fc3e8efef0bfca4a113d719cbd52afb</title>
<path fill="none" stroke="black" d="M158.69,-71.88C182.02,-60.99 212.1,-46.95 235.41,-36.07"/>
<polygon fill="black" stroke="black" points="237.04,-39.18 244.62,-31.78 234.08,-32.83 237.04,-39.18"/>
<g id="a_edge12&#45;headlabel"><a xlink:href="dir_000141_000166.html" target="_top" xlink:title="72">
<text text-anchor="middle" x="234.98" y="-40.77" font-family="Helvetica,sans-Serif" font-size="10.00">72</text>
</a>
</g>
</g>
<!-- dir_6b8efb6030aa495705b54f1df9d6607a -->
<g id="node4" class="node">
<title>dir_6b8efb6030aa495705b54f1df9d6607a</title>
<g id="a_node4"><a xlink:href="dir_6b8efb6030aa495705b54f1df9d6607a.html" target="_top" xlink:title="custom_elements">
<polygon fill="none" stroke="black" points="130,-252 36,-252 36,-216 130,-216 130,-252"/>
<text text-anchor="middle" x="83" y="-231.5" font-family="Helvetica,sans-Serif" font-size="10.00">custom_elements</text>
</a>
</g>
</g>
<!-- dir_6b8efb6030aa495705b54f1df9d6607a&#45;&gt;dir_2751febf0cf0b73ad642f5078e110c1a -->
<g id="edge13" class="edge">
<title>dir_6b8efb6030aa495705b54f1df9d6607a&#45;&gt;dir_2751febf0cf0b73ad642f5078e110c1a</title>
<path fill="none" stroke="black" d="M87.7,-215.7C89.81,-207.9 92.36,-198.51 94.72,-189.83"/>
<polygon fill="black" stroke="black" points="98.12,-190.67 97.36,-180.1 91.36,-188.84 98.12,-190.67"/>
<g id="a_edge13&#45;headlabel"><a xlink:href="dir_000135_000095.html" target="_top" xlink:title="6">
<text text-anchor="middle" x="99.91" y="-192.38" font-family="Helvetica,sans-Serif" font-size="10.00">6</text>
</a>
</g>
</g>
<!-- dir_6b8efb6030aa495705b54f1df9d6607a&#45;&gt;dir_532b0acf66b5d79b872e1c636a87fa36 -->
<g id="edge14" class="edge">
<title>dir_6b8efb6030aa495705b54f1df9d6607a&#45;&gt;dir_532b0acf66b5d79b872e1c636a87fa36</title>
<path fill="none" stroke="black" d="M67.25,-215.85C52.52,-197.61 34.51,-168.13 47,-144 53.37,-131.7 64.05,-121.65 75.38,-113.73"/>
<polygon fill="black" stroke="black" points="77.61,-116.46 84.12,-108.09 73.82,-110.58 77.61,-116.46"/>
<g id="a_edge14&#45;headlabel"><a xlink:href="dir_000135_000141.html" target="_top" xlink:title="8">
<text text-anchor="middle" x="76.13" y="-118.29" font-family="Helvetica,sans-Serif" font-size="10.00">8</text>
</a>
</g>
</g>
<!-- dir_6b8efb6030aa495705b54f1df9d6607a&#45;&gt;dir_8fc3e8efef0bfca4a113d719cbd52afb -->
<g id="edge15" class="edge">
<title>dir_6b8efb6030aa495705b54f1df9d6607a&#45;&gt;dir_8fc3e8efef0bfca4a113d719cbd52afb</title>
<path fill="none" stroke="black" d="M130.41,-222.89C183.78,-211.05 264.22,-191.56 273,-180 302.41,-141.26 291.38,-80.81 281.29,-46.05"/>
<polygon fill="black" stroke="black" points="284.53,-44.67 278.24,-36.14 277.84,-46.73 284.53,-44.67"/>
<g id="a_edge15&#45;headlabel"><a xlink:href="dir_000135_000166.html" target="_top" xlink:title="112">
<text text-anchor="middle" x="288.3" y="-44.77" font-family="Helvetica,sans-Serif" font-size="10.00">112</text>
</a>
</g>
</g>
<!-- dir_bc2fe0d635ebb09283c8b9eb1131e337 -->
<g id="node5" class="node">
<title>dir_bc2fe0d635ebb09283c8b9eb1131e337</title>
<g id="a_node5"><a xlink:href="dir_bc2fe0d635ebb09283c8b9eb1131e337.html" target="_top" xlink:title="custom_strategies">
<polygon fill="none" stroke="red" points="285.5,-252 188.5,-252 188.5,-216 285.5,-216 285.5,-252"/>
<text text-anchor="middle" x="237" y="-231.5" font-family="Helvetica,sans-Serif" font-size="10.00">custom_strategies</text>
</a>
</g>
</g>
<!-- dir_bc2fe0d635ebb09283c8b9eb1131e337&#45;&gt;dir_1d7efcbcbf95e3ad0a9afcd427a4c832 -->
<g id="edge8" class="edge">
<title>dir_bc2fe0d635ebb09283c8b9eb1131e337&#45;&gt;dir_1d7efcbcbf95e3ad0a9afcd427a4c832</title>
<path fill="none" stroke="black" d="M231.56,-215.7C229.11,-207.9 226.16,-198.51 223.43,-189.83"/>
<polygon fill="black" stroke="black" points="226.71,-188.59 220.38,-180.1 220.04,-190.69 226.71,-188.59"/>
<g id="a_edge8&#45;headlabel"><a xlink:href="dir_000136_000134.html" target="_top" xlink:title="7">
<text text-anchor="middle" x="230.5" y="-188.67" font-family="Helvetica,sans-Serif" font-size="10.00">7</text>
</a>
</g>
</g>
<!-- dir_bc2fe0d635ebb09283c8b9eb1131e337&#45;&gt;dir_8fc3e8efef0bfca4a113d719cbd52afb -->
<g id="edge7" class="edge">
<title>dir_bc2fe0d635ebb09283c8b9eb1131e337&#45;&gt;dir_8fc3e8efef0bfca4a113d719cbd52afb</title>
<path fill="none" stroke="black" d="M270.84,-215.96C284.38,-207.22 298.52,-195.17 306,-180 328.79,-133.76 322.39,-112.88 306,-64 303.7,-57.14 299.89,-50.49 295.64,-44.5"/>
<polygon fill="black" stroke="black" points="298.13,-41.99 289.22,-36.25 292.6,-46.29 298.13,-41.99"/>
<g id="a_edge7&#45;headlabel"><a xlink:href="dir_000136_000166.html" target="_top" xlink:title="59">
<text text-anchor="middle" x="302.57" y="-40.58" font-family="Helvetica,sans-Serif" font-size="10.00">59</text>
</a>
</g>
</g>
<!-- dir_c661afe93b06e40c8f12bfb640b091e7 -->
<g id="node6" class="node">
<title>dir_c661afe93b06e40c8f12bfb640b091e7</title>
<g id="a_node6"><a xlink:href="dir_c661afe93b06e40c8f12bfb640b091e7.html" target="_top" xlink:title="custom_python">
<polygon fill="#eeeeff" stroke="black" points="200.5,-324 117.5,-324 117.5,-288 200.5,-288 200.5,-324"/>
<text text-anchor="middle" x="159" y="-303.5" font-family="Helvetica,sans-Serif" font-size="10.00">custom_python</text>
</a>
</g>
</g>
<!-- dir_c661afe93b06e40c8f12bfb640b091e7&#45;&gt;dir_1d7efcbcbf95e3ad0a9afcd427a4c832 -->
<g id="edge1" class="edge">
<title>dir_c661afe93b06e40c8f12bfb640b091e7&#45;&gt;dir_1d7efcbcbf95e3ad0a9afcd427a4c832</title>
<path fill="none" stroke="black" d="M161.24,-287.7C164.03,-269.34 169.74,-239.76 180,-216 184.09,-206.53 189.86,-196.91 195.54,-188.51"/>
<polygon fill="black" stroke="black" points="198.46,-190.45 201.35,-180.25 192.73,-186.42 198.46,-190.45"/>
<g id="a_edge1&#45;headlabel"><a xlink:href="dir_000009_000134.html" target="_top" xlink:title="1">
<text text-anchor="middle" x="198.71" y="-192.52" font-family="Helvetica,sans-Serif" font-size="10.00">1</text>
</a>
</g>
</g>
<!-- dir_c661afe93b06e40c8f12bfb640b091e7&#45;&gt;dir_2751febf0cf0b73ad642f5078e110c1a -->
<g id="edge2" class="edge">
<title>dir_c661afe93b06e40c8f12bfb640b091e7&#45;&gt;dir_2751febf0cf0b73ad642f5078e110c1a</title>
<path fill="none" stroke="black" d="M157.17,-287.99C154.74,-269.61 149.48,-239.76 139,-216 134.77,-206.4 128.69,-196.74 122.68,-188.35"/>
<polygon fill="black" stroke="black" points="125.31,-186.02 116.52,-180.11 119.71,-190.22 125.31,-186.02"/>
<g id="a_edge2&#45;headlabel"><a xlink:href="dir_000009_000095.html" target="_top" xlink:title="14">
<text text-anchor="middle" x="129.74" y="-184.7" font-family="Helvetica,sans-Serif" font-size="10.00">14</text>
</a>
</g>
</g>
<!-- dir_c661afe93b06e40c8f12bfb640b091e7&#45;&gt;dir_532b0acf66b5d79b872e1c636a87fa36 -->
<g id="edge3" class="edge">
<title>dir_c661afe93b06e40c8f12bfb640b091e7&#45;&gt;dir_532b0acf66b5d79b872e1c636a87fa36</title>
<path fill="none" stroke="black" d="M117.38,-300.48C86.74,-294.73 47.06,-281.66 27,-252 13.9,-232.62 31.06,-156.02 39,-144 47.27,-131.48 59.62,-121.32 72.29,-113.37"/>
<polygon fill="black" stroke="black" points="74.21,-116.3 81.06,-108.21 70.66,-110.26 74.21,-116.3"/>
<g id="a_edge3&#45;headlabel"><a xlink:href="dir_000009_000141.html" target="_top" xlink:title="11">
<text text-anchor="middle" x="72.55" y="-118.07" font-family="Helvetica,sans-Serif" font-size="10.00">11</text>
</a>
</g>
</g>
<!-- dir_c661afe93b06e40c8f12bfb640b091e7&#45;&gt;dir_6b8efb6030aa495705b54f1df9d6607a -->
<g id="edge4" class="edge">
<title>dir_c661afe93b06e40c8f12bfb640b091e7&#45;&gt;dir_6b8efb6030aa495705b54f1df9d6607a</title>
<path fill="none" stroke="black" d="M140.21,-287.7C130.83,-279.05 119.32,-268.45 109.09,-259.03"/>
<polygon fill="black" stroke="black" points="111.3,-256.3 101.57,-252.1 106.55,-261.45 111.3,-256.3"/>
<g id="a_edge4&#45;headlabel"><a xlink:href="dir_000009_000135.html" target="_top" xlink:title="1">
<text text-anchor="middle" x="115.86" y="-254.15" font-family="Helvetica,sans-Serif" font-size="10.00">1</text>
</a>
</g>
</g>
<!-- dir_c661afe93b06e40c8f12bfb640b091e7&#45;&gt;dir_bc2fe0d635ebb09283c8b9eb1131e337 -->
<g id="edge6" class="edge">
<title>dir_c661afe93b06e40c8f12bfb640b091e7&#45;&gt;dir_bc2fe0d635ebb09283c8b9eb1131e337</title>
<path fill="none" stroke="black" d="M178.28,-287.7C187.92,-279.05 199.73,-268.45 210.23,-259.03"/>
<polygon fill="black" stroke="black" points="212.84,-261.39 217.94,-252.1 208.16,-256.18 212.84,-261.39"/>
<g id="a_edge6&#45;headlabel"><a xlink:href="dir_000009_000136.html" target="_top" xlink:title="10">
<text text-anchor="middle" x="212.06" y="-263.4" font-family="Helvetica,sans-Serif" font-size="10.00">10</text>
</a>
</g>
</g>
<!-- dir_c661afe93b06e40c8f12bfb640b091e7&#45;&gt;dir_8fc3e8efef0bfca4a113d719cbd52afb -->
<g id="edge5" class="edge">
<title>dir_c661afe93b06e40c8f12bfb640b091e7&#45;&gt;dir_8fc3e8efef0bfca4a113d719cbd52afb</title>
<path fill="none" stroke="black" d="M200.8,-297.62C230.38,-290.47 269.21,-276.91 295,-252 320.06,-227.8 318.97,-214.12 326,-180 336.41,-129.51 347.87,-110.69 326,-64 321.82,-55.07 314.9,-47.3 307.39,-40.84"/>
<polygon fill="black" stroke="black" points="309.13,-37.76 299.1,-34.35 304.82,-43.27 309.13,-37.76"/>
<g id="a_edge5&#45;headlabel"><a xlink:href="dir_000009_000166.html" target="_top" xlink:title="41">
<text text-anchor="middle" x="313.71" y="-35.24" font-family="Helvetica,sans-Serif" font-size="10.00">41</text>
</a>
</g>
</g>
</g>
</svg>
