<?xml version="1.0" encoding="UTF-8" standalone="no"?>
<!DOCTYPE svg PUBLIC "-//W3C//DTD SVG 1.1//EN"
 "http://www.w3.org/Graphics/SVG/1.1/DTD/svg11.dtd">
<!-- Generated by graphviz version 2.48.0 (20210719.0153)
 -->
<!-- Title: /github/workspace/applications/PFEMapplication/custom_utilities Pages: 1 -->
<svg width="198pt" height="223pt"
 viewBox="0.00 0.00 198.00 223.00" xmlns="http://www.w3.org/2000/svg" xmlns:xlink="http://www.w3.org/1999/xlink">
<g id="graph0" class="graph" transform="scale(1 1) rotate(0) translate(4 219)">
<title>/github/workspace/applications/PFEMapplication/custom_utilities</title>
<g id="clust1" class="cluster">
<title>clusterdir_a720844cb03fe2f2299517836427bf6b</title>
<g id="a_clust1"><a xlink:href="dir_a720844cb03fe2f2299517836427bf6b.html" target="_top" xlink:title="PFEMapplication">
<polygon fill="#ddddee" stroke="black" points="8,-136 8,-207 110,-207 110,-136 8,-136"/>
<text text-anchor="middle" x="59" y="-195" font-family="Helvetica,sans-Serif" font-size="10.00">PFEMapplication</text>
</a>
</g>
</g>
<!-- dir_d4ed7bb54a8d7012b3fc44d06caeefba -->
<g id="node1" class="node">
<title>dir_d4ed7bb54a8d7012b3fc44d06caeefba</title>
<g id="a_node1"><a xlink:href="dir_d4ed7bb54a8d7012b3fc44d06caeefba.html" target="_top" xlink:title="custom_utilities">
<polygon fill="#eeeeff" stroke="black" points="101.5,-180 16.5,-180 16.5,-144 101.5,-144 101.5,-180"/>
<text text-anchor="middle" x="59" y="-159.5" font-family="Helvetica,sans-Serif" font-size="10.00">custom_utilities</text>
</a>
</g>
</g>
<!-- dir_8fc3e8efef0bfca4a113d719cbd52afb -->
<g id="node2" class="node">
<title>dir_8fc3e8efef0bfca4a113d719cbd52afb</title>
<g id="a_node2"><a xlink:href="dir_8fc3e8efef0bfca4a113d719cbd52afb.html" target="_top" xlink:title="kratos">
<polygon fill="none" stroke="red" points="86,-36 32,-36 32,0 86,0 86,-36"/>
<text text-anchor="middle" x="59" y="-15.5" font-family="Helvetica,sans-Serif" font-size="10.00">kratos</text>
</a>
</g>
</g>
<!-- dir_d4ed7bb54a8d7012b3fc44d06caeefba&#45;&gt;dir_8fc3e8efef0bfca4a113d719cbd52afb -->
<g id="edge1" class="edge">
<title>dir_d4ed7bb54a8d7012b3fc44d06caeefba&#45;&gt;dir_8fc3e8efef0bfca4a113d719cbd52afb</title>
<path fill="none" stroke="black" d="M44.25,-143.63C36.91,-133.85 28.81,-121.01 25,-108 20.5,-92.65 20.5,-87.35 25,-72 27.8,-62.45 32.91,-52.98 38.33,-44.76"/>
<polygon fill="black" stroke="black" points="41.35,-46.56 44.25,-36.37 35.62,-42.52 41.35,-46.56"/>
<g id="a_edge1&#45;headlabel"><a xlink:href="dir_000127_000166.html" target="_top" xlink:title="27">
<text text-anchor="middle" x="41.6" y="-48.63" font-family="Helvetica,sans-Serif" font-size="10.00">27</text>
</a>
</g>
</g>
<!-- dir_c04e0b6f20d509ba7eba572f6264f0fc -->
<g id="node3" class="node">
<title>dir_c04e0b6f20d509ba7eba572f6264f0fc</title>
<g id="a_node3"><a xlink:href="dir_c04e0b6f20d509ba7eba572f6264f0fc.html" target="_top" xlink:title="incompressible_fluid_application">
<polygon fill="none" stroke="red" points="190,-108 34,-108 34,-72 190,-72 190,-108"/>
<text text-anchor="middle" x="112" y="-87.5" font-family="Helvetica,sans-Serif" font-size="10.00">incompressible_fluid_application</text>
</a>
</g>
</g>
<!-- dir_d4ed7bb54a8d7012b3fc44d06caeefba&#45;&gt;dir_c04e0b6f20d509ba7eba572f6264f0fc -->
<g id="edge2" class="edge">
<title>dir_d4ed7bb54a8d7012b3fc44d06caeefba&#45;&gt;dir_c04e0b6f20d509ba7eba572f6264f0fc</title>
<path fill="none" stroke="black" d="M72.1,-143.7C78.39,-135.39 86.05,-125.28 92.96,-116.14"/>
<polygon fill="black" stroke="black" points="95.8,-118.19 99.05,-108.1 90.22,-113.96 95.8,-118.19"/>
<g id="a_edge2&#45;headlabel"><a xlink:href="dir_000127_000006.html" target="_top" xlink:title="1">
<text text-anchor="middle" x="95.9" y="-120.27" font-family="Helvetica,sans-Serif" font-size="10.00">1</text>
</a>
</g>
</g>
<!-- dir_c04e0b6f20d509ba7eba572f6264f0fc&#45;&gt;dir_8fc3e8efef0bfca4a113d719cbd52afb -->
<g id="edge3" class="edge">
<title>dir_c04e0b6f20d509ba7eba572f6264f0fc&#45;&gt;dir_8fc3e8efef0bfca4a113d719cbd52afb</title>
<path fill="none" stroke="black" d="M98.9,-71.7C92.61,-63.39 84.95,-53.28 78.04,-44.14"/>
<polygon fill="black" stroke="black" points="80.78,-41.96 71.95,-36.1 75.2,-46.19 80.78,-41.96"/>
<g id="a_edge3&#45;headlabel"><a xlink:href="dir_000006_000166.html" target="_top" xlink:title="193">
<text text-anchor="middle" x="85.21" y="-40.62" font-family="Helvetica,sans-Serif" font-size="10.00">193</text>
</a>
</g>
</g>
</g>
</svg>
