<?xml version="1.0" encoding="UTF-8" standalone="no"?>
<!DOCTYPE svg PUBLIC "-//W3C//DTD SVG 1.1//EN"
 "http://www.w3.org/Graphics/SVG/1.1/DTD/svg11.dtd">
<!-- Generated by graphviz version 2.48.0 (20210719.0153)
 -->
<!-- Title: /github/workspace/applications/structural_application/constitutive_laws Pages: 1 -->
<svg width="133pt" height="223pt"
 viewBox="0.00 0.00 133.00 223.00" xmlns="http://www.w3.org/2000/svg" xmlns:xlink="http://www.w3.org/1999/xlink">
<g id="graph0" class="graph" transform="scale(1 1) rotate(0) translate(4 219)">
<title>/github/workspace/applications/structural_application/constitutive_laws</title>
<g id="clust1" class="cluster">
<title>clusterdir_5b6e5246a29a3ca9076f80e3c8ba35a5</title>
<g id="a_clust1"><a xlink:href="dir_5b6e5246a29a3ca9076f80e3c8ba35a5.html" target="_top" xlink:title="structural_application">
<polygon fill="#ddddee" stroke="black" points="8,-64 8,-207 117,-207 117,-64 8,-64"/>
<text text-anchor="middle" x="62.5" y="-195" font-family="Helvetica,sans-Serif" font-size="10.00">structural_application</text>
</a>
</g>
</g>
<!-- dir_532b0acf66b5d79b872e1c636a87fa36 -->
<g id="node1" class="node">
<title>dir_532b0acf66b5d79b872e1c636a87fa36</title>
<g id="a_node1"><a xlink:href="dir_532b0acf66b5d79b872e1c636a87fa36.html" target="_top" xlink:title="custom_utilities">
<polygon fill="none" stroke="black" points="102.5,-108 17.5,-108 17.5,-72 102.5,-72 102.5,-108"/>
<text text-anchor="middle" x="60" y="-87.5" font-family="Helvetica,sans-Serif" font-size="10.00">custom_utilities</text>
</a>
</g>
</g>
<!-- dir_8fc3e8efef0bfca4a113d719cbd52afb -->
<g id="node3" class="node">
<title>dir_8fc3e8efef0bfca4a113d719cbd52afb</title>
<g id="a_node3"><a xlink:href="dir_8fc3e8efef0bfca4a113d719cbd52afb.html" target="_top" xlink:title="kratos">
<polygon fill="none" stroke="red" points="122,-36 68,-36 68,0 122,0 122,-36"/>
<text text-anchor="middle" x="95" y="-15.5" font-family="Helvetica,sans-Serif" font-size="10.00">kratos</text>
</a>
</g>
</g>
<!-- dir_532b0acf66b5d79b872e1c636a87fa36&#45;&gt;dir_8fc3e8efef0bfca4a113d719cbd52afb -->
<g id="edge3" class="edge">
<title>dir_532b0acf66b5d79b872e1c636a87fa36&#45;&gt;dir_8fc3e8efef0bfca4a113d719cbd52afb</title>
<path fill="none" stroke="black" d="M68.65,-71.7C72.64,-63.73 77.45,-54.1 81.87,-45.26"/>
<polygon fill="black" stroke="black" points="85.11,-46.61 86.45,-36.1 78.85,-43.48 85.11,-46.61"/>
<g id="a_edge3&#45;headlabel"><a xlink:href="dir_000141_000166.html" target="_top" xlink:title="72">
<text text-anchor="middle" x="86.04" y="-48.6" font-family="Helvetica,sans-Serif" font-size="10.00">72</text>
</a>
</g>
</g>
<!-- dir_2751febf0cf0b73ad642f5078e110c1a -->
<g id="node2" class="node">
<title>dir_2751febf0cf0b73ad642f5078e110c1a</title>
<g id="a_node2"><a xlink:href="dir_2751febf0cf0b73ad642f5078e110c1a.html" target="_top" xlink:title="constitutive_laws">
<polygon fill="#eeeeff" stroke="black" points="108,-180 16,-180 16,-144 108,-144 108,-180"/>
<text text-anchor="middle" x="62" y="-159.5" font-family="Helvetica,sans-Serif" font-size="10.00">constitutive_laws</text>
</a>
</g>
</g>
<!-- dir_2751febf0cf0b73ad642f5078e110c1a&#45;&gt;dir_532b0acf66b5d79b872e1c636a87fa36 -->
<g id="edge1" class="edge">
<title>dir_2751febf0cf0b73ad642f5078e110c1a&#45;&gt;dir_532b0acf66b5d79b872e1c636a87fa36</title>
<path fill="none" stroke="black" d="M61.51,-143.7C61.29,-135.98 61.02,-126.71 60.77,-118.11"/>
<polygon fill="black" stroke="black" points="64.27,-118 60.49,-108.1 57.28,-118.2 64.27,-118"/>
<g id="a_edge1&#45;headlabel"><a xlink:href="dir_000095_000141.html" target="_top" xlink:title="13">
<text text-anchor="middle" x="67.21" y="-119.01" font-family="Helvetica,sans-Serif" font-size="10.00">13</text>
</a>
</g>
</g>
<!-- dir_2751febf0cf0b73ad642f5078e110c1a&#45;&gt;dir_8fc3e8efef0bfca4a113d719cbd52afb -->
<g id="edge2" class="edge">
<title>dir_2751febf0cf0b73ad642f5078e110c1a&#45;&gt;dir_8fc3e8efef0bfca4a113d719cbd52afb</title>
<path fill="none" stroke="black" d="M84.6,-143.96C95.06,-134.63 106.4,-122.11 112,-108 119.99,-87.89 114.49,-63.7 107.68,-45.62"/>
<polygon fill="black" stroke="black" points="110.88,-44.19 103.85,-36.27 104.4,-46.85 110.88,-44.19"/>
<g id="a_edge2&#45;headlabel"><a xlink:href="dir_000095_000166.html" target="_top" xlink:title="175">
<text text-anchor="middle" x="114.87" y="-43.94" font-family="Helvetica,sans-Serif" font-size="10.00">175</text>
</a>
</g>
</g>
</g>
</svg>
