<?xml version="1.0" encoding="UTF-8" standalone="no"?>
<!DOCTYPE svg PUBLIC "-//W3C//DTD SVG 1.1//EN"
 "http://www.w3.org/Graphics/SVG/1.1/DTD/svg11.dtd">
<!-- Generated by graphviz version 2.48.0 (20210719.0153)
 -->
<!-- Title: /github/workspace/applications/structural_application/custom_strategies Pages: 1 -->
<!--zoomable 231 -->
<svg id="main" version="1.1" xmlns="http://www.w3.org/2000/svg" xmlns:xlink="http://www.w3.org/1999/xlink" xml:space="preserve" onload="init(evt)">
<style type="text/css"><![CDATA[
.edge:hover path { stroke: red; }
.edge:hover polygon { stroke: red; fill: red; }
]]></style>
<script type="text/javascript"><![CDATA[
var edges = document.getElementsByTagName('g');
if (edges && edges.length) {
  for (var i=0;i<edges.length;i++) {
    if (edges[i].id.substr(0,4)=='edge') {
      edges[i].setAttribute('class','edge');
    }
  }
}
]]></script>
        <defs>
                <circle id="rim" cx="0" cy="0" r="7"/>
                <circle id="rim2" cx="0" cy="0" r="3.5"/>
                <g id="zoomPlus">
                        <use xlink:href="#rim" fill="#404040">
                                <set attributeName="fill" to="#808080" begin="zoomplus.mouseover" end="zoomplus.mouseout"/>
                        </use>
                        <path d="M-4,0h8M0,-4v8" fill="none" stroke="white" stroke-width="1.5" pointer-events="none"/>
                </g>
                <g id="zoomMin">
                        <use xlink:href="#rim" fill="#404040">
                                <set attributeName="fill" to="#808080" begin="zoomminus.mouseover" end="zoomminus.mouseout"/>
                        </use>
                        <path d="M-4,0h8" fill="none" stroke="white" stroke-width="1.5" pointer-events="none"/>
                </g>
                <g id="dirArrow">
                        <path fill="none" stroke="white" stroke-width="1.5" d="M0,-3.0v7 M-2.5,-0.5L0,-3.0L2.5,-0.5"/>
                </g>
               <g id="resetDef">
                       <use xlink:href="#rim2" fill="#404040">
                               <set attributeName="fill" to="#808080" begin="reset.mouseover" end="reset.mouseout"/>
                       </use>
               </g>
        </defs>

<script type="text/javascript">
var viewWidth = 550;
var viewHeight = 231;
var sectionId = 'dynsection-0';
</script>
<script xlink:href="svgpan.js"/>
<svg id="graph" class="graph">
<g id="viewport">
<title>/github/workspace/applications/structural_application/custom_strategies</title>
<g id="clust1" class="cluster">
<title>clusterdir_5b6e5246a29a3ca9076f80e3c8ba35a5</title>
<g id="a_clust1"><a xlink:href="dir_5b6e5246a29a3ca9076f80e3c8ba35a5.html" target="_top" xlink:title="structural_application">
<polygon fill="#ddddee" stroke="black" points="8,-64 8,-215 534,-215 534,-64 8,-64"/>
<text text-anchor="middle" x="271" y="-203" font-family="Helvetica,sans-Serif" font-size="10.00">structural_application</text>
</a>
</g>
</g>
<g id="clust2" class="cluster">
<title>clusterdir_bc2fe0d635ebb09283c8b9eb1131e337</title>
<g id="a_clust2"><a xlink:href="dir_bc2fe0d635ebb09283c8b9eb1131e337.html" target="_top">
<polygon fill="#eeeeff" stroke="black" points="16,-136 16,-188 526,-188 526,-136 16,-136"/>
</a>
</g>
</g>
<!-- dir_1d7efcbcbf95e3ad0a9afcd427a4c832 -->
<g id="node1" class="node">
<title>dir_1d7efcbcbf95e3ad0a9afcd427a4c832</title>
<g id="a_node1"><a xlink:href="dir_1d7efcbcbf95e3ad0a9afcd427a4c832.html" target="_top" xlink:title="custom_conditions">
<polygon fill="none" stroke="black" points="119,-108 21,-108 21,-72 119,-72 119,-108"/>
<text text-anchor="middle" x="70" y="-87.5" font-family="Helvetica,sans-Serif" font-size="10.00">custom_conditions</text>
</a>
</g>
</g>
<!-- dir_8fc3e8efef0bfca4a113d719cbd52afb -->
<g id="node7" class="node">
<title>dir_8fc3e8efef0bfca4a113d719cbd52afb</title>
<g id="a_node7"><a xlink:href="dir_8fc3e8efef0bfca4a113d719cbd52afb.html" target="_top" xlink:title="kratos">
<polygon fill="none" stroke="red" points="212,-36 158,-36 158,0 212,0 212,-36"/>
<text text-anchor="middle" x="185" y="-15.5" font-family="Helvetica,sans-Serif" font-size="10.00">kratos</text>
</a>
</g>
</g>
<!-- dir_1d7efcbcbf95e3ad0a9afcd427a4c832&#45;&gt;dir_8fc3e8efef0bfca4a113d719cbd52afb -->
<g id="edge6" class="edge">
<title>dir_1d7efcbcbf95e3ad0a9afcd427a4c832&#45;&gt;dir_8fc3e8efef0bfca4a113d719cbd52afb</title>
<path fill="none" stroke="black" d="M98.13,-71.88C113.51,-62.52 132.71,-50.83 149.14,-40.83"/>
<polygon fill="black" stroke="black" points="151.23,-43.65 157.95,-35.47 147.59,-37.67 151.23,-43.65"/>
<g id="a_edge6&#45;headlabel"><a xlink:href="dir_000134_000166.html" target="_top" xlink:title="98">
<text text-anchor="middle" x="149.63" y="-45.45" font-family="Helvetica,sans-Serif" font-size="10.00">98</text>
</a>
</g>
</g>
<!-- dir_bc2fe0d635ebb09283c8b9eb1131e337 -->
<g id="node2" class="node">
<title>dir_bc2fe0d635ebb09283c8b9eb1131e337</title>
<text text-anchor="middle" x="470" y="-159.5" font-family="Helvetica,sans-Serif" font-size="10.00">custom_strategies</text>
</g>
<!-- dir_931f722af3809d09136b4bb30f829e00 -->
<g id="node3" class="node">
<title>dir_931f722af3809d09136b4bb30f829e00</title>
<g id="a_node3"><a xlink:href="dir_931f722af3809d09136b4bb30f829e00.html" target="_top" xlink:title="builder_and_solvers">
<polygon fill="white" stroke="black" points="403.5,-180 300.5,-180 300.5,-144 403.5,-144 403.5,-180"/>
<text text-anchor="middle" x="352" y="-159.5" font-family="Helvetica,sans-Serif" font-size="10.00">builder_and_solvers</text>
</a>
</g>
</g>
<!-- dir_931f722af3809d09136b4bb30f829e00&#45;&gt;dir_8fc3e8efef0bfca4a113d719cbd52afb -->
<g id="edge1" class="edge">
<title>dir_931f722af3809d09136b4bb30f829e00&#45;&gt;dir_8fc3e8efef0bfca4a113d719cbd52afb</title>
<path fill="none" stroke="black" d="M331.86,-143.87C302.14,-118.6 246.45,-71.25 212.85,-42.68"/>
<polygon fill="black" stroke="black" points="215.1,-40 205.22,-36.19 210.57,-45.33 215.1,-40"/>
<g id="a_edge1&#45;headlabel"><a xlink:href="dir_000137_000166.html" target="_top" xlink:title="3">
<text text-anchor="middle" x="219.68" y="-37.67" font-family="Helvetica,sans-Serif" font-size="10.00">3</text>
</a>
</g>
</g>
<!-- dir_613ca6c255f6902e2f426852c41008a7 -->
<g id="node4" class="node">
<title>dir_613ca6c255f6902e2f426852c41008a7</title>
<g id="a_node4"><a xlink:href="dir_613ca6c255f6902e2f426852c41008a7.html" target="_top" xlink:title="convergencecriterias">
<polygon fill="white" stroke="black" points="282.5,-180 175.5,-180 175.5,-144 282.5,-144 282.5,-180"/>
<text text-anchor="middle" x="229" y="-159.5" font-family="Helvetica,sans-Serif" font-size="10.00">convergencecriterias</text>
</a>
</g>
</g>
<!-- dir_613ca6c255f6902e2f426852c41008a7&#45;&gt;dir_8fc3e8efef0bfca4a113d719cbd52afb -->
<g id="edge7" class="edge">
<title>dir_613ca6c255f6902e2f426852c41008a7&#45;&gt;dir_8fc3e8efef0bfca4a113d719cbd52afb</title>
<path fill="none" stroke="black" d="M223.7,-143.83C217.71,-124.44 207.67,-91.95 199,-64 197.17,-58.09 195.2,-51.75 193.33,-45.74"/>
<polygon fill="black" stroke="black" points="196.64,-44.6 190.33,-36.09 189.95,-46.68 196.64,-44.6"/>
<g id="a_edge7&#45;headlabel"><a xlink:href="dir_000138_000166.html" target="_top" xlink:title="2">
<text text-anchor="middle" x="200.42" y="-44.69" font-family="Helvetica,sans-Serif" font-size="10.00">2</text>
</a>
</g>
</g>
<!-- dir_94c41d75c7043a8ad037716c97c9866d -->
<g id="node5" class="node">
<title>dir_94c41d75c7043a8ad037716c97c9866d</title>
<g id="a_node5"><a xlink:href="dir_94c41d75c7043a8ad037716c97c9866d.html" target="_top" xlink:title="schemes">
<polygon fill="white" stroke="black" points="158,-180 102,-180 102,-144 158,-144 158,-180"/>
<text text-anchor="middle" x="130" y="-159.5" font-family="Helvetica,sans-Serif" font-size="10.00">schemes</text>
</a>
</g>
</g>
<!-- dir_94c41d75c7043a8ad037716c97c9866d&#45;&gt;dir_1d7efcbcbf95e3ad0a9afcd427a4c832 -->
<g id="edge4" class="edge">
<title>dir_94c41d75c7043a8ad037716c97c9866d&#45;&gt;dir_1d7efcbcbf95e3ad0a9afcd427a4c832</title>
<path fill="none" stroke="black" d="M115.17,-143.7C107.98,-135.3 99.2,-125.07 91.31,-115.86"/>
<polygon fill="black" stroke="black" points="93.83,-113.42 84.66,-108.1 88.51,-117.97 93.83,-113.42"/>
<g id="a_edge4&#45;headlabel"><a xlink:href="dir_000139_000134.html" target="_top" xlink:title="6">
<text text-anchor="middle" x="98.32" y="-111.8" font-family="Helvetica,sans-Serif" font-size="10.00">6</text>
</a>
</g>
</g>
<!-- dir_94c41d75c7043a8ad037716c97c9866d&#45;&gt;dir_8fc3e8efef0bfca4a113d719cbd52afb -->
<g id="edge5" class="edge">
<title>dir_94c41d75c7043a8ad037716c97c9866d&#45;&gt;dir_8fc3e8efef0bfca4a113d719cbd52afb</title>
<path fill="none" stroke="black" d="M141.55,-143.94C147.98,-133.84 155.73,-120.59 161,-108 169.42,-87.88 175.67,-63.97 179.68,-46"/>
<polygon fill="black" stroke="black" points="183.12,-46.69 181.79,-36.18 176.27,-45.22 183.12,-46.69"/>
<g id="a_edge5&#45;headlabel"><a xlink:href="dir_000139_000166.html" target="_top" xlink:title="47">
<text text-anchor="middle" x="185.14" y="-48.3" font-family="Helvetica,sans-Serif" font-size="10.00">47</text>
</a>
</g>
</g>
<!-- dir_1fdcfcc260c9d44ca4018942c3c30915 -->
<g id="node6" class="node">
<title>dir_1fdcfcc260c9d44ca4018942c3c30915</title>
<g id="a_node6"><a xlink:href="dir_1fdcfcc260c9d44ca4018942c3c30915.html" target="_top" xlink:title="strategies">
<polygon fill="white" stroke="black" points="83.5,-180 24.5,-180 24.5,-144 83.5,-144 83.5,-180"/>
<text text-anchor="middle" x="54" y="-159.5" font-family="Helvetica,sans-Serif" font-size="10.00">strategies</text>
</a>
</g>
</g>
<!-- dir_1fdcfcc260c9d44ca4018942c3c30915&#45;&gt;dir_1d7efcbcbf95e3ad0a9afcd427a4c832 -->
<g id="edge2" class="edge">
<title>dir_1fdcfcc260c9d44ca4018942c3c30915&#45;&gt;dir_1d7efcbcbf95e3ad0a9afcd427a4c832</title>
<path fill="none" stroke="black" d="M57.96,-143.7C59.72,-135.98 61.84,-126.71 63.8,-118.11"/>
<polygon fill="black" stroke="black" points="67.27,-118.63 66.09,-108.1 60.45,-117.07 67.27,-118.63"/>
<g id="a_edge2&#45;headlabel"><a xlink:href="dir_000140_000134.html" target="_top" xlink:title="1">
<text text-anchor="middle" x="69.24" y="-120.27" font-family="Helvetica,sans-Serif" font-size="10.00">1</text>
</a>
</g>
</g>
<!-- dir_1fdcfcc260c9d44ca4018942c3c30915&#45;&gt;dir_8fc3e8efef0bfca4a113d719cbd52afb -->
<g id="edge3" class="edge">
<title>dir_1fdcfcc260c9d44ca4018942c3c30915&#45;&gt;dir_8fc3e8efef0bfca4a113d719cbd52afb</title>
<path fill="none" stroke="black" d="M80.81,-143.86C102.01,-130.17 128.73,-112.54 133,-108 137.89,-102.8 156.9,-69.49 170.51,-45.14"/>
<polygon fill="black" stroke="black" points="173.62,-46.76 175.43,-36.32 167.5,-43.35 173.62,-46.76"/>
<g id="a_edge3&#45;headlabel"><a xlink:href="dir_000140_000166.html" target="_top" xlink:title="7">
<text text-anchor="middle" x="174.35" y="-48.78" font-family="Helvetica,sans-Serif" font-size="10.00">7</text>
</a>
</g>
</g>
</g>
</svg>
        <g id="navigator" transform="translate(0 0)" fill="#404254">
                <rect fill="#f2f5e9" fill-opacity="0.5" stroke="#606060" stroke-width=".5" x="0" y="0" width="60" height="60"/>
                <use id="zoomplus" xlink:href="#zoomPlus" x="17" y="9" onmousedown="handleZoom(evt,'in')"/>
                <use id="zoomminus" xlink:href="#zoomMin" x="42" y="9" onmousedown="handleZoom(evt,'out')"/>
                <use id="reset" xlink:href="#resetDef" x="30" y="36" onmousedown="handleReset()"/>
                <g id="arrowUp" xlink:href="#dirArrow" transform="translate(30 24)" onmousedown="handlePan(0,-1)">
                  <use xlink:href="#rim" fill="#404040">
                        <set attributeName="fill" to="#808080" begin="arrowUp.mouseover" end="arrowUp.mouseout"/>
                  </use>
                  <path fill="none" stroke="white" stroke-width="1.5" d="M0,-3.0v7 M-2.5,-0.5L0,-3.0L2.5,-0.5"/>
                </g>
                <g id="arrowRight" xlink:href="#dirArrow" transform="rotate(90) translate(36 -43)" onmousedown="handlePan(1,0)">
                  <use xlink:href="#rim" fill="#404040">
                        <set attributeName="fill" to="#808080" begin="arrowRight.mouseover" end="arrowRight.mouseout"/>
                  </use>
                  <path fill="none" stroke="white" stroke-width="1.5" d="M0,-3.0v7 M-2.5,-0.5L0,-3.0L2.5,-0.5"/>
                </g>
                <g id="arrowDown" xlink:href="#dirArrow" transform="rotate(180) translate(-30 -48)" onmousedown="handlePan(0,1)">
                  <use xlink:href="#rim" fill="#404040">
                        <set attributeName="fill" to="#808080" begin="arrowDown.mouseover" end="arrowDown.mouseout"/>
                  </use>
                  <path fill="none" stroke="white" stroke-width="1.5" d="M0,-3.0v7 M-2.5,-0.5L0,-3.0L2.5,-0.5"/>
                </g>
                <g id="arrowLeft" xlink:href="#dirArrow" transform="rotate(270) translate(-36 17)" onmousedown="handlePan(-1,0)">
                  <use xlink:href="#rim" fill="#404040">
                        <set attributeName="fill" to="#808080" begin="arrowLeft.mouseover" end="arrowLeft.mouseout"/>
                  </use>
                  <path fill="none" stroke="white" stroke-width="1.5" d="M0,-3.0v7 M-2.5,-0.5L0,-3.0L2.5,-0.5"/>
                </g>
        </g>
        <svg viewBox="0 0 15 15" width="100%" height="30px" preserveAspectRatio="xMaxYMin meet">
         <g id="arrow_out" transform="scale(0.3 0.3)">
          <a xlink:href="dir_bc2fe0d635ebb09283c8b9eb1131e337_dep_org.svg" target="_base">
           <rect id="button" ry="5" rx="5" y="6" x="6" height="38" width="38"
                fill="#f2f5e9" fill-opacity="0.5" stroke="#606060" stroke-width="1.0"/>
           <path id="arrow"
             d="M 11.500037,31.436501 C 11.940474,20.09759 22.043105,11.32322 32.158766,21.979434 L 37.068811,17.246167 C 37.068811,17.246167 37.088388,32 37.088388,32 L 22.160133,31.978069 C 22.160133,31.978069 26.997745,27.140456 26.997745,27.140456 C 18.528582,18.264221 13.291696,25.230495 11.500037,31.436501 z"
             style="fill:#404040;"/>
          </a>
         </g>
        </svg>
</svg>
