<?xml version="1.0" encoding="UTF-8" standalone="no"?>
<!DOCTYPE svg PUBLIC "-//W3C//DTD SVG 1.1//EN"
 "http://www.w3.org/Graphics/SVG/1.1/DTD/svg11.dtd">
<!-- Generated by graphviz version 2.48.0 (20210719.0153)
 -->
<!-- Title: /github/workspace/applications/structural_application Pages: 1 -->
<svg width="698pt" height="447pt"
 viewBox="0.00 0.00 698.00 447.00" xmlns="http://www.w3.org/2000/svg" xmlns:xlink="http://www.w3.org/1999/xlink">
<g id="graph0" class="graph" transform="scale(1 1) rotate(0) translate(4 443)">
<title>/github/workspace/applications/structural_application</title>
<g id="clust1" class="cluster">
<title>clusterdir_a6e4fee11f07c3b70486e88fe92cbbdc</title>
<g id="a_clust1"><a xlink:href="dir_a6e4fee11f07c3b70486e88fe92cbbdc.html" target="_top" xlink:title="applications">
<polygon fill="#ddddee" stroke="black" points="8,-56 8,-431 682,-431 682,-56 8,-56"/>
<text text-anchor="middle" x="345" y="-419" font-family="Helvetica,sans-Serif" font-size="10.00">applications</text>
</a>
</g>
</g>
<g id="clust2" class="cluster">
<title>clusterdir_5b6e5246a29a3ca9076f80e3c8ba35a5</title>
<g id="a_clust2"><a xlink:href="dir_5b6e5246a29a3ca9076f80e3c8ba35a5.html" target="_top">
<polygon fill="#eeeeff" stroke="black" points="16,-64 16,-404 674,-404 674,-64 16,-64"/>
</a>
</g>
</g>
<!-- dir_5b6e5246a29a3ca9076f80e3c8ba35a5 -->
<g id="node1" class="node">
<title>dir_5b6e5246a29a3ca9076f80e3c8ba35a5</title>
<text text-anchor="middle" x="611" y="-375.5" font-family="Helvetica,sans-Serif" font-size="10.00">structural_application</text>
</g>
<!-- dir_2751febf0cf0b73ad642f5078e110c1a -->
<g id="node2" class="node">
<title>dir_2751febf0cf0b73ad642f5078e110c1a</title>
<g id="a_node2"><a xlink:href="dir_2751febf0cf0b73ad642f5078e110c1a.html" target="_top" xlink:title="constitutive_laws">
<polygon fill="white" stroke="black" points="470,-252 378,-252 378,-216 470,-216 470,-252"/>
<text text-anchor="middle" x="424" y="-231.5" font-family="Helvetica,sans-Serif" font-size="10.00">constitutive_laws</text>
</a>
</g>
</g>
<!-- dir_532b0acf66b5d79b872e1c636a87fa36 -->
<g id="node8" class="node">
<title>dir_532b0acf66b5d79b872e1c636a87fa36</title>
<g id="a_node8"><a xlink:href="dir_532b0acf66b5d79b872e1c636a87fa36.html" target="_top" xlink:title="custom_utilities">
<polygon fill="white" stroke="black" points="381.5,-180 296.5,-180 296.5,-144 381.5,-144 381.5,-180"/>
<text text-anchor="middle" x="339" y="-159.5" font-family="Helvetica,sans-Serif" font-size="10.00">custom_utilities</text>
</a>
</g>
</g>
<!-- dir_2751febf0cf0b73ad642f5078e110c1a&#45;&gt;dir_532b0acf66b5d79b872e1c636a87fa36 -->
<g id="edge9" class="edge">
<title>dir_2751febf0cf0b73ad642f5078e110c1a&#45;&gt;dir_532b0acf66b5d79b872e1c636a87fa36</title>
<path fill="none" stroke="black" d="M402.99,-215.7C392.28,-206.88 379.11,-196.03 367.5,-186.47"/>
<polygon fill="black" stroke="black" points="369.71,-183.76 359.77,-180.1 365.26,-189.16 369.71,-183.76"/>
<g id="a_edge9&#45;headlabel"><a xlink:href="dir_000095_000141.html" target="_top" xlink:title="13">
<text text-anchor="middle" x="374.29" y="-181.35" font-family="Helvetica,sans-Serif" font-size="10.00">13</text>
</a>
</g>
</g>
<!-- dir_8fc3e8efef0bfca4a113d719cbd52afb -->
<g id="node12" class="node">
<title>dir_8fc3e8efef0bfca4a113d719cbd52afb</title>
<g id="a_node12"><a xlink:href="dir_8fc3e8efef0bfca4a113d719cbd52afb.html" target="_top" xlink:title="kratos">
<polygon fill="none" stroke="red" points="456,-36 402,-36 402,0 456,0 456,-36"/>
<text text-anchor="middle" x="429" y="-15.5" font-family="Helvetica,sans-Serif" font-size="10.00">kratos</text>
</a>
</g>
</g>
<!-- dir_2751febf0cf0b73ad642f5078e110c1a&#45;&gt;dir_8fc3e8efef0bfca4a113d719cbd52afb -->
<g id="edge10" class="edge">
<title>dir_2751febf0cf0b73ad642f5078e110c1a&#45;&gt;dir_8fc3e8efef0bfca4a113d719cbd52afb</title>
<path fill="none" stroke="black" d="M424.4,-215.85C425.27,-178.83 427.31,-91.18 428.36,-46.39"/>
<polygon fill="black" stroke="black" points="431.86,-46.31 428.6,-36.23 424.86,-46.15 431.86,-46.31"/>
<g id="a_edge10&#45;headlabel"><a xlink:href="dir_000095_000166.html" target="_top" xlink:title="175">
<text text-anchor="middle" x="434.62" y="-47.47" font-family="Helvetica,sans-Serif" font-size="10.00">175</text>
</a>
</g>
</g>
<!-- dir_1d7efcbcbf95e3ad0a9afcd427a4c832 -->
<g id="node3" class="node">
<title>dir_1d7efcbcbf95e3ad0a9afcd427a4c832</title>
<g id="a_node3"><a xlink:href="dir_1d7efcbcbf95e3ad0a9afcd427a4c832.html" target="_top" xlink:title="custom_conditions">
<polygon fill="white" stroke="black" points="344,-108 246,-108 246,-72 344,-72 344,-108"/>
<text text-anchor="middle" x="295" y="-87.5" font-family="Helvetica,sans-Serif" font-size="10.00">custom_conditions</text>
</a>
</g>
</g>
<!-- dir_1d7efcbcbf95e3ad0a9afcd427a4c832&#45;&gt;dir_532b0acf66b5d79b872e1c636a87fa36 -->
<g id="edge16" class="edge">
<title>dir_1d7efcbcbf95e3ad0a9afcd427a4c832&#45;&gt;dir_532b0acf66b5d79b872e1c636a87fa36</title>
<path fill="none" stroke="black" d="M311.65,-108.1C317.53,-116.13 323.88,-125.87 329.09,-134.8"/>
<polygon fill="black" stroke="black" points="326.12,-136.66 334.04,-143.7 332.23,-133.26 326.12,-136.66"/>
<g id="a_edge16&#45;headlabel"><a xlink:href="dir_000134_000141.html" target="_top" xlink:title="9">
<text text-anchor="middle" x="321.89" y="-132.4" font-family="Helvetica,sans-Serif" font-size="10.00">9</text>
</a>
</g>
</g>
<!-- dir_1d7efcbcbf95e3ad0a9afcd427a4c832&#45;&gt;dir_8fc3e8efef0bfca4a113d719cbd52afb -->
<g id="edge17" class="edge">
<title>dir_1d7efcbcbf95e3ad0a9afcd427a4c832&#45;&gt;dir_8fc3e8efef0bfca4a113d719cbd52afb</title>
<path fill="none" stroke="black" d="M327.69,-71.86C337.44,-66.75 348.15,-61.15 358,-56 369.26,-50.12 381.53,-43.72 392.66,-37.92"/>
<polygon fill="black" stroke="black" points="394.43,-40.94 401.68,-33.22 391.2,-34.73 394.43,-40.94"/>
<g id="a_edge17&#45;headlabel"><a xlink:href="dir_000134_000166.html" target="_top" xlink:title="98">
<text text-anchor="middle" x="392.56" y="-42.62" font-family="Helvetica,sans-Serif" font-size="10.00">98</text>
</a>
</g>
</g>
<!-- dir_6b8efb6030aa495705b54f1df9d6607a -->
<g id="node4" class="node">
<title>dir_6b8efb6030aa495705b54f1df9d6607a</title>
<g id="a_node4"><a xlink:href="dir_6b8efb6030aa495705b54f1df9d6607a.html" target="_top" xlink:title="custom_elements">
<polygon fill="white" stroke="black" points="452,-324 358,-324 358,-288 452,-288 452,-324"/>
<text text-anchor="middle" x="405" y="-303.5" font-family="Helvetica,sans-Serif" font-size="10.00">custom_elements</text>
</a>
</g>
</g>
<!-- dir_6b8efb6030aa495705b54f1df9d6607a&#45;&gt;dir_2751febf0cf0b73ad642f5078e110c1a -->
<g id="edge13" class="edge">
<title>dir_6b8efb6030aa495705b54f1df9d6607a&#45;&gt;dir_2751febf0cf0b73ad642f5078e110c1a</title>
<path fill="none" stroke="black" d="M409.7,-287.7C411.81,-279.9 414.36,-270.51 416.72,-261.83"/>
<polygon fill="black" stroke="black" points="420.12,-262.67 419.36,-252.1 413.36,-260.84 420.12,-262.67"/>
<g id="a_edge13&#45;headlabel"><a xlink:href="dir_000135_000095.html" target="_top" xlink:title="6">
<text text-anchor="middle" x="421.91" y="-264.38" font-family="Helvetica,sans-Serif" font-size="10.00">6</text>
</a>
</g>
</g>
<!-- dir_6b8efb6030aa495705b54f1df9d6607a&#45;&gt;dir_532b0acf66b5d79b872e1c636a87fa36 -->
<g id="edge14" class="edge">
<title>dir_6b8efb6030aa495705b54f1df9d6607a&#45;&gt;dir_532b0acf66b5d79b872e1c636a87fa36</title>
<path fill="none" stroke="black" d="M391.4,-287.59C384.05,-277.59 375.23,-264.55 369,-252 359.12,-232.1 351.26,-208.17 346.06,-190.14"/>
<polygon fill="black" stroke="black" points="349.37,-188.97 343.32,-180.28 342.63,-190.85 349.37,-188.97"/>
<g id="a_edge14&#45;headlabel"><a xlink:href="dir_000135_000141.html" target="_top" xlink:title="8">
<text text-anchor="middle" x="353.07" y="-189.18" font-family="Helvetica,sans-Serif" font-size="10.00">8</text>
</a>
</g>
</g>
<!-- dir_6b8efb6030aa495705b54f1df9d6607a&#45;&gt;dir_8fc3e8efef0bfca4a113d719cbd52afb -->
<g id="edge15" class="edge">
<title>dir_6b8efb6030aa495705b54f1df9d6607a&#45;&gt;dir_8fc3e8efef0bfca4a113d719cbd52afb</title>
<path fill="none" stroke="black" d="M442.39,-287.8C456.54,-279.2 471.13,-267.32 479,-252 514.57,-182.77 470.86,-89.47 445.18,-44.86"/>
<polygon fill="black" stroke="black" points="448.11,-42.93 440.01,-36.1 442.09,-46.49 448.11,-42.93"/>
<g id="a_edge15&#45;headlabel"><a xlink:href="dir_000135_000166.html" target="_top" xlink:title="112">
<text text-anchor="middle" x="452.39" y="-42.08" font-family="Helvetica,sans-Serif" font-size="10.00">112</text>
</a>
</g>
</g>
<!-- dir_d6b1b0f604e7f6f7c9256fadc7747d5d -->
<g id="node5" class="node">
<title>dir_d6b1b0f604e7f6f7c9256fadc7747d5d</title>
<g id="a_node5"><a xlink:href="dir_d6b1b0f604e7f6f7c9256fadc7747d5d.html" target="_top" xlink:title="custom_problemtype">
<polygon fill="white" stroke="black" points="538.5,-396 431.5,-396 431.5,-360 538.5,-360 538.5,-396"/>
<text text-anchor="middle" x="485" y="-375.5" font-family="Helvetica,sans-Serif" font-size="10.00">custom_problemtype</text>
</a>
</g>
</g>
<!-- dir_c661afe93b06e40c8f12bfb640b091e7 -->
<g id="node6" class="node">
<title>dir_c661afe93b06e40c8f12bfb640b091e7</title>
<g id="a_node6"><a xlink:href="dir_c661afe93b06e40c8f12bfb640b091e7.html" target="_top" xlink:title="custom_python">
<polygon fill="white" stroke="black" points="413.5,-396 330.5,-396 330.5,-360 413.5,-360 413.5,-396"/>
<text text-anchor="middle" x="372" y="-375.5" font-family="Helvetica,sans-Serif" font-size="10.00">custom_python</text>
</a>
</g>
</g>
<!-- dir_c661afe93b06e40c8f12bfb640b091e7&#45;&gt;dir_2751febf0cf0b73ad642f5078e110c1a -->
<g id="edge2" class="edge">
<title>dir_c661afe93b06e40c8f12bfb640b091e7&#45;&gt;dir_2751febf0cf0b73ad642f5078e110c1a</title>
<path fill="none" stroke="black" d="M413.96,-362.84C431.78,-354.5 450.78,-341.98 461,-324 472.69,-303.44 460.19,-278.45 446.65,-260.19"/>
<polygon fill="black" stroke="black" points="449.38,-258 440.44,-252.31 443.88,-262.33 449.38,-258"/>
<g id="a_edge2&#45;headlabel"><a xlink:href="dir_000009_000095.html" target="_top" xlink:title="14">
<text text-anchor="middle" x="453.83" y="-256.56" font-family="Helvetica,sans-Serif" font-size="10.00">14</text>
</a>
</g>
</g>
<!-- dir_c661afe93b06e40c8f12bfb640b091e7&#45;&gt;dir_1d7efcbcbf95e3ad0a9afcd427a4c832 -->
<g id="edge1" class="edge">
<title>dir_c661afe93b06e40c8f12bfb640b091e7&#45;&gt;dir_1d7efcbcbf95e3ad0a9afcd427a4c832</title>
<path fill="none" stroke="black" d="M334.78,-360C296.45,-340.19 238.91,-303.48 214,-252 190.34,-203.11 236.01,-146.5 267.86,-115.11"/>
<polygon fill="black" stroke="black" points="270.42,-117.52 275.22,-108.07 265.57,-112.46 270.42,-117.52"/>
<g id="a_edge1&#45;headlabel"><a xlink:href="dir_000009_000134.html" target="_top" xlink:title="1">
<text text-anchor="middle" x="269.79" y="-119.55" font-family="Helvetica,sans-Serif" font-size="10.00">1</text>
</a>
</g>
</g>
<!-- dir_c661afe93b06e40c8f12bfb640b091e7&#45;&gt;dir_6b8efb6030aa495705b54f1df9d6607a -->
<g id="edge4" class="edge">
<title>dir_c661afe93b06e40c8f12bfb640b091e7&#45;&gt;dir_6b8efb6030aa495705b54f1df9d6607a</title>
<path fill="none" stroke="black" d="M380.16,-359.7C383.91,-351.73 388.45,-342.1 392.62,-333.26"/>
<polygon fill="black" stroke="black" points="395.84,-334.64 396.94,-324.1 389.51,-331.66 395.84,-334.64"/>
<g id="a_edge4&#45;headlabel"><a xlink:href="dir_000009_000135.html" target="_top" xlink:title="1">
<text text-anchor="middle" x="396.87" y="-336.6" font-family="Helvetica,sans-Serif" font-size="10.00">1</text>
</a>
</g>
</g>
<!-- dir_bc2fe0d635ebb09283c8b9eb1131e337 -->
<g id="node7" class="node">
<title>dir_bc2fe0d635ebb09283c8b9eb1131e337</title>
<g id="a_node7"><a xlink:href="dir_bc2fe0d635ebb09283c8b9eb1131e337.html" target="_top" xlink:title="custom_strategies">
<polygon fill="white" stroke="red" points="319.5,-252 222.5,-252 222.5,-216 319.5,-216 319.5,-252"/>
<text text-anchor="middle" x="271" y="-231.5" font-family="Helvetica,sans-Serif" font-size="10.00">custom_strategies</text>
</a>
</g>
</g>
<!-- dir_c661afe93b06e40c8f12bfb640b091e7&#45;&gt;dir_bc2fe0d635ebb09283c8b9eb1131e337 -->
<g id="edge6" class="edge">
<title>dir_c661afe93b06e40c8f12bfb640b091e7&#45;&gt;dir_bc2fe0d635ebb09283c8b9eb1131e337</title>
<path fill="none" stroke="black" d="M359.65,-359.83C352.21,-349.47 342.54,-335.99 334,-324 318.71,-302.53 301.42,-278.1 288.82,-260.26"/>
<polygon fill="black" stroke="black" points="291.67,-258.23 283.05,-252.08 285.96,-262.27 291.67,-258.23"/>
<g id="a_edge6&#45;headlabel"><a xlink:href="dir_000009_000136.html" target="_top" xlink:title="10">
<text text-anchor="middle" x="296.07" y="-257.03" font-family="Helvetica,sans-Serif" font-size="10.00">10</text>
</a>
</g>
</g>
<!-- dir_c661afe93b06e40c8f12bfb640b091e7&#45;&gt;dir_532b0acf66b5d79b872e1c636a87fa36 -->
<g id="edge3" class="edge">
<title>dir_c661afe93b06e40c8f12bfb640b091e7&#45;&gt;dir_532b0acf66b5d79b872e1c636a87fa36</title>
<path fill="none" stroke="black" d="M362.75,-359.86C357.75,-349.73 352,-336.48 349,-324 337.95,-278.01 337.13,-222.62 337.85,-190.25"/>
<polygon fill="black" stroke="black" points="341.35,-190.3 338.14,-180.21 334.35,-190.1 341.35,-190.3"/>
<g id="a_edge3&#45;headlabel"><a xlink:href="dir_000009_000141.html" target="_top" xlink:title="11">
<text text-anchor="middle" x="344.08" y="-191.48" font-family="Helvetica,sans-Serif" font-size="10.00">11</text>
</a>
</g>
</g>
<!-- dir_c661afe93b06e40c8f12bfb640b091e7&#45;&gt;dir_8fc3e8efef0bfca4a113d719cbd52afb -->
<g id="edge5" class="edge">
<title>dir_c661afe93b06e40c8f12bfb640b091e7&#45;&gt;dir_8fc3e8efef0bfca4a113d719cbd52afb</title>
<path fill="none" stroke="black" d="M413.81,-361.91C462.4,-341.37 536,-299.59 536,-235 536,-235 536,-235 536,-161 536,-111.13 493.38,-67.65 461.94,-42.35"/>
<polygon fill="black" stroke="black" points="463.85,-39.41 453.82,-36.02 459.55,-44.93 463.85,-39.41"/>
<g id="a_edge5&#45;headlabel"><a xlink:href="dir_000009_000166.html" target="_top" xlink:title="41">
<text text-anchor="middle" x="468.44" y="-36.88" font-family="Helvetica,sans-Serif" font-size="10.00">41</text>
</a>
</g>
</g>
<!-- dir_bc2fe0d635ebb09283c8b9eb1131e337&#45;&gt;dir_1d7efcbcbf95e3ad0a9afcd427a4c832 -->
<g id="edge8" class="edge">
<title>dir_bc2fe0d635ebb09283c8b9eb1131e337&#45;&gt;dir_1d7efcbcbf95e3ad0a9afcd427a4c832</title>
<path fill="none" stroke="black" d="M273.89,-215.87C277.99,-191.67 285.5,-147.21 290.37,-118.39"/>
<polygon fill="black" stroke="black" points="293.88,-118.63 292.09,-108.19 286.98,-117.47 293.88,-118.63"/>
<g id="a_edge8&#45;headlabel"><a xlink:href="dir_000136_000134.html" target="_top" xlink:title="7">
<text text-anchor="middle" x="296.08" y="-120.15" font-family="Helvetica,sans-Serif" font-size="10.00">7</text>
</a>
</g>
</g>
<!-- dir_bc2fe0d635ebb09283c8b9eb1131e337&#45;&gt;dir_8fc3e8efef0bfca4a113d719cbd52afb -->
<g id="edge7" class="edge">
<title>dir_bc2fe0d635ebb09283c8b9eb1131e337&#45;&gt;dir_8fc3e8efef0bfca4a113d719cbd52afb</title>
<path fill="none" stroke="black" d="M319.72,-222.49C344.46,-214.73 373.02,-201.63 391,-180 399.54,-169.72 415.75,-89.26 423.96,-46.12"/>
<polygon fill="black" stroke="black" points="427.41,-46.75 425.82,-36.27 420.53,-45.45 427.41,-46.75"/>
<g id="a_edge7&#45;headlabel"><a xlink:href="dir_000136_000166.html" target="_top" xlink:title="59">
<text text-anchor="middle" x="429.53" y="-48.31" font-family="Helvetica,sans-Serif" font-size="10.00">59</text>
</a>
</g>
</g>
<!-- dir_532b0acf66b5d79b872e1c636a87fa36&#45;&gt;dir_1d7efcbcbf95e3ad0a9afcd427a4c832 -->
<g id="edge11" class="edge">
<title>dir_532b0acf66b5d79b872e1c636a87fa36&#45;&gt;dir_1d7efcbcbf95e3ad0a9afcd427a4c832</title>
<path fill="none" stroke="black" d="M322.21,-143.7C316.32,-135.64 309.98,-125.89 304.79,-116.98"/>
<polygon fill="black" stroke="black" points="307.77,-115.15 299.86,-108.1 301.65,-118.55 307.77,-115.15"/>
<g id="a_edge11&#45;headlabel"><a xlink:href="dir_000141_000134.html" target="_top" xlink:title="1">
<text text-anchor="middle" x="312" y="-114.41" font-family="Helvetica,sans-Serif" font-size="10.00">1</text>
</a>
</g>
</g>
<!-- dir_532b0acf66b5d79b872e1c636a87fa36&#45;&gt;dir_8fc3e8efef0bfca4a113d719cbd52afb -->
<g id="edge12" class="edge">
<title>dir_532b0acf66b5d79b872e1c636a87fa36&#45;&gt;dir_8fc3e8efef0bfca4a113d719cbd52afb</title>
<path fill="none" stroke="black" d="M346.76,-143.93C356.8,-122.55 375.48,-85.18 396,-56 398.82,-51.99 402.02,-47.93 405.3,-44.04"/>
<polygon fill="black" stroke="black" points="408.05,-46.2 412.01,-36.37 402.79,-41.59 408.05,-46.2"/>
<g id="a_edge12&#45;headlabel"><a xlink:href="dir_000141_000166.html" target="_top" xlink:title="72">
<text text-anchor="middle" x="407.82" y="-48.27" font-family="Helvetica,sans-Serif" font-size="10.00">72</text>
</a>
</g>
</g>
<!-- dir_f7496428e6e2235dea1db7a0c849301d -->
<g id="node9" class="node">
<title>dir_f7496428e6e2235dea1db7a0c849301d</title>
<g id="a_node9"><a xlink:href="dir_f7496428e6e2235dea1db7a0c849301d.html" target="_top" xlink:title="external_includes">
<polygon fill="white" stroke="black" points="312,-396 220,-396 220,-360 312,-360 312,-396"/>
<text text-anchor="middle" x="266" y="-375.5" font-family="Helvetica,sans-Serif" font-size="10.00">external_includes</text>
</a>
</g>
</g>
<!-- dir_59f58147c73149988d8d2094bc679029 -->
<g id="node10" class="node">
<title>dir_59f58147c73149988d8d2094bc679029</title>
<g id="a_node10"><a xlink:href="dir_59f58147c73149988d8d2094bc679029.html" target="_top" xlink:title="python_scripts">
<polygon fill="white" stroke="black" points="202,-396 122,-396 122,-360 202,-360 202,-396"/>
<text text-anchor="middle" x="162" y="-375.5" font-family="Helvetica,sans-Serif" font-size="10.00">python_scripts</text>
</a>
</g>
</g>
<!-- dir_b9684a773ddc2a0c818196883b137740 -->
<g id="node11" class="node">
<title>dir_b9684a773ddc2a0c818196883b137740</title>
<g id="a_node11"><a xlink:href="dir_b9684a773ddc2a0c818196883b137740.html" target="_top" xlink:title="test_examples">
<polygon fill="white" stroke="red" points="104,-396 24,-396 24,-360 104,-360 104,-396"/>
<text text-anchor="middle" x="64" y="-375.5" font-family="Helvetica,sans-Serif" font-size="10.00">test_examples</text>
</a>
</g>
</g>
</g>
</svg>
