<?xml version="1.0" encoding="UTF-8" standalone="no"?>
<!DOCTYPE svg PUBLIC "-//W3C//DTD SVG 1.1//EN"
 "http://www.w3.org/Graphics/SVG/1.1/DTD/svg11.dtd">
<!-- Generated by graphviz version 2.48.0 (20210719.0153)
 -->
<!-- Title: /github/workspace/kratos/python Pages: 1 -->
<!--zoomable 527 -->
<svg id="main" version="1.1" xmlns="http://www.w3.org/2000/svg" xmlns:xlink="http://www.w3.org/1999/xlink" xml:space="preserve" onload="init(evt)">
<style type="text/css"><![CDATA[
.edge:hover path { stroke: red; }
.edge:hover polygon { stroke: red; fill: red; }
]]></style>
<script type="text/javascript"><![CDATA[
var edges = document.getElementsByTagName('g');
if (edges && edges.length) {
  for (var i=0;i<edges.length;i++) {
    if (edges[i].id.substr(0,4)=='edge') {
      edges[i].setAttribute('class','edge');
    }
  }
}
]]></script>
        <defs>
                <circle id="rim" cx="0" cy="0" r="7"/>
                <circle id="rim2" cx="0" cy="0" r="3.5"/>
                <g id="zoomPlus">
                        <use xlink:href="#rim" fill="#404040">
                                <set attributeName="fill" to="#808080" begin="zoomplus.mouseover" end="zoomplus.mouseout"/>
                        </use>
                        <path d="M-4,0h8M0,-4v8" fill="none" stroke="white" stroke-width="1.5" pointer-events="none"/>
                </g>
                <g id="zoomMin">
                        <use xlink:href="#rim" fill="#404040">
                                <set attributeName="fill" to="#808080" begin="zoomminus.mouseover" end="zoomminus.mouseout"/>
                        </use>
                        <path d="M-4,0h8" fill="none" stroke="white" stroke-width="1.5" pointer-events="none"/>
                </g>
                <g id="dirArrow">
                        <path fill="none" stroke="white" stroke-width="1.5" d="M0,-3.0v7 M-2.5,-0.5L0,-3.0L2.5,-0.5"/>
                </g>
               <g id="resetDef">
                       <use xlink:href="#rim2" fill="#404040">
                               <set attributeName="fill" to="#808080" begin="reset.mouseover" end="reset.mouseout"/>
                       </use>
               </g>
        </defs>

<script type="text/javascript">
var viewWidth = 472;
var viewHeight = 527;
var sectionId = 'dynsection-0';
</script>
<script xlink:href="svgpan.js"/>
<svg id="graph" class="graph">
<g id="viewport">
<title>/github/workspace/kratos/python</title>
<g id="clust1" class="cluster">
<title>clusterdir_8fc3e8efef0bfca4a113d719cbd52afb</title>
<g id="a_clust1"><a xlink:href="dir_8fc3e8efef0bfca4a113d719cbd52afb.html" target="_top" xlink:title="kratos">
<polygon fill="#ddddee" stroke="black" points="8,-8 8,-511 456,-511 456,-8 8,-8"/>
<text text-anchor="middle" x="232" y="-499" font-family="Helvetica,sans-Serif" font-size="10.00">kratos</text>
</a>
</g>
</g>
<!-- dir_0f2a41a65b424fb18d66414e7dff174e -->
<g id="node1" class="node">
<title>dir_0f2a41a65b424fb18d66414e7dff174e</title>
<g id="a_node1"><a xlink:href="dir_0f2a41a65b424fb18d66414e7dff174e.html" target="_top" xlink:title="linear_solvers">
<polygon fill="none" stroke="black" points="407.5,-340 330.5,-340 330.5,-304 407.5,-304 407.5,-340"/>
<text text-anchor="middle" x="369" y="-319.5" font-family="Helvetica,sans-Serif" font-size="10.00">linear_solvers</text>
</a>
</g>
</g>
<!-- dir_6da2b5da699b6e8099c18b866a052d71 -->
<g id="node3" class="node">
<title>dir_6da2b5da699b6e8099c18b866a052d71</title>
<g id="a_node3"><a xlink:href="dir_6da2b5da699b6e8099c18b866a052d71.html" target="_top" xlink:title="includes">
<polygon fill="none" stroke="black" points="224,-268 170,-268 170,-232 224,-232 224,-268"/>
<text text-anchor="middle" x="197" y="-247.5" font-family="Helvetica,sans-Serif" font-size="10.00">includes</text>
</a>
</g>
</g>
<!-- dir_0f2a41a65b424fb18d66414e7dff174e&#45;&gt;dir_6da2b5da699b6e8099c18b866a052d71 -->
<g id="edge9" class="edge">
<title>dir_0f2a41a65b424fb18d66414e7dff174e&#45;&gt;dir_6da2b5da699b6e8099c18b866a052d71</title>
<path fill="none" stroke="black" d="M330.4,-305.29C301.52,-293.54 262.26,-277.56 233.82,-265.98"/>
<polygon fill="black" stroke="black" points="234.82,-262.61 224.24,-262.09 232.18,-269.1 234.82,-262.61"/>
<g id="a_edge9&#45;headlabel"><a xlink:href="dir_000173_000171.html" target="_top" xlink:title="17">
<text text-anchor="middle" x="239.22" y="-258.84" font-family="Helvetica,sans-Serif" font-size="10.00">17</text>
</a>
</g>
</g>
<!-- dir_70f98bb657cca0a872199855cac08757 -->
<g id="node4" class="node">
<title>dir_70f98bb657cca0a872199855cac08757</title>
<g id="a_node4"><a xlink:href="dir_70f98bb657cca0a872199855cac08757.html" target="_top" xlink:title="utilities">
<polygon fill="none" stroke="black" points="300,-52 246,-52 246,-16 300,-16 300,-52"/>
<text text-anchor="middle" x="273" y="-31.5" font-family="Helvetica,sans-Serif" font-size="10.00">utilities</text>
</a>
</g>
</g>
<!-- dir_0f2a41a65b424fb18d66414e7dff174e&#45;&gt;dir_70f98bb657cca0a872199855cac08757 -->
<g id="edge10" class="edge">
<title>dir_0f2a41a65b424fb18d66414e7dff174e&#45;&gt;dir_70f98bb657cca0a872199855cac08757</title>
<path fill="none" stroke="black" d="M363.28,-303.97C347.21,-256.09 301.55,-120.06 282.03,-61.9"/>
<polygon fill="black" stroke="black" points="285.31,-60.67 278.81,-52.31 278.67,-62.9 285.31,-60.67"/>
<g id="a_edge10&#45;headlabel"><a xlink:href="dir_000173_000185.html" target="_top" xlink:title="1">
<text text-anchor="middle" x="289.14" y="-60.68" font-family="Helvetica,sans-Serif" font-size="10.00">1</text>
</a>
</g>
</g>
<!-- dir_284380e5d82f3d5daa019a960ca10e8d -->
<g id="node2" class="node">
<title>dir_284380e5d82f3d5daa019a960ca10e8d</title>
<g id="a_node2"><a xlink:href="dir_284380e5d82f3d5daa019a960ca10e8d.html" target="_top" xlink:title="equation_systems">
<polygon fill="none" stroke="black" points="131.5,-340 36.5,-340 36.5,-304 131.5,-304 131.5,-340"/>
<text text-anchor="middle" x="84" y="-319.5" font-family="Helvetica,sans-Serif" font-size="10.00">equation_systems</text>
</a>
</g>
</g>
<!-- dir_284380e5d82f3d5daa019a960ca10e8d&#45;&gt;dir_6da2b5da699b6e8099c18b866a052d71 -->
<g id="edge6" class="edge">
<title>dir_284380e5d82f3d5daa019a960ca10e8d&#45;&gt;dir_6da2b5da699b6e8099c18b866a052d71</title>
<path fill="none" stroke="black" d="M111.64,-303.88C126.53,-294.66 145.07,-283.17 161.06,-273.26"/>
<polygon fill="black" stroke="black" points="162.98,-276.19 169.64,-267.95 159.3,-270.24 162.98,-276.19"/>
<g id="a_edge6&#45;headlabel"><a xlink:href="dir_000169_000171.html" target="_top" xlink:title="2">
<text text-anchor="middle" x="161.42" y="-278" font-family="Helvetica,sans-Serif" font-size="10.00">2</text>
</a>
</g>
</g>
<!-- dir_284380e5d82f3d5daa019a960ca10e8d&#45;&gt;dir_70f98bb657cca0a872199855cac08757 -->
<g id="edge7" class="edge">
<title>dir_284380e5d82f3d5daa019a960ca10e8d&#45;&gt;dir_70f98bb657cca0a872199855cac08757</title>
<path fill="none" stroke="black" d="M77.61,-303.89C63.22,-262.12 33.22,-153.56 83,-88 101.41,-63.75 185.95,-47.61 235.84,-40.02"/>
<polygon fill="black" stroke="black" points="236.54,-43.46 245.92,-38.53 235.52,-36.53 236.54,-43.46"/>
<g id="a_edge7&#45;headlabel"><a xlink:href="dir_000169_000185.html" target="_top" xlink:title="2">
<text text-anchor="middle" x="233.4" y="-44.29" font-family="Helvetica,sans-Serif" font-size="10.00">2</text>
</a>
</g>
</g>
<!-- dir_80b24cd11685060440d77842b83d8f07 -->
<g id="node5" class="node">
<title>dir_80b24cd11685060440d77842b83d8f07</title>
<g id="a_node5"><a xlink:href="dir_80b24cd11685060440d77842b83d8f07.html" target="_top" xlink:title="containers">
<polygon fill="none" stroke="black" points="154,-124 92,-124 92,-88 154,-88 154,-124"/>
<text text-anchor="middle" x="123" y="-103.5" font-family="Helvetica,sans-Serif" font-size="10.00">containers</text>
</a>
</g>
</g>
<!-- dir_284380e5d82f3d5daa019a960ca10e8d&#45;&gt;dir_80b24cd11685060440d77842b83d8f07 -->
<g id="edge8" class="edge">
<title>dir_284380e5d82f3d5daa019a960ca10e8d&#45;&gt;dir_80b24cd11685060440d77842b83d8f07</title>
<path fill="none" stroke="black" d="M87.13,-303.85C93.89,-266.75 109.91,-178.81 118.06,-134.1"/>
<polygon fill="black" stroke="black" points="121.51,-134.7 119.86,-124.23 114.62,-133.44 121.51,-134.7"/>
<g id="a_edge8&#45;headlabel"><a xlink:href="dir_000169_000167.html" target="_top" xlink:title="2">
<text text-anchor="middle" x="123.66" y="-136.24" font-family="Helvetica,sans-Serif" font-size="10.00">2</text>
</a>
</g>
</g>
<!-- dir_6da2b5da699b6e8099c18b866a052d71&#45;&gt;dir_70f98bb657cca0a872199855cac08757 -->
<g id="edge28" class="edge">
<title>dir_6da2b5da699b6e8099c18b866a052d71&#45;&gt;dir_70f98bb657cca0a872199855cac08757</title>
<path fill="none" stroke="black" d="M207.4,-231.87C215.84,-222.16 226.85,-209.31 234,-196 257.06,-153.06 262.69,-95.42 266.6,-62.03"/>
<polygon fill="black" stroke="black" points="270.07,-62.45 267.82,-52.1 263.12,-61.59 270.07,-62.45"/>
<g id="a_edge28&#45;headlabel"><a xlink:href="dir_000171_000185.html" target="_top" xlink:title="5">
<text text-anchor="middle" x="272.45" y="-63.86" font-family="Helvetica,sans-Serif" font-size="10.00">5</text>
</a>
</g>
</g>
<!-- dir_6da2b5da699b6e8099c18b866a052d71&#45;&gt;dir_80b24cd11685060440d77842b83d8f07 -->
<g id="edge29" class="edge">
<title>dir_6da2b5da699b6e8099c18b866a052d71&#45;&gt;dir_80b24cd11685060440d77842b83d8f07</title>
<path fill="none" stroke="black" d="M172.69,-231.97C162.8,-222.08 152.27,-209.04 145,-196 134.08,-176.41 125.97,-152.27 122.17,-134.08"/>
<polygon fill="black" stroke="black" points="125.6,-133.39 120.44,-124.14 118.7,-134.59 125.6,-133.39"/>
<g id="a_edge29&#45;headlabel"><a xlink:href="dir_000171_000167.html" target="_top" xlink:title="25">
<text text-anchor="middle" x="129.01" y="-133.95" font-family="Helvetica,sans-Serif" font-size="10.00">25</text>
</a>
</g>
</g>
<!-- dir_9311051b33dbe6b2e08fc45590134e6c -->
<g id="node6" class="node">
<title>dir_9311051b33dbe6b2e08fc45590134e6c</title>
<g id="a_node6"><a xlink:href="dir_9311051b33dbe6b2e08fc45590134e6c.html" target="_top" xlink:title="geometries">
<polygon fill="none" stroke="black" points="227.5,-196 162.5,-196 162.5,-160 227.5,-160 227.5,-196"/>
<text text-anchor="middle" x="195" y="-175.5" font-family="Helvetica,sans-Serif" font-size="10.00">geometries</text>
</a>
</g>
</g>
<!-- dir_6da2b5da699b6e8099c18b866a052d71&#45;&gt;dir_9311051b33dbe6b2e08fc45590134e6c -->
<g id="edge30" class="edge">
<title>dir_6da2b5da699b6e8099c18b866a052d71&#45;&gt;dir_9311051b33dbe6b2e08fc45590134e6c</title>
<path fill="none" stroke="black" d="M190.59,-231.7C189.57,-223.98 189.08,-214.71 189.18,-206.11"/>
<polygon fill="black" stroke="black" points="192.68,-206.24 189.59,-196.1 185.68,-205.95 192.68,-206.24"/>
<g id="a_edge30&#45;headlabel"><a xlink:href="dir_000171_000170.html" target="_top" xlink:title="9">
<text text-anchor="middle" x="195.37" y="-207.45" font-family="Helvetica,sans-Serif" font-size="10.00">9</text>
</a>
</g>
</g>
<!-- dir_70f98bb657cca0a872199855cac08757&#45;&gt;dir_6da2b5da699b6e8099c18b866a052d71 -->
<g id="edge26" class="edge">
<title>dir_70f98bb657cca0a872199855cac08757&#45;&gt;dir_6da2b5da699b6e8099c18b866a052d71</title>
<path fill="none" stroke="black" d="M278.46,-52.1C281.71,-82.77 277.56,-148.41 252,-196 246.47,-206.29 238.63,-216.31 230.51,-224.82"/>
<polygon fill="black" stroke="black" points="228.02,-222.36 223.35,-231.87 232.93,-227.35 228.02,-222.36"/>
<g id="a_edge26&#45;headlabel"><a xlink:href="dir_000185_000171.html" target="_top" xlink:title="12">
<text text-anchor="middle" x="228.58" y="-215.32" font-family="Helvetica,sans-Serif" font-size="10.00">12</text>
</a>
</g>
</g>
<!-- dir_80b24cd11685060440d77842b83d8f07&#45;&gt;dir_6da2b5da699b6e8099c18b866a052d71 -->
<g id="edge1" class="edge">
<title>dir_80b24cd11685060440d77842b83d8f07&#45;&gt;dir_6da2b5da699b6e8099c18b866a052d71</title>
<path fill="none" stroke="black" d="M133.71,-124.14C140.89,-142.63 149.94,-172.56 163,-196 168.45,-205.78 175.74,-215.56 182.31,-224.01"/>
<polygon fill="black" stroke="black" points="179.62,-226.26 188.55,-231.97 185.13,-221.94 179.62,-226.26"/>
<g id="a_edge1&#45;headlabel"><a xlink:href="dir_000167_000171.html" target="_top" xlink:title="24">
<text text-anchor="middle" x="175.17" y="-222.68" font-family="Helvetica,sans-Serif" font-size="10.00">24</text>
</a>
</g>
</g>
<!-- dir_80b24cd11685060440d77842b83d8f07&#45;&gt;dir_70f98bb657cca0a872199855cac08757 -->
<g id="edge2" class="edge">
<title>dir_80b24cd11685060440d77842b83d8f07&#45;&gt;dir_70f98bb657cca0a872199855cac08757</title>
<path fill="none" stroke="black" d="M154.08,-90.5C178.12,-79.28 211.47,-63.71 236.73,-51.92"/>
<polygon fill="black" stroke="black" points="238.4,-55.01 245.98,-47.61 235.44,-48.67 238.4,-55.01"/>
<g id="a_edge2&#45;headlabel"><a xlink:href="dir_000167_000185.html" target="_top" xlink:title="1">
<text text-anchor="middle" x="236.34" y="-56.6" font-family="Helvetica,sans-Serif" font-size="10.00">1</text>
</a>
</g>
</g>
<!-- dir_9311051b33dbe6b2e08fc45590134e6c&#45;&gt;dir_6da2b5da699b6e8099c18b866a052d71 -->
<g id="edge31" class="edge">
<title>dir_9311051b33dbe6b2e08fc45590134e6c&#45;&gt;dir_6da2b5da699b6e8099c18b866a052d71</title>
<path fill="none" stroke="black" d="M201.38,-196.1C202.41,-203.79 202.91,-213.05 202.82,-221.67"/>
<polygon fill="black" stroke="black" points="199.32,-221.56 202.42,-231.7 206.32,-221.84 199.32,-221.56"/>
<g id="a_edge31&#45;headlabel"><a xlink:href="dir_000170_000171.html" target="_top" xlink:title="27">
<text text-anchor="middle" x="196.63" y="-215.36" font-family="Helvetica,sans-Serif" font-size="10.00">27</text>
</a>
</g>
</g>
<!-- dir_9311051b33dbe6b2e08fc45590134e6c&#45;&gt;dir_70f98bb657cca0a872199855cac08757 -->
<g id="edge32" class="edge">
<title>dir_9311051b33dbe6b2e08fc45590134e6c&#45;&gt;dir_70f98bb657cca0a872199855cac08757</title>
<path fill="none" stroke="black" d="M186.69,-159.72C178.91,-140.85 170.23,-110.33 183,-88 194.39,-68.07 216.53,-54.89 236,-46.66"/>
<polygon fill="black" stroke="black" points="237.54,-49.81 245.57,-42.9 234.98,-43.29 237.54,-49.81"/>
<g id="a_edge32&#45;headlabel"><a xlink:href="dir_000170_000185.html" target="_top" xlink:title="8">
<text text-anchor="middle" x="235.23" y="-51.27" font-family="Helvetica,sans-Serif" font-size="10.00">8</text>
</a>
</g>
</g>
<!-- dir_9311051b33dbe6b2e08fc45590134e6c&#45;&gt;dir_80b24cd11685060440d77842b83d8f07 -->
<g id="edge33" class="edge">
<title>dir_9311051b33dbe6b2e08fc45590134e6c&#45;&gt;dir_80b24cd11685060440d77842b83d8f07</title>
<path fill="none" stroke="black" d="M177.2,-159.7C168.4,-151.14 157.62,-140.66 148,-131.3"/>
<polygon fill="black" stroke="black" points="150.2,-128.57 140.59,-124.1 145.32,-133.58 150.2,-128.57"/>
<g id="a_edge33&#45;headlabel"><a xlink:href="dir_000170_000167.html" target="_top" xlink:title="3">
<text text-anchor="middle" x="154.76" y="-126.54" font-family="Helvetica,sans-Serif" font-size="10.00">3</text>
</a>
</g>
</g>
<!-- dir_c355b57f6366379069072c1ec6b3b5e6 -->
<g id="node8" class="node">
<title>dir_c355b57f6366379069072c1ec6b3b5e6</title>
<g id="a_node8"><a xlink:href="dir_c355b57f6366379069072c1ec6b3b5e6.html" target="_top" xlink:title="integration">
<polygon fill="none" stroke="black" points="254,-124 192,-124 192,-88 254,-88 254,-124"/>
<text text-anchor="middle" x="223" y="-103.5" font-family="Helvetica,sans-Serif" font-size="10.00">integration</text>
</a>
</g>
</g>
<!-- dir_9311051b33dbe6b2e08fc45590134e6c&#45;&gt;dir_c355b57f6366379069072c1ec6b3b5e6 -->
<g id="edge34" class="edge">
<title>dir_9311051b33dbe6b2e08fc45590134e6c&#45;&gt;dir_c355b57f6366379069072c1ec6b3b5e6</title>
<path fill="none" stroke="black" d="M196.01,-159.7C198.37,-151.73 202.01,-142.1 205.93,-133.26"/>
<polygon fill="black" stroke="black" points="209.16,-134.64 210.26,-124.1 202.83,-131.65 209.16,-134.64"/>
<g id="a_edge34&#45;headlabel"><a xlink:href="dir_000170_000172.html" target="_top" xlink:title="46">
<text text-anchor="middle" x="210.19" y="-136.6" font-family="Helvetica,sans-Serif" font-size="10.00">46</text>
</a>
</g>
</g>
<!-- dir_bd2ce17ba33a86142a4fe49271950777 -->
<g id="node7" class="node">
<title>dir_bd2ce17ba33a86142a4fe49271950777</title>
<g id="a_node7"><a xlink:href="dir_bd2ce17ba33a86142a4fe49271950777.html" target="_top" xlink:title="spaces">
<polygon fill="none" stroke="black" points="213,-412 159,-412 159,-376 213,-376 213,-412"/>
<text text-anchor="middle" x="186" y="-391.5" font-family="Helvetica,sans-Serif" font-size="10.00">spaces</text>
</a>
</g>
</g>
<!-- dir_bd2ce17ba33a86142a4fe49271950777&#45;&gt;dir_6da2b5da699b6e8099c18b866a052d71 -->
<g id="edge27" class="edge">
<title>dir_bd2ce17ba33a86142a4fe49271950777&#45;&gt;dir_6da2b5da699b6e8099c18b866a052d71</title>
<path fill="none" stroke="black" d="M184.97,-375.89C184.12,-357.93 183.44,-328.9 186,-304 186.88,-295.46 188.53,-286.26 190.29,-277.96"/>
<polygon fill="black" stroke="black" points="193.74,-278.57 192.54,-268.05 186.92,-277.03 193.74,-278.57"/>
<g id="a_edge27&#45;headlabel"><a xlink:href="dir_000184_000171.html" target="_top" xlink:title="8">
<text text-anchor="middle" x="195.72" y="-280.21" font-family="Helvetica,sans-Serif" font-size="10.00">8</text>
</a>
</g>
</g>
<!-- dir_c355b57f6366379069072c1ec6b3b5e6&#45;&gt;dir_6da2b5da699b6e8099c18b866a052d71 -->
<g id="edge24" class="edge">
<title>dir_c355b57f6366379069072c1ec6b3b5e6&#45;&gt;dir_6da2b5da699b6e8099c18b866a052d71</title>
<path fill="none" stroke="black" d="M230.41,-124.13C237.21,-142.35 245.1,-171.83 237,-196 233.65,-206 227.58,-215.62 221.17,-223.86"/>
<polygon fill="black" stroke="black" points="218.44,-221.67 214.73,-231.6 223.82,-226.15 218.44,-221.67"/>
<g id="a_edge24&#45;headlabel"><a xlink:href="dir_000172_000171.html" target="_top" xlink:title="8">
<text text-anchor="middle" x="218.56" y="-214.59" font-family="Helvetica,sans-Serif" font-size="10.00">8</text>
</a>
</g>
</g>
<!-- dir_c355b57f6366379069072c1ec6b3b5e6&#45;&gt;dir_9311051b33dbe6b2e08fc45590134e6c -->
<g id="edge25" class="edge">
<title>dir_c355b57f6366379069072c1ec6b3b5e6&#45;&gt;dir_9311051b33dbe6b2e08fc45590134e6c</title>
<path fill="none" stroke="black" d="M222.05,-124.1C219.71,-132.04 216.09,-141.67 212.16,-150.51"/>
<polygon fill="black" stroke="black" points="208.93,-149.16 207.84,-159.7 215.27,-152.14 208.93,-149.16"/>
<g id="a_edge25&#45;headlabel"><a xlink:href="dir_000172_000170.html" target="_top" xlink:title="1">
<text text-anchor="middle" x="207.9" y="-142.2" font-family="Helvetica,sans-Serif" font-size="10.00">1</text>
</a>
</g>
</g>
<!-- dir_c7c5f3eb57bf72689def995461ffc148 -->
<g id="node9" class="node">
<title>dir_c7c5f3eb57bf72689def995461ffc148</title>
<g id="a_node9"><a xlink:href="dir_c7c5f3eb57bf72689def995461ffc148.html" target="_top" xlink:title="processes">
<polygon fill="none" stroke="black" points="272,-340 210,-340 210,-304 272,-304 272,-340"/>
<text text-anchor="middle" x="241" y="-319.5" font-family="Helvetica,sans-Serif" font-size="10.00">processes</text>
</a>
</g>
</g>
<!-- dir_c7c5f3eb57bf72689def995461ffc148&#45;&gt;dir_6da2b5da699b6e8099c18b866a052d71 -->
<g id="edge11" class="edge">
<title>dir_c7c5f3eb57bf72689def995461ffc148&#45;&gt;dir_6da2b5da699b6e8099c18b866a052d71</title>
<path fill="none" stroke="black" d="M230.12,-303.7C225.01,-295.56 218.8,-285.69 213.16,-276.7"/>
<polygon fill="black" stroke="black" points="216.04,-274.71 207.75,-268.1 210.11,-278.43 216.04,-274.71"/>
<g id="a_edge11&#45;headlabel"><a xlink:href="dir_000175_000171.html" target="_top" xlink:title="16">
<text text-anchor="middle" x="220.35" y="-273.74" font-family="Helvetica,sans-Serif" font-size="10.00">16</text>
</a>
</g>
</g>
<!-- dir_c7c5f3eb57bf72689def995461ffc148&#45;&gt;dir_70f98bb657cca0a872199855cac08757 -->
<g id="edge12" class="edge">
<title>dir_c7c5f3eb57bf72689def995461ffc148&#45;&gt;dir_70f98bb657cca0a872199855cac08757</title>
<path fill="none" stroke="black" d="M244.71,-303.99C251.92,-269.99 267.58,-191.18 273,-124 274.67,-103.34 274.59,-79.89 274.13,-62.25"/>
<polygon fill="black" stroke="black" points="277.63,-61.98 273.81,-52.09 270.63,-62.2 277.63,-61.98"/>
<g id="a_edge12&#45;headlabel"><a xlink:href="dir_000175_000185.html" target="_top" xlink:title="1">
<text text-anchor="middle" x="280.58" y="-62.98" font-family="Helvetica,sans-Serif" font-size="10.00">1</text>
</a>
</g>
</g>
<!-- dir_c7c5f3eb57bf72689def995461ffc148&#45;&gt;dir_80b24cd11685060440d77842b83d8f07 -->
<g id="edge13" class="edge">
<title>dir_c7c5f3eb57bf72689def995461ffc148&#45;&gt;dir_80b24cd11685060440d77842b83d8f07</title>
<path fill="none" stroke="black" d="M209.78,-306.37C193.35,-297.31 173.97,-284.29 161,-268 130.02,-229.07 123.56,-169.09 122.63,-134.39"/>
<polygon fill="black" stroke="black" points="126.13,-134.02 122.5,-124.07 119.13,-134.11 126.13,-134.02"/>
<g id="a_edge13&#45;headlabel"><a xlink:href="dir_000175_000167.html" target="_top" xlink:title="3">
<text text-anchor="middle" x="129.01" y="-135.08" font-family="Helvetica,sans-Serif" font-size="10.00">3</text>
</a>
</g>
</g>
<!-- dir_fdea7736ef62293a5901d28bce787dd1 -->
<g id="node10" class="node">
<title>dir_fdea7736ef62293a5901d28bce787dd1</title>
<g id="a_node10"><a xlink:href="dir_fdea7736ef62293a5901d28bce787dd1.html" target="_top" xlink:title="solving_strategies">
<polygon fill="none" stroke="red" points="425.5,-412 330.5,-412 330.5,-376 425.5,-376 425.5,-412"/>
<text text-anchor="middle" x="378" y="-391.5" font-family="Helvetica,sans-Serif" font-size="10.00">solving_strategies</text>
</a>
</g>
</g>
<!-- dir_fdea7736ef62293a5901d28bce787dd1&#45;&gt;dir_0f2a41a65b424fb18d66414e7dff174e -->
<g id="edge3" class="edge">
<title>dir_fdea7736ef62293a5901d28bce787dd1&#45;&gt;dir_0f2a41a65b424fb18d66414e7dff174e</title>
<path fill="none" stroke="black" d="M375.78,-375.7C374.78,-367.98 373.59,-358.71 372.49,-350.11"/>
<polygon fill="black" stroke="black" points="375.95,-349.58 371.2,-340.1 369,-350.47 375.95,-349.58"/>
<g id="a_edge3&#45;headlabel"><a xlink:href="dir_000177_000173.html" target="_top" xlink:title="1">
<text text-anchor="middle" x="379.22" y="-350.28" font-family="Helvetica,sans-Serif" font-size="10.00">1</text>
</a>
</g>
</g>
<!-- dir_fdea7736ef62293a5901d28bce787dd1&#45;&gt;dir_6da2b5da699b6e8099c18b866a052d71 -->
<g id="edge4" class="edge">
<title>dir_fdea7736ef62293a5901d28bce787dd1&#45;&gt;dir_6da2b5da699b6e8099c18b866a052d71</title>
<path fill="none" stroke="black" d="M360.18,-375.94C336.83,-353.7 296.98,-316.21 281,-304 265.88,-292.45 248.19,-281 232.95,-271.73"/>
<polygon fill="black" stroke="black" points="234.68,-268.68 224.3,-266.53 231.07,-274.68 234.68,-268.68"/>
<g id="a_edge4&#45;headlabel"><a xlink:href="dir_000177_000171.html" target="_top" xlink:title="25">
<text text-anchor="middle" x="239.22" y="-265.6" font-family="Helvetica,sans-Serif" font-size="10.00">25</text>
</a>
</g>
</g>
<!-- dir_fdea7736ef62293a5901d28bce787dd1&#45;&gt;dir_70f98bb657cca0a872199855cac08757 -->
<g id="edge5" class="edge">
<title>dir_fdea7736ef62293a5901d28bce787dd1&#45;&gt;dir_70f98bb657cca0a872199855cac08757</title>
<path fill="none" stroke="black" d="M394.29,-375.78C402.52,-366.04 411.84,-353.19 417,-340 431.51,-302.93 427,-290.8 427,-251 427,-251 427,-251 427,-177 427,-113.34 355,-70.35 309.46,-49.52"/>
<polygon fill="black" stroke="black" points="310.74,-46.26 300.18,-45.41 307.91,-52.66 310.74,-46.26"/>
<g id="a_edge5&#45;headlabel"><a xlink:href="dir_000177_000185.html" target="_top" xlink:title="1">
<text text-anchor="middle" x="315.17" y="-42.62" font-family="Helvetica,sans-Serif" font-size="10.00">1</text>
</a>
</g>
</g>
<!-- dir_711cc89ff7ba3c2dce4e4f862d4be9d8 -->
<g id="node11" class="node">
<title>dir_711cc89ff7ba3c2dce4e4f862d4be9d8</title>
<g id="a_node11"><a xlink:href="dir_711cc89ff7ba3c2dce4e4f862d4be9d8.html" target="_top" xlink:title="python">
<polygon fill="#eeeeff" stroke="black" points="269,-484 215,-484 215,-448 269,-448 269,-484"/>
<text text-anchor="middle" x="242" y="-463.5" font-family="Helvetica,sans-Serif" font-size="10.00">python</text>
</a>
</g>
</g>
<!-- dir_711cc89ff7ba3c2dce4e4f862d4be9d8&#45;&gt;dir_0f2a41a65b424fb18d66414e7dff174e -->
<g id="edge14" class="edge">
<title>dir_711cc89ff7ba3c2dce4e4f862d4be9d8&#45;&gt;dir_0f2a41a65b424fb18d66414e7dff174e</title>
<path fill="none" stroke="black" d="M261.03,-447.83C271.75,-437.79 285.12,-424.65 296,-412 308.87,-397.03 309.66,-391.4 322,-376 329.54,-366.59 338.19,-356.62 346,-347.9"/>
<polygon fill="black" stroke="black" points="348.77,-350.05 352.88,-340.29 343.58,-345.36 348.77,-350.05"/>
<g id="a_edge14&#45;headlabel"><a xlink:href="dir_000176_000173.html" target="_top" xlink:title="13">
<text text-anchor="middle" x="348.47" y="-352.12" font-family="Helvetica,sans-Serif" font-size="10.00">13</text>
</a>
</g>
</g>
<!-- dir_711cc89ff7ba3c2dce4e4f862d4be9d8&#45;&gt;dir_284380e5d82f3d5daa019a960ca10e8d -->
<g id="edge15" class="edge">
<title>dir_711cc89ff7ba3c2dce4e4f862d4be9d8&#45;&gt;dir_284380e5d82f3d5daa019a960ca10e8d</title>
<path fill="none" stroke="black" d="M214.73,-456.56C191.36,-448.23 157.94,-433.6 135,-412 116.45,-394.54 102.7,-368.8 94.19,-349.49"/>
<polygon fill="black" stroke="black" points="97.32,-347.91 90.21,-340.05 90.87,-350.62 97.32,-347.91"/>
<g id="a_edge15&#45;headlabel"><a xlink:href="dir_000176_000169.html" target="_top" xlink:title="1">
<text text-anchor="middle" x="101.33" y="-347.62" font-family="Helvetica,sans-Serif" font-size="10.00">1</text>
</a>
</g>
</g>
<!-- dir_711cc89ff7ba3c2dce4e4f862d4be9d8&#45;&gt;dir_6da2b5da699b6e8099c18b866a052d71 -->
<g id="edge16" class="edge">
<title>dir_711cc89ff7ba3c2dce4e4f862d4be9d8&#45;&gt;dir_6da2b5da699b6e8099c18b866a052d71</title>
<path fill="none" stroke="black" d="M239.74,-447.81C236.97,-429.54 231.44,-400.02 222,-376 215.22,-358.76 206.23,-357.77 201,-340 195.07,-319.88 194.3,-296.1 194.89,-278.18"/>
<polygon fill="black" stroke="black" points="198.39,-278.29 195.38,-268.13 191.4,-277.95 198.39,-278.29"/>
<g id="a_edge16&#45;headlabel"><a xlink:href="dir_000176_000171.html" target="_top" xlink:title="121">
<text text-anchor="middle" x="201.05" y="-279.52" font-family="Helvetica,sans-Serif" font-size="10.00">121</text>
</a>
</g>
</g>
<!-- dir_711cc89ff7ba3c2dce4e4f862d4be9d8&#45;&gt;dir_70f98bb657cca0a872199855cac08757 -->
<g id="edge17" class="edge">
<title>dir_711cc89ff7ba3c2dce4e4f862d4be9d8&#45;&gt;dir_70f98bb657cca0a872199855cac08757</title>
<path fill="none" stroke="black" d="M269.16,-461.26C316.98,-454.1 413.22,-436.92 435,-412 461.27,-381.95 447,-362.91 447,-323 447,-323 447,-323 447,-177 447,-131.63 430.77,-118.3 397,-88 372.2,-65.74 336.65,-51.85 309.97,-43.91"/>
<polygon fill="black" stroke="black" points="310.79,-40.5 300.22,-41.15 308.89,-47.24 310.79,-40.5"/>
<g id="a_edge17&#45;headlabel"><a xlink:href="dir_000176_000185.html" target="_top" xlink:title="4">
<text text-anchor="middle" x="315.03" y="-36.25" font-family="Helvetica,sans-Serif" font-size="10.00">4</text>
</a>
</g>
</g>
<!-- dir_711cc89ff7ba3c2dce4e4f862d4be9d8&#45;&gt;dir_80b24cd11685060440d77842b83d8f07 -->
<g id="edge18" class="edge">
<title>dir_711cc89ff7ba3c2dce4e4f862d4be9d8&#45;&gt;dir_80b24cd11685060440d77842b83d8f07</title>
<path fill="none" stroke="black" d="M214.94,-459.84C164.86,-448.56 59.84,-416.35 27,-340 -5.48,-264.49 61.43,-174.31 99.33,-131.67"/>
<polygon fill="black" stroke="black" points="102.13,-133.79 106.27,-124.03 96.95,-129.08 102.13,-133.79"/>
<g id="a_edge18&#45;headlabel"><a xlink:href="dir_000176_000167.html" target="_top" xlink:title="5">
<text text-anchor="middle" x="101.82" y="-135.86" font-family="Helvetica,sans-Serif" font-size="10.00">5</text>
</a>
</g>
</g>
<!-- dir_711cc89ff7ba3c2dce4e4f862d4be9d8&#45;&gt;dir_9311051b33dbe6b2e08fc45590134e6c -->
<g id="edge19" class="edge">
<title>dir_711cc89ff7ba3c2dce4e4f862d4be9d8&#45;&gt;dir_9311051b33dbe6b2e08fc45590134e6c</title>
<path fill="none" stroke="black" d="M214.86,-457.58C193.04,-450.02 163.84,-435.94 150,-412 142.35,-398.76 138.24,-299.93 161,-232 164.25,-222.31 169.66,-212.62 175.22,-204.23"/>
<polygon fill="black" stroke="black" points="178.11,-206.21 180.99,-196.02 172.38,-202.19 178.11,-206.21"/>
<g id="a_edge19&#45;headlabel"><a xlink:href="dir_000176_000170.html" target="_top" xlink:title="2">
<text text-anchor="middle" x="178.37" y="-208.29" font-family="Helvetica,sans-Serif" font-size="10.00">2</text>
</a>
</g>
</g>
<!-- dir_711cc89ff7ba3c2dce4e4f862d4be9d8&#45;&gt;dir_bd2ce17ba33a86142a4fe49271950777 -->
<g id="edge20" class="edge">
<title>dir_711cc89ff7ba3c2dce4e4f862d4be9d8&#45;&gt;dir_bd2ce17ba33a86142a4fe49271950777</title>
<path fill="none" stroke="black" d="M228.16,-447.7C221.51,-439.39 213.42,-429.28 206.11,-420.14"/>
<polygon fill="black" stroke="black" points="208.66,-417.73 199.68,-412.1 203.2,-422.1 208.66,-417.73"/>
<g id="a_edge20&#45;headlabel"><a xlink:href="dir_000176_000184.html" target="_top" xlink:title="3">
<text text-anchor="middle" x="213.13" y="-416.26" font-family="Helvetica,sans-Serif" font-size="10.00">3</text>
</a>
</g>
</g>
<!-- dir_711cc89ff7ba3c2dce4e4f862d4be9d8&#45;&gt;dir_c355b57f6366379069072c1ec6b3b5e6 -->
<g id="edge21" class="edge">
<title>dir_711cc89ff7ba3c2dce4e4f862d4be9d8&#45;&gt;dir_c355b57f6366379069072c1ec6b3b5e6</title>
<path fill="none" stroke="black" d="M252.15,-447.73C266.51,-421.64 291,-370.2 291,-323 291,-323 291,-323 291,-249 291,-204.6 263.63,-159.38 243.62,-132.25"/>
<polygon fill="black" stroke="black" points="246.26,-129.95 237.42,-124.11 240.69,-134.18 246.26,-129.95"/>
<g id="a_edge21&#45;headlabel"><a xlink:href="dir_000176_000172.html" target="_top" xlink:title="3">
<text text-anchor="middle" x="250.7" y="-128.59" font-family="Helvetica,sans-Serif" font-size="10.00">3</text>
</a>
</g>
</g>
<!-- dir_711cc89ff7ba3c2dce4e4f862d4be9d8&#45;&gt;dir_c7c5f3eb57bf72689def995461ffc148 -->
<g id="edge22" class="edge">
<title>dir_711cc89ff7ba3c2dce4e4f862d4be9d8&#45;&gt;dir_c7c5f3eb57bf72689def995461ffc148</title>
<path fill="none" stroke="black" d="M241.88,-447.87C241.71,-423.67 241.4,-379.21 241.19,-350.39"/>
<polygon fill="black" stroke="black" points="244.69,-350.16 241.12,-340.19 237.69,-350.21 244.69,-350.16"/>
<g id="a_edge22&#45;headlabel"><a xlink:href="dir_000176_000175.html" target="_top" xlink:title="5">
<text text-anchor="middle" x="247.56" y="-351.24" font-family="Helvetica,sans-Serif" font-size="10.00">5</text>
</a>
</g>
</g>
<!-- dir_711cc89ff7ba3c2dce4e4f862d4be9d8&#45;&gt;dir_fdea7736ef62293a5901d28bce787dd1 -->
<g id="edge23" class="edge">
<title>dir_711cc89ff7ba3c2dce4e4f862d4be9d8&#45;&gt;dir_fdea7736ef62293a5901d28bce787dd1</title>
<path fill="none" stroke="black" d="M269.19,-451C288.19,-441.23 313.92,-427.98 335.59,-416.83"/>
<polygon fill="black" stroke="black" points="337.31,-419.88 344.59,-412.19 334.1,-413.66 337.31,-419.88"/>
<g id="a_edge23&#45;headlabel"><a xlink:href="dir_000176_000177.html" target="_top" xlink:title="8">
<text text-anchor="middle" x="335.41" y="-421.55" font-family="Helvetica,sans-Serif" font-size="10.00">8</text>
</a>
</g>
</g>
</g>
</svg>
        <g id="navigator" transform="translate(0 0)" fill="#404254">
                <rect fill="#f2f5e9" fill-opacity="0.5" stroke="#606060" stroke-width=".5" x="0" y="0" width="60" height="60"/>
                <use id="zoomplus" xlink:href="#zoomPlus" x="17" y="9" onmousedown="handleZoom(evt,'in')"/>
                <use id="zoomminus" xlink:href="#zoomMin" x="42" y="9" onmousedown="handleZoom(evt,'out')"/>
                <use id="reset" xlink:href="#resetDef" x="30" y="36" onmousedown="handleReset()"/>
                <g id="arrowUp" xlink:href="#dirArrow" transform="translate(30 24)" onmousedown="handlePan(0,-1)">
                  <use xlink:href="#rim" fill="#404040">
                        <set attributeName="fill" to="#808080" begin="arrowUp.mouseover" end="arrowUp.mouseout"/>
                  </use>
                  <path fill="none" stroke="white" stroke-width="1.5" d="M0,-3.0v7 M-2.5,-0.5L0,-3.0L2.5,-0.5"/>
                </g>
                <g id="arrowRight" xlink:href="#dirArrow" transform="rotate(90) translate(36 -43)" onmousedown="handlePan(1,0)">
                  <use xlink:href="#rim" fill="#404040">
                        <set attributeName="fill" to="#808080" begin="arrowRight.mouseover" end="arrowRight.mouseout"/>
                  </use>
                  <path fill="none" stroke="white" stroke-width="1.5" d="M0,-3.0v7 M-2.5,-0.5L0,-3.0L2.5,-0.5"/>
                </g>
                <g id="arrowDown" xlink:href="#dirArrow" transform="rotate(180) translate(-30 -48)" onmousedown="handlePan(0,1)">
                  <use xlink:href="#rim" fill="#404040">
                        <set attributeName="fill" to="#808080" begin="arrowDown.mouseover" end="arrowDown.mouseout"/>
                  </use>
                  <path fill="none" stroke="white" stroke-width="1.5" d="M0,-3.0v7 M-2.5,-0.5L0,-3.0L2.5,-0.5"/>
                </g>
                <g id="arrowLeft" xlink:href="#dirArrow" transform="rotate(270) translate(-36 17)" onmousedown="handlePan(-1,0)">
                  <use xlink:href="#rim" fill="#404040">
                        <set attributeName="fill" to="#808080" begin="arrowLeft.mouseover" end="arrowLeft.mouseout"/>
                  </use>
                  <path fill="none" stroke="white" stroke-width="1.5" d="M0,-3.0v7 M-2.5,-0.5L0,-3.0L2.5,-0.5"/>
                </g>
        </g>
        <svg viewBox="0 0 15 15" width="100%" height="30px" preserveAspectRatio="xMaxYMin meet">
         <g id="arrow_out" transform="scale(0.3 0.3)">
          <a xlink:href="dir_711cc89ff7ba3c2dce4e4f862d4be9d8_dep_org.svg" target="_base">
           <rect id="button" ry="5" rx="5" y="6" x="6" height="38" width="38"
                fill="#f2f5e9" fill-opacity="0.5" stroke="#606060" stroke-width="1.0"/>
           <path id="arrow"
             d="M 11.500037,31.436501 C 11.940474,20.09759 22.043105,11.32322 32.158766,21.979434 L 37.068811,17.246167 C 37.068811,17.246167 37.088388,32 37.088388,32 L 22.160133,31.978069 C 22.160133,31.978069 26.997745,27.140456 26.997745,27.140456 C 18.528582,18.264221 13.291696,25.230495 11.500037,31.436501 z"
             style="fill:#404040;"/>
          </a>
         </g>
        </svg>
</svg>
