<?xml version="1.0" encoding="UTF-8" standalone="no"?>
<!DOCTYPE svg PUBLIC "-//W3C//DTD SVG 1.1//EN"
 "http://www.w3.org/Graphics/SVG/1.1/DTD/svg11.dtd">
<!-- Generated by graphviz version 2.48.0 (20210719.0153)
 -->
<!-- Title: /github/workspace/kratos/linear_solvers Pages: 1 -->
<svg width="118pt" height="239pt"
 viewBox="0.00 0.00 118.00 239.00" xmlns="http://www.w3.org/2000/svg" xmlns:xlink="http://www.w3.org/1999/xlink">
<g id="graph0" class="graph" transform="scale(1 1) rotate(0) translate(4 235)">
<title>/github/workspace/kratos/linear_solvers</title>
<g id="clust1" class="cluster">
<title>clusterdir_8fc3e8efef0bfca4a113d719cbd52afb</title>
<g id="a_clust1"><a xlink:href="dir_8fc3e8efef0bfca4a113d719cbd52afb.html" target="_top" xlink:title="kratos">
<polygon fill="#ddddee" stroke="black" points="8,-8 8,-223 102,-223 102,-8 8,-8"/>
<text text-anchor="middle" x="55" y="-211" font-family="Helvetica,sans-Serif" font-size="10.00">kratos</text>
</a>
</g>
</g>
<!-- dir_6da2b5da699b6e8099c18b866a052d71 -->
<g id="node1" class="node">
<title>dir_6da2b5da699b6e8099c18b866a052d71</title>
<g id="a_node1"><a xlink:href="dir_6da2b5da699b6e8099c18b866a052d71.html" target="_top" xlink:title="includes">
<polygon fill="none" stroke="black" points="72,-124 18,-124 18,-88 72,-88 72,-124"/>
<text text-anchor="middle" x="45" y="-103.5" font-family="Helvetica,sans-Serif" font-size="10.00">includes</text>
</a>
</g>
</g>
<!-- dir_70f98bb657cca0a872199855cac08757 -->
<g id="node2" class="node">
<title>dir_70f98bb657cca0a872199855cac08757</title>
<g id="a_node2"><a xlink:href="dir_70f98bb657cca0a872199855cac08757.html" target="_top" xlink:title="utilities">
<polygon fill="none" stroke="black" points="72,-52 18,-52 18,-16 72,-16 72,-52"/>
<text text-anchor="middle" x="45" y="-31.5" font-family="Helvetica,sans-Serif" font-size="10.00">utilities</text>
</a>
</g>
</g>
<!-- dir_6da2b5da699b6e8099c18b866a052d71&#45;&gt;dir_70f98bb657cca0a872199855cac08757 -->
<g id="edge4" class="edge">
<title>dir_6da2b5da699b6e8099c18b866a052d71&#45;&gt;dir_70f98bb657cca0a872199855cac08757</title>
<path fill="none" stroke="black" d="M39.08,-87.7C38.29,-79.98 38.06,-70.71 38.4,-62.11"/>
<polygon fill="black" stroke="black" points="41.9,-62.32 39.1,-52.1 34.92,-61.84 41.9,-62.32"/>
<g id="a_edge4&#45;headlabel"><a xlink:href="dir_000171_000185.html" target="_top" xlink:title="5">
<text text-anchor="middle" x="44.48" y="-63.61" font-family="Helvetica,sans-Serif" font-size="10.00">5</text>
</a>
</g>
</g>
<!-- dir_70f98bb657cca0a872199855cac08757&#45;&gt;dir_6da2b5da699b6e8099c18b866a052d71 -->
<g id="edge3" class="edge">
<title>dir_70f98bb657cca0a872199855cac08757&#45;&gt;dir_6da2b5da699b6e8099c18b866a052d71</title>
<path fill="none" stroke="black" d="M50.9,-52.1C51.7,-59.79 51.94,-69.05 51.6,-77.67"/>
<polygon fill="black" stroke="black" points="48.11,-77.48 50.92,-87.7 55.09,-77.96 48.11,-77.48"/>
<g id="a_edge3&#45;headlabel"><a xlink:href="dir_000185_000171.html" target="_top" xlink:title="12">
<text text-anchor="middle" x="45.52" y="-71.2" font-family="Helvetica,sans-Serif" font-size="10.00">12</text>
</a>
</g>
</g>
<!-- dir_0f2a41a65b424fb18d66414e7dff174e -->
<g id="node3" class="node">
<title>dir_0f2a41a65b424fb18d66414e7dff174e</title>
<g id="a_node3"><a xlink:href="dir_0f2a41a65b424fb18d66414e7dff174e.html" target="_top" xlink:title="linear_solvers">
<polygon fill="#eeeeff" stroke="black" points="93.5,-196 16.5,-196 16.5,-160 93.5,-160 93.5,-196"/>
<text text-anchor="middle" x="55" y="-175.5" font-family="Helvetica,sans-Serif" font-size="10.00">linear_solvers</text>
</a>
</g>
</g>
<!-- dir_0f2a41a65b424fb18d66414e7dff174e&#45;&gt;dir_6da2b5da699b6e8099c18b866a052d71 -->
<g id="edge1" class="edge">
<title>dir_0f2a41a65b424fb18d66414e7dff174e&#45;&gt;dir_6da2b5da699b6e8099c18b866a052d71</title>
<path fill="none" stroke="black" d="M52.53,-159.7C51.43,-151.98 50.1,-142.71 48.87,-134.11"/>
<polygon fill="black" stroke="black" points="52.32,-133.51 47.44,-124.1 45.39,-134.5 52.32,-133.51"/>
<g id="a_edge1&#45;headlabel"><a xlink:href="dir_000173_000171.html" target="_top" xlink:title="17">
<text text-anchor="middle" x="55.64" y="-134.17" font-family="Helvetica,sans-Serif" font-size="10.00">17</text>
</a>
</g>
</g>
<!-- dir_0f2a41a65b424fb18d66414e7dff174e&#45;&gt;dir_70f98bb657cca0a872199855cac08757 -->
<g id="edge2" class="edge">
<title>dir_0f2a41a65b424fb18d66414e7dff174e&#45;&gt;dir_70f98bb657cca0a872199855cac08757</title>
<path fill="none" stroke="black" d="M66.05,-159.61C71.74,-149.62 78.08,-136.58 81,-124 84.62,-108.41 85.7,-103.29 81,-88 77.99,-78.22 72.49,-68.62 66.68,-60.33"/>
<polygon fill="black" stroke="black" points="69.41,-58.13 60.61,-52.23 63.81,-62.33 69.41,-58.13"/>
<g id="a_edge2&#45;headlabel"><a xlink:href="dir_000173_000185.html" target="_top" xlink:title="1">
<text text-anchor="middle" x="73.83" y="-56.8" font-family="Helvetica,sans-Serif" font-size="10.00">1</text>
</a>
</g>
</g>
</g>
</svg>
