<?xml version="1.0" encoding="UTF-8" standalone="no"?>
<!DOCTYPE svg PUBLIC "-//W3C//DTD SVG 1.1//EN"
 "http://www.w3.org/Graphics/SVG/1.1/DTD/svg11.dtd">
<!-- Generated by graphviz version 2.48.0 (20210719.0153)
 -->
<!-- Title: /github/workspace/applications/trilinos_application/custom_strategies Pages: 1 -->
<svg width="472pt" height="159pt"
 viewBox="0.00 0.00 472.00 159.00" xmlns="http://www.w3.org/2000/svg" xmlns:xlink="http://www.w3.org/1999/xlink">
<g id="graph0" class="graph" transform="scale(1 1) rotate(0) translate(4 155)">
<title>/github/workspace/applications/trilinos_application/custom_strategies</title>
<g id="clust1" class="cluster">
<title>clusterdir_824b2f5d3e31fbc4dbe4f0c1854c086f</title>
<g id="a_clust1"><a xlink:href="dir_824b2f5d3e31fbc4dbe4f0c1854c086f.html" target="_top" xlink:title="trilinos_application">
<polygon fill="#ddddee" stroke="black" points="8,-56 8,-143 456,-143 456,-56 8,-56"/>
<text text-anchor="middle" x="232" y="-131" font-family="Helvetica,sans-Serif" font-size="10.00">trilinos_application</text>
</a>
</g>
</g>
<g id="clust2" class="cluster">
<title>clusterdir_e00f38b3317ce9e19dc05d6c84826a54</title>
<g id="a_clust2"><a xlink:href="dir_e00f38b3317ce9e19dc05d6c84826a54.html" target="_top">
<polygon fill="#eeeeff" stroke="black" points="16,-64 16,-116 448,-116 448,-64 16,-64"/>
</a>
</g>
</g>
<!-- dir_e00f38b3317ce9e19dc05d6c84826a54 -->
<g id="node1" class="node">
<title>dir_e00f38b3317ce9e19dc05d6c84826a54</title>
<text text-anchor="middle" x="392" y="-87.5" font-family="Helvetica,sans-Serif" font-size="10.00">custom_strategies</text>
</g>
<!-- dir_171363d5464cd919d95bb63737b76475 -->
<g id="node2" class="node">
<title>dir_171363d5464cd919d95bb63737b76475</title>
<g id="a_node2"><a xlink:href="dir_171363d5464cd919d95bb63737b76475.html" target="_top" xlink:title="builder_and_solvers">
<polygon fill="white" stroke="black" points="325.5,-108 222.5,-108 222.5,-72 325.5,-72 325.5,-108"/>
<text text-anchor="middle" x="274" y="-87.5" font-family="Helvetica,sans-Serif" font-size="10.00">builder_and_solvers</text>
</a>
</g>
</g>
<!-- dir_8fc3e8efef0bfca4a113d719cbd52afb -->
<g id="node5" class="node">
<title>dir_8fc3e8efef0bfca4a113d719cbd52afb</title>
<g id="a_node5"><a xlink:href="dir_8fc3e8efef0bfca4a113d719cbd52afb.html" target="_top" xlink:title="kratos">
<polygon fill="none" stroke="red" points="178,-36 124,-36 124,0 178,0 178,-36"/>
<text text-anchor="middle" x="151" y="-15.5" font-family="Helvetica,sans-Serif" font-size="10.00">kratos</text>
</a>
</g>
</g>
<!-- dir_171363d5464cd919d95bb63737b76475&#45;&gt;dir_8fc3e8efef0bfca4a113d719cbd52afb -->
<g id="edge3" class="edge">
<title>dir_171363d5464cd919d95bb63737b76475&#45;&gt;dir_8fc3e8efef0bfca4a113d719cbd52afb</title>
<path fill="none" stroke="black" d="M243.91,-71.88C226.83,-62.16 205.33,-49.92 187.32,-39.67"/>
<polygon fill="black" stroke="black" points="188.68,-36.42 178.26,-34.51 185.22,-42.5 188.68,-36.42"/>
<g id="a_edge3&#45;headlabel"><a xlink:href="dir_000154_000166.html" target="_top" xlink:title="2">
<text text-anchor="middle" x="193.21" y="-33.23" font-family="Helvetica,sans-Serif" font-size="10.00">2</text>
</a>
</g>
</g>
<!-- dir_85b073beedc6f87d6485648592f59441 -->
<g id="node3" class="node">
<title>dir_85b073beedc6f87d6485648592f59441</title>
<g id="a_node3"><a xlink:href="dir_85b073beedc6f87d6485648592f59441.html" target="_top" xlink:title="convergencecriterias">
<polygon fill="white" stroke="black" points="204.5,-108 97.5,-108 97.5,-72 204.5,-72 204.5,-108"/>
<text text-anchor="middle" x="151" y="-87.5" font-family="Helvetica,sans-Serif" font-size="10.00">convergencecriterias</text>
</a>
</g>
</g>
<!-- dir_85b073beedc6f87d6485648592f59441&#45;&gt;dir_8fc3e8efef0bfca4a113d719cbd52afb -->
<g id="edge1" class="edge">
<title>dir_85b073beedc6f87d6485648592f59441&#45;&gt;dir_8fc3e8efef0bfca4a113d719cbd52afb</title>
<path fill="none" stroke="black" d="M151,-71.7C151,-63.98 151,-54.71 151,-46.11"/>
<polygon fill="black" stroke="black" points="154.5,-46.1 151,-36.1 147.5,-46.1 154.5,-46.1"/>
<g id="a_edge1&#45;headlabel"><a xlink:href="dir_000155_000166.html" target="_top" xlink:title="3">
<text text-anchor="middle" x="157.34" y="-47.2" font-family="Helvetica,sans-Serif" font-size="10.00">3</text>
</a>
</g>
</g>
<!-- dir_510acd554ebb26ddbf38c3bfb1d3af95 -->
<g id="node4" class="node">
<title>dir_510acd554ebb26ddbf38c3bfb1d3af95</title>
<g id="a_node4"><a xlink:href="dir_510acd554ebb26ddbf38c3bfb1d3af95.html" target="_top" xlink:title="schemes">
<polygon fill="white" stroke="black" points="80,-108 24,-108 24,-72 80,-72 80,-108"/>
<text text-anchor="middle" x="52" y="-87.5" font-family="Helvetica,sans-Serif" font-size="10.00">schemes</text>
</a>
</g>
</g>
<!-- dir_510acd554ebb26ddbf38c3bfb1d3af95&#45;&gt;dir_8fc3e8efef0bfca4a113d719cbd52afb -->
<g id="edge2" class="edge">
<title>dir_510acd554ebb26ddbf38c3bfb1d3af95&#45;&gt;dir_8fc3e8efef0bfca4a113d719cbd52afb</title>
<path fill="none" stroke="black" d="M69.86,-71.83C75.76,-66.51 82.48,-60.79 89,-56 97.1,-50.05 106.21,-44.21 114.89,-38.97"/>
<polygon fill="black" stroke="black" points="116.89,-41.86 123.74,-33.77 113.34,-35.83 116.89,-41.86"/>
<g id="a_edge2&#45;headlabel"><a xlink:href="dir_000156_000166.html" target="_top" xlink:title="4">
<text text-anchor="middle" x="115.24" y="-43.63" font-family="Helvetica,sans-Serif" font-size="10.00">4</text>
</a>
</g>
</g>
</g>
</svg>
