<?xml version="1.0" encoding="UTF-8" standalone="no"?>
<!DOCTYPE svg PUBLIC "-//W3C//DTD SVG 1.1//EN"
 "http://www.w3.org/Graphics/SVG/1.1/DTD/svg11.dtd">
<!-- Generated by graphviz version 2.48.0 (20210719.0153)
 -->
<!-- Title: /github/workspace/applications/structural_application/custom_conditions Pages: 1 -->
<svg width="138pt" height="223pt"
 viewBox="0.00 0.00 138.00 223.00" xmlns="http://www.w3.org/2000/svg" xmlns:xlink="http://www.w3.org/1999/xlink">
<g id="graph0" class="graph" transform="scale(1 1) rotate(0) translate(4 219)">
<title>/github/workspace/applications/structural_application/custom_conditions</title>
<g id="clust1" class="cluster">
<title>clusterdir_5b6e5246a29a3ca9076f80e3c8ba35a5</title>
<g id="a_clust1"><a xlink:href="dir_5b6e5246a29a3ca9076f80e3c8ba35a5.html" target="_top" xlink:title="structural_application">
<polygon fill="#ddddee" stroke="black" points="8,-64 8,-207 122,-207 122,-64 8,-64"/>
<text text-anchor="middle" x="65" y="-195" font-family="Helvetica,sans-Serif" font-size="10.00">structural_application</text>
</a>
</g>
</g>
<!-- dir_532b0acf66b5d79b872e1c636a87fa36 -->
<g id="node1" class="node">
<title>dir_532b0acf66b5d79b872e1c636a87fa36</title>
<g id="a_node1"><a xlink:href="dir_532b0acf66b5d79b872e1c636a87fa36.html" target="_top" xlink:title="custom_utilities">
<polygon fill="none" stroke="black" points="107.5,-180 22.5,-180 22.5,-144 107.5,-144 107.5,-180"/>
<text text-anchor="middle" x="65" y="-159.5" font-family="Helvetica,sans-Serif" font-size="10.00">custom_utilities</text>
</a>
</g>
</g>
<!-- dir_1d7efcbcbf95e3ad0a9afcd427a4c832 -->
<g id="node2" class="node">
<title>dir_1d7efcbcbf95e3ad0a9afcd427a4c832</title>
<g id="a_node2"><a xlink:href="dir_1d7efcbcbf95e3ad0a9afcd427a4c832.html" target="_top" xlink:title="custom_conditions">
<polygon fill="#eeeeff" stroke="black" points="114,-108 16,-108 16,-72 114,-72 114,-108"/>
<text text-anchor="middle" x="65" y="-87.5" font-family="Helvetica,sans-Serif" font-size="10.00">custom_conditions</text>
</a>
</g>
</g>
<!-- dir_532b0acf66b5d79b872e1c636a87fa36&#45;&gt;dir_1d7efcbcbf95e3ad0a9afcd427a4c832 -->
<g id="edge1" class="edge">
<title>dir_532b0acf66b5d79b872e1c636a87fa36&#45;&gt;dir_1d7efcbcbf95e3ad0a9afcd427a4c832</title>
<path fill="none" stroke="black" d="M59.08,-143.7C58.29,-135.98 58.06,-126.71 58.4,-118.11"/>
<polygon fill="black" stroke="black" points="61.9,-118.32 59.1,-108.1 54.92,-117.84 61.9,-118.32"/>
<g id="a_edge1&#45;headlabel"><a xlink:href="dir_000141_000134.html" target="_top" xlink:title="1">
<text text-anchor="middle" x="64.48" y="-119.61" font-family="Helvetica,sans-Serif" font-size="10.00">1</text>
</a>
</g>
</g>
<!-- dir_8fc3e8efef0bfca4a113d719cbd52afb -->
<g id="node3" class="node">
<title>dir_8fc3e8efef0bfca4a113d719cbd52afb</title>
<g id="a_node3"><a xlink:href="dir_8fc3e8efef0bfca4a113d719cbd52afb.html" target="_top" xlink:title="kratos">
<polygon fill="none" stroke="red" points="130,-36 76,-36 76,0 130,0 130,-36"/>
<text text-anchor="middle" x="103" y="-15.5" font-family="Helvetica,sans-Serif" font-size="10.00">kratos</text>
</a>
</g>
</g>
<!-- dir_532b0acf66b5d79b872e1c636a87fa36&#45;&gt;dir_8fc3e8efef0bfca4a113d719cbd52afb -->
<g id="edge2" class="edge">
<title>dir_532b0acf66b5d79b872e1c636a87fa36&#45;&gt;dir_8fc3e8efef0bfca4a113d719cbd52afb</title>
<path fill="none" stroke="black" d="M92.34,-143.77C104.11,-134.72 116.62,-122.48 123,-108 131.84,-87.95 125.28,-63.57 117.39,-45.4"/>
<polygon fill="black" stroke="black" points="120.39,-43.56 112.95,-36.01 114.06,-46.55 120.39,-43.56"/>
<g id="a_edge2&#45;headlabel"><a xlink:href="dir_000141_000166.html" target="_top" xlink:title="72">
<text text-anchor="middle" x="124.49" y="-43.1" font-family="Helvetica,sans-Serif" font-size="10.00">72</text>
</a>
</g>
</g>
<!-- dir_1d7efcbcbf95e3ad0a9afcd427a4c832&#45;&gt;dir_532b0acf66b5d79b872e1c636a87fa36 -->
<g id="edge3" class="edge">
<title>dir_1d7efcbcbf95e3ad0a9afcd427a4c832&#45;&gt;dir_532b0acf66b5d79b872e1c636a87fa36</title>
<path fill="none" stroke="black" d="M70.9,-108.1C71.7,-115.79 71.94,-125.05 71.6,-133.67"/>
<polygon fill="black" stroke="black" points="68.11,-133.48 70.92,-143.7 75.09,-133.96 68.11,-133.48"/>
<g id="a_edge3&#45;headlabel"><a xlink:href="dir_000134_000141.html" target="_top" xlink:title="9">
<text text-anchor="middle" x="65.52" y="-127.2" font-family="Helvetica,sans-Serif" font-size="10.00">9</text>
</a>
</g>
</g>
<!-- dir_1d7efcbcbf95e3ad0a9afcd427a4c832&#45;&gt;dir_8fc3e8efef0bfca4a113d719cbd52afb -->
<g id="edge4" class="edge">
<title>dir_1d7efcbcbf95e3ad0a9afcd427a4c832&#45;&gt;dir_8fc3e8efef0bfca4a113d719cbd52afb</title>
<path fill="none" stroke="black" d="M74.39,-71.7C78.76,-63.64 84.06,-53.89 88.9,-44.98"/>
<polygon fill="black" stroke="black" points="92.02,-46.56 93.71,-36.1 85.87,-43.22 92.02,-46.56"/>
<g id="a_edge4&#45;headlabel"><a xlink:href="dir_000134_000166.html" target="_top" xlink:title="98">
<text text-anchor="middle" x="92.8" y="-48.58" font-family="Helvetica,sans-Serif" font-size="10.00">98</text>
</a>
</g>
</g>
</g>
</svg>
