<?xml version="1.0" encoding="UTF-8" standalone="no"?>
<!DOCTYPE svg PUBLIC "-//W3C//DTD SVG 1.1//EN"
 "http://www.w3.org/Graphics/SVG/1.1/DTD/svg11.dtd">
<!-- Generated by graphviz version 2.48.0 (20210719.0153)
 -->
<!-- Title: /github/workspace/applications/incompressible_fluid_application/custom_strategies Pages: 1 -->
<svg width="355pt" height="231pt"
 viewBox="0.00 0.00 355.00 231.00" xmlns="http://www.w3.org/2000/svg" xmlns:xlink="http://www.w3.org/1999/xlink">
<g id="graph0" class="graph" transform="scale(1 1) rotate(0) translate(4 227)">
<title>/github/workspace/applications/incompressible_fluid_application/custom_strategies</title>
<g id="clust1" class="cluster">
<title>clusterdir_c04e0b6f20d509ba7eba572f6264f0fc</title>
<g id="a_clust1"><a xlink:href="dir_c04e0b6f20d509ba7eba572f6264f0fc.html" target="_top" xlink:title="incompressible_fluid_application">
<polygon fill="#ddddee" stroke="black" points="8,-56 8,-215 339,-215 339,-56 8,-56"/>
<text text-anchor="middle" x="173.5" y="-203" font-family="Helvetica,sans-Serif" font-size="10.00">incompressible_fluid_application</text>
</a>
</g>
</g>
<g id="clust2" class="cluster">
<title>clusterdir_6266856b49a557f3541da33a77a3b02d</title>
<g id="a_clust2"><a xlink:href="dir_6266856b49a557f3541da33a77a3b02d.html" target="_top">
<polygon fill="#eeeeff" stroke="black" points="16,-64 16,-188 331,-188 331,-64 16,-64"/>
</a>
</g>
</g>
<!-- dir_6266856b49a557f3541da33a77a3b02d -->
<g id="node1" class="node">
<title>dir_6266856b49a557f3541da33a77a3b02d</title>
<text text-anchor="middle" x="275" y="-159.5" font-family="Helvetica,sans-Serif" font-size="10.00">custom_strategies</text>
</g>
<!-- dir_16e34267fb6ba56328d3886033b37f12 -->
<g id="node2" class="node">
<title>dir_16e34267fb6ba56328d3886033b37f12</title>
<g id="a_node2"><a xlink:href="dir_16e34267fb6ba56328d3886033b37f12.html" target="_top" xlink:title="builder_and_solvers">
<polygon fill="white" stroke="black" points="127.5,-108 24.5,-108 24.5,-72 127.5,-72 127.5,-108"/>
<text text-anchor="middle" x="76" y="-87.5" font-family="Helvetica,sans-Serif" font-size="10.00">builder_and_solvers</text>
</a>
</g>
</g>
<!-- dir_8fc3e8efef0bfca4a113d719cbd52afb -->
<g id="node5" class="node">
<title>dir_8fc3e8efef0bfca4a113d719cbd52afb</title>
<g id="a_node5"><a xlink:href="dir_8fc3e8efef0bfca4a113d719cbd52afb.html" target="_top" xlink:title="kratos">
<polygon fill="none" stroke="red" points="183,-36 129,-36 129,0 183,0 183,-36"/>
<text text-anchor="middle" x="156" y="-15.5" font-family="Helvetica,sans-Serif" font-size="10.00">kratos</text>
</a>
</g>
</g>
<!-- dir_16e34267fb6ba56328d3886033b37f12&#45;&gt;dir_8fc3e8efef0bfca4a113d719cbd52afb -->
<g id="edge2" class="edge">
<title>dir_16e34267fb6ba56328d3886033b37f12&#45;&gt;dir_8fc3e8efef0bfca4a113d719cbd52afb</title>
<path fill="none" stroke="black" d="M95.78,-71.7C105.75,-62.97 118.01,-52.24 128.86,-42.75"/>
<polygon fill="black" stroke="black" points="131.23,-45.32 136.45,-36.1 126.62,-40.06 131.23,-45.32"/>
<g id="a_edge2&#45;headlabel"><a xlink:href="dir_000101_000166.html" target="_top" xlink:title="9">
<text text-anchor="middle" x="130.4" y="-47.33" font-family="Helvetica,sans-Serif" font-size="10.00">9</text>
</a>
</g>
</g>
<!-- dir_53d43c2366ec373631ea29ab82eb31df -->
<g id="node3" class="node">
<title>dir_53d43c2366ec373631ea29ab82eb31df</title>
<g id="a_node3"><a xlink:href="dir_53d43c2366ec373631ea29ab82eb31df.html" target="_top" xlink:title="convergencecriterias">
<polygon fill="white" stroke="black" points="208.5,-180 101.5,-180 101.5,-144 208.5,-144 208.5,-180"/>
<text text-anchor="middle" x="155" y="-159.5" font-family="Helvetica,sans-Serif" font-size="10.00">convergencecriterias</text>
</a>
</g>
</g>
<!-- dir_53d43c2366ec373631ea29ab82eb31df&#45;&gt;dir_8fc3e8efef0bfca4a113d719cbd52afb -->
<g id="edge1" class="edge">
<title>dir_53d43c2366ec373631ea29ab82eb31df&#45;&gt;dir_8fc3e8efef0bfca4a113d719cbd52afb</title>
<path fill="none" stroke="black" d="M161.24,-143.59C164.57,-133.37 168.32,-120.12 170,-108 173.18,-85.11 174.16,-78.73 170,-56 169.39,-52.69 168.51,-49.29 167.47,-45.96"/>
<polygon fill="black" stroke="black" points="170.69,-44.56 164.03,-36.32 164.09,-46.91 170.69,-44.56"/>
<g id="a_edge1&#45;headlabel"><a xlink:href="dir_000180_000166.html" target="_top" xlink:title="3">
<text text-anchor="middle" x="174.57" y="-44.49" font-family="Helvetica,sans-Serif" font-size="10.00">3</text>
</a>
</g>
</g>
<!-- dir_e305913f154bec1f0b61d1d53d5392b9 -->
<g id="node4" class="node">
<title>dir_e305913f154bec1f0b61d1d53d5392b9</title>
<g id="a_node4"><a xlink:href="dir_e305913f154bec1f0b61d1d53d5392b9.html" target="_top" xlink:title="strategies">
<polygon fill="white" stroke="black" points="83.5,-180 24.5,-180 24.5,-144 83.5,-144 83.5,-180"/>
<text text-anchor="middle" x="54" y="-159.5" font-family="Helvetica,sans-Serif" font-size="10.00">strategies</text>
</a>
</g>
</g>
<!-- dir_e305913f154bec1f0b61d1d53d5392b9&#45;&gt;dir_16e34267fb6ba56328d3886033b37f12 -->
<g id="edge3" class="edge">
<title>dir_e305913f154bec1f0b61d1d53d5392b9&#45;&gt;dir_16e34267fb6ba56328d3886033b37f12</title>
<path fill="none" stroke="black" d="M59.44,-143.7C61.89,-135.9 64.84,-126.51 67.57,-117.83"/>
<polygon fill="black" stroke="black" points="70.96,-118.69 70.62,-108.1 64.29,-116.59 70.96,-118.69"/>
<g id="a_edge3&#45;headlabel"><a xlink:href="dir_000102_000101.html" target="_top" xlink:title="4">
<text text-anchor="middle" x="72.6" y="-120.47" font-family="Helvetica,sans-Serif" font-size="10.00">4</text>
</a>
</g>
</g>
<!-- dir_e305913f154bec1f0b61d1d53d5392b9&#45;&gt;dir_8fc3e8efef0bfca4a113d719cbd52afb -->
<g id="edge4" class="edge">
<title>dir_e305913f154bec1f0b61d1d53d5392b9&#45;&gt;dir_8fc3e8efef0bfca4a113d719cbd52afb</title>
<path fill="none" stroke="black" d="M83.73,-145.25C104.6,-133.62 129.98,-118.11 137,-108 149.55,-89.9 154.07,-65.12 155.58,-46.3"/>
<polygon fill="black" stroke="black" points="159.08,-46.46 156.15,-36.27 152.09,-46.06 159.08,-46.46"/>
<g id="a_edge4&#45;headlabel"><a xlink:href="dir_000102_000166.html" target="_top" xlink:title="27">
<text text-anchor="middle" x="161.71" y="-47.71" font-family="Helvetica,sans-Serif" font-size="10.00">27</text>
</a>
</g>
</g>
</g>
</svg>
