<?xml version="1.0" encoding="UTF-8" standalone="no"?>
<!DOCTYPE svg PUBLIC "-//W3C//DTD SVG 1.1//EN"
 "http://www.w3.org/Graphics/SVG/1.1/DTD/svg11.dtd">
<!-- Generated by graphviz version 2.48.0 (20210719.0153)
 -->
<!-- Title: /github/workspace/applications/FSIapplication Pages: 1 -->
<svg width="799pt" height="231pt"
 viewBox="0.00 0.00 799.00 231.00" xmlns="http://www.w3.org/2000/svg" xmlns:xlink="http://www.w3.org/1999/xlink">
<g id="graph0" class="graph" transform="scale(1 1) rotate(0) translate(4 227)">
<title>/github/workspace/applications/FSIapplication</title>
<g id="clust1" class="cluster">
<title>clusterdir_a6e4fee11f07c3b70486e88fe92cbbdc</title>
<g id="a_clust1"><a xlink:href="dir_a6e4fee11f07c3b70486e88fe92cbbdc.html" target="_top" xlink:title="applications">
<polygon fill="#ddddee" stroke="black" points="8,-56 8,-215 783,-215 783,-56 8,-56"/>
<text text-anchor="middle" x="395.5" y="-203" font-family="Helvetica,sans-Serif" font-size="10.00">applications</text>
</a>
</g>
</g>
<g id="clust2" class="cluster">
<title>clusterdir_5f8838a698fc9cb810dd7ef11acae9bf</title>
<g id="a_clust2"><a xlink:href="dir_5f8838a698fc9cb810dd7ef11acae9bf.html" target="_top">
<polygon fill="#eeeeff" stroke="black" points="16,-64 16,-188 775,-188 775,-64 16,-64"/>
</a>
</g>
</g>
<!-- dir_5f8838a698fc9cb810dd7ef11acae9bf -->
<g id="node1" class="node">
<title>dir_5f8838a698fc9cb810dd7ef11acae9bf</title>
<text text-anchor="middle" x="728" y="-159.5" font-family="Helvetica,sans-Serif" font-size="10.00">FSIapplication</text>
</g>
<!-- dir_b41bf30ff15266fb7e214321bd6dc01f -->
<g id="node2" class="node">
<title>dir_b41bf30ff15266fb7e214321bd6dc01f</title>
<g id="a_node2"><a xlink:href="dir_b41bf30ff15266fb7e214321bd6dc01f.html" target="_top" xlink:title="coupled_3d_cylinder.gid">
<polygon fill="white" stroke="black" points="670.5,-180 551.5,-180 551.5,-144 670.5,-144 670.5,-180"/>
<text text-anchor="middle" x="611" y="-159.5" font-family="Helvetica,sans-Serif" font-size="10.00">coupled_3d_cylinder.gid</text>
</a>
</g>
</g>
<!-- dir_f6e215434f4ea3211168d8fb914fe0a7 -->
<g id="node3" class="node">
<title>dir_f6e215434f4ea3211168d8fb914fe0a7</title>
<g id="a_node3"><a xlink:href="dir_f6e215434f4ea3211168d8fb914fe0a7.html" target="_top" xlink:title="custom_elements">
<polygon fill="white" stroke="black" points="416,-180 322,-180 322,-144 416,-144 416,-180"/>
<text text-anchor="middle" x="369" y="-159.5" font-family="Helvetica,sans-Serif" font-size="10.00">custom_elements</text>
</a>
</g>
</g>
<!-- dir_8fc3e8efef0bfca4a113d719cbd52afb -->
<g id="node9" class="node">
<title>dir_8fc3e8efef0bfca4a113d719cbd52afb</title>
<g id="a_node9"><a xlink:href="dir_8fc3e8efef0bfca4a113d719cbd52afb.html" target="_top" xlink:title="kratos">
<polygon fill="none" stroke="red" points="378,-36 324,-36 324,0 378,0 378,-36"/>
<text text-anchor="middle" x="351" y="-15.5" font-family="Helvetica,sans-Serif" font-size="10.00">kratos</text>
</a>
</g>
</g>
<!-- dir_f6e215434f4ea3211168d8fb914fe0a7&#45;&gt;dir_8fc3e8efef0bfca4a113d719cbd52afb -->
<g id="edge2" class="edge">
<title>dir_f6e215434f4ea3211168d8fb914fe0a7&#45;&gt;dir_8fc3e8efef0bfca4a113d719cbd52afb</title>
<path fill="none" stroke="black" d="M366.83,-143.87C363.76,-119.67 358.13,-75.21 354.47,-46.39"/>
<polygon fill="black" stroke="black" points="357.91,-45.67 353.18,-36.19 350.96,-46.55 357.91,-45.67"/>
<g id="a_edge2&#45;headlabel"><a xlink:href="dir_000087_000166.html" target="_top" xlink:title="6">
<text text-anchor="middle" x="361.18" y="-46.38" font-family="Helvetica,sans-Serif" font-size="10.00">6</text>
</a>
</g>
</g>
<!-- dir_3c467168c927d57b62be1fae2ea801bb -->
<g id="node4" class="node">
<title>dir_3c467168c927d57b62be1fae2ea801bb</title>
<g id="a_node4"><a xlink:href="dir_3c467168c927d57b62be1fae2ea801bb.html" target="_top" xlink:title="custom_processes">
<polygon fill="white" stroke="black" points="533.5,-180 434.5,-180 434.5,-144 533.5,-144 533.5,-180"/>
<text text-anchor="middle" x="484" y="-159.5" font-family="Helvetica,sans-Serif" font-size="10.00">custom_processes</text>
</a>
</g>
</g>
<!-- dir_3c467168c927d57b62be1fae2ea801bb&#45;&gt;dir_8fc3e8efef0bfca4a113d719cbd52afb -->
<g id="edge3" class="edge">
<title>dir_3c467168c927d57b62be1fae2ea801bb&#45;&gt;dir_8fc3e8efef0bfca4a113d719cbd52afb</title>
<path fill="none" stroke="black" d="M467.96,-143.87C444.59,-118.92 401.06,-72.45 374.2,-43.77"/>
<polygon fill="black" stroke="black" points="376.49,-41.1 367.1,-36.19 371.38,-45.88 376.49,-41.1"/>
<g id="a_edge3&#45;headlabel"><a xlink:href="dir_000088_000166.html" target="_top" xlink:title="5">
<text text-anchor="middle" x="381.02" y="-39.28" font-family="Helvetica,sans-Serif" font-size="10.00">5</text>
</a>
</g>
</g>
<!-- dir_7140ffef428957f38bc0a600de3f9269 -->
<g id="node5" class="node">
<title>dir_7140ffef428957f38bc0a600de3f9269</title>
<g id="a_node5"><a xlink:href="dir_7140ffef428957f38bc0a600de3f9269.html" target="_top" xlink:title="custom_python">
<polygon fill="white" stroke="black" points="303.5,-180 220.5,-180 220.5,-144 303.5,-144 303.5,-180"/>
<text text-anchor="middle" x="262" y="-159.5" font-family="Helvetica,sans-Serif" font-size="10.00">custom_python</text>
</a>
</g>
</g>
<!-- dir_978008d7d82bf15c1f1a3baa880315c6 -->
<g id="node6" class="node">
<title>dir_978008d7d82bf15c1f1a3baa880315c6</title>
<g id="a_node6"><a xlink:href="dir_978008d7d82bf15c1f1a3baa880315c6.html" target="_top" xlink:title="custom_utilities">
<polygon fill="white" stroke="black" points="303.5,-108 218.5,-108 218.5,-72 303.5,-72 303.5,-108"/>
<text text-anchor="middle" x="261" y="-87.5" font-family="Helvetica,sans-Serif" font-size="10.00">custom_utilities</text>
</a>
</g>
</g>
<!-- dir_7140ffef428957f38bc0a600de3f9269&#45;&gt;dir_978008d7d82bf15c1f1a3baa880315c6 -->
<g id="edge5" class="edge">
<title>dir_7140ffef428957f38bc0a600de3f9269&#45;&gt;dir_978008d7d82bf15c1f1a3baa880315c6</title>
<path fill="none" stroke="black" d="M261.75,-143.7C261.64,-135.98 261.51,-126.71 261.39,-118.11"/>
<polygon fill="black" stroke="black" points="264.89,-118.05 261.24,-108.1 257.89,-118.15 264.89,-118.05"/>
<g id="a_edge5&#45;headlabel"><a xlink:href="dir_000013_000089.html" target="_top" xlink:title="5">
<text text-anchor="middle" x="267.78" y="-119.11" font-family="Helvetica,sans-Serif" font-size="10.00">5</text>
</a>
</g>
</g>
<!-- dir_7140ffef428957f38bc0a600de3f9269&#45;&gt;dir_8fc3e8efef0bfca4a113d719cbd52afb -->
<g id="edge4" class="edge">
<title>dir_7140ffef428957f38bc0a600de3f9269&#45;&gt;dir_8fc3e8efef0bfca4a113d719cbd52afb</title>
<path fill="none" stroke="black" d="M281.72,-143.79C292.02,-134.05 304.26,-121.2 313,-108 325.83,-88.62 335.9,-64.18 342.43,-45.82"/>
<polygon fill="black" stroke="black" points="345.76,-46.91 345.7,-36.32 339.14,-44.64 345.76,-46.91"/>
<g id="a_edge4&#45;headlabel"><a xlink:href="dir_000013_000166.html" target="_top" xlink:title="7">
<text text-anchor="middle" x="347.28" y="-48.74" font-family="Helvetica,sans-Serif" font-size="10.00">7</text>
</a>
</g>
</g>
<!-- dir_978008d7d82bf15c1f1a3baa880315c6&#45;&gt;dir_8fc3e8efef0bfca4a113d719cbd52afb -->
<g id="edge1" class="edge">
<title>dir_978008d7d82bf15c1f1a3baa880315c6&#45;&gt;dir_8fc3e8efef0bfca4a113d719cbd52afb</title>
<path fill="none" stroke="black" d="M283.25,-71.7C294.58,-62.88 308.53,-52.03 320.82,-42.47"/>
<polygon fill="black" stroke="black" points="323.26,-45.01 329.01,-36.1 318.97,-39.48 323.26,-45.01"/>
<g id="a_edge1&#45;headlabel"><a xlink:href="dir_000089_000166.html" target="_top" xlink:title="22">
<text text-anchor="middle" x="322.17" y="-46.95" font-family="Helvetica,sans-Serif" font-size="10.00">22</text>
</a>
</g>
</g>
<!-- dir_2ffeec0af1fa3bf2ebe9cad62ca6b0fe -->
<g id="node7" class="node">
<title>dir_2ffeec0af1fa3bf2ebe9cad62ca6b0fe</title>
<g id="a_node7"><a xlink:href="dir_2ffeec0af1fa3bf2ebe9cad62ca6b0fe.html" target="_top" xlink:title="python_scripts">
<polygon fill="white" stroke="black" points="202,-180 122,-180 122,-144 202,-144 202,-180"/>
<text text-anchor="middle" x="162" y="-159.5" font-family="Helvetica,sans-Serif" font-size="10.00">python_scripts</text>
</a>
</g>
</g>
<!-- dir_dc1ebefc09ed8f611ab8aeb5f748f373 -->
<g id="node8" class="node">
<title>dir_dc1ebefc09ed8f611ab8aeb5f748f373</title>
<g id="a_node8"><a xlink:href="dir_dc1ebefc09ed8f611ab8aeb5f748f373.html" target="_top" xlink:title="test_examples">
<polygon fill="white" stroke="red" points="104,-180 24,-180 24,-144 104,-144 104,-180"/>
<text text-anchor="middle" x="64" y="-159.5" font-family="Helvetica,sans-Serif" font-size="10.00">test_examples</text>
</a>
</g>
</g>
</g>
</svg>
