<?xml version="1.0" encoding="UTF-8" standalone="no"?>
<!DOCTYPE svg PUBLIC "-//W3C//DTD SVG 1.1//EN"
 "http://www.w3.org/Graphics/SVG/1.1/DTD/svg11.dtd">
<!-- Generated by graphviz version 2.48.0 (20210719.0153)
 -->
<!-- Title: /github/workspace/applications/mkl_solvers_application Pages: 1 -->
<svg width="279pt" height="303pt"
 viewBox="0.00 0.00 279.00 303.00" xmlns="http://www.w3.org/2000/svg" xmlns:xlink="http://www.w3.org/1999/xlink">
<g id="graph0" class="graph" transform="scale(1 1) rotate(0) translate(4 299)">
<title>/github/workspace/applications/mkl_solvers_application</title>
<g id="clust1" class="cluster">
<title>clusterdir_a6e4fee11f07c3b70486e88fe92cbbdc</title>
<g id="a_clust1"><a xlink:href="dir_a6e4fee11f07c3b70486e88fe92cbbdc.html" target="_top" xlink:title="applications">
<polygon fill="#ddddee" stroke="black" points="8,-64 8,-287 263,-287 263,-64 8,-64"/>
<text text-anchor="middle" x="135.5" y="-275" font-family="Helvetica,sans-Serif" font-size="10.00">applications</text>
</a>
</g>
</g>
<g id="clust2" class="cluster">
<title>clusterdir_3b85d0dc1e6dfa612c894ff3cd698b5f</title>
<g id="a_clust2"><a xlink:href="dir_3b85d0dc1e6dfa612c894ff3cd698b5f.html" target="_top">
<polygon fill="#eeeeff" stroke="black" points="16,-136 16,-260 255,-260 255,-136 16,-136"/>
</a>
</g>
</g>
<!-- dir_6566e293fc719a78ee3fe7f77578c5de -->
<g id="node1" class="node">
<title>dir_6566e293fc719a78ee3fe7f77578c5de</title>
<g id="a_node1"><a xlink:href="dir_6566e293fc719a78ee3fe7f77578c5de.html" target="_top" xlink:title="ExternalSolversApplication">
<polygon fill="none" stroke="red" points="148,-108 16,-108 16,-72 148,-72 148,-108"/>
<text text-anchor="middle" x="82" y="-87.5" font-family="Helvetica,sans-Serif" font-size="10.00">ExternalSolversApplication</text>
</a>
</g>
</g>
<!-- dir_8fc3e8efef0bfca4a113d719cbd52afb -->
<g id="node5" class="node">
<title>dir_8fc3e8efef0bfca4a113d719cbd52afb</title>
<g id="a_node5"><a xlink:href="dir_8fc3e8efef0bfca4a113d719cbd52afb.html" target="_top" xlink:title="kratos">
<polygon fill="none" stroke="red" points="203,-36 149,-36 149,0 203,0 203,-36"/>
<text text-anchor="middle" x="176" y="-15.5" font-family="Helvetica,sans-Serif" font-size="10.00">kratos</text>
</a>
</g>
</g>
<!-- dir_6566e293fc719a78ee3fe7f77578c5de&#45;&gt;dir_8fc3e8efef0bfca4a113d719cbd52afb -->
<g id="edge5" class="edge">
<title>dir_6566e293fc719a78ee3fe7f77578c5de&#45;&gt;dir_8fc3e8efef0bfca4a113d719cbd52afb</title>
<path fill="none" stroke="black" d="M105.24,-71.7C117.19,-62.8 131.92,-51.82 144.85,-42.2"/>
<polygon fill="black" stroke="black" points="147.1,-44.88 153.03,-36.1 142.92,-39.27 147.1,-44.88"/>
<g id="a_edge5&#45;headlabel"><a xlink:href="dir_000024_000166.html" target="_top" xlink:title="21">
<text text-anchor="middle" x="145.91" y="-46.81" font-family="Helvetica,sans-Serif" font-size="10.00">21</text>
</a>
</g>
</g>
<!-- dir_3b85d0dc1e6dfa612c894ff3cd698b5f -->
<g id="node2" class="node">
<title>dir_3b85d0dc1e6dfa612c894ff3cd698b5f</title>
<text text-anchor="middle" x="186" y="-231.5" font-family="Helvetica,sans-Serif" font-size="10.00">mkl_solvers_application</text>
</g>
<!-- dir_75418c2e52f868dcb72156af506d9d49 -->
<g id="node3" class="node">
<title>dir_75418c2e52f868dcb72156af506d9d49</title>
<g id="a_node3"><a xlink:href="dir_75418c2e52f868dcb72156af506d9d49.html" target="_top" xlink:title="custom_python">
<polygon fill="white" stroke="black" points="107.5,-252 24.5,-252 24.5,-216 107.5,-216 107.5,-252"/>
<text text-anchor="middle" x="66" y="-231.5" font-family="Helvetica,sans-Serif" font-size="10.00">custom_python</text>
</a>
</g>
</g>
<!-- dir_58a297733c388567e85e840bfc1b882b -->
<g id="node4" class="node">
<title>dir_58a297733c388567e85e840bfc1b882b</title>
<g id="a_node4"><a xlink:href="dir_58a297733c388567e85e840bfc1b882b.html" target="_top" xlink:title="external_includes">
<polygon fill="white" stroke="red" points="128,-180 36,-180 36,-144 128,-144 128,-180"/>
<text text-anchor="middle" x="82" y="-159.5" font-family="Helvetica,sans-Serif" font-size="10.00">external_includes</text>
</a>
</g>
</g>
<!-- dir_75418c2e52f868dcb72156af506d9d49&#45;&gt;dir_58a297733c388567e85e840bfc1b882b -->
<g id="edge3" class="edge">
<title>dir_75418c2e52f868dcb72156af506d9d49&#45;&gt;dir_58a297733c388567e85e840bfc1b882b</title>
<path fill="none" stroke="black" d="M69.96,-215.7C71.72,-207.98 73.84,-198.71 75.8,-190.11"/>
<polygon fill="black" stroke="black" points="79.27,-190.63 78.09,-180.1 72.45,-189.07 79.27,-190.63"/>
<g id="a_edge3&#45;headlabel"><a xlink:href="dir_000116_000049.html" target="_top" xlink:title="2">
<text text-anchor="middle" x="81.24" y="-192.27" font-family="Helvetica,sans-Serif" font-size="10.00">2</text>
</a>
</g>
</g>
<!-- dir_75418c2e52f868dcb72156af506d9d49&#45;&gt;dir_8fc3e8efef0bfca4a113d719cbd52afb -->
<g id="edge4" class="edge">
<title>dir_75418c2e52f868dcb72156af506d9d49&#45;&gt;dir_8fc3e8efef0bfca4a113d719cbd52afb</title>
<path fill="none" stroke="black" d="M93.49,-215.93C107.5,-206.42 124.22,-193.74 137,-180 162.86,-152.19 172.35,-144.45 183,-108 188.92,-87.73 186.56,-63.82 183.05,-45.89"/>
<polygon fill="black" stroke="black" points="186.46,-45.12 180.91,-36.1 179.62,-46.62 186.46,-45.12"/>
<g id="a_edge4&#45;headlabel"><a xlink:href="dir_000116_000166.html" target="_top" xlink:title="7">
<text text-anchor="middle" x="190.01" y="-45.53" font-family="Helvetica,sans-Serif" font-size="10.00">7</text>
</a>
</g>
</g>
<!-- dir_58a297733c388567e85e840bfc1b882b&#45;&gt;dir_6566e293fc719a78ee3fe7f77578c5de -->
<g id="edge2" class="edge">
<title>dir_58a297733c388567e85e840bfc1b882b&#45;&gt;dir_6566e293fc719a78ee3fe7f77578c5de</title>
<path fill="none" stroke="black" d="M82,-143.7C82,-135.98 82,-126.71 82,-118.11"/>
<polygon fill="black" stroke="black" points="85.5,-118.1 82,-108.1 78.5,-118.1 85.5,-118.1"/>
<g id="a_edge2&#45;headlabel"><a xlink:href="dir_000049_000024.html" target="_top" xlink:title="2">
<text text-anchor="middle" x="88.34" y="-119.2" font-family="Helvetica,sans-Serif" font-size="10.00">2</text>
</a>
</g>
</g>
<!-- dir_58a297733c388567e85e840bfc1b882b&#45;&gt;dir_8fc3e8efef0bfca4a113d719cbd52afb -->
<g id="edge1" class="edge">
<title>dir_58a297733c388567e85e840bfc1b882b&#45;&gt;dir_8fc3e8efef0bfca4a113d719cbd52afb</title>
<path fill="none" stroke="black" d="M120.72,-143.99C135.93,-135.37 152.1,-123.42 162,-108 173.73,-89.74 176.86,-65.12 177.26,-46.41"/>
<polygon fill="black" stroke="black" points="180.76,-46.15 177.23,-36.16 173.76,-46.18 180.76,-46.15"/>
<g id="a_edge1&#45;headlabel"><a xlink:href="dir_000049_000166.html" target="_top" xlink:title="6">
<text text-anchor="middle" x="183.61" y="-47.24" font-family="Helvetica,sans-Serif" font-size="10.00">6</text>
</a>
</g>
</g>
</g>
</svg>
