<?xml version="1.0" encoding="UTF-8" standalone="no"?>
<!DOCTYPE svg PUBLIC "-//W3C//DTD SVG 1.1//EN"
 "http://www.w3.org/Graphics/SVG/1.1/DTD/svg11.dtd">
<!-- Generated by graphviz version 2.48.0 (20210719.0153)
 -->
<!-- Title: /github/workspace/applications/ALEapplication/custom_strategies/strategies Pages: 1 -->
<svg width="150pt" height="223pt"
 viewBox="0.00 0.00 150.00 223.00" xmlns="http://www.w3.org/2000/svg" xmlns:xlink="http://www.w3.org/1999/xlink">
<g id="graph0" class="graph" transform="scale(1 1) rotate(0) translate(4 219)">
<title>/github/workspace/applications/ALEapplication/custom_strategies/strategies</title>
<g id="clust1" class="cluster">
<title>clusterdir_33474d98370e14a54bbcb677eb1ff15f</title>
<g id="a_clust1"><a xlink:href="dir_33474d98370e14a54bbcb677eb1ff15f.html" target="_top" xlink:title="custom_strategies">
<polygon fill="#ddddee" stroke="black" points="37,-136 37,-207 134,-207 134,-136 37,-136"/>
<text text-anchor="middle" x="85.5" y="-195" font-family="Helvetica,sans-Serif" font-size="10.00">custom_strategies</text>
</a>
</g>
</g>
<!-- dir_1ab68a6d0ba02b73cbc6c662512eb770 -->
<g id="node1" class="node">
<title>dir_1ab68a6d0ba02b73cbc6c662512eb770</title>
<g id="a_node1"><a xlink:href="dir_1ab68a6d0ba02b73cbc6c662512eb770.html" target="_top" xlink:title="strategies">
<polygon fill="#eeeeff" stroke="black" points="114.5,-180 55.5,-180 55.5,-144 114.5,-144 114.5,-180"/>
<text text-anchor="middle" x="85" y="-159.5" font-family="Helvetica,sans-Serif" font-size="10.00">strategies</text>
</a>
</g>
</g>
<!-- dir_0c8d0862b4393ee02f9e2dff0acd4e16 -->
<g id="node2" class="node">
<title>dir_0c8d0862b4393ee02f9e2dff0acd4e16</title>
<g id="a_node2"><a xlink:href="dir_0c8d0862b4393ee02f9e2dff0acd4e16.html" target="_top" xlink:title="custom_elements">
<polygon fill="none" stroke="black" points="94,-108 0,-108 0,-72 94,-72 94,-108"/>
<text text-anchor="middle" x="47" y="-87.5" font-family="Helvetica,sans-Serif" font-size="10.00">custom_elements</text>
</a>
</g>
</g>
<!-- dir_1ab68a6d0ba02b73cbc6c662512eb770&#45;&gt;dir_0c8d0862b4393ee02f9e2dff0acd4e16 -->
<g id="edge2" class="edge">
<title>dir_1ab68a6d0ba02b73cbc6c662512eb770&#45;&gt;dir_0c8d0862b4393ee02f9e2dff0acd4e16</title>
<path fill="none" stroke="black" d="M75.61,-143.7C71.24,-135.64 65.94,-125.89 61.1,-116.98"/>
<polygon fill="black" stroke="black" points="64.13,-115.22 56.29,-108.1 57.98,-118.56 64.13,-115.22"/>
<g id="a_edge2&#45;headlabel"><a xlink:href="dir_000019_000002.html" target="_top" xlink:title="2">
<text text-anchor="middle" x="68.34" y="-114.53" font-family="Helvetica,sans-Serif" font-size="10.00">2</text>
</a>
</g>
</g>
<!-- dir_8fc3e8efef0bfca4a113d719cbd52afb -->
<g id="node3" class="node">
<title>dir_8fc3e8efef0bfca4a113d719cbd52afb</title>
<g id="a_node3"><a xlink:href="dir_8fc3e8efef0bfca4a113d719cbd52afb.html" target="_top" xlink:title="kratos">
<polygon fill="none" stroke="red" points="111,-36 57,-36 57,0 111,0 111,-36"/>
<text text-anchor="middle" x="84" y="-15.5" font-family="Helvetica,sans-Serif" font-size="10.00">kratos</text>
</a>
</g>
</g>
<!-- dir_1ab68a6d0ba02b73cbc6c662512eb770&#45;&gt;dir_8fc3e8efef0bfca4a113d719cbd52afb -->
<g id="edge3" class="edge">
<title>dir_1ab68a6d0ba02b73cbc6c662512eb770&#45;&gt;dir_8fc3e8efef0bfca4a113d719cbd52afb</title>
<path fill="none" stroke="black" d="M92.48,-143.7C96.47,-133.52 100.97,-120.27 103,-108 105.61,-92.21 105.74,-87.76 103,-72 101.48,-63.24 98.64,-54.01 95.61,-45.75"/>
<polygon fill="black" stroke="black" points="98.79,-44.29 91.89,-36.25 92.28,-46.84 98.79,-44.29"/>
<g id="a_edge3&#45;headlabel"><a xlink:href="dir_000019_000166.html" target="_top" xlink:title="6">
<text text-anchor="middle" x="102.75" y="-44.11" font-family="Helvetica,sans-Serif" font-size="10.00">6</text>
</a>
</g>
</g>
<!-- dir_0c8d0862b4393ee02f9e2dff0acd4e16&#45;&gt;dir_8fc3e8efef0bfca4a113d719cbd52afb -->
<g id="edge1" class="edge">
<title>dir_0c8d0862b4393ee02f9e2dff0acd4e16&#45;&gt;dir_8fc3e8efef0bfca4a113d719cbd52afb</title>
<path fill="none" stroke="black" d="M56.15,-71.7C60.4,-63.64 65.56,-53.89 70.27,-44.98"/>
<polygon fill="black" stroke="black" points="73.38,-46.58 74.96,-36.1 67.19,-43.31 73.38,-46.58"/>
<g id="a_edge1&#45;headlabel"><a xlink:href="dir_000002_000166.html" target="_top" xlink:title="14">
<text text-anchor="middle" x="74.21" y="-48.59" font-family="Helvetica,sans-Serif" font-size="10.00">14</text>
</a>
</g>
</g>
</g>
</svg>
