<?xml version="1.0" encoding="UTF-8" standalone="no"?>
<!DOCTYPE svg PUBLIC "-//W3C//DTD SVG 1.1//EN"
 "http://www.w3.org/Graphics/SVG/1.1/DTD/svg11.dtd">
<!-- Generated by graphviz version 2.48.0 (20210719.0153)
 -->
<!-- Title: /github/workspace/applications/incompressible_fluid_application/custom_python Pages: 1 -->
<svg width="240pt" height="223pt"
 viewBox="0.00 0.00 240.00 223.00" xmlns="http://www.w3.org/2000/svg" xmlns:xlink="http://www.w3.org/1999/xlink">
<g id="graph0" class="graph" transform="scale(1 1) rotate(0) translate(4 219)">
<title>/github/workspace/applications/incompressible_fluid_application/custom_python</title>
<g id="clust1" class="cluster">
<title>clusterdir_c04e0b6f20d509ba7eba572f6264f0fc</title>
<g id="a_clust1"><a xlink:href="dir_c04e0b6f20d509ba7eba572f6264f0fc.html" target="_top" xlink:title="incompressible_fluid_application">
<polygon fill="#ddddee" stroke="black" points="8,-64 8,-207 224,-207 224,-64 8,-64"/>
<text text-anchor="middle" x="116" y="-195" font-family="Helvetica,sans-Serif" font-size="10.00">incompressible_fluid_application</text>
</a>
</g>
</g>
<!-- dir_6266856b49a557f3541da33a77a3b02d -->
<g id="node1" class="node">
<title>dir_6266856b49a557f3541da33a77a3b02d</title>
<g id="a_node1"><a xlink:href="dir_6266856b49a557f3541da33a77a3b02d.html" target="_top" xlink:title="custom_strategies">
<polygon fill="none" stroke="red" points="112.5,-108 15.5,-108 15.5,-72 112.5,-72 112.5,-108"/>
<text text-anchor="middle" x="64" y="-87.5" font-family="Helvetica,sans-Serif" font-size="10.00">custom_strategies</text>
</a>
</g>
</g>
<!-- dir_8fc3e8efef0bfca4a113d719cbd52afb -->
<g id="node4" class="node">
<title>dir_8fc3e8efef0bfca4a113d719cbd52afb</title>
<g id="a_node4"><a xlink:href="dir_8fc3e8efef0bfca4a113d719cbd52afb.html" target="_top" xlink:title="kratos">
<polygon fill="none" stroke="red" points="200,-36 146,-36 146,0 200,0 200,-36"/>
<text text-anchor="middle" x="173" y="-15.5" font-family="Helvetica,sans-Serif" font-size="10.00">kratos</text>
</a>
</g>
</g>
<!-- dir_6266856b49a557f3541da33a77a3b02d&#45;&gt;dir_8fc3e8efef0bfca4a113d719cbd52afb -->
<g id="edge1" class="edge">
<title>dir_6266856b49a557f3541da33a77a3b02d&#45;&gt;dir_8fc3e8efef0bfca4a113d719cbd52afb</title>
<path fill="none" stroke="black" d="M90.66,-71.88C104.78,-62.81 122.31,-51.55 137.56,-41.76"/>
<polygon fill="black" stroke="black" points="139.71,-44.54 146.23,-36.19 135.93,-38.65 139.71,-44.54"/>
<g id="a_edge1&#45;headlabel"><a xlink:href="dir_000100_000166.html" target="_top" xlink:title="39">
<text text-anchor="middle" x="138.22" y="-46.37" font-family="Helvetica,sans-Serif" font-size="10.00">39</text>
</a>
</g>
</g>
<!-- dir_b416276f7f62fe48e81bdbc74b631011 -->
<g id="node2" class="node">
<title>dir_b416276f7f62fe48e81bdbc74b631011</title>
<g id="a_node2"><a xlink:href="dir_b416276f7f62fe48e81bdbc74b631011.html" target="_top" xlink:title="custom_utilities">
<polygon fill="none" stroke="black" points="215.5,-108 130.5,-108 130.5,-72 215.5,-72 215.5,-108"/>
<text text-anchor="middle" x="173" y="-87.5" font-family="Helvetica,sans-Serif" font-size="10.00">custom_utilities</text>
</a>
</g>
</g>
<!-- dir_b416276f7f62fe48e81bdbc74b631011&#45;&gt;dir_8fc3e8efef0bfca4a113d719cbd52afb -->
<g id="edge5" class="edge">
<title>dir_b416276f7f62fe48e81bdbc74b631011&#45;&gt;dir_8fc3e8efef0bfca4a113d719cbd52afb</title>
<path fill="none" stroke="black" d="M173,-71.7C173,-63.98 173,-54.71 173,-46.11"/>
<polygon fill="black" stroke="black" points="176.5,-46.1 173,-36.1 169.5,-46.1 176.5,-46.1"/>
<g id="a_edge5&#45;headlabel"><a xlink:href="dir_000103_000166.html" target="_top" xlink:title="44">
<text text-anchor="middle" x="179.34" y="-47.2" font-family="Helvetica,sans-Serif" font-size="10.00">44</text>
</a>
</g>
</g>
<!-- dir_2f06ecad15faf65471e87c8be16145cf -->
<g id="node3" class="node">
<title>dir_2f06ecad15faf65471e87c8be16145cf</title>
<g id="a_node3"><a xlink:href="dir_2f06ecad15faf65471e87c8be16145cf.html" target="_top" xlink:title="custom_python">
<polygon fill="#eeeeff" stroke="black" points="214.5,-180 131.5,-180 131.5,-144 214.5,-144 214.5,-180"/>
<text text-anchor="middle" x="173" y="-159.5" font-family="Helvetica,sans-Serif" font-size="10.00">custom_python</text>
</a>
</g>
</g>
<!-- dir_2f06ecad15faf65471e87c8be16145cf&#45;&gt;dir_6266856b49a557f3541da33a77a3b02d -->
<g id="edge2" class="edge">
<title>dir_2f06ecad15faf65471e87c8be16145cf&#45;&gt;dir_6266856b49a557f3541da33a77a3b02d</title>
<path fill="none" stroke="black" d="M146.34,-143.88C132.22,-134.81 114.69,-123.55 99.44,-113.76"/>
<polygon fill="black" stroke="black" points="101.07,-110.65 90.77,-108.19 97.29,-116.54 101.07,-110.65"/>
<g id="a_edge2&#45;headlabel"><a xlink:href="dir_000007_000100.html" target="_top" xlink:title="6">
<text text-anchor="middle" x="105.63" y="-107.7" font-family="Helvetica,sans-Serif" font-size="10.00">6</text>
</a>
</g>
</g>
<!-- dir_2f06ecad15faf65471e87c8be16145cf&#45;&gt;dir_b416276f7f62fe48e81bdbc74b631011 -->
<g id="edge4" class="edge">
<title>dir_2f06ecad15faf65471e87c8be16145cf&#45;&gt;dir_b416276f7f62fe48e81bdbc74b631011</title>
<path fill="none" stroke="black" d="M173,-143.7C173,-135.98 173,-126.71 173,-118.11"/>
<polygon fill="black" stroke="black" points="176.5,-118.1 173,-108.1 169.5,-118.1 176.5,-118.1"/>
<g id="a_edge4&#45;headlabel"><a xlink:href="dir_000007_000103.html" target="_top" xlink:title="10">
<text text-anchor="middle" x="179.34" y="-119.2" font-family="Helvetica,sans-Serif" font-size="10.00">10</text>
</a>
</g>
</g>
<!-- dir_2f06ecad15faf65471e87c8be16145cf&#45;&gt;dir_8fc3e8efef0bfca4a113d719cbd52afb -->
<g id="edge3" class="edge">
<title>dir_2f06ecad15faf65471e87c8be16145cf&#45;&gt;dir_8fc3e8efef0bfca4a113d719cbd52afb</title>
<path fill="none" stroke="black" d="M196.75,-143.91C207.55,-134.65 219.2,-122.2 225,-108 232.4,-89.9 233.13,-81.79 225,-64 221.22,-55.73 215.08,-48.39 208.33,-42.17"/>
<polygon fill="black" stroke="black" points="210.13,-39.12 200.22,-35.39 205.64,-44.49 210.13,-39.12"/>
<g id="a_edge3&#45;headlabel"><a xlink:href="dir_000007_000166.html" target="_top" xlink:title="18">
<text text-anchor="middle" x="214.71" y="-36.75" font-family="Helvetica,sans-Serif" font-size="10.00">18</text>
</a>
</g>
</g>
</g>
</svg>
