<?xml version="1.0" encoding="UTF-8" standalone="no"?>
<!DOCTYPE svg PUBLIC "-//W3C//DTD SVG 1.1//EN"
 "http://www.w3.org/Graphics/SVG/1.1/DTD/svg11.dtd">
<!-- Generated by graphviz version 2.48.0 (20210719.0153)
 -->
<!-- Title: /github/workspace/kratos/processes Pages: 1 -->
<svg width="142pt" height="311pt"
 viewBox="0.00 0.00 142.00 311.00" xmlns="http://www.w3.org/2000/svg" xmlns:xlink="http://www.w3.org/1999/xlink">
<g id="graph0" class="graph" transform="scale(1 1) rotate(0) translate(4 307)">
<title>/github/workspace/kratos/processes</title>
<g id="clust1" class="cluster">
<title>clusterdir_8fc3e8efef0bfca4a113d719cbd52afb</title>
<g id="a_clust1"><a xlink:href="dir_8fc3e8efef0bfca4a113d719cbd52afb.html" target="_top" xlink:title="kratos">
<polygon fill="#ddddee" stroke="black" points="8,-8 8,-295 126,-295 126,-8 8,-8"/>
<text text-anchor="middle" x="67" y="-283" font-family="Helvetica,sans-Serif" font-size="10.00">kratos</text>
</a>
</g>
</g>
<!-- dir_6da2b5da699b6e8099c18b866a052d71 -->
<g id="node1" class="node">
<title>dir_6da2b5da699b6e8099c18b866a052d71</title>
<g id="a_node1"><a xlink:href="dir_6da2b5da699b6e8099c18b866a052d71.html" target="_top" xlink:title="includes">
<polygon fill="none" stroke="black" points="70,-196 16,-196 16,-160 70,-160 70,-196"/>
<text text-anchor="middle" x="43" y="-175.5" font-family="Helvetica,sans-Serif" font-size="10.00">includes</text>
</a>
</g>
</g>
<!-- dir_70f98bb657cca0a872199855cac08757 -->
<g id="node2" class="node">
<title>dir_70f98bb657cca0a872199855cac08757</title>
<g id="a_node2"><a xlink:href="dir_70f98bb657cca0a872199855cac08757.html" target="_top" xlink:title="utilities">
<polygon fill="none" stroke="black" points="82,-52 28,-52 28,-16 82,-16 82,-52"/>
<text text-anchor="middle" x="55" y="-31.5" font-family="Helvetica,sans-Serif" font-size="10.00">utilities</text>
</a>
</g>
</g>
<!-- dir_6da2b5da699b6e8099c18b866a052d71&#45;&gt;dir_70f98bb657cca0a872199855cac08757 -->
<g id="edge7" class="edge">
<title>dir_6da2b5da699b6e8099c18b866a052d71&#45;&gt;dir_70f98bb657cca0a872199855cac08757</title>
<path fill="none" stroke="black" d="M28.92,-159.8C19.91,-141.77 11.88,-112.69 18,-88 20.32,-78.65 24.62,-69.14 29.59,-60.8"/>
<polygon fill="black" stroke="black" points="32.62,-62.56 35.19,-52.28 26.77,-58.71 32.62,-62.56"/>
<g id="a_edge7&#45;headlabel"><a xlink:href="dir_000171_000185.html" target="_top" xlink:title="5">
<text text-anchor="middle" x="33.02" y="-64.62" font-family="Helvetica,sans-Serif" font-size="10.00">5</text>
</a>
</g>
</g>
<!-- dir_80b24cd11685060440d77842b83d8f07 -->
<g id="node3" class="node">
<title>dir_80b24cd11685060440d77842b83d8f07</title>
<g id="a_node3"><a xlink:href="dir_80b24cd11685060440d77842b83d8f07.html" target="_top" xlink:title="containers">
<polygon fill="none" stroke="black" points="98,-124 36,-124 36,-88 98,-88 98,-124"/>
<text text-anchor="middle" x="67" y="-103.5" font-family="Helvetica,sans-Serif" font-size="10.00">containers</text>
</a>
</g>
</g>
<!-- dir_6da2b5da699b6e8099c18b866a052d71&#45;&gt;dir_80b24cd11685060440d77842b83d8f07 -->
<g id="edge8" class="edge">
<title>dir_6da2b5da699b6e8099c18b866a052d71&#45;&gt;dir_80b24cd11685060440d77842b83d8f07</title>
<path fill="none" stroke="black" d="M43.02,-159.7C44.91,-151.81 47.95,-142.3 51.33,-133.55"/>
<polygon fill="black" stroke="black" points="54.64,-134.68 55.24,-124.1 48.18,-132 54.64,-134.68"/>
<g id="a_edge8&#45;headlabel"><a xlink:href="dir_000171_000167.html" target="_top" xlink:title="25">
<text text-anchor="middle" x="55.89" y="-136.59" font-family="Helvetica,sans-Serif" font-size="10.00">25</text>
</a>
</g>
</g>
<!-- dir_70f98bb657cca0a872199855cac08757&#45;&gt;dir_6da2b5da699b6e8099c18b866a052d71 -->
<g id="edge6" class="edge">
<title>dir_70f98bb657cca0a872199855cac08757&#45;&gt;dir_6da2b5da699b6e8099c18b866a052d71</title>
<path fill="none" stroke="black" d="M51.04,-52.28C45.99,-62.24 39.16,-75.27 36,-88 30.93,-108.44 35.57,-131.9 39.84,-149.6"/>
<polygon fill="black" stroke="black" points="36.56,-150.93 42.36,-159.8 43.36,-149.25 36.56,-150.93"/>
<g id="a_edge6&#45;headlabel"><a xlink:href="dir_000185_000171.html" target="_top" xlink:title="12">
<text text-anchor="middle" x="32.94" y="-145.62" font-family="Helvetica,sans-Serif" font-size="10.00">12</text>
</a>
</g>
</g>
<!-- dir_80b24cd11685060440d77842b83d8f07&#45;&gt;dir_6da2b5da699b6e8099c18b866a052d71 -->
<g id="edge1" class="edge">
<title>dir_80b24cd11685060440d77842b83d8f07&#45;&gt;dir_6da2b5da699b6e8099c18b866a052d71</title>
<path fill="none" stroke="black" d="M67.03,-124.1C65.16,-131.96 62.13,-141.46 58.76,-150.23"/>
<polygon fill="black" stroke="black" points="55.43,-149.12 54.85,-159.7 61.9,-151.79 55.43,-149.12"/>
<g id="a_edge1&#45;headlabel"><a xlink:href="dir_000167_000171.html" target="_top" xlink:title="24">
<text text-anchor="middle" x="54.18" y="-142.21" font-family="Helvetica,sans-Serif" font-size="10.00">24</text>
</a>
</g>
</g>
<!-- dir_80b24cd11685060440d77842b83d8f07&#45;&gt;dir_70f98bb657cca0a872199855cac08757 -->
<g id="edge2" class="edge">
<title>dir_80b24cd11685060440d77842b83d8f07&#45;&gt;dir_70f98bb657cca0a872199855cac08757</title>
<path fill="none" stroke="black" d="M64.03,-87.7C62.71,-79.98 61.12,-70.71 59.65,-62.11"/>
<polygon fill="black" stroke="black" points="63.07,-61.37 57.93,-52.1 56.17,-62.55 63.07,-61.37"/>
<g id="a_edge2&#45;headlabel"><a xlink:href="dir_000167_000185.html" target="_top" xlink:title="1">
<text text-anchor="middle" x="66.48" y="-61.93" font-family="Helvetica,sans-Serif" font-size="10.00">1</text>
</a>
</g>
</g>
<!-- dir_c7c5f3eb57bf72689def995461ffc148 -->
<g id="node4" class="node">
<title>dir_c7c5f3eb57bf72689def995461ffc148</title>
<g id="a_node4"><a xlink:href="dir_c7c5f3eb57bf72689def995461ffc148.html" target="_top" xlink:title="processes">
<polygon fill="#eeeeff" stroke="black" points="118,-268 56,-268 56,-232 118,-232 118,-268"/>
<text text-anchor="middle" x="87" y="-247.5" font-family="Helvetica,sans-Serif" font-size="10.00">processes</text>
</a>
</g>
</g>
<!-- dir_c7c5f3eb57bf72689def995461ffc148&#45;&gt;dir_6da2b5da699b6e8099c18b866a052d71 -->
<g id="edge3" class="edge">
<title>dir_c7c5f3eb57bf72689def995461ffc148&#45;&gt;dir_6da2b5da699b6e8099c18b866a052d71</title>
<path fill="none" stroke="black" d="M76.12,-231.7C71.01,-223.56 64.8,-213.69 59.16,-204.7"/>
<polygon fill="black" stroke="black" points="62.04,-202.71 53.75,-196.1 56.11,-206.43 62.04,-202.71"/>
<g id="a_edge3&#45;headlabel"><a xlink:href="dir_000175_000171.html" target="_top" xlink:title="16">
<text text-anchor="middle" x="66.35" y="-201.74" font-family="Helvetica,sans-Serif" font-size="10.00">16</text>
</a>
</g>
</g>
<!-- dir_c7c5f3eb57bf72689def995461ffc148&#45;&gt;dir_70f98bb657cca0a872199855cac08757 -->
<g id="edge4" class="edge">
<title>dir_c7c5f3eb57bf72689def995461ffc148&#45;&gt;dir_70f98bb657cca0a872199855cac08757</title>
<path fill="none" stroke="black" d="M94.53,-231.81C106.64,-201.55 127.14,-137.28 107,-88 102.51,-77.02 94.53,-67.08 86.15,-58.86"/>
<polygon fill="black" stroke="black" points="88.49,-56.26 78.75,-52.09 83.76,-61.42 88.49,-56.26"/>
<g id="a_edge4&#45;headlabel"><a xlink:href="dir_000175_000185.html" target="_top" xlink:title="1">
<text text-anchor="middle" x="93.06" y="-54.09" font-family="Helvetica,sans-Serif" font-size="10.00">1</text>
</a>
</g>
</g>
<!-- dir_c7c5f3eb57bf72689def995461ffc148&#45;&gt;dir_80b24cd11685060440d77842b83d8f07 -->
<g id="edge5" class="edge">
<title>dir_c7c5f3eb57bf72689def995461ffc148&#45;&gt;dir_80b24cd11685060440d77842b83d8f07</title>
<path fill="none" stroke="black" d="M86.14,-231.86C85.07,-213.87 82.91,-184.83 79,-160 77.66,-151.48 75.75,-142.29 73.84,-133.99"/>
<polygon fill="black" stroke="black" points="77.2,-132.99 71.47,-124.07 70.39,-134.61 77.2,-132.99"/>
<g id="a_edge5&#45;headlabel"><a xlink:href="dir_000175_000167.html" target="_top" xlink:title="3">
<text text-anchor="middle" x="80.8" y="-133.33" font-family="Helvetica,sans-Serif" font-size="10.00">3</text>
</a>
</g>
</g>
</g>
</svg>
