<?xml version="1.0" encoding="UTF-8" standalone="no"?>
<!DOCTYPE svg PUBLIC "-//W3C//DTD SVG 1.1//EN"
 "http://www.w3.org/Graphics/SVG/1.1/DTD/svg11.dtd">
<!-- Generated by graphviz version 2.48.0 (20210719.0153)
 -->
<!-- Title: /github/workspace/applications/incompressible_fluid_application Pages: 1 -->
<svg width="752pt" height="231pt"
 viewBox="0.00 0.00 752.00 231.00" xmlns="http://www.w3.org/2000/svg" xmlns:xlink="http://www.w3.org/1999/xlink">
<g id="graph0" class="graph" transform="scale(1 1) rotate(0) translate(4 227)">
<title>/github/workspace/applications/incompressible_fluid_application</title>
<g id="clust1" class="cluster">
<title>clusterdir_a6e4fee11f07c3b70486e88fe92cbbdc</title>
<g id="a_clust1"><a xlink:href="dir_a6e4fee11f07c3b70486e88fe92cbbdc.html" target="_top" xlink:title="applications">
<polygon fill="#ddddee" stroke="black" points="8,-56 8,-215 736,-215 736,-56 8,-56"/>
<text text-anchor="middle" x="372" y="-203" font-family="Helvetica,sans-Serif" font-size="10.00">applications</text>
</a>
</g>
</g>
<g id="clust2" class="cluster">
<title>clusterdir_c04e0b6f20d509ba7eba572f6264f0fc</title>
<g id="a_clust2"><a xlink:href="dir_c04e0b6f20d509ba7eba572f6264f0fc.html" target="_top">
<polygon fill="#eeeeff" stroke="black" points="16,-64 16,-188 728,-188 728,-64 16,-64"/>
</a>
</g>
</g>
<!-- dir_c04e0b6f20d509ba7eba572f6264f0fc -->
<g id="node1" class="node">
<title>dir_c04e0b6f20d509ba7eba572f6264f0fc</title>
<text text-anchor="middle" x="298" y="-159.5" font-family="Helvetica,sans-Serif" font-size="10.00">incompressible_fluid_application</text>
</g>
<!-- dir_d1f62c9b26b7e5ec597478612eab69f0 -->
<g id="node2" class="node">
<title>dir_d1f62c9b26b7e5ec597478612eab69f0</title>
<g id="a_node2"><a xlink:href="dir_d1f62c9b26b7e5ec597478612eab69f0.html" target="_top" xlink:title="custom_conditions">
<polygon fill="white" stroke="black" points="243,-108 145,-108 145,-72 243,-72 243,-108"/>
<text text-anchor="middle" x="194" y="-87.5" font-family="Helvetica,sans-Serif" font-size="10.00">custom_conditions</text>
</a>
</g>
</g>
<!-- dir_c04e0b6f20d509ba7eba572f6264f0fc&#45;&gt;dir_d1f62c9b26b7e5ec597478612eab69f0 -->
<g id="edge9" class="edge">
<title>dir_c04e0b6f20d509ba7eba572f6264f0fc&#45;&gt;dir_d1f62c9b26b7e5ec597478612eab69f0</title>
<path fill="none" stroke="black" d="M272.56,-143.88C259.21,-134.89 242.68,-123.76 228.22,-114.03"/>
<polygon fill="black" stroke="black" points="229.79,-110.87 219.54,-108.19 225.88,-116.68 229.79,-110.87"/>
<g id="a_edge9&#45;headlabel"><a xlink:href="dir_000006_000093.html" target="_top" xlink:title="1">
<text text-anchor="middle" x="234.36" y="-108.02" font-family="Helvetica,sans-Serif" font-size="10.00">1</text>
</a>
</g>
</g>
<!-- dir_088292a53803cec9548b99e5124c8019 -->
<g id="node3" class="node">
<title>dir_088292a53803cec9548b99e5124c8019</title>
<g id="a_node3"><a xlink:href="dir_088292a53803cec9548b99e5124c8019.html" target="_top" xlink:title="custom_elements">
<polygon fill="white" stroke="black" points="355,-108 261,-108 261,-72 355,-72 355,-108"/>
<text text-anchor="middle" x="308" y="-87.5" font-family="Helvetica,sans-Serif" font-size="10.00">custom_elements</text>
</a>
</g>
</g>
<!-- dir_c04e0b6f20d509ba7eba572f6264f0fc&#45;&gt;dir_088292a53803cec9548b99e5124c8019 -->
<g id="edge8" class="edge">
<title>dir_c04e0b6f20d509ba7eba572f6264f0fc&#45;&gt;dir_088292a53803cec9548b99e5124c8019</title>
<path fill="none" stroke="black" d="M300.47,-143.7C301.57,-135.98 302.9,-126.71 304.13,-118.11"/>
<polygon fill="black" stroke="black" points="307.61,-118.5 305.56,-108.1 300.68,-117.51 307.61,-118.5"/>
<g id="a_edge8&#45;headlabel"><a xlink:href="dir_000006_000094.html" target="_top" xlink:title="9">
<text text-anchor="middle" x="309.91" y="-119.96" font-family="Helvetica,sans-Serif" font-size="10.00">9</text>
</a>
</g>
</g>
<!-- dir_8fc3e8efef0bfca4a113d719cbd52afb -->
<g id="node11" class="node">
<title>dir_8fc3e8efef0bfca4a113d719cbd52afb</title>
<g id="a_node11"><a xlink:href="dir_8fc3e8efef0bfca4a113d719cbd52afb.html" target="_top" xlink:title="kratos">
<polygon fill="none" stroke="red" points="503,-36 449,-36 449,0 503,0 503,-36"/>
<text text-anchor="middle" x="476" y="-15.5" font-family="Helvetica,sans-Serif" font-size="10.00">kratos</text>
</a>
</g>
</g>
<!-- dir_d1f62c9b26b7e5ec597478612eab69f0&#45;&gt;dir_8fc3e8efef0bfca4a113d719cbd52afb -->
<g id="edge10" class="edge">
<title>dir_d1f62c9b26b7e5ec597478612eab69f0&#45;&gt;dir_8fc3e8efef0bfca4a113d719cbd52afb</title>
<path fill="none" stroke="black" d="M219.34,-72C229.17,-66.11 240.75,-59.98 252,-56 315.12,-33.64 393.11,-24.66 438.43,-21.15"/>
<polygon fill="black" stroke="black" points="438.96,-24.62 448.68,-20.41 438.46,-17.64 438.96,-24.62"/>
<g id="a_edge10&#45;headlabel"><a xlink:href="dir_000093_000166.html" target="_top" xlink:title="6">
<text text-anchor="middle" x="435.58" y="-25.22" font-family="Helvetica,sans-Serif" font-size="10.00">6</text>
</a>
</g>
</g>
<!-- dir_088292a53803cec9548b99e5124c8019&#45;&gt;dir_8fc3e8efef0bfca4a113d719cbd52afb -->
<g id="edge7" class="edge">
<title>dir_088292a53803cec9548b99e5124c8019&#45;&gt;dir_8fc3e8efef0bfca4a113d719cbd52afb</title>
<path fill="none" stroke="black" d="M334.95,-71.9C344.25,-66.4 354.89,-60.56 365,-56 389.09,-45.15 417.36,-35.77 439.34,-29.17"/>
<polygon fill="black" stroke="black" points="440.35,-32.52 448.96,-26.34 438.38,-25.81 440.35,-32.52"/>
<g id="a_edge7&#45;headlabel"><a xlink:href="dir_000094_000166.html" target="_top" xlink:title="63">
<text text-anchor="middle" x="437.71" y="-33.76" font-family="Helvetica,sans-Serif" font-size="10.00">63</text>
</a>
</g>
</g>
<!-- dir_b65c221f471e8f6fbed070ec9d1c0bd5 -->
<g id="node4" class="node">
<title>dir_b65c221f471e8f6fbed070ec9d1c0bd5</title>
<g id="a_node4"><a xlink:href="dir_b65c221f471e8f6fbed070ec9d1c0bd5.html" target="_top" xlink:title="custom_problemtype">
<polygon fill="white" stroke="black" points="602.5,-180 495.5,-180 495.5,-144 602.5,-144 602.5,-180"/>
<text text-anchor="middle" x="549" y="-159.5" font-family="Helvetica,sans-Serif" font-size="10.00">custom_problemtype</text>
</a>
</g>
</g>
<!-- dir_50ee2c57d29ad1fd58b1893efa1d470d -->
<g id="node5" class="node">
<title>dir_50ee2c57d29ad1fd58b1893efa1d470d</title>
<g id="a_node5"><a xlink:href="dir_50ee2c57d29ad1fd58b1893efa1d470d.html" target="_top" xlink:title="custom_processes">
<polygon fill="white" stroke="black" points="719.5,-180 620.5,-180 620.5,-144 719.5,-144 719.5,-180"/>
<text text-anchor="middle" x="670" y="-159.5" font-family="Helvetica,sans-Serif" font-size="10.00">custom_processes</text>
</a>
</g>
</g>
<!-- dir_50ee2c57d29ad1fd58b1893efa1d470d&#45;&gt;dir_8fc3e8efef0bfca4a113d719cbd52afb -->
<g id="edge6" class="edge">
<title>dir_50ee2c57d29ad1fd58b1893efa1d470d&#45;&gt;dir_8fc3e8efef0bfca4a113d719cbd52afb</title>
<path fill="none" stroke="black" d="M663.37,-143.74C653.52,-120.38 632.81,-78.98 602,-56 576.03,-36.63 540.05,-27.36 513.19,-22.95"/>
<polygon fill="black" stroke="black" points="513.43,-19.45 503.02,-21.44 512.4,-26.37 513.43,-19.45"/>
<g id="a_edge6&#45;headlabel"><a xlink:href="dir_000098_000166.html" target="_top" xlink:title="14">
<text text-anchor="middle" x="517.4" y="-14.67" font-family="Helvetica,sans-Serif" font-size="10.00">14</text>
</a>
</g>
</g>
<!-- dir_2f06ecad15faf65471e87c8be16145cf -->
<g id="node6" class="node">
<title>dir_2f06ecad15faf65471e87c8be16145cf</title>
<g id="a_node6"><a xlink:href="dir_2f06ecad15faf65471e87c8be16145cf.html" target="_top" xlink:title="custom_python">
<polygon fill="white" stroke="black" points="477.5,-180 394.5,-180 394.5,-144 477.5,-144 477.5,-180"/>
<text text-anchor="middle" x="436" y="-159.5" font-family="Helvetica,sans-Serif" font-size="10.00">custom_python</text>
</a>
</g>
</g>
<!-- dir_6266856b49a557f3541da33a77a3b02d -->
<g id="node7" class="node">
<title>dir_6266856b49a557f3541da33a77a3b02d</title>
<g id="a_node7"><a xlink:href="dir_6266856b49a557f3541da33a77a3b02d.html" target="_top" xlink:title="custom_strategies">
<polygon fill="white" stroke="red" points="470.5,-108 373.5,-108 373.5,-72 470.5,-72 470.5,-108"/>
<text text-anchor="middle" x="422" y="-87.5" font-family="Helvetica,sans-Serif" font-size="10.00">custom_strategies</text>
</a>
</g>
</g>
<!-- dir_2f06ecad15faf65471e87c8be16145cf&#45;&gt;dir_6266856b49a557f3541da33a77a3b02d -->
<g id="edge2" class="edge">
<title>dir_2f06ecad15faf65471e87c8be16145cf&#45;&gt;dir_6266856b49a557f3541da33a77a3b02d</title>
<path fill="none" stroke="black" d="M432.54,-143.7C431,-135.98 429.14,-126.71 427.42,-118.11"/>
<polygon fill="black" stroke="black" points="430.81,-117.22 425.42,-108.1 423.95,-118.6 430.81,-117.22"/>
<g id="a_edge2&#45;headlabel"><a xlink:href="dir_000007_000100.html" target="_top" xlink:title="6">
<text text-anchor="middle" x="434.3" y="-117.69" font-family="Helvetica,sans-Serif" font-size="10.00">6</text>
</a>
</g>
</g>
<!-- dir_b416276f7f62fe48e81bdbc74b631011 -->
<g id="node8" class="node">
<title>dir_b416276f7f62fe48e81bdbc74b631011</title>
<g id="a_node8"><a xlink:href="dir_b416276f7f62fe48e81bdbc74b631011.html" target="_top" xlink:title="custom_utilities">
<polygon fill="white" stroke="black" points="573.5,-108 488.5,-108 488.5,-72 573.5,-72 573.5,-108"/>
<text text-anchor="middle" x="531" y="-87.5" font-family="Helvetica,sans-Serif" font-size="10.00">custom_utilities</text>
</a>
</g>
</g>
<!-- dir_2f06ecad15faf65471e87c8be16145cf&#45;&gt;dir_b416276f7f62fe48e81bdbc74b631011 -->
<g id="edge4" class="edge">
<title>dir_2f06ecad15faf65471e87c8be16145cf&#45;&gt;dir_b416276f7f62fe48e81bdbc74b631011</title>
<path fill="none" stroke="black" d="M459.48,-143.7C471.56,-134.8 486.45,-123.82 499.52,-114.2"/>
<polygon fill="black" stroke="black" points="501.81,-116.85 507.79,-108.1 497.66,-111.22 501.81,-116.85"/>
<g id="a_edge4&#45;headlabel"><a xlink:href="dir_000007_000103.html" target="_top" xlink:title="10">
<text text-anchor="middle" x="500.6" y="-118.77" font-family="Helvetica,sans-Serif" font-size="10.00">10</text>
</a>
</g>
</g>
<!-- dir_2f06ecad15faf65471e87c8be16145cf&#45;&gt;dir_8fc3e8efef0bfca4a113d719cbd52afb -->
<g id="edge3" class="edge">
<title>dir_2f06ecad15faf65471e87c8be16145cf&#45;&gt;dir_8fc3e8efef0bfca4a113d719cbd52afb</title>
<path fill="none" stroke="black" d="M477.52,-146.67C520.42,-131.77 581.39,-110.3 583,-108 596.28,-89.09 596.41,-74.82 583,-56 567.23,-33.87 537.29,-24.85 513.08,-21.23"/>
<polygon fill="black" stroke="black" points="513.47,-17.76 503.11,-19.99 512.61,-24.7 513.47,-17.76"/>
<g id="a_edge3&#45;headlabel"><a xlink:href="dir_000007_000166.html" target="_top" xlink:title="18">
<text text-anchor="middle" x="517.39" y="-12.88" font-family="Helvetica,sans-Serif" font-size="10.00">18</text>
</a>
</g>
</g>
<!-- dir_6266856b49a557f3541da33a77a3b02d&#45;&gt;dir_8fc3e8efef0bfca4a113d719cbd52afb -->
<g id="edge1" class="edge">
<title>dir_6266856b49a557f3541da33a77a3b02d&#45;&gt;dir_8fc3e8efef0bfca4a113d719cbd52afb</title>
<path fill="none" stroke="black" d="M435.35,-71.7C441.76,-63.39 449.56,-53.28 456.61,-44.14"/>
<polygon fill="black" stroke="black" points="459.47,-46.16 462.81,-36.1 453.93,-41.88 459.47,-46.16"/>
<g id="a_edge1&#45;headlabel"><a xlink:href="dir_000100_000166.html" target="_top" xlink:title="39">
<text text-anchor="middle" x="459.52" y="-48.24" font-family="Helvetica,sans-Serif" font-size="10.00">39</text>
</a>
</g>
</g>
<!-- dir_b416276f7f62fe48e81bdbc74b631011&#45;&gt;dir_8fc3e8efef0bfca4a113d719cbd52afb -->
<g id="edge5" class="edge">
<title>dir_b416276f7f62fe48e81bdbc74b631011&#45;&gt;dir_8fc3e8efef0bfca4a113d719cbd52afb</title>
<path fill="none" stroke="black" d="M517.4,-71.7C510.88,-63.39 502.93,-53.28 495.75,-44.14"/>
<polygon fill="black" stroke="black" points="498.37,-41.81 489.44,-36.1 492.87,-46.13 498.37,-41.81"/>
<g id="a_edge5&#45;headlabel"><a xlink:href="dir_000103_000166.html" target="_top" xlink:title="44">
<text text-anchor="middle" x="502.82" y="-40.38" font-family="Helvetica,sans-Serif" font-size="10.00">44</text>
</a>
</g>
</g>
<!-- dir_570effe3dff77ab63f0fe63ad335b655 -->
<g id="node9" class="node">
<title>dir_570effe3dff77ab63f0fe63ad335b655</title>
<g id="a_node9"><a xlink:href="dir_570effe3dff77ab63f0fe63ad335b655.html" target="_top" xlink:title="python_scripts">
<polygon fill="white" stroke="black" points="202,-180 122,-180 122,-144 202,-144 202,-180"/>
<text text-anchor="middle" x="162" y="-159.5" font-family="Helvetica,sans-Serif" font-size="10.00">python_scripts</text>
</a>
</g>
</g>
<!-- dir_41dbcb7f9f025b49d07559d9d2a86485 -->
<g id="node10" class="node">
<title>dir_41dbcb7f9f025b49d07559d9d2a86485</title>
<g id="a_node10"><a xlink:href="dir_41dbcb7f9f025b49d07559d9d2a86485.html" target="_top" xlink:title="test_examples">
<polygon fill="white" stroke="red" points="104,-180 24,-180 24,-144 104,-144 104,-180"/>
<text text-anchor="middle" x="64" y="-159.5" font-family="Helvetica,sans-Serif" font-size="10.00">test_examples</text>
</a>
</g>
</g>
</g>
</svg>
