<?xml version="1.0" encoding="UTF-8" standalone="no"?>
<!DOCTYPE svg PUBLIC "-//W3C//DTD SVG 1.1//EN"
 "http://www.w3.org/Graphics/SVG/1.1/DTD/svg11.dtd">
<!-- Generated by graphviz version 2.48.0 (20210719.0153)
 -->
<!-- Title: /github/workspace/kratos/includes Pages: 1 -->
<svg width="146pt" height="311pt"
 viewBox="0.00 0.00 146.00 311.00" xmlns="http://www.w3.org/2000/svg" xmlns:xlink="http://www.w3.org/1999/xlink">
<g id="graph0" class="graph" transform="scale(1 1) rotate(0) translate(4 307)">
<title>/github/workspace/kratos/includes</title>
<g id="clust1" class="cluster">
<title>clusterdir_8fc3e8efef0bfca4a113d719cbd52afb</title>
<g id="a_clust1"><a xlink:href="dir_8fc3e8efef0bfca4a113d719cbd52afb.html" target="_top" xlink:title="kratos">
<polygon fill="#ddddee" stroke="black" points="8,-8 8,-295 130,-295 130,-8 8,-8"/>
<text text-anchor="middle" x="69" y="-283" font-family="Helvetica,sans-Serif" font-size="10.00">kratos</text>
</a>
</g>
</g>
<!-- dir_70f98bb657cca0a872199855cac08757 -->
<g id="node1" class="node">
<title>dir_70f98bb657cca0a872199855cac08757</title>
<g id="a_node1"><a xlink:href="dir_70f98bb657cca0a872199855cac08757.html" target="_top" xlink:title="utilities">
<polygon fill="none" stroke="black" points="99,-268 45,-268 45,-232 99,-232 99,-268"/>
<text text-anchor="middle" x="72" y="-247.5" font-family="Helvetica,sans-Serif" font-size="10.00">utilities</text>
</a>
</g>
</g>
<!-- dir_6da2b5da699b6e8099c18b866a052d71 -->
<g id="node4" class="node">
<title>dir_6da2b5da699b6e8099c18b866a052d71</title>
<g id="a_node4"><a xlink:href="dir_6da2b5da699b6e8099c18b866a052d71.html" target="_top" xlink:title="includes">
<polygon fill="#eeeeff" stroke="black" points="76,-196 22,-196 22,-160 76,-160 76,-196"/>
<text text-anchor="middle" x="49" y="-175.5" font-family="Helvetica,sans-Serif" font-size="10.00">includes</text>
</a>
</g>
</g>
<!-- dir_70f98bb657cca0a872199855cac08757&#45;&gt;dir_6da2b5da699b6e8099c18b866a052d71 -->
<g id="edge3" class="edge">
<title>dir_70f98bb657cca0a872199855cac08757&#45;&gt;dir_6da2b5da699b6e8099c18b866a052d71</title>
<path fill="none" stroke="black" d="M60.4,-231.7C57.03,-223.9 53.72,-214.51 51.23,-205.83"/>
<polygon fill="black" stroke="black" points="54.61,-204.91 48.72,-196.1 47.83,-206.66 54.61,-204.91"/>
<g id="a_edge3&#45;headlabel"><a xlink:href="dir_000185_000171.html" target="_top" xlink:title="12">
<text text-anchor="middle" x="58.26" y="-205.19" font-family="Helvetica,sans-Serif" font-size="10.00">12</text>
</a>
</g>
</g>
<!-- dir_80b24cd11685060440d77842b83d8f07 -->
<g id="node2" class="node">
<title>dir_80b24cd11685060440d77842b83d8f07</title>
<g id="a_node2"><a xlink:href="dir_80b24cd11685060440d77842b83d8f07.html" target="_top" xlink:title="containers">
<polygon fill="none" stroke="black" points="89,-52 27,-52 27,-16 89,-16 89,-52"/>
<text text-anchor="middle" x="58" y="-31.5" font-family="Helvetica,sans-Serif" font-size="10.00">containers</text>
</a>
</g>
</g>
<!-- dir_80b24cd11685060440d77842b83d8f07&#45;&gt;dir_70f98bb657cca0a872199855cac08757 -->
<g id="edge2" class="edge">
<title>dir_80b24cd11685060440d77842b83d8f07&#45;&gt;dir_70f98bb657cca0a872199855cac08757</title>
<path fill="none" stroke="black" d="M82.48,-52.23C93.4,-61.44 105.12,-73.81 111,-88 129.83,-133.46 106.07,-190.08 88.23,-222.63"/>
<polygon fill="black" stroke="black" points="85.07,-221.11 83.17,-231.53 91.16,-224.57 85.07,-221.11"/>
<g id="a_edge2&#45;headlabel"><a xlink:href="dir_000167_000185.html" target="_top" xlink:title="1">
<text text-anchor="middle" x="84.38" y="-214.08" font-family="Helvetica,sans-Serif" font-size="10.00">1</text>
</a>
</g>
</g>
<!-- dir_80b24cd11685060440d77842b83d8f07&#45;&gt;dir_6da2b5da699b6e8099c18b866a052d71 -->
<g id="edge1" class="edge">
<title>dir_80b24cd11685060440d77842b83d8f07&#45;&gt;dir_6da2b5da699b6e8099c18b866a052d71</title>
<path fill="none" stroke="black" d="M52.78,-52.09C47.08,-61.99 39.51,-75.04 36,-88 30.36,-108.8 36.85,-132.5 42.87,-150.21"/>
<polygon fill="black" stroke="black" points="39.65,-151.61 46.27,-159.88 46.26,-149.28 39.65,-151.61"/>
<g id="a_edge1&#45;headlabel"><a xlink:href="dir_000167_000171.html" target="_top" xlink:title="24">
<text text-anchor="middle" x="35.78" y="-146.66" font-family="Helvetica,sans-Serif" font-size="10.00">24</text>
</a>
</g>
</g>
<!-- dir_9311051b33dbe6b2e08fc45590134e6c -->
<g id="node3" class="node">
<title>dir_9311051b33dbe6b2e08fc45590134e6c</title>
<g id="a_node3"><a xlink:href="dir_9311051b33dbe6b2e08fc45590134e6c.html" target="_top" xlink:title="geometries">
<polygon fill="none" stroke="black" points="101.5,-124 36.5,-124 36.5,-88 101.5,-88 101.5,-124"/>
<text text-anchor="middle" x="69" y="-103.5" font-family="Helvetica,sans-Serif" font-size="10.00">geometries</text>
</a>
</g>
</g>
<!-- dir_9311051b33dbe6b2e08fc45590134e6c&#45;&gt;dir_70f98bb657cca0a872199855cac08757 -->
<g id="edge8" class="edge">
<title>dir_9311051b33dbe6b2e08fc45590134e6c&#45;&gt;dir_70f98bb657cca0a872199855cac08757</title>
<path fill="none" stroke="black" d="M75.65,-124.37C79.2,-134.58 83.2,-147.83 85,-160 87.34,-175.83 86.92,-180.12 85,-196 83.98,-204.47 82.07,-213.53 80.02,-221.72"/>
<polygon fill="black" stroke="black" points="76.6,-220.97 77.41,-231.53 83.36,-222.77 76.6,-220.97"/>
<g id="a_edge8&#45;headlabel"><a xlink:href="dir_000170_000185.html" target="_top" xlink:title="8">
<text text-anchor="middle" x="74.78" y="-214.26" font-family="Helvetica,sans-Serif" font-size="10.00">8</text>
</a>
</g>
</g>
<!-- dir_9311051b33dbe6b2e08fc45590134e6c&#45;&gt;dir_80b24cd11685060440d77842b83d8f07 -->
<g id="edge9" class="edge">
<title>dir_9311051b33dbe6b2e08fc45590134e6c&#45;&gt;dir_80b24cd11685060440d77842b83d8f07</title>
<path fill="none" stroke="black" d="M66.28,-87.7C65.07,-79.98 63.61,-70.71 62.26,-62.11"/>
<polygon fill="black" stroke="black" points="65.7,-61.44 60.69,-52.1 58.78,-62.53 65.7,-61.44"/>
<g id="a_edge9&#45;headlabel"><a xlink:href="dir_000170_000167.html" target="_top" xlink:title="3">
<text text-anchor="middle" x="69.06" y="-62.05" font-family="Helvetica,sans-Serif" font-size="10.00">3</text>
</a>
</g>
</g>
<!-- dir_9311051b33dbe6b2e08fc45590134e6c&#45;&gt;dir_6da2b5da699b6e8099c18b866a052d71 -->
<g id="edge7" class="edge">
<title>dir_9311051b33dbe6b2e08fc45590134e6c&#45;&gt;dir_6da2b5da699b6e8099c18b866a052d71</title>
<path fill="none" stroke="black" d="M70.01,-124.1C68.59,-131.96 66.1,-141.46 63.23,-150.23"/>
<polygon fill="black" stroke="black" points="59.92,-149.1 59.86,-159.7 66.51,-151.45 59.92,-149.1"/>
<g id="a_edge7&#45;headlabel"><a xlink:href="dir_000170_000171.html" target="_top" xlink:title="27">
<text text-anchor="middle" x="58.45" y="-142.26" font-family="Helvetica,sans-Serif" font-size="10.00">27</text>
</a>
</g>
</g>
<!-- dir_6da2b5da699b6e8099c18b866a052d71&#45;&gt;dir_70f98bb657cca0a872199855cac08757 -->
<g id="edge4" class="edge">
<title>dir_6da2b5da699b6e8099c18b866a052d71&#45;&gt;dir_70f98bb657cca0a872199855cac08757</title>
<path fill="none" stroke="black" d="M60.52,-196.1C63.88,-203.88 67.2,-213.26 69.7,-221.95"/>
<polygon fill="black" stroke="black" points="66.33,-222.89 72.23,-231.7 73.11,-221.14 66.33,-222.89"/>
<g id="a_edge4&#45;headlabel"><a xlink:href="dir_000171_000185.html" target="_top" xlink:title="5">
<text text-anchor="middle" x="62.68" y="-217.63" font-family="Helvetica,sans-Serif" font-size="10.00">5</text>
</a>
</g>
</g>
<!-- dir_6da2b5da699b6e8099c18b866a052d71&#45;&gt;dir_80b24cd11685060440d77842b83d8f07 -->
<g id="edge5" class="edge">
<title>dir_6da2b5da699b6e8099c18b866a052d71&#45;&gt;dir_80b24cd11685060440d77842b83d8f07</title>
<path fill="none" stroke="black" d="M32.83,-159.88C21.86,-141.92 11.26,-112.89 18,-88 20.61,-78.38 25.45,-68.71 30.98,-60.32"/>
<polygon fill="black" stroke="black" points="33.9,-62.25 36.93,-52.09 28.23,-58.15 33.9,-62.25"/>
<g id="a_edge5&#45;headlabel"><a xlink:href="dir_000171_000167.html" target="_top" xlink:title="25">
<text text-anchor="middle" x="34.1" y="-64.32" font-family="Helvetica,sans-Serif" font-size="10.00">25</text>
</a>
</g>
</g>
<!-- dir_6da2b5da699b6e8099c18b866a052d71&#45;&gt;dir_9311051b33dbe6b2e08fc45590134e6c -->
<g id="edge6" class="edge">
<title>dir_6da2b5da699b6e8099c18b866a052d71&#45;&gt;dir_9311051b33dbe6b2e08fc45590134e6c</title>
<path fill="none" stroke="black" d="M48.03,-159.7C49.47,-151.81 51.97,-142.3 54.84,-133.55"/>
<polygon fill="black" stroke="black" points="58.15,-134.7 58.22,-124.1 51.56,-132.34 58.15,-134.7"/>
<g id="a_edge6&#45;headlabel"><a xlink:href="dir_000171_000170.html" target="_top" xlink:title="9">
<text text-anchor="middle" x="59.61" y="-136.54" font-family="Helvetica,sans-Serif" font-size="10.00">9</text>
</a>
</g>
</g>
</g>
</svg>
