<?xml version="1.0" encoding="UTF-8" standalone="no"?>
<!DOCTYPE svg PUBLIC "-//W3C//DTD SVG 1.1//EN"
 "http://www.w3.org/Graphics/SVG/1.1/DTD/svg11.dtd">
<!-- Generated by graphviz version 2.48.0 (20210719.0153)
 -->
<!-- Title: /github/workspace/applications/ULFapplication/custom_python Pages: 1 -->
<svg width="500pt" height="223pt"
 viewBox="0.00 0.00 499.50 223.00" xmlns="http://www.w3.org/2000/svg" xmlns:xlink="http://www.w3.org/1999/xlink">
<g id="graph0" class="graph" transform="scale(1 1) rotate(0) translate(4 219)">
<title>/github/workspace/applications/ULFapplication/custom_python</title>
<g id="clust1" class="cluster">
<title>clusterdir_13cf10fdeb19b67cc588e70838cd0f96</title>
<g id="a_clust1"><a xlink:href="dir_13cf10fdeb19b67cc588e70838cd0f96.html" target="_top" xlink:title="ULFapplication">
<polygon fill="#ddddee" stroke="black" points="8,-64 8,-207 341,-207 341,-64 8,-64"/>
<text text-anchor="middle" x="174.5" y="-195" font-family="Helvetica,sans-Serif" font-size="10.00">ULFapplication</text>
</a>
</g>
</g>
<!-- dir_1cf5a9029d45e38809ae85fee5a9ddc2 -->
<g id="node1" class="node">
<title>dir_1cf5a9029d45e38809ae85fee5a9ddc2</title>
<g id="a_node1"><a xlink:href="dir_1cf5a9029d45e38809ae85fee5a9ddc2.html" target="_top" xlink:title="custom_utilities">
<polygon fill="none" stroke="black" points="101.5,-108 16.5,-108 16.5,-72 101.5,-72 101.5,-108"/>
<text text-anchor="middle" x="59" y="-87.5" font-family="Helvetica,sans-Serif" font-size="10.00">custom_utilities</text>
</a>
</g>
</g>
<!-- dir_8fc3e8efef0bfca4a113d719cbd52afb -->
<g id="node5" class="node">
<title>dir_8fc3e8efef0bfca4a113d719cbd52afb</title>
<g id="a_node5"><a xlink:href="dir_8fc3e8efef0bfca4a113d719cbd52afb.html" target="_top" xlink:title="kratos">
<polygon fill="none" stroke="red" points="312,-36 258,-36 258,0 312,0 312,-36"/>
<text text-anchor="middle" x="285" y="-15.5" font-family="Helvetica,sans-Serif" font-size="10.00">kratos</text>
</a>
</g>
</g>
<!-- dir_1cf5a9029d45e38809ae85fee5a9ddc2&#45;&gt;dir_8fc3e8efef0bfca4a113d719cbd52afb -->
<g id="edge7" class="edge">
<title>dir_1cf5a9029d45e38809ae85fee5a9ddc2&#45;&gt;dir_8fc3e8efef0bfca4a113d719cbd52afb</title>
<path fill="none" stroke="black" d="M92.15,-71.88C98.33,-69.03 104.79,-66.27 111,-64 157.14,-47.13 212.35,-33.98 248.01,-26.37"/>
<polygon fill="black" stroke="black" points="248.91,-29.76 257.98,-24.28 247.47,-22.91 248.91,-29.76"/>
<g id="a_edge7&#45;headlabel"><a xlink:href="dir_000106_000166.html" target="_top" xlink:title="12">
<text text-anchor="middle" x="245.97" y="-30.77" font-family="Helvetica,sans-Serif" font-size="10.00">12</text>
</a>
</g>
</g>
<!-- dir_5984532fb29b12c8d704229a4844efde -->
<g id="node2" class="node">
<title>dir_5984532fb29b12c8d704229a4844efde</title>
<g id="a_node2"><a xlink:href="dir_5984532fb29b12c8d704229a4844efde.html" target="_top" xlink:title="custom_processes">
<polygon fill="none" stroke="black" points="218.5,-108 119.5,-108 119.5,-72 218.5,-72 218.5,-108"/>
<text text-anchor="middle" x="169" y="-87.5" font-family="Helvetica,sans-Serif" font-size="10.00">custom_processes</text>
</a>
</g>
</g>
<!-- dir_5984532fb29b12c8d704229a4844efde&#45;&gt;dir_8fc3e8efef0bfca4a113d719cbd52afb -->
<g id="edge9" class="edge">
<title>dir_5984532fb29b12c8d704229a4844efde&#45;&gt;dir_8fc3e8efef0bfca4a113d719cbd52afb</title>
<path fill="none" stroke="black" d="M197.38,-71.88C212.88,-62.52 232.25,-50.83 248.83,-40.83"/>
<polygon fill="black" stroke="black" points="250.96,-43.63 257.71,-35.47 247.34,-37.64 250.96,-43.63"/>
<g id="a_edge9&#45;headlabel"><a xlink:href="dir_000099_000166.html" target="_top" xlink:title="58">
<text text-anchor="middle" x="249.35" y="-45.42" font-family="Helvetica,sans-Serif" font-size="10.00">58</text>
</a>
</g>
</g>
<!-- dir_b0ac3330f2a8c29ad59f6a6d58057c10 -->
<g id="node3" class="node">
<title>dir_b0ac3330f2a8c29ad59f6a6d58057c10</title>
<g id="a_node3"><a xlink:href="dir_b0ac3330f2a8c29ad59f6a6d58057c10.html" target="_top" xlink:title="custom_strategies">
<polygon fill="none" stroke="red" points="333.5,-108 236.5,-108 236.5,-72 333.5,-72 333.5,-108"/>
<text text-anchor="middle" x="285" y="-87.5" font-family="Helvetica,sans-Serif" font-size="10.00">custom_strategies</text>
</a>
</g>
</g>
<!-- dir_b0ac3330f2a8c29ad59f6a6d58057c10&#45;&gt;dir_8fc3e8efef0bfca4a113d719cbd52afb -->
<g id="edge8" class="edge">
<title>dir_b0ac3330f2a8c29ad59f6a6d58057c10&#45;&gt;dir_8fc3e8efef0bfca4a113d719cbd52afb</title>
<path fill="none" stroke="black" d="M285,-71.7C285,-63.98 285,-54.71 285,-46.11"/>
<polygon fill="black" stroke="black" points="288.5,-46.1 285,-36.1 281.5,-46.1 288.5,-46.1"/>
<g id="a_edge8&#45;headlabel"><a xlink:href="dir_000159_000166.html" target="_top" xlink:title="3">
<text text-anchor="middle" x="291.34" y="-47.2" font-family="Helvetica,sans-Serif" font-size="10.00">3</text>
</a>
</g>
</g>
<!-- dir_948614a39a4a2935053fb12afb798504 -->
<g id="node4" class="node">
<title>dir_948614a39a4a2935053fb12afb798504</title>
<g id="a_node4"><a xlink:href="dir_948614a39a4a2935053fb12afb798504.html" target="_top" xlink:title="custom_python">
<polygon fill="#eeeeff" stroke="black" points="326.5,-180 243.5,-180 243.5,-144 326.5,-144 326.5,-180"/>
<text text-anchor="middle" x="285" y="-159.5" font-family="Helvetica,sans-Serif" font-size="10.00">custom_python</text>
</a>
</g>
</g>
<!-- dir_948614a39a4a2935053fb12afb798504&#45;&gt;dir_1cf5a9029d45e38809ae85fee5a9ddc2 -->
<g id="edge1" class="edge">
<title>dir_948614a39a4a2935053fb12afb798504&#45;&gt;dir_1cf5a9029d45e38809ae85fee5a9ddc2</title>
<path fill="none" stroke="black" d="M243.44,-148.6C210.21,-138.63 162.2,-124.09 111.12,-108.01"/>
<polygon fill="black" stroke="black" points="112.13,-104.66 101.54,-104.99 110.03,-111.33 112.13,-104.66"/>
<g id="a_edge1&#45;headlabel"><a xlink:href="dir_000011_000106.html" target="_top" xlink:title="2">
<text text-anchor="middle" x="116.42" y="-100.53" font-family="Helvetica,sans-Serif" font-size="10.00">2</text>
</a>
</g>
</g>
<!-- dir_948614a39a4a2935053fb12afb798504&#45;&gt;dir_5984532fb29b12c8d704229a4844efde -->
<g id="edge2" class="edge">
<title>dir_948614a39a4a2935053fb12afb798504&#45;&gt;dir_5984532fb29b12c8d704229a4844efde</title>
<path fill="none" stroke="black" d="M256.62,-143.88C241.46,-134.72 222.59,-123.34 206.26,-113.48"/>
<polygon fill="black" stroke="black" points="207.86,-110.36 197.49,-108.19 204.24,-116.35 207.86,-110.36"/>
<g id="a_edge2&#45;headlabel"><a xlink:href="dir_000011_000099.html" target="_top" xlink:title="5">
<text text-anchor="middle" x="212.4" y="-107.29" font-family="Helvetica,sans-Serif" font-size="10.00">5</text>
</a>
</g>
</g>
<!-- dir_948614a39a4a2935053fb12afb798504&#45;&gt;dir_b0ac3330f2a8c29ad59f6a6d58057c10 -->
<g id="edge4" class="edge">
<title>dir_948614a39a4a2935053fb12afb798504&#45;&gt;dir_b0ac3330f2a8c29ad59f6a6d58057c10</title>
<path fill="none" stroke="black" d="M285,-143.7C285,-135.98 285,-126.71 285,-118.11"/>
<polygon fill="black" stroke="black" points="288.5,-118.1 285,-108.1 281.5,-118.1 288.5,-118.1"/>
<g id="a_edge4&#45;headlabel"><a xlink:href="dir_000011_000159.html" target="_top" xlink:title="1">
<text text-anchor="middle" x="291.34" y="-119.2" font-family="Helvetica,sans-Serif" font-size="10.00">1</text>
</a>
</g>
</g>
<!-- dir_948614a39a4a2935053fb12afb798504&#45;&gt;dir_8fc3e8efef0bfca4a113d719cbd52afb -->
<g id="edge3" class="edge">
<title>dir_948614a39a4a2935053fb12afb798504&#45;&gt;dir_8fc3e8efef0bfca4a113d719cbd52afb</title>
<path fill="none" stroke="black" d="M312.34,-143.77C324.11,-134.72 336.62,-122.48 343,-108 350.89,-90.11 351.6,-81.56 343,-64 338.02,-53.83 329.52,-45.31 320.53,-38.5"/>
<polygon fill="black" stroke="black" points="322.44,-35.57 312.23,-32.74 318.45,-41.32 322.44,-35.57"/>
<g id="a_edge3&#45;headlabel"><a xlink:href="dir_000011_000166.html" target="_top" xlink:title="37">
<text text-anchor="middle" x="327.01" y="-32.79" font-family="Helvetica,sans-Serif" font-size="10.00">37</text>
</a>
</g>
</g>
<!-- dir_f9ce0647f038f5bdd0f06592e0001204 -->
<g id="node6" class="node">
<title>dir_f9ce0647f038f5bdd0f06592e0001204</title>
<g id="a_node6"><a xlink:href="dir_f9ce0647f038f5bdd0f06592e0001204.html" target="_top" xlink:title="MeshingApplication">
<polygon fill="none" stroke="red" points="491.5,-108 390.5,-108 390.5,-72 491.5,-72 491.5,-108"/>
<text text-anchor="middle" x="441" y="-87.5" font-family="Helvetica,sans-Serif" font-size="10.00">MeshingApplication</text>
</a>
</g>
</g>
<!-- dir_948614a39a4a2935053fb12afb798504&#45;&gt;dir_f9ce0647f038f5bdd0f06592e0001204 -->
<g id="edge5" class="edge">
<title>dir_948614a39a4a2935053fb12afb798504&#45;&gt;dir_f9ce0647f038f5bdd0f06592e0001204</title>
<path fill="none" stroke="black" d="M323.16,-143.88C344.39,-134.35 371.01,-122.41 393.57,-112.28"/>
<polygon fill="black" stroke="black" points="395.27,-115.36 402.96,-108.07 392.41,-108.97 395.27,-115.36"/>
<g id="a_edge5&#45;headlabel"><a xlink:href="dir_000011_000014.html" target="_top" xlink:title="4">
<text text-anchor="middle" x="393.15" y="-116.92" font-family="Helvetica,sans-Serif" font-size="10.00">4</text>
</a>
</g>
</g>
<!-- dir_f9ce0647f038f5bdd0f06592e0001204&#45;&gt;dir_8fc3e8efef0bfca4a113d719cbd52afb -->
<g id="edge6" class="edge">
<title>dir_f9ce0647f038f5bdd0f06592e0001204&#45;&gt;dir_8fc3e8efef0bfca4a113d719cbd52afb</title>
<path fill="none" stroke="black" d="M402.84,-71.88C377.99,-60.73 345.78,-46.27 321.31,-35.29"/>
<polygon fill="black" stroke="black" points="322.57,-32.02 312.01,-31.12 319.7,-38.41 322.57,-32.02"/>
<g id="a_edge6&#45;headlabel"><a xlink:href="dir_000014_000166.html" target="_top" xlink:title="71">
<text text-anchor="middle" x="327.01" y="-28.4" font-family="Helvetica,sans-Serif" font-size="10.00">71</text>
</a>
</g>
</g>
</g>
</svg>
