<?xml version="1.0" encoding="UTF-8" standalone="no"?>
<!DOCTYPE svg PUBLIC "-//W3C//DTD SVG 1.1//EN"
 "http://www.w3.org/Graphics/SVG/1.1/DTD/svg11.dtd">
<!-- Generated by graphviz version 2.48.0 (20210719.0153)
 -->
<!-- Title: /github/workspace/applications/PFEMapplication/custom_processes Pages: 1 -->
<svg width="140pt" height="223pt"
 viewBox="0.00 0.00 140.00 223.00" xmlns="http://www.w3.org/2000/svg" xmlns:xlink="http://www.w3.org/1999/xlink">
<g id="graph0" class="graph" transform="scale(1 1) rotate(0) translate(4 219)">
<title>/github/workspace/applications/PFEMapplication/custom_processes</title>
<g id="clust1" class="cluster">
<title>clusterdir_a720844cb03fe2f2299517836427bf6b</title>
<g id="a_clust1"><a xlink:href="dir_a720844cb03fe2f2299517836427bf6b.html" target="_top" xlink:title="PFEMapplication">
<polygon fill="#ddddee" stroke="black" points="8,-64 8,-207 124,-207 124,-64 8,-64"/>
<text text-anchor="middle" x="66" y="-195" font-family="Helvetica,sans-Serif" font-size="10.00">PFEMapplication</text>
</a>
</g>
</g>
<!-- dir_199531c7861e754bf5d15600dc9c65f9 -->
<g id="node1" class="node">
<title>dir_199531c7861e754bf5d15600dc9c65f9</title>
<g id="a_node1"><a xlink:href="dir_199531c7861e754bf5d15600dc9c65f9.html" target="_top" xlink:title="custom_conditions">
<polygon fill="none" stroke="black" points="114,-108 16,-108 16,-72 114,-72 114,-108"/>
<text text-anchor="middle" x="65" y="-87.5" font-family="Helvetica,sans-Serif" font-size="10.00">custom_conditions</text>
</a>
</g>
</g>
<!-- dir_8fc3e8efef0bfca4a113d719cbd52afb -->
<g id="node3" class="node">
<title>dir_8fc3e8efef0bfca4a113d719cbd52afb</title>
<g id="a_node3"><a xlink:href="dir_8fc3e8efef0bfca4a113d719cbd52afb.html" target="_top" xlink:title="kratos">
<polygon fill="none" stroke="red" points="130,-36 76,-36 76,0 130,0 130,-36"/>
<text text-anchor="middle" x="103" y="-15.5" font-family="Helvetica,sans-Serif" font-size="10.00">kratos</text>
</a>
</g>
</g>
<!-- dir_199531c7861e754bf5d15600dc9c65f9&#45;&gt;dir_8fc3e8efef0bfca4a113d719cbd52afb -->
<g id="edge1" class="edge">
<title>dir_199531c7861e754bf5d15600dc9c65f9&#45;&gt;dir_8fc3e8efef0bfca4a113d719cbd52afb</title>
<path fill="none" stroke="black" d="M74.39,-71.7C78.76,-63.64 84.06,-53.89 88.9,-44.98"/>
<polygon fill="black" stroke="black" points="92.02,-46.56 93.71,-36.1 85.87,-43.22 92.02,-46.56"/>
<g id="a_edge1&#45;headlabel"><a xlink:href="dir_000123_000166.html" target="_top" xlink:title="18">
<text text-anchor="middle" x="92.8" y="-48.58" font-family="Helvetica,sans-Serif" font-size="10.00">18</text>
</a>
</g>
</g>
<!-- dir_2175caaa5fbe94dce57085835af85825 -->
<g id="node2" class="node">
<title>dir_2175caaa5fbe94dce57085835af85825</title>
<g id="a_node2"><a xlink:href="dir_2175caaa5fbe94dce57085835af85825.html" target="_top" xlink:title="custom_processes">
<polygon fill="#eeeeff" stroke="black" points="115.5,-180 16.5,-180 16.5,-144 115.5,-144 115.5,-180"/>
<text text-anchor="middle" x="66" y="-159.5" font-family="Helvetica,sans-Serif" font-size="10.00">custom_processes</text>
</a>
</g>
</g>
<!-- dir_2175caaa5fbe94dce57085835af85825&#45;&gt;dir_199531c7861e754bf5d15600dc9c65f9 -->
<g id="edge2" class="edge">
<title>dir_2175caaa5fbe94dce57085835af85825&#45;&gt;dir_199531c7861e754bf5d15600dc9c65f9</title>
<path fill="none" stroke="black" d="M65.75,-143.7C65.64,-135.98 65.51,-126.71 65.39,-118.11"/>
<polygon fill="black" stroke="black" points="68.89,-118.05 65.24,-108.1 61.89,-118.15 68.89,-118.05"/>
<g id="a_edge2&#45;headlabel"><a xlink:href="dir_000126_000123.html" target="_top" xlink:title="2">
<text text-anchor="middle" x="71.78" y="-119.11" font-family="Helvetica,sans-Serif" font-size="10.00">2</text>
</a>
</g>
</g>
<!-- dir_2175caaa5fbe94dce57085835af85825&#45;&gt;dir_8fc3e8efef0bfca4a113d719cbd52afb -->
<g id="edge3" class="edge">
<title>dir_2175caaa5fbe94dce57085835af85825&#45;&gt;dir_8fc3e8efef0bfca4a113d719cbd52afb</title>
<path fill="none" stroke="black" d="M92.58,-143.91C104.24,-134.81 116.69,-122.49 123,-108 131.7,-88.03 125.28,-63.83 117.47,-45.71"/>
<polygon fill="black" stroke="black" points="120.49,-43.9 113.08,-36.33 114.15,-46.87 120.49,-43.9"/>
<g id="a_edge3&#45;headlabel"><a xlink:href="dir_000126_000166.html" target="_top" xlink:title="53">
<text text-anchor="middle" x="124.59" y="-43.46" font-family="Helvetica,sans-Serif" font-size="10.00">53</text>
</a>
</g>
</g>
</g>
</svg>
