<?xml version="1.0" encoding="UTF-8" standalone="no"?>
<!DOCTYPE svg PUBLIC "-//W3C//DTD SVG 1.1//EN"
 "http://www.w3.org/Graphics/SVG/1.1/DTD/svg11.dtd">
<!-- Generated by graphviz version 2.48.0 (20210719.0153)
 -->
<!-- Title: /github/workspace/applications/ExternalSolversApplication Pages: 1 -->
<svg width="388pt" height="231pt"
 viewBox="0.00 0.00 388.00 231.00" xmlns="http://www.w3.org/2000/svg" xmlns:xlink="http://www.w3.org/1999/xlink">
<g id="graph0" class="graph" transform="scale(1 1) rotate(0) translate(4 227)">
<title>/github/workspace/applications/ExternalSolversApplication</title>
<g id="clust1" class="cluster">
<title>clusterdir_a6e4fee11f07c3b70486e88fe92cbbdc</title>
<g id="a_clust1"><a xlink:href="dir_a6e4fee11f07c3b70486e88fe92cbbdc.html" target="_top" xlink:title="applications">
<polygon fill="#ddddee" stroke="black" points="8,-56 8,-215 372,-215 372,-56 8,-56"/>
<text text-anchor="middle" x="190" y="-203" font-family="Helvetica,sans-Serif" font-size="10.00">applications</text>
</a>
</g>
</g>
<g id="clust2" class="cluster">
<title>clusterdir_6566e293fc719a78ee3fe7f77578c5de</title>
<g id="a_clust2"><a xlink:href="dir_6566e293fc719a78ee3fe7f77578c5de.html" target="_top">
<polygon fill="#eeeeff" stroke="black" points="16,-64 16,-188 364,-188 364,-64 16,-64"/>
</a>
</g>
</g>
<!-- dir_6566e293fc719a78ee3fe7f77578c5de -->
<g id="node1" class="node">
<title>dir_6566e293fc719a78ee3fe7f77578c5de</title>
<text text-anchor="middle" x="290" y="-159.5" font-family="Helvetica,sans-Serif" font-size="10.00">ExternalSolversApplication</text>
</g>
<!-- dir_36dbaf3f6fd601ec70a01050ec48dc4e -->
<g id="node2" class="node">
<title>dir_36dbaf3f6fd601ec70a01050ec48dc4e</title>
<g id="a_node2"><a xlink:href="dir_36dbaf3f6fd601ec70a01050ec48dc4e.html" target="_top" xlink:title="custom_python">
<polygon fill="white" stroke="black" points="205.5,-180 122.5,-180 122.5,-144 205.5,-144 205.5,-180"/>
<text text-anchor="middle" x="164" y="-159.5" font-family="Helvetica,sans-Serif" font-size="10.00">custom_python</text>
</a>
</g>
</g>
<!-- dir_15641bd6738b249a846e39c4000a33d4 -->
<g id="node3" class="node">
<title>dir_15641bd6738b249a846e39c4000a33d4</title>
<g id="a_node3"><a xlink:href="dir_15641bd6738b249a846e39c4000a33d4.html" target="_top" xlink:title="external_includes">
<polygon fill="white" stroke="red" points="173,-108 81,-108 81,-72 173,-72 173,-108"/>
<text text-anchor="middle" x="127" y="-87.5" font-family="Helvetica,sans-Serif" font-size="10.00">external_includes</text>
</a>
</g>
</g>
<!-- dir_36dbaf3f6fd601ec70a01050ec48dc4e&#45;&gt;dir_15641bd6738b249a846e39c4000a33d4 -->
<g id="edge2" class="edge">
<title>dir_36dbaf3f6fd601ec70a01050ec48dc4e&#45;&gt;dir_15641bd6738b249a846e39c4000a33d4</title>
<path fill="none" stroke="black" d="M154.85,-143.7C150.6,-135.64 145.44,-125.89 140.73,-116.98"/>
<polygon fill="black" stroke="black" points="143.81,-115.31 136.04,-108.1 137.62,-118.58 143.81,-115.31"/>
<g id="a_edge2&#45;headlabel"><a xlink:href="dir_000042_000043.html" target="_top" xlink:title="2">
<text text-anchor="middle" x="148" y="-114.66" font-family="Helvetica,sans-Serif" font-size="10.00">2</text>
</a>
</g>
</g>
<!-- dir_8fc3e8efef0bfca4a113d719cbd52afb -->
<g id="node5" class="node">
<title>dir_8fc3e8efef0bfca4a113d719cbd52afb</title>
<g id="a_node5"><a xlink:href="dir_8fc3e8efef0bfca4a113d719cbd52afb.html" target="_top" xlink:title="kratos">
<polygon fill="none" stroke="red" points="191,-36 137,-36 137,0 191,0 191,-36"/>
<text text-anchor="middle" x="164" y="-15.5" font-family="Helvetica,sans-Serif" font-size="10.00">kratos</text>
</a>
</g>
</g>
<!-- dir_36dbaf3f6fd601ec70a01050ec48dc4e&#45;&gt;dir_8fc3e8efef0bfca4a113d719cbd52afb -->
<g id="edge3" class="edge">
<title>dir_36dbaf3f6fd601ec70a01050ec48dc4e&#45;&gt;dir_8fc3e8efef0bfca4a113d719cbd52afb</title>
<path fill="none" stroke="black" d="M171.48,-143.7C175.47,-133.52 179.97,-120.27 182,-108 185.77,-85.2 187.19,-78.52 182,-56 181.19,-52.48 180,-48.91 178.61,-45.45"/>
<polygon fill="black" stroke="black" points="181.66,-43.72 174.31,-36.09 175.3,-46.64 181.66,-43.72"/>
<g id="a_edge3&#45;headlabel"><a xlink:href="dir_000042_000166.html" target="_top" xlink:title="7">
<text text-anchor="middle" x="185.74" y="-43.3" font-family="Helvetica,sans-Serif" font-size="10.00">7</text>
</a>
</g>
</g>
<!-- dir_15641bd6738b249a846e39c4000a33d4&#45;&gt;dir_8fc3e8efef0bfca4a113d719cbd52afb -->
<g id="edge1" class="edge">
<title>dir_15641bd6738b249a846e39c4000a33d4&#45;&gt;dir_8fc3e8efef0bfca4a113d719cbd52afb</title>
<path fill="none" stroke="black" d="M136.15,-71.7C140.4,-63.64 145.56,-53.89 150.27,-44.98"/>
<polygon fill="black" stroke="black" points="153.38,-46.58 154.96,-36.1 147.19,-43.31 153.38,-46.58"/>
<g id="a_edge1&#45;headlabel"><a xlink:href="dir_000043_000166.html" target="_top" xlink:title="10">
<text text-anchor="middle" x="154.21" y="-48.59" font-family="Helvetica,sans-Serif" font-size="10.00">10</text>
</a>
</g>
</g>
<!-- dir_75f78ae65c20f61bfdf876984d1ccc19 -->
<g id="node4" class="node">
<title>dir_75f78ae65c20f61bfdf876984d1ccc19</title>
<g id="a_node4"><a xlink:href="dir_75f78ae65c20f61bfdf876984d1ccc19.html" target="_top" xlink:title="test_examples">
<polygon fill="white" stroke="red" points="104,-180 24,-180 24,-144 104,-144 104,-180"/>
<text text-anchor="middle" x="64" y="-159.5" font-family="Helvetica,sans-Serif" font-size="10.00">test_examples</text>
</a>
</g>
</g>
</g>
</svg>
