<?xml version="1.0" encoding="UTF-8" standalone="no"?>
<!DOCTYPE svg PUBLIC "-//W3C//DTD SVG 1.1//EN"
 "http://www.w3.org/Graphics/SVG/1.1/DTD/svg11.dtd">
<!-- Generated by graphviz version 2.48.0 (20210719.0153)
 -->
<!-- Title: /github/workspace/applications/structural_application/custom_strategies/strategies Pages: 1 -->
<svg width="153pt" height="223pt"
 viewBox="0.00 0.00 153.00 223.00" xmlns="http://www.w3.org/2000/svg" xmlns:xlink="http://www.w3.org/1999/xlink">
<g id="graph0" class="graph" transform="scale(1 1) rotate(0) translate(4 219)">
<title>/github/workspace/applications/structural_application/custom_strategies/strategies</title>
<g id="clust1" class="cluster">
<title>clusterdir_bc2fe0d635ebb09283c8b9eb1131e337</title>
<g id="a_clust1"><a xlink:href="dir_bc2fe0d635ebb09283c8b9eb1131e337.html" target="_top" xlink:title="custom_strategies">
<polygon fill="#ddddee" stroke="black" points="40,-136 40,-207 137,-207 137,-136 40,-136"/>
<text text-anchor="middle" x="88.5" y="-195" font-family="Helvetica,sans-Serif" font-size="10.00">custom_strategies</text>
</a>
</g>
</g>
<!-- dir_1fdcfcc260c9d44ca4018942c3c30915 -->
<g id="node1" class="node">
<title>dir_1fdcfcc260c9d44ca4018942c3c30915</title>
<g id="a_node1"><a xlink:href="dir_1fdcfcc260c9d44ca4018942c3c30915.html" target="_top" xlink:title="strategies">
<polygon fill="#eeeeff" stroke="black" points="117.5,-180 58.5,-180 58.5,-144 117.5,-144 117.5,-180"/>
<text text-anchor="middle" x="88" y="-159.5" font-family="Helvetica,sans-Serif" font-size="10.00">strategies</text>
</a>
</g>
</g>
<!-- dir_1d7efcbcbf95e3ad0a9afcd427a4c832 -->
<g id="node2" class="node">
<title>dir_1d7efcbcbf95e3ad0a9afcd427a4c832</title>
<g id="a_node2"><a xlink:href="dir_1d7efcbcbf95e3ad0a9afcd427a4c832.html" target="_top" xlink:title="custom_conditions">
<polygon fill="none" stroke="black" points="98,-108 0,-108 0,-72 98,-72 98,-108"/>
<text text-anchor="middle" x="49" y="-87.5" font-family="Helvetica,sans-Serif" font-size="10.00">custom_conditions</text>
</a>
</g>
</g>
<!-- dir_1fdcfcc260c9d44ca4018942c3c30915&#45;&gt;dir_1d7efcbcbf95e3ad0a9afcd427a4c832 -->
<g id="edge1" class="edge">
<title>dir_1fdcfcc260c9d44ca4018942c3c30915&#45;&gt;dir_1d7efcbcbf95e3ad0a9afcd427a4c832</title>
<path fill="none" stroke="black" d="M78.36,-143.7C73.87,-135.64 68.44,-125.89 63.48,-116.98"/>
<polygon fill="black" stroke="black" points="66.45,-115.14 58.53,-108.1 60.34,-118.54 66.45,-115.14"/>
<g id="a_edge1&#45;headlabel"><a xlink:href="dir_000140_000134.html" target="_top" xlink:title="1">
<text text-anchor="middle" x="70.68" y="-114.39" font-family="Helvetica,sans-Serif" font-size="10.00">1</text>
</a>
</g>
</g>
<!-- dir_8fc3e8efef0bfca4a113d719cbd52afb -->
<g id="node3" class="node">
<title>dir_8fc3e8efef0bfca4a113d719cbd52afb</title>
<g id="a_node3"><a xlink:href="dir_8fc3e8efef0bfca4a113d719cbd52afb.html" target="_top" xlink:title="kratos">
<polygon fill="none" stroke="red" points="114,-36 60,-36 60,0 114,0 114,-36"/>
<text text-anchor="middle" x="87" y="-15.5" font-family="Helvetica,sans-Serif" font-size="10.00">kratos</text>
</a>
</g>
</g>
<!-- dir_1fdcfcc260c9d44ca4018942c3c30915&#45;&gt;dir_8fc3e8efef0bfca4a113d719cbd52afb -->
<g id="edge2" class="edge">
<title>dir_1fdcfcc260c9d44ca4018942c3c30915&#45;&gt;dir_8fc3e8efef0bfca4a113d719cbd52afb</title>
<path fill="none" stroke="black" d="M95.89,-143.75C100.11,-133.58 104.86,-120.33 107,-108 109.74,-92.24 109.87,-87.74 107,-72 105.39,-63.2 102.4,-53.95 99.21,-45.7"/>
<polygon fill="black" stroke="black" points="102.35,-44.12 95.31,-36.21 95.88,-46.79 102.35,-44.12"/>
<g id="a_edge2&#45;headlabel"><a xlink:href="dir_000140_000166.html" target="_top" xlink:title="7">
<text text-anchor="middle" x="106.35" y="-43.87" font-family="Helvetica,sans-Serif" font-size="10.00">7</text>
</a>
</g>
</g>
<!-- dir_1d7efcbcbf95e3ad0a9afcd427a4c832&#45;&gt;dir_8fc3e8efef0bfca4a113d719cbd52afb -->
<g id="edge3" class="edge">
<title>dir_1d7efcbcbf95e3ad0a9afcd427a4c832&#45;&gt;dir_8fc3e8efef0bfca4a113d719cbd52afb</title>
<path fill="none" stroke="black" d="M58.39,-71.7C62.76,-63.64 68.06,-53.89 72.9,-44.98"/>
<polygon fill="black" stroke="black" points="76.02,-46.56 77.71,-36.1 69.87,-43.22 76.02,-46.56"/>
<g id="a_edge3&#45;headlabel"><a xlink:href="dir_000134_000166.html" target="_top" xlink:title="98">
<text text-anchor="middle" x="76.8" y="-48.58" font-family="Helvetica,sans-Serif" font-size="10.00">98</text>
</a>
</g>
</g>
</g>
</svg>
