<?xml version="1.0" encoding="UTF-8" standalone="no"?>
<!DOCTYPE svg PUBLIC "-//W3C//DTD SVG 1.1//EN"
 "http://www.w3.org/Graphics/SVG/1.1/DTD/svg11.dtd">
<!-- Generated by graphviz version 2.48.0 (20210719.0153)
 -->
<!-- Title: /github/workspace/applications/mkl_solvers_application/custom_python Pages: 1 -->
<svg width="145pt" height="223pt"
 viewBox="0.00 0.00 145.00 223.00" xmlns="http://www.w3.org/2000/svg" xmlns:xlink="http://www.w3.org/1999/xlink">
<g id="graph0" class="graph" transform="scale(1 1) rotate(0) translate(4 219)">
<title>/github/workspace/applications/mkl_solvers_application/custom_python</title>
<g id="clust1" class="cluster">
<title>clusterdir_3b85d0dc1e6dfa612c894ff3cd698b5f</title>
<g id="a_clust1"><a xlink:href="dir_3b85d0dc1e6dfa612c894ff3cd698b5f.html" target="_top" xlink:title="mkl_solvers_application">
<polygon fill="#ddddee" stroke="black" points="8,-64 8,-207 129,-207 129,-64 8,-64"/>
<text text-anchor="middle" x="68.5" y="-195" font-family="Helvetica,sans-Serif" font-size="10.00">mkl_solvers_application</text>
</a>
</g>
</g>
<!-- dir_58a297733c388567e85e840bfc1b882b -->
<g id="node1" class="node">
<title>dir_58a297733c388567e85e840bfc1b882b</title>
<g id="a_node1"><a xlink:href="dir_58a297733c388567e85e840bfc1b882b.html" target="_top" xlink:title="external_includes">
<polygon fill="none" stroke="red" points="114,-108 22,-108 22,-72 114,-72 114,-108"/>
<text text-anchor="middle" x="68" y="-87.5" font-family="Helvetica,sans-Serif" font-size="10.00">external_includes</text>
</a>
</g>
</g>
<!-- dir_8fc3e8efef0bfca4a113d719cbd52afb -->
<g id="node3" class="node">
<title>dir_8fc3e8efef0bfca4a113d719cbd52afb</title>
<g id="a_node3"><a xlink:href="dir_8fc3e8efef0bfca4a113d719cbd52afb.html" target="_top" xlink:title="kratos">
<polygon fill="none" stroke="red" points="132,-36 78,-36 78,0 132,0 132,-36"/>
<text text-anchor="middle" x="105" y="-15.5" font-family="Helvetica,sans-Serif" font-size="10.00">kratos</text>
</a>
</g>
</g>
<!-- dir_58a297733c388567e85e840bfc1b882b&#45;&gt;dir_8fc3e8efef0bfca4a113d719cbd52afb -->
<g id="edge1" class="edge">
<title>dir_58a297733c388567e85e840bfc1b882b&#45;&gt;dir_8fc3e8efef0bfca4a113d719cbd52afb</title>
<path fill="none" stroke="black" d="M77.15,-71.7C81.4,-63.64 86.56,-53.89 91.27,-44.98"/>
<polygon fill="black" stroke="black" points="94.38,-46.58 95.96,-36.1 88.19,-43.31 94.38,-46.58"/>
<g id="a_edge1&#45;headlabel"><a xlink:href="dir_000049_000166.html" target="_top" xlink:title="6">
<text text-anchor="middle" x="95.21" y="-48.59" font-family="Helvetica,sans-Serif" font-size="10.00">6</text>
</a>
</g>
</g>
<!-- dir_75418c2e52f868dcb72156af506d9d49 -->
<g id="node2" class="node">
<title>dir_75418c2e52f868dcb72156af506d9d49</title>
<g id="a_node2"><a xlink:href="dir_75418c2e52f868dcb72156af506d9d49.html" target="_top" xlink:title="custom_python">
<polygon fill="#eeeeff" stroke="black" points="114.5,-180 31.5,-180 31.5,-144 114.5,-144 114.5,-180"/>
<text text-anchor="middle" x="73" y="-159.5" font-family="Helvetica,sans-Serif" font-size="10.00">custom_python</text>
</a>
</g>
</g>
<!-- dir_75418c2e52f868dcb72156af506d9d49&#45;&gt;dir_58a297733c388567e85e840bfc1b882b -->
<g id="edge2" class="edge">
<title>dir_75418c2e52f868dcb72156af506d9d49&#45;&gt;dir_58a297733c388567e85e840bfc1b882b</title>
<path fill="none" stroke="black" d="M71.76,-143.7C71.21,-135.98 70.55,-126.71 69.94,-118.11"/>
<polygon fill="black" stroke="black" points="73.43,-117.83 69.22,-108.1 66.44,-118.33 73.43,-117.83"/>
<g id="a_edge2&#45;headlabel"><a xlink:href="dir_000116_000049.html" target="_top" xlink:title="2">
<text text-anchor="middle" x="76.51" y="-118.71" font-family="Helvetica,sans-Serif" font-size="10.00">2</text>
</a>
</g>
</g>
<!-- dir_75418c2e52f868dcb72156af506d9d49&#45;&gt;dir_8fc3e8efef0bfca4a113d719cbd52afb -->
<g id="edge3" class="edge">
<title>dir_75418c2e52f868dcb72156af506d9d49&#45;&gt;dir_8fc3e8efef0bfca4a113d719cbd52afb</title>
<path fill="none" stroke="black" d="M95.6,-143.96C106.06,-134.63 117.4,-122.11 123,-108 131,-87.85 125.21,-63.66 118.14,-45.59"/>
<polygon fill="black" stroke="black" points="121.3,-44.08 114.16,-36.25 114.86,-46.82 121.3,-44.08"/>
<g id="a_edge3&#45;headlabel"><a xlink:href="dir_000116_000166.html" target="_top" xlink:title="7">
<text text-anchor="middle" x="125.32" y="-43.77" font-family="Helvetica,sans-Serif" font-size="10.00">7</text>
</a>
</g>
</g>
</g>
</svg>
