<?xml version="1.0" encoding="UTF-8" standalone="no"?>
<!DOCTYPE svg PUBLIC "-//W3C//DTD SVG 1.1//EN"
 "http://www.w3.org/Graphics/SVG/1.1/DTD/svg11.dtd">
<!-- Generated by graphviz version 2.48.0 (20210719.0153)
 -->
<!-- Title: /github/workspace/kratos/integration Pages: 1 -->
<svg width="126pt" height="239pt"
 viewBox="0.00 0.00 126.00 239.00" xmlns="http://www.w3.org/2000/svg" xmlns:xlink="http://www.w3.org/1999/xlink">
<g id="graph0" class="graph" transform="scale(1 1) rotate(0) translate(4 235)">
<title>/github/workspace/kratos/integration</title>
<g id="clust1" class="cluster">
<title>clusterdir_8fc3e8efef0bfca4a113d719cbd52afb</title>
<g id="a_clust1"><a xlink:href="dir_8fc3e8efef0bfca4a113d719cbd52afb.html" target="_top" xlink:title="kratos">
<polygon fill="#ddddee" stroke="black" points="8,-8 8,-223 110,-223 110,-8 8,-8"/>
<text text-anchor="middle" x="59" y="-211" font-family="Helvetica,sans-Serif" font-size="10.00">kratos</text>
</a>
</g>
</g>
<!-- dir_6da2b5da699b6e8099c18b866a052d71 -->
<g id="node1" class="node">
<title>dir_6da2b5da699b6e8099c18b866a052d71</title>
<g id="a_node1"><a xlink:href="dir_6da2b5da699b6e8099c18b866a052d71.html" target="_top" xlink:title="includes">
<polygon fill="none" stroke="black" points="76,-196 22,-196 22,-160 76,-160 76,-196"/>
<text text-anchor="middle" x="49" y="-175.5" font-family="Helvetica,sans-Serif" font-size="10.00">includes</text>
</a>
</g>
</g>
<!-- dir_9311051b33dbe6b2e08fc45590134e6c -->
<g id="node2" class="node">
<title>dir_9311051b33dbe6b2e08fc45590134e6c</title>
<g id="a_node2"><a xlink:href="dir_9311051b33dbe6b2e08fc45590134e6c.html" target="_top" xlink:title="geometries">
<polygon fill="none" stroke="black" points="81.5,-124 16.5,-124 16.5,-88 81.5,-88 81.5,-124"/>
<text text-anchor="middle" x="49" y="-103.5" font-family="Helvetica,sans-Serif" font-size="10.00">geometries</text>
</a>
</g>
</g>
<!-- dir_6da2b5da699b6e8099c18b866a052d71&#45;&gt;dir_9311051b33dbe6b2e08fc45590134e6c -->
<g id="edge3" class="edge">
<title>dir_6da2b5da699b6e8099c18b866a052d71&#45;&gt;dir_9311051b33dbe6b2e08fc45590134e6c</title>
<path fill="none" stroke="black" d="M43.08,-159.7C42.29,-151.98 42.06,-142.71 42.4,-134.11"/>
<polygon fill="black" stroke="black" points="45.9,-134.32 43.1,-124.1 38.92,-133.84 45.9,-134.32"/>
<g id="a_edge3&#45;headlabel"><a xlink:href="dir_000171_000170.html" target="_top" xlink:title="9">
<text text-anchor="middle" x="48.48" y="-135.61" font-family="Helvetica,sans-Serif" font-size="10.00">9</text>
</a>
</g>
</g>
<!-- dir_9311051b33dbe6b2e08fc45590134e6c&#45;&gt;dir_6da2b5da699b6e8099c18b866a052d71 -->
<g id="edge4" class="edge">
<title>dir_9311051b33dbe6b2e08fc45590134e6c&#45;&gt;dir_6da2b5da699b6e8099c18b866a052d71</title>
<path fill="none" stroke="black" d="M54.9,-124.1C55.7,-131.79 55.94,-141.05 55.6,-149.67"/>
<polygon fill="black" stroke="black" points="52.11,-149.48 54.92,-159.7 59.09,-149.96 52.11,-149.48"/>
<g id="a_edge4&#45;headlabel"><a xlink:href="dir_000170_000171.html" target="_top" xlink:title="27">
<text text-anchor="middle" x="49.52" y="-143.2" font-family="Helvetica,sans-Serif" font-size="10.00">27</text>
</a>
</g>
</g>
<!-- dir_c355b57f6366379069072c1ec6b3b5e6 -->
<g id="node3" class="node">
<title>dir_c355b57f6366379069072c1ec6b3b5e6</title>
<g id="a_node3"><a xlink:href="dir_c355b57f6366379069072c1ec6b3b5e6.html" target="_top" xlink:title="integration">
<polygon fill="#eeeeff" stroke="black" points="80,-52 18,-52 18,-16 80,-16 80,-52"/>
<text text-anchor="middle" x="49" y="-31.5" font-family="Helvetica,sans-Serif" font-size="10.00">integration</text>
</a>
</g>
</g>
<!-- dir_9311051b33dbe6b2e08fc45590134e6c&#45;&gt;dir_c355b57f6366379069072c1ec6b3b5e6 -->
<g id="edge5" class="edge">
<title>dir_9311051b33dbe6b2e08fc45590134e6c&#45;&gt;dir_c355b57f6366379069072c1ec6b3b5e6</title>
<path fill="none" stroke="black" d="M43.08,-87.7C42.29,-79.98 42.06,-70.71 42.4,-62.11"/>
<polygon fill="black" stroke="black" points="45.9,-62.32 43.1,-52.1 38.92,-61.84 45.9,-62.32"/>
<g id="a_edge5&#45;headlabel"><a xlink:href="dir_000170_000172.html" target="_top" xlink:title="46">
<text text-anchor="middle" x="48.48" y="-63.61" font-family="Helvetica,sans-Serif" font-size="10.00">46</text>
</a>
</g>
</g>
<!-- dir_c355b57f6366379069072c1ec6b3b5e6&#45;&gt;dir_6da2b5da699b6e8099c18b866a052d71 -->
<g id="edge1" class="edge">
<title>dir_c355b57f6366379069072c1ec6b3b5e6&#45;&gt;dir_6da2b5da699b6e8099c18b866a052d71</title>
<path fill="none" stroke="black" d="M67.6,-52.24C76.53,-61.8 86.29,-74.47 91,-88 96.26,-103.11 96.26,-108.89 91,-124 87.47,-134.14 81.09,-143.81 74.36,-152.04"/>
<polygon fill="black" stroke="black" points="71.56,-149.93 67.6,-159.76 76.83,-154.54 71.56,-149.93"/>
<g id="a_edge1&#45;headlabel"><a xlink:href="dir_000172_000171.html" target="_top" xlink:title="8">
<text text-anchor="middle" x="71.79" y="-142.85" font-family="Helvetica,sans-Serif" font-size="10.00">8</text>
</a>
</g>
</g>
<!-- dir_c355b57f6366379069072c1ec6b3b5e6&#45;&gt;dir_9311051b33dbe6b2e08fc45590134e6c -->
<g id="edge2" class="edge">
<title>dir_c355b57f6366379069072c1ec6b3b5e6&#45;&gt;dir_9311051b33dbe6b2e08fc45590134e6c</title>
<path fill="none" stroke="black" d="M54.9,-52.1C55.7,-59.79 55.94,-69.05 55.6,-77.67"/>
<polygon fill="black" stroke="black" points="52.11,-77.48 54.92,-87.7 59.09,-77.96 52.11,-77.48"/>
<g id="a_edge2&#45;headlabel"><a xlink:href="dir_000172_000170.html" target="_top" xlink:title="1">
<text text-anchor="middle" x="49.52" y="-71.2" font-family="Helvetica,sans-Serif" font-size="10.00">1</text>
</a>
</g>
</g>
</g>
</svg>
