<?xml version="1.0" encoding="UTF-8" standalone="no"?>
<!DOCTYPE svg PUBLIC "-//W3C//DTD SVG 1.1//EN"
 "http://www.w3.org/Graphics/SVG/1.1/DTD/svg11.dtd">
<!-- Generated by graphviz version 2.48.0 (20210719.0153)
 -->
<!-- Title: Graphical Class Hierarchy Pages: 1 -->
<svg width="338pt" height="686pt"
 viewBox="0.00 0.00 338.00 685.50" xmlns="http://www.w3.org/2000/svg" xmlns:xlink="http://www.w3.org/1999/xlink">
<g id="graph0" class="graph" transform="scale(1 1) rotate(0) translate(4 681.5)">
<title>Graphical Class Hierarchy</title>
<!-- Node0 -->
<g id="node1" class="node">
<title>Node0</title>
<g id="a_node1"><a xlink:href="d6/d6c/structboost_1_1numeric_1_1ublas_1_1vector__temporary__traits.html" target="_top" xlink:title="For the creation of temporary vectors in the assignment of proxies.">
<polygon fill="none" stroke="black" points="0,-329.5 0,-359.5 148,-359.5 148,-329.5 0,-329.5"/>
<text text-anchor="start" x="8" y="-347.5" font-family="Helvetica,sans-Serif" font-size="10.00">boost::numeric::ublas</text>
<text text-anchor="middle" x="74" y="-336.5" font-family="Helvetica,sans-Serif" font-size="10.00">::vector_temporary_traits&lt; M &gt;</text>
</a>
</g>
</g>
<!-- Node1 -->
<g id="node2" class="node">
<title>Node1</title>
<g id="a_node2"><a xlink:href="df/d51/structboost_1_1numeric_1_1ublas_1_1vector__temporary__traits_3_01banded__adaptor_3_01_m_01_4_01_4.html" target="_top" xlink:title=" ">
<polygon fill="none" stroke="black" points="193.5,-636 193.5,-677 320.5,-677 320.5,-636 193.5,-636"/>
<text text-anchor="start" x="201.5" y="-665" font-family="Helvetica,sans-Serif" font-size="10.00">boost::numeric::ublas</text>
<text text-anchor="start" x="201.5" y="-654" font-family="Helvetica,sans-Serif" font-size="10.00">::vector_temporary_traits</text>
<text text-anchor="middle" x="257" y="-643" font-family="Helvetica,sans-Serif" font-size="10.00">&lt; banded_adaptor&lt; M &gt; &gt;</text>
</a>
</g>
</g>
<!-- Node0&#45;&gt;Node1 -->
<g id="edge1" class="edge">
<title>Node0&#45;&gt;Node1</title>
<path fill="none" stroke="midnightblue" d="M78.04,-369.63C85.85,-423.64 111.35,-551.94 184,-626.5 187.4,-629.99 191.27,-633.09 195.41,-635.85"/>
<polygon fill="midnightblue" stroke="midnightblue" points="81.49,-369 76.67,-359.56 74.55,-369.95 81.49,-369"/>
</g>
<!-- Node2 -->
<g id="node3" class="node">
<title>Node2</title>
<g id="a_node3"><a xlink:href="da/dc5/structboost_1_1numeric_1_1ublas_1_1vector__temporary__traits_3_01hermitian__adaptor_3_01_m_00_01_t_r_i_01_4_01_4.html" target="_top" xlink:title=" ">
<polygon fill="none" stroke="black" points="195.5,-564.5 195.5,-616.5 318.5,-616.5 318.5,-564.5 195.5,-564.5"/>
<text text-anchor="start" x="203.5" y="-604.5" font-family="Helvetica,sans-Serif" font-size="10.00">boost::numeric::ublas</text>
<text text-anchor="start" x="203.5" y="-593.5" font-family="Helvetica,sans-Serif" font-size="10.00">::vector_temporary_traits</text>
<text text-anchor="start" x="203.5" y="-582.5" font-family="Helvetica,sans-Serif" font-size="10.00">&lt; hermitian_adaptor&lt; M,</text>
<text text-anchor="middle" x="257" y="-571.5" font-family="Helvetica,sans-Serif" font-size="10.00"> TRI &gt; &gt;</text>
</a>
</g>
</g>
<!-- Node0&#45;&gt;Node2 -->
<g id="edge2" class="edge">
<title>Node0&#45;&gt;Node2</title>
<path fill="none" stroke="midnightblue" d="M82.24,-369.29C95.83,-412.03 128.85,-500.18 184,-554.5 187.58,-558.03 191.58,-561.28 195.81,-564.26"/>
<polygon fill="midnightblue" stroke="midnightblue" points="85.57,-368.22 79.28,-359.7 78.88,-370.28 85.57,-368.22"/>
</g>
<!-- Node3 -->
<g id="node4" class="node">
<title>Node3</title>
<g id="a_node4"><a xlink:href="df/db6/structboost_1_1numeric_1_1ublas_1_1vector__temporary__traits_3_01matrix__column_3_01_m_01_4_01_4.html" target="_top" xlink:title=" ">
<polygon fill="none" stroke="black" points="195.5,-504 195.5,-545 318.5,-545 318.5,-504 195.5,-504"/>
<text text-anchor="start" x="203.5" y="-533" font-family="Helvetica,sans-Serif" font-size="10.00">boost::numeric::ublas</text>
<text text-anchor="start" x="203.5" y="-522" font-family="Helvetica,sans-Serif" font-size="10.00">::vector_temporary_traits</text>
<text text-anchor="middle" x="257" y="-511" font-family="Helvetica,sans-Serif" font-size="10.00">&lt; matrix_column&lt; M &gt; &gt;</text>
</a>
</g>
</g>
<!-- Node0&#45;&gt;Node3 -->
<g id="edge3" class="edge">
<title>Node0&#45;&gt;Node3</title>
<path fill="none" stroke="midnightblue" d="M87.31,-369.11C104.77,-401.77 139.59,-459.42 184,-494.5 188.36,-497.94 193.16,-501.05 198.17,-503.84"/>
<polygon fill="midnightblue" stroke="midnightblue" points="90.19,-367.06 82.46,-359.82 83.99,-370.3 90.19,-367.06"/>
</g>
<!-- Node4 -->
<g id="node5" class="node">
<title>Node4</title>
<g id="a_node5"><a xlink:href="de/dc2/structboost_1_1numeric_1_1ublas_1_1vector__temporary__traits_3_01matrix__indirect_3_01_m_01_4_01_4.html" target="_top" xlink:title=" ">
<polygon fill="none" stroke="black" points="195.5,-444 195.5,-485 318.5,-485 318.5,-444 195.5,-444"/>
<text text-anchor="start" x="203.5" y="-473" font-family="Helvetica,sans-Serif" font-size="10.00">boost::numeric::ublas</text>
<text text-anchor="start" x="203.5" y="-462" font-family="Helvetica,sans-Serif" font-size="10.00">::vector_temporary_traits</text>
<text text-anchor="middle" x="257" y="-451" font-family="Helvetica,sans-Serif" font-size="10.00">&lt; matrix_indirect&lt; M &gt; &gt;</text>
</a>
</g>
</g>
<!-- Node0&#45;&gt;Node4 -->
<g id="edge4" class="edge">
<title>Node0&#45;&gt;Node4</title>
<path fill="none" stroke="midnightblue" d="M97.59,-366.57C118.64,-386.28 151.57,-414.95 184,-434.5 189.57,-437.86 195.58,-441.01 201.67,-443.91"/>
<polygon fill="midnightblue" stroke="midnightblue" points="99.79,-363.84 90.13,-359.5 94.98,-368.92 99.79,-363.84"/>
</g>
<!-- Node5 -->
<g id="node6" class="node">
<title>Node5</title>
<g id="a_node6"><a xlink:href="d0/d67/structboost_1_1numeric_1_1ublas_1_1vector__temporary__traits_3_01matrix__range_3_01_m_01_4_01_4.html" target="_top" xlink:title=" ">
<polygon fill="none" stroke="black" points="195.5,-384 195.5,-425 318.5,-425 318.5,-384 195.5,-384"/>
<text text-anchor="start" x="203.5" y="-413" font-family="Helvetica,sans-Serif" font-size="10.00">boost::numeric::ublas</text>
<text text-anchor="start" x="203.5" y="-402" font-family="Helvetica,sans-Serif" font-size="10.00">::vector_temporary_traits</text>
<text text-anchor="middle" x="257" y="-391" font-family="Helvetica,sans-Serif" font-size="10.00">&lt; matrix_range&lt; M &gt; &gt;</text>
</a>
</g>
</g>
<!-- Node0&#45;&gt;Node5 -->
<g id="edge5" class="edge">
<title>Node0&#45;&gt;Node5</title>
<path fill="none" stroke="midnightblue" d="M130.21,-362.8C150.79,-369.62 174.25,-377.4 195.29,-384.37"/>
<polygon fill="midnightblue" stroke="midnightblue" points="131.27,-359.46 120.67,-359.64 129.06,-366.11 131.27,-359.46"/>
</g>
<!-- Node6 -->
<g id="node7" class="node">
<title>Node6</title>
<g id="a_node7"><a xlink:href="df/d89/structboost_1_1numeric_1_1ublas_1_1vector__temporary__traits_3_01matrix__row_3_01_m_01_4_01_4.html" target="_top" xlink:title=" ">
<polygon fill="none" stroke="black" points="195.5,-324 195.5,-365 318.5,-365 318.5,-324 195.5,-324"/>
<text text-anchor="start" x="203.5" y="-353" font-family="Helvetica,sans-Serif" font-size="10.00">boost::numeric::ublas</text>
<text text-anchor="start" x="203.5" y="-342" font-family="Helvetica,sans-Serif" font-size="10.00">::vector_temporary_traits</text>
<text text-anchor="middle" x="257" y="-331" font-family="Helvetica,sans-Serif" font-size="10.00">&lt; matrix_row&lt; M &gt; &gt;</text>
</a>
</g>
</g>
<!-- Node0&#45;&gt;Node6 -->
<g id="edge6" class="edge">
<title>Node0&#45;&gt;Node6</title>
<path fill="none" stroke="midnightblue" d="M158.11,-344.5C170.67,-344.5 183.42,-344.5 195.38,-344.5"/>
<polygon fill="midnightblue" stroke="midnightblue" points="158.1,-341 148.1,-344.5 158.1,-348 158.1,-341"/>
</g>
<!-- Node7 -->
<g id="node8" class="node">
<title>Node7</title>
<g id="a_node8"><a xlink:href="db/dcb/structboost_1_1numeric_1_1ublas_1_1vector__temporary__traits_3_01matrix__slice_3_01_m_01_4_01_4.html" target="_top" xlink:title=" ">
<polygon fill="none" stroke="black" points="195.5,-264 195.5,-305 318.5,-305 318.5,-264 195.5,-264"/>
<text text-anchor="start" x="203.5" y="-293" font-family="Helvetica,sans-Serif" font-size="10.00">boost::numeric::ublas</text>
<text text-anchor="start" x="203.5" y="-282" font-family="Helvetica,sans-Serif" font-size="10.00">::vector_temporary_traits</text>
<text text-anchor="middle" x="257" y="-271" font-family="Helvetica,sans-Serif" font-size="10.00">&lt; matrix_slice&lt; M &gt; &gt;</text>
</a>
</g>
</g>
<!-- Node0&#45;&gt;Node7 -->
<g id="edge7" class="edge">
<title>Node0&#45;&gt;Node7</title>
<path fill="none" stroke="midnightblue" d="M130.21,-326.2C150.79,-319.38 174.25,-311.6 195.29,-304.63"/>
<polygon fill="midnightblue" stroke="midnightblue" points="129.06,-322.89 120.67,-329.36 131.27,-329.54 129.06,-322.89"/>
</g>
<!-- Node8 -->
<g id="node9" class="node">
<title>Node8</title>
<g id="a_node9"><a xlink:href="db/d0d/structboost_1_1numeric_1_1ublas_1_1vector__temporary__traits_3_01matrix__vector__indirect_3_01_m_00_01_i_a_01_4_01_4.html" target="_top" xlink:title=" ">
<polygon fill="none" stroke="black" points="195.5,-192.5 195.5,-244.5 318.5,-244.5 318.5,-192.5 195.5,-192.5"/>
<text text-anchor="start" x="203.5" y="-232.5" font-family="Helvetica,sans-Serif" font-size="10.00">boost::numeric::ublas</text>
<text text-anchor="start" x="203.5" y="-221.5" font-family="Helvetica,sans-Serif" font-size="10.00">::vector_temporary_traits</text>
<text text-anchor="start" x="203.5" y="-210.5" font-family="Helvetica,sans-Serif" font-size="10.00">&lt; matrix_vector_indirect</text>
<text text-anchor="middle" x="257" y="-199.5" font-family="Helvetica,sans-Serif" font-size="10.00">&lt; M, IA &gt; &gt;</text>
</a>
</g>
</g>
<!-- Node0&#45;&gt;Node8 -->
<g id="edge8" class="edge">
<title>Node0&#45;&gt;Node8</title>
<path fill="none" stroke="midnightblue" d="M98.66,-322.28C119.95,-302.95 152.63,-274.92 184,-254.5 189.27,-251.07 194.91,-247.73 200.63,-244.56"/>
<polygon fill="midnightblue" stroke="midnightblue" points="96.08,-319.89 91.08,-329.23 100.81,-325.05 96.08,-319.89"/>
</g>
<!-- Node9 -->
<g id="node10" class="node">
<title>Node9</title>
<g id="a_node10"><a xlink:href="dc/d04/structboost_1_1numeric_1_1ublas_1_1vector__temporary__traits_3_01matrix__vector__range_3_01_m_01_4_01_4.html" target="_top" xlink:title=" ">
<polygon fill="none" stroke="black" points="184,-132 184,-173 330,-173 330,-132 184,-132"/>
<text text-anchor="start" x="192" y="-161" font-family="Helvetica,sans-Serif" font-size="10.00">boost::numeric::ublas</text>
<text text-anchor="start" x="192" y="-150" font-family="Helvetica,sans-Serif" font-size="10.00">::vector_temporary_traits</text>
<text text-anchor="middle" x="257" y="-139" font-family="Helvetica,sans-Serif" font-size="10.00">&lt; matrix_vector_range&lt; M &gt; &gt;</text>
</a>
</g>
</g>
<!-- Node0&#45;&gt;Node9 -->
<g id="edge9" class="edge">
<title>Node0&#45;&gt;Node9</title>
<path fill="none" stroke="midnightblue" d="M86.19,-319.66C102.94,-284.95 137.6,-221.88 184,-183.5 188.72,-179.6 194,-176.11 199.51,-173.01"/>
<polygon fill="midnightblue" stroke="midnightblue" points="82.85,-318.53 81.76,-329.06 89.19,-321.51 82.85,-318.53"/>
</g>
<!-- Node10 -->
<g id="node11" class="node">
<title>Node10</title>
<g id="a_node11"><a xlink:href="de/db0/structboost_1_1numeric_1_1ublas_1_1vector__temporary__traits_3_01matrix__vector__slice_3_01_m_01_4_01_4.html" target="_top" xlink:title=" ">
<polygon fill="none" stroke="black" points="186,-72 186,-113 328,-113 328,-72 186,-72"/>
<text text-anchor="start" x="194" y="-101" font-family="Helvetica,sans-Serif" font-size="10.00">boost::numeric::ublas</text>
<text text-anchor="start" x="194" y="-90" font-family="Helvetica,sans-Serif" font-size="10.00">::vector_temporary_traits</text>
<text text-anchor="middle" x="257" y="-79" font-family="Helvetica,sans-Serif" font-size="10.00">&lt; matrix_vector_slice&lt; M &gt; &gt;</text>
</a>
</g>
</g>
<!-- Node0&#45;&gt;Node10 -->
<g id="edge10" class="edge">
<title>Node0&#45;&gt;Node10</title>
<path fill="none" stroke="midnightblue" d="M81.01,-319.49C93.08,-274.31 124.34,-178.59 184,-122.5 187.75,-118.98 191.97,-115.84 196.44,-113.05"/>
<polygon fill="midnightblue" stroke="midnightblue" points="77.58,-318.78 78.48,-329.34 84.36,-320.53 77.58,-318.78"/>
</g>
<!-- Node11 -->
<g id="node12" class="node">
<title>Node11</title>
<g id="a_node12"><a xlink:href="d3/d98/structboost_1_1numeric_1_1ublas_1_1vector__temporary__traits_3_01symmetric__adaptor_3_01_m_00_01_t_r_i_01_4_01_4.html" target="_top" xlink:title=" ">
<polygon fill="none" stroke="black" points="193.5,-0.5 193.5,-52.5 320.5,-52.5 320.5,-0.5 193.5,-0.5"/>
<text text-anchor="start" x="201.5" y="-40.5" font-family="Helvetica,sans-Serif" font-size="10.00">boost::numeric::ublas</text>
<text text-anchor="start" x="201.5" y="-29.5" font-family="Helvetica,sans-Serif" font-size="10.00">::vector_temporary_traits</text>
<text text-anchor="start" x="201.5" y="-18.5" font-family="Helvetica,sans-Serif" font-size="10.00">&lt; symmetric_adaptor&lt; M,</text>
<text text-anchor="middle" x="257" y="-7.5" font-family="Helvetica,sans-Serif" font-size="10.00"> TRI &gt; &gt;</text>
</a>
</g>
</g>
<!-- Node0&#45;&gt;Node11 -->
<g id="edge11" class="edge">
<title>Node0&#45;&gt;Node11</title>
<path fill="none" stroke="midnightblue" d="M78.5,-319.37C87.15,-265.86 114.12,-139.34 184,-62.5 187.29,-58.88 191.03,-55.58 195.03,-52.57"/>
<polygon fill="midnightblue" stroke="midnightblue" points="75.03,-318.93 76.97,-329.34 81.94,-319.99 75.03,-318.93"/>
</g>
</g>
</svg>
