<?xml version="1.0" encoding="UTF-8" standalone="no"?>
<!DOCTYPE svg PUBLIC "-//W3C//DTD SVG 1.1//EN"
 "http://www.w3.org/Graphics/SVG/1.1/DTD/svg11.dtd">
<!-- Generated by graphviz version 2.48.0 (20210719.0153)
 -->
<!-- Title: Graphical Class Hierarchy Pages: 1 -->
<svg width="313pt" height="170pt"
 viewBox="0.00 0.00 313.00 170.00" xmlns="http://www.w3.org/2000/svg" xmlns:xlink="http://www.w3.org/1999/xlink">
<g id="graph0" class="graph" transform="scale(1 1) rotate(0) translate(4 166)">
<title>Graphical Class Hierarchy</title>
<!-- Node0 -->
<g id="node1" class="node">
<title>Node0</title>
<g id="a_node1"><a xlink:href="d6/d6c/structboost_1_1numeric_1_1ublas_1_1vector__temporary__traits.html" target="_top" xlink:title=" ">
<polygon fill="none" stroke="black" points="0,-66 0,-96 146,-96 146,-66 0,-66"/>
<text text-anchor="start" x="8" y="-84" font-family="Helvetica,sans-Serif" font-size="10.00">boost::numeric::ublas</text>
<text text-anchor="middle" x="73" y="-73" font-family="Helvetica,sans-Serif" font-size="10.00">::vector_temporary_traits&lt; V &gt;</text>
</a>
</g>
</g>
<!-- Node1 -->
<g id="node2" class="node">
<title>Node1</title>
<g id="a_node2"><a xlink:href="df/d1b/structboost_1_1numeric_1_1ublas_1_1vector__temporary__traits_3_01vector__indirect_3_01_v_01_4_01_4.html" target="_top" xlink:title=" ">
<polygon fill="none" stroke="black" points="182,-120.5 182,-161.5 305,-161.5 305,-120.5 182,-120.5"/>
<text text-anchor="start" x="190" y="-149.5" font-family="Helvetica,sans-Serif" font-size="10.00">boost::numeric::ublas</text>
<text text-anchor="start" x="190" y="-138.5" font-family="Helvetica,sans-Serif" font-size="10.00">::vector_temporary_traits</text>
<text text-anchor="middle" x="243.5" y="-127.5" font-family="Helvetica,sans-Serif" font-size="10.00">&lt; vector_indirect&lt; V &gt; &gt;</text>
</a>
</g>
</g>
<!-- Node0&#45;&gt;Node1 -->
<g id="edge1" class="edge">
<title>Node0&#45;&gt;Node1</title>
<path fill="none" stroke="midnightblue" d="M126,-99.51C144.59,-106.14 165.66,-113.64 184.72,-120.42"/>
<polygon fill="midnightblue" stroke="midnightblue" points="127.11,-96.2 116.52,-96.14 124.77,-102.79 127.11,-96.2"/>
</g>
<!-- Node2 -->
<g id="node3" class="node">
<title>Node2</title>
<g id="a_node3"><a xlink:href="de/dce/structboost_1_1numeric_1_1ublas_1_1vector__temporary__traits_3_01vector__range_3_01_v_01_4_01_4.html" target="_top" xlink:title=" ">
<polygon fill="none" stroke="black" points="182,-60.5 182,-101.5 305,-101.5 305,-60.5 182,-60.5"/>
<text text-anchor="start" x="190" y="-89.5" font-family="Helvetica,sans-Serif" font-size="10.00">boost::numeric::ublas</text>
<text text-anchor="start" x="190" y="-78.5" font-family="Helvetica,sans-Serif" font-size="10.00">::vector_temporary_traits</text>
<text text-anchor="middle" x="243.5" y="-67.5" font-family="Helvetica,sans-Serif" font-size="10.00">&lt; vector_range&lt; V &gt; &gt;</text>
</a>
</g>
</g>
<!-- Node0&#45;&gt;Node2 -->
<g id="edge2" class="edge">
<title>Node0&#45;&gt;Node2</title>
<path fill="none" stroke="midnightblue" d="M156.7,-81C165.15,-81 173.61,-81 181.76,-81"/>
<polygon fill="midnightblue" stroke="midnightblue" points="156.44,-77.5 146.44,-81 156.44,-84.5 156.44,-77.5"/>
</g>
<!-- Node3 -->
<g id="node4" class="node">
<title>Node3</title>
<g id="a_node4"><a xlink:href="d5/d2c/structboost_1_1numeric_1_1ublas_1_1vector__temporary__traits_3_01vector__slice_3_01_v_01_4_01_4.html" target="_top" xlink:title=" ">
<polygon fill="none" stroke="black" points="182,-0.5 182,-41.5 305,-41.5 305,-0.5 182,-0.5"/>
<text text-anchor="start" x="190" y="-29.5" font-family="Helvetica,sans-Serif" font-size="10.00">boost::numeric::ublas</text>
<text text-anchor="start" x="190" y="-18.5" font-family="Helvetica,sans-Serif" font-size="10.00">::vector_temporary_traits</text>
<text text-anchor="middle" x="243.5" y="-7.5" font-family="Helvetica,sans-Serif" font-size="10.00">&lt; vector_slice&lt; V &gt; &gt;</text>
</a>
</g>
</g>
<!-- Node0&#45;&gt;Node3 -->
<g id="edge3" class="edge">
<title>Node0&#45;&gt;Node3</title>
<path fill="none" stroke="midnightblue" d="M126,-62.49C144.59,-55.86 165.66,-48.36 184.72,-41.58"/>
<polygon fill="midnightblue" stroke="midnightblue" points="124.77,-59.21 116.52,-65.86 127.11,-65.8 124.77,-59.21"/>
</g>
</g>
</svg>
