<?xml version="1.0" encoding="UTF-8" standalone="no"?>
<!DOCTYPE svg PUBLIC "-//W3C//DTD SVG 1.1//EN"
 "http://www.w3.org/Graphics/SVG/1.1/DTD/svg11.dtd">
<!-- Generated by graphviz version 2.48.0 (20210719.0153)
 -->
<!-- Title: Graphical Class Hierarchy Pages: 1 -->
<svg width="300pt" height="158pt"
 viewBox="0.00 0.00 300.00 158.00" xmlns="http://www.w3.org/2000/svg" xmlns:xlink="http://www.w3.org/1999/xlink">
<g id="graph0" class="graph" transform="scale(1 1) rotate(0) translate(4 154)">
<title>Graphical Class Hierarchy</title>
<!-- Node413 -->
<g id="node1" class="node">
<title>Node413</title>
<g id="a_node1"><a xlink:title=" ">
<polygon fill="none" stroke="#bfbfbf" points="0,-65.5 0,-84.5 113,-84.5 113,-65.5 0,-65.5"/>
<text text-anchor="middle" x="56.5" y="-72.5" font-family="Helvetica,sans-Serif" font-size="10.00">boost::iterator_adaptor</text>
</a>
</g>
</g>
<!-- Node0 -->
<g id="node2" class="node">
<title>Node0</title>
<g id="a_node2"><a xlink:href="d0/dc4/class_kratos_1_1_pointer_vector_map_iterator.html" target="_top" xlink:title="Short class definition.">
<polygon fill="none" stroke="black" points="156.5,-108.5 156.5,-149.5 284.5,-149.5 284.5,-108.5 156.5,-108.5"/>
<text text-anchor="start" x="164.5" y="-137.5" font-family="Helvetica,sans-Serif" font-size="10.00">Kratos::PointerVectorMap</text>
<text text-anchor="start" x="164.5" y="-126.5" font-family="Helvetica,sans-Serif" font-size="10.00">Iterator&lt; TIteratorType,</text>
<text text-anchor="middle" x="220.5" y="-115.5" font-family="Helvetica,sans-Serif" font-size="10.00"> TDataType &gt;</text>
</a>
</g>
</g>
<!-- Node413&#45;&gt;Node0 -->
<g id="edge1" class="edge">
<title>Node413&#45;&gt;Node0</title>
<path fill="none" stroke="midnightblue" d="M95.66,-87.72C114.24,-93.91 137.03,-101.51 157.98,-108.49"/>
<polygon fill="midnightblue" stroke="midnightblue" points="96.68,-84.37 86.09,-84.53 94.47,-91.01 96.68,-84.37"/>
</g>
<!-- Node415 -->
<g id="node3" class="node">
<title>Node415</title>
<g id="a_node3"><a xlink:href="d7/dd8/class_kratos_1_1_vector_map_iterator.html" target="_top" xlink:title="Short class definition.">
<polygon fill="none" stroke="black" points="149,-60 149,-90 292,-90 292,-60 149,-60"/>
<text text-anchor="start" x="157" y="-78" font-family="Helvetica,sans-Serif" font-size="10.00">Kratos::VectorMapIterator</text>
<text text-anchor="middle" x="220.5" y="-67" font-family="Helvetica,sans-Serif" font-size="10.00">&lt; TIteratorType, TDataType &gt;</text>
</a>
</g>
</g>
<!-- Node413&#45;&gt;Node415 -->
<g id="edge2" class="edge">
<title>Node413&#45;&gt;Node415</title>
<path fill="none" stroke="midnightblue" d="M123.33,-75C131.71,-75 140.32,-75 148.77,-75"/>
<polygon fill="midnightblue" stroke="midnightblue" points="123.25,-71.5 113.25,-75 123.25,-78.5 123.25,-71.5"/>
</g>
<!-- Node416 -->
<g id="node4" class="node">
<title>Node416</title>
<g id="a_node4"><a xlink:href="d9/d87/class_kratos_1_1_weak_pointer_vector_iterator.html" target="_top" xlink:title="Short class definition.">
<polygon fill="none" stroke="black" points="153.5,-0.5 153.5,-41.5 287.5,-41.5 287.5,-0.5 153.5,-0.5"/>
<text text-anchor="start" x="161.5" y="-29.5" font-family="Helvetica,sans-Serif" font-size="10.00">Kratos::WeakPointerVector</text>
<text text-anchor="start" x="161.5" y="-18.5" font-family="Helvetica,sans-Serif" font-size="10.00">Iterator&lt; TIteratorType,</text>
<text text-anchor="middle" x="220.5" y="-7.5" font-family="Helvetica,sans-Serif" font-size="10.00"> TDataType &gt;</text>
</a>
</g>
</g>
<!-- Node413&#45;&gt;Node416 -->
<g id="edge3" class="edge">
<title>Node413&#45;&gt;Node416</title>
<path fill="none" stroke="midnightblue" d="M95.66,-62.28C114.24,-56.09 137.03,-48.49 157.98,-41.51"/>
<polygon fill="midnightblue" stroke="midnightblue" points="94.47,-58.99 86.09,-65.47 96.68,-65.63 94.47,-58.99"/>
</g>
</g>
</svg>
