<?xml version="1.0" encoding="UTF-8" standalone="no"?>
<!DOCTYPE svg PUBLIC "-//W3C//DTD SVG 1.1//EN"
 "http://www.w3.org/Graphics/SVG/1.1/DTD/svg11.dtd">
<!-- Generated by graphviz version 2.48.0 (20210719.0153)
 -->
<!-- Title: Graphical Class Hierarchy Pages: 1 -->
<svg width="284pt" height="279pt"
 viewBox="0.00 0.00 284.00 278.50" xmlns="http://www.w3.org/2000/svg" xmlns:xlink="http://www.w3.org/1999/xlink">
<g id="graph0" class="graph" transform="scale(1 1) rotate(0) translate(4 274.5)">
<title>Graphical Class Hierarchy</title>
<!-- Node0 -->
<g id="node1" class="node">
<title>Node0</title>
<g id="a_node1"><a xlink:href="d7/d56/structboost_1_1numeric_1_1ublas_1_1scalar__binary__assign__functor.html" target="_top" xlink:title=" ">
<polygon fill="none" stroke="black" points="0,-120.5 0,-161.5 112,-161.5 112,-120.5 0,-120.5"/>
<text text-anchor="start" x="8" y="-149.5" font-family="Helvetica,sans-Serif" font-size="10.00">boost::numeric::ublas</text>
<text text-anchor="start" x="8" y="-138.5" font-family="Helvetica,sans-Serif" font-size="10.00">::scalar_binary_assign</text>
<text text-anchor="middle" x="56" y="-127.5" font-family="Helvetica,sans-Serif" font-size="10.00">_functor&lt; T1, T2 &gt;</text>
</a>
</g>
</g>
<!-- Node1 -->
<g id="node2" class="node">
<title>Node1</title>
<g id="a_node2"><a xlink:href="d9/ddc/structboost_1_1numeric_1_1ublas_1_1scalar__assign.html" target="_top" xlink:title=" ">
<polygon fill="none" stroke="black" points="149.5,-240 149.5,-270 274.5,-270 274.5,-240 149.5,-240"/>
<text text-anchor="start" x="157.5" y="-258" font-family="Helvetica,sans-Serif" font-size="10.00">boost::numeric::ublas</text>
<text text-anchor="middle" x="212" y="-247" font-family="Helvetica,sans-Serif" font-size="10.00">::scalar_assign&lt; T1, T2 &gt;</text>
</a>
</g>
</g>
<!-- Node0&#45;&gt;Node1 -->
<g id="edge1" class="edge">
<title>Node0&#45;&gt;Node1</title>
<path fill="none" stroke="midnightblue" d="M80.1,-169.43C97.17,-188.92 121.89,-214.19 148,-231 153.22,-234.36 158.97,-237.35 164.82,-239.99"/>
<polygon fill="midnightblue" stroke="midnightblue" points="82.67,-167.04 73.5,-161.74 77.36,-171.6 82.67,-167.04"/>
</g>
<!-- Node2 -->
<g id="node3" class="node">
<title>Node2</title>
<g id="a_node3"><a xlink:href="d2/dfd/structboost_1_1numeric_1_1ublas_1_1scalar__divides__assign.html" target="_top" xlink:title=" ">
<polygon fill="none" stroke="black" points="153.5,-180.5 153.5,-221.5 270.5,-221.5 270.5,-180.5 153.5,-180.5"/>
<text text-anchor="start" x="161.5" y="-209.5" font-family="Helvetica,sans-Serif" font-size="10.00">boost::numeric::ublas</text>
<text text-anchor="start" x="161.5" y="-198.5" font-family="Helvetica,sans-Serif" font-size="10.00">::scalar_divides_assign</text>
<text text-anchor="middle" x="212" y="-187.5" font-family="Helvetica,sans-Serif" font-size="10.00">&lt; T1, T2 &gt;</text>
</a>
</g>
</g>
<!-- Node0&#45;&gt;Node2 -->
<g id="edge2" class="edge">
<title>Node0&#45;&gt;Node2</title>
<path fill="none" stroke="midnightblue" d="M119.64,-165.41C132.43,-170.39 145.76,-175.58 158.17,-180.42"/>
<polygon fill="midnightblue" stroke="midnightblue" points="120.59,-162.02 110,-161.65 118.05,-168.54 120.59,-162.02"/>
</g>
<!-- Node3 -->
<g id="node4" class="node">
<title>Node3</title>
<g id="a_node4"><a xlink:href="d8/dcd/structboost_1_1numeric_1_1ublas_1_1scalar__minus__assign.html" target="_top" xlink:title=" ">
<polygon fill="none" stroke="black" points="155.5,-120.5 155.5,-161.5 268.5,-161.5 268.5,-120.5 155.5,-120.5"/>
<text text-anchor="start" x="163.5" y="-149.5" font-family="Helvetica,sans-Serif" font-size="10.00">boost::numeric::ublas</text>
<text text-anchor="start" x="163.5" y="-138.5" font-family="Helvetica,sans-Serif" font-size="10.00">::scalar_minus_assign</text>
<text text-anchor="middle" x="212" y="-127.5" font-family="Helvetica,sans-Serif" font-size="10.00">&lt; T1, T2 &gt;</text>
</a>
</g>
</g>
<!-- Node0&#45;&gt;Node3 -->
<g id="edge3" class="edge">
<title>Node0&#45;&gt;Node3</title>
<path fill="none" stroke="midnightblue" d="M122.2,-141C133.26,-141 144.66,-141 155.45,-141"/>
<polygon fill="midnightblue" stroke="midnightblue" points="122.16,-137.5 112.16,-141 122.16,-144.5 122.16,-137.5"/>
</g>
<!-- Node4 -->
<g id="node5" class="node">
<title>Node4</title>
<g id="a_node5"><a xlink:href="df/d20/structboost_1_1numeric_1_1ublas_1_1scalar__multiplies__assign.html" target="_top" xlink:title=" ">
<polygon fill="none" stroke="black" points="148,-60.5 148,-101.5 276,-101.5 276,-60.5 148,-60.5"/>
<text text-anchor="start" x="156" y="-89.5" font-family="Helvetica,sans-Serif" font-size="10.00">boost::numeric::ublas</text>
<text text-anchor="start" x="156" y="-78.5" font-family="Helvetica,sans-Serif" font-size="10.00">::scalar_multiplies_assign</text>
<text text-anchor="middle" x="212" y="-67.5" font-family="Helvetica,sans-Serif" font-size="10.00">&lt; T1, T2 &gt;</text>
</a>
</g>
</g>
<!-- Node0&#45;&gt;Node4 -->
<g id="edge4" class="edge">
<title>Node0&#45;&gt;Node4</title>
<path fill="none" stroke="midnightblue" d="M119.64,-116.59C132.43,-111.61 145.76,-106.42 158.17,-101.58"/>
<polygon fill="midnightblue" stroke="midnightblue" points="118.05,-113.46 110,-120.35 120.59,-119.98 118.05,-113.46"/>
</g>
<!-- Node5 -->
<g id="node6" class="node">
<title>Node5</title>
<g id="a_node6"><a xlink:href="d0/de2/structboost_1_1numeric_1_1ublas_1_1scalar__plus__assign.html" target="_top" xlink:title=" ">
<polygon fill="none" stroke="black" points="158.5,-0.5 158.5,-41.5 265.5,-41.5 265.5,-0.5 158.5,-0.5"/>
<text text-anchor="start" x="166.5" y="-29.5" font-family="Helvetica,sans-Serif" font-size="10.00">boost::numeric::ublas</text>
<text text-anchor="start" x="166.5" y="-18.5" font-family="Helvetica,sans-Serif" font-size="10.00">::scalar_plus_assign</text>
<text text-anchor="middle" x="212" y="-7.5" font-family="Helvetica,sans-Serif" font-size="10.00">&lt; T1, T2 &gt;</text>
</a>
</g>
</g>
<!-- Node0&#45;&gt;Node5 -->
<g id="edge5" class="edge">
<title>Node0&#45;&gt;Node5</title>
<path fill="none" stroke="midnightblue" d="M80.86,-112.85C98.11,-93.71 122.75,-68.73 148,-51 152.76,-47.66 157.95,-44.52 163.24,-41.61"/>
<polygon fill="midnightblue" stroke="midnightblue" points="78.18,-110.6 74.16,-120.4 83.42,-115.24 78.18,-110.6"/>
</g>
</g>
</svg>
