<?xml version="1.0" encoding="UTF-8" standalone="no"?>
<!DOCTYPE svg PUBLIC "-//W3C//DTD SVG 1.1//EN"
 "http://www.w3.org/Graphics/SVG/1.1/DTD/svg11.dtd">
<!-- Generated by graphviz version 2.48.0 (20210719.0153)
 -->
<!-- Title: Graphical Class Hierarchy Pages: 1 -->
<svg width="264pt" height="137pt"
 viewBox="0.00 0.00 264.00 137.00" xmlns="http://www.w3.org/2000/svg" xmlns:xlink="http://www.w3.org/1999/xlink">
<g id="graph0" class="graph" transform="scale(1 1) rotate(0) translate(4 133)">
<title>Graphical Class Hierarchy</title>
<!-- Node0 -->
<g id="node1" class="node">
<title>Node0</title>
<g id="a_node1"><a xlink:href="de/dba/structboost_1_1numeric_1_1ublas_1_1vector__scalar__real__unary__functor.html" target="_top" xlink:title=" ">
<polygon fill="none" stroke="black" points="0,-44 0,-85 107,-85 107,-44 0,-44"/>
<text text-anchor="start" x="8" y="-73" font-family="Helvetica,sans-Serif" font-size="10.00">boost::numeric::ublas</text>
<text text-anchor="start" x="8" y="-62" font-family="Helvetica,sans-Serif" font-size="10.00">::vector_scalar_real</text>
<text text-anchor="middle" x="53.5" y="-51" font-family="Helvetica,sans-Serif" font-size="10.00">_unary_functor&lt; T &gt;</text>
</a>
</g>
</g>
<!-- Node1 -->
<g id="node2" class="node">
<title>Node1</title>
<g id="a_node2"><a xlink:href="d5/d5c/structboost_1_1numeric_1_1ublas_1_1vector__norm__1.html" target="_top" xlink:title=" ">
<polygon fill="none" stroke="black" points="145.5,-98.5 145.5,-128.5 253.5,-128.5 253.5,-98.5 145.5,-98.5"/>
<text text-anchor="start" x="153.5" y="-116.5" font-family="Helvetica,sans-Serif" font-size="10.00">boost::numeric::ublas</text>
<text text-anchor="middle" x="199.5" y="-105.5" font-family="Helvetica,sans-Serif" font-size="10.00">::vector_norm_1&lt; T &gt;</text>
</a>
</g>
</g>
<!-- Node0&#45;&gt;Node1 -->
<g id="edge1" class="edge">
<title>Node0&#45;&gt;Node1</title>
<path fill="none" stroke="midnightblue" d="M116.82,-85.71C129.41,-89.99 142.4,-94.41 154.22,-98.43"/>
<polygon fill="midnightblue" stroke="midnightblue" points="117.9,-82.38 107.3,-82.47 115.64,-89 117.9,-82.38"/>
</g>
<!-- Node2 -->
<g id="node3" class="node">
<title>Node2</title>
<g id="a_node3"><a xlink:href="dd/d91/structboost_1_1numeric_1_1ublas_1_1vector__norm__2.html" target="_top" xlink:title=" ">
<polygon fill="none" stroke="black" points="145.5,-49.5 145.5,-79.5 253.5,-79.5 253.5,-49.5 145.5,-49.5"/>
<text text-anchor="start" x="153.5" y="-67.5" font-family="Helvetica,sans-Serif" font-size="10.00">boost::numeric::ublas</text>
<text text-anchor="middle" x="199.5" y="-56.5" font-family="Helvetica,sans-Serif" font-size="10.00">::vector_norm_2&lt; T &gt;</text>
</a>
</g>
</g>
<!-- Node0&#45;&gt;Node2 -->
<g id="edge2" class="edge">
<title>Node0&#45;&gt;Node2</title>
<path fill="none" stroke="midnightblue" d="M117.59,-64.5C126.81,-64.5 136.23,-64.5 145.22,-64.5"/>
<polygon fill="midnightblue" stroke="midnightblue" points="117.3,-61 107.3,-64.5 117.3,-68 117.3,-61"/>
</g>
<!-- Node3 -->
<g id="node4" class="node">
<title>Node3</title>
<g id="a_node4"><a xlink:href="d6/df4/structboost_1_1numeric_1_1ublas_1_1vector__norm__inf.html" target="_top" xlink:title=" ">
<polygon fill="none" stroke="black" points="143,-0.5 143,-30.5 256,-30.5 256,-0.5 143,-0.5"/>
<text text-anchor="start" x="151" y="-18.5" font-family="Helvetica,sans-Serif" font-size="10.00">boost::numeric::ublas</text>
<text text-anchor="middle" x="199.5" y="-7.5" font-family="Helvetica,sans-Serif" font-size="10.00">::vector_norm_inf&lt; T &gt;</text>
</a>
</g>
</g>
<!-- Node0&#45;&gt;Node3 -->
<g id="edge3" class="edge">
<title>Node0&#45;&gt;Node3</title>
<path fill="none" stroke="midnightblue" d="M116.82,-43.29C129.41,-39.01 142.4,-34.59 154.22,-30.57"/>
<polygon fill="midnightblue" stroke="midnightblue" points="115.64,-40 107.3,-46.53 117.9,-46.62 115.64,-40"/>
</g>
</g>
</svg>
