<?xml version="1.0" encoding="UTF-8" standalone="no"?>
<!DOCTYPE svg PUBLIC "-//W3C//DTD SVG 1.1//EN"
 "http://www.w3.org/Graphics/SVG/1.1/DTD/svg11.dtd">
<!-- Generated by graphviz version 2.48.0 (20210719.0153)
 -->
<!-- Title: Graphical Class Hierarchy Pages: 1 -->
<svg width="262pt" height="235pt"
 viewBox="0.00 0.00 262.00 235.00" xmlns="http://www.w3.org/2000/svg" xmlns:xlink="http://www.w3.org/1999/xlink">
<g id="graph0" class="graph" transform="scale(1 1) rotate(0) translate(4 231)">
<title>Graphical Class Hierarchy</title>
<!-- Node769 -->
<g id="node1" class="node">
<title>Node769</title>
<g id="a_node1"><a xlink:title=" ">
<polygon fill="none" stroke="#bfbfbf" points="0,-104 0,-123 71,-123 71,-104 0,-104"/>
<text text-anchor="middle" x="35.5" y="-111" font-family="Helvetica,sans-Serif" font-size="10.00">noncopyable</text>
</a>
</g>
</g>
<!-- Node0 -->
<g id="node2" class="node">
<title>Node0</title>
<g id="a_node2"><a xlink:href="d6/d73/classboost_1_1numeric_1_1bindings_1_1traits_1_1detail_1_1array.html" target="_top" xlink:title=" ">
<polygon fill="none" stroke="black" points="120.5,-196.5 120.5,-226.5 240.5,-226.5 240.5,-196.5 120.5,-196.5"/>
<text text-anchor="start" x="128.5" y="-214.5" font-family="Helvetica,sans-Serif" font-size="10.00">boost::numeric::bindings</text>
<text text-anchor="middle" x="180.5" y="-203.5" font-family="Helvetica,sans-Serif" font-size="10.00">::traits::detail::array&lt; T &gt;</text>
</a>
</g>
</g>
<!-- Node769&#45;&gt;Node0 -->
<g id="edge1" class="edge">
<title>Node769&#45;&gt;Node0</title>
<path fill="none" stroke="#8b1a1a" d="M49.43,-131.47C62.3,-148.16 83.48,-172.6 107,-187.5 112.38,-190.91 118.29,-193.88 124.34,-196.46"/>
<polygon fill="#8b1a1a" stroke="#8b1a1a" points="51.97,-129.02 43.18,-123.11 46.36,-133.22 51.97,-129.02"/>
</g>
<!-- Node771 -->
<g id="node3" class="node">
<title>Node771</title>
<g id="a_node3"><a xlink:href="d8/d35/structboost_1_1numeric_1_1bindings_1_1umfpack_1_1control__type.html" target="_top" xlink:title=" ">
<polygon fill="none" stroke="black" points="111.5,-147.5 111.5,-177.5 249.5,-177.5 249.5,-147.5 111.5,-147.5"/>
<text text-anchor="start" x="119.5" y="-165.5" font-family="Helvetica,sans-Serif" font-size="10.00">boost::numeric::bindings</text>
<text text-anchor="middle" x="180.5" y="-154.5" font-family="Helvetica,sans-Serif" font-size="10.00">::umfpack::control_type&lt; T &gt;</text>
</a>
</g>
</g>
<!-- Node769&#45;&gt;Node771 -->
<g id="edge2" class="edge">
<title>Node769&#45;&gt;Node771</title>
<path fill="none" stroke="#8b1a1a" d="M72.64,-126.48C83.65,-130.39 95.81,-134.66 107,-138.5 115.53,-141.42 124.64,-144.49 133.43,-147.41"/>
<polygon fill="#8b1a1a" stroke="#8b1a1a" points="73.5,-123.07 62.9,-123.01 71.15,-129.66 73.5,-123.07"/>
</g>
<!-- Node772 -->
<g id="node4" class="node">
<title>Node772</title>
<g id="a_node4"><a xlink:href="d3/df6/structboost_1_1numeric_1_1bindings_1_1umfpack_1_1info__type.html" target="_top" xlink:title=" ">
<polygon fill="none" stroke="black" points="118,-98.5 118,-128.5 243,-128.5 243,-98.5 118,-98.5"/>
<text text-anchor="start" x="126" y="-116.5" font-family="Helvetica,sans-Serif" font-size="10.00">boost::numeric::bindings</text>
<text text-anchor="middle" x="180.5" y="-105.5" font-family="Helvetica,sans-Serif" font-size="10.00">::umfpack::info_type&lt; T &gt;</text>
</a>
</g>
</g>
<!-- Node769&#45;&gt;Node772 -->
<g id="edge3" class="edge">
<title>Node769&#45;&gt;Node772</title>
<path fill="none" stroke="#8b1a1a" d="M81.39,-113.5C92.95,-113.5 105.59,-113.5 117.84,-113.5"/>
<polygon fill="#8b1a1a" stroke="#8b1a1a" points="81.12,-110 71.12,-113.5 81.12,-117 81.12,-110"/>
</g>
<!-- Node773 -->
<g id="node5" class="node">
<title>Node773</title>
<g id="a_node5"><a xlink:href="d3/d2a/structboost_1_1numeric_1_1bindings_1_1umfpack_1_1numeric__type.html" target="_top" xlink:title=" ">
<polygon fill="none" stroke="black" points="109,-49.5 109,-79.5 252,-79.5 252,-49.5 109,-49.5"/>
<text text-anchor="start" x="117" y="-67.5" font-family="Helvetica,sans-Serif" font-size="10.00">boost::numeric::bindings</text>
<text text-anchor="middle" x="180.5" y="-56.5" font-family="Helvetica,sans-Serif" font-size="10.00">::umfpack::numeric_type&lt; T &gt;</text>
</a>
</g>
</g>
<!-- Node769&#45;&gt;Node773 -->
<g id="edge4" class="edge">
<title>Node769&#45;&gt;Node773</title>
<path fill="none" stroke="#8b1a1a" d="M73.88,-100.69C92.79,-94.21 115.87,-86.3 135.62,-79.54"/>
<polygon fill="#8b1a1a" stroke="#8b1a1a" points="72.74,-97.38 64.41,-103.94 75.01,-104.01 72.74,-97.38"/>
</g>
<!-- Node774 -->
<g id="node6" class="node">
<title>Node774</title>
<g id="a_node6"><a xlink:href="d7/ddf/structboost_1_1numeric_1_1bindings_1_1umfpack_1_1symbolic__type.html" target="_top" xlink:title=" ">
<polygon fill="none" stroke="black" points="107,-0.5 107,-30.5 254,-30.5 254,-0.5 107,-0.5"/>
<text text-anchor="start" x="115" y="-18.5" font-family="Helvetica,sans-Serif" font-size="10.00">boost::numeric::bindings</text>
<text text-anchor="middle" x="180.5" y="-7.5" font-family="Helvetica,sans-Serif" font-size="10.00">::umfpack::symbolic_type&lt; T &gt;</text>
</a>
</g>
</g>
<!-- Node769&#45;&gt;Node774 -->
<g id="edge5" class="edge">
<title>Node769&#45;&gt;Node774</title>
<path fill="none" stroke="#8b1a1a" d="M49.95,-95.31C62.92,-78.92 83.93,-55.2 107,-40.5 112.95,-36.71 119.54,-33.41 126.26,-30.57"/>
<polygon fill="#8b1a1a" stroke="#8b1a1a" points="46.92,-93.5 43.61,-103.56 52.47,-97.76 46.92,-93.5"/>
</g>
</g>
</svg>
