<?xml version="1.0" encoding="UTF-8" standalone="no"?>
<!DOCTYPE svg PUBLIC "-//W3C//DTD SVG 1.1//EN"
 "http://www.w3.org/Graphics/SVG/1.1/DTD/svg11.dtd">
<!-- Generated by graphviz version 2.48.0 (20210719.0153)
 -->
<!-- Title: Graphical Class Hierarchy Pages: 1 -->
<svg width="324pt" height="1184pt"
 viewBox="0.00 0.00 324.00 1184.00" xmlns="http://www.w3.org/2000/svg" xmlns:xlink="http://www.w3.org/1999/xlink">
<g id="graph0" class="graph" transform="scale(1 1) rotate(0) translate(4 1180)">
<title>Graphical Class Hierarchy</title>
<!-- Node0 -->
<g id="node1" class="node">
<title>Node0</title>
<g id="a_node1"><a xlink:href="d2/d8c/class_kratos_1_1_process.html" target="_top" xlink:title="Short class definition.">
<polygon fill="none" stroke="black" points="0,-573.5 0,-592.5 86,-592.5 86,-573.5 0,-573.5"/>
<text text-anchor="middle" x="43" y="-580.5" font-family="Helvetica,sans-Serif" font-size="10.00">Kratos::Process</text>
</a>
</g>
</g>
<!-- Node1 -->
<g id="node2" class="node">
<title>Node1</title>
<g id="a_node2"><a xlink:href="db/d11/class_kratos_1_1_act_on_walls_nodal_process.html" target="_top" xlink:title="Short class definition.">
<polygon fill="none" stroke="black" points="137.5,-1156.5 137.5,-1175.5 300.5,-1175.5 300.5,-1156.5 137.5,-1156.5"/>
<text text-anchor="middle" x="219" y="-1163.5" font-family="Helvetica,sans-Serif" font-size="10.00">Kratos::ActOnWallsNodalProcess</text>
</a>
</g>
</g>
<!-- Node0&#45;&gt;Node1 -->
<g id="edge1" class="edge">
<title>Node0&#45;&gt;Node1</title>
<path fill="none" stroke="midnightblue" d="M43.79,-602.97C43.28,-693.72 45.88,-1066.34 122,-1147 126.43,-1151.7 131.66,-1155.42 137.36,-1158.35"/>
<polygon fill="midnightblue" stroke="midnightblue" points="47.29,-602.94 43.87,-592.92 40.29,-602.89 47.29,-602.94"/>
</g>
<!-- Node2 -->
<g id="node3" class="node">
<title>Node2</title>
<g id="a_node3"><a xlink:href="d9/d87/class_kratos_1_1_add_dofs_nodal_process.html" target="_top" xlink:title="Short class definition.">
<polygon fill="none" stroke="black" points="144.5,-1107 144.5,-1137 293.5,-1137 293.5,-1107 144.5,-1107"/>
<text text-anchor="start" x="152.5" y="-1125" font-family="Helvetica,sans-Serif" font-size="10.00">Kratos::AddDofsNodalProcess</text>
<text text-anchor="middle" x="219" y="-1114" font-family="Helvetica,sans-Serif" font-size="10.00">&lt; TVariableType &gt;</text>
</a>
</g>
</g>
<!-- Node0&#45;&gt;Node2 -->
<g id="edge2" class="edge">
<title>Node0&#45;&gt;Node2</title>
<path fill="none" stroke="midnightblue" d="M44.18,-603.02C45.34,-688.7 54.23,-1023.49 122,-1098 128.13,-1104.74 135.83,-1109.71 144.2,-1113.37"/>
<polygon fill="midnightblue" stroke="midnightblue" points="47.67,-602.8 44.06,-592.84 40.67,-602.88 47.67,-602.8"/>
</g>
<!-- Node3 -->
<g id="node4" class="node">
<title>Node3</title>
<g id="a_node4"><a xlink:href="da/d02/class_kratos_1_1_assign_pressure_force_process.html" target="_top" xlink:title="Short class definition.">
<polygon fill="none" stroke="black" points="147.5,-1058 147.5,-1088 290.5,-1088 290.5,-1058 147.5,-1058"/>
<text text-anchor="start" x="155.5" y="-1076" font-family="Helvetica,sans-Serif" font-size="10.00">Kratos::AssignPressureForce</text>
<text text-anchor="middle" x="219" y="-1065" font-family="Helvetica,sans-Serif" font-size="10.00">Process</text>
</a>
</g>
</g>
<!-- Node0&#45;&gt;Node3 -->
<g id="edge3" class="edge">
<title>Node0&#45;&gt;Node3</title>
<path fill="none" stroke="midnightblue" d="M44.52,-602.88C47.04,-683.17 60.46,-982.38 122,-1049 128.88,-1056.45 137.68,-1061.73 147.17,-1065.46"/>
<polygon fill="midnightblue" stroke="midnightblue" points="48.01,-602.57 44.23,-592.68 41.02,-602.77 48.01,-602.57"/>
</g>
<!-- Node4 -->
<g id="node5" class="node">
<title>Node4</title>
<g id="a_node5"><a xlink:href="d6/db3/class_kratos_1_1_build_elemental_process.html" target="_top" xlink:title="Short class definition.">
<polygon fill="none" stroke="black" points="144,-1009 144,-1039 294,-1039 294,-1009 144,-1009"/>
<text text-anchor="start" x="152" y="-1027" font-family="Helvetica,sans-Serif" font-size="10.00">Kratos::BuildElementalProcess</text>
<text text-anchor="middle" x="219" y="-1016" font-family="Helvetica,sans-Serif" font-size="10.00">&lt; TEquationSystemType &gt;</text>
</a>
</g>
</g>
<!-- Node0&#45;&gt;Node4 -->
<g id="edge4" class="edge">
<title>Node0&#45;&gt;Node4</title>
<path fill="none" stroke="midnightblue" d="M44.96,-603.15C48.97,-678.35 66.76,-941.34 122,-1000 128.12,-1006.5 135.72,-1011.36 143.94,-1014.96"/>
<polygon fill="midnightblue" stroke="midnightblue" points="48.44,-602.56 44.44,-592.75 41.45,-602.91 48.44,-602.56"/>
</g>
<!-- Node5 -->
<g id="node6" class="node">
<title>Node5</title>
<g id="a_node6"><a xlink:href="d3/d82/class_kratos_1_1_calculate_nodal_area_process.html" target="_top" xlink:title="Short class definition.">
<polygon fill="none" stroke="black" points="151,-960 151,-990 287,-990 287,-960 151,-960"/>
<text text-anchor="start" x="159" y="-978" font-family="Helvetica,sans-Serif" font-size="10.00">Kratos::CalculateNodalArea</text>
<text text-anchor="middle" x="219" y="-967" font-family="Helvetica,sans-Serif" font-size="10.00">Process</text>
</a>
</g>
</g>
<!-- Node0&#45;&gt;Node5 -->
<g id="edge5" class="edge">
<title>Node0&#45;&gt;Node5</title>
<path fill="none" stroke="midnightblue" d="M45.49,-602.97C51.07,-672.15 72.93,-900.12 122,-951 129.87,-959.16 140.07,-964.71 150.86,-968.45"/>
<polygon fill="midnightblue" stroke="midnightblue" points="48.95,-602.32 44.69,-592.62 41.98,-602.86 48.95,-602.32"/>
</g>
<!-- Node6 -->
<g id="node7" class="node">
<title>Node6</title>
<g id="a_node7"><a xlink:href="dc/d74/class_kratos_1_1_construct_system_matrix_elemental_process.html" target="_top" xlink:title="Short class definition.">
<polygon fill="none" stroke="black" points="122,-900.5 122,-941.5 316,-941.5 316,-900.5 122,-900.5"/>
<text text-anchor="start" x="130" y="-929.5" font-family="Helvetica,sans-Serif" font-size="10.00">Kratos::ConstructSystemMatrix</text>
<text text-anchor="start" x="130" y="-918.5" font-family="Helvetica,sans-Serif" font-size="10.00">ElementalProcess&lt; TSystemSpaceType,</text>
<text text-anchor="middle" x="219" y="-907.5" font-family="Helvetica,sans-Serif" font-size="10.00"> TDirichletSpaceType &gt;</text>
</a>
</g>
</g>
<!-- Node0&#45;&gt;Node6 -->
<g id="edge6" class="edge">
<title>Node0&#45;&gt;Node6</title>
<path fill="none" stroke="midnightblue" d="M46.44,-602.8C54.39,-664.14 81.35,-849.43 122,-892 125.01,-895.15 128.34,-897.96 131.91,-900.46"/>
<polygon fill="midnightblue" stroke="midnightblue" points="49.87,-602.04 45.14,-592.56 42.93,-602.92 49.87,-602.04"/>
</g>
<!-- Node7 -->
<g id="node8" class="node">
<title>Node7</title>
<g id="a_node8"><a xlink:href="db/d76/class_kratos_1_1_coordinate_laplacian_smoother_process.html" target="_top" xlink:title="Short class definition.">
<polygon fill="none" stroke="black" points="150,-852 150,-882 288,-882 288,-852 150,-852"/>
<text text-anchor="start" x="158" y="-870" font-family="Helvetica,sans-Serif" font-size="10.00">Kratos::CoordinateLaplacian</text>
<text text-anchor="middle" x="219" y="-859" font-family="Helvetica,sans-Serif" font-size="10.00">SmootherProcess</text>
</a>
</g>
</g>
<!-- Node0&#45;&gt;Node7 -->
<g id="edge7" class="edge">
<title>Node0&#45;&gt;Node7</title>
<path fill="none" stroke="midnightblue" d="M43.81,-602.72C44.46,-650.94 53.1,-775.66 122,-842 129.82,-849.53 139.6,-854.86 149.91,-858.63"/>
<polygon fill="midnightblue" stroke="midnightblue" points="47.31,-602.66 43.78,-592.67 40.31,-602.68 47.31,-602.66"/>
</g>
<!-- Node8 -->
<g id="node9" class="node">
<title>Node8</title>
<g id="a_node9"><a xlink:href="d5/d27/class_kratos_1_1_find_nodal_h_process.html" target="_top" xlink:title="Short class definition.">
<polygon fill="none" stroke="black" points="150.5,-813.5 150.5,-832.5 287.5,-832.5 287.5,-813.5 150.5,-813.5"/>
<text text-anchor="middle" x="219" y="-820.5" font-family="Helvetica,sans-Serif" font-size="10.00">Kratos::FindNodalHProcess</text>
</a>
</g>
</g>
<!-- Node0&#45;&gt;Node8 -->
<g id="edge8" class="edge">
<title>Node0&#45;&gt;Node8</title>
<path fill="none" stroke="midnightblue" d="M44.77,-602.98C47.58,-646.65 60.72,-750.96 122,-804 130.09,-811 140.02,-815.71 150.38,-818.83"/>
<polygon fill="midnightblue" stroke="midnightblue" points="48.25,-602.6 44.23,-592.8 41.26,-602.97 48.25,-602.6"/>
</g>
<!-- Node9 -->
<g id="node10" class="node">
<title>Node9</title>
<g id="a_node10"><a xlink:href="de/ddc/class_kratos_1_1_find_nodal_neighbours_process.html" target="_top" xlink:title="Short class definition.">
<polygon fill="none" stroke="black" points="147.5,-764 147.5,-794 290.5,-794 290.5,-764 147.5,-764"/>
<text text-anchor="start" x="155.5" y="-782" font-family="Helvetica,sans-Serif" font-size="10.00">Kratos::FindNodalNeighbours</text>
<text text-anchor="middle" x="219" y="-771" font-family="Helvetica,sans-Serif" font-size="10.00">Process</text>
</a>
</g>
</g>
<!-- Node0&#45;&gt;Node9 -->
<g id="edge9" class="edge">
<title>Node0&#45;&gt;Node9</title>
<path fill="none" stroke="midnightblue" d="M47.37,-603.06C54.48,-638.93 74.44,-714.03 122,-754 129.38,-760.2 138.13,-764.89 147.29,-768.43"/>
<polygon fill="midnightblue" stroke="midnightblue" points="50.75,-602.09 45.5,-592.89 43.87,-603.36 50.75,-602.09"/>
</g>
<!-- Node10 -->
<g id="node11" class="node">
<title>Node10</title>
<g id="a_node11"><a xlink:href="d7/d19/class_kratos_1_1_lagrangian_inlet_process.html" target="_top" xlink:title="Short class definition.">
<polygon fill="none" stroke="black" points="143,-725.5 143,-744.5 295,-744.5 295,-725.5 143,-725.5"/>
<text text-anchor="middle" x="219" y="-732.5" font-family="Helvetica,sans-Serif" font-size="10.00">Kratos::LagrangianInletProcess</text>
</a>
</g>
</g>
<!-- Node0&#45;&gt;Node10 -->
<g id="edge10" class="edge">
<title>Node0&#45;&gt;Node10</title>
<path fill="none" stroke="midnightblue" d="M49.72,-602.52C59.45,-632.06 82.14,-687.67 122,-716 128.23,-720.43 135.24,-723.89 142.56,-726.58"/>
<polygon fill="midnightblue" stroke="midnightblue" points="52.94,-601.08 46.62,-592.58 46.26,-603.17 52.94,-601.08"/>
</g>
<!-- Node11 -->
<g id="node12" class="node">
<title>Node11</title>
<g id="a_node12"><a xlink:href="d6/d42/class_kratos_1_1_mark_bad_elements_process.html" target="_top" xlink:title="Short class definition.">
<polygon fill="none" stroke="black" points="136.5,-687.5 136.5,-706.5 301.5,-706.5 301.5,-687.5 136.5,-687.5"/>
<text text-anchor="middle" x="219" y="-694.5" font-family="Helvetica,sans-Serif" font-size="10.00">Kratos::MarkBadElementsProcess</text>
</a>
</g>
</g>
<!-- Node0&#45;&gt;Node11 -->
<g id="edge11" class="edge">
<title>Node0&#45;&gt;Node11</title>
<path fill="none" stroke="midnightblue" d="M53.96,-601.66C66.7,-623.6 90.88,-659.37 122,-678 128.41,-681.84 135.46,-684.92 142.73,-687.39"/>
<polygon fill="midnightblue" stroke="midnightblue" points="56.87,-599.69 48.93,-592.67 50.76,-603.11 56.87,-599.69"/>
</g>
<!-- Node12 -->
<g id="node13" class="node">
<title>Node12</title>
<g id="a_node13"><a xlink:href="dc/d81/class_kratos_1_1_mark_close_nodes_process.html" target="_top" xlink:title="Short class definition.">
<polygon fill="none" stroke="black" points="138.5,-649.5 138.5,-668.5 299.5,-668.5 299.5,-649.5 138.5,-649.5"/>
<text text-anchor="middle" x="219" y="-656.5" font-family="Helvetica,sans-Serif" font-size="10.00">Kratos::MarkCloseNodesProcess</text>
</a>
</g>
</g>
<!-- Node0&#45;&gt;Node12 -->
<g id="edge12" class="edge">
<title>Node0&#45;&gt;Node12</title>
<path fill="none" stroke="midnightblue" d="M61.64,-599.42C76.6,-612.42 99.19,-630 122,-640 130.87,-643.89 140.55,-646.99 150.24,-649.46"/>
<polygon fill="midnightblue" stroke="midnightblue" points="63.96,-596.8 54.17,-592.75 59.3,-602.02 63.96,-596.8"/>
</g>
<!-- Node13 -->
<g id="node14" class="node">
<title>Node13</title>
<g id="a_node14"><a xlink:href="d4/de4/class_kratos_1_1_mark_fluid_process.html" target="_top" xlink:title="Short class definition.">
<polygon fill="none" stroke="black" points="155,-611.5 155,-630.5 283,-630.5 283,-611.5 155,-611.5"/>
<text text-anchor="middle" x="219" y="-618.5" font-family="Helvetica,sans-Serif" font-size="10.00">Kratos::MarkFluidProcess</text>
</a>
</g>
</g>
<!-- Node0&#45;&gt;Node13 -->
<g id="edge13" class="edge">
<title>Node0&#45;&gt;Node13</title>
<path fill="none" stroke="midnightblue" d="M91.46,-594.91C101.53,-597.34 112.1,-599.82 122,-602 136.77,-605.26 152.87,-608.55 167.59,-611.45"/>
<polygon fill="midnightblue" stroke="midnightblue" points="92.16,-591.48 81.61,-592.51 90.5,-598.28 92.16,-591.48"/>
</g>
<!-- Node14 -->
<g id="node15" class="node">
<title>Node14</title>
<g id="a_node15"><a xlink:href="d6/d0f/class_kratos_1_1_mark_outer_nodes_process.html" target="_top" xlink:title="Short class definition.">
<polygon fill="none" stroke="black" points="139,-573.5 139,-592.5 299,-592.5 299,-573.5 139,-573.5"/>
<text text-anchor="middle" x="219" y="-580.5" font-family="Helvetica,sans-Serif" font-size="10.00">Kratos::MarkOuterNodesProcess</text>
</a>
</g>
</g>
<!-- Node0&#45;&gt;Node14 -->
<g id="edge14" class="edge">
<title>Node0&#45;&gt;Node14</title>
<path fill="none" stroke="midnightblue" d="M96.51,-583C109.86,-583 124.49,-583 138.84,-583"/>
<polygon fill="midnightblue" stroke="midnightblue" points="96.12,-579.5 86.12,-583 96.12,-586.5 96.12,-579.5"/>
</g>
<!-- Node15 -->
<g id="node16" class="node">
<title>Node15</title>
<g id="a_node16"><a xlink:href="da/d51/class_kratos_1_1_merge_model_parts_process.html" target="_top" xlink:title="Short class definition.">
<polygon fill="none" stroke="black" points="138,-535.5 138,-554.5 300,-554.5 300,-535.5 138,-535.5"/>
<text text-anchor="middle" x="219" y="-542.5" font-family="Helvetica,sans-Serif" font-size="10.00">Kratos::MergeModelPartsProcess</text>
</a>
</g>
</g>
<!-- Node0&#45;&gt;Node15 -->
<g id="edge15" class="edge">
<title>Node0&#45;&gt;Node15</title>
<path fill="none" stroke="midnightblue" d="M91.46,-571.09C101.53,-568.66 112.1,-566.18 122,-564 136.77,-560.74 152.87,-557.45 167.59,-554.55"/>
<polygon fill="midnightblue" stroke="midnightblue" points="90.5,-567.72 81.61,-573.49 92.16,-574.52 90.5,-567.72"/>
</g>
<!-- Node16 -->
<g id="node17" class="node">
<title>Node16</title>
<g id="a_node17"><a xlink:href="da/d7b/class_kratos_1_1_metis_parallel_partitioning_process.html" target="_top" xlink:title="Short class definition.">
<polygon fill="none" stroke="black" points="141.5,-486 141.5,-516 296.5,-516 296.5,-486 141.5,-486"/>
<text text-anchor="start" x="149.5" y="-504" font-family="Helvetica,sans-Serif" font-size="10.00">Kratos::MetisParallelPartitioning</text>
<text text-anchor="middle" x="219" y="-493" font-family="Helvetica,sans-Serif" font-size="10.00">Process</text>
</a>
</g>
</g>
<!-- Node0&#45;&gt;Node16 -->
<g id="edge16" class="edge">
<title>Node0&#45;&gt;Node16</title>
<path fill="none" stroke="midnightblue" d="M62.23,-566.58C77.27,-553.82 99.71,-536.58 122,-526 130.09,-522.16 138.86,-518.85 147.69,-516.01"/>
<polygon fill="midnightblue" stroke="midnightblue" points="59.53,-564.29 54.28,-573.49 64.12,-569.57 59.53,-564.29"/>
</g>
<!-- Node17 -->
<g id="node18" class="node">
<title>Node17</title>
<g id="a_node18"><a xlink:href="df/d64/class_kratos_1_1_metis_partitioning_process.html" target="_top" xlink:title="Short class definition.">
<polygon fill="none" stroke="black" points="158,-437 158,-467 280,-467 280,-437 158,-437"/>
<text text-anchor="start" x="166" y="-455" font-family="Helvetica,sans-Serif" font-size="10.00">Kratos::MetisPartitioning</text>
<text text-anchor="middle" x="219" y="-444" font-family="Helvetica,sans-Serif" font-size="10.00">Process</text>
</a>
</g>
</g>
<!-- Node0&#45;&gt;Node17 -->
<g id="edge17" class="edge">
<title>Node0&#45;&gt;Node17</title>
<path fill="none" stroke="midnightblue" d="M52.73,-564.26C64.85,-540.32 89.07,-499.32 122,-477 132.69,-469.75 145.36,-464.61 157.93,-460.95"/>
<polygon fill="midnightblue" stroke="midnightblue" points="49.52,-562.85 48.28,-573.37 55.81,-565.92 49.52,-562.85"/>
</g>
<!-- Node18 -->
<g id="node19" class="node">
<title>Node18</title>
<g id="a_node19"><a xlink:href="dd/dbf/class_kratos_1_1_metis_separate_partition_with_interface_process.html" target="_top" xlink:title="Short class definition.">
<polygon fill="none" stroke="black" points="144.5,-388 144.5,-418 293.5,-418 293.5,-388 144.5,-388"/>
<text text-anchor="start" x="152.5" y="-406" font-family="Helvetica,sans-Serif" font-size="10.00">Kratos::MetisSeparatePartition</text>
<text text-anchor="middle" x="219" y="-395" font-family="Helvetica,sans-Serif" font-size="10.00">WithInterfaceProcess</text>
</a>
</g>
</g>
<!-- Node0&#45;&gt;Node18 -->
<g id="edge18" class="edge">
<title>Node0&#45;&gt;Node18</title>
<path fill="none" stroke="midnightblue" d="M48.29,-563.42C56.58,-530.34 78,-463.55 122,-428 128.56,-422.7 136.13,-418.51 144.08,-415.2"/>
<polygon fill="midnightblue" stroke="midnightblue" points="44.86,-562.71 45.97,-573.25 51.68,-564.32 44.86,-562.71"/>
</g>
<!-- Node19 -->
<g id="node20" class="node">
<title>Node19</title>
<g id="a_node20"><a xlink:href="d3/d40/class_kratos_1_1_move_mesh_process.html" target="_top" xlink:title="Short class definition.">
<polygon fill="none" stroke="black" points="152,-349.5 152,-368.5 286,-368.5 286,-349.5 152,-349.5"/>
<text text-anchor="middle" x="219" y="-356.5" font-family="Helvetica,sans-Serif" font-size="10.00">Kratos::MoveMeshProcess</text>
</a>
</g>
</g>
<!-- Node0&#45;&gt;Node19 -->
<g id="edge19" class="edge">
<title>Node0&#45;&gt;Node19</title>
<path fill="none" stroke="midnightblue" d="M45.49,-562.91C49.67,-521.67 65.27,-427.32 122,-379 130.55,-371.71 141.08,-366.86 151.99,-363.66"/>
<polygon fill="midnightblue" stroke="midnightblue" points="41.99,-562.77 44.59,-573.05 48.96,-563.4 41.99,-562.77"/>
</g>
<!-- Node20 -->
<g id="node21" class="node">
<title>Node20</title>
<g id="a_node21"><a xlink:href="d5/de5/class_kratos_1_1_node_erase_process.html" target="_top" xlink:title="Short class definition.">
<polygon fill="none" stroke="black" points="152,-311.5 152,-330.5 286,-330.5 286,-311.5 152,-311.5"/>
<text text-anchor="middle" x="219" y="-318.5" font-family="Helvetica,sans-Serif" font-size="10.00">Kratos::NodeEraseProcess</text>
</a>
</g>
</g>
<!-- Node0&#45;&gt;Node20 -->
<g id="edge20" class="edge">
<title>Node0&#45;&gt;Node20</title>
<path fill="none" stroke="midnightblue" d="M44.03,-563C45.25,-516.29 55.21,-399.51 122,-340 130.37,-332.54 140.81,-327.66 151.69,-324.54"/>
<polygon fill="midnightblue" stroke="midnightblue" points="40.53,-563.23 43.88,-573.28 47.52,-563.34 40.53,-563.23"/>
</g>
<!-- Node21 -->
<g id="node22" class="node">
<title>Node21</title>
<g id="a_node22"><a xlink:href="db/d89/class_kratos_1_1_pressure_calculate_process.html" target="_top" xlink:title="Short class definition.">
<polygon fill="none" stroke="black" points="154.5,-262 154.5,-292 283.5,-292 283.5,-262 154.5,-262"/>
<text text-anchor="start" x="162.5" y="-280" font-family="Helvetica,sans-Serif" font-size="10.00">Kratos::PressureCalculate</text>
<text text-anchor="middle" x="219" y="-269" font-family="Helvetica,sans-Serif" font-size="10.00">Process</text>
</a>
</g>
</g>
<!-- Node0&#45;&gt;Node21 -->
<g id="edge21" class="edge">
<title>Node0&#45;&gt;Node21</title>
<path fill="none" stroke="midnightblue" d="M43.26,-563.35C42.46,-512.43 47.69,-375.13 122,-302 130.84,-293.3 142.3,-287.52 154.21,-283.7"/>
<polygon fill="midnightblue" stroke="midnightblue" points="39.76,-563.44 43.51,-573.35 46.76,-563.26 39.76,-563.44"/>
</g>
<!-- Node22 -->
<g id="node23" class="node">
<title>Node22</title>
<g id="a_node23"><a xlink:href="d6/dcf/class_kratos_1_1_pressure_contribution_process.html" target="_top" xlink:title="Short class definition.">
<polygon fill="none" stroke="black" points="149,-213 149,-243 289,-243 289,-213 149,-213"/>
<text text-anchor="start" x="157" y="-231" font-family="Helvetica,sans-Serif" font-size="10.00">Kratos::PressureContribution</text>
<text text-anchor="middle" x="219" y="-220" font-family="Helvetica,sans-Serif" font-size="10.00">Process</text>
</a>
</g>
</g>
<!-- Node0&#45;&gt;Node22 -->
<g id="edge22" class="edge">
<title>Node0&#45;&gt;Node22</title>
<path fill="none" stroke="midnightblue" d="M45.99,-563.46C52.9,-499.53 77.84,-298.17 122,-253 129.34,-245.49 138.64,-240.14 148.54,-236.34"/>
<polygon fill="midnightblue" stroke="midnightblue" points="42.51,-563.11 44.94,-573.42 49.47,-563.84 42.51,-563.11"/>
</g>
<!-- Node23 -->
<g id="node24" class="node">
<title>Node23</title>
<g id="a_node24"><a xlink:href="db/df8/class_kratos_1_1_save_structure_conditions_process.html" target="_top" xlink:title="Short class definition.">
<polygon fill="none" stroke="black" points="140,-164 140,-194 298,-194 298,-164 140,-164"/>
<text text-anchor="start" x="148" y="-182" font-family="Helvetica,sans-Serif" font-size="10.00">Kratos::SaveStructureConditions</text>
<text text-anchor="middle" x="219" y="-171" font-family="Helvetica,sans-Serif" font-size="10.00">Process</text>
</a>
</g>
</g>
<!-- Node0&#45;&gt;Node23 -->
<g id="edge23" class="edge">
<title>Node0&#45;&gt;Node23</title>
<path fill="none" stroke="midnightblue" d="M45.36,-563.36C50.59,-493.29 71.72,-256.95 122,-204 127.1,-198.63 133.19,-194.36 139.81,-190.97"/>
<polygon fill="midnightblue" stroke="midnightblue" points="41.86,-563.23 44.63,-573.45 48.84,-563.73 41.86,-563.23"/>
</g>
<!-- Node24 -->
<g id="node25" class="node">
<title>Node24</title>
<g id="a_node25"><a xlink:href="db/da6/class_kratos_1_1_save_structure_model_part_process.html" target="_top" xlink:title="Short class definition.">
<polygon fill="none" stroke="black" points="150,-115 150,-145 288,-145 288,-115 150,-115"/>
<text text-anchor="start" x="158" y="-133" font-family="Helvetica,sans-Serif" font-size="10.00">Kratos::SaveStructureModel</text>
<text text-anchor="middle" x="219" y="-122" font-family="Helvetica,sans-Serif" font-size="10.00">PartProcess</text>
</a>
</g>
</g>
<!-- Node0&#45;&gt;Node24 -->
<g id="edge24" class="edge">
<title>Node0&#45;&gt;Node24</title>
<path fill="none" stroke="midnightblue" d="M44.85,-563.31C48.54,-487.52 65.55,-215.82 122,-155 129.5,-146.92 139.25,-141.32 149.65,-137.46"/>
<polygon fill="midnightblue" stroke="midnightblue" points="41.35,-563.23 44.39,-573.38 48.35,-563.55 41.35,-563.23"/>
</g>
<!-- Node25 -->
<g id="node26" class="node">
<title>Node25</title>
<g id="a_node26"><a xlink:href="d7/dab/class_kratos_1_1_set_h_map_process.html" target="_top" xlink:title="Short class definition.">
<polygon fill="none" stroke="black" points="155.5,-76.5 155.5,-95.5 282.5,-95.5 282.5,-76.5 155.5,-76.5"/>
<text text-anchor="middle" x="219" y="-83.5" font-family="Helvetica,sans-Serif" font-size="10.00">Kratos::SetHMapProcess</text>
</a>
</g>
</g>
<!-- Node0&#45;&gt;Node25 -->
<g id="edge25" class="edge">
<title>Node0&#45;&gt;Node25</title>
<path fill="none" stroke="midnightblue" d="M44.36,-563.12C46.27,-481.47 57.7,-173.15 122,-106 130.83,-96.78 142.73,-91.24 155.13,-88.03"/>
<polygon fill="midnightblue" stroke="midnightblue" points="40.86,-563.39 44.15,-573.46 47.86,-563.54 40.86,-563.39"/>
</g>
<!-- Node26 -->
<g id="node27" class="node">
<title>Node26</title>
<g id="a_node27"><a xlink:href="d4/d7f/class_kratos_1_1_ulf_apply_b_c_process.html" target="_top" xlink:title="Short class definition.">
<polygon fill="none" stroke="black" points="151,-38.5 151,-57.5 287,-57.5 287,-38.5 151,-38.5"/>
<text text-anchor="middle" x="219" y="-45.5" font-family="Helvetica,sans-Serif" font-size="10.00">Kratos::UlfApplyBCProcess</text>
</a>
</g>
</g>
<!-- Node0&#45;&gt;Node26 -->
<g id="edge26" class="edge">
<title>Node0&#45;&gt;Node26</title>
<path fill="none" stroke="midnightblue" d="M44.08,-562.85C44.84,-476.65 52.28,-139.96 122,-67 129.75,-58.89 139.88,-53.7 150.65,-50.47"/>
<polygon fill="midnightblue" stroke="midnightblue" points="40.58,-563.08 44.01,-573.1 47.58,-563.12 40.58,-563.08"/>
</g>
<!-- Node27 -->
<g id="node28" class="node">
<title>Node27</title>
<g id="a_node28"><a xlink:href="d6/d80/class_kratos_1_1_ulf_time_step_dec_process.html" target="_top" xlink:title="Short class definition.">
<polygon fill="none" stroke="black" points="140,-0.5 140,-19.5 298,-19.5 298,-0.5 140,-0.5"/>
<text text-anchor="middle" x="219" y="-7.5" font-family="Helvetica,sans-Serif" font-size="10.00">Kratos::UlfTimeStepDecProcess</text>
</a>
</g>
</g>
<!-- Node0&#45;&gt;Node27 -->
<g id="edge27" class="edge">
<title>Node0&#45;&gt;Node27</title>
<path fill="none" stroke="midnightblue" d="M43.85,-563.11C43.59,-473.48 47.18,-108.09 122,-29 127.02,-23.69 133.06,-19.63 139.64,-16.55"/>
<polygon fill="midnightblue" stroke="midnightblue" points="40.35,-563.28 43.9,-573.26 47.35,-563.24 40.35,-563.28"/>
</g>
</g>
</svg>
