<?xml version="1.0" encoding="UTF-8" standalone="no"?>
<!DOCTYPE svg PUBLIC "-//W3C//DTD SVG 1.1//EN"
 "http://www.w3.org/Graphics/SVG/1.1/DTD/svg11.dtd">
<!-- Generated by graphviz version 2.48.0 (20210719.0153)
 -->
<!-- Title: Graphical Class Hierarchy Pages: 1 -->
<svg width="550pt" height="161pt"
 viewBox="0.00 0.00 550.00 161.00" xmlns="http://www.w3.org/2000/svg" xmlns:xlink="http://www.w3.org/1999/xlink">
<g id="graph0" class="graph" transform="scale(1 1) rotate(0) translate(4 157)">
<title>Graphical Class Hierarchy</title>
<!-- Node0 -->
<g id="node1" class="node">
<title>Node0</title>
<g id="a_node1"><a xlink:href="d5/da3/class_kratos_1_1_tree_node.html" target="_top" xlink:title=" ">
<polygon fill="none" stroke="black" points="0,-57 0,-120 173,-120 173,-57 0,-57"/>
<text text-anchor="start" x="8" y="-108" font-family="Helvetica,sans-Serif" font-size="10.00">Kratos::TreeNode&lt; TLeafType</text>
<text text-anchor="start" x="8" y="-97" font-family="Helvetica,sans-Serif" font-size="10.00">::Dimension, TLeafType::</text>
<text text-anchor="start" x="8" y="-86" font-family="Helvetica,sans-Serif" font-size="10.00">PointType, TLeafType::PointerType,</text>
<text text-anchor="start" x="8" y="-75" font-family="Helvetica,sans-Serif" font-size="10.00"> TLeafType::IteratorType, TLeafType</text>
<text text-anchor="middle" x="86.5" y="-64" font-family="Helvetica,sans-Serif" font-size="10.00">::DistanceIteratorType &gt;</text>
</a>
</g>
</g>
<!-- Node1 -->
<g id="node2" class="node">
<title>Node1</title>
<g id="a_node2"><a xlink:href="da/dec/class_kratos_1_1_k_d_tree_partition.html" target="_top" xlink:title="Short class definition.">
<polygon fill="none" stroke="black" points="220.5,-122.5 220.5,-152.5 339.5,-152.5 339.5,-122.5 220.5,-122.5"/>
<text text-anchor="start" x="228.5" y="-140.5" font-family="Helvetica,sans-Serif" font-size="10.00">Kratos::KDTreePartition</text>
<text text-anchor="middle" x="280" y="-129.5" font-family="Helvetica,sans-Serif" font-size="10.00">&lt; TLeafType &gt;</text>
</a>
</g>
</g>
<!-- Node0&#45;&gt;Node1 -->
<g id="edge1" class="edge">
<title>Node0&#45;&gt;Node1</title>
<path fill="none" stroke="midnightblue" d="M182.91,-112.91C195.67,-116.18 208.44,-119.44 220.31,-122.48"/>
<polygon fill="midnightblue" stroke="midnightblue" points="183.72,-109.51 173.17,-110.42 181.99,-116.29 183.72,-109.51"/>
</g>
<!-- Node2 -->
<g id="node3" class="node">
<title>Node2</title>
<g id="a_node3"><a xlink:href="d9/d5c/class_kratos_1_1_o_c_tree_partition.html" target="_top" xlink:title="Short class definition.">
<polygon fill="none" stroke="black" points="220.5,-73.5 220.5,-103.5 339.5,-103.5 339.5,-73.5 220.5,-73.5"/>
<text text-anchor="start" x="228.5" y="-91.5" font-family="Helvetica,sans-Serif" font-size="10.00">Kratos::OCTreePartition</text>
<text text-anchor="middle" x="280" y="-80.5" font-family="Helvetica,sans-Serif" font-size="10.00">&lt; TLeafType &gt;</text>
</a>
</g>
</g>
<!-- Node0&#45;&gt;Node2 -->
<g id="edge2" class="edge">
<title>Node0&#45;&gt;Node2</title>
<path fill="none" stroke="midnightblue" d="M183.28,-88.5C195.92,-88.5 208.55,-88.5 220.31,-88.5"/>
<polygon fill="midnightblue" stroke="midnightblue" points="183.17,-85 173.17,-88.5 183.17,-92 183.17,-85"/>
</g>
<!-- Node3 -->
<g id="node4" class="node">
<title>Node3</title>
<g id="a_node4"><a xlink:href="de/dfb/class_kratos_1_1_o_c_tree_partition_base.html" target="_top" xlink:title="Short class definition.">
<polygon fill="none" stroke="black" points="209,-24.5 209,-54.5 351,-54.5 351,-24.5 209,-24.5"/>
<text text-anchor="start" x="217" y="-42.5" font-family="Helvetica,sans-Serif" font-size="10.00">Kratos::OCTreePartitionBase</text>
<text text-anchor="middle" x="280" y="-31.5" font-family="Helvetica,sans-Serif" font-size="10.00">&lt; TLeafType &gt;</text>
</a>
</g>
</g>
<!-- Node0&#45;&gt;Node3 -->
<g id="edge3" class="edge">
<title>Node0&#45;&gt;Node3</title>
<path fill="none" stroke="midnightblue" d="M182.91,-64.09C195.67,-60.82 208.44,-57.56 220.31,-54.52"/>
<polygon fill="midnightblue" stroke="midnightblue" points="181.99,-60.71 173.17,-66.58 183.72,-67.49 181.99,-60.71"/>
</g>
<!-- Node4 -->
<g id="node5" class="node">
<title>Node4</title>
<g id="a_node5"><a xlink:href="d2/d1f/class_kratos_1_1_o_c_tree_partition_average_split.html" target="_top" xlink:title="Short class definition.">
<polygon fill="none" stroke="black" points="387,-49.5 387,-79.5 542,-79.5 542,-49.5 387,-49.5"/>
<text text-anchor="start" x="395" y="-67.5" font-family="Helvetica,sans-Serif" font-size="10.00">Kratos::OCTreePartitionAverage</text>
<text text-anchor="middle" x="464.5" y="-56.5" font-family="Helvetica,sans-Serif" font-size="10.00">Split&lt; TLeafType &gt;</text>
</a>
</g>
</g>
<!-- Node3&#45;&gt;Node4 -->
<g id="edge4" class="edge">
<title>Node3&#45;&gt;Node4</title>
<path fill="none" stroke="midnightblue" d="M361.06,-50.47C369.67,-51.65 378.41,-52.84 386.97,-54.02"/>
<polygon fill="midnightblue" stroke="midnightblue" points="361.42,-46.98 351.04,-49.09 360.47,-53.92 361.42,-46.98"/>
</g>
<!-- Node5 -->
<g id="node6" class="node">
<title>Node5</title>
<g id="a_node6"><a xlink:href="df/de0/class_kratos_1_1_o_c_tree_partition_mid_point_split.html" target="_top" xlink:title="Short class definition.">
<polygon fill="none" stroke="black" points="397,-0.5 397,-30.5 532,-30.5 532,-0.5 397,-0.5"/>
<text text-anchor="start" x="405" y="-18.5" font-family="Helvetica,sans-Serif" font-size="10.00">Kratos::OCTreePartitionMid</text>
<text text-anchor="middle" x="464.5" y="-7.5" font-family="Helvetica,sans-Serif" font-size="10.00">PointSplit&lt; TLeafType &gt;</text>
</a>
</g>
</g>
<!-- Node3&#45;&gt;Node5 -->
<g id="edge5" class="edge">
<title>Node3&#45;&gt;Node5</title>
<path fill="none" stroke="midnightblue" d="M361.03,-28.98C373.02,-27.4 385.28,-25.79 396.95,-24.25"/>
<polygon fill="midnightblue" stroke="midnightblue" points="360.5,-25.52 351.04,-30.29 361.41,-32.46 360.5,-25.52"/>
</g>
</g>
</svg>
