<?xml version="1.0" encoding="UTF-8" standalone="no"?>
<!DOCTYPE svg PUBLIC "-//W3C//DTD SVG 1.1//EN"
 "http://www.w3.org/Graphics/SVG/1.1/DTD/svg11.dtd">
<!-- Generated by graphviz version 2.48.0 (20210719.0153)
 -->
<!-- Title: Graphical Class Hierarchy Pages: 1 -->
<svg width="696pt" height="112pt"
 viewBox="0.00 0.00 696.00 112.00" xmlns="http://www.w3.org/2000/svg" xmlns:xlink="http://www.w3.org/1999/xlink">
<g id="graph0" class="graph" transform="scale(1 1) rotate(0) translate(4 108)">
<title>Graphical Class Hierarchy</title>
<!-- Node0 -->
<g id="node1" class="node">
<title>Node0</title>
<g id="a_node1"><a xlink:href="dc/d7c/structboost_1_1numeric_1_1ublas_1_1unknown__storage__tag.html" target="_top" xlink:title=" ">
<polygon fill="none" stroke="black" points="0,-24.5 0,-54.5 116,-54.5 116,-24.5 0,-24.5"/>
<text text-anchor="start" x="8" y="-42.5" font-family="Helvetica,sans-Serif" font-size="10.00">boost::numeric::ublas</text>
<text text-anchor="middle" x="58" y="-31.5" font-family="Helvetica,sans-Serif" font-size="10.00">::unknown_storage_tag</text>
</a>
</g>
</g>
<!-- Node1 -->
<g id="node2" class="node">
<title>Node1</title>
<g id="a_node2"><a xlink:href="d5/d6d/structboost_1_1numeric_1_1ublas_1_1sparse__proxy__tag.html" target="_top" xlink:title=" ">
<polygon fill="none" stroke="black" points="152,-24.5 152,-54.5 259,-54.5 259,-24.5 152,-24.5"/>
<text text-anchor="start" x="160" y="-42.5" font-family="Helvetica,sans-Serif" font-size="10.00">boost::numeric::ublas</text>
<text text-anchor="middle" x="205.5" y="-31.5" font-family="Helvetica,sans-Serif" font-size="10.00">::sparse_proxy_tag</text>
</a>
</g>
</g>
<!-- Node0&#45;&gt;Node1 -->
<g id="edge1" class="edge">
<title>Node0&#45;&gt;Node1</title>
<path fill="none" stroke="midnightblue" d="M126.14,-39.5C134.76,-39.5 143.5,-39.5 151.85,-39.5"/>
<polygon fill="midnightblue" stroke="midnightblue" points="126.09,-36 116.09,-39.5 126.09,-43 126.09,-36"/>
</g>
<!-- Node2 -->
<g id="node3" class="node">
<title>Node2</title>
<g id="a_node3"><a xlink:href="dc/dcb/structboost_1_1numeric_1_1ublas_1_1packed__proxy__tag.html" target="_top" xlink:title=" ">
<polygon fill="none" stroke="black" points="295,-49.5 295,-79.5 402,-79.5 402,-49.5 295,-49.5"/>
<text text-anchor="start" x="303" y="-67.5" font-family="Helvetica,sans-Serif" font-size="10.00">boost::numeric::ublas</text>
<text text-anchor="middle" x="348.5" y="-56.5" font-family="Helvetica,sans-Serif" font-size="10.00">::packed_proxy_tag</text>
</a>
</g>
</g>
<!-- Node1&#45;&gt;Node2 -->
<g id="edge2" class="edge">
<title>Node1&#45;&gt;Node2</title>
<path fill="none" stroke="midnightblue" d="M269.05,-50.59C277.7,-52.12 286.51,-53.69 294.95,-55.18"/>
<polygon fill="midnightblue" stroke="midnightblue" points="269.46,-47.11 259,-48.81 268.24,-54 269.46,-47.11"/>
</g>
<!-- Node6 -->
<g id="node7" class="node">
<title>Node6</title>
<g id="a_node7"><a xlink:href="da/dcc/structboost_1_1numeric_1_1ublas_1_1sparse__tag.html" target="_top" xlink:title=" ">
<polygon fill="none" stroke="black" points="295,-0.5 295,-30.5 402,-30.5 402,-0.5 295,-0.5"/>
<text text-anchor="start" x="303" y="-18.5" font-family="Helvetica,sans-Serif" font-size="10.00">boost::numeric::ublas</text>
<text text-anchor="middle" x="348.5" y="-7.5" font-family="Helvetica,sans-Serif" font-size="10.00">::sparse_tag</text>
</a>
</g>
</g>
<!-- Node1&#45;&gt;Node6 -->
<g id="edge6" class="edge">
<title>Node1&#45;&gt;Node6</title>
<path fill="none" stroke="midnightblue" d="M269.05,-28.85C277.7,-27.38 286.51,-25.88 294.95,-24.44"/>
<polygon fill="midnightblue" stroke="midnightblue" points="268.27,-25.43 259,-30.56 269.45,-32.34 268.27,-25.43"/>
</g>
<!-- Node3 -->
<g id="node4" class="node">
<title>Node3</title>
<g id="a_node4"><a xlink:href="da/d7f/structboost_1_1numeric_1_1ublas_1_1dense__proxy__tag.html" target="_top" xlink:title=" ">
<polygon fill="none" stroke="black" points="438,-73.5 438,-103.5 545,-103.5 545,-73.5 438,-73.5"/>
<text text-anchor="start" x="446" y="-91.5" font-family="Helvetica,sans-Serif" font-size="10.00">boost::numeric::ublas</text>
<text text-anchor="middle" x="491.5" y="-80.5" font-family="Helvetica,sans-Serif" font-size="10.00">::dense_proxy_tag</text>
</a>
</g>
</g>
<!-- Node2&#45;&gt;Node3 -->
<g id="edge3" class="edge">
<title>Node2&#45;&gt;Node3</title>
<path fill="none" stroke="midnightblue" d="M412.05,-75.15C420.7,-76.62 429.51,-78.12 437.95,-79.56"/>
<polygon fill="midnightblue" stroke="midnightblue" points="412.45,-71.66 402,-73.44 411.27,-78.57 412.45,-71.66"/>
</g>
<!-- Node5 -->
<g id="node6" class="node">
<title>Node5</title>
<g id="a_node6"><a xlink:href="d4/d3d/structboost_1_1numeric_1_1ublas_1_1packed__tag.html" target="_top" xlink:title=" ">
<polygon fill="none" stroke="black" points="438,-24.5 438,-54.5 545,-54.5 545,-24.5 438,-24.5"/>
<text text-anchor="start" x="446" y="-42.5" font-family="Helvetica,sans-Serif" font-size="10.00">boost::numeric::ublas</text>
<text text-anchor="middle" x="491.5" y="-31.5" font-family="Helvetica,sans-Serif" font-size="10.00">::packed_tag</text>
</a>
</g>
</g>
<!-- Node2&#45;&gt;Node5 -->
<g id="edge5" class="edge">
<title>Node2&#45;&gt;Node5</title>
<path fill="none" stroke="midnightblue" d="M412.05,-53.41C420.7,-51.88 429.51,-50.31 437.95,-48.82"/>
<polygon fill="midnightblue" stroke="midnightblue" points="411.24,-50 402,-55.19 412.46,-56.89 411.24,-50"/>
</g>
<!-- Node4 -->
<g id="node5" class="node">
<title>Node4</title>
<g id="a_node5"><a xlink:href="d8/dff/structboost_1_1numeric_1_1ublas_1_1dense__tag.html" target="_top" xlink:title=" ">
<polygon fill="none" stroke="black" points="581,-73.5 581,-103.5 688,-103.5 688,-73.5 581,-73.5"/>
<text text-anchor="start" x="589" y="-91.5" font-family="Helvetica,sans-Serif" font-size="10.00">boost::numeric::ublas</text>
<text text-anchor="middle" x="634.5" y="-80.5" font-family="Helvetica,sans-Serif" font-size="10.00">::dense_tag</text>
</a>
</g>
</g>
<!-- Node3&#45;&gt;Node4 -->
<g id="edge4" class="edge">
<title>Node3&#45;&gt;Node4</title>
<path fill="none" stroke="midnightblue" d="M555.05,-88.5C563.7,-88.5 572.51,-88.5 580.95,-88.5"/>
<polygon fill="midnightblue" stroke="midnightblue" points="555,-85 545,-88.5 555,-92 555,-85"/>
</g>
</g>
</svg>
