<?xml version="1.0" encoding="UTF-8" standalone="no"?>
<!DOCTYPE svg PUBLIC "-//W3C//DTD SVG 1.1//EN"
 "http://www.w3.org/Graphics/SVG/1.1/DTD/svg11.dtd">
<!-- Generated by graphviz version 2.48.0 (20210719.0153)
 -->
<!-- Title: Graphical Class Hierarchy Pages: 1 -->
<svg width="478pt" height="110pt"
 viewBox="0.00 0.00 478.00 110.00" xmlns="http://www.w3.org/2000/svg" xmlns:xlink="http://www.w3.org/1999/xlink">
<g id="graph0" class="graph" transform="scale(1 1) rotate(0) translate(4 106)">
<title>Graphical Class Hierarchy</title>
<!-- Node1335 -->
<g id="node1" class="node">
<title>Node1335</title>
<g id="a_node1"><a xlink:title=" ">
<polygon fill="none" stroke="#bfbfbf" points="0,-41.5 0,-60.5 110,-60.5 110,-41.5 0,-41.5"/>
<text text-anchor="middle" x="55" y="-48.5" font-family="Helvetica,sans-Serif" font-size="10.00">vector_indexing_suite</text>
</a>
</g>
</g>
<!-- Node0 -->
<g id="node2" class="node">
<title>Node0</title>
<g id="a_node2"><a xlink:href="da/d48/class_kratos_1_1_python_1_1_readonly_vector_python_interface.html" target="_top" xlink:title="A sequence converter from python.">
<polygon fill="none" stroke="black" points="146,-30.5 146,-71.5 270,-71.5 270,-30.5 146,-30.5"/>
<text text-anchor="start" x="154" y="-59.5" font-family="Helvetica,sans-Serif" font-size="10.00">Kratos::Python::Readonly</text>
<text text-anchor="start" x="154" y="-48.5" font-family="Helvetica,sans-Serif" font-size="10.00">VectorPythonInterface</text>
<text text-anchor="middle" x="208" y="-37.5" font-family="Helvetica,sans-Serif" font-size="10.00">&lt; TContainerType &gt;</text>
</a>
</g>
</g>
<!-- Node1335&#45;&gt;Node0 -->
<g id="edge1" class="edge">
<title>Node1335&#45;&gt;Node0</title>
<path fill="none" stroke="midnightblue" d="M120.3,-51C128.77,-51 137.43,-51 145.85,-51"/>
<polygon fill="midnightblue" stroke="midnightblue" points="120.09,-47.5 110.09,-51 120.09,-54.5 120.09,-47.5"/>
</g>
<!-- Node1 -->
<g id="node3" class="node">
<title>Node1</title>
<g id="a_node3"><a xlink:href="d6/d9e/class_kratos_1_1_python_1_1_bounded_vector_python_interface.html" target="_top" xlink:title="A sequence converter from python.">
<polygon fill="none" stroke="black" points="306,-60.5 306,-101.5 470,-101.5 470,-60.5 306,-60.5"/>
<text text-anchor="start" x="314" y="-89.5" font-family="Helvetica,sans-Serif" font-size="10.00">Kratos::Python::BoundedVector</text>
<text text-anchor="start" x="314" y="-78.5" font-family="Helvetica,sans-Serif" font-size="10.00">PythonInterface&lt; TContainerType,</text>
<text text-anchor="middle" x="388" y="-67.5" font-family="Helvetica,sans-Serif" font-size="10.00"> TSize &gt;</text>
</a>
</g>
</g>
<!-- Node0&#45;&gt;Node1 -->
<g id="edge2" class="edge">
<title>Node0&#45;&gt;Node1</title>
<path fill="none" stroke="midnightblue" d="M280.35,-63.03C288.73,-64.44 297.32,-65.89 305.83,-67.32"/>
<polygon fill="midnightblue" stroke="midnightblue" points="280.7,-59.54 270.26,-61.32 279.54,-66.44 280.7,-59.54"/>
</g>
<!-- Node2 -->
<g id="node4" class="node">
<title>Node2</title>
<g id="a_node4"><a xlink:href="d5/d69/class_kratos_1_1_python_1_1_vector_python_interface.html" target="_top" xlink:title="A sequence converter from python.">
<polygon fill="none" stroke="black" points="316.5,-0.5 316.5,-41.5 459.5,-41.5 459.5,-0.5 316.5,-0.5"/>
<text text-anchor="start" x="324.5" y="-29.5" font-family="Helvetica,sans-Serif" font-size="10.00">Kratos::Python::VectorPython</text>
<text text-anchor="start" x="324.5" y="-18.5" font-family="Helvetica,sans-Serif" font-size="10.00">Interface&lt; TContainerType,</text>
<text text-anchor="middle" x="388" y="-7.5" font-family="Helvetica,sans-Serif" font-size="10.00"> TModifierType &gt;</text>
</a>
</g>
</g>
<!-- Node0&#45;&gt;Node2 -->
<g id="edge3" class="edge">
<title>Node0&#45;&gt;Node2</title>
<path fill="none" stroke="midnightblue" d="M280.17,-39.01C292.12,-36.99 304.52,-34.9 316.45,-32.89"/>
<polygon fill="midnightblue" stroke="midnightblue" points="279.54,-35.56 270.26,-40.68 280.7,-42.46 279.54,-35.56"/>
</g>
</g>
</svg>
