<?xml version="1.0" encoding="UTF-8" standalone="no"?>
<!DOCTYPE svg PUBLIC "-//W3C//DTD SVG 1.1//EN"
 "http://www.w3.org/Graphics/SVG/1.1/DTD/svg11.dtd">
<!-- Generated by graphviz version 2.48.0 (20210719.0153)
 -->
<!-- Title: Graphical Class Hierarchy Pages: 1 -->
<svg width="526pt" height="838pt"
 viewBox="0.00 0.00 526.00 838.00" xmlns="http://www.w3.org/2000/svg" xmlns:xlink="http://www.w3.org/1999/xlink">
<g id="graph0" class="graph" transform="scale(1 1) rotate(0) translate(4 834)">
<title>Graphical Class Hierarchy</title>
<!-- Node112 -->
<g id="node1" class="node">
<title>Node112</title>
<g id="a_node1"><a xlink:title=" ">
<polygon fill="none" stroke="#bfbfbf" points="0,-395 0,-414 62,-414 62,-395 0,-395"/>
<text text-anchor="middle" x="31" y="-402" font-family="Helvetica,sans-Serif" font-size="10.00">def_visitor</text>
</a>
</g>
</g>
<!-- Node0 -->
<g id="node2" class="node">
<title>Node0</title>
<g id="a_node2"><a xlink:href="d6/d4c/classboost_1_1python_1_1pointer__indexing__suite.html" target="_top" xlink:title=" ">
<polygon fill="none" stroke="black" points="100.5,-755.5 100.5,-829.5 294.5,-829.5 294.5,-755.5 100.5,-755.5"/>
<text text-anchor="start" x="108.5" y="-817.5" font-family="Helvetica,sans-Serif" font-size="10.00">boost::python::pointer</text>
<text text-anchor="start" x="108.5" y="-806.5" font-family="Helvetica,sans-Serif" font-size="10.00">_indexing_suite&lt; TContainerType,</text>
<text text-anchor="start" x="108.5" y="-795.5" font-family="Helvetica,sans-Serif" font-size="10.00"> PointerVectorSetPythonInterface</text>
<text text-anchor="start" x="108.5" y="-784.5" font-family="Helvetica,sans-Serif" font-size="10.00">&lt; TContainerType &gt;, true, true,</text>
<text text-anchor="start" x="108.5" y="-773.5" font-family="Helvetica,sans-Serif" font-size="10.00"> TContainerType::pointer, TContainerType</text>
<text text-anchor="middle" x="197.5" y="-762.5" font-family="Helvetica,sans-Serif" font-size="10.00">::key_type, TContainerType::key_type &gt;</text>
</a>
</g>
</g>
<!-- Node112&#45;&gt;Node0 -->
<g id="edge1" class="edge">
<title>Node112&#45;&gt;Node0</title>
<path fill="none" stroke="midnightblue" d="M33.49,-424.41C38.71,-489.59 58.1,-695.33 98,-746.5 100.44,-749.63 103.14,-752.55 106.04,-755.28"/>
<polygon fill="midnightblue" stroke="midnightblue" points="36.96,-423.95 32.7,-414.26 29.98,-424.5 36.96,-423.95"/>
</g>
<!-- Node115 -->
<g id="node4" class="node">
<title>Node115</title>
<g id="a_node4"><a xlink:href="dd/dfa/class_kratos_1_1_python_1_1_bounded_vector_vector_assignment_operator_python.html" target="_top" xlink:title="Short class definition.">
<polygon fill="none" stroke="black" points="98,-696 98,-737 297,-737 297,-696 98,-696"/>
<text text-anchor="start" x="106" y="-725" font-family="Helvetica,sans-Serif" font-size="10.00">Kratos::Python::BoundedVector</text>
<text text-anchor="start" x="106" y="-714" font-family="Helvetica,sans-Serif" font-size="10.00">VectorAssignmentOperatorPython</text>
<text text-anchor="middle" x="197.5" y="-703" font-family="Helvetica,sans-Serif" font-size="10.00">&lt; TContainerType, TOtherContainerType &gt;</text>
</a>
</g>
</g>
<!-- Node112&#45;&gt;Node115 -->
<g id="edge3" class="edge">
<title>Node112&#45;&gt;Node115</title>
<path fill="none" stroke="midnightblue" d="M34.05,-424.04C40.43,-481.41 61.75,-647.79 98,-686.5 101.3,-690.02 105,-693.14 108.98,-695.89"/>
<polygon fill="midnightblue" stroke="midnightblue" points="37.52,-423.65 32.97,-414.09 30.57,-424.41 37.52,-423.65"/>
</g>
<!-- Node116 -->
<g id="node5" class="node">
<title>Node116</title>
<g id="a_node5"><a xlink:href="db/d06/class_kratos_1_1_python_1_1_matrix_matrix_operator_python.html" target="_top" xlink:title="Short class definition.">
<polygon fill="none" stroke="black" points="115.5,-636 115.5,-677 279.5,-677 279.5,-636 115.5,-636"/>
<text text-anchor="start" x="123.5" y="-665" font-family="Helvetica,sans-Serif" font-size="10.00">Kratos::Python::MatrixMatrix</text>
<text text-anchor="start" x="123.5" y="-654" font-family="Helvetica,sans-Serif" font-size="10.00">OperatorPython&lt; TMatrixType,</text>
<text text-anchor="middle" x="197.5" y="-643" font-family="Helvetica,sans-Serif" font-size="10.00"> TOtherMatrixType, TResultType &gt;</text>
</a>
</g>
</g>
<!-- Node112&#45;&gt;Node116 -->
<g id="edge4" class="edge">
<title>Node112&#45;&gt;Node116</title>
<path fill="none" stroke="midnightblue" d="M31.98,-424.32C33.03,-467.31 41.67,-569.8 98,-626.5 103.04,-631.57 108.91,-635.79 115.23,-639.3"/>
<polygon fill="midnightblue" stroke="midnightblue" points="35.47,-424.03 31.85,-414.08 28.47,-424.12 35.47,-424.03"/>
</g>
<!-- Node117 -->
<g id="node6" class="node">
<title>Node117</title>
<g id="a_node6"><a xlink:href="dd/d4b/class_kratos_1_1_python_1_1_matrix_scalar_assignment_operator_python.html" target="_top" xlink:title="Short class definition.">
<polygon fill="none" stroke="black" points="124.5,-576 124.5,-617 270.5,-617 270.5,-576 124.5,-576"/>
<text text-anchor="start" x="132.5" y="-605" font-family="Helvetica,sans-Serif" font-size="10.00">Kratos::Python::MatrixScalar</text>
<text text-anchor="start" x="132.5" y="-594" font-family="Helvetica,sans-Serif" font-size="10.00">AssignmentOperatorPython</text>
<text text-anchor="middle" x="197.5" y="-583" font-family="Helvetica,sans-Serif" font-size="10.00">&lt; TMatrixType, TScalarType &gt;</text>
</a>
</g>
</g>
<!-- Node112&#45;&gt;Node117 -->
<g id="edge5" class="edge">
<title>Node112&#45;&gt;Node117</title>
<path fill="none" stroke="midnightblue" d="M34.51,-424.21C39.89,-458.19 55.68,-527.87 98,-566.5 105.59,-573.43 114.74,-578.76 124.37,-582.86"/>
<polygon fill="midnightblue" stroke="midnightblue" points="37.95,-423.55 33.06,-414.15 31.02,-424.54 37.95,-423.55"/>
</g>
<!-- Node118 -->
<g id="node7" class="node">
<title>Node118</title>
<g id="a_node7"><a xlink:href="da/d09/class_kratos_1_1_python_1_1_matrix_scalar_operator_python.html" target="_top" xlink:title="Short class definition.">
<polygon fill="none" stroke="black" points="120.5,-504.5 120.5,-556.5 274.5,-556.5 274.5,-504.5 120.5,-504.5"/>
<text text-anchor="start" x="128.5" y="-544.5" font-family="Helvetica,sans-Serif" font-size="10.00">Kratos::Python::MatrixScalar</text>
<text text-anchor="start" x="128.5" y="-533.5" font-family="Helvetica,sans-Serif" font-size="10.00">OperatorPython&lt; TMatrixType,</text>
<text text-anchor="start" x="128.5" y="-522.5" font-family="Helvetica,sans-Serif" font-size="10.00"> TScalarType, TAddResultType,</text>
<text text-anchor="middle" x="197.5" y="-511.5" font-family="Helvetica,sans-Serif" font-size="10.00"> TMultResultType &gt;</text>
</a>
</g>
</g>
<!-- Node112&#45;&gt;Node118 -->
<g id="edge6" class="edge">
<title>Node112&#45;&gt;Node118</title>
<path fill="none" stroke="midnightblue" d="M41.38,-423.21C52.38,-443.42 72.42,-475.29 98,-494.5 104.84,-499.64 112.49,-504.11 120.42,-507.97"/>
<polygon fill="midnightblue" stroke="midnightblue" points="44.34,-421.32 36.59,-414.09 38.14,-424.57 44.34,-421.32"/>
</g>
<!-- Node119 -->
<g id="node8" class="node">
<title>Node119</title>
<g id="a_node8"><a xlink:href="d8/d38/class_kratos_1_1_python_1_1_matrix_vector_operator_python.html" target="_top" xlink:title="Short class definition.">
<polygon fill="none" stroke="black" points="123,-444 123,-485 272,-485 272,-444 123,-444"/>
<text text-anchor="start" x="131" y="-473" font-family="Helvetica,sans-Serif" font-size="10.00">Kratos::Python::MatrixVector</text>
<text text-anchor="start" x="131" y="-462" font-family="Helvetica,sans-Serif" font-size="10.00">OperatorPython&lt; TMatrixType,</text>
<text text-anchor="middle" x="197.5" y="-451" font-family="Helvetica,sans-Serif" font-size="10.00"> TVectorType, TResultType &gt;</text>
</a>
</g>
</g>
<!-- Node112&#45;&gt;Node119 -->
<g id="edge7" class="edge">
<title>Node112&#45;&gt;Node119</title>
<path fill="none" stroke="midnightblue" d="M60.49,-418.44C71.99,-423.8 85.49,-429.77 98,-434.5 106.7,-437.78 115.92,-440.97 125.11,-443.97"/>
<polygon fill="midnightblue" stroke="midnightblue" points="61.89,-415.23 51.35,-414.11 58.89,-421.55 61.89,-415.23"/>
</g>
<!-- Node120 -->
<g id="node9" class="node">
<title>Node120</title>
<g id="a_node9"><a xlink:href="dd/dcf/class_kratos_1_1_python_1_1_solution_step_variable_indexing_python.html" target="_top" xlink:title="Short class definition.">
<polygon fill="none" stroke="black" points="113,-384 113,-425 282,-425 282,-384 113,-384"/>
<text text-anchor="start" x="121" y="-413" font-family="Helvetica,sans-Serif" font-size="10.00">Kratos::Python::Solution</text>
<text text-anchor="start" x="121" y="-402" font-family="Helvetica,sans-Serif" font-size="10.00">StepVariableIndexingPython</text>
<text text-anchor="middle" x="197.5" y="-391" font-family="Helvetica,sans-Serif" font-size="10.00">&lt; TContainerType, TVariableType &gt;</text>
</a>
</g>
</g>
<!-- Node112&#45;&gt;Node120 -->
<g id="edge8" class="edge">
<title>Node112&#45;&gt;Node120</title>
<path fill="none" stroke="midnightblue" d="M72.53,-404.5C84.86,-404.5 98.89,-404.5 112.97,-404.5"/>
<polygon fill="midnightblue" stroke="midnightblue" points="72.17,-401 62.17,-404.5 72.17,-408 72.17,-401"/>
</g>
<!-- Node121 -->
<g id="node10" class="node">
<title>Node121</title>
<g id="a_node10"><a xlink:href="db/d39/class_kratos_1_1_python_1_1_variable_indexing_python.html" target="_top" xlink:title="Short class definition.">
<polygon fill="none" stroke="black" points="116.5,-324 116.5,-365 278.5,-365 278.5,-324 116.5,-324"/>
<text text-anchor="start" x="124.5" y="-353" font-family="Helvetica,sans-Serif" font-size="10.00">Kratos::Python::Variable</text>
<text text-anchor="start" x="124.5" y="-342" font-family="Helvetica,sans-Serif" font-size="10.00">IndexingPython&lt; TContainerType,</text>
<text text-anchor="middle" x="197.5" y="-331" font-family="Helvetica,sans-Serif" font-size="10.00"> TVariableType &gt;</text>
</a>
</g>
</g>
<!-- Node112&#45;&gt;Node121 -->
<g id="edge9" class="edge">
<title>Node112&#45;&gt;Node121</title>
<path fill="none" stroke="midnightblue" d="M60.49,-390.56C71.99,-385.2 85.49,-379.23 98,-374.5 106.7,-371.22 115.92,-368.03 125.11,-365.03"/>
<polygon fill="midnightblue" stroke="midnightblue" points="58.89,-387.45 51.35,-394.89 61.89,-393.77 58.89,-387.45"/>
</g>
<!-- Node122 -->
<g id="node11" class="node">
<title>Node122</title>
<g id="a_node11"><a xlink:href="d1/d85/class_kratos_1_1_python_1_1_vector_scalar_assignment_operator_python.html" target="_top" xlink:title="Short class definition.">
<polygon fill="none" stroke="black" points="117,-264 117,-305 278,-305 278,-264 117,-264"/>
<text text-anchor="start" x="125" y="-293" font-family="Helvetica,sans-Serif" font-size="10.00">Kratos::Python::VectorScalar</text>
<text text-anchor="start" x="125" y="-282" font-family="Helvetica,sans-Serif" font-size="10.00">AssignmentOperatorPython</text>
<text text-anchor="middle" x="197.5" y="-271" font-family="Helvetica,sans-Serif" font-size="10.00">&lt; TContainerType, TScalarType &gt;</text>
</a>
</g>
</g>
<!-- Node112&#45;&gt;Node122 -->
<g id="edge10" class="edge">
<title>Node112&#45;&gt;Node122</title>
<path fill="none" stroke="midnightblue" d="M41.04,-385.8C51.84,-365.37 71.79,-333.09 98,-314.5 103.83,-310.36 110.25,-306.79 116.92,-303.7"/>
<polygon fill="midnightblue" stroke="midnightblue" points="37.89,-384.26 36.48,-394.76 44.13,-387.43 37.89,-384.26"/>
</g>
<!-- Node123 -->
<g id="node12" class="node">
<title>Node123</title>
<g id="a_node12"><a xlink:href="d9/d08/class_kratos_1_1_python_1_1_vector_scalar_operator_python.html" target="_top" xlink:title="Short class definition.">
<polygon fill="none" stroke="black" points="115.5,-204 115.5,-245 279.5,-245 279.5,-204 115.5,-204"/>
<text text-anchor="start" x="123.5" y="-233" font-family="Helvetica,sans-Serif" font-size="10.00">Kratos::Python::VectorScalar</text>
<text text-anchor="start" x="123.5" y="-222" font-family="Helvetica,sans-Serif" font-size="10.00">OperatorPython&lt; TContainerType,</text>
<text text-anchor="middle" x="197.5" y="-211" font-family="Helvetica,sans-Serif" font-size="10.00"> TScalarType, TResultType &gt;</text>
</a>
</g>
</g>
<!-- Node112&#45;&gt;Node123 -->
<g id="edge11" class="edge">
<title>Node112&#45;&gt;Node123</title>
<path fill="none" stroke="midnightblue" d="M35.22,-384.9C41.5,-352.94 58.41,-289.64 98,-254.5 103.21,-249.87 109.13,-245.96 115.4,-242.65"/>
<polygon fill="midnightblue" stroke="midnightblue" points="31.77,-384.34 33.42,-394.8 38.65,-385.59 31.77,-384.34"/>
</g>
<!-- Node124 -->
<g id="node13" class="node">
<title>Node124</title>
<g id="a_node13"><a xlink:href="d9/dab/class_kratos_1_1_python_1_1_vector_vector_assignment_operator_python.html" target="_top" xlink:title="Short class definition.">
<polygon fill="none" stroke="black" points="112.5,-132.5 112.5,-184.5 282.5,-184.5 282.5,-132.5 112.5,-132.5"/>
<text text-anchor="start" x="120.5" y="-172.5" font-family="Helvetica,sans-Serif" font-size="10.00">Kratos::Python::VectorVector</text>
<text text-anchor="start" x="120.5" y="-161.5" font-family="Helvetica,sans-Serif" font-size="10.00">AssignmentOperatorPython</text>
<text text-anchor="start" x="120.5" y="-150.5" font-family="Helvetica,sans-Serif" font-size="10.00">&lt; TContainerType, TOtherContainer</text>
<text text-anchor="middle" x="197.5" y="-139.5" font-family="Helvetica,sans-Serif" font-size="10.00">Type &gt;</text>
</a>
</g>
</g>
<!-- Node112&#45;&gt;Node124 -->
<g id="edge12" class="edge">
<title>Node112&#45;&gt;Node124</title>
<path fill="none" stroke="midnightblue" d="M32.63,-384.56C35,-343.49 46.13,-248.81 98,-194.5 102.28,-190.02 107.15,-186.1 112.4,-182.66"/>
<polygon fill="midnightblue" stroke="midnightblue" points="29.13,-384.49 32.17,-394.64 36.12,-384.81 29.13,-384.49"/>
</g>
<!-- Node125 -->
<g id="node14" class="node">
<title>Node125</title>
<g id="a_node14"><a xlink:href="db/d5f/class_kratos_1_1_python_1_1_vector_vector_operator_python.html" target="_top" xlink:title="Short class definition.">
<polygon fill="none" stroke="black" points="108,-72 108,-113 287,-113 287,-72 108,-72"/>
<text text-anchor="start" x="116" y="-101" font-family="Helvetica,sans-Serif" font-size="10.00">Kratos::Python::VectorVector</text>
<text text-anchor="start" x="116" y="-90" font-family="Helvetica,sans-Serif" font-size="10.00">OperatorPython&lt; TContainerType,</text>
<text text-anchor="middle" x="197.5" y="-79" font-family="Helvetica,sans-Serif" font-size="10.00"> TOtherContainerType, TResultType &gt;</text>
</a>
</g>
</g>
<!-- Node112&#45;&gt;Node125 -->
<g id="edge13" class="edge">
<title>Node112&#45;&gt;Node125</title>
<path fill="none" stroke="midnightblue" d="M34.11,-384.69C40.62,-327.23 62.11,-162.15 98,-123.5 101.66,-119.56 105.81,-116.12 110.3,-113.11"/>
<polygon fill="midnightblue" stroke="midnightblue" points="30.6,-384.63 32.98,-394.95 37.56,-385.4 30.6,-384.63"/>
</g>
<!-- Node126 -->
<g id="node15" class="node">
<title>Node126</title>
<g id="a_node15"><a xlink:href="d6/d4c/classboost_1_1python_1_1pointer__indexing__suite.html" target="_top" xlink:title=" ">
<polygon fill="none" stroke="black" points="129,-0.5 129,-52.5 266,-52.5 266,-0.5 129,-0.5"/>
<text text-anchor="start" x="137" y="-40.5" font-family="Helvetica,sans-Serif" font-size="10.00">boost::python::pointer</text>
<text text-anchor="start" x="137" y="-29.5" font-family="Helvetica,sans-Serif" font-size="10.00">_indexing_suite&lt; Container,</text>
<text text-anchor="start" x="137" y="-18.5" font-family="Helvetica,sans-Serif" font-size="10.00"> DerivedPolicies, NoProxy,</text>
<text text-anchor="middle" x="197.5" y="-7.5" font-family="Helvetica,sans-Serif" font-size="10.00"> NoSlice, Data, Index, Key &gt;</text>
</a>
</g>
</g>
<!-- Node112&#45;&gt;Node126 -->
<g id="edge14" class="edge">
<title>Node112&#45;&gt;Node126</title>
<path fill="none" stroke="midnightblue" d="M33.32,-384.45C38.01,-318.83 55.92,-111.9 98,-62.5 106.21,-52.87 117.21,-45.81 128.9,-40.64"/>
<polygon fill="midnightblue" stroke="midnightblue" points="29.81,-384.46 32.61,-394.67 36.79,-384.94 29.81,-384.46"/>
</g>
<!-- Node1 -->
<g id="node3" class="node">
<title>Node1</title>
<g id="a_node3"><a xlink:href="d5/d72/class_kratos_1_1_python_1_1_pointer_vector_set_python_interface.html" target="_top" xlink:title="A sequence converter from python.">
<polygon fill="none" stroke="black" points="333,-777.5 333,-807.5 518,-807.5 518,-777.5 333,-777.5"/>
<text text-anchor="start" x="341" y="-795.5" font-family="Helvetica,sans-Serif" font-size="10.00">Kratos::Python::PointerVector</text>
<text text-anchor="middle" x="425.5" y="-784.5" font-family="Helvetica,sans-Serif" font-size="10.00">SetPythonInterface&lt; TContainerType &gt;</text>
</a>
</g>
</g>
<!-- Node0&#45;&gt;Node1 -->
<g id="edge2" class="edge">
<title>Node0&#45;&gt;Node1</title>
<path fill="none" stroke="midnightblue" d="M304.77,-792.5C314.11,-792.5 323.52,-792.5 332.73,-792.5"/>
<polygon fill="midnightblue" stroke="midnightblue" points="304.67,-789 294.67,-792.5 304.67,-796 304.67,-789"/>
</g>
</g>
</svg>
