<?xml version="1.0" encoding="UTF-8" standalone="no"?>
<!DOCTYPE svg PUBLIC "-//W3C//DTD SVG 1.1//EN"
 "http://www.w3.org/Graphics/SVG/1.1/DTD/svg11.dtd">
<!-- Generated by graphviz version 2.48.0 (20210719.0153)
 -->
<!-- Title: Graphical Class Hierarchy Pages: 1 -->
<svg width="469pt" height="1014pt"
 viewBox="0.00 0.00 469.00 1014.00" xmlns="http://www.w3.org/2000/svg" xmlns:xlink="http://www.w3.org/1999/xlink">
<g id="graph0" class="graph" transform="scale(1 1) rotate(0) translate(4 1010)">
<title>Graphical Class Hierarchy</title>
<!-- Node0 -->
<g id="node1" class="node">
<title>Node0</title>
<g id="a_node1"><a xlink:href="de/d83/class_kratos_1_1_pointer_vector.html" target="_top" xlink:title=" ">
<polygon fill="none" stroke="black" points="0,-514.5 0,-544.5 109,-544.5 109,-514.5 0,-514.5"/>
<text text-anchor="start" x="8" y="-532.5" font-family="Helvetica,sans-Serif" font-size="10.00">Kratos::PointerVector</text>
<text text-anchor="middle" x="54.5" y="-521.5" font-family="Helvetica,sans-Serif" font-size="10.00">&lt; TPointType &gt;</text>
</a>
</g>
</g>
<!-- Node1 -->
<g id="node2" class="node">
<title>Node1</title>
<g id="a_node2"><a xlink:href="dc/dea/class_kratos_1_1_geometry.html" target="_top" xlink:title="Geometry base class.">
<polygon fill="none" stroke="black" points="145,-514.5 145,-544.5 273,-544.5 273,-514.5 145,-514.5"/>
<text text-anchor="start" x="153" y="-532.5" font-family="Helvetica,sans-Serif" font-size="10.00">Kratos::Geometry&lt; TPoint</text>
<text text-anchor="middle" x="209" y="-521.5" font-family="Helvetica,sans-Serif" font-size="10.00">Type &gt;</text>
</a>
</g>
</g>
<!-- Node0&#45;&gt;Node1 -->
<g id="edge1" class="edge">
<title>Node0&#45;&gt;Node1</title>
<path fill="none" stroke="midnightblue" d="M119.39,-529.5C127.8,-529.5 136.41,-529.5 144.8,-529.5"/>
<polygon fill="midnightblue" stroke="midnightblue" points="119.27,-526 109.27,-529.5 119.27,-533 119.27,-526"/>
</g>
<!-- Node2 -->
<g id="node3" class="node">
<title>Node2</title>
<g id="a_node3"><a xlink:href="df/d8b/class_kratos_1_1_hexahedra3_d20.html" target="_top" xlink:title=" ">
<polygon fill="none" stroke="black" points="325.5,-975.5 325.5,-1005.5 444.5,-1005.5 444.5,-975.5 325.5,-975.5"/>
<text text-anchor="start" x="333.5" y="-993.5" font-family="Helvetica,sans-Serif" font-size="10.00">Kratos::Hexahedra3D20</text>
<text text-anchor="middle" x="385" y="-982.5" font-family="Helvetica,sans-Serif" font-size="10.00">&lt; TPointType &gt;</text>
</a>
</g>
</g>
<!-- Node1&#45;&gt;Node2 -->
<g id="edge2" class="edge">
<title>Node1&#45;&gt;Node2</title>
<path fill="none" stroke="midnightblue" d="M212.47,-554.96C221.11,-638.88 252.53,-904.9 309,-966.5 313.62,-971.54 319.29,-975.53 325.44,-978.68"/>
<polygon fill="midnightblue" stroke="midnightblue" points="215.93,-554.4 211.45,-544.8 208.97,-555.1 215.93,-554.4"/>
</g>
<!-- Node3 -->
<g id="node4" class="node">
<title>Node3</title>
<g id="a_node4"><a xlink:href="d1/d5e/class_kratos_1_1_hexahedra3_d27.html" target="_top" xlink:title=" ">
<polygon fill="none" stroke="black" points="325.5,-926.5 325.5,-956.5 444.5,-956.5 444.5,-926.5 325.5,-926.5"/>
<text text-anchor="start" x="333.5" y="-944.5" font-family="Helvetica,sans-Serif" font-size="10.00">Kratos::Hexahedra3D27</text>
<text text-anchor="middle" x="385" y="-933.5" font-family="Helvetica,sans-Serif" font-size="10.00">&lt; TPointType &gt;</text>
</a>
</g>
</g>
<!-- Node1&#45;&gt;Node3 -->
<g id="edge3" class="edge">
<title>Node1&#45;&gt;Node3</title>
<path fill="none" stroke="midnightblue" d="M213.28,-555.11C223.72,-632.82 258.46,-863.84 309,-917.5 313.59,-922.38 319.18,-926.27 325.2,-929.37"/>
<polygon fill="midnightblue" stroke="midnightblue" points="216.7,-554.26 211.92,-544.8 209.76,-555.17 216.7,-554.26"/>
</g>
<!-- Node4 -->
<g id="node5" class="node">
<title>Node4</title>
<g id="a_node5"><a xlink:href="d9/daa/class_kratos_1_1_hexahedra3_d8.html" target="_top" xlink:title=" ">
<polygon fill="none" stroke="black" points="328.5,-877.5 328.5,-907.5 441.5,-907.5 441.5,-877.5 328.5,-877.5"/>
<text text-anchor="start" x="336.5" y="-895.5" font-family="Helvetica,sans-Serif" font-size="10.00">Kratos::Hexahedra3D8</text>
<text text-anchor="middle" x="385" y="-884.5" font-family="Helvetica,sans-Serif" font-size="10.00">&lt; TPointType &gt;</text>
</a>
</g>
</g>
<!-- Node1&#45;&gt;Node4 -->
<g id="edge4" class="edge">
<title>Node1&#45;&gt;Node4</title>
<path fill="none" stroke="midnightblue" d="M209.88,-554.77C210.99,-616.75 222.54,-777.79 309,-867.5 314.43,-873.13 321.16,-877.5 328.34,-880.88"/>
<polygon fill="midnightblue" stroke="midnightblue" points="213.38,-554.68 209.78,-544.71 206.38,-554.75 213.38,-554.68"/>
</g>
<!-- Node5 -->
<g id="node6" class="node">
<title>Node5</title>
<g id="a_node6"><a xlink:href="d3/dbf/class_kratos_1_1_line2_d.html" target="_top" xlink:title=" ">
<polygon fill="none" stroke="black" points="312,-839 312,-858 458,-858 458,-839 312,-839"/>
<text text-anchor="middle" x="385" y="-846" font-family="Helvetica,sans-Serif" font-size="10.00">Kratos::Line2D&lt; TPointType &gt;</text>
</a>
</g>
</g>
<!-- Node1&#45;&gt;Node5 -->
<g id="edge5" class="edge">
<title>Node1&#45;&gt;Node5</title>
<path fill="none" stroke="midnightblue" d="M210.57,-554.65C213.31,-612.21 228.33,-754.33 309,-829.5 313.13,-833.35 317.92,-836.44 323.05,-838.93"/>
<polygon fill="midnightblue" stroke="midnightblue" points="214.07,-554.47 210.19,-544.61 207.08,-554.74 214.07,-554.47"/>
</g>
<!-- Node6 -->
<g id="node7" class="node">
<title>Node6</title>
<g id="a_node7"><a xlink:href="db/d1c/class_kratos_1_1_line2_d2.html" target="_top" xlink:title=" ">
<polygon fill="none" stroke="black" points="309,-801 309,-820 461,-820 461,-801 309,-801"/>
<text text-anchor="middle" x="385" y="-808" font-family="Helvetica,sans-Serif" font-size="10.00">Kratos::Line2D2&lt; TPointType &gt;</text>
</a>
</g>
</g>
<!-- Node1&#45;&gt;Node6 -->
<g id="edge6" class="edge">
<title>Node1&#45;&gt;Node6</title>
<path fill="none" stroke="midnightblue" d="M211.97,-554.68C217.44,-606.96 237.55,-727.71 309,-791.5 313.31,-795.35 318.29,-798.44 323.59,-800.92"/>
<polygon fill="midnightblue" stroke="midnightblue" points="215.44,-554.23 211.01,-544.61 208.47,-554.89 215.44,-554.23"/>
</g>
<!-- Node7 -->
<g id="node8" class="node">
<title>Node7</title>
<g id="a_node8"><a xlink:href="de/db4/class_kratos_1_1_line2_d3.html" target="_top" xlink:title=" ">
<polygon fill="none" stroke="black" points="309,-763 309,-782 461,-782 461,-763 309,-763"/>
<text text-anchor="middle" x="385" y="-770" font-family="Helvetica,sans-Serif" font-size="10.00">Kratos::Line2D3&lt; TPointType &gt;</text>
</a>
</g>
</g>
<!-- Node1&#45;&gt;Node7 -->
<g id="edge7" class="edge">
<title>Node1&#45;&gt;Node7</title>
<path fill="none" stroke="midnightblue" d="M213.82,-554.89C222.22,-601.54 246.75,-700.92 309,-753.5 313.52,-757.31 318.69,-760.38 324.17,-762.84"/>
<polygon fill="midnightblue" stroke="midnightblue" points="217.22,-554.01 212.1,-544.74 210.32,-555.18 217.22,-554.01"/>
</g>
<!-- Node8 -->
<g id="node9" class="node">
<title>Node8</title>
<g id="a_node9"><a xlink:href="d2/dbf/class_kratos_1_1_line3_d2.html" target="_top" xlink:title=" ">
<polygon fill="none" stroke="black" points="309,-725 309,-744 461,-744 461,-725 309,-725"/>
<text text-anchor="middle" x="385" y="-732" font-family="Helvetica,sans-Serif" font-size="10.00">Kratos::Line3D2&lt; TPointType &gt;</text>
</a>
</g>
</g>
<!-- Node1&#45;&gt;Node8 -->
<g id="edge8" class="edge">
<title>Node1&#45;&gt;Node8</title>
<path fill="none" stroke="midnightblue" d="M216.25,-554.57C227.63,-594.84 255.62,-673.65 309,-715.5 313.97,-719.4 319.64,-722.5 325.59,-724.97"/>
<polygon fill="midnightblue" stroke="midnightblue" points="219.59,-553.49 213.59,-544.75 212.83,-555.32 219.59,-553.49"/>
</g>
<!-- Node9 -->
<g id="node10" class="node">
<title>Node9</title>
<g id="a_node10"><a xlink:href="de/daa/class_kratos_1_1_line3_d3.html" target="_top" xlink:title=" ">
<polygon fill="none" stroke="black" points="309,-687 309,-706 461,-706 461,-687 309,-687"/>
<text text-anchor="middle" x="385" y="-694" font-family="Helvetica,sans-Serif" font-size="10.00">Kratos::Line3D3&lt; TPointType &gt;</text>
</a>
</g>
</g>
<!-- Node1&#45;&gt;Node9 -->
<g id="edge9" class="edge">
<title>Node1&#45;&gt;Node9</title>
<path fill="none" stroke="midnightblue" d="M219.76,-554.23C234.18,-587.46 264.37,-646 309,-677.5 314.49,-681.37 320.69,-684.46 327.12,-686.92"/>
<polygon fill="midnightblue" stroke="midnightblue" points="222.9,-552.65 215.8,-544.78 216.44,-555.36 222.9,-552.65"/>
</g>
<!-- Node10 -->
<g id="node11" class="node">
<title>Node10</title>
<g id="a_node11"><a xlink:href="d7/d15/class_kratos_1_1_prism3_d15.html" target="_top" xlink:title=" ">
<polygon fill="none" stroke="black" points="333,-637.5 333,-667.5 437,-667.5 437,-637.5 333,-637.5"/>
<text text-anchor="start" x="341" y="-655.5" font-family="Helvetica,sans-Serif" font-size="10.00">Kratos::Prism3D15&lt;</text>
<text text-anchor="middle" x="385" y="-644.5" font-family="Helvetica,sans-Serif" font-size="10.00"> TPointType &gt;</text>
</a>
</g>
</g>
<!-- Node1&#45;&gt;Node10 -->
<g id="edge10" class="edge">
<title>Node1&#45;&gt;Node10</title>
<path fill="none" stroke="midnightblue" d="M227.75,-552.82C245.91,-575.18 276.06,-608.42 309,-628.5 316.35,-632.98 324.63,-636.71 332.93,-639.79"/>
<polygon fill="midnightblue" stroke="midnightblue" points="230.36,-550.48 221.4,-544.83 224.89,-554.84 230.36,-550.48"/>
</g>
<!-- Node11 -->
<g id="node12" class="node">
<title>Node11</title>
<g id="a_node12"><a xlink:href="da/d74/class_kratos_1_1_prism3_d6.html" target="_top" xlink:title=" ">
<polygon fill="none" stroke="black" points="320.5,-588.5 320.5,-618.5 449.5,-618.5 449.5,-588.5 320.5,-588.5"/>
<text text-anchor="start" x="328.5" y="-606.5" font-family="Helvetica,sans-Serif" font-size="10.00">Kratos::Prism3D6&lt; TPoint</text>
<text text-anchor="middle" x="385" y="-595.5" font-family="Helvetica,sans-Serif" font-size="10.00">Type &gt;</text>
</a>
</g>
</g>
<!-- Node1&#45;&gt;Node11 -->
<g id="edge11" class="edge">
<title>Node1&#45;&gt;Node11</title>
<path fill="none" stroke="midnightblue" d="M246.14,-549.48C264.62,-559.25 287.66,-570.76 309,-579.5 316.72,-582.66 325.02,-585.68 333.18,-588.44"/>
<polygon fill="midnightblue" stroke="midnightblue" points="247.66,-546.33 237.19,-544.7 244.36,-552.5 247.66,-546.33"/>
</g>
<!-- Node12 -->
<g id="node13" class="node">
<title>Node12</title>
<g id="a_node13"><a xlink:href="d4/d85/class_kratos_1_1_quadrilateral2_d4.html" target="_top" xlink:title=" ">
<polygon fill="none" stroke="black" points="324,-539.5 324,-569.5 446,-569.5 446,-539.5 324,-539.5"/>
<text text-anchor="start" x="332" y="-557.5" font-family="Helvetica,sans-Serif" font-size="10.00">Kratos::Quadrilateral2D4</text>
<text text-anchor="middle" x="385" y="-546.5" font-family="Helvetica,sans-Serif" font-size="10.00">&lt; TPointType &gt;</text>
</a>
</g>
</g>
<!-- Node1&#45;&gt;Node12 -->
<g id="edge12" class="edge">
<title>Node1&#45;&gt;Node12</title>
<path fill="none" stroke="midnightblue" d="M283.51,-540.06C296.98,-542 310.9,-544 323.93,-545.87"/>
<polygon fill="midnightblue" stroke="midnightblue" points="283.71,-536.55 273.31,-538.6 282.71,-543.48 283.71,-536.55"/>
</g>
<!-- Node13 -->
<g id="node14" class="node">
<title>Node13</title>
<g id="a_node14"><a xlink:href="d1/d17/class_kratos_1_1_quadrilateral2_d8.html" target="_top" xlink:title=" ">
<polygon fill="none" stroke="black" points="324,-490.5 324,-520.5 446,-520.5 446,-490.5 324,-490.5"/>
<text text-anchor="start" x="332" y="-508.5" font-family="Helvetica,sans-Serif" font-size="10.00">Kratos::Quadrilateral2D8</text>
<text text-anchor="middle" x="385" y="-497.5" font-family="Helvetica,sans-Serif" font-size="10.00">&lt; TPointType &gt;</text>
</a>
</g>
</g>
<!-- Node1&#45;&gt;Node13 -->
<g id="edge13" class="edge">
<title>Node1&#45;&gt;Node13</title>
<path fill="none" stroke="midnightblue" d="M283.51,-519.36C296.98,-517.5 310.9,-515.58 323.93,-513.79"/>
<polygon fill="midnightblue" stroke="midnightblue" points="282.74,-515.93 273.31,-520.77 283.69,-522.87 282.74,-515.93"/>
</g>
<!-- Node14 -->
<g id="node15" class="node">
<title>Node14</title>
<g id="a_node15"><a xlink:href="d8/df8/class_kratos_1_1_quadrilateral2_d9.html" target="_top" xlink:title=" ">
<polygon fill="none" stroke="black" points="324,-441.5 324,-471.5 446,-471.5 446,-441.5 324,-441.5"/>
<text text-anchor="start" x="332" y="-459.5" font-family="Helvetica,sans-Serif" font-size="10.00">Kratos::Quadrilateral2D9</text>
<text text-anchor="middle" x="385" y="-448.5" font-family="Helvetica,sans-Serif" font-size="10.00">&lt; TPointType &gt;</text>
</a>
</g>
</g>
<!-- Node1&#45;&gt;Node14 -->
<g id="edge14" class="edge">
<title>Node1&#45;&gt;Node14</title>
<path fill="none" stroke="midnightblue" d="M247.72,-509.79C265.97,-500.61 288.36,-489.9 309,-481.5 317.52,-478.03 326.71,-474.67 335.65,-471.59"/>
<polygon fill="midnightblue" stroke="midnightblue" points="245.91,-506.78 238.58,-514.42 249.08,-513.02 245.91,-506.78"/>
</g>
<!-- Node15 -->
<g id="node16" class="node">
<title>Node15</title>
<g id="a_node16"><a xlink:href="d7/d68/class_kratos_1_1_quadrilateral3_d4.html" target="_top" xlink:title=" ">
<polygon fill="none" stroke="black" points="324,-392.5 324,-422.5 446,-422.5 446,-392.5 324,-392.5"/>
<text text-anchor="start" x="332" y="-410.5" font-family="Helvetica,sans-Serif" font-size="10.00">Kratos::Quadrilateral3D4</text>
<text text-anchor="middle" x="385" y="-399.5" font-family="Helvetica,sans-Serif" font-size="10.00">&lt; TPointType &gt;</text>
</a>
</g>
</g>
<!-- Node1&#45;&gt;Node15 -->
<g id="edge15" class="edge">
<title>Node1&#45;&gt;Node15</title>
<path fill="none" stroke="midnightblue" d="M228.21,-506.39C246.51,-484.56 276.59,-452.3 309,-432.5 315.21,-428.71 322.06,-425.41 329.02,-422.57"/>
<polygon fill="midnightblue" stroke="midnightblue" points="225.44,-504.24 221.79,-514.19 230.85,-508.69 225.44,-504.24"/>
</g>
<!-- Node16 -->
<g id="node17" class="node">
<title>Node16</title>
<g id="a_node17"><a xlink:href="db/dec/class_kratos_1_1_quadrilateral3_d8.html" target="_top" xlink:title=" ">
<polygon fill="none" stroke="black" points="324,-343.5 324,-373.5 446,-373.5 446,-343.5 324,-343.5"/>
<text text-anchor="start" x="332" y="-361.5" font-family="Helvetica,sans-Serif" font-size="10.00">Kratos::Quadrilateral3D8</text>
<text text-anchor="middle" x="385" y="-350.5" font-family="Helvetica,sans-Serif" font-size="10.00">&lt; TPointType &gt;</text>
</a>
</g>
</g>
<!-- Node1&#45;&gt;Node16 -->
<g id="edge16" class="edge">
<title>Node1&#45;&gt;Node16</title>
<path fill="none" stroke="midnightblue" d="M220.42,-505.07C235.42,-472.73 266.08,-416.01 309,-383.5 314.03,-379.69 319.68,-376.44 325.55,-373.67"/>
<polygon fill="midnightblue" stroke="midnightblue" points="217.19,-503.72 216.27,-514.27 223.58,-506.59 217.19,-503.72"/>
</g>
<!-- Node17 -->
<g id="node18" class="node">
<title>Node17</title>
<g id="a_node18"><a xlink:href="d2/d00/class_kratos_1_1_quadrilateral3_d9.html" target="_top" xlink:title=" ">
<polygon fill="none" stroke="black" points="324,-294.5 324,-324.5 446,-324.5 446,-294.5 324,-294.5"/>
<text text-anchor="start" x="332" y="-312.5" font-family="Helvetica,sans-Serif" font-size="10.00">Kratos::Quadrilateral3D9</text>
<text text-anchor="middle" x="385" y="-301.5" font-family="Helvetica,sans-Serif" font-size="10.00">&lt; TPointType &gt;</text>
</a>
</g>
</g>
<!-- Node1&#45;&gt;Node17 -->
<g id="edge17" class="edge">
<title>Node1&#45;&gt;Node17</title>
<path fill="none" stroke="midnightblue" d="M216.02,-504.57C227.26,-463.31 255.29,-380.79 309,-334.5 313.47,-330.65 318.56,-327.38 323.92,-324.62"/>
<polygon fill="midnightblue" stroke="midnightblue" points="212.61,-503.8 213.47,-514.36 219.38,-505.57 212.61,-503.8"/>
</g>
<!-- Node18 -->
<g id="node19" class="node">
<title>Node18</title>
<g id="a_node19"><a xlink:href="db/d88/class_kratos_1_1_tetrahedra3_d10.html" target="_top" xlink:title=" ">
<polygon fill="none" stroke="black" points="325.5,-245.5 325.5,-275.5 444.5,-275.5 444.5,-245.5 325.5,-245.5"/>
<text text-anchor="start" x="333.5" y="-263.5" font-family="Helvetica,sans-Serif" font-size="10.00">Kratos::Tetrahedra3D10</text>
<text text-anchor="middle" x="385" y="-252.5" font-family="Helvetica,sans-Serif" font-size="10.00">&lt; TPointType &gt;</text>
</a>
</g>
</g>
<!-- Node1&#45;&gt;Node18 -->
<g id="edge18" class="edge">
<title>Node1&#45;&gt;Node18</title>
<path fill="none" stroke="midnightblue" d="M213.19,-504.41C220.74,-455.36 244.22,-346.28 309,-285.5 313.8,-280.99 319.44,-277.3 325.44,-274.27"/>
<polygon fill="midnightblue" stroke="midnightblue" points="209.71,-504.06 211.74,-514.46 216.63,-505.06 209.71,-504.06"/>
</g>
<!-- Node19 -->
<g id="node20" class="node">
<title>Node19</title>
<g id="a_node20"><a xlink:href="df/df1/class_kratos_1_1_tetrahedra3_d4.html" target="_top" xlink:title=" ">
<polygon fill="none" stroke="black" points="328.5,-196.5 328.5,-226.5 441.5,-226.5 441.5,-196.5 328.5,-196.5"/>
<text text-anchor="start" x="336.5" y="-214.5" font-family="Helvetica,sans-Serif" font-size="10.00">Kratos::Tetrahedra3D4</text>
<text text-anchor="middle" x="385" y="-203.5" font-family="Helvetica,sans-Serif" font-size="10.00">&lt; TPointType &gt;</text>
</a>
</g>
</g>
<!-- Node1&#45;&gt;Node19 -->
<g id="edge19" class="edge">
<title>Node1&#45;&gt;Node19</title>
<path fill="none" stroke="midnightblue" d="M211.24,-504.19C215.34,-448.06 233.03,-312.16 309,-236.5 314.45,-231.08 321.1,-226.83 328.17,-223.5"/>
<polygon fill="midnightblue" stroke="midnightblue" points="207.73,-504.1 210.58,-514.31 214.72,-504.55 207.73,-504.1"/>
</g>
<!-- Node20 -->
<g id="node21" class="node">
<title>Node20</title>
<g id="a_node21"><a xlink:href="d4/d5d/class_kratos_1_1_triangle2_d3.html" target="_top" xlink:title=" ">
<polygon fill="none" stroke="black" points="334.5,-147.5 334.5,-177.5 435.5,-177.5 435.5,-147.5 334.5,-147.5"/>
<text text-anchor="start" x="342.5" y="-165.5" font-family="Helvetica,sans-Serif" font-size="10.00">Kratos::Triangle2D3</text>
<text text-anchor="middle" x="385" y="-154.5" font-family="Helvetica,sans-Serif" font-size="10.00">&lt; TPointType &gt;</text>
</a>
</g>
</g>
<!-- Node1&#45;&gt;Node20 -->
<g id="edge20" class="edge">
<title>Node1&#45;&gt;Node20</title>
<path fill="none" stroke="midnightblue" d="M209.78,-504.37C210.62,-441.99 221.53,-278.53 309,-187.5 315.94,-180.28 325.02,-175.14 334.46,-171.48"/>
<polygon fill="midnightblue" stroke="midnightblue" points="206.28,-504.46 209.72,-514.48 213.28,-504.5 206.28,-504.46"/>
</g>
<!-- Node21 -->
<g id="node22" class="node">
<title>Node21</title>
<g id="a_node22"><a xlink:href="dc/d82/class_kratos_1_1_triangle2_d6.html" target="_top" xlink:title=" ">
<polygon fill="none" stroke="black" points="334.5,-98.5 334.5,-128.5 435.5,-128.5 435.5,-98.5 334.5,-98.5"/>
<text text-anchor="start" x="342.5" y="-116.5" font-family="Helvetica,sans-Serif" font-size="10.00">Kratos::Triangle2D6</text>
<text text-anchor="middle" x="385" y="-105.5" font-family="Helvetica,sans-Serif" font-size="10.00">&lt; TPointType &gt;</text>
</a>
</g>
</g>
<!-- Node1&#45;&gt;Node21 -->
<g id="edge21" class="edge">
<title>Node1&#45;&gt;Node21</title>
<path fill="none" stroke="midnightblue" d="M213.28,-503.72C223.72,-425.49 258.47,-192.9 309,-138.5 315.82,-131.16 324.85,-125.97 334.27,-122.31"/>
<polygon fill="midnightblue" stroke="midnightblue" points="209.75,-503.73 211.92,-514.1 216.69,-504.64 209.75,-503.73"/>
</g>
<!-- Node22 -->
<g id="node23" class="node">
<title>Node22</title>
<g id="a_node23"><a xlink:href="de/d3e/class_kratos_1_1_triangle3_d3.html" target="_top" xlink:title=" ">
<polygon fill="none" stroke="black" points="334.5,-49.5 334.5,-79.5 435.5,-79.5 435.5,-49.5 334.5,-49.5"/>
<text text-anchor="start" x="342.5" y="-67.5" font-family="Helvetica,sans-Serif" font-size="10.00">Kratos::Triangle3D3</text>
<text text-anchor="middle" x="385" y="-56.5" font-family="Helvetica,sans-Serif" font-size="10.00">&lt; TPointType &gt;</text>
</a>
</g>
</g>
<!-- Node1&#45;&gt;Node22 -->
<g id="edge22" class="edge">
<title>Node1&#45;&gt;Node22</title>
<path fill="none" stroke="midnightblue" d="M212.45,-504.15C221.07,-420.03 252.53,-151.95 309,-89.5 315.72,-82.07 324.71,-76.84 334.12,-73.17"/>
<polygon fill="midnightblue" stroke="midnightblue" points="208.97,-503.82 211.45,-514.11 215.93,-504.51 208.97,-503.82"/>
</g>
<!-- Node23 -->
<g id="node24" class="node">
<title>Node23</title>
<g id="a_node24"><a xlink:href="dc/d53/class_kratos_1_1_triangle3_d6.html" target="_top" xlink:title=" ">
<polygon fill="none" stroke="black" points="334.5,-0.5 334.5,-30.5 435.5,-30.5 435.5,-0.5 334.5,-0.5"/>
<text text-anchor="start" x="342.5" y="-18.5" font-family="Helvetica,sans-Serif" font-size="10.00">Kratos::Triangle3D6</text>
<text text-anchor="middle" x="385" y="-7.5" font-family="Helvetica,sans-Serif" font-size="10.00">&lt; TPointType &gt;</text>
</a>
</g>
</g>
<!-- Node1&#45;&gt;Node23 -->
<g id="edge23" class="edge">
<title>Node1&#45;&gt;Node23</title>
<path fill="none" stroke="midnightblue" d="M211.81,-504.35C218.78,-414.5 246.6,-111.02 309,-40.5 315.73,-32.89 324.84,-27.6 334.38,-23.91"/>
<polygon fill="midnightblue" stroke="midnightblue" points="208.32,-504.21 211.05,-514.44 215.3,-504.74 208.32,-504.21"/>
</g>
</g>
</svg>
