<?xml version="1.0" encoding="UTF-8" standalone="no"?>
<!DOCTYPE svg PUBLIC "-//W3C//DTD SVG 1.1//EN"
 "http://www.w3.org/Graphics/SVG/1.1/DTD/svg11.dtd">
<!-- Generated by graphviz version 2.48.0 (20210719.0153)
 -->
<!-- Title: Graphical Class Hierarchy Pages: 1 -->
<svg width="333pt" height="542pt"
 viewBox="0.00 0.00 333.00 542.00" xmlns="http://www.w3.org/2000/svg" xmlns:xlink="http://www.w3.org/1999/xlink">
<g id="graph0" class="graph" transform="scale(1 1) rotate(0) translate(4 538)">
<title>Graphical Class Hierarchy</title>
<!-- Node0 -->
<g id="node1" class="node">
<title>Node0</title>
<g id="a_node1"><a xlink:href="d9/d33/class_kratos_1_1_kratos_application.html" target="_top" xlink:title="Short class definition.">
<polygon fill="none" stroke="black" points="0,-240.5 0,-259.5 126,-259.5 126,-240.5 0,-240.5"/>
<text text-anchor="middle" x="63" y="-247.5" font-family="Helvetica,sans-Serif" font-size="10.00">Kratos::KratosApplication</text>
</a>
</g>
</g>
<!-- Node1 -->
<g id="node2" class="node">
<title>Node1</title>
<g id="a_node2"><a xlink:href="d1/df2/class_kratos_1_1_kratos_a_l_e_application.html" target="_top" xlink:title="Short class definition.">
<polygon fill="none" stroke="black" points="171,-514.5 171,-533.5 316,-533.5 316,-514.5 171,-514.5"/>
<text text-anchor="middle" x="243.5" y="-521.5" font-family="Helvetica,sans-Serif" font-size="10.00">Kratos::KratosALEApplication</text>
</a>
</g>
</g>
<!-- Node0&#45;&gt;Node1 -->
<g id="edge1" class="edge">
<title>Node0&#45;&gt;Node1</title>
<path fill="none" stroke="midnightblue" d="M65.49,-269.64C70.22,-317.62 89.24,-441.46 162,-505 166.33,-508.78 171.27,-511.84 176.52,-514.32"/>
<polygon fill="midnightblue" stroke="midnightblue" points="68.97,-269.29 64.61,-259.64 62,-269.91 68.97,-269.29"/>
</g>
<!-- Node2 -->
<g id="node3" class="node">
<title>Node2</title>
<g id="a_node3"><a xlink:href="da/d8c/class_kratos_1_1_kratos_convection_diffusion_application.html" target="_top" xlink:title="Short class definition.">
<polygon fill="none" stroke="black" points="180,-465 180,-495 307,-495 307,-465 180,-465"/>
<text text-anchor="start" x="188" y="-483" font-family="Helvetica,sans-Serif" font-size="10.00">Kratos::KratosConvection</text>
<text text-anchor="middle" x="243.5" y="-472" font-family="Helvetica,sans-Serif" font-size="10.00">DiffusionApplication</text>
</a>
</g>
</g>
<!-- Node0&#45;&gt;Node2 -->
<g id="edge2" class="edge">
<title>Node0&#45;&gt;Node2</title>
<path fill="none" stroke="midnightblue" d="M67.78,-269.73C76.67,-310.67 102.76,-405.26 162,-456 167.32,-460.55 173.47,-464.24 179.96,-467.23"/>
<polygon fill="midnightblue" stroke="midnightblue" points="71.2,-268.99 65.76,-259.9 64.35,-270.4 71.2,-268.99"/>
</g>
<!-- Node3 -->
<g id="node4" class="node">
<title>Node3</title>
<g id="a_node4"><a xlink:href="da/db1/class_kratos_1_1_kratos_external_solvers_application.html" target="_top" xlink:title="Short class definition.">
<polygon fill="none" stroke="black" points="170.5,-416 170.5,-446 316.5,-446 316.5,-416 170.5,-416"/>
<text text-anchor="start" x="178.5" y="-434" font-family="Helvetica,sans-Serif" font-size="10.00">Kratos::KratosExternalSolvers</text>
<text text-anchor="middle" x="243.5" y="-423" font-family="Helvetica,sans-Serif" font-size="10.00">Application</text>
</a>
</g>
</g>
<!-- Node0&#45;&gt;Node3 -->
<g id="edge3" class="edge">
<title>Node0&#45;&gt;Node3</title>
<path fill="none" stroke="midnightblue" d="M70.86,-269.11C83.63,-301.98 114.18,-369.23 162,-406 166.99,-409.84 172.57,-413.09 178.41,-415.85"/>
<polygon fill="midnightblue" stroke="midnightblue" points="74.13,-267.86 67.34,-259.72 67.58,-270.32 74.13,-267.86"/>
</g>
<!-- Node4 -->
<g id="node5" class="node">
<title>Node4</title>
<g id="a_node5"><a xlink:href="db/d07/class_kratos_1_1_kratos_f_s_i_application.html" target="_top" xlink:title=" ">
<polygon fill="none" stroke="black" points="172.5,-377.5 172.5,-396.5 314.5,-396.5 314.5,-377.5 172.5,-377.5"/>
<text text-anchor="middle" x="243.5" y="-384.5" font-family="Helvetica,sans-Serif" font-size="10.00">Kratos::KratosFSIApplication</text>
</a>
</g>
</g>
<!-- Node0&#45;&gt;Node4 -->
<g id="edge4" class="edge">
<title>Node0&#45;&gt;Node4</title>
<path fill="none" stroke="midnightblue" d="M74.24,-268.74C89.67,-295.14 121.45,-342.88 162,-368 168.23,-371.86 175.16,-374.93 182.29,-377.38"/>
<polygon fill="midnightblue" stroke="midnightblue" points="77.12,-266.72 69.14,-259.75 71.03,-270.18 77.12,-266.72"/>
</g>
<!-- Node5 -->
<g id="node6" class="node">
<title>Node5</title>
<g id="a_node6"><a xlink:href="d3/da7/class_kratos_1_1_kratos_incompressible_fluid_application.html" target="_top" xlink:title="Short class definition.">
<polygon fill="none" stroke="black" points="171.5,-328 171.5,-358 315.5,-358 315.5,-328 171.5,-328"/>
<text text-anchor="start" x="179.5" y="-346" font-family="Helvetica,sans-Serif" font-size="10.00">Kratos::KratosIncompressible</text>
<text text-anchor="middle" x="243.5" y="-335" font-family="Helvetica,sans-Serif" font-size="10.00">FluidApplication</text>
</a>
</g>
</g>
<!-- Node0&#45;&gt;Node5 -->
<g id="edge5" class="edge">
<title>Node0&#45;&gt;Node5</title>
<path fill="none" stroke="midnightblue" d="M82.83,-266.08C101.75,-281.53 132.29,-304.59 162,-319 168.82,-322.31 176.2,-325.26 183.61,-327.87"/>
<polygon fill="midnightblue" stroke="midnightblue" points="84.93,-263.27 75,-259.58 80.46,-268.66 84.93,-263.27"/>
</g>
<!-- Node6 -->
<g id="node7" class="node">
<title>Node6</title>
<g id="a_node7"><a xlink:href="d1/d0c/class_kratos_1_1_kratos_m_k_l_solvers_application.html" target="_top" xlink:title="Short class definition.">
<polygon fill="none" stroke="black" points="177.5,-279 177.5,-309 309.5,-309 309.5,-279 177.5,-279"/>
<text text-anchor="start" x="185.5" y="-297" font-family="Helvetica,sans-Serif" font-size="10.00">Kratos::KratosMKLSolvers</text>
<text text-anchor="middle" x="243.5" y="-286" font-family="Helvetica,sans-Serif" font-size="10.00">Application</text>
</a>
</g>
</g>
<!-- Node0&#45;&gt;Node6 -->
<g id="edge6" class="edge">
<title>Node0&#45;&gt;Node6</title>
<path fill="none" stroke="midnightblue" d="M112.5,-261.96C133.73,-267.19 158.89,-273.39 181.38,-278.93"/>
<polygon fill="midnightblue" stroke="midnightblue" points="113.28,-258.54 102.73,-259.55 111.6,-265.34 113.28,-258.54"/>
</g>
<!-- Node7 -->
<g id="node8" class="node">
<title>Node7</title>
<g id="a_node8"><a xlink:href="d8/d90/class_kratos_1_1_kratos_meshing_application.html" target="_top" xlink:title="Short class definition.">
<polygon fill="none" stroke="black" points="162,-240.5 162,-259.5 325,-259.5 325,-240.5 162,-240.5"/>
<text text-anchor="middle" x="243.5" y="-247.5" font-family="Helvetica,sans-Serif" font-size="10.00">Kratos::KratosMeshingApplication</text>
</a>
</g>
</g>
<!-- Node0&#45;&gt;Node7 -->
<g id="edge7" class="edge">
<title>Node0&#45;&gt;Node7</title>
<path fill="none" stroke="midnightblue" d="M136.27,-250C144.65,-250 153.23,-250 161.7,-250"/>
<polygon fill="midnightblue" stroke="midnightblue" points="136.18,-246.5 126.18,-250 136.18,-253.5 136.18,-246.5"/>
</g>
<!-- Node8 -->
<g id="node9" class="node">
<title>Node8</title>
<g id="a_node9"><a xlink:href="d5/dc1/class_kratos_1_1_kratos_metis_application.html" target="_top" xlink:title="Short class definition.">
<polygon fill="none" stroke="black" points="168.5,-202.5 168.5,-221.5 318.5,-221.5 318.5,-202.5 168.5,-202.5"/>
<text text-anchor="middle" x="243.5" y="-209.5" font-family="Helvetica,sans-Serif" font-size="10.00">Kratos::KratosMetisApplication</text>
</a>
</g>
</g>
<!-- Node0&#45;&gt;Node8 -->
<g id="edge8" class="edge">
<title>Node0&#45;&gt;Node8</title>
<path fill="none" stroke="midnightblue" d="M118.87,-238.32C144.18,-232.93 173.85,-226.61 197.78,-221.52"/>
<polygon fill="midnightblue" stroke="midnightblue" points="118.1,-234.91 109.04,-240.41 119.55,-241.75 118.1,-234.91"/>
</g>
<!-- Node9 -->
<g id="node10" class="node">
<title>Node9</title>
<g id="a_node10"><a xlink:href="dd/dd6/class_kratos_1_1_kratos_p_f_e_m_application.html" target="_top" xlink:title="Short class definition.">
<polygon fill="none" stroke="black" points="167,-164.5 167,-183.5 320,-183.5 320,-164.5 167,-164.5"/>
<text text-anchor="middle" x="243.5" y="-171.5" font-family="Helvetica,sans-Serif" font-size="10.00">Kratos::KratosPFEMApplication</text>
</a>
</g>
</g>
<!-- Node0&#45;&gt;Node9 -->
<g id="edge9" class="edge">
<title>Node0&#45;&gt;Node9</title>
<path fill="none" stroke="midnightblue" d="M85.97,-234.67C105.23,-221.88 134.38,-204.01 162,-193 171.47,-189.23 181.88,-186.08 191.98,-183.51"/>
<polygon fill="midnightblue" stroke="midnightblue" points="83.94,-231.82 77.61,-240.32 87.86,-237.62 83.94,-231.82"/>
</g>
<!-- Node10 -->
<g id="node11" class="node">
<title>Node10</title>
<g id="a_node11"><a xlink:href="d4/d32/class_kratos_1_1_kratos_petsc_application.html" target="_top" xlink:title="Short class definition.">
<polygon fill="none" stroke="black" points="167.5,-126.5 167.5,-145.5 319.5,-145.5 319.5,-126.5 167.5,-126.5"/>
<text text-anchor="middle" x="243.5" y="-133.5" font-family="Helvetica,sans-Serif" font-size="10.00">Kratos::KratosPetscApplication</text>
</a>
</g>
</g>
<!-- Node0&#45;&gt;Node10 -->
<g id="edge10" class="edge">
<title>Node0&#45;&gt;Node10</title>
<path fill="none" stroke="midnightblue" d="M77.1,-232.45C94.2,-210.84 126.19,-174.6 162,-155 169.05,-151.14 176.87,-148.06 184.79,-145.6"/>
<polygon fill="midnightblue" stroke="midnightblue" points="74.25,-230.41 70.91,-240.47 79.79,-234.69 74.25,-230.41"/>
</g>
<!-- Node11 -->
<g id="node12" class="node">
<title>Node11</title>
<g id="a_node12"><a xlink:href="d7/d74/class_kratos_1_1_kratos_structural_application.html" target="_top" xlink:title="Structural Application for KRATOS.">
<polygon fill="none" stroke="black" points="183.5,-77 183.5,-107 303.5,-107 303.5,-77 183.5,-77"/>
<text text-anchor="start" x="191.5" y="-95" font-family="Helvetica,sans-Serif" font-size="10.00">Kratos::KratosStructural</text>
<text text-anchor="middle" x="243.5" y="-84" font-family="Helvetica,sans-Serif" font-size="10.00">Application</text>
</a>
</g>
</g>
<!-- Node0&#45;&gt;Node11 -->
<g id="edge11" class="edge">
<title>Node0&#45;&gt;Node11</title>
<path fill="none" stroke="midnightblue" d="M72.84,-231.33C87.4,-202.55 119.15,-147.49 162,-117 168.44,-112.42 175.74,-108.66 183.26,-105.57"/>
<polygon fill="midnightblue" stroke="midnightblue" points="69.68,-229.81 68.41,-240.33 75.97,-232.9 69.68,-229.81"/>
</g>
<!-- Node12 -->
<g id="node13" class="node">
<title>Node12</title>
<g id="a_node13"><a xlink:href="db/d1e/class_kratos_1_1_kratos_trilinos_application.html" target="_top" xlink:title="Short class definition.">
<polygon fill="none" stroke="black" points="164.5,-38.5 164.5,-57.5 322.5,-57.5 322.5,-38.5 164.5,-38.5"/>
<text text-anchor="middle" x="243.5" y="-45.5" font-family="Helvetica,sans-Serif" font-size="10.00">Kratos::KratosTrilinosApplication</text>
</a>
</g>
</g>
<!-- Node0&#45;&gt;Node12 -->
<g id="edge12" class="edge">
<title>Node0&#45;&gt;Node12</title>
<path fill="none" stroke="midnightblue" d="M68.81,-230.58C79.12,-193.08 107.05,-110.67 162,-68 167.57,-63.67 173.96,-60.27 180.65,-57.59"/>
<polygon fill="midnightblue" stroke="midnightblue" points="65.41,-229.73 66.26,-240.29 72.18,-231.51 65.41,-229.73"/>
</g>
<!-- Node13 -->
<g id="node14" class="node">
<title>Node13</title>
<g id="a_node14"><a xlink:href="d2/da7/class_kratos_1_1_kratos_u_l_f_application.html" target="_top" xlink:title="Short class definition.">
<polygon fill="none" stroke="black" points="170.5,-0.5 170.5,-19.5 316.5,-19.5 316.5,-0.5 170.5,-0.5"/>
<text text-anchor="middle" x="243.5" y="-7.5" font-family="Helvetica,sans-Serif" font-size="10.00">Kratos::KratosULFApplication</text>
</a>
</g>
</g>
<!-- Node0&#45;&gt;Node13 -->
<g id="edge13" class="edge">
<title>Node0&#45;&gt;Node13</title>
<path fill="none" stroke="midnightblue" d="M66.83,-230.07C74.11,-186.5 97.66,-82.39 162,-29 166.64,-25.15 171.93,-22.05 177.52,-19.56"/>
<polygon fill="midnightblue" stroke="midnightblue" points="63.33,-229.81 65.25,-240.22 70.25,-230.88 63.33,-229.81"/>
</g>
</g>
</svg>
