<?xml version="1.0" encoding="UTF-8" standalone="no"?>
<!DOCTYPE svg PUBLIC "-//W3C//DTD SVG 1.1//EN"
 "http://www.w3.org/Graphics/SVG/1.1/DTD/svg11.dtd">
<!-- Generated by graphviz version 2.48.0 (20210719.0153)
 -->
<!-- Title: Graphical Class Hierarchy Pages: 1 -->
<svg width="243pt" height="88pt"
 viewBox="0.00 0.00 243.00 88.00" xmlns="http://www.w3.org/2000/svg" xmlns:xlink="http://www.w3.org/1999/xlink">
<g id="graph0" class="graph" transform="scale(1 1) rotate(0) translate(4 84)">
<title>Graphical Class Hierarchy</title>
<!-- Node915 -->
<g id="node1" class="node">
<title>Node915</title>
<g id="a_node1"><a xlink:title=" ">
<polygon fill="none" stroke="#bfbfbf" points="0,-30 0,-49 92,-49 92,-30 0,-30"/>
<text text-anchor="middle" x="46" y="-37" font-family="Helvetica,sans-Serif" font-size="10.00">std::runtime_error</text>
</a>
</g>
</g>
<!-- Node0 -->
<g id="node2" class="node">
<title>Node0</title>
<g id="a_node2"><a xlink:href="db/d54/structboost_1_1numeric_1_1ublas_1_1divide__by__zero.html" target="_top" xlink:title=" ">
<polygon fill="none" stroke="black" points="128,-49.5 128,-79.5 235,-79.5 235,-49.5 128,-49.5"/>
<text text-anchor="start" x="136" y="-67.5" font-family="Helvetica,sans-Serif" font-size="10.00">boost::numeric::ublas</text>
<text text-anchor="middle" x="181.5" y="-56.5" font-family="Helvetica,sans-Serif" font-size="10.00">::divide_by_zero</text>
</a>
</g>
</g>
<!-- Node915&#45;&gt;Node0 -->
<g id="edge1" class="edge">
<title>Node915&#45;&gt;Node0</title>
<path fill="none" stroke="midnightblue" d="M102.09,-49.82C110.65,-51.42 119.48,-53.07 127.98,-54.66"/>
<polygon fill="midnightblue" stroke="midnightblue" points="102.67,-46.36 92.2,-47.96 101.38,-53.24 102.67,-46.36"/>
</g>
<!-- Node917 -->
<g id="node3" class="node">
<title>Node917</title>
<g id="a_node3"><a xlink:href="db/d8b/structboost_1_1numeric_1_1ublas_1_1singular.html" target="_top" xlink:title=" ">
<polygon fill="none" stroke="black" points="128,-0.5 128,-30.5 235,-30.5 235,-0.5 128,-0.5"/>
<text text-anchor="start" x="136" y="-18.5" font-family="Helvetica,sans-Serif" font-size="10.00">boost::numeric::ublas</text>
<text text-anchor="middle" x="181.5" y="-7.5" font-family="Helvetica,sans-Serif" font-size="10.00">::singular</text>
</a>
</g>
</g>
<!-- Node915&#45;&gt;Node917 -->
<g id="edge2" class="edge">
<title>Node915&#45;&gt;Node917</title>
<path fill="none" stroke="midnightblue" d="M102.09,-29.6C110.65,-28.06 119.48,-26.47 127.98,-24.94"/>
<polygon fill="midnightblue" stroke="midnightblue" points="101.42,-26.16 92.2,-31.37 102.66,-33.05 101.42,-26.16"/>
</g>
</g>
</svg>
