<?xml version="1.0" encoding="UTF-8" standalone="no"?>
<!DOCTYPE svg PUBLIC "-//W3C//DTD SVG 1.1//EN"
 "http://www.w3.org/Graphics/SVG/1.1/DTD/svg11.dtd">
<!-- Generated by graphviz version 2.48.0 (20210719.0153)
 -->
<!-- Title: Graphical Class Hierarchy Pages: 1 -->
<svg width="615pt" height="663pt"
 viewBox="0.00 0.00 615.00 663.00" xmlns="http://www.w3.org/2000/svg" xmlns:xlink="http://www.w3.org/1999/xlink">
<g id="graph0" class="graph" transform="scale(1 1) rotate(0) translate(4 659)">
<title>Graphical Class Hierarchy</title>
<!-- Node0 -->
<g id="node1" class="node">
<title>Node0</title>
<g id="a_node1"><a xlink:href="d1/da3/class_kratos_1_1_scheme.html" target="_top" xlink:title=" ">
<polygon fill="none" stroke="black" points="0,-321.5 0,-351.5 161,-351.5 161,-321.5 0,-321.5"/>
<text text-anchor="start" x="8" y="-339.5" font-family="Helvetica,sans-Serif" font-size="10.00">Kratos::Scheme&lt; TSparseSpace,</text>
<text text-anchor="middle" x="80.5" y="-328.5" font-family="Helvetica,sans-Serif" font-size="10.00"> TDenseSpace &gt;</text>
</a>
</g>
</g>
<!-- Node1 -->
<g id="node2" class="node">
<title>Node1</title>
<g id="a_node2"><a xlink:href="df/de0/class_kratos_1_1_composit_scheme.html" target="_top" xlink:title=" ">
<polygon fill="none" stroke="black" points="215.5,-624.5 215.5,-654.5 379.5,-654.5 379.5,-624.5 215.5,-624.5"/>
<text text-anchor="start" x="223.5" y="-642.5" font-family="Helvetica,sans-Serif" font-size="10.00">Kratos::CompositScheme</text>
<text text-anchor="middle" x="297.5" y="-631.5" font-family="Helvetica,sans-Serif" font-size="10.00">&lt; TSparseSpace, TDenseSpace &gt;</text>
</a>
</g>
</g>
<!-- Node0&#45;&gt;Node1 -->
<g id="edge1" class="edge">
<title>Node0&#45;&gt;Node1</title>
<path fill="none" stroke="midnightblue" d="M84.36,-361.91C91.95,-416.98 117.79,-547.76 197,-615.5 202.4,-620.12 208.54,-623.88 215.07,-626.94"/>
<polygon fill="midnightblue" stroke="midnightblue" points="87.79,-361.13 83.04,-351.66 80.84,-362.02 87.79,-361.13"/>
</g>
<!-- Node2 -->
<g id="node3" class="node">
<title>Node2</title>
<g id="a_node3"><a xlink:href="d4/dda/class_kratos_1_1_inner_volumetric_dynamic_scheme.html" target="_top" xlink:title=" ">
<polygon fill="none" stroke="black" points="219,-565 219,-606 376,-606 376,-565 219,-565"/>
<text text-anchor="start" x="227" y="-594" font-family="Helvetica,sans-Serif" font-size="10.00">Kratos::InnerVolumetricDynamic</text>
<text text-anchor="start" x="227" y="-583" font-family="Helvetica,sans-Serif" font-size="10.00">Scheme&lt; TDim, TSparseSpace,</text>
<text text-anchor="middle" x="297.5" y="-572" font-family="Helvetica,sans-Serif" font-size="10.00"> TDenseSpace &gt;</text>
</a>
</g>
</g>
<!-- Node0&#45;&gt;Node2 -->
<g id="edge2" class="edge">
<title>Node0&#45;&gt;Node2</title>
<path fill="none" stroke="midnightblue" d="M87.61,-361.35C100.12,-406.96 133.02,-504.18 197,-556.5 203.55,-561.85 211.04,-566.22 218.92,-569.78"/>
<polygon fill="midnightblue" stroke="midnightblue" points="90.99,-360.44 85.05,-351.67 84.22,-362.23 90.99,-360.44"/>
</g>
<!-- Node3 -->
<g id="node4" class="node">
<title>Node3</title>
<g id="a_node4"><a xlink:href="dd/d94/class_kratos_1_1_inner_volumetric_scheme.html" target="_top" xlink:title=" ">
<polygon fill="none" stroke="black" points="201,-516.5 201,-546.5 394,-546.5 394,-516.5 201,-516.5"/>
<text text-anchor="start" x="209" y="-534.5" font-family="Helvetica,sans-Serif" font-size="10.00">Kratos::InnerVolumetricScheme</text>
<text text-anchor="middle" x="297.5" y="-523.5" font-family="Helvetica,sans-Serif" font-size="10.00">&lt; TDim, TSparseSpace, TDenseSpace &gt;</text>
</a>
</g>
</g>
<!-- Node0&#45;&gt;Node3 -->
<g id="edge3" class="edge">
<title>Node0&#45;&gt;Node3</title>
<path fill="none" stroke="midnightblue" d="M91.23,-361.28C107.34,-398.95 143.2,-470.16 197,-507.5 201.96,-510.94 207.36,-513.9 213,-516.43"/>
<polygon fill="midnightblue" stroke="midnightblue" points="94.28,-359.5 87.21,-351.6 87.81,-362.18 94.28,-359.5"/>
</g>
<!-- Node4 -->
<g id="node5" class="node">
<title>Node4</title>
<g id="a_node5"><a xlink:href="dc/d37/class_kratos_1_1_petsc_residual_based_incremental_update_static_scheme.html" target="_top" xlink:title=" ">
<polygon fill="none" stroke="black" points="215.5,-457 215.5,-498 379.5,-498 379.5,-457 215.5,-457"/>
<text text-anchor="start" x="223.5" y="-486" font-family="Helvetica,sans-Serif" font-size="10.00">Kratos::PetscResidualBased</text>
<text text-anchor="start" x="223.5" y="-475" font-family="Helvetica,sans-Serif" font-size="10.00">IncrementalUpdateStaticScheme</text>
<text text-anchor="middle" x="297.5" y="-464" font-family="Helvetica,sans-Serif" font-size="10.00">&lt; TSparseSpace, TDenseSpace &gt;</text>
</a>
</g>
</g>
<!-- Node0&#45;&gt;Node4 -->
<g id="edge4" class="edge">
<title>Node0&#45;&gt;Node4</title>
<path fill="none" stroke="midnightblue" d="M99.77,-359.68C120.72,-384.77 157.31,-424.29 197,-447.5 203,-451.01 209.44,-454.14 216.06,-456.93"/>
<polygon fill="midnightblue" stroke="midnightblue" points="102.33,-357.29 93.29,-351.77 96.92,-361.72 102.33,-357.29"/>
</g>
<!-- Node5 -->
<g id="node6" class="node">
<title>Node5</title>
<g id="a_node6"><a xlink:href="d9/dba/class_kratos_1_1_residual_based_incremental_update_static_scheme.html" target="_top" xlink:title=" ">
<polygon fill="none" stroke="black" points="205,-397 205,-438 390,-438 390,-397 205,-397"/>
<text text-anchor="start" x="213" y="-426" font-family="Helvetica,sans-Serif" font-size="10.00">Kratos::ResidualBasedIncremental</text>
<text text-anchor="start" x="213" y="-415" font-family="Helvetica,sans-Serif" font-size="10.00">UpdateStaticScheme&lt; TSparseSpace,</text>
<text text-anchor="middle" x="297.5" y="-404" font-family="Helvetica,sans-Serif" font-size="10.00"> TDenseSpace &gt;</text>
</a>
</g>
</g>
<!-- Node0&#45;&gt;Node5 -->
<g id="edge5" class="edge">
<title>Node0&#45;&gt;Node5</title>
<path fill="none" stroke="midnightblue" d="M120.95,-355.91C143.01,-366.34 171.18,-378.98 197,-388.5 204.93,-391.43 213.31,-394.26 221.7,-396.92"/>
<polygon fill="midnightblue" stroke="midnightblue" points="122.43,-352.74 111.9,-351.59 119.42,-359.06 122.43,-352.74"/>
</g>
<!-- Node7 -->
<g id="node8" class="node">
<title>Node7</title>
<g id="a_node8"><a xlink:href="dd/dc1/class_kratos_1_1_residual_based_newmark_scheme.html" target="_top" xlink:title=" ">
<polygon fill="none" stroke="black" points="197.5,-348.5 197.5,-378.5 397.5,-378.5 397.5,-348.5 197.5,-348.5"/>
<text text-anchor="start" x="205.5" y="-366.5" font-family="Helvetica,sans-Serif" font-size="10.00">Kratos::ResidualBasedNewmark</text>
<text text-anchor="middle" x="297.5" y="-355.5" font-family="Helvetica,sans-Serif" font-size="10.00">Scheme&lt; TSparseSpace, TDenseSpace &gt;</text>
</a>
</g>
</g>
<!-- Node0&#45;&gt;Node7 -->
<g id="edge7" class="edge">
<title>Node0&#45;&gt;Node7</title>
<path fill="none" stroke="midnightblue" d="M171.23,-347.77C179.81,-348.85 188.53,-349.94 197.19,-351.03"/>
<polygon fill="midnightblue" stroke="midnightblue" points="171.61,-344.29 161.25,-346.52 170.74,-351.23 171.61,-344.29"/>
</g>
<!-- Node8 -->
<g id="node9" class="node">
<title>Node8</title>
<g id="a_node9"><a xlink:href="d4/db0/class_kratos_1_1_residual_based_predictor_corrector_bossak_rotation_scheme.html" target="_top" xlink:title=" ">
<polygon fill="none" stroke="black" points="215.5,-289 215.5,-330 379.5,-330 379.5,-289 215.5,-289"/>
<text text-anchor="start" x="223.5" y="-318" font-family="Helvetica,sans-Serif" font-size="10.00">Kratos::ResidualBasedPredictor</text>
<text text-anchor="start" x="223.5" y="-307" font-family="Helvetica,sans-Serif" font-size="10.00">CorrectorBossakRotationScheme</text>
<text text-anchor="middle" x="297.5" y="-296" font-family="Helvetica,sans-Serif" font-size="10.00">&lt; TSparseSpace, TDenseSpace &gt;</text>
</a>
</g>
</g>
<!-- Node0&#45;&gt;Node8 -->
<g id="edge8" class="edge">
<title>Node0&#45;&gt;Node8</title>
<path fill="none" stroke="midnightblue" d="M171.3,-325.22C185.94,-323.38 201.03,-321.49 215.44,-319.68"/>
<polygon fill="midnightblue" stroke="midnightblue" points="170.74,-321.77 161.25,-326.48 171.61,-328.71 170.74,-321.77"/>
</g>
<!-- Node9 -->
<g id="node10" class="node">
<title>Node9</title>
<g id="a_node10"><a xlink:href="db/d8f/class_kratos_1_1_residual_based_predictor_corrector_bossak_scheme.html" target="_top" xlink:title=" ">
<polygon fill="none" stroke="black" points="197,-229 197,-270 398,-270 398,-229 197,-229"/>
<text text-anchor="start" x="205" y="-258" font-family="Helvetica,sans-Serif" font-size="10.00">Kratos::ResidualBasedPredictor</text>
<text text-anchor="start" x="205" y="-247" font-family="Helvetica,sans-Serif" font-size="10.00">CorrectorBossakScheme&lt; TSparseSpace,</text>
<text text-anchor="middle" x="297.5" y="-236" font-family="Helvetica,sans-Serif" font-size="10.00"> TDenseSpace &gt;</text>
</a>
</g>
</g>
<!-- Node0&#45;&gt;Node9 -->
<g id="edge9" class="edge">
<title>Node0&#45;&gt;Node9</title>
<path fill="none" stroke="midnightblue" d="M118.05,-316.52C140.43,-304.78 169.88,-290.2 197,-279.5 205.39,-276.19 214.3,-273.03 223.21,-270.08"/>
<polygon fill="midnightblue" stroke="midnightblue" points="116.12,-313.58 108.92,-321.36 119.4,-319.77 116.12,-313.58"/>
</g>
<!-- Node10 -->
<g id="node11" class="node">
<title>Node10</title>
<g id="a_node11"><a xlink:href="df/d33/class_kratos_1_1_residual_based_predictor_corrector_relaxation_scheme.html" target="_top" xlink:title=" ">
<polygon fill="none" stroke="black" points="215.5,-169 215.5,-210 379.5,-210 379.5,-169 215.5,-169"/>
<text text-anchor="start" x="223.5" y="-198" font-family="Helvetica,sans-Serif" font-size="10.00">Kratos::ResidualBasedPredictor</text>
<text text-anchor="start" x="223.5" y="-187" font-family="Helvetica,sans-Serif" font-size="10.00">CorrectorRelaxationScheme</text>
<text text-anchor="middle" x="297.5" y="-176" font-family="Helvetica,sans-Serif" font-size="10.00">&lt; TSparseSpace, TDenseSpace &gt;</text>
</a>
</g>
</g>
<!-- Node0&#45;&gt;Node10 -->
<g id="edge10" class="edge">
<title>Node0&#45;&gt;Node10</title>
<path fill="none" stroke="midnightblue" d="M98.56,-313.23C119.09,-286.82 155.97,-244.23 197,-219.5 202.87,-215.96 209.19,-212.81 215.7,-210.01"/>
<polygon fill="midnightblue" stroke="midnightblue" points="95.77,-311.11 92.49,-321.19 101.33,-315.36 95.77,-311.11"/>
</g>
<!-- Node11 -->
<g id="node12" class="node">
<title>Node11</title>
<g id="a_node12"><a xlink:href="d8/d66/class_kratos_1_1_residual_based_predictor_corrector_velocity_bossak_scheme.html" target="_top" xlink:title=" ">
<polygon fill="none" stroke="black" points="215.5,-109 215.5,-150 379.5,-150 379.5,-109 215.5,-109"/>
<text text-anchor="start" x="223.5" y="-138" font-family="Helvetica,sans-Serif" font-size="10.00">Kratos::ResidualBasedPredictor</text>
<text text-anchor="start" x="223.5" y="-127" font-family="Helvetica,sans-Serif" font-size="10.00">CorrectorVelocityBossakScheme</text>
<text text-anchor="middle" x="297.5" y="-116" font-family="Helvetica,sans-Serif" font-size="10.00">&lt; TSparseSpace, TDenseSpace &gt;</text>
</a>
</g>
</g>
<!-- Node0&#45;&gt;Node11 -->
<g id="edge11" class="edge">
<title>Node0&#45;&gt;Node11</title>
<path fill="none" stroke="midnightblue" d="M90.93,-312.01C106.91,-273.74 142.94,-199.98 197,-159.5 202.63,-155.28 208.86,-151.65 215.37,-148.53"/>
<polygon fill="midnightblue" stroke="midnightblue" points="87.65,-310.79 87.13,-321.37 94.14,-313.42 87.65,-310.79"/>
</g>
<!-- Node12 -->
<g id="node13" class="node">
<title>Node12</title>
<g id="a_node13"><a xlink:href="d4/d99/class_kratos_1_1_trilinos_residual_based_incremental_update_static_scheme.html" target="_top" xlink:title=" ">
<polygon fill="none" stroke="black" points="197.5,-49 197.5,-90 397.5,-90 397.5,-49 197.5,-49"/>
<text text-anchor="start" x="205.5" y="-78" font-family="Helvetica,sans-Serif" font-size="10.00">Kratos::TrilinosResidual</text>
<text text-anchor="start" x="205.5" y="-67" font-family="Helvetica,sans-Serif" font-size="10.00">BasedIncrementalUpdateStatic</text>
<text text-anchor="middle" x="297.5" y="-56" font-family="Helvetica,sans-Serif" font-size="10.00">Scheme&lt; TSparseSpace, TDenseSpace &gt;</text>
</a>
</g>
</g>
<!-- Node0&#45;&gt;Node12 -->
<g id="edge12" class="edge">
<title>Node0&#45;&gt;Node12</title>
<path fill="none" stroke="midnightblue" d="M86.67,-311.54C97.97,-263.3 129.43,-157 197,-99.5 201.12,-95.99 205.64,-92.89 210.42,-90.16"/>
<polygon fill="midnightblue" stroke="midnightblue" points="83.22,-310.91 84.45,-321.44 90.05,-312.45 83.22,-310.91"/>
</g>
<!-- Node13 -->
<g id="node14" class="node">
<title>Node13</title>
<g id="a_node14"><a xlink:href="d2/d46/class_kratos_1_1_volumetric_scheme.html" target="_top" xlink:title=" ">
<polygon fill="none" stroke="black" points="201,-0.5 201,-30.5 394,-30.5 394,-0.5 201,-0.5"/>
<text text-anchor="start" x="209" y="-18.5" font-family="Helvetica,sans-Serif" font-size="10.00">Kratos::VolumetricScheme</text>
<text text-anchor="middle" x="297.5" y="-7.5" font-family="Helvetica,sans-Serif" font-size="10.00">&lt; TDim, TSparseSpace, TDenseSpace &gt;</text>
</a>
</g>
</g>
<!-- Node0&#45;&gt;Node13 -->
<g id="edge13" class="edge">
<title>Node0&#45;&gt;Node13</title>
<path fill="none" stroke="midnightblue" d="M83.6,-311.43C89.81,-254.1 113.26,-112.7 197,-39.5 200.88,-36.11 205.16,-33.18 209.69,-30.65"/>
<polygon fill="midnightblue" stroke="midnightblue" points="80.12,-311.13 82.61,-321.43 87.08,-311.83 80.12,-311.13"/>
</g>
<!-- Node6 -->
<g id="node7" class="node">
<title>Node6</title>
<g id="a_node7"><a xlink:href="d6/d73/class_kratos_1_1_residual_based_lagrangian_monolithic_scheme.html" target="_top" xlink:title=" ">
<polygon fill="none" stroke="black" points="434,-397 434,-438 607,-438 607,-397 434,-397"/>
<text text-anchor="start" x="442" y="-426" font-family="Helvetica,sans-Serif" font-size="10.00">Kratos::ResidualBasedLagrangian</text>
<text text-anchor="start" x="442" y="-415" font-family="Helvetica,sans-Serif" font-size="10.00">MonolithicScheme&lt; TSparseSpace,</text>
<text text-anchor="middle" x="520.5" y="-404" font-family="Helvetica,sans-Serif" font-size="10.00"> TDenseSpace &gt;</text>
</a>
</g>
</g>
<!-- Node5&#45;&gt;Node6 -->
<g id="edge6" class="edge">
<title>Node5&#45;&gt;Node6</title>
<path fill="none" stroke="midnightblue" d="M400.54,-417.5C411.73,-417.5 423.04,-417.5 434,-417.5"/>
<polygon fill="midnightblue" stroke="midnightblue" points="400.3,-414 390.3,-417.5 400.3,-421 400.3,-414"/>
</g>
</g>
</svg>
