<?xml version="1.0" encoding="UTF-8" standalone="no"?>
<!DOCTYPE svg PUBLIC "-//W3C//DTD SVG 1.1//EN"
 "http://www.w3.org/Graphics/SVG/1.1/DTD/svg11.dtd">
<!-- Generated by graphviz version 2.48.0 (20210719.0153)
 -->
<!-- Title: Graphical Class Hierarchy Pages: 1 -->
<svg width="358pt" height="88pt"
 viewBox="0.00 0.00 358.00 88.00" xmlns="http://www.w3.org/2000/svg" xmlns:xlink="http://www.w3.org/1999/xlink">
<g id="graph0" class="graph" transform="scale(1 1) rotate(0) translate(4 84)">
<title>Graphical Class Hierarchy</title>
<!-- Node0 -->
<g id="node1" class="node">
<title>Node0</title>
<g id="a_node1"><a xlink:href="d3/d80/class_kratos_1_1_convergence_criteria.html" target="_top" xlink:title=" ">
<polygon fill="none" stroke="black" points="0,-19 0,-60 150,-60 150,-19 0,-19"/>
<text text-anchor="start" x="8" y="-48" font-family="Helvetica,sans-Serif" font-size="10.00">Kratos::ConvergenceCriteria</text>
<text text-anchor="start" x="8" y="-37" font-family="Helvetica,sans-Serif" font-size="10.00">&lt; TSparseSpace, DenseSpace</text>
<text text-anchor="middle" x="75" y="-26" font-family="Helvetica,sans-Serif" font-size="10.00">&lt; double &gt; &gt;</text>
</a>
</g>
</g>
<!-- Node1 -->
<g id="node2" class="node">
<title>Node1</title>
<g id="a_node2"><a xlink:href="de/d07/class_kratos_1_1_and_criteria.html" target="_top" xlink:title=" ">
<polygon fill="none" stroke="black" points="186,-49.5 186,-79.5 350,-79.5 350,-49.5 186,-49.5"/>
<text text-anchor="start" x="194" y="-67.5" font-family="Helvetica,sans-Serif" font-size="10.00">Kratos::AndCriteria</text>
<text text-anchor="middle" x="268" y="-56.5" font-family="Helvetica,sans-Serif" font-size="10.00">&lt; TSparseSpace, TDenseSpace &gt;</text>
</a>
</g>
</g>
<!-- Node0&#45;&gt;Node1 -->
<g id="edge1" class="edge">
<title>Node0&#45;&gt;Node1</title>
<path fill="none" stroke="midnightblue" d="M160.12,-50.51C168.7,-51.63 177.41,-52.77 185.96,-53.89"/>
<polygon fill="midnightblue" stroke="midnightblue" points="160.49,-47.03 150.12,-49.2 159.58,-53.97 160.49,-47.03"/>
</g>
<!-- Node2 -->
<g id="node3" class="node">
<title>Node2</title>
<g id="a_node3"><a xlink:href="de/d05/class_kratos_1_1_residual_criteria.html" target="_top" xlink:title=" ">
<polygon fill="none" stroke="black" points="186,-0.5 186,-30.5 350,-30.5 350,-0.5 186,-0.5"/>
<text text-anchor="start" x="194" y="-18.5" font-family="Helvetica,sans-Serif" font-size="10.00">Kratos::ResidualCriteria</text>
<text text-anchor="middle" x="268" y="-7.5" font-family="Helvetica,sans-Serif" font-size="10.00">&lt; TSparseSpace, TDenseSpace &gt;</text>
</a>
</g>
</g>
<!-- Node0&#45;&gt;Node2 -->
<g id="edge2" class="edge">
<title>Node0&#45;&gt;Node2</title>
<path fill="none" stroke="midnightblue" d="M160.12,-28.93C168.7,-27.85 177.41,-26.76 185.96,-25.68"/>
<polygon fill="midnightblue" stroke="midnightblue" points="159.6,-25.47 150.12,-30.19 160.48,-32.41 159.6,-25.47"/>
</g>
</g>
</svg>
