<?xml version="1.0" encoding="UTF-8" standalone="no"?>
<!DOCTYPE svg PUBLIC "-//W3C//DTD SVG 1.1//EN"
 "http://www.w3.org/Graphics/SVG/1.1/DTD/svg11.dtd">
<!-- Generated by graphviz version 2.48.0 (20210719.0153)
 -->
<!-- Title: Graphical Class Hierarchy Pages: 1 -->
<svg width="286pt" height="137pt"
 viewBox="0.00 0.00 286.00 137.00" xmlns="http://www.w3.org/2000/svg" xmlns:xlink="http://www.w3.org/1999/xlink">
<g id="graph0" class="graph" transform="scale(1 1) rotate(0) translate(4 133)">
<title>Graphical Class Hierarchy</title>
<!-- Node907 -->
<g id="node1" class="node">
<title>Node907</title>
<g id="a_node1"><a xlink:title=" ">
<polygon fill="none" stroke="#bfbfbf" points="0,-55 0,-74 102,-74 102,-55 0,-55"/>
<text text-anchor="middle" x="51" y="-62" font-family="Helvetica,sans-Serif" font-size="10.00">std::reverse_iterator</text>
</a>
</g>
</g>
<!-- Node0 -->
<g id="node2" class="node">
<title>Node0</title>
<g id="a_node2"><a xlink:href="db/d6f/classboost_1_1numeric_1_1ublas_1_1reverse__iterator__base.html" target="_top" xlink:title="Base class of all reverse iterators. (non&#45;MSVC version)">
<polygon fill="none" stroke="black" points="141,-98.5 141,-128.5 275,-128.5 275,-98.5 141,-98.5"/>
<text text-anchor="start" x="149" y="-116.5" font-family="Helvetica,sans-Serif" font-size="10.00">boost::numeric::ublas</text>
<text text-anchor="middle" x="208" y="-105.5" font-family="Helvetica,sans-Serif" font-size="10.00">::reverse_iterator_base&lt; I &gt;</text>
</a>
</g>
</g>
<!-- Node907&#45;&gt;Node0 -->
<g id="edge1" class="edge">
<title>Node907&#45;&gt;Node0</title>
<path fill="none" stroke="midnightblue" d="M91.96,-77.13C112.56,-83.64 137.83,-91.63 159.43,-98.46"/>
<polygon fill="midnightblue" stroke="midnightblue" points="92.84,-73.74 82.25,-74.06 90.73,-80.42 92.84,-73.74"/>
</g>
<!-- Node909 -->
<g id="node3" class="node">
<title>Node909</title>
<g id="a_node3"><a xlink:href="df/dbf/classboost_1_1numeric_1_1ublas_1_1reverse__iterator__base1.html" target="_top" xlink:title="1st base class of all matrix reverse iterators. (non&#45;MSVC version)">
<polygon fill="none" stroke="black" points="138,-49.5 138,-79.5 278,-79.5 278,-49.5 138,-49.5"/>
<text text-anchor="start" x="146" y="-67.5" font-family="Helvetica,sans-Serif" font-size="10.00">boost::numeric::ublas</text>
<text text-anchor="middle" x="208" y="-56.5" font-family="Helvetica,sans-Serif" font-size="10.00">::reverse_iterator_base1&lt; I &gt;</text>
</a>
</g>
</g>
<!-- Node907&#45;&gt;Node909 -->
<g id="edge2" class="edge">
<title>Node907&#45;&gt;Node909</title>
<path fill="none" stroke="midnightblue" d="M112.33,-64.5C120.67,-64.5 129.29,-64.5 137.77,-64.5"/>
<polygon fill="midnightblue" stroke="midnightblue" points="112.32,-61 102.32,-64.5 112.32,-68 112.32,-61"/>
</g>
<!-- Node910 -->
<g id="node4" class="node">
<title>Node910</title>
<g id="a_node4"><a xlink:href="d7/d43/classboost_1_1numeric_1_1ublas_1_1reverse__iterator__base2.html" target="_top" xlink:title="2nd base class of all matrix reverse iterators. (non&#45;MSVC version)">
<polygon fill="none" stroke="black" points="138,-0.5 138,-30.5 278,-30.5 278,-0.5 138,-0.5"/>
<text text-anchor="start" x="146" y="-18.5" font-family="Helvetica,sans-Serif" font-size="10.00">boost::numeric::ublas</text>
<text text-anchor="middle" x="208" y="-7.5" font-family="Helvetica,sans-Serif" font-size="10.00">::reverse_iterator_base2&lt; I &gt;</text>
</a>
</g>
</g>
<!-- Node907&#45;&gt;Node910 -->
<g id="edge3" class="edge">
<title>Node907&#45;&gt;Node910</title>
<path fill="none" stroke="midnightblue" d="M91.96,-51.87C112.56,-45.36 137.83,-37.37 159.43,-30.54"/>
<polygon fill="midnightblue" stroke="midnightblue" points="90.73,-48.58 82.25,-54.94 92.84,-55.26 90.73,-48.58"/>
</g>
</g>
</svg>
