<?xml version="1.0" encoding="UTF-8" standalone="no"?>
<!DOCTYPE svg PUBLIC "-//W3C//DTD SVG 1.1//EN"
 "http://www.w3.org/Graphics/SVG/1.1/DTD/svg11.dtd">
<!-- Generated by graphviz version 2.48.0 (20210719.0153)
 -->
<!-- Title: Graphical Class Hierarchy Pages: 1 -->
<svg width="242pt" height="88pt"
 viewBox="0.00 0.00 242.00 88.00" xmlns="http://www.w3.org/2000/svg" xmlns:xlink="http://www.w3.org/1999/xlink">
<g id="graph0" class="graph" transform="scale(1 1) rotate(0) translate(4 84)">
<title>Graphical Class Hierarchy</title>
<!-- Node159 -->
<g id="node1" class="node">
<title>Node159</title>
<g id="a_node1"><a xlink:title=" ">
<polygon fill="none" stroke="#bfbfbf" points="0,-30 0,-49 91,-49 91,-30 0,-30"/>
<text text-anchor="middle" x="45.5" y="-37" font-family="Helvetica,sans-Serif" font-size="10.00">std::domain_error</text>
</a>
</g>
</g>
<!-- Node0 -->
<g id="node2" class="node">
<title>Node0</title>
<g id="a_node2"><a xlink:href="dc/d28/structboost_1_1numeric_1_1ublas_1_1bad__size.html" target="_top" xlink:title=" ">
<polygon fill="none" stroke="black" points="127,-49.5 127,-79.5 234,-79.5 234,-49.5 127,-49.5"/>
<text text-anchor="start" x="135" y="-67.5" font-family="Helvetica,sans-Serif" font-size="10.00">boost::numeric::ublas</text>
<text text-anchor="middle" x="180.5" y="-56.5" font-family="Helvetica,sans-Serif" font-size="10.00">::bad_size</text>
</a>
</g>
</g>
<!-- Node159&#45;&gt;Node0 -->
<g id="edge1" class="edge">
<title>Node159&#45;&gt;Node0</title>
<path fill="none" stroke="midnightblue" d="M101.03,-49.75C109.58,-51.36 118.4,-53.02 126.91,-54.61"/>
<polygon fill="midnightblue" stroke="midnightblue" points="101.63,-46.3 91.16,-47.89 100.34,-53.18 101.63,-46.3"/>
</g>
<!-- Node161 -->
<g id="node3" class="node">
<title>Node161</title>
<g id="a_node3"><a xlink:href="db/dd3/structboost_1_1numeric_1_1ublas_1_1non__real.html" target="_top" xlink:title=" ">
<polygon fill="none" stroke="black" points="127,-0.5 127,-30.5 234,-30.5 234,-0.5 127,-0.5"/>
<text text-anchor="start" x="135" y="-18.5" font-family="Helvetica,sans-Serif" font-size="10.00">boost::numeric::ublas</text>
<text text-anchor="middle" x="180.5" y="-7.5" font-family="Helvetica,sans-Serif" font-size="10.00">::non_real</text>
</a>
</g>
</g>
<!-- Node159&#45;&gt;Node161 -->
<g id="edge2" class="edge">
<title>Node159&#45;&gt;Node161</title>
<path fill="none" stroke="midnightblue" d="M101.03,-29.66C109.58,-28.12 118.4,-26.53 126.91,-24.99"/>
<polygon fill="midnightblue" stroke="midnightblue" points="100.38,-26.22 91.16,-31.44 101.62,-33.11 100.38,-26.22"/>
</g>
</g>
</svg>
