<?xml version="1.0" encoding="UTF-8" standalone="no"?>
<!DOCTYPE svg PUBLIC "-//W3C//DTD SVG 1.1//EN"
 "http://www.w3.org/Graphics/SVG/1.1/DTD/svg11.dtd">
<!-- Generated by graphviz version 2.48.0 (20210719.0153)
 -->
<!-- Title: Graphical Class Hierarchy Pages: 1 -->
<svg width="231pt" height="88pt"
 viewBox="0.00 0.00 231.00 88.00" xmlns="http://www.w3.org/2000/svg" xmlns:xlink="http://www.w3.org/1999/xlink">
<g id="graph0" class="graph" transform="scale(1 1) rotate(0) translate(4 84)">
<title>Graphical Class Hierarchy</title>
<!-- Node488 -->
<g id="node1" class="node">
<title>Node488</title>
<g id="a_node1"><a xlink:title=" ">
<polygon fill="none" stroke="#bfbfbf" points="0,-30 0,-49 80,-49 80,-30 0,-30"/>
<text text-anchor="middle" x="40" y="-37" font-family="Helvetica,sans-Serif" font-size="10.00">std::logic_error</text>
</a>
</g>
</g>
<!-- Node0 -->
<g id="node2" class="node">
<title>Node0</title>
<g id="a_node2"><a xlink:href="d8/d33/structboost_1_1numeric_1_1ublas_1_1external__logic.html" target="_top" xlink:title=" ">
<polygon fill="none" stroke="black" points="116,-49.5 116,-79.5 223,-79.5 223,-49.5 116,-49.5"/>
<text text-anchor="start" x="124" y="-67.5" font-family="Helvetica,sans-Serif" font-size="10.00">boost::numeric::ublas</text>
<text text-anchor="middle" x="169.5" y="-56.5" font-family="Helvetica,sans-Serif" font-size="10.00">::external_logic</text>
</a>
</g>
</g>
<!-- Node488&#45;&gt;Node0 -->
<g id="edge1" class="edge">
<title>Node488&#45;&gt;Node0</title>
<path fill="none" stroke="midnightblue" d="M90.33,-49.17C98.73,-50.82 107.48,-52.54 115.96,-54.2"/>
<polygon fill="midnightblue" stroke="midnightblue" points="90.78,-45.69 80.29,-47.2 89.43,-52.56 90.78,-45.69"/>
</g>
<!-- Node490 -->
<g id="node3" class="node">
<title>Node490</title>
<g id="a_node3"><a xlink:href="d1/d28/structboost_1_1numeric_1_1ublas_1_1internal__logic.html" target="_top" xlink:title=" ">
<polygon fill="none" stroke="black" points="116,-0.5 116,-30.5 223,-30.5 223,-0.5 116,-0.5"/>
<text text-anchor="start" x="124" y="-18.5" font-family="Helvetica,sans-Serif" font-size="10.00">boost::numeric::ublas</text>
<text text-anchor="middle" x="169.5" y="-7.5" font-family="Helvetica,sans-Serif" font-size="10.00">::internal_logic</text>
</a>
</g>
</g>
<!-- Node488&#45;&gt;Node490 -->
<g id="edge2" class="edge">
<title>Node488&#45;&gt;Node490</title>
<path fill="none" stroke="midnightblue" d="M90.33,-30.22C98.73,-28.63 107.48,-26.99 115.96,-25.39"/>
<polygon fill="midnightblue" stroke="midnightblue" points="89.47,-26.81 80.29,-32.1 90.77,-33.69 89.47,-26.81"/>
</g>
</g>
</svg>
