<?xml version="1.0" encoding="UTF-8" standalone="no"?>
<!DOCTYPE svg PUBLIC "-//W3C//DTD SVG 1.1//EN"
 "http://www.w3.org/Graphics/SVG/1.1/DTD/svg11.dtd">
<!-- Generated by graphviz version 2.48.0 (20210719.0153)
 -->
<!-- Title: boost::numeric::ublas::matrix_vector_indirect&lt; M, IA &gt;::const_iterator Pages: 1 -->
<svg width="438pt" height="540pt"
 viewBox="0.00 0.00 438.00 540.00" xmlns="http://www.w3.org/2000/svg" xmlns:xlink="http://www.w3.org/1999/xlink">
<g id="graph0" class="graph" transform="scale(1 1) rotate(0) translate(4 536)">
<title>boost::numeric::ublas::matrix_vector_indirect&lt; M, IA &gt;::const_iterator</title>
<!-- Node1 -->
<g id="node1" class="node">
<title>Node1</title>
<g id="a_node1"><a xlink:title=" ">
<polygon fill="#bfbfbf" stroke="black" points="70,-0.5 70,-189.5 220,-189.5 220,-0.5 70,-0.5"/>
<text text-anchor="start" x="78" y="-177.5" font-family="Helvetica,sans-Serif" font-size="10.00">boost::numeric::ublas</text>
<text text-anchor="start" x="78" y="-166.5" font-family="Helvetica,sans-Serif" font-size="10.00">::matrix_vector_indirect</text>
<text text-anchor="middle" x="145" y="-155.5" font-family="Helvetica,sans-Serif" font-size="10.00">&lt; M, IA &gt;::const_iterator</text>
<polyline fill="none" stroke="black" points="70,-148.5 220,-148.5 "/>
<text text-anchor="middle" x="145" y="-136.5" font-family="Helvetica,sans-Serif" font-size="10.00"> </text>
<polyline fill="none" stroke="black" points="70,-129.5 220,-129.5 "/>
<text text-anchor="start" x="78" y="-117.5" font-family="Helvetica,sans-Serif" font-size="10.00">+ BOOST_STATIC_ASSERT()</text>
<text text-anchor="start" x="78" y="-106.5" font-family="Helvetica,sans-Serif" font-size="10.00">+ const_iterator()</text>
<text text-anchor="start" x="78" y="-95.5" font-family="Helvetica,sans-Serif" font-size="10.00">+ const_iterator()</text>
<text text-anchor="start" x="78" y="-84.5" font-family="Helvetica,sans-Serif" font-size="10.00">+ const_iterator()</text>
<text text-anchor="start" x="78" y="-73.5" font-family="Helvetica,sans-Serif" font-size="10.00">+ operator++()</text>
<text text-anchor="start" x="78" y="-62.5" font-family="Helvetica,sans-Serif" font-size="10.00">+ operator&#45;&#45;()</text>
<text text-anchor="start" x="78" y="-51.5" font-family="Helvetica,sans-Serif" font-size="10.00">+ operator+=()</text>
<text text-anchor="start" x="78" y="-40.5" font-family="Helvetica,sans-Serif" font-size="10.00">+ operator&#45;=()</text>
<text text-anchor="start" x="78" y="-29.5" font-family="Helvetica,sans-Serif" font-size="10.00">+ operator&#45;()</text>
<text text-anchor="start" x="78" y="-18.5" font-family="Helvetica,sans-Serif" font-size="10.00">+ operator*()</text>
<text text-anchor="start" x="78" y="-7.5" font-family="Helvetica,sans-Serif" font-size="10.00">and 18 more...</text>
</a>
</g>
</g>
<!-- Node2 -->
<g id="node2" class="node">
<title>Node2</title>
<g id="a_node2"><a xlink:href="../../dc/d2f/classboost_1_1numeric_1_1ublas_1_1container__const__reference.html" target="_top" xlink:title=" ">
<polygon fill="none" stroke="black" points="0,-226.5 0,-404.5 146,-404.5 146,-226.5 0,-226.5"/>
<text text-anchor="start" x="8" y="-392.5" font-family="Helvetica,sans-Serif" font-size="10.00">boost::numeric::ublas</text>
<text text-anchor="start" x="8" y="-381.5" font-family="Helvetica,sans-Serif" font-size="10.00">::container_const_reference</text>
<text text-anchor="middle" x="73" y="-370.5" font-family="Helvetica,sans-Serif" font-size="10.00">&lt; matrix_vector_indirect &gt;</text>
<polyline fill="none" stroke="black" points="0,-363.5 146,-363.5 "/>
<text text-anchor="middle" x="73" y="-351.5" font-family="Helvetica,sans-Serif" font-size="10.00"> </text>
<polyline fill="none" stroke="black" points="0,-344.5 146,-344.5 "/>
<text text-anchor="start" x="8" y="-332.5" font-family="Helvetica,sans-Serif" font-size="10.00">+ container_const_reference()</text>
<text text-anchor="start" x="8" y="-321.5" font-family="Helvetica,sans-Serif" font-size="10.00">+ container_const_reference()</text>
<text text-anchor="start" x="8" y="-310.5" font-family="Helvetica,sans-Serif" font-size="10.00">+ container_const_reference()</text>
<text text-anchor="start" x="8" y="-299.5" font-family="Helvetica,sans-Serif" font-size="10.00">+ container_const_reference()</text>
<text text-anchor="start" x="8" y="-288.5" font-family="Helvetica,sans-Serif" font-size="10.00">+ operator()()</text>
<text text-anchor="start" x="8" y="-277.5" font-family="Helvetica,sans-Serif" font-size="10.00">+ operator()()</text>
<text text-anchor="start" x="8" y="-266.5" font-family="Helvetica,sans-Serif" font-size="10.00">+ assign()</text>
<text text-anchor="start" x="8" y="-255.5" font-family="Helvetica,sans-Serif" font-size="10.00">+ assign()</text>
<text text-anchor="start" x="8" y="-244.5" font-family="Helvetica,sans-Serif" font-size="10.00">+ same_closure()</text>
<text text-anchor="start" x="8" y="-233.5" font-family="Helvetica,sans-Serif" font-size="10.00">+ same_closure()</text>
</a>
</g>
</g>
<!-- Node2&#45;&gt;Node1 -->
<g id="edge1" class="edge">
<title>Node2&#45;&gt;Node1</title>
<path fill="none" stroke="midnightblue" d="M98.55,-216.57C101.46,-207.59 104.46,-198.51 107.48,-189.57"/>
<polygon fill="none" stroke="midnightblue" points="95.17,-215.67 95.44,-226.26 101.83,-217.81 95.17,-215.67"/>
</g>
<!-- Node2&#45;&gt;Node1 -->
<g id="edge5" class="edge">
<title>Node2&#45;&gt;Node1</title>
<path fill="none" stroke="midnightblue" d="M111.99,-216.57C115,-207.59 117.98,-198.51 120.86,-189.57"/>
<polygon fill="none" stroke="midnightblue" points="108.6,-215.66 108.72,-226.26 115.23,-217.9 108.6,-215.66"/>
</g>
<!-- Node3 -->
<g id="node3" class="node">
<title>Node3</title>
<g id="a_node3"><a xlink:href="../../d2/dbf/classboost_1_1numeric_1_1ublas_1_1nonassignable___1_1nonassignable.html" target="_top" xlink:title=" ">
<polygon fill="none" stroke="black" points="24,-441.5 24,-531.5 122,-531.5 122,-441.5 24,-441.5"/>
<text text-anchor="middle" x="73" y="-519.5" font-family="Helvetica,sans-Serif" font-size="10.00">nonassignable</text>
<polyline fill="none" stroke="black" points="24,-512.5 122,-512.5 "/>
<text text-anchor="middle" x="73" y="-500.5" font-family="Helvetica,sans-Serif" font-size="10.00"> </text>
<polyline fill="none" stroke="black" points="24,-493.5 122,-493.5 "/>
<text text-anchor="start" x="32" y="-481.5" font-family="Helvetica,sans-Serif" font-size="10.00"># nonassignable()</text>
<text text-anchor="start" x="32" y="-470.5" font-family="Helvetica,sans-Serif" font-size="10.00"># ~nonassignable()</text>
<text text-anchor="start" x="32" y="-459.5" font-family="Helvetica,sans-Serif" font-size="10.00"># nonassignable()</text>
<text text-anchor="start" x="32" y="-448.5" font-family="Helvetica,sans-Serif" font-size="10.00"># ~nonassignable()</text>
</a>
</g>
</g>
<!-- Node3&#45;&gt;Node2 -->
<g id="edge2" class="edge">
<title>Node3&#45;&gt;Node2</title>
<path fill="none" stroke="#8b1a1a" d="M66.64,-431.06C66.41,-422.63 66.28,-413.73 66.26,-404.78"/>
<polygon fill="none" stroke="#8b1a1a" points="63.15,-431.22 66.98,-441.1 70.14,-430.99 63.15,-431.22"/>
</g>
<!-- Node3&#45;&gt;Node2 -->
<g id="edge3" class="edge">
<title>Node3&#45;&gt;Node2</title>
<path fill="none" stroke="#8b1a1a" d="M79.36,-431.06C79.59,-422.63 79.72,-413.73 79.74,-404.78"/>
<polygon fill="none" stroke="#8b1a1a" points="75.86,-430.99 79.02,-441.1 82.85,-431.22 75.86,-430.99"/>
</g>
<!-- Node4 -->
<g id="node4" class="node">
<title>Node4</title>
<g id="a_node4"><a xlink:title=" ">
<polygon fill="none" stroke="#bfbfbf" points="164.5,-248.5 164.5,-382.5 271.5,-382.5 271.5,-248.5 164.5,-248.5"/>
<text text-anchor="start" x="172.5" y="-370.5" font-family="Helvetica,sans-Serif" font-size="10.00">iterator_base_traits</text>
<text text-anchor="start" x="172.5" y="-359.5" font-family="Helvetica,sans-Serif" font-size="10.00">&lt; M::const_iterator1</text>
<text text-anchor="start" x="172.5" y="-348.5" font-family="Helvetica,sans-Serif" font-size="10.00">::iterator_category &gt;</text>
<text text-anchor="middle" x="218" y="-337.5" font-family="Helvetica,sans-Serif" font-size="10.00">::template</text>
<text text-anchor="start" x="172.5" y="-326.5" font-family="Helvetica,sans-Serif" font-size="10.00"> </text>
<text text-anchor="start" x="172.5" y="-315.5" font-family="Helvetica,sans-Serif" font-size="10.00"> iterator_base&lt;</text>
<text text-anchor="start" x="172.5" y="-304.5" font-family="Helvetica,sans-Serif" font-size="10.00"> const_iterator, value</text>
<text text-anchor="middle" x="218" y="-293.5" font-family="Helvetica,sans-Serif" font-size="10.00">_type &gt;::type</text>
<polyline fill="none" stroke="#bfbfbf" points="164.5,-286.5 271.5,-286.5 "/>
<text text-anchor="middle" x="218" y="-274.5" font-family="Helvetica,sans-Serif" font-size="10.00"> </text>
<polyline fill="none" stroke="#bfbfbf" points="164.5,-267.5 271.5,-267.5 "/>
<text text-anchor="middle" x="218" y="-255.5" font-family="Helvetica,sans-Serif" font-size="10.00"> </text>
</a>
</g>
</g>
<!-- Node4&#45;&gt;Node1 -->
<g id="edge4" class="edge">
<title>Node4&#45;&gt;Node1</title>
<path fill="none" stroke="midnightblue" d="M192.67,-238.67C187.39,-222.89 181.78,-206.07 176.32,-189.73"/>
<polygon fill="none" stroke="midnightblue" points="189.41,-239.97 195.9,-248.35 196.05,-237.76 189.41,-239.97"/>
</g>
<!-- Node5 -->
<g id="node5" class="node">
<title>Node5</title>
<g id="a_node5"><a xlink:title=" ">
<polygon fill="none" stroke="#bfbfbf" points="290,-281.5 290,-349.5 430,-349.5 430,-281.5 290,-281.5"/>
<text text-anchor="start" x="298" y="-337.5" font-family="Helvetica,sans-Serif" font-size="10.00">iterator_base_traits</text>
<text text-anchor="middle" x="360" y="-326.5" font-family="Helvetica,sans-Serif" font-size="10.00">::template iterator_base::type</text>
<polyline fill="none" stroke="#bfbfbf" points="290,-319.5 430,-319.5 "/>
<text text-anchor="middle" x="360" y="-307.5" font-family="Helvetica,sans-Serif" font-size="10.00"> </text>
<polyline fill="none" stroke="#bfbfbf" points="290,-300.5 430,-300.5 "/>
<text text-anchor="middle" x="360" y="-288.5" font-family="Helvetica,sans-Serif" font-size="10.00"> </text>
</a>
</g>
</g>
<!-- Node5&#45;&gt;Node1 -->
<g id="edge6" class="edge">
<title>Node5&#45;&gt;Node1</title>
<path fill="none" stroke="midnightblue" d="M324.55,-273.44C311.16,-258.29 295.63,-241.13 281,-226 261.71,-206.04 240.23,-185 220.15,-165.8"/>
<polygon fill="none" stroke="midnightblue" points="322.11,-275.96 331.34,-281.15 327.37,-271.33 322.11,-275.96"/>
</g>
</g>
</svg>
