<?xml version="1.0" encoding="UTF-8" standalone="no"?>
<!DOCTYPE svg PUBLIC "-//W3C//DTD SVG 1.1//EN"
 "http://www.w3.org/Graphics/SVG/1.1/DTD/svg11.dtd">
<!-- Generated by graphviz version 2.48.0 (20210719.0153)
 -->
<!-- Title: boost::numeric::ublas::mapped_vector&lt; T, A &gt;::const_iterator Pages: 1 -->
<svg width="404pt" height="540pt"
 viewBox="0.00 0.00 403.50 540.00" xmlns="http://www.w3.org/2000/svg" xmlns:xlink="http://www.w3.org/1999/xlink">
<g id="graph0" class="graph" transform="scale(1 1) rotate(0) translate(4 536)">
<title>boost::numeric::ublas::mapped_vector&lt; T, A &gt;::const_iterator</title>
<!-- Node1 -->
<g id="node1" class="node">
<title>Node1</title>
<g id="a_node1"><a xlink:title=" ">
<polygon fill="#bfbfbf" stroke="black" points="96,-0.5 96,-189.5 210,-189.5 210,-0.5 96,-0.5"/>
<text text-anchor="start" x="104" y="-177.5" font-family="Helvetica,sans-Serif" font-size="10.00">boost::numeric::ublas</text>
<text text-anchor="start" x="104" y="-166.5" font-family="Helvetica,sans-Serif" font-size="10.00">::mapped_vector&lt; T, A</text>
<text text-anchor="middle" x="153" y="-155.5" font-family="Helvetica,sans-Serif" font-size="10.00"> &gt;::const_iterator</text>
<polyline fill="none" stroke="black" points="96,-148.5 210,-148.5 "/>
<text text-anchor="middle" x="153" y="-136.5" font-family="Helvetica,sans-Serif" font-size="10.00"> </text>
<polyline fill="none" stroke="black" points="96,-129.5 210,-129.5 "/>
<text text-anchor="start" x="104" y="-117.5" font-family="Helvetica,sans-Serif" font-size="10.00">+ const_iterator()</text>
<text text-anchor="start" x="104" y="-106.5" font-family="Helvetica,sans-Serif" font-size="10.00">+ const_iterator()</text>
<text text-anchor="start" x="104" y="-95.5" font-family="Helvetica,sans-Serif" font-size="10.00">+ const_iterator()</text>
<text text-anchor="start" x="104" y="-84.5" font-family="Helvetica,sans-Serif" font-size="10.00">+ operator++()</text>
<text text-anchor="start" x="104" y="-73.5" font-family="Helvetica,sans-Serif" font-size="10.00">+ operator&#45;&#45;()</text>
<text text-anchor="start" x="104" y="-62.5" font-family="Helvetica,sans-Serif" font-size="10.00">+ operator*()</text>
<text text-anchor="start" x="104" y="-51.5" font-family="Helvetica,sans-Serif" font-size="10.00">+ index()</text>
<text text-anchor="start" x="104" y="-40.5" font-family="Helvetica,sans-Serif" font-size="10.00">+ operator=()</text>
<text text-anchor="start" x="104" y="-29.5" font-family="Helvetica,sans-Serif" font-size="10.00">+ operator==()</text>
<text text-anchor="start" x="104" y="-18.5" font-family="Helvetica,sans-Serif" font-size="10.00">+ const_iterator()</text>
<text text-anchor="start" x="104" y="-7.5" font-family="Helvetica,sans-Serif" font-size="10.00">and 8 more...</text>
</a>
</g>
</g>
<!-- Node2 -->
<g id="node2" class="node">
<title>Node2</title>
<g id="a_node2"><a xlink:href="../../dc/d2f/classboost_1_1numeric_1_1ublas_1_1container__const__reference.html" target="_top" xlink:title=" ">
<polygon fill="none" stroke="black" points="0,-226.5 0,-404.5 146,-404.5 146,-226.5 0,-226.5"/>
<text text-anchor="start" x="8" y="-392.5" font-family="Helvetica,sans-Serif" font-size="10.00">boost::numeric::ublas</text>
<text text-anchor="start" x="8" y="-381.5" font-family="Helvetica,sans-Serif" font-size="10.00">::container_const_reference</text>
<text text-anchor="middle" x="73" y="-370.5" font-family="Helvetica,sans-Serif" font-size="10.00">&lt; mapped_vector &gt;</text>
<polyline fill="none" stroke="black" points="0,-363.5 146,-363.5 "/>
<text text-anchor="middle" x="73" y="-351.5" font-family="Helvetica,sans-Serif" font-size="10.00"> </text>
<polyline fill="none" stroke="black" points="0,-344.5 146,-344.5 "/>
<text text-anchor="start" x="8" y="-332.5" font-family="Helvetica,sans-Serif" font-size="10.00">+ container_const_reference()</text>
<text text-anchor="start" x="8" y="-321.5" font-family="Helvetica,sans-Serif" font-size="10.00">+ container_const_reference()</text>
<text text-anchor="start" x="8" y="-310.5" font-family="Helvetica,sans-Serif" font-size="10.00">+ container_const_reference()</text>
<text text-anchor="start" x="8" y="-299.5" font-family="Helvetica,sans-Serif" font-size="10.00">+ container_const_reference()</text>
<text text-anchor="start" x="8" y="-288.5" font-family="Helvetica,sans-Serif" font-size="10.00">+ operator()()</text>
<text text-anchor="start" x="8" y="-277.5" font-family="Helvetica,sans-Serif" font-size="10.00">+ operator()()</text>
<text text-anchor="start" x="8" y="-266.5" font-family="Helvetica,sans-Serif" font-size="10.00">+ assign()</text>
<text text-anchor="start" x="8" y="-255.5" font-family="Helvetica,sans-Serif" font-size="10.00">+ assign()</text>
<text text-anchor="start" x="8" y="-244.5" font-family="Helvetica,sans-Serif" font-size="10.00">+ same_closure()</text>
<text text-anchor="start" x="8" y="-233.5" font-family="Helvetica,sans-Serif" font-size="10.00">+ same_closure()</text>
</a>
</g>
</g>
<!-- Node2&#45;&gt;Node1 -->
<g id="edge1" class="edge">
<title>Node2&#45;&gt;Node1</title>
<path fill="none" stroke="midnightblue" d="M102.14,-216.57C105.37,-207.59 108.71,-198.51 112.05,-189.57"/>
<polygon fill="none" stroke="midnightblue" points="98.74,-215.66 98.67,-226.26 105.34,-218.02 98.74,-215.66"/>
</g>
<!-- Node2&#45;&gt;Node1 -->
<g id="edge7" class="edge">
<title>Node2&#45;&gt;Node1</title>
<path fill="none" stroke="midnightblue" d="M115.47,-216.85C118.84,-207.78 122.19,-198.6 125.43,-189.57"/>
<polygon fill="none" stroke="midnightblue" points="112.18,-215.67 111.95,-226.26 118.73,-218.12 112.18,-215.67"/>
</g>
<!-- Node3 -->
<g id="node3" class="node">
<title>Node3</title>
<g id="a_node3"><a xlink:href="../../d2/dbf/classboost_1_1numeric_1_1ublas_1_1nonassignable___1_1nonassignable.html" target="_top" xlink:title=" ">
<polygon fill="none" stroke="black" points="24,-441.5 24,-531.5 122,-531.5 122,-441.5 24,-441.5"/>
<text text-anchor="middle" x="73" y="-519.5" font-family="Helvetica,sans-Serif" font-size="10.00">nonassignable</text>
<polyline fill="none" stroke="black" points="24,-512.5 122,-512.5 "/>
<text text-anchor="middle" x="73" y="-500.5" font-family="Helvetica,sans-Serif" font-size="10.00"> </text>
<polyline fill="none" stroke="black" points="24,-493.5 122,-493.5 "/>
<text text-anchor="start" x="32" y="-481.5" font-family="Helvetica,sans-Serif" font-size="10.00"># nonassignable()</text>
<text text-anchor="start" x="32" y="-470.5" font-family="Helvetica,sans-Serif" font-size="10.00"># ~nonassignable()</text>
<text text-anchor="start" x="32" y="-459.5" font-family="Helvetica,sans-Serif" font-size="10.00"># nonassignable()</text>
<text text-anchor="start" x="32" y="-448.5" font-family="Helvetica,sans-Serif" font-size="10.00"># ~nonassignable()</text>
</a>
</g>
</g>
<!-- Node3&#45;&gt;Node2 -->
<g id="edge2" class="edge">
<title>Node3&#45;&gt;Node2</title>
<path fill="none" stroke="#8b1a1a" d="M66.64,-431.06C66.41,-422.63 66.28,-413.73 66.26,-404.78"/>
<polygon fill="none" stroke="#8b1a1a" points="63.15,-431.22 66.98,-441.1 70.14,-430.99 63.15,-431.22"/>
</g>
<!-- Node3&#45;&gt;Node2 -->
<g id="edge3" class="edge">
<title>Node3&#45;&gt;Node2</title>
<path fill="none" stroke="#8b1a1a" d="M79.36,-431.06C79.59,-422.63 79.72,-413.73 79.74,-404.78"/>
<polygon fill="none" stroke="#8b1a1a" points="75.86,-430.99 79.02,-441.1 82.85,-431.22 75.86,-430.99"/>
</g>
<!-- Node4 -->
<g id="node4" class="node">
<title>Node4</title>
<g id="a_node4"><a xlink:href="../../da/dc7/structboost_1_1numeric_1_1ublas_1_1bidirectional__iterator__base.html" target="_top" xlink:title=" ">
<polygon fill="none" stroke="black" points="164,-237.5 164,-393.5 302,-393.5 302,-237.5 164,-237.5"/>
<text text-anchor="start" x="172" y="-381.5" font-family="Helvetica,sans-Serif" font-size="10.00">boost::numeric::ublas</text>
<text text-anchor="start" x="172" y="-370.5" font-family="Helvetica,sans-Serif" font-size="10.00">::bidirectional_iterator</text>
<text text-anchor="start" x="172" y="-359.5" font-family="Helvetica,sans-Serif" font-size="10.00">_base&lt; sparse_bidirectional</text>
<text text-anchor="start" x="172" y="-348.5" font-family="Helvetica,sans-Serif" font-size="10.00">_iterator_tag, const_iterator,</text>
<text text-anchor="middle" x="233" y="-337.5" font-family="Helvetica,sans-Serif" font-size="10.00"> value_type &gt;</text>
<polyline fill="none" stroke="black" points="164,-330.5 302,-330.5 "/>
<text text-anchor="middle" x="233" y="-318.5" font-family="Helvetica,sans-Serif" font-size="10.00"> </text>
<polyline fill="none" stroke="black" points="164,-311.5 302,-311.5 "/>
<text text-anchor="start" x="172" y="-299.5" font-family="Helvetica,sans-Serif" font-size="10.00">+ operator++()</text>
<text text-anchor="start" x="172" y="-288.5" font-family="Helvetica,sans-Serif" font-size="10.00">+ operator++()</text>
<text text-anchor="start" x="172" y="-277.5" font-family="Helvetica,sans-Serif" font-size="10.00">+ operator&#45;&#45;()</text>
<text text-anchor="start" x="172" y="-266.5" font-family="Helvetica,sans-Serif" font-size="10.00">+ operator&#45;&#45;()</text>
<text text-anchor="start" x="172" y="-255.5" font-family="Helvetica,sans-Serif" font-size="10.00">+ operator!=()</text>
<text text-anchor="start" x="172" y="-244.5" font-family="Helvetica,sans-Serif" font-size="10.00">+ operator!=()</text>
</a>
</g>
</g>
<!-- Node4&#45;&gt;Node1 -->
<g id="edge4" class="edge">
<title>Node4&#45;&gt;Node1</title>
<path fill="none" stroke="midnightblue" d="M194.68,-227.93C189.92,-215.33 185.13,-202.31 180.58,-189.58"/>
<polygon fill="none" stroke="midnightblue" points="191.49,-229.36 198.31,-237.47 198.03,-226.87 191.49,-229.36"/>
</g>
<!-- Node4&#45;&gt;Node1 -->
<g id="edge8" class="edge">
<title>Node4&#45;&gt;Node1</title>
<path fill="none" stroke="midnightblue" d="M207.92,-227.93C203.46,-215.33 198.71,-202.31 193.95,-189.58"/>
<polygon fill="none" stroke="midnightblue" points="204.66,-229.19 211.28,-237.47 211.26,-226.87 204.66,-229.19"/>
</g>
<!-- Node5 -->
<g id="node5" class="node">
<title>Node5</title>
<g id="a_node5"><a xlink:title=" ">
<polygon fill="none" stroke="#bfbfbf" points="159.5,-447 159.5,-526 268.5,-526 268.5,-447 159.5,-447"/>
<text text-anchor="start" x="167.5" y="-514" font-family="Helvetica,sans-Serif" font-size="10.00">std::iterator&lt; sparse</text>
<text text-anchor="start" x="167.5" y="-503" font-family="Helvetica,sans-Serif" font-size="10.00">_bidirectional_iterator</text>
<text text-anchor="middle" x="214" y="-492" font-family="Helvetica,sans-Serif" font-size="10.00">_tag , value_type &gt;</text>
<polyline fill="none" stroke="#bfbfbf" points="159.5,-485 268.5,-485 "/>
<text text-anchor="middle" x="214" y="-473" font-family="Helvetica,sans-Serif" font-size="10.00"> </text>
<polyline fill="none" stroke="#bfbfbf" points="159.5,-466 268.5,-466 "/>
<text text-anchor="middle" x="214" y="-454" font-family="Helvetica,sans-Serif" font-size="10.00"> </text>
</a>
</g>
</g>
<!-- Node5&#45;&gt;Node4 -->
<g id="edge5" class="edge">
<title>Node5&#45;&gt;Node4</title>
<path fill="none" stroke="midnightblue" d="M219.48,-436.76C220.99,-423.31 222.67,-408.37 224.32,-393.73"/>
<polygon fill="none" stroke="midnightblue" points="216,-436.4 218.36,-446.73 222.95,-437.18 216,-436.4"/>
</g>
<!-- Node6 -->
<g id="node6" class="node">
<title>Node6</title>
<g id="a_node6"><a xlink:title=" ">
<polygon fill="none" stroke="#bfbfbf" points="286.5,-447 286.5,-526 395.5,-526 395.5,-447 286.5,-447"/>
<text text-anchor="start" x="294.5" y="-514" font-family="Helvetica,sans-Serif" font-size="10.00">std::iterator&lt; sparse</text>
<text text-anchor="start" x="294.5" y="-503" font-family="Helvetica,sans-Serif" font-size="10.00">_bidirectional_iterator</text>
<text text-anchor="middle" x="341" y="-492" font-family="Helvetica,sans-Serif" font-size="10.00">_tag, value_type &gt;</text>
<polyline fill="none" stroke="#bfbfbf" points="286.5,-485 395.5,-485 "/>
<text text-anchor="middle" x="341" y="-473" font-family="Helvetica,sans-Serif" font-size="10.00"> </text>
<polyline fill="none" stroke="#bfbfbf" points="286.5,-466 395.5,-466 "/>
<text text-anchor="middle" x="341" y="-454" font-family="Helvetica,sans-Serif" font-size="10.00"> </text>
</a>
</g>
</g>
<!-- Node6&#45;&gt;Node4 -->
<g id="edge6" class="edge">
<title>Node6&#45;&gt;Node4</title>
<path fill="none" stroke="midnightblue" d="M310.61,-437.94C301.82,-424.19 291.99,-408.81 282.36,-393.73"/>
<polygon fill="none" stroke="midnightblue" points="307.89,-440.19 316.22,-446.73 313.79,-436.42 307.89,-440.19"/>
</g>
</g>
</svg>
