<?xml version="1.0" encoding="UTF-8" standalone="no"?>
<!DOCTYPE svg PUBLIC "-//W3C//DTD SVG 1.1//EN"
 "http://www.w3.org/Graphics/SVG/1.1/DTD/svg11.dtd">
<!-- Generated by graphviz version 2.48.0 (20210719.0153)
 -->
<!-- Title: boost::numeric::ublas::matrix_indirect&lt; M, IA &gt; Pages: 1 -->
<svg width="138pt" height="474pt"
 viewBox="0.00 0.00 138.00 474.00" xmlns="http://www.w3.org/2000/svg" xmlns:xlink="http://www.w3.org/1999/xlink">
<g id="graph0" class="graph" transform="scale(1 1) rotate(0) translate(4 470)">
<title>boost::numeric::ublas::matrix_indirect&lt; M, IA &gt;</title>
<!-- Node1 -->
<g id="node1" class="node">
<title>Node1</title>
<g id="a_node1"><a xlink:title=" ">
<polygon fill="#bfbfbf" stroke="black" points="3,-0.5 3,-178.5 127,-178.5 127,-0.5 3,-0.5"/>
<text text-anchor="start" x="11" y="-166.5" font-family="Helvetica,sans-Serif" font-size="10.00">boost::numeric::ublas</text>
<text text-anchor="middle" x="65" y="-155.5" font-family="Helvetica,sans-Serif" font-size="10.00">::matrix_indirect&lt; M, IA &gt;</text>
<polyline fill="none" stroke="black" points="3,-148.5 127,-148.5 "/>
<text text-anchor="middle" x="65" y="-136.5" font-family="Helvetica,sans-Serif" font-size="10.00"> </text>
<polyline fill="none" stroke="black" points="3,-129.5 127,-129.5 "/>
<text text-anchor="start" x="11" y="-117.5" font-family="Helvetica,sans-Serif" font-size="10.00">+ matrix_indirect()</text>
<text text-anchor="start" x="11" y="-106.5" font-family="Helvetica,sans-Serif" font-size="10.00">+ matrix_indirect()</text>
<text text-anchor="start" x="11" y="-95.5" font-family="Helvetica,sans-Serif" font-size="10.00">+ matrix_indirect()</text>
<text text-anchor="start" x="11" y="-84.5" font-family="Helvetica,sans-Serif" font-size="10.00">+ size1()</text>
<text text-anchor="start" x="11" y="-73.5" font-family="Helvetica,sans-Serif" font-size="10.00">+ size2()</text>
<text text-anchor="start" x="11" y="-62.5" font-family="Helvetica,sans-Serif" font-size="10.00">+ indirect1()</text>
<text text-anchor="start" x="11" y="-51.5" font-family="Helvetica,sans-Serif" font-size="10.00">+ indirect1()</text>
<text text-anchor="start" x="11" y="-40.5" font-family="Helvetica,sans-Serif" font-size="10.00">+ indirect2()</text>
<text text-anchor="start" x="11" y="-29.5" font-family="Helvetica,sans-Serif" font-size="10.00">+ indirect2()</text>
<text text-anchor="start" x="11" y="-18.5" font-family="Helvetica,sans-Serif" font-size="10.00">+ data()</text>
<text text-anchor="start" x="11" y="-7.5" font-family="Helvetica,sans-Serif" font-size="10.00">and 88 more...</text>
</a>
</g>
</g>
<!-- Node2 -->
<g id="node2" class="node">
<title>Node2</title>
<g id="a_node2"><a xlink:href="../../d9/da6/classboost_1_1numeric_1_1ublas_1_1matrix__expression.html" target="_top" xlink:title=" ">
<polygon fill="none" stroke="black" points="0,-215.5 0,-327.5 130,-327.5 130,-215.5 0,-215.5"/>
<text text-anchor="start" x="8" y="-315.5" font-family="Helvetica,sans-Serif" font-size="10.00">boost::numeric::ublas</text>
<text text-anchor="start" x="8" y="-304.5" font-family="Helvetica,sans-Serif" font-size="10.00">::matrix_expression&lt;</text>
<text text-anchor="middle" x="65" y="-293.5" font-family="Helvetica,sans-Serif" font-size="10.00"> matrix_indirect&lt; M, IA &gt; &gt;</text>
<polyline fill="none" stroke="black" points="0,-286.5 130,-286.5 "/>
<text text-anchor="start" x="8" y="-274.5" font-family="Helvetica,sans-Serif" font-size="10.00">+ complexity</text>
<polyline fill="none" stroke="black" points="0,-267.5 130,-267.5 "/>
<text text-anchor="start" x="8" y="-255.5" font-family="Helvetica,sans-Serif" font-size="10.00">+ operator()()</text>
<text text-anchor="start" x="8" y="-244.5" font-family="Helvetica,sans-Serif" font-size="10.00">+ operator()()</text>
<text text-anchor="start" x="8" y="-233.5" font-family="Helvetica,sans-Serif" font-size="10.00">+ operator()()</text>
<text text-anchor="start" x="8" y="-222.5" font-family="Helvetica,sans-Serif" font-size="10.00">+ operator()()</text>
</a>
</g>
</g>
<!-- Node2&#45;&gt;Node1 -->
<g id="edge1" class="edge">
<title>Node2&#45;&gt;Node1</title>
<path fill="none" stroke="midnightblue" d="M58.47,-204.79C58.31,-196.25 58.24,-187.4 58.25,-178.57"/>
<polygon fill="none" stroke="midnightblue" points="54.98,-205.11 58.71,-215.03 61.98,-204.95 54.98,-205.11"/>
</g>
<!-- Node2&#45;&gt;Node1 -->
<g id="edge4" class="edge">
<title>Node2&#45;&gt;Node1</title>
<path fill="none" stroke="midnightblue" d="M71.53,-204.79C71.69,-196.25 71.76,-187.4 71.75,-178.57"/>
<polygon fill="none" stroke="midnightblue" points="68.02,-204.95 71.29,-215.03 75.02,-205.11 68.02,-204.95"/>
</g>
<!-- Node3 -->
<g id="node3" class="node">
<title>Node3</title>
<g id="a_node3"><a xlink:href="../../dd/db7/classboost_1_1numeric_1_1ublas_1_1ublas__expression.html" target="_top" xlink:title=" ">
<polygon fill="none" stroke="black" points="5.5,-364.5 5.5,-465.5 124.5,-465.5 124.5,-364.5 5.5,-364.5"/>
<text text-anchor="start" x="13.5" y="-453.5" font-family="Helvetica,sans-Serif" font-size="10.00">boost::numeric::ublas</text>
<text text-anchor="middle" x="65" y="-442.5" font-family="Helvetica,sans-Serif" font-size="10.00">::ublas_expression&lt; E &gt;</text>
<polyline fill="none" stroke="black" points="5.5,-435.5 124.5,-435.5 "/>
<text text-anchor="middle" x="65" y="-423.5" font-family="Helvetica,sans-Serif" font-size="10.00"> </text>
<polyline fill="none" stroke="black" points="5.5,-416.5 124.5,-416.5 "/>
<text text-anchor="start" x="13.5" y="-404.5" font-family="Helvetica,sans-Serif" font-size="10.00"># ublas_expression()</text>
<text text-anchor="start" x="13.5" y="-393.5" font-family="Helvetica,sans-Serif" font-size="10.00"># ~ublas_expression()</text>
<text text-anchor="start" x="13.5" y="-382.5" font-family="Helvetica,sans-Serif" font-size="10.00"># ublas_expression()</text>
<text text-anchor="start" x="13.5" y="-371.5" font-family="Helvetica,sans-Serif" font-size="10.00"># ~ublas_expression()</text>
</a>
</g>
</g>
<!-- Node3&#45;&gt;Node2 -->
<g id="edge2" class="edge">
<title>Node3&#45;&gt;Node2</title>
<path fill="none" stroke="midnightblue" d="M58.32,-354.01C58.21,-345.29 58.23,-336.34 58.4,-327.72"/>
<polygon fill="none" stroke="midnightblue" points="54.82,-354.18 58.52,-364.11 61.82,-354.05 54.82,-354.18"/>
</g>
<!-- Node3&#45;&gt;Node2 -->
<g id="edge3" class="edge">
<title>Node3&#45;&gt;Node2</title>
<path fill="none" stroke="midnightblue" d="M71.68,-354.01C71.79,-345.29 71.77,-336.34 71.6,-327.72"/>
<polygon fill="none" stroke="midnightblue" points="68.18,-354.05 71.48,-364.11 75.18,-354.18 68.18,-354.05"/>
</g>
</g>
</svg>
