<?xml version="1.0" encoding="UTF-8" standalone="no"?>
<!DOCTYPE svg PUBLIC "-//W3C//DTD SVG 1.1//EN"
 "http://www.w3.org/Graphics/SVG/1.1/DTD/svg11.dtd">
<!-- Generated by graphviz version 2.48.0 (20210719.0153)
 -->
<!-- Title: boost::numeric::ublas::scalar_identity&lt; T &gt; Pages: 1 -->
<svg width="142pt" height="193pt"
 viewBox="0.00 0.00 142.00 193.00" xmlns="http://www.w3.org/2000/svg" xmlns:xlink="http://www.w3.org/1999/xlink">
<g id="graph0" class="graph" transform="scale(1 1) rotate(0) translate(4 189)">
<title>boost::numeric::ublas::scalar_identity&lt; T &gt;</title>
<!-- Node1 -->
<g id="node1" class="node">
<title>Node1</title>
<g id="a_node1"><a xlink:title=" ">
<polygon fill="#bfbfbf" stroke="black" points="13.5,-0.5 13.5,-79.5 120.5,-79.5 120.5,-0.5 13.5,-0.5"/>
<text text-anchor="start" x="21.5" y="-67.5" font-family="Helvetica,sans-Serif" font-size="10.00">boost::numeric::ublas</text>
<text text-anchor="middle" x="67" y="-56.5" font-family="Helvetica,sans-Serif" font-size="10.00">::scalar_identity&lt; T &gt;</text>
<polyline fill="none" stroke="black" points="13.5,-49.5 120.5,-49.5 "/>
<text text-anchor="middle" x="67" y="-37.5" font-family="Helvetica,sans-Serif" font-size="10.00"> </text>
<polyline fill="none" stroke="black" points="13.5,-30.5 120.5,-30.5 "/>
<text text-anchor="start" x="21.5" y="-18.5" font-family="Helvetica,sans-Serif" font-size="10.00">+ apply()</text>
<text text-anchor="start" x="21.5" y="-7.5" font-family="Helvetica,sans-Serif" font-size="10.00">+ apply()</text>
</a>
</g>
</g>
<!-- Node2 -->
<g id="node2" class="node">
<title>Node2</title>
<g id="a_node2"><a xlink:href="../../de/dbf/structboost_1_1numeric_1_1ublas_1_1scalar__unary__functor.html" target="_top" xlink:title=" ">
<polygon fill="none" stroke="black" points="0,-116.5 0,-184.5 134,-184.5 134,-116.5 0,-116.5"/>
<text text-anchor="start" x="8" y="-172.5" font-family="Helvetica,sans-Serif" font-size="10.00">boost::numeric::ublas</text>
<text text-anchor="middle" x="67" y="-161.5" font-family="Helvetica,sans-Serif" font-size="10.00">::scalar_unary_functor&lt; T &gt;</text>
<polyline fill="none" stroke="black" points="0,-154.5 134,-154.5 "/>
<text text-anchor="middle" x="67" y="-142.5" font-family="Helvetica,sans-Serif" font-size="10.00"> </text>
<polyline fill="none" stroke="black" points="0,-135.5 134,-135.5 "/>
<text text-anchor="middle" x="67" y="-123.5" font-family="Helvetica,sans-Serif" font-size="10.00"> </text>
</a>
</g>
</g>
<!-- Node2&#45;&gt;Node1 -->
<g id="edge1" class="edge">
<title>Node2&#45;&gt;Node1</title>
<path fill="none" stroke="midnightblue" d="M60.38,-106.27C60.17,-97.48 60.22,-88.28 60.5,-79.65"/>
<polygon fill="none" stroke="midnightblue" points="56.88,-106.48 60.73,-116.36 63.88,-106.24 56.88,-106.48"/>
</g>
<!-- Node2&#45;&gt;Node1 -->
<g id="edge2" class="edge">
<title>Node2&#45;&gt;Node1</title>
<path fill="none" stroke="midnightblue" d="M73.62,-106.27C73.83,-97.48 73.78,-88.28 73.5,-79.65"/>
<polygon fill="none" stroke="midnightblue" points="70.12,-106.24 73.27,-116.36 77.12,-106.48 70.12,-106.24"/>
</g>
</g>
</svg>
