<?xml version="1.0" encoding="UTF-8" standalone="no"?>
<!DOCTYPE svg PUBLIC "-//W3C//DTD SVG 1.1//EN"
 "http://www.w3.org/Graphics/SVG/1.1/DTD/svg11.dtd">
<!-- Generated by graphviz version 2.48.0 (20210719.0153)
 -->
<!-- Title: /github/workspace/kratos/containers/variable_component.h Pages: 1 -->
<!--zoomable 263 -->
<svg id="main" version="1.1" xmlns="http://www.w3.org/2000/svg" xmlns:xlink="http://www.w3.org/1999/xlink" xml:space="preserve" onload="init(evt)">
<style type="text/css"><![CDATA[
.edge:hover path { stroke: red; }
.edge:hover polygon { stroke: red; fill: red; }
]]></style>
<script type="text/javascript"><![CDATA[
var edges = document.getElementsByTagName('g');
if (edges && edges.length) {
  for (var i=0;i<edges.length;i++) {
    if (edges[i].id.substr(0,4)=='edge') {
      edges[i].setAttribute('class','edge');
    }
  }
}
]]></script>
        <defs>
                <circle id="rim" cx="0" cy="0" r="7"/>
                <circle id="rim2" cx="0" cy="0" r="3.5"/>
                <g id="zoomPlus">
                        <use xlink:href="#rim" fill="#404040">
                                <set attributeName="fill" to="#808080" begin="zoomplus.mouseover" end="zoomplus.mouseout"/>
                        </use>
                        <path d="M-4,0h8M0,-4v8" fill="none" stroke="white" stroke-width="1.5" pointer-events="none"/>
                </g>
                <g id="zoomMin">
                        <use xlink:href="#rim" fill="#404040">
                                <set attributeName="fill" to="#808080" begin="zoomminus.mouseover" end="zoomminus.mouseout"/>
                        </use>
                        <path d="M-4,0h8" fill="none" stroke="white" stroke-width="1.5" pointer-events="none"/>
                </g>
                <g id="dirArrow">
                        <path fill="none" stroke="white" stroke-width="1.5" d="M0,-3.0v7 M-2.5,-0.5L0,-3.0L2.5,-0.5"/>
                </g>
               <g id="resetDef">
                       <use xlink:href="#rim2" fill="#404040">
                               <set attributeName="fill" to="#808080" begin="reset.mouseover" end="reset.mouseout"/>
                       </use>
               </g>
        </defs>

<script type="text/javascript">
var viewWidth = 630;
var viewHeight = 263;
var sectionId = 'dynsection-0';
</script>
<script xlink:href="../../svgpan.js"/>
<svg id="graph" class="graph">
<g id="viewport">
<title>/github/workspace/kratos/containers/variable_component.h</title>
<!-- Node1 -->
<g id="node1" class="node">
<title>Node1</title>
<g id="a_node1"><a xlink:title=" ">
<polygon fill="#bfbfbf" stroke="black" points="175.95,-224.5 175.95,-254.5 337.95,-254.5 337.95,-224.5 175.95,-224.5"/>
<text text-anchor="start" x="183.95" y="-242.5" font-family="Helvetica,sans-Serif" font-size="10.00">/github/workspace/kratos</text>
<text text-anchor="middle" x="256.95" y="-231.5" font-family="Helvetica,sans-Serif" font-size="10.00">/containers/variable_component.h</text>
</a>
</g>
</g>
<!-- Node2 -->
<g id="node2" class="node">
<title>Node2</title>
<g id="a_node2"><a xlink:title=" ">
<polygon fill="none" stroke="#bfbfbf" points="70.45,-56.5 70.45,-75.5 111.45,-75.5 111.45,-56.5 70.45,-56.5"/>
<text text-anchor="middle" x="90.95" y="-63.5" font-family="Helvetica,sans-Serif" font-size="10.00">string</text>
</a>
</g>
</g>
<!-- Node1&#45;&gt;Node2 -->
<g id="edge1" class="edge">
<title>Node1&#45;&gt;Node2</title>
<path fill="none" stroke="midnightblue" d="M175.93,-228.99C116.53,-217.2 40.17,-190.85 3.95,-132 -12.55,-105.2 29.46,-85.71 60.69,-75.4"/>
<polygon fill="midnightblue" stroke="midnightblue" points="61.87,-78.7 70.37,-72.37 59.78,-72.02 61.87,-78.7"/>
</g>
<!-- Node3 -->
<g id="node3" class="node">
<title>Node3</title>
<g id="a_node3"><a xlink:title=" ">
<polygon fill="none" stroke="#bfbfbf" points="165.95,-56.5 165.95,-75.5 219.95,-75.5 219.95,-56.5 165.95,-56.5"/>
<text text-anchor="middle" x="192.95" y="-63.5" font-family="Helvetica,sans-Serif" font-size="10.00">iostream</text>
</a>
</g>
</g>
<!-- Node1&#45;&gt;Node3 -->
<g id="edge2" class="edge">
<title>Node1&#45;&gt;Node3</title>
<path fill="none" stroke="midnightblue" d="M260.8,-224.22C266.6,-199.69 274.99,-148.64 255.95,-112 248.82,-98.28 235.37,-87.8 222.72,-80.42"/>
<polygon fill="midnightblue" stroke="midnightblue" points="224.22,-77.25 213.76,-75.59 220.9,-83.42 224.22,-77.25"/>
</g>
<!-- Node4 -->
<g id="node4" class="node">
<title>Node4</title>
<g id="a_node4"><a xlink:href="../../df/d67/define_8h.html" target="_top" xlink:title=" ">
<polygon fill="none" stroke="black" points="238.45,-56.5 238.45,-75.5 327.45,-75.5 327.45,-56.5 238.45,-56.5"/>
<text text-anchor="middle" x="282.95" y="-63.5" font-family="Helvetica,sans-Serif" font-size="10.00">includes/define.h</text>
</a>
</g>
</g>
<!-- Node1&#45;&gt;Node4 -->
<g id="edge3" class="edge">
<title>Node1&#45;&gt;Node4</title>
<path fill="none" stroke="midnightblue" d="M288.29,-224.44C302.87,-216.11 318.76,-204.01 326.95,-188 342.33,-157.93 339.7,-143.28 326.95,-112 322.15,-100.23 312.62,-89.86 303.65,-82.05"/>
<polygon fill="midnightblue" stroke="midnightblue" points="305.7,-79.2 295.73,-75.63 301.3,-84.64 305.7,-79.2"/>
</g>
<!-- Node10 -->
<g id="node10" class="node">
<title>Node10</title>
<g id="a_node10"><a xlink:href="../../d3/dc3/variable__data_8h.html" target="_top" xlink:title=" ">
<polygon fill="none" stroke="black" points="123.95,-168.5 123.95,-187.5 205.95,-187.5 205.95,-168.5 123.95,-168.5"/>
<text text-anchor="middle" x="164.95" y="-175.5" font-family="Helvetica,sans-Serif" font-size="10.00">variable_data.h</text>
</a>
</g>
</g>
<!-- Node1&#45;&gt;Node10 -->
<g id="edge9" class="edge">
<title>Node1&#45;&gt;Node10</title>
<path fill="none" stroke="midnightblue" d="M235.15,-224.4C220.54,-214.95 201.38,-202.56 186.76,-193.11"/>
<polygon fill="midnightblue" stroke="midnightblue" points="188.63,-190.15 178.34,-187.66 184.83,-196.03 188.63,-190.15"/>
</g>
<!-- Node5 -->
<g id="node5" class="node">
<title>Node5</title>
<g id="a_node5"><a xlink:title=" ">
<polygon fill="none" stroke="#bfbfbf" points="83.45,-0.5 83.45,-19.5 142.45,-19.5 142.45,-0.5 83.45,-0.5"/>
<text text-anchor="middle" x="112.95" y="-7.5" font-family="Helvetica,sans-Serif" font-size="10.00">stdexcept</text>
</a>
</g>
</g>
<!-- Node4&#45;&gt;Node5 -->
<g id="edge4" class="edge">
<title>Node4&#45;&gt;Node5</title>
<path fill="none" stroke="midnightblue" d="M256.01,-56.44C227.29,-47.32 181.62,-32.81 149.63,-22.65"/>
<polygon fill="midnightblue" stroke="midnightblue" points="150.35,-19.21 139.76,-19.52 148.23,-25.88 150.35,-19.21"/>
</g>
<!-- Node6 -->
<g id="node6" class="node">
<title>Node6</title>
<g id="a_node6"><a xlink:title=" ">
<polygon fill="none" stroke="#bfbfbf" points="160.95,-0.5 160.95,-19.5 212.95,-19.5 212.95,-0.5 160.95,-0.5"/>
<text text-anchor="middle" x="186.95" y="-7.5" font-family="Helvetica,sans-Serif" font-size="10.00">sstream</text>
</a>
</g>
</g>
<!-- Node4&#45;&gt;Node6 -->
<g id="edge5" class="edge">
<title>Node4&#45;&gt;Node6</title>
<path fill="none" stroke="midnightblue" d="M267.52,-56.32C252.41,-47.82 229.13,-34.73 211.48,-24.8"/>
<polygon fill="midnightblue" stroke="midnightblue" points="212.77,-21.51 202.33,-19.65 209.33,-27.61 212.77,-21.51"/>
</g>
<!-- Node7 -->
<g id="node7" class="node">
<title>Node7</title>
<g id="a_node7"><a xlink:title=" ">
<polygon fill="none" stroke="#bfbfbf" points="231.45,-0.5 231.45,-19.5 334.45,-19.5 334.45,-0.5 231.45,-0.5"/>
<text text-anchor="middle" x="282.95" y="-7.5" font-family="Helvetica,sans-Serif" font-size="10.00">boost/smart_ptr.hpp</text>
</a>
</g>
</g>
<!-- Node4&#45;&gt;Node7 -->
<g id="edge6" class="edge">
<title>Node4&#45;&gt;Node7</title>
<path fill="none" stroke="midnightblue" d="M282.95,-56.08C282.95,-49.01 282.95,-38.86 282.95,-29.99"/>
<polygon fill="midnightblue" stroke="midnightblue" points="286.45,-29.75 282.95,-19.75 279.45,-29.75 286.45,-29.75"/>
</g>
<!-- Node8 -->
<g id="node8" class="node">
<title>Node8</title>
<g id="a_node8"><a xlink:title=" ">
<polygon fill="none" stroke="#bfbfbf" points="352.45,-0.5 352.45,-19.5 483.45,-19.5 483.45,-0.5 352.45,-0.5"/>
<text text-anchor="middle" x="417.95" y="-7.5" font-family="Helvetica,sans-Serif" font-size="10.00">boost/current_function.hpp</text>
</a>
</g>
</g>
<!-- Node4&#45;&gt;Node8 -->
<g id="edge7" class="edge">
<title>Node4&#45;&gt;Node8</title>
<path fill="none" stroke="midnightblue" d="M304.34,-56.44C326.66,-47.52 361.85,-33.44 387.16,-23.32"/>
<polygon fill="midnightblue" stroke="midnightblue" points="388.67,-26.48 396.66,-19.52 386.07,-19.98 388.67,-26.48"/>
</g>
<!-- Node9 -->
<g id="node9" class="node">
<title>Node9</title>
<g id="a_node9"><a xlink:href="../../de/d17/kratos__config_8h.html" target="_top" xlink:title=" ">
<polygon fill="none" stroke="black" points="501.45,-0.5 501.45,-19.5 622.45,-19.5 622.45,-0.5 501.45,-0.5"/>
<text text-anchor="middle" x="561.95" y="-7.5" font-family="Helvetica,sans-Serif" font-size="10.00">includes/kratos_config.h</text>
</a>
</g>
</g>
<!-- Node4&#45;&gt;Node9 -->
<g id="edge8" class="edge">
<title>Node4&#45;&gt;Node9</title>
<path fill="none" stroke="midnightblue" d="M327.16,-56.44C376.24,-46.94 455.46,-31.61 508.11,-21.42"/>
<polygon fill="midnightblue" stroke="midnightblue" points="508.79,-24.85 517.95,-19.52 507.46,-17.98 508.79,-24.85"/>
</g>
<!-- Node10&#45;&gt;Node2 -->
<g id="edge10" class="edge">
<title>Node10&#45;&gt;Node2</title>
<path fill="none" stroke="midnightblue" d="M159.14,-168.37C146.93,-150.22 118.4,-107.8 102.38,-83.99"/>
<polygon fill="midnightblue" stroke="midnightblue" points="105.21,-81.94 96.73,-75.59 99.41,-85.84 105.21,-81.94"/>
</g>
<!-- Node10&#45;&gt;Node3 -->
<g id="edge11" class="edge">
<title>Node10&#45;&gt;Node3</title>
<path fill="none" stroke="midnightblue" d="M159.22,-168.34C151.58,-155.65 139.91,-131.4 147.95,-112 152.87,-100.12 162.62,-89.74 171.78,-81.96"/>
<polygon fill="midnightblue" stroke="midnightblue" points="174.2,-84.51 179.88,-75.56 169.87,-79.01 174.2,-84.51"/>
</g>
<!-- Node10&#45;&gt;Node4 -->
<g id="edge13" class="edge">
<title>Node10&#45;&gt;Node4</title>
<path fill="none" stroke="midnightblue" d="M194.53,-168.45C214.18,-161.44 239.32,-149.75 255.95,-132 268.08,-119.05 275.13,-99.88 278.97,-85.71"/>
<polygon fill="midnightblue" stroke="midnightblue" points="282.46,-86.18 281.39,-75.64 275.65,-84.54 282.46,-86.18"/>
</g>
<!-- Node11 -->
<g id="node11" class="node">
<title>Node11</title>
<g id="a_node11"><a xlink:title=" ">
<polygon fill="none" stroke="#bfbfbf" points="13.45,-112.5 13.45,-131.5 62.45,-131.5 62.45,-112.5 13.45,-112.5"/>
<text text-anchor="middle" x="37.95" y="-119.5" font-family="Helvetica,sans-Serif" font-size="10.00">cstddef</text>
</a>
</g>
</g>
<!-- Node10&#45;&gt;Node11 -->
<g id="edge12" class="edge">
<title>Node10&#45;&gt;Node11</title>
<path fill="none" stroke="midnightblue" d="M144.83,-168.44C123.92,-159.56 91.01,-145.56 67.23,-135.45"/>
<polygon fill="midnightblue" stroke="midnightblue" points="68.55,-132.21 57.98,-131.52 65.81,-138.65 68.55,-132.21"/>
</g>
<!-- Node12 -->
<g id="node12" class="node">
<title>Node12</title>
<g id="a_node12"><a xlink:href="../../d7/da2/counter_8h.html" target="_top" xlink:title=" ">
<polygon fill="none" stroke="black" points="156.95,-112.5 156.95,-131.5 246.95,-131.5 246.95,-112.5 156.95,-112.5"/>
<text text-anchor="middle" x="201.95" y="-119.5" font-family="Helvetica,sans-Serif" font-size="10.00">utilities/counter.h</text>
</a>
</g>
</g>
<!-- Node10&#45;&gt;Node12 -->
<g id="edge14" class="edge">
<title>Node10&#45;&gt;Node12</title>
<path fill="none" stroke="midnightblue" d="M171.06,-168.08C176.23,-160.53 183.8,-149.49 190.14,-140.23"/>
<polygon fill="midnightblue" stroke="midnightblue" points="193.19,-141.98 195.95,-131.75 187.41,-138.02 193.19,-141.98"/>
</g>
<!-- Node12&#45;&gt;Node2 -->
<g id="edge15" class="edge">
<title>Node12&#45;&gt;Node2</title>
<path fill="none" stroke="midnightblue" d="M184.11,-112.32C166.23,-103.62 138.47,-90.12 117.9,-80.11"/>
<polygon fill="midnightblue" stroke="midnightblue" points="119.26,-76.88 108.74,-75.65 116.2,-83.18 119.26,-76.88"/>
</g>
<!-- Node12&#45;&gt;Node3 -->
<g id="edge16" class="edge">
<title>Node12&#45;&gt;Node3</title>
<path fill="none" stroke="midnightblue" d="M200.46,-112.08C199.27,-104.93 197.55,-94.64 196.06,-85.69"/>
<polygon fill="midnightblue" stroke="midnightblue" points="199.5,-85.04 194.41,-75.75 192.6,-86.19 199.5,-85.04"/>
</g>
<!-- Node12&#45;&gt;Node4 -->
<g id="edge17" class="edge">
<title>Node12&#45;&gt;Node4</title>
<path fill="none" stroke="midnightblue" d="M214.96,-112.32C227.48,-103.98 246.63,-91.21 261.42,-81.35"/>
<polygon fill="midnightblue" stroke="midnightblue" points="263.59,-84.11 269.97,-75.65 259.71,-78.29 263.59,-84.11"/>
</g>
</g>
</svg>
        <g id="navigator" transform="translate(0 0)" fill="#404254">
                <rect fill="#f2f5e9" fill-opacity="0.5" stroke="#606060" stroke-width=".5" x="0" y="0" width="60" height="60"/>
                <use id="zoomplus" xlink:href="#zoomPlus" x="17" y="9" onmousedown="handleZoom(evt,'in')"/>
                <use id="zoomminus" xlink:href="#zoomMin" x="42" y="9" onmousedown="handleZoom(evt,'out')"/>
                <use id="reset" xlink:href="#resetDef" x="30" y="36" onmousedown="handleReset()"/>
                <g id="arrowUp" xlink:href="#dirArrow" transform="translate(30 24)" onmousedown="handlePan(0,-1)">
                  <use xlink:href="#rim" fill="#404040">
                        <set attributeName="fill" to="#808080" begin="arrowUp.mouseover" end="arrowUp.mouseout"/>
                  </use>
                  <path fill="none" stroke="white" stroke-width="1.5" d="M0,-3.0v7 M-2.5,-0.5L0,-3.0L2.5,-0.5"/>
                </g>
                <g id="arrowRight" xlink:href="#dirArrow" transform="rotate(90) translate(36 -43)" onmousedown="handlePan(1,0)">
                  <use xlink:href="#rim" fill="#404040">
                        <set attributeName="fill" to="#808080" begin="arrowRight.mouseover" end="arrowRight.mouseout"/>
                  </use>
                  <path fill="none" stroke="white" stroke-width="1.5" d="M0,-3.0v7 M-2.5,-0.5L0,-3.0L2.5,-0.5"/>
                </g>
                <g id="arrowDown" xlink:href="#dirArrow" transform="rotate(180) translate(-30 -48)" onmousedown="handlePan(0,1)">
                  <use xlink:href="#rim" fill="#404040">
                        <set attributeName="fill" to="#808080" begin="arrowDown.mouseover" end="arrowDown.mouseout"/>
                  </use>
                  <path fill="none" stroke="white" stroke-width="1.5" d="M0,-3.0v7 M-2.5,-0.5L0,-3.0L2.5,-0.5"/>
                </g>
                <g id="arrowLeft" xlink:href="#dirArrow" transform="rotate(270) translate(-36 17)" onmousedown="handlePan(-1,0)">
                  <use xlink:href="#rim" fill="#404040">
                        <set attributeName="fill" to="#808080" begin="arrowLeft.mouseover" end="arrowLeft.mouseout"/>
                  </use>
                  <path fill="none" stroke="white" stroke-width="1.5" d="M0,-3.0v7 M-2.5,-0.5L0,-3.0L2.5,-0.5"/>
                </g>
        </g>
        <svg viewBox="0 0 15 15" width="100%" height="30px" preserveAspectRatio="xMaxYMin meet">
         <g id="arrow_out" transform="scale(0.3 0.3)">
          <a xlink:href="variable__component_8h__incl_org.svg" target="_base">
           <rect id="button" ry="5" rx="5" y="6" x="6" height="38" width="38"
                fill="#f2f5e9" fill-opacity="0.5" stroke="#606060" stroke-width="1.0"/>
           <path id="arrow"
             d="M 11.500037,31.436501 C 11.940474,20.09759 22.043105,11.32322 32.158766,21.979434 L 37.068811,17.246167 C 37.068811,17.246167 37.088388,32 37.088388,32 L 22.160133,31.978069 C 22.160133,31.978069 26.997745,27.140456 26.997745,27.140456 C 18.528582,18.264221 13.291696,25.230495 11.500037,31.436501 z"
             style="fill:#404040;"/>
          </a>
         </g>
        </svg>
</svg>
