<?xml version="1.0" encoding="UTF-8" standalone="no"?>
<!DOCTYPE svg PUBLIC "-//W3C//DTD SVG 1.1//EN"
 "http://www.w3.org/Graphics/SVG/1.1/DTD/svg11.dtd">
<!-- Generated by graphviz version 2.48.0 (20210719.0153)
 -->
<!-- Title: /github/workspace/applications/MeshingApplication/external_includes/trigen_mesh_suite.h Pages: 1 -->
<svg width="332pt" height="128pt"
 viewBox="0.00 0.00 332.00 128.00" xmlns="http://www.w3.org/2000/svg" xmlns:xlink="http://www.w3.org/1999/xlink">
<g id="graph0" class="graph" transform="scale(1 1) rotate(0) translate(4 124)">
<title>/github/workspace/applications/MeshingApplication/external_includes/trigen_mesh_suite.h</title>
<!-- Node1 -->
<g id="node1" class="node">
<title>Node1</title>
<g id="a_node1"><a xlink:title=" ">
<polygon fill="#bfbfbf" stroke="black" points="85,-78.5 85,-119.5 236,-119.5 236,-78.5 85,-78.5"/>
<text text-anchor="start" x="93" y="-107.5" font-family="Helvetica,sans-Serif" font-size="10.00">/github/workspace/applications</text>
<text text-anchor="start" x="93" y="-96.5" font-family="Helvetica,sans-Serif" font-size="10.00">/MeshingApplication/external</text>
<text text-anchor="middle" x="160.5" y="-85.5" font-family="Helvetica,sans-Serif" font-size="10.00">_includes/trigen_mesh_suite.h</text>
</a>
</g>
</g>
<!-- Node2 -->
<g id="node2" class="node">
<title>Node2</title>
<g id="a_node2"><a xlink:href="../../d9/d24/mesh__suites_8cpp.html" target="_top" xlink:title=" ">
<polygon fill="none" stroke="black" points="0,-0.5 0,-41.5 151,-41.5 151,-0.5 0,-0.5"/>
<text text-anchor="start" x="8" y="-29.5" font-family="Helvetica,sans-Serif" font-size="10.00">/github/workspace/applications</text>
<text text-anchor="start" x="8" y="-18.5" font-family="Helvetica,sans-Serif" font-size="10.00">/MeshingApplication/external</text>
<text text-anchor="middle" x="75.5" y="-7.5" font-family="Helvetica,sans-Serif" font-size="10.00">_includes/mesh_suites.cpp</text>
</a>
</g>
</g>
<!-- Node1&#45;&gt;Node2 -->
<g id="edge1" class="edge">
<title>Node1&#45;&gt;Node2</title>
<path fill="none" stroke="midnightblue" d="M130.85,-71.49C119.82,-61.63 107.52,-50.63 97.32,-41.51"/>
<polygon fill="midnightblue" stroke="midnightblue" points="128.82,-74.37 138.61,-78.43 133.49,-69.15 128.82,-74.37"/>
</g>
<!-- Node3 -->
<g id="node3" class="node">
<title>Node3</title>
<g id="a_node3"><a xlink:href="../../dd/d57/_u_l_fapplication_2custom__python_2add__meshers__to__python_8cpp.html" target="_top" xlink:title=" ">
<polygon fill="none" stroke="black" points="169,-0.5 169,-41.5 324,-41.5 324,-0.5 169,-0.5"/>
<text text-anchor="start" x="177" y="-29.5" font-family="Helvetica,sans-Serif" font-size="10.00">/github/workspace/applications</text>
<text text-anchor="start" x="177" y="-18.5" font-family="Helvetica,sans-Serif" font-size="10.00">/ULFapplication/custom_python</text>
<text text-anchor="middle" x="246.5" y="-7.5" font-family="Helvetica,sans-Serif" font-size="10.00">/add_meshers_to_python.cpp</text>
</a>
</g>
</g>
<!-- Node1&#45;&gt;Node3 -->
<g id="edge2" class="edge">
<title>Node1&#45;&gt;Node3</title>
<path fill="none" stroke="midnightblue" d="M190.17,-71.78C201.41,-61.84 214.01,-50.72 224.43,-41.51"/>
<polygon fill="midnightblue" stroke="midnightblue" points="187.82,-69.18 182.65,-78.43 192.46,-74.43 187.82,-69.18"/>
</g>
</g>
</svg>
