<?xml version="1.0" encoding="UTF-8" standalone="no"?>
<!DOCTYPE svg PUBLIC "-//W3C//DTD SVG 1.1//EN"
 "http://www.w3.org/Graphics/SVG/1.1/DTD/svg11.dtd">
<!-- Generated by graphviz version 2.48.0 (20210719.0153)
 -->
<!-- Title: /github/workspace/applications/ALEapplication/ale_application.h Pages: 1 -->
<!--zoomable 206 -->
<svg id="main" version="1.1" xmlns="http://www.w3.org/2000/svg" xmlns:xlink="http://www.w3.org/1999/xlink" xml:space="preserve" onload="init(evt)">
<style type="text/css"><![CDATA[
.edge:hover path { stroke: red; }
.edge:hover polygon { stroke: red; fill: red; }
]]></style>
<script type="text/javascript"><![CDATA[
var edges = document.getElementsByTagName('g');
if (edges && edges.length) {
  for (var i=0;i<edges.length;i++) {
    if (edges[i].id.substr(0,4)=='edge') {
      edges[i].setAttribute('class','edge');
    }
  }
}
]]></script>
        <defs>
                <circle id="rim" cx="0" cy="0" r="7"/>
                <circle id="rim2" cx="0" cy="0" r="3.5"/>
                <g id="zoomPlus">
                        <use xlink:href="#rim" fill="#404040">
                                <set attributeName="fill" to="#808080" begin="zoomplus.mouseover" end="zoomplus.mouseout"/>
                        </use>
                        <path d="M-4,0h8M0,-4v8" fill="none" stroke="white" stroke-width="1.5" pointer-events="none"/>
                </g>
                <g id="zoomMin">
                        <use xlink:href="#rim" fill="#404040">
                                <set attributeName="fill" to="#808080" begin="zoomminus.mouseover" end="zoomminus.mouseout"/>
                        </use>
                        <path d="M-4,0h8" fill="none" stroke="white" stroke-width="1.5" pointer-events="none"/>
                </g>
                <g id="dirArrow">
                        <path fill="none" stroke="white" stroke-width="1.5" d="M0,-3.0v7 M-2.5,-0.5L0,-3.0L2.5,-0.5"/>
                </g>
               <g id="resetDef">
                       <use xlink:href="#rim2" fill="#404040">
                               <set attributeName="fill" to="#808080" begin="reset.mouseover" end="reset.mouseout"/>
                       </use>
               </g>
        </defs>

<script type="text/javascript">
var viewWidth = 1306;
var viewHeight = 206;
var sectionId = 'dynsection-1';
</script>
<script xlink:href="../../svgpan.js"/>
<svg id="graph" class="graph">
<g id="viewport">
<title>/github/workspace/applications/ALEapplication/ale_application.h</title>
<!-- Node1 -->
<g id="node1" class="node">
<title>Node1</title>
<g id="a_node1"><a xlink:title=" ">
<polygon fill="#bfbfbf" stroke="black" points="612,-167.5 612,-197.5 772,-197.5 772,-167.5 612,-167.5"/>
<text text-anchor="start" x="620" y="-185.5" font-family="Helvetica,sans-Serif" font-size="10.00">/github/workspace/applications</text>
<text text-anchor="middle" x="692" y="-174.5" font-family="Helvetica,sans-Serif" font-size="10.00">/ALEapplication/ale_application.h</text>
</a>
</g>
</g>
<!-- Node2 -->
<g id="node2" class="node">
<title>Node2</title>
<g id="a_node2"><a xlink:href="../../dc/dd2/ale__application_8cpp.html" target="_top" xlink:title=" ">
<polygon fill="none" stroke="black" points="0,-89.5 0,-119.5 170,-119.5 170,-89.5 0,-89.5"/>
<text text-anchor="start" x="8" y="-107.5" font-family="Helvetica,sans-Serif" font-size="10.00">/github/workspace/applications</text>
<text text-anchor="middle" x="85" y="-96.5" font-family="Helvetica,sans-Serif" font-size="10.00">/ALEapplication/ale_application.cpp</text>
</a>
</g>
</g>
<!-- Node1&#45;&gt;Node2 -->
<g id="edge1" class="edge">
<title>Node1&#45;&gt;Node2</title>
<path fill="none" stroke="midnightblue" d="M601.84,-177.18C498.89,-171.2 325.73,-157.93 179,-131 163.2,-128.1 146.18,-123.84 131.03,-119.63"/>
<polygon fill="midnightblue" stroke="midnightblue" points="601.71,-180.68 611.89,-177.76 602.11,-173.69 601.71,-180.68"/>
</g>
<!-- Node3 -->
<g id="node3" class="node">
<title>Node3</title>
<g id="a_node3"><a xlink:href="../../d7/dc5/laplacian__meshmoving__element__2d_8cpp.html" target="_top" xlink:title=" ">
<polygon fill="none" stroke="black" points="188,-84 188,-125 380,-125 380,-84 188,-84"/>
<text text-anchor="start" x="196" y="-113" font-family="Helvetica,sans-Serif" font-size="10.00">/github/workspace/applications</text>
<text text-anchor="start" x="196" y="-102" font-family="Helvetica,sans-Serif" font-size="10.00">/ALEapplication/custom_elements</text>
<text text-anchor="middle" x="284" y="-91" font-family="Helvetica,sans-Serif" font-size="10.00">/laplacian_meshmoving_element_2d.cpp</text>
</a>
</g>
</g>
<!-- Node1&#45;&gt;Node3 -->
<g id="edge2" class="edge">
<title>Node1&#45;&gt;Node3</title>
<path fill="none" stroke="midnightblue" d="M602.07,-168.28C541.62,-158.95 460.27,-145.57 389,-131 380.09,-129.18 370.78,-127.13 361.55,-125.01"/>
<polygon fill="midnightblue" stroke="midnightblue" points="601.55,-171.74 611.96,-169.79 602.61,-164.82 601.55,-171.74"/>
</g>
<!-- Node4 -->
<g id="node4" class="node">
<title>Node4</title>
<g id="a_node4"><a xlink:href="../../d3/dde/laplacian__meshmoving__element__3d_8cpp.html" target="_top" xlink:title=" ">
<polygon fill="none" stroke="black" points="398,-84 398,-125 590,-125 590,-84 398,-84"/>
<text text-anchor="start" x="406" y="-113" font-family="Helvetica,sans-Serif" font-size="10.00">/github/workspace/applications</text>
<text text-anchor="start" x="406" y="-102" font-family="Helvetica,sans-Serif" font-size="10.00">/ALEapplication/custom_elements</text>
<text text-anchor="middle" x="494" y="-91" font-family="Helvetica,sans-Serif" font-size="10.00">/laplacian_meshmoving_element_3d.cpp</text>
</a>
</g>
</g>
<!-- Node1&#45;&gt;Node4 -->
<g id="edge3" class="edge">
<title>Node1&#45;&gt;Node4</title>
<path fill="none" stroke="midnightblue" d="M645.78,-163.76C615.62,-152.18 576.23,-137.06 545.14,-125.13"/>
<polygon fill="midnightblue" stroke="midnightblue" points="644.63,-167.07 655.22,-167.38 647.14,-160.53 644.63,-167.07"/>
</g>
<!-- Node5 -->
<g id="node5" class="node">
<title>Node5</title>
<g id="a_node5"><a xlink:href="../../d0/dc7/laplacian__meshmoving__strategy_8h.html" target="_top" xlink:title=" ">
<polygon fill="none" stroke="black" points="608,-78.5 608,-130.5 776,-130.5 776,-78.5 608,-78.5"/>
<text text-anchor="start" x="616" y="-118.5" font-family="Helvetica,sans-Serif" font-size="10.00">/github/workspace/applications</text>
<text text-anchor="start" x="616" y="-107.5" font-family="Helvetica,sans-Serif" font-size="10.00">/ALEapplication/custom_strategies</text>
<text text-anchor="start" x="616" y="-96.5" font-family="Helvetica,sans-Serif" font-size="10.00">/strategies/laplacian_meshmoving</text>
<text text-anchor="middle" x="692" y="-85.5" font-family="Helvetica,sans-Serif" font-size="10.00">_strategy.h</text>
</a>
</g>
</g>
<!-- Node1&#45;&gt;Node5 -->
<g id="edge4" class="edge">
<title>Node1&#45;&gt;Node5</title>
<path fill="none" stroke="midnightblue" d="M692,-157.14C692,-148.63 692,-139.07 692,-130.5"/>
<polygon fill="midnightblue" stroke="midnightblue" points="688.5,-157.2 692,-167.2 695.5,-157.21 688.5,-157.2"/>
</g>
<!-- Node7 -->
<g id="node7" class="node">
<title>Node7</title>
<g id="a_node7"><a xlink:href="../../dd/d22/ball__vertex__meshmoving_8h.html" target="_top" xlink:title=" ">
<polygon fill="none" stroke="black" points="794,-84 794,-125 950,-125 950,-84 794,-84"/>
<text text-anchor="start" x="802" y="-113" font-family="Helvetica,sans-Serif" font-size="10.00">/github/workspace/applications</text>
<text text-anchor="start" x="802" y="-102" font-family="Helvetica,sans-Serif" font-size="10.00">/ALEapplication/custom_utilities</text>
<text text-anchor="middle" x="872" y="-91" font-family="Helvetica,sans-Serif" font-size="10.00">/ball_vertex_meshmoving.h</text>
</a>
</g>
</g>
<!-- Node1&#45;&gt;Node7 -->
<g id="edge6" class="edge">
<title>Node1&#45;&gt;Node7</title>
<path fill="none" stroke="midnightblue" d="M734.73,-163.46C762.06,-151.92 797.49,-136.96 825.51,-125.13"/>
<polygon fill="midnightblue" stroke="midnightblue" points="733.29,-160.27 725.43,-167.38 736.01,-166.72 733.29,-160.27"/>
</g>
<!-- Node9 -->
<g id="node9" class="node">
<title>Node9</title>
<g id="a_node9"><a xlink:href="../../de/dfd/ball__vertex__meshmoving3_d_8h.html" target="_top" xlink:title=" ">
<polygon fill="none" stroke="black" points="968,-84 968,-125 1124,-125 1124,-84 968,-84"/>
<text text-anchor="start" x="976" y="-113" font-family="Helvetica,sans-Serif" font-size="10.00">/github/workspace/applications</text>
<text text-anchor="start" x="976" y="-102" font-family="Helvetica,sans-Serif" font-size="10.00">/ALEapplication/custom_utilities</text>
<text text-anchor="middle" x="1046" y="-91" font-family="Helvetica,sans-Serif" font-size="10.00">/ball_vertex_meshmoving3D.h</text>
</a>
</g>
</g>
<!-- Node1&#45;&gt;Node9 -->
<g id="edge8" class="edge">
<title>Node1&#45;&gt;Node9</title>
<path fill="none" stroke="midnightblue" d="M782.04,-166.74C834.03,-157.65 900.5,-145.07 959,-131 966.5,-129.2 974.31,-127.15 982.05,-125.02"/>
<polygon fill="midnightblue" stroke="midnightblue" points="781.43,-163.29 772.17,-168.45 782.63,-170.19 781.43,-163.29"/>
</g>
<!-- Node10 -->
<g id="node10" class="node">
<title>Node10</title>
<g id="a_node10"><a xlink:href="../../d7/d8b/move__mesh__utilities_8h.html" target="_top" xlink:title=" ">
<polygon fill="none" stroke="black" points="1142,-84 1142,-125 1298,-125 1298,-84 1142,-84"/>
<text text-anchor="start" x="1150" y="-113" font-family="Helvetica,sans-Serif" font-size="10.00">/github/workspace/applications</text>
<text text-anchor="start" x="1150" y="-102" font-family="Helvetica,sans-Serif" font-size="10.00">/ALEapplication/custom_utilities</text>
<text text-anchor="middle" x="1220" y="-91" font-family="Helvetica,sans-Serif" font-size="10.00">/move_mesh_utilities.h</text>
</a>
</g>
</g>
<!-- Node1&#45;&gt;Node10 -->
<g id="edge10" class="edge">
<title>Node1&#45;&gt;Node10</title>
<path fill="none" stroke="midnightblue" d="M782.44,-175.69C872.09,-168.87 1012.99,-155.27 1133,-131 1141.18,-129.35 1149.7,-127.28 1158.07,-125.05"/>
<polygon fill="midnightblue" stroke="midnightblue" points="782.02,-172.21 772.31,-176.45 782.54,-179.19 782.02,-172.21"/>
</g>
<!-- Node6 -->
<g id="node6" class="node">
<title>Node6</title>
<g id="a_node6"><a xlink:href="../../d4/d38/_a_l_eapplication_2custom__python_2add__custom__strategies__to__python_8cpp.html" target="_top" xlink:title=" ">
<polygon fill="none" stroke="black" points="599,-0.5 599,-41.5 785,-41.5 785,-0.5 599,-0.5"/>
<text text-anchor="start" x="607" y="-29.5" font-family="Helvetica,sans-Serif" font-size="10.00">/github/workspace/applications</text>
<text text-anchor="start" x="607" y="-18.5" font-family="Helvetica,sans-Serif" font-size="10.00">/ALEapplication/custom_python</text>
<text text-anchor="middle" x="692" y="-7.5" font-family="Helvetica,sans-Serif" font-size="10.00">/add_custom_strategies_to_python.cpp</text>
</a>
</g>
</g>
<!-- Node5&#45;&gt;Node6 -->
<g id="edge5" class="edge">
<title>Node5&#45;&gt;Node6</title>
<path fill="none" stroke="midnightblue" d="M692,-68.15C692,-59.05 692,-49.6 692,-41.63"/>
<polygon fill="midnightblue" stroke="midnightblue" points="688.5,-68.16 692,-78.16 695.5,-68.16 688.5,-68.16"/>
</g>
<!-- Node8 -->
<g id="node8" class="node">
<title>Node8</title>
<g id="a_node8"><a xlink:href="../../d2/d2b/_a_l_eapplication_2custom__python_2add__custom__utilities__to__python_8cpp.html" target="_top" xlink:title=" ">
<polygon fill="none" stroke="black" points="959,-0.5 959,-41.5 1133,-41.5 1133,-0.5 959,-0.5"/>
<text text-anchor="start" x="967" y="-29.5" font-family="Helvetica,sans-Serif" font-size="10.00">/github/workspace/applications</text>
<text text-anchor="start" x="967" y="-18.5" font-family="Helvetica,sans-Serif" font-size="10.00">/ALEapplication/custom_python</text>
<text text-anchor="middle" x="1046" y="-7.5" font-family="Helvetica,sans-Serif" font-size="10.00">/add_custom_utilities_to_python.cpp</text>
</a>
</g>
</g>
<!-- Node7&#45;&gt;Node8 -->
<g id="edge7" class="edge">
<title>Node7&#45;&gt;Node8</title>
<path fill="none" stroke="midnightblue" d="M922.96,-79.63C948.86,-67.5 979.92,-52.95 1004.36,-41.5"/>
<polygon fill="midnightblue" stroke="midnightblue" points="921.25,-76.57 913.68,-83.98 924.22,-82.91 921.25,-76.57"/>
</g>
<!-- Node9&#45;&gt;Node8 -->
<g id="edge9" class="edge">
<title>Node9&#45;&gt;Node8</title>
<path fill="none" stroke="midnightblue" d="M1046,-73.56C1046,-62.88 1046,-51.13 1046,-41.55"/>
<polygon fill="midnightblue" stroke="midnightblue" points="1042.5,-73.77 1046,-83.77 1049.5,-73.77 1042.5,-73.77"/>
</g>
<!-- Node10&#45;&gt;Node8 -->
<g id="edge11" class="edge">
<title>Node10&#45;&gt;Node8</title>
<path fill="none" stroke="midnightblue" d="M1169.04,-79.63C1143.14,-67.5 1112.08,-52.95 1087.64,-41.5"/>
<polygon fill="midnightblue" stroke="midnightblue" points="1167.78,-82.91 1178.32,-83.98 1170.75,-76.57 1167.78,-82.91"/>
</g>
</g>
</svg>
        <g id="navigator" transform="translate(0 0)" fill="#404254">
                <rect fill="#f2f5e9" fill-opacity="0.5" stroke="#606060" stroke-width=".5" x="0" y="0" width="60" height="60"/>
                <use id="zoomplus" xlink:href="#zoomPlus" x="17" y="9" onmousedown="handleZoom(evt,'in')"/>
                <use id="zoomminus" xlink:href="#zoomMin" x="42" y="9" onmousedown="handleZoom(evt,'out')"/>
                <use id="reset" xlink:href="#resetDef" x="30" y="36" onmousedown="handleReset()"/>
                <g id="arrowUp" xlink:href="#dirArrow" transform="translate(30 24)" onmousedown="handlePan(0,-1)">
                  <use xlink:href="#rim" fill="#404040">
                        <set attributeName="fill" to="#808080" begin="arrowUp.mouseover" end="arrowUp.mouseout"/>
                  </use>
                  <path fill="none" stroke="white" stroke-width="1.5" d="M0,-3.0v7 M-2.5,-0.5L0,-3.0L2.5,-0.5"/>
                </g>
                <g id="arrowRight" xlink:href="#dirArrow" transform="rotate(90) translate(36 -43)" onmousedown="handlePan(1,0)">
                  <use xlink:href="#rim" fill="#404040">
                        <set attributeName="fill" to="#808080" begin="arrowRight.mouseover" end="arrowRight.mouseout"/>
                  </use>
                  <path fill="none" stroke="white" stroke-width="1.5" d="M0,-3.0v7 M-2.5,-0.5L0,-3.0L2.5,-0.5"/>
                </g>
                <g id="arrowDown" xlink:href="#dirArrow" transform="rotate(180) translate(-30 -48)" onmousedown="handlePan(0,1)">
                  <use xlink:href="#rim" fill="#404040">
                        <set attributeName="fill" to="#808080" begin="arrowDown.mouseover" end="arrowDown.mouseout"/>
                  </use>
                  <path fill="none" stroke="white" stroke-width="1.5" d="M0,-3.0v7 M-2.5,-0.5L0,-3.0L2.5,-0.5"/>
                </g>
                <g id="arrowLeft" xlink:href="#dirArrow" transform="rotate(270) translate(-36 17)" onmousedown="handlePan(-1,0)">
                  <use xlink:href="#rim" fill="#404040">
                        <set attributeName="fill" to="#808080" begin="arrowLeft.mouseover" end="arrowLeft.mouseout"/>
                  </use>
                  <path fill="none" stroke="white" stroke-width="1.5" d="M0,-3.0v7 M-2.5,-0.5L0,-3.0L2.5,-0.5"/>
                </g>
        </g>
        <svg viewBox="0 0 15 15" width="100%" height="30px" preserveAspectRatio="xMaxYMin meet">
         <g id="arrow_out" transform="scale(0.3 0.3)">
          <a xlink:href="ale__application_8h__dep__incl_org.svg" target="_base">
           <rect id="button" ry="5" rx="5" y="6" x="6" height="38" width="38"
                fill="#f2f5e9" fill-opacity="0.5" stroke="#606060" stroke-width="1.0"/>
           <path id="arrow"
             d="M 11.500037,31.436501 C 11.940474,20.09759 22.043105,11.32322 32.158766,21.979434 L 37.068811,17.246167 C 37.068811,17.246167 37.088388,32 37.088388,32 L 22.160133,31.978069 C 22.160133,31.978069 26.997745,27.140456 26.997745,27.140456 C 18.528582,18.264221 13.291696,25.230495 11.500037,31.436501 z"
             style="fill:#404040;"/>
          </a>
         </g>
        </svg>
</svg>
