<?xml version="1.0" encoding="UTF-8" standalone="no"?>
<!DOCTYPE svg PUBLIC "-//W3C//DTD SVG 1.1//EN"
 "http://www.w3.org/Graphics/SVG/1.1/DTD/svg11.dtd">
<!-- Generated by graphviz version 2.48.0 (20210719.0153)
 -->
<!-- Title: /github/workspace/kratos/linear_solvers/preconditioner.h Pages: 1 -->
<!--zoomable 373 -->
<svg id="main" version="1.1" xmlns="http://www.w3.org/2000/svg" xmlns:xlink="http://www.w3.org/1999/xlink" xml:space="preserve" onload="init(evt)">
<style type="text/css"><![CDATA[
.edge:hover path { stroke: red; }
.edge:hover polygon { stroke: red; fill: red; }
]]></style>
<script type="text/javascript"><![CDATA[
var edges = document.getElementsByTagName('g');
if (edges && edges.length) {
  for (var i=0;i<edges.length;i++) {
    if (edges[i].id.substr(0,4)=='edge') {
      edges[i].setAttribute('class','edge');
    }
  }
}
]]></script>
        <defs>
                <circle id="rim" cx="0" cy="0" r="7"/>
                <circle id="rim2" cx="0" cy="0" r="3.5"/>
                <g id="zoomPlus">
                        <use xlink:href="#rim" fill="#404040">
                                <set attributeName="fill" to="#808080" begin="zoomplus.mouseover" end="zoomplus.mouseout"/>
                        </use>
                        <path d="M-4,0h8M0,-4v8" fill="none" stroke="white" stroke-width="1.5" pointer-events="none"/>
                </g>
                <g id="zoomMin">
                        <use xlink:href="#rim" fill="#404040">
                                <set attributeName="fill" to="#808080" begin="zoomminus.mouseover" end="zoomminus.mouseout"/>
                        </use>
                        <path d="M-4,0h8" fill="none" stroke="white" stroke-width="1.5" pointer-events="none"/>
                </g>
                <g id="dirArrow">
                        <path fill="none" stroke="white" stroke-width="1.5" d="M0,-3.0v7 M-2.5,-0.5L0,-3.0L2.5,-0.5"/>
                </g>
               <g id="resetDef">
                       <use xlink:href="#rim2" fill="#404040">
                               <set attributeName="fill" to="#808080" begin="reset.mouseover" end="reset.mouseout"/>
                       </use>
               </g>
        </defs>

<script type="text/javascript">
var viewWidth = 1217;
var viewHeight = 373;
var sectionId = 'dynsection-1';
</script>
<script xlink:href="../../svgpan.js"/>
<svg id="graph" class="graph">
<g id="viewport">
<title>/github/workspace/kratos/linear_solvers/preconditioner.h</title>
<!-- Node1 -->
<g id="node1" class="node">
<title>Node1</title>
<g id="a_node1"><a xlink:title=" ">
<polygon fill="#bfbfbf" stroke="black" points="191.4,-334.5 191.4,-364.5 342.4,-364.5 342.4,-334.5 191.4,-334.5"/>
<text text-anchor="start" x="199.4" y="-352.5" font-family="Helvetica,sans-Serif" font-size="10.00">/github/workspace/kratos</text>
<text text-anchor="middle" x="266.9" y="-341.5" font-family="Helvetica,sans-Serif" font-size="10.00">/linear_solvers/preconditioner.h</text>
</a>
</g>
</g>
<!-- Node2 -->
<g id="node2" class="node">
<title>Node2</title>
<g id="a_node2"><a xlink:href="../../da/df8/iterative__solver_8h.html" target="_top" xlink:title=" ">
<polygon fill="none" stroke="black" points="554.9,-256.5 554.9,-297.5 680.9,-297.5 680.9,-256.5 554.9,-256.5"/>
<text text-anchor="start" x="562.9" y="-285.5" font-family="Helvetica,sans-Serif" font-size="10.00">/github/workspace/kratos</text>
<text text-anchor="start" x="562.9" y="-274.5" font-family="Helvetica,sans-Serif" font-size="10.00">/linear_solvers/iterative</text>
<text text-anchor="middle" x="617.9" y="-263.5" font-family="Helvetica,sans-Serif" font-size="10.00">_solver.h</text>
</a>
</g>
</g>
<!-- Node1&#45;&gt;Node2 -->
<g id="edge1" class="edge">
<title>Node1&#45;&gt;Node2</title>
<path fill="none" stroke="midnightblue" d="M346.57,-332.5C409.61,-319.83 496.45,-302.39 554.75,-290.68"/>
<polygon fill="midnightblue" stroke="midnightblue" points="345.78,-329.09 336.66,-334.49 347.16,-335.95 345.78,-329.09"/>
</g>
<!-- Node4 -->
<g id="node4" class="node">
<title>Node4</title>
<g id="a_node4"><a xlink:href="../../d0/d87/kratos_2python_2add__linear__solvers__to__python_8cpp.html" target="_top" xlink:title=" ">
<polygon fill="none" stroke="black" points="228.9,-95 228.9,-136 360.9,-136 360.9,-95 228.9,-95"/>
<text text-anchor="start" x="236.9" y="-124" font-family="Helvetica,sans-Serif" font-size="10.00">/github/workspace/kratos</text>
<text text-anchor="start" x="236.9" y="-113" font-family="Helvetica,sans-Serif" font-size="10.00">/python/add_linear_solvers</text>
<text text-anchor="middle" x="294.9" y="-102" font-family="Helvetica,sans-Serif" font-size="10.00">_to_python.cpp</text>
</a>
</g>
</g>
<!-- Node1&#45;&gt;Node4 -->
<g id="edge21" class="edge">
<title>Node1&#45;&gt;Node4</title>
<path fill="none" stroke="midnightblue" d="M196.88,-331.83C102.89,-306.18 -45.76,-252.13 13.9,-178 40.35,-145.13 154.34,-128.85 228.76,-121.59"/>
<polygon fill="midnightblue" stroke="midnightblue" points="196.07,-335.23 206.64,-334.44 197.88,-328.47 196.07,-335.23"/>
</g>
<!-- Node3 -->
<g id="node3" class="node">
<title>Node3</title>
<g id="a_node3"><a xlink:href="../../df/d7f/bicgstab__solver_8h.html" target="_top" xlink:title=" ">
<polygon fill="none" stroke="black" points="22.9,-178.5 22.9,-219.5 148.9,-219.5 148.9,-178.5 22.9,-178.5"/>
<text text-anchor="start" x="30.9" y="-207.5" font-family="Helvetica,sans-Serif" font-size="10.00">/github/workspace/kratos</text>
<text text-anchor="start" x="30.9" y="-196.5" font-family="Helvetica,sans-Serif" font-size="10.00">/linear_solvers/bicgstab</text>
<text text-anchor="middle" x="85.9" y="-185.5" font-family="Helvetica,sans-Serif" font-size="10.00">_solver.h</text>
</a>
</g>
</g>
<!-- Node2&#45;&gt;Node3 -->
<g id="edge2" class="edge">
<title>Node2&#45;&gt;Node3</title>
<path fill="none" stroke="midnightblue" d="M544.31,-270.46C453.03,-262.81 292.95,-246.82 157.9,-220 154.97,-219.42 151.99,-218.78 148.98,-218.1"/>
<polygon fill="midnightblue" stroke="midnightblue" points="544.3,-273.97 554.55,-271.31 544.87,-267 544.3,-273.97"/>
</g>
<!-- Node5 -->
<g id="node5" class="node">
<title>Node5</title>
<g id="a_node5"><a xlink:href="../../db/d6a/cg__solver_8h.html" target="_top" xlink:title=" ">
<polygon fill="none" stroke="black" points="472.9,-184 472.9,-214 604.9,-214 604.9,-184 472.9,-184"/>
<text text-anchor="start" x="480.9" y="-202" font-family="Helvetica,sans-Serif" font-size="10.00">/github/workspace/kratos</text>
<text text-anchor="middle" x="538.9" y="-191" font-family="Helvetica,sans-Serif" font-size="10.00">/linear_solvers/cg_solver.h</text>
</a>
</g>
</g>
<!-- Node2&#45;&gt;Node5 -->
<g id="edge4" class="edge">
<title>Node2&#45;&gt;Node5</title>
<path fill="none" stroke="midnightblue" d="M590.17,-249.32C577.88,-237.51 563.93,-224.08 553.68,-214.23"/>
<polygon fill="midnightblue" stroke="midnightblue" points="587.92,-252.02 597.55,-256.43 592.77,-246.97 587.92,-252.02"/>
</g>
<!-- Node8 -->
<g id="node8" class="node">
<title>Node8</title>
<g id="a_node8"><a xlink:href="../../d7/d6f/deflated__cg__solver_8h.html" target="_top" xlink:title=" ">
<polygon fill="none" stroke="black" points="166.9,-178.5 166.9,-219.5 292.9,-219.5 292.9,-178.5 166.9,-178.5"/>
<text text-anchor="start" x="174.9" y="-207.5" font-family="Helvetica,sans-Serif" font-size="10.00">/github/workspace/kratos</text>
<text text-anchor="start" x="174.9" y="-196.5" font-family="Helvetica,sans-Serif" font-size="10.00">/linear_solvers/deflated</text>
<text text-anchor="middle" x="229.9" y="-185.5" font-family="Helvetica,sans-Serif" font-size="10.00">_cg_solver.h</text>
</a>
</g>
</g>
<!-- Node2&#45;&gt;Node8 -->
<g id="edge8" class="edge">
<title>Node2&#45;&gt;Node8</title>
<path fill="none" stroke="midnightblue" d="M544.85,-265.09C480.54,-255 384.55,-238.76 301.9,-220 298.99,-219.34 296.02,-218.64 293.03,-217.9"/>
<polygon fill="midnightblue" stroke="midnightblue" points="544.47,-268.57 554.89,-266.65 545.55,-261.65 544.47,-268.57"/>
</g>
<!-- Node9 -->
<g id="node9" class="node">
<title>Node9</title>
<g id="a_node9"><a xlink:href="../../d8/d82/power__iteration__eigenvalue__solver_8h.html" target="_top" xlink:title=" ">
<polygon fill="none" stroke="black" points="623.4,-178.5 623.4,-219.5 772.4,-219.5 772.4,-178.5 623.4,-178.5"/>
<text text-anchor="start" x="631.4" y="-207.5" font-family="Helvetica,sans-Serif" font-size="10.00">/github/workspace/kratos</text>
<text text-anchor="start" x="631.4" y="-196.5" font-family="Helvetica,sans-Serif" font-size="10.00">/linear_solvers/power_iteration</text>
<text text-anchor="middle" x="697.9" y="-185.5" font-family="Helvetica,sans-Serif" font-size="10.00">_eigenvalue_solver.h</text>
</a>
</g>
</g>
<!-- Node2&#45;&gt;Node9 -->
<g id="edge10" class="edge">
<title>Node2&#45;&gt;Node9</title>
<path fill="none" stroke="midnightblue" d="M645.8,-249.49C656.18,-239.63 667.76,-228.63 677.36,-219.51"/>
<polygon fill="midnightblue" stroke="midnightblue" points="643.34,-247 638.5,-256.43 648.16,-252.08 643.34,-247"/>
</g>
<!-- Node11 -->
<g id="node11" class="node">
<title>Node11</title>
<g id="a_node11"><a xlink:href="../../d8/dd9/tfqmr__solver_8h.html" target="_top" xlink:title=" ">
<polygon fill="none" stroke="black" points="310.9,-184 310.9,-214 454.9,-214 454.9,-184 310.9,-184"/>
<text text-anchor="start" x="318.9" y="-202" font-family="Helvetica,sans-Serif" font-size="10.00">/github/workspace/kratos</text>
<text text-anchor="middle" x="382.9" y="-191" font-family="Helvetica,sans-Serif" font-size="10.00">/linear_solvers/tfqmr_solver.h</text>
</a>
</g>
</g>
<!-- Node2&#45;&gt;Node11 -->
<g id="edge13" class="edge">
<title>Node2&#45;&gt;Node11</title>
<path fill="none" stroke="midnightblue" d="M547.57,-253.26C508.25,-240.54 460.46,-225.08 426.52,-214.11"/>
<polygon fill="midnightblue" stroke="midnightblue" points="546.79,-256.68 557.38,-256.43 548.94,-250.02 546.79,-256.68"/>
</g>
<!-- Node12 -->
<g id="node12" class="node">
<title>Node12</title>
<g id="a_node12"><a xlink:href="../../d3/dcd/applications_2_external_solvers_application_2custom__python_2add__linear__solvers__to__python_8cpp.html" target="_top" xlink:title=" ">
<polygon fill="none" stroke="black" points="819.9,-89.5 819.9,-141.5 989.9,-141.5 989.9,-89.5 819.9,-89.5"/>
<text text-anchor="start" x="827.9" y="-129.5" font-family="Helvetica,sans-Serif" font-size="10.00">/github/workspace/applications</text>
<text text-anchor="start" x="827.9" y="-118.5" font-family="Helvetica,sans-Serif" font-size="10.00">/ExternalSolversApplication</text>
<text text-anchor="start" x="827.9" y="-107.5" font-family="Helvetica,sans-Serif" font-size="10.00">/custom_python/add_linear_solvers</text>
<text text-anchor="middle" x="904.9" y="-96.5" font-family="Helvetica,sans-Serif" font-size="10.00">_to_python.cpp</text>
</a>
</g>
</g>
<!-- Node2&#45;&gt;Node12 -->
<g id="edge15" class="edge">
<title>Node2&#45;&gt;Node12</title>
<path fill="none" stroke="midnightblue" d="M691.08,-259.4C720.53,-250.6 753.86,-237.84 780.9,-220 801.91,-206.14 800.11,-194.75 818.9,-178 833.42,-165.05 850.66,-152.28 865.88,-141.76"/>
<polygon fill="midnightblue" stroke="midnightblue" points="689.9,-256.1 681.26,-262.23 691.83,-262.82 689.9,-256.1"/>
</g>
<!-- Node13 -->
<g id="node13" class="node">
<title>Node13</title>
<g id="a_node13"><a xlink:href="../../dc/d68/gmres__solver_8h.html" target="_top" xlink:title=" ">
<polygon fill="none" stroke="black" points="827.9,-178.5 827.9,-219.5 991.9,-219.5 991.9,-178.5 827.9,-178.5"/>
<text text-anchor="start" x="835.9" y="-207.5" font-family="Helvetica,sans-Serif" font-size="10.00">/github/workspace/applications</text>
<text text-anchor="start" x="835.9" y="-196.5" font-family="Helvetica,sans-Serif" font-size="10.00">/ExternalSolversApplication</text>
<text text-anchor="middle" x="909.9" y="-185.5" font-family="Helvetica,sans-Serif" font-size="10.00">/external_includes/gmres_solver.h</text>
</a>
</g>
</g>
<!-- Node2&#45;&gt;Node13 -->
<g id="edge16" class="edge">
<title>Node2&#45;&gt;Node13</title>
<path fill="none" stroke="midnightblue" d="M690.65,-257.06C734.6,-245.62 790.5,-231.08 834.85,-219.53"/>
<polygon fill="midnightblue" stroke="midnightblue" points="689.69,-253.7 680.9,-259.6 691.46,-260.47 689.69,-253.7"/>
</g>
<!-- Node14 -->
<g id="node14" class="node">
<title>Node14</title>
<g id="a_node14"><a xlink:href="../../d3/da7/applications_2mkl__solvers__application_2custom__python_2add__linear__solvers__to__python_8cpp.html" target="_top" xlink:title=" ">
<polygon fill="none" stroke="black" points="1031.4,-89.5 1031.4,-141.5 1190.4,-141.5 1190.4,-89.5 1031.4,-89.5"/>
<text text-anchor="start" x="1039.4" y="-129.5" font-family="Helvetica,sans-Serif" font-size="10.00">/github/workspace/applications</text>
<text text-anchor="start" x="1039.4" y="-118.5" font-family="Helvetica,sans-Serif" font-size="10.00">/mkl_solvers_application/custom</text>
<text text-anchor="start" x="1039.4" y="-107.5" font-family="Helvetica,sans-Serif" font-size="10.00">_python/add_linear_solvers_to</text>
<text text-anchor="middle" x="1110.9" y="-96.5" font-family="Helvetica,sans-Serif" font-size="10.00">_python.cpp</text>
</a>
</g>
</g>
<!-- Node2&#45;&gt;Node14 -->
<g id="edge18" class="edge">
<title>Node2&#45;&gt;Node14</title>
<path fill="none" stroke="midnightblue" d="M691.31,-271.18C787.11,-263.89 948.7,-247.86 1000.9,-220 1023.1,-208.15 1020.84,-195.54 1038.9,-178 1051.75,-165.51 1066.71,-152.51 1079.65,-141.69"/>
<polygon fill="midnightblue" stroke="midnightblue" points="690.82,-267.71 681.1,-271.94 691.34,-274.69 690.82,-267.71"/>
</g>
<!-- Node15 -->
<g id="node15" class="node">
<title>Node15</title>
<g id="a_node15"><a xlink:href="../../d9/d96/mkl__gmres__solver_8h.html" target="_top" xlink:title=" ">
<polygon fill="none" stroke="black" points="1048.4,-178.5 1048.4,-219.5 1209.4,-219.5 1209.4,-178.5 1048.4,-178.5"/>
<text text-anchor="start" x="1056.4" y="-207.5" font-family="Helvetica,sans-Serif" font-size="10.00">/github/workspace/applications</text>
<text text-anchor="start" x="1056.4" y="-196.5" font-family="Helvetica,sans-Serif" font-size="10.00">/mkl_solvers_application/external</text>
<text text-anchor="middle" x="1128.9" y="-185.5" font-family="Helvetica,sans-Serif" font-size="10.00">_includes/mkl_gmres_solver.h</text>
</a>
</g>
</g>
<!-- Node2&#45;&gt;Node15 -->
<g id="edge19" class="edge">
<title>Node2&#45;&gt;Node15</title>
<path fill="none" stroke="midnightblue" d="M691.32,-267.77C774.63,-258.06 914.46,-240.58 1033.9,-220 1038.63,-219.18 1043.49,-218.3 1048.38,-217.38"/>
<polygon fill="midnightblue" stroke="midnightblue" points="690.72,-264.32 681.19,-268.95 691.53,-271.27 690.72,-264.32"/>
</g>
<!-- Node3&#45;&gt;Node4 -->
<g id="edge3" class="edge">
<title>Node3&#45;&gt;Node4</title>
<path fill="none" stroke="midnightblue" d="M145.48,-174.77C176.9,-162.51 215.01,-147.65 244.88,-136"/>
<polygon fill="midnightblue" stroke="midnightblue" points="144,-171.58 135.96,-178.48 146.55,-178.11 144,-171.58"/>
</g>
<!-- Node5&#45;&gt;Node4 -->
<g id="edge5" class="edge">
<title>Node5&#45;&gt;Node4</title>
<path fill="none" stroke="midnightblue" d="M487.34,-180.78C448.22,-167.71 394.41,-149.74 353.63,-136.12"/>
<polygon fill="midnightblue" stroke="midnightblue" points="486.36,-184.14 496.95,-183.99 488.58,-177.5 486.36,-184.14"/>
</g>
<!-- Node6 -->
<g id="node6" class="node">
<title>Node6</title>
<g id="a_node6"><a xlink:href="../../d7/d0e/node__snapping__utility_8h.html" target="_top" xlink:title=" ">
<polygon fill="none" stroke="black" points="438.9,-95 438.9,-136 594.9,-136 594.9,-95 438.9,-95"/>
<text text-anchor="start" x="446.9" y="-124" font-family="Helvetica,sans-Serif" font-size="10.00">/github/workspace/applications</text>
<text text-anchor="start" x="446.9" y="-113" font-family="Helvetica,sans-Serif" font-size="10.00">/structural_application/custom</text>
<text text-anchor="middle" x="516.9" y="-102" font-family="Helvetica,sans-Serif" font-size="10.00">_utilities/node_snapping_utility.h</text>
</a>
</g>
</g>
<!-- Node5&#45;&gt;Node6 -->
<g id="edge6" class="edge">
<title>Node5&#45;&gt;Node6</title>
<path fill="none" stroke="midnightblue" d="M532.4,-173.93C529.14,-161.85 525.24,-147.41 522.17,-136.03"/>
<polygon fill="midnightblue" stroke="midnightblue" points="529.08,-175.06 535.06,-183.8 535.84,-173.24 529.08,-175.06"/>
</g>
<!-- Node7 -->
<g id="node7" class="node">
<title>Node7</title>
<g id="a_node7"><a xlink:href="../../dd/dee/structural__application_2custom__python_2add__custom__utilities__to__python_8cpp.html" target="_top" xlink:title=" ">
<polygon fill="none" stroke="black" points="441.4,-0.5 441.4,-52.5 592.4,-52.5 592.4,-0.5 441.4,-0.5"/>
<text text-anchor="start" x="449.4" y="-40.5" font-family="Helvetica,sans-Serif" font-size="10.00">/github/workspace/applications</text>
<text text-anchor="start" x="449.4" y="-29.5" font-family="Helvetica,sans-Serif" font-size="10.00">/structural_application/custom</text>
<text text-anchor="start" x="449.4" y="-18.5" font-family="Helvetica,sans-Serif" font-size="10.00">_python/add_custom_utilities</text>
<text text-anchor="middle" x="516.9" y="-7.5" font-family="Helvetica,sans-Serif" font-size="10.00">_to_python.cpp</text>
</a>
</g>
</g>
<!-- Node6&#45;&gt;Node7 -->
<g id="edge7" class="edge">
<title>Node6&#45;&gt;Node7</title>
<path fill="none" stroke="midnightblue" d="M516.9,-84.51C516.9,-74.17 516.9,-62.71 516.9,-52.79"/>
<polygon fill="midnightblue" stroke="midnightblue" points="513.4,-84.76 516.9,-94.76 520.4,-84.76 513.4,-84.76"/>
</g>
<!-- Node8&#45;&gt;Node4 -->
<g id="edge9" class="edge">
<title>Node8&#45;&gt;Node4</title>
<path fill="none" stroke="midnightblue" d="M251.92,-170.38C260.92,-159.11 271.11,-146.33 279.31,-136.05"/>
<polygon fill="midnightblue" stroke="midnightblue" points="249.13,-168.27 245.63,-178.27 254.6,-172.64 249.13,-168.27"/>
</g>
<!-- Node9&#45;&gt;Node4 -->
<g id="edge11" class="edge">
<title>Node9&#45;&gt;Node4</title>
<path fill="none" stroke="midnightblue" d="M613.47,-178C567.66,-168.57 440.42,-144.23 361.04,-129.09"/>
<polygon fill="midnightblue" stroke="midnightblue" points="612.77,-181.43 623.28,-180.06 614.21,-174.58 612.77,-181.43"/>
</g>
<!-- Node10 -->
<g id="node10" class="node">
<title>Node10</title>
<g id="a_node10"><a xlink:href="../../dc/d9a/modal__analysis__builder__and__solver_8h.html" target="_top" xlink:title=" ">
<polygon fill="none" stroke="black" points="612.9,-89.5 612.9,-141.5 792.9,-141.5 792.9,-89.5 612.9,-89.5"/>
<text text-anchor="start" x="620.9" y="-129.5" font-family="Helvetica,sans-Serif" font-size="10.00">/github/workspace/applications</text>
<text text-anchor="start" x="620.9" y="-118.5" font-family="Helvetica,sans-Serif" font-size="10.00">/structural_application/custom</text>
<text text-anchor="start" x="620.9" y="-107.5" font-family="Helvetica,sans-Serif" font-size="10.00">_strategies/builder_and_solvers</text>
<text text-anchor="middle" x="702.9" y="-96.5" font-family="Helvetica,sans-Serif" font-size="10.00">/modal_analysis_builder_and_solver.h</text>
</a>
</g>
</g>
<!-- Node9&#45;&gt;Node10 -->
<g id="edge12" class="edge">
<title>Node9&#45;&gt;Node10</title>
<path fill="none" stroke="midnightblue" d="M699.73,-168.12C700.26,-159.41 700.84,-149.99 701.36,-141.61"/>
<polygon fill="midnightblue" stroke="midnightblue" points="696.23,-168.08 699.11,-178.27 703.21,-168.5 696.23,-168.08"/>
</g>
<!-- Node11&#45;&gt;Node4 -->
<g id="edge14" class="edge">
<title>Node11&#45;&gt;Node4</title>
<path fill="none" stroke="midnightblue" d="M360.02,-176.81C346.41,-164.21 329.26,-148.33 315.98,-136.03"/>
<polygon fill="midnightblue" stroke="midnightblue" points="357.85,-179.58 367.57,-183.8 362.61,-174.44 357.85,-179.58"/>
</g>
<!-- Node13&#45;&gt;Node12 -->
<g id="edge17" class="edge">
<title>Node13&#45;&gt;Node12</title>
<path fill="none" stroke="midnightblue" d="M908.06,-168.12C907.53,-159.41 906.95,-149.99 906.44,-141.61"/>
<polygon fill="midnightblue" stroke="midnightblue" points="904.58,-168.5 908.69,-178.27 911.57,-168.08 904.58,-168.5"/>
</g>
<!-- Node15&#45;&gt;Node14 -->
<g id="edge20" class="edge">
<title>Node15&#45;&gt;Node14</title>
<path fill="none" stroke="midnightblue" d="M1122.36,-168.41C1120.42,-159.62 1118.31,-150.08 1116.44,-141.61"/>
<polygon fill="midnightblue" stroke="midnightblue" points="1118.96,-169.26 1124.54,-178.27 1125.8,-167.75 1118.96,-169.26"/>
</g>
</g>
</svg>
        <g id="navigator" transform="translate(0 0)" fill="#404254">
                <rect fill="#f2f5e9" fill-opacity="0.5" stroke="#606060" stroke-width=".5" x="0" y="0" width="60" height="60"/>
                <use id="zoomplus" xlink:href="#zoomPlus" x="17" y="9" onmousedown="handleZoom(evt,'in')"/>
                <use id="zoomminus" xlink:href="#zoomMin" x="42" y="9" onmousedown="handleZoom(evt,'out')"/>
                <use id="reset" xlink:href="#resetDef" x="30" y="36" onmousedown="handleReset()"/>
                <g id="arrowUp" xlink:href="#dirArrow" transform="translate(30 24)" onmousedown="handlePan(0,-1)">
                  <use xlink:href="#rim" fill="#404040">
                        <set attributeName="fill" to="#808080" begin="arrowUp.mouseover" end="arrowUp.mouseout"/>
                  </use>
                  <path fill="none" stroke="white" stroke-width="1.5" d="M0,-3.0v7 M-2.5,-0.5L0,-3.0L2.5,-0.5"/>
                </g>
                <g id="arrowRight" xlink:href="#dirArrow" transform="rotate(90) translate(36 -43)" onmousedown="handlePan(1,0)">
                  <use xlink:href="#rim" fill="#404040">
                        <set attributeName="fill" to="#808080" begin="arrowRight.mouseover" end="arrowRight.mouseout"/>
                  </use>
                  <path fill="none" stroke="white" stroke-width="1.5" d="M0,-3.0v7 M-2.5,-0.5L0,-3.0L2.5,-0.5"/>
                </g>
                <g id="arrowDown" xlink:href="#dirArrow" transform="rotate(180) translate(-30 -48)" onmousedown="handlePan(0,1)">
                  <use xlink:href="#rim" fill="#404040">
                        <set attributeName="fill" to="#808080" begin="arrowDown.mouseover" end="arrowDown.mouseout"/>
                  </use>
                  <path fill="none" stroke="white" stroke-width="1.5" d="M0,-3.0v7 M-2.5,-0.5L0,-3.0L2.5,-0.5"/>
                </g>
                <g id="arrowLeft" xlink:href="#dirArrow" transform="rotate(270) translate(-36 17)" onmousedown="handlePan(-1,0)">
                  <use xlink:href="#rim" fill="#404040">
                        <set attributeName="fill" to="#808080" begin="arrowLeft.mouseover" end="arrowLeft.mouseout"/>
                  </use>
                  <path fill="none" stroke="white" stroke-width="1.5" d="M0,-3.0v7 M-2.5,-0.5L0,-3.0L2.5,-0.5"/>
                </g>
        </g>
        <svg viewBox="0 0 15 15" width="100%" height="30px" preserveAspectRatio="xMaxYMin meet">
         <g id="arrow_out" transform="scale(0.3 0.3)">
          <a xlink:href="preconditioner_8h__dep__incl_org.svg" target="_base">
           <rect id="button" ry="5" rx="5" y="6" x="6" height="38" width="38"
                fill="#f2f5e9" fill-opacity="0.5" stroke="#606060" stroke-width="1.0"/>
           <path id="arrow"
             d="M 11.500037,31.436501 C 11.940474,20.09759 22.043105,11.32322 32.158766,21.979434 L 37.068811,17.246167 C 37.068811,17.246167 37.088388,32 37.088388,32 L 22.160133,31.978069 C 22.160133,31.978069 26.997745,27.140456 26.997745,27.140456 C 18.528582,18.264221 13.291696,25.230495 11.500037,31.436501 z"
             style="fill:#404040;"/>
          </a>
         </g>
        </svg>
</svg>
