<?xml version="1.0" encoding="UTF-8" standalone="no"?>
<!DOCTYPE svg PUBLIC "-//W3C//DTD SVG 1.1//EN"
 "http://www.w3.org/Graphics/SVG/1.1/DTD/svg11.dtd">
<!-- Generated by graphviz version 2.48.0 (20210719.0153)
 -->
<!-- Title: /github/workspace/kratos/spaces/ublas_space.h Pages: 1 -->
<svg width="3411pt" height="306pt"
 viewBox="0.00 0.00 3410.50 306.00" xmlns="http://www.w3.org/2000/svg" xmlns:xlink="http://www.w3.org/1999/xlink">
<g id="graph0" class="graph" transform="scale(1 1) rotate(0) translate(4 302)">
<title>/github/workspace/kratos/spaces/ublas_space.h</title>
<!-- Node1 -->
<g id="node1" class="node">
<title>Node1</title>
<g id="a_node1"><a xlink:title=" ">
<polygon fill="#bfbfbf" stroke="black" points="1871.5,-267.5 1871.5,-297.5 1997.5,-297.5 1997.5,-267.5 1871.5,-267.5"/>
<text text-anchor="start" x="1879.5" y="-285.5" font-family="Helvetica,sans-Serif" font-size="10.00">/github/workspace/kratos</text>
<text text-anchor="middle" x="1934.5" y="-274.5" font-family="Helvetica,sans-Serif" font-size="10.00">/spaces/ublas_space.h</text>
</a>
</g>
</g>
<!-- Node2 -->
<g id="node2" class="node">
<title>Node2</title>
<g id="a_node2"><a xlink:href="../../d5/d1f/add__equation__systems__to__python_8cpp.html" target="_top" xlink:title=" ">
<polygon fill="none" stroke="black" points="0,-184 0,-225 151,-225 151,-184 0,-184"/>
<text text-anchor="start" x="8" y="-213" font-family="Helvetica,sans-Serif" font-size="10.00">/github/workspace/kratos</text>
<text text-anchor="start" x="8" y="-202" font-family="Helvetica,sans-Serif" font-size="10.00">/python/add_equation_systems</text>
<text text-anchor="middle" x="75.5" y="-191" font-family="Helvetica,sans-Serif" font-size="10.00">_to_python.cpp</text>
</a>
</g>
</g>
<!-- Node1&#45;&gt;Node2 -->
<g id="edge1" class="edge">
<title>Node1&#45;&gt;Node2</title>
<path fill="none" stroke="midnightblue" d="M1861.5,-281.97C1570.92,-283.47 496.06,-285.14 160.5,-231 151.68,-229.58 142.49,-227.49 133.56,-225.11"/>
<polygon fill="midnightblue" stroke="midnightblue" points="1861.52,-285.47 1871.5,-281.92 1861.48,-278.47 1861.52,-285.47"/>
</g>
<!-- Node3 -->
<g id="node3" class="node">
<title>Node3</title>
<g id="a_node3"><a xlink:href="../../d0/d87/kratos_2python_2add__linear__solvers__to__python_8cpp.html" target="_top" xlink:title=" ">
<polygon fill="none" stroke="black" points="169.5,-184 169.5,-225 301.5,-225 301.5,-184 169.5,-184"/>
<text text-anchor="start" x="177.5" y="-213" font-family="Helvetica,sans-Serif" font-size="10.00">/github/workspace/kratos</text>
<text text-anchor="start" x="177.5" y="-202" font-family="Helvetica,sans-Serif" font-size="10.00">/python/add_linear_solvers</text>
<text text-anchor="middle" x="235.5" y="-191" font-family="Helvetica,sans-Serif" font-size="10.00">_to_python.cpp</text>
</a>
</g>
</g>
<!-- Node1&#45;&gt;Node3 -->
<g id="edge2" class="edge">
<title>Node1&#45;&gt;Node3</title>
<path fill="none" stroke="midnightblue" d="M1860.85,-280.49C1564,-276.26 463.94,-258.83 310.5,-231 302.65,-229.58 294.51,-227.49 286.61,-225.11"/>
<polygon fill="midnightblue" stroke="midnightblue" points="1861.02,-284 1871.07,-280.64 1861.12,-277 1861.02,-284"/>
</g>
<!-- Node4 -->
<g id="node4" class="node">
<title>Node4</title>
<g id="a_node4"><a xlink:href="../../d8/dd7/add__strategies__to__python_8cpp.html" target="_top" xlink:title=" ">
<polygon fill="none" stroke="black" points="319.5,-184 319.5,-225 445.5,-225 445.5,-184 319.5,-184"/>
<text text-anchor="start" x="327.5" y="-213" font-family="Helvetica,sans-Serif" font-size="10.00">/github/workspace/kratos</text>
<text text-anchor="start" x="327.5" y="-202" font-family="Helvetica,sans-Serif" font-size="10.00">/python/add_strategies</text>
<text text-anchor="middle" x="382.5" y="-191" font-family="Helvetica,sans-Serif" font-size="10.00">_to_python.cpp</text>
</a>
</g>
</g>
<!-- Node1&#45;&gt;Node4 -->
<g id="edge3" class="edge">
<title>Node1&#45;&gt;Node4</title>
<path fill="none" stroke="midnightblue" d="M1861.36,-281.95C1602.22,-283.11 728.7,-282.95 454.5,-231 446.94,-229.57 439.11,-227.48 431.53,-225.1"/>
<polygon fill="midnightblue" stroke="midnightblue" points="1861.43,-285.45 1871.41,-281.91 1861.4,-278.45 1861.43,-285.45"/>
</g>
<!-- Node5 -->
<g id="node5" class="node">
<title>Node5</title>
<g id="a_node5"><a xlink:href="../../d4/d38/_a_l_eapplication_2custom__python_2add__custom__strategies__to__python_8cpp.html" target="_top" xlink:title=" ">
<polygon fill="none" stroke="black" points="463.5,-184 463.5,-225 649.5,-225 649.5,-184 463.5,-184"/>
<text text-anchor="start" x="471.5" y="-213" font-family="Helvetica,sans-Serif" font-size="10.00">/github/workspace/applications</text>
<text text-anchor="start" x="471.5" y="-202" font-family="Helvetica,sans-Serif" font-size="10.00">/ALEapplication/custom_python</text>
<text text-anchor="middle" x="556.5" y="-191" font-family="Helvetica,sans-Serif" font-size="10.00">/add_custom_strategies_to_python.cpp</text>
</a>
</g>
</g>
<!-- Node1&#45;&gt;Node5 -->
<g id="edge4" class="edge">
<title>Node1&#45;&gt;Node5</title>
<path fill="none" stroke="midnightblue" d="M1861.11,-280.58C1625.98,-277.3 893.13,-264.61 658.5,-231 648.11,-229.51 637.24,-227.41 626.63,-225.03"/>
<polygon fill="midnightblue" stroke="midnightblue" points="1861.21,-284.08 1871.26,-280.72 1861.31,-277.08 1861.21,-284.08"/>
</g>
<!-- Node6 -->
<g id="node6" class="node">
<title>Node6</title>
<g id="a_node6"><a xlink:href="../../d2/d2b/_a_l_eapplication_2custom__python_2add__custom__utilities__to__python_8cpp.html" target="_top" xlink:title=" ">
<polygon fill="none" stroke="black" points="667.5,-184 667.5,-225 841.5,-225 841.5,-184 667.5,-184"/>
<text text-anchor="start" x="675.5" y="-213" font-family="Helvetica,sans-Serif" font-size="10.00">/github/workspace/applications</text>
<text text-anchor="start" x="675.5" y="-202" font-family="Helvetica,sans-Serif" font-size="10.00">/ALEapplication/custom_python</text>
<text text-anchor="middle" x="754.5" y="-191" font-family="Helvetica,sans-Serif" font-size="10.00">/add_custom_utilities_to_python.cpp</text>
</a>
</g>
</g>
<!-- Node1&#45;&gt;Node6 -->
<g id="edge5" class="edge">
<title>Node1&#45;&gt;Node6</title>
<path fill="none" stroke="midnightblue" d="M1861.2,-280.12C1650.54,-275.83 1046.06,-261.17 850.5,-231 840.79,-229.5 830.64,-227.41 820.73,-225.05"/>
<polygon fill="midnightblue" stroke="midnightblue" points="1861.16,-283.62 1871.23,-280.32 1861.3,-276.62 1861.16,-283.62"/>
</g>
<!-- Node7 -->
<g id="node7" class="node">
<title>Node7</title>
<g id="a_node7"><a xlink:href="../../de/d74/convection__diffusion__application_2custom__python_2add__custom__strategies__to__python_8cpp.html" target="_top" xlink:title=" ">
<polygon fill="none" stroke="black" points="859.5,-178.5 859.5,-230.5 1049.5,-230.5 1049.5,-178.5 859.5,-178.5"/>
<text text-anchor="start" x="867.5" y="-218.5" font-family="Helvetica,sans-Serif" font-size="10.00">/github/workspace/applications</text>
<text text-anchor="start" x="867.5" y="-207.5" font-family="Helvetica,sans-Serif" font-size="10.00">/convection_diffusion_application</text>
<text text-anchor="start" x="867.5" y="-196.5" font-family="Helvetica,sans-Serif" font-size="10.00">/custom_python/add_custom_strategies</text>
<text text-anchor="middle" x="954.5" y="-185.5" font-family="Helvetica,sans-Serif" font-size="10.00">_to_python.cpp</text>
</a>
</g>
</g>
<!-- Node1&#45;&gt;Node7 -->
<g id="edge6" class="edge">
<title>Node1&#45;&gt;Node7</title>
<path fill="none" stroke="midnightblue" d="M1861.35,-281.78C1710.39,-281.38 1353.76,-275.33 1058.5,-231 1055.56,-230.56 1052.58,-230.07 1049.58,-229.55"/>
<polygon fill="midnightblue" stroke="midnightblue" points="1861.42,-285.28 1871.42,-281.8 1861.43,-278.28 1861.42,-285.28"/>
</g>
<!-- Node8 -->
<g id="node8" class="node">
<title>Node8</title>
<g id="a_node8"><a xlink:href="../../d8/d50/convection__diffusion__application_2custom__python_2add__custom__utilities__to__python_8cpp.html" target="_top" xlink:title=" ">
<polygon fill="none" stroke="black" points="1067.5,-178.5 1067.5,-230.5 1245.5,-230.5 1245.5,-178.5 1067.5,-178.5"/>
<text text-anchor="start" x="1075.5" y="-218.5" font-family="Helvetica,sans-Serif" font-size="10.00">/github/workspace/applications</text>
<text text-anchor="start" x="1075.5" y="-207.5" font-family="Helvetica,sans-Serif" font-size="10.00">/convection_diffusion_application</text>
<text text-anchor="start" x="1075.5" y="-196.5" font-family="Helvetica,sans-Serif" font-size="10.00">/custom_python/add_custom_utilities</text>
<text text-anchor="middle" x="1156.5" y="-185.5" font-family="Helvetica,sans-Serif" font-size="10.00">_to_python.cpp</text>
</a>
</g>
</g>
<!-- Node1&#45;&gt;Node8 -->
<g id="edge7" class="edge">
<title>Node1&#45;&gt;Node8</title>
<path fill="none" stroke="midnightblue" d="M1861,-280.38C1735.73,-277.5 1473.17,-267.26 1254.5,-231 1251.55,-230.51 1248.56,-229.97 1245.55,-229.4"/>
<polygon fill="midnightblue" stroke="midnightblue" points="1861.16,-283.88 1871.24,-280.6 1861.32,-276.88 1861.16,-283.88"/>
</g>
<!-- Node9 -->
<g id="node9" class="node">
<title>Node9</title>
<g id="a_node9"><a xlink:href="../../d3/dcd/applications_2_external_solvers_application_2custom__python_2add__linear__solvers__to__python_8cpp.html" target="_top" xlink:title=" ">
<polygon fill="none" stroke="black" points="1263.5,-178.5 1263.5,-230.5 1433.5,-230.5 1433.5,-178.5 1263.5,-178.5"/>
<text text-anchor="start" x="1271.5" y="-218.5" font-family="Helvetica,sans-Serif" font-size="10.00">/github/workspace/applications</text>
<text text-anchor="start" x="1271.5" y="-207.5" font-family="Helvetica,sans-Serif" font-size="10.00">/ExternalSolversApplication</text>
<text text-anchor="start" x="1271.5" y="-196.5" font-family="Helvetica,sans-Serif" font-size="10.00">/custom_python/add_linear_solvers</text>
<text text-anchor="middle" x="1348.5" y="-185.5" font-family="Helvetica,sans-Serif" font-size="10.00">_to_python.cpp</text>
</a>
</g>
</g>
<!-- Node1&#45;&gt;Node9 -->
<g id="edge8" class="edge">
<title>Node1&#45;&gt;Node9</title>
<path fill="none" stroke="midnightblue" d="M1860.87,-277.69C1764.21,-271.83 1589.53,-258.3 1442.5,-231 1439.59,-230.46 1436.64,-229.87 1433.67,-229.25"/>
<polygon fill="midnightblue" stroke="midnightblue" points="1860.93,-281.2 1871.12,-278.3 1861.35,-274.21 1860.93,-281.2"/>
</g>
<!-- Node10 -->
<g id="node10" class="node">
<title>Node10</title>
<g id="a_node10"><a xlink:href="../../dc/dc8/incompressible__fluid__application_2custom__python_2add__custom__strategies__to__python_8cpp.html" target="_top" xlink:title=" ">
<polygon fill="none" stroke="black" points="1451.5,-178.5 1451.5,-230.5 1641.5,-230.5 1641.5,-178.5 1451.5,-178.5"/>
<text text-anchor="start" x="1459.5" y="-218.5" font-family="Helvetica,sans-Serif" font-size="10.00">/github/workspace/applications</text>
<text text-anchor="start" x="1459.5" y="-207.5" font-family="Helvetica,sans-Serif" font-size="10.00">/incompressible_fluid_application</text>
<text text-anchor="start" x="1459.5" y="-196.5" font-family="Helvetica,sans-Serif" font-size="10.00">/custom_python/add_custom_strategies</text>
<text text-anchor="middle" x="1546.5" y="-185.5" font-family="Helvetica,sans-Serif" font-size="10.00">_to_python.cpp</text>
</a>
</g>
</g>
<!-- Node1&#45;&gt;Node10 -->
<g id="edge9" class="edge">
<title>Node1&#45;&gt;Node10</title>
<path fill="none" stroke="midnightblue" d="M1861.3,-269.82C1803.8,-260.32 1721.8,-246.06 1650.5,-231 1647.59,-230.39 1644.64,-229.75 1641.66,-229.09"/>
<polygon fill="midnightblue" stroke="midnightblue" points="1860.95,-273.31 1871.39,-271.48 1862.09,-266.4 1860.95,-273.31"/>
</g>
<!-- Node11 -->
<g id="node11" class="node">
<title>Node11</title>
<g id="a_node11"><a xlink:href="../../d7/d0f/incompressible__fluid__application_2custom__python_2add__custom__utilities__to__python_8cpp.html" target="_top" xlink:title=" ">
<polygon fill="none" stroke="black" points="1659.5,-178.5 1659.5,-230.5 1837.5,-230.5 1837.5,-178.5 1659.5,-178.5"/>
<text text-anchor="start" x="1667.5" y="-218.5" font-family="Helvetica,sans-Serif" font-size="10.00">/github/workspace/applications</text>
<text text-anchor="start" x="1667.5" y="-207.5" font-family="Helvetica,sans-Serif" font-size="10.00">/incompressible_fluid_application</text>
<text text-anchor="start" x="1667.5" y="-196.5" font-family="Helvetica,sans-Serif" font-size="10.00">/custom_python/add_custom_utilities</text>
<text text-anchor="middle" x="1748.5" y="-185.5" font-family="Helvetica,sans-Serif" font-size="10.00">_to_python.cpp</text>
</a>
</g>
</g>
<!-- Node1&#45;&gt;Node11 -->
<g id="edge10" class="edge">
<title>Node1&#45;&gt;Node11</title>
<path fill="none" stroke="midnightblue" d="M1890.39,-263.48C1866.37,-253.66 1836.26,-241.36 1809.97,-230.62"/>
<polygon fill="midnightblue" stroke="midnightblue" points="1889.37,-266.84 1899.95,-267.38 1892.02,-260.36 1889.37,-266.84"/>
</g>
<!-- Node12 -->
<g id="node12" class="node">
<title>Node12</title>
<g id="a_node12"><a xlink:href="../../d3/da7/applications_2mkl__solvers__application_2custom__python_2add__linear__solvers__to__python_8cpp.html" target="_top" xlink:title=" ">
<polygon fill="none" stroke="black" points="1855,-178.5 1855,-230.5 2014,-230.5 2014,-178.5 1855,-178.5"/>
<text text-anchor="start" x="1863" y="-218.5" font-family="Helvetica,sans-Serif" font-size="10.00">/github/workspace/applications</text>
<text text-anchor="start" x="1863" y="-207.5" font-family="Helvetica,sans-Serif" font-size="10.00">/mkl_solvers_application/custom</text>
<text text-anchor="start" x="1863" y="-196.5" font-family="Helvetica,sans-Serif" font-size="10.00">_python/add_linear_solvers_to</text>
<text text-anchor="middle" x="1934.5" y="-185.5" font-family="Helvetica,sans-Serif" font-size="10.00">_python.cpp</text>
</a>
</g>
</g>
<!-- Node1&#45;&gt;Node12 -->
<g id="edge11" class="edge">
<title>Node1&#45;&gt;Node12</title>
<path fill="none" stroke="midnightblue" d="M1934.5,-257.14C1934.5,-248.63 1934.5,-239.07 1934.5,-230.5"/>
<polygon fill="midnightblue" stroke="midnightblue" points="1931,-257.2 1934.5,-267.2 1938,-257.21 1931,-257.2"/>
</g>
<!-- Node13 -->
<g id="node13" class="node">
<title>Node13</title>
<g id="a_node13"><a xlink:href="../../de/db1/add__petsc__linear__solvers__to__python_8cpp.html" target="_top" xlink:title=" ">
<polygon fill="none" stroke="black" points="2032.5,-178.5 2032.5,-230.5 2196.5,-230.5 2196.5,-178.5 2032.5,-178.5"/>
<text text-anchor="start" x="2040.5" y="-218.5" font-family="Helvetica,sans-Serif" font-size="10.00">/github/workspace/applications</text>
<text text-anchor="start" x="2040.5" y="-207.5" font-family="Helvetica,sans-Serif" font-size="10.00">/petsc_application/custom</text>
<text text-anchor="start" x="2040.5" y="-196.5" font-family="Helvetica,sans-Serif" font-size="10.00">_python/add_petsc_linear_solvers</text>
<text text-anchor="middle" x="2114.5" y="-185.5" font-family="Helvetica,sans-Serif" font-size="10.00">_to_python.cpp</text>
</a>
</g>
</g>
<!-- Node1&#45;&gt;Node13 -->
<g id="edge12" class="edge">
<title>Node1&#45;&gt;Node13</title>
<path fill="none" stroke="midnightblue" d="M1977.18,-263.48C2000.43,-253.66 2029.57,-241.36 2055.02,-230.62"/>
<polygon fill="midnightblue" stroke="midnightblue" points="1975.79,-260.27 1967.93,-267.38 1978.51,-266.72 1975.79,-260.27"/>
</g>
<!-- Node14 -->
<g id="node14" class="node">
<title>Node14</title>
<g id="a_node14"><a xlink:href="../../dc/dfc/_p_f_e_mapplication_2custom__python_2add__custom__utilities__to__python_8cpp.html" target="_top" xlink:title=" ">
<polygon fill="none" stroke="black" points="2214.5,-184 2214.5,-225 2388.5,-225 2388.5,-184 2214.5,-184"/>
<text text-anchor="start" x="2222.5" y="-213" font-family="Helvetica,sans-Serif" font-size="10.00">/github/workspace/applications</text>
<text text-anchor="start" x="2222.5" y="-202" font-family="Helvetica,sans-Serif" font-size="10.00">/PFEMapplication/custom_python</text>
<text text-anchor="middle" x="2301.5" y="-191" font-family="Helvetica,sans-Serif" font-size="10.00">/add_custom_utilities_to_python.cpp</text>
</a>
</g>
</g>
<!-- Node1&#45;&gt;Node14 -->
<g id="edge13" class="edge">
<title>Node1&#45;&gt;Node14</title>
<path fill="none" stroke="midnightblue" d="M2007.7,-269.4C2062.41,-259.98 2138.92,-246.02 2205.5,-231 2213.57,-229.18 2222,-227.14 2230.35,-225.04"/>
<polygon fill="midnightblue" stroke="midnightblue" points="2007.01,-265.97 1997.75,-271.1 2008.2,-272.87 2007.01,-265.97"/>
</g>
<!-- Node15 -->
<g id="node15" class="node">
<title>Node15</title>
<g id="a_node15"><a xlink:href="../../d7/dba/drucker__prager__law_8h.html" target="_top" xlink:title=" ">
<polygon fill="none" stroke="black" points="2407,-184 2407,-225 2572,-225 2572,-184 2407,-184"/>
<text text-anchor="start" x="2415" y="-213" font-family="Helvetica,sans-Serif" font-size="10.00">/github/workspace/applications</text>
<text text-anchor="start" x="2415" y="-202" font-family="Helvetica,sans-Serif" font-size="10.00">/structural_application/constitutive</text>
<text text-anchor="middle" x="2489.5" y="-191" font-family="Helvetica,sans-Serif" font-size="10.00">_laws/drucker_prager_law.h</text>
</a>
</g>
</g>
<!-- Node1&#45;&gt;Node15 -->
<g id="edge14" class="edge">
<title>Node1&#45;&gt;Node15</title>
<path fill="none" stroke="midnightblue" d="M2007.52,-277.2C2099.22,-270.96 2261.06,-257.17 2397.5,-231 2406.13,-229.35 2415.13,-227.28 2423.97,-225.05"/>
<polygon fill="midnightblue" stroke="midnightblue" points="2007.25,-273.71 1997.51,-277.87 2007.72,-280.69 2007.25,-273.71"/>
</g>
<!-- Node18 -->
<g id="node18" class="node">
<title>Node18</title>
<g id="a_node18"><a xlink:href="../../d7/d57/structural__application_2custom__python_2add__custom__strategies__to__python_8cpp.html" target="_top" xlink:title=" ">
<polygon fill="none" stroke="black" points="2590,-178.5 2590,-230.5 2745,-230.5 2745,-178.5 2590,-178.5"/>
<text text-anchor="start" x="2598" y="-218.5" font-family="Helvetica,sans-Serif" font-size="10.00">/github/workspace/applications</text>
<text text-anchor="start" x="2598" y="-207.5" font-family="Helvetica,sans-Serif" font-size="10.00">/structural_application/custom</text>
<text text-anchor="start" x="2598" y="-196.5" font-family="Helvetica,sans-Serif" font-size="10.00">_python/add_custom_strategies</text>
<text text-anchor="middle" x="2667.5" y="-185.5" font-family="Helvetica,sans-Serif" font-size="10.00">_to_python.cpp</text>
</a>
</g>
</g>
<!-- Node1&#45;&gt;Node18 -->
<g id="edge17" class="edge">
<title>Node1&#45;&gt;Node18</title>
<path fill="none" stroke="midnightblue" d="M2008.09,-280.69C2128.67,-278.25 2375.42,-268.65 2580.5,-231 2583.6,-230.43 2586.74,-229.8 2589.9,-229.11"/>
<polygon fill="midnightblue" stroke="midnightblue" points="2007.81,-277.19 1997.87,-280.88 2007.94,-284.19 2007.81,-277.19"/>
</g>
<!-- Node19 -->
<g id="node19" class="node">
<title>Node19</title>
<g id="a_node19"><a xlink:href="../../dd/dee/structural__application_2custom__python_2add__custom__utilities__to__python_8cpp.html" target="_top" xlink:title=" ">
<polygon fill="none" stroke="black" points="2888,-0.5 2888,-52.5 3039,-52.5 3039,-0.5 2888,-0.5"/>
<text text-anchor="start" x="2896" y="-40.5" font-family="Helvetica,sans-Serif" font-size="10.00">/github/workspace/applications</text>
<text text-anchor="start" x="2896" y="-29.5" font-family="Helvetica,sans-Serif" font-size="10.00">/structural_application/custom</text>
<text text-anchor="start" x="2896" y="-18.5" font-family="Helvetica,sans-Serif" font-size="10.00">_python/add_custom_utilities</text>
<text text-anchor="middle" x="2963.5" y="-7.5" font-family="Helvetica,sans-Serif" font-size="10.00">_to_python.cpp</text>
</a>
</g>
</g>
<!-- Node1&#45;&gt;Node19 -->
<g id="edge18" class="edge">
<title>Node1&#45;&gt;Node19</title>
<path fill="none" stroke="midnightblue" d="M2008,-281.77C2198.49,-281.81 2697.32,-277.44 2754.5,-231 2805.3,-189.74 2749.09,-137.07 2793.5,-89 2817.99,-62.49 2854.79,-47.39 2887.89,-38.79"/>
<polygon fill="midnightblue" stroke="midnightblue" points="2007.81,-278.27 1997.81,-281.77 2007.8,-285.27 2007.81,-278.27"/>
</g>
<!-- Node20 -->
<g id="node20" class="node">
<title>Node20</title>
<g id="a_node20"><a xlink:href="../../d7/d0e/node__snapping__utility_8h.html" target="_top" xlink:title=" ">
<polygon fill="none" stroke="black" points="2971.5,-95 2971.5,-136 3127.5,-136 3127.5,-95 2971.5,-95"/>
<text text-anchor="start" x="2979.5" y="-124" font-family="Helvetica,sans-Serif" font-size="10.00">/github/workspace/applications</text>
<text text-anchor="start" x="2979.5" y="-113" font-family="Helvetica,sans-Serif" font-size="10.00">/structural_application/custom</text>
<text text-anchor="middle" x="3049.5" y="-102" font-family="Helvetica,sans-Serif" font-size="10.00">_utilities/node_snapping_utility.h</text>
</a>
</g>
</g>
<!-- Node1&#45;&gt;Node20 -->
<g id="edge19" class="edge">
<title>Node1&#45;&gt;Node20</title>
<path fill="none" stroke="midnightblue" d="M2007.74,-280.55C2207.22,-277.51 2750.1,-266.07 2822.5,-231 2850.83,-217.28 2843.29,-195.44 2869.5,-178 2879.77,-171.16 2939.44,-151.34 2987.3,-136.02"/>
<polygon fill="midnightblue" stroke="midnightblue" points="2007.6,-277.05 1997.65,-280.7 2007.7,-284.05 2007.6,-277.05"/>
</g>
<!-- Node21 -->
<g id="node21" class="node">
<title>Node21</title>
<g id="a_node21"><a xlink:href="../../db/dbf/output__utility_8h.html" target="_top" xlink:title=" ">
<polygon fill="none" stroke="black" points="2802,-95 2802,-136 2953,-136 2953,-95 2802,-95"/>
<text text-anchor="start" x="2810" y="-124" font-family="Helvetica,sans-Serif" font-size="10.00">/github/workspace/applications</text>
<text text-anchor="start" x="2810" y="-113" font-family="Helvetica,sans-Serif" font-size="10.00">/structural_application/custom</text>
<text text-anchor="middle" x="2877.5" y="-102" font-family="Helvetica,sans-Serif" font-size="10.00">_utilities/output_utility.h</text>
</a>
</g>
</g>
<!-- Node1&#45;&gt;Node21 -->
<g id="edge21" class="edge">
<title>Node1&#45;&gt;Node21</title>
<path fill="none" stroke="midnightblue" d="M2007.65,-280.59C2201.68,-277.68 2719.34,-266.65 2787.5,-231 2797.95,-225.54 2840.94,-167.26 2863.51,-136.03"/>
<polygon fill="midnightblue" stroke="midnightblue" points="2007.49,-277.09 1997.55,-280.73 2007.6,-284.09 2007.49,-277.09"/>
</g>
<!-- Node22 -->
<g id="node22" class="node">
<title>Node22</title>
<g id="a_node22"><a xlink:href="../../d5/df9/parallel__variable__transfer__utility_8h.html" target="_top" xlink:title=" ">
<polygon fill="none" stroke="black" points="2878,-178.5 2878,-230.5 3029,-230.5 3029,-178.5 2878,-178.5"/>
<text text-anchor="start" x="2886" y="-218.5" font-family="Helvetica,sans-Serif" font-size="10.00">/github/workspace/applications</text>
<text text-anchor="start" x="2886" y="-207.5" font-family="Helvetica,sans-Serif" font-size="10.00">/structural_application/custom</text>
<text text-anchor="start" x="2886" y="-196.5" font-family="Helvetica,sans-Serif" font-size="10.00">_utilities/parallel_variable</text>
<text text-anchor="middle" x="2953.5" y="-185.5" font-family="Helvetica,sans-Serif" font-size="10.00">_transfer_utility.h</text>
</a>
</g>
</g>
<!-- Node1&#45;&gt;Node22 -->
<g id="edge23" class="edge">
<title>Node1&#45;&gt;Node22</title>
<path fill="none" stroke="midnightblue" d="M2007.62,-279.62C2196.85,-274.42 2699.23,-258.39 2863.5,-231 2868.15,-230.23 2872.89,-229.3 2877.66,-228.27"/>
<polygon fill="midnightblue" stroke="midnightblue" points="2007.4,-276.12 1997.5,-279.9 2007.59,-283.12 2007.4,-276.12"/>
</g>
<!-- Node23 -->
<g id="node23" class="node">
<title>Node23</title>
<g id="a_node23"><a xlink:href="../../d7/df7/variable__transfer__utility_8h.html" target="_top" xlink:title=" ">
<polygon fill="none" stroke="black" points="3047,-178.5 3047,-230.5 3198,-230.5 3198,-178.5 3047,-178.5"/>
<text text-anchor="start" x="3055" y="-218.5" font-family="Helvetica,sans-Serif" font-size="10.00">/github/workspace/applications</text>
<text text-anchor="start" x="3055" y="-207.5" font-family="Helvetica,sans-Serif" font-size="10.00">/structural_application/custom</text>
<text text-anchor="start" x="3055" y="-196.5" font-family="Helvetica,sans-Serif" font-size="10.00">_utilities/variable_transfer</text>
<text text-anchor="middle" x="3122.5" y="-185.5" font-family="Helvetica,sans-Serif" font-size="10.00">_utility.h</text>
</a>
</g>
</g>
<!-- Node1&#45;&gt;Node23 -->
<g id="edge24" class="edge">
<title>Node1&#45;&gt;Node23</title>
<path fill="none" stroke="midnightblue" d="M2007.71,-280.53C2221.01,-277.31 2839.43,-265.22 3038.5,-231 3041.2,-230.54 3043.94,-230.01 3046.7,-229.43"/>
<polygon fill="midnightblue" stroke="midnightblue" points="2007.51,-277.03 1997.56,-280.68 2007.61,-284.03 2007.51,-277.03"/>
</g>
<!-- Node25 -->
<g id="node25" class="node">
<title>Node25</title>
<g id="a_node25"><a xlink:href="../../db/d3a/_u_l_fapplication_2custom__python_2add__custom__strategies__to__python_8cpp.html" target="_top" xlink:title=" ">
<polygon fill="none" stroke="black" points="3216.5,-184 3216.5,-225 3402.5,-225 3402.5,-184 3216.5,-184"/>
<text text-anchor="start" x="3224.5" y="-213" font-family="Helvetica,sans-Serif" font-size="10.00">/github/workspace/applications</text>
<text text-anchor="start" x="3224.5" y="-202" font-family="Helvetica,sans-Serif" font-size="10.00">/ULFapplication/custom_python</text>
<text text-anchor="middle" x="3309.5" y="-191" font-family="Helvetica,sans-Serif" font-size="10.00">/add_custom_strategies_to_python.cpp</text>
</a>
</g>
</g>
<!-- Node1&#45;&gt;Node25 -->
<g id="edge28" class="edge">
<title>Node1&#45;&gt;Node25</title>
<path fill="none" stroke="midnightblue" d="M2007.72,-280.57C2242.29,-277.28 2973.42,-264.54 3207.5,-231 3217.89,-229.51 3228.76,-227.4 3239.37,-225.03"/>
<polygon fill="midnightblue" stroke="midnightblue" points="2007.54,-277.07 1997.59,-280.71 2007.64,-284.07 2007.54,-277.07"/>
</g>
<!-- Node16 -->
<g id="node16" class="node">
<title>Node16</title>
<g id="a_node16"><a xlink:href="../../da/df3/drucker__prager__law_8cpp.html" target="_top" xlink:title=" ">
<polygon fill="none" stroke="black" points="2493,-95 2493,-136 2658,-136 2658,-95 2493,-95"/>
<text text-anchor="start" x="2501" y="-124" font-family="Helvetica,sans-Serif" font-size="10.00">/github/workspace/applications</text>
<text text-anchor="start" x="2501" y="-113" font-family="Helvetica,sans-Serif" font-size="10.00">/structural_application/constitutive</text>
<text text-anchor="middle" x="2575.5" y="-102" font-family="Helvetica,sans-Serif" font-size="10.00">_laws/drucker_prager_law.cpp</text>
</a>
</g>
</g>
<!-- Node15&#45;&gt;Node16 -->
<g id="edge15" class="edge">
<title>Node15&#45;&gt;Node16</title>
<path fill="none" stroke="midnightblue" d="M2516.29,-176.4C2529.17,-163.37 2544.31,-148.05 2556.06,-136.16"/>
<polygon fill="midnightblue" stroke="midnightblue" points="2513.56,-174.19 2509.01,-183.76 2518.53,-179.11 2513.56,-174.19"/>
</g>
<!-- Node17 -->
<g id="node17" class="node">
<title>Node17</title>
<g id="a_node17"><a xlink:href="../../d0/d75/add__constitutive__laws__to__python_8cpp.html" target="_top" xlink:title=" ">
<polygon fill="none" stroke="black" points="2324,-89.5 2324,-141.5 2475,-141.5 2475,-89.5 2324,-89.5"/>
<text text-anchor="start" x="2332" y="-129.5" font-family="Helvetica,sans-Serif" font-size="10.00">/github/workspace/applications</text>
<text text-anchor="start" x="2332" y="-118.5" font-family="Helvetica,sans-Serif" font-size="10.00">/structural_application/custom</text>
<text text-anchor="start" x="2332" y="-107.5" font-family="Helvetica,sans-Serif" font-size="10.00">_python/add_constitutive_laws</text>
<text text-anchor="middle" x="2399.5" y="-96.5" font-family="Helvetica,sans-Serif" font-size="10.00">_to_python.cpp</text>
</a>
</g>
</g>
<!-- Node15&#45;&gt;Node17 -->
<g id="edge16" class="edge">
<title>Node15&#45;&gt;Node17</title>
<path fill="none" stroke="midnightblue" d="M2461.81,-176.73C2450.3,-165.6 2437,-152.75 2425.66,-141.79"/>
<polygon fill="midnightblue" stroke="midnightblue" points="2459.46,-179.32 2469.08,-183.76 2464.32,-174.29 2459.46,-179.32"/>
</g>
<!-- Node20&#45;&gt;Node19 -->
<g id="edge20" class="edge">
<title>Node20&#45;&gt;Node19</title>
<path fill="none" stroke="midnightblue" d="M3022.73,-87.41C3011.8,-76.36 2999.23,-63.65 2988.5,-52.79"/>
<polygon fill="midnightblue" stroke="midnightblue" points="3020.47,-90.11 3029.99,-94.76 3025.44,-85.19 3020.47,-90.11"/>
</g>
<!-- Node21&#45;&gt;Node19 -->
<g id="edge22" class="edge">
<title>Node21&#45;&gt;Node19</title>
<path fill="none" stroke="midnightblue" d="M2904.27,-87.41C2915.2,-76.36 2927.77,-63.65 2938.5,-52.79"/>
<polygon fill="midnightblue" stroke="midnightblue" points="2901.56,-85.19 2897.01,-94.76 2906.53,-90.11 2901.56,-85.19"/>
</g>
<!-- Node23&#45;&gt;Node19 -->
<g id="edge25" class="edge">
<title>Node23&#45;&gt;Node19</title>
<path fill="none" stroke="midnightblue" d="M3207.75,-177.41C3254.33,-162.76 3303.25,-146.51 3306.5,-142 3320.27,-122.89 3321.62,-107.07 3306.5,-89 3273.11,-49.1 3129.75,-35.05 3039.27,-30.13"/>
<polygon fill="midnightblue" stroke="midnightblue" points="3206.67,-174.09 3198.17,-180.42 3208.76,-180.76 3206.67,-174.09"/>
</g>
<!-- Node23&#45;&gt;Node20 -->
<g id="edge27" class="edge">
<title>Node23&#45;&gt;Node20</title>
<path fill="none" stroke="midnightblue" d="M3094.82,-170.51C3085.08,-158.9 3074.45,-146.23 3065.93,-136.08"/>
<polygon fill="midnightblue" stroke="midnightblue" points="3092.28,-172.93 3101.39,-178.34 3097.64,-168.43 3092.28,-172.93"/>
</g>
<!-- Node24 -->
<g id="node24" class="node">
<title>Node24</title>
<g id="a_node24"><a xlink:href="../../d9/d93/structural__application_2custom__python_2add__custom__utilities__to__python_8h.html" target="_top" xlink:title=" ">
<polygon fill="none" stroke="black" points="3146,-89.5 3146,-141.5 3297,-141.5 3297,-89.5 3146,-89.5"/>
<text text-anchor="start" x="3154" y="-129.5" font-family="Helvetica,sans-Serif" font-size="10.00">/github/workspace/applications</text>
<text text-anchor="start" x="3154" y="-118.5" font-family="Helvetica,sans-Serif" font-size="10.00">/structural_application/custom</text>
<text text-anchor="start" x="3154" y="-107.5" font-family="Helvetica,sans-Serif" font-size="10.00">_python/add_custom_utilities</text>
<text text-anchor="middle" x="3221.5" y="-96.5" font-family="Helvetica,sans-Serif" font-size="10.00">_to_python.h</text>
</a>
</g>
</g>
<!-- Node23&#45;&gt;Node24 -->
<g id="edge26" class="edge">
<title>Node23&#45;&gt;Node24</title>
<path fill="none" stroke="midnightblue" d="M3158.74,-171.65C3170.01,-161.75 3182.26,-150.98 3192.93,-141.61"/>
<polygon fill="midnightblue" stroke="midnightblue" points="3156.34,-169.11 3151.13,-178.34 3160.96,-174.36 3156.34,-169.11"/>
</g>
</g>
</svg>
