<?xml version="1.0" encoding="UTF-8" standalone="no"?>
<!DOCTYPE svg PUBLIC "-//W3C//DTD SVG 1.1//EN"
 "http://www.w3.org/Graphics/SVG/1.1/DTD/svg11.dtd">
<!-- Generated by graphviz version 2.48.0 (20210719.0153)
 -->
<!-- Title: /github/workspace/kratos/spatial_containers/search_structure.h Pages: 1 -->
<!--zoomable 451 -->
<svg id="main" version="1.1" xmlns="http://www.w3.org/2000/svg" xmlns:xlink="http://www.w3.org/1999/xlink" xml:space="preserve" onload="init(evt)">
<style type="text/css"><![CDATA[
.edge:hover path { stroke: red; }
.edge:hover polygon { stroke: red; fill: red; }
]]></style>
<script type="text/javascript"><![CDATA[
var edges = document.getElementsByTagName('g');
if (edges && edges.length) {
  for (var i=0;i<edges.length;i++) {
    if (edges[i].id.substr(0,4)=='edge') {
      edges[i].setAttribute('class','edge');
    }
  }
}
]]></script>
        <defs>
                <circle id="rim" cx="0" cy="0" r="7"/>
                <circle id="rim2" cx="0" cy="0" r="3.5"/>
                <g id="zoomPlus">
                        <use xlink:href="#rim" fill="#404040">
                                <set attributeName="fill" to="#808080" begin="zoomplus.mouseover" end="zoomplus.mouseout"/>
                        </use>
                        <path d="M-4,0h8M0,-4v8" fill="none" stroke="white" stroke-width="1.5" pointer-events="none"/>
                </g>
                <g id="zoomMin">
                        <use xlink:href="#rim" fill="#404040">
                                <set attributeName="fill" to="#808080" begin="zoomminus.mouseover" end="zoomminus.mouseout"/>
                        </use>
                        <path d="M-4,0h8" fill="none" stroke="white" stroke-width="1.5" pointer-events="none"/>
                </g>
                <g id="dirArrow">
                        <path fill="none" stroke="white" stroke-width="1.5" d="M0,-3.0v7 M-2.5,-0.5L0,-3.0L2.5,-0.5"/>
                </g>
               <g id="resetDef">
                       <use xlink:href="#rim2" fill="#404040">
                               <set attributeName="fill" to="#808080" begin="reset.mouseover" end="reset.mouseout"/>
                       </use>
               </g>
        </defs>

<script type="text/javascript">
var viewWidth = 1217;
var viewHeight = 451;
var sectionId = 'dynsection-1';
</script>
<script xlink:href="../../svgpan.js"/>
<svg id="graph" class="graph">
<g id="viewport">
<title>/github/workspace/kratos/spatial_containers/search_structure.h</title>
<!-- Node1 -->
<g id="node1" class="node">
<title>Node1</title>
<g id="a_node1"><a xlink:title=" ">
<polygon fill="#bfbfbf" stroke="black" points="602.5,-401.5 602.5,-442.5 733.5,-442.5 733.5,-401.5 602.5,-401.5"/>
<text text-anchor="start" x="610.5" y="-430.5" font-family="Helvetica,sans-Serif" font-size="10.00">/github/workspace/kratos</text>
<text text-anchor="start" x="610.5" y="-419.5" font-family="Helvetica,sans-Serif" font-size="10.00">/spatial_containers/search</text>
<text text-anchor="middle" x="668" y="-408.5" font-family="Helvetica,sans-Serif" font-size="10.00">_structure.h</text>
</a>
</g>
</g>
<!-- Node2 -->
<g id="node2" class="node">
<title>Node2</title>
<g id="a_node2"><a xlink:href="../../d4/d6e/spatial__containers_2tree_8h.html" target="_top" xlink:title=" ">
<polygon fill="none" stroke="black" points="605,-334.5 605,-364.5 731,-364.5 731,-334.5 605,-334.5"/>
<text text-anchor="start" x="613" y="-352.5" font-family="Helvetica,sans-Serif" font-size="10.00">/github/workspace/kratos</text>
<text text-anchor="middle" x="668" y="-341.5" font-family="Helvetica,sans-Serif" font-size="10.00">/spatial_containers/tree.h</text>
</a>
</g>
</g>
<!-- Node1&#45;&gt;Node2 -->
<g id="edge1" class="edge">
<title>Node1&#45;&gt;Node2</title>
<path fill="none" stroke="midnightblue" d="M668,-391.08C668,-382.01 668,-372.45 668,-364.89"/>
<polygon fill="midnightblue" stroke="midnightblue" points="664.5,-391.36 668,-401.36 671.5,-391.36 664.5,-391.36"/>
</g>
<!-- Node3 -->
<g id="node3" class="node">
<title>Node3</title>
<g id="a_node3"><a xlink:href="../../d4/d2a/bins__dynamic_8h.html" target="_top" xlink:title=" ">
<polygon fill="none" stroke="black" points="696,-256.5 696,-297.5 822,-297.5 822,-256.5 696,-256.5"/>
<text text-anchor="start" x="704" y="-285.5" font-family="Helvetica,sans-Serif" font-size="10.00">/github/workspace/kratos</text>
<text text-anchor="start" x="704" y="-274.5" font-family="Helvetica,sans-Serif" font-size="10.00">/spatial_containers/bins</text>
<text text-anchor="middle" x="759" y="-263.5" font-family="Helvetica,sans-Serif" font-size="10.00">_dynamic.h</text>
</a>
</g>
</g>
<!-- Node2&#45;&gt;Node3 -->
<g id="edge2" class="edge">
<title>Node2&#45;&gt;Node3</title>
<path fill="none" stroke="midnightblue" d="M694.55,-327.93C706.9,-318.36 721.52,-307.03 733.72,-297.59"/>
<polygon fill="midnightblue" stroke="midnightblue" points="692.18,-325.34 686.42,-334.23 696.46,-330.88 692.18,-325.34"/>
</g>
<!-- Node4 -->
<g id="node4" class="node">
<title>Node4</title>
<g id="a_node4"><a xlink:href="../../db/d8f/spatial__containers_8h.html" target="_top" xlink:title=" ">
<polygon fill="none" stroke="black" points="555,-178.5 555,-219.5 685,-219.5 685,-178.5 555,-178.5"/>
<text text-anchor="start" x="563" y="-207.5" font-family="Helvetica,sans-Serif" font-size="10.00">/github/workspace/kratos</text>
<text text-anchor="start" x="563" y="-196.5" font-family="Helvetica,sans-Serif" font-size="10.00">/spatial_containers/spatial</text>
<text text-anchor="middle" x="620" y="-185.5" font-family="Helvetica,sans-Serif" font-size="10.00">_containers.h</text>
</a>
</g>
</g>
<!-- Node2&#45;&gt;Node4 -->
<g id="edge31" class="edge">
<title>Node2&#45;&gt;Node4</title>
<path fill="none" stroke="midnightblue" d="M664.88,-324.23C662.01,-305.28 656.96,-278.48 649,-256 644.54,-243.41 637.75,-230.1 631.86,-219.62"/>
<polygon fill="midnightblue" stroke="midnightblue" points="661.45,-324.98 666.33,-334.39 668.38,-323.99 661.45,-324.98"/>
</g>
<!-- Node17 -->
<g id="node17" class="node">
<title>Node17</title>
<g id="a_node17"><a xlink:href="../../d2/d83/bins__static_8h.html" target="_top" xlink:title=" ">
<polygon fill="none" stroke="black" points="840,-256.5 840,-297.5 966,-297.5 966,-256.5 840,-256.5"/>
<text text-anchor="start" x="848" y="-285.5" font-family="Helvetica,sans-Serif" font-size="10.00">/github/workspace/kratos</text>
<text text-anchor="start" x="848" y="-274.5" font-family="Helvetica,sans-Serif" font-size="10.00">/spatial_containers/bins</text>
<text text-anchor="middle" x="903" y="-263.5" font-family="Helvetica,sans-Serif" font-size="10.00">_static.h</text>
</a>
</g>
</g>
<!-- Node2&#45;&gt;Node17 -->
<g id="edge22" class="edge">
<title>Node2&#45;&gt;Node17</title>
<path fill="none" stroke="midnightblue" d="M724.7,-331.49C759.47,-321.06 804.03,-307.69 839.91,-296.93"/>
<polygon fill="midnightblue" stroke="midnightblue" points="723.28,-328.26 714.71,-334.49 725.29,-334.97 723.28,-328.26"/>
</g>
<!-- Node18 -->
<g id="node18" class="node">
<title>Node18</title>
<g id="a_node18"><a xlink:href="../../d5/dd3/spatial__containers_2bucket_8h.html" target="_top" xlink:title=" ">
<polygon fill="none" stroke="black" points="188,-262 188,-292 326,-292 326,-262 188,-262"/>
<text text-anchor="start" x="196" y="-280" font-family="Helvetica,sans-Serif" font-size="10.00">/github/workspace/kratos</text>
<text text-anchor="middle" x="257" y="-269" font-family="Helvetica,sans-Serif" font-size="10.00">/spatial_containers/bucket.h</text>
</a>
</g>
</g>
<!-- Node2&#45;&gt;Node18 -->
<g id="edge24" class="edge">
<title>Node2&#45;&gt;Node18</title>
<path fill="none" stroke="midnightblue" d="M594.62,-339.53C526.89,-330.74 423.7,-316.05 335,-298 326.51,-296.27 317.55,-294.21 308.86,-292.07"/>
<polygon fill="midnightblue" stroke="midnightblue" points="594.39,-343.03 604.76,-340.83 595.29,-336.08 594.39,-343.03"/>
</g>
<!-- Node19 -->
<g id="node19" class="node">
<title>Node19</title>
<g id="a_node19"><a xlink:href="../../da/dd0/kd__tree_8h.html" target="_top" xlink:title=" ">
<polygon fill="none" stroke="black" points="344.5,-262 344.5,-292 485.5,-292 485.5,-262 344.5,-262"/>
<text text-anchor="start" x="352.5" y="-280" font-family="Helvetica,sans-Serif" font-size="10.00">/github/workspace/kratos</text>
<text text-anchor="middle" x="415" y="-269" font-family="Helvetica,sans-Serif" font-size="10.00">/spatial_containers/kd_tree.h</text>
</a>
</g>
</g>
<!-- Node2&#45;&gt;Node19 -->
<g id="edge26" class="edge">
<title>Node2&#45;&gt;Node19</title>
<path fill="none" stroke="midnightblue" d="M607.86,-331.74C564.5,-319.66 506.63,-303.53 465.62,-292.11"/>
<polygon fill="midnightblue" stroke="midnightblue" points="607.14,-335.17 617.71,-334.49 609.02,-328.43 607.14,-335.17"/>
</g>
<!-- Node20 -->
<g id="node20" class="node">
<title>Node20</title>
<g id="a_node20"><a xlink:href="../../de/ddc/octree_8h.html" target="_top" xlink:title=" ">
<polygon fill="none" stroke="black" points="504,-262 504,-292 640,-292 640,-262 504,-262"/>
<text text-anchor="start" x="512" y="-280" font-family="Helvetica,sans-Serif" font-size="10.00">/github/workspace/kratos</text>
<text text-anchor="middle" x="572" y="-269" font-family="Helvetica,sans-Serif" font-size="10.00">/spatial_containers/octree.h</text>
</a>
</g>
</g>
<!-- Node2&#45;&gt;Node20 -->
<g id="edge28" class="edge">
<title>Node2&#45;&gt;Node20</title>
<path fill="none" stroke="midnightblue" d="M640.23,-328.11C624.46,-316.53 605.13,-302.33 591.07,-292"/>
<polygon fill="midnightblue" stroke="midnightblue" points="638.44,-331.14 648.57,-334.23 642.58,-325.49 638.44,-331.14"/>
</g>
<!-- Node21 -->
<g id="node21" class="node">
<title>Node21</title>
<g id="a_node21"><a xlink:href="../../d6/d2e/octree__new_8h.html" target="_top" xlink:title=" ">
<polygon fill="none" stroke="black" points="984.5,-262 984.5,-292 1143.5,-292 1143.5,-262 984.5,-262"/>
<text text-anchor="start" x="992.5" y="-280" font-family="Helvetica,sans-Serif" font-size="10.00">/github/workspace/kratos</text>
<text text-anchor="middle" x="1064" y="-269" font-family="Helvetica,sans-Serif" font-size="10.00">/spatial_containers/octree_new.h</text>
</a>
</g>
</g>
<!-- Node2&#45;&gt;Node21 -->
<g id="edge30" class="edge">
<title>Node2&#45;&gt;Node21</title>
<path fill="none" stroke="midnightblue" d="M741.23,-337.68C803.56,-328.17 895.39,-313.48 975,-298 984.33,-296.19 994.17,-294.12 1003.78,-292.03"/>
<polygon fill="midnightblue" stroke="midnightblue" points="740.46,-334.25 731.1,-339.21 741.52,-341.17 740.46,-334.25"/>
</g>
<!-- Node3&#45;&gt;Node4 -->
<g id="edge3" class="edge">
<title>Node3&#45;&gt;Node4</title>
<path fill="none" stroke="midnightblue" d="M714.42,-251.63C695.43,-241.24 673.57,-229.29 655.67,-219.51"/>
<polygon fill="midnightblue" stroke="midnightblue" points="712.75,-254.7 723.2,-256.43 716.11,-248.56 712.75,-254.7"/>
</g>
<!-- Node5 -->
<g id="node5" class="node">
<title>Node5</title>
<g id="a_node5"><a xlink:href="../../d1/d48/level__set__utilities_8h.html" target="_top" xlink:title=" ">
<polygon fill="none" stroke="black" points="184.5,-95 184.5,-136 357.5,-136 357.5,-95 184.5,-95"/>
<text text-anchor="start" x="192.5" y="-124" font-family="Helvetica,sans-Serif" font-size="10.00">/github/workspace/applications</text>
<text text-anchor="start" x="192.5" y="-113" font-family="Helvetica,sans-Serif" font-size="10.00">/incompressible_fluid_application</text>
<text text-anchor="middle" x="271" y="-102" font-family="Helvetica,sans-Serif" font-size="10.00">/custom_utilities/level_set_utilities.h</text>
</a>
</g>
</g>
<!-- Node4&#45;&gt;Node5 -->
<g id="edge4" class="edge">
<title>Node4&#45;&gt;Node5</title>
<path fill="none" stroke="midnightblue" d="M544.93,-182.38C494.26,-171.61 425.94,-156.64 366,-142 358.37,-140.14 350.41,-138.12 342.5,-136.06"/>
<polygon fill="midnightblue" stroke="midnightblue" points="544.31,-185.83 554.82,-184.48 545.77,-178.98 544.31,-185.83"/>
</g>
<!-- Node7 -->
<g id="node7" class="node">
<title>Node7</title>
<g id="a_node7"><a xlink:href="../../db/d1a/level__set__utilities__implicitextrapolation_8h.html" target="_top" xlink:title=" ">
<polygon fill="none" stroke="black" points="0,-89.5 0,-141.5 166,-141.5 166,-89.5 0,-89.5"/>
<text text-anchor="start" x="8" y="-129.5" font-family="Helvetica,sans-Serif" font-size="10.00">/github/workspace/applications</text>
<text text-anchor="start" x="8" y="-118.5" font-family="Helvetica,sans-Serif" font-size="10.00">/incompressible_fluid_application</text>
<text text-anchor="start" x="8" y="-107.5" font-family="Helvetica,sans-Serif" font-size="10.00">/custom_utilities/level_set_utilities</text>
<text text-anchor="middle" x="83" y="-96.5" font-family="Helvetica,sans-Serif" font-size="10.00">_implicitextrapolation.h</text>
</a>
</g>
</g>
<!-- Node4&#45;&gt;Node7 -->
<g id="edge6" class="edge">
<title>Node4&#45;&gt;Node7</title>
<path fill="none" stroke="midnightblue" d="M544.67,-191.88C455.74,-183.89 303.65,-167.78 175,-142 172.07,-141.41 169.11,-140.78 166.11,-140.12"/>
<polygon fill="midnightblue" stroke="midnightblue" points="544.4,-195.37 554.67,-192.77 545.02,-188.4 544.4,-195.37"/>
</g>
<!-- Node8 -->
<g id="node8" class="node">
<title>Node8</title>
<g id="a_node8"><a xlink:href="../../df/dab/projection_8h.html" target="_top" xlink:title=" ">
<polygon fill="none" stroke="black" points="375.5,-95 375.5,-136 526.5,-136 526.5,-95 375.5,-95"/>
<text text-anchor="start" x="383.5" y="-124" font-family="Helvetica,sans-Serif" font-size="10.00">/github/workspace/applications</text>
<text text-anchor="start" x="383.5" y="-113" font-family="Helvetica,sans-Serif" font-size="10.00">/MeshingApplication/custom</text>
<text text-anchor="middle" x="451" y="-102" font-family="Helvetica,sans-Serif" font-size="10.00">_utilities/projection.h</text>
</a>
</g>
</g>
<!-- Node4&#45;&gt;Node8 -->
<g id="edge8" class="edge">
<title>Node4&#45;&gt;Node8</title>
<path fill="none" stroke="midnightblue" d="M570.5,-174.13C545.35,-162 515.18,-147.45 491.44,-136"/>
<polygon fill="midnightblue" stroke="midnightblue" points="568.99,-177.29 579.52,-178.48 572.03,-170.98 568.99,-177.29"/>
</g>
<!-- Node10 -->
<g id="node10" class="node">
<title>Node10</title>
<g id="a_node10"><a xlink:href="../../d1/d67/tetgen__mesh__suite__optimized_8h.html" target="_top" xlink:title=" ">
<polygon fill="none" stroke="black" points="544.5,-89.5 544.5,-141.5 695.5,-141.5 695.5,-89.5 544.5,-89.5"/>
<text text-anchor="start" x="552.5" y="-129.5" font-family="Helvetica,sans-Serif" font-size="10.00">/github/workspace/applications</text>
<text text-anchor="start" x="552.5" y="-118.5" font-family="Helvetica,sans-Serif" font-size="10.00">/MeshingApplication/external</text>
<text text-anchor="start" x="552.5" y="-107.5" font-family="Helvetica,sans-Serif" font-size="10.00">_includes/tetgen_mesh_suite</text>
<text text-anchor="middle" x="620" y="-96.5" font-family="Helvetica,sans-Serif" font-size="10.00">_optimized.h</text>
</a>
</g>
</g>
<!-- Node4&#45;&gt;Node10 -->
<g id="edge10" class="edge">
<title>Node4&#45;&gt;Node10</title>
<path fill="none" stroke="midnightblue" d="M620,-168.12C620,-159.41 620,-149.99 620,-141.61"/>
<polygon fill="midnightblue" stroke="midnightblue" points="616.5,-168.27 620,-178.27 623.5,-168.27 616.5,-168.27"/>
</g>
<!-- Node12 -->
<g id="node12" class="node">
<title>Node12</title>
<g id="a_node12"><a xlink:href="../../d4/d8a/tetgen__pfem__refine_8h.html" target="_top" xlink:title=" ">
<polygon fill="none" stroke="black" points="882.5,-95 882.5,-136 1033.5,-136 1033.5,-95 882.5,-95"/>
<text text-anchor="start" x="890.5" y="-124" font-family="Helvetica,sans-Serif" font-size="10.00">/github/workspace/applications</text>
<text text-anchor="start" x="890.5" y="-113" font-family="Helvetica,sans-Serif" font-size="10.00">/MeshingApplication/external</text>
<text text-anchor="middle" x="958" y="-102" font-family="Helvetica,sans-Serif" font-size="10.00">_includes/tetgen_pfem_refine.h</text>
</a>
</g>
</g>
<!-- Node4&#45;&gt;Node12 -->
<g id="edge12" class="edge">
<title>Node4&#45;&gt;Node12</title>
<path fill="none" stroke="midnightblue" d="M694.91,-182.93C745.45,-172.39 813.51,-157.48 873,-142 880.01,-140.18 887.31,-138.16 894.56,-136.09"/>
<polygon fill="midnightblue" stroke="midnightblue" points="694.13,-179.52 685.05,-184.98 695.55,-186.37 694.13,-179.52"/>
</g>
<!-- Node15 -->
<g id="node15" class="node">
<title>Node15</title>
<g id="a_node15"><a xlink:href="../../d8/d94/trigen__pfem__refine_8h.html" target="_top" xlink:title=" ">
<polygon fill="none" stroke="black" points="1051.5,-95 1051.5,-136 1202.5,-136 1202.5,-95 1051.5,-95"/>
<text text-anchor="start" x="1059.5" y="-124" font-family="Helvetica,sans-Serif" font-size="10.00">/github/workspace/applications</text>
<text text-anchor="start" x="1059.5" y="-113" font-family="Helvetica,sans-Serif" font-size="10.00">/MeshingApplication/external</text>
<text text-anchor="middle" x="1127" y="-102" font-family="Helvetica,sans-Serif" font-size="10.00">_includes/trigen_pfem_refine.h</text>
</a>
</g>
</g>
<!-- Node4&#45;&gt;Node15 -->
<g id="edge16" class="edge">
<title>Node4&#45;&gt;Node15</title>
<path fill="none" stroke="midnightblue" d="M695.32,-191.66C780.22,-183.67 922.05,-167.78 1042,-142 1049.83,-140.32 1057.99,-138.27 1066.02,-136.06"/>
<polygon fill="midnightblue" stroke="midnightblue" points="694.89,-188.19 685.26,-192.6 695.54,-195.16 694.89,-188.19"/>
</g>
<!-- Node16 -->
<g id="node16" class="node">
<title>Node16</title>
<g id="a_node16"><a xlink:href="../../d9/d68/trigen__refine_8h.html" target="_top" xlink:title=" ">
<polygon fill="none" stroke="black" points="713.5,-95 713.5,-136 864.5,-136 864.5,-95 713.5,-95"/>
<text text-anchor="start" x="721.5" y="-124" font-family="Helvetica,sans-Serif" font-size="10.00">/github/workspace/applications</text>
<text text-anchor="start" x="721.5" y="-113" font-family="Helvetica,sans-Serif" font-size="10.00">/MeshingApplication/external</text>
<text text-anchor="middle" x="789" y="-102" font-family="Helvetica,sans-Serif" font-size="10.00">_includes/trigen_refine.h</text>
</a>
</g>
</g>
<!-- Node4&#45;&gt;Node16 -->
<g id="edge19" class="edge">
<title>Node4&#45;&gt;Node16</title>
<path fill="none" stroke="midnightblue" d="M669.5,-174.13C694.65,-162 724.82,-147.45 748.56,-136"/>
<polygon fill="midnightblue" stroke="midnightblue" points="667.97,-170.98 660.48,-178.48 671.01,-177.29 667.97,-170.98"/>
</g>
<!-- Node6 -->
<g id="node6" class="node">
<title>Node6</title>
<g id="a_node6"><a xlink:href="../../d7/d0f/incompressible__fluid__application_2custom__python_2add__custom__utilities__to__python_8cpp.html" target="_top" xlink:title=" ">
<polygon fill="none" stroke="black" points="87,-0.5 87,-52.5 265,-52.5 265,-0.5 87,-0.5"/>
<text text-anchor="start" x="95" y="-40.5" font-family="Helvetica,sans-Serif" font-size="10.00">/github/workspace/applications</text>
<text text-anchor="start" x="95" y="-29.5" font-family="Helvetica,sans-Serif" font-size="10.00">/incompressible_fluid_application</text>
<text text-anchor="start" x="95" y="-18.5" font-family="Helvetica,sans-Serif" font-size="10.00">/custom_python/add_custom_utilities</text>
<text text-anchor="middle" x="176" y="-7.5" font-family="Helvetica,sans-Serif" font-size="10.00">_to_python.cpp</text>
</a>
</g>
</g>
<!-- Node5&#45;&gt;Node6 -->
<g id="edge5" class="edge">
<title>Node5&#45;&gt;Node6</title>
<path fill="none" stroke="midnightblue" d="M241.77,-87.73C229.62,-76.6 215.59,-63.75 203.61,-52.79"/>
<polygon fill="midnightblue" stroke="midnightblue" points="239.7,-90.59 249.44,-94.76 244.43,-85.42 239.7,-90.59"/>
</g>
<!-- Node7&#45;&gt;Node6 -->
<g id="edge7" class="edge">
<title>Node7&#45;&gt;Node6</title>
<path fill="none" stroke="midnightblue" d="M117.35,-82.36C127.85,-72.54 139.24,-61.89 149.16,-52.61"/>
<polygon fill="midnightblue" stroke="midnightblue" points="114.81,-79.95 109.9,-89.34 119.59,-85.06 114.81,-79.95"/>
</g>
<!-- Node9 -->
<g id="node9" class="node">
<title>Node9</title>
<g id="a_node9"><a xlink:href="../../d4/d31/_meshing_application_2custom__python_2add__custom__utilities__to__python_8cpp.html" target="_top" xlink:title=" ">
<polygon fill="none" stroke="black" points="375.5,-0.5 375.5,-52.5 526.5,-52.5 526.5,-0.5 375.5,-0.5"/>
<text text-anchor="start" x="383.5" y="-40.5" font-family="Helvetica,sans-Serif" font-size="10.00">/github/workspace/applications</text>
<text text-anchor="start" x="383.5" y="-29.5" font-family="Helvetica,sans-Serif" font-size="10.00">/MeshingApplication/custom</text>
<text text-anchor="start" x="383.5" y="-18.5" font-family="Helvetica,sans-Serif" font-size="10.00">_python/add_custom_utilities</text>
<text text-anchor="middle" x="451" y="-7.5" font-family="Helvetica,sans-Serif" font-size="10.00">_to_python.cpp</text>
</a>
</g>
</g>
<!-- Node8&#45;&gt;Node9 -->
<g id="edge9" class="edge">
<title>Node8&#45;&gt;Node9</title>
<path fill="none" stroke="midnightblue" d="M451,-84.51C451,-74.17 451,-62.71 451,-52.79"/>
<polygon fill="midnightblue" stroke="midnightblue" points="447.5,-84.76 451,-94.76 454.5,-84.76 447.5,-84.76"/>
</g>
<!-- Node11 -->
<g id="node11" class="node">
<title>Node11</title>
<g id="a_node11"><a xlink:href="../../dd/d57/_u_l_fapplication_2custom__python_2add__meshers__to__python_8cpp.html" target="_top" xlink:title=" ">
<polygon fill="none" stroke="black" points="689.5,-6 689.5,-47 844.5,-47 844.5,-6 689.5,-6"/>
<text text-anchor="start" x="697.5" y="-35" font-family="Helvetica,sans-Serif" font-size="10.00">/github/workspace/applications</text>
<text text-anchor="start" x="697.5" y="-24" font-family="Helvetica,sans-Serif" font-size="10.00">/ULFapplication/custom_python</text>
<text text-anchor="middle" x="767" y="-13" font-family="Helvetica,sans-Serif" font-size="10.00">/add_meshers_to_python.cpp</text>
</a>
</g>
</g>
<!-- Node10&#45;&gt;Node11 -->
<g id="edge11" class="edge">
<title>Node10&#45;&gt;Node11</title>
<path fill="none" stroke="midnightblue" d="M671.24,-84.17C692.03,-71.87 715.44,-58.01 733.91,-47.08"/>
<polygon fill="midnightblue" stroke="midnightblue" points="669.34,-81.23 662.52,-89.34 672.91,-87.25 669.34,-81.23"/>
</g>
<!-- Node12&#45;&gt;Node11 -->
<g id="edge15" class="edge">
<title>Node12&#45;&gt;Node11</title>
<path fill="none" stroke="midnightblue" d="M905.66,-90.66C875.62,-76.98 838.38,-60.01 810.05,-47.11"/>
<polygon fill="midnightblue" stroke="midnightblue" points="904.58,-94.02 915.14,-94.98 907.49,-87.65 904.58,-94.02"/>
</g>
<!-- Node13 -->
<g id="node13" class="node">
<title>Node13</title>
<g id="a_node13"><a xlink:href="../../de/dff/_meshing_application_2custom__python_2add__meshers__to__python_8cpp.html" target="_top" xlink:title=" ">
<polygon fill="none" stroke="black" points="862.5,-6 862.5,-47 1039.5,-47 1039.5,-6 862.5,-6"/>
<text text-anchor="start" x="870.5" y="-35" font-family="Helvetica,sans-Serif" font-size="10.00">/github/workspace/applications</text>
<text text-anchor="start" x="870.5" y="-24" font-family="Helvetica,sans-Serif" font-size="10.00">/MeshingApplication/custom</text>
<text text-anchor="middle" x="951" y="-13" font-family="Helvetica,sans-Serif" font-size="10.00">_python/add_meshers_to_python.cpp</text>
</a>
</g>
</g>
<!-- Node12&#45;&gt;Node13 -->
<g id="edge13" class="edge">
<title>Node12&#45;&gt;Node13</title>
<path fill="none" stroke="midnightblue" d="M955.58,-84.44C954.59,-72.1 953.47,-58.16 952.58,-47.16"/>
<polygon fill="midnightblue" stroke="midnightblue" points="952.12,-85.07 956.41,-94.76 959.1,-84.51 952.12,-85.07"/>
</g>
<!-- Node14 -->
<g id="node14" class="node">
<title>Node14</title>
<g id="a_node14"><a xlink:href="../../d9/d24/mesh__suites_8cpp.html" target="_top" xlink:title=" ">
<polygon fill="none" stroke="black" points="1057.5,-6 1057.5,-47 1208.5,-47 1208.5,-6 1057.5,-6"/>
<text text-anchor="start" x="1065.5" y="-35" font-family="Helvetica,sans-Serif" font-size="10.00">/github/workspace/applications</text>
<text text-anchor="start" x="1065.5" y="-24" font-family="Helvetica,sans-Serif" font-size="10.00">/MeshingApplication/external</text>
<text text-anchor="middle" x="1133" y="-13" font-family="Helvetica,sans-Serif" font-size="10.00">_includes/mesh_suites.cpp</text>
</a>
</g>
</g>
<!-- Node12&#45;&gt;Node14 -->
<g id="edge14" class="edge">
<title>Node12&#45;&gt;Node14</title>
<path fill="none" stroke="midnightblue" d="M1006.32,-90.48C1033.77,-76.83 1067.72,-59.96 1093.56,-47.11"/>
<polygon fill="midnightblue" stroke="midnightblue" points="1004.67,-87.39 997.27,-94.98 1007.79,-93.66 1004.67,-87.39"/>
</g>
<!-- Node15&#45;&gt;Node13 -->
<g id="edge17" class="edge">
<title>Node15&#45;&gt;Node13</title>
<path fill="none" stroke="midnightblue" d="M1078.41,-90.48C1050.8,-76.83 1016.66,-59.96 990.67,-47.11"/>
<polygon fill="midnightblue" stroke="midnightblue" points="1076.99,-93.68 1087.5,-94.98 1080.09,-87.41 1076.99,-93.68"/>
</g>
<!-- Node15&#45;&gt;Node14 -->
<g id="edge18" class="edge">
<title>Node15&#45;&gt;Node14</title>
<path fill="none" stroke="midnightblue" d="M1129.07,-84.44C1129.92,-72.1 1130.89,-58.16 1131.64,-47.16"/>
<polygon fill="midnightblue" stroke="midnightblue" points="1125.56,-84.54 1128.36,-94.76 1132.54,-85.02 1125.56,-84.54"/>
</g>
<!-- Node16&#45;&gt;Node11 -->
<g id="edge21" class="edge">
<title>Node16&#45;&gt;Node11</title>
<path fill="none" stroke="midnightblue" d="M781.49,-84.81C778.35,-72.38 774.78,-58.27 771.97,-47.16"/>
<polygon fill="midnightblue" stroke="midnightblue" points="778.16,-85.92 784.01,-94.76 784.95,-84.21 778.16,-85.92"/>
</g>
<!-- Node16&#45;&gt;Node13 -->
<g id="edge20" class="edge">
<title>Node16&#45;&gt;Node13</title>
<path fill="none" stroke="midnightblue" d="M834.39,-90.12C859.69,-76.54 890.77,-59.84 914.49,-47.11"/>
<polygon fill="midnightblue" stroke="midnightblue" points="832.51,-87.16 825.36,-94.98 835.82,-93.33 832.51,-87.16"/>
</g>
<!-- Node17&#45;&gt;Node4 -->
<g id="edge23" class="edge">
<title>Node17&#45;&gt;Node4</title>
<path fill="none" stroke="midnightblue" d="M830.03,-255.75C775.95,-241.09 724.53,-227.46 685.16,-217.09"/>
<polygon fill="midnightblue" stroke="midnightblue" points="829.23,-259.16 839.8,-258.4 831.06,-252.4 829.23,-259.16"/>
</g>
<!-- Node18&#45;&gt;Node4 -->
<g id="edge25" class="edge">
<title>Node18&#45;&gt;Node4</title>
<path fill="none" stroke="midnightblue" d="M319.95,-259.53C325.03,-258.3 330.1,-257.11 335,-256 410.13,-239 497.07,-222.35 554.98,-211.69"/>
<polygon fill="midnightblue" stroke="midnightblue" points="319.06,-256.14 310.19,-261.93 320.74,-262.94 319.06,-256.14"/>
</g>
<!-- Node19&#45;&gt;Node4 -->
<g id="edge27" class="edge">
<title>Node19&#45;&gt;Node4</title>
<path fill="none" stroke="midnightblue" d="M462.86,-258.26C494.08,-246.68 534.86,-231.56 567.06,-219.63"/>
<polygon fill="midnightblue" stroke="midnightblue" points="461.24,-255.13 453.08,-261.88 463.67,-261.69 461.24,-255.13"/>
</g>
<!-- Node20&#45;&gt;Node4 -->
<g id="edge29" class="edge">
<title>Node20&#45;&gt;Node4</title>
<path fill="none" stroke="midnightblue" d="M586.56,-252.95C593.27,-242.33 601.15,-229.85 607.57,-219.68"/>
<polygon fill="midnightblue" stroke="midnightblue" points="583.41,-251.38 581.03,-261.7 589.33,-255.12 583.41,-251.38"/>
</g>
</g>
</svg>
        <g id="navigator" transform="translate(0 0)" fill="#404254">
                <rect fill="#f2f5e9" fill-opacity="0.5" stroke="#606060" stroke-width=".5" x="0" y="0" width="60" height="60"/>
                <use id="zoomplus" xlink:href="#zoomPlus" x="17" y="9" onmousedown="handleZoom(evt,'in')"/>
                <use id="zoomminus" xlink:href="#zoomMin" x="42" y="9" onmousedown="handleZoom(evt,'out')"/>
                <use id="reset" xlink:href="#resetDef" x="30" y="36" onmousedown="handleReset()"/>
                <g id="arrowUp" xlink:href="#dirArrow" transform="translate(30 24)" onmousedown="handlePan(0,-1)">
                  <use xlink:href="#rim" fill="#404040">
                        <set attributeName="fill" to="#808080" begin="arrowUp.mouseover" end="arrowUp.mouseout"/>
                  </use>
                  <path fill="none" stroke="white" stroke-width="1.5" d="M0,-3.0v7 M-2.5,-0.5L0,-3.0L2.5,-0.5"/>
                </g>
                <g id="arrowRight" xlink:href="#dirArrow" transform="rotate(90) translate(36 -43)" onmousedown="handlePan(1,0)">
                  <use xlink:href="#rim" fill="#404040">
                        <set attributeName="fill" to="#808080" begin="arrowRight.mouseover" end="arrowRight.mouseout"/>
                  </use>
                  <path fill="none" stroke="white" stroke-width="1.5" d="M0,-3.0v7 M-2.5,-0.5L0,-3.0L2.5,-0.5"/>
                </g>
                <g id="arrowDown" xlink:href="#dirArrow" transform="rotate(180) translate(-30 -48)" onmousedown="handlePan(0,1)">
                  <use xlink:href="#rim" fill="#404040">
                        <set attributeName="fill" to="#808080" begin="arrowDown.mouseover" end="arrowDown.mouseout"/>
                  </use>
                  <path fill="none" stroke="white" stroke-width="1.5" d="M0,-3.0v7 M-2.5,-0.5L0,-3.0L2.5,-0.5"/>
                </g>
                <g id="arrowLeft" xlink:href="#dirArrow" transform="rotate(270) translate(-36 17)" onmousedown="handlePan(-1,0)">
                  <use xlink:href="#rim" fill="#404040">
                        <set attributeName="fill" to="#808080" begin="arrowLeft.mouseover" end="arrowLeft.mouseout"/>
                  </use>
                  <path fill="none" stroke="white" stroke-width="1.5" d="M0,-3.0v7 M-2.5,-0.5L0,-3.0L2.5,-0.5"/>
                </g>
        </g>
        <svg viewBox="0 0 15 15" width="100%" height="30px" preserveAspectRatio="xMaxYMin meet">
         <g id="arrow_out" transform="scale(0.3 0.3)">
          <a xlink:href="search__structure_8h__dep__incl_org.svg" target="_base">
           <rect id="button" ry="5" rx="5" y="6" x="6" height="38" width="38"
                fill="#f2f5e9" fill-opacity="0.5" stroke="#606060" stroke-width="1.0"/>
           <path id="arrow"
             d="M 11.500037,31.436501 C 11.940474,20.09759 22.043105,11.32322 32.158766,21.979434 L 37.068811,17.246167 C 37.068811,17.246167 37.088388,32 37.088388,32 L 22.160133,31.978069 C 22.160133,31.978069 26.997745,27.140456 26.997745,27.140456 C 18.528582,18.264221 13.291696,25.230495 11.500037,31.436501 z"
             style="fill:#404040;"/>
          </a>
         </g>
        </svg>
</svg>
