<?xml version="1.0" encoding="UTF-8" standalone="no"?>
<!DOCTYPE svg PUBLIC "-//W3C//DTD SVG 1.1//EN"
 "http://www.w3.org/Graphics/SVG/1.1/DTD/svg11.dtd">
<!-- Generated by graphviz version 2.48.0 (20210719.0153)
 -->
<!-- Title: /github/workspace/kratos/integration/tetrahedra_gaussian_integration_points.h Pages: 1 -->
<!--zoomable 430 -->
<svg id="main" version="1.1" xmlns="http://www.w3.org/2000/svg" xmlns:xlink="http://www.w3.org/1999/xlink" xml:space="preserve" onload="init(evt)">
<style type="text/css"><![CDATA[
.edge:hover path { stroke: red; }
.edge:hover polygon { stroke: red; fill: red; }
]]></style>
<script type="text/javascript"><![CDATA[
var edges = document.getElementsByTagName('g');
if (edges && edges.length) {
  for (var i=0;i<edges.length;i++) {
    if (edges[i].id.substr(0,4)=='edge') {
      edges[i].setAttribute('class','edge');
    }
  }
}
]]></script>
        <defs>
                <circle id="rim" cx="0" cy="0" r="7"/>
                <circle id="rim2" cx="0" cy="0" r="3.5"/>
                <g id="zoomPlus">
                        <use xlink:href="#rim" fill="#404040">
                                <set attributeName="fill" to="#808080" begin="zoomplus.mouseover" end="zoomplus.mouseout"/>
                        </use>
                        <path d="M-4,0h8M0,-4v8" fill="none" stroke="white" stroke-width="1.5" pointer-events="none"/>
                </g>
                <g id="zoomMin">
                        <use xlink:href="#rim" fill="#404040">
                                <set attributeName="fill" to="#808080" begin="zoomminus.mouseover" end="zoomminus.mouseout"/>
                        </use>
                        <path d="M-4,0h8" fill="none" stroke="white" stroke-width="1.5" pointer-events="none"/>
                </g>
                <g id="dirArrow">
                        <path fill="none" stroke="white" stroke-width="1.5" d="M0,-3.0v7 M-2.5,-0.5L0,-3.0L2.5,-0.5"/>
                </g>
               <g id="resetDef">
                       <use xlink:href="#rim2" fill="#404040">
                               <set attributeName="fill" to="#808080" begin="reset.mouseover" end="reset.mouseout"/>
                       </use>
               </g>
        </defs>

<script type="text/javascript">
var viewWidth = 2409;
var viewHeight = 430;
var sectionId = 'dynsection-0';
</script>
<script xlink:href="../../svgpan.js"/>
<svg id="graph" class="graph">
<g id="viewport">
<title>/github/workspace/kratos/integration/tetrahedra_gaussian_integration_points.h</title>
<!-- Node1 -->
<g id="node1" class="node">
<title>Node1</title>
<g id="a_node1"><a xlink:title=" ">
<polygon fill="#bfbfbf" stroke="black" points="985.5,-380.5 985.5,-421.5 1135.5,-421.5 1135.5,-380.5 985.5,-380.5"/>
<text text-anchor="start" x="993.5" y="-409.5" font-family="Helvetica,sans-Serif" font-size="10.00">/github/workspace/kratos</text>
<text text-anchor="start" x="993.5" y="-398.5" font-family="Helvetica,sans-Serif" font-size="10.00">/integration/tetrahedra</text>
<text text-anchor="middle" x="1060.5" y="-387.5" font-family="Helvetica,sans-Serif" font-size="10.00">_gaussian_integration_points.h</text>
</a>
</g>
</g>
<!-- Node2 -->
<g id="node2" class="node">
<title>Node2</title>
<g id="a_node2"><a xlink:title=" ">
<polygon fill="none" stroke="#bfbfbf" points="2287,-62 2287,-81 2328,-81 2328,-62 2287,-62"/>
<text text-anchor="middle" x="2307.5" y="-69" font-family="Helvetica,sans-Serif" font-size="10.00">string</text>
</a>
</g>
</g>
<!-- Node1&#45;&gt;Node2 -->
<g id="edge1" class="edge">
<title>Node1&#45;&gt;Node2</title>
<path fill="none" stroke="midnightblue" d="M1135.69,-397.75C1364.94,-389.92 2039.5,-359.11 2039.5,-268 2039.5,-268 2039.5,-268 2039.5,-204.5 2039.5,-86.53 2166.62,-127.28 2277.5,-87 2278.93,-86.48 2280.38,-85.92 2281.83,-85.32"/>
<polygon fill="midnightblue" stroke="midnightblue" points="2283.56,-88.38 2291.26,-81.09 2280.7,-81.99 2283.56,-88.38"/>
</g>
<!-- Node3 -->
<g id="node3" class="node">
<title>Node3</title>
<g id="a_node3"><a xlink:title=" ">
<polygon fill="none" stroke="#bfbfbf" points="2346.5,-62 2346.5,-81 2400.5,-81 2400.5,-62 2346.5,-62"/>
<text text-anchor="middle" x="2373.5" y="-69" font-family="Helvetica,sans-Serif" font-size="10.00">iostream</text>
</a>
</g>
</g>
<!-- Node1&#45;&gt;Node3 -->
<g id="edge2" class="edge">
<title>Node1&#45;&gt;Node3</title>
<path fill="none" stroke="midnightblue" d="M1135.91,-400.2C1410.71,-399.95 2342.5,-390.08 2342.5,-268 2342.5,-268 2342.5,-268 2342.5,-204.5 2342.5,-162.89 2357.28,-115.82 2366.43,-90.66"/>
<polygon fill="midnightblue" stroke="midnightblue" points="2369.7,-91.89 2369.94,-81.29 2363.15,-89.42 2369.7,-91.89"/>
</g>
<!-- Node4 -->
<g id="node4" class="node">
<title>Node4</title>
<g id="a_node4"><a xlink:title=" ">
<polygon fill="none" stroke="#bfbfbf" points="981,-319 981,-338 1032,-338 1032,-319 981,-319"/>
<text text-anchor="middle" x="1006.5" y="-326" font-family="Helvetica,sans-Serif" font-size="10.00">numeric</text>
</a>
</g>
</g>
<!-- Node1&#45;&gt;Node4 -->
<g id="edge3" class="edge">
<title>Node1&#45;&gt;Node4</title>
<path fill="none" stroke="midnightblue" d="M1045.46,-380.36C1037.25,-369.65 1027.2,-356.52 1019.36,-346.29"/>
<polygon fill="midnightblue" stroke="midnightblue" points="1022,-343.98 1013.14,-338.17 1016.45,-348.24 1022,-343.98"/>
</g>
<!-- Node5 -->
<g id="node5" class="node">
<title>Node5</title>
<g id="a_node5"><a xlink:title=" ">
<polygon fill="none" stroke="#bfbfbf" points="1036,-196 1036,-215 1085,-215 1085,-196 1036,-196"/>
<text text-anchor="middle" x="1060.5" y="-203" font-family="Helvetica,sans-Serif" font-size="10.00">cstddef</text>
</a>
</g>
</g>
<!-- Node1&#45;&gt;Node5 -->
<g id="edge4" class="edge">
<title>Node1&#45;&gt;Node5</title>
<path fill="none" stroke="midnightblue" d="M1060.5,-380.38C1060.5,-343.1 1060.5,-262.46 1060.5,-225.59"/>
<polygon fill="midnightblue" stroke="midnightblue" points="1064,-225.27 1060.5,-215.27 1057,-225.27 1064,-225.27"/>
</g>
<!-- Node6 -->
<g id="node6" class="node">
<title>Node6</title>
<g id="a_node6"><a xlink:title=" ">
<polygon fill="none" stroke="#bfbfbf" points="1074,-129 1074,-148 1157,-148 1157,-129 1074,-129"/>
<text text-anchor="middle" x="1115.5" y="-136" font-family="Helvetica,sans-Serif" font-size="10.00">boost/array.hpp</text>
</a>
</g>
</g>
<!-- Node1&#45;&gt;Node6 -->
<g id="edge5" class="edge">
<title>Node1&#45;&gt;Node6</title>
<path fill="none" stroke="midnightblue" d="M1011.54,-380.38C996.24,-371.65 981.13,-359.72 972.5,-344 965.87,-331.92 969.62,-326.47 972.5,-313 985,-254.44 987.34,-234.42 1027.5,-190 1042.62,-173.28 1064.62,-160.65 1082.84,-152.21"/>
<polygon fill="midnightblue" stroke="midnightblue" points="1084.5,-155.3 1092.23,-148.06 1081.67,-148.9 1084.5,-155.3"/>
</g>
<!-- Node7 -->
<g id="node7" class="node">
<title>Node7</title>
<g id="a_node7"><a xlink:href="../../df/d67/define_8h.html" target="_top" xlink:title=" ">
<polygon fill="none" stroke="black" points="291,-62 291,-81 380,-81 380,-62 291,-62"/>
<text text-anchor="middle" x="335.5" y="-69" font-family="Helvetica,sans-Serif" font-size="10.00">includes/define.h</text>
</a>
</g>
</g>
<!-- Node1&#45;&gt;Node7 -->
<g id="edge6" class="edge">
<title>Node1&#45;&gt;Node7</title>
<path fill="none" stroke="midnightblue" d="M985.23,-392.77C860.72,-378.7 625.5,-342.28 625.5,-268 625.5,-268 625.5,-268 625.5,-204.5 625.5,-151.66 464.02,-104.18 382.05,-83.48"/>
<polygon fill="midnightblue" stroke="midnightblue" points="382.78,-80.05 372.23,-81.03 381.09,-86.85 382.78,-80.05"/>
</g>
<!-- Node13 -->
<g id="node13" class="node">
<title>Node13</title>
<g id="a_node13"><a xlink:href="../../da/d87/integration__point_8h.html" target="_top" xlink:title=" ">
<polygon fill="none" stroke="black" points="1177.5,-313.5 1177.5,-343.5 1287.5,-343.5 1287.5,-313.5 1177.5,-313.5"/>
<text text-anchor="start" x="1185.5" y="-331.5" font-family="Helvetica,sans-Serif" font-size="10.00">integration/integration</text>
<text text-anchor="middle" x="1232.5" y="-320.5" font-family="Helvetica,sans-Serif" font-size="10.00">_point.h</text>
</a>
</g>
</g>
<!-- Node1&#45;&gt;Node13 -->
<g id="edge12" class="edge">
<title>Node1&#45;&gt;Node13</title>
<path fill="none" stroke="midnightblue" d="M1108.41,-380.36C1133.6,-370.04 1164.24,-357.48 1188.78,-347.42"/>
<polygon fill="midnightblue" stroke="midnightblue" points="1190.27,-350.59 1198.2,-343.56 1187.62,-344.11 1190.27,-350.59"/>
</g>
<!-- Node8 -->
<g id="node8" class="node">
<title>Node8</title>
<g id="a_node8"><a xlink:title=" ">
<polygon fill="none" stroke="#bfbfbf" points="0,-0.5 0,-19.5 59,-19.5 59,-0.5 0,-0.5"/>
<text text-anchor="middle" x="29.5" y="-7.5" font-family="Helvetica,sans-Serif" font-size="10.00">stdexcept</text>
</a>
</g>
</g>
<!-- Node7&#45;&gt;Node8 -->
<g id="edge7" class="edge">
<title>Node7&#45;&gt;Node8</title>
<path fill="none" stroke="midnightblue" d="M290.8,-62.73C239.52,-53.67 152.7,-37.89 69.24,-20.3"/>
<polygon fill="midnightblue" stroke="midnightblue" points="69.85,-16.86 59.34,-18.21 68.4,-23.7 69.85,-16.86"/>
</g>
<!-- Node9 -->
<g id="node9" class="node">
<title>Node9</title>
<g id="a_node9"><a xlink:title=" ">
<polygon fill="none" stroke="#bfbfbf" points="486.5,-0.5 486.5,-19.5 538.5,-19.5 538.5,-0.5 486.5,-0.5"/>
<text text-anchor="middle" x="512.5" y="-7.5" font-family="Helvetica,sans-Serif" font-size="10.00">sstream</text>
</a>
</g>
</g>
<!-- Node7&#45;&gt;Node9 -->
<g id="edge8" class="edge">
<title>Node7&#45;&gt;Node9</title>
<path fill="none" stroke="midnightblue" d="M360.86,-61.98C391.48,-51.68 443.16,-34.31 477.55,-22.75"/>
<polygon fill="midnightblue" stroke="midnightblue" points="478.82,-26.01 487.19,-19.51 476.59,-19.38 478.82,-26.01"/>
</g>
<!-- Node10 -->
<g id="node10" class="node">
<title>Node10</title>
<g id="a_node10"><a xlink:title=" ">
<polygon fill="none" stroke="#bfbfbf" points="77,-0.5 77,-19.5 180,-19.5 180,-0.5 77,-0.5"/>
<text text-anchor="middle" x="128.5" y="-7.5" font-family="Helvetica,sans-Serif" font-size="10.00">boost/smart_ptr.hpp</text>
</a>
</g>
</g>
<!-- Node7&#45;&gt;Node10 -->
<g id="edge9" class="edge">
<title>Node7&#45;&gt;Node10</title>
<path fill="none" stroke="midnightblue" d="M305.84,-61.98C269.57,-51.55 208.04,-33.86 167.84,-22.31"/>
<polygon fill="midnightblue" stroke="midnightblue" points="168.68,-18.91 158.1,-19.51 166.75,-25.64 168.68,-18.91"/>
</g>
<!-- Node11 -->
<g id="node11" class="node">
<title>Node11</title>
<g id="a_node11"><a xlink:title=" ">
<polygon fill="none" stroke="#bfbfbf" points="198,-0.5 198,-19.5 329,-19.5 329,-0.5 198,-0.5"/>
<text text-anchor="middle" x="263.5" y="-7.5" font-family="Helvetica,sans-Serif" font-size="10.00">boost/current_function.hpp</text>
</a>
</g>
</g>
<!-- Node7&#45;&gt;Node11 -->
<g id="edge10" class="edge">
<title>Node7&#45;&gt;Node11</title>
<path fill="none" stroke="midnightblue" d="M325.18,-61.98C313.85,-52.61 295.43,-37.38 281.66,-26.01"/>
<polygon fill="midnightblue" stroke="midnightblue" points="283.73,-23.18 273.8,-19.51 279.28,-28.58 283.73,-23.18"/>
</g>
<!-- Node12 -->
<g id="node12" class="node">
<title>Node12</title>
<g id="a_node12"><a xlink:href="../../de/d17/kratos__config_8h.html" target="_top" xlink:title=" ">
<polygon fill="none" stroke="black" points="347,-0.5 347,-19.5 468,-19.5 468,-0.5 347,-0.5"/>
<text text-anchor="middle" x="407.5" y="-7.5" font-family="Helvetica,sans-Serif" font-size="10.00">includes/kratos_config.h</text>
</a>
</g>
</g>
<!-- Node7&#45;&gt;Node12 -->
<g id="edge11" class="edge">
<title>Node7&#45;&gt;Node12</title>
<path fill="none" stroke="midnightblue" d="M345.82,-61.98C357.15,-52.61 375.57,-37.38 389.34,-26.01"/>
<polygon fill="midnightblue" stroke="midnightblue" points="391.72,-28.58 397.2,-19.51 387.27,-23.18 391.72,-28.58"/>
</g>
<!-- Node13&#45;&gt;Node2 -->
<g id="edge13" class="edge">
<title>Node13&#45;&gt;Node2</title>
<path fill="none" stroke="midnightblue" d="M1287.94,-326.62C1403.25,-323.06 1675.59,-305.57 1884.5,-221 1955.24,-192.36 1954.48,-150.93 2025.5,-123 2130.79,-81.6 2169.29,-120.01 2277.5,-87 2279.17,-86.49 2280.87,-85.9 2282.56,-85.25"/>
<polygon fill="midnightblue" stroke="midnightblue" points="2284.23,-88.34 2291.99,-81.12 2281.42,-81.93 2284.23,-88.34"/>
</g>
<!-- Node13&#45;&gt;Node3 -->
<g id="edge14" class="edge">
<title>Node13&#45;&gt;Node3</title>
<path fill="none" stroke="midnightblue" d="M1287.5,-325.92C1382.73,-322.35 1584.09,-311.1 1750.5,-277 1927.72,-240.69 1966.55,-210.2 2138.5,-154 2227.21,-125.01 2249.96,-119.34 2337.5,-87 2339.35,-86.32 2341.25,-85.6 2343.15,-84.87"/>
<polygon fill="midnightblue" stroke="midnightblue" points="2344.61,-88.06 2352.64,-81.14 2342.05,-81.54 2344.61,-88.06"/>
</g>
<!-- Node13&#45;&gt;Node5 -->
<g id="edge15" class="edge">
<title>Node13&#45;&gt;Node5</title>
<path fill="none" stroke="midnightblue" d="M1212.43,-313.38C1179.55,-290.25 1114.51,-244.5 1081.21,-221.07"/>
<polygon fill="midnightblue" stroke="midnightblue" points="1082.91,-217.98 1072.71,-215.09 1078.88,-223.71 1082.91,-217.98"/>
</g>
<!-- Node13&#45;&gt;Node7 -->
<g id="edge16" class="edge">
<title>Node13&#45;&gt;Node7</title>
<path fill="none" stroke="midnightblue" d="M1198.37,-313.41C1108.46,-276.79 857.06,-177.72 639.5,-123 542.56,-98.62 516.05,-103.7 417.5,-87 408.7,-85.51 399.37,-83.89 390.28,-82.3"/>
<polygon fill="midnightblue" stroke="midnightblue" points="390.62,-78.8 380.17,-80.52 389.41,-85.7 390.62,-78.8"/>
</g>
<!-- Node14 -->
<g id="node14" class="node">
<title>Node14</title>
<g id="a_node14"><a xlink:href="../../d2/d91/point_8h.html" target="_top" xlink:title=" ">
<polygon fill="none" stroke="black" points="1241.5,-257.5 1241.5,-276.5 1337.5,-276.5 1337.5,-257.5 1241.5,-257.5"/>
<text text-anchor="middle" x="1289.5" y="-264.5" font-family="Helvetica,sans-Serif" font-size="10.00">geometries/point.h</text>
</a>
</g>
</g>
<!-- Node13&#45;&gt;Node14 -->
<g id="edge17" class="edge">
<title>Node13&#45;&gt;Node14</title>
<path fill="none" stroke="midnightblue" d="M1246.01,-313.4C1254.46,-304.58 1265.38,-293.18 1274.16,-284.02"/>
<polygon fill="midnightblue" stroke="midnightblue" points="1276.82,-286.3 1281.21,-276.66 1271.76,-281.46 1276.82,-286.3"/>
</g>
<!-- Node14&#45;&gt;Node2 -->
<g id="edge18" class="edge">
<title>Node14&#45;&gt;Node2</title>
<path fill="none" stroke="midnightblue" d="M1326.02,-257.46C1429.32,-233.53 1732.7,-164.85 1987.5,-123 2115.66,-101.95 2152.93,-123.75 2277.5,-87 2279.37,-86.45 2281.27,-85.79 2283.16,-85.06"/>
<polygon fill="midnightblue" stroke="midnightblue" points="2284.58,-88.26 2292.32,-81.03 2281.75,-81.86 2284.58,-88.26"/>
</g>
<!-- Node14&#45;&gt;Node3 -->
<g id="edge19" class="edge">
<title>Node14&#45;&gt;Node3</title>
<path fill="none" stroke="midnightblue" d="M1337.51,-266.5C1439.4,-266.66 1684.37,-262.26 1884.5,-221 2015.69,-193.95 2040.45,-158.88 2169.5,-123 2243.07,-102.55 2264.48,-109.35 2337.5,-87 2339.78,-86.3 2342.12,-85.52 2344.46,-84.69"/>
<polygon fill="midnightblue" stroke="midnightblue" points="2345.81,-87.92 2353.91,-81.1 2343.32,-81.38 2345.81,-87.92"/>
</g>
<!-- Node14&#45;&gt;Node5 -->
<g id="edge21" class="edge">
<title>Node14&#45;&gt;Node5</title>
<path fill="none" stroke="midnightblue" d="M1246.84,-257.47C1208.07,-249.35 1149.46,-236.14 1099.5,-221 1096.93,-220.22 1094.29,-219.36 1091.64,-218.47"/>
<polygon fill="midnightblue" stroke="midnightblue" points="1092.8,-215.16 1082.2,-215.11 1090.45,-221.76 1092.8,-215.16"/>
</g>
<!-- Node14&#45;&gt;Node7 -->
<g id="edge23" class="edge">
<title>Node14&#45;&gt;Node7</title>
<path fill="none" stroke="midnightblue" d="M1270.11,-257.5C1230.62,-239.93 1138.46,-197.61 1065.5,-154 1044.97,-141.73 1044.09,-130.88 1021.5,-123 889.72,-77.04 532.51,-107.74 394.5,-87 388.27,-86.06 381.74,-84.78 375.38,-83.35"/>
<polygon fill="midnightblue" stroke="midnightblue" points="376.14,-79.93 365.61,-81.03 374.53,-86.74 376.14,-79.93"/>
</g>
<!-- Node14&#45;&gt;Node9 -->
<g id="edge20" class="edge">
<title>Node14&#45;&gt;Node9</title>
<path fill="none" stroke="midnightblue" d="M1285.38,-257.48C1272.29,-231.55 1228.87,-153.48 1166.5,-123 1092.64,-86.9 484.2,-146.53 427.5,-87 418,-77.02 420.39,-67.8 427.5,-56 438.23,-38.18 458.65,-27.04 476.79,-20.31"/>
<polygon fill="midnightblue" stroke="midnightblue" points="477.93,-23.62 486.28,-17.09 475.68,-16.99 477.93,-23.62"/>
</g>
<!-- Node15 -->
<g id="node15" class="node">
<title>Node15</title>
<g id="a_node15"><a xlink:title=" ">
<polygon fill="none" stroke="#bfbfbf" points="1780,-190.5 1780,-220.5 1875,-220.5 1875,-190.5 1780,-190.5"/>
<text text-anchor="start" x="1788" y="-208.5" font-family="Helvetica,sans-Serif" font-size="10.00">boost/serialization</text>
<text text-anchor="middle" x="1827.5" y="-197.5" font-family="Helvetica,sans-Serif" font-size="10.00">/base_object.hpp</text>
</a>
</g>
</g>
<!-- Node14&#45;&gt;Node15 -->
<g id="edge22" class="edge">
<title>Node14&#45;&gt;Node15</title>
<path fill="none" stroke="midnightblue" d="M1337.75,-263.6C1424.03,-258.84 1610.26,-246.37 1765.5,-221 1766.97,-220.76 1768.45,-220.51 1769.94,-220.24"/>
<polygon fill="midnightblue" stroke="midnightblue" points="1770.75,-223.65 1779.9,-218.32 1769.42,-216.78 1770.75,-223.65"/>
</g>
<!-- Node16 -->
<g id="node16" class="node">
<title>Node16</title>
<g id="a_node16"><a xlink:href="../../d9/d36/array__1d_8h.html" target="_top" xlink:title=" ">
<polygon fill="none" stroke="black" points="1300,-196 1300,-215 1409,-215 1409,-196 1300,-196"/>
<text text-anchor="middle" x="1354.5" y="-203" font-family="Helvetica,sans-Serif" font-size="10.00">containers/array_1d.h</text>
</a>
</g>
</g>
<!-- Node14&#45;&gt;Node16 -->
<g id="edge24" class="edge">
<title>Node14&#45;&gt;Node16</title>
<path fill="none" stroke="midnightblue" d="M1298.81,-257.48C1308.95,-248.2 1325.36,-233.17 1337.75,-221.83"/>
<polygon fill="midnightblue" stroke="midnightblue" points="1340.19,-224.34 1345.2,-215.01 1335.46,-219.18 1340.19,-224.34"/>
</g>
<!-- Node16&#45;&gt;Node2 -->
<g id="edge25" class="edge">
<title>Node16&#45;&gt;Node2</title>
<path fill="none" stroke="midnightblue" d="M1367.84,-195.89C1382.84,-186.1 1407.81,-169.45 1428.5,-154 1445.96,-140.96 1446.13,-130.77 1466.5,-123 1635.06,-58.72 2102.59,-131.16 2277.5,-87 2279.44,-86.51 2281.39,-85.89 2283.33,-85.18"/>
<polygon fill="midnightblue" stroke="midnightblue" points="2284.91,-88.31 2292.69,-81.12 2282.12,-81.89 2284.91,-88.31"/>
</g>
<!-- Node16&#45;&gt;Node3 -->
<g id="edge26" class="edge">
<title>Node16&#45;&gt;Node3</title>
<path fill="none" stroke="midnightblue" d="M1409.03,-198.83C1602.19,-178.64 2247.07,-110.18 2337.5,-87 2340.01,-86.36 2342.58,-85.58 2345.14,-84.72"/>
<polygon fill="midnightblue" stroke="midnightblue" points="2346.61,-87.91 2354.76,-81.14 2344.17,-81.35 2346.61,-87.91"/>
</g>
<!-- Node16&#45;&gt;Node6 -->
<g id="edge27" class="edge">
<title>Node16&#45;&gt;Node6</title>
<path fill="none" stroke="midnightblue" d="M1322.76,-195.87C1280.06,-184.25 1204.02,-163.58 1156.88,-150.75"/>
<polygon fill="midnightblue" stroke="midnightblue" points="1157.56,-147.31 1146.99,-148.06 1155.72,-154.07 1157.56,-147.31"/>
</g>
<!-- Node16&#45;&gt;Node7 -->
<g id="edge28" class="edge">
<title>Node16&#45;&gt;Node7</title>
<path fill="none" stroke="midnightblue" d="M1333.41,-195.98C1309.19,-186.13 1268.3,-169.3 1233.5,-154 1203.47,-140.79 1198.36,-130.83 1166.5,-123 1006.84,-83.76 591.05,-103.82 427.5,-87 415.44,-85.76 402.55,-84 390.35,-82.13"/>
<polygon fill="midnightblue" stroke="midnightblue" points="390.72,-78.65 380.3,-80.55 389.63,-85.56 390.72,-78.65"/>
</g>
<!-- Node17 -->
<g id="node17" class="node">
<title>Node17</title>
<g id="a_node17"><a xlink:href="../../d9/d3e/ublas__interface_8h.html" target="_top" xlink:title=" ">
<polygon fill="none" stroke="black" points="1290,-129 1290,-148 1419,-148 1419,-129 1290,-129"/>
<text text-anchor="middle" x="1354.5" y="-136" font-family="Helvetica,sans-Serif" font-size="10.00">includes/ublas_interface.h</text>
</a>
</g>
</g>
<!-- Node16&#45;&gt;Node17 -->
<g id="edge29" class="edge">
<title>Node16&#45;&gt;Node17</title>
<path fill="none" stroke="midnightblue" d="M1354.5,-195.73C1354.5,-186.18 1354.5,-170.62 1354.5,-158.28"/>
<polygon fill="midnightblue" stroke="midnightblue" points="1358,-158.13 1354.5,-148.13 1351,-158.13 1358,-158.13"/>
</g>
<!-- Node21 -->
<g id="node21" class="node">
<title>Node21</title>
<g id="a_node21"><a xlink:title=" ">
<polygon fill="none" stroke="#bfbfbf" points="436.5,-56.5 436.5,-86.5 552.5,-86.5 552.5,-56.5 436.5,-56.5"/>
<text text-anchor="start" x="444.5" y="-74.5" font-family="Helvetica,sans-Serif" font-size="10.00">boost/numeric/ublas</text>
<text text-anchor="middle" x="494.5" y="-63.5" font-family="Helvetica,sans-Serif" font-size="10.00">/vector_expression.hpp</text>
</a>
</g>
</g>
<!-- Node16&#45;&gt;Node21 -->
<g id="edge48" class="edge">
<title>Node16&#45;&gt;Node21</title>
<path fill="none" stroke="midnightblue" d="M1342.08,-195.95C1327.53,-185.94 1302.73,-168.82 1281.5,-154 1261.89,-140.31 1260.1,-130.83 1237.5,-123 1098.27,-74.77 726.28,-105.65 562.51,-86.89"/>
<polygon fill="midnightblue" stroke="midnightblue" points="562.86,-83.41 552.5,-85.65 562,-90.35 562.86,-83.41"/>
</g>
<!-- Node33 -->
<g id="node33" class="node">
<title>Node33</title>
<g id="a_node33"><a xlink:title=" ">
<polygon fill="none" stroke="#bfbfbf" points="1475.5,-123.5 1475.5,-153.5 1579.5,-153.5 1579.5,-123.5 1475.5,-123.5"/>
<text text-anchor="start" x="1483.5" y="-141.5" font-family="Helvetica,sans-Serif" font-size="10.00">boost/numeric/ublas</text>
<text text-anchor="middle" x="1527.5" y="-130.5" font-family="Helvetica,sans-Serif" font-size="10.00">/storage.hpp</text>
</a>
</g>
</g>
<!-- Node16&#45;&gt;Node33 -->
<g id="edge49" class="edge">
<title>Node16&#45;&gt;Node33</title>
<path fill="none" stroke="midnightblue" d="M1377.47,-195.87C1403.66,-186.03 1447.15,-169.69 1480.58,-157.13"/>
<polygon fill="midnightblue" stroke="midnightblue" points="1482.03,-160.32 1490.16,-153.53 1479.57,-153.77 1482.03,-160.32"/>
</g>
<!-- Node34 -->
<g id="node34" class="node">
<title>Node34</title>
<g id="a_node34"><a xlink:title=" ">
<polygon fill="none" stroke="#bfbfbf" points="1598,-123.5 1598,-153.5 1723,-153.5 1723,-123.5 1598,-123.5"/>
<text text-anchor="start" x="1606" y="-141.5" font-family="Helvetica,sans-Serif" font-size="10.00">boost/numeric/ublas</text>
<text text-anchor="middle" x="1660.5" y="-130.5" font-family="Helvetica,sans-Serif" font-size="10.00">/detail/vector_assign.hpp</text>
</a>
</g>
</g>
<!-- Node16&#45;&gt;Node34 -->
<g id="edge50" class="edge">
<title>Node16&#45;&gt;Node34</title>
<path fill="none" stroke="midnightblue" d="M1394.82,-195.94C1443.86,-185.52 1527.56,-167.74 1587.92,-154.92"/>
<polygon fill="midnightblue" stroke="midnightblue" points="1588.72,-158.33 1597.78,-152.82 1587.27,-151.48 1588.72,-158.33"/>
</g>
<!-- Node17&#45;&gt;Node2 -->
<g id="edge30" class="edge">
<title>Node17&#45;&gt;Node2</title>
<path fill="none" stroke="midnightblue" d="M1394.93,-128.96C1407.26,-126.66 1420.89,-124.42 1433.5,-123 1620.05,-102 2095.45,-132.79 2277.5,-87 2279.44,-86.51 2281.39,-85.89 2283.33,-85.19"/>
<polygon fill="midnightblue" stroke="midnightblue" points="2284.91,-88.32 2292.69,-81.13 2282.13,-81.9 2284.91,-88.32"/>
</g>
<!-- Node17&#45;&gt;Node3 -->
<g id="edge31" class="edge">
<title>Node17&#45;&gt;Node3</title>
<path fill="none" stroke="midnightblue" d="M1412.82,-128.97C1430.07,-126.71 1449.02,-124.49 1466.5,-123 1659.52,-106.55 2148.12,-127.78 2337.5,-87 2340.34,-86.39 2343.25,-85.57 2346.11,-84.64"/>
<polygon fill="midnightblue" stroke="midnightblue" points="2347.41,-87.89 2355.57,-81.12 2344.97,-81.32 2347.41,-87.89"/>
</g>
<!-- Node17&#45;&gt;Node7 -->
<g id="edge47" class="edge">
<title>Node17&#45;&gt;Node7</title>
<path fill="none" stroke="midnightblue" d="M1289.7,-130.76C1261.95,-128.05 1229.16,-125.08 1199.5,-123 856.86,-99 769.22,-121.79 427.5,-87 415.44,-85.77 402.54,-84.02 390.34,-82.15"/>
<polygon fill="midnightblue" stroke="midnightblue" points="390.72,-78.67 380.29,-80.57 389.63,-85.58 390.72,-78.67"/>
</g>
<!-- Node18 -->
<g id="node18" class="node">
<title>Node18</title>
<g id="a_node18"><a xlink:title=" ">
<polygon fill="none" stroke="#bfbfbf" points="2164.5,-56.5 2164.5,-86.5 2268.5,-86.5 2268.5,-56.5 2164.5,-56.5"/>
<text text-anchor="start" x="2172.5" y="-74.5" font-family="Helvetica,sans-Serif" font-size="10.00">boost/numeric/ublas</text>
<text text-anchor="middle" x="2216.5" y="-63.5" font-family="Helvetica,sans-Serif" font-size="10.00">/vector.hpp</text>
</a>
</g>
</g>
<!-- Node17&#45;&gt;Node18 -->
<g id="edge32" class="edge">
<title>Node17&#45;&gt;Node18</title>
<path fill="none" stroke="midnightblue" d="M1395.35,-128.94C1407.57,-126.67 1421.03,-124.45 1433.5,-123 1749.37,-86.3 1835.66,-131.4 2154.4,-86.96"/>
<polygon fill="midnightblue" stroke="midnightblue" points="2154.97,-90.42 2164.38,-85.55 2153.99,-83.49 2154.97,-90.42"/>
</g>
<!-- Node19 -->
<g id="node19" class="node">
<title>Node19</title>
<g id="a_node19"><a xlink:title=" ">
<polygon fill="none" stroke="#bfbfbf" points="570.5,-56.5 570.5,-86.5 674.5,-86.5 674.5,-56.5 570.5,-56.5"/>
<text text-anchor="start" x="578.5" y="-74.5" font-family="Helvetica,sans-Serif" font-size="10.00">boost/numeric/ublas</text>
<text text-anchor="middle" x="622.5" y="-63.5" font-family="Helvetica,sans-Serif" font-size="10.00">/vector_proxy.hpp</text>
</a>
</g>
</g>
<!-- Node17&#45;&gt;Node19 -->
<g id="edge33" class="edge">
<title>Node17&#45;&gt;Node19</title>
<path fill="none" stroke="midnightblue" d="M1313.23,-128.95C1301.12,-126.71 1287.82,-124.5 1275.5,-123 1017.16,-91.55 946.05,-124.76 684.8,-87.01"/>
<polygon fill="midnightblue" stroke="midnightblue" points="685.03,-83.5 674.63,-85.52 684.01,-90.43 685.03,-83.5"/>
</g>
<!-- Node20 -->
<g id="node20" class="node">
<title>Node20</title>
<g id="a_node20"><a xlink:title=" ">
<polygon fill="none" stroke="#bfbfbf" points="692.5,-56.5 692.5,-86.5 796.5,-86.5 796.5,-56.5 692.5,-56.5"/>
<text text-anchor="start" x="700.5" y="-74.5" font-family="Helvetica,sans-Serif" font-size="10.00">boost/numeric/ublas</text>
<text text-anchor="middle" x="744.5" y="-63.5" font-family="Helvetica,sans-Serif" font-size="10.00">/vector_sparse.hpp</text>
</a>
</g>
</g>
<!-- Node17&#45;&gt;Node20 -->
<g id="edge34" class="edge">
<title>Node17&#45;&gt;Node20</title>
<path fill="none" stroke="midnightblue" d="M1312.4,-128.93C1300.51,-126.73 1287.53,-124.56 1275.5,-123 1070.99,-96.47 1014.26,-118.61 806.64,-87.01"/>
<polygon fill="midnightblue" stroke="midnightblue" points="807.05,-83.53 796.64,-85.46 805.98,-90.45 807.05,-83.53"/>
</g>
<!-- Node17&#45;&gt;Node21 -->
<g id="edge35" class="edge">
<title>Node17&#45;&gt;Node21</title>
<path fill="none" stroke="midnightblue" d="M1313.65,-128.95C1301.43,-126.68 1287.97,-124.45 1275.5,-123 963.29,-86.64 878.3,-127.84 562.86,-87.02"/>
<polygon fill="midnightblue" stroke="midnightblue" points="562.87,-83.49 552.5,-85.66 561.96,-90.43 562.87,-83.49"/>
</g>
<!-- Node22 -->
<g id="node22" class="node">
<title>Node22</title>
<g id="a_node22"><a xlink:title=" ">
<polygon fill="none" stroke="#bfbfbf" points="814.5,-56.5 814.5,-86.5 918.5,-86.5 918.5,-56.5 814.5,-56.5"/>
<text text-anchor="start" x="822.5" y="-74.5" font-family="Helvetica,sans-Serif" font-size="10.00">boost/numeric/ublas</text>
<text text-anchor="middle" x="866.5" y="-63.5" font-family="Helvetica,sans-Serif" font-size="10.00">/matrix.hpp</text>
</a>
</g>
</g>
<!-- Node17&#45;&gt;Node22 -->
<g id="edge36" class="edge">
<title>Node17&#45;&gt;Node22</title>
<path fill="none" stroke="midnightblue" d="M1311.55,-128.98C1299.88,-126.84 1287.23,-124.68 1275.5,-123 1124.89,-101.42 1082.6,-112.53 928.94,-87.1"/>
<polygon fill="midnightblue" stroke="midnightblue" points="929.09,-83.58 918.65,-85.37 927.93,-90.48 929.09,-83.58"/>
</g>
<!-- Node23 -->
<g id="node23" class="node">
<title>Node23</title>
<g id="a_node23"><a xlink:title=" ">
<polygon fill="none" stroke="#bfbfbf" points="936.5,-56.5 936.5,-86.5 1040.5,-86.5 1040.5,-56.5 936.5,-56.5"/>
<text text-anchor="start" x="944.5" y="-74.5" font-family="Helvetica,sans-Serif" font-size="10.00">boost/numeric/ublas</text>
<text text-anchor="middle" x="988.5" y="-63.5" font-family="Helvetica,sans-Serif" font-size="10.00">/matrix_sparse.hpp</text>
</a>
</g>
</g>
<!-- Node17&#45;&gt;Node23 -->
<g id="edge37" class="edge">
<title>Node17&#45;&gt;Node23</title>
<path fill="none" stroke="midnightblue" d="M1309,-128.96C1298.04,-126.95 1286.36,-124.86 1275.5,-123 1178.38,-106.35 1150.97,-106.73 1050.63,-87.14"/>
<polygon fill="midnightblue" stroke="midnightblue" points="1051.17,-83.68 1040.69,-85.18 1049.82,-90.55 1051.17,-83.68"/>
</g>
<!-- Node24 -->
<g id="node24" class="node">
<title>Node24</title>
<g id="a_node24"><a xlink:title=" ">
<polygon fill="none" stroke="#bfbfbf" points="1058.5,-56.5 1058.5,-86.5 1162.5,-86.5 1162.5,-56.5 1058.5,-56.5"/>
<text text-anchor="start" x="1066.5" y="-74.5" font-family="Helvetica,sans-Serif" font-size="10.00">boost/numeric/ublas</text>
<text text-anchor="middle" x="1110.5" y="-63.5" font-family="Helvetica,sans-Serif" font-size="10.00">/matrix_proxy.hpp</text>
</a>
</g>
</g>
<!-- Node17&#45;&gt;Node24 -->
<g id="edge38" class="edge">
<title>Node17&#45;&gt;Node24</title>
<path fill="none" stroke="midnightblue" d="M1322.35,-128.94C1284.41,-118.83 1220.47,-101.8 1172.74,-89.08"/>
<polygon fill="midnightblue" stroke="midnightblue" points="1173.38,-85.63 1162.81,-86.44 1171.57,-92.39 1173.38,-85.63"/>
</g>
<!-- Node25 -->
<g id="node25" class="node">
<title>Node25</title>
<g id="a_node25"><a xlink:title=" ">
<polygon fill="none" stroke="#bfbfbf" points="1180.5,-56.5 1180.5,-86.5 1284.5,-86.5 1284.5,-56.5 1180.5,-56.5"/>
<text text-anchor="start" x="1188.5" y="-74.5" font-family="Helvetica,sans-Serif" font-size="10.00">boost/numeric/ublas</text>
<text text-anchor="middle" x="1232.5" y="-63.5" font-family="Helvetica,sans-Serif" font-size="10.00">/symmetric.hpp</text>
</a>
</g>
</g>
<!-- Node17&#45;&gt;Node25 -->
<g id="edge39" class="edge">
<title>Node17&#45;&gt;Node25</title>
<path fill="none" stroke="midnightblue" d="M1338.3,-128.87C1320.45,-119.36 1291.18,-103.77 1267.95,-91.39"/>
<polygon fill="midnightblue" stroke="midnightblue" points="1269.53,-88.26 1259.06,-86.65 1266.24,-94.44 1269.53,-88.26"/>
</g>
<!-- Node26 -->
<g id="node26" class="node">
<title>Node26</title>
<g id="a_node26"><a xlink:title=" ">
<polygon fill="none" stroke="#bfbfbf" points="1302.5,-56.5 1302.5,-86.5 1406.5,-86.5 1406.5,-56.5 1302.5,-56.5"/>
<text text-anchor="start" x="1310.5" y="-74.5" font-family="Helvetica,sans-Serif" font-size="10.00">boost/numeric/ublas</text>
<text text-anchor="middle" x="1354.5" y="-63.5" font-family="Helvetica,sans-Serif" font-size="10.00">/hermitian.hpp</text>
</a>
</g>
</g>
<!-- Node17&#45;&gt;Node26 -->
<g id="edge40" class="edge">
<title>Node17&#45;&gt;Node26</title>
<path fill="none" stroke="midnightblue" d="M1354.5,-128.73C1354.5,-120.54 1354.5,-107.92 1354.5,-96.71"/>
<polygon fill="midnightblue" stroke="midnightblue" points="1358,-96.59 1354.5,-86.59 1351,-96.59 1358,-96.59"/>
</g>
<!-- Node27 -->
<g id="node27" class="node">
<title>Node27</title>
<g id="a_node27"><a xlink:title=" ">
<polygon fill="none" stroke="#bfbfbf" points="1424.5,-56.5 1424.5,-86.5 1528.5,-86.5 1528.5,-56.5 1424.5,-56.5"/>
<text text-anchor="start" x="1432.5" y="-74.5" font-family="Helvetica,sans-Serif" font-size="10.00">boost/numeric/ublas</text>
<text text-anchor="middle" x="1476.5" y="-63.5" font-family="Helvetica,sans-Serif" font-size="10.00">/banded.hpp</text>
</a>
</g>
</g>
<!-- Node17&#45;&gt;Node27 -->
<g id="edge41" class="edge">
<title>Node17&#45;&gt;Node27</title>
<path fill="none" stroke="midnightblue" d="M1370.7,-128.87C1388.55,-119.36 1417.82,-103.77 1441.05,-91.39"/>
<polygon fill="midnightblue" stroke="midnightblue" points="1442.76,-94.44 1449.94,-86.65 1439.47,-88.26 1442.76,-94.44"/>
</g>
<!-- Node28 -->
<g id="node28" class="node">
<title>Node28</title>
<g id="a_node28"><a xlink:title=" ">
<polygon fill="none" stroke="#bfbfbf" points="1546.5,-56.5 1546.5,-86.5 1650.5,-86.5 1650.5,-56.5 1546.5,-56.5"/>
<text text-anchor="start" x="1554.5" y="-74.5" font-family="Helvetica,sans-Serif" font-size="10.00">boost/numeric/ublas</text>
<text text-anchor="middle" x="1598.5" y="-63.5" font-family="Helvetica,sans-Serif" font-size="10.00">/triangular.hpp</text>
</a>
</g>
</g>
<!-- Node17&#45;&gt;Node28 -->
<g id="edge42" class="edge">
<title>Node17&#45;&gt;Node28</title>
<path fill="none" stroke="midnightblue" d="M1386.65,-128.94C1424.59,-118.83 1488.53,-101.8 1536.26,-89.08"/>
<polygon fill="midnightblue" stroke="midnightblue" points="1537.43,-92.39 1546.19,-86.44 1535.62,-85.63 1537.43,-92.39"/>
</g>
<!-- Node29 -->
<g id="node29" class="node">
<title>Node29</title>
<g id="a_node29"><a xlink:title=" ">
<polygon fill="none" stroke="#bfbfbf" points="1668.5,-56.5 1668.5,-86.5 1772.5,-86.5 1772.5,-56.5 1668.5,-56.5"/>
<text text-anchor="start" x="1676.5" y="-74.5" font-family="Helvetica,sans-Serif" font-size="10.00">boost/numeric/ublas</text>
<text text-anchor="middle" x="1720.5" y="-63.5" font-family="Helvetica,sans-Serif" font-size="10.00">/io.hpp</text>
</a>
</g>
</g>
<!-- Node17&#45;&gt;Node29 -->
<g id="edge43" class="edge">
<title>Node17&#45;&gt;Node29</title>
<path fill="none" stroke="midnightblue" d="M1400,-128.96C1410.96,-126.95 1422.64,-124.86 1433.5,-123 1530.62,-106.35 1558.03,-106.73 1658.37,-87.14"/>
<polygon fill="midnightblue" stroke="midnightblue" points="1659.18,-90.55 1668.31,-85.18 1657.83,-83.68 1659.18,-90.55"/>
</g>
<!-- Node30 -->
<g id="node30" class="node">
<title>Node30</title>
<g id="a_node30"><a xlink:title=" ">
<polygon fill="none" stroke="#bfbfbf" points="1790.5,-56.5 1790.5,-86.5 1894.5,-86.5 1894.5,-56.5 1790.5,-56.5"/>
<text text-anchor="start" x="1798.5" y="-74.5" font-family="Helvetica,sans-Serif" font-size="10.00">boost/numeric/ublas</text>
<text text-anchor="middle" x="1842.5" y="-63.5" font-family="Helvetica,sans-Serif" font-size="10.00">/operation.hpp</text>
</a>
</g>
</g>
<!-- Node17&#45;&gt;Node30 -->
<g id="edge44" class="edge">
<title>Node17&#45;&gt;Node30</title>
<path fill="none" stroke="midnightblue" d="M1397.45,-128.98C1409.12,-126.84 1421.77,-124.68 1433.5,-123 1584.11,-101.42 1626.4,-112.53 1780.06,-87.1"/>
<polygon fill="midnightblue" stroke="midnightblue" points="1781.07,-90.48 1790.35,-85.37 1779.91,-83.58 1781.07,-90.48"/>
</g>
<!-- Node31 -->
<g id="node31" class="node">
<title>Node31</title>
<g id="a_node31"><a xlink:title=" ">
<polygon fill="none" stroke="#bfbfbf" points="1912.5,-56.5 1912.5,-86.5 2016.5,-86.5 2016.5,-56.5 1912.5,-56.5"/>
<text text-anchor="start" x="1920.5" y="-74.5" font-family="Helvetica,sans-Serif" font-size="10.00">boost/numeric/ublas</text>
<text text-anchor="middle" x="1964.5" y="-63.5" font-family="Helvetica,sans-Serif" font-size="10.00">/lu.hpp</text>
</a>
</g>
</g>
<!-- Node17&#45;&gt;Node31 -->
<g id="edge45" class="edge">
<title>Node17&#45;&gt;Node31</title>
<path fill="none" stroke="midnightblue" d="M1396.6,-128.93C1408.49,-126.73 1421.47,-124.56 1433.5,-123 1638.01,-96.47 1694.74,-118.61 1902.36,-87.01"/>
<polygon fill="midnightblue" stroke="midnightblue" points="1903.02,-90.45 1912.36,-85.46 1901.95,-83.53 1903.02,-90.45"/>
</g>
<!-- Node32 -->
<g id="node32" class="node">
<title>Node32</title>
<g id="a_node32"><a xlink:title=" ">
<polygon fill="none" stroke="#bfbfbf" points="2034.5,-56.5 2034.5,-86.5 2146.5,-86.5 2146.5,-56.5 2034.5,-56.5"/>
<text text-anchor="start" x="2042.5" y="-74.5" font-family="Helvetica,sans-Serif" font-size="10.00">boost/numeric/ublas</text>
<text text-anchor="middle" x="2090.5" y="-63.5" font-family="Helvetica,sans-Serif" font-size="10.00">/operation_sparse.hpp</text>
</a>
</g>
</g>
<!-- Node17&#45;&gt;Node32 -->
<g id="edge46" class="edge">
<title>Node17&#45;&gt;Node32</title>
<path fill="none" stroke="midnightblue" d="M1395.77,-128.95C1407.88,-126.71 1421.18,-124.5 1433.5,-123 1691.84,-91.55 1762.69,-122.99 2024.05,-87.05"/>
<polygon fill="midnightblue" stroke="midnightblue" points="2024.81,-90.47 2034.23,-85.63 2023.84,-83.54 2024.81,-90.47"/>
</g>
</g>
</svg>
        <g id="navigator" transform="translate(0 0)" fill="#404254">
                <rect fill="#f2f5e9" fill-opacity="0.5" stroke="#606060" stroke-width=".5" x="0" y="0" width="60" height="60"/>
                <use id="zoomplus" xlink:href="#zoomPlus" x="17" y="9" onmousedown="handleZoom(evt,'in')"/>
                <use id="zoomminus" xlink:href="#zoomMin" x="42" y="9" onmousedown="handleZoom(evt,'out')"/>
                <use id="reset" xlink:href="#resetDef" x="30" y="36" onmousedown="handleReset()"/>
                <g id="arrowUp" xlink:href="#dirArrow" transform="translate(30 24)" onmousedown="handlePan(0,-1)">
                  <use xlink:href="#rim" fill="#404040">
                        <set attributeName="fill" to="#808080" begin="arrowUp.mouseover" end="arrowUp.mouseout"/>
                  </use>
                  <path fill="none" stroke="white" stroke-width="1.5" d="M0,-3.0v7 M-2.5,-0.5L0,-3.0L2.5,-0.5"/>
                </g>
                <g id="arrowRight" xlink:href="#dirArrow" transform="rotate(90) translate(36 -43)" onmousedown="handlePan(1,0)">
                  <use xlink:href="#rim" fill="#404040">
                        <set attributeName="fill" to="#808080" begin="arrowRight.mouseover" end="arrowRight.mouseout"/>
                  </use>
                  <path fill="none" stroke="white" stroke-width="1.5" d="M0,-3.0v7 M-2.5,-0.5L0,-3.0L2.5,-0.5"/>
                </g>
                <g id="arrowDown" xlink:href="#dirArrow" transform="rotate(180) translate(-30 -48)" onmousedown="handlePan(0,1)">
                  <use xlink:href="#rim" fill="#404040">
                        <set attributeName="fill" to="#808080" begin="arrowDown.mouseover" end="arrowDown.mouseout"/>
                  </use>
                  <path fill="none" stroke="white" stroke-width="1.5" d="M0,-3.0v7 M-2.5,-0.5L0,-3.0L2.5,-0.5"/>
                </g>
                <g id="arrowLeft" xlink:href="#dirArrow" transform="rotate(270) translate(-36 17)" onmousedown="handlePan(-1,0)">
                  <use xlink:href="#rim" fill="#404040">
                        <set attributeName="fill" to="#808080" begin="arrowLeft.mouseover" end="arrowLeft.mouseout"/>
                  </use>
                  <path fill="none" stroke="white" stroke-width="1.5" d="M0,-3.0v7 M-2.5,-0.5L0,-3.0L2.5,-0.5"/>
                </g>
        </g>
        <svg viewBox="0 0 15 15" width="100%" height="30px" preserveAspectRatio="xMaxYMin meet">
         <g id="arrow_out" transform="scale(0.3 0.3)">
          <a xlink:href="tetrahedra__gaussian__integration__points_8h__incl_org.svg" target="_base">
           <rect id="button" ry="5" rx="5" y="6" x="6" height="38" width="38"
                fill="#f2f5e9" fill-opacity="0.5" stroke="#606060" stroke-width="1.0"/>
           <path id="arrow"
             d="M 11.500037,31.436501 C 11.940474,20.09759 22.043105,11.32322 32.158766,21.979434 L 37.068811,17.246167 C 37.068811,17.246167 37.088388,32 37.088388,32 L 22.160133,31.978069 C 22.160133,31.978069 26.997745,27.140456 26.997745,27.140456 C 18.528582,18.264221 13.291696,25.230495 11.500037,31.436501 z"
             style="fill:#404040;"/>
          </a>
         </g>
        </svg>
</svg>
