<?xml version="1.0" encoding="UTF-8" standalone="no"?>
<!DOCTYPE svg PUBLIC "-//W3C//DTD SVG 1.1//EN"
 "http://www.w3.org/Graphics/SVG/1.1/DTD/svg11.dtd">
<!-- Generated by graphviz version 2.48.0 (20210719.0153)
 -->
<!-- Title: /github/workspace/kratos/python/pointer_indexing_python_interface.h Pages: 1 -->
<!--zoomable 128 -->
<svg id="main" version="1.1" xmlns="http://www.w3.org/2000/svg" xmlns:xlink="http://www.w3.org/1999/xlink" xml:space="preserve" onload="init(evt)">
<style type="text/css"><![CDATA[
.edge:hover path { stroke: red; }
.edge:hover polygon { stroke: red; fill: red; }
]]></style>
<script type="text/javascript"><![CDATA[
var edges = document.getElementsByTagName('g');
if (edges && edges.length) {
  for (var i=0;i<edges.length;i++) {
    if (edges[i].id.substr(0,4)=='edge') {
      edges[i].setAttribute('class','edge');
    }
  }
}
]]></script>
        <defs>
                <circle id="rim" cx="0" cy="0" r="7"/>
                <circle id="rim2" cx="0" cy="0" r="3.5"/>
                <g id="zoomPlus">
                        <use xlink:href="#rim" fill="#404040">
                                <set attributeName="fill" to="#808080" begin="zoomplus.mouseover" end="zoomplus.mouseout"/>
                        </use>
                        <path d="M-4,0h8M0,-4v8" fill="none" stroke="white" stroke-width="1.5" pointer-events="none"/>
                </g>
                <g id="zoomMin">
                        <use xlink:href="#rim" fill="#404040">
                                <set attributeName="fill" to="#808080" begin="zoomminus.mouseover" end="zoomminus.mouseout"/>
                        </use>
                        <path d="M-4,0h8" fill="none" stroke="white" stroke-width="1.5" pointer-events="none"/>
                </g>
                <g id="dirArrow">
                        <path fill="none" stroke="white" stroke-width="1.5" d="M0,-3.0v7 M-2.5,-0.5L0,-3.0L2.5,-0.5"/>
                </g>
               <g id="resetDef">
                       <use xlink:href="#rim2" fill="#404040">
                               <set attributeName="fill" to="#808080" begin="reset.mouseover" end="reset.mouseout"/>
                       </use>
               </g>
        </defs>

<script type="text/javascript">
var viewWidth = 1038;
var viewHeight = 128;
var sectionId = 'dynsection-0';
</script>
<script xlink:href="../../svgpan.js"/>
<svg id="graph" class="graph">
<g id="viewport">
<title>/github/workspace/kratos/python/pointer_indexing_python_interface.h</title>
<!-- Node1 -->
<g id="node1" class="node">
<title>Node1</title>
<g id="a_node1"><a xlink:title=" ">
<polygon fill="#bfbfbf" stroke="black" points="480,-78.5 480,-119.5 606,-119.5 606,-78.5 480,-78.5"/>
<text text-anchor="start" x="488" y="-107.5" font-family="Helvetica,sans-Serif" font-size="10.00">/github/workspace/kratos</text>
<text text-anchor="start" x="488" y="-96.5" font-family="Helvetica,sans-Serif" font-size="10.00">/python/pointer_indexing</text>
<text text-anchor="middle" x="543" y="-85.5" font-family="Helvetica,sans-Serif" font-size="10.00">_python_interface.h</text>
</a>
</g>
</g>
<!-- Node2 -->
<g id="node2" class="node">
<title>Node2</title>
<g id="a_node2"><a xlink:title=" ">
<polygon fill="none" stroke="#bfbfbf" points="0,-11.5 0,-30.5 116,-30.5 116,-11.5 0,-11.5"/>
<text text-anchor="middle" x="58" y="-18.5" font-family="Helvetica,sans-Serif" font-size="10.00">boost/python/class.hpp</text>
</a>
</g>
</g>
<!-- Node1&#45;&gt;Node2 -->
<g id="edge1" class="edge">
<title>Node1&#45;&gt;Node2</title>
<path fill="none" stroke="midnightblue" d="M479.8,-92.65C397.47,-84.97 249.38,-68.72 125,-42 114.5,-39.74 103.25,-36.66 93.02,-33.58"/>
<polygon fill="midnightblue" stroke="midnightblue" points="93.8,-30.16 83.21,-30.55 91.73,-36.85 93.8,-30.16"/>
</g>
<!-- Node3 -->
<g id="node3" class="node">
<title>Node3</title>
<g id="a_node3"><a xlink:title=" ">
<polygon fill="none" stroke="#bfbfbf" points="134,-11.5 134,-30.5 272,-30.5 272,-11.5 134,-11.5"/>
<text text-anchor="middle" x="203" y="-18.5" font-family="Helvetica,sans-Serif" font-size="10.00">boost/python/def_visitor.hpp</text>
</a>
</g>
</g>
<!-- Node1&#45;&gt;Node3 -->
<g id="edge2" class="edge">
<title>Node1&#45;&gt;Node3</title>
<path fill="none" stroke="midnightblue" d="M479.84,-85.25C426.68,-74.33 348.69,-57.91 281,-42 269.32,-39.25 256.7,-36.1 245.08,-33.12"/>
<polygon fill="midnightblue" stroke="midnightblue" points="245.74,-29.68 235.19,-30.56 243.99,-36.46 245.74,-29.68"/>
</g>
<!-- Node4 -->
<g id="node4" class="node">
<title>Node4</title>
<g id="a_node4"><a xlink:title=" ">
<polygon fill="none" stroke="#bfbfbf" points="290.5,-6 290.5,-36 397.5,-36 397.5,-6 290.5,-6"/>
<text text-anchor="start" x="298.5" y="-24" font-family="Helvetica,sans-Serif" font-size="10.00">boost/python/register</text>
<text text-anchor="middle" x="344" y="-13" font-family="Helvetica,sans-Serif" font-size="10.00">_ptr_to_python.hpp</text>
</a>
</g>
</g>
<!-- Node1&#45;&gt;Node4 -->
<g id="edge3" class="edge">
<title>Node1&#45;&gt;Node4</title>
<path fill="none" stroke="midnightblue" d="M491.75,-78.43C460.47,-66.48 420.8,-51.33 390.44,-39.74"/>
<polygon fill="midnightblue" stroke="midnightblue" points="391.53,-36.4 380.94,-36.11 389.03,-42.94 391.53,-36.4"/>
</g>
<!-- Node5 -->
<g id="node5" class="node">
<title>Node5</title>
<g id="a_node5"><a xlink:title=" ">
<polygon fill="none" stroke="#bfbfbf" points="415.5,-0.5 415.5,-41.5 534.5,-41.5 534.5,-0.5 415.5,-0.5"/>
<text text-anchor="start" x="423.5" y="-29.5" font-family="Helvetica,sans-Serif" font-size="10.00">boost/python/suite</text>
<text text-anchor="start" x="423.5" y="-18.5" font-family="Helvetica,sans-Serif" font-size="10.00">/indexing/detail/indexing</text>
<text text-anchor="middle" x="475" y="-7.5" font-family="Helvetica,sans-Serif" font-size="10.00">_suite_detail.hpp</text>
</a>
</g>
</g>
<!-- Node1&#45;&gt;Node5 -->
<g id="edge4" class="edge">
<title>Node1&#45;&gt;Node5</title>
<path fill="none" stroke="midnightblue" d="M525.49,-78.43C517.48,-69.47 507.85,-58.72 499.17,-49.01"/>
<polygon fill="midnightblue" stroke="midnightblue" points="501.73,-46.62 492.45,-41.51 496.51,-51.29 501.73,-46.62"/>
</g>
<!-- Node6 -->
<g id="node6" class="node">
<title>Node6</title>
<g id="a_node6"><a xlink:title=" ">
<polygon fill="none" stroke="#bfbfbf" points="552.5,-6 552.5,-36 669.5,-36 669.5,-6 552.5,-6"/>
<text text-anchor="start" x="560.5" y="-24" font-family="Helvetica,sans-Serif" font-size="10.00">boost/python/return</text>
<text text-anchor="middle" x="611" y="-13" font-family="Helvetica,sans-Serif" font-size="10.00">_internal_reference.hpp</text>
</a>
</g>
</g>
<!-- Node1&#45;&gt;Node6 -->
<g id="edge5" class="edge">
<title>Node1&#45;&gt;Node6</title>
<path fill="none" stroke="midnightblue" d="M560.51,-78.43C570.01,-67.81 581.78,-54.66 591.56,-43.73"/>
<polygon fill="midnightblue" stroke="midnightblue" points="594.21,-46.01 598.27,-36.23 589,-41.34 594.21,-46.01"/>
</g>
<!-- Node7 -->
<g id="node7" class="node">
<title>Node7</title>
<g id="a_node7"><a xlink:title=" ">
<polygon fill="none" stroke="#bfbfbf" points="687.5,-11.5 687.5,-30.5 810.5,-30.5 810.5,-11.5 687.5,-11.5"/>
<text text-anchor="middle" x="749" y="-18.5" font-family="Helvetica,sans-Serif" font-size="10.00">boost/python/iterator.hpp</text>
</a>
</g>
</g>
<!-- Node1&#45;&gt;Node7 -->
<g id="edge6" class="edge">
<title>Node1&#45;&gt;Node7</title>
<path fill="none" stroke="midnightblue" d="M596.05,-78.43C634.08,-64.4 684.09,-45.95 716.4,-34.03"/>
<polygon fill="midnightblue" stroke="midnightblue" points="717.65,-37.3 725.82,-30.55 715.23,-30.73 717.65,-37.3"/>
</g>
<!-- Node8 -->
<g id="node8" class="node">
<title>Node8</title>
<g id="a_node8"><a xlink:title=" ">
<polygon fill="none" stroke="#bfbfbf" points="828.5,-11.5 828.5,-30.5 917.5,-30.5 917.5,-11.5 828.5,-11.5"/>
<text text-anchor="middle" x="873" y="-18.5" font-family="Helvetica,sans-Serif" font-size="10.00">boost/mpl/or.hpp</text>
</a>
</g>
</g>
<!-- Node1&#45;&gt;Node8 -->
<g id="edge7" class="edge">
<title>Node1&#45;&gt;Node8</title>
<path fill="none" stroke="midnightblue" d="M606.13,-88.23C662.73,-78.76 747.74,-62.79 820,-42 827.62,-39.81 835.7,-37.01 843.2,-34.21"/>
<polygon fill="midnightblue" stroke="midnightblue" points="844.55,-37.44 852.62,-30.57 842.03,-30.91 844.55,-37.44"/>
</g>
<!-- Node9 -->
<g id="node9" class="node">
<title>Node9</title>
<g id="a_node9"><a xlink:title=" ">
<polygon fill="none" stroke="#bfbfbf" points="936,-11.5 936,-30.5 1030,-30.5 1030,-11.5 936,-11.5"/>
<text text-anchor="middle" x="983" y="-18.5" font-family="Helvetica,sans-Serif" font-size="10.00">boost/mpl/not.hpp</text>
</a>
</g>
</g>
<!-- Node1&#45;&gt;Node9 -->
<g id="edge8" class="edge">
<title>Node1&#45;&gt;Node9</title>
<path fill="none" stroke="midnightblue" d="M606.26,-92.65C682.99,-85.28 815.86,-69.66 927,-42 935.48,-39.89 944.47,-36.99 952.7,-34.05"/>
<polygon fill="midnightblue" stroke="midnightblue" points="954.13,-37.26 962.29,-30.5 951.7,-30.69 954.13,-37.26"/>
</g>
</g>
</svg>
        <g id="navigator" transform="translate(0 0)" fill="#404254">
                <rect fill="#f2f5e9" fill-opacity="0.5" stroke="#606060" stroke-width=".5" x="0" y="0" width="60" height="60"/>
                <use id="zoomplus" xlink:href="#zoomPlus" x="17" y="9" onmousedown="handleZoom(evt,'in')"/>
                <use id="zoomminus" xlink:href="#zoomMin" x="42" y="9" onmousedown="handleZoom(evt,'out')"/>
                <use id="reset" xlink:href="#resetDef" x="30" y="36" onmousedown="handleReset()"/>
                <g id="arrowUp" xlink:href="#dirArrow" transform="translate(30 24)" onmousedown="handlePan(0,-1)">
                  <use xlink:href="#rim" fill="#404040">
                        <set attributeName="fill" to="#808080" begin="arrowUp.mouseover" end="arrowUp.mouseout"/>
                  </use>
                  <path fill="none" stroke="white" stroke-width="1.5" d="M0,-3.0v7 M-2.5,-0.5L0,-3.0L2.5,-0.5"/>
                </g>
                <g id="arrowRight" xlink:href="#dirArrow" transform="rotate(90) translate(36 -43)" onmousedown="handlePan(1,0)">
                  <use xlink:href="#rim" fill="#404040">
                        <set attributeName="fill" to="#808080" begin="arrowRight.mouseover" end="arrowRight.mouseout"/>
                  </use>
                  <path fill="none" stroke="white" stroke-width="1.5" d="M0,-3.0v7 M-2.5,-0.5L0,-3.0L2.5,-0.5"/>
                </g>
                <g id="arrowDown" xlink:href="#dirArrow" transform="rotate(180) translate(-30 -48)" onmousedown="handlePan(0,1)">
                  <use xlink:href="#rim" fill="#404040">
                        <set attributeName="fill" to="#808080" begin="arrowDown.mouseover" end="arrowDown.mouseout"/>
                  </use>
                  <path fill="none" stroke="white" stroke-width="1.5" d="M0,-3.0v7 M-2.5,-0.5L0,-3.0L2.5,-0.5"/>
                </g>
                <g id="arrowLeft" xlink:href="#dirArrow" transform="rotate(270) translate(-36 17)" onmousedown="handlePan(-1,0)">
                  <use xlink:href="#rim" fill="#404040">
                        <set attributeName="fill" to="#808080" begin="arrowLeft.mouseover" end="arrowLeft.mouseout"/>
                  </use>
                  <path fill="none" stroke="white" stroke-width="1.5" d="M0,-3.0v7 M-2.5,-0.5L0,-3.0L2.5,-0.5"/>
                </g>
        </g>
        <svg viewBox="0 0 15 15" width="100%" height="30px" preserveAspectRatio="xMaxYMin meet">
         <g id="arrow_out" transform="scale(0.3 0.3)">
          <a xlink:href="pointer__indexing__python__interface_8h__incl_org.svg" target="_base">
           <rect id="button" ry="5" rx="5" y="6" x="6" height="38" width="38"
                fill="#f2f5e9" fill-opacity="0.5" stroke="#606060" stroke-width="1.0"/>
           <path id="arrow"
             d="M 11.500037,31.436501 C 11.940474,20.09759 22.043105,11.32322 32.158766,21.979434 L 37.068811,17.246167 C 37.068811,17.246167 37.088388,32 37.088388,32 L 22.160133,31.978069 C 22.160133,31.978069 26.997745,27.140456 26.997745,27.140456 C 18.528582,18.264221 13.291696,25.230495 11.500037,31.436501 z"
             style="fill:#404040;"/>
          </a>
         </g>
        </svg>
</svg>
