<?xml version="1.0" encoding="UTF-8" standalone="no"?>
<!DOCTYPE svg PUBLIC "-//W3C//DTD SVG 1.1//EN"
 "http://www.w3.org/Graphics/SVG/1.1/DTD/svg11.dtd">
<!-- Generated by graphviz version 2.48.0 (20210719.0153)
 -->
<!-- Title: /github/workspace/kratos/containers/pointer_vector.h Pages: 1 -->
<svg width="805pt" height="162pt"
 viewBox="0.00 0.00 805.00 162.00" xmlns="http://www.w3.org/2000/svg" xmlns:xlink="http://www.w3.org/1999/xlink">
<g id="graph0" class="graph" transform="scale(1 1) rotate(0) translate(4 158)">
<title>/github/workspace/kratos/containers/pointer_vector.h</title>
<!-- Node1 -->
<g id="node1" class="node">
<title>Node1</title>
<g id="a_node1"><a xlink:title=" ">
<polygon fill="#bfbfbf" stroke="black" points="150,-123.5 150,-153.5 287,-153.5 287,-123.5 150,-123.5"/>
<text text-anchor="start" x="158" y="-141.5" font-family="Helvetica,sans-Serif" font-size="10.00">/github/workspace/kratos</text>
<text text-anchor="middle" x="218.5" y="-130.5" font-family="Helvetica,sans-Serif" font-size="10.00">/containers/pointer_vector.h</text>
</a>
</g>
</g>
<!-- Node2 -->
<g id="node2" class="node">
<title>Node2</title>
<g id="a_node2"><a xlink:title=" ">
<polygon fill="none" stroke="#bfbfbf" points="0,-62 0,-81 59,-81 59,-62 0,-62"/>
<text text-anchor="middle" x="29.5" y="-69" font-family="Helvetica,sans-Serif" font-size="10.00">functional</text>
</a>
</g>
</g>
<!-- Node1&#45;&gt;Node2 -->
<g id="edge1" class="edge">
<title>Node1&#45;&gt;Node2</title>
<path fill="none" stroke="midnightblue" d="M174.72,-123.39C144.49,-113.52 103.42,-99.85 67.5,-87 65.39,-86.25 63.23,-85.46 61.05,-84.65"/>
<polygon fill="midnightblue" stroke="midnightblue" points="62.14,-81.32 51.55,-81.09 59.68,-87.88 62.14,-81.32"/>
</g>
<!-- Node3 -->
<g id="node3" class="node">
<title>Node3</title>
<g id="a_node3"><a xlink:title=" ">
<polygon fill="none" stroke="#bfbfbf" points="77,-62 77,-81 118,-81 118,-62 77,-62"/>
<text text-anchor="middle" x="97.5" y="-69" font-family="Helvetica,sans-Serif" font-size="10.00">string</text>
</a>
</g>
</g>
<!-- Node1&#45;&gt;Node3 -->
<g id="edge2" class="edge">
<title>Node1&#45;&gt;Node3</title>
<path fill="none" stroke="midnightblue" d="M192.24,-123.4C171.48,-112.24 142.7,-96.78 122.32,-85.83"/>
<polygon fill="midnightblue" stroke="midnightblue" points="123.8,-82.66 113.34,-81.01 120.49,-88.82 123.8,-82.66"/>
</g>
<!-- Node4 -->
<g id="node4" class="node">
<title>Node4</title>
<g id="a_node4"><a xlink:title=" ">
<polygon fill="none" stroke="#bfbfbf" points="136.5,-62 136.5,-81 190.5,-81 190.5,-62 136.5,-62"/>
<text text-anchor="middle" x="163.5" y="-69" font-family="Helvetica,sans-Serif" font-size="10.00">iostream</text>
</a>
</g>
</g>
<!-- Node1&#45;&gt;Node4 -->
<g id="edge3" class="edge">
<title>Node1&#45;&gt;Node4</title>
<path fill="none" stroke="midnightblue" d="M206.57,-123.4C197.99,-113.26 186.4,-99.57 177.41,-88.94"/>
<polygon fill="midnightblue" stroke="midnightblue" points="179.99,-86.57 170.86,-81.19 174.64,-91.09 179.99,-86.57"/>
</g>
<!-- Node5 -->
<g id="node5" class="node">
<title>Node5</title>
<g id="a_node5"><a xlink:title=" ">
<polygon fill="none" stroke="#bfbfbf" points="236.5,-0.5 236.5,-19.5 288.5,-19.5 288.5,-0.5 236.5,-0.5"/>
<text text-anchor="middle" x="262.5" y="-7.5" font-family="Helvetica,sans-Serif" font-size="10.00">sstream</text>
</a>
</g>
</g>
<!-- Node1&#45;&gt;Node5 -->
<g id="edge4" class="edge">
<title>Node1&#45;&gt;Node5</title>
<path fill="none" stroke="midnightblue" d="M220.58,-123.3C223.28,-106.76 228.72,-78.77 237.5,-56 241.2,-46.41 246.62,-36.36 251.47,-28.19"/>
<polygon fill="midnightblue" stroke="midnightblue" points="254.49,-29.96 256.76,-19.61 248.53,-26.28 254.49,-29.96"/>
</g>
<!-- Node6 -->
<g id="node6" class="node">
<title>Node6</title>
<g id="a_node6"><a xlink:title=" ">
<polygon fill="none" stroke="#bfbfbf" points="246.5,-62 246.5,-81 290.5,-81 290.5,-62 246.5,-62"/>
<text text-anchor="middle" x="268.5" y="-69" font-family="Helvetica,sans-Serif" font-size="10.00">vector</text>
</a>
</g>
</g>
<!-- Node1&#45;&gt;Node6 -->
<g id="edge5" class="edge">
<title>Node1&#45;&gt;Node6</title>
<path fill="none" stroke="midnightblue" d="M229.35,-123.4C237.07,-113.36 247.47,-99.84 255.61,-89.25"/>
<polygon fill="midnightblue" stroke="midnightblue" points="258.49,-91.25 261.81,-81.19 252.94,-86.99 258.49,-91.25"/>
</g>
<!-- Node7 -->
<g id="node7" class="node">
<title>Node7</title>
<g id="a_node7"><a xlink:title=" ">
<polygon fill="none" stroke="#bfbfbf" points="308.5,-56.5 308.5,-86.5 416.5,-86.5 416.5,-56.5 308.5,-56.5"/>
<text text-anchor="start" x="316.5" y="-74.5" font-family="Helvetica,sans-Serif" font-size="10.00">boost/iterator/indirect</text>
<text text-anchor="middle" x="362.5" y="-63.5" font-family="Helvetica,sans-Serif" font-size="10.00">_iterator.hpp</text>
</a>
</g>
</g>
<!-- Node1&#45;&gt;Node7 -->
<g id="edge6" class="edge">
<title>Node1&#45;&gt;Node7</title>
<path fill="none" stroke="midnightblue" d="M249.75,-123.4C270.97,-113.81 299.25,-101.05 322.18,-90.7"/>
<polygon fill="midnightblue" stroke="midnightblue" points="323.64,-93.88 331.32,-86.58 320.76,-87.5 323.64,-93.88"/>
</g>
<!-- Node8 -->
<g id="node8" class="node">
<title>Node8</title>
<g id="a_node8"><a xlink:href="../../df/d67/define_8h.html" target="_top" xlink:title=" ">
<polygon fill="none" stroke="black" points="435,-62 435,-81 524,-81 524,-62 435,-62"/>
<text text-anchor="middle" x="479.5" y="-69" font-family="Helvetica,sans-Serif" font-size="10.00">includes/define.h</text>
</a>
</g>
</g>
<!-- Node1&#45;&gt;Node8 -->
<g id="edge7" class="edge">
<title>Node1&#45;&gt;Node8</title>
<path fill="none" stroke="midnightblue" d="M277.48,-123.49C318.94,-113.55 375.69,-99.76 425.5,-87 429.63,-85.94 433.92,-84.82 438.21,-83.69"/>
<polygon fill="midnightblue" stroke="midnightblue" points="439.36,-87.01 448.12,-81.06 437.56,-80.24 439.36,-87.01"/>
</g>
<!-- Node8&#45;&gt;Node5 -->
<g id="edge9" class="edge">
<title>Node8&#45;&gt;Node5</title>
<path fill="none" stroke="midnightblue" d="M448.41,-61.98C408.78,-51.11 340.42,-32.36 298.55,-20.88"/>
<polygon fill="midnightblue" stroke="midnightblue" points="299.34,-17.47 288.77,-18.2 297.48,-24.22 299.34,-17.47"/>
</g>
<!-- Node9 -->
<g id="node9" class="node">
<title>Node9</title>
<g id="a_node9"><a xlink:title=" ">
<polygon fill="none" stroke="#bfbfbf" points="329,-0.5 329,-19.5 388,-19.5 388,-0.5 329,-0.5"/>
<text text-anchor="middle" x="358.5" y="-7.5" font-family="Helvetica,sans-Serif" font-size="10.00">stdexcept</text>
</a>
</g>
</g>
<!-- Node8&#45;&gt;Node9 -->
<g id="edge8" class="edge">
<title>Node8&#45;&gt;Node9</title>
<path fill="none" stroke="midnightblue" d="M462.16,-61.98C441.95,-52.03 408.31,-35.49 384.86,-23.96"/>
<polygon fill="midnightblue" stroke="midnightblue" points="386.32,-20.78 375.8,-19.51 383.23,-27.06 386.32,-20.78"/>
</g>
<!-- Node10 -->
<g id="node10" class="node">
<title>Node10</title>
<g id="a_node10"><a xlink:title=" ">
<polygon fill="none" stroke="#bfbfbf" points="406,-0.5 406,-19.5 509,-19.5 509,-0.5 406,-0.5"/>
<text text-anchor="middle" x="457.5" y="-7.5" font-family="Helvetica,sans-Serif" font-size="10.00">boost/smart_ptr.hpp</text>
</a>
</g>
</g>
<!-- Node8&#45;&gt;Node10 -->
<g id="edge10" class="edge">
<title>Node8&#45;&gt;Node10</title>
<path fill="none" stroke="midnightblue" d="M476.35,-61.98C473.18,-53.4 468.2,-39.93 464.15,-28.98"/>
<polygon fill="midnightblue" stroke="midnightblue" points="467.4,-27.67 460.65,-19.51 460.83,-30.1 467.4,-27.67"/>
</g>
<!-- Node11 -->
<g id="node11" class="node">
<title>Node11</title>
<g id="a_node11"><a xlink:title=" ">
<polygon fill="none" stroke="#bfbfbf" points="527,-0.5 527,-19.5 658,-19.5 658,-0.5 527,-0.5"/>
<text text-anchor="middle" x="592.5" y="-7.5" font-family="Helvetica,sans-Serif" font-size="10.00">boost/current_function.hpp</text>
</a>
</g>
</g>
<!-- Node8&#45;&gt;Node11 -->
<g id="edge11" class="edge">
<title>Node8&#45;&gt;Node11</title>
<path fill="none" stroke="midnightblue" d="M495.69,-61.98C514.4,-52.12 545.42,-35.79 567.3,-24.27"/>
<polygon fill="midnightblue" stroke="midnightblue" points="569.12,-27.27 576.34,-19.51 565.86,-21.07 569.12,-27.27"/>
</g>
<!-- Node12 -->
<g id="node12" class="node">
<title>Node12</title>
<g id="a_node12"><a xlink:href="../../de/d17/kratos__config_8h.html" target="_top" xlink:title=" ">
<polygon fill="none" stroke="black" points="676,-0.5 676,-19.5 797,-19.5 797,-0.5 676,-0.5"/>
<text text-anchor="middle" x="736.5" y="-7.5" font-family="Helvetica,sans-Serif" font-size="10.00">includes/kratos_config.h</text>
</a>
</g>
</g>
<!-- Node8&#45;&gt;Node12 -->
<g id="edge12" class="edge">
<title>Node8&#45;&gt;Node12</title>
<path fill="none" stroke="midnightblue" d="M516.32,-61.98C562.03,-51.39 640.03,-33.34 689.87,-21.8"/>
<polygon fill="midnightblue" stroke="midnightblue" points="690.79,-25.17 699.75,-19.51 689.21,-18.35 690.79,-25.17"/>
</g>
</g>
</svg>
