<?xml version="1.0" encoding="UTF-8" standalone="no"?>
<!DOCTYPE svg PUBLIC "-//W3C//DTD SVG 1.1//EN"
 "http://www.w3.org/Graphics/SVG/1.1/DTD/svg11.dtd">
<!-- Generated by graphviz version 2.48.0 (20210719.0153)
 -->
<!-- Title: /github/workspace/kratos/spatial_containers/bins_dynamic.h Pages: 1 -->
<svg width="357pt" height="218pt"
 viewBox="0.00 0.00 356.50 218.00" xmlns="http://www.w3.org/2000/svg" xmlns:xlink="http://www.w3.org/1999/xlink">
<g id="graph0" class="graph" transform="scale(1 1) rotate(0) translate(4 214)">
<title>/github/workspace/kratos/spatial_containers/bins_dynamic.h</title>
<!-- Node1 -->
<g id="node1" class="node">
<title>Node1</title>
<g id="a_node1"><a xlink:title=" ">
<polygon fill="#bfbfbf" stroke="black" points="0,-168.5 0,-209.5 126,-209.5 126,-168.5 0,-168.5"/>
<text text-anchor="start" x="8" y="-197.5" font-family="Helvetica,sans-Serif" font-size="10.00">/github/workspace/kratos</text>
<text text-anchor="start" x="8" y="-186.5" font-family="Helvetica,sans-Serif" font-size="10.00">/spatial_containers/bins</text>
<text text-anchor="middle" x="63" y="-175.5" font-family="Helvetica,sans-Serif" font-size="10.00">_dynamic.h</text>
</a>
</g>
</g>
<!-- Node2 -->
<g id="node2" class="node">
<title>Node2</title>
<g id="a_node2"><a xlink:title=" ">
<polygon fill="none" stroke="#bfbfbf" points="8,-0.5 8,-19.5 52,-19.5 52,-0.5 8,-0.5"/>
<text text-anchor="middle" x="30" y="-7.5" font-family="Helvetica,sans-Serif" font-size="10.00">vector</text>
</a>
</g>
</g>
<!-- Node1&#45;&gt;Node2 -->
<g id="edge1" class="edge">
<title>Node1&#45;&gt;Node2</title>
<path fill="none" stroke="midnightblue" d="M50.1,-168.4C44.01,-158.03 37.35,-144.82 34,-132 24.83,-96.87 26.21,-54.06 28.08,-29.93"/>
<polygon fill="midnightblue" stroke="midnightblue" points="31.59,-29.97 29,-19.7 24.62,-29.34 31.59,-29.97"/>
</g>
<!-- Node3 -->
<g id="node3" class="node">
<title>Node3</title>
<g id="a_node3"><a xlink:title=" ">
<polygon fill="none" stroke="#bfbfbf" points="43,-112.5 43,-131.5 83,-131.5 83,-112.5 43,-112.5"/>
<text text-anchor="middle" x="63" y="-119.5" font-family="Helvetica,sans-Serif" font-size="10.00">cfloat</text>
</a>
</g>
</g>
<!-- Node1&#45;&gt;Node3 -->
<g id="edge2" class="edge">
<title>Node1&#45;&gt;Node3</title>
<path fill="none" stroke="midnightblue" d="M63,-168.5C63,-160.07 63,-150.24 63,-141.87"/>
<polygon fill="midnightblue" stroke="midnightblue" points="66.5,-141.65 63,-131.65 59.5,-141.65 66.5,-141.65"/>
</g>
<!-- Node4 -->
<g id="node4" class="node">
<title>Node4</title>
<g id="a_node4"><a xlink:href="../../d4/d6e/spatial__containers_2tree_8h.html" target="_top" xlink:title=" ">
<polygon fill="none" stroke="black" points="112.5,-112.5 112.5,-131.5 153.5,-131.5 153.5,-112.5 112.5,-112.5"/>
<text text-anchor="middle" x="133" y="-119.5" font-family="Helvetica,sans-Serif" font-size="10.00">tree.h</text>
</a>
</g>
</g>
<!-- Node1&#45;&gt;Node4 -->
<g id="edge3" class="edge">
<title>Node1&#45;&gt;Node4</title>
<path fill="none" stroke="midnightblue" d="M84,-168.5C94.32,-158.92 106.59,-147.53 116.26,-138.54"/>
<polygon fill="midnightblue" stroke="midnightblue" points="118.74,-141.02 123.68,-131.65 113.97,-135.89 118.74,-141.02"/>
</g>
<!-- Node4&#45;&gt;Node2 -->
<g id="edge7" class="edge">
<title>Node4&#45;&gt;Node2</title>
<path fill="none" stroke="midnightblue" d="M112.37,-115.06C93.25,-108.52 65.37,-96.17 49,-76 38.24,-62.75 33.58,-43.62 31.55,-29.54"/>
<polygon fill="midnightblue" stroke="midnightblue" points="35.02,-29.09 30.43,-19.55 28.07,-29.87 35.02,-29.09"/>
</g>
<!-- Node5 -->
<g id="node5" class="node">
<title>Node5</title>
<g id="a_node5"><a xlink:title=" ">
<polygon fill="none" stroke="#bfbfbf" points="58.5,-56.5 58.5,-75.5 99.5,-75.5 99.5,-56.5 58.5,-56.5"/>
<text text-anchor="middle" x="79" y="-63.5" font-family="Helvetica,sans-Serif" font-size="10.00">string</text>
</a>
</g>
</g>
<!-- Node4&#45;&gt;Node5 -->
<g id="edge4" class="edge">
<title>Node4&#45;&gt;Node5</title>
<path fill="none" stroke="midnightblue" d="M124.08,-112.08C116.22,-104.22 104.57,-92.57 95.08,-83.08"/>
<polygon fill="midnightblue" stroke="midnightblue" points="97.3,-80.35 87.75,-75.75 92.35,-85.3 97.3,-80.35"/>
</g>
<!-- Node6 -->
<g id="node6" class="node">
<title>Node6</title>
<g id="a_node6"><a xlink:title=" ">
<polygon fill="none" stroke="#bfbfbf" points="118,-56.5 118,-75.5 172,-75.5 172,-56.5 118,-56.5"/>
<text text-anchor="middle" x="145" y="-63.5" font-family="Helvetica,sans-Serif" font-size="10.00">iostream</text>
</a>
</g>
</g>
<!-- Node4&#45;&gt;Node6 -->
<g id="edge5" class="edge">
<title>Node4&#45;&gt;Node6</title>
<path fill="none" stroke="midnightblue" d="M134.98,-112.08C136.57,-104.93 138.86,-94.64 140.85,-85.69"/>
<polygon fill="midnightblue" stroke="midnightblue" points="144.3,-86.27 143.06,-75.75 137.47,-84.75 144.3,-86.27"/>
</g>
<!-- Node7 -->
<g id="node7" class="node">
<title>Node7</title>
<g id="a_node7"><a xlink:title=" ">
<polygon fill="none" stroke="#bfbfbf" points="190,-56.5 190,-75.5 234,-75.5 234,-56.5 190,-56.5"/>
<text text-anchor="middle" x="212" y="-63.5" font-family="Helvetica,sans-Serif" font-size="10.00">cmath</text>
</a>
</g>
</g>
<!-- Node4&#45;&gt;Node7 -->
<g id="edge6" class="edge">
<title>Node4&#45;&gt;Node7</title>
<path fill="none" stroke="midnightblue" d="M145.69,-112.32C157.9,-103.98 176.58,-91.21 191,-81.35"/>
<polygon fill="midnightblue" stroke="midnightblue" points="193.06,-84.19 199.34,-75.65 189.11,-78.41 193.06,-84.19"/>
</g>
<!-- Node8 -->
<g id="node8" class="node">
<title>Node8</title>
<g id="a_node8"><a xlink:href="../../da/d24/search__structure_8h.html" target="_top" xlink:title=" ">
<polygon fill="none" stroke="black" points="251.5,-56.5 251.5,-75.5 348.5,-75.5 348.5,-56.5 251.5,-56.5"/>
<text text-anchor="middle" x="300" y="-63.5" font-family="Helvetica,sans-Serif" font-size="10.00">search_structure.h</text>
</a>
</g>
</g>
<!-- Node4&#45;&gt;Node8 -->
<g id="edge8" class="edge">
<title>Node4&#45;&gt;Node8</title>
<path fill="none" stroke="midnightblue" d="M153.81,-114.27C181.31,-105.38 230.18,-89.58 263.79,-78.71"/>
<polygon fill="midnightblue" stroke="midnightblue" points="265.25,-81.91 273.69,-75.51 263.1,-75.25 265.25,-81.91"/>
</g>
<!-- Node8&#45;&gt;Node2 -->
<g id="edge9" class="edge">
<title>Node8&#45;&gt;Node2</title>
<path fill="none" stroke="midnightblue" d="M257.22,-56.44C203.05,-45.61 110.95,-27.19 62.3,-17.46"/>
<polygon fill="midnightblue" stroke="midnightblue" points="62.82,-14 52.33,-15.47 61.45,-20.86 62.82,-14"/>
</g>
</g>
</svg>
