<?xml version="1.0" encoding="UTF-8" standalone="no"?>
<!DOCTYPE svg PUBLIC "-//W3C//DTD SVG 1.1//EN"
 "http://www.w3.org/Graphics/SVG/1.1/DTD/svg11.dtd">
<!-- Generated by graphviz version 2.48.0 (20210719.0153)
 -->
<!-- Title: boost::numeric::ublas::matrix_matrix_binary&lt; E1, E2, F &gt;::const_iterator1 Pages: 1 -->
<svg width="502pt" height="540pt"
 viewBox="0.00 0.00 502.00 540.00" xmlns="http://www.w3.org/2000/svg" xmlns:xlink="http://www.w3.org/1999/xlink">
<g id="graph0" class="graph" transform="scale(1 1) rotate(0) translate(4 536)">
<title>boost::numeric::ublas::matrix_matrix_binary&lt; E1, E2, F &gt;::const_iterator1</title>
<!-- Node1 -->
<g id="node1" class="node">
<title>Node1</title>
<g id="a_node1"><a xlink:title=" ">
<polygon fill="#bfbfbf" stroke="black" points="90.5,-0.5 90.5,-189.5 231.5,-189.5 231.5,-0.5 90.5,-0.5"/>
<text text-anchor="start" x="98.5" y="-177.5" font-family="Helvetica,sans-Serif" font-size="10.00">boost::numeric::ublas</text>
<text text-anchor="start" x="98.5" y="-166.5" font-family="Helvetica,sans-Serif" font-size="10.00">::matrix_matrix_binary</text>
<text text-anchor="middle" x="161" y="-155.5" font-family="Helvetica,sans-Serif" font-size="10.00">&lt; E1, E2, F &gt;::const_iterator1</text>
<polyline fill="none" stroke="black" points="90.5,-148.5 231.5,-148.5 "/>
<text text-anchor="middle" x="161" y="-136.5" font-family="Helvetica,sans-Serif" font-size="10.00"> </text>
<polyline fill="none" stroke="black" points="90.5,-129.5 231.5,-129.5 "/>
<text text-anchor="start" x="98.5" y="-117.5" font-family="Helvetica,sans-Serif" font-size="10.00">+ const_iterator1()</text>
<text text-anchor="start" x="98.5" y="-106.5" font-family="Helvetica,sans-Serif" font-size="10.00">+ const_iterator1()</text>
<text text-anchor="start" x="98.5" y="-95.5" font-family="Helvetica,sans-Serif" font-size="10.00">+ dereference()</text>
<text text-anchor="start" x="98.5" y="-84.5" font-family="Helvetica,sans-Serif" font-size="10.00">+ dereference()</text>
<text text-anchor="start" x="98.5" y="-73.5" font-family="Helvetica,sans-Serif" font-size="10.00">+ dereference()</text>
<text text-anchor="start" x="98.5" y="-62.5" font-family="Helvetica,sans-Serif" font-size="10.00">+ operator++()</text>
<text text-anchor="start" x="98.5" y="-51.5" font-family="Helvetica,sans-Serif" font-size="10.00">+ operator&#45;&#45;()</text>
<text text-anchor="start" x="98.5" y="-40.5" font-family="Helvetica,sans-Serif" font-size="10.00">+ operator+=()</text>
<text text-anchor="start" x="98.5" y="-29.5" font-family="Helvetica,sans-Serif" font-size="10.00">+ operator&#45;=()</text>
<text text-anchor="start" x="98.5" y="-18.5" font-family="Helvetica,sans-Serif" font-size="10.00">+ operator&#45;()</text>
<text text-anchor="start" x="98.5" y="-7.5" font-family="Helvetica,sans-Serif" font-size="10.00">and 30 more...</text>
</a>
</g>
</g>
<!-- Node2 -->
<g id="node2" class="node">
<title>Node2</title>
<g id="a_node2"><a xlink:href="../../dc/d2f/classboost_1_1numeric_1_1ublas_1_1container__const__reference.html" target="_top" xlink:title=" ">
<polygon fill="none" stroke="black" points="0,-226.5 0,-404.5 146,-404.5 146,-226.5 0,-226.5"/>
<text text-anchor="start" x="8" y="-392.5" font-family="Helvetica,sans-Serif" font-size="10.00">boost::numeric::ublas</text>
<text text-anchor="start" x="8" y="-381.5" font-family="Helvetica,sans-Serif" font-size="10.00">::container_const_reference</text>
<text text-anchor="middle" x="73" y="-370.5" font-family="Helvetica,sans-Serif" font-size="10.00">&lt; matrix_matrix_binary &gt;</text>
<polyline fill="none" stroke="black" points="0,-363.5 146,-363.5 "/>
<text text-anchor="middle" x="73" y="-351.5" font-family="Helvetica,sans-Serif" font-size="10.00"> </text>
<polyline fill="none" stroke="black" points="0,-344.5 146,-344.5 "/>
<text text-anchor="start" x="8" y="-332.5" font-family="Helvetica,sans-Serif" font-size="10.00">+ container_const_reference()</text>
<text text-anchor="start" x="8" y="-321.5" font-family="Helvetica,sans-Serif" font-size="10.00">+ container_const_reference()</text>
<text text-anchor="start" x="8" y="-310.5" font-family="Helvetica,sans-Serif" font-size="10.00">+ container_const_reference()</text>
<text text-anchor="start" x="8" y="-299.5" font-family="Helvetica,sans-Serif" font-size="10.00">+ container_const_reference()</text>
<text text-anchor="start" x="8" y="-288.5" font-family="Helvetica,sans-Serif" font-size="10.00">+ operator()()</text>
<text text-anchor="start" x="8" y="-277.5" font-family="Helvetica,sans-Serif" font-size="10.00">+ operator()()</text>
<text text-anchor="start" x="8" y="-266.5" font-family="Helvetica,sans-Serif" font-size="10.00">+ assign()</text>
<text text-anchor="start" x="8" y="-255.5" font-family="Helvetica,sans-Serif" font-size="10.00">+ assign()</text>
<text text-anchor="start" x="8" y="-244.5" font-family="Helvetica,sans-Serif" font-size="10.00">+ same_closure()</text>
<text text-anchor="start" x="8" y="-233.5" font-family="Helvetica,sans-Serif" font-size="10.00">+ same_closure()</text>
</a>
</g>
</g>
<!-- Node2&#45;&gt;Node1 -->
<g id="edge1" class="edge">
<title>Node2&#45;&gt;Node1</title>
<path fill="none" stroke="midnightblue" d="M105.61,-216.85C109.21,-207.78 112.92,-198.6 116.63,-189.57"/>
<polygon fill="none" stroke="midnightblue" points="102.31,-215.67 101.9,-226.26 108.83,-218.24 102.31,-215.67"/>
</g>
<!-- Node2&#45;&gt;Node1 -->
<g id="edge5" class="edge">
<title>Node2&#45;&gt;Node1</title>
<path fill="none" stroke="midnightblue" d="M119.04,-216.85C122.75,-207.78 126.44,-198.6 130,-189.57"/>
<polygon fill="none" stroke="midnightblue" points="115.74,-215.68 115.18,-226.26 122.22,-218.34 115.74,-215.68"/>
</g>
<!-- Node3 -->
<g id="node3" class="node">
<title>Node3</title>
<g id="a_node3"><a xlink:href="../../d2/dbf/classboost_1_1numeric_1_1ublas_1_1nonassignable___1_1nonassignable.html" target="_top" xlink:title=" ">
<polygon fill="none" stroke="black" points="24,-441.5 24,-531.5 122,-531.5 122,-441.5 24,-441.5"/>
<text text-anchor="middle" x="73" y="-519.5" font-family="Helvetica,sans-Serif" font-size="10.00">nonassignable</text>
<polyline fill="none" stroke="black" points="24,-512.5 122,-512.5 "/>
<text text-anchor="middle" x="73" y="-500.5" font-family="Helvetica,sans-Serif" font-size="10.00"> </text>
<polyline fill="none" stroke="black" points="24,-493.5 122,-493.5 "/>
<text text-anchor="start" x="32" y="-481.5" font-family="Helvetica,sans-Serif" font-size="10.00"># nonassignable()</text>
<text text-anchor="start" x="32" y="-470.5" font-family="Helvetica,sans-Serif" font-size="10.00"># ~nonassignable()</text>
<text text-anchor="start" x="32" y="-459.5" font-family="Helvetica,sans-Serif" font-size="10.00"># nonassignable()</text>
<text text-anchor="start" x="32" y="-448.5" font-family="Helvetica,sans-Serif" font-size="10.00"># ~nonassignable()</text>
</a>
</g>
</g>
<!-- Node3&#45;&gt;Node2 -->
<g id="edge2" class="edge">
<title>Node3&#45;&gt;Node2</title>
<path fill="none" stroke="#8b1a1a" d="M66.64,-431.06C66.41,-422.63 66.28,-413.73 66.26,-404.78"/>
<polygon fill="none" stroke="#8b1a1a" points="63.15,-431.22 66.98,-441.1 70.14,-430.99 63.15,-431.22"/>
</g>
<!-- Node3&#45;&gt;Node2 -->
<g id="edge3" class="edge">
<title>Node3&#45;&gt;Node2</title>
<path fill="none" stroke="#8b1a1a" d="M79.36,-431.06C79.59,-422.63 79.72,-413.73 79.74,-404.78"/>
<polygon fill="none" stroke="#8b1a1a" points="75.86,-430.99 79.02,-441.1 82.85,-431.22 75.86,-430.99"/>
</g>
<!-- Node4 -->
<g id="node4" class="node">
<title>Node4</title>
<g id="a_node4"><a xlink:title=" ">
<polygon fill="none" stroke="#bfbfbf" points="164,-248.5 164,-382.5 336,-382.5 336,-248.5 164,-248.5"/>
<text text-anchor="start" x="172" y="-370.5" font-family="Helvetica,sans-Serif" font-size="10.00">iterator_base_traits</text>
<text text-anchor="start" x="172" y="-359.5" font-family="Helvetica,sans-Serif" font-size="10.00">&lt; iterator_restrict_traits</text>
<text text-anchor="start" x="172" y="-348.5" font-family="Helvetica,sans-Serif" font-size="10.00">&lt; E1::const_iterator1::iterator</text>
<text text-anchor="start" x="172" y="-337.5" font-family="Helvetica,sans-Serif" font-size="10.00">_category, E2::const_iterator2</text>
<text text-anchor="start" x="172" y="-326.5" font-family="Helvetica,sans-Serif" font-size="10.00">::iterator_category &gt;::iterator</text>
<text text-anchor="middle" x="250" y="-315.5" font-family="Helvetica,sans-Serif" font-size="10.00">_category &gt;::template</text>
<text text-anchor="start" x="172" y="-304.5" font-family="Helvetica,sans-Serif" font-size="10.00"> iterator_base</text>
<text text-anchor="middle" x="250" y="-293.5" font-family="Helvetica,sans-Serif" font-size="10.00">&lt; const_iterator1, value_type &gt;::type</text>
<polyline fill="none" stroke="#bfbfbf" points="164,-286.5 336,-286.5 "/>
<text text-anchor="middle" x="250" y="-274.5" font-family="Helvetica,sans-Serif" font-size="10.00"> </text>
<polyline fill="none" stroke="#bfbfbf" points="164,-267.5 336,-267.5 "/>
<text text-anchor="middle" x="250" y="-255.5" font-family="Helvetica,sans-Serif" font-size="10.00"> </text>
</a>
</g>
</g>
<!-- Node4&#45;&gt;Node1 -->
<g id="edge4" class="edge">
<title>Node4&#45;&gt;Node1</title>
<path fill="none" stroke="midnightblue" d="M219.11,-238.67C212.68,-222.89 205.84,-206.07 199.18,-189.73"/>
<polygon fill="none" stroke="midnightblue" points="216.04,-240.41 223.06,-248.35 222.52,-237.77 216.04,-240.41"/>
</g>
<!-- Node5 -->
<g id="node5" class="node">
<title>Node5</title>
<g id="a_node5"><a xlink:title=" ">
<polygon fill="none" stroke="#bfbfbf" points="354,-281.5 354,-349.5 494,-349.5 494,-281.5 354,-281.5"/>
<text text-anchor="start" x="362" y="-337.5" font-family="Helvetica,sans-Serif" font-size="10.00">iterator_base_traits</text>
<text text-anchor="middle" x="424" y="-326.5" font-family="Helvetica,sans-Serif" font-size="10.00">::template iterator_base::type</text>
<polyline fill="none" stroke="#bfbfbf" points="354,-319.5 494,-319.5 "/>
<text text-anchor="middle" x="424" y="-307.5" font-family="Helvetica,sans-Serif" font-size="10.00"> </text>
<polyline fill="none" stroke="#bfbfbf" points="354,-300.5 494,-300.5 "/>
<text text-anchor="middle" x="424" y="-288.5" font-family="Helvetica,sans-Serif" font-size="10.00"> </text>
</a>
</g>
</g>
<!-- Node5&#45;&gt;Node1 -->
<g id="edge6" class="edge">
<title>Node5&#45;&gt;Node1</title>
<path fill="none" stroke="midnightblue" d="M390.71,-273.36C377.25,-257.79 361.1,-240.36 345,-226 309.83,-194.62 267.01,-163.98 231.52,-140.33"/>
<polygon fill="none" stroke="midnightblue" points="388.34,-275.98 397.49,-281.32 393.67,-271.44 388.34,-275.98"/>
</g>
</g>
</svg>
