<?xml version="1.0" encoding="UTF-8" standalone="no"?>
<!DOCTYPE svg PUBLIC "-//W3C//DTD SVG 1.1//EN"
 "http://www.w3.org/Graphics/SVG/1.1/DTD/svg11.dtd">
<!-- Generated by graphviz version 2.48.0 (20210719.0153)
 -->
<!-- Title: /github/workspace/kratos/containers/bucket.h Pages: 1 -->
<svg width="211pt" height="151pt"
 viewBox="0.00 0.00 210.50 151.00" xmlns="http://www.w3.org/2000/svg" xmlns:xlink="http://www.w3.org/1999/xlink">
<g id="graph0" class="graph" transform="scale(1 1) rotate(0) translate(4 147)">
<title>/github/workspace/kratos/containers/bucket.h</title>
<!-- Node1 -->
<g id="node1" class="node">
<title>Node1</title>
<g id="a_node1"><a xlink:title=" ">
<polygon fill="#bfbfbf" stroke="black" points="42.5,-112.5 42.5,-142.5 168.5,-142.5 168.5,-112.5 42.5,-112.5"/>
<text text-anchor="start" x="50.5" y="-130.5" font-family="Helvetica,sans-Serif" font-size="10.00">/github/workspace/kratos</text>
<text text-anchor="middle" x="105.5" y="-119.5" font-family="Helvetica,sans-Serif" font-size="10.00">/containers/bucket.h</text>
</a>
</g>
</g>
<!-- Node2 -->
<g id="node2" class="node">
<title>Node2</title>
<g id="a_node2"><a xlink:title=" ">
<polygon fill="none" stroke="#bfbfbf" points="0,-0.5 0,-19.5 41,-19.5 41,-0.5 0,-0.5"/>
<text text-anchor="middle" x="20.5" y="-7.5" font-family="Helvetica,sans-Serif" font-size="10.00">string</text>
</a>
</g>
</g>
<!-- Node1&#45;&gt;Node2 -->
<g id="edge1" class="edge">
<title>Node1&#45;&gt;Node2</title>
<path fill="none" stroke="midnightblue" d="M87.32,-112.48C75.98,-103.06 61.66,-89.88 51.5,-76 40.89,-61.51 32.43,-42.82 27.05,-29.21"/>
<polygon fill="midnightblue" stroke="midnightblue" points="30.21,-27.67 23.4,-19.55 23.66,-30.14 30.21,-27.67"/>
</g>
<!-- Node3 -->
<g id="node3" class="node">
<title>Node3</title>
<g id="a_node3"><a xlink:title=" ">
<polygon fill="none" stroke="#bfbfbf" points="121.5,-0.5 121.5,-19.5 175.5,-19.5 175.5,-0.5 121.5,-0.5"/>
<text text-anchor="middle" x="148.5" y="-7.5" font-family="Helvetica,sans-Serif" font-size="10.00">iostream</text>
</a>
</g>
</g>
<!-- Node1&#45;&gt;Node3 -->
<g id="edge2" class="edge">
<title>Node1&#45;&gt;Node3</title>
<path fill="none" stroke="midnightblue" d="M110.77,-112.34C118.56,-91.43 133.12,-52.31 141.7,-29.27"/>
<polygon fill="midnightblue" stroke="midnightblue" points="145.06,-30.26 145.27,-19.67 138.5,-27.82 145.06,-30.26"/>
</g>
<!-- Node4 -->
<g id="node4" class="node">
<title>Node4</title>
<g id="a_node4"><a xlink:title=" ">
<polygon fill="none" stroke="#bfbfbf" points="158.5,-56.5 158.5,-75.5 202.5,-75.5 202.5,-56.5 158.5,-56.5"/>
<text text-anchor="middle" x="180.5" y="-63.5" font-family="Helvetica,sans-Serif" font-size="10.00">vector</text>
</a>
</g>
</g>
<!-- Node1&#45;&gt;Node4 -->
<g id="edge3" class="edge">
<title>Node1&#45;&gt;Node4</title>
<path fill="none" stroke="midnightblue" d="M123.27,-112.4C134.85,-103.22 149.92,-91.26 161.7,-81.92"/>
<polygon fill="midnightblue" stroke="midnightblue" points="163.93,-84.61 169.59,-75.66 159.58,-79.13 163.93,-84.61"/>
</g>
<!-- Node5 -->
<g id="node5" class="node">
<title>Node5</title>
<g id="a_node5"><a xlink:href="../../d4/dd1/containers_2tree_8h.html" target="_top" xlink:title=" ">
<polygon fill="none" stroke="black" points="61,-56.5 61,-75.5 102,-75.5 102,-56.5 61,-56.5"/>
<text text-anchor="middle" x="81.5" y="-63.5" font-family="Helvetica,sans-Serif" font-size="10.00">tree.h</text>
</a>
</g>
</g>
<!-- Node1&#45;&gt;Node5 -->
<g id="edge4" class="edge">
<title>Node1&#45;&gt;Node5</title>
<path fill="none" stroke="midnightblue" d="M99.81,-112.4C96.5,-104.2 92.3,-93.78 88.76,-84.99"/>
<polygon fill="midnightblue" stroke="midnightblue" points="91.98,-83.62 84.99,-75.66 85.49,-86.24 91.98,-83.62"/>
</g>
<!-- Node5&#45;&gt;Node2 -->
<g id="edge5" class="edge">
<title>Node5&#45;&gt;Node2</title>
<path fill="none" stroke="midnightblue" d="M71.7,-56.32C62.68,-48.34 49.09,-36.31 38.18,-26.65"/>
<polygon fill="midnightblue" stroke="midnightblue" points="40.29,-23.84 30.48,-19.83 35.65,-29.08 40.29,-23.84"/>
</g>
<!-- Node5&#45;&gt;Node3 -->
<g id="edge6" class="edge">
<title>Node5&#45;&gt;Node3</title>
<path fill="none" stroke="midnightblue" d="M92.26,-56.32C102.27,-48.26 117.39,-36.08 129.43,-26.37"/>
<polygon fill="midnightblue" stroke="midnightblue" points="131.95,-28.83 137.54,-19.83 127.56,-23.38 131.95,-28.83"/>
</g>
<!-- Node6 -->
<g id="node6" class="node">
<title>Node6</title>
<g id="a_node6"><a xlink:title=" ">
<polygon fill="none" stroke="#bfbfbf" points="59.5,-0.5 59.5,-19.5 103.5,-19.5 103.5,-0.5 59.5,-0.5"/>
<text text-anchor="middle" x="81.5" y="-7.5" font-family="Helvetica,sans-Serif" font-size="10.00">cmath</text>
</a>
</g>
</g>
<!-- Node5&#45;&gt;Node6 -->
<g id="edge7" class="edge">
<title>Node5&#45;&gt;Node6</title>
<path fill="none" stroke="midnightblue" d="M81.5,-56.08C81.5,-49.01 81.5,-38.86 81.5,-29.99"/>
<polygon fill="midnightblue" stroke="midnightblue" points="85,-29.75 81.5,-19.75 78,-29.75 85,-29.75"/>
</g>
</g>
</svg>
