<?xml version="1.0" encoding="UTF-8" standalone="no"?>
<!DOCTYPE svg PUBLIC "-//W3C//DTD SVG 1.1//EN"
 "http://www.w3.org/Graphics/SVG/1.1/DTD/svg11.dtd">
<!-- Generated by graphviz version 2.48.0 (20210719.0153)
 -->
<!-- Title: /github/workspace/kratos/python/add_io_to_python.h Pages: 1 -->
<svg width="1066pt" height="128pt"
 viewBox="0.00 0.00 1066.00 128.00" xmlns="http://www.w3.org/2000/svg" xmlns:xlink="http://www.w3.org/1999/xlink">
<g id="graph0" class="graph" transform="scale(1 1) rotate(0) translate(4 124)">
<title>/github/workspace/kratos/python/add_io_to_python.h</title>
<!-- Node1 -->
<g id="node1" class="node">
<title>Node1</title>
<g id="a_node1"><a xlink:title=" ">
<polygon fill="#bfbfbf" stroke="black" points="425.5,-89.5 425.5,-119.5 559.5,-119.5 559.5,-89.5 425.5,-89.5"/>
<text text-anchor="start" x="433.5" y="-107.5" font-family="Helvetica,sans-Serif" font-size="10.00">/github/workspace/kratos</text>
<text text-anchor="middle" x="492.5" y="-96.5" font-family="Helvetica,sans-Serif" font-size="10.00">/python/add_io_to_python.h</text>
</a>
</g>
</g>
<!-- Node2 -->
<g id="node2" class="node">
<title>Node2</title>
<g id="a_node2"><a xlink:href="../../d8/df1/add__io__to__python_8cpp.html" target="_top" xlink:title=" ">
<polygon fill="none" stroke="black" points="0,-11.5 0,-41.5 145,-41.5 145,-11.5 0,-11.5"/>
<text text-anchor="start" x="8" y="-29.5" font-family="Helvetica,sans-Serif" font-size="10.00">/github/workspace/kratos</text>
<text text-anchor="middle" x="72.5" y="-18.5" font-family="Helvetica,sans-Serif" font-size="10.00">/python/add_io_to_python.cpp</text>
</a>
</g>
</g>
<!-- Node1&#45;&gt;Node2 -->
<g id="edge1" class="edge">
<title>Node1&#45;&gt;Node2</title>
<path fill="none" stroke="midnightblue" d="M414.9,-95.33C345.98,-87.27 242.8,-73.2 154.5,-53 140.98,-49.91 126.47,-45.7 113.46,-41.59"/>
<polygon fill="midnightblue" stroke="midnightblue" points="414.9,-98.85 425.24,-96.53 415.71,-91.9 414.9,-98.85"/>
</g>
<!-- Node3 -->
<g id="node3" class="node">
<title>Node3</title>
<g id="a_node3"><a xlink:href="../../d6/dc7/kratos__python_8cpp.html" target="_top" xlink:title=" ">
<polygon fill="none" stroke="black" points="163.5,-11.5 163.5,-41.5 293.5,-41.5 293.5,-11.5 163.5,-11.5"/>
<text text-anchor="start" x="171.5" y="-29.5" font-family="Helvetica,sans-Serif" font-size="10.00">/github/workspace/kratos</text>
<text text-anchor="middle" x="228.5" y="-18.5" font-family="Helvetica,sans-Serif" font-size="10.00">/python/kratos_python.cpp</text>
</a>
</g>
</g>
<!-- Node1&#45;&gt;Node3 -->
<g id="edge2" class="edge">
<title>Node1&#45;&gt;Node3</title>
<path fill="none" stroke="midnightblue" d="M425.21,-86.88C388.72,-77.54 342.94,-65.32 302.5,-53 291.06,-49.51 278.74,-45.41 267.5,-41.53"/>
<polygon fill="midnightblue" stroke="midnightblue" points="424.69,-90.35 435.25,-89.43 426.42,-83.57 424.69,-90.35"/>
</g>
<!-- Node4 -->
<g id="node4" class="node">
<title>Node4</title>
<g id="a_node4"><a xlink:href="../../d9/d73/incompressible__fluid__application_2custom__python_2add__custom__io__to__python_8cpp.html" target="_top" xlink:title=" ">
<polygon fill="none" stroke="black" points="311.5,-0.5 311.5,-52.5 479.5,-52.5 479.5,-0.5 311.5,-0.5"/>
<text text-anchor="start" x="319.5" y="-40.5" font-family="Helvetica,sans-Serif" font-size="10.00">/github/workspace/applications</text>
<text text-anchor="start" x="319.5" y="-29.5" font-family="Helvetica,sans-Serif" font-size="10.00">/incompressible_fluid_application</text>
<text text-anchor="start" x="319.5" y="-18.5" font-family="Helvetica,sans-Serif" font-size="10.00">/custom_python/add_custom_io_to</text>
<text text-anchor="middle" x="395.5" y="-7.5" font-family="Helvetica,sans-Serif" font-size="10.00">_python.cpp</text>
</a>
</g>
</g>
<!-- Node1&#45;&gt;Node4 -->
<g id="edge3" class="edge">
<title>Node1&#45;&gt;Node4</title>
<path fill="none" stroke="midnightblue" d="M466.37,-83.03C454.38,-73.63 440.04,-62.4 427.41,-52.5"/>
<polygon fill="midnightblue" stroke="midnightblue" points="464.22,-85.79 474.26,-89.2 468.54,-80.28 464.22,-85.79"/>
</g>
<!-- Node5 -->
<g id="node5" class="node">
<title>Node5</title>
<g id="a_node5"><a xlink:href="../../d9/de5/_meshing_application_2custom__python_2add__custom__io__to__python_8cpp.html" target="_top" xlink:title=" ">
<polygon fill="none" stroke="black" points="497,-6 497,-47 682,-47 682,-6 497,-6"/>
<text text-anchor="start" x="505" y="-35" font-family="Helvetica,sans-Serif" font-size="10.00">/github/workspace/applications</text>
<text text-anchor="start" x="505" y="-24" font-family="Helvetica,sans-Serif" font-size="10.00">/MeshingApplication/custom</text>
<text text-anchor="middle" x="589.5" y="-13" font-family="Helvetica,sans-Serif" font-size="10.00">_python/add_custom_io_to_python.cpp</text>
</a>
</g>
</g>
<!-- Node1&#45;&gt;Node5 -->
<g id="edge4" class="edge">
<title>Node1&#45;&gt;Node5</title>
<path fill="none" stroke="midnightblue" d="M518.68,-82.99C532.88,-71.86 550.35,-58.18 564.38,-47.18"/>
<polygon fill="midnightblue" stroke="midnightblue" points="516.46,-80.28 510.74,-89.2 520.78,-85.79 516.46,-80.28"/>
</g>
<!-- Node6 -->
<g id="node6" class="node">
<title>Node6</title>
<g id="a_node6"><a xlink:href="../../d7/d52/structural__application_2custom__python_2add__custom__io__to__python_8cpp.html" target="_top" xlink:title=" ">
<polygon fill="none" stroke="black" points="700,-6 700,-47 885,-47 885,-6 700,-6"/>
<text text-anchor="start" x="708" y="-35" font-family="Helvetica,sans-Serif" font-size="10.00">/github/workspace/applications</text>
<text text-anchor="start" x="708" y="-24" font-family="Helvetica,sans-Serif" font-size="10.00">/structural_application/custom</text>
<text text-anchor="middle" x="792.5" y="-13" font-family="Helvetica,sans-Serif" font-size="10.00">_python/add_custom_io_to_python.cpp</text>
</a>
</g>
</g>
<!-- Node1&#45;&gt;Node6 -->
<g id="edge5" class="edge">
<title>Node1&#45;&gt;Node6</title>
<path fill="none" stroke="midnightblue" d="M557.81,-86.95C604.17,-75.21 666.6,-59.4 715.41,-47.03"/>
<polygon fill="midnightblue" stroke="midnightblue" points="556.71,-83.62 547.87,-89.47 558.43,-90.41 556.71,-83.62"/>
</g>
<!-- Node7 -->
<g id="node7" class="node">
<title>Node7</title>
<g id="a_node7"><a xlink:href="../../d6/db3/_u_l_fapplication_2custom__python_2add__custom__io__to__python_8cpp.html" target="_top" xlink:title=" ">
<polygon fill="none" stroke="black" points="903,-6 903,-47 1058,-47 1058,-6 903,-6"/>
<text text-anchor="start" x="911" y="-35" font-family="Helvetica,sans-Serif" font-size="10.00">/github/workspace/applications</text>
<text text-anchor="start" x="911" y="-24" font-family="Helvetica,sans-Serif" font-size="10.00">/ULFapplication/custom_python</text>
<text text-anchor="middle" x="980.5" y="-13" font-family="Helvetica,sans-Serif" font-size="10.00">/add_custom_io_to_python.cpp</text>
</a>
</g>
</g>
<!-- Node1&#45;&gt;Node7 -->
<g id="edge6" class="edge">
<title>Node1&#45;&gt;Node7</title>
<path fill="none" stroke="midnightblue" d="M569.72,-97.57C651.12,-90.44 782.76,-76.42 894.5,-53 902.43,-51.34 910.68,-49.3 918.8,-47.11"/>
<polygon fill="midnightblue" stroke="midnightblue" points="569.22,-94.1 559.56,-98.45 569.82,-101.07 569.22,-94.1"/>
</g>
</g>
</svg>
