<?xml version="1.0" encoding="UTF-8" standalone="no"?>
<!DOCTYPE svg PUBLIC "-//W3C//DTD SVG 1.1//EN"
 "http://www.w3.org/Graphics/SVG/1.1/DTD/svg11.dtd">
<!-- Generated by graphviz version 2.48.0 (20210719.0153)
 -->
<!-- Title: boost::numeric::ublas::type_traits&lt; std::complex&lt; float &gt; &gt; Pages: 1 -->
<svg width="136pt" height="325pt"
 viewBox="0.00 0.00 136.00 325.00" xmlns="http://www.w3.org/2000/svg" xmlns:xlink="http://www.w3.org/1999/xlink">
<g id="graph0" class="graph" transform="scale(1 1) rotate(0) translate(4 321)">
<title>boost::numeric::ublas::type_traits&lt; std::complex&lt; float &gt; &gt;</title>
<!-- Node1 -->
<g id="node1" class="node">
<title>Node1</title>
<g id="a_node1"><a xlink:title=" ">
<polygon fill="#bfbfbf" stroke="black" points="0,-0.5 0,-79.5 128,-79.5 128,-0.5 0,-0.5"/>
<text text-anchor="start" x="8" y="-67.5" font-family="Helvetica,sans-Serif" font-size="10.00">boost::numeric::ublas</text>
<text text-anchor="start" x="8" y="-56.5" font-family="Helvetica,sans-Serif" font-size="10.00">::type_traits&lt; std::complex</text>
<text text-anchor="middle" x="64" y="-45.5" font-family="Helvetica,sans-Serif" font-size="10.00">&lt; float &gt; &gt;</text>
<polyline fill="none" stroke="black" points="0,-38.5 128,-38.5 "/>
<text text-anchor="middle" x="64" y="-26.5" font-family="Helvetica,sans-Serif" font-size="10.00"> </text>
<polyline fill="none" stroke="black" points="0,-19.5 128,-19.5 "/>
<text text-anchor="middle" x="64" y="-7.5" font-family="Helvetica,sans-Serif" font-size="10.00"> </text>
</a>
</g>
</g>
<!-- Node2 -->
<g id="node2" class="node">
<title>Node2</title>
<g id="a_node2"><a xlink:href="../../d1/dff/structboost_1_1numeric_1_1ublas_1_1complex__traits.html" target="_top" xlink:title=" ">
<polygon fill="none" stroke="black" points="5.5,-116.5 5.5,-316.5 122.5,-316.5 122.5,-116.5 5.5,-116.5"/>
<text text-anchor="start" x="13.5" y="-304.5" font-family="Helvetica,sans-Serif" font-size="10.00">boost::numeric::ublas</text>
<text text-anchor="start" x="13.5" y="-293.5" font-family="Helvetica,sans-Serif" font-size="10.00">::complex_traits&lt; std</text>
<text text-anchor="middle" x="64" y="-282.5" font-family="Helvetica,sans-Serif" font-size="10.00">::complex&lt; float &gt; &gt;</text>
<polyline fill="none" stroke="black" points="5.5,-275.5 122.5,-275.5 "/>
<text text-anchor="start" x="13.5" y="-263.5" font-family="Helvetica,sans-Serif" font-size="10.00">+ plus_complexity</text>
<text text-anchor="start" x="13.5" y="-252.5" font-family="Helvetica,sans-Serif" font-size="10.00">+ multiplies_complexity</text>
<polyline fill="none" stroke="black" points="5.5,-245.5 122.5,-245.5 "/>
<text text-anchor="start" x="13.5" y="-233.5" font-family="Helvetica,sans-Serif" font-size="10.00">+ real()</text>
<text text-anchor="start" x="13.5" y="-222.5" font-family="Helvetica,sans-Serif" font-size="10.00">+ real()</text>
<text text-anchor="start" x="13.5" y="-211.5" font-family="Helvetica,sans-Serif" font-size="10.00">+ imag()</text>
<text text-anchor="start" x="13.5" y="-200.5" font-family="Helvetica,sans-Serif" font-size="10.00">+ imag()</text>
<text text-anchor="start" x="13.5" y="-189.5" font-family="Helvetica,sans-Serif" font-size="10.00">+ conj()</text>
<text text-anchor="start" x="13.5" y="-178.5" font-family="Helvetica,sans-Serif" font-size="10.00">+ conj()</text>
<text text-anchor="start" x="13.5" y="-167.5" font-family="Helvetica,sans-Serif" font-size="10.00">+ abs()</text>
<text text-anchor="start" x="13.5" y="-156.5" font-family="Helvetica,sans-Serif" font-size="10.00">+ abs()</text>
<text text-anchor="start" x="13.5" y="-145.5" font-family="Helvetica,sans-Serif" font-size="10.00">+ sqrt()</text>
<text text-anchor="start" x="13.5" y="-134.5" font-family="Helvetica,sans-Serif" font-size="10.00">+ sqrt()</text>
<text text-anchor="start" x="13.5" y="-123.5" font-family="Helvetica,sans-Serif" font-size="10.00">and 8 more...</text>
</a>
</g>
</g>
<!-- Node2&#45;&gt;Node1 -->
<g id="edge1" class="edge">
<title>Node2&#45;&gt;Node1</title>
<path fill="none" stroke="midnightblue" d="M57.45,-106.09C57.62,-96.83 57.89,-87.92 58.28,-79.82"/>
<polygon fill="none" stroke="midnightblue" points="53.95,-106.22 57.31,-116.27 60.94,-106.32 53.95,-106.22"/>
</g>
<!-- Node2&#45;&gt;Node1 -->
<g id="edge2" class="edge">
<title>Node2&#45;&gt;Node1</title>
<path fill="none" stroke="midnightblue" d="M70.55,-106.09C70.38,-96.83 70.11,-87.92 69.72,-79.82"/>
<polygon fill="none" stroke="midnightblue" points="67.06,-106.32 70.69,-116.27 74.05,-106.22 67.06,-106.32"/>
</g>
</g>
</svg>
