<?xml version="1.0" encoding="UTF-8" standalone="no"?>
<!DOCTYPE svg PUBLIC "-//W3C//DTD SVG 1.1//EN"
 "http://www.w3.org/Graphics/SVG/1.1/DTD/svg11.dtd">
<!-- Generated by graphviz version 2.48.0 (20210719.0153)
 -->
<!-- Title: /github/workspace/kratos/geometries/line_2d_2.h Pages: 1 -->
<svg width="2333pt" height="284pt"
 viewBox="0.00 0.00 2333.00 284.00" xmlns="http://www.w3.org/2000/svg" xmlns:xlink="http://www.w3.org/1999/xlink">
<g id="graph0" class="graph" transform="scale(1 1) rotate(0) translate(4 280)">
<title>/github/workspace/kratos/geometries/line_2d_2.h</title>
<!-- Node1 -->
<g id="node1" class="node">
<title>Node1</title>
<g id="a_node1"><a xlink:title=" ">
<polygon fill="#bfbfbf" stroke="black" points="122.5,-245.5 122.5,-275.5 248.5,-275.5 248.5,-245.5 122.5,-245.5"/>
<text text-anchor="start" x="130.5" y="-263.5" font-family="Helvetica,sans-Serif" font-size="10.00">/github/workspace/kratos</text>
<text text-anchor="middle" x="185.5" y="-252.5" font-family="Helvetica,sans-Serif" font-size="10.00">/geometries/line_2d_2.h</text>
</a>
</g>
</g>
<!-- Node2 -->
<g id="node2" class="node">
<title>Node2</title>
<g id="a_node2"><a xlink:href="../../dc/d48/quadrilateral__2d__4_8h.html" target="_top" xlink:title=" ">
<polygon fill="none" stroke="black" points="0,-178.5 0,-208.5 157,-208.5 157,-178.5 0,-178.5"/>
<text text-anchor="start" x="8" y="-196.5" font-family="Helvetica,sans-Serif" font-size="10.00">/github/workspace/kratos</text>
<text text-anchor="middle" x="78.5" y="-185.5" font-family="Helvetica,sans-Serif" font-size="10.00">/geometries/quadrilateral_2d_4.h</text>
</a>
</g>
</g>
<!-- Node1&#45;&gt;Node2 -->
<g id="edge1" class="edge">
<title>Node1&#45;&gt;Node2</title>
<path fill="none" stroke="midnightblue" d="M153.42,-240.02C136.77,-229.9 116.81,-217.77 101.67,-208.58"/>
<polygon fill="midnightblue" stroke="midnightblue" points="151.92,-243.2 162.28,-245.4 155.55,-237.21 151.92,-243.2"/>
</g>
<!-- Node3 -->
<g id="node3" class="node">
<title>Node3</title>
<g id="a_node3"><a xlink:href="../../dc/d93/structural__application_8cpp.html" target="_top" xlink:title=" ">
<polygon fill="none" stroke="black" points="1,-95 1,-136 156,-136 156,-95 1,-95"/>
<text text-anchor="start" x="9" y="-124" font-family="Helvetica,sans-Serif" font-size="10.00">/github/workspace/applications</text>
<text text-anchor="start" x="9" y="-113" font-family="Helvetica,sans-Serif" font-size="10.00">/structural_application/structural</text>
<text text-anchor="middle" x="78.5" y="-102" font-family="Helvetica,sans-Serif" font-size="10.00">_application.cpp</text>
</a>
</g>
</g>
<!-- Node1&#45;&gt;Node3 -->
<g id="edge25" class="edge">
<title>Node1&#45;&gt;Node3</title>
<path fill="none" stroke="midnightblue" d="M183.99,-234.95C181.91,-217.74 177.01,-194.89 165.5,-178 153.63,-160.57 135.08,-146.47 118.15,-136.19"/>
<polygon fill="midnightblue" stroke="midnightblue" points="180.54,-235.7 184.99,-245.32 187.51,-235.03 180.54,-235.7"/>
</g>
<!-- Node4 -->
<g id="node4" class="node">
<title>Node4</title>
<g id="a_node4"><a xlink:href="../../d7/d8d/triangle__2d__3_8h.html" target="_top" xlink:title=" ">
<polygon fill="none" stroke="black" points="941.5,-178.5 941.5,-208.5 1077.5,-208.5 1077.5,-178.5 941.5,-178.5"/>
<text text-anchor="start" x="949.5" y="-196.5" font-family="Helvetica,sans-Serif" font-size="10.00">/github/workspace/kratos</text>
<text text-anchor="middle" x="1009.5" y="-185.5" font-family="Helvetica,sans-Serif" font-size="10.00">/geometries/triangle_2d_3.h</text>
</a>
</g>
</g>
<!-- Node1&#45;&gt;Node4 -->
<g id="edge3" class="edge">
<title>Node1&#45;&gt;Node4</title>
<path fill="none" stroke="midnightblue" d="M258.9,-253.71C417.06,-241.23 788.11,-211.96 941.4,-199.87"/>
<polygon fill="midnightblue" stroke="midnightblue" points="258.48,-250.23 248.79,-254.51 259.03,-257.21 258.48,-250.23"/>
</g>
<!-- Node2&#45;&gt;Node3 -->
<g id="edge2" class="edge">
<title>Node2&#45;&gt;Node3</title>
<path fill="none" stroke="midnightblue" d="M78.5,-168.16C78.5,-157.83 78.5,-145.94 78.5,-136.18"/>
<polygon fill="midnightblue" stroke="midnightblue" points="75,-168.2 78.5,-178.2 82,-168.21 75,-168.2"/>
</g>
<!-- Node4&#45;&gt;Node3 -->
<g id="edge23" class="edge">
<title>Node4&#45;&gt;Node3</title>
<path fill="none" stroke="midnightblue" d="M930.98,-190.1C750.48,-184.21 310.39,-167.64 164.5,-142 155.91,-140.49 146.96,-138.42 138.23,-136.11"/>
<polygon fill="midnightblue" stroke="midnightblue" points="931.08,-193.61 941.19,-190.43 931.31,-186.61 931.08,-193.61"/>
</g>
<!-- Node5 -->
<g id="node5" class="node">
<title>Node5</title>
<g id="a_node5"><a xlink:href="../../dc/dd2/ale__application_8cpp.html" target="_top" xlink:title=" ">
<polygon fill="none" stroke="black" points="1764.5,-100.5 1764.5,-130.5 1934.5,-130.5 1934.5,-100.5 1764.5,-100.5"/>
<text text-anchor="start" x="1772.5" y="-118.5" font-family="Helvetica,sans-Serif" font-size="10.00">/github/workspace/applications</text>
<text text-anchor="middle" x="1849.5" y="-107.5" font-family="Helvetica,sans-Serif" font-size="10.00">/ALEapplication/ale_application.cpp</text>
</a>
</g>
</g>
<!-- Node4&#45;&gt;Node5 -->
<g id="edge4" class="edge">
<title>Node4&#45;&gt;Node5</title>
<path fill="none" stroke="midnightblue" d="M1088.02,-192.26C1224.63,-190.71 1514.54,-182.43 1755.5,-142 1771.84,-139.26 1789.45,-134.88 1804.95,-130.52"/>
<polygon fill="midnightblue" stroke="midnightblue" points="1087.62,-188.76 1077.65,-192.37 1087.69,-195.76 1087.62,-188.76"/>
</g>
<!-- Node6 -->
<g id="node6" class="node">
<title>Node6</title>
<g id="a_node6"><a xlink:href="../../db/d5a/convection__diffusion__application_8cpp.html" target="_top" xlink:title=" ">
<polygon fill="none" stroke="black" points="1952.5,-95 1952.5,-136 2130.5,-136 2130.5,-95 1952.5,-95"/>
<text text-anchor="start" x="1960.5" y="-124" font-family="Helvetica,sans-Serif" font-size="10.00">/github/workspace/applications</text>
<text text-anchor="start" x="1960.5" y="-113" font-family="Helvetica,sans-Serif" font-size="10.00">/convection_diffusion_application</text>
<text text-anchor="middle" x="2041.5" y="-102" font-family="Helvetica,sans-Serif" font-size="10.00">/convection_diffusion_application.cpp</text>
</a>
</g>
</g>
<!-- Node4&#45;&gt;Node6 -->
<g id="edge5" class="edge">
<title>Node4&#45;&gt;Node6</title>
<path fill="none" stroke="midnightblue" d="M1087.86,-190.29C1281.64,-184.49 1779.46,-167.51 1943.5,-142 1953.31,-140.47 1963.57,-138.38 1973.6,-136.04"/>
<polygon fill="midnightblue" stroke="midnightblue" points="1087.65,-186.79 1077.76,-190.59 1087.86,-193.79 1087.65,-186.79"/>
</g>
<!-- Node7 -->
<g id="node7" class="node">
<title>Node7</title>
<g id="a_node7"><a xlink:href="../../d5/de1/incompressible__fluid__application_8cpp.html" target="_top" xlink:title=" ">
<polygon fill="none" stroke="black" points="2148,-95 2148,-136 2325,-136 2325,-95 2148,-95"/>
<text text-anchor="start" x="2156" y="-124" font-family="Helvetica,sans-Serif" font-size="10.00">/github/workspace/applications</text>
<text text-anchor="start" x="2156" y="-113" font-family="Helvetica,sans-Serif" font-size="10.00">/incompressible_fluid_application</text>
<text text-anchor="middle" x="2236.5" y="-102" font-family="Helvetica,sans-Serif" font-size="10.00">/incompressible_fluid_application.cpp</text>
</a>
</g>
</g>
<!-- Node4&#45;&gt;Node7 -->
<g id="edge6" class="edge">
<title>Node4&#45;&gt;Node7</title>
<path fill="none" stroke="midnightblue" d="M1087.91,-191.16C1309.29,-187.04 1936.2,-172.91 2139.5,-142 2149.4,-140.5 2159.74,-138.38 2169.84,-136"/>
<polygon fill="midnightblue" stroke="midnightblue" points="1087.61,-187.67 1077.68,-191.35 1087.74,-194.67 1087.61,-187.67"/>
</g>
<!-- Node8 -->
<g id="node8" class="node">
<title>Node8</title>
<g id="a_node8"><a xlink:href="../../df/dab/projection_8h.html" target="_top" xlink:title=" ">
<polygon fill="none" stroke="black" points="174,-95 174,-136 325,-136 325,-95 174,-95"/>
<text text-anchor="start" x="182" y="-124" font-family="Helvetica,sans-Serif" font-size="10.00">/github/workspace/applications</text>
<text text-anchor="start" x="182" y="-113" font-family="Helvetica,sans-Serif" font-size="10.00">/MeshingApplication/custom</text>
<text text-anchor="middle" x="249.5" y="-102" font-family="Helvetica,sans-Serif" font-size="10.00">_utilities/projection.h</text>
</a>
</g>
</g>
<!-- Node4&#45;&gt;Node8 -->
<g id="edge7" class="edge">
<title>Node4&#45;&gt;Node8</title>
<path fill="none" stroke="midnightblue" d="M931.22,-192.22C804.54,-190.52 547.23,-181.92 333.5,-142 325.11,-140.43 316.37,-138.33 307.84,-136"/>
<polygon fill="midnightblue" stroke="midnightblue" points="931.18,-195.72 941.22,-192.34 931.26,-188.72 931.18,-195.72"/>
</g>
<!-- Node10 -->
<g id="node10" class="node">
<title>Node10</title>
<g id="a_node10"><a xlink:href="../../dc/d80/trigen__cdt_8h.html" target="_top" xlink:title=" ">
<polygon fill="none" stroke="black" points="343,-95 343,-136 494,-136 494,-95 343,-95"/>
<text text-anchor="start" x="351" y="-124" font-family="Helvetica,sans-Serif" font-size="10.00">/github/workspace/applications</text>
<text text-anchor="start" x="351" y="-113" font-family="Helvetica,sans-Serif" font-size="10.00">/MeshingApplication/external</text>
<text text-anchor="middle" x="418.5" y="-102" font-family="Helvetica,sans-Serif" font-size="10.00">_includes/trigen_cdt.h</text>
</a>
</g>
</g>
<!-- Node4&#45;&gt;Node10 -->
<g id="edge9" class="edge">
<title>Node4&#45;&gt;Node10</title>
<path fill="none" stroke="midnightblue" d="M931.35,-189.36C831.35,-184.27 653.16,-171.63 503.5,-142 495.34,-140.38 486.84,-138.32 478.51,-136.06"/>
<polygon fill="midnightblue" stroke="midnightblue" points="931.21,-192.85 941.37,-189.85 931.56,-185.86 931.21,-192.85"/>
</g>
<!-- Node12 -->
<g id="node12" class="node">
<title>Node12</title>
<g id="a_node12"><a xlink:href="../../d8/db5/trigen__mesh__suite_8h.html" target="_top" xlink:title=" ">
<polygon fill="none" stroke="black" points="850,-95 850,-136 1001,-136 1001,-95 850,-95"/>
<text text-anchor="start" x="858" y="-124" font-family="Helvetica,sans-Serif" font-size="10.00">/github/workspace/applications</text>
<text text-anchor="start" x="858" y="-113" font-family="Helvetica,sans-Serif" font-size="10.00">/MeshingApplication/external</text>
<text text-anchor="middle" x="925.5" y="-102" font-family="Helvetica,sans-Serif" font-size="10.00">_includes/trigen_mesh_suite.h</text>
</a>
</g>
</g>
<!-- Node4&#45;&gt;Node12 -->
<g id="edge11" class="edge">
<title>Node4&#45;&gt;Node12</title>
<path fill="none" stroke="midnightblue" d="M986.14,-171.36C973.97,-160.35 959.18,-146.97 947.25,-136.18"/>
<polygon fill="midnightblue" stroke="midnightblue" points="983.94,-174.09 993.7,-178.2 988.63,-168.9 983.94,-174.09"/>
</g>
<!-- Node15 -->
<g id="node15" class="node">
<title>Node15</title>
<g id="a_node15"><a xlink:href="../../df/def/trigen__mesh__suite__refine_8h.html" target="_top" xlink:title=" ">
<polygon fill="none" stroke="black" points="1019,-89.5 1019,-141.5 1170,-141.5 1170,-89.5 1019,-89.5"/>
<text text-anchor="start" x="1027" y="-129.5" font-family="Helvetica,sans-Serif" font-size="10.00">/github/workspace/applications</text>
<text text-anchor="start" x="1027" y="-118.5" font-family="Helvetica,sans-Serif" font-size="10.00">/MeshingApplication/external</text>
<text text-anchor="start" x="1027" y="-107.5" font-family="Helvetica,sans-Serif" font-size="10.00">_includes/trigen_mesh_suite</text>
<text text-anchor="middle" x="1094.5" y="-96.5" font-family="Helvetica,sans-Serif" font-size="10.00">_refine.h</text>
</a>
</g>
</g>
<!-- Node4&#45;&gt;Node15 -->
<g id="edge14" class="edge">
<title>Node4&#45;&gt;Node15</title>
<path fill="none" stroke="midnightblue" d="M1033,-171.49C1043.39,-162.2 1055.68,-151.21 1066.54,-141.5"/>
<polygon fill="midnightblue" stroke="midnightblue" points="1030.61,-168.93 1025.49,-178.2 1035.28,-174.15 1030.61,-168.93"/>
</g>
<!-- Node16 -->
<g id="node16" class="node">
<title>Node16</title>
<g id="a_node16"><a xlink:href="../../d8/d94/trigen__pfem__refine_8h.html" target="_top" xlink:title=" ">
<polygon fill="none" stroke="black" points="512,-95 512,-136 663,-136 663,-95 512,-95"/>
<text text-anchor="start" x="520" y="-124" font-family="Helvetica,sans-Serif" font-size="10.00">/github/workspace/applications</text>
<text text-anchor="start" x="520" y="-113" font-family="Helvetica,sans-Serif" font-size="10.00">/MeshingApplication/external</text>
<text text-anchor="middle" x="587.5" y="-102" font-family="Helvetica,sans-Serif" font-size="10.00">_includes/trigen_pfem_refine.h</text>
</a>
</g>
</g>
<!-- Node4&#45;&gt;Node16 -->
<g id="edge15" class="edge">
<title>Node4&#45;&gt;Node16</title>
<path fill="none" stroke="midnightblue" d="M930.89,-183.94C862.22,-175.7 760.09,-161.6 672.5,-142 664.83,-140.28 656.85,-138.24 648.97,-136.07"/>
<polygon fill="midnightblue" stroke="midnightblue" points="930.86,-187.46 941.2,-185.16 931.68,-180.51 930.86,-187.46"/>
</g>
<!-- Node17 -->
<g id="node17" class="node">
<title>Node17</title>
<g id="a_node17"><a xlink:href="../../d9/d68/trigen__refine_8h.html" target="_top" xlink:title=" ">
<polygon fill="none" stroke="black" points="681,-95 681,-136 832,-136 832,-95 681,-95"/>
<text text-anchor="start" x="689" y="-124" font-family="Helvetica,sans-Serif" font-size="10.00">/github/workspace/applications</text>
<text text-anchor="start" x="689" y="-113" font-family="Helvetica,sans-Serif" font-size="10.00">/MeshingApplication/external</text>
<text text-anchor="middle" x="756.5" y="-102" font-family="Helvetica,sans-Serif" font-size="10.00">_includes/trigen_refine.h</text>
</a>
</g>
</g>
<!-- Node4&#45;&gt;Node17 -->
<g id="edge18" class="edge">
<title>Node4&#45;&gt;Node17</title>
<path fill="none" stroke="midnightblue" d="M953.19,-175.58C914.22,-163.88 862.25,-148.27 821.51,-136.03"/>
<polygon fill="midnightblue" stroke="midnightblue" points="952.22,-178.95 962.8,-178.47 954.23,-172.24 952.22,-178.95"/>
</g>
<!-- Node18 -->
<g id="node18" class="node">
<title>Node18</title>
<g id="a_node18"><a xlink:href="../../d8/d26/meshing__application_8cpp.html" target="_top" xlink:title=" ">
<polygon fill="none" stroke="black" points="1188,-95 1188,-136 1339,-136 1339,-95 1188,-95"/>
<text text-anchor="start" x="1196" y="-124" font-family="Helvetica,sans-Serif" font-size="10.00">/github/workspace/applications</text>
<text text-anchor="start" x="1196" y="-113" font-family="Helvetica,sans-Serif" font-size="10.00">/MeshingApplication/meshing</text>
<text text-anchor="middle" x="1263.5" y="-102" font-family="Helvetica,sans-Serif" font-size="10.00">_application.cpp</text>
</a>
</g>
</g>
<!-- Node4&#45;&gt;Node18 -->
<g id="edge21" class="edge">
<title>Node4&#45;&gt;Node18</title>
<path fill="none" stroke="midnightblue" d="M1067.07,-175.49C1100,-165.74 1142.09,-153.24 1179.5,-142 1185.92,-140.07 1192.62,-138.05 1199.3,-136.03"/>
<polygon fill="midnightblue" stroke="midnightblue" points="1065.75,-172.23 1057.15,-178.43 1067.74,-178.94 1065.75,-172.23"/>
</g>
<!-- Node19 -->
<g id="node19" class="node">
<title>Node19</title>
<g id="a_node19"><a xlink:href="../../d0/d3a/_p_f_e_m__application_8cpp.html" target="_top" xlink:title=" ">
<polygon fill="none" stroke="black" points="1357,-100.5 1357,-130.5 1550,-130.5 1550,-100.5 1357,-100.5"/>
<text text-anchor="start" x="1365" y="-118.5" font-family="Helvetica,sans-Serif" font-size="10.00">/github/workspace/applications</text>
<text text-anchor="middle" x="1453.5" y="-107.5" font-family="Helvetica,sans-Serif" font-size="10.00">/PFEMapplication/PFEM_application.cpp</text>
</a>
</g>
</g>
<!-- Node4&#45;&gt;Node19 -->
<g id="edge22" class="edge">
<title>Node4&#45;&gt;Node19</title>
<path fill="none" stroke="midnightblue" d="M1088.01,-182.85C1156.94,-173.89 1259.76,-159.35 1348.5,-142 1365.25,-138.72 1383.36,-134.56 1399.75,-130.54"/>
<polygon fill="midnightblue" stroke="midnightblue" points="1087.13,-179.43 1077.67,-184.19 1088.03,-186.38 1087.13,-179.43"/>
</g>
<!-- Node20 -->
<g id="node20" class="node">
<title>Node20</title>
<g id="a_node20"><a xlink:href="../../d0/d88/_u_l_f__application_8cpp.html" target="_top" xlink:title=" ">
<polygon fill="none" stroke="black" points="1568.5,-100.5 1568.5,-130.5 1746.5,-130.5 1746.5,-100.5 1568.5,-100.5"/>
<text text-anchor="start" x="1576.5" y="-118.5" font-family="Helvetica,sans-Serif" font-size="10.00">/github/workspace/applications</text>
<text text-anchor="middle" x="1657.5" y="-107.5" font-family="Helvetica,sans-Serif" font-size="10.00">/ULFapplication/ULF_application.cpp</text>
</a>
</g>
</g>
<!-- Node4&#45;&gt;Node20 -->
<g id="edge24" class="edge">
<title>Node4&#45;&gt;Node20</title>
<path fill="none" stroke="midnightblue" d="M1087.79,-189.33C1194.94,-184.08 1392.96,-171.11 1559.5,-142 1576.13,-139.09 1594.06,-134.78 1609.99,-130.53"/>
<polygon fill="midnightblue" stroke="midnightblue" points="1087.53,-185.84 1077.71,-189.81 1087.86,-192.83 1087.53,-185.84"/>
</g>
<!-- Node9 -->
<g id="node9" class="node">
<title>Node9</title>
<g id="a_node9"><a xlink:href="../../d4/d31/_meshing_application_2custom__python_2add__custom__utilities__to__python_8cpp.html" target="_top" xlink:title=" ">
<polygon fill="none" stroke="black" points="174,-0.5 174,-52.5 325,-52.5 325,-0.5 174,-0.5"/>
<text text-anchor="start" x="182" y="-40.5" font-family="Helvetica,sans-Serif" font-size="10.00">/github/workspace/applications</text>
<text text-anchor="start" x="182" y="-29.5" font-family="Helvetica,sans-Serif" font-size="10.00">/MeshingApplication/custom</text>
<text text-anchor="start" x="182" y="-18.5" font-family="Helvetica,sans-Serif" font-size="10.00">_python/add_custom_utilities</text>
<text text-anchor="middle" x="249.5" y="-7.5" font-family="Helvetica,sans-Serif" font-size="10.00">_to_python.cpp</text>
</a>
</g>
</g>
<!-- Node8&#45;&gt;Node9 -->
<g id="edge8" class="edge">
<title>Node8&#45;&gt;Node9</title>
<path fill="none" stroke="midnightblue" d="M249.5,-84.51C249.5,-74.17 249.5,-62.71 249.5,-52.79"/>
<polygon fill="midnightblue" stroke="midnightblue" points="246,-84.76 249.5,-94.76 253,-84.76 246,-84.76"/>
</g>
<!-- Node11 -->
<g id="node11" class="node">
<title>Node11</title>
<g id="a_node11"><a xlink:href="../../de/dff/_meshing_application_2custom__python_2add__meshers__to__python_8cpp.html" target="_top" xlink:title=" ">
<polygon fill="none" stroke="black" points="484,-6 484,-47 661,-47 661,-6 484,-6"/>
<text text-anchor="start" x="492" y="-35" font-family="Helvetica,sans-Serif" font-size="10.00">/github/workspace/applications</text>
<text text-anchor="start" x="492" y="-24" font-family="Helvetica,sans-Serif" font-size="10.00">/MeshingApplication/custom</text>
<text text-anchor="middle" x="572.5" y="-13" font-family="Helvetica,sans-Serif" font-size="10.00">_python/add_meshers_to_python.cpp</text>
</a>
</g>
</g>
<!-- Node10&#45;&gt;Node11 -->
<g id="edge10" class="edge">
<title>Node10&#45;&gt;Node11</title>
<path fill="none" stroke="midnightblue" d="M461.97,-89.94C485.96,-76.39 515.35,-59.79 537.79,-47.11"/>
<polygon fill="midnightblue" stroke="midnightblue" points="460.05,-87.01 453.06,-94.98 463.49,-93.1 460.05,-87.01"/>
</g>
<!-- Node13 -->
<g id="node13" class="node">
<title>Node13</title>
<g id="a_node13"><a xlink:href="../../d9/d24/mesh__suites_8cpp.html" target="_top" xlink:title=" ">
<polygon fill="none" stroke="black" points="679,-6 679,-47 830,-47 830,-6 679,-6"/>
<text text-anchor="start" x="687" y="-35" font-family="Helvetica,sans-Serif" font-size="10.00">/github/workspace/applications</text>
<text text-anchor="start" x="687" y="-24" font-family="Helvetica,sans-Serif" font-size="10.00">/MeshingApplication/external</text>
<text text-anchor="middle" x="754.5" y="-13" font-family="Helvetica,sans-Serif" font-size="10.00">_includes/mesh_suites.cpp</text>
</a>
</g>
</g>
<!-- Node12&#45;&gt;Node13 -->
<g id="edge12" class="edge">
<title>Node12&#45;&gt;Node13</title>
<path fill="none" stroke="midnightblue" d="M877.94,-90.3C851.17,-76.68 818.18,-59.9 793.04,-47.11"/>
<polygon fill="midnightblue" stroke="midnightblue" points="876.62,-93.56 887.12,-94.98 879.8,-87.32 876.62,-93.56"/>
</g>
<!-- Node14 -->
<g id="node14" class="node">
<title>Node14</title>
<g id="a_node14"><a xlink:href="../../dd/d57/_u_l_fapplication_2custom__python_2add__meshers__to__python_8cpp.html" target="_top" xlink:title=" ">
<polygon fill="none" stroke="black" points="848,-6 848,-47 1003,-47 1003,-6 848,-6"/>
<text text-anchor="start" x="856" y="-35" font-family="Helvetica,sans-Serif" font-size="10.00">/github/workspace/applications</text>
<text text-anchor="start" x="856" y="-24" font-family="Helvetica,sans-Serif" font-size="10.00">/ULFapplication/custom_python</text>
<text text-anchor="middle" x="925.5" y="-13" font-family="Helvetica,sans-Serif" font-size="10.00">/add_meshers_to_python.cpp</text>
</a>
</g>
</g>
<!-- Node12&#45;&gt;Node14 -->
<g id="edge13" class="edge">
<title>Node12&#45;&gt;Node14</title>
<path fill="none" stroke="midnightblue" d="M925.5,-84.44C925.5,-72.1 925.5,-58.16 925.5,-47.16"/>
<polygon fill="midnightblue" stroke="midnightblue" points="922,-84.76 925.5,-94.76 929,-84.76 922,-84.76"/>
</g>
<!-- Node16&#45;&gt;Node11 -->
<g id="edge16" class="edge">
<title>Node16&#45;&gt;Node11</title>
<path fill="none" stroke="midnightblue" d="M582.38,-84.81C580.24,-72.38 577.81,-58.27 575.89,-47.16"/>
<polygon fill="midnightblue" stroke="midnightblue" points="578.95,-85.5 584.1,-94.76 585.85,-84.31 578.95,-85.5"/>
</g>
<!-- Node16&#45;&gt;Node13 -->
<g id="edge17" class="edge">
<title>Node16&#45;&gt;Node13</title>
<path fill="none" stroke="midnightblue" d="M633.95,-90.3C660.09,-76.68 692.31,-59.9 716.86,-47.11"/>
<polygon fill="midnightblue" stroke="midnightblue" points="632.23,-87.25 624.98,-94.98 635.46,-93.46 632.23,-87.25"/>
</g>
<!-- Node17&#45;&gt;Node11 -->
<g id="edge19" class="edge">
<title>Node17&#45;&gt;Node11</title>
<path fill="none" stroke="midnightblue" d="M706.08,-90.66C677.14,-76.98 641.26,-60.01 613.97,-47.11"/>
<polygon fill="midnightblue" stroke="midnightblue" points="704.67,-93.87 715.21,-94.98 707.66,-87.54 704.67,-93.87"/>
</g>
<!-- Node17&#45;&gt;Node14 -->
<g id="edge20" class="edge">
<title>Node17&#45;&gt;Node14</title>
<path fill="none" stroke="midnightblue" d="M803.5,-90.3C829.96,-76.68 862.56,-59.9 887.41,-47.11"/>
<polygon fill="midnightblue" stroke="midnightblue" points="801.72,-87.29 794.43,-94.98 804.92,-93.51 801.72,-87.29"/>
</g>
</g>
</svg>
