<?xml version="1.0" encoding="UTF-8" standalone="no"?>
<!DOCTYPE svg PUBLIC "-//W3C//DTD SVG 1.1//EN"
 "http://www.w3.org/Graphics/SVG/1.1/DTD/svg11.dtd">
<!-- Generated by graphviz version 2.48.0 (20210719.0153)
 -->
<!-- Title: boost::numeric::ublas::bounded_matrix&lt; T, M, N, L &gt; Pages: 1 -->
<svg width="136pt" height="871pt"
 viewBox="0.00 0.00 136.00 871.00" xmlns="http://www.w3.org/2000/svg" xmlns:xlink="http://www.w3.org/1999/xlink">
<g id="graph0" class="graph" transform="scale(1 1) rotate(0) translate(4 867)">
<title>boost::numeric::ublas::bounded_matrix&lt; T, M, N, L &gt;</title>
<!-- Node1 -->
<g id="node1" class="node">
<title>Node1</title>
<g id="a_node1"><a xlink:title=" ">
<polygon fill="#bfbfbf" stroke="black" points="10.5,-0.5 10.5,-200.5 117.5,-200.5 117.5,-0.5 10.5,-0.5"/>
<text text-anchor="start" x="18.5" y="-188.5" font-family="Helvetica,sans-Serif" font-size="10.00">boost::numeric::ublas</text>
<text text-anchor="start" x="18.5" y="-177.5" font-family="Helvetica,sans-Serif" font-size="10.00">::bounded_matrix&lt; T,</text>
<text text-anchor="middle" x="64" y="-166.5" font-family="Helvetica,sans-Serif" font-size="10.00"> M, N, L &gt;</text>
<polyline fill="none" stroke="black" points="10.5,-159.5 117.5,-159.5 "/>
<text text-anchor="start" x="18.5" y="-147.5" font-family="Helvetica,sans-Serif" font-size="10.00">+ max_size1</text>
<text text-anchor="start" x="18.5" y="-136.5" font-family="Helvetica,sans-Serif" font-size="10.00">+ max_size2</text>
<polyline fill="none" stroke="black" points="10.5,-129.5 117.5,-129.5 "/>
<text text-anchor="start" x="18.5" y="-117.5" font-family="Helvetica,sans-Serif" font-size="10.00">+ bounded_matrix()</text>
<text text-anchor="start" x="18.5" y="-106.5" font-family="Helvetica,sans-Serif" font-size="10.00">+ bounded_matrix()</text>
<text text-anchor="start" x="18.5" y="-95.5" font-family="Helvetica,sans-Serif" font-size="10.00">+ bounded_matrix()</text>
<text text-anchor="start" x="18.5" y="-84.5" font-family="Helvetica,sans-Serif" font-size="10.00">+ bounded_matrix()</text>
<text text-anchor="start" x="18.5" y="-73.5" font-family="Helvetica,sans-Serif" font-size="10.00">+ bounded_matrix()</text>
<text text-anchor="start" x="18.5" y="-62.5" font-family="Helvetica,sans-Serif" font-size="10.00">+ ~bounded_matrix()</text>
<text text-anchor="start" x="18.5" y="-51.5" font-family="Helvetica,sans-Serif" font-size="10.00">+ operator=()</text>
<text text-anchor="start" x="18.5" y="-40.5" font-family="Helvetica,sans-Serif" font-size="10.00">+ operator=()</text>
<text text-anchor="start" x="18.5" y="-29.5" font-family="Helvetica,sans-Serif" font-size="10.00">+ operator=()</text>
<text text-anchor="start" x="18.5" y="-18.5" font-family="Helvetica,sans-Serif" font-size="10.00">+ operator=()</text>
<text text-anchor="start" x="18.5" y="-7.5" font-family="Helvetica,sans-Serif" font-size="10.00">and 10 more...</text>
</a>
</g>
</g>
<!-- Node2 -->
<g id="node2" class="node">
<title>Node2</title>
<g id="a_node2"><a xlink:href="../../de/d8d/classboost_1_1numeric_1_1ublas_1_1matrix.html" target="_top" xlink:title=" ">
<polygon fill="none" stroke="black" points="6.5,-237.5 6.5,-426.5 121.5,-426.5 121.5,-237.5 6.5,-237.5"/>
<text text-anchor="start" x="14.5" y="-414.5" font-family="Helvetica,sans-Serif" font-size="10.00">boost::numeric::ublas</text>
<text text-anchor="start" x="14.5" y="-403.5" font-family="Helvetica,sans-Serif" font-size="10.00">::matrix&lt; T, L, bounded</text>
<text text-anchor="middle" x="64" y="-392.5" font-family="Helvetica,sans-Serif" font-size="10.00">_array&lt; T, M *N &gt; &gt;</text>
<polyline fill="none" stroke="black" points="6.5,-385.5 121.5,-385.5 "/>
<text text-anchor="middle" x="64" y="-373.5" font-family="Helvetica,sans-Serif" font-size="10.00"> </text>
<polyline fill="none" stroke="black" points="6.5,-366.5 121.5,-366.5 "/>
<text text-anchor="start" x="14.5" y="-354.5" font-family="Helvetica,sans-Serif" font-size="10.00">+ matrix()</text>
<text text-anchor="start" x="14.5" y="-343.5" font-family="Helvetica,sans-Serif" font-size="10.00">+ matrix()</text>
<text text-anchor="start" x="14.5" y="-332.5" font-family="Helvetica,sans-Serif" font-size="10.00">+ matrix()</text>
<text text-anchor="start" x="14.5" y="-321.5" font-family="Helvetica,sans-Serif" font-size="10.00">+ matrix()</text>
<text text-anchor="start" x="14.5" y="-310.5" font-family="Helvetica,sans-Serif" font-size="10.00">+ matrix()</text>
<text text-anchor="start" x="14.5" y="-299.5" font-family="Helvetica,sans-Serif" font-size="10.00">+ matrix()</text>
<text text-anchor="start" x="14.5" y="-288.5" font-family="Helvetica,sans-Serif" font-size="10.00">+ matrix()</text>
<text text-anchor="start" x="14.5" y="-277.5" font-family="Helvetica,sans-Serif" font-size="10.00">+ matrix()</text>
<text text-anchor="start" x="14.5" y="-266.5" font-family="Helvetica,sans-Serif" font-size="10.00">+ matrix()</text>
<text text-anchor="start" x="14.5" y="-255.5" font-family="Helvetica,sans-Serif" font-size="10.00">+ matrix()</text>
<text text-anchor="start" x="14.5" y="-244.5" font-family="Helvetica,sans-Serif" font-size="10.00">and 90 more...</text>
</a>
</g>
</g>
<!-- Node2&#45;&gt;Node1 -->
<g id="edge1" class="edge">
<title>Node2&#45;&gt;Node1</title>
<path fill="none" stroke="midnightblue" d="M57.28,-227.11C57.23,-218.38 57.24,-209.55 57.3,-200.85"/>
<polygon fill="none" stroke="midnightblue" points="53.78,-227.35 57.35,-237.32 60.78,-227.3 53.78,-227.35"/>
</g>
<!-- Node2&#45;&gt;Node1 -->
<g id="edge8" class="edge">
<title>Node2&#45;&gt;Node1</title>
<path fill="none" stroke="midnightblue" d="M70.72,-227.11C70.77,-218.38 70.76,-209.55 70.7,-200.85"/>
<polygon fill="none" stroke="midnightblue" points="67.22,-227.3 70.65,-237.32 74.22,-227.35 67.22,-227.3"/>
</g>
<!-- Node3 -->
<g id="node3" class="node">
<title>Node3</title>
<g id="a_node3"><a xlink:href="../../da/d15/classboost_1_1numeric_1_1ublas_1_1matrix__container.html" target="_top" xlink:title=" ">
<polygon fill="none" stroke="black" points="0,-463.5 0,-586.5 128,-586.5 128,-463.5 0,-463.5"/>
<text text-anchor="start" x="8" y="-574.5" font-family="Helvetica,sans-Serif" font-size="10.00">boost::numeric::ublas</text>
<text text-anchor="start" x="8" y="-563.5" font-family="Helvetica,sans-Serif" font-size="10.00">::matrix_container&lt; matrix</text>
<text text-anchor="start" x="8" y="-552.5" font-family="Helvetica,sans-Serif" font-size="10.00">&lt; T, L, bounded_array&lt; T,</text>
<text text-anchor="middle" x="64" y="-541.5" font-family="Helvetica,sans-Serif" font-size="10.00"> M *N &gt; &gt; &gt;</text>
<polyline fill="none" stroke="black" points="0,-534.5 128,-534.5 "/>
<text text-anchor="start" x="8" y="-522.5" font-family="Helvetica,sans-Serif" font-size="10.00">+ complexity</text>
<polyline fill="none" stroke="black" points="0,-515.5 128,-515.5 "/>
<text text-anchor="start" x="8" y="-503.5" font-family="Helvetica,sans-Serif" font-size="10.00">+ operator()()</text>
<text text-anchor="start" x="8" y="-492.5" font-family="Helvetica,sans-Serif" font-size="10.00">+ operator()()</text>
<text text-anchor="start" x="8" y="-481.5" font-family="Helvetica,sans-Serif" font-size="10.00">+ operator()()</text>
<text text-anchor="start" x="8" y="-470.5" font-family="Helvetica,sans-Serif" font-size="10.00">+ operator()()</text>
</a>
</g>
</g>
<!-- Node3&#45;&gt;Node2 -->
<g id="edge2" class="edge">
<title>Node3&#45;&gt;Node2</title>
<path fill="none" stroke="midnightblue" d="M57.46,-453.27C57.31,-444.59 57.24,-435.62 57.25,-426.67"/>
<polygon fill="none" stroke="midnightblue" points="53.96,-453.38 57.67,-463.3 60.96,-453.23 53.96,-453.38"/>
</g>
<!-- Node3&#45;&gt;Node2 -->
<g id="edge7" class="edge">
<title>Node3&#45;&gt;Node2</title>
<path fill="none" stroke="midnightblue" d="M70.54,-453.27C70.69,-444.59 70.76,-435.62 70.75,-426.67"/>
<polygon fill="none" stroke="midnightblue" points="67.04,-453.23 70.33,-463.3 74.04,-453.38 67.04,-453.23"/>
</g>
<!-- Node4 -->
<g id="node4" class="node">
<title>Node4</title>
<g id="a_node4"><a xlink:href="../../d9/da6/classboost_1_1numeric_1_1ublas_1_1matrix__expression.html" target="_top" xlink:title=" ">
<polygon fill="none" stroke="black" points="3,-623.5 3,-724.5 125,-724.5 125,-623.5 3,-623.5"/>
<text text-anchor="start" x="11" y="-712.5" font-family="Helvetica,sans-Serif" font-size="10.00">boost::numeric::ublas</text>
<text text-anchor="middle" x="64" y="-701.5" font-family="Helvetica,sans-Serif" font-size="10.00">::matrix_expression&lt; E &gt;</text>
<polyline fill="none" stroke="black" points="3,-694.5 125,-694.5 "/>
<text text-anchor="start" x="11" y="-682.5" font-family="Helvetica,sans-Serif" font-size="10.00">+ complexity</text>
<polyline fill="none" stroke="black" points="3,-675.5 125,-675.5 "/>
<text text-anchor="start" x="11" y="-663.5" font-family="Helvetica,sans-Serif" font-size="10.00">+ operator()()</text>
<text text-anchor="start" x="11" y="-652.5" font-family="Helvetica,sans-Serif" font-size="10.00">+ operator()()</text>
<text text-anchor="start" x="11" y="-641.5" font-family="Helvetica,sans-Serif" font-size="10.00">+ operator()()</text>
<text text-anchor="start" x="11" y="-630.5" font-family="Helvetica,sans-Serif" font-size="10.00">+ operator()()</text>
</a>
</g>
</g>
<!-- Node4&#45;&gt;Node3 -->
<g id="edge3" class="edge">
<title>Node4&#45;&gt;Node3</title>
<path fill="none" stroke="midnightblue" d="M57.35,-613.14C57.22,-604.41 57.22,-595.42 57.34,-586.67"/>
<polygon fill="none" stroke="midnightblue" points="53.86,-613.31 57.57,-623.23 60.86,-613.16 53.86,-613.31"/>
</g>
<!-- Node4&#45;&gt;Node3 -->
<g id="edge6" class="edge">
<title>Node4&#45;&gt;Node3</title>
<path fill="none" stroke="midnightblue" d="M70.65,-613.14C70.78,-604.41 70.78,-595.42 70.66,-586.67"/>
<polygon fill="none" stroke="midnightblue" points="67.14,-613.16 70.43,-623.23 74.14,-613.31 67.14,-613.16"/>
</g>
<!-- Node5 -->
<g id="node5" class="node">
<title>Node5</title>
<g id="a_node5"><a xlink:href="../../dd/db7/classboost_1_1numeric_1_1ublas_1_1ublas__expression.html" target="_top" xlink:title=" ">
<polygon fill="none" stroke="black" points="4.5,-761.5 4.5,-862.5 123.5,-862.5 123.5,-761.5 4.5,-761.5"/>
<text text-anchor="start" x="12.5" y="-850.5" font-family="Helvetica,sans-Serif" font-size="10.00">boost::numeric::ublas</text>
<text text-anchor="middle" x="64" y="-839.5" font-family="Helvetica,sans-Serif" font-size="10.00">::ublas_expression&lt; E &gt;</text>
<polyline fill="none" stroke="black" points="4.5,-832.5 123.5,-832.5 "/>
<text text-anchor="middle" x="64" y="-820.5" font-family="Helvetica,sans-Serif" font-size="10.00"> </text>
<polyline fill="none" stroke="black" points="4.5,-813.5 123.5,-813.5 "/>
<text text-anchor="start" x="12.5" y="-801.5" font-family="Helvetica,sans-Serif" font-size="10.00"># ublas_expression()</text>
<text text-anchor="start" x="12.5" y="-790.5" font-family="Helvetica,sans-Serif" font-size="10.00"># ~ublas_expression()</text>
<text text-anchor="start" x="12.5" y="-779.5" font-family="Helvetica,sans-Serif" font-size="10.00"># ublas_expression()</text>
<text text-anchor="start" x="12.5" y="-768.5" font-family="Helvetica,sans-Serif" font-size="10.00"># ~ublas_expression()</text>
</a>
</g>
</g>
<!-- Node5&#45;&gt;Node4 -->
<g id="edge4" class="edge">
<title>Node5&#45;&gt;Node4</title>
<path fill="none" stroke="midnightblue" d="M57.29,-751C57.2,-742.27 57.26,-733.36 57.47,-724.86"/>
<polygon fill="none" stroke="midnightblue" points="53.79,-751.19 57.47,-761.13 60.79,-751.07 53.79,-751.19"/>
</g>
<!-- Node5&#45;&gt;Node4 -->
<g id="edge5" class="edge">
<title>Node5&#45;&gt;Node4</title>
<path fill="none" stroke="midnightblue" d="M70.71,-751C70.8,-742.27 70.74,-733.36 70.53,-724.86"/>
<polygon fill="none" stroke="midnightblue" points="67.21,-751.07 70.53,-761.13 74.21,-751.19 67.21,-751.07"/>
</g>
</g>
</svg>
