<?xml version="1.0" encoding="UTF-8" standalone="no"?>
<!DOCTYPE svg PUBLIC "-//W3C//DTD SVG 1.1//EN"
 "http://www.w3.org/Graphics/SVG/1.1/DTD/svg11.dtd">
<!-- Generated by graphviz version 2.48.0 (20210719.0153)
 -->
<!-- Title: /github/workspace/kratos/utilities/indexed_object.h Pages: 1 -->
<svg width="654pt" height="151pt"
 viewBox="0.00 0.00 654.00 151.00" xmlns="http://www.w3.org/2000/svg" xmlns:xlink="http://www.w3.org/1999/xlink">
<g id="graph0" class="graph" transform="scale(1 1) rotate(0) translate(4 147)">
<title>/github/workspace/kratos/utilities/indexed_object.h</title>
<!-- Node1 -->
<g id="node1" class="node">
<title>Node1</title>
<g id="a_node1"><a xlink:title=" ">
<polygon fill="#bfbfbf" stroke="black" points="78.5,-112.5 78.5,-142.5 204.5,-142.5 204.5,-112.5 78.5,-112.5"/>
<text text-anchor="start" x="86.5" y="-130.5" font-family="Helvetica,sans-Serif" font-size="10.00">/github/workspace/kratos</text>
<text text-anchor="middle" x="141.5" y="-119.5" font-family="Helvetica,sans-Serif" font-size="10.00">/utilities/indexed_object.h</text>
</a>
</g>
</g>
<!-- Node2 -->
<g id="node2" class="node">
<title>Node2</title>
<g id="a_node2"><a xlink:title=" ">
<polygon fill="none" stroke="#bfbfbf" points="0,-56.5 0,-75.5 41,-75.5 41,-56.5 0,-56.5"/>
<text text-anchor="middle" x="20.5" y="-63.5" font-family="Helvetica,sans-Serif" font-size="10.00">string</text>
</a>
</g>
</g>
<!-- Node1&#45;&gt;Node2 -->
<g id="edge1" class="edge">
<title>Node1&#45;&gt;Node2</title>
<path fill="none" stroke="midnightblue" d="M112.82,-112.4C92.98,-102.64 66.74,-89.74 47.31,-80.18"/>
<polygon fill="midnightblue" stroke="midnightblue" points="48.62,-76.93 38.11,-75.66 45.54,-83.21 48.62,-76.93"/>
</g>
<!-- Node3 -->
<g id="node3" class="node">
<title>Node3</title>
<g id="a_node3"><a xlink:title=" ">
<polygon fill="none" stroke="#bfbfbf" points="59.5,-56.5 59.5,-75.5 113.5,-75.5 113.5,-56.5 59.5,-56.5"/>
<text text-anchor="middle" x="86.5" y="-63.5" font-family="Helvetica,sans-Serif" font-size="10.00">iostream</text>
</a>
</g>
</g>
<!-- Node1&#45;&gt;Node3 -->
<g id="edge2" class="edge">
<title>Node1&#45;&gt;Node3</title>
<path fill="none" stroke="midnightblue" d="M128.47,-112.4C120.31,-103.58 109.78,-92.18 101.31,-83.02"/>
<polygon fill="midnightblue" stroke="midnightblue" points="103.86,-80.63 94.5,-75.66 98.72,-85.38 103.86,-80.63"/>
</g>
<!-- Node4 -->
<g id="node4" class="node">
<title>Node4</title>
<g id="a_node4"><a xlink:title=" ">
<polygon fill="none" stroke="#bfbfbf" points="107.5,-0.5 107.5,-19.5 159.5,-19.5 159.5,-0.5 107.5,-0.5"/>
<text text-anchor="middle" x="133.5" y="-7.5" font-family="Helvetica,sans-Serif" font-size="10.00">sstream</text>
</a>
</g>
</g>
<!-- Node1&#45;&gt;Node4 -->
<g id="edge3" class="edge">
<title>Node1&#45;&gt;Node4</title>
<path fill="none" stroke="midnightblue" d="M140.52,-112.34C139.08,-91.62 136.41,-53.02 134.81,-29.9"/>
<polygon fill="midnightblue" stroke="midnightblue" points="138.28,-29.4 134.1,-19.67 131.3,-29.89 138.28,-29.4"/>
</g>
<!-- Node5 -->
<g id="node5" class="node">
<title>Node5</title>
<g id="a_node5"><a xlink:title=" ">
<polygon fill="none" stroke="#bfbfbf" points="170,-56.5 170,-75.5 219,-75.5 219,-56.5 170,-56.5"/>
<text text-anchor="middle" x="194.5" y="-63.5" font-family="Helvetica,sans-Serif" font-size="10.00">cstddef</text>
</a>
</g>
</g>
<!-- Node1&#45;&gt;Node5 -->
<g id="edge4" class="edge">
<title>Node1&#45;&gt;Node5</title>
<path fill="none" stroke="midnightblue" d="M154.06,-112.4C161.84,-103.66 171.86,-92.41 179.98,-83.3"/>
<polygon fill="midnightblue" stroke="midnightblue" points="182.75,-85.45 186.79,-75.66 177.52,-80.8 182.75,-85.45"/>
</g>
<!-- Node6 -->
<g id="node6" class="node">
<title>Node6</title>
<g id="a_node6"><a xlink:href="../../df/d67/define_8h.html" target="_top" xlink:title=" ">
<polygon fill="none" stroke="black" points="253,-56.5 253,-75.5 342,-75.5 342,-56.5 253,-56.5"/>
<text text-anchor="middle" x="297.5" y="-63.5" font-family="Helvetica,sans-Serif" font-size="10.00">includes/define.h</text>
</a>
</g>
</g>
<!-- Node1&#45;&gt;Node6 -->
<g id="edge5" class="edge">
<title>Node1&#45;&gt;Node6</title>
<path fill="none" stroke="midnightblue" d="M178.47,-112.4C204.88,-102.33 240.06,-88.91 265.31,-79.28"/>
<polygon fill="midnightblue" stroke="midnightblue" points="266.7,-82.49 274.8,-75.66 264.21,-75.95 266.7,-82.49"/>
</g>
<!-- Node6&#45;&gt;Node4 -->
<g id="edge7" class="edge">
<title>Node6&#45;&gt;Node4</title>
<path fill="none" stroke="midnightblue" d="M271.51,-56.44C243.8,-47.32 199.75,-32.81 168.88,-22.65"/>
<polygon fill="midnightblue" stroke="midnightblue" points="169.96,-19.32 159.36,-19.52 167.77,-25.97 169.96,-19.32"/>
</g>
<!-- Node7 -->
<g id="node7" class="node">
<title>Node7</title>
<g id="a_node7"><a xlink:title=" ">
<polygon fill="none" stroke="#bfbfbf" points="178,-0.5 178,-19.5 237,-19.5 237,-0.5 178,-0.5"/>
<text text-anchor="middle" x="207.5" y="-7.5" font-family="Helvetica,sans-Serif" font-size="10.00">stdexcept</text>
</a>
</g>
</g>
<!-- Node6&#45;&gt;Node7 -->
<g id="edge6" class="edge">
<title>Node6&#45;&gt;Node7</title>
<path fill="none" stroke="midnightblue" d="M283.04,-56.32C269,-47.9 247.45,-34.97 230.96,-25.07"/>
<polygon fill="midnightblue" stroke="midnightblue" points="232.3,-21.8 221.92,-19.65 228.7,-27.8 232.3,-21.8"/>
</g>
<!-- Node8 -->
<g id="node8" class="node">
<title>Node8</title>
<g id="a_node8"><a xlink:title=" ">
<polygon fill="none" stroke="#bfbfbf" points="255,-0.5 255,-19.5 358,-19.5 358,-0.5 255,-0.5"/>
<text text-anchor="middle" x="306.5" y="-7.5" font-family="Helvetica,sans-Serif" font-size="10.00">boost/smart_ptr.hpp</text>
</a>
</g>
</g>
<!-- Node6&#45;&gt;Node8 -->
<g id="edge8" class="edge">
<title>Node6&#45;&gt;Node8</title>
<path fill="none" stroke="midnightblue" d="M298.99,-56.08C300.18,-48.93 301.89,-38.64 303.38,-29.69"/>
<polygon fill="midnightblue" stroke="midnightblue" points="306.85,-30.19 305.04,-19.75 299.95,-29.04 306.85,-30.19"/>
</g>
<!-- Node9 -->
<g id="node9" class="node">
<title>Node9</title>
<g id="a_node9"><a xlink:title=" ">
<polygon fill="none" stroke="#bfbfbf" points="376,-0.5 376,-19.5 507,-19.5 507,-0.5 376,-0.5"/>
<text text-anchor="middle" x="441.5" y="-7.5" font-family="Helvetica,sans-Serif" font-size="10.00">boost/current_function.hpp</text>
</a>
</g>
</g>
<!-- Node6&#45;&gt;Node9 -->
<g id="edge9" class="edge">
<title>Node6&#45;&gt;Node9</title>
<path fill="none" stroke="midnightblue" d="M320.32,-56.44C344.33,-47.44 382.33,-33.19 409.37,-23.05"/>
<polygon fill="midnightblue" stroke="midnightblue" points="410.66,-26.3 418.79,-19.52 408.2,-19.75 410.66,-26.3"/>
</g>
<!-- Node10 -->
<g id="node10" class="node">
<title>Node10</title>
<g id="a_node10"><a xlink:href="../../de/d17/kratos__config_8h.html" target="_top" xlink:title=" ">
<polygon fill="none" stroke="black" points="525,-0.5 525,-19.5 646,-19.5 646,-0.5 525,-0.5"/>
<text text-anchor="middle" x="585.5" y="-7.5" font-family="Helvetica,sans-Serif" font-size="10.00">includes/kratos_config.h</text>
</a>
</g>
</g>
<!-- Node6&#45;&gt;Node10 -->
<g id="edge10" class="edge">
<title>Node6&#45;&gt;Node10</title>
<path fill="none" stroke="midnightblue" d="M342.18,-56.62C392.76,-47.14 475.19,-31.68 529.88,-21.43"/>
<polygon fill="midnightblue" stroke="midnightblue" points="530.57,-24.86 539.76,-19.58 529.28,-17.98 530.57,-24.86"/>
</g>
</g>
</svg>
