<?xml version="1.0" encoding="UTF-8" standalone="no"?>
<!DOCTYPE svg PUBLIC "-//W3C//DTD SVG 1.1//EN"
 "http://www.w3.org/Graphics/SVG/1.1/DTD/svg11.dtd">
<!-- Generated by graphviz version 2.48.0 (20210719.0153)
 -->
<!-- Title: /github/workspace/applications/mkl_solvers_application/external_includes/boost/numeric/bindings/atlas/clapack.hpp Pages: 1 -->
<svg width="955pt" height="139pt"
 viewBox="0.00 0.00 954.50 139.00" xmlns="http://www.w3.org/2000/svg" xmlns:xlink="http://www.w3.org/1999/xlink">
<g id="graph0" class="graph" transform="scale(1 1) rotate(0) translate(4 135)">
<title>/github/workspace/applications/mkl_solvers_application/external_includes/boost/numeric/bindings/atlas/clapack.hpp</title>
<!-- Node1 -->
<g id="node1" class="node">
<title>Node1</title>
<g id="a_node1"><a xlink:title=" ">
<polygon fill="#bfbfbf" stroke="black" points="306,-78.5 306,-130.5 467,-130.5 467,-78.5 306,-78.5"/>
<text text-anchor="start" x="314" y="-118.5" font-family="Helvetica,sans-Serif" font-size="10.00">/github/workspace/applications</text>
<text text-anchor="start" x="314" y="-107.5" font-family="Helvetica,sans-Serif" font-size="10.00">/mkl_solvers_application/external</text>
<text text-anchor="start" x="314" y="-96.5" font-family="Helvetica,sans-Serif" font-size="10.00">_includes/boost/numeric/bindings</text>
<text text-anchor="middle" x="386.5" y="-85.5" font-family="Helvetica,sans-Serif" font-size="10.00">/atlas/clapack.hpp</text>
</a>
</g>
</g>
<!-- Node2 -->
<g id="node2" class="node">
<title>Node2</title>
<g id="a_node2"><a xlink:title=" ">
<polygon fill="none" stroke="#bfbfbf" points="0,-11.5 0,-30.5 49,-30.5 49,-11.5 0,-11.5"/>
<text text-anchor="middle" x="24.5" y="-18.5" font-family="Helvetica,sans-Serif" font-size="10.00">cassert</text>
</a>
</g>
</g>
<!-- Node1&#45;&gt;Node2 -->
<g id="edge1" class="edge">
<title>Node1&#45;&gt;Node2</title>
<path fill="none" stroke="midnightblue" d="M305.87,-96.59C237.88,-88.87 138.92,-73.1 57.5,-42 53.28,-40.39 48.98,-38.23 44.96,-35.94"/>
<polygon fill="midnightblue" stroke="midnightblue" points="46.53,-32.8 36.19,-30.51 42.85,-38.75 46.53,-32.8"/>
</g>
<!-- Node3 -->
<g id="node3" class="node">
<title>Node3</title>
<g id="a_node3"><a xlink:title=" ">
<polygon fill="none" stroke="#bfbfbf" points="67,-11.5 67,-30.5 102,-30.5 102,-11.5 67,-11.5"/>
<text text-anchor="middle" x="84.5" y="-18.5" font-family="Helvetica,sans-Serif" font-size="10.00">new</text>
</a>
</g>
</g>
<!-- Node1&#45;&gt;Node3 -->
<g id="edge2" class="edge">
<title>Node1&#45;&gt;Node3</title>
<path fill="none" stroke="midnightblue" d="M305.89,-94.95C249.19,-86.72 172.64,-71.06 110.5,-42 107.6,-40.64 104.72,-38.92 102,-37.06"/>
<polygon fill="midnightblue" stroke="midnightblue" points="104.02,-34.2 93.95,-30.89 99.76,-39.75 104.02,-34.2"/>
</g>
<!-- Node4 -->
<g id="node4" class="node">
<title>Node4</title>
<g id="a_node4"><a xlink:title=" ">
<polygon fill="none" stroke="#bfbfbf" points="120,-6 120,-36 237,-36 237,-6 120,-6"/>
<text text-anchor="start" x="128" y="-24" font-family="Helvetica,sans-Serif" font-size="10.00">boost/numeric/bindings</text>
<text text-anchor="middle" x="178.5" y="-13" font-family="Helvetica,sans-Serif" font-size="10.00">/traits/traits.hpp</text>
</a>
</g>
</g>
<!-- Node1&#45;&gt;Node4 -->
<g id="edge3" class="edge">
<title>Node1&#45;&gt;Node4</title>
<path fill="none" stroke="midnightblue" d="M322.68,-78.49C290.71,-65.97 252.75,-51.09 223.81,-39.75"/>
<polygon fill="midnightblue" stroke="midnightblue" points="224.94,-36.44 214.36,-36.05 222.39,-42.96 224.94,-36.44"/>
</g>
<!-- Node5 -->
<g id="node5" class="node">
<title>Node5</title>
<g id="a_node5"><a xlink:title=" ">
<polygon fill="none" stroke="#bfbfbf" points="255.5,-0.5 255.5,-41.5 379.5,-41.5 379.5,-0.5 255.5,-0.5"/>
<text text-anchor="start" x="263.5" y="-29.5" font-family="Helvetica,sans-Serif" font-size="10.00">boost/numeric/bindings</text>
<text text-anchor="start" x="263.5" y="-18.5" font-family="Helvetica,sans-Serif" font-size="10.00">/traits/detail/symm_herm</text>
<text text-anchor="middle" x="317.5" y="-7.5" font-family="Helvetica,sans-Serif" font-size="10.00">_traits.hpp</text>
</a>
</g>
</g>
<!-- Node1&#45;&gt;Node5 -->
<g id="edge4" class="edge">
<title>Node1&#45;&gt;Node5</title>
<path fill="none" stroke="midnightblue" d="M365.05,-78.16C357.34,-69.05 348.61,-58.74 340.75,-49.46"/>
<polygon fill="midnightblue" stroke="midnightblue" points="343.25,-47 334.12,-41.63 337.91,-51.52 343.25,-47"/>
</g>
<!-- Node6 -->
<g id="node6" class="node">
<title>Node6</title>
<g id="a_node6"><a xlink:title=" ">
<polygon fill="none" stroke="#bfbfbf" points="398,-6 398,-36 515,-36 515,-6 398,-6"/>
<text text-anchor="start" x="406" y="-24" font-family="Helvetica,sans-Serif" font-size="10.00">boost/numeric/bindings</text>
<text text-anchor="middle" x="456.5" y="-13" font-family="Helvetica,sans-Serif" font-size="10.00">/atlas/cblas_enum.hpp</text>
</a>
</g>
</g>
<!-- Node1&#45;&gt;Node6 -->
<g id="edge5" class="edge">
<title>Node1&#45;&gt;Node6</title>
<path fill="none" stroke="midnightblue" d="M408.26,-78.16C417.73,-67.14 428.71,-54.35 437.8,-43.77"/>
<polygon fill="midnightblue" stroke="midnightblue" points="440.47,-46.03 444.33,-36.17 435.16,-41.47 440.47,-46.03"/>
</g>
<!-- Node7 -->
<g id="node7" class="node">
<title>Node7</title>
<g id="a_node7"><a xlink:title=" ">
<polygon fill="none" stroke="#bfbfbf" points="533,-6 533,-36 676,-36 676,-6 533,-6"/>
<text text-anchor="start" x="541" y="-24" font-family="Helvetica,sans-Serif" font-size="10.00">boost/numeric/bindings</text>
<text text-anchor="middle" x="604.5" y="-13" font-family="Helvetica,sans-Serif" font-size="10.00">/atlas/clapack_overloads.hpp</text>
</a>
</g>
</g>
<!-- Node1&#45;&gt;Node7 -->
<g id="edge6" class="edge">
<title>Node1&#45;&gt;Node7</title>
<path fill="none" stroke="midnightblue" d="M453.39,-78.49C487.04,-65.91 527.03,-50.96 557.41,-39.6"/>
<polygon fill="midnightblue" stroke="midnightblue" points="558.78,-42.83 566.92,-36.05 556.33,-36.27 558.78,-42.83"/>
</g>
<!-- Node8 -->
<g id="node8" class="node">
<title>Node8</title>
<g id="a_node8"><a xlink:title=" ">
<polygon fill="none" stroke="#bfbfbf" points="694.5,-11.5 694.5,-30.5 812.5,-30.5 812.5,-11.5 694.5,-11.5"/>
<text text-anchor="middle" x="753.5" y="-18.5" font-family="Helvetica,sans-Serif" font-size="10.00">boost/static_assert.hpp</text>
</a>
</g>
</g>
<!-- Node1&#45;&gt;Node8 -->
<g id="edge7" class="edge">
<title>Node1&#45;&gt;Node8</title>
<path fill="none" stroke="midnightblue" d="M467.18,-88.79C527.59,-77.32 612.1,-60.31 685.5,-42 695.71,-39.45 706.68,-36.38 716.77,-33.41"/>
<polygon fill="midnightblue" stroke="midnightblue" points="717.93,-36.72 726.51,-30.5 715.92,-30.01 717.93,-36.72"/>
</g>
<!-- Node9 -->
<g id="node9" class="node">
<title>Node9</title>
<g id="a_node9"><a xlink:title=" ">
<polygon fill="none" stroke="#bfbfbf" points="830.5,-6 830.5,-36 946.5,-36 946.5,-6 830.5,-6"/>
<text text-anchor="start" x="838.5" y="-24" font-family="Helvetica,sans-Serif" font-size="10.00">boost/type_traits/same</text>
<text text-anchor="middle" x="888.5" y="-13" font-family="Helvetica,sans-Serif" font-size="10.00">_traits.hpp</text>
</a>
</g>
</g>
<!-- Node1&#45;&gt;Node9 -->
<g id="edge8" class="edge">
<title>Node1&#45;&gt;Node9</title>
<path fill="none" stroke="midnightblue" d="M467.32,-95.73C555.15,-86.44 699.3,-68.72 821.5,-42 825.89,-41.04 830.41,-39.94 834.93,-38.76"/>
<polygon fill="midnightblue" stroke="midnightblue" points="836.05,-42.08 844.78,-36.07 834.21,-35.33 836.05,-42.08"/>
</g>
</g>
</svg>
