<?xml version="1.0" encoding="UTF-8" standalone="no"?>
<!DOCTYPE svg PUBLIC "-//W3C//DTD SVG 1.1//EN"
 "http://www.w3.org/Graphics/SVG/1.1/DTD/svg11.dtd">
<!-- Generated by graphviz version 2.48.0 (20210719.0153)
 -->
<!-- Title: /github/workspace/kratos/geometries/geometry.h Pages: 1 -->
<svg width="2702pt" height="486pt"
 viewBox="0.00 0.00 2702.12 486.00" xmlns="http://www.w3.org/2000/svg" xmlns:xlink="http://www.w3.org/1999/xlink">
<g id="graph0" class="graph" transform="scale(1 1) rotate(0) translate(4 482)">
<title>/github/workspace/kratos/geometries/geometry.h</title>
<!-- Node1 -->
<g id="node1" class="node">
<title>Node1</title>
<g id="a_node1"><a xlink:title=" ">
<polygon fill="#bfbfbf" stroke="black" points="661.12,-447.5 661.12,-477.5 787.12,-477.5 787.12,-447.5 661.12,-447.5"/>
<text text-anchor="start" x="669.12" y="-465.5" font-family="Helvetica,sans-Serif" font-size="10.00">/github/workspace/kratos</text>
<text text-anchor="middle" x="724.12" y="-454.5" font-family="Helvetica,sans-Serif" font-size="10.00">/geometries/geometry.h</text>
</a>
</g>
</g>
<!-- Node2 -->
<g id="node2" class="node">
<title>Node2</title>
<g id="a_node2"><a xlink:title=" ">
<polygon fill="none" stroke="#bfbfbf" points="627.62,-62 627.62,-81 668.62,-81 668.62,-62 627.62,-62"/>
<text text-anchor="middle" x="648.12" y="-69" font-family="Helvetica,sans-Serif" font-size="10.00">string</text>
</a>
</g>
</g>
<!-- Node1&#45;&gt;Node2 -->
<g id="edge1" class="edge">
<title>Node1&#45;&gt;Node2</title>
<path fill="none" stroke="midnightblue" d="M724.12,-447.24C724.12,-423.03 724.12,-372.35 724.12,-329.5 724.12,-329.5 724.12,-329.5 724.12,-266 724.12,-229.73 677.28,-131.16 657.14,-90.45"/>
<polygon fill="midnightblue" stroke="midnightblue" points="660.24,-88.81 652.64,-81.42 653.97,-91.94 660.24,-88.81"/>
</g>
<!-- Node3 -->
<g id="node3" class="node">
<title>Node3</title>
<g id="a_node3"><a xlink:title=" ">
<polygon fill="none" stroke="#bfbfbf" points="431.12,-62 431.12,-81 485.12,-81 485.12,-62 431.12,-62"/>
<text text-anchor="middle" x="458.12" y="-69" font-family="Helvetica,sans-Serif" font-size="10.00">iostream</text>
</a>
</g>
</g>
<!-- Node1&#45;&gt;Node3 -->
<g id="edge2" class="edge">
<title>Node1&#45;&gt;Node3</title>
<path fill="none" stroke="midnightblue" d="M660.77,-452.36C552.09,-432.74 334.36,-375.08 257.12,-221 219.57,-146.11 353.01,-99.71 420.86,-81.43"/>
<polygon fill="midnightblue" stroke="midnightblue" points="421.98,-84.76 430.76,-78.84 420.2,-77.98 421.98,-84.76"/>
</g>
<!-- Node4 -->
<g id="node4" class="node">
<title>Node4</title>
<g id="a_node4"><a xlink:title=" ">
<polygon fill="none" stroke="#bfbfbf" points="318.12,-0.5 318.12,-19.5 370.12,-19.5 370.12,-0.5 318.12,-0.5"/>
<text text-anchor="middle" x="344.12" y="-7.5" font-family="Helvetica,sans-Serif" font-size="10.00">sstream</text>
</a>
</g>
</g>
<!-- Node1&#45;&gt;Node4 -->
<g id="edge3" class="edge">
<title>Node1&#45;&gt;Node4</title>
<path fill="none" stroke="midnightblue" d="M660.75,-461.46C560.88,-460.06 361.44,-451.81 198.12,-411 106.59,-388.13 2.12,-423.84 2.12,-329.5 2.12,-329.5 2.12,-329.5 2.12,-137.5 2.12,-100.31 -6.35,-81.08 21.12,-56 62.36,-18.34 231.88,-12 307.46,-11.07"/>
<polygon fill="midnightblue" stroke="midnightblue" points="307.94,-14.57 317.9,-10.97 307.87,-7.57 307.94,-14.57"/>
</g>
<!-- Node5 -->
<g id="node5" class="node">
<title>Node5</title>
<g id="a_node5"><a xlink:title=" ">
<polygon fill="none" stroke="#bfbfbf" points="266.62,-196 266.62,-215 315.62,-215 315.62,-196 266.62,-196"/>
<text text-anchor="middle" x="291.12" y="-203" font-family="Helvetica,sans-Serif" font-size="10.00">cstddef</text>
</a>
</g>
</g>
<!-- Node1&#45;&gt;Node5 -->
<g id="edge4" class="edge">
<title>Node1&#45;&gt;Node5</title>
<path fill="none" stroke="midnightblue" d="M660.73,-459.33C538.5,-454.48 279.88,-440.78 253.12,-411 204.83,-357.27 255.21,-262.64 279.54,-223.84"/>
<polygon fill="midnightblue" stroke="midnightblue" points="282.61,-225.53 285.09,-215.23 276.73,-221.74 282.61,-225.53"/>
</g>
<!-- Node6 -->
<g id="node6" class="node">
<title>Node6</title>
<g id="a_node6"><a xlink:title=" ">
<polygon fill="none" stroke="#bfbfbf" points="1246.62,-129 1246.62,-148 1329.62,-148 1329.62,-129 1246.62,-129"/>
<text text-anchor="middle" x="1288.12" y="-136" font-family="Helvetica,sans-Serif" font-size="10.00">boost/array.hpp</text>
</a>
</g>
</g>
<!-- Node1&#45;&gt;Node6 -->
<g id="edge5" class="edge">
<title>Node1&#45;&gt;Node6</title>
<path fill="none" stroke="midnightblue" d="M787.33,-460.77C940.72,-457.28 1320.12,-437.73 1320.12,-329.5 1320.12,-329.5 1320.12,-329.5 1320.12,-266 1320.12,-226.34 1305.15,-181.75 1295.68,-157.53"/>
<polygon fill="midnightblue" stroke="midnightblue" points="1298.91,-156.16 1291.91,-148.2 1292.42,-158.79 1298.91,-156.16"/>
</g>
<!-- Node7 -->
<g id="node7" class="node">
<title>Node7</title>
<g id="a_node7"><a xlink:href="../../df/d67/define_8h.html" target="_top" xlink:title=" ">
<polygon fill="none" stroke="black" points="755.62,-62 755.62,-81 844.62,-81 844.62,-62 755.62,-62"/>
<text text-anchor="middle" x="800.12" y="-69" font-family="Helvetica,sans-Serif" font-size="10.00">includes/define.h</text>
</a>
</g>
</g>
<!-- Node1&#45;&gt;Node7 -->
<g id="edge6" class="edge">
<title>Node1&#45;&gt;Node7</title>
<path fill="none" stroke="midnightblue" d="M787.58,-460.4C911.26,-457.46 1179.8,-447.02 1264.12,-411 1314.96,-389.28 1358.12,-384.79 1358.12,-329.5 1358.12,-329.5 1358.12,-329.5 1358.12,-204.5 1358.12,-167.2 1366.59,-147.09 1338.12,-123 1296.86,-88.1 906.37,-96.17 853.12,-87 847.96,-86.11 842.58,-84.94 837.31,-83.64"/>
<polygon fill="midnightblue" stroke="midnightblue" points="837.96,-80.2 827.4,-81.05 836.18,-86.97 837.96,-80.2"/>
</g>
<!-- Node12 -->
<g id="node12" class="node">
<title>Node12</title>
<g id="a_node12"><a xlink:href="../../d9/d3e/ublas__interface_8h.html" target="_top" xlink:title=" ">
<polygon fill="none" stroke="black" points="1386.62,-129 1386.62,-148 1515.62,-148 1515.62,-129 1386.62,-129"/>
<text text-anchor="middle" x="1451.12" y="-136" font-family="Helvetica,sans-Serif" font-size="10.00">includes/ublas_interface.h</text>
</a>
</g>
</g>
<!-- Node1&#45;&gt;Node12 -->
<g id="edge12" class="edge">
<title>Node1&#45;&gt;Node12</title>
<path fill="none" stroke="midnightblue" d="M787.21,-459.51C940.1,-454.26 1321.59,-438.55 1372.12,-411 1412.08,-389.22 1434.12,-375.01 1434.12,-329.5 1434.12,-329.5 1434.12,-329.5 1434.12,-266 1434.12,-227.36 1442,-182.66 1447.03,-158.09"/>
<polygon fill="midnightblue" stroke="midnightblue" points="1450.52,-158.54 1449.17,-148.04 1443.67,-157.09 1450.52,-158.54"/>
</g>
<!-- Node28 -->
<g id="node28" class="node">
<title>Node28</title>
<g id="a_node28"><a xlink:href="../../d4/df9/pointer__vector_8h.html" target="_top" xlink:title=" ">
<polygon fill="none" stroke="black" points="144.12,-123.5 144.12,-153.5 238.12,-153.5 238.12,-123.5 144.12,-123.5"/>
<text text-anchor="start" x="152.12" y="-141.5" font-family="Helvetica,sans-Serif" font-size="10.00">containers/pointer</text>
<text text-anchor="middle" x="191.12" y="-130.5" font-family="Helvetica,sans-Serif" font-size="10.00">_vector.h</text>
</a>
</g>
</g>
<!-- Node1&#45;&gt;Node28 -->
<g id="edge31" class="edge">
<title>Node1&#45;&gt;Node28</title>
<path fill="none" stroke="midnightblue" d="M661.05,-462.3C544.54,-462.61 301.25,-457.48 233.12,-411 199.45,-388.03 191.12,-370.25 191.12,-329.5 191.12,-329.5 191.12,-329.5 191.12,-266 191.12,-230.42 191.12,-189.2 191.12,-163.74"/>
<polygon fill="midnightblue" stroke="midnightblue" points="194.62,-163.54 191.12,-153.54 187.62,-163.54 194.62,-163.54"/>
</g>
<!-- Node32 -->
<g id="node32" class="node">
<title>Node32</title>
<g id="a_node32"><a xlink:href="../../da/d87/integration__point_8h.html" target="_top" xlink:title=" ">
<polygon fill="none" stroke="black" points="555.12,-313.5 555.12,-343.5 665.12,-343.5 665.12,-313.5 555.12,-313.5"/>
<text text-anchor="start" x="563.12" y="-331.5" font-family="Helvetica,sans-Serif" font-size="10.00">integration/integration</text>
<text text-anchor="middle" x="610.12" y="-320.5" font-family="Helvetica,sans-Serif" font-size="10.00">_point.h</text>
</a>
</g>
</g>
<!-- Node1&#45;&gt;Node32 -->
<g id="edge39" class="edge">
<title>Node1&#45;&gt;Node32</title>
<path fill="none" stroke="midnightblue" d="M711.92,-447.37C692.03,-424.35 652.5,-378.57 628.97,-351.34"/>
<polygon fill="midnightblue" stroke="midnightblue" points="631.41,-348.81 622.23,-343.52 626.12,-353.38 631.41,-348.81"/>
</g>
<!-- Node38 -->
<g id="node38" class="node">
<title>Node38</title>
<g id="a_node38"><a xlink:href="../../d1/dbc/geometry__data_8h.html" target="_top" xlink:title=" ">
<polygon fill="none" stroke="black" points="768.62,-380.5 768.62,-410.5 875.62,-410.5 875.62,-380.5 768.62,-380.5"/>
<text text-anchor="start" x="776.62" y="-398.5" font-family="Helvetica,sans-Serif" font-size="10.00">geometries/geometry</text>
<text text-anchor="middle" x="822.12" y="-387.5" font-family="Helvetica,sans-Serif" font-size="10.00">_data.h</text>
</a>
</g>
</g>
<!-- Node1&#45;&gt;Node38 -->
<g id="edge60" class="edge">
<title>Node1&#45;&gt;Node38</title>
<path fill="none" stroke="midnightblue" d="M745.38,-447.4C759.12,-438.28 777.2,-426.29 792.36,-416.24"/>
<polygon fill="midnightblue" stroke="midnightblue" points="794.49,-419.02 800.89,-410.58 790.62,-413.19 794.49,-419.02"/>
</g>
<!-- Node39 -->
<g id="node39" class="node">
<title>Node39</title>
<g id="a_node39"><a xlink:href="../../d8/d88/math__utils_8h.html" target="_top" xlink:title=" ">
<polygon fill="none" stroke="black" points="1462.62,-386 1462.62,-405 1565.62,-405 1565.62,-386 1462.62,-386"/>
<text text-anchor="middle" x="1514.12" y="-393" font-family="Helvetica,sans-Serif" font-size="10.00">utilities/math_utils.h</text>
</a>
</g>
</g>
<!-- Node1&#45;&gt;Node39 -->
<g id="edge70" class="edge">
<title>Node1&#45;&gt;Node39</title>
<path fill="none" stroke="midnightblue" d="M787.39,-460.2C913.64,-456.93 1205.55,-445.91 1448.12,-411 1455.06,-410 1462.36,-408.68 1469.47,-407.24"/>
<polygon fill="midnightblue" stroke="midnightblue" points="1470.64,-410.57 1479.69,-405.06 1469.19,-403.72 1470.64,-410.57"/>
</g>
<!-- Node7&#45;&gt;Node4 -->
<g id="edge8" class="edge">
<title>Node7&#45;&gt;Node4</title>
<path fill="none" stroke="midnightblue" d="M768.74,-62C759.86,-59.81 750.15,-57.62 741.12,-56 609.27,-32.43 450.46,-18.81 380.37,-13.55"/>
<polygon fill="midnightblue" stroke="midnightblue" points="380.53,-10.05 370.3,-12.8 380.01,-17.03 380.53,-10.05"/>
</g>
<!-- Node8 -->
<g id="node8" class="node">
<title>Node8</title>
<g id="a_node8"><a xlink:title=" ">
<polygon fill="none" stroke="#bfbfbf" points="824.62,-0.5 824.62,-19.5 883.62,-19.5 883.62,-0.5 824.62,-0.5"/>
<text text-anchor="middle" x="854.12" y="-7.5" font-family="Helvetica,sans-Serif" font-size="10.00">stdexcept</text>
</a>
</g>
</g>
<!-- Node7&#45;&gt;Node8 -->
<g id="edge7" class="edge">
<title>Node7&#45;&gt;Node8</title>
<path fill="none" stroke="midnightblue" d="M807.85,-61.98C816.11,-52.87 829.39,-38.24 839.61,-26.98"/>
<polygon fill="midnightblue" stroke="midnightblue" points="842.26,-29.27 846.39,-19.51 837.08,-24.56 842.26,-29.27"/>
</g>
<!-- Node9 -->
<g id="node9" class="node">
<title>Node9</title>
<g id="a_node9"><a xlink:title=" ">
<polygon fill="none" stroke="#bfbfbf" points="901.62,-0.5 901.62,-19.5 1004.62,-19.5 1004.62,-0.5 901.62,-0.5"/>
<text text-anchor="middle" x="953.12" y="-7.5" font-family="Helvetica,sans-Serif" font-size="10.00">boost/smart_ptr.hpp</text>
</a>
</g>
</g>
<!-- Node7&#45;&gt;Node9 -->
<g id="edge9" class="edge">
<title>Node7&#45;&gt;Node9</title>
<path fill="none" stroke="midnightblue" d="M822.04,-61.98C848.17,-51.81 892.03,-34.76 921.75,-23.2"/>
<polygon fill="midnightblue" stroke="midnightblue" points="923.18,-26.4 931.24,-19.51 920.65,-19.87 923.18,-26.4"/>
</g>
<!-- Node10 -->
<g id="node10" class="node">
<title>Node10</title>
<g id="a_node10"><a xlink:title=" ">
<polygon fill="none" stroke="#bfbfbf" points="536.62,-0.5 536.62,-19.5 667.62,-19.5 667.62,-0.5 536.62,-0.5"/>
<text text-anchor="middle" x="602.12" y="-7.5" font-family="Helvetica,sans-Serif" font-size="10.00">boost/current_function.hpp</text>
</a>
</g>
</g>
<!-- Node7&#45;&gt;Node10 -->
<g id="edge10" class="edge">
<title>Node7&#45;&gt;Node10</title>
<path fill="none" stroke="midnightblue" d="M771.75,-61.98C737.2,-51.59 678.69,-34.01 640.23,-22.45"/>
<polygon fill="midnightblue" stroke="midnightblue" points="641.02,-19.04 630.43,-19.51 639,-25.74 641.02,-19.04"/>
</g>
<!-- Node11 -->
<g id="node11" class="node">
<title>Node11</title>
<g id="a_node11"><a xlink:href="../../de/d17/kratos__config_8h.html" target="_top" xlink:title=" ">
<polygon fill="none" stroke="black" points="685.62,-0.5 685.62,-19.5 806.62,-19.5 806.62,-0.5 685.62,-0.5"/>
<text text-anchor="middle" x="746.12" y="-7.5" font-family="Helvetica,sans-Serif" font-size="10.00">includes/kratos_config.h</text>
</a>
</g>
</g>
<!-- Node7&#45;&gt;Node11 -->
<g id="edge11" class="edge">
<title>Node7&#45;&gt;Node11</title>
<path fill="none" stroke="midnightblue" d="M792.38,-61.98C784.12,-52.87 770.84,-38.24 760.62,-26.98"/>
<polygon fill="midnightblue" stroke="midnightblue" points="763.15,-24.56 753.84,-19.51 757.97,-29.27 763.15,-24.56"/>
</g>
<!-- Node12&#45;&gt;Node2 -->
<g id="edge13" class="edge">
<title>Node12&#45;&gt;Node2</title>
<path fill="none" stroke="midnightblue" d="M1390.5,-128.96C1373.57,-126.79 1355.15,-124.61 1338.12,-123 1075.69,-98.21 1008.29,-114.32 746.12,-87 723.46,-84.64 698.01,-80.84 678.72,-77.72"/>
<polygon fill="midnightblue" stroke="midnightblue" points="679.13,-74.24 668.7,-76.07 678,-81.15 679.13,-74.24"/>
</g>
<!-- Node12&#45;&gt;Node3 -->
<g id="edge14" class="edge">
<title>Node12&#45;&gt;Node3</title>
<path fill="none" stroke="midnightblue" d="M1391.69,-128.99C1374.44,-126.76 1355.55,-124.55 1338.12,-123 1018.98,-94.59 937.73,-109.46 618.12,-87 576.12,-84.05 528.03,-79.54 495.62,-76.33"/>
<polygon fill="midnightblue" stroke="midnightblue" points="495.56,-72.81 485.27,-75.3 494.87,-79.77 495.56,-72.81"/>
</g>
<!-- Node12&#45;&gt;Node7 -->
<g id="edge30" class="edge">
<title>Node12&#45;&gt;Node7</title>
<path fill="none" stroke="midnightblue" d="M1409.43,-128.94C1397.43,-126.73 1384.29,-124.53 1372.12,-123 1142.71,-94.08 1081.08,-125.7 853.12,-87 847.96,-86.12 842.58,-84.96 837.31,-83.67"/>
<polygon fill="midnightblue" stroke="midnightblue" points="837.95,-80.22 827.39,-81.07 836.18,-86.99 837.95,-80.22"/>
</g>
<!-- Node13 -->
<g id="node13" class="node">
<title>Node13</title>
<g id="a_node13"><a xlink:title=" ">
<polygon fill="none" stroke="#bfbfbf" points="1736.12,-56.5 1736.12,-86.5 1840.12,-86.5 1840.12,-56.5 1736.12,-56.5"/>
<text text-anchor="start" x="1744.12" y="-74.5" font-family="Helvetica,sans-Serif" font-size="10.00">boost/numeric/ublas</text>
<text text-anchor="middle" x="1788.12" y="-63.5" font-family="Helvetica,sans-Serif" font-size="10.00">/vector.hpp</text>
</a>
</g>
</g>
<!-- Node12&#45;&gt;Node13 -->
<g id="edge15" class="edge">
<title>Node12&#45;&gt;Node13</title>
<path fill="none" stroke="midnightblue" d="M1502.14,-128.99C1555.54,-119.9 1642.04,-104.65 1725.96,-87.18"/>
<polygon fill="midnightblue" stroke="midnightblue" points="1726.84,-90.57 1735.91,-85.1 1725.41,-83.72 1726.84,-90.57"/>
</g>
<!-- Node14 -->
<g id="node14" class="node">
<title>Node14</title>
<g id="a_node14"><a xlink:title=" ">
<polygon fill="none" stroke="#bfbfbf" points="1858.12,-56.5 1858.12,-86.5 1962.12,-86.5 1962.12,-56.5 1858.12,-56.5"/>
<text text-anchor="start" x="1866.12" y="-74.5" font-family="Helvetica,sans-Serif" font-size="10.00">boost/numeric/ublas</text>
<text text-anchor="middle" x="1910.12" y="-63.5" font-family="Helvetica,sans-Serif" font-size="10.00">/vector_proxy.hpp</text>
</a>
</g>
</g>
<!-- Node12&#45;&gt;Node14 -->
<g id="edge16" class="edge">
<title>Node12&#45;&gt;Node14</title>
<path fill="none" stroke="midnightblue" d="M1515.9,-131.44C1592.85,-123.75 1725.24,-109.01 1848,-87.09"/>
<polygon fill="midnightblue" stroke="midnightblue" points="1848.73,-90.51 1857.95,-85.29 1847.49,-83.62 1848.73,-90.51"/>
</g>
<!-- Node15 -->
<g id="node15" class="node">
<title>Node15</title>
<g id="a_node15"><a xlink:title=" ">
<polygon fill="none" stroke="#bfbfbf" points="1980.12,-56.5 1980.12,-86.5 2084.12,-86.5 2084.12,-56.5 1980.12,-56.5"/>
<text text-anchor="start" x="1988.12" y="-74.5" font-family="Helvetica,sans-Serif" font-size="10.00">boost/numeric/ublas</text>
<text text-anchor="middle" x="2032.12" y="-63.5" font-family="Helvetica,sans-Serif" font-size="10.00">/vector_sparse.hpp</text>
</a>
</g>
</g>
<!-- Node12&#45;&gt;Node15 -->
<g id="edge17" class="edge">
<title>Node12&#45;&gt;Node15</title>
<path fill="none" stroke="midnightblue" d="M1515.93,-134.06C1612.76,-128.28 1800.97,-114.64 1969.9,-87.06"/>
<polygon fill="midnightblue" stroke="midnightblue" points="1970.67,-90.47 1979.97,-85.39 1969.53,-83.57 1970.67,-90.47"/>
</g>
<!-- Node16 -->
<g id="node16" class="node">
<title>Node16</title>
<g id="a_node16"><a xlink:title=" ">
<polygon fill="none" stroke="#bfbfbf" points="862.12,-56.5 862.12,-86.5 978.12,-86.5 978.12,-56.5 862.12,-56.5"/>
<text text-anchor="start" x="870.12" y="-74.5" font-family="Helvetica,sans-Serif" font-size="10.00">boost/numeric/ublas</text>
<text text-anchor="middle" x="920.12" y="-63.5" font-family="Helvetica,sans-Serif" font-size="10.00">/vector_expression.hpp</text>
</a>
</g>
</g>
<!-- Node12&#45;&gt;Node16 -->
<g id="edge18" class="edge">
<title>Node12&#45;&gt;Node16</title>
<path fill="none" stroke="midnightblue" d="M1408.59,-128.98C1396.81,-126.82 1384,-124.64 1372.12,-123 1205.12,-99.91 1158.72,-112.71 988.21,-87.04"/>
<polygon fill="midnightblue" stroke="midnightblue" points="988.56,-83.55 978.14,-85.5 987.5,-90.47 988.56,-83.55"/>
</g>
<!-- Node17 -->
<g id="node17" class="node">
<title>Node17</title>
<g id="a_node17"><a xlink:title=" ">
<polygon fill="none" stroke="#bfbfbf" points="2102.12,-56.5 2102.12,-86.5 2206.12,-86.5 2206.12,-56.5 2102.12,-56.5"/>
<text text-anchor="start" x="2110.12" y="-74.5" font-family="Helvetica,sans-Serif" font-size="10.00">boost/numeric/ublas</text>
<text text-anchor="middle" x="2154.12" y="-63.5" font-family="Helvetica,sans-Serif" font-size="10.00">/matrix.hpp</text>
</a>
</g>
</g>
<!-- Node12&#45;&gt;Node17 -->
<g id="edge19" class="edge">
<title>Node12&#45;&gt;Node17</title>
<path fill="none" stroke="midnightblue" d="M1515.74,-135.72C1630.18,-131.86 1875.96,-120.3 2092.04,-87.01"/>
<polygon fill="midnightblue" stroke="midnightblue" points="2092.64,-90.45 2101.98,-85.45 2091.56,-83.54 2092.64,-90.45"/>
</g>
<!-- Node18 -->
<g id="node18" class="node">
<title>Node18</title>
<g id="a_node18"><a xlink:title=" ">
<polygon fill="none" stroke="#bfbfbf" points="2224.12,-56.5 2224.12,-86.5 2328.12,-86.5 2328.12,-56.5 2224.12,-56.5"/>
<text text-anchor="start" x="2232.12" y="-74.5" font-family="Helvetica,sans-Serif" font-size="10.00">boost/numeric/ublas</text>
<text text-anchor="middle" x="2276.12" y="-63.5" font-family="Helvetica,sans-Serif" font-size="10.00">/matrix_sparse.hpp</text>
</a>
</g>
</g>
<!-- Node12&#45;&gt;Node18 -->
<g id="edge20" class="edge">
<title>Node12&#45;&gt;Node18</title>
<path fill="none" stroke="midnightblue" d="M1515.65,-136.87C1646.02,-134.81 1950.13,-126.01 2213.83,-87.02"/>
<polygon fill="midnightblue" stroke="midnightblue" points="2214.61,-90.44 2223.98,-85.5 2213.58,-83.52 2214.61,-90.44"/>
</g>
<!-- Node19 -->
<g id="node19" class="node">
<title>Node19</title>
<g id="a_node19"><a xlink:title=" ">
<polygon fill="none" stroke="#bfbfbf" points="2346.12,-56.5 2346.12,-86.5 2450.12,-86.5 2450.12,-56.5 2346.12,-56.5"/>
<text text-anchor="start" x="2354.12" y="-74.5" font-family="Helvetica,sans-Serif" font-size="10.00">boost/numeric/ublas</text>
<text text-anchor="middle" x="2398.12" y="-63.5" font-family="Helvetica,sans-Serif" font-size="10.00">/matrix_proxy.hpp</text>
</a>
</g>
</g>
<!-- Node12&#45;&gt;Node19 -->
<g id="edge21" class="edge">
<title>Node12&#45;&gt;Node19</title>
<path fill="none" stroke="midnightblue" d="M1515.71,-137.71C1660.91,-137.33 2024.11,-131.72 2335.85,-87"/>
<polygon fill="midnightblue" stroke="midnightblue" points="2336.6,-90.43 2345.99,-85.53 2335.59,-83.5 2336.6,-90.43"/>
</g>
<!-- Node20 -->
<g id="node20" class="node">
<title>Node20</title>
<g id="a_node20"><a xlink:title=" ">
<polygon fill="none" stroke="#bfbfbf" points="2468.12,-56.5 2468.12,-86.5 2572.12,-86.5 2572.12,-56.5 2468.12,-56.5"/>
<text text-anchor="start" x="2476.12" y="-74.5" font-family="Helvetica,sans-Serif" font-size="10.00">boost/numeric/ublas</text>
<text text-anchor="middle" x="2520.12" y="-63.5" font-family="Helvetica,sans-Serif" font-size="10.00">/symmetric.hpp</text>
</a>
</g>
</g>
<!-- Node12&#45;&gt;Node20 -->
<g id="edge22" class="edge">
<title>Node12&#45;&gt;Node20</title>
<path fill="none" stroke="midnightblue" d="M1515.96,-135.81C1705.37,-130.62 2256.62,-113.73 2457.82,-86.96"/>
<polygon fill="midnightblue" stroke="midnightblue" points="2458.57,-90.39 2467.99,-85.55 2457.61,-83.46 2458.57,-90.39"/>
</g>
<!-- Node21 -->
<g id="node21" class="node">
<title>Node21</title>
<g id="a_node21"><a xlink:title=" ">
<polygon fill="none" stroke="#bfbfbf" points="2590.12,-56.5 2590.12,-86.5 2694.12,-86.5 2694.12,-56.5 2590.12,-56.5"/>
<text text-anchor="start" x="2598.12" y="-74.5" font-family="Helvetica,sans-Serif" font-size="10.00">boost/numeric/ublas</text>
<text text-anchor="middle" x="2642.12" y="-63.5" font-family="Helvetica,sans-Serif" font-size="10.00">/hermitian.hpp</text>
</a>
</g>
</g>
<!-- Node12&#45;&gt;Node21 -->
<g id="edge23" class="edge">
<title>Node12&#45;&gt;Node21</title>
<path fill="none" stroke="midnightblue" d="M1515.94,-136.21C1720.81,-131.89 2353.59,-116.57 2579.85,-86.95"/>
<polygon fill="midnightblue" stroke="midnightblue" points="2580.56,-90.39 2590,-85.57 2579.62,-83.45 2580.56,-90.39"/>
</g>
<!-- Node22 -->
<g id="node22" class="node">
<title>Node22</title>
<g id="a_node22"><a xlink:title=" ">
<polygon fill="none" stroke="#bfbfbf" points="996.12,-56.5 996.12,-86.5 1100.12,-86.5 1100.12,-56.5 996.12,-56.5"/>
<text text-anchor="start" x="1004.12" y="-74.5" font-family="Helvetica,sans-Serif" font-size="10.00">boost/numeric/ublas</text>
<text text-anchor="middle" x="1048.12" y="-63.5" font-family="Helvetica,sans-Serif" font-size="10.00">/banded.hpp</text>
</a>
</g>
</g>
<!-- Node12&#45;&gt;Node22 -->
<g id="edge24" class="edge">
<title>Node12&#45;&gt;Node22</title>
<path fill="none" stroke="midnightblue" d="M1406.47,-128.94C1395.27,-126.89 1383.27,-124.79 1372.12,-123 1258.81,-104.86 1226.82,-108.45 1110.32,-87.11"/>
<polygon fill="midnightblue" stroke="midnightblue" points="1110.76,-83.64 1100.29,-85.25 1109.48,-90.52 1110.76,-83.64"/>
</g>
<!-- Node23 -->
<g id="node23" class="node">
<title>Node23</title>
<g id="a_node23"><a xlink:title=" ">
<polygon fill="none" stroke="#bfbfbf" points="1118.12,-56.5 1118.12,-86.5 1222.12,-86.5 1222.12,-56.5 1118.12,-56.5"/>
<text text-anchor="start" x="1126.12" y="-74.5" font-family="Helvetica,sans-Serif" font-size="10.00">boost/numeric/ublas</text>
<text text-anchor="middle" x="1170.12" y="-63.5" font-family="Helvetica,sans-Serif" font-size="10.00">/triangular.hpp</text>
</a>
</g>
</g>
<!-- Node12&#45;&gt;Node23 -->
<g id="edge25" class="edge">
<title>Node12&#45;&gt;Node23</title>
<path fill="none" stroke="midnightblue" d="M1413.33,-128.92C1371.46,-119.39 1301.66,-103.45 1232.16,-87.23"/>
<polygon fill="midnightblue" stroke="midnightblue" points="1232.89,-83.81 1222.35,-84.95 1231.3,-90.63 1232.89,-83.81"/>
</g>
<!-- Node24 -->
<g id="node24" class="node">
<title>Node24</title>
<g id="a_node24"><a xlink:title=" ">
<polygon fill="none" stroke="#bfbfbf" points="1240.12,-56.5 1240.12,-86.5 1344.12,-86.5 1344.12,-56.5 1240.12,-56.5"/>
<text text-anchor="start" x="1248.12" y="-74.5" font-family="Helvetica,sans-Serif" font-size="10.00">boost/numeric/ublas</text>
<text text-anchor="middle" x="1292.12" y="-63.5" font-family="Helvetica,sans-Serif" font-size="10.00">/io.hpp</text>
</a>
</g>
</g>
<!-- Node12&#45;&gt;Node24 -->
<g id="edge26" class="edge">
<title>Node12&#45;&gt;Node24</title>
<path fill="none" stroke="midnightblue" d="M1430,-128.87C1406.14,-119.12 1366.65,-102.97 1336.03,-90.45"/>
<polygon fill="midnightblue" stroke="midnightblue" points="1337.01,-87.07 1326.43,-86.53 1334.36,-93.55 1337.01,-87.07"/>
</g>
<!-- Node25 -->
<g id="node25" class="node">
<title>Node25</title>
<g id="a_node25"><a xlink:title=" ">
<polygon fill="none" stroke="#bfbfbf" points="1362.12,-56.5 1362.12,-86.5 1466.12,-86.5 1466.12,-56.5 1362.12,-56.5"/>
<text text-anchor="start" x="1370.12" y="-74.5" font-family="Helvetica,sans-Serif" font-size="10.00">boost/numeric/ublas</text>
<text text-anchor="middle" x="1414.12" y="-63.5" font-family="Helvetica,sans-Serif" font-size="10.00">/operation.hpp</text>
</a>
</g>
</g>
<!-- Node12&#45;&gt;Node25 -->
<g id="edge27" class="edge">
<title>Node12&#45;&gt;Node25</title>
<path fill="none" stroke="midnightblue" d="M1446.13,-128.73C1441.27,-120.2 1433.68,-106.87 1427.11,-95.33"/>
<polygon fill="midnightblue" stroke="midnightblue" points="1430.12,-93.55 1422.14,-86.59 1424.04,-97.01 1430.12,-93.55"/>
</g>
<!-- Node26 -->
<g id="node26" class="node">
<title>Node26</title>
<g id="a_node26"><a xlink:title=" ">
<polygon fill="none" stroke="#bfbfbf" points="1484.12,-56.5 1484.12,-86.5 1588.12,-86.5 1588.12,-56.5 1484.12,-56.5"/>
<text text-anchor="start" x="1492.12" y="-74.5" font-family="Helvetica,sans-Serif" font-size="10.00">boost/numeric/ublas</text>
<text text-anchor="middle" x="1536.12" y="-63.5" font-family="Helvetica,sans-Serif" font-size="10.00">/lu.hpp</text>
</a>
</g>
</g>
<!-- Node12&#45;&gt;Node26 -->
<g id="edge28" class="edge">
<title>Node12&#45;&gt;Node26</title>
<path fill="none" stroke="midnightblue" d="M1462.58,-128.73C1474.51,-119.61 1493.61,-105 1509.36,-92.96"/>
<polygon fill="midnightblue" stroke="midnightblue" points="1511.87,-95.44 1517.69,-86.59 1507.62,-89.88 1511.87,-95.44"/>
</g>
<!-- Node27 -->
<g id="node27" class="node">
<title>Node27</title>
<g id="a_node27"><a xlink:title=" ">
<polygon fill="none" stroke="#bfbfbf" points="1606.12,-56.5 1606.12,-86.5 1718.12,-86.5 1718.12,-56.5 1606.12,-56.5"/>
<text text-anchor="start" x="1614.12" y="-74.5" font-family="Helvetica,sans-Serif" font-size="10.00">boost/numeric/ublas</text>
<text text-anchor="middle" x="1662.12" y="-63.5" font-family="Helvetica,sans-Serif" font-size="10.00">/operation_sparse.hpp</text>
</a>
</g>
</g>
<!-- Node12&#45;&gt;Node27 -->
<g id="edge29" class="edge">
<title>Node12&#45;&gt;Node27</title>
<path fill="none" stroke="midnightblue" d="M1479.14,-128.87C1511.62,-118.86 1565.94,-102.13 1606.98,-89.48"/>
<polygon fill="midnightblue" stroke="midnightblue" points="1608.05,-92.82 1616.58,-86.53 1605.99,-86.13 1608.05,-92.82"/>
</g>
<!-- Node28&#45;&gt;Node2 -->
<g id="edge33" class="edge">
<title>Node28&#45;&gt;Node2</title>
<path fill="none" stroke="midnightblue" d="M238.3,-130.79C331.96,-117.47 539.04,-88.01 617.33,-76.88"/>
<polygon fill="midnightblue" stroke="midnightblue" points="618.09,-80.31 627.49,-75.43 617.1,-73.38 618.09,-80.31"/>
</g>
<!-- Node28&#45;&gt;Node3 -->
<g id="edge34" class="edge">
<title>Node28&#45;&gt;Node3</title>
<path fill="none" stroke="midnightblue" d="M238.24,-126.03C290.4,-113.33 373.4,-93.12 421.1,-81.51"/>
<polygon fill="midnightblue" stroke="midnightblue" points="422.12,-84.87 431.01,-79.1 420.46,-78.06 422.12,-84.87"/>
</g>
<!-- Node28&#45;&gt;Node4 -->
<g id="edge35" class="edge">
<title>Node28&#45;&gt;Node4</title>
<path fill="none" stroke="midnightblue" d="M226.73,-123.36C245.89,-114.67 269.2,-102.27 287.12,-87 306.84,-70.19 323.83,-45.38 334.01,-28.72"/>
<polygon fill="midnightblue" stroke="midnightblue" points="337.1,-30.37 339.18,-19.98 331.08,-26.8 337.1,-30.37"/>
</g>
<!-- Node28&#45;&gt;Node7 -->
<g id="edge38" class="edge">
<title>Node28&#45;&gt;Node7</title>
<path fill="none" stroke="midnightblue" d="M238.4,-132.81C325.31,-124.13 516.29,-104.83 677.12,-87 699.43,-84.53 724,-81.66 745.28,-79.13"/>
<polygon fill="midnightblue" stroke="midnightblue" points="745.92,-82.58 755.44,-77.92 745.09,-75.63 745.92,-82.58"/>
</g>
<!-- Node29 -->
<g id="node29" class="node">
<title>Node29</title>
<g id="a_node29"><a xlink:title=" ">
<polygon fill="none" stroke="#bfbfbf" points="156.62,-62 156.62,-81 215.62,-81 215.62,-62 156.62,-62"/>
<text text-anchor="middle" x="186.12" y="-69" font-family="Helvetica,sans-Serif" font-size="10.00">functional</text>
</a>
</g>
</g>
<!-- Node28&#45;&gt;Node29 -->
<g id="edge32" class="edge">
<title>Node28&#45;&gt;Node29</title>
<path fill="none" stroke="midnightblue" d="M190.03,-123.4C189.31,-113.96 188.34,-101.45 187.55,-91.19"/>
<polygon fill="midnightblue" stroke="midnightblue" points="191.04,-90.9 186.78,-81.19 184.06,-91.43 191.04,-90.9"/>
</g>
<!-- Node30 -->
<g id="node30" class="node">
<title>Node30</title>
<g id="a_node30"><a xlink:title=" ">
<polygon fill="none" stroke="#bfbfbf" points="234.12,-62 234.12,-81 278.12,-81 278.12,-62 234.12,-62"/>
<text text-anchor="middle" x="256.12" y="-69" font-family="Helvetica,sans-Serif" font-size="10.00">vector</text>
</a>
</g>
</g>
<!-- Node28&#45;&gt;Node30 -->
<g id="edge36" class="edge">
<title>Node28&#45;&gt;Node30</title>
<path fill="none" stroke="midnightblue" d="M205.22,-123.4C215.56,-113.06 229.59,-99.02 240.31,-88.31"/>
<polygon fill="midnightblue" stroke="midnightblue" points="242.83,-90.74 247.42,-81.19 237.88,-85.79 242.83,-90.74"/>
</g>
<!-- Node31 -->
<g id="node31" class="node">
<title>Node31</title>
<g id="a_node31"><a xlink:title=" ">
<polygon fill="none" stroke="#bfbfbf" points="30.12,-56.5 30.12,-86.5 138.12,-86.5 138.12,-56.5 30.12,-56.5"/>
<text text-anchor="start" x="38.12" y="-74.5" font-family="Helvetica,sans-Serif" font-size="10.00">boost/iterator/indirect</text>
<text text-anchor="middle" x="84.12" y="-63.5" font-family="Helvetica,sans-Serif" font-size="10.00">_iterator.hpp</text>
</a>
</g>
</g>
<!-- Node28&#45;&gt;Node31 -->
<g id="edge37" class="edge">
<title>Node28&#45;&gt;Node31</title>
<path fill="none" stroke="midnightblue" d="M167.9,-123.4C152.76,-114.2 132.79,-102.07 116.14,-91.95"/>
<polygon fill="midnightblue" stroke="midnightblue" points="117.65,-88.78 107.29,-86.58 114.02,-94.76 117.65,-88.78"/>
</g>
<!-- Node32&#45;&gt;Node2 -->
<g id="edge40" class="edge">
<title>Node32&#45;&gt;Node2</title>
<path fill="none" stroke="midnightblue" d="M611.01,-313.5C613.31,-280.22 620.22,-193.86 634.12,-123 636.2,-112.35 639.39,-100.66 642.19,-91.21"/>
<polygon fill="midnightblue" stroke="midnightblue" points="645.63,-91.93 645.22,-81.34 638.94,-89.87 645.63,-91.93"/>
</g>
<!-- Node32&#45;&gt;Node3 -->
<g id="edge41" class="edge">
<title>Node32&#45;&gt;Node3</title>
<path fill="none" stroke="midnightblue" d="M601.73,-313.43C575.81,-269.95 497.07,-137.85 468.56,-90.02"/>
<polygon fill="midnightblue" stroke="midnightblue" points="471.4,-87.95 463.28,-81.16 465.39,-91.54 471.4,-87.95"/>
</g>
<!-- Node32&#45;&gt;Node5 -->
<g id="edge42" class="edge">
<title>Node32&#45;&gt;Node5</title>
<path fill="none" stroke="midnightblue" d="M554.83,-319.32C511.75,-311.72 451.07,-298.33 401.12,-277 366.62,-262.27 330.79,-237.15 309.74,-221.21"/>
<polygon fill="midnightblue" stroke="midnightblue" points="311.73,-218.33 301.67,-215 307.46,-223.87 311.73,-218.33"/>
</g>
<!-- Node32&#45;&gt;Node7 -->
<g id="edge43" class="edge">
<title>Node32&#45;&gt;Node7</title>
<path fill="none" stroke="midnightblue" d="M620.6,-313.43C653.13,-269.77 752.25,-136.74 787.51,-89.42"/>
<polygon fill="midnightblue" stroke="midnightblue" points="790.5,-91.27 793.67,-81.16 784.88,-87.08 790.5,-91.27"/>
</g>
<!-- Node33 -->
<g id="node33" class="node">
<title>Node33</title>
<g id="a_node33"><a xlink:href="../../d2/d91/point_8h.html" target="_top" xlink:title=" ">
<polygon fill="none" stroke="black" points="410.12,-257.5 410.12,-276.5 506.12,-276.5 506.12,-257.5 410.12,-257.5"/>
<text text-anchor="middle" x="458.12" y="-264.5" font-family="Helvetica,sans-Serif" font-size="10.00">geometries/point.h</text>
</a>
</g>
</g>
<!-- Node32&#45;&gt;Node33 -->
<g id="edge44" class="edge">
<title>Node32&#45;&gt;Node33</title>
<path fill="none" stroke="midnightblue" d="M574.09,-313.4C548.48,-303.37 514.39,-290.03 489.81,-280.4"/>
<polygon fill="midnightblue" stroke="midnightblue" points="490.82,-277.04 480.23,-276.66 488.27,-283.56 490.82,-277.04"/>
</g>
<!-- Node33&#45;&gt;Node2 -->
<g id="edge45" class="edge">
<title>Node33&#45;&gt;Node2</title>
<path fill="none" stroke="midnightblue" d="M470.27,-257.33C482.01,-248.7 500.04,-234.8 514.12,-221 554.67,-181.24 557.47,-164.62 596.12,-123 607.33,-110.92 620.68,-97.98 631.05,-88.23"/>
<polygon fill="midnightblue" stroke="midnightblue" points="633.7,-90.54 638.62,-81.16 628.92,-85.42 633.7,-90.54"/>
</g>
<!-- Node33&#45;&gt;Node3 -->
<g id="edge46" class="edge">
<title>Node33&#45;&gt;Node3</title>
<path fill="none" stroke="midnightblue" d="M440.03,-257.39C426.55,-249.87 409.14,-237.57 401.12,-221 395.11,-208.6 398.03,-203.43 401.12,-190 409.87,-151.89 432.7,-111.79 446.67,-89.69"/>
<polygon fill="midnightblue" stroke="midnightblue" points="449.72,-91.42 452.21,-81.12 443.84,-87.62 449.72,-91.42"/>
</g>
<!-- Node33&#45;&gt;Node4 -->
<g id="edge47" class="edge">
<title>Node33&#45;&gt;Node4</title>
<path fill="none" stroke="midnightblue" d="M439.28,-257.46C424.76,-249.91 405.32,-237.53 394.12,-221 352.94,-160.28 345.5,-69.63 344.28,-30.33"/>
<polygon fill="midnightblue" stroke="midnightblue" points="347.77,-29.8 344.07,-19.87 340.77,-29.94 347.77,-29.8"/>
</g>
<!-- Node33&#45;&gt;Node5 -->
<g id="edge48" class="edge">
<title>Node33&#45;&gt;Node5</title>
<path fill="none" stroke="midnightblue" d="M433.05,-257.34C407.21,-248.37 365.78,-233.9 330.12,-221 327.88,-220.19 325.58,-219.35 323.26,-218.5"/>
<polygon fill="midnightblue" stroke="midnightblue" points="324.37,-215.18 313.78,-215 321.95,-221.75 324.37,-215.18"/>
</g>
<!-- Node33&#45;&gt;Node7 -->
<g id="edge50" class="edge">
<title>Node33&#45;&gt;Node7</title>
<path fill="none" stroke="midnightblue" d="M474.83,-257.39C492.04,-248.46 519.59,-234.02 543.12,-221 630.25,-172.78 732.29,-112.74 777.07,-86.2"/>
<polygon fill="midnightblue" stroke="midnightblue" points="778.92,-89.17 785.73,-81.06 775.35,-83.15 778.92,-89.17"/>
</g>
<!-- Node34 -->
<g id="node34" class="node">
<title>Node34</title>
<g id="a_node34"><a xlink:title=" ">
<polygon fill="none" stroke="#bfbfbf" points="410.62,-190.5 410.62,-220.5 505.62,-220.5 505.62,-190.5 410.62,-190.5"/>
<text text-anchor="start" x="418.62" y="-208.5" font-family="Helvetica,sans-Serif" font-size="10.00">boost/serialization</text>
<text text-anchor="middle" x="458.12" y="-197.5" font-family="Helvetica,sans-Serif" font-size="10.00">/base_object.hpp</text>
</a>
</g>
</g>
<!-- Node33&#45;&gt;Node34 -->
<g id="edge49" class="edge">
<title>Node33&#45;&gt;Node34</title>
<path fill="none" stroke="midnightblue" d="M458.12,-257.48C458.12,-250.47 458.12,-240.19 458.12,-230.7"/>
<polygon fill="midnightblue" stroke="midnightblue" points="461.62,-230.52 458.12,-220.52 454.62,-230.52 461.62,-230.52"/>
</g>
<!-- Node35 -->
<g id="node35" class="node">
<title>Node35</title>
<g id="a_node35"><a xlink:href="../../d9/d36/array__1d_8h.html" target="_top" xlink:title=" ">
<polygon fill="none" stroke="black" points="961.62,-196 961.62,-215 1070.62,-215 1070.62,-196 961.62,-196"/>
<text text-anchor="middle" x="1016.12" y="-203" font-family="Helvetica,sans-Serif" font-size="10.00">containers/array_1d.h</text>
</a>
</g>
</g>
<!-- Node33&#45;&gt;Node35 -->
<g id="edge51" class="edge">
<title>Node33&#45;&gt;Node35</title>
<path fill="none" stroke="midnightblue" d="M506.17,-260.88C606.41,-250.19 837.85,-225.51 951.19,-213.42"/>
<polygon fill="midnightblue" stroke="midnightblue" points="951.88,-216.87 961.45,-212.33 951.14,-209.91 951.88,-216.87"/>
</g>
<!-- Node35&#45;&gt;Node2 -->
<g id="edge52" class="edge">
<title>Node35&#45;&gt;Node2</title>
<path fill="none" stroke="midnightblue" d="M987.21,-195.93C955.2,-186.3 902.17,-169.92 857.12,-154 792.66,-131.22 718.34,-101.37 677.98,-84.85"/>
<polygon fill="midnightblue" stroke="midnightblue" points="679.3,-81.6 668.72,-81.04 676.64,-88.08 679.3,-81.6"/>
</g>
<!-- Node35&#45;&gt;Node3 -->
<g id="edge53" class="edge">
<title>Node35&#45;&gt;Node3</title>
<path fill="none" stroke="midnightblue" d="M971.63,-195.93C922.8,-186.36 842.15,-170.09 773.12,-154 672.18,-130.47 554.11,-98.8 495.33,-82.75"/>
<polygon fill="midnightblue" stroke="midnightblue" points="495.96,-79.3 485.39,-80.03 494.12,-86.05 495.96,-79.3"/>
</g>
<!-- Node35&#45;&gt;Node6 -->
<g id="edge54" class="edge">
<title>Node35&#45;&gt;Node6</title>
<path fill="none" stroke="midnightblue" d="M1051.95,-195.94C1100.88,-184.24 1188.61,-163.28 1242.27,-150.46"/>
<polygon fill="midnightblue" stroke="midnightblue" points="1243.29,-153.81 1252.2,-148.08 1241.66,-147 1243.29,-153.81"/>
</g>
<!-- Node35&#45;&gt;Node7 -->
<g id="edge55" class="edge">
<title>Node35&#45;&gt;Node7</title>
<path fill="none" stroke="midnightblue" d="M1045.12,-195.91C1085.58,-182.53 1151.03,-154.89 1123.12,-123 1083.24,-77.46 912.44,-99.01 853.12,-87 848.34,-86.03 843.36,-84.88 838.45,-83.64"/>
<polygon fill="midnightblue" stroke="midnightblue" points="839.11,-80.2 828.55,-81.04 837.33,-86.97 839.11,-80.2"/>
</g>
<!-- Node35&#45;&gt;Node12 -->
<g id="edge56" class="edge">
<title>Node35&#45;&gt;Node12</title>
<path fill="none" stroke="midnightblue" d="M1070.77,-196.33C1150.34,-184.44 1297.94,-162.39 1384,-149.53"/>
<polygon fill="midnightblue" stroke="midnightblue" points="1384.55,-152.99 1393.93,-148.05 1383.52,-146.06 1384.55,-152.99"/>
</g>
<!-- Node35&#45;&gt;Node16 -->
<g id="edge57" class="edge">
<title>Node35&#45;&gt;Node16</title>
<path fill="none" stroke="midnightblue" d="M1061.72,-195.98C1113.32,-184.33 1186.46,-160.49 1156.12,-123 1109.78,-65.76 1065.95,-100.02 988.36,-87.02"/>
<polygon fill="midnightblue" stroke="midnightblue" points="988.7,-83.53 978.22,-85.09 987.38,-90.4 988.7,-83.53"/>
</g>
<!-- Node36 -->
<g id="node36" class="node">
<title>Node36</title>
<g id="a_node36"><a xlink:title=" ">
<polygon fill="none" stroke="#bfbfbf" points="1010.12,-123.5 1010.12,-153.5 1114.12,-153.5 1114.12,-123.5 1010.12,-123.5"/>
<text text-anchor="start" x="1018.12" y="-141.5" font-family="Helvetica,sans-Serif" font-size="10.00">boost/numeric/ublas</text>
<text text-anchor="middle" x="1062.12" y="-130.5" font-family="Helvetica,sans-Serif" font-size="10.00">/storage.hpp</text>
</a>
</g>
</g>
<!-- Node35&#45;&gt;Node36 -->
<g id="edge58" class="edge">
<title>Node35&#45;&gt;Node36</title>
<path fill="none" stroke="midnightblue" d="M1022.32,-195.73C1028.42,-187.12 1037.98,-173.61 1046.2,-161.99"/>
<polygon fill="midnightblue" stroke="midnightblue" points="1049.23,-163.77 1052.15,-153.59 1043.51,-159.73 1049.23,-163.77"/>
</g>
<!-- Node37 -->
<g id="node37" class="node">
<title>Node37</title>
<g id="a_node37"><a xlink:title=" ">
<polygon fill="none" stroke="#bfbfbf" points="866.62,-123.5 866.62,-153.5 991.62,-153.5 991.62,-123.5 866.62,-123.5"/>
<text text-anchor="start" x="874.62" y="-141.5" font-family="Helvetica,sans-Serif" font-size="10.00">boost/numeric/ublas</text>
<text text-anchor="middle" x="929.12" y="-130.5" font-family="Helvetica,sans-Serif" font-size="10.00">/detail/vector_assign.hpp</text>
</a>
</g>
</g>
<!-- Node35&#45;&gt;Node37 -->
<g id="edge59" class="edge">
<title>Node35&#45;&gt;Node37</title>
<path fill="none" stroke="midnightblue" d="M1004.38,-195.73C992.06,-186.53 972.26,-171.73 956.06,-159.63"/>
<polygon fill="midnightblue" stroke="midnightblue" points="958.08,-156.77 947.97,-153.59 953.89,-162.38 958.08,-156.77"/>
</g>
<!-- Node38&#45;&gt;Node2 -->
<g id="edge61" class="edge">
<title>Node38&#45;&gt;Node2</title>
<path fill="none" stroke="midnightblue" d="M817.72,-380.27C806.86,-346.12 776.85,-257.38 738.12,-190 715.73,-151.06 681.96,-110.52 662.78,-88.71"/>
<polygon fill="midnightblue" stroke="midnightblue" points="665.24,-86.21 655.98,-81.07 660.01,-90.87 665.24,-86.21"/>
</g>
<!-- Node38&#45;&gt;Node3 -->
<g id="edge62" class="edge">
<title>Node38&#45;&gt;Node3</title>
<path fill="none" stroke="midnightblue" d="M806.01,-380.25C746.22,-327.36 537.31,-142.55 475.48,-87.86"/>
<polygon fill="midnightblue" stroke="midnightblue" points="477.57,-85.04 467.76,-81.03 472.93,-90.28 477.57,-85.04"/>
</g>
<!-- Node38&#45;&gt;Node4 -->
<g id="edge63" class="edge">
<title>Node38&#45;&gt;Node4</title>
<path fill="none" stroke="midnightblue" d="M825.13,-380.16C829.76,-356.78 838.12,-308.95 838.12,-268 838.12,-268 838.12,-268 838.12,-204.5 838.12,-155.83 721.16,-76.72 677.12,-56 625.17,-31.56 456.26,-18.1 380.95,-13.18"/>
<polygon fill="midnightblue" stroke="midnightblue" points="380.74,-9.66 370.54,-12.52 380.3,-16.65 380.74,-9.66"/>
</g>
<!-- Node38&#45;&gt;Node5 -->
<g id="edge64" class="edge">
<title>Node38&#45;&gt;Node5</title>
<path fill="none" stroke="midnightblue" d="M768.46,-391.89C677.38,-385.2 489.71,-361.4 359.12,-277 336.67,-262.49 316.16,-239.23 303.66,-223.43"/>
<polygon fill="midnightblue" stroke="midnightblue" points="306.14,-220.91 297.28,-215.11 300.59,-225.17 306.14,-220.91"/>
</g>
<!-- Node38&#45;&gt;Node6 -->
<g id="edge65" class="edge">
<title>Node38&#45;&gt;Node6</title>
<path fill="none" stroke="midnightblue" d="M875.75,-394.56C971.96,-393.58 1168.66,-386.29 1220.12,-344 1249.62,-319.75 1275.32,-204.11 1284.51,-158.27"/>
<polygon fill="midnightblue" stroke="midnightblue" points="1287.95,-158.94 1286.44,-148.45 1281.08,-157.59 1287.95,-158.94"/>
</g>
<!-- Node38&#45;&gt;Node7 -->
<g id="edge67" class="edge">
<title>Node38&#45;&gt;Node7</title>
<path fill="none" stroke="midnightblue" d="M864.82,-380.46C972.64,-342.93 1240.38,-235.45 1141.12,-123 1098.43,-74.65 916.38,-99.54 853.12,-87 848.28,-86.04 843.24,-84.88 838.27,-83.64"/>
<polygon fill="midnightblue" stroke="midnightblue" points="838.83,-80.16 828.27,-81 837.05,-86.93 838.83,-80.16"/>
</g>
<!-- Node38&#45;&gt;Node12 -->
<g id="edge68" class="edge">
<title>Node38&#45;&gt;Node12</title>
<path fill="none" stroke="midnightblue" d="M875.84,-392.42C974.68,-387.89 1181.11,-374.94 1245.12,-344 1337.1,-299.53 1412.6,-197.23 1440.02,-156.59"/>
<polygon fill="midnightblue" stroke="midnightblue" points="1443.07,-158.34 1445.68,-148.07 1437.23,-154.47 1443.07,-158.34"/>
</g>
<!-- Node38&#45;&gt;Node32 -->
<g id="edge69" class="edge">
<title>Node38&#45;&gt;Node32</title>
<path fill="none" stroke="midnightblue" d="M776.38,-380.48C744.03,-370.56 700.46,-357.2 666.05,-346.65"/>
<polygon fill="midnightblue" stroke="midnightblue" points="666.73,-343.2 656.14,-343.61 664.67,-349.89 666.73,-343.2"/>
</g>
<!-- Node38&#45;&gt;Node35 -->
<g id="edge66" class="edge">
<title>Node38&#45;&gt;Node35</title>
<path fill="none" stroke="midnightblue" d="M836.7,-380.37C872.09,-346.07 962.36,-258.6 999.63,-222.48"/>
<polygon fill="midnightblue" stroke="midnightblue" points="1002.39,-224.68 1007.13,-215.21 997.51,-219.65 1002.39,-224.68"/>
</g>
</g>
</svg>
