<?xml version="1.0" encoding="UTF-8" standalone="no"?>
<!DOCTYPE svg PUBLIC "-//W3C//DTD SVG 1.1//EN"
 "http://www.w3.org/Graphics/SVG/1.1/DTD/svg11.dtd">
<!-- Generated by graphviz version 2.48.0 (20210719.0153)
 -->
<!-- Title: /github/workspace/applications/mkl_solvers_application/external_includes/boost/numeric/bindings/traits/ublas_vector2.hpp Pages: 1 -->
<svg width="772pt" height="128pt"
 viewBox="0.00 0.00 771.50 128.00" xmlns="http://www.w3.org/2000/svg" xmlns:xlink="http://www.w3.org/1999/xlink">
<g id="graph0" class="graph" transform="scale(1 1) rotate(0) translate(4 124)">
<title>/github/workspace/applications/mkl_solvers_application/external_includes/boost/numeric/bindings/traits/ublas_vector2.hpp</title>
<!-- Node1 -->
<g id="node1" class="node">
<title>Node1</title>
<g id="a_node1"><a xlink:title=" ">
<polygon fill="#bfbfbf" stroke="black" points="318,-67.5 318,-119.5 479,-119.5 479,-67.5 318,-67.5"/>
<text text-anchor="start" x="326" y="-107.5" font-family="Helvetica,sans-Serif" font-size="10.00">/github/workspace/applications</text>
<text text-anchor="start" x="326" y="-96.5" font-family="Helvetica,sans-Serif" font-size="10.00">/mkl_solvers_application/external</text>
<text text-anchor="start" x="326" y="-85.5" font-family="Helvetica,sans-Serif" font-size="10.00">_includes/boost/numeric/bindings</text>
<text text-anchor="middle" x="398.5" y="-74.5" font-family="Helvetica,sans-Serif" font-size="10.00">/traits/ublas_vector2.hpp</text>
</a>
</g>
</g>
<!-- Node2 -->
<g id="node2" class="node">
<title>Node2</title>
<g id="a_node2"><a xlink:title=" ">
<polygon fill="none" stroke="#bfbfbf" points="0,-0.5 0,-30.5 117,-30.5 117,-0.5 0,-0.5"/>
<text text-anchor="start" x="8" y="-18.5" font-family="Helvetica,sans-Serif" font-size="10.00">boost/numeric/bindings</text>
<text text-anchor="middle" x="58.5" y="-7.5" font-family="Helvetica,sans-Serif" font-size="10.00">/traits/config.hpp</text>
</a>
</g>
</g>
<!-- Node1&#45;&gt;Node2 -->
<g id="edge1" class="edge">
<title>Node1&#45;&gt;Node2</title>
<path fill="none" stroke="midnightblue" d="M317.92,-74.49C259.88,-61.51 182.38,-44.19 127.25,-31.87"/>
<polygon fill="midnightblue" stroke="midnightblue" points="127.74,-28.39 117.22,-29.63 126.22,-35.22 127.74,-28.39"/>
</g>
<!-- Node3 -->
<g id="node3" class="node">
<title>Node3</title>
<g id="a_node3"><a xlink:title=" ">
<polygon fill="none" stroke="#bfbfbf" points="135.5,-0.5 135.5,-30.5 253.5,-30.5 253.5,-0.5 135.5,-0.5"/>
<text text-anchor="start" x="143.5" y="-18.5" font-family="Helvetica,sans-Serif" font-size="10.00">boost/numeric/bindings</text>
<text text-anchor="middle" x="194.5" y="-7.5" font-family="Helvetica,sans-Serif" font-size="10.00">/traits/ublas_vector.hpp</text>
</a>
</g>
</g>
<!-- Node1&#45;&gt;Node3 -->
<g id="edge2" class="edge">
<title>Node1&#45;&gt;Node3</title>
<path fill="none" stroke="midnightblue" d="M331.14,-67.4C301.89,-56.51 268.32,-44 241.78,-34.11"/>
<polygon fill="midnightblue" stroke="midnightblue" points="242.93,-30.81 232.34,-30.6 240.49,-37.37 242.93,-30.81"/>
</g>
<!-- Node4 -->
<g id="node4" class="node">
<title>Node4</title>
<g id="a_node4"><a xlink:title=" ">
<polygon fill="none" stroke="#bfbfbf" points="272,-0.5 272,-30.5 389,-30.5 389,-0.5 272,-0.5"/>
<text text-anchor="start" x="280" y="-18.5" font-family="Helvetica,sans-Serif" font-size="10.00">boost/numeric/bindings</text>
<text text-anchor="middle" x="330.5" y="-7.5" font-family="Helvetica,sans-Serif" font-size="10.00">/traits/matrix_traits.hpp</text>
</a>
</g>
</g>
<!-- Node1&#45;&gt;Node4 -->
<g id="edge3" class="edge">
<title>Node1&#45;&gt;Node4</title>
<path fill="none" stroke="midnightblue" d="M375.86,-67.19C367.49,-57.84 358.09,-47.33 350.02,-38.32"/>
<polygon fill="midnightblue" stroke="midnightblue" points="352.61,-35.96 343.34,-30.85 347.39,-40.63 352.61,-35.96"/>
</g>
<!-- Node5 -->
<g id="node5" class="node">
<title>Node5</title>
<g id="a_node5"><a xlink:title=" ">
<polygon fill="none" stroke="#bfbfbf" points="407.5,-6 407.5,-25 525.5,-25 525.5,-6 407.5,-6"/>
<text text-anchor="middle" x="466.5" y="-13" font-family="Helvetica,sans-Serif" font-size="10.00">boost/static_assert.hpp</text>
</a>
</g>
</g>
<!-- Node1&#45;&gt;Node5 -->
<g id="edge4" class="edge">
<title>Node1&#45;&gt;Node5</title>
<path fill="none" stroke="midnightblue" d="M421.14,-67.19C431.28,-55.86 442.95,-42.82 451.91,-32.81"/>
<polygon fill="midnightblue" stroke="midnightblue" points="454.65,-35 458.71,-25.21 449.43,-30.33 454.65,-35"/>
</g>
<!-- Node6 -->
<g id="node6" class="node">
<title>Node6</title>
<g id="a_node6"><a xlink:title=" ">
<polygon fill="none" stroke="#bfbfbf" points="543.5,-0.5 543.5,-30.5 659.5,-30.5 659.5,-0.5 543.5,-0.5"/>
<text text-anchor="start" x="551.5" y="-18.5" font-family="Helvetica,sans-Serif" font-size="10.00">boost/type_traits/same</text>
<text text-anchor="middle" x="601.5" y="-7.5" font-family="Helvetica,sans-Serif" font-size="10.00">_traits.hpp</text>
</a>
</g>
</g>
<!-- Node1&#45;&gt;Node6 -->
<g id="edge5" class="edge">
<title>Node1&#45;&gt;Node6</title>
<path fill="none" stroke="midnightblue" d="M465.53,-67.4C494.64,-56.51 528.04,-44 554.45,-34.11"/>
<polygon fill="midnightblue" stroke="midnightblue" points="555.71,-37.38 563.85,-30.6 553.25,-30.83 555.71,-37.38"/>
</g>
<!-- Node7 -->
<g id="node7" class="node">
<title>Node7</title>
<g id="a_node7"><a xlink:title=" ">
<polygon fill="none" stroke="#bfbfbf" points="677.5,-6 677.5,-25 763.5,-25 763.5,-6 677.5,-6"/>
<text text-anchor="middle" x="720.5" y="-13" font-family="Helvetica,sans-Serif" font-size="10.00">boost/mpl/if.hpp</text>
</a>
</g>
</g>
<!-- Node1&#45;&gt;Node7 -->
<g id="edge6" class="edge">
<title>Node1&#45;&gt;Node7</title>
<path fill="none" stroke="midnightblue" d="M479.08,-75.21C532.88,-63.4 605.12,-47.05 668.5,-31 672.59,-29.96 676.85,-28.85 681.09,-27.7"/>
<polygon fill="midnightblue" stroke="midnightblue" points="682.15,-31.04 690.87,-25.03 680.3,-24.29 682.15,-31.04"/>
</g>
</g>
</svg>
