<?xml version="1.0" encoding="UTF-8" standalone="no"?>
<!DOCTYPE svg PUBLIC "-//W3C//DTD SVG 1.1//EN"
 "http://www.w3.org/Graphics/SVG/1.1/DTD/svg11.dtd">
<!-- Generated by graphviz version 2.48.0 (20210719.0153)
 -->
<!-- Title: boost::numeric::ublas::triangular_adaptor&lt; M, TRI &gt; Pages: 1 -->
<!--zoomable 496 -->
<svg id="main" version="1.1" xmlns="http://www.w3.org/2000/svg" xmlns:xlink="http://www.w3.org/1999/xlink" xml:space="preserve" onload="init(evt)">
<style type="text/css"><![CDATA[
.edge:hover path { stroke: red; }
.edge:hover polygon { stroke: red; fill: red; }
]]></style>
<script type="text/javascript"><![CDATA[
var edges = document.getElementsByTagName('g');
if (edges && edges.length) {
  for (var i=0;i<edges.length;i++) {
    if (edges[i].id.substr(0,4)=='edge') {
      edges[i].setAttribute('class','edge');
    }
  }
}
]]></script>
        <defs>
                <circle id="rim" cx="0" cy="0" r="7"/>
                <circle id="rim2" cx="0" cy="0" r="3.5"/>
                <g id="zoomPlus">
                        <use xlink:href="#rim" fill="#404040">
                                <set attributeName="fill" to="#808080" begin="zoomplus.mouseover" end="zoomplus.mouseout"/>
                        </use>
                        <path d="M-4,0h8M0,-4v8" fill="none" stroke="white" stroke-width="1.5" pointer-events="none"/>
                </g>
                <g id="zoomMin">
                        <use xlink:href="#rim" fill="#404040">
                                <set attributeName="fill" to="#808080" begin="zoomminus.mouseover" end="zoomminus.mouseout"/>
                        </use>
                        <path d="M-4,0h8" fill="none" stroke="white" stroke-width="1.5" pointer-events="none"/>
                </g>
                <g id="dirArrow">
                        <path fill="none" stroke="white" stroke-width="1.5" d="M0,-3.0v7 M-2.5,-0.5L0,-3.0L2.5,-0.5"/>
                </g>
               <g id="resetDef">
                       <use xlink:href="#rim2" fill="#404040">
                               <set attributeName="fill" to="#808080" begin="reset.mouseover" end="reset.mouseout"/>
                       </use>
               </g>
        </defs>

<script type="text/javascript">
var viewWidth = 127;
var viewHeight = 496;
var sectionId = 'dynsection-0';
</script>
<script xlink:href="../../svgpan.js"/>
<svg id="graph" class="graph">
<g id="viewport">
<title>boost::numeric::ublas::triangular_adaptor&lt; M, TRI &gt;</title>
<!-- Node1 -->
<g id="node1" class="node">
<title>Node1</title>
<g id="a_node1"><a xlink:title=" ">
<polygon fill="#bfbfbf" stroke="black" points="5.5,-0.5 5.5,-189.5 113.5,-189.5 113.5,-0.5 5.5,-0.5"/>
<text text-anchor="start" x="13.5" y="-177.5" font-family="Helvetica,sans-Serif" font-size="10.00">boost::numeric::ublas</text>
<text text-anchor="start" x="13.5" y="-166.5" font-family="Helvetica,sans-Serif" font-size="10.00">::triangular_adaptor</text>
<text text-anchor="middle" x="59.5" y="-155.5" font-family="Helvetica,sans-Serif" font-size="10.00">&lt; M, TRI &gt;</text>
<polyline fill="none" stroke="black" points="5.5,-148.5 113.5,-148.5 "/>
<text text-anchor="middle" x="59.5" y="-136.5" font-family="Helvetica,sans-Serif" font-size="10.00"> </text>
<polyline fill="none" stroke="black" points="5.5,-129.5 113.5,-129.5 "/>
<text text-anchor="start" x="13.5" y="-117.5" font-family="Helvetica,sans-Serif" font-size="10.00">+ triangular_adaptor()</text>
<text text-anchor="start" x="13.5" y="-106.5" font-family="Helvetica,sans-Serif" font-size="10.00">+ triangular_adaptor()</text>
<text text-anchor="start" x="13.5" y="-95.5" font-family="Helvetica,sans-Serif" font-size="10.00">+ size1()</text>
<text text-anchor="start" x="13.5" y="-84.5" font-family="Helvetica,sans-Serif" font-size="10.00">+ size2()</text>
<text text-anchor="start" x="13.5" y="-73.5" font-family="Helvetica,sans-Serif" font-size="10.00">+ data()</text>
<text text-anchor="start" x="13.5" y="-62.5" font-family="Helvetica,sans-Serif" font-size="10.00">+ data()</text>
<text text-anchor="start" x="13.5" y="-51.5" font-family="Helvetica,sans-Serif" font-size="10.00">+ operator()()</text>
<text text-anchor="start" x="13.5" y="-40.5" font-family="Helvetica,sans-Serif" font-size="10.00">+ operator()()</text>
<text text-anchor="start" x="13.5" y="-29.5" font-family="Helvetica,sans-Serif" font-size="10.00">+ operator=()</text>
<text text-anchor="start" x="13.5" y="-18.5" font-family="Helvetica,sans-Serif" font-size="10.00">+ assign_temporary()</text>
<text text-anchor="start" x="13.5" y="-7.5" font-family="Helvetica,sans-Serif" font-size="10.00">and 70 more...</text>
</a>
</g>
</g>
<!-- Node2 -->
<g id="node2" class="node">
<title>Node2</title>
<g id="a_node2"><a xlink:href="../../d9/da6/classboost_1_1numeric_1_1ublas_1_1matrix__expression.html" target="_top" xlink:title=" ">
<polygon fill="none" stroke="black" points="1.5,-226.5 1.5,-349.5 117.5,-349.5 117.5,-226.5 1.5,-226.5"/>
<text text-anchor="start" x="9.5" y="-337.5" font-family="Helvetica,sans-Serif" font-size="10.00">boost::numeric::ublas</text>
<text text-anchor="start" x="9.5" y="-326.5" font-family="Helvetica,sans-Serif" font-size="10.00">::matrix_expression&lt;</text>
<text text-anchor="start" x="9.5" y="-315.5" font-family="Helvetica,sans-Serif" font-size="10.00"> triangular_adaptor&lt; M,</text>
<text text-anchor="middle" x="59.5" y="-304.5" font-family="Helvetica,sans-Serif" font-size="10.00"> TRI &gt; &gt;</text>
<polyline fill="none" stroke="black" points="1.5,-297.5 117.5,-297.5 "/>
<text text-anchor="start" x="9.5" y="-285.5" font-family="Helvetica,sans-Serif" font-size="10.00">+ complexity</text>
<polyline fill="none" stroke="black" points="1.5,-278.5 117.5,-278.5 "/>
<text text-anchor="start" x="9.5" y="-266.5" font-family="Helvetica,sans-Serif" font-size="10.00">+ operator()()</text>
<text text-anchor="start" x="9.5" y="-255.5" font-family="Helvetica,sans-Serif" font-size="10.00">+ operator()()</text>
<text text-anchor="start" x="9.5" y="-244.5" font-family="Helvetica,sans-Serif" font-size="10.00">+ operator()()</text>
<text text-anchor="start" x="9.5" y="-233.5" font-family="Helvetica,sans-Serif" font-size="10.00">+ operator()()</text>
</a>
</g>
</g>
<!-- Node2&#45;&gt;Node1 -->
<g id="edge1" class="edge">
<title>Node2&#45;&gt;Node1</title>
<path fill="none" stroke="midnightblue" d="M52.96,-216.27C52.81,-207.59 52.74,-198.62 52.75,-189.67"/>
<polygon fill="none" stroke="midnightblue" points="49.46,-216.38 53.17,-226.3 56.46,-216.23 49.46,-216.38"/>
</g>
<!-- Node2&#45;&gt;Node1 -->
<g id="edge4" class="edge">
<title>Node2&#45;&gt;Node1</title>
<path fill="none" stroke="midnightblue" d="M66.04,-216.27C66.19,-207.59 66.26,-198.62 66.25,-189.67"/>
<polygon fill="none" stroke="midnightblue" points="62.54,-216.23 65.83,-226.3 69.54,-216.38 62.54,-216.23"/>
</g>
<!-- Node3 -->
<g id="node3" class="node">
<title>Node3</title>
<g id="a_node3"><a xlink:href="../../dd/db7/classboost_1_1numeric_1_1ublas_1_1ublas__expression.html" target="_top" xlink:title=" ">
<polygon fill="none" stroke="black" points="0,-386.5 0,-487.5 119,-487.5 119,-386.5 0,-386.5"/>
<text text-anchor="start" x="8" y="-475.5" font-family="Helvetica,sans-Serif" font-size="10.00">boost::numeric::ublas</text>
<text text-anchor="middle" x="59.5" y="-464.5" font-family="Helvetica,sans-Serif" font-size="10.00">::ublas_expression&lt; E &gt;</text>
<polyline fill="none" stroke="black" points="0,-457.5 119,-457.5 "/>
<text text-anchor="middle" x="59.5" y="-445.5" font-family="Helvetica,sans-Serif" font-size="10.00"> </text>
<polyline fill="none" stroke="black" points="0,-438.5 119,-438.5 "/>
<text text-anchor="start" x="8" y="-426.5" font-family="Helvetica,sans-Serif" font-size="10.00"># ublas_expression()</text>
<text text-anchor="start" x="8" y="-415.5" font-family="Helvetica,sans-Serif" font-size="10.00"># ~ublas_expression()</text>
<text text-anchor="start" x="8" y="-404.5" font-family="Helvetica,sans-Serif" font-size="10.00"># ublas_expression()</text>
<text text-anchor="start" x="8" y="-393.5" font-family="Helvetica,sans-Serif" font-size="10.00"># ~ublas_expression()</text>
</a>
</g>
</g>
<!-- Node3&#45;&gt;Node2 -->
<g id="edge2" class="edge">
<title>Node3&#45;&gt;Node2</title>
<path fill="none" stroke="midnightblue" d="M52.85,-376.14C52.72,-367.41 52.72,-358.42 52.84,-349.67"/>
<polygon fill="none" stroke="midnightblue" points="49.36,-376.31 53.07,-386.23 56.36,-376.16 49.36,-376.31"/>
</g>
<!-- Node3&#45;&gt;Node2 -->
<g id="edge3" class="edge">
<title>Node3&#45;&gt;Node2</title>
<path fill="none" stroke="midnightblue" d="M66.15,-376.14C66.28,-367.41 66.28,-358.42 66.16,-349.67"/>
<polygon fill="none" stroke="midnightblue" points="62.64,-376.16 65.93,-386.23 69.64,-376.31 62.64,-376.16"/>
</g>
</g>
</svg>
        <g id="navigator" transform="translate(0 0)" fill="#404254">
                <rect fill="#f2f5e9" fill-opacity="0.5" stroke="#606060" stroke-width=".5" x="0" y="0" width="60" height="60"/>
                <use id="zoomplus" xlink:href="#zoomPlus" x="17" y="9" onmousedown="handleZoom(evt,'in')"/>
                <use id="zoomminus" xlink:href="#zoomMin" x="42" y="9" onmousedown="handleZoom(evt,'out')"/>
                <use id="reset" xlink:href="#resetDef" x="30" y="36" onmousedown="handleReset()"/>
                <g id="arrowUp" xlink:href="#dirArrow" transform="translate(30 24)" onmousedown="handlePan(0,-1)">
                  <use xlink:href="#rim" fill="#404040">
                        <set attributeName="fill" to="#808080" begin="arrowUp.mouseover" end="arrowUp.mouseout"/>
                  </use>
                  <path fill="none" stroke="white" stroke-width="1.5" d="M0,-3.0v7 M-2.5,-0.5L0,-3.0L2.5,-0.5"/>
                </g>
                <g id="arrowRight" xlink:href="#dirArrow" transform="rotate(90) translate(36 -43)" onmousedown="handlePan(1,0)">
                  <use xlink:href="#rim" fill="#404040">
                        <set attributeName="fill" to="#808080" begin="arrowRight.mouseover" end="arrowRight.mouseout"/>
                  </use>
                  <path fill="none" stroke="white" stroke-width="1.5" d="M0,-3.0v7 M-2.5,-0.5L0,-3.0L2.5,-0.5"/>
                </g>
                <g id="arrowDown" xlink:href="#dirArrow" transform="rotate(180) translate(-30 -48)" onmousedown="handlePan(0,1)">
                  <use xlink:href="#rim" fill="#404040">
                        <set attributeName="fill" to="#808080" begin="arrowDown.mouseover" end="arrowDown.mouseout"/>
                  </use>
                  <path fill="none" stroke="white" stroke-width="1.5" d="M0,-3.0v7 M-2.5,-0.5L0,-3.0L2.5,-0.5"/>
                </g>
                <g id="arrowLeft" xlink:href="#dirArrow" transform="rotate(270) translate(-36 17)" onmousedown="handlePan(-1,0)">
                  <use xlink:href="#rim" fill="#404040">
                        <set attributeName="fill" to="#808080" begin="arrowLeft.mouseover" end="arrowLeft.mouseout"/>
                  </use>
                  <path fill="none" stroke="white" stroke-width="1.5" d="M0,-3.0v7 M-2.5,-0.5L0,-3.0L2.5,-0.5"/>
                </g>
        </g>
        <svg viewBox="0 0 15 15" width="100%" height="30px" preserveAspectRatio="xMaxYMin meet">
         <g id="arrow_out" transform="scale(0.3 0.3)">
          <a xlink:href="classboost_1_1numeric_1_1ublas_1_1triangular__adaptor__inherit__graph_org.svg" target="_base">
           <rect id="button" ry="5" rx="5" y="6" x="6" height="38" width="38"
                fill="#f2f5e9" fill-opacity="0.5" stroke="#606060" stroke-width="1.0"/>
           <path id="arrow"
             d="M 11.500037,31.436501 C 11.940474,20.09759 22.043105,11.32322 32.158766,21.979434 L 37.068811,17.246167 C 37.068811,17.246167 37.088388,32 37.088388,32 L 22.160133,31.978069 C 22.160133,31.978069 26.997745,27.140456 26.997745,27.140456 C 18.528582,18.264221 13.291696,25.230495 11.500037,31.436501 z"
             style="fill:#404040;"/>
          </a>
         </g>
        </svg>
</svg>
