<?xml version="1.0" encoding="UTF-8" standalone="no"?>
<!DOCTYPE svg PUBLIC "-//W3C//DTD SVG 1.1//EN"
 "http://www.w3.org/Graphics/SVG/1.1/DTD/svg11.dtd">
<!-- Generated by graphviz version 2.48.0 (20210719.0153)
 -->
<!-- Title: Branch Pages: 1 -->
<svg width="121pt" height="88pt"
 viewBox="0.00 0.00 121.00 88.00" xmlns="http://www.w3.org/2000/svg" xmlns:xlink="http://www.w3.org/1999/xlink">
<g id="graph0" class="graph" transform="scale(1 1) rotate(0) translate(4 84)">
<title>Branch</title>
<!-- Node1 -->
<g id="node1" class="node">
<title>Node1</title>
<g id="a_node1"><a xlink:title=" ">
<polygon fill="#bfbfbf" stroke="black" points="0,-0.5 0,-79.5 68,-79.5 68,-0.5 0,-0.5"/>
<text text-anchor="middle" x="34" y="-67.5" font-family="Helvetica,sans-Serif" font-size="10.00">Branch</text>
<polyline fill="none" stroke="black" points="0,-60.5 68,-60.5 "/>
<text text-anchor="start" x="8" y="-48.5" font-family="Helvetica,sans-Serif" font-size="10.00">+ root</text>
<text text-anchor="start" x="8" y="-37.5" font-family="Helvetica,sans-Serif" font-size="10.00">+ first_desc</text>
<text text-anchor="start" x="8" y="-26.5" font-family="Helvetica,sans-Serif" font-size="10.00">+ which_bin</text>
<polyline fill="none" stroke="black" points="0,-19.5 68,-19.5 "/>
<text text-anchor="middle" x="34" y="-7.5" font-family="Helvetica,sans-Serif" font-size="10.00"> </text>
</a>
</g>
</g>
<!-- Node1&#45;&gt;Node1 -->
<g id="edge1" class="edge">
<title>Node1&#45;&gt;Node1</title>
<path fill="none" stroke="#404040" d="M68.01,-54.59C78.13,-54.16 86,-49.29 86,-40 86,-34.92 83.65,-31.16 79.86,-28.73"/>
<polygon fill="none" stroke="#404040" points="79.56,-28.65 72.71,-30.88 68.01,-25.41 74.87,-23.17 79.56,-28.65"/>
<text text-anchor="middle" x="99.5" y="-37.5" font-family="Helvetica,sans-Serif" font-size="10.00"> +next</text>
</g>
</g>
</svg>
