<?xml version="1.0" encoding="UTF-8" standalone="no"?>
<!DOCTYPE svg PUBLIC "-//W3C//DTD SVG 1.1//EN"
 "http://www.w3.org/Graphics/SVG/1.1/DTD/svg11.dtd">
<!-- Generated by graphviz version 2.48.0 (20210719.0153)
 -->
<!-- Title: boost::numeric::bindings::traits::is_equal&lt; T &gt; Pages: 1 -->
<svg width="128pt" height="226pt"
 viewBox="0.00 0.00 128.00 226.00" xmlns="http://www.w3.org/2000/svg" xmlns:xlink="http://www.w3.org/1999/xlink">
<g id="graph0" class="graph" transform="scale(1 1) rotate(0) translate(4 222)">
<title>boost::numeric::bindings::traits::is_equal&lt; T &gt;</title>
<!-- Node1 -->
<g id="node1" class="node">
<title>Node1</title>
<g id="a_node1"><a xlink:title=" ">
<polygon fill="#bfbfbf" stroke="black" points="0,-0.5 0,-101.5 120,-101.5 120,-0.5 0,-0.5"/>
<text text-anchor="start" x="8" y="-89.5" font-family="Helvetica,sans-Serif" font-size="10.00">boost::numeric::bindings</text>
<text text-anchor="middle" x="60" y="-78.5" font-family="Helvetica,sans-Serif" font-size="10.00">::traits::is_equal&lt; T &gt;</text>
<polyline fill="none" stroke="black" points="0,-71.5 120,-71.5 "/>
<text text-anchor="middle" x="60" y="-59.5" font-family="Helvetica,sans-Serif" font-size="10.00"> </text>
<polyline fill="none" stroke="black" points="0,-52.5 120,-52.5 "/>
<text text-anchor="start" x="8" y="-40.5" font-family="Helvetica,sans-Serif" font-size="10.00">+ is_equal()</text>
<text text-anchor="start" x="8" y="-29.5" font-family="Helvetica,sans-Serif" font-size="10.00">+ operator()()</text>
<text text-anchor="start" x="8" y="-18.5" font-family="Helvetica,sans-Serif" font-size="10.00">+ is_equal()</text>
<text text-anchor="start" x="8" y="-7.5" font-family="Helvetica,sans-Serif" font-size="10.00">+ operator()()</text>
</a>
</g>
</g>
<!-- Node2 -->
<g id="node2" class="node">
<title>Node2</title>
<g id="a_node2"><a xlink:href="../../d3/d18/structboost_1_1numeric_1_1bindings_1_1traits_1_1type__traits.html" target="_top" xlink:title=" ">
<polygon fill="none" stroke="black" points="0,-149.5 0,-217.5 120,-217.5 120,-149.5 0,-149.5"/>
<text text-anchor="start" x="8" y="-205.5" font-family="Helvetica,sans-Serif" font-size="10.00">boost::numeric::bindings</text>
<text text-anchor="middle" x="60" y="-194.5" font-family="Helvetica,sans-Serif" font-size="10.00">::traits::type_traits&lt; T &gt;</text>
<polyline fill="none" stroke="black" points="0,-187.5 120,-187.5 "/>
<text text-anchor="middle" x="60" y="-175.5" font-family="Helvetica,sans-Serif" font-size="10.00"> </text>
<polyline fill="none" stroke="black" points="0,-168.5 120,-168.5 "/>
<text text-anchor="middle" x="60" y="-156.5" font-family="Helvetica,sans-Serif" font-size="10.00"> </text>
</a>
</g>
</g>
<!-- Node2&#45;&gt;Node1 -->
<g id="edge1" class="edge">
<title>Node2&#45;&gt;Node1</title>
<path fill="none" stroke="#404040" d="M60,-149.23C60,-138.47 60,-126.17 60,-114.02"/>
<polygon fill="none" stroke="#404040" points="60,-113.98 56,-107.98 60,-101.98 64,-107.98 60,-113.98"/>
<text text-anchor="middle" x="87" y="-123" font-family="Helvetica,sans-Serif" font-size="10.00"> +tolerance_</text>
</g>
</g>
</svg>
