<?xml version="1.0" encoding="UTF-8" standalone="no"?>
<!DOCTYPE svg PUBLIC "-//W3C//DTD SVG 1.1//EN"
 "http://www.w3.org/Graphics/SVG/1.1/DTD/svg11.dtd">
<!-- Generated by graphviz version 2.48.0 (20210719.0153)
 -->
<!-- Title: /github/workspace/applications/mkl_solvers_application/external_includes/boost/numeric/ublas/detail/config.hpp Pages: 1 -->
<svg width="1638pt" height="128pt"
 viewBox="0.00 0.00 1638.00 128.00" xmlns="http://www.w3.org/2000/svg" xmlns:xlink="http://www.w3.org/1999/xlink">
<g id="graph0" class="graph" transform="scale(1 1) rotate(0) translate(4 124)">
<title>/github/workspace/applications/mkl_solvers_application/external_includes/boost/numeric/ublas/detail/config.hpp</title>
<!-- Node1 -->
<g id="node1" class="node">
<title>Node1</title>
<g id="a_node1"><a xlink:title=" ">
<polygon fill="#bfbfbf" stroke="black" points="644,-67.5 644,-119.5 819,-119.5 819,-67.5 644,-67.5"/>
<text text-anchor="start" x="652" y="-107.5" font-family="Helvetica,sans-Serif" font-size="10.00">/github/workspace/applications</text>
<text text-anchor="start" x="652" y="-96.5" font-family="Helvetica,sans-Serif" font-size="10.00">/mkl_solvers_application/external</text>
<text text-anchor="start" x="652" y="-85.5" font-family="Helvetica,sans-Serif" font-size="10.00">_includes/boost/numeric/ublas/detail</text>
<text text-anchor="middle" x="731.5" y="-74.5" font-family="Helvetica,sans-Serif" font-size="10.00">/config.hpp</text>
</a>
</g>
</g>
<!-- Node2 -->
<g id="node2" class="node">
<title>Node2</title>
<g id="a_node2"><a xlink:title=" ">
<polygon fill="none" stroke="#bfbfbf" points="0,-6 0,-25 49,-25 49,-6 0,-6"/>
<text text-anchor="middle" x="24.5" y="-13" font-family="Helvetica,sans-Serif" font-size="10.00">cassert</text>
</a>
</g>
</g>
<!-- Node1&#45;&gt;Node2 -->
<g id="edge1" class="edge">
<title>Node1&#45;&gt;Node2</title>
<path fill="none" stroke="midnightblue" d="M643.79,-93.43C513.7,-92.83 262.86,-83.98 57.5,-31 55.2,-30.41 52.86,-29.67 50.53,-28.85"/>
<polygon fill="midnightblue" stroke="midnightblue" points="51.84,-25.6 41.25,-25.11 49.22,-32.09 51.84,-25.6"/>
</g>
<!-- Node3 -->
<g id="node3" class="node">
<title>Node3</title>
<g id="a_node3"><a xlink:title=" ">
<polygon fill="none" stroke="#bfbfbf" points="67,-6 67,-25 116,-25 116,-6 67,-6"/>
<text text-anchor="middle" x="91.5" y="-13" font-family="Helvetica,sans-Serif" font-size="10.00">cstddef</text>
</a>
</g>
</g>
<!-- Node1&#45;&gt;Node3 -->
<g id="edge2" class="edge">
<title>Node1&#45;&gt;Node3</title>
<path fill="none" stroke="midnightblue" d="M643.75,-91.84C524.58,-89.09 305.73,-77.43 125.5,-31 123.14,-30.39 120.73,-29.65 118.34,-28.82"/>
<polygon fill="midnightblue" stroke="midnightblue" points="119.38,-25.46 108.79,-25.07 116.82,-31.98 119.38,-25.46"/>
</g>
<!-- Node4 -->
<g id="node4" class="node">
<title>Node4</title>
<g id="a_node4"><a xlink:title=" ">
<polygon fill="none" stroke="#bfbfbf" points="134.5,-6 134.5,-25 190.5,-25 190.5,-6 134.5,-6"/>
<text text-anchor="middle" x="162.5" y="-13" font-family="Helvetica,sans-Serif" font-size="10.00">algorithm</text>
</a>
</g>
</g>
<!-- Node1&#45;&gt;Node4 -->
<g id="edge3" class="edge">
<title>Node1&#45;&gt;Node4</title>
<path fill="none" stroke="midnightblue" d="M643.65,-89.28C537.14,-83.81 352.87,-69.23 199.5,-31 196.83,-30.33 194.1,-29.52 191.38,-28.63"/>
<polygon fill="midnightblue" stroke="midnightblue" points="192.37,-25.27 181.78,-25.14 189.98,-31.85 192.37,-25.27"/>
</g>
<!-- Node5 -->
<g id="node5" class="node">
<title>Node5</title>
<g id="a_node5"><a xlink:title=" ">
<polygon fill="none" stroke="#bfbfbf" points="209,-6 209,-25 296,-25 296,-6 209,-6"/>
<text text-anchor="middle" x="252.5" y="-13" font-family="Helvetica,sans-Serif" font-size="10.00">boost/config.hpp</text>
</a>
</g>
</g>
<!-- Node1&#45;&gt;Node5 -->
<g id="edge4" class="edge">
<title>Node1&#45;&gt;Node5</title>
<path fill="none" stroke="midnightblue" d="M643.65,-83.04C557.13,-72.96 421.45,-55.14 305.5,-31 300.79,-30.02 295.87,-28.86 291.02,-27.63"/>
<polygon fill="midnightblue" stroke="midnightblue" points="291.79,-24.22 281.23,-25.05 290,-30.99 291.79,-24.22"/>
</g>
<!-- Node6 -->
<g id="node6" class="node">
<title>Node6</title>
<g id="a_node6"><a xlink:title=" ">
<polygon fill="none" stroke="#bfbfbf" points="314.5,-6 314.5,-25 432.5,-25 432.5,-6 314.5,-6"/>
<text text-anchor="middle" x="373.5" y="-13" font-family="Helvetica,sans-Serif" font-size="10.00">boost/static_assert.hpp</text>
</a>
</g>
</g>
<!-- Node1&#45;&gt;Node6 -->
<g id="edge5" class="edge">
<title>Node1&#45;&gt;Node6</title>
<path fill="none" stroke="midnightblue" d="M643.93,-73.96C586.39,-61.76 509.46,-45.45 441.5,-31 435.68,-29.76 429.57,-28.46 423.51,-27.17"/>
<polygon fill="midnightblue" stroke="midnightblue" points="423.92,-23.68 413.41,-25.02 422.46,-30.53 423.92,-23.68"/>
</g>
<!-- Node7 -->
<g id="node7" class="node">
<title>Node7</title>
<g id="a_node7"><a xlink:title=" ">
<polygon fill="none" stroke="#bfbfbf" points="451,-6 451,-25 536,-25 536,-6 451,-6"/>
<text text-anchor="middle" x="493.5" y="-13" font-family="Helvetica,sans-Serif" font-size="10.00">boost/limits.hpp</text>
</a>
</g>
</g>
<!-- Node1&#45;&gt;Node7 -->
<g id="edge6" class="edge">
<title>Node1&#45;&gt;Node7</title>
<path fill="none" stroke="midnightblue" d="M652.91,-67.4C611.44,-54.16 562.53,-38.54 529.93,-28.13"/>
<polygon fill="midnightblue" stroke="midnightblue" points="530.95,-24.79 520.36,-25.08 528.82,-31.45 530.95,-24.79"/>
</g>
<!-- Node8 -->
<g id="node8" class="node">
<title>Node8</title>
<g id="a_node8"><a xlink:title=" ">
<polygon fill="none" stroke="#bfbfbf" points="554.5,-6 554.5,-25 670.5,-25 670.5,-6 554.5,-6"/>
<text text-anchor="middle" x="612.5" y="-13" font-family="Helvetica,sans-Serif" font-size="10.00">boost/noncopyable.hpp</text>
</a>
</g>
</g>
<!-- Node1&#45;&gt;Node8 -->
<g id="edge7" class="edge">
<title>Node1&#45;&gt;Node8</title>
<path fill="none" stroke="midnightblue" d="M692.21,-67.4C673.08,-55.19 650.79,-40.95 634.65,-30.65"/>
<polygon fill="midnightblue" stroke="midnightblue" points="636.24,-27.51 625.93,-25.08 632.48,-33.41 636.24,-27.51"/>
</g>
<!-- Node9 -->
<g id="node9" class="node">
<title>Node9</title>
<g id="a_node9"><a xlink:title=" ">
<polygon fill="none" stroke="#bfbfbf" points="688.5,-6 688.5,-25 774.5,-25 774.5,-6 688.5,-6"/>
<text text-anchor="middle" x="731.5" y="-13" font-family="Helvetica,sans-Serif" font-size="10.00">boost/mpl/if.hpp</text>
</a>
</g>
</g>
<!-- Node1&#45;&gt;Node9 -->
<g id="edge8" class="edge">
<title>Node1&#45;&gt;Node9</title>
<path fill="none" stroke="midnightblue" d="M731.5,-67.19C731.5,-56.76 731.5,-44.9 731.5,-35.27"/>
<polygon fill="midnightblue" stroke="midnightblue" points="735,-35.21 731.5,-25.21 728,-35.21 735,-35.21"/>
</g>
<!-- Node10 -->
<g id="node10" class="node">
<title>Node10</title>
<g id="a_node10"><a xlink:title=" ">
<polygon fill="none" stroke="#bfbfbf" points="792.5,-6 792.5,-25 888.5,-25 888.5,-6 792.5,-6"/>
<text text-anchor="middle" x="840.5" y="-13" font-family="Helvetica,sans-Serif" font-size="10.00">boost/mpl/and.hpp</text>
</a>
</g>
</g>
<!-- Node1&#45;&gt;Node10 -->
<g id="edge9" class="edge">
<title>Node1&#45;&gt;Node10</title>
<path fill="none" stroke="midnightblue" d="M767.49,-67.4C784.85,-55.3 805.05,-41.22 819.79,-30.94"/>
<polygon fill="midnightblue" stroke="midnightblue" points="822,-33.67 828.2,-25.08 817.99,-27.93 822,-33.67"/>
</g>
<!-- Node11 -->
<g id="node11" class="node">
<title>Node11</title>
<g id="a_node11"><a xlink:title=" ">
<polygon fill="none" stroke="#bfbfbf" points="907,-0.5 907,-30.5 1006,-30.5 1006,-0.5 907,-0.5"/>
<text text-anchor="start" x="915" y="-18.5" font-family="Helvetica,sans-Serif" font-size="10.00">boost/type_traits/is</text>
<text text-anchor="middle" x="956.5" y="-7.5" font-family="Helvetica,sans-Serif" font-size="10.00">_same.hpp</text>
</a>
</g>
</g>
<!-- Node1&#45;&gt;Node11 -->
<g id="edge10" class="edge">
<title>Node1&#45;&gt;Node11</title>
<path fill="none" stroke="midnightblue" d="M805.8,-67.4C838.34,-56.41 875.73,-43.78 905.12,-33.85"/>
<polygon fill="midnightblue" stroke="midnightblue" points="906.41,-37.11 914.77,-30.6 904.17,-30.48 906.41,-37.11"/>
</g>
<!-- Node12 -->
<g id="node12" class="node">
<title>Node12</title>
<g id="a_node12"><a xlink:title=" ">
<polygon fill="none" stroke="#bfbfbf" points="1024,-0.5 1024,-30.5 1123,-30.5 1123,-0.5 1024,-0.5"/>
<text text-anchor="start" x="1032" y="-18.5" font-family="Helvetica,sans-Serif" font-size="10.00">boost/type_traits/is</text>
<text text-anchor="middle" x="1073.5" y="-7.5" font-family="Helvetica,sans-Serif" font-size="10.00">_convertible.hpp</text>
</a>
</g>
</g>
<!-- Node1&#45;&gt;Node12 -->
<g id="edge11" class="edge">
<title>Node1&#45;&gt;Node12</title>
<path fill="none" stroke="midnightblue" d="M819.3,-74.24C872.97,-62.9 943.26,-47.73 1013.89,-31.34"/>
<polygon fill="midnightblue" stroke="midnightblue" points="1014.91,-34.7 1023.85,-29.02 1013.32,-27.88 1014.91,-34.7"/>
</g>
<!-- Node13 -->
<g id="node13" class="node">
<title>Node13</title>
<g id="a_node13"><a xlink:title=" ">
<polygon fill="none" stroke="#bfbfbf" points="1141,-0.5 1141,-30.5 1240,-30.5 1240,-0.5 1141,-0.5"/>
<text text-anchor="start" x="1149" y="-18.5" font-family="Helvetica,sans-Serif" font-size="10.00">boost/type_traits/is</text>
<text text-anchor="middle" x="1190.5" y="-7.5" font-family="Helvetica,sans-Serif" font-size="10.00">_const.hpp</text>
</a>
</g>
</g>
<!-- Node1&#45;&gt;Node13 -->
<g id="edge12" class="edge">
<title>Node1&#45;&gt;Node13</title>
<path fill="none" stroke="midnightblue" d="M819.13,-81.44C898.34,-70.9 1018.28,-53.59 1131.05,-31.19"/>
<polygon fill="midnightblue" stroke="midnightblue" points="1131.78,-34.62 1140.89,-29.22 1130.4,-27.75 1131.78,-34.62"/>
</g>
<!-- Node14 -->
<g id="node14" class="node">
<title>Node14</title>
<g id="a_node14"><a xlink:title=" ">
<polygon fill="none" stroke="#bfbfbf" points="1258.5,-0.5 1258.5,-30.5 1382.5,-30.5 1382.5,-0.5 1258.5,-0.5"/>
<text text-anchor="start" x="1266.5" y="-18.5" font-family="Helvetica,sans-Serif" font-size="10.00">boost/type_traits/remove</text>
<text text-anchor="middle" x="1320.5" y="-7.5" font-family="Helvetica,sans-Serif" font-size="10.00">_reference.hpp</text>
</a>
</g>
</g>
<!-- Node1&#45;&gt;Node14 -->
<g id="edge13" class="edge">
<title>Node1&#45;&gt;Node14</title>
<path fill="none" stroke="midnightblue" d="M819.34,-84.32C920.41,-74.41 1091.52,-56.06 1247.94,-31.17"/>
<polygon fill="midnightblue" stroke="midnightblue" points="1248.9,-34.56 1258.22,-29.53 1247.79,-27.65 1248.9,-34.56"/>
</g>
<!-- Node15 -->
<g id="node15" class="node">
<title>Node15</title>
<g id="a_node15"><a xlink:title=" ">
<polygon fill="none" stroke="#bfbfbf" points="1400.5,-0.5 1400.5,-30.5 1504.5,-30.5 1504.5,-0.5 1400.5,-0.5"/>
<text text-anchor="start" x="1408.5" y="-18.5" font-family="Helvetica,sans-Serif" font-size="10.00">boost/numeric/ublas</text>
<text text-anchor="middle" x="1452.5" y="-7.5" font-family="Helvetica,sans-Serif" font-size="10.00">/fwd.hpp</text>
</a>
</g>
</g>
<!-- Node1&#45;&gt;Node15 -->
<g id="edge14" class="edge">
<title>Node1&#45;&gt;Node15</title>
<path fill="none" stroke="midnightblue" d="M819.01,-88.27C943.89,-81.35 1180.42,-65.02 1390.38,-31.04"/>
<polygon fill="midnightblue" stroke="midnightblue" points="1391.05,-34.47 1400.35,-29.4 1389.92,-27.56 1391.05,-34.47"/>
</g>
<!-- Node16 -->
<g id="node16" class="node">
<title>Node16</title>
<g id="a_node16"><a xlink:title=" ">
<polygon fill="none" stroke="#bfbfbf" points="1523,-0.5 1523,-30.5 1630,-30.5 1630,-0.5 1523,-0.5"/>
<text text-anchor="start" x="1531" y="-18.5" font-family="Helvetica,sans-Serif" font-size="10.00">boost/numeric/ublas</text>
<text text-anchor="middle" x="1576.5" y="-7.5" font-family="Helvetica,sans-Serif" font-size="10.00">/detail/definitions.hpp</text>
</a>
</g>
</g>
<!-- Node1&#45;&gt;Node16 -->
<g id="edge15" class="edge">
<title>Node1&#45;&gt;Node16</title>
<path fill="none" stroke="midnightblue" d="M819.07,-89.83C962.33,-84.54 1255.73,-69.8 1513.08,-30.9"/>
<polygon fill="midnightblue" stroke="midnightblue" points="1513.63,-34.35 1522.99,-29.38 1512.57,-27.43 1513.63,-34.35"/>
</g>
</g>
</svg>
