<?xml version="1.0" encoding="UTF-8" standalone="no"?>
<!DOCTYPE svg PUBLIC "-//W3C//DTD SVG 1.1//EN"
 "http://www.w3.org/Graphics/SVG/1.1/DTD/svg11.dtd">
<!-- Generated by graphviz version 2.48.0 (20210719.0153)
 -->
<!-- Title: /github/workspace/kratos/includes/global_variables.h Pages: 1 -->
<!--zoomable 397 -->
<svg id="main" version="1.1" xmlns="http://www.w3.org/2000/svg" xmlns:xlink="http://www.w3.org/1999/xlink" xml:space="preserve" onload="init(evt)">
<style type="text/css"><![CDATA[
.edge:hover path { stroke: red; }
.edge:hover polygon { stroke: red; fill: red; }
]]></style>
<script type="text/javascript"><![CDATA[
var edges = document.getElementsByTagName('g');
if (edges && edges.length) {
  for (var i=0;i<edges.length;i++) {
    if (edges[i].id.substr(0,4)=='edge') {
      edges[i].setAttribute('class','edge');
    }
  }
}
]]></script>
        <defs>
                <circle id="rim" cx="0" cy="0" r="7"/>
                <circle id="rim2" cx="0" cy="0" r="3.5"/>
                <g id="zoomPlus">
                        <use xlink:href="#rim" fill="#404040">
                                <set attributeName="fill" to="#808080" begin="zoomplus.mouseover" end="zoomplus.mouseout"/>
                        </use>
                        <path d="M-4,0h8M0,-4v8" fill="none" stroke="white" stroke-width="1.5" pointer-events="none"/>
                </g>
                <g id="zoomMin">
                        <use xlink:href="#rim" fill="#404040">
                                <set attributeName="fill" to="#808080" begin="zoomminus.mouseover" end="zoomminus.mouseout"/>
                        </use>
                        <path d="M-4,0h8" fill="none" stroke="white" stroke-width="1.5" pointer-events="none"/>
                </g>
                <g id="dirArrow">
                        <path fill="none" stroke="white" stroke-width="1.5" d="M0,-3.0v7 M-2.5,-0.5L0,-3.0L2.5,-0.5"/>
                </g>
               <g id="resetDef">
                       <use xlink:href="#rim2" fill="#404040">
                               <set attributeName="fill" to="#808080" begin="reset.mouseover" end="reset.mouseout"/>
                       </use>
               </g>
        </defs>

<script type="text/javascript">
var viewWidth = 735;
var viewHeight = 397;
var sectionId = 'dynsection-0';
</script>
<script xlink:href="../../svgpan.js"/>
<svg id="graph" class="graph">
<g id="viewport">
<title>/github/workspace/kratos/includes/global_variables.h</title>
<!-- Node1 -->
<g id="node1" class="node">
<title>Node1</title>
<g id="a_node1"><a xlink:title=" ">
<polygon fill="#bfbfbf" stroke="black" points="513.5,-358.5 513.5,-388.5 649.5,-388.5 649.5,-358.5 513.5,-358.5"/>
<text text-anchor="start" x="521.5" y="-376.5" font-family="Helvetica,sans-Serif" font-size="10.00">/github/workspace/kratos</text>
<text text-anchor="middle" x="581.5" y="-365.5" font-family="Helvetica,sans-Serif" font-size="10.00">/includes/global_variables.h</text>
</a>
</g>
</g>
<!-- Node2 -->
<g id="node2" class="node">
<title>Node2</title>
<g id="a_node2"><a xlink:title=" ">
<polygon fill="none" stroke="#bfbfbf" points="469,-56.5 469,-75.5 510,-75.5 510,-56.5 469,-56.5"/>
<text text-anchor="middle" x="489.5" y="-63.5" font-family="Helvetica,sans-Serif" font-size="10.00">string</text>
</a>
</g>
</g>
<!-- Node1&#45;&gt;Node2 -->
<g id="edge1" class="edge">
<title>Node1&#45;&gt;Node2</title>
<path fill="none" stroke="midnightblue" d="M604.45,-358.37C635.89,-337.04 688.5,-293.45 688.5,-240.5 688.5,-240.5 688.5,-240.5 688.5,-177 688.5,-100.98 575.88,-77.08 520.08,-69.91"/>
<polygon fill="midnightblue" stroke="midnightblue" points="520.39,-66.42 510.05,-68.72 519.57,-73.37 520.39,-66.42"/>
</g>
<!-- Node3 -->
<g id="node3" class="node">
<title>Node3</title>
<g id="a_node3"><a xlink:title=" ">
<polygon fill="none" stroke="#bfbfbf" points="576.5,-56.5 576.5,-75.5 630.5,-75.5 630.5,-56.5 576.5,-56.5"/>
<text text-anchor="middle" x="603.5" y="-63.5" font-family="Helvetica,sans-Serif" font-size="10.00">iostream</text>
</a>
</g>
</g>
<!-- Node1&#45;&gt;Node3 -->
<g id="edge2" class="edge">
<title>Node1&#45;&gt;Node3</title>
<path fill="none" stroke="midnightblue" d="M643.35,-358.43C664.64,-350.82 687,-339.29 702.5,-322 727.71,-293.88 726.5,-278.26 726.5,-240.5 726.5,-240.5 726.5,-240.5 726.5,-177 726.5,-146.2 723.47,-134.55 702.5,-112 686.04,-94.29 661.28,-83.04 640.64,-76.22"/>
<polygon fill="midnightblue" stroke="midnightblue" points="641.48,-72.81 630.89,-73.21 639.42,-79.5 641.48,-72.81"/>
</g>
<!-- Node4 -->
<g id="node4" class="node">
<title>Node4</title>
<g id="a_node4"><a xlink:href="../../df/d67/define_8h.html" target="_top" xlink:title=" ">
<polygon fill="none" stroke="black" points="155,-56.5 155,-75.5 244,-75.5 244,-56.5 155,-56.5"/>
<text text-anchor="middle" x="199.5" y="-63.5" font-family="Helvetica,sans-Serif" font-size="10.00">includes/define.h</text>
</a>
</g>
</g>
<!-- Node1&#45;&gt;Node4 -->
<g id="edge3" class="edge">
<title>Node1&#45;&gt;Node4</title>
<path fill="none" stroke="midnightblue" d="M513.43,-367.1C385.84,-355.1 123.5,-320.66 123.5,-240.5 123.5,-240.5 123.5,-240.5 123.5,-177 123.5,-137.28 157.46,-101.5 179.98,-82.15"/>
<polygon fill="midnightblue" stroke="midnightblue" points="182.48,-84.63 187.96,-75.57 178.02,-79.24 182.48,-84.63"/>
</g>
<!-- Node10 -->
<g id="node10" class="node">
<title>Node10</title>
<g id="a_node10"><a xlink:href="../../de/d77/variables__list_8h.html" target="_top" xlink:title=" ">
<polygon fill="none" stroke="black" points="422.5,-291.5 422.5,-321.5 526.5,-321.5 526.5,-291.5 422.5,-291.5"/>
<text text-anchor="start" x="430.5" y="-309.5" font-family="Helvetica,sans-Serif" font-size="10.00">containers/variables</text>
<text text-anchor="middle" x="474.5" y="-298.5" font-family="Helvetica,sans-Serif" font-size="10.00">_list.h</text>
</a>
</g>
</g>
<!-- Node1&#45;&gt;Node10 -->
<g id="edge9" class="edge">
<title>Node1&#45;&gt;Node10</title>
<path fill="none" stroke="midnightblue" d="M558.28,-358.4C543.14,-349.2 523.17,-337.07 506.53,-326.95"/>
<polygon fill="midnightblue" stroke="midnightblue" points="508.04,-323.78 497.67,-321.58 504.4,-329.76 508.04,-323.78"/>
</g>
<!-- Node5 -->
<g id="node5" class="node">
<title>Node5</title>
<g id="a_node5"><a xlink:title=" ">
<polygon fill="none" stroke="#bfbfbf" points="0,-0.5 0,-19.5 59,-19.5 59,-0.5 0,-0.5"/>
<text text-anchor="middle" x="29.5" y="-7.5" font-family="Helvetica,sans-Serif" font-size="10.00">stdexcept</text>
</a>
</g>
</g>
<!-- Node4&#45;&gt;Node5 -->
<g id="edge4" class="edge">
<title>Node4&#45;&gt;Node5</title>
<path fill="none" stroke="midnightblue" d="M172.56,-56.44C143.84,-47.32 98.17,-32.81 66.18,-22.65"/>
<polygon fill="midnightblue" stroke="midnightblue" points="66.9,-19.21 56.31,-19.52 64.78,-25.88 66.9,-19.21"/>
</g>
<!-- Node6 -->
<g id="node6" class="node">
<title>Node6</title>
<g id="a_node6"><a xlink:title=" ">
<polygon fill="none" stroke="#bfbfbf" points="77.5,-0.5 77.5,-19.5 129.5,-19.5 129.5,-0.5 77.5,-0.5"/>
<text text-anchor="middle" x="103.5" y="-7.5" font-family="Helvetica,sans-Serif" font-size="10.00">sstream</text>
</a>
</g>
</g>
<!-- Node4&#45;&gt;Node6 -->
<g id="edge5" class="edge">
<title>Node4&#45;&gt;Node6</title>
<path fill="none" stroke="midnightblue" d="M184.08,-56.32C168.96,-47.82 145.68,-34.73 128.03,-24.8"/>
<polygon fill="midnightblue" stroke="midnightblue" points="129.32,-21.51 118.89,-19.65 125.89,-27.61 129.32,-21.51"/>
</g>
<!-- Node7 -->
<g id="node7" class="node">
<title>Node7</title>
<g id="a_node7"><a xlink:title=" ">
<polygon fill="none" stroke="#bfbfbf" points="148,-0.5 148,-19.5 251,-19.5 251,-0.5 148,-0.5"/>
<text text-anchor="middle" x="199.5" y="-7.5" font-family="Helvetica,sans-Serif" font-size="10.00">boost/smart_ptr.hpp</text>
</a>
</g>
</g>
<!-- Node4&#45;&gt;Node7 -->
<g id="edge6" class="edge">
<title>Node4&#45;&gt;Node7</title>
<path fill="none" stroke="midnightblue" d="M199.5,-56.08C199.5,-49.01 199.5,-38.86 199.5,-29.99"/>
<polygon fill="midnightblue" stroke="midnightblue" points="203,-29.75 199.5,-19.75 196,-29.75 203,-29.75"/>
</g>
<!-- Node8 -->
<g id="node8" class="node">
<title>Node8</title>
<g id="a_node8"><a xlink:title=" ">
<polygon fill="none" stroke="#bfbfbf" points="269,-0.5 269,-19.5 400,-19.5 400,-0.5 269,-0.5"/>
<text text-anchor="middle" x="334.5" y="-7.5" font-family="Helvetica,sans-Serif" font-size="10.00">boost/current_function.hpp</text>
</a>
</g>
</g>
<!-- Node4&#45;&gt;Node8 -->
<g id="edge7" class="edge">
<title>Node4&#45;&gt;Node8</title>
<path fill="none" stroke="midnightblue" d="M220.89,-56.44C243.21,-47.52 278.4,-33.44 303.71,-23.32"/>
<polygon fill="midnightblue" stroke="midnightblue" points="305.22,-26.48 313.21,-19.52 302.62,-19.98 305.22,-26.48"/>
</g>
<!-- Node9 -->
<g id="node9" class="node">
<title>Node9</title>
<g id="a_node9"><a xlink:href="../../de/d17/kratos__config_8h.html" target="_top" xlink:title=" ">
<polygon fill="none" stroke="black" points="418,-0.5 418,-19.5 539,-19.5 539,-0.5 418,-0.5"/>
<text text-anchor="middle" x="478.5" y="-7.5" font-family="Helvetica,sans-Serif" font-size="10.00">includes/kratos_config.h</text>
</a>
</g>
</g>
<!-- Node4&#45;&gt;Node9 -->
<g id="edge8" class="edge">
<title>Node4&#45;&gt;Node9</title>
<path fill="none" stroke="midnightblue" d="M243.71,-56.44C292.79,-46.94 372.01,-31.61 424.66,-21.42"/>
<polygon fill="midnightblue" stroke="midnightblue" points="425.35,-24.85 434.5,-19.52 424.02,-17.98 425.35,-24.85"/>
</g>
<!-- Node10&#45;&gt;Node2 -->
<g id="edge10" class="edge">
<title>Node10&#45;&gt;Node2</title>
<path fill="none" stroke="midnightblue" d="M462.96,-291.49C455.81,-281.88 447.3,-268.46 443.5,-255 439.76,-241.74 440.39,-237.42 443.5,-224 453.76,-179.65 477.89,-176.27 488.5,-132 492.16,-116.72 492.14,-98.84 491.35,-85.7"/>
<polygon fill="midnightblue" stroke="midnightblue" points="494.83,-85.25 490.54,-75.56 487.85,-85.81 494.83,-85.25"/>
</g>
<!-- Node10&#45;&gt;Node3 -->
<g id="edge11" class="edge">
<title>Node10&#45;&gt;Node3</title>
<path fill="none" stroke="midnightblue" d="M526.69,-303.84C562.51,-299.63 607.72,-287.63 631.5,-255 669.7,-202.59 632.75,-119.86 613.52,-84.24"/>
<polygon fill="midnightblue" stroke="midnightblue" points="616.57,-82.53 608.64,-75.51 610.46,-85.95 616.57,-82.53"/>
</g>
<!-- Node10&#45;&gt;Node4 -->
<g id="edge14" class="edge">
<title>Node10&#45;&gt;Node4</title>
<path fill="none" stroke="midnightblue" d="M422.31,-303.17C380.29,-298.83 321.81,-286.95 281.5,-255 226.88,-211.7 207.84,-124.7 201.91,-86.14"/>
<polygon fill="midnightblue" stroke="midnightblue" points="205.32,-85.25 200.47,-75.84 198.39,-86.22 205.32,-85.25"/>
</g>
<!-- Node11 -->
<g id="node11" class="node">
<title>Node11</title>
<g id="a_node11"><a xlink:title=" ">
<polygon fill="none" stroke="#bfbfbf" points="452.5,-230 452.5,-249 496.5,-249 496.5,-230 452.5,-230"/>
<text text-anchor="middle" x="474.5" y="-237" font-family="Helvetica,sans-Serif" font-size="10.00">vector</text>
</a>
</g>
</g>
<!-- Node10&#45;&gt;Node11 -->
<g id="edge12" class="edge">
<title>Node10&#45;&gt;Node11</title>
<path fill="none" stroke="midnightblue" d="M474.5,-291.4C474.5,-282.06 474.5,-269.71 474.5,-259.52"/>
<polygon fill="midnightblue" stroke="midnightblue" points="478,-259.19 474.5,-249.19 471,-259.19 478,-259.19"/>
</g>
<!-- Node12 -->
<g id="node12" class="node">
<title>Node12</title>
<g id="a_node12"><a xlink:title=" ">
<polygon fill="none" stroke="#bfbfbf" points="514.5,-224.5 514.5,-254.5 622.5,-254.5 622.5,-224.5 514.5,-224.5"/>
<text text-anchor="start" x="522.5" y="-242.5" font-family="Helvetica,sans-Serif" font-size="10.00">boost/iterator/indirect</text>
<text text-anchor="middle" x="568.5" y="-231.5" font-family="Helvetica,sans-Serif" font-size="10.00">_iterator.hpp</text>
</a>
</g>
</g>
<!-- Node10&#45;&gt;Node12 -->
<g id="edge13" class="edge">
<title>Node10&#45;&gt;Node12</title>
<path fill="none" stroke="midnightblue" d="M494.9,-291.4C507.95,-282.37 525.1,-270.51 539.55,-260.52"/>
<polygon fill="midnightblue" stroke="midnightblue" points="541.91,-263.14 548.14,-254.58 537.93,-257.39 541.91,-263.14"/>
</g>
<!-- Node13 -->
<g id="node13" class="node">
<title>Node13</title>
<g id="a_node13"><a xlink:href="../../da/d89/variable_8h.html" target="_top" xlink:title=" ">
<polygon fill="none" stroke="black" points="290.5,-230 290.5,-249 396.5,-249 396.5,-230 290.5,-230"/>
<text text-anchor="middle" x="343.5" y="-237" font-family="Helvetica,sans-Serif" font-size="10.00">containers/variable.h</text>
</a>
</g>
</g>
<!-- Node10&#45;&gt;Node13 -->
<g id="edge15" class="edge">
<title>Node10&#45;&gt;Node13</title>
<path fill="none" stroke="midnightblue" d="M446.07,-291.4C423.39,-280.14 391.87,-264.5 369.78,-253.54"/>
<polygon fill="midnightblue" stroke="midnightblue" points="371.16,-250.32 360.64,-249.01 368.05,-256.59 371.16,-250.32"/>
</g>
<!-- Node13&#45;&gt;Node2 -->
<g id="edge16" class="edge">
<title>Node13&#45;&gt;Node2</title>
<path fill="none" stroke="midnightblue" d="M358.93,-229.79C385.71,-213.88 440.76,-177.53 470.5,-132 479.64,-118 484.49,-99.5 486.99,-85.82"/>
<polygon fill="midnightblue" stroke="midnightblue" points="490.5,-86.09 488.59,-75.66 483.58,-85 490.5,-86.09"/>
</g>
<!-- Node13&#45;&gt;Node3 -->
<g id="edge17" class="edge">
<title>Node13&#45;&gt;Node3</title>
<path fill="none" stroke="midnightblue" d="M362.85,-229.99C383.41,-220.66 416.6,-204.77 443.5,-188 497.87,-154.1 556.72,-106.43 585.54,-82.3"/>
<polygon fill="midnightblue" stroke="midnightblue" points="588.09,-84.72 593.48,-75.6 583.58,-79.37 588.09,-84.72"/>
</g>
<!-- Node13&#45;&gt;Node4 -->
<g id="edge18" class="edge">
<title>Node13&#45;&gt;Node4</title>
<path fill="none" stroke="midnightblue" d="M332.22,-229.85C310.7,-212.91 263.2,-173.41 232.5,-132 221.68,-117.4 212.61,-98.73 206.74,-85.14"/>
<polygon fill="midnightblue" stroke="midnightblue" points="209.81,-83.41 202.74,-75.52 203.34,-86.09 209.81,-83.41"/>
</g>
<!-- Node14 -->
<g id="node14" class="node">
<title>Node14</title>
<g id="a_node14"><a xlink:href="../../d3/dc3/variable__data_8h.html" target="_top" xlink:title=" ">
<polygon fill="none" stroke="black" points="302.5,-168.5 302.5,-187.5 384.5,-187.5 384.5,-168.5 302.5,-168.5"/>
<text text-anchor="middle" x="343.5" y="-175.5" font-family="Helvetica,sans-Serif" font-size="10.00">variable_data.h</text>
</a>
</g>
</g>
<!-- Node13&#45;&gt;Node14 -->
<g id="edge19" class="edge">
<title>Node13&#45;&gt;Node14</title>
<path fill="none" stroke="midnightblue" d="M343.5,-229.98C343.5,-221.58 343.5,-208.48 343.5,-197.66"/>
<polygon fill="midnightblue" stroke="midnightblue" points="347,-197.51 343.5,-187.51 340,-197.51 347,-197.51"/>
</g>
<!-- Node14&#45;&gt;Node2 -->
<g id="edge20" class="edge">
<title>Node14&#45;&gt;Node2</title>
<path fill="none" stroke="midnightblue" d="M343.64,-168.2C344.33,-154.42 347.64,-127.72 362.5,-112 387.83,-85.2 430.12,-74.35 458.88,-69.96"/>
<polygon fill="midnightblue" stroke="midnightblue" points="459.37,-73.42 468.81,-68.62 458.43,-66.49 459.37,-73.42"/>
</g>
<!-- Node14&#45;&gt;Node3 -->
<g id="edge21" class="edge">
<title>Node14&#45;&gt;Node3</title>
<path fill="none" stroke="midnightblue" d="M370.6,-168.39C396.54,-159.92 436.64,-146.22 470.5,-132 508.91,-115.87 552,-94.11 578.45,-80.31"/>
<polygon fill="midnightblue" stroke="midnightblue" points="580.17,-83.36 587.4,-75.61 576.91,-77.16 580.17,-83.36"/>
</g>
<!-- Node14&#45;&gt;Node4 -->
<g id="edge23" class="edge">
<title>Node14&#45;&gt;Node4</title>
<path fill="none" stroke="midnightblue" d="M321.8,-168.49C303.36,-160.64 276.72,-147.83 256.5,-132 238.85,-118.19 222.4,-98.38 211.76,-84.27"/>
<polygon fill="midnightblue" stroke="midnightblue" points="214.38,-81.93 205.64,-75.93 208.74,-86.07 214.38,-81.93"/>
</g>
<!-- Node15 -->
<g id="node15" class="node">
<title>Node15</title>
<g id="a_node15"><a xlink:title=" ">
<polygon fill="none" stroke="#bfbfbf" points="266,-112.5 266,-131.5 315,-131.5 315,-112.5 266,-112.5"/>
<text text-anchor="middle" x="290.5" y="-119.5" font-family="Helvetica,sans-Serif" font-size="10.00">cstddef</text>
</a>
</g>
</g>
<!-- Node14&#45;&gt;Node15 -->
<g id="edge22" class="edge">
<title>Node14&#45;&gt;Node15</title>
<path fill="none" stroke="midnightblue" d="M334.75,-168.08C327.03,-160.22 315.6,-148.57 306.28,-139.08"/>
<polygon fill="midnightblue" stroke="midnightblue" points="308.59,-136.44 299.09,-131.75 303.6,-141.34 308.59,-136.44"/>
</g>
<!-- Node16 -->
<g id="node16" class="node">
<title>Node16</title>
<g id="a_node16"><a xlink:href="../../d7/da2/counter_8h.html" target="_top" xlink:title=" ">
<polygon fill="none" stroke="black" points="371.5,-112.5 371.5,-131.5 461.5,-131.5 461.5,-112.5 371.5,-112.5"/>
<text text-anchor="middle" x="416.5" y="-119.5" font-family="Helvetica,sans-Serif" font-size="10.00">utilities/counter.h</text>
</a>
</g>
</g>
<!-- Node14&#45;&gt;Node16 -->
<g id="edge24" class="edge">
<title>Node14&#45;&gt;Node16</title>
<path fill="none" stroke="midnightblue" d="M355.23,-168.32C366.34,-160.11 383.24,-147.6 396.48,-137.81"/>
<polygon fill="midnightblue" stroke="midnightblue" points="398.6,-140.59 404.56,-131.83 394.44,-134.97 398.6,-140.59"/>
</g>
<!-- Node16&#45;&gt;Node2 -->
<g id="edge25" class="edge">
<title>Node16&#45;&gt;Node2</title>
<path fill="none" stroke="midnightblue" d="M428.23,-112.32C439.34,-104.11 456.24,-91.6 469.48,-81.81"/>
<polygon fill="midnightblue" stroke="midnightblue" points="471.6,-84.59 477.56,-75.83 467.44,-78.97 471.6,-84.59"/>
</g>
<!-- Node16&#45;&gt;Node3 -->
<g id="edge26" class="edge">
<title>Node16&#45;&gt;Node3</title>
<path fill="none" stroke="midnightblue" d="M446.13,-112.44C478.75,-103.02 531.24,-87.87 566.52,-77.68"/>
<polygon fill="midnightblue" stroke="midnightblue" points="567.8,-80.95 576.44,-74.82 565.86,-74.23 567.8,-80.95"/>
</g>
<!-- Node16&#45;&gt;Node4 -->
<g id="edge27" class="edge">
<title>Node16&#45;&gt;Node4</title>
<path fill="none" stroke="midnightblue" d="M382.12,-112.44C344.58,-103.1 284.37,-88.12 243.43,-77.93"/>
<polygon fill="midnightblue" stroke="midnightblue" points="244.27,-74.53 233.72,-75.52 242.58,-81.33 244.27,-74.53"/>
</g>
</g>
</svg>
        <g id="navigator" transform="translate(0 0)" fill="#404254">
                <rect fill="#f2f5e9" fill-opacity="0.5" stroke="#606060" stroke-width=".5" x="0" y="0" width="60" height="60"/>
                <use id="zoomplus" xlink:href="#zoomPlus" x="17" y="9" onmousedown="handleZoom(evt,'in')"/>
                <use id="zoomminus" xlink:href="#zoomMin" x="42" y="9" onmousedown="handleZoom(evt,'out')"/>
                <use id="reset" xlink:href="#resetDef" x="30" y="36" onmousedown="handleReset()"/>
                <g id="arrowUp" xlink:href="#dirArrow" transform="translate(30 24)" onmousedown="handlePan(0,-1)">
                  <use xlink:href="#rim" fill="#404040">
                        <set attributeName="fill" to="#808080" begin="arrowUp.mouseover" end="arrowUp.mouseout"/>
                  </use>
                  <path fill="none" stroke="white" stroke-width="1.5" d="M0,-3.0v7 M-2.5,-0.5L0,-3.0L2.5,-0.5"/>
                </g>
                <g id="arrowRight" xlink:href="#dirArrow" transform="rotate(90) translate(36 -43)" onmousedown="handlePan(1,0)">
                  <use xlink:href="#rim" fill="#404040">
                        <set attributeName="fill" to="#808080" begin="arrowRight.mouseover" end="arrowRight.mouseout"/>
                  </use>
                  <path fill="none" stroke="white" stroke-width="1.5" d="M0,-3.0v7 M-2.5,-0.5L0,-3.0L2.5,-0.5"/>
                </g>
                <g id="arrowDown" xlink:href="#dirArrow" transform="rotate(180) translate(-30 -48)" onmousedown="handlePan(0,1)">
                  <use xlink:href="#rim" fill="#404040">
                        <set attributeName="fill" to="#808080" begin="arrowDown.mouseover" end="arrowDown.mouseout"/>
                  </use>
                  <path fill="none" stroke="white" stroke-width="1.5" d="M0,-3.0v7 M-2.5,-0.5L0,-3.0L2.5,-0.5"/>
                </g>
                <g id="arrowLeft" xlink:href="#dirArrow" transform="rotate(270) translate(-36 17)" onmousedown="handlePan(-1,0)">
                  <use xlink:href="#rim" fill="#404040">
                        <set attributeName="fill" to="#808080" begin="arrowLeft.mouseover" end="arrowLeft.mouseout"/>
                  </use>
                  <path fill="none" stroke="white" stroke-width="1.5" d="M0,-3.0v7 M-2.5,-0.5L0,-3.0L2.5,-0.5"/>
                </g>
        </g>
        <svg viewBox="0 0 15 15" width="100%" height="30px" preserveAspectRatio="xMaxYMin meet">
         <g id="arrow_out" transform="scale(0.3 0.3)">
          <a xlink:href="global__variables_8h__incl_org.svg" target="_base">
           <rect id="button" ry="5" rx="5" y="6" x="6" height="38" width="38"
                fill="#f2f5e9" fill-opacity="0.5" stroke="#606060" stroke-width="1.0"/>
           <path id="arrow"
             d="M 11.500037,31.436501 C 11.940474,20.09759 22.043105,11.32322 32.158766,21.979434 L 37.068811,17.246167 C 37.068811,17.246167 37.088388,32 37.088388,32 L 22.160133,31.978069 C 22.160133,31.978069 26.997745,27.140456 26.997745,27.140456 C 18.528582,18.264221 13.291696,25.230495 11.500037,31.436501 z"
             style="fill:#404040;"/>
          </a>
         </g>
        </svg>
</svg>
