<?xml version="1.0" encoding="UTF-8" standalone="no"?>
<!DOCTYPE svg PUBLIC "-//W3C//DTD SVG 1.1//EN"
 "http://www.w3.org/Graphics/SVG/1.1/DTD/svg11.dtd">
<!-- Generated by graphviz version 2.48.0 (20210719.0153)
 -->
<!-- Title: /github/workspace/kratos/geometries/triangle_3d_3.h Pages: 1 -->
<svg width="4587pt" height="373pt"
 viewBox="0.00 0.00 4587.00 373.00" xmlns="http://www.w3.org/2000/svg" xmlns:xlink="http://www.w3.org/1999/xlink">
<g id="graph0" class="graph" transform="scale(1 1) rotate(0) translate(4 369)">
<title>/github/workspace/kratos/geometries/triangle_3d_3.h</title>
<!-- Node1 -->
<g id="node1" class="node">
<title>Node1</title>
<g id="a_node1"><a xlink:title=" ">
<polygon fill="#bfbfbf" stroke="black" points="1178.5,-334.5 1178.5,-364.5 1314.5,-364.5 1314.5,-334.5 1178.5,-334.5"/>
<text text-anchor="start" x="1186.5" y="-352.5" font-family="Helvetica,sans-Serif" font-size="10.00">/github/workspace/kratos</text>
<text text-anchor="middle" x="1246.5" y="-341.5" font-family="Helvetica,sans-Serif" font-size="10.00">/geometries/triangle_3d_3.h</text>
</a>
</g>
</g>
<!-- Node2 -->
<g id="node2" class="node">
<title>Node2</title>
<g id="a_node2"><a xlink:href="../../da/dad/prism__3d__6_8h.html" target="_top" xlink:title=" ">
<polygon fill="none" stroke="black" points="498.5,-267.5 498.5,-297.5 626.5,-297.5 626.5,-267.5 498.5,-267.5"/>
<text text-anchor="start" x="506.5" y="-285.5" font-family="Helvetica,sans-Serif" font-size="10.00">/github/workspace/kratos</text>
<text text-anchor="middle" x="562.5" y="-274.5" font-family="Helvetica,sans-Serif" font-size="10.00">/geometries/prism_3d_6.h</text>
</a>
</g>
</g>
<!-- Node1&#45;&gt;Node2 -->
<g id="edge1" class="edge">
<title>Node1&#45;&gt;Node2</title>
<path fill="none" stroke="midnightblue" d="M1168.45,-341.08C1032.05,-328.12 752.87,-301.59 626.81,-289.61"/>
<polygon fill="midnightblue" stroke="midnightblue" points="1168.13,-344.57 1178.41,-342.03 1168.79,-337.6 1168.13,-344.57"/>
</g>
<!-- Node7 -->
<g id="node7" class="node">
<title>Node7</title>
<g id="a_node7"><a xlink:href="../../dc/d93/structural__application_8cpp.html" target="_top" xlink:title=" ">
<polygon fill="none" stroke="black" points="0,-184 0,-225 155,-225 155,-184 0,-184"/>
<text text-anchor="start" x="8" y="-213" font-family="Helvetica,sans-Serif" font-size="10.00">/github/workspace/applications</text>
<text text-anchor="start" x="8" y="-202" font-family="Helvetica,sans-Serif" font-size="10.00">/structural_application/structural</text>
<text text-anchor="middle" x="77.5" y="-191" font-family="Helvetica,sans-Serif" font-size="10.00">_application.cpp</text>
</a>
</g>
</g>
<!-- Node1&#45;&gt;Node7 -->
<g id="edge51" class="edge">
<title>Node1&#45;&gt;Node7</title>
<path fill="none" stroke="midnightblue" d="M1168.29,-346.79C1030.54,-342.99 735.9,-331.38 489.5,-298 342.92,-278.14 306.98,-266.95 163.5,-231 156.25,-229.18 148.69,-227.15 141.2,-225.05"/>
<polygon fill="midnightblue" stroke="midnightblue" points="1168.24,-350.29 1178.33,-347.06 1168.43,-343.29 1168.24,-350.29"/>
</g>
<!-- Node8 -->
<g id="node8" class="node">
<title>Node8</title>
<g id="a_node8"><a xlink:href="../../da/d60/tetrahedra__3d__4_8h.html" target="_top" xlink:title=" ">
<polygon fill="none" stroke="black" points="1985.5,-267.5 1985.5,-297.5 2133.5,-297.5 2133.5,-267.5 1985.5,-267.5"/>
<text text-anchor="start" x="1993.5" y="-285.5" font-family="Helvetica,sans-Serif" font-size="10.00">/github/workspace/kratos</text>
<text text-anchor="middle" x="2059.5" y="-274.5" font-family="Helvetica,sans-Serif" font-size="10.00">/geometries/tetrahedra_3d_4.h</text>
</a>
</g>
</g>
<!-- Node1&#45;&gt;Node8 -->
<g id="edge7" class="edge">
<title>Node1&#45;&gt;Node8</title>
<path fill="none" stroke="midnightblue" d="M1324.81,-342.24C1481.62,-329.7 1832.22,-301.67 1985.45,-289.42"/>
<polygon fill="midnightblue" stroke="midnightblue" points="1324.46,-338.76 1314.77,-343.04 1325.01,-345.73 1324.46,-338.76"/>
</g>
<!-- Node9 -->
<g id="node9" class="node">
<title>Node9</title>
<g id="a_node9"><a xlink:href="../../dc/dd2/ale__application_8cpp.html" target="_top" xlink:title=" ">
<polygon fill="none" stroke="black" points="969.5,-189.5 969.5,-219.5 1139.5,-219.5 1139.5,-189.5 969.5,-189.5"/>
<text text-anchor="start" x="977.5" y="-207.5" font-family="Helvetica,sans-Serif" font-size="10.00">/github/workspace/applications</text>
<text text-anchor="middle" x="1054.5" y="-196.5" font-family="Helvetica,sans-Serif" font-size="10.00">/ALEapplication/ale_application.cpp</text>
</a>
</g>
</g>
<!-- Node1&#45;&gt;Node9 -->
<g id="edge48" class="edge">
<title>Node1&#45;&gt;Node9</title>
<path fill="none" stroke="midnightblue" d="M1219.01,-328.03C1179.51,-298.6 1107.69,-245.12 1073.53,-219.68"/>
<polygon fill="midnightblue" stroke="midnightblue" points="1217.28,-331.1 1227.39,-334.27 1221.46,-325.49 1217.28,-331.1"/>
</g>
<!-- Node10 -->
<g id="node10" class="node">
<title>Node10</title>
<g id="a_node10"><a xlink:href="../../db/d5a/convection__diffusion__application_8cpp.html" target="_top" xlink:title=" ">
<polygon fill="none" stroke="black" points="1157.5,-184 1157.5,-225 1335.5,-225 1335.5,-184 1157.5,-184"/>
<text text-anchor="start" x="1165.5" y="-213" font-family="Helvetica,sans-Serif" font-size="10.00">/github/workspace/applications</text>
<text text-anchor="start" x="1165.5" y="-202" font-family="Helvetica,sans-Serif" font-size="10.00">/convection_diffusion_application</text>
<text text-anchor="middle" x="1246.5" y="-191" font-family="Helvetica,sans-Serif" font-size="10.00">/convection_diffusion_application.cpp</text>
</a>
</g>
</g>
<!-- Node1&#45;&gt;Node10 -->
<g id="edge49" class="edge">
<title>Node1&#45;&gt;Node10</title>
<path fill="none" stroke="midnightblue" d="M1246.5,-324.14C1246.5,-296.18 1246.5,-250.89 1246.5,-225.11"/>
<polygon fill="midnightblue" stroke="midnightblue" points="1243,-324.27 1246.5,-334.27 1250,-324.27 1243,-324.27"/>
</g>
<!-- Node19 -->
<g id="node19" class="node">
<title>Node19</title>
<g id="a_node19"><a xlink:href="../../d4/d8a/tetgen__pfem__refine_8h.html" target="_top" xlink:title=" ">
<polygon fill="none" stroke="black" points="4232,-184 4232,-225 4383,-225 4383,-184 4232,-184"/>
<text text-anchor="start" x="4240" y="-213" font-family="Helvetica,sans-Serif" font-size="10.00">/github/workspace/applications</text>
<text text-anchor="start" x="4240" y="-202" font-family="Helvetica,sans-Serif" font-size="10.00">/MeshingApplication/external</text>
<text text-anchor="middle" x="4307.5" y="-191" font-family="Helvetica,sans-Serif" font-size="10.00">_includes/tetgen_pfem_refine.h</text>
</a>
</g>
</g>
<!-- Node1&#45;&gt;Node19 -->
<g id="edge50" class="edge">
<title>Node1&#45;&gt;Node19</title>
<path fill="none" stroke="midnightblue" d="M1324.86,-346.85C1529.15,-342.15 2067.42,-327.14 2142.5,-298 2162.82,-290.11 2160.03,-274.49 2180.5,-267 2287.1,-227.97 4111.36,-248.66 4223.5,-231 4232.38,-229.6 4241.63,-227.49 4250.61,-225.08"/>
<polygon fill="midnightblue" stroke="midnightblue" points="1324.72,-343.35 1314.81,-347.08 1324.88,-350.35 1324.72,-343.35"/>
</g>
<!-- Node38 -->
<g id="node38" class="node">
<title>Node38</title>
<g id="a_node38"><a xlink:href="../../d5/df3/variables_8cpp.html" target="_top" xlink:title=" ">
<polygon fill="none" stroke="black" points="2189.5,-267.5 2189.5,-297.5 2315.5,-297.5 2315.5,-267.5 2189.5,-267.5"/>
<text text-anchor="start" x="2197.5" y="-285.5" font-family="Helvetica,sans-Serif" font-size="10.00">/github/workspace/kratos</text>
<text text-anchor="middle" x="2252.5" y="-274.5" font-family="Helvetica,sans-Serif" font-size="10.00">/sources/variables.cpp</text>
</a>
</g>
</g>
<!-- Node1&#45;&gt;Node38 -->
<g id="edge47" class="edge">
<title>Node1&#45;&gt;Node38</title>
<path fill="none" stroke="midnightblue" d="M1324.91,-347.72C1485.22,-345.36 1861.87,-335.89 2175.5,-298 2179.96,-297.46 2184.54,-296.82 2189.15,-296.11"/>
<polygon fill="midnightblue" stroke="midnightblue" points="1324.61,-344.22 1314.66,-347.87 1324.71,-351.22 1324.61,-344.22"/>
</g>
<!-- Node3 -->
<g id="node3" class="node">
<title>Node3</title>
<g id="a_node3"><a xlink:href="../../db/dc2/unsaturated__soils__element__2phase_8cpp.html" target="_top" xlink:title=" ">
<polygon fill="none" stroke="black" points="571,-178.5 571,-230.5 752,-230.5 752,-178.5 571,-178.5"/>
<text text-anchor="start" x="579" y="-218.5" font-family="Helvetica,sans-Serif" font-size="10.00">/github/workspace/applications</text>
<text text-anchor="start" x="579" y="-207.5" font-family="Helvetica,sans-Serif" font-size="10.00">/structural_application/custom</text>
<text text-anchor="start" x="579" y="-196.5" font-family="Helvetica,sans-Serif" font-size="10.00">_elements/unsaturated_soils_element</text>
<text text-anchor="middle" x="661.5" y="-185.5" font-family="Helvetica,sans-Serif" font-size="10.00">_2phase.cpp</text>
</a>
</g>
</g>
<!-- Node2&#45;&gt;Node3 -->
<g id="edge2" class="edge">
<title>Node2&#45;&gt;Node3</title>
<path fill="none" stroke="midnightblue" d="M589.17,-261.03C601.41,-251.63 616.04,-240.4 628.93,-230.5"/>
<polygon fill="midnightblue" stroke="midnightblue" points="586.92,-258.34 581.12,-267.2 591.18,-263.89 586.92,-258.34"/>
</g>
<!-- Node4 -->
<g id="node4" class="node">
<title>Node4</title>
<g id="a_node4"><a xlink:href="../../d8/da8/unsaturated__soils__element__2phase__small__strain_8cpp.html" target="_top" xlink:title=" ">
<polygon fill="none" stroke="black" points="770,-178.5 770,-230.5 951,-230.5 951,-178.5 770,-178.5"/>
<text text-anchor="start" x="778" y="-218.5" font-family="Helvetica,sans-Serif" font-size="10.00">/github/workspace/applications</text>
<text text-anchor="start" x="778" y="-207.5" font-family="Helvetica,sans-Serif" font-size="10.00">/structural_application/custom</text>
<text text-anchor="start" x="778" y="-196.5" font-family="Helvetica,sans-Serif" font-size="10.00">_elements/unsaturated_soils_element</text>
<text text-anchor="middle" x="860.5" y="-185.5" font-family="Helvetica,sans-Serif" font-size="10.00">_2phase_small_strain.cpp</text>
</a>
</g>
</g>
<!-- Node2&#45;&gt;Node4 -->
<g id="edge3" class="edge">
<title>Node2&#45;&gt;Node4</title>
<path fill="none" stroke="midnightblue" d="M627.27,-264.98C668.98,-254.34 723.81,-240.36 769.82,-228.63"/>
<polygon fill="midnightblue" stroke="midnightblue" points="626.33,-261.61 617.51,-267.47 628.06,-268.39 626.33,-261.61"/>
</g>
<!-- Node5 -->
<g id="node5" class="node">
<title>Node5</title>
<g id="a_node5"><a xlink:href="../../dc/d7c/unsaturated__soils__element__3phase_8cpp.html" target="_top" xlink:title=" ">
<polygon fill="none" stroke="black" points="173,-178.5 173,-230.5 354,-230.5 354,-178.5 173,-178.5"/>
<text text-anchor="start" x="181" y="-218.5" font-family="Helvetica,sans-Serif" font-size="10.00">/github/workspace/applications</text>
<text text-anchor="start" x="181" y="-207.5" font-family="Helvetica,sans-Serif" font-size="10.00">/structural_application/custom</text>
<text text-anchor="start" x="181" y="-196.5" font-family="Helvetica,sans-Serif" font-size="10.00">_elements/unsaturated_soils_element</text>
<text text-anchor="middle" x="263.5" y="-185.5" font-family="Helvetica,sans-Serif" font-size="10.00">_3phase.cpp</text>
</a>
</g>
</g>
<!-- Node2&#45;&gt;Node5 -->
<g id="edge4" class="edge">
<title>Node2&#45;&gt;Node5</title>
<path fill="none" stroke="midnightblue" d="M496.28,-264.86C457.32,-255.05 407.1,-242.37 362.5,-231 359.75,-230.3 356.95,-229.58 354.13,-228.86"/>
<polygon fill="midnightblue" stroke="midnightblue" points="495.89,-268.38 506.45,-267.42 497.6,-261.59 495.89,-268.38"/>
</g>
<!-- Node6 -->
<g id="node6" class="node">
<title>Node6</title>
<g id="a_node6"><a xlink:href="../../dc/dc6/unsaturated__soils__element__3phase__small__strain_8cpp.html" target="_top" xlink:title=" ">
<polygon fill="none" stroke="black" points="372,-178.5 372,-230.5 553,-230.5 553,-178.5 372,-178.5"/>
<text text-anchor="start" x="380" y="-218.5" font-family="Helvetica,sans-Serif" font-size="10.00">/github/workspace/applications</text>
<text text-anchor="start" x="380" y="-207.5" font-family="Helvetica,sans-Serif" font-size="10.00">/structural_application/custom</text>
<text text-anchor="start" x="380" y="-196.5" font-family="Helvetica,sans-Serif" font-size="10.00">_elements/unsaturated_soils_element</text>
<text text-anchor="middle" x="462.5" y="-185.5" font-family="Helvetica,sans-Serif" font-size="10.00">_3phase_small_strain.cpp</text>
</a>
</g>
</g>
<!-- Node2&#45;&gt;Node6 -->
<g id="edge5" class="edge">
<title>Node2&#45;&gt;Node6</title>
<path fill="none" stroke="midnightblue" d="M535.57,-261.03C523.2,-251.63 508.42,-240.4 495.4,-230.5"/>
<polygon fill="midnightblue" stroke="midnightblue" points="533.61,-263.94 543.69,-267.2 537.85,-258.37 533.61,-263.94"/>
</g>
<!-- Node2&#45;&gt;Node7 -->
<g id="edge6" class="edge">
<title>Node2&#45;&gt;Node7</title>
<path fill="none" stroke="midnightblue" d="M488.34,-275.74C407.77,-268.64 275.55,-254.54 163.5,-231 155.58,-229.34 147.32,-227.29 139.2,-225.1"/>
<polygon fill="midnightblue" stroke="midnightblue" points="488.13,-279.24 498.39,-276.61 488.73,-272.26 488.13,-279.24"/>
</g>
<!-- Node8&#45;&gt;Node3 -->
<g id="edge29" class="edge">
<title>Node8&#45;&gt;Node3</title>
<path fill="none" stroke="midnightblue" d="M1975.3,-280.57C1726.3,-277.45 996.17,-265.53 760.5,-231 757.78,-230.6 755.02,-230.16 752.25,-229.67"/>
<polygon fill="midnightblue" stroke="midnightblue" points="1975.33,-284.07 1985.37,-280.69 1975.42,-277.07 1975.33,-284.07"/>
</g>
<!-- Node8&#45;&gt;Node4 -->
<g id="edge30" class="edge">
<title>Node8&#45;&gt;Node4</title>
<path fill="none" stroke="midnightblue" d="M1975.1,-279.85C1752.99,-275.14 1155.88,-260.09 960.5,-231 957.4,-230.54 954.25,-230.02 951.09,-229.46"/>
<polygon fill="midnightblue" stroke="midnightblue" points="1975.32,-283.35 1985.4,-280.06 1975.47,-276.35 1975.32,-283.35"/>
</g>
<!-- Node8&#45;&gt;Node5 -->
<g id="edge31" class="edge">
<title>Node8&#45;&gt;Node5</title>
<path fill="none" stroke="midnightblue" d="M1975.09,-281.47C1677.64,-280.97 679.03,-275.9 362.5,-231 359.78,-230.61 357.02,-230.18 354.24,-229.71"/>
<polygon fill="midnightblue" stroke="midnightblue" points="1975.37,-284.97 1985.38,-281.48 1975.38,-277.97 1975.37,-284.97"/>
</g>
<!-- Node8&#45;&gt;Node6 -->
<g id="edge32" class="edge">
<title>Node8&#45;&gt;Node6</title>
<path fill="none" stroke="midnightblue" d="M1974.97,-281.08C1700.69,-279.32 837.41,-270.7 561.5,-231 558.78,-230.61 556.02,-230.17 553.25,-229.69"/>
<polygon fill="midnightblue" stroke="midnightblue" points="1975.23,-284.58 1985.25,-281.14 1975.27,-277.58 1975.23,-284.58"/>
</g>
<!-- Node8&#45;&gt;Node7 -->
<g id="edge42" class="edge">
<title>Node8&#45;&gt;Node7</title>
<path fill="none" stroke="midnightblue" d="M1975.34,-280.55C1631.56,-276.51 343.59,-259.59 163.5,-231 154.43,-229.56 144.97,-227.43 135.78,-225"/>
<polygon fill="midnightblue" stroke="midnightblue" points="1975.43,-284.06 1985.47,-280.67 1975.51,-277.06 1975.43,-284.06"/>
</g>
<!-- Node8&#45;&gt;Node9 -->
<g id="edge8" class="edge">
<title>Node8&#45;&gt;Node9</title>
<path fill="none" stroke="midnightblue" d="M1975.05,-279.08C1780.65,-273.15 1306.16,-256.47 1148.5,-231 1132.14,-228.36 1114.53,-224 1099.03,-219.63"/>
<polygon fill="midnightblue" stroke="midnightblue" points="1975.11,-282.58 1985.21,-279.39 1975.32,-275.59 1975.11,-282.58"/>
</g>
<!-- Node8&#45;&gt;Node10 -->
<g id="edge9" class="edge">
<title>Node8&#45;&gt;Node10</title>
<path fill="none" stroke="midnightblue" d="M1975.17,-280.55C1840.84,-277.93 1570.4,-268.04 1344.5,-231 1334.87,-229.42 1324.81,-227.33 1314.96,-225.02"/>
<polygon fill="midnightblue" stroke="midnightblue" points="1975.32,-284.06 1985.39,-280.74 1975.45,-277.06 1975.32,-284.06"/>
</g>
<!-- Node11 -->
<g id="node11" class="node">
<title>Node11</title>
<g id="a_node11"><a xlink:href="../../d7/d10/face__heat__utilities_8h.html" target="_top" xlink:title=" ">
<polygon fill="none" stroke="black" points="3347,-184 3347,-225 3524,-225 3524,-184 3347,-184"/>
<text text-anchor="start" x="3355" y="-213" font-family="Helvetica,sans-Serif" font-size="10.00">/github/workspace/applications</text>
<text text-anchor="start" x="3355" y="-202" font-family="Helvetica,sans-Serif" font-size="10.00">/convection_diffusion_application</text>
<text text-anchor="middle" x="3435.5" y="-191" font-family="Helvetica,sans-Serif" font-size="10.00">/custom_utilities/face_heat_utilities.h</text>
</a>
</g>
</g>
<!-- Node8&#45;&gt;Node11 -->
<g id="edge10" class="edge">
<title>Node8&#45;&gt;Node11</title>
<path fill="none" stroke="midnightblue" d="M2144.13,-267.34C2145.26,-267.22 2146.38,-267.11 2147.5,-267 2674.16,-215.87 2813.72,-306.09 3337.5,-231 3347.68,-229.54 3358.33,-227.42 3368.69,-225.01"/>
<polygon fill="midnightblue" stroke="midnightblue" points="2143.35,-263.91 2133.83,-268.54 2144.16,-270.86 2143.35,-263.91"/>
</g>
<!-- Node13 -->
<g id="node13" class="node">
<title>Node13</title>
<g id="a_node13"><a xlink:href="../../d5/de1/incompressible__fluid__application_8cpp.html" target="_top" xlink:title=" ">
<polygon fill="none" stroke="black" points="2953,-184 2953,-225 3130,-225 3130,-184 2953,-184"/>
<text text-anchor="start" x="2961" y="-213" font-family="Helvetica,sans-Serif" font-size="10.00">/github/workspace/applications</text>
<text text-anchor="start" x="2961" y="-202" font-family="Helvetica,sans-Serif" font-size="10.00">/incompressible_fluid_application</text>
<text text-anchor="middle" x="3041.5" y="-191" font-family="Helvetica,sans-Serif" font-size="10.00">/incompressible_fluid_application.cpp</text>
</a>
</g>
</g>
<!-- Node8&#45;&gt;Node13 -->
<g id="edge12" class="edge">
<title>Node8&#45;&gt;Node13</title>
<path fill="none" stroke="midnightblue" d="M2144.13,-267.37C2145.26,-267.24 2146.38,-267.12 2147.5,-267 2500.16,-230.11 2593.96,-284.38 2944.5,-231 2954.4,-229.49 2964.74,-227.38 2974.84,-225"/>
<polygon fill="midnightblue" stroke="midnightblue" points="2143.34,-263.94 2133.83,-268.62 2144.18,-270.88 2143.34,-263.94"/>
</g>
<!-- Node14 -->
<g id="node14" class="node">
<title>Node14</title>
<g id="a_node14"><a xlink:href="../../d8/d45/_generate_model_part_utilities_8h.html" target="_top" xlink:title=" ">
<polygon fill="none" stroke="black" points="3148.5,-184 3148.5,-225 3328.5,-225 3328.5,-184 3148.5,-184"/>
<text text-anchor="start" x="3156.5" y="-213" font-family="Helvetica,sans-Serif" font-size="10.00">/github/workspace/applications</text>
<text text-anchor="start" x="3156.5" y="-202" font-family="Helvetica,sans-Serif" font-size="10.00">/MeshingApplication/custom</text>
<text text-anchor="middle" x="3238.5" y="-191" font-family="Helvetica,sans-Serif" font-size="10.00">_utilities/GenerateModelPartUtilities.h</text>
</a>
</g>
</g>
<!-- Node8&#45;&gt;Node14 -->
<g id="edge13" class="edge">
<title>Node8&#45;&gt;Node14</title>
<path fill="none" stroke="midnightblue" d="M2144.13,-267.35C2145.26,-267.23 2146.38,-267.11 2147.5,-267 2586.48,-223.05 2702.9,-294.39 3139.5,-231 3149.69,-229.52 3160.34,-227.4 3170.72,-225.01"/>
<polygon fill="midnightblue" stroke="midnightblue" points="2143.35,-263.92 2133.83,-268.57 2144.17,-270.87 2143.35,-263.92"/>
</g>
<!-- Node16 -->
<g id="node16" class="node">
<title>Node16</title>
<g id="a_node16"><a xlink:href="../../d1/d67/tetgen__mesh__suite__optimized_8h.html" target="_top" xlink:title=" ">
<polygon fill="none" stroke="black" points="4063,-178.5 4063,-230.5 4214,-230.5 4214,-178.5 4063,-178.5"/>
<text text-anchor="start" x="4071" y="-218.5" font-family="Helvetica,sans-Serif" font-size="10.00">/github/workspace/applications</text>
<text text-anchor="start" x="4071" y="-207.5" font-family="Helvetica,sans-Serif" font-size="10.00">/MeshingApplication/external</text>
<text text-anchor="start" x="4071" y="-196.5" font-family="Helvetica,sans-Serif" font-size="10.00">_includes/tetgen_mesh_suite</text>
<text text-anchor="middle" x="4138.5" y="-185.5" font-family="Helvetica,sans-Serif" font-size="10.00">_optimized.h</text>
</a>
</g>
</g>
<!-- Node8&#45;&gt;Node16 -->
<g id="edge15" class="edge">
<title>Node8&#45;&gt;Node16</title>
<path fill="none" stroke="midnightblue" d="M2144.13,-267.32C2145.26,-267.21 2146.38,-267.1 2147.5,-267 2569.37,-228.46 3634.96,-296.47 4053.5,-231 4056.54,-230.52 4059.63,-229.97 4062.74,-229.34"/>
<polygon fill="midnightblue" stroke="midnightblue" points="2143.37,-263.89 2133.82,-268.48 2144.15,-270.84 2143.37,-263.89"/>
</g>
<!-- Node18 -->
<g id="node18" class="node">
<title>Node18</title>
<g id="a_node18"><a xlink:href="../../da/dcb/tetgen__mesh__suite__refine_8h.html" target="_top" xlink:title=" ">
<polygon fill="none" stroke="black" points="3542,-178.5 3542,-230.5 3693,-230.5 3693,-178.5 3542,-178.5"/>
<text text-anchor="start" x="3550" y="-218.5" font-family="Helvetica,sans-Serif" font-size="10.00">/github/workspace/applications</text>
<text text-anchor="start" x="3550" y="-207.5" font-family="Helvetica,sans-Serif" font-size="10.00">/MeshingApplication/external</text>
<text text-anchor="start" x="3550" y="-196.5" font-family="Helvetica,sans-Serif" font-size="10.00">_includes/tetgen_mesh_suite</text>
<text text-anchor="middle" x="3617.5" y="-185.5" font-family="Helvetica,sans-Serif" font-size="10.00">_refine.h</text>
</a>
</g>
</g>
<!-- Node8&#45;&gt;Node18 -->
<g id="edge17" class="edge">
<title>Node8&#45;&gt;Node18</title>
<path fill="none" stroke="midnightblue" d="M2144.13,-267.33C2145.26,-267.22 2146.38,-267.11 2147.5,-267 2454.23,-237.89 3229.35,-280.19 3533.5,-231 3536.21,-230.56 3538.95,-230.06 3541.71,-229.5"/>
<polygon fill="midnightblue" stroke="midnightblue" points="2143.36,-263.9 2133.82,-268.52 2144.16,-270.85 2143.36,-263.9"/>
</g>
<!-- Node8&#45;&gt;Node19 -->
<g id="edge18" class="edge">
<title>Node8&#45;&gt;Node19</title>
<path fill="none" stroke="midnightblue" d="M2144.13,-267.32C2145.26,-267.21 2146.38,-267.1 2147.5,-267 2607.02,-225.38 3767.7,-302.7 4223.5,-231 4232.38,-229.6 4241.63,-227.49 4250.61,-225.08"/>
<polygon fill="midnightblue" stroke="midnightblue" points="2143.37,-263.88 2133.82,-268.47 2144.15,-270.84 2143.37,-263.88"/>
</g>
<!-- Node22 -->
<g id="node22" class="node">
<title>Node22</title>
<g id="a_node22"><a xlink:href="../../d8/d26/meshing__application_8cpp.html" target="_top" xlink:title=" ">
<polygon fill="none" stroke="black" points="3711,-184 3711,-225 3862,-225 3862,-184 3711,-184"/>
<text text-anchor="start" x="3719" y="-213" font-family="Helvetica,sans-Serif" font-size="10.00">/github/workspace/applications</text>
<text text-anchor="start" x="3719" y="-202" font-family="Helvetica,sans-Serif" font-size="10.00">/MeshingApplication/meshing</text>
<text text-anchor="middle" x="3786.5" y="-191" font-family="Helvetica,sans-Serif" font-size="10.00">_application.cpp</text>
</a>
</g>
</g>
<!-- Node8&#45;&gt;Node22 -->
<g id="edge22" class="edge">
<title>Node8&#45;&gt;Node22</title>
<path fill="none" stroke="midnightblue" d="M2144.13,-267.33C2145.26,-267.21 2146.38,-267.1 2147.5,-267 2491.65,-234.82 3361.21,-285.71 3702.5,-231 3711.38,-229.58 3720.63,-227.46 3729.6,-225.03"/>
<polygon fill="midnightblue" stroke="midnightblue" points="2143.36,-263.89 2133.82,-268.5 2144.15,-270.85 2143.36,-263.89"/>
</g>
<!-- Node23 -->
<g id="node23" class="node">
<title>Node23</title>
<g id="a_node23"><a xlink:href="../../dc/dad/lagrangian__fluid__utilities_8h.html" target="_top" xlink:title=" ">
<polygon fill="none" stroke="black" points="3880.5,-184 3880.5,-225 4044.5,-225 4044.5,-184 3880.5,-184"/>
<text text-anchor="start" x="3888.5" y="-213" font-family="Helvetica,sans-Serif" font-size="10.00">/github/workspace/applications</text>
<text text-anchor="start" x="3888.5" y="-202" font-family="Helvetica,sans-Serif" font-size="10.00">/PFEMapplication/custom_utilities</text>
<text text-anchor="middle" x="3962.5" y="-191" font-family="Helvetica,sans-Serif" font-size="10.00">/lagrangian_fluid_utilities.h</text>
</a>
</g>
</g>
<!-- Node8&#45;&gt;Node23 -->
<g id="edge23" class="edge">
<title>Node8&#45;&gt;Node23</title>
<path fill="none" stroke="midnightblue" d="M2144.13,-267.33C2145.26,-267.21 2146.38,-267.1 2147.5,-267 2529.07,-231.76 3492.44,-287.14 3871.5,-231 3881.08,-229.58 3891.07,-227.46 3900.78,-225.04"/>
<polygon fill="midnightblue" stroke="midnightblue" points="2143.37,-263.89 2133.82,-268.49 2144.15,-270.85 2143.37,-263.89"/>
</g>
<!-- Node24 -->
<g id="node24" class="node">
<title>Node24</title>
<g id="a_node24"><a xlink:href="../../de/da5/lagrangian__utilities_8h.html" target="_top" xlink:title=" ">
<polygon fill="none" stroke="black" points="1353.5,-184 1353.5,-225 1517.5,-225 1517.5,-184 1353.5,-184"/>
<text text-anchor="start" x="1361.5" y="-213" font-family="Helvetica,sans-Serif" font-size="10.00">/github/workspace/applications</text>
<text text-anchor="start" x="1361.5" y="-202" font-family="Helvetica,sans-Serif" font-size="10.00">/PFEMapplication/custom_utilities</text>
<text text-anchor="middle" x="1435.5" y="-191" font-family="Helvetica,sans-Serif" font-size="10.00">/lagrangian_utilities.h</text>
</a>
</g>
</g>
<!-- Node8&#45;&gt;Node24 -->
<g id="edge24" class="edge">
<title>Node8&#45;&gt;Node24</title>
<path fill="none" stroke="midnightblue" d="M1974.92,-278.15C1869.25,-272.91 1683.26,-260.15 1526.5,-231 1517.79,-229.38 1508.7,-227.31 1499.79,-225.05"/>
<polygon fill="midnightblue" stroke="midnightblue" points="1975.04,-281.66 1985.2,-278.65 1975.38,-274.67 1975.04,-281.66"/>
</g>
<!-- Node26 -->
<g id="node26" class="node">
<title>Node26</title>
<g id="a_node26"><a xlink:href="../../d0/d7e/_p_f_e_mapplication_2custom__utilities_2nist__utilities_8h.html" target="_top" xlink:title=" ">
<polygon fill="none" stroke="black" points="1535.5,-184 1535.5,-225 1699.5,-225 1699.5,-184 1535.5,-184"/>
<text text-anchor="start" x="1543.5" y="-213" font-family="Helvetica,sans-Serif" font-size="10.00">/github/workspace/applications</text>
<text text-anchor="start" x="1543.5" y="-202" font-family="Helvetica,sans-Serif" font-size="10.00">/PFEMapplication/custom_utilities</text>
<text text-anchor="middle" x="1617.5" y="-191" font-family="Helvetica,sans-Serif" font-size="10.00">/nist_utilities.h</text>
</a>
</g>
</g>
<!-- Node8&#45;&gt;Node26 -->
<g id="edge26" class="edge">
<title>Node8&#45;&gt;Node26</title>
<path fill="none" stroke="midnightblue" d="M1975.1,-272.49C1903.66,-264.11 1798.78,-250.06 1708.5,-231 1700.31,-229.27 1691.78,-227.22 1683.35,-225.04"/>
<polygon fill="midnightblue" stroke="midnightblue" points="1975.06,-276 1985.39,-273.68 1975.86,-269.05 1975.06,-276"/>
</g>
<!-- Node27 -->
<g id="node27" class="node">
<title>Node27</title>
<g id="a_node27"><a xlink:href="../../d4/dd5/pfem__utilities_8h.html" target="_top" xlink:title=" ">
<polygon fill="none" stroke="black" points="1717.5,-184 1717.5,-225 1881.5,-225 1881.5,-184 1717.5,-184"/>
<text text-anchor="start" x="1725.5" y="-213" font-family="Helvetica,sans-Serif" font-size="10.00">/github/workspace/applications</text>
<text text-anchor="start" x="1725.5" y="-202" font-family="Helvetica,sans-Serif" font-size="10.00">/PFEMapplication/custom_utilities</text>
<text text-anchor="middle" x="1799.5" y="-191" font-family="Helvetica,sans-Serif" font-size="10.00">/pfem_utilities.h</text>
</a>
</g>
</g>
<!-- Node8&#45;&gt;Node27 -->
<g id="edge27" class="edge">
<title>Node8&#45;&gt;Node27</title>
<path fill="none" stroke="midnightblue" d="M2001.88,-264.66C1961.81,-252.94 1908.26,-237.29 1866.31,-225.03"/>
<polygon fill="midnightblue" stroke="midnightblue" points="2000.93,-268.03 2011.51,-267.47 2002.89,-261.31 2000.93,-268.03"/>
</g>
<!-- Node28 -->
<g id="node28" class="node">
<title>Node28</title>
<g id="a_node28"><a xlink:href="../../d5/df9/parallel__variable__transfer__utility_8h.html" target="_top" xlink:title=" ">
<polygon fill="none" stroke="black" points="1900,-178.5 1900,-230.5 2051,-230.5 2051,-178.5 1900,-178.5"/>
<text text-anchor="start" x="1908" y="-218.5" font-family="Helvetica,sans-Serif" font-size="10.00">/github/workspace/applications</text>
<text text-anchor="start" x="1908" y="-207.5" font-family="Helvetica,sans-Serif" font-size="10.00">/structural_application/custom</text>
<text text-anchor="start" x="1908" y="-196.5" font-family="Helvetica,sans-Serif" font-size="10.00">_utilities/parallel_variable</text>
<text text-anchor="middle" x="1975.5" y="-185.5" font-family="Helvetica,sans-Serif" font-size="10.00">_transfer_utility.h</text>
</a>
</g>
</g>
<!-- Node8&#45;&gt;Node28 -->
<g id="edge33" class="edge">
<title>Node8&#45;&gt;Node28</title>
<path fill="none" stroke="midnightblue" d="M2036.27,-260.49C2026.01,-251.2 2013.86,-240.21 2003.14,-230.5"/>
<polygon fill="midnightblue" stroke="midnightblue" points="2033.94,-263.09 2043.7,-267.2 2038.63,-257.9 2033.94,-263.09"/>
</g>
<!-- Node29 -->
<g id="node29" class="node">
<title>Node29</title>
<g id="a_node29"><a xlink:href="../../df/d49/restart__utility_8h.html" target="_top" xlink:title=" ">
<polygon fill="none" stroke="black" points="2238,-184 2238,-225 2389,-225 2389,-184 2238,-184"/>
<text text-anchor="start" x="2246" y="-213" font-family="Helvetica,sans-Serif" font-size="10.00">/github/workspace/applications</text>
<text text-anchor="start" x="2246" y="-202" font-family="Helvetica,sans-Serif" font-size="10.00">/structural_application/custom</text>
<text text-anchor="middle" x="2313.5" y="-191" font-family="Helvetica,sans-Serif" font-size="10.00">_utilities/restart_utility.h</text>
</a>
</g>
</g>
<!-- Node8&#45;&gt;Node29 -->
<g id="edge34" class="edge">
<title>Node8&#45;&gt;Node29</title>
<path fill="none" stroke="midnightblue" d="M2116.36,-264.53C2149.14,-254.74 2191.15,-242.18 2228.5,-231 2234.85,-229.1 2241.46,-227.12 2248.07,-225.14"/>
<polygon fill="midnightblue" stroke="midnightblue" points="2115.07,-261.26 2106.49,-267.47 2117.08,-267.97 2115.07,-261.26"/>
</g>
<!-- Node32 -->
<g id="node32" class="node">
<title>Node32</title>
<g id="a_node32"><a xlink:href="../../d7/df7/variable__transfer__utility_8h.html" target="_top" xlink:title=" ">
<polygon fill="none" stroke="black" points="2069,-178.5 2069,-230.5 2220,-230.5 2220,-178.5 2069,-178.5"/>
<text text-anchor="start" x="2077" y="-218.5" font-family="Helvetica,sans-Serif" font-size="10.00">/github/workspace/applications</text>
<text text-anchor="start" x="2077" y="-207.5" font-family="Helvetica,sans-Serif" font-size="10.00">/structural_application/custom</text>
<text text-anchor="start" x="2077" y="-196.5" font-family="Helvetica,sans-Serif" font-size="10.00">_utilities/variable_transfer</text>
<text text-anchor="middle" x="2144.5" y="-185.5" font-family="Helvetica,sans-Serif" font-size="10.00">_utility.h</text>
</a>
</g>
</g>
<!-- Node8&#45;&gt;Node32 -->
<g id="edge37" class="edge">
<title>Node8&#45;&gt;Node32</title>
<path fill="none" stroke="midnightblue" d="M2083,-260.49C2093.39,-251.2 2105.68,-240.21 2116.54,-230.5"/>
<polygon fill="midnightblue" stroke="midnightblue" points="2080.61,-257.93 2075.49,-267.2 2085.28,-263.15 2080.61,-257.93"/>
</g>
<!-- Node34 -->
<g id="node34" class="node">
<title>Node34</title>
<g id="a_node34"><a xlink:href="../../d2/d1d/_u_l_fapplication_2custom__utilities_2nist__utilities_8h.html" target="_top" xlink:title=" ">
<polygon fill="none" stroke="black" points="2407,-184 2407,-225 2564,-225 2564,-184 2407,-184"/>
<text text-anchor="start" x="2415" y="-213" font-family="Helvetica,sans-Serif" font-size="10.00">/github/workspace/applications</text>
<text text-anchor="start" x="2415" y="-202" font-family="Helvetica,sans-Serif" font-size="10.00">/ULFapplication/custom_utilities</text>
<text text-anchor="middle" x="2485.5" y="-191" font-family="Helvetica,sans-Serif" font-size="10.00">/nist_utilities.h</text>
</a>
</g>
</g>
<!-- Node8&#45;&gt;Node34 -->
<g id="edge43" class="edge">
<title>Node8&#45;&gt;Node34</title>
<path fill="none" stroke="midnightblue" d="M2144.15,-267.52C2145.27,-267.34 2146.39,-267.17 2147.5,-267 2258.88,-249.84 2288.37,-254.91 2398.5,-231 2406.34,-229.3 2414.52,-227.26 2422.57,-225.09"/>
<polygon fill="midnightblue" stroke="midnightblue" points="2143.24,-264.12 2133.9,-269.13 2144.32,-271.03 2143.24,-264.12"/>
</g>
<!-- Node35 -->
<g id="node35" class="node">
<title>Node35</title>
<g id="a_node35"><a xlink:href="../../d7/db9/ulf__utilities_8h.html" target="_top" xlink:title=" ">
<polygon fill="none" stroke="black" points="2582,-184 2582,-225 2739,-225 2739,-184 2582,-184"/>
<text text-anchor="start" x="2590" y="-213" font-family="Helvetica,sans-Serif" font-size="10.00">/github/workspace/applications</text>
<text text-anchor="start" x="2590" y="-202" font-family="Helvetica,sans-Serif" font-size="10.00">/ULFapplication/custom_utilities</text>
<text text-anchor="middle" x="2660.5" y="-191" font-family="Helvetica,sans-Serif" font-size="10.00">/ulf_utilities.h</text>
</a>
</g>
</g>
<!-- Node8&#45;&gt;Node35 -->
<g id="edge44" class="edge">
<title>Node8&#45;&gt;Node35</title>
<path fill="none" stroke="midnightblue" d="M2144.14,-267.43C2145.26,-267.28 2146.39,-267.14 2147.5,-267 2336.05,-243.54 2386.72,-265.9 2573.5,-231 2582.01,-229.41 2590.88,-227.33 2599.56,-225.03"/>
<polygon fill="midnightblue" stroke="midnightblue" points="2143.29,-264.01 2133.86,-268.82 2144.24,-270.95 2143.29,-264.01"/>
</g>
<!-- Node37 -->
<g id="node37" class="node">
<title>Node37</title>
<g id="a_node37"><a xlink:href="../../d0/d88/_u_l_f__application_8cpp.html" target="_top" xlink:title=" ">
<polygon fill="none" stroke="black" points="2757.5,-189.5 2757.5,-219.5 2935.5,-219.5 2935.5,-189.5 2757.5,-189.5"/>
<text text-anchor="start" x="2765.5" y="-207.5" font-family="Helvetica,sans-Serif" font-size="10.00">/github/workspace/applications</text>
<text text-anchor="middle" x="2846.5" y="-196.5" font-family="Helvetica,sans-Serif" font-size="10.00">/ULFapplication/ULF_application.cpp</text>
</a>
</g>
</g>
<!-- Node8&#45;&gt;Node37 -->
<g id="edge46" class="edge">
<title>Node8&#45;&gt;Node37</title>
<path fill="none" stroke="midnightblue" d="M2144.13,-267.39C2145.26,-267.25 2146.38,-267.12 2147.5,-267 2413.43,-237.21 2484.21,-272.89 2748.5,-231 2765.52,-228.3 2783.87,-223.93 2800.03,-219.57"/>
<polygon fill="midnightblue" stroke="midnightblue" points="2143.32,-263.96 2133.84,-268.7 2144.2,-270.91 2143.32,-263.96"/>
</g>
<!-- Node12 -->
<g id="node12" class="node">
<title>Node12</title>
<g id="a_node12"><a xlink:href="../../d8/d50/convection__diffusion__application_2custom__python_2add__custom__utilities__to__python_8cpp.html" target="_top" xlink:title=" ">
<polygon fill="none" stroke="black" points="3346.5,-89.5 3346.5,-141.5 3524.5,-141.5 3524.5,-89.5 3346.5,-89.5"/>
<text text-anchor="start" x="3354.5" y="-129.5" font-family="Helvetica,sans-Serif" font-size="10.00">/github/workspace/applications</text>
<text text-anchor="start" x="3354.5" y="-118.5" font-family="Helvetica,sans-Serif" font-size="10.00">/convection_diffusion_application</text>
<text text-anchor="start" x="3354.5" y="-107.5" font-family="Helvetica,sans-Serif" font-size="10.00">/custom_python/add_custom_utilities</text>
<text text-anchor="middle" x="3435.5" y="-96.5" font-family="Helvetica,sans-Serif" font-size="10.00">_to_python.cpp</text>
</a>
</g>
</g>
<!-- Node11&#45;&gt;Node12 -->
<g id="edge11" class="edge">
<title>Node11&#45;&gt;Node12</title>
<path fill="none" stroke="midnightblue" d="M3435.5,-173.51C3435.5,-163.17 3435.5,-151.71 3435.5,-141.79"/>
<polygon fill="midnightblue" stroke="midnightblue" points="3432,-173.76 3435.5,-183.76 3439,-173.76 3432,-173.76"/>
</g>
<!-- Node15 -->
<g id="node15" class="node">
<title>Node15</title>
<g id="a_node15"><a xlink:href="../../d4/d31/_meshing_application_2custom__python_2add__custom__utilities__to__python_8cpp.html" target="_top" xlink:title=" ">
<polygon fill="none" stroke="black" points="3163,-89.5 3163,-141.5 3314,-141.5 3314,-89.5 3163,-89.5"/>
<text text-anchor="start" x="3171" y="-129.5" font-family="Helvetica,sans-Serif" font-size="10.00">/github/workspace/applications</text>
<text text-anchor="start" x="3171" y="-118.5" font-family="Helvetica,sans-Serif" font-size="10.00">/MeshingApplication/custom</text>
<text text-anchor="start" x="3171" y="-107.5" font-family="Helvetica,sans-Serif" font-size="10.00">_python/add_custom_utilities</text>
<text text-anchor="middle" x="3238.5" y="-96.5" font-family="Helvetica,sans-Serif" font-size="10.00">_to_python.cpp</text>
</a>
</g>
</g>
<!-- Node14&#45;&gt;Node15 -->
<g id="edge14" class="edge">
<title>Node14&#45;&gt;Node15</title>
<path fill="none" stroke="midnightblue" d="M3238.5,-173.51C3238.5,-163.17 3238.5,-151.71 3238.5,-141.79"/>
<polygon fill="midnightblue" stroke="midnightblue" points="3235,-173.76 3238.5,-183.76 3242,-173.76 3235,-173.76"/>
</g>
<!-- Node17 -->
<g id="node17" class="node">
<title>Node17</title>
<g id="a_node17"><a xlink:href="../../dd/d57/_u_l_fapplication_2custom__python_2add__meshers__to__python_8cpp.html" target="_top" xlink:title=" ">
<polygon fill="none" stroke="black" points="4060,-95 4060,-136 4215,-136 4215,-95 4060,-95"/>
<text text-anchor="start" x="4068" y="-124" font-family="Helvetica,sans-Serif" font-size="10.00">/github/workspace/applications</text>
<text text-anchor="start" x="4068" y="-113" font-family="Helvetica,sans-Serif" font-size="10.00">/ULFapplication/custom_python</text>
<text text-anchor="middle" x="4137.5" y="-102" font-family="Helvetica,sans-Serif" font-size="10.00">/add_meshers_to_python.cpp</text>
</a>
</g>
</g>
<!-- Node16&#45;&gt;Node17 -->
<g id="edge16" class="edge">
<title>Node16&#45;&gt;Node17</title>
<path fill="none" stroke="midnightblue" d="M4138.09,-168.16C4137.97,-157.21 4137.83,-145.55 4137.73,-136.08"/>
<polygon fill="midnightblue" stroke="midnightblue" points="4134.6,-168.38 4138.21,-178.34 4141.6,-168.3 4134.6,-168.38"/>
</g>
<!-- Node19&#45;&gt;Node17 -->
<g id="edge21" class="edge">
<title>Node19&#45;&gt;Node17</title>
<path fill="none" stroke="midnightblue" d="M4260.22,-179.3C4233.61,-165.68 4200.81,-148.9 4175.82,-136.11"/>
<polygon fill="midnightblue" stroke="midnightblue" points="4258.85,-182.54 4269.35,-183.98 4262.04,-176.3 4258.85,-182.54"/>
</g>
<!-- Node20 -->
<g id="node20" class="node">
<title>Node20</title>
<g id="a_node20"><a xlink:href="../../de/dff/_meshing_application_2custom__python_2add__meshers__to__python_8cpp.html" target="_top" xlink:title=" ">
<polygon fill="none" stroke="black" points="4402,-95 4402,-136 4579,-136 4579,-95 4402,-95"/>
<text text-anchor="start" x="4410" y="-124" font-family="Helvetica,sans-Serif" font-size="10.00">/github/workspace/applications</text>
<text text-anchor="start" x="4410" y="-113" font-family="Helvetica,sans-Serif" font-size="10.00">/MeshingApplication/custom</text>
<text text-anchor="middle" x="4490.5" y="-102" font-family="Helvetica,sans-Serif" font-size="10.00">_python/add_meshers_to_python.cpp</text>
</a>
</g>
</g>
<!-- Node19&#45;&gt;Node20 -->
<g id="edge19" class="edge">
<title>Node19&#45;&gt;Node20</title>
<path fill="none" stroke="midnightblue" d="M4357.65,-179.66C4386.43,-165.98 4422.11,-149.01 4449.25,-136.11"/>
<polygon fill="midnightblue" stroke="midnightblue" points="4356.1,-176.52 4348.57,-183.98 4359.1,-182.84 4356.1,-176.52"/>
</g>
<!-- Node21 -->
<g id="node21" class="node">
<title>Node21</title>
<g id="a_node21"><a xlink:href="../../d9/d24/mesh__suites_8cpp.html" target="_top" xlink:title=" ">
<polygon fill="none" stroke="black" points="4233,-95 4233,-136 4384,-136 4384,-95 4233,-95"/>
<text text-anchor="start" x="4241" y="-124" font-family="Helvetica,sans-Serif" font-size="10.00">/github/workspace/applications</text>
<text text-anchor="start" x="4241" y="-113" font-family="Helvetica,sans-Serif" font-size="10.00">/MeshingApplication/external</text>
<text text-anchor="middle" x="4308.5" y="-102" font-family="Helvetica,sans-Serif" font-size="10.00">_includes/mesh_suites.cpp</text>
</a>
</g>
</g>
<!-- Node19&#45;&gt;Node21 -->
<g id="edge20" class="edge">
<title>Node19&#45;&gt;Node21</title>
<path fill="none" stroke="midnightblue" d="M4307.85,-173.44C4307.99,-161.1 4308.15,-147.16 4308.27,-136.16"/>
<polygon fill="midnightblue" stroke="midnightblue" points="4304.34,-173.72 4307.73,-183.76 4311.34,-173.8 4304.34,-173.72"/>
</g>
<!-- Node25 -->
<g id="node25" class="node">
<title>Node25</title>
<g id="a_node25"><a xlink:href="../../dc/dfc/_p_f_e_mapplication_2custom__python_2add__custom__utilities__to__python_8cpp.html" target="_top" xlink:title=" ">
<polygon fill="none" stroke="black" points="1530.5,-95 1530.5,-136 1704.5,-136 1704.5,-95 1530.5,-95"/>
<text text-anchor="start" x="1538.5" y="-124" font-family="Helvetica,sans-Serif" font-size="10.00">/github/workspace/applications</text>
<text text-anchor="start" x="1538.5" y="-113" font-family="Helvetica,sans-Serif" font-size="10.00">/PFEMapplication/custom_python</text>
<text text-anchor="middle" x="1617.5" y="-102" font-family="Helvetica,sans-Serif" font-size="10.00">/add_custom_utilities_to_python.cpp</text>
</a>
</g>
</g>
<!-- Node24&#45;&gt;Node25 -->
<g id="edge25" class="edge">
<title>Node24&#45;&gt;Node25</title>
<path fill="none" stroke="midnightblue" d="M1485.38,-179.66C1514,-165.98 1549.49,-149.01 1576.48,-136.11"/>
<polygon fill="midnightblue" stroke="midnightblue" points="1483.86,-176.5 1476.34,-183.98 1486.88,-182.82 1483.86,-176.5"/>
</g>
<!-- Node27&#45;&gt;Node25 -->
<g id="edge28" class="edge">
<title>Node27&#45;&gt;Node25</title>
<path fill="none" stroke="midnightblue" d="M1749.62,-179.66C1721,-165.98 1685.51,-149.01 1658.52,-136.11"/>
<polygon fill="midnightblue" stroke="midnightblue" points="1748.12,-182.82 1758.66,-183.98 1751.14,-176.5 1748.12,-182.82"/>
</g>
<!-- Node30 -->
<g id="node30" class="node">
<title>Node30</title>
<g id="a_node30"><a xlink:href="../../dd/dee/structural__application_2custom__python_2add__custom__utilities__to__python_8cpp.html" target="_top" xlink:title=" ">
<polygon fill="none" stroke="black" points="2069,-0.5 2069,-52.5 2220,-52.5 2220,-0.5 2069,-0.5"/>
<text text-anchor="start" x="2077" y="-40.5" font-family="Helvetica,sans-Serif" font-size="10.00">/github/workspace/applications</text>
<text text-anchor="start" x="2077" y="-29.5" font-family="Helvetica,sans-Serif" font-size="10.00">/structural_application/custom</text>
<text text-anchor="start" x="2077" y="-18.5" font-family="Helvetica,sans-Serif" font-size="10.00">_python/add_custom_utilities</text>
<text text-anchor="middle" x="2144.5" y="-7.5" font-family="Helvetica,sans-Serif" font-size="10.00">_to_python.cpp</text>
</a>
</g>
</g>
<!-- Node29&#45;&gt;Node30 -->
<g id="edge35" class="edge">
<title>Node29&#45;&gt;Node30</title>
<path fill="none" stroke="midnightblue" d="M2329.68,-174.37C2341.11,-149.46 2351.51,-113.79 2333.5,-89 2307.65,-53.4 2260.67,-38.01 2220.01,-31.52"/>
<polygon fill="midnightblue" stroke="midnightblue" points="2326.38,-173.16 2325.13,-183.68 2332.67,-176.23 2326.38,-173.16"/>
</g>
<!-- Node31 -->
<g id="node31" class="node">
<title>Node31</title>
<g id="a_node31"><a xlink:href="../../d9/d93/structural__application_2custom__python_2add__custom__utilities__to__python_8h.html" target="_top" xlink:title=" ">
<polygon fill="none" stroke="black" points="2173,-89.5 2173,-141.5 2324,-141.5 2324,-89.5 2173,-89.5"/>
<text text-anchor="start" x="2181" y="-129.5" font-family="Helvetica,sans-Serif" font-size="10.00">/github/workspace/applications</text>
<text text-anchor="start" x="2181" y="-118.5" font-family="Helvetica,sans-Serif" font-size="10.00">/structural_application/custom</text>
<text text-anchor="start" x="2181" y="-107.5" font-family="Helvetica,sans-Serif" font-size="10.00">_python/add_custom_utilities</text>
<text text-anchor="middle" x="2248.5" y="-96.5" font-family="Helvetica,sans-Serif" font-size="10.00">_to_python.h</text>
</a>
</g>
</g>
<!-- Node29&#45;&gt;Node31 -->
<g id="edge36" class="edge">
<title>Node29&#45;&gt;Node31</title>
<path fill="none" stroke="midnightblue" d="M2292.55,-175.45C2284.46,-164.63 2275.27,-152.34 2267.39,-141.79"/>
<polygon fill="midnightblue" stroke="midnightblue" points="2289.96,-177.84 2298.75,-183.76 2295.57,-173.65 2289.96,-177.84"/>
</g>
<!-- Node32&#45;&gt;Node30 -->
<g id="edge38" class="edge">
<title>Node32&#45;&gt;Node30</title>
<path fill="none" stroke="midnightblue" d="M2144.5,-168.25C2144.5,-134.04 2144.5,-82.97 2144.5,-52.67"/>
<polygon fill="midnightblue" stroke="midnightblue" points="2141,-168.28 2144.5,-178.28 2148,-168.28 2141,-168.28"/>
</g>
<!-- Node32&#45;&gt;Node31 -->
<g id="edge39" class="edge">
<title>Node32&#45;&gt;Node31</title>
<path fill="none" stroke="midnightblue" d="M2182.57,-171.65C2194.41,-161.75 2207.28,-150.98 2218.49,-141.61"/>
<polygon fill="midnightblue" stroke="midnightblue" points="2180.01,-169.24 2174.58,-178.34 2184.5,-174.6 2180.01,-169.24"/>
</g>
<!-- Node33 -->
<g id="node33" class="node">
<title>Node33</title>
<g id="a_node33"><a xlink:href="../../d7/d0e/node__snapping__utility_8h.html" target="_top" xlink:title=" ">
<polygon fill="none" stroke="black" points="1960.5,-95 1960.5,-136 2116.5,-136 2116.5,-95 1960.5,-95"/>
<text text-anchor="start" x="1968.5" y="-124" font-family="Helvetica,sans-Serif" font-size="10.00">/github/workspace/applications</text>
<text text-anchor="start" x="1968.5" y="-113" font-family="Helvetica,sans-Serif" font-size="10.00">/structural_application/custom</text>
<text text-anchor="middle" x="2038.5" y="-102" font-family="Helvetica,sans-Serif" font-size="10.00">_utilities/node_snapping_utility.h</text>
</a>
</g>
</g>
<!-- Node32&#45;&gt;Node33 -->
<g id="edge40" class="edge">
<title>Node32&#45;&gt;Node33</title>
<path fill="none" stroke="midnightblue" d="M2105.93,-171.85C2091.36,-159.88 2075.2,-146.62 2062.36,-136.08"/>
<polygon fill="midnightblue" stroke="midnightblue" points="2103.89,-174.7 2113.84,-178.34 2108.33,-169.29 2103.89,-174.7"/>
</g>
<!-- Node33&#45;&gt;Node30 -->
<g id="edge41" class="edge">
<title>Node33&#45;&gt;Node30</title>
<path fill="none" stroke="midnightblue" d="M2070.14,-88.53C2084,-77.15 2100.2,-63.86 2113.94,-52.58"/>
<polygon fill="midnightblue" stroke="midnightblue" points="2067.8,-85.93 2062.29,-94.98 2072.24,-91.34 2067.8,-85.93"/>
</g>
<!-- Node36 -->
<g id="node36" class="node">
<title>Node36</title>
<g id="a_node36"><a xlink:href="../../d5/d60/_u_l_fapplication_2custom__python_2add__custom__utilities__to__python_8cpp.html" target="_top" xlink:title=" ">
<polygon fill="none" stroke="black" points="2573.5,-95 2573.5,-136 2747.5,-136 2747.5,-95 2573.5,-95"/>
<text text-anchor="start" x="2581.5" y="-124" font-family="Helvetica,sans-Serif" font-size="10.00">/github/workspace/applications</text>
<text text-anchor="start" x="2581.5" y="-113" font-family="Helvetica,sans-Serif" font-size="10.00">/ULFapplication/custom_python</text>
<text text-anchor="middle" x="2660.5" y="-102" font-family="Helvetica,sans-Serif" font-size="10.00">/add_custom_utilities_to_python.cpp</text>
</a>
</g>
</g>
<!-- Node35&#45;&gt;Node36 -->
<g id="edge45" class="edge">
<title>Node35&#45;&gt;Node36</title>
<path fill="none" stroke="midnightblue" d="M2660.5,-173.44C2660.5,-161.1 2660.5,-147.16 2660.5,-136.16"/>
<polygon fill="midnightblue" stroke="midnightblue" points="2657,-173.76 2660.5,-183.76 2664,-173.76 2657,-173.76"/>
</g>
</g>
</svg>
