<?xml version="1.0" encoding="UTF-8" standalone="no"?>
<!DOCTYPE svg PUBLIC "-//W3C//DTD SVG 1.1//EN"
 "http://www.w3.org/Graphics/SVG/1.1/DTD/svg11.dtd">
<!-- Generated by graphviz version 2.48.0 (20210719.0153)
 -->
<!-- Title: boost::numeric::bindings::traits::vector_detail_traits&lt; VIdentifier, VType &gt; Pages: 1 -->
<svg width="180pt" height="259pt"
 viewBox="0.00 0.00 180.00 259.00" xmlns="http://www.w3.org/2000/svg" xmlns:xlink="http://www.w3.org/1999/xlink">
<g id="graph0" class="graph" transform="scale(1 1) rotate(0) translate(4 255)">
<title>boost::numeric::bindings::traits::vector_detail_traits&lt; VIdentifier, VType &gt;</title>
<!-- Node1 -->
<g id="node1" class="node">
<title>Node1</title>
<g id="a_node1"><a xlink:title=" ">
<polygon fill="#bfbfbf" stroke="black" points="17.5,-0.5 17.5,-79.5 154.5,-79.5 154.5,-0.5 17.5,-0.5"/>
<text text-anchor="start" x="25.5" y="-67.5" font-family="Helvetica,sans-Serif" font-size="10.00">boost::numeric::bindings</text>
<text text-anchor="start" x="25.5" y="-56.5" font-family="Helvetica,sans-Serif" font-size="10.00">::traits::vector_detail</text>
<text text-anchor="middle" x="86" y="-45.5" font-family="Helvetica,sans-Serif" font-size="10.00">_traits&lt; VIdentifier, VType &gt;</text>
<polyline fill="none" stroke="black" points="17.5,-38.5 154.5,-38.5 "/>
<text text-anchor="middle" x="86" y="-26.5" font-family="Helvetica,sans-Serif" font-size="10.00"> </text>
<polyline fill="none" stroke="black" points="17.5,-19.5 154.5,-19.5 "/>
<text text-anchor="middle" x="86" y="-7.5" font-family="Helvetica,sans-Serif" font-size="10.00"> </text>
</a>
</g>
</g>
<!-- Node2 -->
<g id="node2" class="node">
<title>Node2</title>
<g id="a_node2"><a xlink:href="../../d0/df3/structboost_1_1numeric_1_1bindings_1_1traits_1_1default__vector__traits.html" target="_top" xlink:title=" ">
<polygon fill="none" stroke="black" points="0,-116.5 0,-250.5 172,-250.5 172,-116.5 0,-116.5"/>
<text text-anchor="start" x="8" y="-238.5" font-family="Helvetica,sans-Serif" font-size="10.00">boost::numeric::bindings</text>
<text text-anchor="start" x="8" y="-227.5" font-family="Helvetica,sans-Serif" font-size="10.00">::traits::default_vector</text>
<text text-anchor="middle" x="86" y="-216.5" font-family="Helvetica,sans-Serif" font-size="10.00">_traits&lt; VType, VType::value_type &gt;</text>
<polyline fill="none" stroke="black" points="0,-209.5 172,-209.5 "/>
<text text-anchor="middle" x="86" y="-197.5" font-family="Helvetica,sans-Serif" font-size="10.00"> </text>
<polyline fill="none" stroke="black" points="0,-190.5 172,-190.5 "/>
<text text-anchor="start" x="8" y="-178.5" font-family="Helvetica,sans-Serif" font-size="10.00">+ storage()</text>
<text text-anchor="start" x="8" y="-167.5" font-family="Helvetica,sans-Serif" font-size="10.00">+ storage()</text>
<text text-anchor="start" x="8" y="-156.5" font-family="Helvetica,sans-Serif" font-size="10.00">+ size()</text>
<text text-anchor="start" x="8" y="-145.5" font-family="Helvetica,sans-Serif" font-size="10.00">+ size()</text>
<text text-anchor="start" x="8" y="-134.5" font-family="Helvetica,sans-Serif" font-size="10.00">+ stride()</text>
<text text-anchor="start" x="8" y="-123.5" font-family="Helvetica,sans-Serif" font-size="10.00">+ stride()</text>
</a>
</g>
</g>
<!-- Node2&#45;&gt;Node1 -->
<g id="edge1" class="edge">
<title>Node2&#45;&gt;Node1</title>
<path fill="none" stroke="midnightblue" d="M79.27,-106.03C79.33,-96.95 79.54,-87.99 79.9,-79.76"/>
<polygon fill="none" stroke="midnightblue" points="75.77,-106.3 79.26,-116.31 82.77,-106.31 75.77,-106.3"/>
</g>
<!-- Node2&#45;&gt;Node1 -->
<g id="edge2" class="edge">
<title>Node2&#45;&gt;Node1</title>
<path fill="none" stroke="midnightblue" d="M92.73,-106.03C92.67,-96.95 92.46,-87.99 92.1,-79.76"/>
<polygon fill="none" stroke="midnightblue" points="89.23,-106.31 92.74,-116.31 96.23,-106.3 89.23,-106.31"/>
</g>
</g>
</svg>
