<?xml version="1.0" encoding="UTF-8" standalone="no"?>
<!DOCTYPE svg PUBLIC "-//W3C//DTD SVG 1.1//EN"
 "http://www.w3.org/Graphics/SVG/1.1/DTD/svg11.dtd">
<!-- Generated by graphviz version 2.48.0 (20210719.0153)
 -->
<!-- Title: /github/workspace/kratos/geometries/geometry_data.h Pages: 1 -->
<!--zoomable 419 -->
<svg id="main" version="1.1" xmlns="http://www.w3.org/2000/svg" xmlns:xlink="http://www.w3.org/1999/xlink" xml:space="preserve" onload="init(evt)">
<style type="text/css"><![CDATA[
.edge:hover path { stroke: red; }
.edge:hover polygon { stroke: red; fill: red; }
]]></style>
<script type="text/javascript"><![CDATA[
var edges = document.getElementsByTagName('g');
if (edges && edges.length) {
  for (var i=0;i<edges.length;i++) {
    if (edges[i].id.substr(0,4)=='edge') {
      edges[i].setAttribute('class','edge');
    }
  }
}
]]></script>
        <defs>
                <circle id="rim" cx="0" cy="0" r="7"/>
                <circle id="rim2" cx="0" cy="0" r="3.5"/>
                <g id="zoomPlus">
                        <use xlink:href="#rim" fill="#404040">
                                <set attributeName="fill" to="#808080" begin="zoomplus.mouseover" end="zoomplus.mouseout"/>
                        </use>
                        <path d="M-4,0h8M0,-4v8" fill="none" stroke="white" stroke-width="1.5" pointer-events="none"/>
                </g>
                <g id="zoomMin">
                        <use xlink:href="#rim" fill="#404040">
                                <set attributeName="fill" to="#808080" begin="zoomminus.mouseover" end="zoomminus.mouseout"/>
                        </use>
                        <path d="M-4,0h8" fill="none" stroke="white" stroke-width="1.5" pointer-events="none"/>
                </g>
                <g id="dirArrow">
                        <path fill="none" stroke="white" stroke-width="1.5" d="M0,-3.0v7 M-2.5,-0.5L0,-3.0L2.5,-0.5"/>
                </g>
               <g id="resetDef">
                       <use xlink:href="#rim2" fill="#404040">
                               <set attributeName="fill" to="#808080" begin="reset.mouseover" end="reset.mouseout"/>
                       </use>
               </g>
        </defs>

<script type="text/javascript">
var viewWidth = 2451;
var viewHeight = 419;
var sectionId = 'dynsection-0';
</script>
<script xlink:href="../../svgpan.js"/>
<svg id="graph" class="graph">
<g id="viewport">
<title>/github/workspace/kratos/geometries/geometry_data.h</title>
<!-- Node1 -->
<g id="node1" class="node">
<title>Node1</title>
<g id="a_node1"><a xlink:title=" ">
<polygon fill="#bfbfbf" stroke="black" points="1550.46,-380.5 1550.46,-410.5 1692.46,-410.5 1692.46,-380.5 1550.46,-380.5"/>
<text text-anchor="start" x="1558.46" y="-398.5" font-family="Helvetica,sans-Serif" font-size="10.00">/github/workspace/kratos</text>
<text text-anchor="middle" x="1621.46" y="-387.5" font-family="Helvetica,sans-Serif" font-size="10.00">/geometries/geometry_data.h</text>
</a>
</g>
</g>
<!-- Node2 -->
<g id="node2" class="node">
<title>Node2</title>
<g id="a_node2"><a xlink:title=" ">
<polygon fill="none" stroke="#bfbfbf" points="1952.96,-62 1952.96,-81 1993.96,-81 1993.96,-62 1952.96,-62"/>
<text text-anchor="middle" x="1973.46" y="-69" font-family="Helvetica,sans-Serif" font-size="10.00">string</text>
</a>
</g>
</g>
<!-- Node1&#45;&gt;Node2 -->
<g id="edge1" class="edge">
<title>Node1&#45;&gt;Node2</title>
<path fill="none" stroke="midnightblue" d="M1637.04,-380.25C1694.86,-327.36 1896.88,-142.55 1956.67,-87.86"/>
<polygon fill="midnightblue" stroke="midnightblue" points="1959.12,-90.37 1964.14,-81.03 1954.39,-85.2 1959.12,-90.37"/>
</g>
<!-- Node3 -->
<g id="node3" class="node">
<title>Node3</title>
<g id="a_node3"><a xlink:title=" ">
<polygon fill="none" stroke="#bfbfbf" points="1880.46,-62 1880.46,-81 1934.46,-81 1934.46,-62 1880.46,-62"/>
<text text-anchor="middle" x="1907.46" y="-69" font-family="Helvetica,sans-Serif" font-size="10.00">iostream</text>
</a>
</g>
</g>
<!-- Node1&#45;&gt;Node3 -->
<g id="edge2" class="edge">
<title>Node1&#45;&gt;Node3</title>
<path fill="none" stroke="midnightblue" d="M1550.19,-393.83C1462.6,-388.8 1325.46,-365.38 1325.46,-268 1325.46,-268 1325.46,-268 1325.46,-204.5 1325.46,-162.69 1337.03,-145.21 1372.46,-123 1466.67,-63.96 1763.15,-112.07 1871.46,-87 1874.3,-86.34 1877.19,-85.5 1880.06,-84.54"/>
<polygon fill="midnightblue" stroke="midnightblue" points="1881.37,-87.79 1889.51,-81.01 1878.91,-81.24 1881.37,-87.79"/>
</g>
<!-- Node4 -->
<g id="node4" class="node">
<title>Node4</title>
<g id="a_node4"><a xlink:title=" ">
<polygon fill="none" stroke="#bfbfbf" points="1904.46,-0.5 1904.46,-19.5 1956.46,-19.5 1956.46,-0.5 1904.46,-0.5"/>
<text text-anchor="middle" x="1930.46" y="-7.5" font-family="Helvetica,sans-Serif" font-size="10.00">sstream</text>
</a>
</g>
</g>
<!-- Node1&#45;&gt;Node4 -->
<g id="edge3" class="edge">
<title>Node1&#45;&gt;Node4</title>
<path fill="none" stroke="midnightblue" d="M1550.33,-392.72C1237.86,-384.46 2.46,-346.81 2.46,-268 2.46,-268 2.46,-268 2.46,-137.5 2.46,-100.31 -7.39,-79.46 21.46,-56 59.22,-25.3 1634.56,-13.05 1894.36,-11.24"/>
<polygon fill="midnightblue" stroke="midnightblue" points="1894.43,-14.74 1904.4,-11.17 1894.38,-7.74 1894.43,-14.74"/>
</g>
<!-- Node5 -->
<g id="node5" class="node">
<title>Node5</title>
<g id="a_node5"><a xlink:title=" ">
<polygon fill="none" stroke="#bfbfbf" points="2177.96,-196 2177.96,-215 2226.96,-215 2226.96,-196 2177.96,-196"/>
<text text-anchor="middle" x="2202.46" y="-203" font-family="Helvetica,sans-Serif" font-size="10.00">cstddef</text>
</a>
</g>
</g>
<!-- Node1&#45;&gt;Node5 -->
<g id="edge4" class="edge">
<title>Node1&#45;&gt;Node5</title>
<path fill="none" stroke="midnightblue" d="M1692.57,-389.88C1792.67,-382.67 1969.63,-367.12 2029.46,-344 2098.49,-317.33 2161.7,-252.8 2188.68,-222.6"/>
<polygon fill="midnightblue" stroke="midnightblue" points="2191.34,-224.87 2195.31,-215.05 2186.08,-220.26 2191.34,-224.87"/>
</g>
<!-- Node6 -->
<g id="node6" class="node">
<title>Node6</title>
<g id="a_node6"><a xlink:title=" ">
<polygon fill="none" stroke="#bfbfbf" points="1391.96,-129 1391.96,-148 1474.96,-148 1474.96,-129 1391.96,-129"/>
<text text-anchor="middle" x="1433.46" y="-136" font-family="Helvetica,sans-Serif" font-size="10.00">boost/array.hpp</text>
</a>
</g>
</g>
<!-- Node1&#45;&gt;Node6 -->
<g id="edge5" class="edge">
<title>Node1&#45;&gt;Node6</title>
<path fill="none" stroke="midnightblue" d="M1611.09,-380.43C1578.9,-336.77 1480.83,-203.74 1445.94,-156.42"/>
<polygon fill="midnightblue" stroke="midnightblue" points="1448.6,-154.13 1439.85,-148.16 1442.96,-158.28 1448.6,-154.13"/>
</g>
<!-- Node7 -->
<g id="node7" class="node">
<title>Node7</title>
<g id="a_node7"><a xlink:href="../../d9/d36/array__1d_8h.html" target="_top" xlink:title=" ">
<polygon fill="none" stroke="black" points="1566.96,-196 1566.96,-215 1675.96,-215 1675.96,-196 1566.96,-196"/>
<text text-anchor="middle" x="1621.46" y="-203" font-family="Helvetica,sans-Serif" font-size="10.00">containers/array_1d.h</text>
</a>
</g>
</g>
<!-- Node1&#45;&gt;Node7 -->
<g id="edge6" class="edge">
<title>Node1&#45;&gt;Node7</title>
<path fill="none" stroke="midnightblue" d="M1621.46,-380.37C1621.46,-346.94 1621.46,-262.97 1621.46,-225.3"/>
<polygon fill="midnightblue" stroke="midnightblue" points="1624.96,-225.21 1621.46,-215.21 1617.96,-225.21 1624.96,-225.21"/>
</g>
<!-- Node8 -->
<g id="node8" class="node">
<title>Node8</title>
<g id="a_node8"><a xlink:href="../../df/d67/define_8h.html" target="_top" xlink:title=" ">
<polygon fill="none" stroke="black" points="2139.96,-62 2139.96,-81 2228.96,-81 2228.96,-62 2139.96,-62"/>
<text text-anchor="middle" x="2184.46" y="-69" font-family="Helvetica,sans-Serif" font-size="10.00">includes/define.h</text>
</a>
</g>
</g>
<!-- Node1&#45;&gt;Node8 -->
<g id="edge38" class="edge">
<title>Node1&#45;&gt;Node8</title>
<path fill="none" stroke="midnightblue" d="M1692.79,-391.3C1782.2,-386.19 1939.72,-373.57 2071.46,-344 2173.22,-321.16 2293.46,-372.29 2293.46,-268 2293.46,-268 2293.46,-268 2293.46,-204.5 2293.46,-151.48 2240.54,-108.26 2208.44,-86.92"/>
<polygon fill="midnightblue" stroke="midnightblue" points="2209.93,-83.71 2199.62,-81.25 2206.14,-89.6 2209.93,-83.71"/>
</g>
<!-- Node13 -->
<g id="node13" class="node">
<title>Node13</title>
<g id="a_node13"><a xlink:href="../../d9/d3e/ublas__interface_8h.html" target="_top" xlink:title=" ">
<polygon fill="none" stroke="black" points="1157.96,-129 1157.96,-148 1286.96,-148 1286.96,-129 1157.96,-129"/>
<text text-anchor="middle" x="1222.46" y="-136" font-family="Helvetica,sans-Serif" font-size="10.00">includes/ublas_interface.h</text>
</a>
</g>
</g>
<!-- Node1&#45;&gt;Node13 -->
<g id="edge39" class="edge">
<title>Node1&#45;&gt;Node13</title>
<path fill="none" stroke="midnightblue" d="M1550.28,-390.72C1470.56,-385.16 1347.73,-372.2 1311.46,-344 1250.55,-296.64 1230.54,-199.11 1224.67,-158.2"/>
<polygon fill="midnightblue" stroke="midnightblue" points="1228.13,-157.71 1223.36,-148.26 1221.19,-158.63 1228.13,-157.71"/>
</g>
<!-- Node31 -->
<g id="node31" class="node">
<title>Node31</title>
<g id="a_node31"><a xlink:href="../../da/d87/integration__point_8h.html" target="_top" xlink:title=" ">
<polygon fill="none" stroke="black" points="1910.46,-313.5 1910.46,-343.5 2020.46,-343.5 2020.46,-313.5 1910.46,-313.5"/>
<text text-anchor="start" x="1918.46" y="-331.5" font-family="Helvetica,sans-Serif" font-size="10.00">integration/integration</text>
<text text-anchor="middle" x="1965.46" y="-320.5" font-family="Helvetica,sans-Serif" font-size="10.00">_point.h</text>
</a>
</g>
</g>
<!-- Node1&#45;&gt;Node31 -->
<g id="edge40" class="edge">
<title>Node1&#45;&gt;Node31</title>
<path fill="none" stroke="midnightblue" d="M1692.74,-381.03C1753.85,-369.48 1841.16,-352.99 1900.4,-341.79"/>
<polygon fill="midnightblue" stroke="midnightblue" points="1901.22,-345.2 1910.39,-339.91 1899.92,-338.32 1901.22,-345.2"/>
</g>
<!-- Node7&#45;&gt;Node2 -->
<g id="edge7" class="edge">
<title>Node7&#45;&gt;Node2</title>
<path fill="none" stroke="midnightblue" d="M1671.9,-195.94C1714.11,-187.87 1775.45,-174.01 1826.46,-154 1873.57,-135.52 1924.3,-104.68 1952.14,-86.71"/>
<polygon fill="midnightblue" stroke="midnightblue" points="1954.2,-89.54 1960.66,-81.14 1950.38,-83.68 1954.2,-89.54"/>
</g>
<!-- Node7&#45;&gt;Node3 -->
<g id="edge8" class="edge">
<title>Node7&#45;&gt;Node3</title>
<path fill="none" stroke="midnightblue" d="M1606.55,-195.8C1582.08,-180.48 1538.24,-147.94 1560.46,-123 1606.75,-71.05 1804.04,-104.15 1871.46,-87 1873.98,-86.36 1876.55,-85.59 1879.11,-84.73"/>
<polygon fill="midnightblue" stroke="midnightblue" points="1880.58,-87.92 1888.73,-81.15 1878.13,-81.36 1880.58,-87.92"/>
</g>
<!-- Node7&#45;&gt;Node6 -->
<g id="edge9" class="edge">
<title>Node7&#45;&gt;Node6</title>
<path fill="none" stroke="midnightblue" d="M1596.5,-195.87C1563.54,-184.47 1505.35,-164.35 1468.13,-151.49"/>
<polygon fill="midnightblue" stroke="midnightblue" points="1468.83,-148.02 1458.23,-148.06 1466.54,-154.64 1468.83,-148.02"/>
</g>
<!-- Node7&#45;&gt;Node8 -->
<g id="edge10" class="edge">
<title>Node7&#45;&gt;Node8</title>
<path fill="none" stroke="midnightblue" d="M1667.71,-195.95C1718.01,-186.47 1800.71,-170.34 1871.46,-154 1969.99,-131.24 2084.78,-100.17 2144.21,-83.75"/>
<polygon fill="midnightblue" stroke="midnightblue" points="2145.25,-87.09 2153.95,-81.05 2143.38,-80.34 2145.25,-87.09"/>
</g>
<!-- Node7&#45;&gt;Node13 -->
<g id="edge16" class="edge">
<title>Node7&#45;&gt;Node13</title>
<path fill="none" stroke="midnightblue" d="M1568.89,-195.94C1495.68,-184.01 1363.23,-162.43 1285.03,-149.69"/>
<polygon fill="midnightblue" stroke="midnightblue" points="1285.27,-146.19 1274.84,-148.03 1284.14,-153.09 1285.27,-146.19"/>
</g>
<!-- Node17 -->
<g id="node17" class="node">
<title>Node17</title>
<g id="a_node17"><a xlink:title=" ">
<polygon fill="none" stroke="#bfbfbf" points="1746.46,-56.5 1746.46,-86.5 1862.46,-86.5 1862.46,-56.5 1746.46,-56.5"/>
<text text-anchor="start" x="1754.46" y="-74.5" font-family="Helvetica,sans-Serif" font-size="10.00">boost/numeric/ublas</text>
<text text-anchor="middle" x="1804.46" y="-63.5" font-family="Helvetica,sans-Serif" font-size="10.00">/vector_expression.hpp</text>
</a>
</g>
</g>
<!-- Node7&#45;&gt;Node17 -->
<g id="edge35" class="edge">
<title>Node7&#45;&gt;Node17</title>
<path fill="none" stroke="midnightblue" d="M1597.26,-196C1561.61,-182.19 1501.85,-153.38 1527.46,-123 1556.26,-88.85 1676.24,-95.11 1736.26,-86.88"/>
<polygon fill="midnightblue" stroke="midnightblue" points="1737.09,-90.29 1746.39,-85.23 1735.96,-83.38 1737.09,-90.29"/>
</g>
<!-- Node29 -->
<g id="node29" class="node">
<title>Node29</title>
<g id="a_node29"><a xlink:title=" ">
<polygon fill="none" stroke="#bfbfbf" points="1569.46,-123.5 1569.46,-153.5 1673.46,-153.5 1673.46,-123.5 1569.46,-123.5"/>
<text text-anchor="start" x="1577.46" y="-141.5" font-family="Helvetica,sans-Serif" font-size="10.00">boost/numeric/ublas</text>
<text text-anchor="middle" x="1621.46" y="-130.5" font-family="Helvetica,sans-Serif" font-size="10.00">/storage.hpp</text>
</a>
</g>
</g>
<!-- Node7&#45;&gt;Node29 -->
<g id="edge36" class="edge">
<title>Node7&#45;&gt;Node29</title>
<path fill="none" stroke="midnightblue" d="M1621.46,-195.73C1621.46,-187.54 1621.46,-174.92 1621.46,-163.71"/>
<polygon fill="midnightblue" stroke="midnightblue" points="1624.96,-163.59 1621.46,-153.59 1617.96,-163.59 1624.96,-163.59"/>
</g>
<!-- Node30 -->
<g id="node30" class="node">
<title>Node30</title>
<g id="a_node30"><a xlink:title=" ">
<polygon fill="none" stroke="#bfbfbf" points="1691.96,-123.5 1691.96,-153.5 1816.96,-153.5 1816.96,-123.5 1691.96,-123.5"/>
<text text-anchor="start" x="1699.96" y="-141.5" font-family="Helvetica,sans-Serif" font-size="10.00">boost/numeric/ublas</text>
<text text-anchor="middle" x="1754.46" y="-130.5" font-family="Helvetica,sans-Serif" font-size="10.00">/detail/vector_assign.hpp</text>
</a>
</g>
</g>
<!-- Node7&#45;&gt;Node30 -->
<g id="edge37" class="edge">
<title>Node7&#45;&gt;Node30</title>
<path fill="none" stroke="midnightblue" d="M1639.13,-195.87C1658.82,-186.24 1691.26,-170.39 1716.73,-157.94"/>
<polygon fill="midnightblue" stroke="midnightblue" points="1718.31,-161.06 1725.76,-153.53 1715.24,-154.77 1718.31,-161.06"/>
</g>
<!-- Node8&#45;&gt;Node4 -->
<g id="edge12" class="edge">
<title>Node8&#45;&gt;Node4</title>
<path fill="none" stroke="midnightblue" d="M2150.17,-61.96C2142.08,-59.97 2133.47,-57.89 2125.46,-56 2057.98,-40.07 2038.59,-37.03 1966.79,-20.03"/>
<polygon fill="midnightblue" stroke="midnightblue" points="1967.33,-16.56 1956.79,-17.65 1965.71,-23.37 1967.33,-16.56"/>
</g>
<!-- Node9 -->
<g id="node9" class="node">
<title>Node9</title>
<g id="a_node9"><a xlink:title=" ">
<polygon fill="none" stroke="#bfbfbf" points="2262.96,-0.5 2262.96,-19.5 2321.96,-19.5 2321.96,-0.5 2262.96,-0.5"/>
<text text-anchor="middle" x="2292.46" y="-7.5" font-family="Helvetica,sans-Serif" font-size="10.00">stdexcept</text>
</a>
</g>
</g>
<!-- Node8&#45;&gt;Node9 -->
<g id="edge11" class="edge">
<title>Node8&#45;&gt;Node9</title>
<path fill="none" stroke="midnightblue" d="M2199.94,-61.98C2217.74,-52.17 2247.21,-35.93 2268.1,-24.42"/>
<polygon fill="midnightblue" stroke="midnightblue" points="2269.95,-27.4 2277.02,-19.51 2266.57,-21.27 2269.95,-27.4"/>
</g>
<!-- Node10 -->
<g id="node10" class="node">
<title>Node10</title>
<g id="a_node10"><a xlink:title=" ">
<polygon fill="none" stroke="#bfbfbf" points="2339.96,-0.5 2339.96,-19.5 2442.96,-19.5 2442.96,-0.5 2339.96,-0.5"/>
<text text-anchor="middle" x="2391.46" y="-7.5" font-family="Helvetica,sans-Serif" font-size="10.00">boost/smart_ptr.hpp</text>
</a>
</g>
</g>
<!-- Node8&#45;&gt;Node10 -->
<g id="edge13" class="edge">
<title>Node8&#45;&gt;Node10</title>
<path fill="none" stroke="midnightblue" d="M2214.12,-61.98C2250.4,-51.55 2311.93,-33.86 2352.13,-22.31"/>
<polygon fill="midnightblue" stroke="midnightblue" points="2353.22,-25.64 2361.86,-19.51 2351.28,-18.91 2353.22,-25.64"/>
</g>
<!-- Node11 -->
<g id="node11" class="node">
<title>Node11</title>
<g id="a_node11"><a xlink:title=" ">
<polygon fill="none" stroke="#bfbfbf" points="1974.96,-0.5 1974.96,-19.5 2105.96,-19.5 2105.96,-0.5 1974.96,-0.5"/>
<text text-anchor="middle" x="2040.46" y="-7.5" font-family="Helvetica,sans-Serif" font-size="10.00">boost/current_function.hpp</text>
</a>
</g>
</g>
<!-- Node8&#45;&gt;Node11 -->
<g id="edge14" class="edge">
<title>Node8&#45;&gt;Node11</title>
<path fill="none" stroke="midnightblue" d="M2163.83,-61.98C2139.35,-51.86 2098.32,-34.9 2070.36,-23.35"/>
<polygon fill="midnightblue" stroke="midnightblue" points="2071.64,-20.09 2061.06,-19.51 2068.96,-26.56 2071.64,-20.09"/>
</g>
<!-- Node12 -->
<g id="node12" class="node">
<title>Node12</title>
<g id="a_node12"><a xlink:href="../../de/d17/kratos__config_8h.html" target="_top" xlink:title=" ">
<polygon fill="none" stroke="black" points="2123.96,-0.5 2123.96,-19.5 2244.96,-19.5 2244.96,-0.5 2123.96,-0.5"/>
<text text-anchor="middle" x="2184.46" y="-7.5" font-family="Helvetica,sans-Serif" font-size="10.00">includes/kratos_config.h</text>
</a>
</g>
</g>
<!-- Node8&#45;&gt;Node12 -->
<g id="edge15" class="edge">
<title>Node8&#45;&gt;Node12</title>
<path fill="none" stroke="midnightblue" d="M2184.46,-61.98C2184.46,-53.58 2184.46,-40.48 2184.46,-29.66"/>
<polygon fill="midnightblue" stroke="midnightblue" points="2187.96,-29.51 2184.46,-19.51 2180.96,-29.51 2187.96,-29.51"/>
</g>
<!-- Node13&#45;&gt;Node2 -->
<g id="edge17" class="edge">
<title>Node13&#45;&gt;Node2</title>
<path fill="none" stroke="midnightblue" d="M1287.05,-131.26C1316.18,-128.54 1351.04,-125.43 1382.46,-123 1631.57,-103.72 1701.83,-150.54 1943.46,-87 1945.39,-86.49 1947.35,-85.86 1949.29,-85.14"/>
<polygon fill="midnightblue" stroke="midnightblue" points="1950.87,-88.27 1958.64,-81.06 1948.07,-81.85 1950.87,-88.27"/>
</g>
<!-- Node13&#45;&gt;Node3 -->
<g id="edge18" class="edge">
<title>Node13&#45;&gt;Node3</title>
<path fill="none" stroke="midnightblue" d="M1269.46,-128.97C1282.98,-126.75 1297.78,-124.55 1311.46,-123 1559.28,-94.91 1628.27,-142.29 1871.46,-87 1874.3,-86.36 1877.2,-85.52 1880.06,-84.57"/>
<polygon fill="midnightblue" stroke="midnightblue" points="1881.37,-87.82 1889.51,-81.04 1878.92,-81.26 1881.37,-87.82"/>
</g>
<!-- Node13&#45;&gt;Node8 -->
<g id="edge34" class="edge">
<title>Node13&#45;&gt;Node8</title>
<path fill="none" stroke="midnightblue" d="M1287.04,-131.17C1316.18,-128.43 1351.03,-125.33 1382.46,-123 1658.17,-102.52 1727.66,-106.04 2003.46,-87 2045.83,-84.08 2093.72,-80.21 2129.6,-77.21"/>
<polygon fill="midnightblue" stroke="midnightblue" points="2130.18,-80.67 2139.86,-76.35 2129.6,-73.7 2130.18,-80.67"/>
</g>
<!-- Node14 -->
<g id="node14" class="node">
<title>Node14</title>
<g id="a_node14"><a xlink:title=" ">
<polygon fill="none" stroke="#bfbfbf" points="282.46,-56.5 282.46,-86.5 386.46,-86.5 386.46,-56.5 282.46,-56.5"/>
<text text-anchor="start" x="290.46" y="-74.5" font-family="Helvetica,sans-Serif" font-size="10.00">boost/numeric/ublas</text>
<text text-anchor="middle" x="334.46" y="-63.5" font-family="Helvetica,sans-Serif" font-size="10.00">/vector.hpp</text>
</a>
</g>
</g>
<!-- Node13&#45;&gt;Node14 -->
<g id="edge19" class="edge">
<title>Node13&#45;&gt;Node14</title>
<path fill="none" stroke="midnightblue" d="M1157.73,-137.33C1019.48,-136.15 685.15,-128.94 396.83,-87.02"/>
<polygon fill="midnightblue" stroke="midnightblue" points="397,-83.51 386.59,-85.52 395.98,-90.43 397,-83.51"/>
</g>
<!-- Node15 -->
<g id="node15" class="node">
<title>Node15</title>
<g id="a_node15"><a xlink:title=" ">
<polygon fill="none" stroke="#bfbfbf" points="404.46,-56.5 404.46,-86.5 508.46,-86.5 508.46,-56.5 404.46,-56.5"/>
<text text-anchor="start" x="412.46" y="-74.5" font-family="Helvetica,sans-Serif" font-size="10.00">boost/numeric/ublas</text>
<text text-anchor="middle" x="456.46" y="-63.5" font-family="Helvetica,sans-Serif" font-size="10.00">/vector_proxy.hpp</text>
</a>
</g>
</g>
<!-- Node13&#45;&gt;Node15 -->
<g id="edge20" class="edge">
<title>Node13&#45;&gt;Node15</title>
<path fill="none" stroke="midnightblue" d="M1157.92,-136.36C1035.08,-133.44 759.22,-123.25 518.58,-87"/>
<polygon fill="midnightblue" stroke="midnightblue" points="519.01,-83.53 508.6,-85.48 517.96,-90.45 519.01,-83.53"/>
</g>
<!-- Node16 -->
<g id="node16" class="node">
<title>Node16</title>
<g id="a_node16"><a xlink:title=" ">
<polygon fill="none" stroke="#bfbfbf" points="526.46,-56.5 526.46,-86.5 630.46,-86.5 630.46,-56.5 526.46,-56.5"/>
<text text-anchor="start" x="534.46" y="-74.5" font-family="Helvetica,sans-Serif" font-size="10.00">boost/numeric/ublas</text>
<text text-anchor="middle" x="578.46" y="-63.5" font-family="Helvetica,sans-Serif" font-size="10.00">/vector_sparse.hpp</text>
</a>
</g>
</g>
<!-- Node13&#45;&gt;Node16 -->
<g id="edge21" class="edge">
<title>Node13&#45;&gt;Node16</title>
<path fill="none" stroke="midnightblue" d="M1157.81,-135.01C1051.69,-130.23 833.88,-117.57 640.66,-87.04"/>
<polygon fill="midnightblue" stroke="midnightblue" points="641.03,-83.55 630.61,-85.43 639.93,-90.46 641.03,-83.55"/>
</g>
<!-- Node13&#45;&gt;Node17 -->
<g id="edge22" class="edge">
<title>Node13&#45;&gt;Node17</title>
<path fill="none" stroke="midnightblue" d="M1270.4,-128.99C1283.67,-126.83 1298.1,-124.65 1311.46,-123 1496.82,-100.1 1547.82,-114.64 1736.48,-87.01"/>
<polygon fill="midnightblue" stroke="midnightblue" points="1737.07,-90.47 1746.44,-85.54 1736.04,-83.54 1737.07,-90.47"/>
</g>
<!-- Node18 -->
<g id="node18" class="node">
<title>Node18</title>
<g id="a_node18"><a xlink:title=" ">
<polygon fill="none" stroke="#bfbfbf" points="648.46,-56.5 648.46,-86.5 752.46,-86.5 752.46,-56.5 648.46,-56.5"/>
<text text-anchor="start" x="656.46" y="-74.5" font-family="Helvetica,sans-Serif" font-size="10.00">boost/numeric/ublas</text>
<text text-anchor="middle" x="700.46" y="-63.5" font-family="Helvetica,sans-Serif" font-size="10.00">/matrix.hpp</text>
</a>
</g>
</g>
<!-- Node13&#45;&gt;Node18 -->
<g id="edge23" class="edge">
<title>Node13&#45;&gt;Node18</title>
<path fill="none" stroke="midnightblue" d="M1157.59,-132.95C1070.05,-126.24 909.12,-111.91 762.69,-87.08"/>
<polygon fill="midnightblue" stroke="midnightblue" points="763.07,-83.59 752.62,-85.35 761.88,-90.49 763.07,-83.59"/>
</g>
<!-- Node19 -->
<g id="node19" class="node">
<title>Node19</title>
<g id="a_node19"><a xlink:title=" ">
<polygon fill="none" stroke="#bfbfbf" points="770.46,-56.5 770.46,-86.5 874.46,-86.5 874.46,-56.5 770.46,-56.5"/>
<text text-anchor="start" x="778.46" y="-74.5" font-family="Helvetica,sans-Serif" font-size="10.00">boost/numeric/ublas</text>
<text text-anchor="middle" x="822.46" y="-63.5" font-family="Helvetica,sans-Serif" font-size="10.00">/matrix_sparse.hpp</text>
</a>
</g>
</g>
<!-- Node13&#45;&gt;Node19 -->
<g id="edge24" class="edge">
<title>Node13&#45;&gt;Node19</title>
<path fill="none" stroke="midnightblue" d="M1157.83,-129.54C1091.61,-121.01 985.52,-106.31 884.7,-87.14"/>
<polygon fill="midnightblue" stroke="midnightblue" points="885.12,-83.66 874.64,-85.21 883.81,-90.54 885.12,-83.66"/>
</g>
<!-- Node20 -->
<g id="node20" class="node">
<title>Node20</title>
<g id="a_node20"><a xlink:title=" ">
<polygon fill="none" stroke="#bfbfbf" points="892.46,-56.5 892.46,-86.5 996.46,-86.5 996.46,-56.5 892.46,-56.5"/>
<text text-anchor="start" x="900.46" y="-74.5" font-family="Helvetica,sans-Serif" font-size="10.00">boost/numeric/ublas</text>
<text text-anchor="middle" x="944.46" y="-63.5" font-family="Helvetica,sans-Serif" font-size="10.00">/matrix_proxy.hpp</text>
</a>
</g>
</g>
<!-- Node13&#45;&gt;Node20 -->
<g id="edge25" class="edge">
<title>Node13&#45;&gt;Node20</title>
<path fill="none" stroke="midnightblue" d="M1185.59,-128.98C1144.43,-119.45 1075.56,-103.47 1006.84,-87.32"/>
<polygon fill="midnightblue" stroke="midnightblue" points="1007.24,-83.82 996.7,-84.93 1005.64,-90.63 1007.24,-83.82"/>
</g>
<!-- Node21 -->
<g id="node21" class="node">
<title>Node21</title>
<g id="a_node21"><a xlink:title=" ">
<polygon fill="none" stroke="#bfbfbf" points="1014.46,-56.5 1014.46,-86.5 1118.46,-86.5 1118.46,-56.5 1014.46,-56.5"/>
<text text-anchor="start" x="1022.46" y="-74.5" font-family="Helvetica,sans-Serif" font-size="10.00">boost/numeric/ublas</text>
<text text-anchor="middle" x="1066.46" y="-63.5" font-family="Helvetica,sans-Serif" font-size="10.00">/symmetric.hpp</text>
</a>
</g>
</g>
<!-- Node13&#45;&gt;Node21 -->
<g id="edge26" class="edge">
<title>Node13&#45;&gt;Node21</title>
<path fill="none" stroke="midnightblue" d="M1201.75,-128.87C1178.34,-119.12 1139.59,-102.97 1109.55,-90.45"/>
<polygon fill="midnightblue" stroke="midnightblue" points="1110.71,-87.14 1100.13,-86.53 1108.02,-93.61 1110.71,-87.14"/>
</g>
<!-- Node22 -->
<g id="node22" class="node">
<title>Node22</title>
<g id="a_node22"><a xlink:title=" ">
<polygon fill="none" stroke="#bfbfbf" points="1136.46,-56.5 1136.46,-86.5 1240.46,-86.5 1240.46,-56.5 1136.46,-56.5"/>
<text text-anchor="start" x="1144.46" y="-74.5" font-family="Helvetica,sans-Serif" font-size="10.00">boost/numeric/ublas</text>
<text text-anchor="middle" x="1188.46" y="-63.5" font-family="Helvetica,sans-Serif" font-size="10.00">/hermitian.hpp</text>
</a>
</g>
</g>
<!-- Node13&#45;&gt;Node22 -->
<g id="edge27" class="edge">
<title>Node13&#45;&gt;Node22</title>
<path fill="none" stroke="midnightblue" d="M1217.88,-128.73C1213.46,-120.29 1206.58,-107.14 1200.59,-95.68"/>
<polygon fill="midnightblue" stroke="midnightblue" points="1203.57,-93.83 1195.83,-86.59 1197.37,-97.07 1203.57,-93.83"/>
</g>
<!-- Node23 -->
<g id="node23" class="node">
<title>Node23</title>
<g id="a_node23"><a xlink:title=" ">
<polygon fill="none" stroke="#bfbfbf" points="1258.46,-56.5 1258.46,-86.5 1362.46,-86.5 1362.46,-56.5 1258.46,-56.5"/>
<text text-anchor="start" x="1266.46" y="-74.5" font-family="Helvetica,sans-Serif" font-size="10.00">boost/numeric/ublas</text>
<text text-anchor="middle" x="1310.46" y="-63.5" font-family="Helvetica,sans-Serif" font-size="10.00">/banded.hpp</text>
</a>
</g>
</g>
<!-- Node13&#45;&gt;Node23 -->
<g id="edge28" class="edge">
<title>Node13&#45;&gt;Node23</title>
<path fill="none" stroke="midnightblue" d="M1234.33,-128.73C1246.8,-119.53 1266.83,-104.73 1283.21,-92.63"/>
<polygon fill="midnightblue" stroke="midnightblue" points="1285.43,-95.35 1291.39,-86.59 1281.27,-89.72 1285.43,-95.35"/>
</g>
<!-- Node24 -->
<g id="node24" class="node">
<title>Node24</title>
<g id="a_node24"><a xlink:title=" ">
<polygon fill="none" stroke="#bfbfbf" points="1380.46,-56.5 1380.46,-86.5 1484.46,-86.5 1484.46,-56.5 1380.46,-56.5"/>
<text text-anchor="start" x="1388.46" y="-74.5" font-family="Helvetica,sans-Serif" font-size="10.00">boost/numeric/ublas</text>
<text text-anchor="middle" x="1432.46" y="-63.5" font-family="Helvetica,sans-Serif" font-size="10.00">/triangular.hpp</text>
</a>
</g>
</g>
<!-- Node13&#45;&gt;Node24 -->
<g id="edge29" class="edge">
<title>Node13&#45;&gt;Node24</title>
<path fill="none" stroke="midnightblue" d="M1250.35,-128.87C1282.61,-118.88 1336.52,-102.2 1377.33,-89.56"/>
<polygon fill="midnightblue" stroke="midnightblue" points="1378.63,-92.83 1387.14,-86.53 1376.56,-86.14 1378.63,-92.83"/>
</g>
<!-- Node25 -->
<g id="node25" class="node">
<title>Node25</title>
<g id="a_node25"><a xlink:title=" ">
<polygon fill="none" stroke="#bfbfbf" points="1502.46,-56.5 1502.46,-86.5 1606.46,-86.5 1606.46,-56.5 1502.46,-56.5"/>
<text text-anchor="start" x="1510.46" y="-74.5" font-family="Helvetica,sans-Serif" font-size="10.00">boost/numeric/ublas</text>
<text text-anchor="middle" x="1554.46" y="-63.5" font-family="Helvetica,sans-Serif" font-size="10.00">/io.hpp</text>
</a>
</g>
</g>
<!-- Node13&#45;&gt;Node25 -->
<g id="edge30" class="edge">
<title>Node13&#45;&gt;Node25</title>
<path fill="none" stroke="midnightblue" d="M1272.56,-128.93C1324.98,-119.78 1409.91,-104.49 1492.47,-87.16"/>
<polygon fill="midnightblue" stroke="midnightblue" points="1493.2,-90.58 1502.26,-85.09 1491.75,-83.73 1493.2,-90.58"/>
</g>
<!-- Node26 -->
<g id="node26" class="node">
<title>Node26</title>
<g id="a_node26"><a xlink:title=" ">
<polygon fill="none" stroke="#bfbfbf" points="1624.46,-56.5 1624.46,-86.5 1728.46,-86.5 1728.46,-56.5 1624.46,-56.5"/>
<text text-anchor="start" x="1632.46" y="-74.5" font-family="Helvetica,sans-Serif" font-size="10.00">boost/numeric/ublas</text>
<text text-anchor="middle" x="1676.46" y="-63.5" font-family="Helvetica,sans-Serif" font-size="10.00">/operation.hpp</text>
</a>
</g>
</g>
<!-- Node13&#45;&gt;Node26 -->
<g id="edge31" class="edge">
<title>Node13&#45;&gt;Node26</title>
<path fill="none" stroke="midnightblue" d="M1272.3,-128.99C1285.05,-126.92 1298.75,-124.79 1311.46,-123 1443.04,-104.5 1479.79,-110.47 1614.44,-87.05"/>
<polygon fill="midnightblue" stroke="midnightblue" points="1615.06,-90.5 1624.3,-85.32 1613.85,-83.6 1615.06,-90.5"/>
</g>
<!-- Node27 -->
<g id="node27" class="node">
<title>Node27</title>
<g id="a_node27"><a xlink:title=" ">
<polygon fill="none" stroke="#bfbfbf" points="30.46,-56.5 30.46,-86.5 134.46,-86.5 134.46,-56.5 30.46,-56.5"/>
<text text-anchor="start" x="38.46" y="-74.5" font-family="Helvetica,sans-Serif" font-size="10.00">boost/numeric/ublas</text>
<text text-anchor="middle" x="82.46" y="-63.5" font-family="Helvetica,sans-Serif" font-size="10.00">/lu.hpp</text>
</a>
</g>
</g>
<!-- Node13&#45;&gt;Node27 -->
<g id="edge32" class="edge">
<title>Node13&#45;&gt;Node27</title>
<path fill="none" stroke="midnightblue" d="M1157.75,-136.06C959.29,-131.38 360.23,-115.38 144.56,-86.93"/>
<polygon fill="midnightblue" stroke="midnightblue" points="144.97,-83.45 134.59,-85.57 144.02,-90.39 144.97,-83.45"/>
</g>
<!-- Node28 -->
<g id="node28" class="node">
<title>Node28</title>
<g id="a_node28"><a xlink:title=" ">
<polygon fill="none" stroke="#bfbfbf" points="152.46,-56.5 152.46,-86.5 264.46,-86.5 264.46,-56.5 152.46,-56.5"/>
<text text-anchor="start" x="160.46" y="-74.5" font-family="Helvetica,sans-Serif" font-size="10.00">boost/numeric/ublas</text>
<text text-anchor="middle" x="208.46" y="-63.5" font-family="Helvetica,sans-Serif" font-size="10.00">/operation_sparse.hpp</text>
</a>
</g>
</g>
<!-- Node13&#45;&gt;Node28 -->
<g id="edge33" class="edge">
<title>Node13&#45;&gt;Node28</title>
<path fill="none" stroke="midnightblue" d="M1157.96,-137.75C1005.63,-137.56 611.65,-132.42 274.68,-87.01"/>
<polygon fill="midnightblue" stroke="midnightblue" points="275.11,-83.53 264.73,-85.65 274.17,-90.47 275.11,-83.53"/>
</g>
<!-- Node31&#45;&gt;Node2 -->
<g id="edge41" class="edge">
<title>Node31&#45;&gt;Node2</title>
<path fill="none" stroke="midnightblue" d="M1961.18,-313.2C1955.34,-292.92 1945.2,-254.53 1941.46,-221 1936.16,-173.33 1954.54,-118.45 1965.63,-90.66"/>
<polygon fill="midnightblue" stroke="midnightblue" points="1969,-91.68 1969.59,-81.1 1962.53,-89 1969,-91.68"/>
</g>
<!-- Node31&#45;&gt;Node3 -->
<g id="edge42" class="edge">
<title>Node31&#45;&gt;Node3</title>
<path fill="none" stroke="midnightblue" d="M1910.14,-319.84C1776.66,-300.09 1443.44,-242.63 1382.46,-154 1374.66,-142.65 1373.09,-133.09 1382.46,-123 1419.55,-83.09 1818.4,-99.32 1871.46,-87 1874.29,-86.34 1877.19,-85.5 1880.06,-84.54"/>
<polygon fill="midnightblue" stroke="midnightblue" points="1881.37,-87.79 1889.51,-81 1878.91,-81.23 1881.37,-87.79"/>
</g>
<!-- Node31&#45;&gt;Node5 -->
<g id="edge43" class="edge">
<title>Node31&#45;&gt;Node5</title>
<path fill="none" stroke="midnightblue" d="M2007.66,-313.46C2033.33,-304.32 2066.46,-291.43 2094.46,-277 2126.86,-260.31 2161.72,-236.35 2182.81,-221.1"/>
<polygon fill="midnightblue" stroke="midnightblue" points="2184.95,-223.88 2190.96,-215.15 2180.82,-218.22 2184.95,-223.88"/>
</g>
<!-- Node31&#45;&gt;Node8 -->
<g id="edge44" class="edge">
<title>Node31&#45;&gt;Node8</title>
<path fill="none" stroke="midnightblue" d="M2020.51,-324.36C2085.68,-317.28 2191.09,-294.43 2236.46,-221 2263.53,-177.2 2222.55,-117.39 2199.05,-88.89"/>
<polygon fill="midnightblue" stroke="midnightblue" points="2201.56,-86.45 2192.41,-81.11 2196.24,-90.99 2201.56,-86.45"/>
</g>
<!-- Node32 -->
<g id="node32" class="node">
<title>Node32</title>
<g id="a_node32"><a xlink:href="../../d2/d91/point_8h.html" target="_top" xlink:title=" ">
<polygon fill="none" stroke="black" points="1989.46,-257.5 1989.46,-276.5 2085.46,-276.5 2085.46,-257.5 1989.46,-257.5"/>
<text text-anchor="middle" x="2037.46" y="-264.5" font-family="Helvetica,sans-Serif" font-size="10.00">geometries/point.h</text>
</a>
</g>
</g>
<!-- Node31&#45;&gt;Node32 -->
<g id="edge45" class="edge">
<title>Node31&#45;&gt;Node32</title>
<path fill="none" stroke="midnightblue" d="M1982.53,-313.4C1993.53,-304.31 2007.83,-292.49 2019.08,-283.19"/>
<polygon fill="midnightblue" stroke="midnightblue" points="2021.51,-285.73 2026.99,-276.66 2017.05,-280.33 2021.51,-285.73"/>
</g>
<!-- Node32&#45;&gt;Node2 -->
<g id="edge46" class="edge">
<title>Node32&#45;&gt;Node2</title>
<path fill="none" stroke="midnightblue" d="M2042.17,-257.47C2049.36,-243.32 2061.54,-214.13 2054.46,-190 2042.4,-148.86 2009.64,-109.65 1989.67,-88.56"/>
<polygon fill="midnightblue" stroke="midnightblue" points="1991.95,-85.89 1982.47,-81.16 1986.94,-90.77 1991.95,-85.89"/>
</g>
<!-- Node32&#45;&gt;Node3 -->
<g id="edge47" class="edge">
<title>Node32&#45;&gt;Node3</title>
<path fill="none" stroke="midnightblue" d="M2001.03,-257.41C1980.63,-250.76 1956.37,-239.48 1941.46,-221 1910.69,-182.85 1906.65,-122.11 1906.77,-91.48"/>
<polygon fill="midnightblue" stroke="midnightblue" points="1910.27,-91.4 1906.97,-81.33 1903.28,-91.26 1910.27,-91.4"/>
</g>
<!-- Node32&#45;&gt;Node4 -->
<g id="edge48" class="edge">
<title>Node32&#45;&gt;Node4</title>
<path fill="none" stroke="midnightblue" d="M2046.22,-257.29C2054.03,-248.84 2064.92,-235.25 2069.46,-221 2083.21,-177.96 2062.32,-163.58 2042.46,-123 2027.32,-92.05 2027.52,-80.67 2003.46,-56 1990.68,-42.88 1973.32,-31.98 1958.73,-24.19"/>
<polygon fill="midnightblue" stroke="midnightblue" points="1960.12,-20.97 1949.63,-19.53 1956.94,-27.2 1960.12,-20.97"/>
</g>
<!-- Node32&#45;&gt;Node5 -->
<g id="edge49" class="edge">
<title>Node32&#45;&gt;Node5</title>
<path fill="none" stroke="midnightblue" d="M2061.65,-257.47C2087.04,-248.48 2128.11,-233.89 2163.46,-221 2165.56,-220.24 2167.72,-219.45 2169.89,-218.65"/>
<polygon fill="midnightblue" stroke="midnightblue" points="2171.22,-221.89 2179.39,-215.14 2168.79,-215.32 2171.22,-221.89"/>
</g>
<!-- Node32&#45;&gt;Node7 -->
<g id="edge52" class="edge">
<title>Node32&#45;&gt;Node7</title>
<path fill="none" stroke="midnightblue" d="M1989.34,-259.12C1914.43,-248.4 1769.84,-227.72 1685.98,-215.73"/>
<polygon fill="midnightblue" stroke="midnightblue" points="1686.45,-212.26 1676.06,-214.31 1685.46,-219.19 1686.45,-212.26"/>
</g>
<!-- Node32&#45;&gt;Node8 -->
<g id="edge51" class="edge">
<title>Node32&#45;&gt;Node8</title>
<path fill="none" stroke="midnightblue" d="M2065.75,-257.45C2084.85,-250.39 2109.41,-238.64 2125.46,-221 2160.06,-182.97 2175.49,-122.18 2181.37,-91.51"/>
<polygon fill="midnightblue" stroke="midnightblue" points="2184.87,-91.8 2183.17,-81.34 2177.98,-90.58 2184.87,-91.8"/>
</g>
<!-- Node33 -->
<g id="node33" class="node">
<title>Node33</title>
<g id="a_node33"><a xlink:title=" ">
<polygon fill="none" stroke="#bfbfbf" points="1949.96,-190.5 1949.96,-220.5 2044.96,-220.5 2044.96,-190.5 1949.96,-190.5"/>
<text text-anchor="start" x="1957.96" y="-208.5" font-family="Helvetica,sans-Serif" font-size="10.00">boost/serialization</text>
<text text-anchor="middle" x="1997.46" y="-197.5" font-family="Helvetica,sans-Serif" font-size="10.00">/base_object.hpp</text>
</a>
</g>
</g>
<!-- Node32&#45;&gt;Node33 -->
<g id="edge50" class="edge">
<title>Node32&#45;&gt;Node33</title>
<path fill="none" stroke="midnightblue" d="M2031.73,-257.48C2026.72,-250.02 2019.21,-238.85 2012.5,-228.87"/>
<polygon fill="midnightblue" stroke="midnightblue" points="2015.38,-226.87 2006.89,-220.52 2009.57,-230.77 2015.38,-226.87"/>
</g>
</g>
</svg>
        <g id="navigator" transform="translate(0 0)" fill="#404254">
                <rect fill="#f2f5e9" fill-opacity="0.5" stroke="#606060" stroke-width=".5" x="0" y="0" width="60" height="60"/>
                <use id="zoomplus" xlink:href="#zoomPlus" x="17" y="9" onmousedown="handleZoom(evt,'in')"/>
                <use id="zoomminus" xlink:href="#zoomMin" x="42" y="9" onmousedown="handleZoom(evt,'out')"/>
                <use id="reset" xlink:href="#resetDef" x="30" y="36" onmousedown="handleReset()"/>
                <g id="arrowUp" xlink:href="#dirArrow" transform="translate(30 24)" onmousedown="handlePan(0,-1)">
                  <use xlink:href="#rim" fill="#404040">
                        <set attributeName="fill" to="#808080" begin="arrowUp.mouseover" end="arrowUp.mouseout"/>
                  </use>
                  <path fill="none" stroke="white" stroke-width="1.5" d="M0,-3.0v7 M-2.5,-0.5L0,-3.0L2.5,-0.5"/>
                </g>
                <g id="arrowRight" xlink:href="#dirArrow" transform="rotate(90) translate(36 -43)" onmousedown="handlePan(1,0)">
                  <use xlink:href="#rim" fill="#404040">
                        <set attributeName="fill" to="#808080" begin="arrowRight.mouseover" end="arrowRight.mouseout"/>
                  </use>
                  <path fill="none" stroke="white" stroke-width="1.5" d="M0,-3.0v7 M-2.5,-0.5L0,-3.0L2.5,-0.5"/>
                </g>
                <g id="arrowDown" xlink:href="#dirArrow" transform="rotate(180) translate(-30 -48)" onmousedown="handlePan(0,1)">
                  <use xlink:href="#rim" fill="#404040">
                        <set attributeName="fill" to="#808080" begin="arrowDown.mouseover" end="arrowDown.mouseout"/>
                  </use>
                  <path fill="none" stroke="white" stroke-width="1.5" d="M0,-3.0v7 M-2.5,-0.5L0,-3.0L2.5,-0.5"/>
                </g>
                <g id="arrowLeft" xlink:href="#dirArrow" transform="rotate(270) translate(-36 17)" onmousedown="handlePan(-1,0)">
                  <use xlink:href="#rim" fill="#404040">
                        <set attributeName="fill" to="#808080" begin="arrowLeft.mouseover" end="arrowLeft.mouseout"/>
                  </use>
                  <path fill="none" stroke="white" stroke-width="1.5" d="M0,-3.0v7 M-2.5,-0.5L0,-3.0L2.5,-0.5"/>
                </g>
        </g>
        <svg viewBox="0 0 15 15" width="100%" height="30px" preserveAspectRatio="xMaxYMin meet">
         <g id="arrow_out" transform="scale(0.3 0.3)">
          <a xlink:href="geometry__data_8h__incl_org.svg" target="_base">
           <rect id="button" ry="5" rx="5" y="6" x="6" height="38" width="38"
                fill="#f2f5e9" fill-opacity="0.5" stroke="#606060" stroke-width="1.0"/>
           <path id="arrow"
             d="M 11.500037,31.436501 C 11.940474,20.09759 22.043105,11.32322 32.158766,21.979434 L 37.068811,17.246167 C 37.068811,17.246167 37.088388,32 37.088388,32 L 22.160133,31.978069 C 22.160133,31.978069 26.997745,27.140456 26.997745,27.140456 C 18.528582,18.264221 13.291696,25.230495 11.500037,31.436501 z"
             style="fill:#404040;"/>
          </a>
         </g>
        </svg>
</svg>
