<?xml version="1.0" encoding="UTF-8" standalone="no"?>
<!DOCTYPE svg PUBLIC "-//W3C//DTD SVG 1.1//EN"
 "http://www.w3.org/Graphics/SVG/1.1/DTD/svg11.dtd">
<!-- Generated by graphviz version 2.48.0 (20210719.0153)
 -->
<!-- Title: /github/workspace/applications/petsc_application/petsc_application.h Pages: 1 -->
<svg width="382pt" height="128pt"
 viewBox="0.00 0.00 382.00 128.00" xmlns="http://www.w3.org/2000/svg" xmlns:xlink="http://www.w3.org/1999/xlink">
<g id="graph0" class="graph" transform="scale(1 1) rotate(0) translate(4 124)">
<title>/github/workspace/applications/petsc_application/petsc_application.h</title>
<!-- Node1 -->
<g id="node1" class="node">
<title>Node1</title>
<g id="a_node1"><a xlink:title=" ">
<polygon fill="#bfbfbf" stroke="black" points="89,-89.5 89,-119.5 271,-119.5 271,-89.5 89,-89.5"/>
<text text-anchor="start" x="97" y="-107.5" font-family="Helvetica,sans-Serif" font-size="10.00">/github/workspace/applications</text>
<text text-anchor="middle" x="180" y="-96.5" font-family="Helvetica,sans-Serif" font-size="10.00">/petsc_application/petsc_application.h</text>
</a>
</g>
</g>
<!-- Node2 -->
<g id="node2" class="node">
<title>Node2</title>
<g id="a_node2"><a xlink:href="../../de/db1/add__petsc__linear__solvers__to__python_8cpp.html" target="_top" xlink:title=" ">
<polygon fill="none" stroke="black" points="0,-0.5 0,-52.5 164,-52.5 164,-0.5 0,-0.5"/>
<text text-anchor="start" x="8" y="-40.5" font-family="Helvetica,sans-Serif" font-size="10.00">/github/workspace/applications</text>
<text text-anchor="start" x="8" y="-29.5" font-family="Helvetica,sans-Serif" font-size="10.00">/petsc_application/custom</text>
<text text-anchor="start" x="8" y="-18.5" font-family="Helvetica,sans-Serif" font-size="10.00">_python/add_petsc_linear_solvers</text>
<text text-anchor="middle" x="82" y="-7.5" font-family="Helvetica,sans-Serif" font-size="10.00">_to_python.cpp</text>
</a>
</g>
</g>
<!-- Node1&#45;&gt;Node2 -->
<g id="edge1" class="edge">
<title>Node1&#45;&gt;Node2</title>
<path fill="none" stroke="midnightblue" d="M153.6,-83.03C141.48,-73.63 127,-62.4 114.24,-52.5"/>
<polygon fill="midnightblue" stroke="midnightblue" points="151.52,-85.84 161.57,-89.2 155.81,-80.31 151.52,-85.84"/>
</g>
<!-- Node3 -->
<g id="node3" class="node">
<title>Node3</title>
<g id="a_node3"><a xlink:href="../../dd/d5e/petsc__application_8cpp.html" target="_top" xlink:title=" ">
<polygon fill="none" stroke="black" points="182,-11.5 182,-41.5 374,-41.5 374,-11.5 182,-11.5"/>
<text text-anchor="start" x="190" y="-29.5" font-family="Helvetica,sans-Serif" font-size="10.00">/github/workspace/applications</text>
<text text-anchor="middle" x="278" y="-18.5" font-family="Helvetica,sans-Serif" font-size="10.00">/petsc_application/petsc_application.cpp</text>
</a>
</g>
</g>
<!-- Node1&#45;&gt;Node3 -->
<g id="edge2" class="edge">
<title>Node1&#45;&gt;Node3</title>
<path fill="none" stroke="midnightblue" d="M206.75,-82.75C223.54,-69.73 244.75,-53.28 259.65,-41.73"/>
<polygon fill="midnightblue" stroke="midnightblue" points="204.19,-80.31 198.43,-89.2 208.48,-85.84 204.19,-80.31"/>
</g>
</g>
</svg>
