<?xml version="1.0" encoding="UTF-8" standalone="no"?>
<!DOCTYPE svg PUBLIC "-//W3C//DTD SVG 1.1//EN"
 "http://www.w3.org/Graphics/SVG/1.1/DTD/svg11.dtd">
<!-- Generated by graphviz version 2.48.0 (20210719.0153)
 -->
<!-- Title: /github/workspace/applications/mkl_solvers_application/external_includes/boost/numeric/bindings/atlas/cblas2.hpp Pages: 1 -->
<svg width="888pt" height="128pt"
 viewBox="0.00 0.00 887.50 128.00" xmlns="http://www.w3.org/2000/svg" xmlns:xlink="http://www.w3.org/1999/xlink">
<g id="graph0" class="graph" transform="scale(1 1) rotate(0) translate(4 124)">
<title>/github/workspace/applications/mkl_solvers_application/external_includes/boost/numeric/bindings/atlas/cblas2.hpp</title>
<!-- Node1 -->
<g id="node1" class="node">
<title>Node1</title>
<g id="a_node1"><a xlink:title=" ">
<polygon fill="#bfbfbf" stroke="black" points="325,-67.5 325,-119.5 486,-119.5 486,-67.5 325,-67.5"/>
<text text-anchor="start" x="333" y="-107.5" font-family="Helvetica,sans-Serif" font-size="10.00">/github/workspace/applications</text>
<text text-anchor="start" x="333" y="-96.5" font-family="Helvetica,sans-Serif" font-size="10.00">/mkl_solvers_application/external</text>
<text text-anchor="start" x="333" y="-85.5" font-family="Helvetica,sans-Serif" font-size="10.00">_includes/boost/numeric/bindings</text>
<text text-anchor="middle" x="405.5" y="-74.5" font-family="Helvetica,sans-Serif" font-size="10.00">/atlas/cblas2.hpp</text>
</a>
</g>
</g>
<!-- Node2 -->
<g id="node2" class="node">
<title>Node2</title>
<g id="a_node2"><a xlink:title=" ">
<polygon fill="none" stroke="#bfbfbf" points="0,-6 0,-25 49,-25 49,-6 0,-6"/>
<text text-anchor="middle" x="24.5" y="-13" font-family="Helvetica,sans-Serif" font-size="10.00">cassert</text>
</a>
</g>
</g>
<!-- Node1&#45;&gt;Node2 -->
<g id="edge1" class="edge">
<title>Node1&#45;&gt;Node2</title>
<path fill="none" stroke="midnightblue" d="M324.75,-83.79C253.39,-74.78 147.04,-58.15 57.5,-31 55.57,-30.41 53.6,-29.75 51.63,-29.03"/>
<polygon fill="midnightblue" stroke="midnightblue" points="52.6,-25.64 42.02,-25.12 49.97,-32.13 52.6,-25.64"/>
</g>
<!-- Node3 -->
<g id="node3" class="node">
<title>Node3</title>
<g id="a_node3"><a xlink:title=" ">
<polygon fill="none" stroke="#bfbfbf" points="67,-0.5 67,-30.5 184,-30.5 184,-0.5 67,-0.5"/>
<text text-anchor="start" x="75" y="-18.5" font-family="Helvetica,sans-Serif" font-size="10.00">boost/numeric/bindings</text>
<text text-anchor="middle" x="125.5" y="-7.5" font-family="Helvetica,sans-Serif" font-size="10.00">/traits/traits.hpp</text>
</a>
</g>
</g>
<!-- Node1&#45;&gt;Node3 -->
<g id="edge2" class="edge">
<title>Node1&#45;&gt;Node3</title>
<path fill="none" stroke="midnightblue" d="M324.89,-70.62C281.01,-58.71 227.57,-44.21 187.07,-33.21"/>
<polygon fill="midnightblue" stroke="midnightblue" points="187.89,-29.81 177.33,-30.57 186.06,-36.56 187.89,-29.81"/>
</g>
<!-- Node4 -->
<g id="node4" class="node">
<title>Node4</title>
<g id="a_node4"><a xlink:title=" ">
<polygon fill="none" stroke="#bfbfbf" points="202,-0.5 202,-30.5 319,-30.5 319,-0.5 202,-0.5"/>
<text text-anchor="start" x="210" y="-18.5" font-family="Helvetica,sans-Serif" font-size="10.00">boost/numeric/bindings</text>
<text text-anchor="middle" x="260.5" y="-7.5" font-family="Helvetica,sans-Serif" font-size="10.00">/traits/type_traits.hpp</text>
</a>
</g>
</g>
<!-- Node1&#45;&gt;Node4 -->
<g id="edge3" class="edge">
<title>Node1&#45;&gt;Node4</title>
<path fill="none" stroke="midnightblue" d="M357.62,-67.4C337.72,-56.97 315.01,-45.07 296.56,-35.4"/>
<polygon fill="midnightblue" stroke="midnightblue" points="298.09,-32.25 287.6,-30.71 294.84,-38.45 298.09,-32.25"/>
</g>
<!-- Node5 -->
<g id="node5" class="node">
<title>Node5</title>
<g id="a_node5"><a xlink:title=" ">
<polygon fill="none" stroke="#bfbfbf" points="337,-0.5 337,-30.5 474,-30.5 474,-0.5 337,-0.5"/>
<text text-anchor="start" x="345" y="-18.5" font-family="Helvetica,sans-Serif" font-size="10.00">boost/numeric/bindings</text>
<text text-anchor="middle" x="405.5" y="-7.5" font-family="Helvetica,sans-Serif" font-size="10.00">/atlas/cblas2_overloads.hpp</text>
</a>
</g>
</g>
<!-- Node1&#45;&gt;Node5 -->
<g id="edge4" class="edge">
<title>Node1&#45;&gt;Node5</title>
<path fill="none" stroke="midnightblue" d="M405.5,-67.19C405.5,-58.79 405.5,-49.44 405.5,-41.09"/>
<polygon fill="midnightblue" stroke="midnightblue" points="409,-40.85 405.5,-30.85 402,-40.85 409,-40.85"/>
</g>
<!-- Node6 -->
<g id="node6" class="node">
<title>Node6</title>
<g id="a_node6"><a xlink:title=" ">
<polygon fill="none" stroke="#bfbfbf" points="492,-0.5 492,-30.5 609,-30.5 609,-0.5 492,-0.5"/>
<text text-anchor="start" x="500" y="-18.5" font-family="Helvetica,sans-Serif" font-size="10.00">boost/numeric/bindings</text>
<text text-anchor="middle" x="550.5" y="-7.5" font-family="Helvetica,sans-Serif" font-size="10.00">/atlas/cblas_enum.hpp</text>
</a>
</g>
</g>
<!-- Node1&#45;&gt;Node6 -->
<g id="edge5" class="edge">
<title>Node1&#45;&gt;Node6</title>
<path fill="none" stroke="midnightblue" d="M453.38,-67.4C473.28,-56.97 495.99,-45.07 514.44,-35.4"/>
<polygon fill="midnightblue" stroke="midnightblue" points="516.16,-38.45 523.4,-30.71 512.91,-32.25 516.16,-38.45"/>
</g>
<!-- Node7 -->
<g id="node7" class="node">
<title>Node7</title>
<g id="a_node7"><a xlink:title=" ">
<polygon fill="none" stroke="#bfbfbf" points="627.5,-6 627.5,-25 745.5,-25 745.5,-6 627.5,-6"/>
<text text-anchor="middle" x="686.5" y="-13" font-family="Helvetica,sans-Serif" font-size="10.00">boost/static_assert.hpp</text>
</a>
</g>
</g>
<!-- Node1&#45;&gt;Node7 -->
<g id="edge6" class="edge">
<title>Node1&#45;&gt;Node7</title>
<path fill="none" stroke="midnightblue" d="M486.02,-70.72C538.01,-56.66 603.49,-38.95 645.18,-27.67"/>
<polygon fill="midnightblue" stroke="midnightblue" points="646.25,-31.01 654.99,-25.02 644.42,-24.25 646.25,-31.01"/>
</g>
<!-- Node8 -->
<g id="node8" class="node">
<title>Node8</title>
<g id="a_node8"><a xlink:title=" ">
<polygon fill="none" stroke="#bfbfbf" points="763.5,-0.5 763.5,-30.5 879.5,-30.5 879.5,-0.5 763.5,-0.5"/>
<text text-anchor="start" x="771.5" y="-18.5" font-family="Helvetica,sans-Serif" font-size="10.00">boost/type_traits/same</text>
<text text-anchor="middle" x="821.5" y="-7.5" font-family="Helvetica,sans-Serif" font-size="10.00">_traits.hpp</text>
</a>
</g>
</g>
<!-- Node1&#45;&gt;Node8 -->
<g id="edge7" class="edge">
<title>Node1&#45;&gt;Node8</title>
<path fill="none" stroke="midnightblue" d="M486.06,-79.21C554.55,-67.71 655.74,-50.22 753.38,-31.18"/>
<polygon fill="midnightblue" stroke="midnightblue" points="754.28,-34.57 763.42,-29.21 752.94,-27.7 754.28,-34.57"/>
</g>
</g>
</svg>
