<?xml version="1.0" encoding="UTF-8" standalone="no"?>
<!DOCTYPE svg PUBLIC "-//W3C//DTD SVG 1.1//EN"
 "http://www.w3.org/Graphics/SVG/1.1/DTD/svg11.dtd">
<!-- Generated by graphviz version 2.48.0 (20210719.0153)
 -->
<!-- Title: /github/workspace/kratos/integration/prism_gaussian_integration_points.h Pages: 1 -->
<svg width="959pt" height="206pt"
 viewBox="0.00 0.00 959.00 206.00" xmlns="http://www.w3.org/2000/svg" xmlns:xlink="http://www.w3.org/1999/xlink">
<g id="graph0" class="graph" transform="scale(1 1) rotate(0) translate(4 202)">
<title>/github/workspace/kratos/integration/prism_gaussian_integration_points.h</title>
<!-- Node1 -->
<g id="node1" class="node">
<title>Node1</title>
<g id="a_node1"><a xlink:title=" ">
<polygon fill="#bfbfbf" stroke="black" points="294.5,-156.5 294.5,-197.5 430.5,-197.5 430.5,-156.5 294.5,-156.5"/>
<text text-anchor="start" x="302.5" y="-185.5" font-family="Helvetica,sans-Serif" font-size="10.00">/github/workspace/kratos</text>
<text text-anchor="start" x="302.5" y="-174.5" font-family="Helvetica,sans-Serif" font-size="10.00">/integration/prism_gaussian</text>
<text text-anchor="middle" x="362.5" y="-163.5" font-family="Helvetica,sans-Serif" font-size="10.00">_integration_points.h</text>
</a>
</g>
</g>
<!-- Node2 -->
<g id="node2" class="node">
<title>Node2</title>
<g id="a_node2"><a xlink:href="../../d7/dfd/prism__3d__15_8h.html" target="_top" xlink:title=" ">
<polygon fill="none" stroke="black" points="128.5,-89.5 128.5,-119.5 262.5,-119.5 262.5,-89.5 128.5,-89.5"/>
<text text-anchor="start" x="136.5" y="-107.5" font-family="Helvetica,sans-Serif" font-size="10.00">/github/workspace/kratos</text>
<text text-anchor="middle" x="195.5" y="-96.5" font-family="Helvetica,sans-Serif" font-size="10.00">/geometries/prism_3d_15.h</text>
</a>
</g>
</g>
<!-- Node1&#45;&gt;Node2 -->
<g id="edge1" class="edge">
<title>Node1&#45;&gt;Node2</title>
<path fill="none" stroke="midnightblue" d="M306.67,-152.43C280.85,-141.53 251.05,-128.95 228.8,-119.56"/>
<polygon fill="midnightblue" stroke="midnightblue" points="305.41,-155.7 315.98,-156.36 308.13,-149.25 305.41,-155.7"/>
</g>
<!-- Node4 -->
<g id="node4" class="node">
<title>Node4</title>
<g id="a_node4"><a xlink:href="../../da/dad/prism__3d__6_8h.html" target="_top" xlink:title=" ">
<polygon fill="none" stroke="black" points="298.5,-89.5 298.5,-119.5 426.5,-119.5 426.5,-89.5 298.5,-89.5"/>
<text text-anchor="start" x="306.5" y="-107.5" font-family="Helvetica,sans-Serif" font-size="10.00">/github/workspace/kratos</text>
<text text-anchor="middle" x="362.5" y="-96.5" font-family="Helvetica,sans-Serif" font-size="10.00">/geometries/prism_3d_6.h</text>
</a>
</g>
</g>
<!-- Node1&#45;&gt;Node4 -->
<g id="edge3" class="edge">
<title>Node1&#45;&gt;Node4</title>
<path fill="none" stroke="midnightblue" d="M362.5,-146.08C362.5,-137.01 362.5,-127.45 362.5,-119.89"/>
<polygon fill="midnightblue" stroke="midnightblue" points="359,-146.36 362.5,-156.36 366,-146.36 359,-146.36"/>
</g>
<!-- Node9 -->
<g id="node9" class="node">
<title>Node9</title>
<g id="a_node9"><a xlink:href="../../dd/d3d/integration__rules_8cpp.html" target="_top" xlink:title=" ">
<polygon fill="none" stroke="black" points="444.5,-89.5 444.5,-119.5 590.5,-119.5 590.5,-89.5 444.5,-89.5"/>
<text text-anchor="start" x="452.5" y="-107.5" font-family="Helvetica,sans-Serif" font-size="10.00">/github/workspace/kratos</text>
<text text-anchor="middle" x="517.5" y="-96.5" font-family="Helvetica,sans-Serif" font-size="10.00">/sources/integration_rules.cpp</text>
</a>
</g>
</g>
<!-- Node1&#45;&gt;Node9 -->
<g id="edge9" class="edge">
<title>Node1&#45;&gt;Node9</title>
<path fill="none" stroke="midnightblue" d="M414.92,-152.16C438.65,-141.36 465.9,-128.97 486.35,-119.67"/>
<polygon fill="midnightblue" stroke="midnightblue" points="413.33,-149.04 405.68,-156.36 416.23,-155.41 413.33,-149.04"/>
</g>
<!-- Node3 -->
<g id="node3" class="node">
<title>Node3</title>
<g id="a_node3"><a xlink:href="../../dc/d93/structural__application_8cpp.html" target="_top" xlink:title=" ">
<polygon fill="none" stroke="black" points="0,-6 0,-47 155,-47 155,-6 0,-6"/>
<text text-anchor="start" x="8" y="-35" font-family="Helvetica,sans-Serif" font-size="10.00">/github/workspace/applications</text>
<text text-anchor="start" x="8" y="-24" font-family="Helvetica,sans-Serif" font-size="10.00">/structural_application/structural</text>
<text text-anchor="middle" x="77.5" y="-13" font-family="Helvetica,sans-Serif" font-size="10.00">_application.cpp</text>
</a>
</g>
</g>
<!-- Node2&#45;&gt;Node3 -->
<g id="edge2" class="edge">
<title>Node2&#45;&gt;Node3</title>
<path fill="none" stroke="midnightblue" d="M164.9,-83.79C147.46,-72.56 125.66,-58.52 108.2,-47.27"/>
<polygon fill="midnightblue" stroke="midnightblue" points="163.28,-86.91 173.58,-89.38 167.07,-81.03 163.28,-86.91"/>
</g>
<!-- Node4&#45;&gt;Node3 -->
<g id="edge8" class="edge">
<title>Node4&#45;&gt;Node3</title>
<path fill="none" stroke="midnightblue" d="M294.37,-86.92C255.86,-77.37 206.88,-64.93 163.5,-53 156.74,-51.14 149.7,-49.15 142.69,-47.13"/>
<polygon fill="midnightblue" stroke="midnightblue" points="293.88,-90.41 304.43,-89.41 295.57,-83.61 293.88,-90.41"/>
</g>
<!-- Node5 -->
<g id="node5" class="node">
<title>Node5</title>
<g id="a_node5"><a xlink:href="../../db/dc2/unsaturated__soils__element__2phase_8cpp.html" target="_top" xlink:title=" ">
<polygon fill="none" stroke="black" points="173,-0.5 173,-52.5 354,-52.5 354,-0.5 173,-0.5"/>
<text text-anchor="start" x="181" y="-40.5" font-family="Helvetica,sans-Serif" font-size="10.00">/github/workspace/applications</text>
<text text-anchor="start" x="181" y="-29.5" font-family="Helvetica,sans-Serif" font-size="10.00">/structural_application/custom</text>
<text text-anchor="start" x="181" y="-18.5" font-family="Helvetica,sans-Serif" font-size="10.00">_elements/unsaturated_soils_element</text>
<text text-anchor="middle" x="263.5" y="-7.5" font-family="Helvetica,sans-Serif" font-size="10.00">_2phase.cpp</text>
</a>
</g>
</g>
<!-- Node4&#45;&gt;Node5 -->
<g id="edge4" class="edge">
<title>Node4&#45;&gt;Node5</title>
<path fill="none" stroke="midnightblue" d="M335.83,-83.03C323.59,-73.63 308.96,-62.4 296.07,-52.5"/>
<polygon fill="midnightblue" stroke="midnightblue" points="333.82,-85.89 343.88,-89.2 338.08,-80.34 333.82,-85.89"/>
</g>
<!-- Node6 -->
<g id="node6" class="node">
<title>Node6</title>
<g id="a_node6"><a xlink:href="../../d8/da8/unsaturated__soils__element__2phase__small__strain_8cpp.html" target="_top" xlink:title=" ">
<polygon fill="none" stroke="black" points="372,-0.5 372,-52.5 553,-52.5 553,-0.5 372,-0.5"/>
<text text-anchor="start" x="380" y="-40.5" font-family="Helvetica,sans-Serif" font-size="10.00">/github/workspace/applications</text>
<text text-anchor="start" x="380" y="-29.5" font-family="Helvetica,sans-Serif" font-size="10.00">/structural_application/custom</text>
<text text-anchor="start" x="380" y="-18.5" font-family="Helvetica,sans-Serif" font-size="10.00">_elements/unsaturated_soils_element</text>
<text text-anchor="middle" x="462.5" y="-7.5" font-family="Helvetica,sans-Serif" font-size="10.00">_2phase_small_strain.cpp</text>
</a>
</g>
</g>
<!-- Node4&#45;&gt;Node6 -->
<g id="edge5" class="edge">
<title>Node4&#45;&gt;Node6</title>
<path fill="none" stroke="midnightblue" d="M389.43,-83.03C401.8,-73.63 416.58,-62.4 429.6,-52.5"/>
<polygon fill="midnightblue" stroke="midnightblue" points="387.15,-80.37 381.31,-89.2 391.39,-85.94 387.15,-80.37"/>
</g>
<!-- Node7 -->
<g id="node7" class="node">
<title>Node7</title>
<g id="a_node7"><a xlink:href="../../dc/d7c/unsaturated__soils__element__3phase_8cpp.html" target="_top" xlink:title=" ">
<polygon fill="none" stroke="black" points="571,-0.5 571,-52.5 752,-52.5 752,-0.5 571,-0.5"/>
<text text-anchor="start" x="579" y="-40.5" font-family="Helvetica,sans-Serif" font-size="10.00">/github/workspace/applications</text>
<text text-anchor="start" x="579" y="-29.5" font-family="Helvetica,sans-Serif" font-size="10.00">/structural_application/custom</text>
<text text-anchor="start" x="579" y="-18.5" font-family="Helvetica,sans-Serif" font-size="10.00">_elements/unsaturated_soils_element</text>
<text text-anchor="middle" x="661.5" y="-7.5" font-family="Helvetica,sans-Serif" font-size="10.00">_3phase.cpp</text>
</a>
</g>
</g>
<!-- Node4&#45;&gt;Node7 -->
<g id="edge6" class="edge">
<title>Node4&#45;&gt;Node7</title>
<path fill="none" stroke="midnightblue" d="M428.72,-86.86C467.68,-77.05 517.9,-64.37 562.5,-53 565.25,-52.3 568.05,-51.58 570.87,-50.86"/>
<polygon fill="midnightblue" stroke="midnightblue" points="427.4,-83.59 418.55,-89.42 429.11,-90.38 427.4,-83.59"/>
</g>
<!-- Node8 -->
<g id="node8" class="node">
<title>Node8</title>
<g id="a_node8"><a xlink:href="../../dc/dc6/unsaturated__soils__element__3phase__small__strain_8cpp.html" target="_top" xlink:title=" ">
<polygon fill="none" stroke="black" points="770,-0.5 770,-52.5 951,-52.5 951,-0.5 770,-0.5"/>
<text text-anchor="start" x="778" y="-40.5" font-family="Helvetica,sans-Serif" font-size="10.00">/github/workspace/applications</text>
<text text-anchor="start" x="778" y="-29.5" font-family="Helvetica,sans-Serif" font-size="10.00">/structural_application/custom</text>
<text text-anchor="start" x="778" y="-18.5" font-family="Helvetica,sans-Serif" font-size="10.00">_elements/unsaturated_soils_element</text>
<text text-anchor="middle" x="860.5" y="-7.5" font-family="Helvetica,sans-Serif" font-size="10.00">_3phase_small_strain.cpp</text>
</a>
</g>
</g>
<!-- Node4&#45;&gt;Node8 -->
<g id="edge7" class="edge">
<title>Node4&#45;&gt;Node8</title>
<path fill="none" stroke="midnightblue" d="M436.68,-88.91C581.35,-67.32 621.33,-78.66 761.5,-53 764.29,-52.49 767.12,-51.94 769.98,-51.37"/>
<polygon fill="midnightblue" stroke="midnightblue" points="435.9,-85.49 426.54,-90.46 436.95,-92.41 435.9,-85.49"/>
</g>
</g>
</svg>
