<?xml version="1.0" encoding="UTF-8" standalone="no"?>
<!DOCTYPE svg PUBLIC "-//W3C//DTD SVG 1.1//EN"
 "http://www.w3.org/Graphics/SVG/1.1/DTD/svg11.dtd">
<!-- Generated by graphviz version 2.48.0 (20210719.0153)
 -->
<!-- Title: /github/workspace/kratos/utilities/timer.h Pages: 1 -->
<svg width="1751pt" height="395pt"
 viewBox="0.00 0.00 1750.59 395.00" xmlns="http://www.w3.org/2000/svg" xmlns:xlink="http://www.w3.org/1999/xlink">
<g id="graph0" class="graph" transform="scale(1 1) rotate(0) translate(4 391)">
<title>/github/workspace/kratos/utilities/timer.h</title>
<!-- Node1 -->
<g id="node1" class="node">
<title>Node1</title>
<g id="a_node1"><a xlink:title=" ">
<polygon fill="#bfbfbf" stroke="black" points="1098.5,-356.5 1098.5,-386.5 1224.5,-386.5 1224.5,-356.5 1098.5,-356.5"/>
<text text-anchor="start" x="1106.5" y="-374.5" font-family="Helvetica,sans-Serif" font-size="10.00">/github/workspace/kratos</text>
<text text-anchor="middle" x="1161.5" y="-363.5" font-family="Helvetica,sans-Serif" font-size="10.00">/utilities/timer.h</text>
</a>
</g>
</g>
<!-- Node2 -->
<g id="node2" class="node">
<title>Node2</title>
<g id="a_node2"><a xlink:href="../../dc/d74/residualbased__elimination__builder__and__solver_8h.html" target="_top" xlink:title=" ">
<polygon fill="none" stroke="black" points="993.5,-267.5 993.5,-319.5 1155.5,-319.5 1155.5,-267.5 993.5,-267.5"/>
<text text-anchor="start" x="1001.5" y="-307.5" font-family="Helvetica,sans-Serif" font-size="10.00">/github/workspace/kratos</text>
<text text-anchor="start" x="1001.5" y="-296.5" font-family="Helvetica,sans-Serif" font-size="10.00">/solving_strategies/builder</text>
<text text-anchor="start" x="1001.5" y="-285.5" font-family="Helvetica,sans-Serif" font-size="10.00">_and_solvers/residualbased</text>
<text text-anchor="middle" x="1074.5" y="-274.5" font-family="Helvetica,sans-Serif" font-size="10.00">_elimination_builder_and_solver.h</text>
</a>
</g>
</g>
<!-- Node1&#45;&gt;Node2 -->
<g id="edge1" class="edge">
<title>Node1&#45;&gt;Node2</title>
<path fill="none" stroke="midnightblue" d="M1137.44,-349.49C1126.81,-340.2 1114.23,-329.21 1103.12,-319.5"/>
<polygon fill="midnightblue" stroke="midnightblue" points="1135.3,-352.26 1145.14,-356.2 1139.91,-346.99 1135.3,-352.26"/>
</g>
<!-- Node18 -->
<g id="node18" class="node">
<title>Node18</title>
<g id="a_node18"><a xlink:href="../../df/dab/projection_8h.html" target="_top" xlink:title=" ">
<polygon fill="none" stroke="black" points="1324,-273 1324,-314 1475,-314 1475,-273 1324,-273"/>
<text text-anchor="start" x="1332" y="-302" font-family="Helvetica,sans-Serif" font-size="10.00">/github/workspace/applications</text>
<text text-anchor="start" x="1332" y="-291" font-family="Helvetica,sans-Serif" font-size="10.00">/MeshingApplication/custom</text>
<text text-anchor="middle" x="1399.5" y="-280" font-family="Helvetica,sans-Serif" font-size="10.00">_utilities/projection.h</text>
</a>
</g>
</g>
<!-- Node1&#45;&gt;Node18 -->
<g id="edge26" class="edge">
<title>Node1&#45;&gt;Node18</title>
<path fill="none" stroke="midnightblue" d="M1215.41,-353.29C1251.96,-341.61 1300.35,-326.16 1338.34,-314.03"/>
<polygon fill="midnightblue" stroke="midnightblue" points="1213.89,-350.1 1205.43,-356.47 1216.02,-356.76 1213.89,-350.1"/>
</g>
<!-- Node3 -->
<g id="node3" class="node">
<title>Node3</title>
<g id="a_node3"><a xlink:href="../../d2/d3a/residualbased__linear__strategy_8h.html" target="_top" xlink:title=" ">
<polygon fill="none" stroke="black" points="891,-184 891,-225 1046,-225 1046,-184 891,-184"/>
<text text-anchor="start" x="899" y="-213" font-family="Helvetica,sans-Serif" font-size="10.00">/github/workspace/kratos</text>
<text text-anchor="start" x="899" y="-202" font-family="Helvetica,sans-Serif" font-size="10.00">/solving_strategies/strategies</text>
<text text-anchor="middle" x="968.5" y="-191" font-family="Helvetica,sans-Serif" font-size="10.00">/residualbased_linear_strategy.h</text>
</a>
</g>
</g>
<!-- Node2&#45;&gt;Node3 -->
<g id="edge2" class="edge">
<title>Node2&#45;&gt;Node3</title>
<path fill="none" stroke="midnightblue" d="M1035.93,-260.85C1021.36,-248.88 1005.2,-235.62 992.36,-225.08"/>
<polygon fill="midnightblue" stroke="midnightblue" points="1033.89,-263.7 1043.84,-267.34 1038.33,-258.29 1033.89,-263.7"/>
</g>
<!-- Node11 -->
<g id="node11" class="node">
<title>Node11</title>
<g id="a_node11"><a xlink:href="../../da/d32/residualbased__fluid__strategy__coupled_8h.html" target="_top" xlink:title=" ">
<polygon fill="none" stroke="black" points="1507,-89.5 1507,-141.5 1716,-141.5 1716,-89.5 1507,-89.5"/>
<text text-anchor="start" x="1515" y="-129.5" font-family="Helvetica,sans-Serif" font-size="10.00">/github/workspace/applications</text>
<text text-anchor="start" x="1515" y="-118.5" font-family="Helvetica,sans-Serif" font-size="10.00">/incompressible_fluid_application</text>
<text text-anchor="start" x="1515" y="-107.5" font-family="Helvetica,sans-Serif" font-size="10.00">/custom_strategies/strategies/residualbased</text>
<text text-anchor="middle" x="1611.5" y="-96.5" font-family="Helvetica,sans-Serif" font-size="10.00">_fluid_strategy_coupled.h</text>
</a>
</g>
</g>
<!-- Node2&#45;&gt;Node11 -->
<g id="edge23" class="edge">
<title>Node2&#45;&gt;Node11</title>
<path fill="none" stroke="midnightblue" d="M1070.01,-257.33C1068.86,-231.56 1072.2,-197.75 1093.5,-178 1159.6,-116.72 1408.44,-155.87 1497.5,-142 1500.61,-141.52 1503.75,-141 1506.93,-140.45"/>
<polygon fill="midnightblue" stroke="midnightblue" points="1066.53,-257.73 1070.71,-267.47 1073.52,-257.25 1066.53,-257.73"/>
</g>
<!-- Node13 -->
<g id="node13" class="node">
<title>Node13</title>
<g id="a_node13"><a xlink:href="../../da/db6/residualbased__newton__raphson__strategy_8h.html" target="_top" xlink:title=" ">
<polygon fill="none" stroke="black" points="319.5,-178.5 319.5,-230.5 475.5,-230.5 475.5,-178.5 319.5,-178.5"/>
<text text-anchor="start" x="327.5" y="-218.5" font-family="Helvetica,sans-Serif" font-size="10.00">/github/workspace/kratos</text>
<text text-anchor="start" x="327.5" y="-207.5" font-family="Helvetica,sans-Serif" font-size="10.00">/solving_strategies/strategies</text>
<text text-anchor="start" x="327.5" y="-196.5" font-family="Helvetica,sans-Serif" font-size="10.00">/residualbased_newton_raphson</text>
<text text-anchor="middle" x="397.5" y="-185.5" font-family="Helvetica,sans-Serif" font-size="10.00">_strategy.h</text>
</a>
</g>
</g>
<!-- Node2&#45;&gt;Node13 -->
<g id="edge16" class="edge">
<title>Node2&#45;&gt;Node13</title>
<path fill="none" stroke="midnightblue" d="M982.93,-280.73C848.9,-263.51 601.56,-231.72 475.62,-215.54"/>
<polygon fill="midnightblue" stroke="midnightblue" points="982.81,-284.25 993.17,-282.05 983.7,-277.3 982.81,-284.25"/>
</g>
<!-- Node15 -->
<g id="node15" class="node">
<title>Node15</title>
<g id="a_node15"><a xlink:href="../../d6/d05/residualbased__uzawa__newton__raphson__strategy_8h.html" target="_top" xlink:title=" ">
<polygon fill="none" stroke="black" points="227,-89.5 227,-141.5 400,-141.5 400,-89.5 227,-89.5"/>
<text text-anchor="start" x="235" y="-129.5" font-family="Helvetica,sans-Serif" font-size="10.00">/github/workspace/applications</text>
<text text-anchor="start" x="235" y="-118.5" font-family="Helvetica,sans-Serif" font-size="10.00">/structural_application/custom</text>
<text text-anchor="start" x="235" y="-107.5" font-family="Helvetica,sans-Serif" font-size="10.00">_strategies/strategies/residualbased</text>
<text text-anchor="middle" x="313.5" y="-96.5" font-family="Helvetica,sans-Serif" font-size="10.00">_uzawa_newton_raphson_strategy.h</text>
</a>
</g>
</g>
<!-- Node2&#45;&gt;Node15 -->
<g id="edge25" class="edge">
<title>Node2&#45;&gt;Node15</title>
<path fill="none" stroke="midnightblue" d="M983.61,-273.05C855.32,-245.34 613.95,-192.27 409.5,-142 406.4,-141.24 403.25,-140.45 400.07,-139.65"/>
<polygon fill="midnightblue" stroke="midnightblue" points="982.89,-276.47 993.4,-275.16 984.37,-269.63 982.89,-276.47"/>
</g>
<!-- Node16 -->
<g id="node16" class="node">
<title>Node16</title>
<g id="a_node16"><a xlink:href="../../d4/d77/newton__raphson__oss__strategy_8h.html" target="_top" xlink:title=" ">
<polygon fill="none" stroke="black" points="1102.5,-178.5 1102.5,-230.5 1282.5,-230.5 1282.5,-178.5 1102.5,-178.5"/>
<text text-anchor="start" x="1110.5" y="-218.5" font-family="Helvetica,sans-Serif" font-size="10.00">/github/workspace/applications</text>
<text text-anchor="start" x="1110.5" y="-207.5" font-family="Helvetica,sans-Serif" font-size="10.00">/incompressible_fluid_application</text>
<text text-anchor="start" x="1110.5" y="-196.5" font-family="Helvetica,sans-Serif" font-size="10.00">/custom_strategies/strategies/newton</text>
<text text-anchor="middle" x="1192.5" y="-185.5" font-family="Helvetica,sans-Serif" font-size="10.00">_raphson_oss_strategy.h</text>
</a>
</g>
</g>
<!-- Node2&#45;&gt;Node16 -->
<g id="edge21" class="edge">
<title>Node2&#45;&gt;Node16</title>
<path fill="none" stroke="midnightblue" d="M1116.93,-261.22C1130.57,-251.16 1145.49,-240.16 1158.45,-230.61"/>
<polygon fill="midnightblue" stroke="midnightblue" points="1114.6,-258.58 1108.63,-267.34 1118.76,-264.22 1114.6,-258.58"/>
</g>
<!-- Node17 -->
<g id="node17" class="node">
<title>Node17</title>
<g id="a_node17"><a xlink:href="../../d7/d57/structural__application_2custom__python_2add__custom__strategies__to__python_8cpp.html" target="_top" xlink:title=" ">
<polygon fill="none" stroke="black" points="1301,-178.5 1301,-230.5 1456,-230.5 1456,-178.5 1301,-178.5"/>
<text text-anchor="start" x="1309" y="-218.5" font-family="Helvetica,sans-Serif" font-size="10.00">/github/workspace/applications</text>
<text text-anchor="start" x="1309" y="-207.5" font-family="Helvetica,sans-Serif" font-size="10.00">/structural_application/custom</text>
<text text-anchor="start" x="1309" y="-196.5" font-family="Helvetica,sans-Serif" font-size="10.00">_python/add_custom_strategies</text>
<text text-anchor="middle" x="1378.5" y="-185.5" font-family="Helvetica,sans-Serif" font-size="10.00">_to_python.cpp</text>
</a>
</g>
</g>
<!-- Node2&#45;&gt;Node17 -->
<g id="edge24" class="edge">
<title>Node2&#45;&gt;Node17</title>
<path fill="none" stroke="midnightblue" d="M1165.42,-266.93C1204.28,-255.95 1250.14,-242.92 1291.5,-231 1294.52,-230.13 1297.61,-229.24 1300.72,-228.33"/>
<polygon fill="midnightblue" stroke="midnightblue" points="1164.37,-263.59 1155.7,-269.67 1166.27,-270.32 1164.37,-263.59"/>
</g>
<!-- Node4 -->
<g id="node4" class="node">
<title>Node4</title>
<g id="a_node4"><a xlink:href="../../d8/dd7/add__strategies__to__python_8cpp.html" target="_top" xlink:title=" ">
<polygon fill="none" stroke="black" points="418.5,-95 418.5,-136 544.5,-136 544.5,-95 418.5,-95"/>
<text text-anchor="start" x="426.5" y="-124" font-family="Helvetica,sans-Serif" font-size="10.00">/github/workspace/kratos</text>
<text text-anchor="start" x="426.5" y="-113" font-family="Helvetica,sans-Serif" font-size="10.00">/python/add_strategies</text>
<text text-anchor="middle" x="481.5" y="-102" font-family="Helvetica,sans-Serif" font-size="10.00">_to_python.cpp</text>
</a>
</g>
</g>
<!-- Node3&#45;&gt;Node4 -->
<g id="edge3" class="edge">
<title>Node3&#45;&gt;Node4</title>
<path fill="none" stroke="midnightblue" d="M880.64,-192.11C778.99,-178.62 617.95,-156.19 558.5,-142 551.38,-140.3 543.97,-138.24 536.69,-136.03"/>
<polygon fill="midnightblue" stroke="midnightblue" points="880.22,-195.59 890.6,-193.43 881.14,-188.65 880.22,-195.59"/>
</g>
<!-- Node5 -->
<g id="node5" class="node">
<title>Node5</title>
<g id="a_node5"><a xlink:href="../../d0/dc7/laplacian__meshmoving__strategy_8h.html" target="_top" xlink:title=" ">
<polygon fill="none" stroke="black" points="828.5,-89.5 828.5,-141.5 996.5,-141.5 996.5,-89.5 828.5,-89.5"/>
<text text-anchor="start" x="836.5" y="-129.5" font-family="Helvetica,sans-Serif" font-size="10.00">/github/workspace/applications</text>
<text text-anchor="start" x="836.5" y="-118.5" font-family="Helvetica,sans-Serif" font-size="10.00">/ALEapplication/custom_strategies</text>
<text text-anchor="start" x="836.5" y="-107.5" font-family="Helvetica,sans-Serif" font-size="10.00">/strategies/laplacian_meshmoving</text>
<text text-anchor="middle" x="912.5" y="-96.5" font-family="Helvetica,sans-Serif" font-size="10.00">_strategy.h</text>
</a>
</g>
</g>
<!-- Node3&#45;&gt;Node5 -->
<g id="edge4" class="edge">
<title>Node3&#45;&gt;Node5</title>
<path fill="none" stroke="midnightblue" d="M950.24,-175.13C943.32,-164.39 935.5,-152.23 928.78,-141.79"/>
<polygon fill="midnightblue" stroke="midnightblue" points="947.44,-177.24 955.79,-183.76 953.32,-173.46 947.44,-177.24"/>
</g>
<!-- Node7 -->
<g id="node7" class="node">
<title>Node7</title>
<g id="a_node7"><a xlink:href="../../de/d74/convection__diffusion__application_2custom__python_2add__custom__strategies__to__python_8cpp.html" target="_top" xlink:title=" ">
<polygon fill="none" stroke="black" points="477.5,-0.5 477.5,-52.5 667.5,-52.5 667.5,-0.5 477.5,-0.5"/>
<text text-anchor="start" x="485.5" y="-40.5" font-family="Helvetica,sans-Serif" font-size="10.00">/github/workspace/applications</text>
<text text-anchor="start" x="485.5" y="-29.5" font-family="Helvetica,sans-Serif" font-size="10.00">/convection_diffusion_application</text>
<text text-anchor="start" x="485.5" y="-18.5" font-family="Helvetica,sans-Serif" font-size="10.00">/custom_python/add_custom_strategies</text>
<text text-anchor="middle" x="572.5" y="-7.5" font-family="Helvetica,sans-Serif" font-size="10.00">_to_python.cpp</text>
</a>
</g>
</g>
<!-- Node3&#45;&gt;Node7 -->
<g id="edge6" class="edge">
<title>Node3&#45;&gt;Node7</title>
<path fill="none" stroke="midnightblue" d="M880.96,-191.83C772.81,-177.02 601.73,-152.2 591.5,-142 568.24,-118.81 566.9,-78.73 568.99,-52.67"/>
<polygon fill="midnightblue" stroke="midnightblue" points="880.51,-195.3 890.89,-193.18 881.46,-188.36 880.51,-195.3"/>
</g>
<!-- Node8 -->
<g id="node8" class="node">
<title>Node8</title>
<g id="a_node8"><a xlink:href="../../d3/d97/residualbased__convdiff__strategy_8h.html" target="_top" xlink:title=" ">
<polygon fill="none" stroke="black" points="601,-89.5 601,-141.5 810,-141.5 810,-89.5 601,-89.5"/>
<text text-anchor="start" x="609" y="-129.5" font-family="Helvetica,sans-Serif" font-size="10.00">/github/workspace/applications</text>
<text text-anchor="start" x="609" y="-118.5" font-family="Helvetica,sans-Serif" font-size="10.00">/convection_diffusion_application</text>
<text text-anchor="start" x="609" y="-107.5" font-family="Helvetica,sans-Serif" font-size="10.00">/custom_strategies/strategies/residualbased</text>
<text text-anchor="middle" x="705.5" y="-96.5" font-family="Helvetica,sans-Serif" font-size="10.00">_convdiff_strategy.h</text>
</a>
</g>
</g>
<!-- Node3&#45;&gt;Node8 -->
<g id="edge7" class="edge">
<title>Node3&#45;&gt;Node8</title>
<path fill="none" stroke="midnightblue" d="M899.94,-180.82C863.55,-168.78 818.75,-153.96 781.33,-141.58"/>
<polygon fill="midnightblue" stroke="midnightblue" points="898.88,-184.16 909.48,-183.98 901.08,-177.51 898.88,-184.16"/>
</g>
<!-- Node9 -->
<g id="node9" class="node">
<title>Node9</title>
<g id="a_node9"><a xlink:href="../../dc/dc8/incompressible__fluid__application_2custom__python_2add__custom__strategies__to__python_8cpp.html" target="_top" xlink:title=" ">
<polygon fill="none" stroke="black" points="1289.5,-0.5 1289.5,-52.5 1479.5,-52.5 1479.5,-0.5 1289.5,-0.5"/>
<text text-anchor="start" x="1297.5" y="-40.5" font-family="Helvetica,sans-Serif" font-size="10.00">/github/workspace/applications</text>
<text text-anchor="start" x="1297.5" y="-29.5" font-family="Helvetica,sans-Serif" font-size="10.00">/incompressible_fluid_application</text>
<text text-anchor="start" x="1297.5" y="-18.5" font-family="Helvetica,sans-Serif" font-size="10.00">/custom_python/add_custom_strategies</text>
<text text-anchor="middle" x="1384.5" y="-7.5" font-family="Helvetica,sans-Serif" font-size="10.00">_to_python.cpp</text>
</a>
</g>
</g>
<!-- Node3&#45;&gt;Node9 -->
<g id="edge9" class="edge">
<title>Node3&#45;&gt;Node9</title>
<path fill="none" stroke="midnightblue" d="M985.6,-174.9C1005.02,-142.83 1035.11,-94.55 1043.5,-89 1083,-62.85 1202.97,-45.6 1289.44,-36.2"/>
<polygon fill="midnightblue" stroke="midnightblue" points="982.36,-173.5 980.19,-183.87 988.35,-177.11 982.36,-173.5"/>
</g>
<!-- Node10 -->
<g id="node10" class="node">
<title>Node10</title>
<g id="a_node10"><a xlink:href="../../d1/d06/residualbased__fluid__strategy_8h.html" target="_top" xlink:title=" ">
<polygon fill="none" stroke="black" points="1053,-89.5 1053,-141.5 1262,-141.5 1262,-89.5 1053,-89.5"/>
<text text-anchor="start" x="1061" y="-129.5" font-family="Helvetica,sans-Serif" font-size="10.00">/github/workspace/applications</text>
<text text-anchor="start" x="1061" y="-118.5" font-family="Helvetica,sans-Serif" font-size="10.00">/incompressible_fluid_application</text>
<text text-anchor="start" x="1061" y="-107.5" font-family="Helvetica,sans-Serif" font-size="10.00">/custom_strategies/strategies/residualbased</text>
<text text-anchor="middle" x="1157.5" y="-96.5" font-family="Helvetica,sans-Serif" font-size="10.00">_fluid_strategy.h</text>
</a>
</g>
</g>
<!-- Node3&#45;&gt;Node10 -->
<g id="edge10" class="edge">
<title>Node3&#45;&gt;Node10</title>
<path fill="none" stroke="midnightblue" d="M1020.12,-179.74C1045.83,-167.9 1076.91,-153.59 1103.01,-141.58"/>
<polygon fill="midnightblue" stroke="midnightblue" points="1018.54,-176.61 1010.92,-183.98 1021.46,-182.97 1018.54,-176.61"/>
</g>
<!-- Node3&#45;&gt;Node11 -->
<g id="edge12" class="edge">
<title>Node3&#45;&gt;Node11</title>
<path fill="none" stroke="midnightblue" d="M1042.92,-181.6C1048.84,-180.25 1054.75,-179.02 1060.5,-178 1252.36,-143.82 1304.84,-171.34 1497.5,-142 1500.61,-141.53 1503.76,-141.02 1506.93,-140.48"/>
<polygon fill="midnightblue" stroke="midnightblue" points="1041.9,-178.25 1032.99,-183.98 1043.53,-185.06 1041.9,-178.25"/>
</g>
<!-- Node12 -->
<g id="node12" class="node">
<title>Node12</title>
<g id="a_node12"><a xlink:href="../../de/d5b/residualbased___n_d__fluid__strategy_8h.html" target="_top" xlink:title=" ">
<polygon fill="none" stroke="black" points="1280,-89.5 1280,-141.5 1489,-141.5 1489,-89.5 1280,-89.5"/>
<text text-anchor="start" x="1288" y="-129.5" font-family="Helvetica,sans-Serif" font-size="10.00">/github/workspace/applications</text>
<text text-anchor="start" x="1288" y="-118.5" font-family="Helvetica,sans-Serif" font-size="10.00">/incompressible_fluid_application</text>
<text text-anchor="start" x="1288" y="-107.5" font-family="Helvetica,sans-Serif" font-size="10.00">/custom_strategies/strategies/residualbased</text>
<text text-anchor="middle" x="1384.5" y="-96.5" font-family="Helvetica,sans-Serif" font-size="10.00">_ND_fluid_strategy.h</text>
</a>
</g>
</g>
<!-- Node3&#45;&gt;Node12 -->
<g id="edge14" class="edge">
<title>Node3&#45;&gt;Node12</title>
<path fill="none" stroke="midnightblue" d="M1045.58,-181.53C1050.61,-180.28 1055.62,-179.09 1060.5,-178 1152.91,-157.33 1177.6,-160.34 1270.5,-142 1273.58,-141.39 1276.71,-140.76 1279.87,-140.12"/>
<polygon fill="midnightblue" stroke="midnightblue" points="1044.71,-178.14 1035.88,-183.99 1046.44,-184.92 1044.71,-178.14"/>
</g>
<!-- Node6 -->
<g id="node6" class="node">
<title>Node6</title>
<g id="a_node6"><a xlink:href="../../d4/d38/_a_l_eapplication_2custom__python_2add__custom__strategies__to__python_8cpp.html" target="_top" xlink:title=" ">
<polygon fill="none" stroke="black" points="819.5,-6 819.5,-47 1005.5,-47 1005.5,-6 819.5,-6"/>
<text text-anchor="start" x="827.5" y="-35" font-family="Helvetica,sans-Serif" font-size="10.00">/github/workspace/applications</text>
<text text-anchor="start" x="827.5" y="-24" font-family="Helvetica,sans-Serif" font-size="10.00">/ALEapplication/custom_python</text>
<text text-anchor="middle" x="912.5" y="-13" font-family="Helvetica,sans-Serif" font-size="10.00">/add_custom_strategies_to_python.cpp</text>
</a>
</g>
</g>
<!-- Node5&#45;&gt;Node6 -->
<g id="edge5" class="edge">
<title>Node5&#45;&gt;Node6</title>
<path fill="none" stroke="midnightblue" d="M912.5,-79.16C912.5,-68.21 912.5,-56.55 912.5,-47.08"/>
<polygon fill="midnightblue" stroke="midnightblue" points="909,-79.34 912.5,-89.34 916,-79.34 909,-79.34"/>
</g>
<!-- Node8&#45;&gt;Node7 -->
<g id="edge8" class="edge">
<title>Node8&#45;&gt;Node7</title>
<path fill="none" stroke="midnightblue" d="M658.55,-83.79C642.94,-73.58 625.76,-62.34 610.88,-52.61"/>
<polygon fill="midnightblue" stroke="midnightblue" points="656.75,-86.79 667.03,-89.34 660.58,-80.93 656.75,-86.79"/>
</g>
<!-- Node10&#45;&gt;Node9 -->
<g id="edge11" class="edge">
<title>Node10&#45;&gt;Node9</title>
<path fill="none" stroke="midnightblue" d="M1232.23,-85.86C1260.33,-75.09 1292.04,-62.94 1319.22,-52.52"/>
<polygon fill="midnightblue" stroke="midnightblue" points="1230.94,-82.61 1222.85,-89.45 1233.44,-89.14 1230.94,-82.61"/>
</g>
<!-- Node11&#45;&gt;Node9 -->
<g id="edge13" class="edge">
<title>Node11&#45;&gt;Node9</title>
<path fill="none" stroke="midnightblue" d="M1536.77,-85.86C1508.67,-75.09 1476.96,-62.94 1449.78,-52.52"/>
<polygon fill="midnightblue" stroke="midnightblue" points="1535.56,-89.14 1546.15,-89.45 1538.06,-82.61 1535.56,-89.14"/>
</g>
<!-- Node12&#45;&gt;Node9 -->
<g id="edge15" class="edge">
<title>Node12&#45;&gt;Node9</title>
<path fill="none" stroke="midnightblue" d="M1384.5,-79.19C1384.5,-70.28 1384.5,-60.9 1384.5,-52.61"/>
<polygon fill="midnightblue" stroke="midnightblue" points="1381,-79.34 1384.5,-89.34 1388,-79.34 1381,-79.34"/>
</g>
<!-- Node13&#45;&gt;Node4 -->
<g id="edge17" class="edge">
<title>Node13&#45;&gt;Node4</title>
<path fill="none" stroke="midnightblue" d="M429.03,-170.85C440.32,-159.15 452.7,-146.33 462.59,-136.08"/>
<polygon fill="midnightblue" stroke="midnightblue" points="426.22,-168.71 421.8,-178.34 431.26,-173.57 426.22,-168.71"/>
</g>
<!-- Node14 -->
<g id="node14" class="node">
<title>Node14</title>
<g id="a_node14"><a xlink:href="../../d4/de9/residualbased__convdiff__strategy__nonlinear_8h.html" target="_top" xlink:title=" ">
<polygon fill="none" stroke="black" points="0,-89.5 0,-141.5 209,-141.5 209,-89.5 0,-89.5"/>
<text text-anchor="start" x="8" y="-129.5" font-family="Helvetica,sans-Serif" font-size="10.00">/github/workspace/applications</text>
<text text-anchor="start" x="8" y="-118.5" font-family="Helvetica,sans-Serif" font-size="10.00">/convection_diffusion_application</text>
<text text-anchor="start" x="8" y="-107.5" font-family="Helvetica,sans-Serif" font-size="10.00">/custom_strategies/strategies/residualbased</text>
<text text-anchor="middle" x="104.5" y="-96.5" font-family="Helvetica,sans-Serif" font-size="10.00">_convdiff_strategy_nonlinear.h</text>
</a>
</g>
</g>
<!-- Node13&#45;&gt;Node14 -->
<g id="edge18" class="edge">
<title>Node13&#45;&gt;Node14</title>
<path fill="none" stroke="midnightblue" d="M309.78,-177.45C271.47,-166.08 226.75,-152.8 188.84,-141.54"/>
<polygon fill="midnightblue" stroke="midnightblue" points="308.78,-180.81 319.37,-180.3 310.78,-174.1 308.78,-180.81"/>
</g>
<!-- Node13&#45;&gt;Node15 -->
<g id="edge20" class="edge">
<title>Node13&#45;&gt;Node15</title>
<path fill="none" stroke="midnightblue" d="M366.19,-171.08C356.79,-161.34 346.62,-150.8 337.74,-141.61"/>
<polygon fill="midnightblue" stroke="midnightblue" points="363.74,-173.57 373.2,-178.34 368.78,-168.71 363.74,-173.57"/>
</g>
<!-- Node14&#45;&gt;Node7 -->
<g id="edge19" class="edge">
<title>Node14&#45;&gt;Node7</title>
<path fill="none" stroke="midnightblue" d="M218.99,-88.74C312.06,-70.35 408.16,-53.97 477.33,-42.65"/>
<polygon fill="midnightblue" stroke="midnightblue" points="218.25,-85.32 209.12,-90.7 219.61,-92.18 218.25,-85.32"/>
</g>
<!-- Node16&#45;&gt;Node9 -->
<g id="edge22" class="edge">
<title>Node16&#45;&gt;Node9</title>
<path fill="none" stroke="midnightblue" d="M1293.06,-178.29C1372.97,-170.58 1694.33,-175.86 1725.5,-142 1801.1,-59.87 1604.87,-36.61 1479.56,-30.05"/>
<polygon fill="midnightblue" stroke="midnightblue" points="1292.22,-174.87 1282.74,-179.59 1293.1,-181.81 1292.22,-174.87"/>
</g>
<!-- Node19 -->
<g id="node19" class="node">
<title>Node19</title>
<g id="a_node19"><a xlink:href="../../d4/d31/_meshing_application_2custom__python_2add__custom__utilities__to__python_8cpp.html" target="_top" xlink:title=" ">
<polygon fill="none" stroke="black" points="1474,-178.5 1474,-230.5 1625,-230.5 1625,-178.5 1474,-178.5"/>
<text text-anchor="start" x="1482" y="-218.5" font-family="Helvetica,sans-Serif" font-size="10.00">/github/workspace/applications</text>
<text text-anchor="start" x="1482" y="-207.5" font-family="Helvetica,sans-Serif" font-size="10.00">/MeshingApplication/custom</text>
<text text-anchor="start" x="1482" y="-196.5" font-family="Helvetica,sans-Serif" font-size="10.00">_python/add_custom_utilities</text>
<text text-anchor="middle" x="1549.5" y="-185.5" font-family="Helvetica,sans-Serif" font-size="10.00">_to_python.cpp</text>
</a>
</g>
</g>
<!-- Node18&#45;&gt;Node19 -->
<g id="edge27" class="edge">
<title>Node18&#45;&gt;Node19</title>
<path fill="none" stroke="midnightblue" d="M1441.82,-267.95C1461.96,-256.28 1486,-242.33 1506.25,-230.58"/>
<polygon fill="midnightblue" stroke="midnightblue" points="1440.06,-264.93 1433.16,-272.98 1443.57,-270.99 1440.06,-264.93"/>
</g>
</g>
</svg>
