<?xml version="1.0" encoding="UTF-8" standalone="no"?>
<!DOCTYPE svg PUBLIC "-//W3C//DTD SVG 1.1//EN"
 "http://www.w3.org/Graphics/SVG/1.1/DTD/svg11.dtd">
<!-- Generated by graphviz version 2.48.0 (20210719.0153)
 -->
<!-- Title: /github/workspace/applications/ULFapplication/custom_elements/updated_lagrangian_fluid_inc.h Pages: 1 -->
<!--zoomable 284 -->
<svg id="main" version="1.1" xmlns="http://www.w3.org/2000/svg" xmlns:xlink="http://www.w3.org/1999/xlink" xml:space="preserve" onload="init(evt)">
<style type="text/css"><![CDATA[
.edge:hover path { stroke: red; }
.edge:hover polygon { stroke: red; fill: red; }
]]></style>
<script type="text/javascript"><![CDATA[
var edges = document.getElementsByTagName('g');
if (edges && edges.length) {
  for (var i=0;i<edges.length;i++) {
    if (edges[i].id.substr(0,4)=='edge') {
      edges[i].setAttribute('class','edge');
    }
  }
}
]]></script>
        <defs>
                <circle id="rim" cx="0" cy="0" r="7"/>
                <circle id="rim2" cx="0" cy="0" r="3.5"/>
                <g id="zoomPlus">
                        <use xlink:href="#rim" fill="#404040">
                                <set attributeName="fill" to="#808080" begin="zoomplus.mouseover" end="zoomplus.mouseout"/>
                        </use>
                        <path d="M-4,0h8M0,-4v8" fill="none" stroke="white" stroke-width="1.5" pointer-events="none"/>
                </g>
                <g id="zoomMin">
                        <use xlink:href="#rim" fill="#404040">
                                <set attributeName="fill" to="#808080" begin="zoomminus.mouseover" end="zoomminus.mouseout"/>
                        </use>
                        <path d="M-4,0h8" fill="none" stroke="white" stroke-width="1.5" pointer-events="none"/>
                </g>
                <g id="dirArrow">
                        <path fill="none" stroke="white" stroke-width="1.5" d="M0,-3.0v7 M-2.5,-0.5L0,-3.0L2.5,-0.5"/>
                </g>
               <g id="resetDef">
                       <use xlink:href="#rim2" fill="#404040">
                               <set attributeName="fill" to="#808080" begin="reset.mouseover" end="reset.mouseout"/>
                       </use>
               </g>
        </defs>

<script type="text/javascript">
var viewWidth = 1858;
var viewHeight = 284;
var sectionId = 'dynsection-1';
</script>
<script xlink:href="../../svgpan.js"/>
<svg id="graph" class="graph">
<g id="viewport">
<title>/github/workspace/applications/ULFapplication/custom_elements/updated_lagrangian_fluid_inc.h</title>
<!-- Node1 -->
<g id="node1" class="node">
<title>Node1</title>
<g id="a_node1"><a xlink:title=" ">
<polygon fill="#bfbfbf" stroke="black" points="1194,-234.5 1194,-275.5 1360,-275.5 1360,-234.5 1194,-234.5"/>
<text text-anchor="start" x="1202" y="-263.5" font-family="Helvetica,sans-Serif" font-size="10.00">/github/workspace/applications</text>
<text text-anchor="start" x="1202" y="-252.5" font-family="Helvetica,sans-Serif" font-size="10.00">/ULFapplication/custom_elements</text>
<text text-anchor="middle" x="1277" y="-241.5" font-family="Helvetica,sans-Serif" font-size="10.00">/updated_lagrangian_fluid_inc.h</text>
</a>
</g>
</g>
<!-- Node2 -->
<g id="node2" class="node">
<title>Node2</title>
<g id="a_node2"><a xlink:href="../../d2/d87/updated__lagrangian__fluid__inc_8cpp.html" target="_top" xlink:title=" ">
<polygon fill="none" stroke="black" points="0,-78.5 0,-119.5 166,-119.5 166,-78.5 0,-78.5"/>
<text text-anchor="start" x="8" y="-107.5" font-family="Helvetica,sans-Serif" font-size="10.00">/github/workspace/applications</text>
<text text-anchor="start" x="8" y="-96.5" font-family="Helvetica,sans-Serif" font-size="10.00">/ULFapplication/custom_elements</text>
<text text-anchor="middle" x="83" y="-85.5" font-family="Helvetica,sans-Serif" font-size="10.00">/updated_lagrangian_fluid_inc.cpp</text>
</a>
</g>
</g>
<!-- Node1&#45;&gt;Node2 -->
<g id="edge1" class="edge">
<title>Node1&#45;&gt;Node2</title>
<path fill="none" stroke="midnightblue" d="M1183.95,-246.28C993.54,-229.69 546.09,-186.65 175,-120 172.1,-119.48 169.16,-118.93 166.19,-118.37"/>
<polygon fill="midnightblue" stroke="midnightblue" points="1183.66,-249.77 1193.92,-247.14 1184.26,-242.79 1183.66,-249.77"/>
</g>
<!-- Node3 -->
<g id="node3" class="node">
<title>Node3</title>
<g id="a_node3"><a xlink:href="../../d5/d88/custom__processes_2mark__close__nodes__process_8h.html" target="_top" xlink:title=" ">
<polygon fill="none" stroke="black" points="1097.5,-156.5 1097.5,-197.5 1268.5,-197.5 1268.5,-156.5 1097.5,-156.5"/>
<text text-anchor="start" x="1105.5" y="-185.5" font-family="Helvetica,sans-Serif" font-size="10.00">/github/workspace/applications</text>
<text text-anchor="start" x="1105.5" y="-174.5" font-family="Helvetica,sans-Serif" font-size="10.00">/ULFapplication/custom_processes</text>
<text text-anchor="middle" x="1183" y="-163.5" font-family="Helvetica,sans-Serif" font-size="10.00">/mark_close_nodes_process.h</text>
</a>
</g>
</g>
<!-- Node1&#45;&gt;Node3 -->
<g id="edge2" class="edge">
<title>Node1&#45;&gt;Node3</title>
<path fill="none" stroke="midnightblue" d="M1244.92,-228.06C1232.54,-218.06 1218.63,-206.8 1207.13,-197.51"/>
<polygon fill="midnightblue" stroke="midnightblue" points="1242.82,-230.86 1252.79,-234.43 1247.22,-225.42 1242.82,-230.86"/>
</g>
<!-- Node5 -->
<g id="node5" class="node">
<title>Node5</title>
<g id="a_node5"><a xlink:href="../../d5/dc7/custom__processes_2mark__fluid__process_8h.html" target="_top" xlink:title=" ">
<polygon fill="none" stroke="black" points="1286.5,-156.5 1286.5,-197.5 1457.5,-197.5 1457.5,-156.5 1286.5,-156.5"/>
<text text-anchor="start" x="1294.5" y="-185.5" font-family="Helvetica,sans-Serif" font-size="10.00">/github/workspace/applications</text>
<text text-anchor="start" x="1294.5" y="-174.5" font-family="Helvetica,sans-Serif" font-size="10.00">/ULFapplication/custom_processes</text>
<text text-anchor="middle" x="1372" y="-163.5" font-family="Helvetica,sans-Serif" font-size="10.00">/mark_fluid_process.h</text>
</a>
</g>
</g>
<!-- Node1&#45;&gt;Node5 -->
<g id="edge4" class="edge">
<title>Node1&#45;&gt;Node5</title>
<path fill="none" stroke="midnightblue" d="M1309.42,-228.06C1321.93,-218.06 1335.99,-206.8 1347.62,-197.51"/>
<polygon fill="midnightblue" stroke="midnightblue" points="1307.09,-225.45 1301.46,-234.43 1311.46,-230.91 1307.09,-225.45"/>
</g>
<!-- Node6 -->
<g id="node6" class="node">
<title>Node6</title>
<g id="a_node6"><a xlink:href="../../de/d4d/_u_l_fapplication_2custom__processes_2merge__model__parts__process_8h.html" target="_top" xlink:title=" ">
<polygon fill="none" stroke="black" points="1678.5,-156.5 1678.5,-197.5 1849.5,-197.5 1849.5,-156.5 1678.5,-156.5"/>
<text text-anchor="start" x="1686.5" y="-185.5" font-family="Helvetica,sans-Serif" font-size="10.00">/github/workspace/applications</text>
<text text-anchor="start" x="1686.5" y="-174.5" font-family="Helvetica,sans-Serif" font-size="10.00">/ULFapplication/custom_processes</text>
<text text-anchor="middle" x="1764" y="-163.5" font-family="Helvetica,sans-Serif" font-size="10.00">/merge_model_parts_process.h</text>
</a>
</g>
</g>
<!-- Node1&#45;&gt;Node6 -->
<g id="edge6" class="edge">
<title>Node1&#45;&gt;Node6</title>
<path fill="none" stroke="midnightblue" d="M1370.09,-242.55C1449.9,-232.3 1567.83,-216.13 1670,-198 1672.79,-197.5 1675.63,-196.99 1678.49,-196.45"/>
<polygon fill="midnightblue" stroke="midnightblue" points="1369.54,-239.09 1360.06,-243.83 1370.43,-246.04 1369.54,-239.09"/>
</g>
<!-- Node7 -->
<g id="node7" class="node">
<title>Node7</title>
<g id="a_node7"><a xlink:href="../../da/d31/save__structure__model__part__process_8h.html" target="_top" xlink:title=" ">
<polygon fill="none" stroke="black" points="1475.5,-156.5 1475.5,-197.5 1660.5,-197.5 1660.5,-156.5 1475.5,-156.5"/>
<text text-anchor="start" x="1483.5" y="-185.5" font-family="Helvetica,sans-Serif" font-size="10.00">/github/workspace/applications</text>
<text text-anchor="start" x="1483.5" y="-174.5" font-family="Helvetica,sans-Serif" font-size="10.00">/ULFapplication/custom_processes</text>
<text text-anchor="middle" x="1568" y="-163.5" font-family="Helvetica,sans-Serif" font-size="10.00">/save_structure_model_part_process.h</text>
</a>
</g>
</g>
<!-- Node1&#45;&gt;Node7 -->
<g id="edge7" class="edge">
<title>Node1&#45;&gt;Node7</title>
<path fill="none" stroke="midnightblue" d="M1361.79,-231.86C1403.42,-220.98 1453.13,-208 1493.31,-197.51"/>
<polygon fill="midnightblue" stroke="midnightblue" points="1360.73,-228.51 1351.94,-234.43 1362.5,-235.29 1360.73,-228.51"/>
</g>
<!-- Node8 -->
<g id="node8" class="node">
<title>Node8</title>
<g id="a_node8"><a xlink:href="../../d9/d45/_u_l_f__application_8h.html" target="_top" xlink:title=" ">
<polygon fill="none" stroke="black" points="731.5,-162 731.5,-192 898.5,-192 898.5,-162 731.5,-162"/>
<text text-anchor="start" x="739.5" y="-180" font-family="Helvetica,sans-Serif" font-size="10.00">/github/workspace/applications</text>
<text text-anchor="middle" x="815" y="-169" font-family="Helvetica,sans-Serif" font-size="10.00">/ULFapplication/ULF_application.h</text>
</a>
</g>
</g>
<!-- Node1&#45;&gt;Node8 -->
<g id="edge9" class="edge">
<title>Node1&#45;&gt;Node8</title>
<path fill="none" stroke="midnightblue" d="M1183.88,-238.68C1100.41,-224.95 979.06,-204.99 898.63,-191.76"/>
<polygon fill="midnightblue" stroke="midnightblue" points="1183.43,-242.16 1193.87,-240.32 1184.57,-235.25 1183.43,-242.16"/>
</g>
<!-- Node4 -->
<g id="node4" class="node">
<title>Node4</title>
<g id="a_node4"><a xlink:href="../../d4/d6d/applications_2_u_l_fapplication_2custom__python_2add__processes__to__python_8cpp.html" target="_top" xlink:title=" ">
<polygon fill="none" stroke="black" points="1433.5,-0.5 1433.5,-41.5 1588.5,-41.5 1588.5,-0.5 1433.5,-0.5"/>
<text text-anchor="start" x="1441.5" y="-29.5" font-family="Helvetica,sans-Serif" font-size="10.00">/github/workspace/applications</text>
<text text-anchor="start" x="1441.5" y="-18.5" font-family="Helvetica,sans-Serif" font-size="10.00">/ULFapplication/custom_python</text>
<text text-anchor="middle" x="1511" y="-7.5" font-family="Helvetica,sans-Serif" font-size="10.00">/add_processes_to_python.cpp</text>
</a>
</g>
</g>
<!-- Node3&#45;&gt;Node4 -->
<g id="edge3" class="edge">
<title>Node3&#45;&gt;Node4</title>
<path fill="none" stroke="midnightblue" d="M1278.59,-156.06C1367.35,-141.43 1407.51,-174.24 1473,-120 1496.61,-100.44 1505.6,-64.35 1508.99,-41.85"/>
<polygon fill="midnightblue" stroke="midnightblue" points="1277.9,-152.63 1268.68,-157.86 1279.15,-159.52 1277.9,-152.63"/>
</g>
<!-- Node5&#45;&gt;Node4 -->
<g id="edge5" class="edge">
<title>Node5&#45;&gt;Node4</title>
<path fill="none" stroke="midnightblue" d="M1466.9,-152.34C1482.18,-144.46 1496.18,-133.96 1506,-120 1522.17,-97.01 1519.57,-62.94 1515.68,-41.63"/>
<polygon fill="midnightblue" stroke="midnightblue" points="1465.3,-149.23 1457.77,-156.69 1468.31,-155.55 1465.3,-149.23"/>
</g>
<!-- Node7&#45;&gt;Node4 -->
<g id="edge8" class="edge">
<title>Node7&#45;&gt;Node4</title>
<path fill="none" stroke="midnightblue" d="M1563.08,-146.34C1559.23,-126.53 1553.01,-100.14 1544,-78 1538.86,-65.35 1531.2,-52.15 1524.56,-41.74"/>
<polygon fill="midnightblue" stroke="midnightblue" points="1559.67,-147.13 1564.93,-156.32 1566.55,-145.85 1559.67,-147.13"/>
</g>
<!-- Node8&#45;&gt;Node2 -->
<g id="edge13" class="edge">
<title>Node8&#45;&gt;Node2</title>
<path fill="none" stroke="midnightblue" d="M721.19,-171.52C596.08,-164.7 367.93,-149.29 175,-120 172.09,-119.56 169.14,-119.08 166.16,-118.57"/>
<polygon fill="midnightblue" stroke="midnightblue" points="721.32,-175.03 731.5,-172.08 721.7,-168.05 721.32,-175.03"/>
</g>
<!-- Node9 -->
<g id="node9" class="node">
<title>Node9</title>
<g id="a_node9"><a xlink:href="../../d8/d8a/_u_l_fapplication_2custom__elements_2updated__lagrangian__fluid_8cpp.html" target="_top" xlink:title=" ">
<polygon fill="none" stroke="black" points="360,-78.5 360,-119.5 526,-119.5 526,-78.5 360,-78.5"/>
<text text-anchor="start" x="368" y="-107.5" font-family="Helvetica,sans-Serif" font-size="10.00">/github/workspace/applications</text>
<text text-anchor="start" x="368" y="-96.5" font-family="Helvetica,sans-Serif" font-size="10.00">/ULFapplication/custom_elements</text>
<text text-anchor="middle" x="443" y="-85.5" font-family="Helvetica,sans-Serif" font-size="10.00">/updated_lagrangian_fluid.cpp</text>
</a>
</g>
</g>
<!-- Node8&#45;&gt;Node9 -->
<g id="edge10" class="edge">
<title>Node8&#45;&gt;Node9</title>
<path fill="none" stroke="midnightblue" d="M733.44,-160.06C677.54,-149.05 601.72,-133.92 535,-120 532.12,-119.4 529.19,-118.78 526.23,-118.16"/>
<polygon fill="midnightblue" stroke="midnightblue" points="732.8,-163.5 743.29,-162 734.15,-156.63 732.8,-163.5"/>
</g>
<!-- Node10 -->
<g id="node10" class="node">
<title>Node10</title>
<g id="a_node10"><a xlink:href="../../d3/d95/updated__lagrangian__fluid3_d_8cpp.html" target="_top" xlink:title=" ">
<polygon fill="none" stroke="black" points="544,-78.5 544,-119.5 710,-119.5 710,-78.5 544,-78.5"/>
<text text-anchor="start" x="552" y="-107.5" font-family="Helvetica,sans-Serif" font-size="10.00">/github/workspace/applications</text>
<text text-anchor="start" x="552" y="-96.5" font-family="Helvetica,sans-Serif" font-size="10.00">/ULFapplication/custom_elements</text>
<text text-anchor="middle" x="627" y="-85.5" font-family="Helvetica,sans-Serif" font-size="10.00">/updated_lagrangian_fluid3D.cpp</text>
</a>
</g>
</g>
<!-- Node8&#45;&gt;Node10 -->
<g id="edge11" class="edge">
<title>Node8&#45;&gt;Node10</title>
<path fill="none" stroke="midnightblue" d="M770.74,-158.11C742.15,-146.55 704.95,-131.51 675.55,-119.63"/>
<polygon fill="midnightblue" stroke="midnightblue" points="769.5,-161.38 780.08,-161.88 772.12,-154.89 769.5,-161.38"/>
</g>
<!-- Node11 -->
<g id="node11" class="node">
<title>Node11</title>
<g id="a_node11"><a xlink:href="../../d9/d6e/updated__lagrangian__fluid3_d__inc_8cpp.html" target="_top" xlink:title=" ">
<polygon fill="none" stroke="black" points="728,-78.5 728,-119.5 902,-119.5 902,-78.5 728,-78.5"/>
<text text-anchor="start" x="736" y="-107.5" font-family="Helvetica,sans-Serif" font-size="10.00">/github/workspace/applications</text>
<text text-anchor="start" x="736" y="-96.5" font-family="Helvetica,sans-Serif" font-size="10.00">/ULFapplication/custom_elements</text>
<text text-anchor="middle" x="815" y="-85.5" font-family="Helvetica,sans-Serif" font-size="10.00">/updated_lagrangian_fluid3D_inc.cpp</text>
</a>
</g>
</g>
<!-- Node8&#45;&gt;Node11 -->
<g id="edge12" class="edge">
<title>Node8&#45;&gt;Node11</title>
<path fill="none" stroke="midnightblue" d="M815,-151.66C815,-141.33 815,-129.44 815,-119.68"/>
<polygon fill="midnightblue" stroke="midnightblue" points="811.5,-151.7 815,-161.7 818.5,-151.71 811.5,-151.7"/>
</g>
<!-- Node12 -->
<g id="node12" class="node">
<title>Node12</title>
<g id="a_node12"><a xlink:href="../../d6/d0c/pressure__calculate__process_8h.html" target="_top" xlink:title=" ">
<polygon fill="none" stroke="black" points="1292.5,-78.5 1292.5,-119.5 1463.5,-119.5 1463.5,-78.5 1292.5,-78.5"/>
<text text-anchor="start" x="1300.5" y="-107.5" font-family="Helvetica,sans-Serif" font-size="10.00">/github/workspace/applications</text>
<text text-anchor="start" x="1300.5" y="-96.5" font-family="Helvetica,sans-Serif" font-size="10.00">/ULFapplication/custom_processes</text>
<text text-anchor="middle" x="1378" y="-85.5" font-family="Helvetica,sans-Serif" font-size="10.00">/pressure_calculate_process.h</text>
</a>
</g>
</g>
<!-- Node8&#45;&gt;Node12 -->
<g id="edge14" class="edge">
<title>Node8&#45;&gt;Node12</title>
<path fill="none" stroke="midnightblue" d="M908.71,-167.25C1003.44,-157.82 1153.88,-141.27 1283,-120 1286.08,-119.49 1289.2,-118.96 1292.36,-118.39"/>
<polygon fill="midnightblue" stroke="midnightblue" points="908.19,-163.78 898.59,-168.25 908.88,-170.75 908.19,-163.78"/>
</g>
<!-- Node13 -->
<g id="node13" class="node">
<title>Node13</title>
<g id="a_node13"><a xlink:href="../../d2/d1d/_u_l_fapplication_2custom__utilities_2nist__utilities_8h.html" target="_top" xlink:title=" ">
<polygon fill="none" stroke="black" points="184.5,-78.5 184.5,-119.5 341.5,-119.5 341.5,-78.5 184.5,-78.5"/>
<text text-anchor="start" x="192.5" y="-107.5" font-family="Helvetica,sans-Serif" font-size="10.00">/github/workspace/applications</text>
<text text-anchor="start" x="192.5" y="-96.5" font-family="Helvetica,sans-Serif" font-size="10.00">/ULFapplication/custom_utilities</text>
<text text-anchor="middle" x="263" y="-85.5" font-family="Helvetica,sans-Serif" font-size="10.00">/nist_utilities.h</text>
</a>
</g>
</g>
<!-- Node8&#45;&gt;Node13 -->
<g id="edge16" class="edge">
<title>Node8&#45;&gt;Node13</title>
<path fill="none" stroke="midnightblue" d="M721.16,-167.55C627.14,-158.41 478.47,-142.12 351,-120 347.91,-119.46 344.77,-118.89 341.6,-118.29"/>
<polygon fill="midnightblue" stroke="midnightblue" points="720.93,-171.04 731.22,-168.52 721.6,-164.07 720.93,-171.04"/>
</g>
<!-- Node14 -->
<g id="node14" class="node">
<title>Node14</title>
<g id="a_node14"><a xlink:href="../../d7/db9/ulf__utilities_8h.html" target="_top" xlink:title=" ">
<polygon fill="none" stroke="black" points="920.5,-78.5 920.5,-119.5 1077.5,-119.5 1077.5,-78.5 920.5,-78.5"/>
<text text-anchor="start" x="928.5" y="-107.5" font-family="Helvetica,sans-Serif" font-size="10.00">/github/workspace/applications</text>
<text text-anchor="start" x="928.5" y="-96.5" font-family="Helvetica,sans-Serif" font-size="10.00">/ULFapplication/custom_utilities</text>
<text text-anchor="middle" x="999" y="-85.5" font-family="Helvetica,sans-Serif" font-size="10.00">/ulf_utilities.h</text>
</a>
</g>
</g>
<!-- Node8&#45;&gt;Node14 -->
<g id="edge17" class="edge">
<title>Node8&#45;&gt;Node14</title>
<path fill="none" stroke="midnightblue" d="M858.68,-157.96C886.61,-146.42 922.83,-131.46 951.48,-119.63"/>
<polygon fill="midnightblue" stroke="midnightblue" points="857.08,-154.83 849.18,-161.88 859.76,-161.3 857.08,-154.83"/>
</g>
<!-- Node16 -->
<g id="node16" class="node">
<title>Node16</title>
<g id="a_node16"><a xlink:href="../../d0/d88/_u_l_f__application_8cpp.html" target="_top" xlink:title=" ">
<polygon fill="none" stroke="black" points="1096,-84 1096,-114 1274,-114 1274,-84 1096,-84"/>
<text text-anchor="start" x="1104" y="-102" font-family="Helvetica,sans-Serif" font-size="10.00">/github/workspace/applications</text>
<text text-anchor="middle" x="1185" y="-91" font-family="Helvetica,sans-Serif" font-size="10.00">/ULFapplication/ULF_application.cpp</text>
</a>
</g>
</g>
<!-- Node8&#45;&gt;Node16 -->
<g id="edge19" class="edge">
<title>Node8&#45;&gt;Node16</title>
<path fill="none" stroke="midnightblue" d="M893.27,-159.92C959.53,-146.31 1053.56,-127 1116.79,-114.01"/>
<polygon fill="midnightblue" stroke="midnightblue" points="892.39,-156.53 883.29,-161.97 893.79,-163.39 892.39,-156.53"/>
</g>
<!-- Node12&#45;&gt;Node4 -->
<g id="edge15" class="edge">
<title>Node12&#45;&gt;Node4</title>
<path fill="none" stroke="midnightblue" d="M1421.39,-73.2C1439.39,-62.92 1459.97,-51.16 1476.87,-41.51"/>
<polygon fill="midnightblue" stroke="midnightblue" points="1419.2,-70.43 1412.25,-78.43 1422.67,-76.51 1419.2,-70.43"/>
</g>
<!-- Node15 -->
<g id="node15" class="node">
<title>Node15</title>
<g id="a_node15"><a xlink:href="../../d5/d60/_u_l_fapplication_2custom__python_2add__custom__utilities__to__python_8cpp.html" target="_top" xlink:title=" ">
<polygon fill="none" stroke="black" points="912,-0.5 912,-41.5 1086,-41.5 1086,-0.5 912,-0.5"/>
<text text-anchor="start" x="920" y="-29.5" font-family="Helvetica,sans-Serif" font-size="10.00">/github/workspace/applications</text>
<text text-anchor="start" x="920" y="-18.5" font-family="Helvetica,sans-Serif" font-size="10.00">/ULFapplication/custom_python</text>
<text text-anchor="middle" x="999" y="-7.5" font-family="Helvetica,sans-Serif" font-size="10.00">/add_custom_utilities_to_python.cpp</text>
</a>
</g>
</g>
<!-- Node14&#45;&gt;Node15 -->
<g id="edge18" class="edge">
<title>Node14&#45;&gt;Node15</title>
<path fill="none" stroke="midnightblue" d="M999,-68.3C999,-59.3 999,-49.65 999,-41.51"/>
<polygon fill="midnightblue" stroke="midnightblue" points="995.5,-68.43 999,-78.43 1002.5,-68.43 995.5,-68.43"/>
</g>
</g>
</svg>
        <g id="navigator" transform="translate(0 0)" fill="#404254">
                <rect fill="#f2f5e9" fill-opacity="0.5" stroke="#606060" stroke-width=".5" x="0" y="0" width="60" height="60"/>
                <use id="zoomplus" xlink:href="#zoomPlus" x="17" y="9" onmousedown="handleZoom(evt,'in')"/>
                <use id="zoomminus" xlink:href="#zoomMin" x="42" y="9" onmousedown="handleZoom(evt,'out')"/>
                <use id="reset" xlink:href="#resetDef" x="30" y="36" onmousedown="handleReset()"/>
                <g id="arrowUp" xlink:href="#dirArrow" transform="translate(30 24)" onmousedown="handlePan(0,-1)">
                  <use xlink:href="#rim" fill="#404040">
                        <set attributeName="fill" to="#808080" begin="arrowUp.mouseover" end="arrowUp.mouseout"/>
                  </use>
                  <path fill="none" stroke="white" stroke-width="1.5" d="M0,-3.0v7 M-2.5,-0.5L0,-3.0L2.5,-0.5"/>
                </g>
                <g id="arrowRight" xlink:href="#dirArrow" transform="rotate(90) translate(36 -43)" onmousedown="handlePan(1,0)">
                  <use xlink:href="#rim" fill="#404040">
                        <set attributeName="fill" to="#808080" begin="arrowRight.mouseover" end="arrowRight.mouseout"/>
                  </use>
                  <path fill="none" stroke="white" stroke-width="1.5" d="M0,-3.0v7 M-2.5,-0.5L0,-3.0L2.5,-0.5"/>
                </g>
                <g id="arrowDown" xlink:href="#dirArrow" transform="rotate(180) translate(-30 -48)" onmousedown="handlePan(0,1)">
                  <use xlink:href="#rim" fill="#404040">
                        <set attributeName="fill" to="#808080" begin="arrowDown.mouseover" end="arrowDown.mouseout"/>
                  </use>
                  <path fill="none" stroke="white" stroke-width="1.5" d="M0,-3.0v7 M-2.5,-0.5L0,-3.0L2.5,-0.5"/>
                </g>
                <g id="arrowLeft" xlink:href="#dirArrow" transform="rotate(270) translate(-36 17)" onmousedown="handlePan(-1,0)">
                  <use xlink:href="#rim" fill="#404040">
                        <set attributeName="fill" to="#808080" begin="arrowLeft.mouseover" end="arrowLeft.mouseout"/>
                  </use>
                  <path fill="none" stroke="white" stroke-width="1.5" d="M0,-3.0v7 M-2.5,-0.5L0,-3.0L2.5,-0.5"/>
                </g>
        </g>
        <svg viewBox="0 0 15 15" width="100%" height="30px" preserveAspectRatio="xMaxYMin meet">
         <g id="arrow_out" transform="scale(0.3 0.3)">
          <a xlink:href="updated__lagrangian__fluid__inc_8h__dep__incl_org.svg" target="_base">
           <rect id="button" ry="5" rx="5" y="6" x="6" height="38" width="38"
                fill="#f2f5e9" fill-opacity="0.5" stroke="#606060" stroke-width="1.0"/>
           <path id="arrow"
             d="M 11.500037,31.436501 C 11.940474,20.09759 22.043105,11.32322 32.158766,21.979434 L 37.068811,17.246167 C 37.068811,17.246167 37.088388,32 37.088388,32 L 22.160133,31.978069 C 22.160133,31.978069 26.997745,27.140456 26.997745,27.140456 C 18.528582,18.264221 13.291696,25.230495 11.500037,31.436501 z"
             style="fill:#404040;"/>
          </a>
         </g>
        </svg>
</svg>
