<?xml version="1.0" encoding="UTF-8" standalone="no"?>
<!DOCTYPE svg PUBLIC "-//W3C//DTD SVG 1.1//EN"
 "http://www.w3.org/Graphics/SVG/1.1/DTD/svg11.dtd">
<!-- Generated by graphviz version 2.48.0 (20210719.0153)
 -->
<!-- Title: boost::numeric::ublas::banded_matrix&lt; T, L, A &gt; Pages: 1 -->
<svg width="140pt" height="612pt"
 viewBox="0.00 0.00 140.00 612.00" xmlns="http://www.w3.org/2000/svg" xmlns:xlink="http://www.w3.org/1999/xlink">
<g id="graph0" class="graph" transform="scale(1 1) rotate(0) translate(4 608)">
<title>boost::numeric::ublas::banded_matrix&lt; T, L, A &gt;</title>
<!-- Node1 -->
<g id="node1" class="node">
<title>Node1</title>
<g id="a_node1"><a xlink:title=" ">
<polygon fill="#bfbfbf" stroke="black" points="1,-0.5 1,-178.5 131,-178.5 131,-0.5 1,-0.5"/>
<text text-anchor="start" x="9" y="-166.5" font-family="Helvetica,sans-Serif" font-size="10.00">boost::numeric::ublas</text>
<text text-anchor="middle" x="66" y="-155.5" font-family="Helvetica,sans-Serif" font-size="10.00">::banded_matrix&lt; T, L, A &gt;</text>
<polyline fill="none" stroke="black" points="1,-148.5 131,-148.5 "/>
<text text-anchor="middle" x="66" y="-136.5" font-family="Helvetica,sans-Serif" font-size="10.00"> </text>
<polyline fill="none" stroke="black" points="1,-129.5 131,-129.5 "/>
<text text-anchor="start" x="9" y="-117.5" font-family="Helvetica,sans-Serif" font-size="10.00">+ banded_matrix()</text>
<text text-anchor="start" x="9" y="-106.5" font-family="Helvetica,sans-Serif" font-size="10.00">+ banded_matrix()</text>
<text text-anchor="start" x="9" y="-95.5" font-family="Helvetica,sans-Serif" font-size="10.00">+ banded_matrix()</text>
<text text-anchor="start" x="9" y="-84.5" font-family="Helvetica,sans-Serif" font-size="10.00">+ banded_matrix()</text>
<text text-anchor="start" x="9" y="-73.5" font-family="Helvetica,sans-Serif" font-size="10.00">+ banded_matrix()</text>
<text text-anchor="start" x="9" y="-62.5" font-family="Helvetica,sans-Serif" font-size="10.00">+ size1()</text>
<text text-anchor="start" x="9" y="-51.5" font-family="Helvetica,sans-Serif" font-size="10.00">+ size2()</text>
<text text-anchor="start" x="9" y="-40.5" font-family="Helvetica,sans-Serif" font-size="10.00">+ lower()</text>
<text text-anchor="start" x="9" y="-29.5" font-family="Helvetica,sans-Serif" font-size="10.00">+ upper()</text>
<text text-anchor="start" x="9" y="-18.5" font-family="Helvetica,sans-Serif" font-size="10.00">+ data()</text>
<text text-anchor="start" x="9" y="-7.5" font-family="Helvetica,sans-Serif" font-size="10.00">and 90 more...</text>
</a>
</g>
</g>
<!-- Node2 -->
<g id="node2" class="node">
<title>Node2</title>
<g id="a_node2"><a xlink:href="../../da/d15/classboost_1_1numeric_1_1ublas_1_1matrix__container.html" target="_top" xlink:title=" ">
<polygon fill="none" stroke="black" points="0,-215.5 0,-327.5 132,-327.5 132,-215.5 0,-215.5"/>
<text text-anchor="start" x="8" y="-315.5" font-family="Helvetica,sans-Serif" font-size="10.00">boost::numeric::ublas</text>
<text text-anchor="start" x="8" y="-304.5" font-family="Helvetica,sans-Serif" font-size="10.00">::matrix_container&lt; banded</text>
<text text-anchor="middle" x="66" y="-293.5" font-family="Helvetica,sans-Serif" font-size="10.00">_matrix&lt; T, L, A &gt; &gt;</text>
<polyline fill="none" stroke="black" points="0,-286.5 132,-286.5 "/>
<text text-anchor="start" x="8" y="-274.5" font-family="Helvetica,sans-Serif" font-size="10.00">+ complexity</text>
<polyline fill="none" stroke="black" points="0,-267.5 132,-267.5 "/>
<text text-anchor="start" x="8" y="-255.5" font-family="Helvetica,sans-Serif" font-size="10.00">+ operator()()</text>
<text text-anchor="start" x="8" y="-244.5" font-family="Helvetica,sans-Serif" font-size="10.00">+ operator()()</text>
<text text-anchor="start" x="8" y="-233.5" font-family="Helvetica,sans-Serif" font-size="10.00">+ operator()()</text>
<text text-anchor="start" x="8" y="-222.5" font-family="Helvetica,sans-Serif" font-size="10.00">+ operator()()</text>
</a>
</g>
</g>
<!-- Node2&#45;&gt;Node1 -->
<g id="edge1" class="edge">
<title>Node2&#45;&gt;Node1</title>
<path fill="none" stroke="midnightblue" d="M59.47,-204.79C59.31,-196.25 59.24,-187.4 59.25,-178.57"/>
<polygon fill="none" stroke="midnightblue" points="55.98,-205.11 59.71,-215.03 62.98,-204.95 55.98,-205.11"/>
</g>
<!-- Node2&#45;&gt;Node1 -->
<g id="edge6" class="edge">
<title>Node2&#45;&gt;Node1</title>
<path fill="none" stroke="midnightblue" d="M72.53,-204.79C72.69,-196.25 72.76,-187.4 72.75,-178.57"/>
<polygon fill="none" stroke="midnightblue" points="69.02,-204.95 72.29,-215.03 76.02,-205.11 69.02,-204.95"/>
</g>
<!-- Node3 -->
<g id="node3" class="node">
<title>Node3</title>
<g id="a_node3"><a xlink:href="../../d9/da6/classboost_1_1numeric_1_1ublas_1_1matrix__expression.html" target="_top" xlink:title=" ">
<polygon fill="none" stroke="black" points="5,-364.5 5,-465.5 127,-465.5 127,-364.5 5,-364.5"/>
<text text-anchor="start" x="13" y="-453.5" font-family="Helvetica,sans-Serif" font-size="10.00">boost::numeric::ublas</text>
<text text-anchor="middle" x="66" y="-442.5" font-family="Helvetica,sans-Serif" font-size="10.00">::matrix_expression&lt; E &gt;</text>
<polyline fill="none" stroke="black" points="5,-435.5 127,-435.5 "/>
<text text-anchor="start" x="13" y="-423.5" font-family="Helvetica,sans-Serif" font-size="10.00">+ complexity</text>
<polyline fill="none" stroke="black" points="5,-416.5 127,-416.5 "/>
<text text-anchor="start" x="13" y="-404.5" font-family="Helvetica,sans-Serif" font-size="10.00">+ operator()()</text>
<text text-anchor="start" x="13" y="-393.5" font-family="Helvetica,sans-Serif" font-size="10.00">+ operator()()</text>
<text text-anchor="start" x="13" y="-382.5" font-family="Helvetica,sans-Serif" font-size="10.00">+ operator()()</text>
<text text-anchor="start" x="13" y="-371.5" font-family="Helvetica,sans-Serif" font-size="10.00">+ operator()()</text>
</a>
</g>
</g>
<!-- Node3&#45;&gt;Node2 -->
<g id="edge2" class="edge">
<title>Node3&#45;&gt;Node2</title>
<path fill="none" stroke="midnightblue" d="M59.32,-354.01C59.21,-345.29 59.23,-336.34 59.4,-327.72"/>
<polygon fill="none" stroke="midnightblue" points="55.82,-354.18 59.52,-364.11 62.82,-354.05 55.82,-354.18"/>
</g>
<!-- Node3&#45;&gt;Node2 -->
<g id="edge5" class="edge">
<title>Node3&#45;&gt;Node2</title>
<path fill="none" stroke="midnightblue" d="M72.68,-354.01C72.79,-345.29 72.77,-336.34 72.6,-327.72"/>
<polygon fill="none" stroke="midnightblue" points="69.18,-354.05 72.48,-364.11 76.18,-354.18 69.18,-354.05"/>
</g>
<!-- Node4 -->
<g id="node4" class="node">
<title>Node4</title>
<g id="a_node4"><a xlink:href="../../dd/db7/classboost_1_1numeric_1_1ublas_1_1ublas__expression.html" target="_top" xlink:title=" ">
<polygon fill="none" stroke="black" points="6.5,-502.5 6.5,-603.5 125.5,-603.5 125.5,-502.5 6.5,-502.5"/>
<text text-anchor="start" x="14.5" y="-591.5" font-family="Helvetica,sans-Serif" font-size="10.00">boost::numeric::ublas</text>
<text text-anchor="middle" x="66" y="-580.5" font-family="Helvetica,sans-Serif" font-size="10.00">::ublas_expression&lt; E &gt;</text>
<polyline fill="none" stroke="black" points="6.5,-573.5 125.5,-573.5 "/>
<text text-anchor="middle" x="66" y="-561.5" font-family="Helvetica,sans-Serif" font-size="10.00"> </text>
<polyline fill="none" stroke="black" points="6.5,-554.5 125.5,-554.5 "/>
<text text-anchor="start" x="14.5" y="-542.5" font-family="Helvetica,sans-Serif" font-size="10.00"># ublas_expression()</text>
<text text-anchor="start" x="14.5" y="-531.5" font-family="Helvetica,sans-Serif" font-size="10.00"># ~ublas_expression()</text>
<text text-anchor="start" x="14.5" y="-520.5" font-family="Helvetica,sans-Serif" font-size="10.00"># ublas_expression()</text>
<text text-anchor="start" x="14.5" y="-509.5" font-family="Helvetica,sans-Serif" font-size="10.00"># ~ublas_expression()</text>
</a>
</g>
</g>
<!-- Node4&#45;&gt;Node3 -->
<g id="edge3" class="edge">
<title>Node4&#45;&gt;Node3</title>
<path fill="none" stroke="midnightblue" d="M59.29,-492C59.2,-483.27 59.26,-474.36 59.47,-465.86"/>
<polygon fill="none" stroke="midnightblue" points="55.79,-492.19 59.47,-502.13 62.79,-492.07 55.79,-492.19"/>
</g>
<!-- Node4&#45;&gt;Node3 -->
<g id="edge4" class="edge">
<title>Node4&#45;&gt;Node3</title>
<path fill="none" stroke="midnightblue" d="M72.71,-492C72.8,-483.27 72.74,-474.36 72.53,-465.86"/>
<polygon fill="none" stroke="midnightblue" points="69.21,-492.07 72.53,-502.13 76.21,-492.19 69.21,-492.07"/>
</g>
</g>
</svg>
