<?xml version="1.0" encoding="UTF-8" standalone="no"?>
<!DOCTYPE svg PUBLIC "-//W3C//DTD SVG 1.1//EN"
 "http://www.w3.org/Graphics/SVG/1.1/DTD/svg11.dtd">
<!-- Generated by graphviz version 2.48.0 (20210719.0153)
 -->
<!-- Title: /github/workspace/kratos/solving_strategies/strategies/solving_strategy.h Pages: 1 -->
<svg width="2173pt" height="317pt"
 viewBox="0.00 0.00 2172.96 317.00" xmlns="http://www.w3.org/2000/svg" xmlns:xlink="http://www.w3.org/1999/xlink">
<g id="graph0" class="graph" transform="scale(1 1) rotate(0) translate(4 313)">
<title>/github/workspace/kratos/solving_strategies/strategies/solving_strategy.h</title>
<!-- Node1 -->
<g id="node1" class="node">
<title>Node1</title>
<g id="a_node1"><a xlink:title=" ">
<polygon fill="#bfbfbf" stroke="black" points="840.46,-267.5 840.46,-308.5 984.46,-308.5 984.46,-267.5 840.46,-267.5"/>
<text text-anchor="start" x="848.46" y="-296.5" font-family="Helvetica,sans-Serif" font-size="10.00">/github/workspace/kratos</text>
<text text-anchor="start" x="848.46" y="-285.5" font-family="Helvetica,sans-Serif" font-size="10.00">/solving_strategies/strategies</text>
<text text-anchor="middle" x="912.46" y="-274.5" font-family="Helvetica,sans-Serif" font-size="10.00">/solving_strategy.h</text>
</a>
</g>
</g>
<!-- Node2 -->
<g id="node2" class="node">
<title>Node2</title>
<g id="a_node2"><a xlink:href="../../d8/dd7/add__strategies__to__python_8cpp.html" target="_top" xlink:title=" ">
<polygon fill="none" stroke="black" points="439.46,-95 439.46,-136 565.46,-136 565.46,-95 439.46,-95"/>
<text text-anchor="start" x="447.46" y="-124" font-family="Helvetica,sans-Serif" font-size="10.00">/github/workspace/kratos</text>
<text text-anchor="start" x="447.46" y="-113" font-family="Helvetica,sans-Serif" font-size="10.00">/python/add_strategies</text>
<text text-anchor="middle" x="502.46" y="-102" font-family="Helvetica,sans-Serif" font-size="10.00">_to_python.cpp</text>
</a>
</g>
</g>
<!-- Node1&#45;&gt;Node2 -->
<g id="edge1" class="edge">
<title>Node1&#45;&gt;Node2</title>
<path fill="none" stroke="midnightblue" d="M830.31,-269.22C792.5,-259.83 747.47,-246.93 708.46,-231 642.73,-204.17 571.48,-161.11 532.37,-136.15"/>
<polygon fill="midnightblue" stroke="midnightblue" points="829.72,-272.67 840.26,-271.65 831.38,-265.87 829.72,-272.67"/>
</g>
<!-- Node3 -->
<g id="node3" class="node">
<title>Node3</title>
<g id="a_node3"><a xlink:href="../../d2/d3a/residualbased__linear__strategy_8h.html" target="_top" xlink:title=" ">
<polygon fill="none" stroke="black" points="967.96,-184 967.96,-225 1122.96,-225 1122.96,-184 967.96,-184"/>
<text text-anchor="start" x="975.96" y="-213" font-family="Helvetica,sans-Serif" font-size="10.00">/github/workspace/kratos</text>
<text text-anchor="start" x="975.96" y="-202" font-family="Helvetica,sans-Serif" font-size="10.00">/solving_strategies/strategies</text>
<text text-anchor="middle" x="1045.46" y="-191" font-family="Helvetica,sans-Serif" font-size="10.00">/residualbased_linear_strategy.h</text>
</a>
</g>
</g>
<!-- Node1&#45;&gt;Node3 -->
<g id="edge2" class="edge">
<title>Node1&#45;&gt;Node3</title>
<path fill="none" stroke="midnightblue" d="M952.95,-262.19C972.34,-250.3 995.24,-236.27 1013.4,-225.14"/>
<polygon fill="midnightblue" stroke="midnightblue" points="951.01,-259.27 944.31,-267.48 954.67,-265.24 951.01,-259.27"/>
</g>
<!-- Node4 -->
<g id="node4" class="node">
<title>Node4</title>
<g id="a_node4"><a xlink:href="../../d0/dc7/laplacian__meshmoving__strategy_8h.html" target="_top" xlink:title=" ">
<polygon fill="none" stroke="black" points="583.46,-89.5 583.46,-141.5 751.46,-141.5 751.46,-89.5 583.46,-89.5"/>
<text text-anchor="start" x="591.46" y="-129.5" font-family="Helvetica,sans-Serif" font-size="10.00">/github/workspace/applications</text>
<text text-anchor="start" x="591.46" y="-118.5" font-family="Helvetica,sans-Serif" font-size="10.00">/ALEapplication/custom_strategies</text>
<text text-anchor="start" x="591.46" y="-107.5" font-family="Helvetica,sans-Serif" font-size="10.00">/strategies/laplacian_meshmoving</text>
<text text-anchor="middle" x="667.46" y="-96.5" font-family="Helvetica,sans-Serif" font-size="10.00">_strategy.h</text>
</a>
</g>
</g>
<!-- Node1&#45;&gt;Node4 -->
<g id="edge22" class="edge">
<title>Node1&#45;&gt;Node4</title>
<path fill="none" stroke="midnightblue" d="M830.63,-264.03C808.35,-255.65 785,-244.76 765.46,-231 730.8,-206.6 700.76,-167.23 683.37,-141.61"/>
<polygon fill="midnightblue" stroke="midnightblue" points="829.51,-267.35 840.1,-267.47 831.9,-260.77 829.51,-267.35"/>
</g>
<!-- Node5 -->
<g id="node5" class="node">
<title>Node5</title>
<g id="a_node5"><a xlink:href="../../d4/d38/_a_l_eapplication_2custom__python_2add__custom__strategies__to__python_8cpp.html" target="_top" xlink:title=" ">
<polygon fill="none" stroke="black" points="256.46,-6 256.46,-47 442.46,-47 442.46,-6 256.46,-6"/>
<text text-anchor="start" x="264.46" y="-35" font-family="Helvetica,sans-Serif" font-size="10.00">/github/workspace/applications</text>
<text text-anchor="start" x="264.46" y="-24" font-family="Helvetica,sans-Serif" font-size="10.00">/ALEapplication/custom_python</text>
<text text-anchor="middle" x="349.46" y="-13" font-family="Helvetica,sans-Serif" font-size="10.00">/add_custom_strategies_to_python.cpp</text>
</a>
</g>
</g>
<!-- Node1&#45;&gt;Node5 -->
<g id="edge21" class="edge">
<title>Node1&#45;&gt;Node5</title>
<path fill="none" stroke="midnightblue" d="M830.09,-284.22C669.06,-278.16 318.08,-261.82 201.46,-231 111.3,-207.18 61.49,-220.69 11.46,-142 -47.47,-49.33 137.24,-30.1 256.46,-27.03"/>
<polygon fill="midnightblue" stroke="midnightblue" points="830.3,-287.73 840.42,-284.6 830.56,-280.73 830.3,-287.73"/>
</g>
<!-- Node6 -->
<g id="node6" class="node">
<title>Node6</title>
<g id="a_node6"><a xlink:href="../../de/d74/convection__diffusion__application_2custom__python_2add__custom__strategies__to__python_8cpp.html" target="_top" xlink:title=" ">
<polygon fill="none" stroke="black" points="750.46,-0.5 750.46,-52.5 940.46,-52.5 940.46,-0.5 750.46,-0.5"/>
<text text-anchor="start" x="758.46" y="-40.5" font-family="Helvetica,sans-Serif" font-size="10.00">/github/workspace/applications</text>
<text text-anchor="start" x="758.46" y="-29.5" font-family="Helvetica,sans-Serif" font-size="10.00">/convection_diffusion_application</text>
<text text-anchor="start" x="758.46" y="-18.5" font-family="Helvetica,sans-Serif" font-size="10.00">/custom_python/add_custom_strategies</text>
<text text-anchor="middle" x="845.46" y="-7.5" font-family="Helvetica,sans-Serif" font-size="10.00">_to_python.cpp</text>
</a>
</g>
</g>
<!-- Node1&#45;&gt;Node6 -->
<g id="edge23" class="edge">
<title>Node1&#45;&gt;Node6</title>
<path fill="none" stroke="midnightblue" d="M881.99,-260.14C854.16,-233.41 814.92,-189.58 798.46,-142 790.76,-119.74 790.91,-111.31 798.46,-89 802.94,-75.76 811.53,-63.13 820.16,-52.8"/>
<polygon fill="midnightblue" stroke="midnightblue" points="879.83,-262.92 889.51,-267.22 884.63,-257.82 879.83,-262.92"/>
</g>
<!-- Node7 -->
<g id="node7" class="node">
<title>Node7</title>
<g id="a_node7"><a xlink:href="../../d3/d97/residualbased__convdiff__strategy_8h.html" target="_top" xlink:title=" ">
<polygon fill="none" stroke="black" points="807.96,-89.5 807.96,-141.5 1016.96,-141.5 1016.96,-89.5 807.96,-89.5"/>
<text text-anchor="start" x="815.96" y="-129.5" font-family="Helvetica,sans-Serif" font-size="10.00">/github/workspace/applications</text>
<text text-anchor="start" x="815.96" y="-118.5" font-family="Helvetica,sans-Serif" font-size="10.00">/convection_diffusion_application</text>
<text text-anchor="start" x="815.96" y="-107.5" font-family="Helvetica,sans-Serif" font-size="10.00">/custom_strategies/strategies/residualbased</text>
<text text-anchor="middle" x="912.46" y="-96.5" font-family="Helvetica,sans-Serif" font-size="10.00">_convdiff_strategy.h</text>
</a>
</g>
</g>
<!-- Node1&#45;&gt;Node7 -->
<g id="edge24" class="edge">
<title>Node1&#45;&gt;Node7</title>
<path fill="none" stroke="midnightblue" d="M912.46,-257.13C912.46,-224.36 912.46,-172.36 912.46,-141.61"/>
<polygon fill="midnightblue" stroke="midnightblue" points="908.96,-257.44 912.46,-267.44 915.96,-257.44 908.96,-257.44"/>
</g>
<!-- Node8 -->
<g id="node8" class="node">
<title>Node8</title>
<g id="a_node8"><a xlink:href="../../dc/dc8/incompressible__fluid__application_2custom__python_2add__custom__strategies__to__python_8cpp.html" target="_top" xlink:title=" ">
<polygon fill="none" stroke="black" points="1461.46,-0.5 1461.46,-52.5 1651.46,-52.5 1651.46,-0.5 1461.46,-0.5"/>
<text text-anchor="start" x="1469.46" y="-40.5" font-family="Helvetica,sans-Serif" font-size="10.00">/github/workspace/applications</text>
<text text-anchor="start" x="1469.46" y="-29.5" font-family="Helvetica,sans-Serif" font-size="10.00">/incompressible_fluid_application</text>
<text text-anchor="start" x="1469.46" y="-18.5" font-family="Helvetica,sans-Serif" font-size="10.00">/custom_python/add_custom_strategies</text>
<text text-anchor="middle" x="1556.46" y="-7.5" font-family="Helvetica,sans-Serif" font-size="10.00">_to_python.cpp</text>
</a>
</g>
</g>
<!-- Node1&#45;&gt;Node8 -->
<g id="edge26" class="edge">
<title>Node1&#45;&gt;Node8</title>
<path fill="none" stroke="midnightblue" d="M994.81,-286.54C1192.79,-283.47 1686.32,-263.54 1784.46,-142 1799.26,-123.67 1798.78,-107.7 1784.46,-89 1767.82,-67.28 1706.53,-51.48 1651.68,-41.35"/>
<polygon fill="midnightblue" stroke="midnightblue" points="994.7,-283.04 984.76,-286.68 994.81,-290.04 994.7,-283.04"/>
</g>
<!-- Node9 -->
<g id="node9" class="node">
<title>Node9</title>
<g id="a_node9"><a xlink:href="../../d1/d06/residualbased__fluid__strategy_8h.html" target="_top" xlink:title=" ">
<polygon fill="none" stroke="black" points="1338.96,-89.5 1338.96,-141.5 1547.96,-141.5 1547.96,-89.5 1338.96,-89.5"/>
<text text-anchor="start" x="1346.96" y="-129.5" font-family="Helvetica,sans-Serif" font-size="10.00">/github/workspace/applications</text>
<text text-anchor="start" x="1346.96" y="-118.5" font-family="Helvetica,sans-Serif" font-size="10.00">/incompressible_fluid_application</text>
<text text-anchor="start" x="1346.96" y="-107.5" font-family="Helvetica,sans-Serif" font-size="10.00">/custom_strategies/strategies/residualbased</text>
<text text-anchor="middle" x="1443.46" y="-96.5" font-family="Helvetica,sans-Serif" font-size="10.00">_fluid_strategy.h</text>
</a>
</g>
</g>
<!-- Node1&#45;&gt;Node9 -->
<g id="edge29" class="edge">
<title>Node1&#45;&gt;Node9</title>
<path fill="none" stroke="midnightblue" d="M994.64,-273.27C1046.07,-263.68 1113.36,-249.33 1171.46,-231 1250.37,-206.1 1337.97,-167.05 1391.89,-141.61"/>
<polygon fill="midnightblue" stroke="midnightblue" points="993.77,-269.87 984.57,-275.12 995.04,-276.75 993.77,-269.87"/>
</g>
<!-- Node10 -->
<g id="node10" class="node">
<title>Node10</title>
<g id="a_node10"><a xlink:href="../../da/d32/residualbased__fluid__strategy__coupled_8h.html" target="_top" xlink:title=" ">
<polygon fill="none" stroke="black" points="1565.96,-89.5 1565.96,-141.5 1774.96,-141.5 1774.96,-89.5 1565.96,-89.5"/>
<text text-anchor="start" x="1573.96" y="-129.5" font-family="Helvetica,sans-Serif" font-size="10.00">/github/workspace/applications</text>
<text text-anchor="start" x="1573.96" y="-118.5" font-family="Helvetica,sans-Serif" font-size="10.00">/incompressible_fluid_application</text>
<text text-anchor="start" x="1573.96" y="-107.5" font-family="Helvetica,sans-Serif" font-size="10.00">/custom_strategies/strategies/residualbased</text>
<text text-anchor="middle" x="1670.46" y="-96.5" font-family="Helvetica,sans-Serif" font-size="10.00">_fluid_strategy_coupled.h</text>
</a>
</g>
</g>
<!-- Node1&#45;&gt;Node10 -->
<g id="edge30" class="edge">
<title>Node1&#45;&gt;Node10</title>
<path fill="none" stroke="midnightblue" d="M994.72,-275.97C1064.07,-266.08 1165.76,-250.19 1253.46,-231 1371.35,-205.21 1505.61,-166.66 1589.2,-141.55"/>
<polygon fill="midnightblue" stroke="midnightblue" points="994.13,-272.52 984.72,-277.38 995.12,-279.45 994.13,-272.52"/>
</g>
<!-- Node11 -->
<g id="node11" class="node">
<title>Node11</title>
<g id="a_node11"><a xlink:href="../../de/d5b/residualbased___n_d__fluid__strategy_8h.html" target="_top" xlink:title=" ">
<polygon fill="none" stroke="black" points="1111.96,-89.5 1111.96,-141.5 1320.96,-141.5 1320.96,-89.5 1111.96,-89.5"/>
<text text-anchor="start" x="1119.96" y="-129.5" font-family="Helvetica,sans-Serif" font-size="10.00">/github/workspace/applications</text>
<text text-anchor="start" x="1119.96" y="-118.5" font-family="Helvetica,sans-Serif" font-size="10.00">/incompressible_fluid_application</text>
<text text-anchor="start" x="1119.96" y="-107.5" font-family="Helvetica,sans-Serif" font-size="10.00">/custom_strategies/strategies/residualbased</text>
<text text-anchor="middle" x="1216.46" y="-96.5" font-family="Helvetica,sans-Serif" font-size="10.00">_ND_fluid_strategy.h</text>
</a>
</g>
</g>
<!-- Node1&#45;&gt;Node11 -->
<g id="edge31" class="edge">
<title>Node1&#45;&gt;Node11</title>
<path fill="none" stroke="midnightblue" d="M994.53,-279.38C1038.14,-272.18 1090.95,-258.19 1131.46,-231 1164.96,-208.51 1190.26,-168.24 1204.22,-141.95"/>
<polygon fill="midnightblue" stroke="midnightblue" points="993.86,-275.94 984.52,-280.94 994.94,-282.86 993.86,-275.94"/>
</g>
<!-- Node12 -->
<g id="node12" class="node">
<title>Node12</title>
<g id="a_node12"><a xlink:href="../../da/db6/residualbased__newton__raphson__strategy_8h.html" target="_top" xlink:title=" ">
<polygon fill="none" stroke="black" points="325.46,-178.5 325.46,-230.5 481.46,-230.5 481.46,-178.5 325.46,-178.5"/>
<text text-anchor="start" x="333.46" y="-218.5" font-family="Helvetica,sans-Serif" font-size="10.00">/github/workspace/kratos</text>
<text text-anchor="start" x="333.46" y="-207.5" font-family="Helvetica,sans-Serif" font-size="10.00">/solving_strategies/strategies</text>
<text text-anchor="start" x="333.46" y="-196.5" font-family="Helvetica,sans-Serif" font-size="10.00">/residualbased_newton_raphson</text>
<text text-anchor="middle" x="403.46" y="-185.5" font-family="Helvetica,sans-Serif" font-size="10.00">_strategy.h</text>
</a>
</g>
</g>
<!-- Node1&#45;&gt;Node12 -->
<g id="edge16" class="edge">
<title>Node1&#45;&gt;Node12</title>
<path fill="none" stroke="midnightblue" d="M830.37,-273.86C734.17,-258.45 575.95,-233.12 481.53,-218"/>
<polygon fill="midnightblue" stroke="midnightblue" points="829.91,-277.33 840.34,-275.45 831.02,-270.42 829.91,-277.33"/>
</g>
<!-- Node13 -->
<g id="node13" class="node">
<title>Node13</title>
<g id="a_node13"><a xlink:href="../../d4/de9/residualbased__convdiff__strategy__nonlinear_8h.html" target="_top" xlink:title=" ">
<polygon fill="none" stroke="black" points="211.96,-89.5 211.96,-141.5 420.96,-141.5 420.96,-89.5 211.96,-89.5"/>
<text text-anchor="start" x="219.96" y="-129.5" font-family="Helvetica,sans-Serif" font-size="10.00">/github/workspace/applications</text>
<text text-anchor="start" x="219.96" y="-118.5" font-family="Helvetica,sans-Serif" font-size="10.00">/convection_diffusion_application</text>
<text text-anchor="start" x="219.96" y="-107.5" font-family="Helvetica,sans-Serif" font-size="10.00">/custom_strategies/strategies/residualbased</text>
<text text-anchor="middle" x="316.46" y="-96.5" font-family="Helvetica,sans-Serif" font-size="10.00">_convdiff_strategy_nonlinear.h</text>
</a>
</g>
</g>
<!-- Node1&#45;&gt;Node13 -->
<g id="edge25" class="edge">
<title>Node1&#45;&gt;Node13</title>
<path fill="none" stroke="midnightblue" d="M830.45,-278.31C766.88,-270.13 677.17,-255.4 601.46,-231 549.43,-214.23 540.97,-198.92 490.46,-178 458.93,-164.94 423.52,-152.11 392.92,-141.57"/>
<polygon fill="midnightblue" stroke="midnightblue" points="830.06,-281.79 840.42,-279.57 830.94,-274.84 830.06,-281.79"/>
</g>
<!-- Node14 -->
<g id="node14" class="node">
<title>Node14</title>
<g id="a_node14"><a xlink:href="../../d6/d05/residualbased__uzawa__newton__raphson__strategy_8h.html" target="_top" xlink:title=" ">
<polygon fill="none" stroke="black" points="20.96,-89.5 20.96,-141.5 193.96,-141.5 193.96,-89.5 20.96,-89.5"/>
<text text-anchor="start" x="28.96" y="-129.5" font-family="Helvetica,sans-Serif" font-size="10.00">/github/workspace/applications</text>
<text text-anchor="start" x="28.96" y="-118.5" font-family="Helvetica,sans-Serif" font-size="10.00">/structural_application/custom</text>
<text text-anchor="start" x="28.96" y="-107.5" font-family="Helvetica,sans-Serif" font-size="10.00">_strategies/strategies/residualbased</text>
<text text-anchor="middle" x="107.46" y="-96.5" font-family="Helvetica,sans-Serif" font-size="10.00">_uzawa_newton_raphson_strategy.h</text>
</a>
</g>
</g>
<!-- Node1&#45;&gt;Node14 -->
<g id="edge33" class="edge">
<title>Node1&#45;&gt;Node14</title>
<path fill="none" stroke="midnightblue" d="M830.15,-283.39C689.8,-276.55 410.25,-259.75 316.46,-231 250.79,-210.87 182.41,-168.7 142.44,-141.54"/>
<polygon fill="midnightblue" stroke="midnightblue" points="830.26,-286.9 840.42,-283.89 830.6,-279.91 830.26,-286.9"/>
</g>
<!-- Node15 -->
<g id="node15" class="node">
<title>Node15</title>
<g id="a_node15"><a xlink:href="../../d4/d77/newton__raphson__oss__strategy_8h.html" target="_top" xlink:title=" ">
<polygon fill="none" stroke="black" points="1811.46,-178.5 1811.46,-230.5 1991.46,-230.5 1991.46,-178.5 1811.46,-178.5"/>
<text text-anchor="start" x="1819.46" y="-218.5" font-family="Helvetica,sans-Serif" font-size="10.00">/github/workspace/applications</text>
<text text-anchor="start" x="1819.46" y="-207.5" font-family="Helvetica,sans-Serif" font-size="10.00">/incompressible_fluid_application</text>
<text text-anchor="start" x="1819.46" y="-196.5" font-family="Helvetica,sans-Serif" font-size="10.00">/custom_strategies/strategies/newton</text>
<text text-anchor="middle" x="1901.46" y="-185.5" font-family="Helvetica,sans-Serif" font-size="10.00">_raphson_oss_strategy.h</text>
</a>
</g>
</g>
<!-- Node1&#45;&gt;Node15 -->
<g id="edge27" class="edge">
<title>Node1&#45;&gt;Node15</title>
<path fill="none" stroke="midnightblue" d="M994.67,-286.65C1151.63,-284.9 1504.47,-275.83 1797.46,-231 1801.96,-230.31 1806.55,-229.52 1811.18,-228.65"/>
<polygon fill="midnightblue" stroke="midnightblue" points="994.58,-283.15 984.62,-286.75 994.65,-290.15 994.58,-283.15"/>
</g>
<!-- Node16 -->
<g id="node16" class="node">
<title>Node16</title>
<g id="a_node16"><a xlink:href="../../d7/d57/structural__application_2custom__python_2add__custom__strategies__to__python_8cpp.html" target="_top" xlink:title=" ">
<polygon fill="none" stroke="black" points="2009.96,-178.5 2009.96,-230.5 2164.96,-230.5 2164.96,-178.5 2009.96,-178.5"/>
<text text-anchor="start" x="2017.96" y="-218.5" font-family="Helvetica,sans-Serif" font-size="10.00">/github/workspace/applications</text>
<text text-anchor="start" x="2017.96" y="-207.5" font-family="Helvetica,sans-Serif" font-size="10.00">/structural_application/custom</text>
<text text-anchor="start" x="2017.96" y="-196.5" font-family="Helvetica,sans-Serif" font-size="10.00">_python/add_custom_strategies</text>
<text text-anchor="middle" x="2087.46" y="-185.5" font-family="Helvetica,sans-Serif" font-size="10.00">_to_python.cpp</text>
</a>
</g>
</g>
<!-- Node1&#45;&gt;Node16 -->
<g id="edge32" class="edge">
<title>Node1&#45;&gt;Node16</title>
<path fill="none" stroke="midnightblue" d="M994.9,-285.25C1214.01,-280.2 1807.27,-263.82 2000.46,-231 2003.56,-230.47 2006.71,-229.87 2009.88,-229.21"/>
<polygon fill="midnightblue" stroke="midnightblue" points="994.67,-281.75 984.75,-285.48 994.83,-288.75 994.67,-281.75"/>
</g>
<!-- Node3&#45;&gt;Node2 -->
<g id="edge3" class="edge">
<title>Node3&#45;&gt;Node2</title>
<path fill="none" stroke="midnightblue" d="M957.69,-197.59C862.33,-189.89 706,-173.51 574.46,-142 567.62,-140.36 560.53,-138.31 553.58,-136.09"/>
<polygon fill="midnightblue" stroke="midnightblue" points="957.62,-201.1 967.87,-198.4 958.17,-194.12 957.62,-201.1"/>
</g>
<!-- Node3&#45;&gt;Node4 -->
<g id="edge4" class="edge">
<title>Node3&#45;&gt;Node4</title>
<path fill="none" stroke="midnightblue" d="M957.82,-183.33C895.79,-169.05 813.07,-150.01 751.79,-135.91"/>
<polygon fill="midnightblue" stroke="midnightblue" points="957.06,-186.75 967.59,-185.58 958.63,-179.93 957.06,-186.75"/>
</g>
<!-- Node3&#45;&gt;Node6 -->
<g id="edge6" class="edge">
<title>Node3&#45;&gt;Node6</title>
<path fill="none" stroke="midnightblue" d="M1048.1,-173.83C1048.71,-148.43 1045.42,-112.35 1025.46,-89 1004,-63.9 971.84,-49.02 940.62,-40.21"/>
<polygon fill="midnightblue" stroke="midnightblue" points="1044.6,-173.85 1047.64,-184 1051.59,-174.17 1044.6,-173.85"/>
</g>
<!-- Node3&#45;&gt;Node7 -->
<g id="edge7" class="edge">
<title>Node3&#45;&gt;Node7</title>
<path fill="none" stroke="midnightblue" d="M1007.21,-178.48C989.51,-166.9 968.52,-153.17 950.81,-141.58"/>
<polygon fill="midnightblue" stroke="midnightblue" points="1005.33,-181.43 1015.61,-183.98 1009.16,-175.57 1005.33,-181.43"/>
</g>
<!-- Node3&#45;&gt;Node8 -->
<g id="edge9" class="edge">
<title>Node3&#45;&gt;Node8</title>
<path fill="none" stroke="midnightblue" d="M1051.96,-173.65C1059.41,-146.98 1074.41,-109.1 1102.46,-89 1158.3,-48.98 1345.51,-34.97 1461.37,-30.09"/>
<polygon fill="midnightblue" stroke="midnightblue" points="1048.49,-173.05 1049.37,-183.61 1055.27,-174.81 1048.49,-173.05"/>
</g>
<!-- Node3&#45;&gt;Node9 -->
<g id="edge10" class="edge">
<title>Node3&#45;&gt;Node9</title>
<path fill="none" stroke="midnightblue" d="M1133.15,-184.67C1189.29,-172.58 1263.69,-156.48 1329.46,-142 1332.53,-141.32 1335.64,-140.64 1338.79,-139.94"/>
<polygon fill="midnightblue" stroke="midnightblue" points="1132.28,-181.28 1123.24,-186.81 1133.75,-188.12 1132.28,-181.28"/>
</g>
<!-- Node3&#45;&gt;Node10 -->
<g id="edge12" class="edge">
<title>Node3&#45;&gt;Node10</title>
<path fill="none" stroke="midnightblue" d="M1132.99,-195.74C1235.25,-186.04 1409.32,-167.54 1557.46,-142 1560.23,-141.52 1563.04,-141.02 1565.87,-140.5"/>
<polygon fill="midnightblue" stroke="midnightblue" points="1132.64,-192.26 1123.02,-196.68 1133.3,-199.22 1132.64,-192.26"/>
</g>
<!-- Node3&#45;&gt;Node11 -->
<g id="edge14" class="edge">
<title>Node3&#45;&gt;Node11</title>
<path fill="none" stroke="midnightblue" d="M1092.78,-179.42C1115.92,-167.65 1143.75,-153.49 1167.15,-141.58"/>
<polygon fill="midnightblue" stroke="midnightblue" points="1091.16,-176.32 1083.83,-183.98 1094.33,-182.56 1091.16,-176.32"/>
</g>
<!-- Node4&#45;&gt;Node5 -->
<g id="edge5" class="edge">
<title>Node4&#45;&gt;Node5</title>
<path fill="none" stroke="midnightblue" d="M573.45,-88.73C516.8,-73.22 462.71,-58.44 420.9,-47.01"/>
<polygon fill="midnightblue" stroke="midnightblue" points="572.74,-92.16 583.31,-91.42 574.59,-85.41 572.74,-92.16"/>
</g>
<!-- Node7&#45;&gt;Node6 -->
<g id="edge8" class="edge">
<title>Node7&#45;&gt;Node6</title>
<path fill="none" stroke="midnightblue" d="M886.82,-81.22C879.51,-71.72 871.66,-61.53 864.79,-52.61"/>
<polygon fill="midnightblue" stroke="midnightblue" points="884.2,-83.55 893.08,-89.34 889.75,-79.28 884.2,-83.55"/>
</g>
<!-- Node9&#45;&gt;Node8 -->
<g id="edge11" class="edge">
<title>Node9&#45;&gt;Node8</title>
<path fill="none" stroke="midnightblue" d="M1484.09,-83.22C1497.15,-73.16 1511.44,-62.16 1523.85,-52.61"/>
<polygon fill="midnightblue" stroke="midnightblue" points="1481.93,-80.46 1476.14,-89.34 1486.2,-86.01 1481.93,-80.46"/>
</g>
<!-- Node10&#45;&gt;Node8 -->
<g id="edge13" class="edge">
<title>Node10&#45;&gt;Node8</title>
<path fill="none" stroke="midnightblue" d="M1629.47,-83.22C1616.29,-73.16 1601.88,-62.16 1589.36,-52.61"/>
<polygon fill="midnightblue" stroke="midnightblue" points="1627.41,-86.05 1637.48,-89.34 1631.66,-80.49 1627.41,-86.05"/>
</g>
<!-- Node11&#45;&gt;Node8 -->
<g id="edge15" class="edge">
<title>Node11&#45;&gt;Node8</title>
<path fill="none" stroke="midnightblue" d="M1324.21,-86.93C1368.22,-75.67 1418.69,-62.75 1461.31,-51.85"/>
<polygon fill="midnightblue" stroke="midnightblue" points="1323.16,-83.58 1314.34,-89.45 1324.9,-90.36 1323.16,-83.58"/>
</g>
<!-- Node12&#45;&gt;Node2 -->
<g id="edge17" class="edge">
<title>Node12&#45;&gt;Node2</title>
<path fill="none" stroke="midnightblue" d="M439.86,-171.51C453.37,-159.64 468.29,-146.53 480.18,-136.08"/>
<polygon fill="midnightblue" stroke="midnightblue" points="437.29,-169.11 432.09,-178.34 441.92,-174.36 437.29,-169.11"/>
</g>
<!-- Node12&#45;&gt;Node13 -->
<g id="edge18" class="edge">
<title>Node12&#45;&gt;Node13</title>
<path fill="none" stroke="midnightblue" d="M371.03,-171.08C361.29,-161.34 350.76,-150.8 341.57,-141.61"/>
<polygon fill="midnightblue" stroke="midnightblue" points="368.75,-173.74 378.29,-178.34 373.7,-168.79 368.75,-173.74"/>
</g>
<!-- Node12&#45;&gt;Node14 -->
<g id="edge20" class="edge">
<title>Node12&#45;&gt;Node14</title>
<path fill="none" stroke="midnightblue" d="M315.57,-177.67C276.68,-166.24 231.12,-152.85 192.56,-141.51"/>
<polygon fill="midnightblue" stroke="midnightblue" points="314.72,-181.07 325.3,-180.53 316.69,-174.35 314.72,-181.07"/>
</g>
<!-- Node13&#45;&gt;Node6 -->
<g id="edge19" class="edge">
<title>Node13&#45;&gt;Node6</title>
<path fill="none" stroke="midnightblue" d="M431.17,-88.92C546.79,-67.71 668.42,-50.46 750.36,-39.59"/>
<polygon fill="midnightblue" stroke="midnightblue" points="430.27,-85.53 421.07,-90.79 431.54,-92.41 430.27,-85.53"/>
</g>
<!-- Node15&#45;&gt;Node8 -->
<g id="edge28" class="edge">
<title>Node15&#45;&gt;Node8</title>
<path fill="none" stroke="midnightblue" d="M1884.9,-169.28C1870.6,-143.34 1847.49,-108.87 1817.46,-89 1768.35,-56.5 1704.04,-41.1 1651.55,-33.84"/>
<polygon fill="midnightblue" stroke="midnightblue" points="1881.98,-171.24 1889.77,-178.41 1888.15,-167.94 1881.98,-171.24"/>
</g>
</g>
</svg>
