<?xml version="1.0" encoding="UTF-8" standalone="no"?>
<!DOCTYPE svg PUBLIC "-//W3C//DTD SVG 1.1//EN"
 "http://www.w3.org/Graphics/SVG/1.1/DTD/svg11.dtd">
<!-- Generated by graphviz version 2.48.0 (20210719.0153)
 -->
<!-- Title: /github/workspace/applications/convection_diffusion_application/custom_elements/conv_diff_3d.h Pages: 1 -->
<!--zoomable 306 -->
<svg id="main" version="1.1" xmlns="http://www.w3.org/2000/svg" xmlns:xlink="http://www.w3.org/1999/xlink" xml:space="preserve" onload="init(evt)">
<style type="text/css"><![CDATA[
.edge:hover path { stroke: red; }
.edge:hover polygon { stroke: red; fill: red; }
]]></style>
<script type="text/javascript"><![CDATA[
var edges = document.getElementsByTagName('g');
if (edges && edges.length) {
  for (var i=0;i<edges.length;i++) {
    if (edges[i].id.substr(0,4)=='edge') {
      edges[i].setAttribute('class','edge');
    }
  }
}
]]></script>
        <defs>
                <circle id="rim" cx="0" cy="0" r="7"/>
                <circle id="rim2" cx="0" cy="0" r="3.5"/>
                <g id="zoomPlus">
                        <use xlink:href="#rim" fill="#404040">
                                <set attributeName="fill" to="#808080" begin="zoomplus.mouseover" end="zoomplus.mouseout"/>
                        </use>
                        <path d="M-4,0h8M0,-4v8" fill="none" stroke="white" stroke-width="1.5" pointer-events="none"/>
                </g>
                <g id="zoomMin">
                        <use xlink:href="#rim" fill="#404040">
                                <set attributeName="fill" to="#808080" begin="zoomminus.mouseover" end="zoomminus.mouseout"/>
                        </use>
                        <path d="M-4,0h8" fill="none" stroke="white" stroke-width="1.5" pointer-events="none"/>
                </g>
                <g id="dirArrow">
                        <path fill="none" stroke="white" stroke-width="1.5" d="M0,-3.0v7 M-2.5,-0.5L0,-3.0L2.5,-0.5"/>
                </g>
               <g id="resetDef">
                       <use xlink:href="#rim2" fill="#404040">
                               <set attributeName="fill" to="#808080" begin="reset.mouseover" end="reset.mouseout"/>
                       </use>
               </g>
        </defs>

<script type="text/javascript">
var viewWidth = 2226;
var viewHeight = 306;
var sectionId = 'dynsection-1';
</script>
<script xlink:href="../../svgpan.js"/>
<svg id="graph" class="graph">
<g id="viewport">
<title>/github/workspace/applications/convection_diffusion_application/custom_elements/conv_diff_3d.h</title>
<!-- Node1 -->
<g id="node1" class="node">
<title>Node1</title>
<g id="a_node1"><a xlink:title=" ">
<polygon fill="#bfbfbf" stroke="black" points="504.5,-256.5 504.5,-297.5 666.5,-297.5 666.5,-256.5 504.5,-256.5"/>
<text text-anchor="start" x="512.5" y="-285.5" font-family="Helvetica,sans-Serif" font-size="10.00">/github/workspace/applications</text>
<text text-anchor="start" x="512.5" y="-274.5" font-family="Helvetica,sans-Serif" font-size="10.00">/convection_diffusion_application</text>
<text text-anchor="middle" x="585.5" y="-263.5" font-family="Helvetica,sans-Serif" font-size="10.00">/custom_elements/conv_diff_3d.h</text>
</a>
</g>
</g>
<!-- Node2 -->
<g id="node2" class="node">
<title>Node2</title>
<g id="a_node2"><a xlink:href="../../df/d7e/convection__diffusion__application_8h.html" target="_top" xlink:title=" ">
<polygon fill="none" stroke="black" points="905,-178.5 905,-219.5 1072,-219.5 1072,-178.5 905,-178.5"/>
<text text-anchor="start" x="913" y="-207.5" font-family="Helvetica,sans-Serif" font-size="10.00">/github/workspace/applications</text>
<text text-anchor="start" x="913" y="-196.5" font-family="Helvetica,sans-Serif" font-size="10.00">/convection_diffusion_application</text>
<text text-anchor="middle" x="988.5" y="-185.5" font-family="Helvetica,sans-Serif" font-size="10.00">/convection_diffusion_application.h</text>
</a>
</g>
</g>
<!-- Node1&#45;&gt;Node2 -->
<g id="edge1" class="edge">
<title>Node1&#45;&gt;Node2</title>
<path fill="none" stroke="midnightblue" d="M676.49,-258.84C744.98,-245.92 838.13,-228.36 904.79,-215.79"/>
<polygon fill="midnightblue" stroke="midnightblue" points="675.75,-255.42 666.57,-260.71 677.04,-262.3 675.75,-255.42"/>
</g>
<!-- Node7 -->
<g id="node7" class="node">
<title>Node7</title>
<g id="a_node7"><a xlink:href="../../d8/d2f/conv__diff__3d_8cpp.html" target="_top" xlink:title=" ">
<polygon fill="none" stroke="black" points="0,-95 0,-136 173,-136 173,-95 0,-95"/>
<text text-anchor="start" x="8" y="-124" font-family="Helvetica,sans-Serif" font-size="10.00">/github/workspace/applications</text>
<text text-anchor="start" x="8" y="-113" font-family="Helvetica,sans-Serif" font-size="10.00">/convection_diffusion_application</text>
<text text-anchor="middle" x="86.5" y="-102" font-family="Helvetica,sans-Serif" font-size="10.00">/custom_elements/conv_diff_3d.cpp</text>
</a>
</g>
</g>
<!-- Node1&#45;&gt;Node7 -->
<g id="edge18" class="edge">
<title>Node1&#45;&gt;Node7</title>
<path fill="none" stroke="midnightblue" d="M514.77,-253.39C416.6,-222.01 240.67,-165.78 147.8,-136.09"/>
<polygon fill="midnightblue" stroke="midnightblue" points="513.72,-256.73 524.31,-256.44 515.85,-250.06 513.72,-256.73"/>
</g>
<!-- Node3 -->
<g id="node3" class="node">
<title>Node3</title>
<g id="a_node3"><a xlink:href="../../db/d5a/convection__diffusion__application_8cpp.html" target="_top" xlink:title=" ">
<polygon fill="none" stroke="black" points="191.5,-95 191.5,-136 369.5,-136 369.5,-95 191.5,-95"/>
<text text-anchor="start" x="199.5" y="-124" font-family="Helvetica,sans-Serif" font-size="10.00">/github/workspace/applications</text>
<text text-anchor="start" x="199.5" y="-113" font-family="Helvetica,sans-Serif" font-size="10.00">/convection_diffusion_application</text>
<text text-anchor="middle" x="280.5" y="-102" font-family="Helvetica,sans-Serif" font-size="10.00">/convection_diffusion_application.cpp</text>
</a>
</g>
</g>
<!-- Node2&#45;&gt;Node3 -->
<g id="edge2" class="edge">
<title>Node2&#45;&gt;Node3</title>
<path fill="none" stroke="midnightblue" d="M894.27,-194.12C773.89,-188.07 559.44,-173.63 378.5,-142 369.15,-140.37 359.38,-138.29 349.79,-136.02"/>
<polygon fill="midnightblue" stroke="midnightblue" points="894.4,-197.63 904.56,-194.63 894.74,-190.64 894.4,-197.63"/>
</g>
<!-- Node4 -->
<g id="node4" class="node">
<title>Node4</title>
<g id="a_node4"><a xlink:href="../../d9/de1/thermal__face2_d_8cpp.html" target="_top" xlink:title=" ">
<polygon fill="none" stroke="black" points="388,-95 388,-136 579,-136 579,-95 388,-95"/>
<text text-anchor="start" x="396" y="-124" font-family="Helvetica,sans-Serif" font-size="10.00">/github/workspace/applications</text>
<text text-anchor="start" x="396" y="-113" font-family="Helvetica,sans-Serif" font-size="10.00">/convection_diffusion_application</text>
<text text-anchor="middle" x="483.5" y="-102" font-family="Helvetica,sans-Serif" font-size="10.00">/custom_conditions/thermal_face2D.cpp</text>
</a>
</g>
</g>
<!-- Node2&#45;&gt;Node4 -->
<g id="edge3" class="edge">
<title>Node2&#45;&gt;Node4</title>
<path fill="none" stroke="midnightblue" d="M894.52,-187.62C812.97,-177.95 691.93,-162.04 587.5,-142 578.37,-140.25 568.84,-138.21 559.41,-136.06"/>
<polygon fill="midnightblue" stroke="midnightblue" points="894.42,-191.13 904.76,-188.82 895.24,-184.18 894.42,-191.13"/>
</g>
<!-- Node5 -->
<g id="node5" class="node">
<title>Node5</title>
<g id="a_node5"><a xlink:href="../../d3/d1c/thermal__face3_d_8cpp.html" target="_top" xlink:title=" ">
<polygon fill="none" stroke="black" points="597,-95 597,-136 788,-136 788,-95 597,-95"/>
<text text-anchor="start" x="605" y="-124" font-family="Helvetica,sans-Serif" font-size="10.00">/github/workspace/applications</text>
<text text-anchor="start" x="605" y="-113" font-family="Helvetica,sans-Serif" font-size="10.00">/convection_diffusion_application</text>
<text text-anchor="middle" x="692.5" y="-102" font-family="Helvetica,sans-Serif" font-size="10.00">/custom_conditions/thermal_face3D.cpp</text>
</a>
</g>
</g>
<!-- Node2&#45;&gt;Node5 -->
<g id="edge4" class="edge">
<title>Node2&#45;&gt;Node5</title>
<path fill="none" stroke="midnightblue" d="M907.84,-175.79C862.65,-163.35 806.82,-147.98 763.33,-136"/>
<polygon fill="midnightblue" stroke="midnightblue" points="907.03,-179.2 917.6,-178.48 908.89,-172.45 907.03,-179.2"/>
</g>
<!-- Node6 -->
<g id="node6" class="node">
<title>Node6</title>
<g id="a_node6"><a xlink:href="../../d6/d57/conv__diff__2d_8cpp.html" target="_top" xlink:title=" ">
<polygon fill="none" stroke="black" points="806,-95 806,-136 979,-136 979,-95 806,-95"/>
<text text-anchor="start" x="814" y="-124" font-family="Helvetica,sans-Serif" font-size="10.00">/github/workspace/applications</text>
<text text-anchor="start" x="814" y="-113" font-family="Helvetica,sans-Serif" font-size="10.00">/convection_diffusion_application</text>
<text text-anchor="middle" x="892.5" y="-102" font-family="Helvetica,sans-Serif" font-size="10.00">/custom_elements/conv_diff_2d.cpp</text>
</a>
</g>
</g>
<!-- Node2&#45;&gt;Node6 -->
<g id="edge5" class="edge">
<title>Node2&#45;&gt;Node6</title>
<path fill="none" stroke="midnightblue" d="M957.51,-171.69C943.86,-160.1 928.11,-146.73 915.52,-136.05"/>
<polygon fill="midnightblue" stroke="midnightblue" points="955.37,-174.47 965.26,-178.27 959.9,-169.13 955.37,-174.47"/>
</g>
<!-- Node2&#45;&gt;Node7 -->
<g id="edge6" class="edge">
<title>Node2&#45;&gt;Node7</title>
<path fill="none" stroke="midnightblue" d="M894.8,-193.73C712.71,-185.07 317.12,-164.35 182.5,-142 173.06,-140.43 163.2,-138.35 153.55,-136.04"/>
<polygon fill="midnightblue" stroke="midnightblue" points="894.74,-197.24 904.9,-194.21 895.07,-190.24 894.74,-197.24"/>
</g>
<!-- Node8 -->
<g id="node8" class="node">
<title>Node8</title>
<g id="a_node8"><a xlink:href="../../da/d93/conv__diff__change__of__phase__2d_8cpp.html" target="_top" xlink:title=" ">
<polygon fill="none" stroke="black" points="997.5,-89.5 997.5,-141.5 1173.5,-141.5 1173.5,-89.5 997.5,-89.5"/>
<text text-anchor="start" x="1005.5" y="-129.5" font-family="Helvetica,sans-Serif" font-size="10.00">/github/workspace/applications</text>
<text text-anchor="start" x="1005.5" y="-118.5" font-family="Helvetica,sans-Serif" font-size="10.00">/convection_diffusion_application</text>
<text text-anchor="start" x="1005.5" y="-107.5" font-family="Helvetica,sans-Serif" font-size="10.00">/custom_elements/conv_diff_change</text>
<text text-anchor="middle" x="1085.5" y="-96.5" font-family="Helvetica,sans-Serif" font-size="10.00">_of_phase_2d.cpp</text>
</a>
</g>
</g>
<!-- Node2&#45;&gt;Node8 -->
<g id="edge7" class="edge">
<title>Node2&#45;&gt;Node8</title>
<path fill="none" stroke="midnightblue" d="M1019.68,-171.8C1031.2,-162.13 1044.22,-151.19 1055.62,-141.61"/>
<polygon fill="midnightblue" stroke="midnightblue" points="1017.39,-169.16 1011.98,-178.27 1021.89,-174.52 1017.39,-169.16"/>
</g>
<!-- Node9 -->
<g id="node9" class="node">
<title>Node9</title>
<g id="a_node9"><a xlink:href="../../d3/d97/residualbased__convdiff__strategy_8h.html" target="_top" xlink:title=" ">
<polygon fill="none" stroke="black" points="1192,-89.5 1192,-141.5 1401,-141.5 1401,-89.5 1192,-89.5"/>
<text text-anchor="start" x="1200" y="-129.5" font-family="Helvetica,sans-Serif" font-size="10.00">/github/workspace/applications</text>
<text text-anchor="start" x="1200" y="-118.5" font-family="Helvetica,sans-Serif" font-size="10.00">/convection_diffusion_application</text>
<text text-anchor="start" x="1200" y="-107.5" font-family="Helvetica,sans-Serif" font-size="10.00">/custom_strategies/strategies/residualbased</text>
<text text-anchor="middle" x="1296.5" y="-96.5" font-family="Helvetica,sans-Serif" font-size="10.00">_convdiff_strategy.h</text>
</a>
</g>
</g>
<!-- Node2&#45;&gt;Node9 -->
<g id="edge8" class="edge">
<title>Node2&#45;&gt;Node9</title>
<path fill="none" stroke="midnightblue" d="M1072.03,-175.9C1112.2,-165.27 1160.52,-152.48 1202.02,-141.5"/>
<polygon fill="midnightblue" stroke="midnightblue" points="1071.05,-172.54 1062.27,-178.48 1072.84,-179.3 1071.05,-172.54"/>
</g>
<!-- Node11 -->
<g id="node11" class="node">
<title>Node11</title>
<g id="a_node11"><a xlink:href="../../d4/de9/residualbased__convdiff__strategy__nonlinear_8h.html" target="_top" xlink:title=" ">
<polygon fill="none" stroke="black" points="1419,-89.5 1419,-141.5 1628,-141.5 1628,-89.5 1419,-89.5"/>
<text text-anchor="start" x="1427" y="-129.5" font-family="Helvetica,sans-Serif" font-size="10.00">/github/workspace/applications</text>
<text text-anchor="start" x="1427" y="-118.5" font-family="Helvetica,sans-Serif" font-size="10.00">/convection_diffusion_application</text>
<text text-anchor="start" x="1427" y="-107.5" font-family="Helvetica,sans-Serif" font-size="10.00">/custom_strategies/strategies/residualbased</text>
<text text-anchor="middle" x="1523.5" y="-96.5" font-family="Helvetica,sans-Serif" font-size="10.00">_convdiff_strategy_nonlinear.h</text>
</a>
</g>
</g>
<!-- Node2&#45;&gt;Node11 -->
<g id="edge10" class="edge">
<title>Node2&#45;&gt;Node11</title>
<path fill="none" stroke="midnightblue" d="M1082.26,-187.92C1167.82,-178.15 1297.6,-161.92 1409.5,-142 1412.59,-141.45 1415.73,-140.87 1418.9,-140.27"/>
<polygon fill="midnightblue" stroke="midnightblue" points="1081.85,-184.44 1072.31,-189.05 1082.64,-191.4 1081.85,-184.44"/>
</g>
<!-- Node12 -->
<g id="node12" class="node">
<title>Node12</title>
<g id="a_node12"><a xlink:href="../../d7/d10/face__heat__utilities_8h.html" target="_top" xlink:title=" ">
<polygon fill="none" stroke="black" points="1646,-95 1646,-136 1823,-136 1823,-95 1646,-95"/>
<text text-anchor="start" x="1654" y="-124" font-family="Helvetica,sans-Serif" font-size="10.00">/github/workspace/applications</text>
<text text-anchor="start" x="1654" y="-113" font-family="Helvetica,sans-Serif" font-size="10.00">/convection_diffusion_application</text>
<text text-anchor="middle" x="1734.5" y="-102" font-family="Helvetica,sans-Serif" font-size="10.00">/custom_utilities/face_heat_utilities.h</text>
</a>
</g>
</g>
<!-- Node2&#45;&gt;Node12 -->
<g id="edge12" class="edge">
<title>Node2&#45;&gt;Node12</title>
<path fill="none" stroke="midnightblue" d="M1082.23,-194.85C1208.81,-189.47 1441.06,-175.62 1636.5,-142 1645.94,-140.38 1655.81,-138.29 1665.48,-136.01"/>
<polygon fill="midnightblue" stroke="midnightblue" points="1082.03,-191.35 1072.19,-195.27 1082.32,-198.35 1082.03,-191.35"/>
</g>
<!-- Node14 -->
<g id="node14" class="node">
<title>Node14</title>
<g id="a_node14"><a xlink:href="../../d2/d0c/pure__convection___crank_n__tools_8h.html" target="_top" xlink:title=" ">
<polygon fill="none" stroke="black" points="1841.5,-89.5 1841.5,-141.5 2003.5,-141.5 2003.5,-89.5 1841.5,-89.5"/>
<text text-anchor="start" x="1849.5" y="-129.5" font-family="Helvetica,sans-Serif" font-size="10.00">/github/workspace/applications</text>
<text text-anchor="start" x="1849.5" y="-118.5" font-family="Helvetica,sans-Serif" font-size="10.00">/convection_diffusion_application</text>
<text text-anchor="start" x="1849.5" y="-107.5" font-family="Helvetica,sans-Serif" font-size="10.00">/custom_utilities/pure_convection</text>
<text text-anchor="middle" x="1922.5" y="-96.5" font-family="Helvetica,sans-Serif" font-size="10.00">_CrankN_tools.h</text>
</a>
</g>
</g>
<!-- Node2&#45;&gt;Node14 -->
<g id="edge14" class="edge">
<title>Node2&#45;&gt;Node14</title>
<path fill="none" stroke="midnightblue" d="M1082.09,-198.07C1238.44,-196.8 1562.19,-188.17 1831.5,-142 1834.73,-141.45 1838.02,-140.82 1841.33,-140.14"/>
<polygon fill="midnightblue" stroke="midnightblue" points="1082.01,-194.57 1072.03,-198.15 1082.06,-201.57 1082.01,-194.57"/>
</g>
<!-- Node15 -->
<g id="node15" class="node">
<title>Node15</title>
<g id="a_node15"><a xlink:href="../../d1/d30/pure__convection__tools_8h.html" target="_top" xlink:title=" ">
<polygon fill="none" stroke="black" points="2021.5,-95 2021.5,-136 2217.5,-136 2217.5,-95 2021.5,-95"/>
<text text-anchor="start" x="2029.5" y="-124" font-family="Helvetica,sans-Serif" font-size="10.00">/github/workspace/applications</text>
<text text-anchor="start" x="2029.5" y="-113" font-family="Helvetica,sans-Serif" font-size="10.00">/convection_diffusion_application</text>
<text text-anchor="middle" x="2119.5" y="-102" font-family="Helvetica,sans-Serif" font-size="10.00">/custom_utilities/pure_convection_tools.h</text>
</a>
</g>
</g>
<!-- Node2&#45;&gt;Node15 -->
<g id="edge16" class="edge">
<title>Node2&#45;&gt;Node15</title>
<path fill="none" stroke="midnightblue" d="M1082.31,-198.47C1263.21,-198.15 1672.49,-191.4 2012.5,-142 2023.08,-140.46 2034.16,-138.38 2045,-136.06"/>
<polygon fill="midnightblue" stroke="midnightblue" points="1082.29,-194.97 1072.29,-198.48 1082.3,-201.97 1082.29,-194.97"/>
</g>
<!-- Node10 -->
<g id="node10" class="node">
<title>Node10</title>
<g id="a_node10"><a xlink:href="../../de/d74/convection__diffusion__application_2custom__python_2add__custom__strategies__to__python_8cpp.html" target="_top" xlink:title=" ">
<polygon fill="none" stroke="black" points="1315.5,-0.5 1315.5,-52.5 1505.5,-52.5 1505.5,-0.5 1315.5,-0.5"/>
<text text-anchor="start" x="1323.5" y="-40.5" font-family="Helvetica,sans-Serif" font-size="10.00">/github/workspace/applications</text>
<text text-anchor="start" x="1323.5" y="-29.5" font-family="Helvetica,sans-Serif" font-size="10.00">/convection_diffusion_application</text>
<text text-anchor="start" x="1323.5" y="-18.5" font-family="Helvetica,sans-Serif" font-size="10.00">/custom_python/add_custom_strategies</text>
<text text-anchor="middle" x="1410.5" y="-7.5" font-family="Helvetica,sans-Serif" font-size="10.00">_to_python.cpp</text>
</a>
</g>
</g>
<!-- Node9&#45;&gt;Node10 -->
<g id="edge9" class="edge">
<title>Node9&#45;&gt;Node10</title>
<path fill="none" stroke="midnightblue" d="M1337.49,-83.22C1350.66,-73.16 1365.08,-62.16 1377.6,-52.61"/>
<polygon fill="midnightblue" stroke="midnightblue" points="1335.3,-80.49 1329.47,-89.34 1339.55,-86.05 1335.3,-80.49"/>
</g>
<!-- Node11&#45;&gt;Node10 -->
<g id="edge11" class="edge">
<title>Node11&#45;&gt;Node10</title>
<path fill="none" stroke="midnightblue" d="M1482.87,-83.22C1469.81,-73.16 1455.52,-62.16 1443.11,-52.61"/>
<polygon fill="midnightblue" stroke="midnightblue" points="1480.76,-86.01 1490.82,-89.34 1485.03,-80.46 1480.76,-86.01"/>
</g>
<!-- Node13 -->
<g id="node13" class="node">
<title>Node13</title>
<g id="a_node13"><a xlink:href="../../d8/d50/convection__diffusion__application_2custom__python_2add__custom__utilities__to__python_8cpp.html" target="_top" xlink:title=" ">
<polygon fill="none" stroke="black" points="1833.5,-0.5 1833.5,-52.5 2011.5,-52.5 2011.5,-0.5 1833.5,-0.5"/>
<text text-anchor="start" x="1841.5" y="-40.5" font-family="Helvetica,sans-Serif" font-size="10.00">/github/workspace/applications</text>
<text text-anchor="start" x="1841.5" y="-29.5" font-family="Helvetica,sans-Serif" font-size="10.00">/convection_diffusion_application</text>
<text text-anchor="start" x="1841.5" y="-18.5" font-family="Helvetica,sans-Serif" font-size="10.00">/custom_python/add_custom_utilities</text>
<text text-anchor="middle" x="1922.5" y="-7.5" font-family="Helvetica,sans-Serif" font-size="10.00">_to_python.cpp</text>
</a>
</g>
</g>
<!-- Node12&#45;&gt;Node13 -->
<g id="edge13" class="edge">
<title>Node12&#45;&gt;Node13</title>
<path fill="none" stroke="midnightblue" d="M1785.85,-90.74C1811.42,-78.9 1842.34,-64.59 1868.29,-52.58"/>
<polygon fill="midnightblue" stroke="midnightblue" points="1784.3,-87.6 1776.69,-94.98 1787.24,-93.95 1784.3,-87.6"/>
</g>
<!-- Node14&#45;&gt;Node13 -->
<g id="edge15" class="edge">
<title>Node14&#45;&gt;Node13</title>
<path fill="none" stroke="midnightblue" d="M1922.5,-79.19C1922.5,-70.28 1922.5,-60.9 1922.5,-52.61"/>
<polygon fill="midnightblue" stroke="midnightblue" points="1919,-79.34 1922.5,-89.34 1926,-79.34 1919,-79.34"/>
</g>
<!-- Node15&#45;&gt;Node13 -->
<g id="edge17" class="edge">
<title>Node15&#45;&gt;Node13</title>
<path fill="none" stroke="midnightblue" d="M2066.04,-90.89C2039.18,-79.03 2006.62,-64.65 1979.3,-52.58"/>
<polygon fill="midnightblue" stroke="midnightblue" points="2064.73,-94.14 2075.29,-94.98 2067.56,-87.73 2064.73,-94.14"/>
</g>
</g>
</svg>
        <g id="navigator" transform="translate(0 0)" fill="#404254">
                <rect fill="#f2f5e9" fill-opacity="0.5" stroke="#606060" stroke-width=".5" x="0" y="0" width="60" height="60"/>
                <use id="zoomplus" xlink:href="#zoomPlus" x="17" y="9" onmousedown="handleZoom(evt,'in')"/>
                <use id="zoomminus" xlink:href="#zoomMin" x="42" y="9" onmousedown="handleZoom(evt,'out')"/>
                <use id="reset" xlink:href="#resetDef" x="30" y="36" onmousedown="handleReset()"/>
                <g id="arrowUp" xlink:href="#dirArrow" transform="translate(30 24)" onmousedown="handlePan(0,-1)">
                  <use xlink:href="#rim" fill="#404040">
                        <set attributeName="fill" to="#808080" begin="arrowUp.mouseover" end="arrowUp.mouseout"/>
                  </use>
                  <path fill="none" stroke="white" stroke-width="1.5" d="M0,-3.0v7 M-2.5,-0.5L0,-3.0L2.5,-0.5"/>
                </g>
                <g id="arrowRight" xlink:href="#dirArrow" transform="rotate(90) translate(36 -43)" onmousedown="handlePan(1,0)">
                  <use xlink:href="#rim" fill="#404040">
                        <set attributeName="fill" to="#808080" begin="arrowRight.mouseover" end="arrowRight.mouseout"/>
                  </use>
                  <path fill="none" stroke="white" stroke-width="1.5" d="M0,-3.0v7 M-2.5,-0.5L0,-3.0L2.5,-0.5"/>
                </g>
                <g id="arrowDown" xlink:href="#dirArrow" transform="rotate(180) translate(-30 -48)" onmousedown="handlePan(0,1)">
                  <use xlink:href="#rim" fill="#404040">
                        <set attributeName="fill" to="#808080" begin="arrowDown.mouseover" end="arrowDown.mouseout"/>
                  </use>
                  <path fill="none" stroke="white" stroke-width="1.5" d="M0,-3.0v7 M-2.5,-0.5L0,-3.0L2.5,-0.5"/>
                </g>
                <g id="arrowLeft" xlink:href="#dirArrow" transform="rotate(270) translate(-36 17)" onmousedown="handlePan(-1,0)">
                  <use xlink:href="#rim" fill="#404040">
                        <set attributeName="fill" to="#808080" begin="arrowLeft.mouseover" end="arrowLeft.mouseout"/>
                  </use>
                  <path fill="none" stroke="white" stroke-width="1.5" d="M0,-3.0v7 M-2.5,-0.5L0,-3.0L2.5,-0.5"/>
                </g>
        </g>
        <svg viewBox="0 0 15 15" width="100%" height="30px" preserveAspectRatio="xMaxYMin meet">
         <g id="arrow_out" transform="scale(0.3 0.3)">
          <a xlink:href="conv__diff__3d_8h__dep__incl_org.svg" target="_base">
           <rect id="button" ry="5" rx="5" y="6" x="6" height="38" width="38"
                fill="#f2f5e9" fill-opacity="0.5" stroke="#606060" stroke-width="1.0"/>
           <path id="arrow"
             d="M 11.500037,31.436501 C 11.940474,20.09759 22.043105,11.32322 32.158766,21.979434 L 37.068811,17.246167 C 37.068811,17.246167 37.088388,32 37.088388,32 L 22.160133,31.978069 C 22.160133,31.978069 26.997745,27.140456 26.997745,27.140456 C 18.528582,18.264221 13.291696,25.230495 11.500037,31.436501 z"
             style="fill:#404040;"/>
          </a>
         </g>
        </svg>
</svg>
