<?xml version="1.0" encoding="UTF-8" standalone="no"?>
<!DOCTYPE svg PUBLIC "-//W3C//DTD SVG 1.1//EN"
 "http://www.w3.org/Graphics/SVG/1.1/DTD/svg11.dtd">
<!-- Generated by graphviz version 2.48.0 (20210719.0153)
 -->
<!-- Title: /github/workspace/applications/ExternalSolversApplication/external_includes/boost/numeric/bindings/lapack/ilaenv.hpp Pages: 1 -->
<svg width="196pt" height="128pt"
 viewBox="0.00 0.00 196.00 128.00" xmlns="http://www.w3.org/2000/svg" xmlns:xlink="http://www.w3.org/1999/xlink">
<g id="graph0" class="graph" transform="scale(1 1) rotate(0) translate(4 124)">
<title>/github/workspace/applications/ExternalSolversApplication/external_includes/boost/numeric/bindings/lapack/ilaenv.hpp</title>
<!-- Node1 -->
<g id="node1" class="node">
<title>Node1</title>
<g id="a_node1"><a xlink:title=" ">
<polygon fill="#bfbfbf" stroke="black" points="0,-67.5 0,-119.5 159,-119.5 159,-67.5 0,-67.5"/>
<text text-anchor="start" x="8" y="-107.5" font-family="Helvetica,sans-Serif" font-size="10.00">/github/workspace/applications</text>
<text text-anchor="start" x="8" y="-96.5" font-family="Helvetica,sans-Serif" font-size="10.00">/ExternalSolversApplication</text>
<text text-anchor="start" x="8" y="-85.5" font-family="Helvetica,sans-Serif" font-size="10.00">/external_includes/boost/numeric</text>
<text text-anchor="middle" x="79.5" y="-74.5" font-family="Helvetica,sans-Serif" font-size="10.00">/bindings/lapack/ilaenv.hpp</text>
</a>
</g>
</g>
<!-- Node2 -->
<g id="node2" class="node">
<title>Node2</title>
<g id="a_node2"><a xlink:title=" ">
<polygon fill="none" stroke="#bfbfbf" points="6.5,-6 6.5,-25 52.5,-25 52.5,-6 6.5,-6"/>
<text text-anchor="middle" x="29.5" y="-13" font-family="Helvetica,sans-Serif" font-size="10.00">cstring</text>
</a>
</g>
</g>
<!-- Node1&#45;&gt;Node2 -->
<g id="edge1" class="edge">
<title>Node1&#45;&gt;Node2</title>
<path fill="none" stroke="midnightblue" d="M62.85,-67.19C55.62,-56.2 47.33,-43.6 40.83,-33.72"/>
<polygon fill="midnightblue" stroke="midnightblue" points="43.65,-31.64 35.23,-25.21 37.8,-35.49 43.65,-31.64"/>
</g>
<!-- Node3 -->
<g id="node3" class="node">
<title>Node3</title>
<g id="a_node3"><a xlink:title=" ">
<polygon fill="none" stroke="#bfbfbf" points="71,-0.5 71,-30.5 188,-30.5 188,-0.5 71,-0.5"/>
<text text-anchor="start" x="79" y="-18.5" font-family="Helvetica,sans-Serif" font-size="10.00">boost/numeric/bindings</text>
<text text-anchor="middle" x="129.5" y="-7.5" font-family="Helvetica,sans-Serif" font-size="10.00">/lapack/lapack.h</text>
</a>
</g>
</g>
<!-- Node1&#45;&gt;Node3 -->
<g id="edge2" class="edge">
<title>Node1&#45;&gt;Node3</title>
<path fill="none" stroke="midnightblue" d="M96.15,-67.19C102.05,-58.22 108.66,-48.18 114.42,-39.42"/>
<polygon fill="midnightblue" stroke="midnightblue" points="117.49,-41.12 120.06,-30.85 111.64,-37.28 117.49,-41.12"/>
</g>
</g>
</svg>
