<?xml version="1.0" encoding="UTF-8" standalone="no"?>
<!DOCTYPE svg PUBLIC "-//W3C//DTD SVG 1.1//EN"
 "http://www.w3.org/Graphics/SVG/1.1/DTD/svg11.dtd">
<!-- Generated by graphviz version 2.48.0 (20210719.0153)
 -->
<!-- Title: /github/workspace/kratos/python/container_from_python.h Pages: 1 -->
<svg width="722pt" height="184pt"
 viewBox="0.00 0.00 721.71 184.00" xmlns="http://www.w3.org/2000/svg" xmlns:xlink="http://www.w3.org/1999/xlink">
<g id="graph0" class="graph" transform="scale(1 1) rotate(0) translate(4 180)">
<title>/github/workspace/kratos/python/container_from_python.h</title>
<!-- Node1 -->
<g id="node1" class="node">
<title>Node1</title>
<g id="a_node1"><a xlink:title=" ">
<polygon fill="#bfbfbf" stroke="black" points="125.21,-134.5 125.21,-175.5 251.21,-175.5 251.21,-134.5 125.21,-134.5"/>
<text text-anchor="start" x="133.21" y="-163.5" font-family="Helvetica,sans-Serif" font-size="10.00">/github/workspace/kratos</text>
<text text-anchor="start" x="133.21" y="-152.5" font-family="Helvetica,sans-Serif" font-size="10.00">/python/container_from</text>
<text text-anchor="middle" x="188.21" y="-141.5" font-family="Helvetica,sans-Serif" font-size="10.00">_python.h</text>
</a>
</g>
</g>
<!-- Node2 -->
<g id="node2" class="node">
<title>Node2</title>
<g id="a_node2"><a xlink:title=" ">
<polygon fill="none" stroke="#bfbfbf" points="83.71,-0.5 83.71,-19.5 186.71,-19.5 186.71,-0.5 83.71,-0.5"/>
<text text-anchor="middle" x="135.21" y="-7.5" font-family="Helvetica,sans-Serif" font-size="10.00">boost/smart_ptr.hpp</text>
</a>
</g>
</g>
<!-- Node1&#45;&gt;Node2 -->
<g id="edge1" class="edge">
<title>Node1&#45;&gt;Node2</title>
<path fill="none" stroke="midnightblue" d="M124.92,-152.35C84.47,-147.61 34.79,-134.11 8.21,-98 -2.86,-82.97 -2.56,-71.24 8.21,-56 23.22,-34.76 49.14,-23.48 73.67,-17.52"/>
<polygon fill="midnightblue" stroke="midnightblue" points="74.67,-20.88 83.7,-15.34 73.19,-14.04 74.67,-20.88"/>
</g>
<!-- Node3 -->
<g id="node3" class="node">
<title>Node3</title>
<g id="a_node3"><a xlink:title=" ">
<polygon fill="none" stroke="#bfbfbf" points="17.21,-67.5 17.21,-86.5 107.21,-86.5 107.21,-67.5 17.21,-67.5"/>
<text text-anchor="middle" x="62.21" y="-74.5" font-family="Helvetica,sans-Serif" font-size="10.00">boost/python.hpp</text>
</a>
</g>
</g>
<!-- Node1&#45;&gt;Node3 -->
<g id="edge2" class="edge">
<title>Node1&#45;&gt;Node3</title>
<path fill="none" stroke="midnightblue" d="M155.76,-134.43C133.6,-121.06 104.79,-103.69 85.03,-91.77"/>
<polygon fill="midnightblue" stroke="midnightblue" points="86.76,-88.72 76.39,-86.55 83.14,-94.71 86.76,-88.72"/>
</g>
<!-- Node4 -->
<g id="node4" class="node">
<title>Node4</title>
<g id="a_node4"><a xlink:title=" ">
<polygon fill="none" stroke="#bfbfbf" points="125.71,-56.5 125.71,-97.5 250.71,-97.5 250.71,-56.5 125.71,-56.5"/>
<text text-anchor="start" x="133.71" y="-85.5" font-family="Helvetica,sans-Serif" font-size="10.00">boost/python/suite</text>
<text text-anchor="start" x="133.71" y="-74.5" font-family="Helvetica,sans-Serif" font-size="10.00">/indexing/vector_indexing</text>
<text text-anchor="middle" x="188.21" y="-63.5" font-family="Helvetica,sans-Serif" font-size="10.00">_suite.hpp</text>
</a>
</g>
</g>
<!-- Node1&#45;&gt;Node4 -->
<g id="edge3" class="edge">
<title>Node1&#45;&gt;Node4</title>
<path fill="none" stroke="midnightblue" d="M188.21,-134.43C188.21,-126.27 188.21,-116.62 188.21,-107.63"/>
<polygon fill="midnightblue" stroke="midnightblue" points="191.71,-107.51 188.21,-97.51 184.71,-107.51 191.71,-107.51"/>
</g>
<!-- Node5 -->
<g id="node5" class="node">
<title>Node5</title>
<g id="a_node5"><a xlink:title=" ">
<polygon fill="none" stroke="#bfbfbf" points="269.21,-67.5 269.21,-86.5 391.21,-86.5 391.21,-67.5 269.21,-67.5"/>
<text text-anchor="middle" x="330.21" y="-74.5" font-family="Helvetica,sans-Serif" font-size="10.00">boost/python/handle.hpp</text>
</a>
</g>
</g>
<!-- Node1&#45;&gt;Node5 -->
<g id="edge4" class="edge">
<title>Node1&#45;&gt;Node5</title>
<path fill="none" stroke="midnightblue" d="M224.78,-134.43C250.09,-120.88 283.1,-103.21 305.39,-91.28"/>
<polygon fill="midnightblue" stroke="midnightblue" points="307.06,-94.36 314.23,-86.55 303.76,-88.19 307.06,-94.36"/>
</g>
<!-- Node6 -->
<g id="node6" class="node">
<title>Node6</title>
<g id="a_node6"><a xlink:href="../../df/d67/define_8h.html" target="_top" xlink:title=" ">
<polygon fill="none" stroke="black" points="409.71,-67.5 409.71,-86.5 498.71,-86.5 498.71,-67.5 409.71,-67.5"/>
<text text-anchor="middle" x="454.21" y="-74.5" font-family="Helvetica,sans-Serif" font-size="10.00">includes/define.h</text>
</a>
</g>
</g>
<!-- Node1&#45;&gt;Node6 -->
<g id="edge5" class="edge">
<title>Node1&#45;&gt;Node6</title>
<path fill="none" stroke="midnightblue" d="M251.28,-139.03C293.68,-128.56 350.67,-113.68 400.21,-98 407.7,-95.63 415.68,-92.83 423.14,-90.09"/>
<polygon fill="midnightblue" stroke="midnightblue" points="424.43,-93.34 432.57,-86.56 421.97,-86.79 424.43,-93.34"/>
</g>
<!-- Node6&#45;&gt;Node2 -->
<g id="edge8" class="edge">
<title>Node6&#45;&gt;Node2</title>
<path fill="none" stroke="midnightblue" d="M433.98,-67.49C423.97,-63.54 411.6,-59.05 400.21,-56 331.71,-37.67 251.16,-25.25 197,-18.17"/>
<polygon fill="midnightblue" stroke="midnightblue" points="197.23,-14.68 186.87,-16.87 196.34,-21.62 197.23,-14.68"/>
</g>
<!-- Node7 -->
<g id="node7" class="node">
<title>Node7</title>
<g id="a_node7"><a xlink:title=" ">
<polygon fill="none" stroke="#bfbfbf" points="295.71,-0.5 295.71,-19.5 354.71,-19.5 354.71,-0.5 295.71,-0.5"/>
<text text-anchor="middle" x="325.21" y="-7.5" font-family="Helvetica,sans-Serif" font-size="10.00">stdexcept</text>
</a>
</g>
</g>
<!-- Node6&#45;&gt;Node7 -->
<g id="edge6" class="edge">
<title>Node6&#45;&gt;Node7</title>
<path fill="none" stroke="midnightblue" d="M437.08,-67.37C415.2,-56.34 377.12,-37.16 351.54,-24.27"/>
<polygon fill="midnightblue" stroke="midnightblue" points="352.91,-21.04 342.41,-19.67 349.76,-27.29 352.91,-21.04"/>
</g>
<!-- Node8 -->
<g id="node8" class="node">
<title>Node8</title>
<g id="a_node8"><a xlink:title=" ">
<polygon fill="none" stroke="#bfbfbf" points="373.21,-0.5 373.21,-19.5 425.21,-19.5 425.21,-0.5 373.21,-0.5"/>
<text text-anchor="middle" x="399.21" y="-7.5" font-family="Helvetica,sans-Serif" font-size="10.00">sstream</text>
</a>
</g>
</g>
<!-- Node6&#45;&gt;Node8 -->
<g id="edge7" class="edge">
<title>Node6&#45;&gt;Node8</title>
<path fill="none" stroke="midnightblue" d="M446.79,-67.23C438.21,-57.1 423.91,-40.19 413.22,-27.56"/>
<polygon fill="midnightblue" stroke="midnightblue" points="415.64,-25 406.51,-19.63 410.3,-29.52 415.64,-25"/>
</g>
<!-- Node9 -->
<g id="node9" class="node">
<title>Node9</title>
<g id="a_node9"><a xlink:title=" ">
<polygon fill="none" stroke="#bfbfbf" points="443.71,-0.5 443.71,-19.5 574.71,-19.5 574.71,-0.5 443.71,-0.5"/>
<text text-anchor="middle" x="509.21" y="-7.5" font-family="Helvetica,sans-Serif" font-size="10.00">boost/current_function.hpp</text>
</a>
</g>
</g>
<!-- Node6&#45;&gt;Node9 -->
<g id="edge9" class="edge">
<title>Node6&#45;&gt;Node9</title>
<path fill="none" stroke="midnightblue" d="M461.63,-67.23C470.2,-57.1 484.51,-40.19 495.2,-27.56"/>
<polygon fill="midnightblue" stroke="midnightblue" points="498.12,-29.52 501.91,-19.63 492.78,-25 498.12,-29.52"/>
</g>
<!-- Node10 -->
<g id="node10" class="node">
<title>Node10</title>
<g id="a_node10"><a xlink:href="../../de/d17/kratos__config_8h.html" target="_top" xlink:title=" ">
<polygon fill="none" stroke="black" points="592.71,-0.5 592.71,-19.5 713.71,-19.5 713.71,-0.5 592.71,-0.5"/>
<text text-anchor="middle" x="653.21" y="-7.5" font-family="Helvetica,sans-Serif" font-size="10.00">includes/kratos_config.h</text>
</a>
</g>
</g>
<!-- Node6&#45;&gt;Node10 -->
<g id="edge10" class="edge">
<title>Node6&#45;&gt;Node10</title>
<path fill="none" stroke="midnightblue" d="M480.63,-67.37C515.74,-55.9 577.91,-35.59 617.26,-22.74"/>
<polygon fill="midnightblue" stroke="midnightblue" points="618.57,-26 626.99,-19.56 616.4,-19.34 618.57,-26"/>
</g>
</g>
</svg>
