<?xml version="1.0" encoding="UTF-8" standalone="no"?>
<!DOCTYPE svg PUBLIC "-//W3C//DTD SVG 1.1//EN"
 "http://www.w3.org/Graphics/SVG/1.1/DTD/svg11.dtd">
<!-- Generated by graphviz version 2.48.0 (20210719.0153)
 -->
<!-- Title: Kratos::EdgesStructureType&lt; TDim &gt; Pages: 1 -->
<svg width="274pt" height="1894pt"
 viewBox="0.00 0.00 273.50 1894.00" xmlns="http://www.w3.org/2000/svg" xmlns:xlink="http://www.w3.org/1999/xlink">
<g id="graph0" class="graph" transform="scale(1 1) rotate(0) translate(4 1890)">
<title>Kratos::EdgesStructureType&lt; TDim &gt;</title>
<!-- Node1 -->
<g id="node1" class="node">
<title>Node1</title>
<g id="a_node1"><a xlink:title=" ">
<polygon fill="#bfbfbf" stroke="black" points="39,-0.5 39,-178.5 193,-178.5 193,-0.5 39,-0.5"/>
<text text-anchor="start" x="47" y="-166.5" font-family="Helvetica,sans-Serif" font-size="10.00">Kratos::EdgesStructureType</text>
<text text-anchor="middle" x="116" y="-155.5" font-family="Helvetica,sans-Serif" font-size="10.00">&lt; TDim &gt;</text>
<polyline fill="none" stroke="black" points="39,-148.5 193,-148.5 "/>
<text text-anchor="start" x="47" y="-136.5" font-family="Helvetica,sans-Serif" font-size="10.00">+ Mass</text>
<polyline fill="none" stroke="black" points="39,-129.5 193,-129.5 "/>
<text text-anchor="start" x="47" y="-117.5" font-family="Helvetica,sans-Serif" font-size="10.00">+ Add_Gp()</text>
<text text-anchor="start" x="47" y="-106.5" font-family="Helvetica,sans-Serif" font-size="10.00">+ Sub_Gp()</text>
<text text-anchor="start" x="47" y="-95.5" font-family="Helvetica,sans-Serif" font-size="10.00">+ Add_D_v()</text>
<text text-anchor="start" x="47" y="-84.5" font-family="Helvetica,sans-Serif" font-size="10.00">+ Sub_D_v()</text>
<text text-anchor="start" x="47" y="-73.5" font-family="Helvetica,sans-Serif" font-size="10.00">+ Add_grad_p()</text>
<text text-anchor="start" x="47" y="-62.5" font-family="Helvetica,sans-Serif" font-size="10.00">+ Sub_grad_p()</text>
<text text-anchor="start" x="47" y="-51.5" font-family="Helvetica,sans-Serif" font-size="10.00">+ Add_div_v()</text>
<text text-anchor="start" x="47" y="-40.5" font-family="Helvetica,sans-Serif" font-size="10.00">+ Sub_div_v()</text>
<text text-anchor="start" x="47" y="-29.5" font-family="Helvetica,sans-Serif" font-size="10.00">+ CalculateScalarLaplacian()</text>
<text text-anchor="start" x="47" y="-18.5" font-family="Helvetica,sans-Serif" font-size="10.00">+ Add_ConvectiveContribution()</text>
<text text-anchor="start" x="47" y="-7.5" font-family="Helvetica,sans-Serif" font-size="10.00">and 14 more...</text>
</a>
</g>
</g>
<!-- Node2 -->
<g id="node2" class="node">
<title>Node2</title>
<g id="a_node2"><a xlink:href="../../d4/ddc/class_kratos_1_1array__1d.html" target="_top" xlink:title=" ">
<polygon fill="none" stroke="black" points="17,-682.5 17,-1465.5 167,-1465.5 167,-682.5 17,-682.5"/>
<text text-anchor="start" x="25" y="-1453.5" font-family="Helvetica,sans-Serif" font-size="10.00">Kratos::array_1d&lt; double,</text>
<text text-anchor="middle" x="92" y="-1442.5" font-family="Helvetica,sans-Serif" font-size="10.00"> TDim &gt;</text>
<polyline fill="none" stroke="black" points="17,-1435.5 167,-1435.5 "/>
<text text-anchor="middle" x="92" y="-1423.5" font-family="Helvetica,sans-Serif" font-size="10.00"> </text>
<polyline fill="none" stroke="black" points="17,-1416.5 167,-1416.5 "/>
<text text-anchor="start" x="25" y="-1404.5" font-family="Helvetica,sans-Serif" font-size="10.00">+ array_1d()</text>
<text text-anchor="start" x="25" y="-1393.5" font-family="Helvetica,sans-Serif" font-size="10.00">+ array_1d()</text>
<text text-anchor="start" x="25" y="-1382.5" font-family="Helvetica,sans-Serif" font-size="10.00">+ array_1d()</text>
<text text-anchor="start" x="25" y="-1371.5" font-family="Helvetica,sans-Serif" font-size="10.00">+ array_1d()</text>
<text text-anchor="start" x="25" y="-1360.5" font-family="Helvetica,sans-Serif" font-size="10.00">+ array_1d()</text>
<text text-anchor="start" x="25" y="-1349.5" font-family="Helvetica,sans-Serif" font-size="10.00">+ array_1d()</text>
<text text-anchor="start" x="25" y="-1338.5" font-family="Helvetica,sans-Serif" font-size="10.00">+ operator()()</text>
<text text-anchor="start" x="25" y="-1327.5" font-family="Helvetica,sans-Serif" font-size="10.00">+ operator()()</text>
<text text-anchor="start" x="25" y="-1316.5" font-family="Helvetica,sans-Serif" font-size="10.00">+ operator[]()</text>
<text text-anchor="start" x="25" y="-1305.5" font-family="Helvetica,sans-Serif" font-size="10.00">+ operator[]()</text>
<text text-anchor="start" x="25" y="-1294.5" font-family="Helvetica,sans-Serif" font-size="10.00">+ operator=()</text>
<text text-anchor="start" x="25" y="-1283.5" font-family="Helvetica,sans-Serif" font-size="10.00">+ operator=()</text>
<text text-anchor="start" x="25" y="-1272.5" font-family="Helvetica,sans-Serif" font-size="10.00">+ operator+=()</text>
<text text-anchor="start" x="25" y="-1261.5" font-family="Helvetica,sans-Serif" font-size="10.00">+ operator&#45;=()</text>
<text text-anchor="start" x="25" y="-1250.5" font-family="Helvetica,sans-Serif" font-size="10.00">+ operator/=()</text>
<text text-anchor="start" x="25" y="-1239.5" font-family="Helvetica,sans-Serif" font-size="10.00">* size_type</text>
<text text-anchor="start" x="25" y="-1228.5" font-family="Helvetica,sans-Serif" font-size="10.00">* difference_type</text>
<text text-anchor="start" x="25" y="-1217.5" font-family="Helvetica,sans-Serif" font-size="10.00">* value_type</text>
<text text-anchor="start" x="25" y="-1206.5" font-family="Helvetica,sans-Serif" font-size="10.00">* const_reference</text>
<text text-anchor="start" x="25" y="-1195.5" font-family="Helvetica,sans-Serif" font-size="10.00">* reference</text>
<text text-anchor="start" x="25" y="-1184.5" font-family="Helvetica,sans-Serif" font-size="10.00">* array_type</text>
<text text-anchor="start" x="25" y="-1173.5" font-family="Helvetica,sans-Serif" font-size="10.00">* pointer</text>
<text text-anchor="start" x="25" y="-1162.5" font-family="Helvetica,sans-Serif" font-size="10.00">* self_type</text>
<text text-anchor="start" x="25" y="-1151.5" font-family="Helvetica,sans-Serif" font-size="10.00">* const_closure_type</text>
<text text-anchor="start" x="25" y="-1140.5" font-family="Helvetica,sans-Serif" font-size="10.00">* closure_type</text>
<text text-anchor="start" x="25" y="-1129.5" font-family="Helvetica,sans-Serif" font-size="10.00">* vector_temporary_type</text>
<text text-anchor="start" x="25" y="-1118.5" font-family="Helvetica,sans-Serif" font-size="10.00">* storage_category</text>
<text text-anchor="start" x="25" y="-1107.5" font-family="Helvetica,sans-Serif" font-size="10.00">* KRATOS_CLASS_POINTER</text>
<text text-anchor="start" x="25" y="-1096.5" font-family="Helvetica,sans-Serif" font-size="10.00">_DEFINITION()</text>
<text text-anchor="start" x="25" y="-1085.5" font-family="Helvetica,sans-Serif" font-size="10.00">* const_reverse_iterator</text>
<text text-anchor="start" x="25" y="-1074.5" font-family="Helvetica,sans-Serif" font-size="10.00">* reverse_iterator</text>
<text text-anchor="start" x="25" y="-1063.5" font-family="Helvetica,sans-Serif" font-size="10.00">* const_iterator_type</text>
<text text-anchor="start" x="25" y="-1052.5" font-family="Helvetica,sans-Serif" font-size="10.00">* iterator_type</text>
<text text-anchor="start" x="25" y="-1041.5" font-family="Helvetica,sans-Serif" font-size="10.00">* find()</text>
<text text-anchor="start" x="25" y="-1030.5" font-family="Helvetica,sans-Serif" font-size="10.00">* find()</text>
<text text-anchor="start" x="25" y="-1019.5" font-family="Helvetica,sans-Serif" font-size="10.00">* size()</text>
<text text-anchor="start" x="25" y="-1008.5" font-family="Helvetica,sans-Serif" font-size="10.00">* minus_assign()</text>
<text text-anchor="start" x="25" y="-997.5" font-family="Helvetica,sans-Serif" font-size="10.00">* data()</text>
<text text-anchor="start" x="25" y="-986.5" font-family="Helvetica,sans-Serif" font-size="10.00">* data()</text>
<text text-anchor="start" x="25" y="-975.5" font-family="Helvetica,sans-Serif" font-size="10.00">and 8 more...</text>
<text text-anchor="start" x="25" y="-964.5" font-family="Helvetica,sans-Serif" font-size="10.00">* data_</text>
<text text-anchor="start" x="25" y="-953.5" font-family="Helvetica,sans-Serif" font-size="10.00">* array_1d()</text>
<text text-anchor="start" x="25" y="-942.5" font-family="Helvetica,sans-Serif" font-size="10.00">* array_1d()</text>
<text text-anchor="start" x="25" y="-931.5" font-family="Helvetica,sans-Serif" font-size="10.00">* array_1d()</text>
<text text-anchor="start" x="25" y="-920.5" font-family="Helvetica,sans-Serif" font-size="10.00">* array_1d()</text>
<text text-anchor="start" x="25" y="-909.5" font-family="Helvetica,sans-Serif" font-size="10.00">* array_1d()</text>
<text text-anchor="start" x="25" y="-898.5" font-family="Helvetica,sans-Serif" font-size="10.00">* array_1d()</text>
<text text-anchor="start" x="25" y="-887.5" font-family="Helvetica,sans-Serif" font-size="10.00">* operator()()</text>
<text text-anchor="start" x="25" y="-876.5" font-family="Helvetica,sans-Serif" font-size="10.00">* operator()()</text>
<text text-anchor="start" x="25" y="-865.5" font-family="Helvetica,sans-Serif" font-size="10.00">* operator[]()</text>
<text text-anchor="start" x="25" y="-854.5" font-family="Helvetica,sans-Serif" font-size="10.00">* operator[]()</text>
<text text-anchor="start" x="25" y="-843.5" font-family="Helvetica,sans-Serif" font-size="10.00">* operator=()</text>
<text text-anchor="start" x="25" y="-832.5" font-family="Helvetica,sans-Serif" font-size="10.00">* operator=()</text>
<text text-anchor="start" x="25" y="-821.5" font-family="Helvetica,sans-Serif" font-size="10.00">* operator+=()</text>
<text text-anchor="start" x="25" y="-810.5" font-family="Helvetica,sans-Serif" font-size="10.00">* operator&#45;=()</text>
<text text-anchor="start" x="25" y="-799.5" font-family="Helvetica,sans-Serif" font-size="10.00">* operator/=()</text>
<text text-anchor="start" x="25" y="-788.5" font-family="Helvetica,sans-Serif" font-size="10.00">* resize()</text>
<text text-anchor="start" x="25" y="-777.5" font-family="Helvetica,sans-Serif" font-size="10.00">* assign_temporary()</text>
<text text-anchor="start" x="25" y="-766.5" font-family="Helvetica,sans-Serif" font-size="10.00">* operator*=()</text>
<text text-anchor="start" x="25" y="-755.5" font-family="Helvetica,sans-Serif" font-size="10.00">* plus_assign()</text>
<text text-anchor="start" x="25" y="-744.5" font-family="Helvetica,sans-Serif" font-size="10.00">* assign()</text>
<text text-anchor="start" x="25" y="-733.5" font-family="Helvetica,sans-Serif" font-size="10.00">* swap()</text>
<text text-anchor="start" x="25" y="-722.5" font-family="Helvetica,sans-Serif" font-size="10.00">* insert_element()</text>
<text text-anchor="start" x="25" y="-711.5" font-family="Helvetica,sans-Serif" font-size="10.00">* erase_element()</text>
<text text-anchor="start" x="25" y="-700.5" font-family="Helvetica,sans-Serif" font-size="10.00">* clear()</text>
<text text-anchor="start" x="25" y="-689.5" font-family="Helvetica,sans-Serif" font-size="10.00">* swap</text>
</a>
</g>
</g>
<!-- Node2&#45;&gt;Node1 -->
<g id="edge1" class="edge">
<title>Node2&#45;&gt;Node1</title>
<path fill="none" stroke="#404040" d="M101.55,-682.22C105.9,-503.78 110.71,-306.86 113.54,-191.17"/>
<polygon fill="none" stroke="#404040" points="113.55,-190.85 109.7,-184.75 113.84,-178.85 117.69,-184.95 113.55,-190.85"/>
<text text-anchor="middle" x="128" y="-459" font-family="Helvetica,sans-Serif" font-size="10.00"> +DNi_Nj</text>
<text text-anchor="middle" x="128" y="-448" font-family="Helvetica,sans-Serif" font-size="10.00">+Ni_DNj</text>
</g>
<!-- Node3 -->
<g id="node3" class="node">
<title>Node3</title>
<g id="a_node3"><a xlink:href="../../d1/d4d/classboost_1_1numeric_1_1ublas_1_1vector__expression.html" target="_top" xlink:title=" ">
<polygon fill="none" stroke="black" points="0,-1634.5 0,-1746.5 122,-1746.5 122,-1634.5 0,-1634.5"/>
<text text-anchor="start" x="8" y="-1734.5" font-family="Helvetica,sans-Serif" font-size="10.00">boost::numeric::ublas</text>
<text text-anchor="start" x="8" y="-1723.5" font-family="Helvetica,sans-Serif" font-size="10.00">::vector_expression&lt;</text>
<text text-anchor="middle" x="61" y="-1712.5" font-family="Helvetica,sans-Serif" font-size="10.00"> array_1d&lt; double, N &gt; &gt;</text>
<polyline fill="none" stroke="black" points="0,-1705.5 122,-1705.5 "/>
<text text-anchor="start" x="8" y="-1693.5" font-family="Helvetica,sans-Serif" font-size="10.00">+ complexity</text>
<polyline fill="none" stroke="black" points="0,-1686.5 122,-1686.5 "/>
<text text-anchor="start" x="8" y="-1674.5" font-family="Helvetica,sans-Serif" font-size="10.00">+ operator()()</text>
<text text-anchor="start" x="8" y="-1663.5" font-family="Helvetica,sans-Serif" font-size="10.00">+ operator()()</text>
<text text-anchor="start" x="8" y="-1652.5" font-family="Helvetica,sans-Serif" font-size="10.00">+ operator()()</text>
<text text-anchor="start" x="8" y="-1641.5" font-family="Helvetica,sans-Serif" font-size="10.00">+ operator()()</text>
</a>
</g>
</g>
<!-- Node3&#45;&gt;Node2 -->
<g id="edge2" class="edge">
<title>Node3&#45;&gt;Node2</title>
<path fill="none" stroke="midnightblue" d="M64.29,-1624.38C66.35,-1583.5 69.2,-1527.05 72.29,-1465.8"/>
<polygon fill="none" stroke="midnightblue" points="60.79,-1624.26 63.78,-1634.43 67.78,-1624.62 60.79,-1624.26"/>
</g>
<!-- Node4 -->
<g id="node4" class="node">
<title>Node4</title>
<g id="a_node4"><a xlink:href="../../dd/db7/classboost_1_1numeric_1_1ublas_1_1ublas__expression.html" target="_top" xlink:title=" ">
<polygon fill="none" stroke="black" points="70.5,-1784.5 70.5,-1885.5 189.5,-1885.5 189.5,-1784.5 70.5,-1784.5"/>
<text text-anchor="start" x="78.5" y="-1873.5" font-family="Helvetica,sans-Serif" font-size="10.00">boost::numeric::ublas</text>
<text text-anchor="middle" x="130" y="-1862.5" font-family="Helvetica,sans-Serif" font-size="10.00">::ublas_expression&lt; E &gt;</text>
<polyline fill="none" stroke="black" points="70.5,-1855.5 189.5,-1855.5 "/>
<text text-anchor="middle" x="130" y="-1843.5" font-family="Helvetica,sans-Serif" font-size="10.00"> </text>
<polyline fill="none" stroke="black" points="70.5,-1836.5 189.5,-1836.5 "/>
<text text-anchor="start" x="78.5" y="-1824.5" font-family="Helvetica,sans-Serif" font-size="10.00"># ublas_expression()</text>
<text text-anchor="start" x="78.5" y="-1813.5" font-family="Helvetica,sans-Serif" font-size="10.00"># ~ublas_expression()</text>
<text text-anchor="start" x="78.5" y="-1802.5" font-family="Helvetica,sans-Serif" font-size="10.00"># ublas_expression()</text>
<text text-anchor="start" x="78.5" y="-1791.5" font-family="Helvetica,sans-Serif" font-size="10.00"># ~ublas_expression()</text>
</a>
</g>
</g>
<!-- Node4&#45;&gt;Node3 -->
<g id="edge3" class="edge">
<title>Node4&#45;&gt;Node3</title>
<path fill="none" stroke="midnightblue" d="M94.76,-1774.99C90.13,-1765.69 85.51,-1756.11 81.23,-1746.91"/>
<polygon fill="none" stroke="midnightblue" points="91.76,-1776.81 99.4,-1784.16 98.01,-1773.66 91.76,-1776.81"/>
</g>
<!-- Node4&#45;&gt;Node3 -->
<g id="edge4" class="edge">
<title>Node4&#45;&gt;Node3</title>
<path fill="none" stroke="midnightblue" d="M108.09,-1774.99C103.72,-1765.69 99.06,-1756.11 94.43,-1746.91"/>
<polygon fill="none" stroke="midnightblue" points="104.96,-1776.56 112.34,-1784.16 111.31,-1773.62 104.96,-1776.56"/>
</g>
<!-- Node8 -->
<g id="node8" class="node">
<title>Node8</title>
<g id="a_node8"><a xlink:href="../../d9/da6/classboost_1_1numeric_1_1ublas_1_1matrix__expression.html" target="_top" xlink:title=" ">
<polygon fill="none" stroke="black" points="140,-1640 140,-1741 262,-1741 262,-1640 140,-1640"/>
<text text-anchor="start" x="148" y="-1729" font-family="Helvetica,sans-Serif" font-size="10.00">boost::numeric::ublas</text>
<text text-anchor="middle" x="201" y="-1718" font-family="Helvetica,sans-Serif" font-size="10.00">::matrix_expression&lt; E &gt;</text>
<polyline fill="none" stroke="black" points="140,-1711 262,-1711 "/>
<text text-anchor="start" x="148" y="-1699" font-family="Helvetica,sans-Serif" font-size="10.00">+ complexity</text>
<polyline fill="none" stroke="black" points="140,-1692 262,-1692 "/>
<text text-anchor="start" x="148" y="-1680" font-family="Helvetica,sans-Serif" font-size="10.00">+ operator()()</text>
<text text-anchor="start" x="148" y="-1669" font-family="Helvetica,sans-Serif" font-size="10.00">+ operator()()</text>
<text text-anchor="start" x="148" y="-1658" font-family="Helvetica,sans-Serif" font-size="10.00">+ operator()()</text>
<text text-anchor="start" x="148" y="-1647" font-family="Helvetica,sans-Serif" font-size="10.00">+ operator()()</text>
</a>
</g>
</g>
<!-- Node4&#45;&gt;Node8 -->
<g id="edge9" class="edge">
<title>Node4&#45;&gt;Node8</title>
<path fill="none" stroke="midnightblue" d="M152.81,-1774.85C158.24,-1763.61 164.11,-1751.97 169.84,-1741.07"/>
<polygon fill="none" stroke="midnightblue" points="149.51,-1773.63 148.36,-1784.16 155.83,-1776.65 149.51,-1773.63"/>
</g>
<!-- Node4&#45;&gt;Node8 -->
<g id="edge10" class="edge">
<title>Node4&#45;&gt;Node8</title>
<path fill="none" stroke="midnightblue" d="M165.96,-1775.18C171.78,-1763.85 177.58,-1752.08 182.77,-1741.07"/>
<polygon fill="none" stroke="midnightblue" points="162.8,-1773.67 161.3,-1784.16 169.02,-1776.9 162.8,-1773.67"/>
</g>
<!-- Node5 -->
<g id="node5" class="node">
<title>Node5</title>
<g id="a_node5"><a xlink:href="../../d2/d8e/classboost_1_1numeric_1_1ublas_1_1bounded__matrix.html" target="_top" xlink:title=" ">
<polygon fill="none" stroke="black" points="136.5,-226.5 136.5,-426.5 265.5,-426.5 265.5,-226.5 136.5,-226.5"/>
<text text-anchor="start" x="144.5" y="-414.5" font-family="Helvetica,sans-Serif" font-size="10.00">boost::numeric::ublas</text>
<text text-anchor="start" x="144.5" y="-403.5" font-family="Helvetica,sans-Serif" font-size="10.00">::bounded_matrix&lt; double,</text>
<text text-anchor="middle" x="201" y="-392.5" font-family="Helvetica,sans-Serif" font-size="10.00"> TDim, TDim &gt;</text>
<polyline fill="none" stroke="black" points="136.5,-385.5 265.5,-385.5 "/>
<text text-anchor="start" x="144.5" y="-373.5" font-family="Helvetica,sans-Serif" font-size="10.00">+ max_size1</text>
<text text-anchor="start" x="144.5" y="-362.5" font-family="Helvetica,sans-Serif" font-size="10.00">+ max_size2</text>
<polyline fill="none" stroke="black" points="136.5,-355.5 265.5,-355.5 "/>
<text text-anchor="start" x="144.5" y="-343.5" font-family="Helvetica,sans-Serif" font-size="10.00">+ bounded_matrix()</text>
<text text-anchor="start" x="144.5" y="-332.5" font-family="Helvetica,sans-Serif" font-size="10.00">+ bounded_matrix()</text>
<text text-anchor="start" x="144.5" y="-321.5" font-family="Helvetica,sans-Serif" font-size="10.00">+ bounded_matrix()</text>
<text text-anchor="start" x="144.5" y="-310.5" font-family="Helvetica,sans-Serif" font-size="10.00">+ bounded_matrix()</text>
<text text-anchor="start" x="144.5" y="-299.5" font-family="Helvetica,sans-Serif" font-size="10.00">+ bounded_matrix()</text>
<text text-anchor="start" x="144.5" y="-288.5" font-family="Helvetica,sans-Serif" font-size="10.00">+ bounded_matrix()</text>
<text text-anchor="start" x="144.5" y="-277.5" font-family="Helvetica,sans-Serif" font-size="10.00">+ bounded_matrix()</text>
<text text-anchor="start" x="144.5" y="-266.5" font-family="Helvetica,sans-Serif" font-size="10.00">+ bounded_matrix()</text>
<text text-anchor="start" x="144.5" y="-255.5" font-family="Helvetica,sans-Serif" font-size="10.00">+ bounded_matrix()</text>
<text text-anchor="start" x="144.5" y="-244.5" font-family="Helvetica,sans-Serif" font-size="10.00">+ bounded_matrix()</text>
<text text-anchor="start" x="144.5" y="-233.5" font-family="Helvetica,sans-Serif" font-size="10.00">and 10 more...</text>
</a>
</g>
</g>
<!-- Node5&#45;&gt;Node1 -->
<g id="edge5" class="edge">
<title>Node5&#45;&gt;Node1</title>
<path fill="none" stroke="#404040" d="M165.08,-226.18C160.75,-214.22 156.33,-202 152,-190.04"/>
<polygon fill="none" stroke="#404040" points="151.97,-189.94 146.17,-185.66 147.89,-178.66 153.69,-182.94 151.97,-189.94"/>
<text text-anchor="middle" x="187.5" y="-200" font-family="Helvetica,sans-Serif" font-size="10.00"> +LaplacianIJ</text>
</g>
<!-- Node6 -->
<g id="node6" class="node">
<title>Node6</title>
<g id="a_node6"><a xlink:href="../../de/d8d/classboost_1_1numeric_1_1ublas_1_1matrix.html" target="_top" xlink:title=" ">
<polygon fill="none" stroke="black" points="147.5,-485.5 147.5,-663.5 254.5,-663.5 254.5,-485.5 147.5,-485.5"/>
<text text-anchor="start" x="155.5" y="-651.5" font-family="Helvetica,sans-Serif" font-size="10.00">boost::numeric::ublas</text>
<text text-anchor="middle" x="201" y="-640.5" font-family="Helvetica,sans-Serif" font-size="10.00">::matrix&lt; T, L, A &gt;</text>
<polyline fill="none" stroke="black" points="147.5,-633.5 254.5,-633.5 "/>
<text text-anchor="middle" x="201" y="-621.5" font-family="Helvetica,sans-Serif" font-size="10.00"> </text>
<polyline fill="none" stroke="black" points="147.5,-614.5 254.5,-614.5 "/>
<text text-anchor="start" x="155.5" y="-602.5" font-family="Helvetica,sans-Serif" font-size="10.00">+ matrix()</text>
<text text-anchor="start" x="155.5" y="-591.5" font-family="Helvetica,sans-Serif" font-size="10.00">+ matrix()</text>
<text text-anchor="start" x="155.5" y="-580.5" font-family="Helvetica,sans-Serif" font-size="10.00">+ matrix()</text>
<text text-anchor="start" x="155.5" y="-569.5" font-family="Helvetica,sans-Serif" font-size="10.00">+ matrix()</text>
<text text-anchor="start" x="155.5" y="-558.5" font-family="Helvetica,sans-Serif" font-size="10.00">+ matrix()</text>
<text text-anchor="start" x="155.5" y="-547.5" font-family="Helvetica,sans-Serif" font-size="10.00">+ size1()</text>
<text text-anchor="start" x="155.5" y="-536.5" font-family="Helvetica,sans-Serif" font-size="10.00">+ size2()</text>
<text text-anchor="start" x="155.5" y="-525.5" font-family="Helvetica,sans-Serif" font-size="10.00">+ data()</text>
<text text-anchor="start" x="155.5" y="-514.5" font-family="Helvetica,sans-Serif" font-size="10.00">+ data()</text>
<text text-anchor="start" x="155.5" y="-503.5" font-family="Helvetica,sans-Serif" font-size="10.00">+ resize()</text>
<text text-anchor="start" x="155.5" y="-492.5" font-family="Helvetica,sans-Serif" font-size="10.00">and 90 more...</text>
</a>
</g>
</g>
<!-- Node6&#45;&gt;Node5 -->
<g id="edge6" class="edge">
<title>Node6&#45;&gt;Node5</title>
<path fill="none" stroke="midnightblue" d="M194.37,-475.02C194.21,-459.11 194.21,-442.63 194.36,-426.7"/>
<polygon fill="none" stroke="midnightblue" points="190.88,-475.43 194.5,-485.38 197.87,-475.34 190.88,-475.43"/>
</g>
<!-- Node6&#45;&gt;Node5 -->
<g id="edge13" class="edge">
<title>Node6&#45;&gt;Node5</title>
<path fill="none" stroke="midnightblue" d="M207.63,-475.02C207.79,-459.11 207.79,-442.63 207.64,-426.7"/>
<polygon fill="none" stroke="midnightblue" points="204.13,-475.34 207.5,-485.38 211.12,-475.43 204.13,-475.34"/>
</g>
<!-- Node7 -->
<g id="node7" class="node">
<title>Node7</title>
<g id="a_node7"><a xlink:href="../../da/d15/classboost_1_1numeric_1_1ublas_1_1matrix__container.html" target="_top" xlink:title=" ">
<polygon fill="none" stroke="black" points="137.5,-1484.5 137.5,-1596.5 264.5,-1596.5 264.5,-1484.5 137.5,-1484.5"/>
<text text-anchor="start" x="145.5" y="-1584.5" font-family="Helvetica,sans-Serif" font-size="10.00">boost::numeric::ublas</text>
<text text-anchor="start" x="145.5" y="-1573.5" font-family="Helvetica,sans-Serif" font-size="10.00">::matrix_container&lt; matrix</text>
<text text-anchor="middle" x="201" y="-1562.5" font-family="Helvetica,sans-Serif" font-size="10.00">&lt; T, L, A &gt; &gt;</text>
<polyline fill="none" stroke="black" points="137.5,-1555.5 264.5,-1555.5 "/>
<text text-anchor="start" x="145.5" y="-1543.5" font-family="Helvetica,sans-Serif" font-size="10.00">+ complexity</text>
<polyline fill="none" stroke="black" points="137.5,-1536.5 264.5,-1536.5 "/>
<text text-anchor="start" x="145.5" y="-1524.5" font-family="Helvetica,sans-Serif" font-size="10.00">+ operator()()</text>
<text text-anchor="start" x="145.5" y="-1513.5" font-family="Helvetica,sans-Serif" font-size="10.00">+ operator()()</text>
<text text-anchor="start" x="145.5" y="-1502.5" font-family="Helvetica,sans-Serif" font-size="10.00">+ operator()()</text>
<text text-anchor="start" x="145.5" y="-1491.5" font-family="Helvetica,sans-Serif" font-size="10.00">+ operator()()</text>
</a>
</g>
</g>
<!-- Node7&#45;&gt;Node6 -->
<g id="edge7" class="edge">
<title>Node7&#45;&gt;Node6</title>
<path fill="none" stroke="midnightblue" d="M197.39,-1473.98C193.37,-1305.12 193.21,-854.98 196.9,-663.59"/>
<polygon fill="none" stroke="midnightblue" points="193.89,-1474.3 197.64,-1484.21 200.89,-1474.12 193.89,-1474.3"/>
</g>
<!-- Node7&#45;&gt;Node6 -->
<g id="edge12" class="edge">
<title>Node7&#45;&gt;Node6</title>
<path fill="none" stroke="midnightblue" d="M204.61,-1473.98C208.63,-1305.12 208.79,-854.98 205.1,-663.59"/>
<polygon fill="none" stroke="midnightblue" points="201.11,-1474.12 204.36,-1484.21 208.11,-1474.3 201.11,-1474.12"/>
</g>
<!-- Node8&#45;&gt;Node7 -->
<g id="edge8" class="edge">
<title>Node8&#45;&gt;Node7</title>
<path fill="none" stroke="midnightblue" d="M194.36,-1629.55C194.19,-1618.68 194.22,-1607.39 194.45,-1596.66"/>
<polygon fill="none" stroke="midnightblue" points="190.87,-1629.89 194.58,-1639.81 197.86,-1629.73 190.87,-1629.89"/>
</g>
<!-- Node8&#45;&gt;Node7 -->
<g id="edge11" class="edge">
<title>Node8&#45;&gt;Node7</title>
<path fill="none" stroke="midnightblue" d="M207.64,-1629.55C207.81,-1618.68 207.78,-1607.39 207.55,-1596.66"/>
<polygon fill="none" stroke="midnightblue" points="204.14,-1629.73 207.42,-1639.81 211.13,-1629.89 204.14,-1629.73"/>
</g>
</g>
</svg>
