<?xml version="1.0" encoding="UTF-8" standalone="no"?>
<!DOCTYPE svg PUBLIC "-//W3C//DTD SVG 1.1//EN"
 "http://www.w3.org/Graphics/SVG/1.1/DTD/svg11.dtd">
<!-- Generated by graphviz version 2.48.0 (20210719.0153)
 -->
<!-- Title: boost::numeric::ublas::symmetric_matrix&lt; T, TRI, L, A &gt; Pages: 1 -->
<svg width="154pt" height="623pt"
 viewBox="0.00 0.00 154.00 623.00" xmlns="http://www.w3.org/2000/svg" xmlns:xlink="http://www.w3.org/1999/xlink">
<g id="graph0" class="graph" transform="scale(1 1) rotate(0) translate(4 619)">
<title>boost::numeric::ublas::symmetric_matrix&lt; T, TRI, L, A &gt;</title>
<!-- Node1 -->
<g id="node1" class="node">
<title>Node1</title>
<g id="a_node1"><a xlink:title=" ">
<polygon fill="#bfbfbf" stroke="black" points="15.5,-0.5 15.5,-189.5 130.5,-189.5 130.5,-0.5 15.5,-0.5"/>
<text text-anchor="start" x="23.5" y="-177.5" font-family="Helvetica,sans-Serif" font-size="10.00">boost::numeric::ublas</text>
<text text-anchor="start" x="23.5" y="-166.5" font-family="Helvetica,sans-Serif" font-size="10.00">::symmetric_matrix&lt; T,</text>
<text text-anchor="middle" x="73" y="-155.5" font-family="Helvetica,sans-Serif" font-size="10.00"> TRI, L, A &gt;</text>
<polyline fill="none" stroke="black" points="15.5,-148.5 130.5,-148.5 "/>
<text text-anchor="middle" x="73" y="-136.5" font-family="Helvetica,sans-Serif" font-size="10.00"> </text>
<polyline fill="none" stroke="black" points="15.5,-129.5 130.5,-129.5 "/>
<text text-anchor="start" x="23.5" y="-117.5" font-family="Helvetica,sans-Serif" font-size="10.00">+ symmetric_matrix()</text>
<text text-anchor="start" x="23.5" y="-106.5" font-family="Helvetica,sans-Serif" font-size="10.00">+ symmetric_matrix()</text>
<text text-anchor="start" x="23.5" y="-95.5" font-family="Helvetica,sans-Serif" font-size="10.00">+ symmetric_matrix()</text>
<text text-anchor="start" x="23.5" y="-84.5" font-family="Helvetica,sans-Serif" font-size="10.00">+ symmetric_matrix()</text>
<text text-anchor="start" x="23.5" y="-73.5" font-family="Helvetica,sans-Serif" font-size="10.00">+ symmetric_matrix()</text>
<text text-anchor="start" x="23.5" y="-62.5" font-family="Helvetica,sans-Serif" font-size="10.00">+ symmetric_matrix()</text>
<text text-anchor="start" x="23.5" y="-51.5" font-family="Helvetica,sans-Serif" font-size="10.00">+ size1()</text>
<text text-anchor="start" x="23.5" y="-40.5" font-family="Helvetica,sans-Serif" font-size="10.00">+ size2()</text>
<text text-anchor="start" x="23.5" y="-29.5" font-family="Helvetica,sans-Serif" font-size="10.00">+ data()</text>
<text text-anchor="start" x="23.5" y="-18.5" font-family="Helvetica,sans-Serif" font-size="10.00">+ data()</text>
<text text-anchor="start" x="23.5" y="-7.5" font-family="Helvetica,sans-Serif" font-size="10.00">and 90 more...</text>
</a>
</g>
</g>
<!-- Node2 -->
<g id="node2" class="node">
<title>Node2</title>
<g id="a_node2"><a xlink:href="../../da/d15/classboost_1_1numeric_1_1ublas_1_1matrix__container.html" target="_top" xlink:title=" ">
<polygon fill="none" stroke="black" points="0,-226.5 0,-338.5 146,-338.5 146,-226.5 0,-226.5"/>
<text text-anchor="start" x="8" y="-326.5" font-family="Helvetica,sans-Serif" font-size="10.00">boost::numeric::ublas</text>
<text text-anchor="start" x="8" y="-315.5" font-family="Helvetica,sans-Serif" font-size="10.00">::matrix_container&lt; symmetric</text>
<text text-anchor="middle" x="73" y="-304.5" font-family="Helvetica,sans-Serif" font-size="10.00">_matrix&lt; T, TRI, L, A &gt; &gt;</text>
<polyline fill="none" stroke="black" points="0,-297.5 146,-297.5 "/>
<text text-anchor="start" x="8" y="-285.5" font-family="Helvetica,sans-Serif" font-size="10.00">+ complexity</text>
<polyline fill="none" stroke="black" points="0,-278.5 146,-278.5 "/>
<text text-anchor="start" x="8" y="-266.5" font-family="Helvetica,sans-Serif" font-size="10.00">+ operator()()</text>
<text text-anchor="start" x="8" y="-255.5" font-family="Helvetica,sans-Serif" font-size="10.00">+ operator()()</text>
<text text-anchor="start" x="8" y="-244.5" font-family="Helvetica,sans-Serif" font-size="10.00">+ operator()()</text>
<text text-anchor="start" x="8" y="-233.5" font-family="Helvetica,sans-Serif" font-size="10.00">+ operator()()</text>
</a>
</g>
</g>
<!-- Node2&#45;&gt;Node1 -->
<g id="edge1" class="edge">
<title>Node2&#45;&gt;Node1</title>
<path fill="none" stroke="midnightblue" d="M66.52,-216.32C66.35,-207.62 66.25,-198.57 66.25,-189.5"/>
<polygon fill="none" stroke="midnightblue" points="63.02,-216.44 66.77,-226.35 70.02,-216.26 63.02,-216.44"/>
</g>
<!-- Node2&#45;&gt;Node1 -->
<g id="edge6" class="edge">
<title>Node2&#45;&gt;Node1</title>
<path fill="none" stroke="midnightblue" d="M79.48,-216.32C79.65,-207.62 79.75,-198.57 79.75,-189.5"/>
<polygon fill="none" stroke="midnightblue" points="75.98,-216.26 79.23,-226.35 82.98,-216.44 75.98,-216.26"/>
</g>
<!-- Node3 -->
<g id="node3" class="node">
<title>Node3</title>
<g id="a_node3"><a xlink:href="../../d9/da6/classboost_1_1numeric_1_1ublas_1_1matrix__expression.html" target="_top" xlink:title=" ">
<polygon fill="none" stroke="black" points="12,-375.5 12,-476.5 134,-476.5 134,-375.5 12,-375.5"/>
<text text-anchor="start" x="20" y="-464.5" font-family="Helvetica,sans-Serif" font-size="10.00">boost::numeric::ublas</text>
<text text-anchor="middle" x="73" y="-453.5" font-family="Helvetica,sans-Serif" font-size="10.00">::matrix_expression&lt; E &gt;</text>
<polyline fill="none" stroke="black" points="12,-446.5 134,-446.5 "/>
<text text-anchor="start" x="20" y="-434.5" font-family="Helvetica,sans-Serif" font-size="10.00">+ complexity</text>
<polyline fill="none" stroke="black" points="12,-427.5 134,-427.5 "/>
<text text-anchor="start" x="20" y="-415.5" font-family="Helvetica,sans-Serif" font-size="10.00">+ operator()()</text>
<text text-anchor="start" x="20" y="-404.5" font-family="Helvetica,sans-Serif" font-size="10.00">+ operator()()</text>
<text text-anchor="start" x="20" y="-393.5" font-family="Helvetica,sans-Serif" font-size="10.00">+ operator()()</text>
<text text-anchor="start" x="20" y="-382.5" font-family="Helvetica,sans-Serif" font-size="10.00">+ operator()()</text>
</a>
</g>
</g>
<!-- Node3&#45;&gt;Node2 -->
<g id="edge2" class="edge">
<title>Node3&#45;&gt;Node2</title>
<path fill="none" stroke="midnightblue" d="M66.32,-365.01C66.21,-356.29 66.23,-347.34 66.4,-338.72"/>
<polygon fill="none" stroke="midnightblue" points="62.82,-365.18 66.52,-375.11 69.82,-365.05 62.82,-365.18"/>
</g>
<!-- Node3&#45;&gt;Node2 -->
<g id="edge5" class="edge">
<title>Node3&#45;&gt;Node2</title>
<path fill="none" stroke="midnightblue" d="M79.68,-365.01C79.79,-356.29 79.77,-347.34 79.6,-338.72"/>
<polygon fill="none" stroke="midnightblue" points="76.18,-365.05 79.48,-375.11 83.18,-365.18 76.18,-365.05"/>
</g>
<!-- Node4 -->
<g id="node4" class="node">
<title>Node4</title>
<g id="a_node4"><a xlink:href="../../dd/db7/classboost_1_1numeric_1_1ublas_1_1ublas__expression.html" target="_top" xlink:title=" ">
<polygon fill="none" stroke="black" points="13.5,-513.5 13.5,-614.5 132.5,-614.5 132.5,-513.5 13.5,-513.5"/>
<text text-anchor="start" x="21.5" y="-602.5" font-family="Helvetica,sans-Serif" font-size="10.00">boost::numeric::ublas</text>
<text text-anchor="middle" x="73" y="-591.5" font-family="Helvetica,sans-Serif" font-size="10.00">::ublas_expression&lt; E &gt;</text>
<polyline fill="none" stroke="black" points="13.5,-584.5 132.5,-584.5 "/>
<text text-anchor="middle" x="73" y="-572.5" font-family="Helvetica,sans-Serif" font-size="10.00"> </text>
<polyline fill="none" stroke="black" points="13.5,-565.5 132.5,-565.5 "/>
<text text-anchor="start" x="21.5" y="-553.5" font-family="Helvetica,sans-Serif" font-size="10.00"># ublas_expression()</text>
<text text-anchor="start" x="21.5" y="-542.5" font-family="Helvetica,sans-Serif" font-size="10.00"># ~ublas_expression()</text>
<text text-anchor="start" x="21.5" y="-531.5" font-family="Helvetica,sans-Serif" font-size="10.00"># ublas_expression()</text>
<text text-anchor="start" x="21.5" y="-520.5" font-family="Helvetica,sans-Serif" font-size="10.00"># ~ublas_expression()</text>
</a>
</g>
</g>
<!-- Node4&#45;&gt;Node3 -->
<g id="edge3" class="edge">
<title>Node4&#45;&gt;Node3</title>
<path fill="none" stroke="midnightblue" d="M66.29,-503C66.2,-494.27 66.26,-485.36 66.47,-476.86"/>
<polygon fill="none" stroke="midnightblue" points="62.79,-503.19 66.47,-513.13 69.79,-503.07 62.79,-503.19"/>
</g>
<!-- Node4&#45;&gt;Node3 -->
<g id="edge4" class="edge">
<title>Node4&#45;&gt;Node3</title>
<path fill="none" stroke="midnightblue" d="M79.71,-503C79.8,-494.27 79.74,-485.36 79.53,-476.86"/>
<polygon fill="none" stroke="midnightblue" points="76.21,-503.07 79.53,-513.13 83.21,-503.19 76.21,-503.07"/>
</g>
</g>
</svg>
