<?xml version="1.0" encoding="UTF-8" standalone="no"?>
<!DOCTYPE svg PUBLIC "-//W3C//DTD SVG 1.1//EN"
 "http://www.w3.org/Graphics/SVG/1.1/DTD/svg11.dtd">
<!-- Generated by graphviz version 2.48.0 (20210719.0153)
 -->
<!-- Title: /github/workspace/applications/mkl_solvers_application/external_includes/boost/numeric/bindings/traits/matrix_traits.hpp Pages: 1 -->
<svg width="657pt" height="139pt"
 viewBox="0.00 0.00 656.50 139.00" xmlns="http://www.w3.org/2000/svg" xmlns:xlink="http://www.w3.org/1999/xlink">
<g id="graph0" class="graph" transform="scale(1 1) rotate(0) translate(4 135)">
<title>/github/workspace/applications/mkl_solvers_application/external_includes/boost/numeric/bindings/traits/matrix_traits.hpp</title>
<!-- Node1 -->
<g id="node1" class="node">
<title>Node1</title>
<g id="a_node1"><a xlink:title=" ">
<polygon fill="#bfbfbf" stroke="black" points="252,-78.5 252,-130.5 413,-130.5 413,-78.5 252,-78.5"/>
<text text-anchor="start" x="260" y="-118.5" font-family="Helvetica,sans-Serif" font-size="10.00">/github/workspace/applications</text>
<text text-anchor="start" x="260" y="-107.5" font-family="Helvetica,sans-Serif" font-size="10.00">/mkl_solvers_application/external</text>
<text text-anchor="start" x="260" y="-96.5" font-family="Helvetica,sans-Serif" font-size="10.00">_includes/boost/numeric/bindings</text>
<text text-anchor="middle" x="332.5" y="-85.5" font-family="Helvetica,sans-Serif" font-size="10.00">/traits/matrix_traits.hpp</text>
</a>
</g>
</g>
<!-- Node2 -->
<g id="node2" class="node">
<title>Node2</title>
<g id="a_node2"><a xlink:title=" ">
<polygon fill="none" stroke="#bfbfbf" points="0,-6 0,-36 117,-36 117,-6 0,-6"/>
<text text-anchor="start" x="8" y="-24" font-family="Helvetica,sans-Serif" font-size="10.00">boost/numeric/bindings</text>
<text text-anchor="middle" x="58.5" y="-13" font-family="Helvetica,sans-Serif" font-size="10.00">/traits/config.hpp</text>
</a>
</g>
</g>
<!-- Node1&#45;&gt;Node2 -->
<g id="edge1" class="edge">
<title>Node1&#45;&gt;Node2</title>
<path fill="none" stroke="midnightblue" d="M251.88,-79.58C213.59,-68.2 167.18,-54.41 125.5,-42 122.2,-41.02 118.81,-40.01 115.39,-38.99"/>
<polygon fill="midnightblue" stroke="midnightblue" points="116.3,-35.61 105.72,-36.1 114.3,-42.31 116.3,-35.61"/>
</g>
<!-- Node3 -->
<g id="node3" class="node">
<title>Node3</title>
<g id="a_node3"><a xlink:title=" ">
<polygon fill="none" stroke="#bfbfbf" points="135,-0.5 135,-41.5 252,-41.5 252,-0.5 135,-0.5"/>
<text text-anchor="start" x="143" y="-29.5" font-family="Helvetica,sans-Serif" font-size="10.00">boost/numeric/bindings</text>
<text text-anchor="start" x="143" y="-18.5" font-family="Helvetica,sans-Serif" font-size="10.00">/traits/detail/generate</text>
<text text-anchor="middle" x="193.5" y="-7.5" font-family="Helvetica,sans-Serif" font-size="10.00">_const.hpp</text>
</a>
</g>
</g>
<!-- Node1&#45;&gt;Node3 -->
<g id="edge2" class="edge">
<title>Node1&#45;&gt;Node3</title>
<path fill="none" stroke="midnightblue" d="M289.66,-78.38C272.54,-68.35 252.88,-56.82 235.82,-46.81"/>
<polygon fill="midnightblue" stroke="midnightblue" points="237.55,-43.77 227.16,-41.73 234.01,-49.81 237.55,-43.77"/>
</g>
<!-- Node4 -->
<g id="node4" class="node">
<title>Node4</title>
<g id="a_node4"><a xlink:title=" ">
<polygon fill="none" stroke="#bfbfbf" points="270.5,-6 270.5,-36 394.5,-36 394.5,-6 270.5,-6"/>
<text text-anchor="start" x="278.5" y="-24" font-family="Helvetica,sans-Serif" font-size="10.00">boost/type_traits/remove</text>
<text text-anchor="middle" x="332.5" y="-13" font-family="Helvetica,sans-Serif" font-size="10.00">_const.hpp</text>
</a>
</g>
</g>
<!-- Node1&#45;&gt;Node4 -->
<g id="edge3" class="edge">
<title>Node1&#45;&gt;Node4</title>
<path fill="none" stroke="midnightblue" d="M332.5,-78.16C332.5,-68 332.5,-56.35 332.5,-46.3"/>
<polygon fill="midnightblue" stroke="midnightblue" points="336,-46.17 332.5,-36.17 329,-46.17 336,-46.17"/>
</g>
<!-- Node5 -->
<g id="node5" class="node">
<title>Node5</title>
<g id="a_node5"><a xlink:title=" ">
<polygon fill="none" stroke="#bfbfbf" points="413,-6 413,-36 512,-36 512,-6 413,-6"/>
<text text-anchor="start" x="421" y="-24" font-family="Helvetica,sans-Serif" font-size="10.00">boost/type_traits/is</text>
<text text-anchor="middle" x="462.5" y="-13" font-family="Helvetica,sans-Serif" font-size="10.00">_same.hpp</text>
</a>
</g>
</g>
<!-- Node1&#45;&gt;Node5 -->
<g id="edge4" class="edge">
<title>Node1&#45;&gt;Node5</title>
<path fill="none" stroke="midnightblue" d="M372.57,-78.38C391.5,-66.51 413.76,-52.56 431.39,-41.5"/>
<polygon fill="midnightblue" stroke="midnightblue" points="433.54,-44.29 440.15,-36.01 429.82,-38.36 433.54,-44.29"/>
</g>
<!-- Node6 -->
<g id="node6" class="node">
<title>Node6</title>
<g id="a_node6"><a xlink:title=" ">
<polygon fill="none" stroke="#bfbfbf" points="530.5,-11.5 530.5,-30.5 648.5,-30.5 648.5,-11.5 530.5,-11.5"/>
<text text-anchor="middle" x="589.5" y="-18.5" font-family="Helvetica,sans-Serif" font-size="10.00">boost/static_assert.hpp</text>
</a>
</g>
</g>
<!-- Node1&#45;&gt;Node6 -->
<g id="edge5" class="edge">
<title>Node1&#45;&gt;Node6</title>
<path fill="none" stroke="midnightblue" d="M411.36,-78.49C458.43,-63.57 516,-45.31 552.71,-33.67"/>
<polygon fill="midnightblue" stroke="midnightblue" points="554.01,-36.93 562.49,-30.57 551.9,-30.25 554.01,-36.93"/>
</g>
</g>
</svg>
