<?xml version="1.0" encoding="UTF-8" standalone="no"?>
<!DOCTYPE svg PUBLIC "-//W3C//DTD SVG 1.1//EN"
 "http://www.w3.org/Graphics/SVG/1.1/DTD/svg11.dtd">
<!-- Generated by graphviz version 2.48.0 (20210719.0153)
 -->
<!-- Title: /github/workspace/applications/PFEMapplication/custom_conditions/free_surface_cond2d.h Pages: 1 -->
<svg width="1907pt" height="273pt"
 viewBox="0.00 0.00 1906.50 273.00" xmlns="http://www.w3.org/2000/svg" xmlns:xlink="http://www.w3.org/1999/xlink">
<g id="graph0" class="graph" transform="scale(1 1) rotate(0) translate(4 269)">
<title>/github/workspace/applications/PFEMapplication/custom_conditions/free_surface_cond2d.h</title>
<!-- Node1 -->
<g id="node1" class="node">
<title>Node1</title>
<g id="a_node1"><a xlink:title=" ">
<polygon fill="#bfbfbf" stroke="black" points="390,-223.5 390,-264.5 568,-264.5 568,-223.5 390,-223.5"/>
<text text-anchor="start" x="398" y="-252.5" font-family="Helvetica,sans-Serif" font-size="10.00">/github/workspace/applications</text>
<text text-anchor="start" x="398" y="-241.5" font-family="Helvetica,sans-Serif" font-size="10.00">/PFEMapplication/custom_conditions</text>
<text text-anchor="middle" x="479" y="-230.5" font-family="Helvetica,sans-Serif" font-size="10.00">/free_surface_cond2d.h</text>
</a>
</g>
</g>
<!-- Node2 -->
<g id="node2" class="node">
<title>Node2</title>
<g id="a_node2"><a xlink:href="../../d1/d5d/free__surface__cond2d_8cpp.html" target="_top" xlink:title=" ">
<polygon fill="none" stroke="black" points="0,-78.5 0,-119.5 178,-119.5 178,-78.5 0,-78.5"/>
<text text-anchor="start" x="8" y="-107.5" font-family="Helvetica,sans-Serif" font-size="10.00">/github/workspace/applications</text>
<text text-anchor="start" x="8" y="-96.5" font-family="Helvetica,sans-Serif" font-size="10.00">/PFEMapplication/custom_conditions</text>
<text text-anchor="middle" x="89" y="-85.5" font-family="Helvetica,sans-Serif" font-size="10.00">/free_surface_cond2d.cpp</text>
</a>
</g>
</g>
<!-- Node1&#45;&gt;Node2 -->
<g id="edge1" class="edge">
<title>Node1&#45;&gt;Node2</title>
<path fill="none" stroke="midnightblue" d="M416.13,-219.95C340.2,-192.11 213.8,-145.76 142.39,-119.58"/>
<polygon fill="midnightblue" stroke="midnightblue" points="415,-223.26 425.59,-223.42 417.41,-216.69 415,-223.26"/>
</g>
<!-- Node3 -->
<g id="node3" class="node">
<title>Node3</title>
<g id="a_node3"><a xlink:href="../../d7/d64/_p_f_e_m__application_8h.html" target="_top" xlink:title=" ">
<polygon fill="none" stroke="black" points="778,-156.5 778,-186.5 960,-186.5 960,-156.5 778,-156.5"/>
<text text-anchor="start" x="786" y="-174.5" font-family="Helvetica,sans-Serif" font-size="10.00">/github/workspace/applications</text>
<text text-anchor="middle" x="869" y="-163.5" font-family="Helvetica,sans-Serif" font-size="10.00">/PFEMapplication/PFEM_application.h</text>
</a>
</g>
</g>
<!-- Node1&#45;&gt;Node3 -->
<g id="edge2" class="edge">
<title>Node1&#45;&gt;Node3</title>
<path fill="none" stroke="midnightblue" d="M578.51,-225.01C644.69,-213.05 730.35,-197.56 791.47,-186.51"/>
<polygon fill="midnightblue" stroke="midnightblue" points="577.69,-221.6 568.47,-226.83 578.94,-228.49 577.69,-221.6"/>
</g>
<!-- Node3&#45;&gt;Node2 -->
<g id="edge3" class="edge">
<title>Node3&#45;&gt;Node2</title>
<path fill="none" stroke="midnightblue" d="M767.66,-167.03C634.08,-161.53 392.02,-148.39 187,-120 184.08,-119.6 181.11,-119.16 178.12,-118.69"/>
<polygon fill="midnightblue" stroke="midnightblue" points="767.74,-170.54 777.88,-167.44 768.03,-163.54 767.74,-170.54"/>
</g>
<!-- Node4 -->
<g id="node4" class="node">
<title>Node4</title>
<g id="a_node4"><a xlink:href="../../dc/d9f/pressure__cond_8cpp.html" target="_top" xlink:title=" ">
<polygon fill="none" stroke="black" points="196,-78.5 196,-119.5 374,-119.5 374,-78.5 196,-78.5"/>
<text text-anchor="start" x="204" y="-107.5" font-family="Helvetica,sans-Serif" font-size="10.00">/github/workspace/applications</text>
<text text-anchor="start" x="204" y="-96.5" font-family="Helvetica,sans-Serif" font-size="10.00">/PFEMapplication/custom_conditions</text>
<text text-anchor="middle" x="285" y="-85.5" font-family="Helvetica,sans-Serif" font-size="10.00">/pressure_cond.cpp</text>
</a>
</g>
</g>
<!-- Node3&#45;&gt;Node4 -->
<g id="edge4" class="edge">
<title>Node3&#45;&gt;Node4</title>
<path fill="none" stroke="midnightblue" d="M767.49,-162.86C668.91,-154.76 515.2,-140.31 383,-120 380.08,-119.55 377.12,-119.07 374.13,-118.58"/>
<polygon fill="midnightblue" stroke="midnightblue" points="767.49,-166.37 777.74,-163.7 768.06,-159.4 767.49,-166.37"/>
</g>
<!-- Node5 -->
<g id="node5" class="node">
<title>Node5</title>
<g id="a_node5"><a xlink:href="../../d8/d6f/pressure__cond3d_8cpp.html" target="_top" xlink:title=" ">
<polygon fill="none" stroke="black" points="392,-78.5 392,-119.5 570,-119.5 570,-78.5 392,-78.5"/>
<text text-anchor="start" x="400" y="-107.5" font-family="Helvetica,sans-Serif" font-size="10.00">/github/workspace/applications</text>
<text text-anchor="start" x="400" y="-96.5" font-family="Helvetica,sans-Serif" font-size="10.00">/PFEMapplication/custom_conditions</text>
<text text-anchor="middle" x="481" y="-85.5" font-family="Helvetica,sans-Serif" font-size="10.00">/pressure_cond3d.cpp</text>
</a>
</g>
</g>
<!-- Node3&#45;&gt;Node5 -->
<g id="edge5" class="edge">
<title>Node3&#45;&gt;Node5</title>
<path fill="none" stroke="midnightblue" d="M775.42,-154.79C718.79,-145.12 645.16,-132.27 580,-120 576.73,-119.38 573.39,-118.75 570.03,-118.1"/>
<polygon fill="midnightblue" stroke="midnightblue" points="774.98,-158.27 785.43,-156.5 776.16,-151.37 774.98,-158.27"/>
</g>
<!-- Node6 -->
<g id="node6" class="node">
<title>Node6</title>
<g id="a_node6"><a xlink:href="../../d3/d85/_p_f_e_mapplication_2custom__elements_2updated__lagrangian__fluid_8cpp.html" target="_top" xlink:title=" ">
<polygon fill="none" stroke="black" points="588.5,-78.5 588.5,-119.5 761.5,-119.5 761.5,-78.5 588.5,-78.5"/>
<text text-anchor="start" x="596.5" y="-107.5" font-family="Helvetica,sans-Serif" font-size="10.00">/github/workspace/applications</text>
<text text-anchor="start" x="596.5" y="-96.5" font-family="Helvetica,sans-Serif" font-size="10.00">/PFEMapplication/custom_elements</text>
<text text-anchor="middle" x="675" y="-85.5" font-family="Helvetica,sans-Serif" font-size="10.00">/updated_lagrangian_fluid.cpp</text>
</a>
</g>
</g>
<!-- Node3&#45;&gt;Node6 -->
<g id="edge6" class="edge">
<title>Node3&#45;&gt;Node6</title>
<path fill="none" stroke="midnightblue" d="M820.66,-152.93C792.74,-142.79 757.57,-130.01 728.79,-119.55"/>
<polygon fill="midnightblue" stroke="midnightblue" points="819.61,-156.28 830.21,-156.4 822,-149.7 819.61,-156.28"/>
</g>
<!-- Node7 -->
<g id="node7" class="node">
<title>Node7</title>
<g id="a_node7"><a xlink:href="../../d8/df4/pressure__contribution__process_8h.html" target="_top" xlink:title=" ">
<polygon fill="none" stroke="black" points="779.5,-78.5 779.5,-119.5 958.5,-119.5 958.5,-78.5 779.5,-78.5"/>
<text text-anchor="start" x="787.5" y="-107.5" font-family="Helvetica,sans-Serif" font-size="10.00">/github/workspace/applications</text>
<text text-anchor="start" x="787.5" y="-96.5" font-family="Helvetica,sans-Serif" font-size="10.00">/PFEMapplication/custom_processes</text>
<text text-anchor="middle" x="869" y="-85.5" font-family="Helvetica,sans-Serif" font-size="10.00">/pressure_contribution_process.h</text>
</a>
</g>
</g>
<!-- Node3&#45;&gt;Node7 -->
<g id="edge7" class="edge">
<title>Node3&#45;&gt;Node7</title>
<path fill="none" stroke="midnightblue" d="M869,-145.98C869,-137.35 869,-127.76 869,-119.59"/>
<polygon fill="midnightblue" stroke="midnightblue" points="865.5,-146.23 869,-156.23 872.5,-146.23 865.5,-146.23"/>
</g>
<!-- Node8 -->
<g id="node8" class="node">
<title>Node8</title>
<g id="a_node8"><a xlink:href="../../d2/d1a/lagrangian__euler__solver_8h.html" target="_top" xlink:title=" ">
<polygon fill="none" stroke="black" points="977,-78.5 977,-119.5 1141,-119.5 1141,-78.5 977,-78.5"/>
<text text-anchor="start" x="985" y="-107.5" font-family="Helvetica,sans-Serif" font-size="10.00">/github/workspace/applications</text>
<text text-anchor="start" x="985" y="-96.5" font-family="Helvetica,sans-Serif" font-size="10.00">/PFEMapplication/custom_utilities</text>
<text text-anchor="middle" x="1059" y="-85.5" font-family="Helvetica,sans-Serif" font-size="10.00">/lagrangian_euler_solver.h</text>
</a>
</g>
</g>
<!-- Node3&#45;&gt;Node8 -->
<g id="edge8" class="edge">
<title>Node3&#45;&gt;Node8</title>
<path fill="none" stroke="midnightblue" d="M916.7,-152.8C943.98,-142.68 978.25,-129.96 1006.32,-119.55"/>
<polygon fill="midnightblue" stroke="midnightblue" points="915.15,-149.64 906.99,-156.4 917.59,-156.21 915.15,-149.64"/>
</g>
<!-- Node10 -->
<g id="node10" class="node">
<title>Node10</title>
<g id="a_node10"><a xlink:href="../../de/da5/lagrangian__utilities_8h.html" target="_top" xlink:title=" ">
<polygon fill="none" stroke="black" points="1159,-78.5 1159,-119.5 1323,-119.5 1323,-78.5 1159,-78.5"/>
<text text-anchor="start" x="1167" y="-107.5" font-family="Helvetica,sans-Serif" font-size="10.00">/github/workspace/applications</text>
<text text-anchor="start" x="1167" y="-96.5" font-family="Helvetica,sans-Serif" font-size="10.00">/PFEMapplication/custom_utilities</text>
<text text-anchor="middle" x="1241" y="-85.5" font-family="Helvetica,sans-Serif" font-size="10.00">/lagrangian_utilities.h</text>
</a>
</g>
</g>
<!-- Node3&#45;&gt;Node10 -->
<g id="edge10" class="edge">
<title>Node3&#45;&gt;Node10</title>
<path fill="none" stroke="midnightblue" d="M961.89,-154.73C1016.72,-145.19 1087.42,-132.49 1150,-120 1152.86,-119.43 1155.76,-118.84 1158.69,-118.24"/>
<polygon fill="midnightblue" stroke="midnightblue" points="961.1,-151.32 951.85,-156.47 962.3,-158.21 961.1,-151.32"/>
</g>
<!-- Node11 -->
<g id="node11" class="node">
<title>Node11</title>
<g id="a_node11"><a xlink:href="../../d0/d7e/_p_f_e_mapplication_2custom__utilities_2nist__utilities_8h.html" target="_top" xlink:title=" ">
<polygon fill="none" stroke="black" points="1341,-78.5 1341,-119.5 1505,-119.5 1505,-78.5 1341,-78.5"/>
<text text-anchor="start" x="1349" y="-107.5" font-family="Helvetica,sans-Serif" font-size="10.00">/github/workspace/applications</text>
<text text-anchor="start" x="1349" y="-96.5" font-family="Helvetica,sans-Serif" font-size="10.00">/PFEMapplication/custom_utilities</text>
<text text-anchor="middle" x="1423" y="-85.5" font-family="Helvetica,sans-Serif" font-size="10.00">/nist_utilities.h</text>
</a>
</g>
</g>
<!-- Node3&#45;&gt;Node11 -->
<g id="edge12" class="edge">
<title>Node3&#45;&gt;Node11</title>
<path fill="none" stroke="midnightblue" d="M970.4,-162.6C1064.49,-154.53 1208.24,-140.29 1332,-120 1334.87,-119.53 1337.79,-119.03 1340.74,-118.5"/>
<polygon fill="midnightblue" stroke="midnightblue" points="969.99,-159.13 960.32,-163.46 970.58,-166.1 969.99,-159.13"/>
</g>
<!-- Node12 -->
<g id="node12" class="node">
<title>Node12</title>
<g id="a_node12"><a xlink:href="../../d4/dd5/pfem__utilities_8h.html" target="_top" xlink:title=" ">
<polygon fill="none" stroke="black" points="1523,-78.5 1523,-119.5 1687,-119.5 1687,-78.5 1523,-78.5"/>
<text text-anchor="start" x="1531" y="-107.5" font-family="Helvetica,sans-Serif" font-size="10.00">/github/workspace/applications</text>
<text text-anchor="start" x="1531" y="-96.5" font-family="Helvetica,sans-Serif" font-size="10.00">/PFEMapplication/custom_utilities</text>
<text text-anchor="middle" x="1605" y="-85.5" font-family="Helvetica,sans-Serif" font-size="10.00">/pfem_utilities.h</text>
</a>
</g>
</g>
<!-- Node3&#45;&gt;Node12 -->
<g id="edge13" class="edge">
<title>Node3&#45;&gt;Node12</title>
<path fill="none" stroke="midnightblue" d="M970.38,-166.9C1097.83,-161.37 1323.07,-148.32 1514,-120 1516.88,-119.57 1519.81,-119.11 1522.75,-118.61"/>
<polygon fill="midnightblue" stroke="midnightblue" points="970.08,-163.41 960.24,-167.33 970.38,-170.4 970.08,-163.41"/>
</g>
<!-- Node13 -->
<g id="node13" class="node">
<title>Node13</title>
<g id="a_node13"><a xlink:href="../../d0/d3a/_p_f_e_m__application_8cpp.html" target="_top" xlink:title=" ">
<polygon fill="none" stroke="black" points="1705.5,-84 1705.5,-114 1898.5,-114 1898.5,-84 1705.5,-84"/>
<text text-anchor="start" x="1713.5" y="-102" font-family="Helvetica,sans-Serif" font-size="10.00">/github/workspace/applications</text>
<text text-anchor="middle" x="1802" y="-91" font-family="Helvetica,sans-Serif" font-size="10.00">/PFEMapplication/PFEM_application.cpp</text>
</a>
</g>
</g>
<!-- Node3&#45;&gt;Node13 -->
<g id="edge15" class="edge">
<title>Node3&#45;&gt;Node13</title>
<path fill="none" stroke="midnightblue" d="M970.28,-168.41C1126.56,-164.25 1435.68,-152.38 1696,-120 1708.54,-118.44 1721.84,-116.31 1734.63,-114.02"/>
<polygon fill="midnightblue" stroke="midnightblue" points="970.11,-164.91 960.21,-168.67 970.29,-171.91 970.11,-164.91"/>
</g>
<!-- Node9 -->
<g id="node9" class="node">
<title>Node9</title>
<g id="a_node9"><a xlink:href="../../dc/dfc/_p_f_e_mapplication_2custom__python_2add__custom__utilities__to__python_8cpp.html" target="_top" xlink:title=" ">
<polygon fill="none" stroke="black" points="1154,-0.5 1154,-41.5 1328,-41.5 1328,-0.5 1154,-0.5"/>
<text text-anchor="start" x="1162" y="-29.5" font-family="Helvetica,sans-Serif" font-size="10.00">/github/workspace/applications</text>
<text text-anchor="start" x="1162" y="-18.5" font-family="Helvetica,sans-Serif" font-size="10.00">/PFEMapplication/custom_python</text>
<text text-anchor="middle" x="1241" y="-7.5" font-family="Helvetica,sans-Serif" font-size="10.00">/add_custom_utilities_to_python.cpp</text>
</a>
</g>
</g>
<!-- Node8&#45;&gt;Node9 -->
<g id="edge9" class="edge">
<title>Node8&#45;&gt;Node9</title>
<path fill="none" stroke="midnightblue" d="M1115.35,-74.47C1140.68,-63.89 1170.22,-51.56 1194.29,-41.51"/>
<polygon fill="midnightblue" stroke="midnightblue" points="1113.75,-71.34 1105.87,-78.43 1116.45,-77.8 1113.75,-71.34"/>
</g>
<!-- Node10&#45;&gt;Node9 -->
<g id="edge11" class="edge">
<title>Node10&#45;&gt;Node9</title>
<path fill="none" stroke="midnightblue" d="M1241,-68.3C1241,-59.3 1241,-49.65 1241,-41.51"/>
<polygon fill="midnightblue" stroke="midnightblue" points="1237.5,-68.43 1241,-78.43 1244.5,-68.43 1237.5,-68.43"/>
</g>
<!-- Node12&#45;&gt;Node9 -->
<g id="edge14" class="edge">
<title>Node12&#45;&gt;Node9</title>
<path fill="none" stroke="midnightblue" d="M1512.72,-77.74C1445.34,-63.46 1379.19,-49.91 1328.05,-39.53"/>
<polygon fill="midnightblue" stroke="midnightblue" points="1512.16,-81.2 1522.67,-79.85 1513.62,-74.35 1512.16,-81.2"/>
</g>
</g>
</svg>
