<?xml version="1.0" encoding="UTF-8" standalone="no"?>
<!DOCTYPE svg PUBLIC "-//W3C//DTD SVG 1.1//EN"
 "http://www.w3.org/Graphics/SVG/1.1/DTD/svg11.dtd">
<!-- Generated by graphviz version 2.48.0 (20210719.0153)
 -->
<!-- Title: boost::numeric::ublas::scalar_vector&lt; T &gt; Pages: 1 -->
<!--zoomable 612 -->
<svg id="main" version="1.1" xmlns="http://www.w3.org/2000/svg" xmlns:xlink="http://www.w3.org/1999/xlink" xml:space="preserve" onload="init(evt)">
<style type="text/css"><![CDATA[
.edge:hover path { stroke: red; }
.edge:hover polygon { stroke: red; fill: red; }
]]></style>
<script type="text/javascript"><![CDATA[
var edges = document.getElementsByTagName('g');
if (edges && edges.length) {
  for (var i=0;i<edges.length;i++) {
    if (edges[i].id.substr(0,4)=='edge') {
      edges[i].setAttribute('class','edge');
    }
  }
}
]]></script>
        <defs>
                <circle id="rim" cx="0" cy="0" r="7"/>
                <circle id="rim2" cx="0" cy="0" r="3.5"/>
                <g id="zoomPlus">
                        <use xlink:href="#rim" fill="#404040">
                                <set attributeName="fill" to="#808080" begin="zoomplus.mouseover" end="zoomplus.mouseout"/>
                        </use>
                        <path d="M-4,0h8M0,-4v8" fill="none" stroke="white" stroke-width="1.5" pointer-events="none"/>
                </g>
                <g id="zoomMin">
                        <use xlink:href="#rim" fill="#404040">
                                <set attributeName="fill" to="#808080" begin="zoomminus.mouseover" end="zoomminus.mouseout"/>
                        </use>
                        <path d="M-4,0h8" fill="none" stroke="white" stroke-width="1.5" pointer-events="none"/>
                </g>
                <g id="dirArrow">
                        <path fill="none" stroke="white" stroke-width="1.5" d="M0,-3.0v7 M-2.5,-0.5L0,-3.0L2.5,-0.5"/>
                </g>
               <g id="resetDef">
                       <use xlink:href="#rim2" fill="#404040">
                               <set attributeName="fill" to="#808080" begin="reset.mouseover" end="reset.mouseout"/>
                       </use>
               </g>
        </defs>

<script type="text/javascript">
var viewWidth = 136;
var viewHeight = 612;
var sectionId = 'dynsection-1';
</script>
<script xlink:href="../../svgpan.js"/>
<svg id="graph" class="graph">
<g id="viewport">
<title>boost::numeric::ublas::scalar_vector&lt; T &gt;</title>
<!-- Node1 -->
<g id="node1" class="node">
<title>Node1</title>
<g id="a_node1"><a xlink:title=" ">
<polygon fill="#bfbfbf" stroke="black" points="10.5,-0.5 10.5,-178.5 117.5,-178.5 117.5,-0.5 10.5,-0.5"/>
<text text-anchor="start" x="18.5" y="-166.5" font-family="Helvetica,sans-Serif" font-size="10.00">boost::numeric::ublas</text>
<text text-anchor="middle" x="64" y="-155.5" font-family="Helvetica,sans-Serif" font-size="10.00">::scalar_vector&lt; T &gt;</text>
<polyline fill="none" stroke="black" points="10.5,-148.5 117.5,-148.5 "/>
<text text-anchor="middle" x="64" y="-136.5" font-family="Helvetica,sans-Serif" font-size="10.00"> </text>
<polyline fill="none" stroke="black" points="10.5,-129.5 117.5,-129.5 "/>
<text text-anchor="start" x="18.5" y="-117.5" font-family="Helvetica,sans-Serif" font-size="10.00">+ scalar_vector()</text>
<text text-anchor="start" x="18.5" y="-106.5" font-family="Helvetica,sans-Serif" font-size="10.00">+ scalar_vector()</text>
<text text-anchor="start" x="18.5" y="-95.5" font-family="Helvetica,sans-Serif" font-size="10.00">+ scalar_vector()</text>
<text text-anchor="start" x="18.5" y="-84.5" font-family="Helvetica,sans-Serif" font-size="10.00">+ size()</text>
<text text-anchor="start" x="18.5" y="-73.5" font-family="Helvetica,sans-Serif" font-size="10.00">+ resize()</text>
<text text-anchor="start" x="18.5" y="-62.5" font-family="Helvetica,sans-Serif" font-size="10.00">+ find_element()</text>
<text text-anchor="start" x="18.5" y="-51.5" font-family="Helvetica,sans-Serif" font-size="10.00">+ operator()()</text>
<text text-anchor="start" x="18.5" y="-40.5" font-family="Helvetica,sans-Serif" font-size="10.00">+ operator[]()</text>
<text text-anchor="start" x="18.5" y="-29.5" font-family="Helvetica,sans-Serif" font-size="10.00">+ operator=()</text>
<text text-anchor="start" x="18.5" y="-18.5" font-family="Helvetica,sans-Serif" font-size="10.00">+ assign_temporary()</text>
<text text-anchor="start" x="18.5" y="-7.5" font-family="Helvetica,sans-Serif" font-size="10.00">and 22 more...</text>
</a>
</g>
</g>
<!-- Node2 -->
<g id="node2" class="node">
<title>Node2</title>
<g id="a_node2"><a xlink:href="../../d7/dd9/classboost_1_1numeric_1_1ublas_1_1vector__container.html" target="_top" xlink:title=" ">
<polygon fill="none" stroke="black" points="0,-215.5 0,-327.5 128,-327.5 128,-215.5 0,-215.5"/>
<text text-anchor="start" x="8" y="-315.5" font-family="Helvetica,sans-Serif" font-size="10.00">boost::numeric::ublas</text>
<text text-anchor="start" x="8" y="-304.5" font-family="Helvetica,sans-Serif" font-size="10.00">::vector_container&lt; scalar</text>
<text text-anchor="middle" x="64" y="-293.5" font-family="Helvetica,sans-Serif" font-size="10.00">_vector&lt; T &gt; &gt;</text>
<polyline fill="none" stroke="black" points="0,-286.5 128,-286.5 "/>
<text text-anchor="start" x="8" y="-274.5" font-family="Helvetica,sans-Serif" font-size="10.00">+ complexity</text>
<polyline fill="none" stroke="black" points="0,-267.5 128,-267.5 "/>
<text text-anchor="start" x="8" y="-255.5" font-family="Helvetica,sans-Serif" font-size="10.00">+ operator()()</text>
<text text-anchor="start" x="8" y="-244.5" font-family="Helvetica,sans-Serif" font-size="10.00">+ operator()()</text>
<text text-anchor="start" x="8" y="-233.5" font-family="Helvetica,sans-Serif" font-size="10.00">+ operator()()</text>
<text text-anchor="start" x="8" y="-222.5" font-family="Helvetica,sans-Serif" font-size="10.00">+ operator()()</text>
</a>
</g>
</g>
<!-- Node2&#45;&gt;Node1 -->
<g id="edge1" class="edge">
<title>Node2&#45;&gt;Node1</title>
<path fill="none" stroke="midnightblue" d="M57.47,-204.79C57.31,-196.25 57.24,-187.4 57.25,-178.57"/>
<polygon fill="none" stroke="midnightblue" points="53.98,-205.11 57.71,-215.03 60.98,-204.95 53.98,-205.11"/>
</g>
<!-- Node2&#45;&gt;Node1 -->
<g id="edge6" class="edge">
<title>Node2&#45;&gt;Node1</title>
<path fill="none" stroke="midnightblue" d="M70.53,-204.79C70.69,-196.25 70.76,-187.4 70.75,-178.57"/>
<polygon fill="none" stroke="midnightblue" points="67.02,-204.95 70.29,-215.03 74.02,-205.11 67.02,-204.95"/>
</g>
<!-- Node3 -->
<g id="node3" class="node">
<title>Node3</title>
<g id="a_node3"><a xlink:href="../../d1/d4d/classboost_1_1numeric_1_1ublas_1_1vector__expression.html" target="_top" xlink:title=" ">
<polygon fill="none" stroke="black" points="3,-364.5 3,-465.5 125,-465.5 125,-364.5 3,-364.5"/>
<text text-anchor="start" x="11" y="-453.5" font-family="Helvetica,sans-Serif" font-size="10.00">boost::numeric::ublas</text>
<text text-anchor="middle" x="64" y="-442.5" font-family="Helvetica,sans-Serif" font-size="10.00">::vector_expression&lt; E &gt;</text>
<polyline fill="none" stroke="black" points="3,-435.5 125,-435.5 "/>
<text text-anchor="start" x="11" y="-423.5" font-family="Helvetica,sans-Serif" font-size="10.00">+ complexity</text>
<polyline fill="none" stroke="black" points="3,-416.5 125,-416.5 "/>
<text text-anchor="start" x="11" y="-404.5" font-family="Helvetica,sans-Serif" font-size="10.00">+ operator()()</text>
<text text-anchor="start" x="11" y="-393.5" font-family="Helvetica,sans-Serif" font-size="10.00">+ operator()()</text>
<text text-anchor="start" x="11" y="-382.5" font-family="Helvetica,sans-Serif" font-size="10.00">+ operator()()</text>
<text text-anchor="start" x="11" y="-371.5" font-family="Helvetica,sans-Serif" font-size="10.00">+ operator()()</text>
</a>
</g>
</g>
<!-- Node3&#45;&gt;Node2 -->
<g id="edge2" class="edge">
<title>Node3&#45;&gt;Node2</title>
<path fill="none" stroke="midnightblue" d="M57.32,-354.01C57.21,-345.29 57.23,-336.34 57.4,-327.72"/>
<polygon fill="none" stroke="midnightblue" points="53.82,-354.18 57.52,-364.11 60.82,-354.05 53.82,-354.18"/>
</g>
<!-- Node3&#45;&gt;Node2 -->
<g id="edge5" class="edge">
<title>Node3&#45;&gt;Node2</title>
<path fill="none" stroke="midnightblue" d="M70.68,-354.01C70.79,-345.29 70.77,-336.34 70.6,-327.72"/>
<polygon fill="none" stroke="midnightblue" points="67.18,-354.05 70.48,-364.11 74.18,-354.18 67.18,-354.05"/>
</g>
<!-- Node4 -->
<g id="node4" class="node">
<title>Node4</title>
<g id="a_node4"><a xlink:href="../../dd/db7/classboost_1_1numeric_1_1ublas_1_1ublas__expression.html" target="_top" xlink:title=" ">
<polygon fill="none" stroke="black" points="4.5,-502.5 4.5,-603.5 123.5,-603.5 123.5,-502.5 4.5,-502.5"/>
<text text-anchor="start" x="12.5" y="-591.5" font-family="Helvetica,sans-Serif" font-size="10.00">boost::numeric::ublas</text>
<text text-anchor="middle" x="64" y="-580.5" font-family="Helvetica,sans-Serif" font-size="10.00">::ublas_expression&lt; E &gt;</text>
<polyline fill="none" stroke="black" points="4.5,-573.5 123.5,-573.5 "/>
<text text-anchor="middle" x="64" y="-561.5" font-family="Helvetica,sans-Serif" font-size="10.00"> </text>
<polyline fill="none" stroke="black" points="4.5,-554.5 123.5,-554.5 "/>
<text text-anchor="start" x="12.5" y="-542.5" font-family="Helvetica,sans-Serif" font-size="10.00"># ublas_expression()</text>
<text text-anchor="start" x="12.5" y="-531.5" font-family="Helvetica,sans-Serif" font-size="10.00"># ~ublas_expression()</text>
<text text-anchor="start" x="12.5" y="-520.5" font-family="Helvetica,sans-Serif" font-size="10.00"># ublas_expression()</text>
<text text-anchor="start" x="12.5" y="-509.5" font-family="Helvetica,sans-Serif" font-size="10.00"># ~ublas_expression()</text>
</a>
</g>
</g>
<!-- Node4&#45;&gt;Node3 -->
<g id="edge3" class="edge">
<title>Node4&#45;&gt;Node3</title>
<path fill="none" stroke="midnightblue" d="M57.29,-492C57.2,-483.27 57.26,-474.36 57.47,-465.86"/>
<polygon fill="none" stroke="midnightblue" points="53.79,-492.19 57.47,-502.13 60.79,-492.07 53.79,-492.19"/>
</g>
<!-- Node4&#45;&gt;Node3 -->
<g id="edge4" class="edge">
<title>Node4&#45;&gt;Node3</title>
<path fill="none" stroke="midnightblue" d="M70.71,-492C70.8,-483.27 70.74,-474.36 70.53,-465.86"/>
<polygon fill="none" stroke="midnightblue" points="67.21,-492.07 70.53,-502.13 74.21,-492.19 67.21,-492.07"/>
</g>
</g>
</svg>
        <g id="navigator" transform="translate(0 0)" fill="#404254">
                <rect fill="#f2f5e9" fill-opacity="0.5" stroke="#606060" stroke-width=".5" x="0" y="0" width="60" height="60"/>
                <use id="zoomplus" xlink:href="#zoomPlus" x="17" y="9" onmousedown="handleZoom(evt,'in')"/>
                <use id="zoomminus" xlink:href="#zoomMin" x="42" y="9" onmousedown="handleZoom(evt,'out')"/>
                <use id="reset" xlink:href="#resetDef" x="30" y="36" onmousedown="handleReset()"/>
                <g id="arrowUp" xlink:href="#dirArrow" transform="translate(30 24)" onmousedown="handlePan(0,-1)">
                  <use xlink:href="#rim" fill="#404040">
                        <set attributeName="fill" to="#808080" begin="arrowUp.mouseover" end="arrowUp.mouseout"/>
                  </use>
                  <path fill="none" stroke="white" stroke-width="1.5" d="M0,-3.0v7 M-2.5,-0.5L0,-3.0L2.5,-0.5"/>
                </g>
                <g id="arrowRight" xlink:href="#dirArrow" transform="rotate(90) translate(36 -43)" onmousedown="handlePan(1,0)">
                  <use xlink:href="#rim" fill="#404040">
                        <set attributeName="fill" to="#808080" begin="arrowRight.mouseover" end="arrowRight.mouseout"/>
                  </use>
                  <path fill="none" stroke="white" stroke-width="1.5" d="M0,-3.0v7 M-2.5,-0.5L0,-3.0L2.5,-0.5"/>
                </g>
                <g id="arrowDown" xlink:href="#dirArrow" transform="rotate(180) translate(-30 -48)" onmousedown="handlePan(0,1)">
                  <use xlink:href="#rim" fill="#404040">
                        <set attributeName="fill" to="#808080" begin="arrowDown.mouseover" end="arrowDown.mouseout"/>
                  </use>
                  <path fill="none" stroke="white" stroke-width="1.5" d="M0,-3.0v7 M-2.5,-0.5L0,-3.0L2.5,-0.5"/>
                </g>
                <g id="arrowLeft" xlink:href="#dirArrow" transform="rotate(270) translate(-36 17)" onmousedown="handlePan(-1,0)">
                  <use xlink:href="#rim" fill="#404040">
                        <set attributeName="fill" to="#808080" begin="arrowLeft.mouseover" end="arrowLeft.mouseout"/>
                  </use>
                  <path fill="none" stroke="white" stroke-width="1.5" d="M0,-3.0v7 M-2.5,-0.5L0,-3.0L2.5,-0.5"/>
                </g>
        </g>
        <svg viewBox="0 0 15 15" width="100%" height="30px" preserveAspectRatio="xMaxYMin meet">
         <g id="arrow_out" transform="scale(0.3 0.3)">
          <a xlink:href="classboost_1_1numeric_1_1ublas_1_1scalar__vector__coll__graph_org.svg" target="_base">
           <rect id="button" ry="5" rx="5" y="6" x="6" height="38" width="38"
                fill="#f2f5e9" fill-opacity="0.5" stroke="#606060" stroke-width="1.0"/>
           <path id="arrow"
             d="M 11.500037,31.436501 C 11.940474,20.09759 22.043105,11.32322 32.158766,21.979434 L 37.068811,17.246167 C 37.068811,17.246167 37.088388,32 37.088388,32 L 22.160133,31.978069 C 22.160133,31.978069 26.997745,27.140456 26.997745,27.140456 C 18.528582,18.264221 13.291696,25.230495 11.500037,31.436501 z"
             style="fill:#404040;"/>
          </a>
         </g>
        </svg>
</svg>
