<?xml version="1.0" encoding="UTF-8" standalone="no"?>
<!DOCTYPE svg PUBLIC "-//W3C//DTD SVG 1.1//EN"
 "http://www.w3.org/Graphics/SVG/1.1/DTD/svg11.dtd">
<!-- Generated by graphviz version 2.48.0 (20210719.0153)
 -->
<!-- Title: boost::numeric::ublas::packed_proxy_tag Pages: 1 -->
<svg width="124pt" height="287pt"
 viewBox="0.00 0.00 124.00 287.00" xmlns="http://www.w3.org/2000/svg" xmlns:xlink="http://www.w3.org/1999/xlink">
<g id="graph0" class="graph" transform="scale(1 1) rotate(0) translate(4 283)">
<title>boost::numeric::ublas::packed_proxy_tag</title>
<!-- Node1 -->
<g id="node1" class="node">
<title>Node1</title>
<g id="a_node1"><a xlink:title=" ">
<polygon fill="#bfbfbf" stroke="black" points="4.5,-0.5 4.5,-68.5 111.5,-68.5 111.5,-0.5 4.5,-0.5"/>
<text text-anchor="start" x="12.5" y="-56.5" font-family="Helvetica,sans-Serif" font-size="10.00">boost::numeric::ublas</text>
<text text-anchor="middle" x="58" y="-45.5" font-family="Helvetica,sans-Serif" font-size="10.00">::packed_proxy_tag</text>
<polyline fill="none" stroke="black" points="4.5,-38.5 111.5,-38.5 "/>
<text text-anchor="middle" x="58" y="-26.5" font-family="Helvetica,sans-Serif" font-size="10.00"> </text>
<polyline fill="none" stroke="black" points="4.5,-19.5 111.5,-19.5 "/>
<text text-anchor="middle" x="58" y="-7.5" font-family="Helvetica,sans-Serif" font-size="10.00"> </text>
</a>
</g>
</g>
<!-- Node2 -->
<g id="node2" class="node">
<title>Node2</title>
<g id="a_node2"><a xlink:href="../../d5/d6d/structboost_1_1numeric_1_1ublas_1_1sparse__proxy__tag.html" target="_top" xlink:title=" ">
<polygon fill="none" stroke="black" points="4.5,-105.5 4.5,-173.5 111.5,-173.5 111.5,-105.5 4.5,-105.5"/>
<text text-anchor="start" x="12.5" y="-161.5" font-family="Helvetica,sans-Serif" font-size="10.00">boost::numeric::ublas</text>
<text text-anchor="middle" x="58" y="-150.5" font-family="Helvetica,sans-Serif" font-size="10.00">::sparse_proxy_tag</text>
<polyline fill="none" stroke="black" points="4.5,-143.5 111.5,-143.5 "/>
<text text-anchor="middle" x="58" y="-131.5" font-family="Helvetica,sans-Serif" font-size="10.00"> </text>
<polyline fill="none" stroke="black" points="4.5,-124.5 111.5,-124.5 "/>
<text text-anchor="middle" x="58" y="-112.5" font-family="Helvetica,sans-Serif" font-size="10.00"> </text>
</a>
</g>
</g>
<!-- Node2&#45;&gt;Node1 -->
<g id="edge1" class="edge">
<title>Node2&#45;&gt;Node1</title>
<path fill="none" stroke="midnightblue" d="M51.33,-95.14C51.16,-86.26 51.27,-77.04 51.65,-68.59"/>
<polygon fill="none" stroke="midnightblue" points="47.83,-95.46 51.65,-105.34 54.83,-95.24 47.83,-95.46"/>
</g>
<!-- Node2&#45;&gt;Node1 -->
<g id="edge4" class="edge">
<title>Node2&#45;&gt;Node1</title>
<path fill="none" stroke="midnightblue" d="M64.67,-95.14C64.84,-86.26 64.73,-77.04 64.35,-68.59"/>
<polygon fill="none" stroke="midnightblue" points="61.17,-95.24 64.35,-105.34 68.17,-95.46 61.17,-95.24"/>
</g>
<!-- Node3 -->
<g id="node3" class="node">
<title>Node3</title>
<g id="a_node3"><a xlink:href="../../dc/d7c/structboost_1_1numeric_1_1ublas_1_1unknown__storage__tag.html" target="_top" xlink:title=" ">
<polygon fill="none" stroke="black" points="0,-210.5 0,-278.5 116,-278.5 116,-210.5 0,-210.5"/>
<text text-anchor="start" x="8" y="-266.5" font-family="Helvetica,sans-Serif" font-size="10.00">boost::numeric::ublas</text>
<text text-anchor="middle" x="58" y="-255.5" font-family="Helvetica,sans-Serif" font-size="10.00">::unknown_storage_tag</text>
<polyline fill="none" stroke="black" points="0,-248.5 116,-248.5 "/>
<text text-anchor="middle" x="58" y="-236.5" font-family="Helvetica,sans-Serif" font-size="10.00"> </text>
<polyline fill="none" stroke="black" points="0,-229.5 116,-229.5 "/>
<text text-anchor="middle" x="58" y="-217.5" font-family="Helvetica,sans-Serif" font-size="10.00"> </text>
</a>
</g>
</g>
<!-- Node3&#45;&gt;Node2 -->
<g id="edge2" class="edge">
<title>Node3&#45;&gt;Node2</title>
<path fill="none" stroke="midnightblue" d="M51.33,-200.14C51.16,-191.26 51.27,-182.04 51.65,-173.59"/>
<polygon fill="none" stroke="midnightblue" points="47.83,-200.46 51.65,-210.34 54.83,-200.24 47.83,-200.46"/>
</g>
<!-- Node3&#45;&gt;Node2 -->
<g id="edge3" class="edge">
<title>Node3&#45;&gt;Node2</title>
<path fill="none" stroke="midnightblue" d="M64.67,-200.14C64.84,-191.26 64.73,-182.04 64.35,-173.59"/>
<polygon fill="none" stroke="midnightblue" points="61.17,-200.24 64.35,-210.34 68.17,-200.46 61.17,-200.24"/>
</g>
</g>
</svg>
