<?xml version="1.0" encoding="UTF-8" standalone="no"?>
<!DOCTYPE svg PUBLIC "-//W3C//DTD SVG 1.1//EN"
 "http://www.w3.org/Graphics/SVG/1.1/DTD/svg11.dtd">
<!-- Generated by graphviz version 2.48.0 (20210719.0153)
 -->
<!-- Title: /github/workspace/kratos/integration/integration_point.h Pages: 1 -->
<!--zoomable 363 -->
<svg id="main" version="1.1" xmlns="http://www.w3.org/2000/svg" xmlns:xlink="http://www.w3.org/1999/xlink" xml:space="preserve" onload="init(evt)">
<style type="text/css"><![CDATA[
.edge:hover path { stroke: red; }
.edge:hover polygon { stroke: red; fill: red; }
]]></style>
<script type="text/javascript"><![CDATA[
var edges = document.getElementsByTagName('g');
if (edges && edges.length) {
  for (var i=0;i<edges.length;i++) {
    if (edges[i].id.substr(0,4)=='edge') {
      edges[i].setAttribute('class','edge');
    }
  }
}
]]></script>
        <defs>
                <circle id="rim" cx="0" cy="0" r="7"/>
                <circle id="rim2" cx="0" cy="0" r="3.5"/>
                <g id="zoomPlus">
                        <use xlink:href="#rim" fill="#404040">
                                <set attributeName="fill" to="#808080" begin="zoomplus.mouseover" end="zoomplus.mouseout"/>
                        </use>
                        <path d="M-4,0h8M0,-4v8" fill="none" stroke="white" stroke-width="1.5" pointer-events="none"/>
                </g>
                <g id="zoomMin">
                        <use xlink:href="#rim" fill="#404040">
                                <set attributeName="fill" to="#808080" begin="zoomminus.mouseover" end="zoomminus.mouseout"/>
                        </use>
                        <path d="M-4,0h8" fill="none" stroke="white" stroke-width="1.5" pointer-events="none"/>
                </g>
                <g id="dirArrow">
                        <path fill="none" stroke="white" stroke-width="1.5" d="M0,-3.0v7 M-2.5,-0.5L0,-3.0L2.5,-0.5"/>
                </g>
               <g id="resetDef">
                       <use xlink:href="#rim2" fill="#404040">
                               <set attributeName="fill" to="#808080" begin="reset.mouseover" end="reset.mouseout"/>
                       </use>
               </g>
        </defs>

<script type="text/javascript">
var viewWidth = 2238;
var viewHeight = 363;
var sectionId = 'dynsection-0';
</script>
<script xlink:href="../../svgpan.js"/>
<svg id="graph" class="graph">
<g id="viewport">
<title>/github/workspace/kratos/integration/integration_point.h</title>
<!-- Node1 -->
<g id="node1" class="node">
<title>Node1</title>
<g id="a_node1"><a xlink:title=" ">
<polygon fill="#bfbfbf" stroke="black" points="1446.5,-313.5 1446.5,-354.5 1572.5,-354.5 1572.5,-313.5 1446.5,-313.5"/>
<text text-anchor="start" x="1454.5" y="-342.5" font-family="Helvetica,sans-Serif" font-size="10.00">/github/workspace/kratos</text>
<text text-anchor="start" x="1454.5" y="-331.5" font-family="Helvetica,sans-Serif" font-size="10.00">/integration/integration</text>
<text text-anchor="middle" x="1509.5" y="-320.5" font-family="Helvetica,sans-Serif" font-size="10.00">_point.h</text>
</a>
</g>
</g>
<!-- Node2 -->
<g id="node2" class="node">
<title>Node2</title>
<g id="a_node2"><a xlink:title=" ">
<polygon fill="none" stroke="#bfbfbf" points="0,-62 0,-81 41,-81 41,-62 0,-62"/>
<text text-anchor="middle" x="20.5" y="-69" font-family="Helvetica,sans-Serif" font-size="10.00">string</text>
</a>
</g>
</g>
<!-- Node1&#45;&gt;Node2 -->
<g id="edge1" class="edge">
<title>Node1&#45;&gt;Node2</title>
<path fill="none" stroke="midnightblue" d="M1446.24,-325.56C1363.75,-315.64 1215.04,-296.99 1088.5,-277 625.24,-203.84 496.33,-232.59 50.5,-87 48.87,-86.47 47.22,-85.87 45.58,-85.22"/>
<polygon fill="midnightblue" stroke="midnightblue" points="46.92,-81.99 36.36,-81.15 44.09,-88.39 46.92,-81.99"/>
</g>
<!-- Node3 -->
<g id="node3" class="node">
<title>Node3</title>
<g id="a_node3"><a xlink:title=" ">
<polygon fill="none" stroke="#bfbfbf" points="1909.5,-62 1909.5,-81 1963.5,-81 1963.5,-62 1909.5,-62"/>
<text text-anchor="middle" x="1936.5" y="-69" font-family="Helvetica,sans-Serif" font-size="10.00">iostream</text>
</a>
</g>
</g>
<!-- Node1&#45;&gt;Node3 -->
<g id="edge2" class="edge">
<title>Node1&#45;&gt;Node3</title>
<path fill="none" stroke="midnightblue" d="M1541.71,-313.43C1595.82,-280.54 1708.39,-212.09 1803.5,-154 1842.37,-130.26 1887.56,-102.54 1914,-86.31"/>
<polygon fill="midnightblue" stroke="midnightblue" points="1915.84,-89.29 1922.53,-81.08 1912.18,-83.33 1915.84,-89.29"/>
</g>
<!-- Node4 -->
<g id="node4" class="node">
<title>Node4</title>
<g id="a_node4"><a xlink:title=" ">
<polygon fill="none" stroke="#bfbfbf" points="874,-196 874,-215 923,-215 923,-196 874,-196"/>
<text text-anchor="middle" x="898.5" y="-203" font-family="Helvetica,sans-Serif" font-size="10.00">cstddef</text>
</a>
</g>
</g>
<!-- Node1&#45;&gt;Node4 -->
<g id="edge3" class="edge">
<title>Node1&#45;&gt;Node4</title>
<path fill="none" stroke="midnightblue" d="M1446.08,-324.04C1339.71,-308.23 1119.15,-272.18 937.5,-221 934.85,-220.25 932.13,-219.41 929.42,-218.51"/>
<polygon fill="midnightblue" stroke="midnightblue" points="930.34,-215.13 919.75,-215.11 928.02,-221.73 930.34,-215.13"/>
</g>
<!-- Node5 -->
<g id="node5" class="node">
<title>Node5</title>
<g id="a_node5"><a xlink:href="../../df/d67/define_8h.html" target="_top" xlink:title=" ">
<polygon fill="none" stroke="black" points="1982,-62 1982,-81 2071,-81 2071,-62 1982,-62"/>
<text text-anchor="middle" x="2026.5" y="-69" font-family="Helvetica,sans-Serif" font-size="10.00">includes/define.h</text>
</a>
</g>
</g>
<!-- Node1&#45;&gt;Node5 -->
<g id="edge4" class="edge">
<title>Node1&#45;&gt;Node5</title>
<path fill="none" stroke="midnightblue" d="M1552.83,-313.49C1575.99,-302.93 1604.93,-289.51 1630.5,-277 1772.01,-207.76 1938.92,-119.3 2001.31,-85.99"/>
<polygon fill="midnightblue" stroke="midnightblue" points="2003.24,-88.93 2010.41,-81.13 1999.94,-82.75 2003.24,-88.93"/>
</g>
<!-- Node11 -->
<g id="node11" class="node">
<title>Node11</title>
<g id="a_node11"><a xlink:href="../../d2/d91/point_8h.html" target="_top" xlink:title=" ">
<polygon fill="none" stroke="black" points="1461.5,-257.5 1461.5,-276.5 1557.5,-276.5 1557.5,-257.5 1461.5,-257.5"/>
<text text-anchor="middle" x="1509.5" y="-264.5" font-family="Helvetica,sans-Serif" font-size="10.00">geometries/point.h</text>
</a>
</g>
</g>
<!-- Node1&#45;&gt;Node11 -->
<g id="edge10" class="edge">
<title>Node1&#45;&gt;Node11</title>
<path fill="none" stroke="midnightblue" d="M1509.5,-313.5C1509.5,-305.07 1509.5,-295.24 1509.5,-286.87"/>
<polygon fill="midnightblue" stroke="midnightblue" points="1513,-286.65 1509.5,-276.65 1506,-286.65 1513,-286.65"/>
</g>
<!-- Node6 -->
<g id="node6" class="node">
<title>Node6</title>
<g id="a_node6"><a xlink:title=" ">
<polygon fill="none" stroke="#bfbfbf" points="1691,-0.5 1691,-19.5 1750,-19.5 1750,-0.5 1691,-0.5"/>
<text text-anchor="middle" x="1720.5" y="-7.5" font-family="Helvetica,sans-Serif" font-size="10.00">stdexcept</text>
</a>
</g>
</g>
<!-- Node5&#45;&gt;Node6 -->
<g id="edge5" class="edge">
<title>Node5&#45;&gt;Node6</title>
<path fill="none" stroke="midnightblue" d="M1996.63,-61.94C1988.82,-59.85 1980.37,-57.72 1972.5,-56 1881.81,-36.21 1855.39,-38.61 1760.32,-20.05"/>
<polygon fill="midnightblue" stroke="midnightblue" points="1760.76,-16.57 1750.27,-18.06 1759.4,-23.44 1760.76,-16.57"/>
</g>
<!-- Node7 -->
<g id="node7" class="node">
<title>Node7</title>
<g id="a_node7"><a xlink:title=" ">
<polygon fill="none" stroke="#bfbfbf" points="2177.5,-0.5 2177.5,-19.5 2229.5,-19.5 2229.5,-0.5 2177.5,-0.5"/>
<text text-anchor="middle" x="2203.5" y="-7.5" font-family="Helvetica,sans-Serif" font-size="10.00">sstream</text>
</a>
</g>
</g>
<!-- Node5&#45;&gt;Node7 -->
<g id="edge6" class="edge">
<title>Node5&#45;&gt;Node7</title>
<path fill="none" stroke="midnightblue" d="M2051.86,-61.98C2082.48,-51.68 2134.16,-34.31 2168.55,-22.75"/>
<polygon fill="midnightblue" stroke="midnightblue" points="2169.82,-26.01 2178.19,-19.51 2167.59,-19.38 2169.82,-26.01"/>
</g>
<!-- Node8 -->
<g id="node8" class="node">
<title>Node8</title>
<g id="a_node8"><a xlink:title=" ">
<polygon fill="none" stroke="#bfbfbf" points="1768,-0.5 1768,-19.5 1871,-19.5 1871,-0.5 1768,-0.5"/>
<text text-anchor="middle" x="1819.5" y="-7.5" font-family="Helvetica,sans-Serif" font-size="10.00">boost/smart_ptr.hpp</text>
</a>
</g>
</g>
<!-- Node5&#45;&gt;Node8 -->
<g id="edge7" class="edge">
<title>Node5&#45;&gt;Node8</title>
<path fill="none" stroke="midnightblue" d="M1996.84,-61.98C1960.57,-51.55 1899.04,-33.86 1858.84,-22.31"/>
<polygon fill="midnightblue" stroke="midnightblue" points="1859.68,-18.91 1849.1,-19.51 1857.75,-25.64 1859.68,-18.91"/>
</g>
<!-- Node9 -->
<g id="node9" class="node">
<title>Node9</title>
<g id="a_node9"><a xlink:title=" ">
<polygon fill="none" stroke="#bfbfbf" points="1889,-0.5 1889,-19.5 2020,-19.5 2020,-0.5 1889,-0.5"/>
<text text-anchor="middle" x="1954.5" y="-7.5" font-family="Helvetica,sans-Serif" font-size="10.00">boost/current_function.hpp</text>
</a>
</g>
</g>
<!-- Node5&#45;&gt;Node9 -->
<g id="edge8" class="edge">
<title>Node5&#45;&gt;Node9</title>
<path fill="none" stroke="midnightblue" d="M2016.18,-61.98C2004.85,-52.61 1986.43,-37.38 1972.66,-26.01"/>
<polygon fill="midnightblue" stroke="midnightblue" points="1974.73,-23.18 1964.8,-19.51 1970.28,-28.58 1974.73,-23.18"/>
</g>
<!-- Node10 -->
<g id="node10" class="node">
<title>Node10</title>
<g id="a_node10"><a xlink:href="../../de/d17/kratos__config_8h.html" target="_top" xlink:title=" ">
<polygon fill="none" stroke="black" points="2038,-0.5 2038,-19.5 2159,-19.5 2159,-0.5 2038,-0.5"/>
<text text-anchor="middle" x="2098.5" y="-7.5" font-family="Helvetica,sans-Serif" font-size="10.00">includes/kratos_config.h</text>
</a>
</g>
</g>
<!-- Node5&#45;&gt;Node10 -->
<g id="edge9" class="edge">
<title>Node5&#45;&gt;Node10</title>
<path fill="none" stroke="midnightblue" d="M2036.82,-61.98C2048.15,-52.61 2066.57,-37.38 2080.34,-26.01"/>
<polygon fill="midnightblue" stroke="midnightblue" points="2082.72,-28.58 2088.2,-19.51 2078.27,-23.18 2082.72,-28.58"/>
</g>
<!-- Node11&#45;&gt;Node2 -->
<g id="edge11" class="edge">
<title>Node11&#45;&gt;Node2</title>
<path fill="none" stroke="midnightblue" d="M1461.43,-258.77C1311.65,-236.4 839.89,-167.19 447.5,-123 271.44,-103.17 221.23,-134.31 50.5,-87 48.78,-86.52 47.03,-85.95 45.29,-85.31"/>
<polygon fill="midnightblue" stroke="midnightblue" points="46.22,-81.9 35.65,-81.13 43.44,-88.32 46.22,-81.9"/>
</g>
<!-- Node11&#45;&gt;Node3 -->
<g id="edge12" class="edge">
<title>Node11&#45;&gt;Node3</title>
<path fill="none" stroke="midnightblue" d="M1528.4,-257.44C1596.04,-226.78 1826.36,-122.41 1907.74,-85.53"/>
<polygon fill="midnightblue" stroke="midnightblue" points="1909.67,-88.5 1917.34,-81.18 1906.78,-82.12 1909.67,-88.5"/>
</g>
<!-- Node11&#45;&gt;Node4 -->
<g id="edge14" class="edge">
<title>Node11&#45;&gt;Node4</title>
<path fill="none" stroke="midnightblue" d="M1461.38,-266.68C1362.16,-267.1 1128.15,-263.08 937.5,-221 934.42,-220.32 931.27,-219.45 928.14,-218.48"/>
<polygon fill="midnightblue" stroke="midnightblue" points="929.02,-215.08 918.42,-215.12 926.73,-221.69 929.02,-215.08"/>
</g>
<!-- Node11&#45;&gt;Node5 -->
<g id="edge16" class="edge">
<title>Node11&#45;&gt;Node5</title>
<path fill="none" stroke="midnightblue" d="M1538.74,-257.48C1567.79,-248.86 1613.51,-234.86 1652.5,-221 1782.47,-174.82 1934.42,-111.54 1997.14,-85.01"/>
<polygon fill="midnightblue" stroke="midnightblue" points="1998.59,-88.2 2006.43,-81.07 1995.85,-81.75 1998.59,-88.2"/>
</g>
<!-- Node11&#45;&gt;Node7 -->
<g id="edge13" class="edge">
<title>Node11&#45;&gt;Node7</title>
<path fill="none" stroke="midnightblue" d="M1553.7,-257.48C1593.89,-249.36 1654.64,-236.15 1706.5,-221 1875.98,-171.47 1921.41,-163.6 2080.5,-87 2118.4,-68.75 2159.39,-41.82 2183.18,-25.4"/>
<polygon fill="midnightblue" stroke="midnightblue" points="2185.22,-28.25 2191.42,-19.66 2181.21,-22.51 2185.22,-28.25"/>
</g>
<!-- Node12 -->
<g id="node12" class="node">
<title>Node12</title>
<g id="a_node12"><a xlink:title=" ">
<polygon fill="none" stroke="#bfbfbf" points="1462,-190.5 1462,-220.5 1557,-220.5 1557,-190.5 1462,-190.5"/>
<text text-anchor="start" x="1470" y="-208.5" font-family="Helvetica,sans-Serif" font-size="10.00">boost/serialization</text>
<text text-anchor="middle" x="1509.5" y="-197.5" font-family="Helvetica,sans-Serif" font-size="10.00">/base_object.hpp</text>
</a>
</g>
</g>
<!-- Node11&#45;&gt;Node12 -->
<g id="edge15" class="edge">
<title>Node11&#45;&gt;Node12</title>
<path fill="none" stroke="midnightblue" d="M1509.5,-257.48C1509.5,-250.47 1509.5,-240.19 1509.5,-230.7"/>
<polygon fill="midnightblue" stroke="midnightblue" points="1513,-230.52 1509.5,-220.52 1506,-230.52 1513,-230.52"/>
</g>
<!-- Node13 -->
<g id="node13" class="node">
<title>Node13</title>
<g id="a_node13"><a xlink:href="../../d9/d36/array__1d_8h.html" target="_top" xlink:title=" ">
<polygon fill="none" stroke="black" points="1302,-196 1302,-215 1411,-215 1411,-196 1302,-196"/>
<text text-anchor="middle" x="1356.5" y="-203" font-family="Helvetica,sans-Serif" font-size="10.00">containers/array_1d.h</text>
</a>
</g>
</g>
<!-- Node11&#45;&gt;Node13 -->
<g id="edge17" class="edge">
<title>Node11&#45;&gt;Node13</title>
<path fill="none" stroke="midnightblue" d="M1487.58,-257.48C1461.45,-247.31 1417.59,-230.26 1387.87,-218.7"/>
<polygon fill="midnightblue" stroke="midnightblue" points="1388.97,-215.37 1378.38,-215.01 1386.43,-221.9 1388.97,-215.37"/>
</g>
<!-- Node13&#45;&gt;Node2 -->
<g id="edge18" class="edge">
<title>Node13&#45;&gt;Node2</title>
<path fill="none" stroke="midnightblue" d="M1301.86,-200.28C1216.5,-193.08 1055.88,-176.96 1003.5,-154 983.54,-145.25 985.88,-130.72 965.5,-123 775.18,-50.97 247.92,-136.31 50.5,-87 48.56,-86.52 46.6,-85.9 44.66,-85.19"/>
<polygon fill="midnightblue" stroke="midnightblue" points="45.87,-81.9 35.3,-81.14 43.09,-88.33 45.87,-81.9"/>
</g>
<!-- Node13&#45;&gt;Node3 -->
<g id="edge19" class="edge">
<title>Node13&#45;&gt;Node3</title>
<path fill="none" stroke="midnightblue" d="M1400.58,-195.99C1512.51,-174.21 1805.59,-116.13 1900.5,-87 1902.78,-86.3 1905.12,-85.51 1907.46,-84.68"/>
<polygon fill="midnightblue" stroke="midnightblue" points="1908.81,-87.92 1916.91,-81.09 1906.32,-81.37 1908.81,-87.92"/>
</g>
<!-- Node13&#45;&gt;Node5 -->
<g id="edge21" class="edge">
<title>Node13&#45;&gt;Node5</title>
<path fill="none" stroke="midnightblue" d="M1411.3,-196.29C1505.64,-182.16 1689.06,-154.67 1692.5,-154 1818.11,-129.58 1848.48,-118.48 1972.5,-87 1976.8,-85.91 1981.28,-84.75 1985.74,-83.57"/>
<polygon fill="midnightblue" stroke="midnightblue" points="1986.65,-86.95 1995.41,-81 1984.85,-80.19 1986.65,-86.95"/>
</g>
<!-- Node14 -->
<g id="node14" class="node">
<title>Node14</title>
<g id="a_node14"><a xlink:title=" ">
<polygon fill="none" stroke="#bfbfbf" points="1056,-129 1056,-148 1139,-148 1139,-129 1056,-129"/>
<text text-anchor="middle" x="1097.5" y="-136" font-family="Helvetica,sans-Serif" font-size="10.00">boost/array.hpp</text>
</a>
</g>
</g>
<!-- Node13&#45;&gt;Node14 -->
<g id="edge20" class="edge">
<title>Node13&#45;&gt;Node14</title>
<path fill="none" stroke="midnightblue" d="M1319.57,-195.99C1277.9,-186.28 1208.15,-169.71 1148.5,-154 1144.65,-152.99 1140.65,-151.9 1136.66,-150.8"/>
<polygon fill="midnightblue" stroke="midnightblue" points="1137.42,-147.38 1126.84,-148.05 1135.53,-154.12 1137.42,-147.38"/>
</g>
<!-- Node15 -->
<g id="node15" class="node">
<title>Node15</title>
<g id="a_node15"><a xlink:href="../../d9/d3e/ublas__interface_8h.html" target="_top" xlink:title=" ">
<polygon fill="none" stroke="black" points="1157,-129 1157,-148 1286,-148 1286,-129 1157,-129"/>
<text text-anchor="middle" x="1221.5" y="-136" font-family="Helvetica,sans-Serif" font-size="10.00">includes/ublas_interface.h</text>
</a>
</g>
</g>
<!-- Node13&#45;&gt;Node15 -->
<g id="edge22" class="edge">
<title>Node13&#45;&gt;Node15</title>
<path fill="none" stroke="midnightblue" d="M1338.57,-195.87C1315.58,-184.8 1275.47,-165.49 1248.7,-152.6"/>
<polygon fill="midnightblue" stroke="midnightblue" points="1250.03,-149.35 1239.5,-148.17 1246.99,-155.66 1250.03,-149.35"/>
</g>
<!-- Node19 -->
<g id="node19" class="node">
<title>Node19</title>
<g id="a_node19"><a xlink:title=" ">
<polygon fill="none" stroke="#bfbfbf" points="59.5,-56.5 59.5,-86.5 175.5,-86.5 175.5,-56.5 59.5,-56.5"/>
<text text-anchor="start" x="67.5" y="-74.5" font-family="Helvetica,sans-Serif" font-size="10.00">boost/numeric/ublas</text>
<text text-anchor="middle" x="117.5" y="-63.5" font-family="Helvetica,sans-Serif" font-size="10.00">/vector_expression.hpp</text>
</a>
</g>
</g>
<!-- Node13&#45;&gt;Node19 -->
<g id="edge41" class="edge">
<title>Node13&#45;&gt;Node19</title>
<path fill="none" stroke="midnightblue" d="M1301.75,-202.93C1238.38,-199.46 1131.91,-188.49 1047.5,-154 1025.36,-144.95 1026.14,-130.73 1003.5,-123 834.03,-65.17 381.01,-108.8 185.46,-86.88"/>
<polygon fill="midnightblue" stroke="midnightblue" points="185.85,-83.41 175.5,-85.68 185.01,-90.35 185.85,-83.41"/>
</g>
<!-- Node31 -->
<g id="node31" class="node">
<title>Node31</title>
<g id="a_node31"><a xlink:title=" ">
<polygon fill="none" stroke="#bfbfbf" points="1304.5,-123.5 1304.5,-153.5 1408.5,-153.5 1408.5,-123.5 1304.5,-123.5"/>
<text text-anchor="start" x="1312.5" y="-141.5" font-family="Helvetica,sans-Serif" font-size="10.00">boost/numeric/ublas</text>
<text text-anchor="middle" x="1356.5" y="-130.5" font-family="Helvetica,sans-Serif" font-size="10.00">/storage.hpp</text>
</a>
</g>
</g>
<!-- Node13&#45;&gt;Node31 -->
<g id="edge42" class="edge">
<title>Node13&#45;&gt;Node31</title>
<path fill="none" stroke="midnightblue" d="M1356.5,-195.73C1356.5,-187.54 1356.5,-174.92 1356.5,-163.71"/>
<polygon fill="midnightblue" stroke="midnightblue" points="1360,-163.59 1356.5,-153.59 1353,-163.59 1360,-163.59"/>
</g>
<!-- Node32 -->
<g id="node32" class="node">
<title>Node32</title>
<g id="a_node32"><a xlink:title=" ">
<polygon fill="none" stroke="#bfbfbf" points="1427,-123.5 1427,-153.5 1552,-153.5 1552,-123.5 1427,-123.5"/>
<text text-anchor="start" x="1435" y="-141.5" font-family="Helvetica,sans-Serif" font-size="10.00">boost/numeric/ublas</text>
<text text-anchor="middle" x="1489.5" y="-130.5" font-family="Helvetica,sans-Serif" font-size="10.00">/detail/vector_assign.hpp</text>
</a>
</g>
</g>
<!-- Node13&#45;&gt;Node32 -->
<g id="edge43" class="edge">
<title>Node13&#45;&gt;Node32</title>
<path fill="none" stroke="midnightblue" d="M1374.16,-195.87C1393.86,-186.24 1426.3,-170.39 1451.77,-157.94"/>
<polygon fill="midnightblue" stroke="midnightblue" points="1453.35,-161.06 1460.8,-153.53 1450.28,-154.77 1453.35,-161.06"/>
</g>
<!-- Node15&#45;&gt;Node2 -->
<g id="edge23" class="edge">
<title>Node15&#45;&gt;Node2</title>
<path fill="none" stroke="midnightblue" d="M1184.55,-128.94C1173.06,-126.61 1160.31,-124.36 1148.5,-123 905.97,-95.13 287.55,-145.39 50.5,-87 48.52,-86.51 46.52,-85.88 44.53,-85.16"/>
<polygon fill="midnightblue" stroke="midnightblue" points="45.56,-81.79 34.99,-81.01 42.76,-88.21 45.56,-81.79"/>
</g>
<!-- Node15&#45;&gt;Node3 -->
<g id="edge24" class="edge">
<title>Node15&#45;&gt;Node3</title>
<path fill="none" stroke="midnightblue" d="M1259.75,-128.99C1271.2,-126.72 1283.81,-124.49 1295.5,-123 1562.71,-89.03 1637.7,-146.09 1900.5,-87 1903.33,-86.36 1906.24,-85.53 1909.1,-84.58"/>
<polygon fill="midnightblue" stroke="midnightblue" points="1910.41,-87.83 1918.55,-81.05 1907.96,-81.27 1910.41,-87.83"/>
</g>
<!-- Node15&#45;&gt;Node5 -->
<g id="edge40" class="edge">
<title>Node15&#45;&gt;Node5</title>
<path fill="none" stroke="midnightblue" d="M1259.74,-128.94C1271.19,-126.67 1283.81,-124.45 1295.5,-123 1594.53,-85.94 1674.93,-134.33 1972.5,-87 1978.01,-86.12 1983.77,-84.91 1989.39,-83.55"/>
<polygon fill="midnightblue" stroke="midnightblue" points="1990.46,-86.89 1999.27,-81 1988.71,-80.11 1990.46,-86.89"/>
</g>
<!-- Node16 -->
<g id="node16" class="node">
<title>Node16</title>
<g id="a_node16"><a xlink:title=" ">
<polygon fill="none" stroke="#bfbfbf" points="1787.5,-56.5 1787.5,-86.5 1891.5,-86.5 1891.5,-56.5 1787.5,-56.5"/>
<text text-anchor="start" x="1795.5" y="-74.5" font-family="Helvetica,sans-Serif" font-size="10.00">boost/numeric/ublas</text>
<text text-anchor="middle" x="1839.5" y="-63.5" font-family="Helvetica,sans-Serif" font-size="10.00">/vector.hpp</text>
</a>
</g>
</g>
<!-- Node15&#45;&gt;Node16 -->
<g id="edge25" class="edge">
<title>Node15&#45;&gt;Node16</title>
<path fill="none" stroke="midnightblue" d="M1260.53,-128.95C1271.77,-126.73 1284.08,-124.54 1295.5,-123 1505.6,-94.69 1564.02,-119.23 1777.41,-87"/>
<polygon fill="midnightblue" stroke="midnightblue" points="1778.01,-90.45 1787.36,-85.47 1776.95,-83.53 1778.01,-90.45"/>
</g>
<!-- Node17 -->
<g id="node17" class="node">
<title>Node17</title>
<g id="a_node17"><a xlink:title=" ">
<polygon fill="none" stroke="#bfbfbf" points="193.5,-56.5 193.5,-86.5 297.5,-86.5 297.5,-56.5 193.5,-56.5"/>
<text text-anchor="start" x="201.5" y="-74.5" font-family="Helvetica,sans-Serif" font-size="10.00">boost/numeric/ublas</text>
<text text-anchor="middle" x="245.5" y="-63.5" font-family="Helvetica,sans-Serif" font-size="10.00">/vector_proxy.hpp</text>
</a>
</g>
</g>
<!-- Node15&#45;&gt;Node17 -->
<g id="edge26" class="edge">
<title>Node15&#45;&gt;Node17</title>
<path fill="none" stroke="midnightblue" d="M1184.16,-128.94C1172.77,-126.64 1160.17,-124.4 1148.5,-123 779.87,-78.77 679.26,-137.5 307.57,-86.95"/>
<polygon fill="midnightblue" stroke="midnightblue" points="308,-83.48 297.62,-85.58 307.05,-90.41 308,-83.48"/>
</g>
<!-- Node18 -->
<g id="node18" class="node">
<title>Node18</title>
<g id="a_node18"><a xlink:title=" ">
<polygon fill="none" stroke="#bfbfbf" points="315.5,-56.5 315.5,-86.5 419.5,-86.5 419.5,-56.5 315.5,-56.5"/>
<text text-anchor="start" x="323.5" y="-74.5" font-family="Helvetica,sans-Serif" font-size="10.00">boost/numeric/ublas</text>
<text text-anchor="middle" x="367.5" y="-63.5" font-family="Helvetica,sans-Serif" font-size="10.00">/vector_sparse.hpp</text>
</a>
</g>
</g>
<!-- Node15&#45;&gt;Node18 -->
<g id="edge27" class="edge">
<title>Node15&#45;&gt;Node18</title>
<path fill="none" stroke="midnightblue" d="M1184.16,-128.99C1172.77,-126.69 1160.17,-124.44 1148.5,-123 833.78,-84.09 747.45,-131.25 429.58,-86.96"/>
<polygon fill="midnightblue" stroke="midnightblue" points="430.01,-83.49 419.62,-85.55 429.03,-90.42 430.01,-83.49"/>
</g>
<!-- Node15&#45;&gt;Node19 -->
<g id="edge28" class="edge">
<title>Node15&#45;&gt;Node19</title>
<path fill="none" stroke="midnightblue" d="M1184.54,-128.98C1173.06,-126.65 1160.31,-124.38 1148.5,-123 726,-73.47 611.67,-139.5 185.98,-87.02"/>
<polygon fill="midnightblue" stroke="midnightblue" points="186.22,-83.53 175.86,-85.76 185.35,-90.47 186.22,-83.53"/>
</g>
<!-- Node20 -->
<g id="node20" class="node">
<title>Node20</title>
<g id="a_node20"><a xlink:title=" ">
<polygon fill="none" stroke="#bfbfbf" points="437.5,-56.5 437.5,-86.5 541.5,-86.5 541.5,-56.5 437.5,-56.5"/>
<text text-anchor="start" x="445.5" y="-74.5" font-family="Helvetica,sans-Serif" font-size="10.00">boost/numeric/ublas</text>
<text text-anchor="middle" x="489.5" y="-63.5" font-family="Helvetica,sans-Serif" font-size="10.00">/matrix.hpp</text>
</a>
</g>
</g>
<!-- Node15&#45;&gt;Node20 -->
<g id="edge29" class="edge">
<title>Node15&#45;&gt;Node20</title>
<path fill="none" stroke="midnightblue" d="M1183.77,-128.99C1172.48,-126.72 1160.03,-124.49 1148.5,-123 887.78,-89.42 815.72,-125.01 551.9,-87.02"/>
<polygon fill="midnightblue" stroke="midnightblue" points="552.03,-83.5 541.63,-85.52 551.02,-90.43 552.03,-83.5"/>
</g>
<!-- Node21 -->
<g id="node21" class="node">
<title>Node21</title>
<g id="a_node21"><a xlink:title=" ">
<polygon fill="none" stroke="#bfbfbf" points="559.5,-56.5 559.5,-86.5 663.5,-86.5 663.5,-56.5 559.5,-56.5"/>
<text text-anchor="start" x="567.5" y="-74.5" font-family="Helvetica,sans-Serif" font-size="10.00">boost/numeric/ublas</text>
<text text-anchor="middle" x="611.5" y="-63.5" font-family="Helvetica,sans-Serif" font-size="10.00">/matrix_sparse.hpp</text>
</a>
</g>
</g>
<!-- Node15&#45;&gt;Node21 -->
<g id="edge30" class="edge">
<title>Node15&#45;&gt;Node21</title>
<path fill="none" stroke="midnightblue" d="M1183,-128.95C1171.91,-126.73 1159.77,-124.54 1148.5,-123 941.58,-94.73 883.93,-118.85 673.76,-87.02"/>
<polygon fill="midnightblue" stroke="midnightblue" points="674.05,-83.53 663.64,-85.46 672.99,-90.45 674.05,-83.53"/>
</g>
<!-- Node22 -->
<g id="node22" class="node">
<title>Node22</title>
<g id="a_node22"><a xlink:title=" ">
<polygon fill="none" stroke="#bfbfbf" points="681.5,-56.5 681.5,-86.5 785.5,-86.5 785.5,-56.5 681.5,-56.5"/>
<text text-anchor="start" x="689.5" y="-74.5" font-family="Helvetica,sans-Serif" font-size="10.00">boost/numeric/ublas</text>
<text text-anchor="middle" x="733.5" y="-63.5" font-family="Helvetica,sans-Serif" font-size="10.00">/matrix_proxy.hpp</text>
</a>
</g>
</g>
<!-- Node15&#45;&gt;Node22 -->
<g id="edge31" class="edge">
<title>Node15&#45;&gt;Node22</title>
<path fill="none" stroke="midnightblue" d="M1182.22,-128.99C1171.33,-126.82 1159.49,-124.65 1148.5,-123 995.31,-100.05 952.19,-112.79 795.64,-87.04"/>
<polygon fill="midnightblue" stroke="midnightblue" points="796.09,-83.57 785.65,-85.37 794.94,-90.48 796.09,-83.57"/>
</g>
<!-- Node23 -->
<g id="node23" class="node">
<title>Node23</title>
<g id="a_node23"><a xlink:title=" ">
<polygon fill="none" stroke="#bfbfbf" points="803.5,-56.5 803.5,-86.5 907.5,-86.5 907.5,-56.5 803.5,-56.5"/>
<text text-anchor="start" x="811.5" y="-74.5" font-family="Helvetica,sans-Serif" font-size="10.00">boost/numeric/ublas</text>
<text text-anchor="middle" x="855.5" y="-63.5" font-family="Helvetica,sans-Serif" font-size="10.00">/symmetric.hpp</text>
</a>
</g>
</g>
<!-- Node15&#45;&gt;Node23 -->
<g id="edge32" class="edge">
<title>Node15&#45;&gt;Node23</title>
<path fill="none" stroke="midnightblue" d="M1180.25,-128.99C1169.9,-126.94 1158.81,-124.82 1148.5,-123 1048.86,-105.38 1020.59,-106.96 917.56,-87.12"/>
<polygon fill="midnightblue" stroke="midnightblue" points="918.17,-83.67 907.68,-85.19 916.83,-90.54 918.17,-83.67"/>
</g>
<!-- Node24 -->
<g id="node24" class="node">
<title>Node24</title>
<g id="a_node24"><a xlink:title=" ">
<polygon fill="none" stroke="#bfbfbf" points="925.5,-56.5 925.5,-86.5 1029.5,-86.5 1029.5,-56.5 925.5,-56.5"/>
<text text-anchor="start" x="933.5" y="-74.5" font-family="Helvetica,sans-Serif" font-size="10.00">boost/numeric/ublas</text>
<text text-anchor="middle" x="977.5" y="-63.5" font-family="Helvetica,sans-Serif" font-size="10.00">/hermitian.hpp</text>
</a>
</g>
</g>
<!-- Node15&#45;&gt;Node24 -->
<g id="edge33" class="edge">
<title>Node15&#45;&gt;Node24</title>
<path fill="none" stroke="midnightblue" d="M1189.35,-128.94C1151.41,-118.83 1087.47,-101.8 1039.74,-89.08"/>
<polygon fill="midnightblue" stroke="midnightblue" points="1040.38,-85.63 1029.81,-86.44 1038.57,-92.39 1040.38,-85.63"/>
</g>
<!-- Node25 -->
<g id="node25" class="node">
<title>Node25</title>
<g id="a_node25"><a xlink:title=" ">
<polygon fill="none" stroke="#bfbfbf" points="1047.5,-56.5 1047.5,-86.5 1151.5,-86.5 1151.5,-56.5 1047.5,-56.5"/>
<text text-anchor="start" x="1055.5" y="-74.5" font-family="Helvetica,sans-Serif" font-size="10.00">boost/numeric/ublas</text>
<text text-anchor="middle" x="1099.5" y="-63.5" font-family="Helvetica,sans-Serif" font-size="10.00">/banded.hpp</text>
</a>
</g>
</g>
<!-- Node15&#45;&gt;Node25 -->
<g id="edge34" class="edge">
<title>Node15&#45;&gt;Node25</title>
<path fill="none" stroke="midnightblue" d="M1205.3,-128.87C1187.45,-119.36 1158.18,-103.77 1134.95,-91.39"/>
<polygon fill="midnightblue" stroke="midnightblue" points="1136.53,-88.26 1126.06,-86.65 1133.24,-94.44 1136.53,-88.26"/>
</g>
<!-- Node26 -->
<g id="node26" class="node">
<title>Node26</title>
<g id="a_node26"><a xlink:title=" ">
<polygon fill="none" stroke="#bfbfbf" points="1169.5,-56.5 1169.5,-86.5 1273.5,-86.5 1273.5,-56.5 1169.5,-56.5"/>
<text text-anchor="start" x="1177.5" y="-74.5" font-family="Helvetica,sans-Serif" font-size="10.00">boost/numeric/ublas</text>
<text text-anchor="middle" x="1221.5" y="-63.5" font-family="Helvetica,sans-Serif" font-size="10.00">/triangular.hpp</text>
</a>
</g>
</g>
<!-- Node15&#45;&gt;Node26 -->
<g id="edge35" class="edge">
<title>Node15&#45;&gt;Node26</title>
<path fill="none" stroke="midnightblue" d="M1221.5,-128.73C1221.5,-120.54 1221.5,-107.92 1221.5,-96.71"/>
<polygon fill="midnightblue" stroke="midnightblue" points="1225,-96.59 1221.5,-86.59 1218,-96.59 1225,-96.59"/>
</g>
<!-- Node27 -->
<g id="node27" class="node">
<title>Node27</title>
<g id="a_node27"><a xlink:title=" ">
<polygon fill="none" stroke="#bfbfbf" points="1291.5,-56.5 1291.5,-86.5 1395.5,-86.5 1395.5,-56.5 1291.5,-56.5"/>
<text text-anchor="start" x="1299.5" y="-74.5" font-family="Helvetica,sans-Serif" font-size="10.00">boost/numeric/ublas</text>
<text text-anchor="middle" x="1343.5" y="-63.5" font-family="Helvetica,sans-Serif" font-size="10.00">/io.hpp</text>
</a>
</g>
</g>
<!-- Node15&#45;&gt;Node27 -->
<g id="edge36" class="edge">
<title>Node15&#45;&gt;Node27</title>
<path fill="none" stroke="midnightblue" d="M1237.7,-128.87C1255.55,-119.36 1284.82,-103.77 1308.05,-91.39"/>
<polygon fill="midnightblue" stroke="midnightblue" points="1309.76,-94.44 1316.94,-86.65 1306.47,-88.26 1309.76,-94.44"/>
</g>
<!-- Node28 -->
<g id="node28" class="node">
<title>Node28</title>
<g id="a_node28"><a xlink:title=" ">
<polygon fill="none" stroke="#bfbfbf" points="1413.5,-56.5 1413.5,-86.5 1517.5,-86.5 1517.5,-56.5 1413.5,-56.5"/>
<text text-anchor="start" x="1421.5" y="-74.5" font-family="Helvetica,sans-Serif" font-size="10.00">boost/numeric/ublas</text>
<text text-anchor="middle" x="1465.5" y="-63.5" font-family="Helvetica,sans-Serif" font-size="10.00">/operation.hpp</text>
</a>
</g>
</g>
<!-- Node15&#45;&gt;Node28 -->
<g id="edge37" class="edge">
<title>Node15&#45;&gt;Node28</title>
<path fill="none" stroke="midnightblue" d="M1253.65,-128.94C1291.59,-118.83 1355.53,-101.8 1403.26,-89.08"/>
<polygon fill="midnightblue" stroke="midnightblue" points="1404.43,-92.39 1413.19,-86.44 1402.62,-85.63 1404.43,-92.39"/>
</g>
<!-- Node29 -->
<g id="node29" class="node">
<title>Node29</title>
<g id="a_node29"><a xlink:title=" ">
<polygon fill="none" stroke="#bfbfbf" points="1535.5,-56.5 1535.5,-86.5 1639.5,-86.5 1639.5,-56.5 1535.5,-56.5"/>
<text text-anchor="start" x="1543.5" y="-74.5" font-family="Helvetica,sans-Serif" font-size="10.00">boost/numeric/ublas</text>
<text text-anchor="middle" x="1587.5" y="-63.5" font-family="Helvetica,sans-Serif" font-size="10.00">/lu.hpp</text>
</a>
</g>
</g>
<!-- Node15&#45;&gt;Node29 -->
<g id="edge38" class="edge">
<title>Node15&#45;&gt;Node29</title>
<path fill="none" stroke="midnightblue" d="M1263.71,-128.93C1274.09,-126.91 1285.19,-124.81 1295.5,-123 1394.74,-105.55 1422.86,-106.93 1525.48,-87.11"/>
<polygon fill="midnightblue" stroke="midnightblue" points="1526.17,-90.54 1535.32,-85.19 1524.83,-83.67 1526.17,-90.54"/>
</g>
<!-- Node30 -->
<g id="node30" class="node">
<title>Node30</title>
<g id="a_node30"><a xlink:title=" ">
<polygon fill="none" stroke="#bfbfbf" points="1657.5,-56.5 1657.5,-86.5 1769.5,-86.5 1769.5,-56.5 1657.5,-56.5"/>
<text text-anchor="start" x="1665.5" y="-74.5" font-family="Helvetica,sans-Serif" font-size="10.00">boost/numeric/ublas</text>
<text text-anchor="middle" x="1713.5" y="-63.5" font-family="Helvetica,sans-Serif" font-size="10.00">/operation_sparse.hpp</text>
</a>
</g>
</g>
<!-- Node15&#45;&gt;Node30 -->
<g id="edge39" class="edge">
<title>Node15&#45;&gt;Node30</title>
<path fill="none" stroke="midnightblue" d="M1261.32,-129C1272.36,-126.83 1284.36,-124.66 1295.5,-123 1448.29,-100.29 1491.08,-111.72 1647.25,-87.08"/>
<polygon fill="midnightblue" stroke="midnightblue" points="1647.89,-90.52 1657.21,-85.48 1646.78,-83.61 1647.89,-90.52"/>
</g>
</g>
</svg>
        <g id="navigator" transform="translate(0 0)" fill="#404254">
                <rect fill="#f2f5e9" fill-opacity="0.5" stroke="#606060" stroke-width=".5" x="0" y="0" width="60" height="60"/>
                <use id="zoomplus" xlink:href="#zoomPlus" x="17" y="9" onmousedown="handleZoom(evt,'in')"/>
                <use id="zoomminus" xlink:href="#zoomMin" x="42" y="9" onmousedown="handleZoom(evt,'out')"/>
                <use id="reset" xlink:href="#resetDef" x="30" y="36" onmousedown="handleReset()"/>
                <g id="arrowUp" xlink:href="#dirArrow" transform="translate(30 24)" onmousedown="handlePan(0,-1)">
                  <use xlink:href="#rim" fill="#404040">
                        <set attributeName="fill" to="#808080" begin="arrowUp.mouseover" end="arrowUp.mouseout"/>
                  </use>
                  <path fill="none" stroke="white" stroke-width="1.5" d="M0,-3.0v7 M-2.5,-0.5L0,-3.0L2.5,-0.5"/>
                </g>
                <g id="arrowRight" xlink:href="#dirArrow" transform="rotate(90) translate(36 -43)" onmousedown="handlePan(1,0)">
                  <use xlink:href="#rim" fill="#404040">
                        <set attributeName="fill" to="#808080" begin="arrowRight.mouseover" end="arrowRight.mouseout"/>
                  </use>
                  <path fill="none" stroke="white" stroke-width="1.5" d="M0,-3.0v7 M-2.5,-0.5L0,-3.0L2.5,-0.5"/>
                </g>
                <g id="arrowDown" xlink:href="#dirArrow" transform="rotate(180) translate(-30 -48)" onmousedown="handlePan(0,1)">
                  <use xlink:href="#rim" fill="#404040">
                        <set attributeName="fill" to="#808080" begin="arrowDown.mouseover" end="arrowDown.mouseout"/>
                  </use>
                  <path fill="none" stroke="white" stroke-width="1.5" d="M0,-3.0v7 M-2.5,-0.5L0,-3.0L2.5,-0.5"/>
                </g>
                <g id="arrowLeft" xlink:href="#dirArrow" transform="rotate(270) translate(-36 17)" onmousedown="handlePan(-1,0)">
                  <use xlink:href="#rim" fill="#404040">
                        <set attributeName="fill" to="#808080" begin="arrowLeft.mouseover" end="arrowLeft.mouseout"/>
                  </use>
                  <path fill="none" stroke="white" stroke-width="1.5" d="M0,-3.0v7 M-2.5,-0.5L0,-3.0L2.5,-0.5"/>
                </g>
        </g>
        <svg viewBox="0 0 15 15" width="100%" height="30px" preserveAspectRatio="xMaxYMin meet">
         <g id="arrow_out" transform="scale(0.3 0.3)">
          <a xlink:href="integration__point_8h__incl_org.svg" target="_base">
           <rect id="button" ry="5" rx="5" y="6" x="6" height="38" width="38"
                fill="#f2f5e9" fill-opacity="0.5" stroke="#606060" stroke-width="1.0"/>
           <path id="arrow"
             d="M 11.500037,31.436501 C 11.940474,20.09759 22.043105,11.32322 32.158766,21.979434 L 37.068811,17.246167 C 37.068811,17.246167 37.088388,32 37.088388,32 L 22.160133,31.978069 C 22.160133,31.978069 26.997745,27.140456 26.997745,27.140456 C 18.528582,18.264221 13.291696,25.230495 11.500037,31.436501 z"
             style="fill:#404040;"/>
          </a>
         </g>
        </svg>
</svg>
