<?xml version="1.0" encoding="UTF-8" standalone="no"?>
<!DOCTYPE svg PUBLIC "-//W3C//DTD SVG 1.1//EN"
 "http://www.w3.org/Graphics/SVG/1.1/DTD/svg11.dtd">
<!-- Generated by graphviz version 2.48.0 (20210719.0153)
 -->
<!-- Title: /github/workspace/kratos/linear_solvers/cg_solver.h Pages: 1 -->
<svg width="314pt" height="206pt"
 viewBox="0.00 0.00 314.00 206.00" xmlns="http://www.w3.org/2000/svg" xmlns:xlink="http://www.w3.org/1999/xlink">
<g id="graph0" class="graph" transform="scale(1 1) rotate(0) translate(4 202)">
<title>/github/workspace/kratos/linear_solvers/cg_solver.h</title>
<!-- Node1 -->
<g id="node1" class="node">
<title>Node1</title>
<g id="a_node1"><a xlink:title=" ">
<polygon fill="#bfbfbf" stroke="black" points="81,-167.5 81,-197.5 213,-197.5 213,-167.5 81,-167.5"/>
<text text-anchor="start" x="89" y="-185.5" font-family="Helvetica,sans-Serif" font-size="10.00">/github/workspace/kratos</text>
<text text-anchor="middle" x="147" y="-174.5" font-family="Helvetica,sans-Serif" font-size="10.00">/linear_solvers/cg_solver.h</text>
</a>
</g>
</g>
<!-- Node2 -->
<g id="node2" class="node">
<title>Node2</title>
<g id="a_node2"><a xlink:href="../../d0/d87/kratos_2python_2add__linear__solvers__to__python_8cpp.html" target="_top" xlink:title=" ">
<polygon fill="none" stroke="black" points="0,-89.5 0,-130.5 132,-130.5 132,-89.5 0,-89.5"/>
<text text-anchor="start" x="8" y="-118.5" font-family="Helvetica,sans-Serif" font-size="10.00">/github/workspace/kratos</text>
<text text-anchor="start" x="8" y="-107.5" font-family="Helvetica,sans-Serif" font-size="10.00">/python/add_linear_solvers</text>
<text text-anchor="middle" x="66" y="-96.5" font-family="Helvetica,sans-Serif" font-size="10.00">_to_python.cpp</text>
</a>
</g>
</g>
<!-- Node1&#45;&gt;Node2 -->
<g id="edge1" class="edge">
<title>Node1&#45;&gt;Node2</title>
<path fill="none" stroke="midnightblue" d="M123.05,-160.66C112.12,-151.15 99.25,-139.94 88.51,-130.59"/>
<polygon fill="midnightblue" stroke="midnightblue" points="120.77,-163.31 130.61,-167.23 125.36,-158.03 120.77,-163.31"/>
</g>
<!-- Node3 -->
<g id="node3" class="node">
<title>Node3</title>
<g id="a_node3"><a xlink:href="../../d7/d0e/node__snapping__utility_8h.html" target="_top" xlink:title=" ">
<polygon fill="none" stroke="black" points="150,-89.5 150,-130.5 306,-130.5 306,-89.5 150,-89.5"/>
<text text-anchor="start" x="158" y="-118.5" font-family="Helvetica,sans-Serif" font-size="10.00">/github/workspace/applications</text>
<text text-anchor="start" x="158" y="-107.5" font-family="Helvetica,sans-Serif" font-size="10.00">/structural_application/custom</text>
<text text-anchor="middle" x="228" y="-96.5" font-family="Helvetica,sans-Serif" font-size="10.00">_utilities/node_snapping_utility.h</text>
</a>
</g>
</g>
<!-- Node1&#45;&gt;Node3 -->
<g id="edge2" class="edge">
<title>Node1&#45;&gt;Node3</title>
<path fill="none" stroke="midnightblue" d="M170.95,-160.66C181.88,-151.15 194.75,-139.94 205.49,-130.59"/>
<polygon fill="midnightblue" stroke="midnightblue" points="168.64,-158.03 163.39,-167.23 173.23,-163.31 168.64,-158.03"/>
</g>
<!-- Node4 -->
<g id="node4" class="node">
<title>Node4</title>
<g id="a_node4"><a xlink:href="../../dd/dee/structural__application_2custom__python_2add__custom__utilities__to__python_8cpp.html" target="_top" xlink:title=" ">
<polygon fill="none" stroke="black" points="152.5,-0.5 152.5,-52.5 303.5,-52.5 303.5,-0.5 152.5,-0.5"/>
<text text-anchor="start" x="160.5" y="-40.5" font-family="Helvetica,sans-Serif" font-size="10.00">/github/workspace/applications</text>
<text text-anchor="start" x="160.5" y="-29.5" font-family="Helvetica,sans-Serif" font-size="10.00">/structural_application/custom</text>
<text text-anchor="start" x="160.5" y="-18.5" font-family="Helvetica,sans-Serif" font-size="10.00">_python/add_custom_utilities</text>
<text text-anchor="middle" x="228" y="-7.5" font-family="Helvetica,sans-Serif" font-size="10.00">_to_python.cpp</text>
</a>
</g>
</g>
<!-- Node3&#45;&gt;Node4 -->
<g id="edge3" class="edge">
<title>Node3&#45;&gt;Node4</title>
<path fill="none" stroke="midnightblue" d="M228,-79.12C228,-70.41 228,-60.99 228,-52.61"/>
<polygon fill="midnightblue" stroke="midnightblue" points="224.5,-79.27 228,-89.27 231.5,-79.27 224.5,-79.27"/>
</g>
</g>
</svg>
