<?xml version="1.0" encoding="UTF-8" standalone="no"?>
<!DOCTYPE svg PUBLIC "-//W3C//DTD SVG 1.1//EN"
 "http://www.w3.org/Graphics/SVG/1.1/DTD/svg11.dtd">
<!-- Generated by graphviz version 2.48.0 (20210719.0153)
 -->
<!-- Title: boost::numeric::ublas::vector_scalar_real_unary_functor&lt; T &gt; Pages: 1 -->
<svg width="374pt" height="248pt"
 viewBox="0.00 0.00 373.50 248.00" xmlns="http://www.w3.org/2000/svg" xmlns:xlink="http://www.w3.org/1999/xlink">
<g id="graph0" class="graph" transform="scale(1 1) rotate(0) translate(4 244)">
<title>boost::numeric::ublas::vector_scalar_real_unary_functor&lt; T &gt;</title>
<!-- Node1 -->
<g id="node1" class="node">
<title>Node1</title>
<g id="a_node1"><a xlink:title=" ">
<polygon fill="#bfbfbf" stroke="black" points="126.5,-160.5 126.5,-239.5 233.5,-239.5 233.5,-160.5 126.5,-160.5"/>
<text text-anchor="start" x="134.5" y="-227.5" font-family="Helvetica,sans-Serif" font-size="10.00">boost::numeric::ublas</text>
<text text-anchor="start" x="134.5" y="-216.5" font-family="Helvetica,sans-Serif" font-size="10.00">::vector_scalar_real</text>
<text text-anchor="middle" x="180" y="-205.5" font-family="Helvetica,sans-Serif" font-size="10.00">_unary_functor&lt; T &gt;</text>
<polyline fill="none" stroke="black" points="126.5,-198.5 233.5,-198.5 "/>
<text text-anchor="middle" x="180" y="-186.5" font-family="Helvetica,sans-Serif" font-size="10.00"> </text>
<polyline fill="none" stroke="black" points="126.5,-179.5 233.5,-179.5 "/>
<text text-anchor="middle" x="180" y="-167.5" font-family="Helvetica,sans-Serif" font-size="10.00"> </text>
</a>
</g>
</g>
<!-- Node2 -->
<g id="node2" class="node">
<title>Node2</title>
<g id="a_node2"><a xlink:href="../../d5/d5c/structboost_1_1numeric_1_1ublas_1_1vector__norm__1.html" target="_top" xlink:title=" ">
<polygon fill="none" stroke="black" points="0,-0.5 0,-123.5 108,-123.5 108,-0.5 0,-0.5"/>
<text text-anchor="start" x="8" y="-111.5" font-family="Helvetica,sans-Serif" font-size="10.00">boost::numeric::ublas</text>
<text text-anchor="middle" x="54" y="-100.5" font-family="Helvetica,sans-Serif" font-size="10.00">::vector_norm_1&lt; T &gt;</text>
<polyline fill="none" stroke="black" points="0,-93.5 108,-93.5 "/>
<text text-anchor="middle" x="54" y="-81.5" font-family="Helvetica,sans-Serif" font-size="10.00"> </text>
<polyline fill="none" stroke="black" points="0,-74.5 108,-74.5 "/>
<text text-anchor="start" x="8" y="-62.5" font-family="Helvetica,sans-Serif" font-size="10.00">+ apply()</text>
<text text-anchor="start" x="8" y="-51.5" font-family="Helvetica,sans-Serif" font-size="10.00">+ apply()</text>
<text text-anchor="start" x="8" y="-40.5" font-family="Helvetica,sans-Serif" font-size="10.00">+ apply()</text>
<text text-anchor="start" x="8" y="-29.5" font-family="Helvetica,sans-Serif" font-size="10.00">+ apply()</text>
<text text-anchor="start" x="8" y="-18.5" font-family="Helvetica,sans-Serif" font-size="10.00">+ apply()</text>
<text text-anchor="start" x="8" y="-7.5" font-family="Helvetica,sans-Serif" font-size="10.00">+ apply()</text>
</a>
</g>
</g>
<!-- Node1&#45;&gt;Node2 -->
<g id="edge1" class="edge">
<title>Node1&#45;&gt;Node2</title>
<path fill="none" stroke="midnightblue" d="M130.93,-152.97C121.89,-143.52 112.45,-133.44 103.41,-123.57"/>
<polygon fill="none" stroke="midnightblue" points="128.62,-155.62 138.08,-160.39 133.66,-150.76 128.62,-155.62"/>
</g>
<!-- Node1&#45;&gt;Node2 -->
<g id="edge2" class="edge">
<title>Node1&#45;&gt;Node2</title>
<path fill="none" stroke="midnightblue" d="M143.67,-152.85C132.59,-140.48 120.18,-127.04 108.2,-114.41"/>
<polygon fill="none" stroke="midnightblue" points="141.12,-155.25 150.39,-160.39 146.35,-150.59 141.12,-155.25"/>
</g>
<!-- Node3 -->
<g id="node3" class="node">
<title>Node3</title>
<g id="a_node3"><a xlink:href="../../dd/d91/structboost_1_1numeric_1_1ublas_1_1vector__norm__2.html" target="_top" xlink:title=" ">
<polygon fill="none" stroke="black" points="126,-0.5 126,-123.5 234,-123.5 234,-0.5 126,-0.5"/>
<text text-anchor="start" x="134" y="-111.5" font-family="Helvetica,sans-Serif" font-size="10.00">boost::numeric::ublas</text>
<text text-anchor="middle" x="180" y="-100.5" font-family="Helvetica,sans-Serif" font-size="10.00">::vector_norm_2&lt; T &gt;</text>
<polyline fill="none" stroke="black" points="126,-93.5 234,-93.5 "/>
<text text-anchor="middle" x="180" y="-81.5" font-family="Helvetica,sans-Serif" font-size="10.00"> </text>
<polyline fill="none" stroke="black" points="126,-74.5 234,-74.5 "/>
<text text-anchor="start" x="134" y="-62.5" font-family="Helvetica,sans-Serif" font-size="10.00">+ apply()</text>
<text text-anchor="start" x="134" y="-51.5" font-family="Helvetica,sans-Serif" font-size="10.00">+ apply()</text>
<text text-anchor="start" x="134" y="-40.5" font-family="Helvetica,sans-Serif" font-size="10.00">+ apply()</text>
<text text-anchor="start" x="134" y="-29.5" font-family="Helvetica,sans-Serif" font-size="10.00">+ apply()</text>
<text text-anchor="start" x="134" y="-18.5" font-family="Helvetica,sans-Serif" font-size="10.00">+ apply()</text>
<text text-anchor="start" x="134" y="-7.5" font-family="Helvetica,sans-Serif" font-size="10.00">+ apply()</text>
</a>
</g>
</g>
<!-- Node1&#45;&gt;Node3 -->
<g id="edge3" class="edge">
<title>Node1&#45;&gt;Node3</title>
<path fill="none" stroke="midnightblue" d="M173.49,-150.14C173.27,-141.53 173.2,-132.47 173.29,-123.57"/>
<polygon fill="none" stroke="midnightblue" points="170,-150.52 173.84,-160.39 177,-150.28 170,-150.52"/>
</g>
<!-- Node1&#45;&gt;Node3 -->
<g id="edge4" class="edge">
<title>Node1&#45;&gt;Node3</title>
<path fill="none" stroke="midnightblue" d="M186.51,-150.14C186.73,-141.53 186.8,-132.47 186.71,-123.57"/>
<polygon fill="none" stroke="midnightblue" points="183,-150.28 186.16,-160.39 190,-150.52 183,-150.28"/>
</g>
<!-- Node4 -->
<g id="node4" class="node">
<title>Node4</title>
<g id="a_node4"><a xlink:href="../../d6/df4/structboost_1_1numeric_1_1ublas_1_1vector__norm__inf.html" target="_top" xlink:title=" ">
<polygon fill="none" stroke="black" points="252.5,-0.5 252.5,-123.5 365.5,-123.5 365.5,-0.5 252.5,-0.5"/>
<text text-anchor="start" x="260.5" y="-111.5" font-family="Helvetica,sans-Serif" font-size="10.00">boost::numeric::ublas</text>
<text text-anchor="middle" x="309" y="-100.5" font-family="Helvetica,sans-Serif" font-size="10.00">::vector_norm_inf&lt; T &gt;</text>
<polyline fill="none" stroke="black" points="252.5,-93.5 365.5,-93.5 "/>
<text text-anchor="middle" x="309" y="-81.5" font-family="Helvetica,sans-Serif" font-size="10.00"> </text>
<polyline fill="none" stroke="black" points="252.5,-74.5 365.5,-74.5 "/>
<text text-anchor="start" x="260.5" y="-62.5" font-family="Helvetica,sans-Serif" font-size="10.00">+ apply()</text>
<text text-anchor="start" x="260.5" y="-51.5" font-family="Helvetica,sans-Serif" font-size="10.00">+ apply()</text>
<text text-anchor="start" x="260.5" y="-40.5" font-family="Helvetica,sans-Serif" font-size="10.00">+ apply()</text>
<text text-anchor="start" x="260.5" y="-29.5" font-family="Helvetica,sans-Serif" font-size="10.00">+ apply()</text>
<text text-anchor="start" x="260.5" y="-18.5" font-family="Helvetica,sans-Serif" font-size="10.00">+ apply()</text>
<text text-anchor="start" x="260.5" y="-7.5" font-family="Helvetica,sans-Serif" font-size="10.00">+ apply()</text>
</a>
</g>
</g>
<!-- Node1&#45;&gt;Node4 -->
<g id="edge5" class="edge">
<title>Node1&#45;&gt;Node4</title>
<path fill="none" stroke="midnightblue" d="M217.46,-152.72C228.41,-140.8 240.61,-127.89 252.45,-115.67"/>
<polygon fill="none" stroke="midnightblue" points="214.62,-150.64 210.47,-160.39 219.79,-155.36 214.62,-150.64"/>
</g>
<!-- Node1&#45;&gt;Node4 -->
<g id="edge6" class="edge">
<title>Node1&#45;&gt;Node4</title>
<path fill="none" stroke="midnightblue" d="M229.81,-153.25C239.15,-143.72 248.9,-133.54 258.26,-123.57"/>
<polygon fill="none" stroke="midnightblue" points="227.3,-150.81 222.78,-160.39 232.29,-155.73 227.3,-150.81"/>
</g>
</g>
</svg>
