<?xml version="1.0" encoding="UTF-8" standalone="no"?>
<!DOCTYPE svg PUBLIC "-//W3C//DTD SVG 1.1//EN"
 "http://www.w3.org/Graphics/SVG/1.1/DTD/svg11.dtd">
<!-- Generated by graphviz version 2.48.0 (20210719.0153)
 -->
<!-- Title: /github/workspace/kratos/includes/gid_gauss_point_container.h Pages: 1 -->
<svg width="1072pt" height="284pt"
 viewBox="0.00 0.00 1072.00 284.00" xmlns="http://www.w3.org/2000/svg" xmlns:xlink="http://www.w3.org/1999/xlink">
<g id="graph0" class="graph" transform="scale(1 1) rotate(0) translate(4 280)">
<title>/github/workspace/kratos/includes/gid_gauss_point_container.h</title>
<!-- Node1 -->
<g id="node1" class="node">
<title>Node1</title>
<g id="a_node1"><a xlink:title=" ">
<polygon fill="#bfbfbf" stroke="black" points="358,-234.5 358,-275.5 487,-275.5 487,-234.5 358,-234.5"/>
<text text-anchor="start" x="366" y="-263.5" font-family="Helvetica,sans-Serif" font-size="10.00">/github/workspace/kratos</text>
<text text-anchor="start" x="366" y="-252.5" font-family="Helvetica,sans-Serif" font-size="10.00">/includes/gid_gauss_point</text>
<text text-anchor="middle" x="422.5" y="-241.5" font-family="Helvetica,sans-Serif" font-size="10.00">_container.h</text>
</a>
</g>
</g>
<!-- Node2 -->
<g id="node2" class="node">
<title>Node2</title>
<g id="a_node2"><a xlink:href="../../db/d72/gid__io_8h.html" target="_top" xlink:title=" ">
<polygon fill="none" stroke="black" points="359.5,-167.5 359.5,-197.5 485.5,-197.5 485.5,-167.5 359.5,-167.5"/>
<text text-anchor="start" x="367.5" y="-185.5" font-family="Helvetica,sans-Serif" font-size="10.00">/github/workspace/kratos</text>
<text text-anchor="middle" x="422.5" y="-174.5" font-family="Helvetica,sans-Serif" font-size="10.00">/includes/gid_io.h</text>
</a>
</g>
</g>
<!-- Node1&#45;&gt;Node2 -->
<g id="edge1" class="edge">
<title>Node1&#45;&gt;Node2</title>
<path fill="none" stroke="midnightblue" d="M415.83,-224.38C415.57,-215.21 415.94,-205.53 416.94,-197.89"/>
<polygon fill="midnightblue" stroke="midnightblue" points="412.33,-224.57 416.38,-234.36 419.32,-224.18 412.33,-224.57"/>
</g>
<!-- Node2&#45;&gt;Node1 -->
<g id="edge2" class="edge">
<title>Node2&#45;&gt;Node1</title>
<path fill="none" stroke="midnightblue" d="M428.97,-208.11C429.44,-216.7 429.32,-226.23 428.62,-234.36"/>
<polygon fill="midnightblue" stroke="midnightblue" points="432.43,-207.54 428.06,-197.89 425.46,-208.16 432.43,-207.54"/>
</g>
<!-- Node3 -->
<g id="node3" class="node">
<title>Node3</title>
<g id="a_node3"><a xlink:href="../../d0/d9b/gid__mesh__container_8h.html" target="_top" xlink:title=" ">
<polygon fill="none" stroke="black" points="0,-95 0,-125 153,-125 153,-95 0,-95"/>
<text text-anchor="start" x="8" y="-113" font-family="Helvetica,sans-Serif" font-size="10.00">/github/workspace/kratos</text>
<text text-anchor="middle" x="76.5" y="-102" font-family="Helvetica,sans-Serif" font-size="10.00">/includes/gid_mesh_container.h</text>
</a>
</g>
</g>
<!-- Node2&#45;&gt;Node3 -->
<g id="edge3" class="edge">
<title>Node2&#45;&gt;Node3</title>
<path fill="none" stroke="midnightblue" d="M349.47,-169.53C294.9,-159.73 218.78,-145.2 152.5,-131 143.9,-129.16 134.84,-127.12 126.06,-125.08"/>
<polygon fill="midnightblue" stroke="midnightblue" points="348.94,-173 359.4,-171.31 350.17,-166.1 348.94,-173"/>
</g>
<!-- Node4 -->
<g id="node4" class="node">
<title>Node4</title>
<g id="a_node4"><a xlink:href="../../d8/df1/add__io__to__python_8cpp.html" target="_top" xlink:title=" ">
<polygon fill="none" stroke="black" points="171,-95 171,-125 316,-125 316,-95 171,-95"/>
<text text-anchor="start" x="179" y="-113" font-family="Helvetica,sans-Serif" font-size="10.00">/github/workspace/kratos</text>
<text text-anchor="middle" x="243.5" y="-102" font-family="Helvetica,sans-Serif" font-size="10.00">/python/add_io_to_python.cpp</text>
</a>
</g>
</g>
<!-- Node2&#45;&gt;Node4 -->
<g id="edge5" class="edge">
<title>Node2&#45;&gt;Node4</title>
<path fill="none" stroke="midnightblue" d="M377.19,-163.65C346.82,-151.69 307.39,-136.16 279.23,-125.07"/>
<polygon fill="midnightblue" stroke="midnightblue" points="376.12,-166.99 386.71,-167.4 378.69,-160.48 376.12,-166.99"/>
</g>
<!-- Node5 -->
<g id="node5" class="node">
<title>Node5</title>
<g id="a_node5"><a xlink:href="../../d5/dd0/edgebased__gid__io_8h.html" target="_top" xlink:title=" ">
<polygon fill="none" stroke="black" points="334.5,-89.5 334.5,-130.5 510.5,-130.5 510.5,-89.5 334.5,-89.5"/>
<text text-anchor="start" x="342.5" y="-118.5" font-family="Helvetica,sans-Serif" font-size="10.00">/github/workspace/applications</text>
<text text-anchor="start" x="342.5" y="-107.5" font-family="Helvetica,sans-Serif" font-size="10.00">/incompressible_fluid_application</text>
<text text-anchor="middle" x="422.5" y="-96.5" font-family="Helvetica,sans-Serif" font-size="10.00">/custom_utilities/edgebased_gid_io.h</text>
</a>
</g>
</g>
<!-- Node2&#45;&gt;Node5 -->
<g id="edge6" class="edge">
<title>Node2&#45;&gt;Node5</title>
<path fill="none" stroke="midnightblue" d="M422.5,-156.98C422.5,-148.35 422.5,-138.76 422.5,-130.59"/>
<polygon fill="midnightblue" stroke="midnightblue" points="419,-157.23 422.5,-167.23 426,-157.23 419,-157.23"/>
</g>
<!-- Node7 -->
<g id="node7" class="node">
<title>Node7</title>
<g id="a_node7"><a xlink:href="../../d5/d6b/_meshing_application_2custom__io_2pfem__gid__io_8h.html" target="_top" xlink:title=" ">
<polygon fill="none" stroke="black" points="529,-89.5 529,-130.5 680,-130.5 680,-89.5 529,-89.5"/>
<text text-anchor="start" x="537" y="-118.5" font-family="Helvetica,sans-Serif" font-size="10.00">/github/workspace/applications</text>
<text text-anchor="start" x="537" y="-107.5" font-family="Helvetica,sans-Serif" font-size="10.00">/MeshingApplication/custom</text>
<text text-anchor="middle" x="604.5" y="-96.5" font-family="Helvetica,sans-Serif" font-size="10.00">_io/pfem_gid_io.h</text>
</a>
</g>
</g>
<!-- Node2&#45;&gt;Node7 -->
<g id="edge8" class="edge">
<title>Node2&#45;&gt;Node7</title>
<path fill="none" stroke="midnightblue" d="M468.54,-163.67C494.61,-153.57 527.27,-140.92 554.04,-130.55"/>
<polygon fill="midnightblue" stroke="midnightblue" points="466.95,-160.53 458.89,-167.4 469.48,-167.05 466.95,-160.53"/>
</g>
<!-- Node9 -->
<g id="node9" class="node">
<title>Node9</title>
<g id="a_node9"><a xlink:href="../../de/dc3/custom__gid__io_8h.html" target="_top" xlink:title=" ">
<polygon fill="none" stroke="black" points="715,-89.5 715,-130.5 866,-130.5 866,-89.5 715,-89.5"/>
<text text-anchor="start" x="723" y="-118.5" font-family="Helvetica,sans-Serif" font-size="10.00">/github/workspace/applications</text>
<text text-anchor="start" x="723" y="-107.5" font-family="Helvetica,sans-Serif" font-size="10.00">/structural_application/custom</text>
<text text-anchor="middle" x="790.5" y="-96.5" font-family="Helvetica,sans-Serif" font-size="10.00">_utilities/custom_gid_io.h</text>
</a>
</g>
</g>
<!-- Node2&#45;&gt;Node9 -->
<g id="edge10" class="edge">
<title>Node2&#45;&gt;Node9</title>
<path fill="none" stroke="midnightblue" d="M495.74,-167.72C549.18,-157.63 623.35,-143.57 688.5,-131 697,-129.36 705.91,-127.63 714.76,-125.9"/>
<polygon fill="midnightblue" stroke="midnightblue" points="494.85,-164.32 485.67,-169.62 496.15,-171.2 494.85,-164.32"/>
</g>
<!-- Node11 -->
<g id="node11" class="node">
<title>Node11</title>
<g id="a_node11"><a xlink:href="../../df/d3e/_u_l_fapplication_2custom__utilities_2pfem__gid__io_8h.html" target="_top" xlink:title=" ">
<polygon fill="none" stroke="black" points="900,-89.5 900,-130.5 1057,-130.5 1057,-89.5 900,-89.5"/>
<text text-anchor="start" x="908" y="-118.5" font-family="Helvetica,sans-Serif" font-size="10.00">/github/workspace/applications</text>
<text text-anchor="start" x="908" y="-107.5" font-family="Helvetica,sans-Serif" font-size="10.00">/ULFapplication/custom_utilities</text>
<text text-anchor="middle" x="978.5" y="-96.5" font-family="Helvetica,sans-Serif" font-size="10.00">/pfem_gid_io.h</text>
</a>
</g>
</g>
<!-- Node2&#45;&gt;Node11 -->
<g id="edge12" class="edge">
<title>Node2&#45;&gt;Node11</title>
<path fill="none" stroke="midnightblue" d="M495.81,-175.16C585.59,-166.98 742.18,-151.34 875.5,-131 883.42,-129.79 891.67,-128.41 899.88,-126.94"/>
<polygon fill="midnightblue" stroke="midnightblue" points="495.38,-171.69 485.74,-176.08 496.01,-178.66 495.38,-171.69"/>
</g>
<!-- Node3&#45;&gt;Node2 -->
<g id="edge4" class="edge">
<title>Node3&#45;&gt;Node2</title>
<path fill="none" stroke="midnightblue" d="M153.97,-127.36C159.57,-128.62 165.13,-129.85 170.5,-131 234.81,-144.78 308.39,-158.87 359.45,-168.65"/>
<polygon fill="midnightblue" stroke="midnightblue" points="154.38,-123.87 143.85,-125.08 152.84,-130.7 154.38,-123.87"/>
</g>
<!-- Node6 -->
<g id="node6" class="node">
<title>Node6</title>
<g id="a_node6"><a xlink:href="../../d9/d73/incompressible__fluid__application_2custom__python_2add__custom__io__to__python_8cpp.html" target="_top" xlink:title=" ">
<polygon fill="none" stroke="black" points="317.5,-0.5 317.5,-52.5 485.5,-52.5 485.5,-0.5 317.5,-0.5"/>
<text text-anchor="start" x="325.5" y="-40.5" font-family="Helvetica,sans-Serif" font-size="10.00">/github/workspace/applications</text>
<text text-anchor="start" x="325.5" y="-29.5" font-family="Helvetica,sans-Serif" font-size="10.00">/incompressible_fluid_application</text>
<text text-anchor="start" x="325.5" y="-18.5" font-family="Helvetica,sans-Serif" font-size="10.00">/custom_python/add_custom_io_to</text>
<text text-anchor="middle" x="401.5" y="-7.5" font-family="Helvetica,sans-Serif" font-size="10.00">_python.cpp</text>
</a>
</g>
</g>
<!-- Node5&#45;&gt;Node6 -->
<g id="edge7" class="edge">
<title>Node5&#45;&gt;Node6</title>
<path fill="none" stroke="midnightblue" d="M414.88,-79.41C412.61,-70.62 410.15,-61.08 407.97,-52.61"/>
<polygon fill="midnightblue" stroke="midnightblue" points="411.53,-80.46 417.42,-89.27 418.31,-78.71 411.53,-80.46"/>
</g>
<!-- Node8 -->
<g id="node8" class="node">
<title>Node8</title>
<g id="a_node8"><a xlink:href="../../d9/de5/_meshing_application_2custom__python_2add__custom__io__to__python_8cpp.html" target="_top" xlink:title=" ">
<polygon fill="none" stroke="black" points="503,-6 503,-47 688,-47 688,-6 503,-6"/>
<text text-anchor="start" x="511" y="-35" font-family="Helvetica,sans-Serif" font-size="10.00">/github/workspace/applications</text>
<text text-anchor="start" x="511" y="-24" font-family="Helvetica,sans-Serif" font-size="10.00">/MeshingApplication/custom</text>
<text text-anchor="middle" x="595.5" y="-13" font-family="Helvetica,sans-Serif" font-size="10.00">_python/add_custom_io_to_python.cpp</text>
</a>
</g>
</g>
<!-- Node7&#45;&gt;Node8 -->
<g id="edge9" class="edge">
<title>Node7&#45;&gt;Node8</title>
<path fill="none" stroke="midnightblue" d="M601.19,-79.06C600.01,-68.38 598.72,-56.63 597.66,-47.05"/>
<polygon fill="midnightblue" stroke="midnightblue" points="597.74,-79.72 602.32,-89.27 604.7,-78.95 597.74,-79.72"/>
</g>
<!-- Node10 -->
<g id="node10" class="node">
<title>Node10</title>
<g id="a_node10"><a xlink:href="../../d7/d52/structural__application_2custom__python_2add__custom__io__to__python_8cpp.html" target="_top" xlink:title=" ">
<polygon fill="none" stroke="black" points="706,-6 706,-47 891,-47 891,-6 706,-6"/>
<text text-anchor="start" x="714" y="-35" font-family="Helvetica,sans-Serif" font-size="10.00">/github/workspace/applications</text>
<text text-anchor="start" x="714" y="-24" font-family="Helvetica,sans-Serif" font-size="10.00">/structural_application/custom</text>
<text text-anchor="middle" x="798.5" y="-13" font-family="Helvetica,sans-Serif" font-size="10.00">_python/add_custom_io_to_python.cpp</text>
</a>
</g>
</g>
<!-- Node9&#45;&gt;Node10 -->
<g id="edge11" class="edge">
<title>Node9&#45;&gt;Node10</title>
<path fill="none" stroke="midnightblue" d="M793.44,-79.06C794.49,-68.38 795.64,-56.63 796.58,-47.05"/>
<polygon fill="midnightblue" stroke="midnightblue" points="789.93,-78.98 792.44,-89.27 796.9,-79.66 789.93,-78.98"/>
</g>
<!-- Node12 -->
<g id="node12" class="node">
<title>Node12</title>
<g id="a_node12"><a xlink:href="../../d6/db3/_u_l_fapplication_2custom__python_2add__custom__io__to__python_8cpp.html" target="_top" xlink:title=" ">
<polygon fill="none" stroke="black" points="909,-6 909,-47 1064,-47 1064,-6 909,-6"/>
<text text-anchor="start" x="917" y="-35" font-family="Helvetica,sans-Serif" font-size="10.00">/github/workspace/applications</text>
<text text-anchor="start" x="917" y="-24" font-family="Helvetica,sans-Serif" font-size="10.00">/ULFapplication/custom_python</text>
<text text-anchor="middle" x="986.5" y="-13" font-family="Helvetica,sans-Serif" font-size="10.00">/add_custom_io_to_python.cpp</text>
</a>
</g>
</g>
<!-- Node11&#45;&gt;Node12 -->
<g id="edge13" class="edge">
<title>Node11&#45;&gt;Node12</title>
<path fill="none" stroke="midnightblue" d="M981.44,-79.06C982.49,-68.38 983.64,-56.63 984.58,-47.05"/>
<polygon fill="midnightblue" stroke="midnightblue" points="977.93,-78.98 980.44,-89.27 984.9,-79.66 977.93,-78.98"/>
</g>
</g>
</svg>
