<?xml version="1.0" encoding="UTF-8" standalone="no"?>
<!DOCTYPE svg PUBLIC "-//W3C//DTD SVG 1.1//EN"
 "http://www.w3.org/Graphics/SVG/1.1/DTD/svg11.dtd">
<!-- Generated by graphviz version 2.48.0 (20210719.0153)
 -->
<!-- Title: /github/workspace/kratos/spaces/parallel_ublas_space.h Pages: 1 -->
<svg width="2103pt" height="229pt"
 viewBox="0.00 0.00 2102.50 229.00" xmlns="http://www.w3.org/2000/svg" xmlns:xlink="http://www.w3.org/1999/xlink">
<g id="graph0" class="graph" transform="scale(1 1) rotate(0) translate(4 225)">
<title>/github/workspace/kratos/spaces/parallel_ublas_space.h</title>
<!-- Node1 -->
<g id="node1" class="node">
<title>Node1</title>
<g id="a_node1"><a xlink:title=" ">
<polygon fill="#bfbfbf" stroke="black" points="792.5,-179.5 792.5,-220.5 918.5,-220.5 918.5,-179.5 792.5,-179.5"/>
<text text-anchor="start" x="800.5" y="-208.5" font-family="Helvetica,sans-Serif" font-size="10.00">/github/workspace/kratos</text>
<text text-anchor="start" x="800.5" y="-197.5" font-family="Helvetica,sans-Serif" font-size="10.00">/spaces/parallel_ublas</text>
<text text-anchor="middle" x="855.5" y="-186.5" font-family="Helvetica,sans-Serif" font-size="10.00">_space.h</text>
</a>
</g>
</g>
<!-- Node2 -->
<g id="node2" class="node">
<title>Node2</title>
<g id="a_node2"><a xlink:title=" ">
<polygon fill="none" stroke="#bfbfbf" points="23,-62 23,-81 64,-81 64,-62 23,-62"/>
<text text-anchor="middle" x="43.5" y="-69" font-family="Helvetica,sans-Serif" font-size="10.00">string</text>
</a>
</g>
</g>
<!-- Node1&#45;&gt;Node2 -->
<g id="edge1" class="edge">
<title>Node1&#45;&gt;Node2</title>
<path fill="none" stroke="midnightblue" d="M792.29,-195.8C687.82,-189.82 472.87,-174.58 293.5,-143 194.13,-125.5 168.29,-121.57 73.5,-87 72.07,-86.48 70.62,-85.91 69.17,-85.32"/>
<polygon fill="midnightblue" stroke="midnightblue" points="70.3,-81.99 59.75,-81.09 67.44,-88.37 70.3,-81.99"/>
</g>
<!-- Node3 -->
<g id="node3" class="node">
<title>Node3</title>
<g id="a_node3"><a xlink:title=" ">
<polygon fill="none" stroke="#bfbfbf" points="82.5,-62 82.5,-81 136.5,-81 136.5,-62 82.5,-62"/>
<text text-anchor="middle" x="109.5" y="-69" font-family="Helvetica,sans-Serif" font-size="10.00">iostream</text>
</a>
</g>
</g>
<!-- Node1&#45;&gt;Node3 -->
<g id="edge2" class="edge">
<title>Node1&#45;&gt;Node3</title>
<path fill="none" stroke="midnightblue" d="M792.18,-194.22C666.73,-183.62 378.57,-153.6 145.5,-87 143.06,-86.3 140.56,-85.5 138.07,-84.63"/>
<polygon fill="midnightblue" stroke="midnightblue" points="139.26,-81.34 128.67,-81.08 136.79,-87.89 139.26,-81.34"/>
</g>
<!-- Node4 -->
<g id="node4" class="node">
<title>Node4</title>
<g id="a_node4"><a xlink:title=" ">
<polygon fill="none" stroke="#bfbfbf" points="885,-123.5 885,-142.5 934,-142.5 934,-123.5 885,-123.5"/>
<text text-anchor="middle" x="909.5" y="-130.5" font-family="Helvetica,sans-Serif" font-size="10.00">cstddef</text>
</a>
</g>
</g>
<!-- Node1&#45;&gt;Node4 -->
<g id="edge3" class="edge">
<title>Node1&#45;&gt;Node4</title>
<path fill="none" stroke="midnightblue" d="M871.7,-179.5C879.42,-170.2 888.56,-159.21 895.91,-150.36"/>
<polygon fill="midnightblue" stroke="midnightblue" points="898.61,-152.58 902.31,-142.65 893.23,-148.11 898.61,-152.58"/>
</g>
<!-- Node5 -->
<g id="node5" class="node">
<title>Node5</title>
<g id="a_node5"><a xlink:title=" ">
<polygon fill="none" stroke="#bfbfbf" points="952,-123.5 952,-142.5 993,-142.5 993,-123.5 952,-123.5"/>
<text text-anchor="middle" x="972.5" y="-130.5" font-family="Helvetica,sans-Serif" font-size="10.00">omptl</text>
</a>
</g>
</g>
<!-- Node1&#45;&gt;Node5 -->
<g id="edge4" class="edge">
<title>Node1&#45;&gt;Node5</title>
<path fill="none" stroke="midnightblue" d="M890.6,-179.5C909.06,-169.24 931.23,-156.93 947.85,-147.69"/>
<polygon fill="midnightblue" stroke="midnightblue" points="949.88,-150.57 956.93,-142.65 946.48,-144.45 949.88,-150.57"/>
</g>
<!-- Node6 -->
<g id="node6" class="node">
<title>Node6</title>
<g id="a_node6"><a xlink:title=" ">
<polygon fill="none" stroke="#bfbfbf" points="1011.5,-123.5 1011.5,-142.5 1097.5,-142.5 1097.5,-123.5 1011.5,-123.5"/>
<text text-anchor="middle" x="1054.5" y="-130.5" font-family="Helvetica,sans-Serif" font-size="10.00">omptl_algorithm</text>
</a>
</g>
</g>
<!-- Node1&#45;&gt;Node6 -->
<g id="edge5" class="edge">
<title>Node1&#45;&gt;Node6</title>
<path fill="none" stroke="midnightblue" d="M915.21,-179.5C948.9,-168.49 989.88,-155.11 1018.64,-145.71"/>
<polygon fill="midnightblue" stroke="midnightblue" points="1019.85,-149 1028.27,-142.57 1017.68,-142.35 1019.85,-149"/>
</g>
<!-- Node7 -->
<g id="node7" class="node">
<title>Node7</title>
<g id="a_node7"><a xlink:title=" ">
<polygon fill="none" stroke="#bfbfbf" points="1115.5,-123.5 1115.5,-142.5 1195.5,-142.5 1195.5,-123.5 1115.5,-123.5"/>
<text text-anchor="middle" x="1155.5" y="-130.5" font-family="Helvetica,sans-Serif" font-size="10.00">omptl_numeric</text>
</a>
</g>
</g>
<!-- Node1&#45;&gt;Node7 -->
<g id="edge6" class="edge">
<title>Node1&#45;&gt;Node7</title>
<path fill="none" stroke="midnightblue" d="M918.76,-185.29C974.68,-173.18 1055.11,-155.75 1106.33,-144.65"/>
<polygon fill="midnightblue" stroke="midnightblue" points="1107.14,-148.06 1116.17,-142.52 1105.66,-141.22 1107.14,-148.06"/>
</g>
<!-- Node8 -->
<g id="node8" class="node">
<title>Node8</title>
<g id="a_node8"><a xlink:href="../../df/d67/define_8h.html" target="_top" xlink:title=" ">
<polygon fill="none" stroke="black" points="155,-62 155,-81 244,-81 244,-62 155,-62"/>
<text text-anchor="middle" x="199.5" y="-69" font-family="Helvetica,sans-Serif" font-size="10.00">includes/define.h</text>
</a>
</g>
</g>
<!-- Node1&#45;&gt;Node8 -->
<g id="edge7" class="edge">
<title>Node1&#45;&gt;Node8</title>
<path fill="none" stroke="midnightblue" d="M792.26,-186.24C715.02,-170.77 580.32,-144.13 464.5,-123 370.91,-105.92 346.43,-107.36 253.5,-87 248.83,-85.98 243.95,-84.81 239.13,-83.59"/>
<polygon fill="midnightblue" stroke="midnightblue" points="239.93,-80.18 229.37,-81.05 238.17,-86.96 239.93,-80.18"/>
</g>
<!-- Node14 -->
<g id="node14" class="node">
<title>Node14</title>
<g id="a_node14"><a xlink:href="../../d9/d3e/ublas__interface_8h.html" target="_top" xlink:title=" ">
<polygon fill="none" stroke="black" points="738,-123.5 738,-142.5 867,-142.5 867,-123.5 738,-123.5"/>
<text text-anchor="middle" x="802.5" y="-130.5" font-family="Helvetica,sans-Serif" font-size="10.00">includes/ublas_interface.h</text>
</a>
</g>
</g>
<!-- Node1&#45;&gt;Node14 -->
<g id="edge13" class="edge">
<title>Node1&#45;&gt;Node14</title>
<path fill="none" stroke="midnightblue" d="M839.6,-179.5C832.1,-170.3 823.24,-159.44 816.06,-150.63"/>
<polygon fill="midnightblue" stroke="midnightblue" points="818.59,-148.19 809.56,-142.65 813.16,-152.61 818.59,-148.19"/>
</g>
<!-- Node9 -->
<g id="node9" class="node">
<title>Node9</title>
<g id="a_node9"><a xlink:title=" ">
<polygon fill="none" stroke="#bfbfbf" points="0,-0.5 0,-19.5 59,-19.5 59,-0.5 0,-0.5"/>
<text text-anchor="middle" x="29.5" y="-7.5" font-family="Helvetica,sans-Serif" font-size="10.00">stdexcept</text>
</a>
</g>
</g>
<!-- Node8&#45;&gt;Node9 -->
<g id="edge8" class="edge">
<title>Node8&#45;&gt;Node9</title>
<path fill="none" stroke="midnightblue" d="M175.14,-61.98C145.86,-51.72 96.53,-34.46 63.5,-22.9"/>
<polygon fill="midnightblue" stroke="midnightblue" points="64.41,-19.51 53.81,-19.51 62.09,-26.12 64.41,-19.51"/>
</g>
<!-- Node10 -->
<g id="node10" class="node">
<title>Node10</title>
<g id="a_node10"><a xlink:title=" ">
<polygon fill="none" stroke="#bfbfbf" points="77.5,-0.5 77.5,-19.5 129.5,-19.5 129.5,-0.5 77.5,-0.5"/>
<text text-anchor="middle" x="103.5" y="-7.5" font-family="Helvetica,sans-Serif" font-size="10.00">sstream</text>
</a>
</g>
</g>
<!-- Node8&#45;&gt;Node10 -->
<g id="edge9" class="edge">
<title>Node8&#45;&gt;Node10</title>
<path fill="none" stroke="midnightblue" d="M185.75,-61.98C170.13,-52.3 144.44,-36.37 125.92,-24.89"/>
<polygon fill="midnightblue" stroke="midnightblue" points="127.57,-21.8 117.23,-19.51 123.88,-27.75 127.57,-21.8"/>
</g>
<!-- Node11 -->
<g id="node11" class="node">
<title>Node11</title>
<g id="a_node11"><a xlink:title=" ">
<polygon fill="none" stroke="#bfbfbf" points="148,-0.5 148,-19.5 251,-19.5 251,-0.5 148,-0.5"/>
<text text-anchor="middle" x="199.5" y="-7.5" font-family="Helvetica,sans-Serif" font-size="10.00">boost/smart_ptr.hpp</text>
</a>
</g>
</g>
<!-- Node8&#45;&gt;Node11 -->
<g id="edge10" class="edge">
<title>Node8&#45;&gt;Node11</title>
<path fill="none" stroke="midnightblue" d="M199.5,-61.98C199.5,-53.58 199.5,-40.48 199.5,-29.66"/>
<polygon fill="midnightblue" stroke="midnightblue" points="203,-29.51 199.5,-19.51 196,-29.51 203,-29.51"/>
</g>
<!-- Node12 -->
<g id="node12" class="node">
<title>Node12</title>
<g id="a_node12"><a xlink:title=" ">
<polygon fill="none" stroke="#bfbfbf" points="269,-0.5 269,-19.5 400,-19.5 400,-0.5 269,-0.5"/>
<text text-anchor="middle" x="334.5" y="-7.5" font-family="Helvetica,sans-Serif" font-size="10.00">boost/current_function.hpp</text>
</a>
</g>
</g>
<!-- Node8&#45;&gt;Node12 -->
<g id="edge11" class="edge">
<title>Node8&#45;&gt;Node12</title>
<path fill="none" stroke="midnightblue" d="M218.84,-61.98C241.6,-51.95 279.59,-35.2 305.79,-23.65"/>
<polygon fill="midnightblue" stroke="midnightblue" points="307.45,-26.74 315.19,-19.51 304.63,-20.34 307.45,-26.74"/>
</g>
<!-- Node13 -->
<g id="node13" class="node">
<title>Node13</title>
<g id="a_node13"><a xlink:href="../../de/d17/kratos__config_8h.html" target="_top" xlink:title=" ">
<polygon fill="none" stroke="black" points="418,-0.5 418,-19.5 539,-19.5 539,-0.5 418,-0.5"/>
<text text-anchor="middle" x="478.5" y="-7.5" font-family="Helvetica,sans-Serif" font-size="10.00">includes/kratos_config.h</text>
</a>
</g>
</g>
<!-- Node8&#45;&gt;Node13 -->
<g id="edge12" class="edge">
<title>Node8&#45;&gt;Node13</title>
<path fill="none" stroke="midnightblue" d="M229.97,-61.95C237.63,-59.9 245.84,-57.79 253.5,-56 310.3,-42.71 375.73,-29.9 421.34,-21.37"/>
<polygon fill="midnightblue" stroke="midnightblue" points="422.15,-24.78 431.34,-19.51 420.86,-17.9 422.15,-24.78"/>
</g>
<!-- Node14&#45;&gt;Node2 -->
<g id="edge14" class="edge">
<title>Node14&#45;&gt;Node2</title>
<path fill="none" stroke="midnightblue" d="M737.99,-131.21C583.93,-128.8 198.09,-119.6 73.5,-87 71.57,-86.49 69.61,-85.86 67.68,-85.15"/>
<polygon fill="midnightblue" stroke="midnightblue" points="68.89,-81.86 58.32,-81.07 66.09,-88.27 68.89,-81.86"/>
</g>
<!-- Node14&#45;&gt;Node3 -->
<g id="edge15" class="edge">
<title>Node14&#45;&gt;Node3</title>
<path fill="none" stroke="midnightblue" d="M737.94,-130.15C595.25,-125.66 256.93,-112.58 145.5,-87 142.67,-86.35 139.77,-85.51 136.9,-84.56"/>
<polygon fill="midnightblue" stroke="midnightblue" points="138.05,-81.25 127.45,-81.02 135.59,-87.8 138.05,-81.25"/>
</g>
<!-- Node14&#45;&gt;Node8 -->
<g id="edge31" class="edge">
<title>Node14&#45;&gt;Node8</title>
<path fill="none" stroke="midnightblue" d="M737.58,-128.15C613.05,-120.54 344.89,-102.88 253.5,-87 248.31,-86.1 242.9,-84.93 237.59,-83.64"/>
<polygon fill="midnightblue" stroke="midnightblue" points="238.15,-80.17 227.59,-81.07 236.4,-86.95 238.15,-80.17"/>
</g>
<!-- Node15 -->
<g id="node15" class="node">
<title>Node15</title>
<g id="a_node15"><a xlink:title=" ">
<polygon fill="none" stroke="#bfbfbf" points="1002.5,-56.5 1002.5,-86.5 1106.5,-86.5 1106.5,-56.5 1002.5,-56.5"/>
<text text-anchor="start" x="1010.5" y="-74.5" font-family="Helvetica,sans-Serif" font-size="10.00">boost/numeric/ublas</text>
<text text-anchor="middle" x="1054.5" y="-63.5" font-family="Helvetica,sans-Serif" font-size="10.00">/vector.hpp</text>
</a>
</g>
</g>
<!-- Node14&#45;&gt;Node15 -->
<g id="edge16" class="edge">
<title>Node14&#45;&gt;Node15</title>
<path fill="none" stroke="midnightblue" d="M838.77,-123.48C875.16,-114.92 933.11,-101.28 992.36,-87.27"/>
<polygon fill="midnightblue" stroke="midnightblue" points="993.33,-90.63 1002.26,-84.93 991.72,-83.82 993.33,-90.63"/>
</g>
<!-- Node16 -->
<g id="node16" class="node">
<title>Node16</title>
<g id="a_node16"><a xlink:title=" ">
<polygon fill="none" stroke="#bfbfbf" points="1124.5,-56.5 1124.5,-86.5 1228.5,-86.5 1228.5,-56.5 1124.5,-56.5"/>
<text text-anchor="start" x="1132.5" y="-74.5" font-family="Helvetica,sans-Serif" font-size="10.00">boost/numeric/ublas</text>
<text text-anchor="middle" x="1176.5" y="-63.5" font-family="Helvetica,sans-Serif" font-size="10.00">/vector_proxy.hpp</text>
</a>
</g>
</g>
<!-- Node14&#45;&gt;Node16 -->
<g id="edge17" class="edge">
<title>Node14&#45;&gt;Node16</title>
<path fill="none" stroke="midnightblue" d="M866.5,-123.5C939.39,-113.7 1055.07,-97.76 1114.29,-87.09"/>
<polygon fill="midnightblue" stroke="midnightblue" points="1115.13,-90.5 1124.32,-85.23 1113.85,-83.61 1115.13,-90.5"/>
</g>
<!-- Node17 -->
<g id="node17" class="node">
<title>Node17</title>
<g id="a_node17"><a xlink:title=" ">
<polygon fill="none" stroke="#bfbfbf" points="1246.5,-56.5 1246.5,-86.5 1350.5,-86.5 1350.5,-56.5 1246.5,-56.5"/>
<text text-anchor="start" x="1254.5" y="-74.5" font-family="Helvetica,sans-Serif" font-size="10.00">boost/numeric/ublas</text>
<text text-anchor="middle" x="1298.5" y="-63.5" font-family="Helvetica,sans-Serif" font-size="10.00">/vector_sparse.hpp</text>
</a>
</g>
</g>
<!-- Node14&#45;&gt;Node17 -->
<g id="edge18" class="edge">
<title>Node14&#45;&gt;Node17</title>
<path fill="none" stroke="midnightblue" d="M867.06,-124.06C870.25,-123.7 873.41,-123.34 876.5,-123 1033.48,-105.63 1076.73,-113.37 1236.18,-87.08"/>
<polygon fill="midnightblue" stroke="midnightblue" points="1237.06,-90.48 1246.35,-85.38 1235.91,-83.57 1237.06,-90.48"/>
</g>
<!-- Node18 -->
<g id="node18" class="node">
<title>Node18</title>
<g id="a_node18"><a xlink:title=" ">
<polygon fill="none" stroke="#bfbfbf" points="1368.5,-56.5 1368.5,-86.5 1484.5,-86.5 1484.5,-56.5 1368.5,-56.5"/>
<text text-anchor="start" x="1376.5" y="-74.5" font-family="Helvetica,sans-Serif" font-size="10.00">boost/numeric/ublas</text>
<text text-anchor="middle" x="1426.5" y="-63.5" font-family="Helvetica,sans-Serif" font-size="10.00">/vector_expression.hpp</text>
</a>
</g>
</g>
<!-- Node14&#45;&gt;Node18 -->
<g id="edge19" class="edge">
<title>Node14&#45;&gt;Node18</title>
<path fill="none" stroke="midnightblue" d="M867.05,-123.97C870.25,-123.63 873.41,-123.3 876.5,-123 1087.49,-102.32 1144.74,-117.37 1358.52,-87"/>
<polygon fill="midnightblue" stroke="midnightblue" points="1359.08,-90.46 1368.48,-85.57 1358.09,-83.53 1359.08,-90.46"/>
</g>
<!-- Node19 -->
<g id="node19" class="node">
<title>Node19</title>
<g id="a_node19"><a xlink:title=" ">
<polygon fill="none" stroke="#bfbfbf" points="1502.5,-56.5 1502.5,-86.5 1606.5,-86.5 1606.5,-56.5 1502.5,-56.5"/>
<text text-anchor="start" x="1510.5" y="-74.5" font-family="Helvetica,sans-Serif" font-size="10.00">boost/numeric/ublas</text>
<text text-anchor="middle" x="1554.5" y="-63.5" font-family="Helvetica,sans-Serif" font-size="10.00">/matrix.hpp</text>
</a>
</g>
</g>
<!-- Node14&#45;&gt;Node19 -->
<g id="edge20" class="edge">
<title>Node14&#45;&gt;Node19</title>
<path fill="none" stroke="midnightblue" d="M867.05,-123.91C870.24,-123.58 873.41,-123.28 876.5,-123 1146.75,-98.71 1219.95,-126.23 1492.19,-87.01"/>
<polygon fill="midnightblue" stroke="midnightblue" points="1492.98,-90.43 1502.37,-85.52 1491.97,-83.5 1492.98,-90.43"/>
</g>
<!-- Node20 -->
<g id="node20" class="node">
<title>Node20</title>
<g id="a_node20"><a xlink:title=" ">
<polygon fill="none" stroke="#bfbfbf" points="1624.5,-56.5 1624.5,-86.5 1728.5,-86.5 1728.5,-56.5 1624.5,-56.5"/>
<text text-anchor="start" x="1632.5" y="-74.5" font-family="Helvetica,sans-Serif" font-size="10.00">boost/numeric/ublas</text>
<text text-anchor="middle" x="1676.5" y="-63.5" font-family="Helvetica,sans-Serif" font-size="10.00">/matrix_sparse.hpp</text>
</a>
</g>
</g>
<!-- Node14&#45;&gt;Node20 -->
<g id="edge21" class="edge">
<title>Node14&#45;&gt;Node20</title>
<path fill="none" stroke="midnightblue" d="M867.05,-123.87C870.24,-123.56 873.41,-123.26 876.5,-123 1200.79,-95.42 1288.15,-132.45 1614.17,-87"/>
<polygon fill="midnightblue" stroke="midnightblue" points="1614.96,-90.42 1624.38,-85.56 1613.99,-83.49 1614.96,-90.42"/>
</g>
<!-- Node21 -->
<g id="node21" class="node">
<title>Node21</title>
<g id="a_node21"><a xlink:title=" ">
<polygon fill="none" stroke="#bfbfbf" points="1746.5,-56.5 1746.5,-86.5 1850.5,-86.5 1850.5,-56.5 1746.5,-56.5"/>
<text text-anchor="start" x="1754.5" y="-74.5" font-family="Helvetica,sans-Serif" font-size="10.00">boost/numeric/ublas</text>
<text text-anchor="middle" x="1798.5" y="-63.5" font-family="Helvetica,sans-Serif" font-size="10.00">/matrix_proxy.hpp</text>
</a>
</g>
</g>
<!-- Node14&#45;&gt;Node21 -->
<g id="edge22" class="edge">
<title>Node14&#45;&gt;Node21</title>
<path fill="none" stroke="midnightblue" d="M867.04,-123.84C870.24,-123.54 873.4,-123.25 876.5,-123 1254.88,-92.13 1356.34,-138.7 1736.21,-86.98"/>
<polygon fill="midnightblue" stroke="midnightblue" points="1736.95,-90.41 1746.38,-85.58 1736,-83.48 1736.95,-90.41"/>
</g>
<!-- Node22 -->
<g id="node22" class="node">
<title>Node22</title>
<g id="a_node22"><a xlink:title=" ">
<polygon fill="none" stroke="#bfbfbf" points="1868.5,-56.5 1868.5,-86.5 1972.5,-86.5 1972.5,-56.5 1868.5,-56.5"/>
<text text-anchor="start" x="1876.5" y="-74.5" font-family="Helvetica,sans-Serif" font-size="10.00">boost/numeric/ublas</text>
<text text-anchor="middle" x="1920.5" y="-63.5" font-family="Helvetica,sans-Serif" font-size="10.00">/symmetric.hpp</text>
</a>
</g>
</g>
<!-- Node14&#45;&gt;Node22 -->
<g id="edge23" class="edge">
<title>Node14&#45;&gt;Node22</title>
<path fill="none" stroke="midnightblue" d="M867.04,-123.83C870.24,-123.52 873.4,-123.24 876.5,-123 1309.03,-88.84 1424.55,-144.97 1858.4,-86.95"/>
<polygon fill="midnightblue" stroke="midnightblue" points="1858.94,-90.41 1868.38,-85.6 1858.01,-83.47 1858.94,-90.41"/>
</g>
<!-- Node23 -->
<g id="node23" class="node">
<title>Node23</title>
<g id="a_node23"><a xlink:title=" ">
<polygon fill="none" stroke="#bfbfbf" points="1990.5,-56.5 1990.5,-86.5 2094.5,-86.5 2094.5,-56.5 1990.5,-56.5"/>
<text text-anchor="start" x="1998.5" y="-74.5" font-family="Helvetica,sans-Serif" font-size="10.00">boost/numeric/ublas</text>
<text text-anchor="middle" x="2042.5" y="-63.5" font-family="Helvetica,sans-Serif" font-size="10.00">/hermitian.hpp</text>
</a>
</g>
</g>
<!-- Node14&#45;&gt;Node23 -->
<g id="edge24" class="edge">
<title>Node14&#45;&gt;Node23</title>
<path fill="none" stroke="midnightblue" d="M867.04,-123.81C870.24,-123.51 873.4,-123.24 876.5,-123 1363.07,-85.56 1492.7,-151.24 1980.27,-86.96"/>
<polygon fill="midnightblue" stroke="midnightblue" points="1980.93,-90.4 1990.39,-85.61 1980.01,-83.46 1980.93,-90.4"/>
</g>
<!-- Node24 -->
<g id="node24" class="node">
<title>Node24</title>
<g id="a_node24"><a xlink:title=" ">
<polygon fill="none" stroke="#bfbfbf" points="262.5,-56.5 262.5,-86.5 366.5,-86.5 366.5,-56.5 262.5,-56.5"/>
<text text-anchor="start" x="270.5" y="-74.5" font-family="Helvetica,sans-Serif" font-size="10.00">boost/numeric/ublas</text>
<text text-anchor="middle" x="314.5" y="-63.5" font-family="Helvetica,sans-Serif" font-size="10.00">/banded.hpp</text>
</a>
</g>
</g>
<!-- Node14&#45;&gt;Node24 -->
<g id="edge25" class="edge">
<title>Node14&#45;&gt;Node24</title>
<path fill="none" stroke="midnightblue" d="M737.76,-127.78C655.85,-121.85 510.31,-109.4 376.66,-87.06"/>
<polygon fill="midnightblue" stroke="midnightblue" points="377.1,-83.58 366.65,-85.36 375.93,-90.48 377.1,-83.58"/>
</g>
<!-- Node25 -->
<g id="node25" class="node">
<title>Node25</title>
<g id="a_node25"><a xlink:title=" ">
<polygon fill="none" stroke="#bfbfbf" points="384.5,-56.5 384.5,-86.5 488.5,-86.5 488.5,-56.5 384.5,-56.5"/>
<text text-anchor="start" x="392.5" y="-74.5" font-family="Helvetica,sans-Serif" font-size="10.00">boost/numeric/ublas</text>
<text text-anchor="middle" x="436.5" y="-63.5" font-family="Helvetica,sans-Serif" font-size="10.00">/triangular.hpp</text>
</a>
</g>
</g>
<!-- Node14&#45;&gt;Node25 -->
<g id="edge26" class="edge">
<title>Node14&#45;&gt;Node25</title>
<path fill="none" stroke="midnightblue" d="M737.96,-124.13C678.28,-116.48 586.92,-103.82 498.6,-87.11"/>
<polygon fill="midnightblue" stroke="midnightblue" points="499.16,-83.66 488.68,-85.22 497.84,-90.53 499.16,-83.66"/>
</g>
<!-- Node26 -->
<g id="node26" class="node">
<title>Node26</title>
<g id="a_node26"><a xlink:title=" ">
<polygon fill="none" stroke="#bfbfbf" points="506.5,-56.5 506.5,-86.5 610.5,-86.5 610.5,-56.5 506.5,-56.5"/>
<text text-anchor="start" x="514.5" y="-74.5" font-family="Helvetica,sans-Serif" font-size="10.00">boost/numeric/ublas</text>
<text text-anchor="middle" x="558.5" y="-63.5" font-family="Helvetica,sans-Serif" font-size="10.00">/io.hpp</text>
</a>
</g>
</g>
<!-- Node14&#45;&gt;Node26 -->
<g id="edge27" class="edge">
<title>Node14&#45;&gt;Node26</title>
<path fill="none" stroke="midnightblue" d="M767.54,-123.48C729.36,-114.16 667.45,-99.07 620.89,-87.71"/>
<polygon fill="midnightblue" stroke="midnightblue" points="621.45,-84.25 610.91,-85.28 619.79,-91.05 621.45,-84.25"/>
</g>
<!-- Node27 -->
<g id="node27" class="node">
<title>Node27</title>
<g id="a_node27"><a xlink:title=" ">
<polygon fill="none" stroke="#bfbfbf" points="628.5,-56.5 628.5,-86.5 732.5,-86.5 732.5,-56.5 628.5,-56.5"/>
<text text-anchor="start" x="636.5" y="-74.5" font-family="Helvetica,sans-Serif" font-size="10.00">boost/numeric/ublas</text>
<text text-anchor="middle" x="680.5" y="-63.5" font-family="Helvetica,sans-Serif" font-size="10.00">/operation.hpp</text>
</a>
</g>
</g>
<!-- Node14&#45;&gt;Node27 -->
<g id="edge28" class="edge">
<title>Node14&#45;&gt;Node27</title>
<path fill="none" stroke="midnightblue" d="M785.02,-123.48C767.73,-115.04 740.69,-101.86 718.45,-91.01"/>
<polygon fill="midnightblue" stroke="midnightblue" points="719.78,-87.76 709.25,-86.52 716.71,-94.05 719.78,-87.76"/>
</g>
<!-- Node28 -->
<g id="node28" class="node">
<title>Node28</title>
<g id="a_node28"><a xlink:title=" ">
<polygon fill="none" stroke="#bfbfbf" points="750.5,-56.5 750.5,-86.5 854.5,-86.5 854.5,-56.5 750.5,-56.5"/>
<text text-anchor="start" x="758.5" y="-74.5" font-family="Helvetica,sans-Serif" font-size="10.00">boost/numeric/ublas</text>
<text text-anchor="middle" x="802.5" y="-63.5" font-family="Helvetica,sans-Serif" font-size="10.00">/lu.hpp</text>
</a>
</g>
</g>
<!-- Node14&#45;&gt;Node28 -->
<g id="edge29" class="edge">
<title>Node14&#45;&gt;Node28</title>
<path fill="none" stroke="midnightblue" d="M802.5,-123.48C802.5,-116.47 802.5,-106.19 802.5,-96.7"/>
<polygon fill="midnightblue" stroke="midnightblue" points="806,-96.52 802.5,-86.52 799,-96.52 806,-96.52"/>
</g>
<!-- Node29 -->
<g id="node29" class="node">
<title>Node29</title>
<g id="a_node29"><a xlink:title=" ">
<polygon fill="none" stroke="#bfbfbf" points="872.5,-56.5 872.5,-86.5 984.5,-86.5 984.5,-56.5 872.5,-56.5"/>
<text text-anchor="start" x="880.5" y="-74.5" font-family="Helvetica,sans-Serif" font-size="10.00">boost/numeric/ublas</text>
<text text-anchor="middle" x="928.5" y="-63.5" font-family="Helvetica,sans-Serif" font-size="10.00">/operation_sparse.hpp</text>
</a>
</g>
</g>
<!-- Node14&#45;&gt;Node29 -->
<g id="edge30" class="edge">
<title>Node14&#45;&gt;Node29</title>
<path fill="none" stroke="midnightblue" d="M820.55,-123.48C838.49,-115 866.59,-101.74 889.61,-90.86"/>
<polygon fill="midnightblue" stroke="midnightblue" points="891.26,-93.96 898.8,-86.52 888.27,-87.63 891.26,-93.96"/>
</g>
</g>
</svg>
