<?xml version="1.0" encoding="UTF-8" standalone="no"?>
<!DOCTYPE svg PUBLIC "-//W3C//DTD SVG 1.1//EN"
 "http://www.w3.org/Graphics/SVG/1.1/DTD/svg11.dtd">
<!-- Generated by graphviz version 2.48.0 (20210719.0153)
 -->
<!-- Title: /github/workspace/applications/trilinos_application/external_includes/amesos_solver.h Pages: 1 -->
<svg width="615pt" height="285pt"
 viewBox="0.00 0.00 614.50 285.00" xmlns="http://www.w3.org/2000/svg" xmlns:xlink="http://www.w3.org/1999/xlink">
<g id="graph0" class="graph" transform="scale(1 1) rotate(0) translate(4 281)">
<title>/github/workspace/applications/trilinos_application/external_includes/amesos_solver.h</title>
<!-- Node1 -->
<g id="node1" class="node">
<title>Node1</title>
<g id="a_node1"><a xlink:title=" ">
<polygon fill="#bfbfbf" stroke="black" points="263,-235.5 263,-276.5 414,-276.5 414,-235.5 263,-235.5"/>
<text text-anchor="start" x="271" y="-264.5" font-family="Helvetica,sans-Serif" font-size="10.00">/github/workspace/applications</text>
<text text-anchor="start" x="271" y="-253.5" font-family="Helvetica,sans-Serif" font-size="10.00">/trilinos_application/external</text>
<text text-anchor="middle" x="338.5" y="-242.5" font-family="Helvetica,sans-Serif" font-size="10.00">_includes/amesos_solver.h</text>
</a>
</g>
</g>
<!-- Node2 -->
<g id="node2" class="node">
<title>Node2</title>
<g id="a_node2"><a xlink:title=" ">
<polygon fill="none" stroke="#bfbfbf" points="0,-0.5 0,-19.5 103,-19.5 103,-0.5 0,-0.5"/>
<text text-anchor="middle" x="51.5" y="-7.5" font-family="Helvetica,sans-Serif" font-size="10.00">boost/smart_ptr.hpp</text>
</a>
</g>
</g>
<!-- Node1&#45;&gt;Node2 -->
<g id="edge1" class="edge">
<title>Node1&#45;&gt;Node2</title>
<path fill="none" stroke="midnightblue" d="M308.59,-235.39C293.28,-225.01 274.53,-211.8 258.5,-199 183.7,-139.25 101.32,-60 67.41,-26.75"/>
<polygon fill="midnightblue" stroke="midnightblue" points="69.8,-24.19 60.22,-19.67 64.89,-29.18 69.8,-24.19"/>
</g>
<!-- Node3 -->
<g id="node3" class="node">
<title>Node3</title>
<g id="a_node3"><a xlink:href="../../df/d67/define_8h.html" target="_top" xlink:title=" ">
<polygon fill="none" stroke="black" points="223,-56.5 223,-75.5 312,-75.5 312,-56.5 223,-56.5"/>
<text text-anchor="middle" x="267.5" y="-63.5" font-family="Helvetica,sans-Serif" font-size="10.00">includes/define.h</text>
</a>
</g>
</g>
<!-- Node1&#45;&gt;Node3 -->
<g id="edge2" class="edge">
<title>Node1&#45;&gt;Node3</title>
<path fill="none" stroke="midnightblue" d="M311.72,-235.48C300.01,-225.71 287.04,-212.99 278.5,-199 257.88,-165.22 256.02,-151.42 259.5,-112 260.28,-103.2 261.89,-93.54 263.47,-85.43"/>
<polygon fill="midnightblue" stroke="midnightblue" points="266.91,-86.07 265.51,-75.57 260.06,-84.65 266.91,-86.07"/>
</g>
<!-- Node8 -->
<g id="node8" class="node">
<title>Node8</title>
<g id="a_node8"><a xlink:href="../../d2/d9f/linear__solver_8h.html" target="_top" xlink:title=" ">
<polygon fill="none" stroke="black" points="287,-168.5 287,-198.5 390,-198.5 390,-168.5 287,-168.5"/>
<text text-anchor="start" x="295" y="-186.5" font-family="Helvetica,sans-Serif" font-size="10.00">linear_solvers/linear</text>
<text text-anchor="middle" x="338.5" y="-175.5" font-family="Helvetica,sans-Serif" font-size="10.00">_solver.h</text>
</a>
</g>
</g>
<!-- Node1&#45;&gt;Node8 -->
<g id="edge8" class="edge">
<title>Node1&#45;&gt;Node8</title>
<path fill="none" stroke="midnightblue" d="M338.5,-235.36C338.5,-227.23 338.5,-217.7 338.5,-209.11"/>
<polygon fill="midnightblue" stroke="midnightblue" points="342,-208.89 338.5,-198.89 335,-208.89 342,-208.89"/>
</g>
<!-- Node13 -->
<g id="node13" class="node">
<title>Node13</title>
<g id="a_node13"><a xlink:title=" ">
<polygon fill="none" stroke="#bfbfbf" points="408.5,-174 408.5,-193 468.5,-193 468.5,-174 408.5,-174"/>
<text text-anchor="middle" x="438.5" y="-181" font-family="Helvetica,sans-Serif" font-size="10.00">Amesos.h</text>
</a>
</g>
</g>
<!-- Node1&#45;&gt;Node13 -->
<g id="edge18" class="edge">
<title>Node1&#45;&gt;Node13</title>
<path fill="none" stroke="midnightblue" d="M366.36,-235.36C382.63,-223.89 402.82,-209.65 417.7,-199.16"/>
<polygon fill="midnightblue" stroke="midnightblue" points="420.04,-201.8 426.2,-193.17 416.01,-196.07 420.04,-201.8"/>
</g>
<!-- Node14 -->
<g id="node14" class="node">
<title>Node14</title>
<g id="a_node14"><a xlink:title=" ">
<polygon fill="none" stroke="#bfbfbf" points="486.5,-174 486.5,-193 606.5,-193 606.5,-174 486.5,-174"/>
<text text-anchor="middle" x="546.5" y="-181" font-family="Helvetica,sans-Serif" font-size="10.00">Epetra_LinearProblem.h</text>
</a>
</g>
</g>
<!-- Node1&#45;&gt;Node14 -->
<g id="edge19" class="edge">
<title>Node1&#45;&gt;Node14</title>
<path fill="none" stroke="midnightblue" d="M396.16,-235.46C433.27,-222.88 480.26,-206.95 511.74,-196.28"/>
<polygon fill="midnightblue" stroke="midnightblue" points="513.04,-199.54 521.38,-193.01 510.79,-192.91 513.04,-199.54"/>
</g>
<!-- Node3&#45;&gt;Node2 -->
<g id="edge5" class="edge">
<title>Node3&#45;&gt;Node2</title>
<path fill="none" stroke="midnightblue" d="M233.27,-56.44C195.99,-47.12 136.23,-32.18 95.49,-22"/>
<polygon fill="midnightblue" stroke="midnightblue" points="96.12,-18.55 85.57,-19.52 94.42,-25.34 96.12,-18.55"/>
</g>
<!-- Node4 -->
<g id="node4" class="node">
<title>Node4</title>
<g id="a_node4"><a xlink:title=" ">
<polygon fill="none" stroke="#bfbfbf" points="260,-0.5 260,-19.5 319,-19.5 319,-0.5 260,-0.5"/>
<text text-anchor="middle" x="289.5" y="-7.5" font-family="Helvetica,sans-Serif" font-size="10.00">stdexcept</text>
</a>
</g>
</g>
<!-- Node3&#45;&gt;Node4 -->
<g id="edge3" class="edge">
<title>Node3&#45;&gt;Node4</title>
<path fill="none" stroke="midnightblue" d="M271.13,-56.08C274.11,-48.77 278.43,-38.18 282.12,-29.1"/>
<polygon fill="midnightblue" stroke="midnightblue" points="285.4,-30.33 285.93,-19.75 278.92,-27.69 285.4,-30.33"/>
</g>
<!-- Node5 -->
<g id="node5" class="node">
<title>Node5</title>
<g id="a_node5"><a xlink:title=" ">
<polygon fill="none" stroke="#bfbfbf" points="486.5,-0.5 486.5,-19.5 538.5,-19.5 538.5,-0.5 486.5,-0.5"/>
<text text-anchor="middle" x="512.5" y="-7.5" font-family="Helvetica,sans-Serif" font-size="10.00">sstream</text>
</a>
</g>
</g>
<!-- Node3&#45;&gt;Node5 -->
<g id="edge4" class="edge">
<title>Node3&#45;&gt;Node5</title>
<path fill="none" stroke="midnightblue" d="M309.85,-56.45C350.27,-48.18 413.1,-35 476.41,-20.19"/>
<polygon fill="midnightblue" stroke="midnightblue" points="477.22,-23.59 486.16,-17.9 475.62,-16.78 477.22,-23.59"/>
</g>
<!-- Node6 -->
<g id="node6" class="node">
<title>Node6</title>
<g id="a_node6"><a xlink:title=" ">
<polygon fill="none" stroke="#bfbfbf" points="337,-0.5 337,-19.5 468,-19.5 468,-0.5 337,-0.5"/>
<text text-anchor="middle" x="402.5" y="-7.5" font-family="Helvetica,sans-Serif" font-size="10.00">boost/current_function.hpp</text>
</a>
</g>
</g>
<!-- Node3&#45;&gt;Node6 -->
<g id="edge6" class="edge">
<title>Node3&#45;&gt;Node6</title>
<path fill="none" stroke="midnightblue" d="M288.89,-56.44C311.21,-47.52 346.4,-33.44 371.71,-23.32"/>
<polygon fill="midnightblue" stroke="midnightblue" points="373.22,-26.48 381.21,-19.52 370.62,-19.98 373.22,-26.48"/>
</g>
<!-- Node7 -->
<g id="node7" class="node">
<title>Node7</title>
<g id="a_node7"><a xlink:href="../../de/d17/kratos__config_8h.html" target="_top" xlink:title=" ">
<polygon fill="none" stroke="black" points="121,-0.5 121,-19.5 242,-19.5 242,-0.5 121,-0.5"/>
<text text-anchor="middle" x="181.5" y="-7.5" font-family="Helvetica,sans-Serif" font-size="10.00">includes/kratos_config.h</text>
</a>
</g>
</g>
<!-- Node3&#45;&gt;Node7 -->
<g id="edge7" class="edge">
<title>Node3&#45;&gt;Node7</title>
<path fill="none" stroke="midnightblue" d="M253.68,-56.32C240.27,-47.9 219.68,-34.97 203.91,-25.07"/>
<polygon fill="midnightblue" stroke="midnightblue" points="205.61,-22.01 195.28,-19.65 201.89,-27.94 205.61,-22.01"/>
</g>
<!-- Node8&#45;&gt;Node3 -->
<g id="edge13" class="edge">
<title>Node8&#45;&gt;Node3</title>
<path fill="none" stroke="midnightblue" d="M308.16,-168.44C293.74,-160.04 277.87,-147.89 269.5,-132 262.02,-117.8 262.23,-99.32 263.9,-85.7"/>
<polygon fill="midnightblue" stroke="midnightblue" points="267.39,-86.02 265.5,-75.6 260.48,-84.92 267.39,-86.02"/>
</g>
<!-- Node8&#45;&gt;Node5 -->
<g id="edge11" class="edge">
<title>Node8&#45;&gt;Node5</title>
<path fill="none" stroke="midnightblue" d="M388.28,-168.46C420.85,-158.38 459.5,-144.44 471.5,-132 499,-103.49 508.08,-55.88 511.06,-29.69"/>
<polygon fill="midnightblue" stroke="midnightblue" points="514.56,-29.88 512.02,-19.6 507.59,-29.22 514.56,-29.88"/>
</g>
<!-- Node9 -->
<g id="node9" class="node">
<title>Node9</title>
<g id="a_node9"><a xlink:title=" ">
<polygon fill="none" stroke="#bfbfbf" points="339,-56.5 339,-75.5 380,-75.5 380,-56.5 339,-56.5"/>
<text text-anchor="middle" x="359.5" y="-63.5" font-family="Helvetica,sans-Serif" font-size="10.00">string</text>
</a>
</g>
</g>
<!-- Node8&#45;&gt;Node9 -->
<g id="edge9" class="edge">
<title>Node8&#45;&gt;Node9</title>
<path fill="none" stroke="midnightblue" d="M341.82,-168.4C344.13,-158.3 347.21,-144.35 349.5,-132 352.37,-116.55 355.04,-98.91 356.9,-85.92"/>
<polygon fill="midnightblue" stroke="midnightblue" points="360.39,-86.25 358.31,-75.86 353.46,-85.28 360.39,-86.25"/>
</g>
<!-- Node10 -->
<g id="node10" class="node">
<title>Node10</title>
<g id="a_node10"><a xlink:title=" ">
<polygon fill="none" stroke="#bfbfbf" points="419.5,-56.5 419.5,-75.5 473.5,-75.5 473.5,-56.5 419.5,-56.5"/>
<text text-anchor="middle" x="446.5" y="-63.5" font-family="Helvetica,sans-Serif" font-size="10.00">iostream</text>
</a>
</g>
</g>
<!-- Node8&#45;&gt;Node10 -->
<g id="edge10" class="edge">
<title>Node8&#45;&gt;Node10</title>
<path fill="none" stroke="midnightblue" d="M384.5,-168.44C413.53,-158.53 447.08,-144.8 455.5,-132 464.58,-118.19 460.48,-99.17 455.22,-85.27"/>
<polygon fill="midnightblue" stroke="midnightblue" points="458.33,-83.63 451.18,-75.81 451.89,-86.38 458.33,-83.63"/>
</g>
<!-- Node11 -->
<g id="node11" class="node">
<title>Node11</title>
<g id="a_node11"><a xlink:title=" ">
<polygon fill="none" stroke="#bfbfbf" points="397,-112.5 397,-131.5 446,-131.5 446,-112.5 397,-112.5"/>
<text text-anchor="middle" x="421.5" y="-119.5" font-family="Helvetica,sans-Serif" font-size="10.00">cstddef</text>
</a>
</g>
</g>
<!-- Node8&#45;&gt;Node11 -->
<g id="edge12" class="edge">
<title>Node8&#45;&gt;Node11</title>
<path fill="none" stroke="midnightblue" d="M358.17,-168.4C371.1,-159.13 387.99,-147.03 401.07,-137.65"/>
<polygon fill="midnightblue" stroke="midnightblue" points="403.33,-140.33 409.42,-131.66 399.26,-134.64 403.33,-140.33"/>
</g>
<!-- Node12 -->
<g id="node12" class="node">
<title>Node12</title>
<g id="a_node12"><a xlink:href="../../d5/d67/reorderer_8h.html" target="_top" xlink:title=" ">
<polygon fill="none" stroke="black" points="278.5,-112.5 278.5,-131.5 340.5,-131.5 340.5,-112.5 278.5,-112.5"/>
<text text-anchor="middle" x="309.5" y="-119.5" font-family="Helvetica,sans-Serif" font-size="10.00">reorderer.h</text>
</a>
</g>
</g>
<!-- Node8&#45;&gt;Node12 -->
<g id="edge14" class="edge">
<title>Node8&#45;&gt;Node12</title>
<path fill="none" stroke="midnightblue" d="M331.63,-168.4C327.59,-160.11 322.44,-149.55 318.13,-140.71"/>
<polygon fill="midnightblue" stroke="midnightblue" points="321.25,-139.11 313.72,-131.66 314.95,-142.18 321.25,-139.11"/>
</g>
<!-- Node12&#45;&gt;Node3 -->
<g id="edge17" class="edge">
<title>Node12&#45;&gt;Node3</title>
<path fill="none" stroke="midnightblue" d="M302.56,-112.08C296.57,-104.38 287.75,-93.03 280.45,-83.65"/>
<polygon fill="midnightblue" stroke="midnightblue" points="283.21,-81.5 274.31,-75.75 277.68,-85.79 283.21,-81.5"/>
</g>
<!-- Node12&#45;&gt;Node9 -->
<g id="edge15" class="edge">
<title>Node12&#45;&gt;Node9</title>
<path fill="none" stroke="midnightblue" d="M317.76,-112.08C324.96,-104.3 335.61,-92.8 344.35,-83.37"/>
<polygon fill="midnightblue" stroke="midnightblue" points="347.17,-85.47 351.4,-75.75 342.03,-80.71 347.17,-85.47"/>
</g>
<!-- Node12&#45;&gt;Node10 -->
<g id="edge16" class="edge">
<title>Node12&#45;&gt;Node10</title>
<path fill="none" stroke="midnightblue" d="M331.21,-112.44C353.85,-103.52 389.57,-89.44 415.25,-79.32"/>
<polygon fill="midnightblue" stroke="midnightblue" points="416.87,-82.44 424.89,-75.52 414.31,-75.93 416.87,-82.44"/>
</g>
</g>
</svg>
