<?xml version="1.0" encoding="UTF-8" standalone="no"?>
<!DOCTYPE svg PUBLIC "-//W3C//DTD SVG 1.1//EN"
 "http://www.w3.org/Graphics/SVG/1.1/DTD/svg11.dtd">
<!-- Generated by graphviz version 2.48.0 (20210719.0153)
 -->
<!-- Title: /github/workspace/applications/ULFapplication/ULF_application.h Pages: 1 -->
<!--zoomable 195 -->
<svg id="main" version="1.1" xmlns="http://www.w3.org/2000/svg" xmlns:xlink="http://www.w3.org/1999/xlink" xml:space="preserve" onload="init(evt)">
<style type="text/css"><![CDATA[
.edge:hover path { stroke: red; }
.edge:hover polygon { stroke: red; fill: red; }
]]></style>
<script type="text/javascript"><![CDATA[
var edges = document.getElementsByTagName('g');
if (edges && edges.length) {
  for (var i=0;i<edges.length;i++) {
    if (edges[i].id.substr(0,4)=='edge') {
      edges[i].setAttribute('class','edge');
    }
  }
}
]]></script>
        <defs>
                <circle id="rim" cx="0" cy="0" r="7"/>
                <circle id="rim2" cx="0" cy="0" r="3.5"/>
                <g id="zoomPlus">
                        <use xlink:href="#rim" fill="#404040">
                                <set attributeName="fill" to="#808080" begin="zoomplus.mouseover" end="zoomplus.mouseout"/>
                        </use>
                        <path d="M-4,0h8M0,-4v8" fill="none" stroke="white" stroke-width="1.5" pointer-events="none"/>
                </g>
                <g id="zoomMin">
                        <use xlink:href="#rim" fill="#404040">
                                <set attributeName="fill" to="#808080" begin="zoomminus.mouseover" end="zoomminus.mouseout"/>
                        </use>
                        <path d="M-4,0h8" fill="none" stroke="white" stroke-width="1.5" pointer-events="none"/>
                </g>
                <g id="dirArrow">
                        <path fill="none" stroke="white" stroke-width="1.5" d="M0,-3.0v7 M-2.5,-0.5L0,-3.0L2.5,-0.5"/>
                </g>
               <g id="resetDef">
                       <use xlink:href="#rim2" fill="#404040">
                               <set attributeName="fill" to="#808080" begin="reset.mouseover" end="reset.mouseout"/>
                       </use>
               </g>
        </defs>

<script type="text/javascript">
var viewWidth = 1470;
var viewHeight = 195;
var sectionId = 'dynsection-1';
</script>
<script xlink:href="../../svgpan.js"/>
<svg id="graph" class="graph">
<g id="viewport">
<title>/github/workspace/applications/ULFapplication/ULF_application.h</title>
<!-- Node1 -->
<g id="node1" class="node">
<title>Node1</title>
<g id="a_node1"><a xlink:title=" ">
<polygon fill="#bfbfbf" stroke="black" points="652.5,-156.5 652.5,-186.5 819.5,-186.5 819.5,-156.5 652.5,-156.5"/>
<text text-anchor="start" x="660.5" y="-174.5" font-family="Helvetica,sans-Serif" font-size="10.00">/github/workspace/applications</text>
<text text-anchor="middle" x="736" y="-163.5" font-family="Helvetica,sans-Serif" font-size="10.00">/ULFapplication/ULF_application.h</text>
</a>
</g>
</g>
<!-- Node2 -->
<g id="node2" class="node">
<title>Node2</title>
<g id="a_node2"><a xlink:href="../../d8/d8a/_u_l_fapplication_2custom__elements_2updated__lagrangian__fluid_8cpp.html" target="_top" xlink:title=" ">
<polygon fill="none" stroke="black" points="0,-78.5 0,-119.5 166,-119.5 166,-78.5 0,-78.5"/>
<text text-anchor="start" x="8" y="-107.5" font-family="Helvetica,sans-Serif" font-size="10.00">/github/workspace/applications</text>
<text text-anchor="start" x="8" y="-96.5" font-family="Helvetica,sans-Serif" font-size="10.00">/ULFapplication/custom_elements</text>
<text text-anchor="middle" x="83" y="-85.5" font-family="Helvetica,sans-Serif" font-size="10.00">/updated_lagrangian_fluid.cpp</text>
</a>
</g>
</g>
<!-- Node1&#45;&gt;Node2 -->
<g id="edge1" class="edge">
<title>Node1&#45;&gt;Node2</title>
<path fill="none" stroke="midnightblue" d="M642.21,-165.63C530.46,-159 338.34,-145.01 175,-120 172.09,-119.55 169.14,-119.07 166.16,-118.56"/>
<polygon fill="midnightblue" stroke="midnightblue" points="642.25,-169.14 652.44,-166.23 642.66,-162.15 642.25,-169.14"/>
</g>
<!-- Node3 -->
<g id="node3" class="node">
<title>Node3</title>
<g id="a_node3"><a xlink:href="../../d3/d95/updated__lagrangian__fluid3_d_8cpp.html" target="_top" xlink:title=" ">
<polygon fill="none" stroke="black" points="184,-78.5 184,-119.5 350,-119.5 350,-78.5 184,-78.5"/>
<text text-anchor="start" x="192" y="-107.5" font-family="Helvetica,sans-Serif" font-size="10.00">/github/workspace/applications</text>
<text text-anchor="start" x="192" y="-96.5" font-family="Helvetica,sans-Serif" font-size="10.00">/ULFapplication/custom_elements</text>
<text text-anchor="middle" x="267" y="-85.5" font-family="Helvetica,sans-Serif" font-size="10.00">/updated_lagrangian_fluid3D.cpp</text>
</a>
</g>
</g>
<!-- Node1&#45;&gt;Node3 -->
<g id="edge2" class="edge">
<title>Node1&#45;&gt;Node3</title>
<path fill="none" stroke="midnightblue" d="M642.13,-160.06C565.66,-151.05 455.02,-136.84 359,-120 356.1,-119.49 353.16,-118.96 350.19,-118.4"/>
<polygon fill="midnightblue" stroke="midnightblue" points="641.88,-163.56 652.22,-161.25 642.7,-156.61 641.88,-163.56"/>
</g>
<!-- Node4 -->
<g id="node4" class="node">
<title>Node4</title>
<g id="a_node4"><a xlink:href="../../d9/d6e/updated__lagrangian__fluid3_d__inc_8cpp.html" target="_top" xlink:title=" ">
<polygon fill="none" stroke="black" points="368,-78.5 368,-119.5 542,-119.5 542,-78.5 368,-78.5"/>
<text text-anchor="start" x="376" y="-107.5" font-family="Helvetica,sans-Serif" font-size="10.00">/github/workspace/applications</text>
<text text-anchor="start" x="376" y="-96.5" font-family="Helvetica,sans-Serif" font-size="10.00">/ULFapplication/custom_elements</text>
<text text-anchor="middle" x="455" y="-85.5" font-family="Helvetica,sans-Serif" font-size="10.00">/updated_lagrangian_fluid3D_inc.cpp</text>
</a>
</g>
</g>
<!-- Node1&#45;&gt;Node4 -->
<g id="edge3" class="edge">
<title>Node1&#45;&gt;Node4</title>
<path fill="none" stroke="midnightblue" d="M670.24,-154C629.14,-143.69 576.01,-130.36 532.82,-119.53"/>
<polygon fill="midnightblue" stroke="midnightblue" points="669.6,-157.45 680.15,-156.49 671.3,-150.66 669.6,-157.45"/>
</g>
<!-- Node5 -->
<g id="node5" class="node">
<title>Node5</title>
<g id="a_node5"><a xlink:href="../../d2/d87/updated__lagrangian__fluid__inc_8cpp.html" target="_top" xlink:title=" ">
<polygon fill="none" stroke="black" points="560,-78.5 560,-119.5 726,-119.5 726,-78.5 560,-78.5"/>
<text text-anchor="start" x="568" y="-107.5" font-family="Helvetica,sans-Serif" font-size="10.00">/github/workspace/applications</text>
<text text-anchor="start" x="568" y="-96.5" font-family="Helvetica,sans-Serif" font-size="10.00">/ULFapplication/custom_elements</text>
<text text-anchor="middle" x="643" y="-85.5" font-family="Helvetica,sans-Serif" font-size="10.00">/updated_lagrangian_fluid_inc.cpp</text>
</a>
</g>
</g>
<!-- Node1&#45;&gt;Node5 -->
<g id="edge4" class="edge">
<title>Node1&#45;&gt;Node5</title>
<path fill="none" stroke="midnightblue" d="M708.87,-149.93C696.24,-140.36 681.3,-129.03 668.84,-119.59"/>
<polygon fill="midnightblue" stroke="midnightblue" points="707.1,-152.98 717.18,-156.23 711.33,-147.4 707.1,-152.98"/>
</g>
<!-- Node6 -->
<g id="node6" class="node">
<title>Node6</title>
<g id="a_node6"><a xlink:href="../../d6/d0c/pressure__calculate__process_8h.html" target="_top" xlink:title=" ">
<polygon fill="none" stroke="black" points="744.5,-78.5 744.5,-119.5 915.5,-119.5 915.5,-78.5 744.5,-78.5"/>
<text text-anchor="start" x="752.5" y="-107.5" font-family="Helvetica,sans-Serif" font-size="10.00">/github/workspace/applications</text>
<text text-anchor="start" x="752.5" y="-96.5" font-family="Helvetica,sans-Serif" font-size="10.00">/ULFapplication/custom_processes</text>
<text text-anchor="middle" x="830" y="-85.5" font-family="Helvetica,sans-Serif" font-size="10.00">/pressure_calculate_process.h</text>
</a>
</g>
</g>
<!-- Node1&#45;&gt;Node6 -->
<g id="edge5" class="edge">
<title>Node1&#45;&gt;Node6</title>
<path fill="none" stroke="midnightblue" d="M763.05,-150.21C775.89,-140.58 791.17,-129.12 803.88,-119.59"/>
<polygon fill="midnightblue" stroke="midnightblue" points="760.92,-147.43 755.02,-156.23 765.12,-153.03 760.92,-147.43"/>
</g>
<!-- Node8 -->
<g id="node8" class="node">
<title>Node8</title>
<g id="a_node8"><a xlink:href="../../d2/d1d/_u_l_fapplication_2custom__utilities_2nist__utilities_8h.html" target="_top" xlink:title=" ">
<polygon fill="none" stroke="black" points="933.5,-78.5 933.5,-119.5 1090.5,-119.5 1090.5,-78.5 933.5,-78.5"/>
<text text-anchor="start" x="941.5" y="-107.5" font-family="Helvetica,sans-Serif" font-size="10.00">/github/workspace/applications</text>
<text text-anchor="start" x="941.5" y="-96.5" font-family="Helvetica,sans-Serif" font-size="10.00">/ULFapplication/custom_utilities</text>
<text text-anchor="middle" x="1012" y="-85.5" font-family="Helvetica,sans-Serif" font-size="10.00">/nist_utilities.h</text>
</a>
</g>
</g>
<!-- Node1&#45;&gt;Node8 -->
<g id="edge7" class="edge">
<title>Node1&#45;&gt;Node8</title>
<path fill="none" stroke="midnightblue" d="M800.59,-154C840.95,-143.69 893.14,-130.36 935.56,-119.53"/>
<polygon fill="midnightblue" stroke="midnightblue" points="799.68,-150.62 790.86,-156.49 801.41,-157.4 799.68,-150.62"/>
</g>
<!-- Node9 -->
<g id="node9" class="node">
<title>Node9</title>
<g id="a_node9"><a xlink:href="../../d7/db9/ulf__utilities_8h.html" target="_top" xlink:title=" ">
<polygon fill="none" stroke="black" points="1108.5,-78.5 1108.5,-119.5 1265.5,-119.5 1265.5,-78.5 1108.5,-78.5"/>
<text text-anchor="start" x="1116.5" y="-107.5" font-family="Helvetica,sans-Serif" font-size="10.00">/github/workspace/applications</text>
<text text-anchor="start" x="1116.5" y="-96.5" font-family="Helvetica,sans-Serif" font-size="10.00">/ULFapplication/custom_utilities</text>
<text text-anchor="middle" x="1187" y="-85.5" font-family="Helvetica,sans-Serif" font-size="10.00">/ulf_utilities.h</text>
</a>
</g>
</g>
<!-- Node1&#45;&gt;Node9 -->
<g id="edge8" class="edge">
<title>Node1&#45;&gt;Node9</title>
<path fill="none" stroke="midnightblue" d="M830.01,-159.77C903.73,-150.79 1008.76,-136.78 1100,-120 1102.74,-119.5 1105.53,-118.96 1108.34,-118.41"/>
<polygon fill="midnightblue" stroke="midnightblue" points="829.33,-156.32 819.83,-161 830.17,-163.27 829.33,-156.32"/>
</g>
<!-- Node11 -->
<g id="node11" class="node">
<title>Node11</title>
<g id="a_node11"><a xlink:href="../../d0/d88/_u_l_f__application_8cpp.html" target="_top" xlink:title=" ">
<polygon fill="none" stroke="black" points="1284,-84 1284,-114 1462,-114 1462,-84 1284,-84"/>
<text text-anchor="start" x="1292" y="-102" font-family="Helvetica,sans-Serif" font-size="10.00">/github/workspace/applications</text>
<text text-anchor="middle" x="1373" y="-91" font-family="Helvetica,sans-Serif" font-size="10.00">/ULFapplication/ULF_application.cpp</text>
</a>
</g>
</g>
<!-- Node1&#45;&gt;Node11 -->
<g id="edge10" class="edge">
<title>Node1&#45;&gt;Node11</title>
<path fill="none" stroke="midnightblue" d="M830.1,-164.77C937.97,-157.49 1119.87,-143.03 1275,-120 1286.16,-118.34 1297.98,-116.24 1309.39,-114.02"/>
<polygon fill="midnightblue" stroke="midnightblue" points="829.64,-161.3 819.9,-165.45 830.11,-168.28 829.64,-161.3"/>
</g>
<!-- Node7 -->
<g id="node7" class="node">
<title>Node7</title>
<g id="a_node7"><a xlink:href="../../d4/d6d/applications_2_u_l_fapplication_2custom__python_2add__processes__to__python_8cpp.html" target="_top" xlink:title=" ">
<polygon fill="none" stroke="black" points="752.5,-0.5 752.5,-41.5 907.5,-41.5 907.5,-0.5 752.5,-0.5"/>
<text text-anchor="start" x="760.5" y="-29.5" font-family="Helvetica,sans-Serif" font-size="10.00">/github/workspace/applications</text>
<text text-anchor="start" x="760.5" y="-18.5" font-family="Helvetica,sans-Serif" font-size="10.00">/ULFapplication/custom_python</text>
<text text-anchor="middle" x="830" y="-7.5" font-family="Helvetica,sans-Serif" font-size="10.00">/add_processes_to_python.cpp</text>
</a>
</g>
</g>
<!-- Node6&#45;&gt;Node7 -->
<g id="edge6" class="edge">
<title>Node6&#45;&gt;Node7</title>
<path fill="none" stroke="midnightblue" d="M830,-68.3C830,-59.3 830,-49.65 830,-41.51"/>
<polygon fill="midnightblue" stroke="midnightblue" points="826.5,-68.43 830,-78.43 833.5,-68.43 826.5,-68.43"/>
</g>
<!-- Node10 -->
<g id="node10" class="node">
<title>Node10</title>
<g id="a_node10"><a xlink:href="../../d5/d60/_u_l_fapplication_2custom__python_2add__custom__utilities__to__python_8cpp.html" target="_top" xlink:title=" ">
<polygon fill="none" stroke="black" points="1100,-0.5 1100,-41.5 1274,-41.5 1274,-0.5 1100,-0.5"/>
<text text-anchor="start" x="1108" y="-29.5" font-family="Helvetica,sans-Serif" font-size="10.00">/github/workspace/applications</text>
<text text-anchor="start" x="1108" y="-18.5" font-family="Helvetica,sans-Serif" font-size="10.00">/ULFapplication/custom_python</text>
<text text-anchor="middle" x="1187" y="-7.5" font-family="Helvetica,sans-Serif" font-size="10.00">/add_custom_utilities_to_python.cpp</text>
</a>
</g>
</g>
<!-- Node9&#45;&gt;Node10 -->
<g id="edge9" class="edge">
<title>Node9&#45;&gt;Node10</title>
<path fill="none" stroke="midnightblue" d="M1187,-68.3C1187,-59.3 1187,-49.65 1187,-41.51"/>
<polygon fill="midnightblue" stroke="midnightblue" points="1183.5,-68.43 1187,-78.43 1190.5,-68.43 1183.5,-68.43"/>
</g>
</g>
</svg>
        <g id="navigator" transform="translate(0 0)" fill="#404254">
                <rect fill="#f2f5e9" fill-opacity="0.5" stroke="#606060" stroke-width=".5" x="0" y="0" width="60" height="60"/>
                <use id="zoomplus" xlink:href="#zoomPlus" x="17" y="9" onmousedown="handleZoom(evt,'in')"/>
                <use id="zoomminus" xlink:href="#zoomMin" x="42" y="9" onmousedown="handleZoom(evt,'out')"/>
                <use id="reset" xlink:href="#resetDef" x="30" y="36" onmousedown="handleReset()"/>
                <g id="arrowUp" xlink:href="#dirArrow" transform="translate(30 24)" onmousedown="handlePan(0,-1)">
                  <use xlink:href="#rim" fill="#404040">
                        <set attributeName="fill" to="#808080" begin="arrowUp.mouseover" end="arrowUp.mouseout"/>
                  </use>
                  <path fill="none" stroke="white" stroke-width="1.5" d="M0,-3.0v7 M-2.5,-0.5L0,-3.0L2.5,-0.5"/>
                </g>
                <g id="arrowRight" xlink:href="#dirArrow" transform="rotate(90) translate(36 -43)" onmousedown="handlePan(1,0)">
                  <use xlink:href="#rim" fill="#404040">
                        <set attributeName="fill" to="#808080" begin="arrowRight.mouseover" end="arrowRight.mouseout"/>
                  </use>
                  <path fill="none" stroke="white" stroke-width="1.5" d="M0,-3.0v7 M-2.5,-0.5L0,-3.0L2.5,-0.5"/>
                </g>
                <g id="arrowDown" xlink:href="#dirArrow" transform="rotate(180) translate(-30 -48)" onmousedown="handlePan(0,1)">
                  <use xlink:href="#rim" fill="#404040">
                        <set attributeName="fill" to="#808080" begin="arrowDown.mouseover" end="arrowDown.mouseout"/>
                  </use>
                  <path fill="none" stroke="white" stroke-width="1.5" d="M0,-3.0v7 M-2.5,-0.5L0,-3.0L2.5,-0.5"/>
                </g>
                <g id="arrowLeft" xlink:href="#dirArrow" transform="rotate(270) translate(-36 17)" onmousedown="handlePan(-1,0)">
                  <use xlink:href="#rim" fill="#404040">
                        <set attributeName="fill" to="#808080" begin="arrowLeft.mouseover" end="arrowLeft.mouseout"/>
                  </use>
                  <path fill="none" stroke="white" stroke-width="1.5" d="M0,-3.0v7 M-2.5,-0.5L0,-3.0L2.5,-0.5"/>
                </g>
        </g>
        <svg viewBox="0 0 15 15" width="100%" height="30px" preserveAspectRatio="xMaxYMin meet">
         <g id="arrow_out" transform="scale(0.3 0.3)">
          <a xlink:href="_u_l_f__application_8h__dep__incl_org.svg" target="_base">
           <rect id="button" ry="5" rx="5" y="6" x="6" height="38" width="38"
                fill="#f2f5e9" fill-opacity="0.5" stroke="#606060" stroke-width="1.0"/>
           <path id="arrow"
             d="M 11.500037,31.436501 C 11.940474,20.09759 22.043105,11.32322 32.158766,21.979434 L 37.068811,17.246167 C 37.068811,17.246167 37.088388,32 37.088388,32 L 22.160133,31.978069 C 22.160133,31.978069 26.997745,27.140456 26.997745,27.140456 C 18.528582,18.264221 13.291696,25.230495 11.500037,31.436501 z"
             style="fill:#404040;"/>
          </a>
         </g>
        </svg>
</svg>
