<?xml version="1.0" encoding="UTF-8" standalone="no"?>
<!DOCTYPE svg PUBLIC "-//W3C//DTD SVG 1.1//EN"
 "http://www.w3.org/Graphics/SVG/1.1/DTD/svg11.dtd">
<!-- Generated by graphviz version 2.48.0 (20210719.0153)
 -->
<!-- Title: /github/workspace/kratos/includes/gid_mesh_container.h Pages: 1 -->
<!--zoomable 273 -->
<svg id="main" version="1.1" xmlns="http://www.w3.org/2000/svg" xmlns:xlink="http://www.w3.org/1999/xlink" xml:space="preserve" onload="init(evt)">
<style type="text/css"><![CDATA[
.edge:hover path { stroke: red; }
.edge:hover polygon { stroke: red; fill: red; }
]]></style>
<script type="text/javascript"><![CDATA[
var edges = document.getElementsByTagName('g');
if (edges && edges.length) {
  for (var i=0;i<edges.length;i++) {
    if (edges[i].id.substr(0,4)=='edge') {
      edges[i].setAttribute('class','edge');
    }
  }
}
]]></script>
        <defs>
                <circle id="rim" cx="0" cy="0" r="7"/>
                <circle id="rim2" cx="0" cy="0" r="3.5"/>
                <g id="zoomPlus">
                        <use xlink:href="#rim" fill="#404040">
                                <set attributeName="fill" to="#808080" begin="zoomplus.mouseover" end="zoomplus.mouseout"/>
                        </use>
                        <path d="M-4,0h8M0,-4v8" fill="none" stroke="white" stroke-width="1.5" pointer-events="none"/>
                </g>
                <g id="zoomMin">
                        <use xlink:href="#rim" fill="#404040">
                                <set attributeName="fill" to="#808080" begin="zoomminus.mouseover" end="zoomminus.mouseout"/>
                        </use>
                        <path d="M-4,0h8" fill="none" stroke="white" stroke-width="1.5" pointer-events="none"/>
                </g>
                <g id="dirArrow">
                        <path fill="none" stroke="white" stroke-width="1.5" d="M0,-3.0v7 M-2.5,-0.5L0,-3.0L2.5,-0.5"/>
                </g>
               <g id="resetDef">
                       <use xlink:href="#rim2" fill="#404040">
                               <set attributeName="fill" to="#808080" begin="reset.mouseover" end="reset.mouseout"/>
                       </use>
               </g>
        </defs>

<script type="text/javascript">
var viewWidth = 1048;
var viewHeight = 273;
var sectionId = 'dynsection-1';
</script>
<script xlink:href="../../svgpan.js"/>
<svg id="graph" class="graph">
<g id="viewport">
<title>/github/workspace/kratos/includes/gid_mesh_container.h</title>
<!-- Node1 -->
<g id="node1" class="node">
<title>Node1</title>
<g id="a_node1"><a xlink:title=" ">
<polygon fill="#bfbfbf" stroke="black" points="322,-234.5 322,-264.5 475,-264.5 475,-234.5 322,-234.5"/>
<text text-anchor="start" x="330" y="-252.5" font-family="Helvetica,sans-Serif" font-size="10.00">/github/workspace/kratos</text>
<text text-anchor="middle" x="398.5" y="-241.5" font-family="Helvetica,sans-Serif" font-size="10.00">/includes/gid_mesh_container.h</text>
</a>
</g>
</g>
<!-- Node2 -->
<g id="node2" class="node">
<title>Node2</title>
<g id="a_node2"><a xlink:href="../../db/d72/gid__io_8h.html" target="_top" xlink:title=" ">
<polygon fill="none" stroke="black" points="335.5,-167.5 335.5,-197.5 461.5,-197.5 461.5,-167.5 335.5,-167.5"/>
<text text-anchor="start" x="343.5" y="-185.5" font-family="Helvetica,sans-Serif" font-size="10.00">/github/workspace/kratos</text>
<text text-anchor="middle" x="398.5" y="-174.5" font-family="Helvetica,sans-Serif" font-size="10.00">/includes/gid_io.h</text>
</a>
</g>
</g>
<!-- Node1&#45;&gt;Node2 -->
<g id="edge1" class="edge">
<title>Node1&#45;&gt;Node2</title>
<path fill="none" stroke="midnightblue" d="M391.95,-224.4C391.51,-215.37 391.8,-205.41 392.83,-197.58"/>
<polygon fill="midnightblue" stroke="midnightblue" points="388.47,-224.74 392.82,-234.4 395.44,-224.13 388.47,-224.74"/>
</g>
<!-- Node2&#45;&gt;Node1 -->
<g id="edge4" class="edge">
<title>Node2&#45;&gt;Node1</title>
<path fill="none" stroke="midnightblue" d="M405.04,-207.57C405.49,-216.6 405.21,-226.56 404.18,-234.4"/>
<polygon fill="midnightblue" stroke="midnightblue" points="408.53,-207.24 404.17,-197.58 401.55,-207.84 408.53,-207.24"/>
</g>
<!-- Node3 -->
<g id="node3" class="node">
<title>Node3</title>
<g id="a_node3"><a xlink:href="../../d5/d32/gid__gauss__point__container_8h.html" target="_top" xlink:title=" ">
<polygon fill="none" stroke="black" points="0,-89.5 0,-130.5 129,-130.5 129,-89.5 0,-89.5"/>
<text text-anchor="start" x="8" y="-118.5" font-family="Helvetica,sans-Serif" font-size="10.00">/github/workspace/kratos</text>
<text text-anchor="start" x="8" y="-107.5" font-family="Helvetica,sans-Serif" font-size="10.00">/includes/gid_gauss_point</text>
<text text-anchor="middle" x="64.5" y="-96.5" font-family="Helvetica,sans-Serif" font-size="10.00">_container.h</text>
</a>
</g>
</g>
<!-- Node2&#45;&gt;Node3 -->
<g id="edge2" class="edge">
<title>Node2&#45;&gt;Node3</title>
<path fill="none" stroke="midnightblue" d="M325.32,-170.19C270.68,-160.75 194.51,-146.4 128.5,-131 127.86,-130.85 127.22,-130.7 126.57,-130.55"/>
<polygon fill="midnightblue" stroke="midnightblue" points="324.82,-173.65 335.27,-171.89 326,-166.76 324.82,-173.65"/>
</g>
<!-- Node4 -->
<g id="node4" class="node">
<title>Node4</title>
<g id="a_node4"><a xlink:href="../../d8/df1/add__io__to__python_8cpp.html" target="_top" xlink:title=" ">
<polygon fill="none" stroke="black" points="147,-95 147,-125 292,-125 292,-95 147,-95"/>
<text text-anchor="start" x="155" y="-113" font-family="Helvetica,sans-Serif" font-size="10.00">/github/workspace/kratos</text>
<text text-anchor="middle" x="219.5" y="-102" font-family="Helvetica,sans-Serif" font-size="10.00">/python/add_io_to_python.cpp</text>
</a>
</g>
</g>
<!-- Node2&#45;&gt;Node4 -->
<g id="edge5" class="edge">
<title>Node2&#45;&gt;Node4</title>
<path fill="none" stroke="midnightblue" d="M353.19,-163.65C322.82,-151.69 283.39,-136.16 255.23,-125.07"/>
<polygon fill="midnightblue" stroke="midnightblue" points="352.12,-166.99 362.71,-167.4 354.69,-160.48 352.12,-166.99"/>
</g>
<!-- Node5 -->
<g id="node5" class="node">
<title>Node5</title>
<g id="a_node5"><a xlink:href="../../d5/dd0/edgebased__gid__io_8h.html" target="_top" xlink:title=" ">
<polygon fill="none" stroke="black" points="310.5,-89.5 310.5,-130.5 486.5,-130.5 486.5,-89.5 310.5,-89.5"/>
<text text-anchor="start" x="318.5" y="-118.5" font-family="Helvetica,sans-Serif" font-size="10.00">/github/workspace/applications</text>
<text text-anchor="start" x="318.5" y="-107.5" font-family="Helvetica,sans-Serif" font-size="10.00">/incompressible_fluid_application</text>
<text text-anchor="middle" x="398.5" y="-96.5" font-family="Helvetica,sans-Serif" font-size="10.00">/custom_utilities/edgebased_gid_io.h</text>
</a>
</g>
</g>
<!-- Node2&#45;&gt;Node5 -->
<g id="edge6" class="edge">
<title>Node2&#45;&gt;Node5</title>
<path fill="none" stroke="midnightblue" d="M398.5,-156.98C398.5,-148.35 398.5,-138.76 398.5,-130.59"/>
<polygon fill="midnightblue" stroke="midnightblue" points="395,-157.23 398.5,-167.23 402,-157.23 395,-157.23"/>
</g>
<!-- Node7 -->
<g id="node7" class="node">
<title>Node7</title>
<g id="a_node7"><a xlink:href="../../d5/d6b/_meshing_application_2custom__io_2pfem__gid__io_8h.html" target="_top" xlink:title=" ">
<polygon fill="none" stroke="black" points="505,-89.5 505,-130.5 656,-130.5 656,-89.5 505,-89.5"/>
<text text-anchor="start" x="513" y="-118.5" font-family="Helvetica,sans-Serif" font-size="10.00">/github/workspace/applications</text>
<text text-anchor="start" x="513" y="-107.5" font-family="Helvetica,sans-Serif" font-size="10.00">/MeshingApplication/custom</text>
<text text-anchor="middle" x="580.5" y="-96.5" font-family="Helvetica,sans-Serif" font-size="10.00">_io/pfem_gid_io.h</text>
</a>
</g>
</g>
<!-- Node2&#45;&gt;Node7 -->
<g id="edge8" class="edge">
<title>Node2&#45;&gt;Node7</title>
<path fill="none" stroke="midnightblue" d="M444.54,-163.67C470.61,-153.57 503.27,-140.92 530.04,-130.55"/>
<polygon fill="midnightblue" stroke="midnightblue" points="442.95,-160.53 434.89,-167.4 445.48,-167.05 442.95,-160.53"/>
</g>
<!-- Node9 -->
<g id="node9" class="node">
<title>Node9</title>
<g id="a_node9"><a xlink:href="../../de/dc3/custom__gid__io_8h.html" target="_top" xlink:title=" ">
<polygon fill="none" stroke="black" points="691,-89.5 691,-130.5 842,-130.5 842,-89.5 691,-89.5"/>
<text text-anchor="start" x="699" y="-118.5" font-family="Helvetica,sans-Serif" font-size="10.00">/github/workspace/applications</text>
<text text-anchor="start" x="699" y="-107.5" font-family="Helvetica,sans-Serif" font-size="10.00">/structural_application/custom</text>
<text text-anchor="middle" x="766.5" y="-96.5" font-family="Helvetica,sans-Serif" font-size="10.00">_utilities/custom_gid_io.h</text>
</a>
</g>
</g>
<!-- Node2&#45;&gt;Node9 -->
<g id="edge10" class="edge">
<title>Node2&#45;&gt;Node9</title>
<path fill="none" stroke="midnightblue" d="M471.74,-167.72C525.18,-157.63 599.35,-143.57 664.5,-131 673,-129.36 681.91,-127.63 690.76,-125.9"/>
<polygon fill="midnightblue" stroke="midnightblue" points="470.85,-164.32 461.67,-169.62 472.15,-171.2 470.85,-164.32"/>
</g>
<!-- Node11 -->
<g id="node11" class="node">
<title>Node11</title>
<g id="a_node11"><a xlink:href="../../df/d3e/_u_l_fapplication_2custom__utilities_2pfem__gid__io_8h.html" target="_top" xlink:title=" ">
<polygon fill="none" stroke="black" points="876,-89.5 876,-130.5 1033,-130.5 1033,-89.5 876,-89.5"/>
<text text-anchor="start" x="884" y="-118.5" font-family="Helvetica,sans-Serif" font-size="10.00">/github/workspace/applications</text>
<text text-anchor="start" x="884" y="-107.5" font-family="Helvetica,sans-Serif" font-size="10.00">/ULFapplication/custom_utilities</text>
<text text-anchor="middle" x="954.5" y="-96.5" font-family="Helvetica,sans-Serif" font-size="10.00">/pfem_gid_io.h</text>
</a>
</g>
</g>
<!-- Node2&#45;&gt;Node11 -->
<g id="edge12" class="edge">
<title>Node2&#45;&gt;Node11</title>
<path fill="none" stroke="midnightblue" d="M471.81,-175.16C561.59,-166.98 718.18,-151.34 851.5,-131 859.42,-129.79 867.67,-128.41 875.88,-126.94"/>
<polygon fill="midnightblue" stroke="midnightblue" points="471.38,-171.69 461.74,-176.08 472.01,-178.66 471.38,-171.69"/>
</g>
<!-- Node3&#45;&gt;Node2 -->
<g id="edge3" class="edge">
<title>Node3&#45;&gt;Node2</title>
<path fill="none" stroke="midnightblue" d="M139,-129.2C141.53,-129.82 144.04,-130.43 146.5,-131 210.55,-145.95 284.16,-159.9 335.3,-169.34"/>
<polygon fill="midnightblue" stroke="midnightblue" points="139.69,-125.77 129.14,-126.73 137.99,-132.56 139.69,-125.77"/>
</g>
<!-- Node6 -->
<g id="node6" class="node">
<title>Node6</title>
<g id="a_node6"><a xlink:href="../../d9/d73/incompressible__fluid__application_2custom__python_2add__custom__io__to__python_8cpp.html" target="_top" xlink:title=" ">
<polygon fill="none" stroke="black" points="293.5,-0.5 293.5,-52.5 461.5,-52.5 461.5,-0.5 293.5,-0.5"/>
<text text-anchor="start" x="301.5" y="-40.5" font-family="Helvetica,sans-Serif" font-size="10.00">/github/workspace/applications</text>
<text text-anchor="start" x="301.5" y="-29.5" font-family="Helvetica,sans-Serif" font-size="10.00">/incompressible_fluid_application</text>
<text text-anchor="start" x="301.5" y="-18.5" font-family="Helvetica,sans-Serif" font-size="10.00">/custom_python/add_custom_io_to</text>
<text text-anchor="middle" x="377.5" y="-7.5" font-family="Helvetica,sans-Serif" font-size="10.00">_python.cpp</text>
</a>
</g>
</g>
<!-- Node5&#45;&gt;Node6 -->
<g id="edge7" class="edge">
<title>Node5&#45;&gt;Node6</title>
<path fill="none" stroke="midnightblue" d="M390.88,-79.41C388.61,-70.62 386.15,-61.08 383.97,-52.61"/>
<polygon fill="midnightblue" stroke="midnightblue" points="387.53,-80.46 393.42,-89.27 394.31,-78.71 387.53,-80.46"/>
</g>
<!-- Node8 -->
<g id="node8" class="node">
<title>Node8</title>
<g id="a_node8"><a xlink:href="../../d9/de5/_meshing_application_2custom__python_2add__custom__io__to__python_8cpp.html" target="_top" xlink:title=" ">
<polygon fill="none" stroke="black" points="479,-6 479,-47 664,-47 664,-6 479,-6"/>
<text text-anchor="start" x="487" y="-35" font-family="Helvetica,sans-Serif" font-size="10.00">/github/workspace/applications</text>
<text text-anchor="start" x="487" y="-24" font-family="Helvetica,sans-Serif" font-size="10.00">/MeshingApplication/custom</text>
<text text-anchor="middle" x="571.5" y="-13" font-family="Helvetica,sans-Serif" font-size="10.00">_python/add_custom_io_to_python.cpp</text>
</a>
</g>
</g>
<!-- Node7&#45;&gt;Node8 -->
<g id="edge9" class="edge">
<title>Node7&#45;&gt;Node8</title>
<path fill="none" stroke="midnightblue" d="M577.19,-79.06C576.01,-68.38 574.72,-56.63 573.66,-47.05"/>
<polygon fill="midnightblue" stroke="midnightblue" points="573.74,-79.72 578.32,-89.27 580.7,-78.95 573.74,-79.72"/>
</g>
<!-- Node10 -->
<g id="node10" class="node">
<title>Node10</title>
<g id="a_node10"><a xlink:href="../../d7/d52/structural__application_2custom__python_2add__custom__io__to__python_8cpp.html" target="_top" xlink:title=" ">
<polygon fill="none" stroke="black" points="682,-6 682,-47 867,-47 867,-6 682,-6"/>
<text text-anchor="start" x="690" y="-35" font-family="Helvetica,sans-Serif" font-size="10.00">/github/workspace/applications</text>
<text text-anchor="start" x="690" y="-24" font-family="Helvetica,sans-Serif" font-size="10.00">/structural_application/custom</text>
<text text-anchor="middle" x="774.5" y="-13" font-family="Helvetica,sans-Serif" font-size="10.00">_python/add_custom_io_to_python.cpp</text>
</a>
</g>
</g>
<!-- Node9&#45;&gt;Node10 -->
<g id="edge11" class="edge">
<title>Node9&#45;&gt;Node10</title>
<path fill="none" stroke="midnightblue" d="M769.44,-79.06C770.49,-68.38 771.64,-56.63 772.58,-47.05"/>
<polygon fill="midnightblue" stroke="midnightblue" points="765.93,-78.98 768.44,-89.27 772.9,-79.66 765.93,-78.98"/>
</g>
<!-- Node12 -->
<g id="node12" class="node">
<title>Node12</title>
<g id="a_node12"><a xlink:href="../../d6/db3/_u_l_fapplication_2custom__python_2add__custom__io__to__python_8cpp.html" target="_top" xlink:title=" ">
<polygon fill="none" stroke="black" points="885,-6 885,-47 1040,-47 1040,-6 885,-6"/>
<text text-anchor="start" x="893" y="-35" font-family="Helvetica,sans-Serif" font-size="10.00">/github/workspace/applications</text>
<text text-anchor="start" x="893" y="-24" font-family="Helvetica,sans-Serif" font-size="10.00">/ULFapplication/custom_python</text>
<text text-anchor="middle" x="962.5" y="-13" font-family="Helvetica,sans-Serif" font-size="10.00">/add_custom_io_to_python.cpp</text>
</a>
</g>
</g>
<!-- Node11&#45;&gt;Node12 -->
<g id="edge13" class="edge">
<title>Node11&#45;&gt;Node12</title>
<path fill="none" stroke="midnightblue" d="M957.44,-79.06C958.49,-68.38 959.64,-56.63 960.58,-47.05"/>
<polygon fill="midnightblue" stroke="midnightblue" points="953.93,-78.98 956.44,-89.27 960.9,-79.66 953.93,-78.98"/>
</g>
</g>
</svg>
        <g id="navigator" transform="translate(0 0)" fill="#404254">
                <rect fill="#f2f5e9" fill-opacity="0.5" stroke="#606060" stroke-width=".5" x="0" y="0" width="60" height="60"/>
                <use id="zoomplus" xlink:href="#zoomPlus" x="17" y="9" onmousedown="handleZoom(evt,'in')"/>
                <use id="zoomminus" xlink:href="#zoomMin" x="42" y="9" onmousedown="handleZoom(evt,'out')"/>
                <use id="reset" xlink:href="#resetDef" x="30" y="36" onmousedown="handleReset()"/>
                <g id="arrowUp" xlink:href="#dirArrow" transform="translate(30 24)" onmousedown="handlePan(0,-1)">
                  <use xlink:href="#rim" fill="#404040">
                        <set attributeName="fill" to="#808080" begin="arrowUp.mouseover" end="arrowUp.mouseout"/>
                  </use>
                  <path fill="none" stroke="white" stroke-width="1.5" d="M0,-3.0v7 M-2.5,-0.5L0,-3.0L2.5,-0.5"/>
                </g>
                <g id="arrowRight" xlink:href="#dirArrow" transform="rotate(90) translate(36 -43)" onmousedown="handlePan(1,0)">
                  <use xlink:href="#rim" fill="#404040">
                        <set attributeName="fill" to="#808080" begin="arrowRight.mouseover" end="arrowRight.mouseout"/>
                  </use>
                  <path fill="none" stroke="white" stroke-width="1.5" d="M0,-3.0v7 M-2.5,-0.5L0,-3.0L2.5,-0.5"/>
                </g>
                <g id="arrowDown" xlink:href="#dirArrow" transform="rotate(180) translate(-30 -48)" onmousedown="handlePan(0,1)">
                  <use xlink:href="#rim" fill="#404040">
                        <set attributeName="fill" to="#808080" begin="arrowDown.mouseover" end="arrowDown.mouseout"/>
                  </use>
                  <path fill="none" stroke="white" stroke-width="1.5" d="M0,-3.0v7 M-2.5,-0.5L0,-3.0L2.5,-0.5"/>
                </g>
                <g id="arrowLeft" xlink:href="#dirArrow" transform="rotate(270) translate(-36 17)" onmousedown="handlePan(-1,0)">
                  <use xlink:href="#rim" fill="#404040">
                        <set attributeName="fill" to="#808080" begin="arrowLeft.mouseover" end="arrowLeft.mouseout"/>
                  </use>
                  <path fill="none" stroke="white" stroke-width="1.5" d="M0,-3.0v7 M-2.5,-0.5L0,-3.0L2.5,-0.5"/>
                </g>
        </g>
        <svg viewBox="0 0 15 15" width="100%" height="30px" preserveAspectRatio="xMaxYMin meet">
         <g id="arrow_out" transform="scale(0.3 0.3)">
          <a xlink:href="gid__mesh__container_8h__dep__incl_org.svg" target="_base">
           <rect id="button" ry="5" rx="5" y="6" x="6" height="38" width="38"
                fill="#f2f5e9" fill-opacity="0.5" stroke="#606060" stroke-width="1.0"/>
           <path id="arrow"
             d="M 11.500037,31.436501 C 11.940474,20.09759 22.043105,11.32322 32.158766,21.979434 L 37.068811,17.246167 C 37.068811,17.246167 37.088388,32 37.088388,32 L 22.160133,31.978069 C 22.160133,31.978069 26.997745,27.140456 26.997745,27.140456 C 18.528582,18.264221 13.291696,25.230495 11.500037,31.436501 z"
             style="fill:#404040;"/>
          </a>
         </g>
        </svg>
</svg>
