<?xml version="1.0" encoding="UTF-8" standalone="no"?>
<!DOCTYPE svg PUBLIC "-//W3C//DTD SVG 1.1//EN"
 "http://www.w3.org/Graphics/SVG/1.1/DTD/svg11.dtd">
<!-- Generated by graphviz version 2.48.0 (20210719.0153)
 -->
<!-- Title: boost::numeric::ublas::scalar_divides_assign&lt; T1, T2 &gt; Pages: 1 -->
<svg width="125pt" height="215pt"
 viewBox="0.00 0.00 125.00 215.00" xmlns="http://www.w3.org/2000/svg" xmlns:xlink="http://www.w3.org/1999/xlink">
<g id="graph0" class="graph" transform="scale(1 1) rotate(0) translate(4 211)">
<title>boost::numeric::ublas::scalar_divides_assign&lt; T1, T2 &gt;</title>
<!-- Node1 -->
<g id="node1" class="node">
<title>Node1</title>
<g id="a_node1"><a xlink:title=" ">
<polygon fill="#bfbfbf" stroke="black" points="0,-0.5 0,-90.5 117,-90.5 117,-0.5 0,-0.5"/>
<text text-anchor="start" x="8" y="-78.5" font-family="Helvetica,sans-Serif" font-size="10.00">boost::numeric::ublas</text>
<text text-anchor="start" x="8" y="-67.5" font-family="Helvetica,sans-Serif" font-size="10.00">::scalar_divides_assign</text>
<text text-anchor="middle" x="58.5" y="-56.5" font-family="Helvetica,sans-Serif" font-size="10.00">&lt; T1, T2 &gt;</text>
<polyline fill="none" stroke="black" points="0,-49.5 117,-49.5 "/>
<text text-anchor="start" x="8" y="-37.5" font-family="Helvetica,sans-Serif" font-size="10.00">+ computed</text>
<polyline fill="none" stroke="black" points="0,-30.5 117,-30.5 "/>
<text text-anchor="start" x="8" y="-18.5" font-family="Helvetica,sans-Serif" font-size="10.00">+ apply()</text>
<text text-anchor="start" x="8" y="-7.5" font-family="Helvetica,sans-Serif" font-size="10.00">+ apply()</text>
</a>
</g>
</g>
<!-- Node2 -->
<g id="node2" class="node">
<title>Node2</title>
<g id="a_node2"><a xlink:href="../../d7/d56/structboost_1_1numeric_1_1ublas_1_1scalar__binary__assign__functor.html" target="_top" xlink:title=" ">
<polygon fill="none" stroke="black" points="2.5,-127.5 2.5,-206.5 114.5,-206.5 114.5,-127.5 2.5,-127.5"/>
<text text-anchor="start" x="10.5" y="-194.5" font-family="Helvetica,sans-Serif" font-size="10.00">boost::numeric::ublas</text>
<text text-anchor="start" x="10.5" y="-183.5" font-family="Helvetica,sans-Serif" font-size="10.00">::scalar_binary_assign</text>
<text text-anchor="middle" x="58.5" y="-172.5" font-family="Helvetica,sans-Serif" font-size="10.00">_functor&lt; T1, T2 &gt;</text>
<polyline fill="none" stroke="black" points="2.5,-165.5 114.5,-165.5 "/>
<text text-anchor="middle" x="58.5" y="-153.5" font-family="Helvetica,sans-Serif" font-size="10.00"> </text>
<polyline fill="none" stroke="black" points="2.5,-146.5 114.5,-146.5 "/>
<text text-anchor="middle" x="58.5" y="-134.5" font-family="Helvetica,sans-Serif" font-size="10.00"> </text>
</a>
</g>
</g>
<!-- Node2&#45;&gt;Node1 -->
<g id="edge1" class="edge">
<title>Node2&#45;&gt;Node1</title>
<path fill="none" stroke="midnightblue" d="M51.85,-117.19C51.69,-108.49 51.72,-99.48 51.95,-90.91"/>
<polygon fill="none" stroke="midnightblue" points="48.35,-117.3 52.13,-127.2 55.35,-117.11 48.35,-117.3"/>
</g>
<!-- Node2&#45;&gt;Node1 -->
<g id="edge2" class="edge">
<title>Node2&#45;&gt;Node1</title>
<path fill="none" stroke="midnightblue" d="M65.15,-117.19C65.31,-108.49 65.28,-99.48 65.05,-90.91"/>
<polygon fill="none" stroke="midnightblue" points="61.65,-117.11 64.87,-127.2 68.65,-117.3 61.65,-117.11"/>
</g>
</g>
</svg>
