<?xml version="1.0" encoding="UTF-8" standalone="no"?>
<!DOCTYPE svg PUBLIC "-//W3C//DTD SVG 1.1//EN"
 "http://www.w3.org/Graphics/SVG/1.1/DTD/svg11.dtd">
<!-- Generated by graphviz version 2.48.0 (20210719.0153)
 -->
<!-- Title: /github/workspace/kratos/geometries/line_3d_3.h Pages: 1 -->
<!--zoomable 262 -->
<svg id="main" version="1.1" xmlns="http://www.w3.org/2000/svg" xmlns:xlink="http://www.w3.org/1999/xlink" xml:space="preserve" onload="init(evt)">
<style type="text/css"><![CDATA[
.edge:hover path { stroke: red; }
.edge:hover polygon { stroke: red; fill: red; }
]]></style>
<script type="text/javascript"><![CDATA[
var edges = document.getElementsByTagName('g');
if (edges && edges.length) {
  for (var i=0;i<edges.length;i++) {
    if (edges[i].id.substr(0,4)=='edge') {
      edges[i].setAttribute('class','edge');
    }
  }
}
]]></script>
        <defs>
                <circle id="rim" cx="0" cy="0" r="7"/>
                <circle id="rim2" cx="0" cy="0" r="3.5"/>
                <g id="zoomPlus">
                        <use xlink:href="#rim" fill="#404040">
                                <set attributeName="fill" to="#808080" begin="zoomplus.mouseover" end="zoomplus.mouseout"/>
                        </use>
                        <path d="M-4,0h8M0,-4v8" fill="none" stroke="white" stroke-width="1.5" pointer-events="none"/>
                </g>
                <g id="zoomMin">
                        <use xlink:href="#rim" fill="#404040">
                                <set attributeName="fill" to="#808080" begin="zoomminus.mouseover" end="zoomminus.mouseout"/>
                        </use>
                        <path d="M-4,0h8" fill="none" stroke="white" stroke-width="1.5" pointer-events="none"/>
                </g>
                <g id="dirArrow">
                        <path fill="none" stroke="white" stroke-width="1.5" d="M0,-3.0v7 M-2.5,-0.5L0,-3.0L2.5,-0.5"/>
                </g>
               <g id="resetDef">
                       <use xlink:href="#rim2" fill="#404040">
                               <set attributeName="fill" to="#808080" begin="reset.mouseover" end="reset.mouseout"/>
                       </use>
               </g>
        </defs>

<script type="text/javascript">
var viewWidth = 709;
var viewHeight = 262;
var sectionId = 'dynsection-1';
</script>
<script xlink:href="../../svgpan.js"/>
<svg id="graph" class="graph">
<g id="viewport">
<title>/github/workspace/kratos/geometries/line_3d_3.h</title>
<!-- Node1 -->
<g id="node1" class="node">
<title>Node1</title>
<g id="a_node1"><a xlink:title=" ">
<polygon fill="#bfbfbf" stroke="black" points="226.42,-223.5 226.42,-253.5 352.42,-253.5 352.42,-223.5 226.42,-223.5"/>
<text text-anchor="start" x="234.42" y="-241.5" font-family="Helvetica,sans-Serif" font-size="10.00">/github/workspace/kratos</text>
<text text-anchor="middle" x="289.42" y="-230.5" font-family="Helvetica,sans-Serif" font-size="10.00">/geometries/line_3d_3.h</text>
</a>
</g>
</g>
<!-- Node2 -->
<g id="node2" class="node">
<title>Node2</title>
<g id="a_node2"><a xlink:href="../../d7/db8/hexahedra__3d__20_8h.html" target="_top" xlink:title=" ">
<polygon fill="none" stroke="black" points="23.42,-84 23.42,-114 177.42,-114 177.42,-84 23.42,-84"/>
<text text-anchor="start" x="31.42" y="-102" font-family="Helvetica,sans-Serif" font-size="10.00">/github/workspace/kratos</text>
<text text-anchor="middle" x="100.42" y="-91" font-family="Helvetica,sans-Serif" font-size="10.00">/geometries/hexahedra_3d_20.h</text>
</a>
</g>
</g>
<!-- Node1&#45;&gt;Node2 -->
<g id="edge1" class="edge">
<title>Node1&#45;&gt;Node2</title>
<path fill="none" stroke="midnightblue" d="M216.31,-232.55C182.41,-226.5 144.22,-213.69 119.42,-187 100.8,-166.95 98.85,-133.04 99.42,-114.01"/>
<polygon fill="midnightblue" stroke="midnightblue" points="215.78,-236.01 226.21,-234.15 216.9,-229.1 215.78,-236.01"/>
</g>
<!-- Node3 -->
<g id="node3" class="node">
<title>Node3</title>
<g id="a_node3"><a xlink:href="../../dc/d93/structural__application_8cpp.html" target="_top" xlink:title=" ">
<polygon fill="none" stroke="black" points="222.92,-0.5 222.92,-41.5 377.92,-41.5 377.92,-0.5 222.92,-0.5"/>
<text text-anchor="start" x="230.92" y="-29.5" font-family="Helvetica,sans-Serif" font-size="10.00">/github/workspace/applications</text>
<text text-anchor="start" x="230.92" y="-18.5" font-family="Helvetica,sans-Serif" font-size="10.00">/structural_application/structural</text>
<text text-anchor="middle" x="300.42" y="-7.5" font-family="Helvetica,sans-Serif" font-size="10.00">_application.cpp</text>
</a>
</g>
</g>
<!-- Node1&#45;&gt;Node3 -->
<g id="edge17" class="edge">
<title>Node1&#45;&gt;Node3</title>
<path fill="none" stroke="midnightblue" d="M216.46,-224.39C115.08,-203.04 -49.14,-155.22 14.42,-78 40.39,-46.46 147.42,-32.43 222.9,-26.36"/>
<polygon fill="midnightblue" stroke="midnightblue" points="215.86,-227.84 226.37,-226.43 217.28,-220.98 215.86,-227.84"/>
</g>
<!-- Node4 -->
<g id="node4" class="node">
<title>Node4</title>
<g id="a_node4"><a xlink:href="../../df/da9/hexahedra__3d__27_8h.html" target="_top" xlink:title=" ">
<polygon fill="none" stroke="black" points="529.42,-84 529.42,-114 683.42,-114 683.42,-84 529.42,-84"/>
<text text-anchor="start" x="537.42" y="-102" font-family="Helvetica,sans-Serif" font-size="10.00">/github/workspace/kratos</text>
<text text-anchor="middle" x="606.42" y="-91" font-family="Helvetica,sans-Serif" font-size="10.00">/geometries/hexahedra_3d_27.h</text>
</a>
</g>
</g>
<!-- Node1&#45;&gt;Node4 -->
<g id="edge3" class="edge">
<title>Node1&#45;&gt;Node4</title>
<path fill="none" stroke="midnightblue" d="M352.87,-220.66C382.68,-211.94 418.41,-200.33 449.42,-187 499.53,-165.47 554.5,-132.72 584.27,-114.15"/>
<polygon fill="midnightblue" stroke="midnightblue" points="351.64,-217.37 343,-223.5 353.58,-224.09 351.64,-217.37"/>
</g>
<!-- Node5 -->
<g id="node5" class="node">
<title>Node5</title>
<g id="a_node5"><a xlink:href="../../d3/d24/quadrilateral__3d__8_8h.html" target="_top" xlink:title=" ">
<polygon fill="none" stroke="black" points="128.92,-156.5 128.92,-186.5 285.92,-186.5 285.92,-156.5 128.92,-156.5"/>
<text text-anchor="start" x="136.92" y="-174.5" font-family="Helvetica,sans-Serif" font-size="10.00">/github/workspace/kratos</text>
<text text-anchor="middle" x="207.42" y="-163.5" font-family="Helvetica,sans-Serif" font-size="10.00">/geometries/quadrilateral_3d_8.h</text>
</a>
</g>
</g>
<!-- Node1&#45;&gt;Node5 -->
<g id="edge5" class="edge">
<title>Node1&#45;&gt;Node5</title>
<path fill="none" stroke="midnightblue" d="M263.77,-217.17C251.24,-207.23 236.46,-195.51 225.18,-186.58"/>
<polygon fill="midnightblue" stroke="midnightblue" points="261.62,-219.93 271.63,-223.4 265.97,-214.44 261.62,-219.93"/>
</g>
<!-- Node7 -->
<g id="node7" class="node">
<title>Node7</title>
<g id="a_node7"><a xlink:href="../../db/d09/quadrilateral__3d__9_8h.html" target="_top" xlink:title=" ">
<polygon fill="none" stroke="black" points="527.92,-156.5 527.92,-186.5 684.92,-186.5 684.92,-156.5 527.92,-156.5"/>
<text text-anchor="start" x="535.92" y="-174.5" font-family="Helvetica,sans-Serif" font-size="10.00">/github/workspace/kratos</text>
<text text-anchor="middle" x="606.42" y="-163.5" font-family="Helvetica,sans-Serif" font-size="10.00">/geometries/quadrilateral_3d_9.h</text>
</a>
</g>
</g>
<!-- Node1&#45;&gt;Node7 -->
<g id="edge10" class="edge">
<title>Node1&#45;&gt;Node7</title>
<path fill="none" stroke="midnightblue" d="M362.42,-222.53C415.29,-211.69 486.27,-197.14 538.05,-186.52"/>
<polygon fill="midnightblue" stroke="midnightblue" points="361.53,-219.14 352.43,-224.58 362.93,-226 361.53,-219.14"/>
</g>
<!-- Node8 -->
<g id="node8" class="node">
<title>Node8</title>
<g id="a_node8"><a xlink:href="../../dc/da3/triangle__3d__6_8h.html" target="_top" xlink:title=" ">
<polygon fill="none" stroke="black" points="304.42,-156.5 304.42,-186.5 440.42,-186.5 440.42,-156.5 304.42,-156.5"/>
<text text-anchor="start" x="312.42" y="-174.5" font-family="Helvetica,sans-Serif" font-size="10.00">/github/workspace/kratos</text>
<text text-anchor="middle" x="372.42" y="-163.5" font-family="Helvetica,sans-Serif" font-size="10.00">/geometries/triangle_3d_6.h</text>
</a>
</g>
</g>
<!-- Node1&#45;&gt;Node8 -->
<g id="edge13" class="edge">
<title>Node1&#45;&gt;Node8</title>
<path fill="none" stroke="midnightblue" d="M315.39,-217.17C328.08,-207.23 343.04,-195.51 354.45,-186.58"/>
<polygon fill="midnightblue" stroke="midnightblue" points="313.15,-214.47 307.43,-223.4 317.47,-219.99 313.15,-214.47"/>
</g>
<!-- Node2&#45;&gt;Node3 -->
<g id="edge2" class="edge">
<title>Node2&#45;&gt;Node3</title>
<path fill="none" stroke="midnightblue" d="M147.11,-80.26C177.58,-68.68 217.36,-53.56 248.77,-41.63"/>
<polygon fill="midnightblue" stroke="midnightblue" points="145.68,-77.06 137.57,-83.88 148.17,-83.6 145.68,-77.06"/>
</g>
<!-- Node4&#45;&gt;Node3 -->
<g id="edge4" class="edge">
<title>Node4&#45;&gt;Node3</title>
<path fill="none" stroke="midnightblue" d="M540.05,-81.52C492.46,-69.7 428.19,-53.73 378.19,-41.32"/>
<polygon fill="midnightblue" stroke="midnightblue" points="539.39,-84.96 549.94,-83.97 541.08,-78.16 539.39,-84.96"/>
</g>
<!-- Node5&#45;&gt;Node2 -->
<g id="edge6" class="edge">
<title>Node5&#45;&gt;Node2</title>
<path fill="none" stroke="midnightblue" d="M177.23,-150.6C159.55,-138.96 137.67,-124.54 121.78,-114.07"/>
<polygon fill="midnightblue" stroke="midnightblue" points="175.75,-153.82 186.03,-156.4 179.6,-147.98 175.75,-153.82"/>
</g>
<!-- Node5&#45;&gt;Node3 -->
<g id="edge9" class="edge">
<title>Node5&#45;&gt;Node3</title>
<path fill="none" stroke="midnightblue" d="M207.1,-146.14C207.91,-126.39 211.57,-98.56 224.42,-78 233.72,-63.13 248.52,-50.91 262.61,-41.72"/>
<polygon fill="midnightblue" stroke="midnightblue" points="203.6,-146.12 206.9,-156.18 210.6,-146.26 203.6,-146.12"/>
</g>
<!-- Node6 -->
<g id="node6" class="node">
<title>Node6</title>
<g id="a_node6"><a xlink:href="../../d7/dfd/prism__3d__15_8h.html" target="_top" xlink:title=" ">
<polygon fill="none" stroke="black" points="233.42,-84 233.42,-114 367.42,-114 367.42,-84 233.42,-84"/>
<text text-anchor="start" x="241.42" y="-102" font-family="Helvetica,sans-Serif" font-size="10.00">/github/workspace/kratos</text>
<text text-anchor="middle" x="300.42" y="-91" font-family="Helvetica,sans-Serif" font-size="10.00">/geometries/prism_3d_15.h</text>
</a>
</g>
</g>
<!-- Node5&#45;&gt;Node6 -->
<g id="edge7" class="edge">
<title>Node5&#45;&gt;Node6</title>
<path fill="none" stroke="midnightblue" d="M234.32,-150.11C249.6,-138.53 268.33,-124.33 281.95,-114"/>
<polygon fill="midnightblue" stroke="midnightblue" points="232.1,-147.4 226.24,-156.23 236.33,-152.98 232.1,-147.4"/>
</g>
<!-- Node6&#45;&gt;Node3 -->
<g id="edge8" class="edge">
<title>Node6&#45;&gt;Node3</title>
<path fill="none" stroke="midnightblue" d="M300.42,-73.66C300.42,-63.33 300.42,-51.44 300.42,-41.68"/>
<polygon fill="midnightblue" stroke="midnightblue" points="296.92,-73.7 300.42,-83.7 303.92,-73.71 296.92,-73.7"/>
</g>
<!-- Node7&#45;&gt;Node3 -->
<g id="edge12" class="edge">
<title>Node7&#45;&gt;Node3</title>
<path fill="none" stroke="midnightblue" d="M657.77,-151.66C671.45,-144.02 684.59,-133.68 692.42,-120 701.7,-103.8 704.65,-92.1 692.42,-78 652.56,-32.04 480.43,-22.86 377.99,-21.58"/>
<polygon fill="midnightblue" stroke="midnightblue" points="656.04,-148.61 648.75,-156.3 659.24,-154.84 656.04,-148.61"/>
</g>
<!-- Node7&#45;&gt;Node4 -->
<g id="edge11" class="edge">
<title>Node7&#45;&gt;Node4</title>
<path fill="none" stroke="midnightblue" d="M606.42,-146.23C606.42,-135.57 606.42,-123.41 606.42,-114.25"/>
<polygon fill="midnightblue" stroke="midnightblue" points="602.92,-146.23 606.42,-156.23 609.92,-146.23 602.92,-146.23"/>
</g>
<!-- Node8&#45;&gt;Node6 -->
<g id="edge14" class="edge">
<title>Node8&#45;&gt;Node6</title>
<path fill="none" stroke="midnightblue" d="M350.66,-149.19C339.1,-137.87 325.22,-124.27 314.97,-114.25"/>
<polygon fill="midnightblue" stroke="midnightblue" points="348.26,-151.74 357.85,-156.23 353.16,-146.74 348.26,-151.74"/>
</g>
<!-- Node9 -->
<g id="node9" class="node">
<title>Node9</title>
<g id="a_node9"><a xlink:href="../../de/dca/tetrahedra__3d__10_8h.html" target="_top" xlink:title=" ">
<polygon fill="none" stroke="black" points="385.42,-78.5 385.42,-119.5 511.42,-119.5 511.42,-78.5 385.42,-78.5"/>
<text text-anchor="start" x="393.42" y="-107.5" font-family="Helvetica,sans-Serif" font-size="10.00">/github/workspace/kratos</text>
<text text-anchor="start" x="393.42" y="-96.5" font-family="Helvetica,sans-Serif" font-size="10.00">/geometries/tetrahedra</text>
<text text-anchor="middle" x="448.42" y="-85.5" font-family="Helvetica,sans-Serif" font-size="10.00">_3d_10.h</text>
</a>
</g>
</g>
<!-- Node8&#45;&gt;Node9 -->
<g id="edge15" class="edge">
<title>Node8&#45;&gt;Node9</title>
<path fill="none" stroke="midnightblue" d="M395.19,-149.38C405.38,-139.93 417.32,-128.85 427.31,-119.59"/>
<polygon fill="midnightblue" stroke="midnightblue" points="392.76,-146.87 387.8,-156.23 397.52,-152 392.76,-146.87"/>
</g>
<!-- Node9&#45;&gt;Node3 -->
<g id="edge16" class="edge">
<title>Node9&#45;&gt;Node3</title>
<path fill="none" stroke="midnightblue" d="M401.23,-73.77C380.95,-63.35 357.55,-51.34 338.41,-41.51"/>
<polygon fill="midnightblue" stroke="midnightblue" points="399.82,-76.97 410.31,-78.43 403.01,-70.75 399.82,-76.97"/>
</g>
</g>
</svg>
        <g id="navigator" transform="translate(0 0)" fill="#404254">
                <rect fill="#f2f5e9" fill-opacity="0.5" stroke="#606060" stroke-width=".5" x="0" y="0" width="60" height="60"/>
                <use id="zoomplus" xlink:href="#zoomPlus" x="17" y="9" onmousedown="handleZoom(evt,'in')"/>
                <use id="zoomminus" xlink:href="#zoomMin" x="42" y="9" onmousedown="handleZoom(evt,'out')"/>
                <use id="reset" xlink:href="#resetDef" x="30" y="36" onmousedown="handleReset()"/>
                <g id="arrowUp" xlink:href="#dirArrow" transform="translate(30 24)" onmousedown="handlePan(0,-1)">
                  <use xlink:href="#rim" fill="#404040">
                        <set attributeName="fill" to="#808080" begin="arrowUp.mouseover" end="arrowUp.mouseout"/>
                  </use>
                  <path fill="none" stroke="white" stroke-width="1.5" d="M0,-3.0v7 M-2.5,-0.5L0,-3.0L2.5,-0.5"/>
                </g>
                <g id="arrowRight" xlink:href="#dirArrow" transform="rotate(90) translate(36 -43)" onmousedown="handlePan(1,0)">
                  <use xlink:href="#rim" fill="#404040">
                        <set attributeName="fill" to="#808080" begin="arrowRight.mouseover" end="arrowRight.mouseout"/>
                  </use>
                  <path fill="none" stroke="white" stroke-width="1.5" d="M0,-3.0v7 M-2.5,-0.5L0,-3.0L2.5,-0.5"/>
                </g>
                <g id="arrowDown" xlink:href="#dirArrow" transform="rotate(180) translate(-30 -48)" onmousedown="handlePan(0,1)">
                  <use xlink:href="#rim" fill="#404040">
                        <set attributeName="fill" to="#808080" begin="arrowDown.mouseover" end="arrowDown.mouseout"/>
                  </use>
                  <path fill="none" stroke="white" stroke-width="1.5" d="M0,-3.0v7 M-2.5,-0.5L0,-3.0L2.5,-0.5"/>
                </g>
                <g id="arrowLeft" xlink:href="#dirArrow" transform="rotate(270) translate(-36 17)" onmousedown="handlePan(-1,0)">
                  <use xlink:href="#rim" fill="#404040">
                        <set attributeName="fill" to="#808080" begin="arrowLeft.mouseover" end="arrowLeft.mouseout"/>
                  </use>
                  <path fill="none" stroke="white" stroke-width="1.5" d="M0,-3.0v7 M-2.5,-0.5L0,-3.0L2.5,-0.5"/>
                </g>
        </g>
        <svg viewBox="0 0 15 15" width="100%" height="30px" preserveAspectRatio="xMaxYMin meet">
         <g id="arrow_out" transform="scale(0.3 0.3)">
          <a xlink:href="line__3d__3_8h__dep__incl_org.svg" target="_base">
           <rect id="button" ry="5" rx="5" y="6" x="6" height="38" width="38"
                fill="#f2f5e9" fill-opacity="0.5" stroke="#606060" stroke-width="1.0"/>
           <path id="arrow"
             d="M 11.500037,31.436501 C 11.940474,20.09759 22.043105,11.32322 32.158766,21.979434 L 37.068811,17.246167 C 37.068811,17.246167 37.088388,32 37.088388,32 L 22.160133,31.978069 C 22.160133,31.978069 26.997745,27.140456 26.997745,27.140456 C 18.528582,18.264221 13.291696,25.230495 11.500037,31.436501 z"
             style="fill:#404040;"/>
          </a>
         </g>
        </svg>
</svg>
