<?xml version="1.0" encoding="UTF-8" standalone="no"?>
<!DOCTYPE svg PUBLIC "-//W3C//DTD SVG 1.1//EN"
 "http://www.w3.org/Graphics/SVG/1.1/DTD/svg11.dtd">
<!-- Generated by graphviz version 2.48.0 (20210719.0153)
 -->
<!-- Title: /github/workspace/applications/incompressible_fluid_application/incompressible_fluid_application.h Pages: 1 -->
<svg width="4771pt" height="654pt"
 viewBox="0.00 0.00 4770.83 654.00" xmlns="http://www.w3.org/2000/svg" xmlns:xlink="http://www.w3.org/1999/xlink">
<g id="graph0" class="graph" transform="scale(1 1) rotate(0) translate(4 650)">
<title>/github/workspace/applications/incompressible_fluid_application/incompressible_fluid_application.h</title>
<!-- Node1 -->
<g id="node1" class="node">
<title>Node1</title>
<g id="a_node1"><a xlink:title=" ">
<polygon fill="#bfbfbf" stroke="black" points="2812.32,-604.5 2812.32,-645.5 2979.32,-645.5 2979.32,-604.5 2812.32,-604.5"/>
<text text-anchor="start" x="2820.32" y="-633.5" font-family="Helvetica,sans-Serif" font-size="10.00">/github/workspace/applications</text>
<text text-anchor="start" x="2820.32" y="-622.5" font-family="Helvetica,sans-Serif" font-size="10.00">/incompressible_fluid_application</text>
<text text-anchor="middle" x="2895.82" y="-611.5" font-family="Helvetica,sans-Serif" font-size="10.00">/incompressible_fluid_application.h</text>
</a>
</g>
</g>
<!-- Node2 -->
<g id="node2" class="node">
<title>Node2</title>
<g id="a_node2"><a xlink:title=" ">
<polygon fill="none" stroke="#bfbfbf" points="2191.32,-56.5 2191.32,-75.5 2232.32,-75.5 2232.32,-56.5 2191.32,-56.5"/>
<text text-anchor="middle" x="2211.82" y="-63.5" font-family="Helvetica,sans-Serif" font-size="10.00">string</text>
</a>
</g>
</g>
<!-- Node1&#45;&gt;Node2 -->
<g id="edge1" class="edge">
<title>Node1&#45;&gt;Node2</title>
<path fill="none" stroke="midnightblue" d="M2979.35,-624.4C3148.82,-624.07 3544.82,-617.51 3872.82,-568 3995.5,-549.48 4023.57,-531.53 4143.82,-501 4239.53,-476.71 4281.8,-506.78 4358.82,-445 4405.96,-407.19 4420.82,-384.43 4420.82,-324 4420.82,-324 4420.82,-324 4420.82,-193.5 4420.82,-61.76 4266.07,-131.81 4135.82,-112 3941.24,-82.4 2474.8,-69.17 2242.72,-67.25"/>
<polygon fill="midnightblue" stroke="midnightblue" points="2242.64,-63.75 2232.61,-67.16 2242.58,-70.75 2242.64,-63.75"/>
</g>
<!-- Node3 -->
<g id="node3" class="node">
<title>Node3</title>
<g id="a_node3"><a xlink:title=" ">
<polygon fill="none" stroke="#bfbfbf" points="3326.82,-56.5 3326.82,-75.5 3380.82,-75.5 3380.82,-56.5 3326.82,-56.5"/>
<text text-anchor="middle" x="3353.82" y="-63.5" font-family="Helvetica,sans-Serif" font-size="10.00">iostream</text>
</a>
</g>
</g>
<!-- Node1&#45;&gt;Node3 -->
<g id="edge2" class="edge">
<title>Node1&#45;&gt;Node3</title>
<path fill="none" stroke="midnightblue" d="M2979.56,-622.94C3296.16,-618.68 4405.56,-601.41 4472.82,-568 4511.86,-548.61 4534.82,-535.59 4534.82,-492 4534.82,-492 4534.82,-492 4534.82,-434 4534.82,-284.15 4553.61,-203.36 4434.82,-112 4392.6,-79.53 3576.4,-69.27 3391.05,-67.35"/>
<polygon fill="midnightblue" stroke="midnightblue" points="3391.01,-63.85 3380.97,-67.25 3390.94,-70.85 3391.01,-63.85"/>
</g>
<!-- Node4 -->
<g id="node4" class="node">
<title>Node4</title>
<g id="a_node4"><a xlink:href="../../df/d67/define_8h.html" target="_top" xlink:title=" ">
<polygon fill="none" stroke="black" points="1044.32,-56.5 1044.32,-75.5 1133.32,-75.5 1133.32,-56.5 1044.32,-56.5"/>
<text text-anchor="middle" x="1088.82" y="-63.5" font-family="Helvetica,sans-Serif" font-size="10.00">includes/define.h</text>
</a>
</g>
</g>
<!-- Node1&#45;&gt;Node4 -->
<g id="edge3" class="edge">
<title>Node1&#45;&gt;Node4</title>
<path fill="none" stroke="midnightblue" d="M2811.98,-622.35C2342.02,-612.83 55.82,-562.86 55.82,-492 55.82,-492 55.82,-492 55.82,-322 55.82,-200.79 121.52,-166.42 229.82,-112 301.37,-76.05 855.98,-68.75 1034.01,-67.33"/>
<polygon fill="midnightblue" stroke="midnightblue" points="1034.22,-70.83 1044.19,-67.25 1034.16,-63.83 1034.22,-70.83"/>
</g>
<!-- Node10 -->
<g id="node10" class="node">
<title>Node10</title>
<g id="a_node10"><a xlink:href="../../d3/dec/kratos__application_8h.html" target="_top" xlink:title=" ">
<polygon fill="none" stroke="black" points="1677.82,-543 1677.82,-562 1819.82,-562 1819.82,-543 1677.82,-543"/>
<text text-anchor="middle" x="1748.82" y="-550" font-family="Helvetica,sans-Serif" font-size="10.00">includes/kratos_application.h</text>
</a>
</g>
</g>
<!-- Node1&#45;&gt;Node10 -->
<g id="edge9" class="edge">
<title>Node1&#45;&gt;Node10</title>
<path fill="none" stroke="midnightblue" d="M2811.95,-618.84C2599.05,-605.76 2039.76,-571.38 1829.92,-558.48"/>
<polygon fill="midnightblue" stroke="midnightblue" points="1830.09,-554.99 1819.89,-557.87 1829.66,-561.98 1830.09,-554.99"/>
</g>
<!-- Node70 -->
<g id="node35" class="node">
<title>Node70</title>
<g id="a_node35"><a xlink:href="../../de/dca/variables_8h.html" target="_top" xlink:title=" ">
<polygon fill="none" stroke="black" points="2600.82,-313.5 2600.82,-332.5 2702.82,-332.5 2702.82,-313.5 2600.82,-313.5"/>
<text text-anchor="middle" x="2651.82" y="-320.5" font-family="Helvetica,sans-Serif" font-size="10.00">includes/variables.h</text>
</a>
</g>
</g>
<!-- Node1&#45;&gt;Node70 -->
<g id="edge140" class="edge">
<title>Node1&#45;&gt;Node70</title>
<path fill="none" stroke="midnightblue" d="M2812.01,-607.21C2787.52,-598.85 2762.39,-586.42 2743.82,-568 2710.29,-534.72 2670.28,-393.52 2656.65,-342.49"/>
<polygon fill="midnightblue" stroke="midnightblue" points="2659.96,-341.32 2654.02,-332.55 2653.19,-343.11 2659.96,-341.32"/>
</g>
<!-- Node71 -->
<g id="node40" class="node">
<title>Node71</title>
<g id="a_node40"><a xlink:href="../../d7/d6c/condition_8h.html" target="_top" xlink:title=" ">
<polygon fill="none" stroke="black" points="1123.82,-481.5 1123.82,-500.5 1225.82,-500.5 1225.82,-481.5 1123.82,-481.5"/>
<text text-anchor="middle" x="1174.82" y="-488.5" font-family="Helvetica,sans-Serif" font-size="10.00">includes/condition.h</text>
</a>
</g>
</g>
<!-- Node1&#45;&gt;Node71 -->
<g id="edge141" class="edge">
<title>Node1&#45;&gt;Node71</title>
<path fill="none" stroke="midnightblue" d="M2812.29,-623.27C2613.61,-620.85 2097.46,-610.63 1668.82,-568 1508.36,-552.04 1320.54,-519.2 1229.64,-502.4"/>
<polygon fill="midnightblue" stroke="midnightblue" points="1230.04,-498.92 1219.57,-500.53 1228.77,-505.8 1230.04,-498.92"/>
</g>
<!-- Node72 -->
<g id="node41" class="node">
<title>Node72</title>
<g id="a_node41"><a xlink:href="../../de/d6e/fluid__3d_8h.html" target="_top" xlink:title=" ">
<polygon fill="none" stroke="black" points="2388.32,-543 2388.32,-562 2525.32,-562 2525.32,-543 2388.32,-543"/>
<text text-anchor="middle" x="2456.82" y="-550" font-family="Helvetica,sans-Serif" font-size="10.00">custom_elements/fluid_3d.h</text>
</a>
</g>
</g>
<!-- Node1&#45;&gt;Node72 -->
<g id="edge122" class="edge">
<title>Node1&#45;&gt;Node72</title>
<path fill="none" stroke="midnightblue" d="M2812.18,-611.75C2738.94,-600.85 2629.7,-584.17 2534.82,-568 2527.19,-566.7 2519.14,-565.27 2511.23,-563.83"/>
<polygon fill="midnightblue" stroke="midnightblue" points="2511.8,-560.38 2501.33,-562.01 2510.53,-567.26 2511.8,-560.38"/>
</g>
<!-- Node73 -->
<g id="node42" class="node">
<title>Node73</title>
<g id="a_node42"><a xlink:href="../../d9/da6/incompressible__fluid__application_2custom__elements_2fluid__2d_8h.html" target="_top" xlink:title=" ">
<polygon fill="none" stroke="black" points="2752.32,-543 2752.32,-562 2889.32,-562 2889.32,-543 2752.32,-543"/>
<text text-anchor="middle" x="2820.82" y="-550" font-family="Helvetica,sans-Serif" font-size="10.00">custom_elements/fluid_2d.h</text>
</a>
</g>
</g>
<!-- Node1&#45;&gt;Node73 -->
<g id="edge128" class="edge">
<title>Node1&#45;&gt;Node73</title>
<path fill="none" stroke="midnightblue" d="M2874.93,-604.36C2863.07,-593.21 2848.44,-579.46 2837.38,-569.06"/>
<polygon fill="midnightblue" stroke="midnightblue" points="2839.73,-566.47 2830.05,-562.17 2834.94,-571.57 2839.73,-566.47"/>
</g>
<!-- Node74 -->
<g id="node43" class="node">
<title>Node74</title>
<g id="a_node43"><a xlink:href="../../dd/d85/fluid3d__neumann_8h.html" target="_top" xlink:title=" ">
<polygon fill="none" stroke="black" points="2907.32,-537.5 2907.32,-567.5 3036.32,-567.5 3036.32,-537.5 2907.32,-537.5"/>
<text text-anchor="start" x="2915.32" y="-555.5" font-family="Helvetica,sans-Serif" font-size="10.00">custom_conditions/fluid3d</text>
<text text-anchor="middle" x="2971.82" y="-544.5" font-family="Helvetica,sans-Serif" font-size="10.00">_neumann.h</text>
</a>
</g>
</g>
<!-- Node1&#45;&gt;Node74 -->
<g id="edge134" class="edge">
<title>Node1&#45;&gt;Node74</title>
<path fill="none" stroke="midnightblue" d="M2916.99,-604.36C2926.93,-595.14 2938.8,-584.13 2948.95,-574.72"/>
<polygon fill="midnightblue" stroke="midnightblue" points="2951.36,-577.26 2956.31,-567.89 2946.6,-572.13 2951.36,-577.26"/>
</g>
<!-- Node75 -->
<g id="node44" class="node">
<title>Node75</title>
<g id="a_node44"><a xlink:href="../../d2/dc9/fluid__2dcoupled_8h.html" target="_top" xlink:title=" ">
<polygon fill="none" stroke="black" points="3224.82,-537.5 3224.82,-567.5 3338.82,-567.5 3338.82,-537.5 3224.82,-537.5"/>
<text text-anchor="start" x="3232.82" y="-555.5" font-family="Helvetica,sans-Serif" font-size="10.00">custom_elements/fluid</text>
<text text-anchor="middle" x="3281.82" y="-544.5" font-family="Helvetica,sans-Serif" font-size="10.00">_2dcoupled.h</text>
</a>
</g>
</g>
<!-- Node1&#45;&gt;Node75 -->
<g id="edge142" class="edge">
<title>Node1&#45;&gt;Node75</title>
<path fill="none" stroke="midnightblue" d="M2979.55,-610.36C3041.82,-599.98 3129.1,-584.94 3214.73,-568.17"/>
<polygon fill="midnightblue" stroke="midnightblue" points="3215.48,-571.59 3224.62,-566.23 3214.13,-564.72 3215.48,-571.59"/>
</g>
<!-- Node76 -->
<g id="node45" class="node">
<title>Node76</title>
<g id="a_node45"><a xlink:href="../../df/d24/fluid__3dcoupled_8h.html" target="_top" xlink:title=" ">
<polygon fill="none" stroke="black" points="2255.82,-537.5 2255.82,-567.5 2369.82,-567.5 2369.82,-537.5 2255.82,-537.5"/>
<text text-anchor="start" x="2263.82" y="-555.5" font-family="Helvetica,sans-Serif" font-size="10.00">custom_elements/fluid</text>
<text text-anchor="middle" x="2312.82" y="-544.5" font-family="Helvetica,sans-Serif" font-size="10.00">_3dcoupled.h</text>
</a>
</g>
</g>
<!-- Node1&#45;&gt;Node76 -->
<g id="edge148" class="edge">
<title>Node1&#45;&gt;Node76</title>
<path fill="none" stroke="midnightblue" d="M2811.9,-617.62C2711.59,-609.38 2538.54,-593.21 2380.06,-567.92"/>
<polygon fill="midnightblue" stroke="midnightblue" points="2380.56,-564.45 2370.13,-566.32 2379.45,-571.36 2380.56,-564.45"/>
</g>
<!-- Node77 -->
<g id="node46" class="node">
<title>Node77</title>
<g id="a_node46"><a xlink:href="../../d7/da2/_n_dfluid__2d_8h.html" target="_top" xlink:title=" ">
<polygon fill="none" stroke="black" points="3054.82,-543 3054.82,-562 3206.82,-562 3206.82,-543 3054.82,-543"/>
<text text-anchor="middle" x="3130.82" y="-550" font-family="Helvetica,sans-Serif" font-size="10.00">custom_elements/NDfluid_2d.h</text>
</a>
</g>
</g>
<!-- Node1&#45;&gt;Node77 -->
<g id="edge154" class="edge">
<title>Node1&#45;&gt;Node77</title>
<path fill="none" stroke="midnightblue" d="M2960.97,-604.46C3003.25,-591.77 3056.9,-575.68 3092.47,-565.01"/>
<polygon fill="midnightblue" stroke="midnightblue" points="3093.87,-568.24 3102.45,-562.01 3091.86,-561.53 3093.87,-568.24"/>
</g>
<!-- Node78 -->
<g id="node47" class="node">
<title>Node78</title>
<g id="a_node47"><a xlink:href="../../d5/dfd/_n_dfluid__3d_8h.html" target="_top" xlink:title=" ">
<polygon fill="none" stroke="black" points="2543.82,-543 2543.82,-562 2695.82,-562 2695.82,-543 2543.82,-543"/>
<text text-anchor="middle" x="2619.82" y="-550" font-family="Helvetica,sans-Serif" font-size="10.00">custom_elements/NDfluid_3d.h</text>
</a>
</g>
</g>
<!-- Node1&#45;&gt;Node78 -->
<g id="edge160" class="edge">
<title>Node1&#45;&gt;Node78</title>
<path fill="none" stroke="midnightblue" d="M2819.31,-604.46C2768.9,-591.58 2704.74,-575.19 2663,-564.53"/>
<polygon fill="midnightblue" stroke="midnightblue" points="2663.71,-561.1 2653.15,-562.01 2661.97,-567.88 2663.71,-561.1"/>
</g>
<!-- Node79 -->
<g id="node48" class="node">
<title>Node79</title>
<g id="a_node48"><a xlink:href="../../dd/d56/_n_dfluid__2d___crank_nicolson_8h.html" target="_top" xlink:title=" ">
<polygon fill="none" stroke="black" points="3375.82,-537.5 3375.82,-567.5 3503.82,-567.5 3503.82,-537.5 3375.82,-537.5"/>
<text text-anchor="start" x="3383.82" y="-555.5" font-family="Helvetica,sans-Serif" font-size="10.00">custom_elements/NDfluid</text>
<text text-anchor="middle" x="3439.82" y="-544.5" font-family="Helvetica,sans-Serif" font-size="10.00">_2d_CrankNicolson.h</text>
</a>
</g>
</g>
<!-- Node1&#45;&gt;Node79 -->
<g id="edge166" class="edge">
<title>Node1&#45;&gt;Node79</title>
<path fill="none" stroke="midnightblue" d="M2979.66,-614.45C3070.48,-603.92 3219.61,-586.04 3347.82,-568 3353.57,-567.19 3359.51,-566.33 3365.48,-565.43"/>
<polygon fill="midnightblue" stroke="midnightblue" points="3366.16,-568.87 3375.52,-563.91 3365.11,-561.95 3366.16,-568.87"/>
</g>
<!-- Node80 -->
<g id="node49" class="node">
<title>Node80</title>
<g id="a_node49"><a xlink:href="../../d4/d3a/fluid__2d__asgs_8h.html" target="_top" xlink:title=" ">
<polygon fill="none" stroke="black" points="3559.82,-537.5 3559.82,-567.5 3673.82,-567.5 3673.82,-537.5 3559.82,-537.5"/>
<text text-anchor="start" x="3567.82" y="-555.5" font-family="Helvetica,sans-Serif" font-size="10.00">custom_elements/fluid</text>
<text text-anchor="middle" x="3616.82" y="-544.5" font-family="Helvetica,sans-Serif" font-size="10.00">_2d_asgs.h</text>
</a>
</g>
</g>
<!-- Node1&#45;&gt;Node80 -->
<g id="edge172" class="edge">
<title>Node1&#45;&gt;Node80</title>
<path fill="none" stroke="midnightblue" d="M2979.78,-617.66C3098.63,-608.41 3322.62,-589.88 3512.82,-568 3524.71,-566.63 3537.33,-565.01 3549.54,-563.36"/>
<polygon fill="midnightblue" stroke="midnightblue" points="3550.24,-566.8 3559.67,-561.97 3549.29,-559.86 3550.24,-566.8"/>
</g>
<!-- Node81 -->
<g id="node50" class="node">
<title>Node81</title>
<g id="a_node50"><a xlink:href="../../d7/dd8/fluid__2d__oss_8h.html" target="_top" xlink:title=" ">
<polygon fill="none" stroke="black" points="3749.82,-537.5 3749.82,-567.5 3863.82,-567.5 3863.82,-537.5 3749.82,-537.5"/>
<text text-anchor="start" x="3757.82" y="-555.5" font-family="Helvetica,sans-Serif" font-size="10.00">custom_elements/fluid</text>
<text text-anchor="middle" x="3806.82" y="-544.5" font-family="Helvetica,sans-Serif" font-size="10.00">_2d_oss.h</text>
</a>
</g>
</g>
<!-- Node1&#45;&gt;Node81 -->
<g id="edge178" class="edge">
<title>Node1&#45;&gt;Node81</title>
<path fill="none" stroke="midnightblue" d="M2979.5,-619.3C3123.4,-610.93 3426.95,-592.05 3682.82,-568 3701.3,-566.26 3721.3,-564.07 3739.72,-561.91"/>
<polygon fill="midnightblue" stroke="midnightblue" points="3740.26,-565.37 3749.78,-560.72 3739.44,-558.42 3740.26,-565.37"/>
</g>
<!-- Node5 -->
<g id="node5" class="node">
<title>Node5</title>
<g id="a_node5"><a xlink:title=" ">
<polygon fill="none" stroke="#bfbfbf" points="1059.32,-0.5 1059.32,-19.5 1118.32,-19.5 1118.32,-0.5 1059.32,-0.5"/>
<text text-anchor="middle" x="1088.82" y="-7.5" font-family="Helvetica,sans-Serif" font-size="10.00">stdexcept</text>
</a>
</g>
</g>
<!-- Node4&#45;&gt;Node5 -->
<g id="edge4" class="edge">
<title>Node4&#45;&gt;Node5</title>
<path fill="none" stroke="midnightblue" d="M1088.82,-56.08C1088.82,-49.01 1088.82,-38.86 1088.82,-29.99"/>
<polygon fill="midnightblue" stroke="midnightblue" points="1092.32,-29.75 1088.82,-19.75 1085.32,-29.75 1092.32,-29.75"/>
</g>
<!-- Node6 -->
<g id="node6" class="node">
<title>Node6</title>
<g id="a_node6"><a xlink:title=" ">
<polygon fill="none" stroke="#bfbfbf" points="542.82,-0.5 542.82,-19.5 594.82,-19.5 594.82,-0.5 542.82,-0.5"/>
<text text-anchor="middle" x="568.82" y="-7.5" font-family="Helvetica,sans-Serif" font-size="10.00">sstream</text>
</a>
</g>
</g>
<!-- Node4&#45;&gt;Node6 -->
<g id="edge5" class="edge">
<title>Node4&#45;&gt;Node6</title>
<path fill="none" stroke="midnightblue" d="M1044.04,-60.35C942.75,-49.83 697.69,-24.38 605.08,-14.77"/>
<polygon fill="midnightblue" stroke="midnightblue" points="605.38,-11.28 595.07,-13.73 604.65,-18.24 605.38,-11.28"/>
</g>
<!-- Node7 -->
<g id="node7" class="node">
<title>Node7</title>
<g id="a_node7"><a xlink:title=" ">
<polygon fill="none" stroke="#bfbfbf" points="4521.32,-0.5 4521.32,-19.5 4624.32,-19.5 4624.32,-0.5 4521.32,-0.5"/>
<text text-anchor="middle" x="4572.82" y="-7.5" font-family="Helvetica,sans-Serif" font-size="10.00">boost/smart_ptr.hpp</text>
</a>
</g>
</g>
<!-- Node4&#45;&gt;Node7 -->
<g id="edge6" class="edge">
<title>Node4&#45;&gt;Node7</title>
<path fill="none" stroke="midnightblue" d="M1133.46,-61.92C1164.87,-59.88 1207.9,-57.34 1245.82,-56 2563.98,-9.33 4177.47,-10.11 4510.83,-10.83"/>
<polygon fill="midnightblue" stroke="midnightblue" points="4511.23,-14.33 4521.24,-10.85 4511.25,-7.33 4511.23,-14.33"/>
</g>
<!-- Node8 -->
<g id="node8" class="node">
<title>Node8</title>
<g id="a_node8"><a xlink:title=" ">
<polygon fill="none" stroke="#bfbfbf" points="1136.32,-0.5 1136.32,-19.5 1267.32,-19.5 1267.32,-0.5 1136.32,-0.5"/>
<text text-anchor="middle" x="1201.82" y="-7.5" font-family="Helvetica,sans-Serif" font-size="10.00">boost/current_function.hpp</text>
</a>
</g>
</g>
<!-- Node4&#45;&gt;Node8 -->
<g id="edge7" class="edge">
<title>Node4&#45;&gt;Node8</title>
<path fill="none" stroke="midnightblue" d="M1106.73,-56.44C1125.08,-47.68 1153.83,-33.94 1174.92,-23.86"/>
<polygon fill="midnightblue" stroke="midnightblue" points="1176.49,-26.99 1184,-19.52 1173.47,-20.67 1176.49,-26.99"/>
</g>
<!-- Node9 -->
<g id="node9" class="node">
<title>Node9</title>
<g id="a_node9"><a xlink:href="../../de/d17/kratos__config_8h.html" target="_top" xlink:title=" ">
<polygon fill="none" stroke="black" points="920.32,-0.5 920.32,-19.5 1041.32,-19.5 1041.32,-0.5 920.32,-0.5"/>
<text text-anchor="middle" x="980.82" y="-7.5" font-family="Helvetica,sans-Serif" font-size="10.00">includes/kratos_config.h</text>
</a>
</g>
</g>
<!-- Node4&#45;&gt;Node9 -->
<g id="edge8" class="edge">
<title>Node4&#45;&gt;Node9</title>
<path fill="none" stroke="midnightblue" d="M1071.47,-56.32C1054.15,-47.66 1027.31,-34.24 1007.32,-24.25"/>
<polygon fill="midnightblue" stroke="midnightblue" points="1008.64,-21 998.13,-19.65 1005.51,-27.26 1008.64,-21"/>
</g>
<!-- Node10&#45;&gt;Node2 -->
<g id="edge10" class="edge">
<title>Node10&#45;&gt;Node2</title>
<path fill="none" stroke="midnightblue" d="M1755.13,-542.8C1786.16,-500.3 1926.72,-311.22 2065.82,-179 2106.74,-140.11 2160.74,-101.54 2190.26,-81.38"/>
<polygon fill="midnightblue" stroke="midnightblue" points="2192.28,-84.24 2198.6,-75.74 2188.35,-78.45 2192.28,-84.24"/>
</g>
<!-- Node10&#45;&gt;Node3 -->
<g id="edge11" class="edge">
<title>Node10&#45;&gt;Node3</title>
<path fill="none" stroke="midnightblue" d="M1819.84,-547C1935.47,-539.38 2171.56,-522.65 2370.82,-501 2554.1,-481.09 2599.52,-472.42 2781.82,-445 2960.43,-418.14 3404.49,-334.56 3583.82,-313 3792.71,-287.89 3847.87,-308.93 4055.82,-277 4185.72,-257.06 4262.1,-312.92 4343.82,-210 4370.91,-175.89 4373.91,-143.49 4343.82,-112 4310.32,-76.93 3567.57,-68.73 3391.16,-67.27"/>
<polygon fill="midnightblue" stroke="midnightblue" points="3391.1,-63.77 3381.07,-67.19 3391.04,-70.77 3391.1,-63.77"/>
</g>
<!-- Node10&#45;&gt;Node4 -->
<g id="edge12" class="edge">
<title>Node10&#45;&gt;Node4</title>
<path fill="none" stroke="midnightblue" d="M1677.75,-551.24C1405.66,-549.92 438.9,-542.37 307.82,-501 257.27,-485.05 207.82,-489.01 207.82,-436 207.82,-436 207.82,-436 207.82,-193.5 207.82,-136.16 254.38,-132.77 307.82,-112 375.01,-85.89 867.9,-72.14 1034.2,-68.2"/>
<polygon fill="midnightblue" stroke="midnightblue" points="1034.3,-71.7 1044.21,-67.97 1034.13,-64.7 1034.3,-71.7"/>
</g>
<!-- Node11 -->
<g id="node11" class="node">
<title>Node11</title>
<g id="a_node11"><a xlink:href="../../dc/d8e/kratos__components_8h.html" target="_top" xlink:title=" ">
<polygon fill="none" stroke="black" points="1378.32,-185 1378.32,-204 1527.32,-204 1527.32,-185 1378.32,-185"/>
<text text-anchor="middle" x="1452.82" y="-192" font-family="Helvetica,sans-Serif" font-size="10.00">includes/kratos_components.h</text>
</a>
</g>
</g>
<!-- Node10&#45;&gt;Node11 -->
<g id="edge13" class="edge">
<title>Node10&#45;&gt;Node11</title>
<path fill="none" stroke="midnightblue" d="M1677.67,-548.6C1475.23,-539.59 907.3,-508.79 855.82,-445 712.65,-267.56 1171.79,-214.65 1368.16,-200.34"/>
<polygon fill="midnightblue" stroke="midnightblue" points="1368.43,-203.83 1378.15,-199.63 1367.93,-196.85 1368.43,-203.83"/>
</g>
<!-- Node17 -->
<g id="node16" class="node">
<title>Node17</title>
<g id="a_node16"><a xlink:href="../../d4/dfe/element_8h.html" target="_top" xlink:title=" ">
<polygon fill="none" stroke="black" points="2263.82,-481.5 2263.82,-500.5 2361.82,-500.5 2361.82,-481.5 2263.82,-481.5"/>
<text text-anchor="middle" x="2312.82" y="-488.5" font-family="Helvetica,sans-Serif" font-size="10.00">includes/element.h</text>
</a>
</g>
</g>
<!-- Node10&#45;&gt;Node17 -->
<g id="edge24" class="edge">
<title>Node10&#45;&gt;Node17</title>
<path fill="none" stroke="midnightblue" d="M1819.97,-543.99C1932.46,-532.13 2149.31,-509.25 2253.75,-498.23"/>
<polygon fill="midnightblue" stroke="midnightblue" points="2254.23,-501.7 2263.81,-497.17 2253.49,-494.74 2254.23,-501.7"/>
</g>
<!-- Node10&#45;&gt;Node71 -->
<g id="edge111" class="edge">
<title>Node10&#45;&gt;Node71</title>
<path fill="none" stroke="midnightblue" d="M1677.58,-544.11C1563.85,-532.33 1343.23,-509.46 1236.12,-498.35"/>
<polygon fill="midnightblue" stroke="midnightblue" points="1236.43,-494.87 1226.12,-497.32 1235.71,-501.83 1236.43,-494.87"/>
</g>
<!-- Node11&#45;&gt;Node2 -->
<g id="edge14" class="edge">
<title>Node11&#45;&gt;Node2</title>
<path fill="none" stroke="midnightblue" d="M1459.07,-184.83C1472.24,-167.34 1504.79,-128.15 1542.82,-112 1601.98,-86.88 2056.91,-71.61 2180.77,-67.89"/>
<polygon fill="midnightblue" stroke="midnightblue" points="2181.17,-71.38 2191.06,-67.59 2180.96,-64.39 2181.17,-71.38"/>
</g>
<!-- Node11&#45;&gt;Node3 -->
<g id="edge15" class="edge">
<title>Node11&#45;&gt;Node3</title>
<path fill="none" stroke="midnightblue" d="M1527.34,-192.35C1663.13,-189.39 1959.67,-179.02 2206.82,-143 2268.6,-134 2281.95,-120.31 2343.82,-112 2537.26,-86.02 3156.82,-71.22 3316.17,-67.78"/>
<polygon fill="midnightblue" stroke="midnightblue" points="3316.49,-71.27 3326.41,-67.56 3316.34,-64.28 3316.49,-71.27"/>
</g>
<!-- Node11&#45;&gt;Node4 -->
<g id="edge18" class="edge">
<title>Node11&#45;&gt;Node4</title>
<path fill="none" stroke="midnightblue" d="M1420.01,-184.92C1385,-175.53 1328.05,-159.59 1279.82,-143 1248.93,-132.37 1164.55,-98.08 1118.98,-79.4"/>
<polygon fill="midnightblue" stroke="midnightblue" points="1120.19,-76.12 1109.61,-75.56 1117.53,-82.59 1120.19,-76.12"/>
</g>
<!-- Node12 -->
<g id="node12" class="node">
<title>Node12</title>
<g id="a_node12"><a xlink:title=" ">
<polygon fill="none" stroke="#bfbfbf" points="1288.32,-118 1288.32,-137 1323.32,-137 1323.32,-118 1288.32,-118"/>
<text text-anchor="middle" x="1305.82" y="-125" font-family="Helvetica,sans-Serif" font-size="10.00">map</text>
</a>
</g>
</g>
<!-- Node11&#45;&gt;Node12 -->
<g id="edge16" class="edge">
<title>Node11&#45;&gt;Node12</title>
<path fill="none" stroke="midnightblue" d="M1430.87,-184.99C1406.6,-175.41 1366.48,-159.07 1332.82,-143 1331.98,-142.6 1331.13,-142.18 1330.27,-141.76"/>
<polygon fill="midnightblue" stroke="midnightblue" points="1331.61,-138.51 1321.11,-137.04 1328.4,-144.73 1331.61,-138.51"/>
</g>
<!-- Node13 -->
<g id="node13" class="node">
<title>Node13</title>
<g id="a_node13"><a xlink:title=" ">
<polygon fill="none" stroke="#bfbfbf" points="1341.32,-118 1341.32,-137 1414.32,-137 1414.32,-118 1341.32,-118"/>
<text text-anchor="middle" x="1377.82" y="-125" font-family="Helvetica,sans-Serif" font-size="10.00">boost/ref.hpp</text>
</a>
</g>
</g>
<!-- Node11&#45;&gt;Node13 -->
<g id="edge17" class="edge">
<title>Node11&#45;&gt;Node13</title>
<path fill="none" stroke="midnightblue" d="M1442.71,-184.73C1430.68,-174.31 1410.37,-156.71 1395.68,-143.97"/>
<polygon fill="midnightblue" stroke="midnightblue" points="1397.63,-141.03 1387.78,-137.13 1393.04,-146.32 1397.63,-141.03"/>
</g>
<!-- Node14 -->
<g id="node14" class="node">
<title>Node14</title>
<g id="a_node14"><a xlink:href="../../d3/dc3/variable__data_8h.html" target="_top" xlink:title=" ">
<polygon fill="none" stroke="red" points="1876.82,-112.5 1876.82,-142.5 1974.82,-142.5 1974.82,-112.5 1876.82,-112.5"/>
<text text-anchor="start" x="1884.82" y="-130.5" font-family="Helvetica,sans-Serif" font-size="10.00">containers/variable</text>
<text text-anchor="middle" x="1925.82" y="-119.5" font-family="Helvetica,sans-Serif" font-size="10.00">_data.h</text>
</a>
</g>
</g>
<!-- Node11&#45;&gt;Node14 -->
<g id="edge19" class="edge">
<title>Node11&#45;&gt;Node14</title>
<path fill="none" stroke="midnightblue" d="M1518.93,-184.99C1594.24,-175.21 1720.97,-158.51 1829.82,-143 1841.69,-141.31 1854.36,-139.44 1866.49,-137.62"/>
<polygon fill="midnightblue" stroke="midnightblue" points="1867.15,-141.06 1876.52,-136.11 1866.11,-134.14 1867.15,-141.06"/>
</g>
<!-- Node14&#45;&gt;Node2 -->
<g id="edge20" class="edge">
<title>Node14&#45;&gt;Node2</title>
<path fill="none" stroke="midnightblue" d="M1974.99,-116.27C2034.21,-103.95 2131.87,-83.63 2181.23,-73.36"/>
<polygon fill="midnightblue" stroke="midnightblue" points="2182.2,-76.74 2191.28,-71.27 2180.78,-69.88 2182.2,-76.74"/>
</g>
<!-- Node14&#45;&gt;Node3 -->
<g id="edge21" class="edge">
<title>Node14&#45;&gt;Node3</title>
<path fill="none" stroke="midnightblue" d="M1975.26,-123.39C2026.24,-120.25 2108.07,-115.38 2178.82,-112 2626.42,-90.6 3170.32,-72.82 3316.29,-68.18"/>
<polygon fill="midnightblue" stroke="midnightblue" points="3316.61,-71.67 3326.49,-67.86 3316.38,-64.67 3316.61,-71.67"/>
</g>
<!-- Node14&#45;&gt;Node4 -->
<g id="edge23" class="edge">
<title>Node14&#45;&gt;Node4</title>
<path fill="none" stroke="midnightblue" d="M1876.79,-114.38C1872.09,-113.47 1867.38,-112.65 1862.82,-112 1595.2,-73.7 1271.07,-67.8 1143.84,-67.03"/>
<polygon fill="midnightblue" stroke="midnightblue" points="1143.6,-63.53 1133.59,-66.98 1143.57,-70.53 1143.6,-63.53"/>
</g>
<!-- Node15 -->
<g id="node15" class="node">
<title>Node15</title>
<g id="a_node15"><a xlink:title=" ">
<polygon fill="none" stroke="#bfbfbf" points="366.32,-56.5 366.32,-75.5 415.32,-75.5 415.32,-56.5 366.32,-56.5"/>
<text text-anchor="middle" x="390.82" y="-63.5" font-family="Helvetica,sans-Serif" font-size="10.00">cstddef</text>
</a>
</g>
</g>
<!-- Node14&#45;&gt;Node15 -->
<g id="edge22" class="edge">
<title>Node14&#45;&gt;Node15</title>
<path fill="none" stroke="midnightblue" d="M1876.63,-117.92C1861.64,-115.62 1845.1,-113.39 1829.82,-112 1544.6,-86.09 616.88,-70.51 425.54,-67.53"/>
<polygon fill="midnightblue" stroke="midnightblue" points="425.54,-64.03 415.48,-67.37 425.43,-71.02 425.54,-64.03"/>
</g>
<!-- Node17&#45;&gt;Node2 -->
<g id="edge25" class="edge">
<title>Node17&#45;&gt;Node2</title>
<path fill="none" stroke="midnightblue" d="M2317.6,-481.42C2337.24,-445.11 2409.72,-300.34 2387.82,-179 2382.18,-147.72 2386.04,-133.7 2362.82,-112 2329.73,-81.07 2276.28,-71.33 2242.64,-68.3"/>
<polygon fill="midnightblue" stroke="midnightblue" points="2242.71,-64.8 2232.47,-67.54 2242.18,-71.78 2242.71,-64.8"/>
</g>
<!-- Node17&#45;&gt;Node3 -->
<g id="edge26" class="edge">
<title>Node17&#45;&gt;Node3</title>
<path fill="none" stroke="midnightblue" d="M2361.95,-488.89C2441.82,-486.18 2604.31,-476.87 2737.82,-445 2830.31,-422.92 2845.43,-391.49 2937.82,-369 3012.97,-350.71 4269.35,-267.73 4320.82,-210 4349.81,-177.49 4350.9,-143.51 4320.82,-112 4288.16,-77.78 3564.9,-68.95 3391.12,-67.31"/>
<polygon fill="midnightblue" stroke="midnightblue" points="3390.97,-63.81 3380.94,-67.22 3390.91,-70.81 3390.97,-63.81"/>
</g>
<!-- Node17&#45;&gt;Node4 -->
<g id="edge29" class="edge">
<title>Node17&#45;&gt;Node4</title>
<path fill="none" stroke="midnightblue" d="M2263.51,-486.86C2187.65,-481.5 2037.95,-468.76 1912.82,-445 1715.65,-407.56 1162.88,-369.31 1040.82,-210 1033.86,-200.92 1028.32,-142.98 1041.82,-112 1047.06,-99.99 1057.2,-89.62 1066.73,-81.87"/>
<polygon fill="midnightblue" stroke="midnightblue" points="1068.94,-84.59 1074.8,-75.77 1064.72,-79.01 1068.94,-84.59"/>
</g>
<!-- Node17&#45;&gt;Node6 -->
<g id="edge27" class="edge">
<title>Node17&#45;&gt;Node6</title>
<path fill="none" stroke="midnightblue" d="M2263.76,-489.62C2014.99,-487.58 898.96,-476.72 747.82,-445 475.62,-387.88 323.24,-440.66 167.82,-210 158.66,-196.4 158.13,-133.54 171.82,-112 199.78,-68.03 225.44,-72.63 274.82,-56 364.24,-25.88 475.79,-15.83 532.33,-12.55"/>
<polygon fill="midnightblue" stroke="midnightblue" points="532.76,-16.03 542.55,-11.99 532.38,-9.04 532.76,-16.03"/>
</g>
<!-- Node17&#45;&gt;Node15 -->
<g id="edge28" class="edge">
<title>Node17&#45;&gt;Node15</title>
<path fill="none" stroke="midnightblue" d="M2263.74,-488.98C2007.62,-483.58 834.87,-458.19 799.82,-445 602.43,-370.75 569.35,-304.59 433.82,-143 418.8,-125.09 406.27,-101.18 398.69,-84.99"/>
<polygon fill="midnightblue" stroke="midnightblue" points="401.75,-83.28 394.44,-75.62 395.38,-86.17 401.75,-83.28"/>
</g>
<!-- Node18 -->
<g id="node17" class="node">
<title>Node18</title>
<g id="a_node17"><a xlink:href="../../d1/d77/node_8h.html" target="_top" xlink:title=" ">
<polygon fill="none" stroke="red" points="786.82,-185 786.82,-204 870.82,-204 870.82,-185 786.82,-185"/>
<text text-anchor="middle" x="828.82" y="-192" font-family="Helvetica,sans-Serif" font-size="10.00">includes/node.h</text>
</a>
</g>
</g>
<!-- Node17&#45;&gt;Node18 -->
<g id="edge30" class="edge">
<title>Node17&#45;&gt;Node18</title>
<path fill="none" stroke="midnightblue" d="M2263.82,-489.33C2067.97,-486.45 1341.09,-474.02 1112.82,-445 978.78,-427.96 815.82,-515.12 815.82,-380 815.82,-380 815.82,-380 815.82,-322 815.82,-283.5 821.86,-238.75 825.7,-214.14"/>
<polygon fill="midnightblue" stroke="midnightblue" points="829.19,-214.49 827.33,-204.06 822.28,-213.37 829.19,-214.49"/>
</g>
<!-- Node54 -->
<g id="node18" class="node">
<title>Node54</title>
<g id="a_node18"><a xlink:href="../../de/d69/indexed__object_8h.html" target="_top" xlink:title=" ">
<polygon fill="none" stroke="black" points="691.82,-118 691.82,-137 813.82,-137 813.82,-118 691.82,-118"/>
<text text-anchor="middle" x="752.82" y="-125" font-family="Helvetica,sans-Serif" font-size="10.00">utilities/indexed_object.h</text>
</a>
</g>
</g>
<!-- Node17&#45;&gt;Node54 -->
<g id="edge109" class="edge">
<title>Node17&#45;&gt;Node54</title>
<path fill="none" stroke="midnightblue" d="M2263.76,-488.92C2007.82,-483.27 837.02,-456.76 822.82,-445 731.37,-369.27 743.12,-203.38 750.07,-147.39"/>
<polygon fill="midnightblue" stroke="midnightblue" points="753.58,-147.56 751.45,-137.18 746.64,-146.62 753.58,-147.56"/>
</g>
<!-- Node60 -->
<g id="node19" class="node">
<title>Node60</title>
<g id="a_node19"><a xlink:href="../../d5/d10/weak__pointer__vector_8h.html" target="_top" xlink:title=" ">
<polygon fill="none" stroke="red" points="1698.82,-112.5 1698.82,-142.5 1820.82,-142.5 1820.82,-112.5 1698.82,-112.5"/>
<text text-anchor="start" x="1706.82" y="-130.5" font-family="Helvetica,sans-Serif" font-size="10.00">containers/weak_pointer</text>
<text text-anchor="middle" x="1759.82" y="-119.5" font-family="Helvetica,sans-Serif" font-size="10.00">_vector.h</text>
</a>
</g>
</g>
<!-- Node17&#45;&gt;Node60 -->
<g id="edge110" class="edge">
<title>Node17&#45;&gt;Node60</title>
<path fill="none" stroke="midnightblue" d="M2297.1,-481.28C2238.04,-448.3 2024.39,-327.17 1859.82,-210 1832.72,-190.71 1803.41,-166.36 1783.57,-149.33"/>
<polygon fill="midnightblue" stroke="midnightblue" points="1785.79,-146.62 1775.94,-142.73 1781.22,-151.92 1785.79,-146.62"/>
</g>
<!-- Node63 -->
<g id="node20" class="node">
<title>Node63</title>
<g id="a_node20"><a xlink:href="../../d4/d67/geometry_8h.html" target="_top" xlink:title=" ">
<polygon fill="none" stroke="red" points="1339.32,-252 1339.32,-271 1454.32,-271 1454.32,-252 1339.32,-252"/>
<text text-anchor="middle" x="1396.82" y="-259" font-family="Helvetica,sans-Serif" font-size="10.00">geometries/geometry.h</text>
</a>
</g>
</g>
<!-- Node17&#45;&gt;Node63 -->
<g id="edge47" class="edge">
<title>Node17&#45;&gt;Node63</title>
<path fill="none" stroke="midnightblue" d="M2263.77,-485.23C2201.97,-478.69 2092.72,-465.39 2000.82,-445 1778.95,-395.77 1519.99,-306.47 1429.79,-274.38"/>
<polygon fill="midnightblue" stroke="midnightblue" points="1430.96,-271.08 1420.37,-271.02 1428.61,-277.68 1430.96,-271.08"/>
</g>
<!-- Node68 -->
<g id="node33" class="node">
<title>Node68</title>
<g id="a_node33"><a xlink:href="../../d8/dbb/properties_8h.html" target="_top" xlink:title=" ">
<polygon fill="none" stroke="red" points="1121.82,-425.5 1121.82,-444.5 1227.82,-444.5 1227.82,-425.5 1121.82,-425.5"/>
<text text-anchor="middle" x="1174.82" y="-432.5" font-family="Helvetica,sans-Serif" font-size="10.00">includes/properties.h</text>
</a>
</g>
</g>
<!-- Node17&#45;&gt;Node68 -->
<g id="edge68" class="edge">
<title>Node17&#45;&gt;Node68</title>
<path fill="none" stroke="midnightblue" d="M2263.56,-487.66C2080.94,-479 1442.68,-448.71 1238.3,-439.01"/>
<polygon fill="midnightblue" stroke="midnightblue" points="1238.19,-435.5 1228.03,-438.52 1237.86,-442.5 1238.19,-435.5"/>
</g>
<!-- Node69 -->
<g id="node34" class="node">
<title>Node69</title>
<g id="a_node34"><a xlink:href="../../de/db8/process__info_8h.html" target="_top" xlink:title=" ">
<polygon fill="none" stroke="red" points="1115.32,-369.5 1115.32,-388.5 1234.32,-388.5 1234.32,-369.5 1115.32,-369.5"/>
<text text-anchor="middle" x="1174.82" y="-376.5" font-family="Helvetica,sans-Serif" font-size="10.00">includes/process_info.h</text>
</a>
</g>
</g>
<!-- Node17&#45;&gt;Node69 -->
<g id="edge108" class="edge">
<title>Node17&#45;&gt;Node69</title>
<path fill="none" stroke="midnightblue" d="M2263.65,-486.32C2168.7,-479.12 1953.56,-462.35 1772.82,-445 1581.54,-426.64 1356.29,-401.09 1244.72,-388.17"/>
<polygon fill="midnightblue" stroke="midnightblue" points="1244.95,-384.68 1234.61,-387 1244.14,-391.63 1244.95,-384.68"/>
</g>
<!-- Node18&#45;&gt;Node2 -->
<g id="edge31" class="edge">
<title>Node18&#45;&gt;Node2</title>
<path fill="none" stroke="midnightblue" d="M866.59,-184.95C943.75,-167.86 1125.27,-129.62 1279.82,-112 1632.17,-71.83 2063.44,-67.46 2181,-67.03"/>
<polygon fill="midnightblue" stroke="midnightblue" points="2181.09,-70.53 2191.08,-67 2181.07,-63.53 2181.09,-70.53"/>
</g>
<!-- Node18&#45;&gt;Node3 -->
<g id="edge32" class="edge">
<title>Node18&#45;&gt;Node3</title>
<path fill="none" stroke="midnightblue" d="M870.95,-192.19C1051.54,-186.51 1761.2,-163.29 1983.82,-143 2083.47,-133.92 2107.15,-120.86 2206.82,-112 2642.06,-73.31 3173.16,-67.88 3316.63,-67.12"/>
<polygon fill="midnightblue" stroke="midnightblue" points="3316.68,-70.62 3326.66,-67.07 3316.65,-63.62 3316.68,-70.62"/>
</g>
<!-- Node18&#45;&gt;Node4 -->
<g id="edge35" class="edge">
<title>Node18&#45;&gt;Node4</title>
<path fill="none" stroke="midnightblue" d="M830.13,-184.78C833.15,-167.89 842.23,-130.76 865.82,-112 891.34,-91.71 976.68,-78.87 1034.08,-72.32"/>
<polygon fill="midnightblue" stroke="midnightblue" points="1034.55,-75.79 1044.1,-71.2 1033.77,-68.83 1034.55,-75.79"/>
</g>
<!-- Node18&#45;&gt;Node6 -->
<g id="edge33" class="edge">
<title>Node18&#45;&gt;Node6</title>
<path fill="none" stroke="midnightblue" d="M786.51,-185.09C755.82,-177.57 714.35,-164.37 682.82,-143 636.41,-111.54 597.5,-56.53 579.52,-28.5"/>
<polygon fill="midnightblue" stroke="midnightblue" points="582.33,-26.4 574.05,-19.79 576.4,-30.12 582.33,-26.4"/>
</g>
<!-- Node18&#45;&gt;Node15 -->
<g id="edge34" class="edge">
<title>Node18&#45;&gt;Node15</title>
<path fill="none" stroke="midnightblue" d="M795.95,-184.98C759.89,-175.45 700.4,-159.23 649.82,-143 611.14,-130.59 602.64,-124.02 563.82,-112 516.2,-97.26 460.22,-83.3 425.13,-74.94"/>
<polygon fill="midnightblue" stroke="midnightblue" points="425.91,-71.53 415.37,-72.64 424.3,-78.34 425.91,-71.53"/>
</g>
<!-- Node18&#45;&gt;Node54 -->
<g id="edge36" class="edge">
<title>Node18&#45;&gt;Node54</title>
<path fill="none" stroke="midnightblue" d="M818.57,-184.73C806.38,-174.31 785.81,-156.71 770.91,-143.97"/>
<polygon fill="midnightblue" stroke="midnightblue" points="772.78,-140.97 762.91,-137.13 768.24,-146.29 772.78,-140.97"/>
</g>
<!-- Node18&#45;&gt;Node60 -->
<g id="edge42" class="edge">
<title>Node18&#45;&gt;Node60</title>
<path fill="none" stroke="midnightblue" d="M870.94,-190.56C1017.27,-180.34 1504.68,-146.31 1688.68,-133.47"/>
<polygon fill="midnightblue" stroke="midnightblue" points="1689.05,-136.95 1698.78,-132.76 1688.56,-129.97 1689.05,-136.95"/>
</g>
<!-- Node54&#45;&gt;Node2 -->
<g id="edge37" class="edge">
<title>Node54&#45;&gt;Node2</title>
<path fill="none" stroke="midnightblue" d="M814.07,-121.16C851.04,-118.1 899.11,-114.39 941.82,-112 1436.14,-84.29 2039.69,-70.58 2181.15,-67.62"/>
<polygon fill="midnightblue" stroke="midnightblue" points="2181.33,-71.12 2191.25,-67.41 2181.18,-64.12 2181.33,-71.12"/>
</g>
<!-- Node54&#45;&gt;Node3 -->
<g id="edge38" class="edge">
<title>Node54&#45;&gt;Node3</title>
<path fill="none" stroke="midnightblue" d="M814.08,-124.7C912.33,-121.84 1111.23,-116.15 1279.82,-112 2103.54,-91.73 3111.4,-71.75 3316.41,-67.73"/>
<polygon fill="midnightblue" stroke="midnightblue" points="3316.71,-71.23 3326.63,-67.53 3316.57,-64.23 3316.71,-71.23"/>
</g>
<!-- Node54&#45;&gt;Node4 -->
<g id="edge41" class="edge">
<title>Node54&#45;&gt;Node4</title>
<path fill="none" stroke="midnightblue" d="M796.02,-117.99C806.43,-115.99 817.52,-113.88 827.82,-112 898.85,-99.01 980.95,-85.03 1033.81,-76.15"/>
<polygon fill="midnightblue" stroke="midnightblue" points="1034.69,-79.55 1043.98,-74.45 1033.53,-72.65 1034.69,-79.55"/>
</g>
<!-- Node54&#45;&gt;Node6 -->
<g id="edge39" class="edge">
<title>Node54&#45;&gt;Node6</title>
<path fill="none" stroke="midnightblue" d="M745.33,-117.61C732.69,-103.07 705.75,-74.02 677.82,-56 655.15,-41.37 626.93,-29.88 604.88,-22.17"/>
<polygon fill="midnightblue" stroke="midnightblue" points="605.82,-18.79 595.23,-18.89 603.57,-25.42 605.82,-18.79"/>
</g>
<!-- Node54&#45;&gt;Node15 -->
<g id="edge40" class="edge">
<title>Node54&#45;&gt;Node15</title>
<path fill="none" stroke="midnightblue" d="M700.96,-117.98C625.96,-105.65 489.23,-83.17 425.38,-72.68"/>
<polygon fill="midnightblue" stroke="midnightblue" points="425.86,-69.21 415.42,-71.04 424.72,-76.12 425.86,-69.21"/>
</g>
<!-- Node60&#45;&gt;Node2 -->
<g id="edge43" class="edge">
<title>Node60&#45;&gt;Node2</title>
<path fill="none" stroke="midnightblue" d="M1820.93,-118.26C1836.24,-116.2 1852.63,-114.01 1867.82,-112 1983.58,-96.66 2121.28,-78.75 2181.32,-70.96"/>
<polygon fill="midnightblue" stroke="midnightblue" points="2181.8,-74.42 2191.27,-69.66 2180.9,-67.48 2181.8,-74.42"/>
</g>
<!-- Node60&#45;&gt;Node3 -->
<g id="edge44" class="edge">
<title>Node60&#45;&gt;Node3</title>
<path fill="none" stroke="midnightblue" d="M1821.1,-117.16C1836.33,-115.14 1852.64,-113.25 1867.82,-112 2443.27,-64.78 3147.72,-65.72 3316.31,-66.71"/>
<polygon fill="midnightblue" stroke="midnightblue" points="3316.39,-70.21 3326.41,-66.78 3316.43,-63.21 3316.39,-70.21"/>
</g>
<!-- Node60&#45;&gt;Node4 -->
<g id="edge46" class="edge">
<title>Node60&#45;&gt;Node4</title>
<path fill="none" stroke="midnightblue" d="M1698.52,-114.05C1693.9,-113.29 1689.29,-112.6 1684.82,-112 1486.5,-85.43 1248.8,-73.36 1143.56,-69.01"/>
<polygon fill="midnightblue" stroke="midnightblue" points="1143.63,-65.51 1133.49,-68.61 1143.34,-72.51 1143.63,-65.51"/>
</g>
<!-- Node60&#45;&gt;Node6 -->
<g id="edge45" class="edge">
<title>Node60&#45;&gt;Node6</title>
<path fill="none" stroke="midnightblue" d="M1698.5,-114.19C1693.88,-113.4 1689.28,-112.66 1684.82,-112 1262.82,-49.53 744.92,-19.97 605.06,-12.78"/>
<polygon fill="midnightblue" stroke="midnightblue" points="605.07,-9.28 594.91,-12.26 604.71,-16.27 605.07,-9.28"/>
</g>
<!-- Node63&#45;&gt;Node2 -->
<g id="edge48" class="edge">
<title>Node63&#45;&gt;Node2</title>
<path fill="none" stroke="midnightblue" d="M1426.29,-251.98C1455.17,-243.15 1500.09,-228.11 1536.82,-210 1609.26,-174.3 1613.37,-138 1689.82,-112 1781.75,-80.73 2083.4,-70.32 2181.04,-67.72"/>
<polygon fill="midnightblue" stroke="midnightblue" points="2181.23,-71.22 2191.13,-67.46 2181.05,-64.22 2181.23,-71.22"/>
</g>
<!-- Node63&#45;&gt;Node3 -->
<g id="edge49" class="edge">
<title>Node63&#45;&gt;Node3</title>
<path fill="none" stroke="midnightblue" d="M1454.54,-259.07C1634.99,-254.36 2186.99,-238 2363.82,-210 2477.44,-192.01 2504,-177.22 2613.82,-143 2653.01,-130.79 2660.64,-120.38 2700.82,-112 2819.88,-87.18 3196.33,-72.41 3316.54,-68.23"/>
<polygon fill="midnightblue" stroke="midnightblue" points="3316.84,-71.72 3326.71,-67.88 3316.6,-64.73 3316.84,-71.72"/>
</g>
<!-- Node63&#45;&gt;Node4 -->
<g id="edge52" class="edge">
<title>Node63&#45;&gt;Node4</title>
<path fill="none" stroke="midnightblue" d="M1339.26,-255.55C1249.06,-247.24 1082.69,-229.48 1063.82,-210 1033.42,-178.61 1042.23,-153.53 1055.82,-112 1059.31,-101.34 1066.4,-91.12 1073.11,-83.12"/>
<polygon fill="midnightblue" stroke="midnightblue" points="1075.73,-85.44 1079.8,-75.66 1070.52,-80.76 1075.73,-85.44"/>
</g>
<!-- Node63&#45;&gt;Node6 -->
<g id="edge50" class="edge">
<title>Node63&#45;&gt;Node6</title>
<path fill="none" stroke="midnightblue" d="M1338.84,-258.54C1205.9,-253.61 882.53,-238.93 777.82,-210 712.88,-192.05 693.21,-186.59 641.82,-143 605.33,-112.04 583.74,-58.02 574.37,-29.64"/>
<polygon fill="midnightblue" stroke="midnightblue" points="577.62,-28.29 571.28,-19.8 570.94,-30.39 577.62,-28.29"/>
</g>
<!-- Node63&#45;&gt;Node15 -->
<g id="edge51" class="edge">
<title>Node63&#45;&gt;Node15</title>
<path fill="none" stroke="midnightblue" d="M1339.07,-260.05C1228.89,-258.24 981.55,-249.69 777.82,-210 680,-190.94 657.14,-177.98 563.82,-143 511.26,-123.3 451.68,-95.98 417.94,-80.03"/>
<polygon fill="midnightblue" stroke="midnightblue" points="419.27,-76.79 408.73,-75.66 416.26,-83.11 419.27,-76.79"/>
</g>
<!-- Node23 -->
<g id="node21" class="node">
<title>Node23</title>
<g id="a_node21"><a xlink:href="../../d9/d3e/ublas__interface_8h.html" target="_top" xlink:title=" ">
<polygon fill="none" stroke="red" points="3229.32,-185 3229.32,-204 3358.32,-204 3358.32,-185 3229.32,-185"/>
<text text-anchor="middle" x="3293.82" y="-192" font-family="Helvetica,sans-Serif" font-size="10.00">includes/ublas_interface.h</text>
</a>
</g>
</g>
<!-- Node63&#45;&gt;Node23 -->
<g id="edge53" class="edge">
<title>Node63&#45;&gt;Node23</title>
<path fill="none" stroke="midnightblue" d="M1454.37,-258.53C1729.4,-249.1 2909.23,-208.68 3219.06,-198.06"/>
<polygon fill="midnightblue" stroke="midnightblue" points="3219.4,-201.55 3229.28,-197.71 3219.16,-194.56 3219.4,-201.55"/>
</g>
<!-- Node23&#45;&gt;Node2 -->
<g id="edge54" class="edge">
<title>Node23&#45;&gt;Node2</title>
<path fill="none" stroke="midnightblue" d="M3229.32,-188.97C3126.43,-181.42 2918.89,-164.93 2743.82,-143 2656.75,-132.09 2635.65,-124.7 2548.82,-112 2436.11,-95.52 2301.82,-78.31 2242.54,-70.84"/>
<polygon fill="midnightblue" stroke="midnightblue" points="2242.72,-67.34 2232.36,-69.56 2241.85,-74.28 2242.72,-67.34"/>
</g>
<!-- Node23&#45;&gt;Node3 -->
<g id="edge55" class="edge">
<title>Node23&#45;&gt;Node3</title>
<path fill="none" stroke="midnightblue" d="M3358.48,-190.98C3522.52,-184.28 3943.41,-165.01 3963.82,-143 3973.19,-132.9 3973.2,-122.09 3963.82,-112 3924.85,-70.04 3518.44,-66.84 3391.49,-66.88"/>
<polygon fill="midnightblue" stroke="midnightblue" points="3391.12,-63.38 3381.12,-66.89 3391.13,-70.38 3391.12,-63.38"/>
</g>
<!-- Node23&#45;&gt;Node4 -->
<g id="edge67" class="edge">
<title>Node23&#45;&gt;Node4</title>
<path fill="none" stroke="midnightblue" d="M3229.16,-189.01C3041.92,-176.09 2483.05,-138.07 2018.82,-112 1686.6,-93.35 1287.34,-75.6 1143.66,-69.36"/>
<polygon fill="midnightblue" stroke="midnightblue" points="1143.5,-65.85 1133.36,-68.91 1143.2,-72.84 1143.5,-65.85"/>
</g>
<!-- Node24 -->
<g id="node22" class="node">
<title>Node24</title>
<g id="a_node22"><a xlink:title=" ">
<polygon fill="none" stroke="#bfbfbf" points="3240.82,-112.5 3240.82,-142.5 3344.82,-142.5 3344.82,-112.5 3240.82,-112.5"/>
<text text-anchor="start" x="3248.82" y="-130.5" font-family="Helvetica,sans-Serif" font-size="10.00">boost/numeric/ublas</text>
<text text-anchor="middle" x="3292.82" y="-119.5" font-family="Helvetica,sans-Serif" font-size="10.00">/vector.hpp</text>
</a>
</g>
</g>
<!-- Node23&#45;&gt;Node24 -->
<g id="edge56" class="edge">
<title>Node23&#45;&gt;Node24</title>
<path fill="none" stroke="midnightblue" d="M3293.69,-184.73C3293.56,-176.54 3293.37,-163.92 3293.2,-152.71"/>
<polygon fill="midnightblue" stroke="midnightblue" points="3296.69,-152.53 3293.04,-142.59 3289.69,-152.64 3296.69,-152.53"/>
</g>
<!-- Node25 -->
<g id="node23" class="node">
<title>Node25</title>
<g id="a_node23"><a xlink:title=" ">
<polygon fill="none" stroke="#bfbfbf" points="3362.82,-112.5 3362.82,-142.5 3466.82,-142.5 3466.82,-112.5 3362.82,-112.5"/>
<text text-anchor="start" x="3370.82" y="-130.5" font-family="Helvetica,sans-Serif" font-size="10.00">boost/numeric/ublas</text>
<text text-anchor="middle" x="3414.82" y="-119.5" font-family="Helvetica,sans-Serif" font-size="10.00">/vector_proxy.hpp</text>
</a>
</g>
</g>
<!-- Node23&#45;&gt;Node25 -->
<g id="edge57" class="edge">
<title>Node23&#45;&gt;Node25</title>
<path fill="none" stroke="midnightblue" d="M3310.14,-184.73C3327.83,-175.23 3356.6,-159.78 3379.51,-147.47"/>
<polygon fill="midnightblue" stroke="midnightblue" points="3381.44,-150.4 3388.6,-142.59 3378.13,-144.24 3381.44,-150.4"/>
</g>
<!-- Node26 -->
<g id="node24" class="node">
<title>Node26</title>
<g id="a_node24"><a xlink:title=" ">
<polygon fill="none" stroke="#bfbfbf" points="3484.82,-112.5 3484.82,-142.5 3588.82,-142.5 3588.82,-112.5 3484.82,-112.5"/>
<text text-anchor="start" x="3492.82" y="-130.5" font-family="Helvetica,sans-Serif" font-size="10.00">boost/numeric/ublas</text>
<text text-anchor="middle" x="3536.82" y="-119.5" font-family="Helvetica,sans-Serif" font-size="10.00">/vector_sparse.hpp</text>
</a>
</g>
</g>
<!-- Node23&#45;&gt;Node26 -->
<g id="edge58" class="edge">
<title>Node23&#45;&gt;Node26</title>
<path fill="none" stroke="midnightblue" d="M3325.84,-184.94C3363.62,-174.83 3427.3,-157.8 3474.84,-145.08"/>
<polygon fill="midnightblue" stroke="midnightblue" points="3475.97,-148.4 3484.72,-142.44 3474.16,-141.64 3475.97,-148.4"/>
</g>
<!-- Node27 -->
<g id="node25" class="node">
<title>Node27</title>
<g id="a_node25"><a xlink:title=" ">
<polygon fill="none" stroke="#bfbfbf" points="4010.82,-112.5 4010.82,-142.5 4126.82,-142.5 4126.82,-112.5 4010.82,-112.5"/>
<text text-anchor="start" x="4018.82" y="-130.5" font-family="Helvetica,sans-Serif" font-size="10.00">boost/numeric/ublas</text>
<text text-anchor="middle" x="4068.82" y="-119.5" font-family="Helvetica,sans-Serif" font-size="10.00">/vector_expression.hpp</text>
</a>
</g>
</g>
<!-- Node23&#45;&gt;Node27 -->
<g id="edge59" class="edge">
<title>Node23&#45;&gt;Node27</title>
<path fill="none" stroke="midnightblue" d="M3358.56,-191.6C3482.81,-187.34 3763.12,-174.8 3996.82,-143 3998.1,-142.83 3999.39,-142.64 4000.69,-142.45"/>
<polygon fill="midnightblue" stroke="midnightblue" points="4001.45,-145.88 4010.77,-140.85 4000.35,-138.96 4001.45,-145.88"/>
</g>
<!-- Node28 -->
<g id="node26" class="node">
<title>Node28</title>
<g id="a_node26"><a xlink:title=" ">
<polygon fill="none" stroke="#bfbfbf" points="3606.82,-112.5 3606.82,-142.5 3710.82,-142.5 3710.82,-112.5 3606.82,-112.5"/>
<text text-anchor="start" x="3614.82" y="-130.5" font-family="Helvetica,sans-Serif" font-size="10.00">boost/numeric/ublas</text>
<text text-anchor="middle" x="3658.82" y="-119.5" font-family="Helvetica,sans-Serif" font-size="10.00">/matrix.hpp</text>
</a>
</g>
</g>
<!-- Node23&#45;&gt;Node28 -->
<g id="edge60" class="edge">
<title>Node23&#45;&gt;Node28</title>
<path fill="none" stroke="midnightblue" d="M3352.6,-184.96C3411.84,-176.08 3506.08,-161.2 3596.74,-143.14"/>
<polygon fill="midnightblue" stroke="midnightblue" points="3597.52,-146.56 3606.63,-141.16 3596.14,-139.69 3597.52,-146.56"/>
</g>
<!-- Node29 -->
<g id="node27" class="node">
<title>Node29</title>
<g id="a_node27"><a xlink:title=" ">
<polygon fill="none" stroke="#bfbfbf" points="3728.82,-112.5 3728.82,-142.5 3832.82,-142.5 3832.82,-112.5 3728.82,-112.5"/>
<text text-anchor="start" x="3736.82" y="-130.5" font-family="Helvetica,sans-Serif" font-size="10.00">boost/numeric/ublas</text>
<text text-anchor="middle" x="3780.82" y="-119.5" font-family="Helvetica,sans-Serif" font-size="10.00">/matrix_sparse.hpp</text>
</a>
</g>
</g>
<!-- Node23&#45;&gt;Node29 -->
<g id="edge61" class="edge">
<title>Node23&#45;&gt;Node29</title>
<path fill="none" stroke="midnightblue" d="M3358.39,-188.18C3440.1,-180.93 3585.29,-166.32 3718.67,-143.08"/>
<polygon fill="midnightblue" stroke="midnightblue" points="3719.42,-146.5 3728.66,-141.32 3718.21,-139.61 3719.42,-146.5"/>
</g>
<!-- Node30 -->
<g id="node28" class="node">
<title>Node30</title>
<g id="a_node28"><a xlink:title=" ">
<polygon fill="none" stroke="#bfbfbf" points="3850.82,-112.5 3850.82,-142.5 3954.82,-142.5 3954.82,-112.5 3850.82,-112.5"/>
<text text-anchor="start" x="3858.82" y="-130.5" font-family="Helvetica,sans-Serif" font-size="10.00">boost/numeric/ublas</text>
<text text-anchor="middle" x="3902.82" y="-119.5" font-family="Helvetica,sans-Serif" font-size="10.00">/matrix_proxy.hpp</text>
</a>
</g>
</g>
<!-- Node23&#45;&gt;Node30 -->
<g id="edge62" class="edge">
<title>Node23&#45;&gt;Node30</title>
<path fill="none" stroke="midnightblue" d="M3358.74,-190.5C3459.85,-185.16 3661.14,-171.92 3840.78,-143.02"/>
<polygon fill="midnightblue" stroke="midnightblue" points="3841.37,-146.47 3850.68,-141.41 3840.25,-139.56 3841.37,-146.47"/>
</g>
<!-- Node31 -->
<g id="node29" class="node">
<title>Node31</title>
<g id="a_node29"><a xlink:title=" ">
<polygon fill="none" stroke="#bfbfbf" points="2752.82,-112.5 2752.82,-142.5 2856.82,-142.5 2856.82,-112.5 2752.82,-112.5"/>
<text text-anchor="start" x="2760.82" y="-130.5" font-family="Helvetica,sans-Serif" font-size="10.00">boost/numeric/ublas</text>
<text text-anchor="middle" x="2804.82" y="-119.5" font-family="Helvetica,sans-Serif" font-size="10.00">/symmetric.hpp</text>
</a>
</g>
</g>
<!-- Node23&#45;&gt;Node31 -->
<g id="edge63" class="edge">
<title>Node23&#45;&gt;Node31</title>
<path fill="none" stroke="midnightblue" d="M3229.31,-188.24C3147.29,-181.02 3001.18,-166.42 2867.03,-143.09"/>
<polygon fill="midnightblue" stroke="midnightblue" points="2867.44,-139.61 2856.98,-141.32 2866.23,-146.5 2867.44,-139.61"/>
</g>
<!-- Node32 -->
<g id="node30" class="node">
<title>Node32</title>
<g id="a_node30"><a xlink:title=" ">
<polygon fill="none" stroke="#bfbfbf" points="2874.82,-112.5 2874.82,-142.5 2978.82,-142.5 2978.82,-112.5 2874.82,-112.5"/>
<text text-anchor="start" x="2882.82" y="-130.5" font-family="Helvetica,sans-Serif" font-size="10.00">boost/numeric/ublas</text>
<text text-anchor="middle" x="2926.82" y="-119.5" font-family="Helvetica,sans-Serif" font-size="10.00">/hermitian.hpp</text>
</a>
</g>
</g>
<!-- Node23&#45;&gt;Node32 -->
<g id="edge64" class="edge">
<title>Node23&#45;&gt;Node32</title>
<path fill="none" stroke="midnightblue" d="M3234.65,-184.99C3175.03,-176.13 3080.17,-161.26 2988.97,-143.15"/>
<polygon fill="midnightblue" stroke="midnightblue" points="2989.51,-139.69 2979.01,-141.16 2988.13,-146.55 2989.51,-139.69"/>
</g>
<!-- Node33 -->
<g id="node31" class="node">
<title>Node33</title>
<g id="a_node31"><a xlink:title=" ">
<polygon fill="none" stroke="#bfbfbf" points="2996.82,-112.5 2996.82,-142.5 3100.82,-142.5 3100.82,-112.5 2996.82,-112.5"/>
<text text-anchor="start" x="3004.82" y="-130.5" font-family="Helvetica,sans-Serif" font-size="10.00">boost/numeric/ublas</text>
<text text-anchor="middle" x="3048.82" y="-119.5" font-family="Helvetica,sans-Serif" font-size="10.00">/banded.hpp</text>
</a>
</g>
</g>
<!-- Node23&#45;&gt;Node33 -->
<g id="edge65" class="edge">
<title>Node23&#45;&gt;Node33</title>
<path fill="none" stroke="midnightblue" d="M3261.54,-184.94C3223.25,-174.78 3158.57,-157.62 3110.56,-144.88"/>
<polygon fill="midnightblue" stroke="midnightblue" points="3111.45,-141.49 3100.89,-142.31 3109.65,-148.26 3111.45,-141.49"/>
</g>
<!-- Node34 -->
<g id="node32" class="node">
<title>Node34</title>
<g id="a_node32"><a xlink:title=" ">
<polygon fill="none" stroke="#bfbfbf" points="3118.82,-112.5 3118.82,-142.5 3222.82,-142.5 3222.82,-112.5 3118.82,-112.5"/>
<text text-anchor="start" x="3126.82" y="-130.5" font-family="Helvetica,sans-Serif" font-size="10.00">boost/numeric/ublas</text>
<text text-anchor="middle" x="3170.82" y="-119.5" font-family="Helvetica,sans-Serif" font-size="10.00">/triangular.hpp</text>
</a>
</g>
</g>
<!-- Node23&#45;&gt;Node34 -->
<g id="edge66" class="edge">
<title>Node23&#45;&gt;Node34</title>
<path fill="none" stroke="midnightblue" d="M3277.49,-184.87C3259.49,-175.36 3229.99,-159.77 3206.57,-147.39"/>
<polygon fill="midnightblue" stroke="midnightblue" points="3208.08,-144.23 3197.6,-142.65 3204.81,-150.42 3208.08,-144.23"/>
</g>
<!-- Node68&#45;&gt;Node2 -->
<g id="edge69" class="edge">
<title>Node68&#45;&gt;Node2</title>
<path fill="none" stroke="midnightblue" d="M1227.85,-432.89C1429.01,-427.75 2142.76,-400.96 2325.82,-277 2386.71,-235.77 2390.52,-163.28 2337.82,-112 2311.84,-86.72 2270.71,-75.54 2242.56,-70.66"/>
<polygon fill="midnightblue" stroke="midnightblue" points="2242.88,-67.17 2232.46,-69.08 2241.8,-74.08 2242.88,-67.17"/>
</g>
<!-- Node68&#45;&gt;Node3 -->
<g id="edge70" class="edge">
<title>Node68&#45;&gt;Node3</title>
<path fill="none" stroke="midnightblue" d="M1228.15,-431.31C1355.77,-424.79 1688.89,-407.34 1966.82,-389 2298.15,-367.14 2380.97,-361.11 2711.82,-333 2777.55,-327.42 3237.35,-285.05 3302.82,-277 3394.28,-265.76 3416.14,-255.19 3507.82,-246 3547.78,-241.99 4202.14,-239.1 4229.82,-210 4259.84,-178.44 4259.82,-143.58 4229.82,-112 4200.51,-81.14 3554.16,-69.86 3390.98,-67.5"/>
<polygon fill="midnightblue" stroke="midnightblue" points="3390.99,-64 3380.94,-67.35 3390.89,-71 3390.99,-64"/>
</g>
<!-- Node68&#45;&gt;Node4 -->
<g id="edge72" class="edge">
<title>Node68&#45;&gt;Node4</title>
<path fill="none" stroke="midnightblue" d="M1159.5,-425.44C1115.7,-399.83 991.25,-318.79 962.82,-210 951.81,-167.85 935.64,-147.55 960.82,-112 977.49,-88.48 1007.46,-77.16 1034.22,-71.76"/>
<polygon fill="midnightblue" stroke="midnightblue" points="1035.06,-75.16 1044.29,-69.96 1033.83,-68.27 1035.06,-75.16"/>
</g>
<!-- Node68&#45;&gt;Node15 -->
<g id="edge71" class="edge">
<title>Node68&#45;&gt;Node15</title>
<path fill="none" stroke="midnightblue" d="M1121.36,-429.42C1069.85,-423.84 990.31,-412.14 924.82,-389 710.28,-313.19 661.62,-274.36 475.82,-143 449.71,-124.54 422.7,-99.11 406.33,-82.86"/>
<polygon fill="midnightblue" stroke="midnightblue" points="408.73,-80.31 399.2,-75.69 403.77,-85.25 408.73,-80.31"/>
</g>
<!-- Node68&#45;&gt;Node18 -->
<g id="edge73" class="edge">
<title>Node68&#45;&gt;Node18</title>
<path fill="none" stroke="midnightblue" d="M1121.71,-434.47C1073.94,-432.44 1003.78,-423.11 953.82,-389 888.31,-344.27 849.28,-252.69 835.02,-213.71"/>
<polygon fill="midnightblue" stroke="midnightblue" points="838.29,-212.46 831.65,-204.2 831.69,-214.79 838.29,-212.46"/>
</g>
<!-- Node68&#45;&gt;Node69 -->
<g id="edge74" class="edge">
<title>Node68&#45;&gt;Node69</title>
<path fill="none" stroke="midnightblue" d="M1174.82,-425.08C1174.82,-418.01 1174.82,-407.86 1174.82,-398.99"/>
<polygon fill="midnightblue" stroke="midnightblue" points="1178.32,-398.75 1174.82,-388.75 1171.32,-398.75 1178.32,-398.75"/>
</g>
<!-- Node69&#45;&gt;Node2 -->
<g id="edge75" class="edge">
<title>Node69&#45;&gt;Node2</title>
<path fill="none" stroke="midnightblue" d="M1181.85,-369.41C1202.09,-345.31 1263.4,-276.87 1330.82,-246 1347.52,-238.36 1965.98,-147.35 1983.82,-143 2056.22,-125.35 2138.57,-95.34 2181.75,-78.8"/>
<polygon fill="midnightblue" stroke="midnightblue" points="2183.03,-82.06 2191.1,-75.2 2180.51,-75.53 2183.03,-82.06"/>
</g>
<!-- Node69&#45;&gt;Node3 -->
<g id="edge76" class="edge">
<title>Node69&#45;&gt;Node3</title>
<path fill="none" stroke="midnightblue" d="M1234.58,-374.44C1440.93,-362.07 2142.69,-319.4 2721.82,-277 2891.7,-264.56 2933.81,-256.42 3103.82,-246 3296.52,-234.19 3782.54,-247.97 3971.82,-210 4055.93,-193.13 4103.81,-213.4 4152.82,-143 4160.69,-131.69 4162.29,-122.01 4152.82,-112 4126.38,-84.02 3546.61,-70.76 3391.63,-67.7"/>
<polygon fill="midnightblue" stroke="midnightblue" points="3391.28,-64.19 3381.22,-67.5 3391.15,-71.19 3391.28,-64.19"/>
</g>
<!-- Node69&#45;&gt;Node4 -->
<g id="edge79" class="edge">
<title>Node69&#45;&gt;Node4</title>
<path fill="none" stroke="midnightblue" d="M1156.87,-369.37C1116.12,-348.65 1017.25,-291.65 979.82,-210 961.67,-170.41 955.6,-148.2 979.82,-112 992.21,-93.49 1013.74,-82.59 1034.42,-76.17"/>
<polygon fill="midnightblue" stroke="midnightblue" points="1035.46,-79.51 1044.14,-73.44 1033.57,-72.77 1035.46,-79.51"/>
</g>
<!-- Node69&#45;&gt;Node6 -->
<g id="edge77" class="edge">
<title>Node69&#45;&gt;Node6</title>
<path fill="none" stroke="midnightblue" d="M1115.04,-371.89C930.3,-351.66 374.7,-280.18 269.82,-143 198.48,-49.68 438.06,-20.97 532.34,-13.4"/>
<polygon fill="midnightblue" stroke="midnightblue" points="532.87,-16.87 542.57,-12.61 532.33,-9.89 532.87,-16.87"/>
</g>
<!-- Node69&#45;&gt;Node15 -->
<g id="edge78" class="edge">
<title>Node69&#45;&gt;Node15</title>
<path fill="none" stroke="midnightblue" d="M1146.4,-369.47C1070.75,-346.5 858.61,-280.29 687.82,-210 584.66,-167.54 466.4,-106.83 415.85,-80.28"/>
<polygon fill="midnightblue" stroke="midnightblue" points="417.42,-77.15 406.94,-75.59 414.16,-83.34 417.42,-77.15"/>
</g>
<!-- Node69&#45;&gt;Node70 -->
<g id="edge80" class="edge">
<title>Node69&#45;&gt;Node70</title>
<path fill="none" stroke="midnightblue" d="M1234.55,-375.82C1472.26,-367.13 2349.83,-335.04 2590.46,-326.24"/>
<polygon fill="midnightblue" stroke="midnightblue" points="2590.9,-329.73 2600.76,-325.87 2590.64,-322.73 2590.9,-329.73"/>
</g>
<!-- Node70&#45;&gt;Node2 -->
<g id="edge81" class="edge">
<title>Node70&#45;&gt;Node2</title>
<path fill="none" stroke="midnightblue" d="M2640.1,-313.47C2628.32,-304.72 2609.79,-290.52 2594.82,-277 2575.87,-259.88 2457.23,-124.24 2434.82,-112 2372.41,-77.91 2287.47,-69.51 2242.57,-67.53"/>
<polygon fill="midnightblue" stroke="midnightblue" points="2242.7,-64.03 2232.58,-67.17 2242.44,-71.03 2242.7,-64.03"/>
</g>
<!-- Node70&#45;&gt;Node3 -->
<g id="edge82" class="edge">
<title>Node70&#45;&gt;Node3</title>
<path fill="none" stroke="midnightblue" d="M2702.97,-316.46C2831.63,-302.7 3179.24,-266.59 3469.82,-246 3510.71,-243.1 4178.55,-239.69 4206.82,-210 4236.86,-178.46 4236.8,-143.6 4206.82,-112 4178.39,-82.03 3552.91,-70.13 3391.54,-67.56"/>
<polygon fill="midnightblue" stroke="midnightblue" points="3391.21,-64.05 3381.16,-67.4 3391.1,-71.05 3391.21,-64.05"/>
</g>
<!-- Node70&#45;&gt;Node4 -->
<g id="edge83" class="edge">
<title>Node70&#45;&gt;Node4</title>
<path fill="none" stroke="midnightblue" d="M2600.56,-321.04C2494.16,-318.44 2241.83,-309.13 2032.82,-277 1777.31,-237.72 1701.96,-250.42 1466.82,-143 1445.39,-133.21 1445.71,-120.72 1423.82,-112 1374.09,-92.19 1225.09,-77.76 1143.58,-71.1"/>
<polygon fill="midnightblue" stroke="midnightblue" points="1143.75,-67.61 1133.5,-70.29 1143.19,-74.58 1143.75,-67.61"/>
</g>
<!-- Node70&#45;&gt;Node11 -->
<g id="edge99" class="edge">
<title>Node70&#45;&gt;Node11</title>
<path fill="none" stroke="midnightblue" d="M2600.81,-320.72C2438.33,-316.42 1934.2,-301.43 1772.82,-277 1765.87,-275.95 1581.48,-228.6 1495.82,-206.57"/>
<polygon fill="midnightblue" stroke="midnightblue" points="1496.44,-203.11 1485.88,-204.01 1494.69,-209.89 1496.44,-203.11"/>
</g>
<!-- Node70&#45;&gt;Node60 -->
<g id="edge107" class="edge">
<title>Node70&#45;&gt;Node60</title>
<path fill="none" stroke="midnightblue" d="M2600.52,-322.39C2506.88,-322.04 2302.55,-316.31 2135.82,-277 2006.26,-246.45 1862.28,-179.65 1796.37,-147.09"/>
<polygon fill="midnightblue" stroke="midnightblue" points="1797.74,-143.86 1787.23,-142.54 1794.62,-150.13 1797.74,-143.86"/>
</g>
<!-- Node70&#45;&gt;Node23 -->
<g id="edge100" class="edge">
<title>Node70&#45;&gt;Node23</title>
<path fill="none" stroke="midnightblue" d="M2670.77,-313.46C2707.05,-297.48 2789.18,-263.15 2861.82,-246 2985,-216.92 3132.07,-204.27 3218.94,-199"/>
<polygon fill="midnightblue" stroke="midnightblue" points="3219.2,-202.5 3228.97,-198.41 3218.79,-195.51 3219.2,-202.5"/>
</g>
<!-- Node46 -->
<g id="node36" class="node">
<title>Node46</title>
<g id="a_node36"><a xlink:href="../../da/d89/variable_8h.html" target="_top" xlink:title=" ">
<polygon fill="none" stroke="black" points="2074.82,-185 2074.82,-204 2180.82,-204 2180.82,-185 2074.82,-185"/>
<text text-anchor="middle" x="2127.82" y="-192" font-family="Helvetica,sans-Serif" font-size="10.00">containers/variable.h</text>
</a>
</g>
</g>
<!-- Node70&#45;&gt;Node46 -->
<g id="edge84" class="edge">
<title>Node70&#45;&gt;Node46</title>
<path fill="none" stroke="midnightblue" d="M2600.82,-320.23C2482.68,-315.73 2197.69,-302.34 2162.82,-277 2142.52,-262.24 2133.88,-233.23 2130.28,-214.11"/>
<polygon fill="midnightblue" stroke="midnightblue" points="2133.73,-213.49 2128.7,-204.17 2126.82,-214.6 2133.73,-213.49"/>
</g>
<!-- Node47 -->
<g id="node37" class="node">
<title>Node47</title>
<g id="a_node37"><a xlink:href="../../d4/d59/variable__component_8h.html" target="_top" xlink:title=" ">
<polygon fill="none" stroke="black" points="2256.82,-179.5 2256.82,-209.5 2354.82,-209.5 2354.82,-179.5 2256.82,-179.5"/>
<text text-anchor="start" x="2264.82" y="-197.5" font-family="Helvetica,sans-Serif" font-size="10.00">containers/variable</text>
<text text-anchor="middle" x="2305.82" y="-186.5" font-family="Helvetica,sans-Serif" font-size="10.00">_component.h</text>
</a>
</g>
</g>
<!-- Node70&#45;&gt;Node47 -->
<g id="edge89" class="edge">
<title>Node70&#45;&gt;Node47</title>
<path fill="none" stroke="midnightblue" d="M2600.75,-315.5C2558.03,-308.98 2496.04,-296.99 2444.82,-277 2403.91,-261.03 2360.9,-233.99 2333.75,-215.47"/>
<polygon fill="midnightblue" stroke="midnightblue" points="2335.73,-212.59 2325.51,-209.78 2331.75,-218.34 2335.73,-212.59"/>
</g>
<!-- Node53 -->
<g id="node38" class="node">
<title>Node53</title>
<g id="a_node38"><a xlink:href="../../dc/d8f/vector__component__adaptor_8h.html" target="_top" xlink:title=" ">
<polygon fill="none" stroke="black" points="2171.32,-246.5 2171.32,-276.5 2316.32,-276.5 2316.32,-246.5 2171.32,-246.5"/>
<text text-anchor="start" x="2179.32" y="-264.5" font-family="Helvetica,sans-Serif" font-size="10.00">containers/vector_component</text>
<text text-anchor="middle" x="2243.82" y="-253.5" font-family="Helvetica,sans-Serif" font-size="10.00">_adaptor.h</text>
</a>
</g>
</g>
<!-- Node70&#45;&gt;Node53 -->
<g id="edge94" class="edge">
<title>Node70&#45;&gt;Node53</title>
<path fill="none" stroke="midnightblue" d="M2600.56,-314.52C2531.74,-304.49 2408.63,-286.53 2326.59,-274.57"/>
<polygon fill="midnightblue" stroke="midnightblue" points="2326.94,-271.08 2316.54,-273.1 2325.93,-278.01 2326.94,-271.08"/>
</g>
<!-- Node21 -->
<g id="node39" class="node">
<title>Node21</title>
<g id="a_node39"><a xlink:href="../../d9/d36/array__1d_8h.html" target="_top" xlink:title=" ">
<polygon fill="none" stroke="red" points="2603.32,-252 2603.32,-271 2712.32,-271 2712.32,-252 2603.32,-252"/>
<text text-anchor="middle" x="2657.82" y="-259" font-family="Helvetica,sans-Serif" font-size="10.00">containers/array_1d.h</text>
</a>
</g>
</g>
<!-- Node70&#45;&gt;Node21 -->
<g id="edge101" class="edge">
<title>Node70&#45;&gt;Node21</title>
<path fill="none" stroke="midnightblue" d="M2652.68,-313.48C2653.53,-305.08 2654.85,-291.98 2655.94,-281.16"/>
<polygon fill="midnightblue" stroke="midnightblue" points="2659.44,-281.31 2656.97,-271.01 2652.48,-280.61 2659.44,-281.31"/>
</g>
<!-- Node46&#45;&gt;Node2 -->
<g id="edge85" class="edge">
<title>Node46&#45;&gt;Node2</title>
<path fill="none" stroke="midnightblue" d="M2135.55,-184.91C2144.16,-175.12 2158.26,-158.49 2168.82,-143 2181.85,-123.89 2194.63,-100.56 2202.82,-84.83"/>
<polygon fill="midnightblue" stroke="midnightblue" points="2206.05,-86.21 2207.5,-75.71 2199.82,-83.01 2206.05,-86.21"/>
</g>
<!-- Node46&#45;&gt;Node3 -->
<g id="edge86" class="edge">
<title>Node46&#45;&gt;Node3</title>
<path fill="none" stroke="midnightblue" d="M2160.83,-184.94C2228.29,-167.84 2387.07,-129.58 2522.82,-112 2827.47,-72.55 3199.28,-67.59 3316.56,-67.04"/>
<polygon fill="midnightblue" stroke="midnightblue" points="3316.8,-70.54 3326.79,-67 3316.77,-63.54 3316.8,-70.54"/>
</g>
<!-- Node46&#45;&gt;Node4 -->
<g id="edge87" class="edge">
<title>Node46&#45;&gt;Node4</title>
<path fill="none" stroke="midnightblue" d="M2076.76,-184.96C2006.48,-173 1886.48,-151.74 1867.82,-143 1848.09,-133.75 1850.12,-119.93 1829.82,-112 1766.5,-87.26 1304.21,-72.73 1143.61,-68.39"/>
<polygon fill="midnightblue" stroke="midnightblue" points="1143.57,-64.89 1133.48,-68.12 1143.38,-71.88 1143.57,-64.89"/>
</g>
<!-- Node46&#45;&gt;Node14 -->
<g id="edge88" class="edge">
<title>Node46&#45;&gt;Node14</title>
<path fill="none" stroke="midnightblue" d="M2101,-184.87C2070.03,-174.9 2018.33,-158.27 1979.1,-145.64"/>
<polygon fill="midnightblue" stroke="midnightblue" points="1980.01,-142.26 1969.42,-142.53 1977.87,-148.92 1980.01,-142.26"/>
</g>
<!-- Node47&#45;&gt;Node2 -->
<g id="edge90" class="edge">
<title>Node47&#45;&gt;Node2</title>
<path fill="none" stroke="midnightblue" d="M2314.21,-179.27C2323.21,-161.94 2334.5,-132.45 2320.82,-112 2303.51,-86.13 2268.31,-75.11 2242.58,-70.44"/>
<polygon fill="midnightblue" stroke="midnightblue" points="2242.98,-66.96 2232.56,-68.84 2241.88,-73.87 2242.98,-66.96"/>
</g>
<!-- Node47&#45;&gt;Node3 -->
<g id="edge91" class="edge">
<title>Node47&#45;&gt;Node3</title>
<path fill="none" stroke="midnightblue" d="M2354.86,-181.63C2439.92,-161.21 2611.61,-120.77 2672.82,-112 2916.66,-77.08 3213.57,-69.2 3316.55,-67.47"/>
<polygon fill="midnightblue" stroke="midnightblue" points="3316.8,-70.97 3326.74,-67.31 3316.69,-63.97 3316.8,-70.97"/>
</g>
<!-- Node47&#45;&gt;Node4 -->
<g id="edge92" class="edge">
<title>Node47&#45;&gt;Node4</title>
<path fill="none" stroke="midnightblue" d="M2256.58,-187.26C2187.96,-178.11 2067.43,-160.26 2026.82,-143 2005.14,-133.79 2006.05,-119.8 1983.82,-112 1904.84,-84.29 1326.21,-71.37 1143.76,-67.95"/>
<polygon fill="midnightblue" stroke="midnightblue" points="1143.66,-64.45 1133.59,-67.77 1143.53,-71.45 1143.66,-64.45"/>
</g>
<!-- Node47&#45;&gt;Node14 -->
<g id="edge93" class="edge">
<title>Node47&#45;&gt;Node14</title>
<path fill="none" stroke="midnightblue" d="M2256.77,-186.74C2194.31,-177.9 2083.19,-161.35 1988.82,-143 1987.55,-142.75 1986.27,-142.5 1984.98,-142.24"/>
<polygon fill="midnightblue" stroke="midnightblue" points="1985.44,-138.76 1974.93,-140.14 1984.01,-145.61 1985.44,-138.76"/>
</g>
<!-- Node53&#45;&gt;Node2 -->
<g id="edge95" class="edge">
<title>Node53&#45;&gt;Node2</title>
<path fill="none" stroke="midnightblue" d="M2241.47,-246.27C2235.79,-211.94 2221.34,-124.57 2214.95,-85.9"/>
<polygon fill="midnightblue" stroke="midnightblue" points="2218.33,-84.87 2213.24,-75.58 2211.42,-86.01 2218.33,-84.87"/>
</g>
<!-- Node53&#45;&gt;Node3 -->
<g id="edge96" class="edge">
<title>Node53&#45;&gt;Node3</title>
<path fill="none" stroke="midnightblue" d="M2316.36,-257.88C2387.15,-253.47 2496.98,-241.65 2586.82,-210 2642.25,-190.47 2651.6,-175.11 2700.82,-143 2720.56,-130.13 2721.68,-120.06 2743.82,-112 2849.9,-73.38 3200.53,-67.87 3316.34,-67.11"/>
<polygon fill="midnightblue" stroke="midnightblue" points="3316.5,-70.61 3326.48,-67.05 3316.46,-63.61 3316.5,-70.61"/>
</g>
<!-- Node53&#45;&gt;Node4 -->
<g id="edge97" class="edge">
<title>Node53&#45;&gt;Node4</title>
<path fill="none" stroke="midnightblue" d="M2172.68,-246.5C2124.15,-236.75 2058.47,-223.19 2000.82,-210 1945.45,-197.33 1932.46,-190.49 1876.82,-179 1779.79,-158.97 1749.27,-178.63 1656.82,-143 1633.13,-133.87 1632.85,-120.23 1608.82,-112 1587.07,-104.55 1272.83,-80.62 1143.66,-71.03"/>
<polygon fill="midnightblue" stroke="midnightblue" points="1143.81,-67.53 1133.58,-70.28 1143.29,-74.51 1143.81,-67.53"/>
</g>
<!-- Node53&#45;&gt;Node46 -->
<g id="edge98" class="edge">
<title>Node53&#45;&gt;Node46</title>
<path fill="none" stroke="midnightblue" d="M2218.65,-246.4C2198.84,-235.29 2171.41,-219.92 2151.88,-208.98"/>
<polygon fill="midnightblue" stroke="midnightblue" points="2153.44,-205.84 2143,-204.01 2150.02,-211.95 2153.44,-205.84"/>
</g>
<!-- Node21&#45;&gt;Node2 -->
<g id="edge102" class="edge">
<title>Node21&#45;&gt;Node2</title>
<path fill="none" stroke="midnightblue" d="M2650.03,-251.66C2626.35,-225.44 2552.05,-147.72 2472.82,-112 2395.11,-76.96 2293.07,-69.07 2242.7,-67.39"/>
<polygon fill="midnightblue" stroke="midnightblue" points="2242.56,-63.88 2232.47,-67.11 2242.37,-70.88 2242.56,-63.88"/>
</g>
<!-- Node21&#45;&gt;Node3 -->
<g id="edge103" class="edge">
<title>Node21&#45;&gt;Node3</title>
<path fill="none" stroke="midnightblue" d="M2711.44,-251.98C2727.3,-249.72 2744.73,-247.5 2760.82,-246 2913.37,-231.79 4033.77,-257.27 4135.82,-143 4145,-132.72 4145.28,-122.02 4135.82,-112 4109.98,-84.63 3543.76,-70.94 3391.33,-67.74"/>
<polygon fill="midnightblue" stroke="midnightblue" points="3391.15,-64.24 3381.08,-67.53 3391.01,-71.24 3391.15,-64.24"/>
</g>
<!-- Node21&#45;&gt;Node4 -->
<g id="edge104" class="edge">
<title>Node21&#45;&gt;Node4</title>
<path fill="none" stroke="midnightblue" d="M2603.11,-259.17C2498.15,-255.87 2261.56,-244.9 2065.82,-210 2014.55,-200.86 2003.84,-189.44 1952.82,-179 1837.24,-155.34 1799.37,-186.8 1689.82,-143 1667.95,-134.25 1668.93,-120.14 1646.82,-112 1635.1,-107.69 1282.15,-81.27 1143.74,-71.04"/>
<polygon fill="midnightblue" stroke="midnightblue" points="1143.6,-67.52 1133.37,-70.27 1143.09,-74.5 1143.6,-67.52"/>
</g>
<!-- Node21&#45;&gt;Node23 -->
<g id="edge105" class="edge">
<title>Node21&#45;&gt;Node23</title>
<path fill="none" stroke="midnightblue" d="M2712.55,-252.32C2728.13,-250.13 2745.13,-247.85 2760.82,-246 2924.09,-226.78 3116.16,-210.02 3219.31,-201.49"/>
<polygon fill="midnightblue" stroke="midnightblue" points="3219.64,-204.97 3229.32,-200.66 3219.06,-197.99 3219.64,-204.97"/>
</g>
<!-- Node21&#45;&gt;Node27 -->
<g id="edge106" class="edge">
<title>Node21&#45;&gt;Node27</title>
<path fill="none" stroke="midnightblue" d="M2712.52,-251.96C2728.09,-249.76 2745.1,-247.57 2760.82,-246 3029.74,-219.14 3098.53,-232.69 3367.82,-210 3640.92,-186.99 3709.29,-180.18 3980.82,-143 3987.17,-142.13 3993.75,-141.17 4000.35,-140.16"/>
<polygon fill="midnightblue" stroke="midnightblue" points="4001.33,-143.54 4010.67,-138.54 4000.25,-136.63 4001.33,-143.54"/>
</g>
<!-- Node71&#45;&gt;Node2 -->
<g id="edge112" class="edge">
<title>Node71&#45;&gt;Node2</title>
<path fill="none" stroke="midnightblue" d="M1226.22,-490.26C1360.37,-489.56 1710.82,-478.32 1710.82,-380 1710.82,-380 1710.82,-380 1710.82,-322 1710.82,-152.01 1889.7,-202.79 2048.82,-143 2098.89,-124.19 2154.92,-96.53 2186.53,-80.28"/>
<polygon fill="midnightblue" stroke="midnightblue" points="2188.25,-83.33 2195.52,-75.63 2185.03,-77.12 2188.25,-83.33"/>
</g>
<!-- Node71&#45;&gt;Node3 -->
<g id="edge113" class="edge">
<title>Node71&#45;&gt;Node3</title>
<path fill="none" stroke="midnightblue" d="M1225.88,-485.47C1626.25,-449.96 4246.14,-217.32 4252.82,-210 4282.19,-177.84 4282.84,-143.56 4252.82,-112 4222.69,-80.32 3557.96,-69.64 3391.4,-67.45"/>
<polygon fill="midnightblue" stroke="midnightblue" points="3391.21,-63.95 3381.17,-67.32 3391.12,-70.95 3391.21,-63.95"/>
</g>
<!-- Node71&#45;&gt;Node4 -->
<g id="edge116" class="edge">
<title>Node71&#45;&gt;Node4</title>
<path fill="none" stroke="midnightblue" d="M1123.62,-487.13C1037.85,-481.74 869.17,-468.48 814.82,-445 657.19,-376.89 597.47,-313.09 573.82,-143 571.93,-129.35 564.51,-122.16 573.82,-112 604.46,-78.57 907.6,-69.88 1033.96,-67.7"/>
<polygon fill="midnightblue" stroke="midnightblue" points="1034.25,-71.2 1044.19,-67.53 1034.14,-64.2 1034.25,-71.2"/>
</g>
<!-- Node71&#45;&gt;Node6 -->
<g id="edge114" class="edge">
<title>Node71&#45;&gt;Node6</title>
<path fill="none" stroke="midnightblue" d="M1123.81,-488.78C935.11,-483.31 279.18,-455.65 117.82,-333 16.19,-255.75 -44.52,-150.03 41.82,-56 74.91,-19.96 418.17,-12.74 532.21,-11.33"/>
<polygon fill="midnightblue" stroke="midnightblue" points="532.56,-14.83 542.52,-11.21 532.48,-7.83 532.56,-14.83"/>
</g>
<!-- Node71&#45;&gt;Node15 -->
<g id="edge115" class="edge">
<title>Node71&#45;&gt;Node15</title>
<path fill="none" stroke="midnightblue" d="M1123.59,-490.01C988.64,-488.04 615.24,-469.71 345.82,-333 239.52,-279.06 119.5,-205.21 193.82,-112 213.73,-87.03 304.95,-74.82 355.99,-69.85"/>
<polygon fill="midnightblue" stroke="midnightblue" points="356.6,-73.3 366.23,-68.89 355.95,-66.33 356.6,-73.3"/>
</g>
<!-- Node71&#45;&gt;Node18 -->
<g id="edge117" class="edge">
<title>Node71&#45;&gt;Node18</title>
<path fill="none" stroke="midnightblue" d="M1123.52,-483.76C1030.71,-471.31 840.91,-440.08 801.82,-389 763.2,-338.53 786.38,-307.65 801.82,-246 804.76,-234.26 811.01,-222.27 816.76,-212.92"/>
<polygon fill="midnightblue" stroke="midnightblue" points="819.88,-214.54 822.4,-204.25 814.01,-210.72 819.88,-214.54"/>
</g>
<!-- Node71&#45;&gt;Node54 -->
<g id="edge121" class="edge">
<title>Node71&#45;&gt;Node54</title>
<path fill="none" stroke="midnightblue" d="M1123.6,-486.04C1046.06,-479.51 902.94,-465.14 855.82,-445 818.87,-429.2 810.53,-419.9 784.82,-389 748.84,-345.75 739.33,-331.62 725.82,-277 715.37,-234.72 715.24,-221.25 725.82,-179 728.76,-167.26 735.01,-155.27 740.76,-145.92"/>
<polygon fill="midnightblue" stroke="midnightblue" points="743.88,-147.54 746.4,-137.25 738.01,-143.72 743.88,-147.54"/>
</g>
<!-- Node71&#45;&gt;Node63 -->
<g id="edge118" class="edge">
<title>Node71&#45;&gt;Node63</title>
<path fill="none" stroke="midnightblue" d="M1188.3,-481.49C1201.32,-472.98 1221.3,-459.16 1236.82,-445 1297.44,-389.72 1358.4,-312.96 1384.12,-279.37"/>
<polygon fill="midnightblue" stroke="midnightblue" points="1387.14,-281.18 1390.41,-271.1 1381.57,-276.94 1387.14,-281.18"/>
</g>
<!-- Node71&#45;&gt;Node68 -->
<g id="edge119" class="edge">
<title>Node71&#45;&gt;Node68</title>
<path fill="none" stroke="midnightblue" d="M1174.82,-481.08C1174.82,-474.01 1174.82,-463.86 1174.82,-454.99"/>
<polygon fill="midnightblue" stroke="midnightblue" points="1178.32,-454.75 1174.82,-444.75 1171.32,-454.75 1178.32,-454.75"/>
</g>
<!-- Node71&#45;&gt;Node69 -->
<g id="edge120" class="edge">
<title>Node71&#45;&gt;Node69</title>
<path fill="none" stroke="midnightblue" d="M1155.24,-481.32C1132.82,-470.02 1100.64,-448.9 1112.82,-425 1119.82,-411.27 1133.19,-400.75 1145.72,-393.35"/>
<polygon fill="midnightblue" stroke="midnightblue" points="1147.5,-396.37 1154.6,-388.51 1144.15,-390.22 1147.5,-396.37"/>
</g>
<!-- Node72&#45;&gt;Node4 -->
<g id="edge124" class="edge">
<title>Node72&#45;&gt;Node4</title>
<path fill="none" stroke="midnightblue" d="M2418.12,-543C2405.64,-540.61 2391.7,-538.31 2378.82,-537 2324.73,-531.51 466.15,-532.49 421.82,-501 396.72,-483.16 397.82,-466.8 397.82,-436 397.82,-436 397.82,-436 397.82,-193.5 397.82,-155.74 392.36,-135.62 421.82,-112 469.07,-74.11 882.73,-68.09 1033.85,-67.16"/>
<polygon fill="midnightblue" stroke="midnightblue" points="1034.29,-70.66 1044.27,-67.1 1034.25,-63.66 1034.29,-70.66"/>
</g>
<!-- Node72&#45;&gt;Node7 -->
<g id="edge123" class="edge">
<title>Node72&#45;&gt;Node7</title>
<path fill="none" stroke="midnightblue" d="M2458.82,-542.88C2471.83,-488.93 2550.33,-197.21 2743.82,-112 2908.4,-39.52 4210.03,-16.27 4510.9,-11.84"/>
<polygon fill="midnightblue" stroke="midnightblue" points="4511.23,-15.34 4521.18,-11.69 4511.13,-8.34 4511.23,-15.34"/>
</g>
<!-- Node72&#45;&gt;Node17 -->
<g id="edge125" class="edge">
<title>Node72&#45;&gt;Node17</title>
<path fill="none" stroke="midnightblue" d="M2436.19,-542.98C2411.7,-532.86 2370.68,-515.9 2342.71,-504.35"/>
<polygon fill="midnightblue" stroke="midnightblue" points="2344,-501.09 2333.42,-500.51 2341.32,-507.56 2344,-501.09"/>
</g>
<!-- Node72&#45;&gt;Node23 -->
<g id="edge126" class="edge">
<title>Node72&#45;&gt;Node23</title>
<path fill="none" stroke="midnightblue" d="M2500.48,-542.94C2511.65,-540.87 2523.67,-538.76 2534.82,-537 2658.33,-517.57 2694.62,-538.71 2813.82,-501 2832.02,-495.24 2834.75,-489.53 2851.82,-481 2885.26,-464.29 2895.79,-464.26 2927.82,-445 3054.66,-368.73 3069.12,-324.13 3194.82,-246 3217.78,-231.73 3245.25,-217.96 3265.43,-208.41"/>
<polygon fill="midnightblue" stroke="midnightblue" points="3267.12,-211.48 3274.7,-204.08 3264.15,-205.14 3267.12,-211.48"/>
</g>
<!-- Node72&#45;&gt;Node70 -->
<g id="edge127" class="edge">
<title>Node72&#45;&gt;Node70</title>
<path fill="none" stroke="midnightblue" d="M2464.23,-542.86C2493.25,-509 2599.49,-385.05 2637.87,-340.27"/>
<polygon fill="midnightblue" stroke="midnightblue" points="2640.56,-342.52 2644.41,-332.65 2635.24,-337.96 2640.56,-342.52"/>
</g>
<!-- Node73&#45;&gt;Node4 -->
<g id="edge130" class="edge">
<title>Node73&#45;&gt;Node4</title>
<path fill="none" stroke="midnightblue" d="M2759.81,-542.99C2742.1,-540.76 2722.72,-538.55 2704.82,-537 2652.04,-532.43 845.35,-472.09 799.82,-445 665.01,-364.79 578.19,-228.87 682.82,-112 705.86,-86.27 928.84,-73.65 1034.2,-69.08"/>
<polygon fill="midnightblue" stroke="midnightblue" points="1034.48,-72.57 1044.32,-68.65 1034.18,-65.57 1034.48,-72.57"/>
</g>
<!-- Node73&#45;&gt;Node7 -->
<g id="edge129" class="edge">
<title>Node73&#45;&gt;Node7</title>
<path fill="none" stroke="midnightblue" d="M2866.18,-542.97C2876.88,-540.99 2888.25,-538.9 2898.82,-537 3065.09,-507.12 4238.29,-335.35 4396.82,-277 4463.67,-252.4 4534.82,-266.73 4534.82,-195.5 4534.82,-195.5 4534.82,-195.5 4534.82,-126.5 4534.82,-90.25 4551.92,-50.67 4563.18,-28.53"/>
<polygon fill="midnightblue" stroke="midnightblue" points="4566.28,-30.14 4567.86,-19.66 4560.09,-26.87 4566.28,-30.14"/>
</g>
<!-- Node73&#45;&gt;Node17 -->
<g id="edge131" class="edge">
<title>Node73&#45;&gt;Node17</title>
<path fill="none" stroke="midnightblue" d="M2753.67,-542.99C2737.67,-540.99 2720.64,-538.9 2704.82,-537 2586.84,-522.85 2448.77,-507.22 2372,-498.61"/>
<polygon fill="midnightblue" stroke="midnightblue" points="2372.37,-495.12 2362.04,-497.49 2371.59,-502.08 2372.37,-495.12"/>
</g>
<!-- Node73&#45;&gt;Node23 -->
<g id="edge132" class="edge">
<title>Node73&#45;&gt;Node23</title>
<path fill="none" stroke="midnightblue" d="M2851.76,-543C2937.77,-518.81 3177.04,-447.55 3231.82,-389 3279,-338.58 3290.28,-252.13 3292.98,-214.23"/>
<polygon fill="midnightblue" stroke="midnightblue" points="3296.48,-214.31 3293.57,-204.12 3289.49,-213.9 3296.48,-214.31"/>
</g>
<!-- Node73&#45;&gt;Node70 -->
<g id="edge133" class="edge">
<title>Node73&#45;&gt;Node70</title>
<path fill="none" stroke="midnightblue" d="M2822.9,-542.74C2827.55,-521.02 2836.67,-463.62 2813.82,-425 2786.48,-378.78 2728.86,-350.61 2690.23,-336.16"/>
<polygon fill="midnightblue" stroke="midnightblue" points="2690.97,-332.7 2680.37,-332.61 2688.59,-339.29 2690.97,-332.7"/>
</g>
<!-- Node74&#45;&gt;Node4 -->
<g id="edge136" class="edge">
<title>Node74&#45;&gt;Node4</title>
<path fill="none" stroke="midnightblue" d="M2906.96,-538.56C2904.21,-538.03 2901.49,-537.51 2898.82,-537 2399.16,-442.12 2270.24,-439.04 1772.82,-333 1670.77,-311.24 1644.41,-308.15 1544.82,-277 1508.03,-265.49 1501.29,-255.06 1463.82,-246 1392.34,-228.71 1196.93,-249.4 1134.82,-210 1105.34,-191.3 1104.39,-176.27 1093.82,-143 1087.83,-124.14 1087.14,-101.35 1087.59,-85.68"/>
<polygon fill="midnightblue" stroke="midnightblue" points="1091.09,-85.84 1088.07,-75.68 1084.1,-85.5 1091.09,-85.84"/>
</g>
<!-- Node74&#45;&gt;Node7 -->
<g id="edge135" class="edge">
<title>Node74&#45;&gt;Node7</title>
<path fill="none" stroke="midnightblue" d="M3036.34,-538.51C3039.54,-537.98 3042.72,-537.47 3045.82,-537 3195.2,-514.45 3234.42,-523.41 3383.82,-501 3492.28,-484.73 4245.05,-333.35 4352.82,-313 4439.85,-296.57 4483,-336.26 4548.82,-277 4576.88,-251.73 4572.82,-233.26 4572.82,-195.5 4572.82,-195.5 4572.82,-195.5 4572.82,-126.5 4572.82,-92.36 4572.82,-52.55 4572.82,-29.71"/>
<polygon fill="midnightblue" stroke="midnightblue" points="4576.32,-29.69 4572.82,-19.69 4569.32,-29.69 4576.32,-29.69"/>
</g>
<!-- Node74&#45;&gt;Node23 -->
<g id="edge138" class="edge">
<title>Node74&#45;&gt;Node23</title>
<path fill="none" stroke="midnightblue" d="M3032.03,-537.5C3076.89,-526.59 3133.99,-511.59 3155.82,-501 3231.33,-464.39 3269.98,-463.9 3307.82,-389 3337.28,-330.7 3314.07,-249.68 3301.09,-213.82"/>
<polygon fill="midnightblue" stroke="midnightblue" points="3304.27,-212.34 3297.45,-204.22 3297.72,-214.81 3304.27,-212.34"/>
</g>
<!-- Node74&#45;&gt;Node70 -->
<g id="edge139" class="edge">
<title>Node74&#45;&gt;Node70</title>
<path fill="none" stroke="midnightblue" d="M2961.11,-537.47C2934.64,-503.73 2862.57,-417.23 2783.82,-369 2758.4,-353.43 2726.89,-342.42 2701.03,-335.2"/>
<polygon fill="midnightblue" stroke="midnightblue" points="2701.62,-331.73 2691.06,-332.52 2699.81,-338.49 2701.62,-331.73"/>
</g>
<!-- Node74&#45;&gt;Node71 -->
<g id="edge137" class="edge">
<title>Node74&#45;&gt;Node71</title>
<path fill="none" stroke="midnightblue" d="M2907.03,-538.04C2904.27,-537.65 2901.52,-537.3 2898.82,-537 2566.83,-499.97 1503.74,-493.3 1236.32,-492.2"/>
<polygon fill="midnightblue" stroke="midnightblue" points="1236.05,-488.7 1226.03,-492.16 1236.02,-495.7 1236.05,-488.7"/>
</g>
<!-- Node75&#45;&gt;Node4 -->
<g id="edge144" class="edge">
<title>Node75&#45;&gt;Node4</title>
<path fill="none" stroke="midnightblue" d="M3224.63,-538.7C3221.66,-538.11 3218.71,-537.54 3215.82,-537 3142.39,-523.31 1960.01,-347.96 1886.82,-333 1851.76,-325.83 1843.75,-320.81 1808.82,-313 1725.8,-294.43 1700.92,-305.66 1620.82,-277 1593.67,-267.28 1591.27,-254.85 1563.82,-246 1442.74,-206.93 1399.92,-252.02 1279.82,-210 1252.81,-200.55 1192.6,-160.33 1169.82,-143 1145.25,-124.31 1119.74,-99.27 1104.06,-83.14"/>
<polygon fill="midnightblue" stroke="midnightblue" points="1106.27,-80.38 1096.82,-75.59 1101.22,-85.23 1106.27,-80.38"/>
</g>
<!-- Node75&#45;&gt;Node7 -->
<g id="edge143" class="edge">
<title>Node75&#45;&gt;Node7</title>
<path fill="none" stroke="midnightblue" d="M3338.95,-541.57C3348.26,-540 3357.8,-538.43 3366.82,-537 3475.52,-519.75 3503.58,-520.89 3611.82,-501 3725.2,-480.16 4540.56,-355.66 4624.82,-277 4652.43,-251.23 4648.82,-233.26 4648.82,-195.5 4648.82,-195.5 4648.82,-195.5 4648.82,-126.5 4648.82,-93.4 4643.31,-83.45 4624.82,-56 4616.9,-44.24 4605.14,-33.71 4594.81,-25.8"/>
<polygon fill="midnightblue" stroke="midnightblue" points="4596.72,-22.86 4586.58,-19.79 4592.59,-28.51 4596.72,-22.86"/>
</g>
<!-- Node75&#45;&gt;Node17 -->
<g id="edge145" class="edge">
<title>Node75&#45;&gt;Node17</title>
<path fill="none" stroke="midnightblue" d="M3224.69,-538.34C3221.7,-537.84 3218.73,-537.39 3215.82,-537 2899.8,-494.71 2516.77,-491.2 2372.03,-491.55"/>
<polygon fill="midnightblue" stroke="midnightblue" points="2372.02,-488.05 2362.03,-491.59 2372.04,-495.05 2372.02,-488.05"/>
</g>
<!-- Node75&#45;&gt;Node23 -->
<g id="edge146" class="edge">
<title>Node75&#45;&gt;Node23</title>
<path fill="none" stroke="midnightblue" d="M3339.02,-539.6C3366.12,-531.89 3397.74,-519.7 3421.82,-501 3445.58,-482.55 3450.99,-473.75 3459.82,-445 3479.6,-380.64 3550.25,-397.83 3421.82,-246 3405.14,-226.28 3379.73,-214.21 3355.92,-206.85"/>
<polygon fill="midnightblue" stroke="midnightblue" points="3356.78,-203.45 3346.21,-204.06 3354.85,-210.18 3356.78,-203.45"/>
</g>
<!-- Node75&#45;&gt;Node70 -->
<g id="edge147" class="edge">
<title>Node75&#45;&gt;Node70</title>
<path fill="none" stroke="midnightblue" d="M3249.52,-537.44C3216.49,-523.11 3163.67,-500.29 3117.82,-481 2997.32,-430.29 2970.36,-408.79 2845.82,-369 2800.32,-354.46 2747.43,-342.51 2708.38,-334.59"/>
<polygon fill="midnightblue" stroke="midnightblue" points="2708.75,-331.09 2698.26,-332.56 2707.37,-337.95 2708.75,-331.09"/>
</g>
<!-- Node76&#45;&gt;Node4 -->
<g id="edge150" class="edge">
<title>Node76&#45;&gt;Node4</title>
<path fill="none" stroke="midnightblue" d="M2255.46,-549.69C2164.84,-546.85 1983.03,-541.23 1828.82,-537 1748.55,-534.8 457.25,-533.52 383.82,-501 347.32,-484.83 321.82,-475.92 321.82,-436 321.82,-436 321.82,-436 321.82,-193.5 321.82,-147.99 343.71,-133.5 383.82,-112 440.52,-81.61 877.8,-70.81 1033.78,-67.9"/>
<polygon fill="midnightblue" stroke="midnightblue" points="1034.14,-71.39 1044.07,-67.71 1034.01,-64.39 1034.14,-71.39"/>
</g>
<!-- Node76&#45;&gt;Node7 -->
<g id="edge149" class="edge">
<title>Node76&#45;&gt;Node7</title>
<path fill="none" stroke="midnightblue" d="M2255.6,-547.77C2092.14,-536.34 1634.82,-498.76 1634.82,-436 1634.82,-436 1634.82,-436 1634.82,-378 1634.82,-180.84 1144.8,-255.66 1279.82,-112 1337.35,-50.8 4063.29,-16.86 4510.93,-11.69"/>
<polygon fill="midnightblue" stroke="midnightblue" points="4511.12,-15.19 4521.08,-11.58 4511.04,-8.19 4511.12,-15.19"/>
</g>
<!-- Node76&#45;&gt;Node17 -->
<g id="edge151" class="edge">
<title>Node76&#45;&gt;Node17</title>
<path fill="none" stroke="midnightblue" d="M2312.82,-537.4C2312.82,-529.47 2312.82,-519.46 2312.82,-510.86"/>
<polygon fill="midnightblue" stroke="midnightblue" points="2316.32,-510.66 2312.82,-500.66 2309.32,-510.66 2316.32,-510.66"/>
</g>
<!-- Node76&#45;&gt;Node23 -->
<g id="edge152" class="edge">
<title>Node76&#45;&gt;Node23</title>
<path fill="none" stroke="midnightblue" d="M2349.96,-537.43C2466.53,-493.36 2835.72,-354.47 3143.82,-246 3182.71,-232.31 3227.54,-217.32 3257.99,-207.26"/>
<polygon fill="midnightblue" stroke="midnightblue" points="3259.33,-210.5 3267.73,-204.04 3257.14,-203.85 3259.33,-210.5"/>
</g>
<!-- Node76&#45;&gt;Node70 -->
<g id="edge153" class="edge">
<title>Node76&#45;&gt;Node70</title>
<path fill="none" stroke="midnightblue" d="M2333.77,-537.44C2394.33,-496.8 2569.14,-379.49 2630.35,-338.41"/>
<polygon fill="midnightblue" stroke="midnightblue" points="2632.49,-341.19 2638.84,-332.71 2628.59,-335.38 2632.49,-341.19"/>
</g>
<!-- Node77&#45;&gt;Node4 -->
<g id="edge156" class="edge">
<title>Node77&#45;&gt;Node4</title>
<path fill="none" stroke="midnightblue" d="M3080.93,-542.99C3069.4,-541.02 3057.19,-538.94 3045.82,-537 2513.83,-446.29 2378.97,-433.94 1848.82,-333 1789.48,-321.7 1640.04,-296.36 1582.82,-277 1552.51,-266.74 1548.53,-255.04 1517.82,-246 1397.47,-210.55 1355.87,-252.52 1237.82,-210 1185.39,-191.11 1170.26,-183.36 1131.82,-143 1115.7,-126.07 1103.4,-101.96 1096.16,-85.46"/>
<polygon fill="midnightblue" stroke="midnightblue" points="1099.24,-83.74 1092.15,-75.87 1092.78,-86.45 1099.24,-83.74"/>
</g>
<!-- Node77&#45;&gt;Node7 -->
<g id="edge155" class="edge">
<title>Node77&#45;&gt;Node7</title>
<path fill="none" stroke="midnightblue" d="M3178.87,-542.94C3190.92,-540.9 3203.83,-538.79 3215.82,-537 3340.79,-518.37 3373.19,-521.74 3497.82,-501 3528.29,-495.93 4564.09,-297.91 4586.82,-277 4614.61,-251.44 4610.82,-233.26 4610.82,-195.5 4610.82,-195.5 4610.82,-195.5 4610.82,-126.5 4610.82,-90.25 4593.73,-50.67 4582.47,-28.53"/>
<polygon fill="midnightblue" stroke="midnightblue" points="4585.55,-26.87 4577.79,-19.66 4579.36,-30.14 4585.55,-26.87"/>
</g>
<!-- Node77&#45;&gt;Node17 -->
<g id="edge157" class="edge">
<title>Node77&#45;&gt;Node17</title>
<path fill="none" stroke="midnightblue" d="M3086.4,-542.99C3073.36,-540.75 3059.06,-538.53 3045.82,-537 2796.36,-508.15 2496.86,-497.06 2371.99,-493.47"/>
<polygon fill="midnightblue" stroke="midnightblue" points="2371.97,-489.97 2361.88,-493.19 2371.78,-496.97 2371.97,-489.97"/>
</g>
<!-- Node77&#45;&gt;Node23 -->
<g id="edge158" class="edge">
<title>Node77&#45;&gt;Node23</title>
<path fill="none" stroke="midnightblue" d="M3152.56,-542.86C3199.27,-523.13 3309.47,-470.09 3364.82,-389 3400.97,-336.05 3416.22,-301.33 3383.82,-246 3373.11,-227.7 3353.06,-215.53 3334.6,-207.73"/>
<polygon fill="midnightblue" stroke="midnightblue" points="3335.74,-204.41 3325.15,-204.04 3333.19,-210.93 3335.74,-204.41"/>
</g>
<!-- Node77&#45;&gt;Node70 -->
<g id="edge159" class="edge">
<title>Node77&#45;&gt;Node70</title>
<path fill="none" stroke="midnightblue" d="M3118.34,-542.84C3076.7,-514.28 2938.04,-421.91 2811.82,-369 2776.4,-354.15 2734.57,-342.58 2702.56,-334.89"/>
<polygon fill="midnightblue" stroke="midnightblue" points="2703.07,-331.42 2692.53,-332.53 2701.46,-338.23 2703.07,-331.42"/>
</g>
<!-- Node78&#45;&gt;Node4 -->
<g id="edge162" class="edge">
<title>Node78&#45;&gt;Node4</title>
<path fill="none" stroke="midnightblue" d="M2577.18,-542.99C2563.69,-540.63 2548.68,-538.35 2534.82,-537 1906.49,-475.76 1743.41,-559.57 1114.82,-501 959.72,-486.55 911.54,-507.44 768.82,-445 609.81,-375.43 447.46,-239.87 564.82,-112 596.09,-77.94 905.93,-69.6 1033.93,-67.61"/>
<polygon fill="midnightblue" stroke="midnightblue" points="1034.34,-71.11 1044.29,-67.46 1034.24,-64.11 1034.34,-71.11"/>
</g>
<!-- Node78&#45;&gt;Node7 -->
<g id="edge161" class="edge">
<title>Node78&#45;&gt;Node7</title>
<path fill="none" stroke="midnightblue" d="M2677.98,-542.97C2926.15,-506.31 3897.31,-360.3 4194.82,-277 4273.43,-254.99 4297.08,-254.02 4365.82,-210 4449.77,-156.24 4528.87,-65.05 4559.48,-27.7"/>
<polygon fill="midnightblue" stroke="midnightblue" points="4562.3,-29.78 4565.88,-19.8 4556.87,-25.37 4562.3,-29.78"/>
</g>
<!-- Node78&#45;&gt;Node17 -->
<g id="edge163" class="edge">
<title>Node78&#45;&gt;Node17</title>
<path fill="none" stroke="midnightblue" d="M2575.84,-542.98C2520.67,-532.28 2426.12,-513.96 2366.68,-502.44"/>
<polygon fill="midnightblue" stroke="midnightblue" points="2367.21,-498.98 2356.73,-500.51 2365.88,-505.85 2367.21,-498.98"/>
</g>
<!-- Node78&#45;&gt;Node23 -->
<g id="edge164" class="edge">
<title>Node78&#45;&gt;Node23</title>
<path fill="none" stroke="midnightblue" d="M2677.62,-542.92C2725.21,-534.92 2794.02,-521.15 2851.82,-501 2878.47,-491.71 2941.81,-459.84 2965.82,-445 3091.88,-367.11 3228.65,-251.95 3276.3,-210.8"/>
<polygon fill="midnightblue" stroke="midnightblue" points="3278.87,-213.2 3284.13,-204.01 3274.28,-207.91 3278.87,-213.2"/>
</g>
<!-- Node78&#45;&gt;Node70 -->
<g id="edge165" class="edge">
<title>Node78&#45;&gt;Node70</title>
<path fill="none" stroke="midnightblue" d="M2621.04,-542.86C2625.72,-509.57 2642.66,-389.15 2649.21,-342.57"/>
<polygon fill="midnightblue" stroke="midnightblue" points="2652.68,-343.04 2650.61,-332.65 2645.75,-342.06 2652.68,-343.04"/>
</g>
<!-- Node79&#45;&gt;Node4 -->
<g id="edge168" class="edge">
<title>Node79&#45;&gt;Node4</title>
<path fill="none" stroke="midnightblue" d="M3375.49,-541.32C3366.21,-539.87 3356.77,-538.39 3347.82,-537 3324.28,-533.34 1674.02,-285.67 1651.82,-277 1628.86,-268.03 1628.79,-254.97 1605.82,-246 1506.99,-207.42 1472.27,-237.63 1369.82,-210 1291.41,-188.86 1269.05,-185.46 1199.82,-143 1182.11,-132.14 1181.62,-124.24 1164.82,-112 1148.71,-100.26 1129.36,-88.84 1114.22,-80.44"/>
<polygon fill="midnightblue" stroke="midnightblue" points="1115.86,-77.34 1105.4,-75.62 1112.5,-83.49 1115.86,-77.34"/>
</g>
<!-- Node79&#45;&gt;Node7 -->
<g id="edge167" class="edge">
<title>Node79&#45;&gt;Node7</title>
<path fill="none" stroke="midnightblue" d="M3504.07,-542.92C3519.39,-540.93 3535.68,-538.85 3550.82,-537 3909.58,-493.15 4014.52,-554.95 4358.82,-445 4377.2,-439.13 4650.75,-292.05 4662.82,-277 4686.45,-247.55 4686.82,-233.26 4686.82,-195.5 4686.82,-195.5 4686.82,-195.5 4686.82,-126.5 4686.82,-93.4 4684.59,-80.94 4662.82,-56 4649.64,-40.9 4630.19,-30.29 4612.75,-23.19"/>
<polygon fill="midnightblue" stroke="midnightblue" points="4613.9,-19.88 4603.31,-19.59 4611.41,-26.43 4613.9,-19.88"/>
</g>
<!-- Node79&#45;&gt;Node17 -->
<g id="edge169" class="edge">
<title>Node79&#45;&gt;Node17</title>
<path fill="none" stroke="midnightblue" d="M3375.6,-540.43C3366.3,-539.1 3356.83,-537.9 3347.82,-537 2977.89,-499.93 2530.55,-493.38 2372.01,-492.24"/>
<polygon fill="midnightblue" stroke="midnightblue" points="2372.01,-488.74 2361.99,-492.17 2371.96,-495.74 2372.01,-488.74"/>
</g>
<!-- Node79&#45;&gt;Node23 -->
<g id="edge170" class="edge">
<title>Node79&#45;&gt;Node23</title>
<path fill="none" stroke="midnightblue" d="M3490.6,-537.44C3559.42,-516.86 3673.82,-476.55 3673.82,-436 3673.82,-436 3673.82,-436 3673.82,-322 3673.82,-258.37 3479.57,-221.06 3368.83,-204.96"/>
<polygon fill="midnightblue" stroke="midnightblue" points="3369.11,-201.47 3358.72,-203.52 3368.12,-208.4 3369.11,-201.47"/>
</g>
<!-- Node79&#45;&gt;Node70 -->
<g id="edge171" class="edge">
<title>Node79&#45;&gt;Node70</title>
<path fill="none" stroke="midnightblue" d="M3417.74,-537.33C3375.82,-511.08 3281.07,-454.84 3193.82,-425 3025.27,-367.34 2815.34,-340.14 2713.27,-329.58"/>
<polygon fill="midnightblue" stroke="midnightblue" points="2713.45,-326.08 2703.14,-328.55 2712.74,-333.05 2713.45,-326.08"/>
</g>
<!-- Node80&#45;&gt;Node4 -->
<g id="edge174" class="edge">
<title>Node80&#45;&gt;Node4</title>
<path fill="none" stroke="midnightblue" d="M3586.13,-537.45C3553.23,-522.61 3499.33,-498.93 3451.82,-481 3293.47,-421.21 3253.21,-405.02 3087.82,-369 2922.74,-333.05 2879.85,-330.67 2711.82,-313 2453.64,-285.85 2385.58,-315.35 2128.82,-277 2002.27,-258.1 1973.12,-240.41 1848.82,-210 1729.56,-180.82 1699.88,-173.01 1580.82,-143 1526.57,-129.33 1513.81,-122.29 1458.82,-112 1347.88,-91.25 1216.36,-77.88 1143.8,-71.47"/>
<polygon fill="midnightblue" stroke="midnightblue" points="1143.79,-67.96 1133.53,-70.58 1143.19,-74.93 1143.79,-67.96"/>
</g>
<!-- Node80&#45;&gt;Node7 -->
<g id="edge173" class="edge">
<title>Node80&#45;&gt;Node7</title>
<path fill="none" stroke="midnightblue" d="M3673.86,-544.17C3694.88,-541.64 3718.91,-538.96 3740.82,-537 3869.45,-525.5 4197.35,-538.83 4320.82,-501 4332.54,-497.41 4693.29,-286.66 4700.82,-277 4724.04,-247.22 4724.82,-233.26 4724.82,-195.5 4724.82,-195.5 4724.82,-195.5 4724.82,-126.5 4724.82,-93.4 4724.11,-79.52 4700.82,-56 4683.06,-38.06 4657.73,-27.25 4634.29,-20.75"/>
<polygon fill="midnightblue" stroke="midnightblue" points="4634.94,-17.3 4624.38,-18.22 4633.2,-24.09 4634.94,-17.3"/>
</g>
<!-- Node80&#45;&gt;Node17 -->
<g id="edge175" class="edge">
<title>Node80&#45;&gt;Node17</title>
<path fill="none" stroke="midnightblue" d="M3559.72,-542.48C3544.52,-540.37 3528.08,-538.35 3512.82,-537 3076.07,-498.46 2547.04,-492.87 2372.11,-492.11"/>
<polygon fill="midnightblue" stroke="midnightblue" points="2372.1,-488.61 2362.09,-492.07 2372.07,-495.61 2372.1,-488.61"/>
</g>
<!-- Node80&#45;&gt;Node23 -->
<g id="edge176" class="edge">
<title>Node80&#45;&gt;Node23</title>
<path fill="none" stroke="midnightblue" d="M3654.94,-537.38C3694.24,-520.06 3749.82,-486.61 3749.82,-436 3749.82,-436 3749.82,-436 3749.82,-322 3749.82,-243.91 3498.37,-212.04 3368.91,-200.81"/>
<polygon fill="midnightblue" stroke="midnightblue" points="3368.93,-197.3 3358.67,-199.94 3368.34,-204.27 3368.93,-197.3"/>
</g>
<!-- Node80&#45;&gt;Node70 -->
<g id="edge177" class="edge">
<title>Node80&#45;&gt;Node70</title>
<path fill="none" stroke="midnightblue" d="M3576.29,-537.49C3463.12,-498.58 3144.99,-390.63 3036.82,-369 2923.85,-346.41 2789.8,-333.91 2713.38,-328.11"/>
<polygon fill="midnightblue" stroke="midnightblue" points="2713.23,-324.59 2702.99,-327.33 2712.7,-331.57 2713.23,-324.59"/>
</g>
<!-- Node81&#45;&gt;Node4 -->
<g id="edge180" class="edge">
<title>Node81&#45;&gt;Node4</title>
<path fill="none" stroke="midnightblue" d="M3786.8,-537.33C3763.99,-521.72 3725.17,-496.76 3688.82,-481 3487.44,-393.69 3424.25,-405.58 3207.82,-369 3033.86,-339.59 2990.4,-330.32 2814.82,-313 2526.01,-284.5 2447.99,-330.91 2162.82,-277 2119.6,-268.83 2111.43,-256.97 2068.82,-246 1984.74,-224.36 1960.16,-234.33 1876.82,-210 1841.41,-199.66 1835.23,-189.36 1799.82,-179 1716.91,-154.75 1691.62,-167.63 1608.82,-143 1574.25,-132.72 1568.8,-120.8 1533.82,-112 1461.29,-93.76 1245.95,-77.49 1143.79,-70.55"/>
<polygon fill="midnightblue" stroke="midnightblue" points="1143.88,-67.05 1133.67,-69.87 1143.41,-74.04 1143.88,-67.05"/>
</g>
<!-- Node81&#45;&gt;Node7 -->
<g id="edge179" class="edge">
<title>Node81&#45;&gt;Node7</title>
<path fill="none" stroke="midnightblue" d="M3863.88,-543.68C3931,-534.32 4045.71,-517.78 4143.82,-501 4446.22,-449.27 4762.82,-502.29 4762.82,-195.5 4762.82,-195.5 4762.82,-195.5 4762.82,-126.5 4762.82,-93.4 4762.96,-78.65 4738.82,-56 4710.88,-29.78 4669.24,-18.54 4634.65,-13.85"/>
<polygon fill="midnightblue" stroke="midnightblue" points="4634.98,-10.36 4624.64,-12.64 4634.15,-17.31 4634.98,-10.36"/>
</g>
<!-- Node81&#45;&gt;Node17 -->
<g id="edge181" class="edge">
<title>Node81&#45;&gt;Node17</title>
<path fill="none" stroke="midnightblue" d="M3749.82,-543.82C3728.8,-541.26 3704.76,-538.64 3682.82,-537 3176.57,-499.15 2562.73,-493.13 2372.14,-492.18"/>
<polygon fill="midnightblue" stroke="midnightblue" points="2372.07,-488.68 2362.05,-492.13 2372.03,-495.68 2372.07,-488.68"/>
</g>
<!-- Node81&#45;&gt;Node23 -->
<g id="edge182" class="edge">
<title>Node81&#45;&gt;Node23</title>
<path fill="none" stroke="midnightblue" d="M3864.18,-544.2C3995.51,-525.88 4306.82,-472.69 4306.82,-380 4306.82,-380 4306.82,-380 4306.82,-322 4306.82,-227.42 3602.57,-202.62 3368.47,-196.98"/>
<polygon fill="midnightblue" stroke="midnightblue" points="3368.42,-193.48 3358.35,-196.75 3368.26,-200.48 3368.42,-193.48"/>
</g>
<!-- Node81&#45;&gt;Node70 -->
<g id="edge183" class="edge">
<title>Node81&#45;&gt;Node70</title>
<path fill="none" stroke="midnightblue" d="M3780.32,-537.37C3749.68,-521.56 3697.35,-496.19 3649.82,-481 3306.52,-371.26 2871.33,-336.54 2712.96,-327.11"/>
<polygon fill="midnightblue" stroke="midnightblue" points="2713.12,-323.61 2702.93,-326.52 2712.71,-330.6 2713.12,-323.61"/>
</g>
</g>
</svg>
