<?xml version="1.0" encoding="UTF-8" standalone="no"?>
<!DOCTYPE svg PUBLIC "-//W3C//DTD SVG 1.1//EN"
 "http://www.w3.org/Graphics/SVG/1.1/DTD/svg11.dtd">
<!-- Generated by graphviz version 2.48.0 (20210719.0153)
 -->
<!-- Title: Kratos::IdentityFunction&lt; TDataType &gt; Pages: 1 -->
<svg width="141pt" height="193pt"
 viewBox="0.00 0.00 141.00 193.00" xmlns="http://www.w3.org/2000/svg" xmlns:xlink="http://www.w3.org/1999/xlink">
<g id="graph0" class="graph" transform="scale(1 1) rotate(0) translate(4 189)">
<title>Kratos::IdentityFunction&lt; TDataType &gt;</title>
<!-- Node1 -->
<g id="node1" class="node">
<title>Node1</title>
<g id="a_node1"><a xlink:title=" ">
<polygon fill="#bfbfbf" stroke="black" points="7,-0.5 7,-79.5 126,-79.5 126,-0.5 7,-0.5"/>
<text text-anchor="start" x="15" y="-67.5" font-family="Helvetica,sans-Serif" font-size="10.00">Kratos::IdentityFunction</text>
<text text-anchor="middle" x="66.5" y="-56.5" font-family="Helvetica,sans-Serif" font-size="10.00">&lt; TDataType &gt;</text>
<polyline fill="none" stroke="black" points="7,-49.5 126,-49.5 "/>
<text text-anchor="middle" x="66.5" y="-37.5" font-family="Helvetica,sans-Serif" font-size="10.00"> </text>
<polyline fill="none" stroke="black" points="7,-30.5 126,-30.5 "/>
<text text-anchor="start" x="15" y="-18.5" font-family="Helvetica,sans-Serif" font-size="10.00">+ operator()()</text>
<text text-anchor="start" x="15" y="-7.5" font-family="Helvetica,sans-Serif" font-size="10.00">+ operator()()</text>
</a>
</g>
</g>
<!-- Node2 -->
<g id="node2" class="node">
<title>Node2</title>
<g id="a_node2"><a xlink:title=" ">
<polygon fill="none" stroke="#bfbfbf" points="0,-116.5 0,-184.5 133,-184.5 133,-116.5 0,-116.5"/>
<text text-anchor="start" x="8" y="-172.5" font-family="Helvetica,sans-Serif" font-size="10.00">std::unary_function</text>
<text text-anchor="middle" x="66.5" y="-161.5" font-family="Helvetica,sans-Serif" font-size="10.00">&lt; TDataType, TDataType &gt;</text>
<polyline fill="none" stroke="#bfbfbf" points="0,-154.5 133,-154.5 "/>
<text text-anchor="middle" x="66.5" y="-142.5" font-family="Helvetica,sans-Serif" font-size="10.00"> </text>
<polyline fill="none" stroke="#bfbfbf" points="0,-135.5 133,-135.5 "/>
<text text-anchor="middle" x="66.5" y="-123.5" font-family="Helvetica,sans-Serif" font-size="10.00"> </text>
</a>
</g>
</g>
<!-- Node2&#45;&gt;Node1 -->
<g id="edge1" class="edge">
<title>Node2&#45;&gt;Node1</title>
<path fill="none" stroke="midnightblue" d="M66.5,-106.27C66.5,-97.48 66.5,-88.28 66.5,-79.65"/>
<polygon fill="none" stroke="midnightblue" points="63,-106.36 66.5,-116.36 70,-106.36 63,-106.36"/>
</g>
</g>
</svg>
