<?xml version="1.0" encoding="UTF-8" standalone="no"?>
<!DOCTYPE svg PUBLIC "-//W3C//DTD SVG 1.1//EN"
 "http://www.w3.org/Graphics/SVG/1.1/DTD/svg11.dtd">
<!-- Generated by graphviz version 2.48.0 (20210719.0153)
 -->
<!-- Title: /github/workspace/kratos/linear_solvers/ilu0_preconditioner.h Pages: 1 -->
<svg width="580pt" height="218pt"
 viewBox="0.00 0.00 579.50 218.00" xmlns="http://www.w3.org/2000/svg" xmlns:xlink="http://www.w3.org/1999/xlink">
<g id="graph0" class="graph" transform="scale(1 1) rotate(0) translate(4 214)">
<title>/github/workspace/kratos/linear_solvers/ilu0_preconditioner.h</title>
<!-- Node1 -->
<g id="node1" class="node">
<title>Node1</title>
<g id="a_node1"><a xlink:title=" ">
<polygon fill="#bfbfbf" stroke="black" points="34.5,-179.5 34.5,-209.5 205.5,-209.5 205.5,-179.5 34.5,-179.5"/>
<text text-anchor="start" x="42.5" y="-197.5" font-family="Helvetica,sans-Serif" font-size="10.00">/github/workspace/kratos</text>
<text text-anchor="middle" x="120" y="-186.5" font-family="Helvetica,sans-Serif" font-size="10.00">/linear_solvers/ilu0_preconditioner.h</text>
</a>
</g>
</g>
<!-- Node2 -->
<g id="node2" class="node">
<title>Node2</title>
<g id="a_node2"><a xlink:title=" ">
<polygon fill="none" stroke="#bfbfbf" points="0,-118 0,-137 56,-137 56,-118 0,-118"/>
<text text-anchor="middle" x="28" y="-125" font-family="Helvetica,sans-Serif" font-size="10.00">algorithm</text>
</a>
</g>
</g>
<!-- Node1&#45;&gt;Node2 -->
<g id="edge1" class="edge">
<title>Node1&#45;&gt;Node2</title>
<path fill="none" stroke="midnightblue" d="M100.04,-179.4C84.75,-168.6 63.75,-153.76 48.36,-142.89"/>
<polygon fill="midnightblue" stroke="midnightblue" points="50.23,-139.92 40.04,-137.01 46.19,-145.64 50.23,-139.92"/>
</g>
<!-- Node3 -->
<g id="node3" class="node">
<title>Node3</title>
<g id="a_node3"><a xlink:title=" ">
<polygon fill="none" stroke="#bfbfbf" points="32.5,-0.5 32.5,-19.5 135.5,-19.5 135.5,-0.5 32.5,-0.5"/>
<text text-anchor="middle" x="84" y="-7.5" font-family="Helvetica,sans-Serif" font-size="10.00">boost/smart_ptr.hpp</text>
</a>
</g>
</g>
<!-- Node1&#45;&gt;Node3 -->
<g id="edge2" class="edge">
<title>Node1&#45;&gt;Node3</title>
<path fill="none" stroke="midnightblue" d="M114.38,-179.12C110.67,-169.12 105.96,-155.42 103,-143 93.56,-103.35 88.12,-55.81 85.64,-29.98"/>
<polygon fill="midnightblue" stroke="midnightblue" points="89.1,-29.39 84.71,-19.75 82.13,-30.03 89.1,-29.39"/>
</g>
<!-- Node4 -->
<g id="node4" class="node">
<title>Node4</title>
<g id="a_node4"><a xlink:href="../../df/d67/define_8h.html" target="_top" xlink:title=" ">
<polygon fill="none" stroke="black" points="185.5,-56.5 185.5,-75.5 274.5,-75.5 274.5,-56.5 185.5,-56.5"/>
<text text-anchor="middle" x="230" y="-63.5" font-family="Helvetica,sans-Serif" font-size="10.00">includes/define.h</text>
</a>
</g>
</g>
<!-- Node1&#45;&gt;Node4 -->
<g id="edge3" class="edge">
<title>Node1&#45;&gt;Node4</title>
<path fill="none" stroke="midnightblue" d="M160.89,-179.42C178.7,-171.35 198.35,-159.48 211,-143 223.65,-126.52 227.97,-102.65 229.39,-86.07"/>
<polygon fill="midnightblue" stroke="midnightblue" points="232.9,-86.13 229.99,-75.94 225.91,-85.72 232.9,-86.13"/>
</g>
<!-- Node9 -->
<g id="node9" class="node">
<title>Node9</title>
<g id="a_node9"><a xlink:href="../../d0/d69/ilu__preconditioner_8h.html" target="_top" xlink:title=" ">
<polygon fill="none" stroke="black" points="112,-112.5 112,-142.5 202,-142.5 202,-112.5 112,-112.5"/>
<text text-anchor="start" x="120" y="-130.5" font-family="Helvetica,sans-Serif" font-size="10.00">linear_solvers/ilu</text>
<text text-anchor="middle" x="157" y="-119.5" font-family="Helvetica,sans-Serif" font-size="10.00">_preconditioner.h</text>
</a>
</g>
</g>
<!-- Node1&#45;&gt;Node9 -->
<g id="edge9" class="edge">
<title>Node1&#45;&gt;Node9</title>
<path fill="none" stroke="midnightblue" d="M128.03,-179.4C132.68,-171.22 138.66,-160.73 143.97,-151.39"/>
<polygon fill="midnightblue" stroke="midnightblue" points="147.08,-153 148.99,-142.58 141,-149.54 147.08,-153"/>
</g>
<!-- Node4&#45;&gt;Node3 -->
<g id="edge6" class="edge">
<title>Node4&#45;&gt;Node3</title>
<path fill="none" stroke="midnightblue" d="M206.87,-56.44C182.52,-47.44 143.99,-33.19 116.58,-23.05"/>
<polygon fill="midnightblue" stroke="midnightblue" points="117.62,-19.7 107.03,-19.52 115.19,-26.27 117.62,-19.7"/>
</g>
<!-- Node5 -->
<g id="node5" class="node">
<title>Node5</title>
<g id="a_node5"><a xlink:title=" ">
<polygon fill="none" stroke="#bfbfbf" points="153.5,-0.5 153.5,-19.5 212.5,-19.5 212.5,-0.5 153.5,-0.5"/>
<text text-anchor="middle" x="183" y="-7.5" font-family="Helvetica,sans-Serif" font-size="10.00">stdexcept</text>
</a>
</g>
</g>
<!-- Node4&#45;&gt;Node5 -->
<g id="edge4" class="edge">
<title>Node4&#45;&gt;Node5</title>
<path fill="none" stroke="midnightblue" d="M222.24,-56.08C215.46,-48.3 205.46,-36.8 197.24,-27.37"/>
<polygon fill="midnightblue" stroke="midnightblue" points="199.82,-25 190.62,-19.75 194.54,-29.59 199.82,-25"/>
</g>
<!-- Node6 -->
<g id="node6" class="node">
<title>Node6</title>
<g id="a_node6"><a xlink:title=" ">
<polygon fill="none" stroke="#bfbfbf" points="231,-0.5 231,-19.5 283,-19.5 283,-0.5 231,-0.5"/>
<text text-anchor="middle" x="257" y="-7.5" font-family="Helvetica,sans-Serif" font-size="10.00">sstream</text>
</a>
</g>
</g>
<!-- Node4&#45;&gt;Node6 -->
<g id="edge5" class="edge">
<title>Node4&#45;&gt;Node6</title>
<path fill="none" stroke="midnightblue" d="M234.46,-56.08C238.15,-48.69 243.52,-37.95 248.09,-28.81"/>
<polygon fill="midnightblue" stroke="midnightblue" points="251.28,-30.26 252.62,-19.75 245.02,-27.13 251.28,-30.26"/>
</g>
<!-- Node7 -->
<g id="node7" class="node">
<title>Node7</title>
<g id="a_node7"><a xlink:title=" ">
<polygon fill="none" stroke="#bfbfbf" points="301.5,-0.5 301.5,-19.5 432.5,-19.5 432.5,-0.5 301.5,-0.5"/>
<text text-anchor="middle" x="367" y="-7.5" font-family="Helvetica,sans-Serif" font-size="10.00">boost/current_function.hpp</text>
</a>
</g>
</g>
<!-- Node4&#45;&gt;Node7 -->
<g id="edge7" class="edge">
<title>Node4&#45;&gt;Node7</title>
<path fill="none" stroke="midnightblue" d="M251.71,-56.44C274.35,-47.52 310.07,-33.44 335.75,-23.32"/>
<polygon fill="midnightblue" stroke="midnightblue" points="337.37,-26.44 345.39,-19.52 334.81,-19.93 337.37,-26.44"/>
</g>
<!-- Node8 -->
<g id="node8" class="node">
<title>Node8</title>
<g id="a_node8"><a xlink:href="../../de/d17/kratos__config_8h.html" target="_top" xlink:title=" ">
<polygon fill="none" stroke="black" points="450.5,-0.5 450.5,-19.5 571.5,-19.5 571.5,-0.5 450.5,-0.5"/>
<text text-anchor="middle" x="511" y="-7.5" font-family="Helvetica,sans-Serif" font-size="10.00">includes/kratos_config.h</text>
</a>
</g>
</g>
<!-- Node4&#45;&gt;Node8 -->
<g id="edge8" class="edge">
<title>Node4&#45;&gt;Node8</title>
<path fill="none" stroke="midnightblue" d="M274.53,-56.44C323.96,-46.94 403.75,-31.61 456.78,-21.42"/>
<polygon fill="midnightblue" stroke="midnightblue" points="457.52,-24.84 466.68,-19.52 456.2,-17.97 457.52,-24.84"/>
</g>
<!-- Node9&#45;&gt;Node3 -->
<g id="edge10" class="edge">
<title>Node9&#45;&gt;Node3</title>
<path fill="none" stroke="midnightblue" d="M148.05,-112.34C134.66,-91.15 109.44,-51.24 94.96,-28.34"/>
<polygon fill="midnightblue" stroke="midnightblue" points="97.78,-26.25 89.48,-19.67 91.86,-29.99 97.78,-26.25"/>
</g>
<!-- Node9&#45;&gt;Node4 -->
<g id="edge11" class="edge">
<title>Node9&#45;&gt;Node4</title>
<path fill="none" stroke="midnightblue" d="M174.3,-112.4C185.45,-103.31 199.95,-91.49 211.36,-82.19"/>
<polygon fill="midnightblue" stroke="midnightblue" points="213.84,-84.69 219.38,-75.66 209.42,-79.26 213.84,-84.69"/>
</g>
</g>
</svg>
