<?xml version="1.0" encoding="UTF-8" standalone="no"?>
<!DOCTYPE svg PUBLIC "-//W3C//DTD SVG 1.1//EN"
 "http://www.w3.org/Graphics/SVG/1.1/DTD/svg11.dtd">
<!-- Generated by graphviz version 2.48.0 (20210719.0153)
 -->
<!-- Title: /github/workspace/kratos/containers/variables_list_data_value_container.cpp Pages: 1 -->
<!--zoomable 531 -->
<svg id="main" version="1.1" xmlns="http://www.w3.org/2000/svg" xmlns:xlink="http://www.w3.org/1999/xlink" xml:space="preserve" onload="init(evt)">
<style type="text/css"><![CDATA[
.edge:hover path { stroke: red; }
.edge:hover polygon { stroke: red; fill: red; }
]]></style>
<script type="text/javascript"><![CDATA[
var edges = document.getElementsByTagName('g');
if (edges && edges.length) {
  for (var i=0;i<edges.length;i++) {
    if (edges[i].id.substr(0,4)=='edge') {
      edges[i].setAttribute('class','edge');
    }
  }
}
]]></script>
        <defs>
                <circle id="rim" cx="0" cy="0" r="7"/>
                <circle id="rim2" cx="0" cy="0" r="3.5"/>
                <g id="zoomPlus">
                        <use xlink:href="#rim" fill="#404040">
                                <set attributeName="fill" to="#808080" begin="zoomplus.mouseover" end="zoomplus.mouseout"/>
                        </use>
                        <path d="M-4,0h8M0,-4v8" fill="none" stroke="white" stroke-width="1.5" pointer-events="none"/>
                </g>
                <g id="zoomMin">
                        <use xlink:href="#rim" fill="#404040">
                                <set attributeName="fill" to="#808080" begin="zoomminus.mouseover" end="zoomminus.mouseout"/>
                        </use>
                        <path d="M-4,0h8" fill="none" stroke="white" stroke-width="1.5" pointer-events="none"/>
                </g>
                <g id="dirArrow">
                        <path fill="none" stroke="white" stroke-width="1.5" d="M0,-3.0v7 M-2.5,-0.5L0,-3.0L2.5,-0.5"/>
                </g>
               <g id="resetDef">
                       <use xlink:href="#rim2" fill="#404040">
                               <set attributeName="fill" to="#808080" begin="reset.mouseover" end="reset.mouseout"/>
                       </use>
               </g>
        </defs>

<script type="text/javascript">
var viewWidth = 897;
var viewHeight = 531;
var sectionId = 'dynsection-0';
</script>
<script xlink:href="../../svgpan.js"/>
<svg id="graph" class="graph">
<g id="viewport">
<title>/github/workspace/kratos/containers/variables_list_data_value_container.cpp</title>
<!-- Node1 -->
<g id="node1" class="node">
<title>Node1</title>
<g id="a_node1"><a xlink:title=" ">
<polygon fill="#bfbfbf" stroke="black" points="109.5,-481.5 109.5,-522.5 241.5,-522.5 241.5,-481.5 109.5,-481.5"/>
<text text-anchor="start" x="117.5" y="-510.5" font-family="Helvetica,sans-Serif" font-size="10.00">/github/workspace/kratos</text>
<text text-anchor="start" x="117.5" y="-499.5" font-family="Helvetica,sans-Serif" font-size="10.00">/containers/variables_list</text>
<text text-anchor="middle" x="175.5" y="-488.5" font-family="Helvetica,sans-Serif" font-size="10.00">_data_value_container.cpp</text>
</a>
</g>
</g>
<!-- Node2 -->
<g id="node2" class="node">
<title>Node2</title>
<g id="a_node2"><a xlink:href="../../df/d67/define_8h.html" target="_top" xlink:title=" ">
<polygon fill="none" stroke="black" points="155,-56.5 155,-75.5 244,-75.5 244,-56.5 155,-56.5"/>
<text text-anchor="middle" x="199.5" y="-63.5" font-family="Helvetica,sans-Serif" font-size="10.00">includes/define.h</text>
</a>
</g>
</g>
<!-- Node1&#45;&gt;Node2 -->
<g id="edge1" class="edge">
<title>Node1&#45;&gt;Node2</title>
<path fill="none" stroke="midnightblue" d="M126.96,-481.41C84.14,-460.54 28.5,-423.02 28.5,-369 28.5,-369 28.5,-369 28.5,-177 28.5,-120.74 94.78,-91.9 144.81,-78.14"/>
<polygon fill="midnightblue" stroke="midnightblue" points="145.78,-81.5 154.57,-75.58 144.01,-74.73 145.78,-81.5"/>
</g>
<!-- Node8 -->
<g id="node8" class="node">
<title>Node8</title>
<g id="a_node8"><a xlink:href="../../d4/d52/variables__list__data__value__container_8h.html" target="_top" xlink:title=" ">
<polygon fill="none" stroke="black" points="279.5,-414.5 279.5,-444.5 419.5,-444.5 419.5,-414.5 279.5,-414.5"/>
<text text-anchor="start" x="287.5" y="-432.5" font-family="Helvetica,sans-Serif" font-size="10.00">containers/variables</text>
<text text-anchor="middle" x="349.5" y="-421.5" font-family="Helvetica,sans-Serif" font-size="10.00">_list_data_value_container.h</text>
</a>
</g>
</g>
<!-- Node1&#45;&gt;Node8 -->
<g id="edge7" class="edge">
<title>Node1&#45;&gt;Node8</title>
<path fill="none" stroke="midnightblue" d="M223.97,-481.36C249.45,-471.04 280.45,-458.48 305.27,-448.42"/>
<polygon fill="midnightblue" stroke="midnightblue" points="306.85,-451.56 314.8,-444.56 304.22,-445.07 306.85,-451.56"/>
</g>
<!-- Node3 -->
<g id="node3" class="node">
<title>Node3</title>
<g id="a_node3"><a xlink:title=" ">
<polygon fill="none" stroke="#bfbfbf" points="0,-0.5 0,-19.5 59,-19.5 59,-0.5 0,-0.5"/>
<text text-anchor="middle" x="29.5" y="-7.5" font-family="Helvetica,sans-Serif" font-size="10.00">stdexcept</text>
</a>
</g>
</g>
<!-- Node2&#45;&gt;Node3 -->
<g id="edge2" class="edge">
<title>Node2&#45;&gt;Node3</title>
<path fill="none" stroke="midnightblue" d="M172.56,-56.44C143.84,-47.32 98.17,-32.81 66.18,-22.65"/>
<polygon fill="midnightblue" stroke="midnightblue" points="66.9,-19.21 56.31,-19.52 64.78,-25.88 66.9,-19.21"/>
</g>
<!-- Node4 -->
<g id="node4" class="node">
<title>Node4</title>
<g id="a_node4"><a xlink:title=" ">
<polygon fill="none" stroke="#bfbfbf" points="77.5,-0.5 77.5,-19.5 129.5,-19.5 129.5,-0.5 77.5,-0.5"/>
<text text-anchor="middle" x="103.5" y="-7.5" font-family="Helvetica,sans-Serif" font-size="10.00">sstream</text>
</a>
</g>
</g>
<!-- Node2&#45;&gt;Node4 -->
<g id="edge3" class="edge">
<title>Node2&#45;&gt;Node4</title>
<path fill="none" stroke="midnightblue" d="M184.08,-56.32C168.96,-47.82 145.68,-34.73 128.03,-24.8"/>
<polygon fill="midnightblue" stroke="midnightblue" points="129.32,-21.51 118.89,-19.65 125.89,-27.61 129.32,-21.51"/>
</g>
<!-- Node5 -->
<g id="node5" class="node">
<title>Node5</title>
<g id="a_node5"><a xlink:title=" ">
<polygon fill="none" stroke="#bfbfbf" points="148,-0.5 148,-19.5 251,-19.5 251,-0.5 148,-0.5"/>
<text text-anchor="middle" x="199.5" y="-7.5" font-family="Helvetica,sans-Serif" font-size="10.00">boost/smart_ptr.hpp</text>
</a>
</g>
</g>
<!-- Node2&#45;&gt;Node5 -->
<g id="edge4" class="edge">
<title>Node2&#45;&gt;Node5</title>
<path fill="none" stroke="midnightblue" d="M199.5,-56.08C199.5,-49.01 199.5,-38.86 199.5,-29.99"/>
<polygon fill="midnightblue" stroke="midnightblue" points="203,-29.75 199.5,-19.75 196,-29.75 203,-29.75"/>
</g>
<!-- Node6 -->
<g id="node6" class="node">
<title>Node6</title>
<g id="a_node6"><a xlink:title=" ">
<polygon fill="none" stroke="#bfbfbf" points="269,-0.5 269,-19.5 400,-19.5 400,-0.5 269,-0.5"/>
<text text-anchor="middle" x="334.5" y="-7.5" font-family="Helvetica,sans-Serif" font-size="10.00">boost/current_function.hpp</text>
</a>
</g>
</g>
<!-- Node2&#45;&gt;Node6 -->
<g id="edge5" class="edge">
<title>Node2&#45;&gt;Node6</title>
<path fill="none" stroke="midnightblue" d="M220.89,-56.44C243.21,-47.52 278.4,-33.44 303.71,-23.32"/>
<polygon fill="midnightblue" stroke="midnightblue" points="305.22,-26.48 313.21,-19.52 302.62,-19.98 305.22,-26.48"/>
</g>
<!-- Node7 -->
<g id="node7" class="node">
<title>Node7</title>
<g id="a_node7"><a xlink:href="../../de/d17/kratos__config_8h.html" target="_top" xlink:title=" ">
<polygon fill="none" stroke="black" points="418,-0.5 418,-19.5 539,-19.5 539,-0.5 418,-0.5"/>
<text text-anchor="middle" x="478.5" y="-7.5" font-family="Helvetica,sans-Serif" font-size="10.00">includes/kratos_config.h</text>
</a>
</g>
</g>
<!-- Node2&#45;&gt;Node7 -->
<g id="edge6" class="edge">
<title>Node2&#45;&gt;Node7</title>
<path fill="none" stroke="midnightblue" d="M243.71,-56.44C292.79,-46.94 372.01,-31.61 424.66,-21.42"/>
<polygon fill="midnightblue" stroke="midnightblue" points="425.35,-24.85 434.5,-19.52 424.02,-17.98 425.35,-24.85"/>
</g>
<!-- Node8&#45;&gt;Node2 -->
<g id="edge12" class="edge">
<title>Node8&#45;&gt;Node2</title>
<path fill="none" stroke="midnightblue" d="M279.18,-427.72C195.37,-422.63 66.5,-399.81 66.5,-307.5 66.5,-307.5 66.5,-307.5 66.5,-177 66.5,-126.73 123.63,-95.1 163,-79.27"/>
<polygon fill="midnightblue" stroke="midnightblue" points="164.51,-82.45 172.59,-75.59 162,-75.91 164.51,-82.45"/>
</g>
<!-- Node9 -->
<g id="node9" class="node">
<title>Node9</title>
<g id="a_node9"><a xlink:title=" ">
<polygon fill="none" stroke="#bfbfbf" points="686,-56.5 686,-75.5 727,-75.5 727,-56.5 686,-56.5"/>
<text text-anchor="middle" x="706.5" y="-63.5" font-family="Helvetica,sans-Serif" font-size="10.00">string</text>
</a>
</g>
</g>
<!-- Node8&#45;&gt;Node9 -->
<g id="edge8" class="edge">
<title>Node8&#45;&gt;Node9</title>
<path fill="none" stroke="midnightblue" d="M419.69,-427.31C565.66,-422.93 888.5,-402.51 888.5,-307.5 888.5,-307.5 888.5,-307.5 888.5,-177 888.5,-107.06 788.83,-80.39 737.01,-71.26"/>
<polygon fill="midnightblue" stroke="midnightblue" points="737.46,-67.78 727.02,-69.61 736.32,-74.69 737.46,-67.78"/>
</g>
<!-- Node10 -->
<g id="node10" class="node">
<title>Node10</title>
<g id="a_node10"><a xlink:title=" ">
<polygon fill="none" stroke="#bfbfbf" points="381.5,-56.5 381.5,-75.5 435.5,-75.5 435.5,-56.5 381.5,-56.5"/>
<text text-anchor="middle" x="408.5" y="-63.5" font-family="Helvetica,sans-Serif" font-size="10.00">iostream</text>
</a>
</g>
</g>
<!-- Node8&#45;&gt;Node10 -->
<g id="edge9" class="edge">
<title>Node8&#45;&gt;Node10</title>
<path fill="none" stroke="midnightblue" d="M279.45,-419.57C229.7,-411.62 169.08,-398.1 153.5,-378 148.05,-370.97 150.84,-366.48 153.5,-358 193.92,-228.97 229.39,-199.48 332.5,-112 347.31,-99.43 366.08,-88.28 381.26,-80.22"/>
<polygon fill="midnightblue" stroke="midnightblue" points="382.9,-83.32 390.18,-75.62 379.69,-77.1 382.9,-83.32"/>
</g>
<!-- Node11 -->
<g id="node11" class="node">
<title>Node11</title>
<g id="a_node11"><a xlink:title=" ">
<polygon fill="none" stroke="#bfbfbf" points="735,-112.5 735,-131.5 784,-131.5 784,-112.5 735,-112.5"/>
<text text-anchor="middle" x="759.5" y="-119.5" font-family="Helvetica,sans-Serif" font-size="10.00">cstddef</text>
</a>
</g>
</g>
<!-- Node8&#45;&gt;Node11 -->
<g id="edge10" class="edge">
<title>Node8&#45;&gt;Node11</title>
<path fill="none" stroke="midnightblue" d="M419.57,-416.63C506.61,-398.06 653.17,-353.48 731.5,-255 757.79,-221.95 760.94,-170 760.5,-142.15"/>
<polygon fill="midnightblue" stroke="midnightblue" points="763.99,-141.69 760.15,-131.82 756.99,-141.93 763.99,-141.69"/>
</g>
<!-- Node12 -->
<g id="node12" class="node">
<title>Node12</title>
<g id="a_node12"><a xlink:title=" ">
<polygon fill="none" stroke="#bfbfbf" points="352.5,-358.5 352.5,-377.5 398.5,-377.5 398.5,-358.5 352.5,-358.5"/>
<text text-anchor="middle" x="375.5" y="-365.5" font-family="Helvetica,sans-Serif" font-size="10.00">cstring</text>
</a>
</g>
</g>
<!-- Node8&#45;&gt;Node12 -->
<g id="edge11" class="edge">
<title>Node8&#45;&gt;Node12</title>
<path fill="none" stroke="midnightblue" d="M355.66,-414.4C359.24,-406.2 363.8,-395.78 367.64,-386.99"/>
<polygon fill="midnightblue" stroke="midnightblue" points="370.92,-388.22 371.72,-377.66 364.51,-385.42 370.92,-388.22"/>
</g>
<!-- Node13 -->
<g id="node13" class="node">
<title>Node13</title>
<g id="a_node13"><a xlink:href="../../da/d89/variable_8h.html" target="_top" xlink:title=" ">
<polygon fill="none" stroke="black" points="274.5,-230 274.5,-249 380.5,-249 380.5,-230 274.5,-230"/>
<text text-anchor="middle" x="327.5" y="-237" font-family="Helvetica,sans-Serif" font-size="10.00">containers/variable.h</text>
</a>
</g>
</g>
<!-- Node8&#45;&gt;Node13 -->
<g id="edge13" class="edge">
<title>Node8&#45;&gt;Node13</title>
<path fill="none" stroke="midnightblue" d="M347.81,-414.35C346.6,-404.23 344.94,-390.28 343.5,-378 338.51,-335.59 332.74,-285.8 329.67,-259.32"/>
<polygon fill="midnightblue" stroke="midnightblue" points="333.13,-258.72 328.5,-249.19 326.18,-259.52 333.13,-258.72"/>
</g>
<!-- Node16 -->
<g id="node16" class="node">
<title>Node16</title>
<g id="a_node16"><a xlink:href="../../d4/d59/variable__component_8h.html" target="_top" xlink:title=" ">
<polygon fill="none" stroke="black" points="624.5,-224.5 624.5,-254.5 722.5,-254.5 722.5,-224.5 624.5,-224.5"/>
<text text-anchor="start" x="632.5" y="-242.5" font-family="Helvetica,sans-Serif" font-size="10.00">containers/variable</text>
<text text-anchor="middle" x="673.5" y="-231.5" font-family="Helvetica,sans-Serif" font-size="10.00">_component.h</text>
</a>
</g>
</g>
<!-- Node8&#45;&gt;Node16 -->
<g id="edge26" class="edge">
<title>Node8&#45;&gt;Node16</title>
<path fill="none" stroke="midnightblue" d="M373.85,-414.37C431.22,-381.08 574.94,-297.69 640.26,-259.79"/>
<polygon fill="midnightblue" stroke="midnightblue" points="642.41,-262.58 649.31,-254.54 638.9,-256.53 642.41,-262.58"/>
</g>
<!-- Node17 -->
<g id="node17" class="node">
<title>Node17</title>
<g id="a_node17"><a xlink:href="../../de/d77/variables__list_8h.html" target="_top" xlink:title=" ">
<polygon fill="none" stroke="black" points="365.5,-291.5 365.5,-321.5 469.5,-321.5 469.5,-291.5 365.5,-291.5"/>
<text text-anchor="start" x="373.5" y="-309.5" font-family="Helvetica,sans-Serif" font-size="10.00">containers/variables</text>
<text text-anchor="middle" x="417.5" y="-298.5" font-family="Helvetica,sans-Serif" font-size="10.00">_list.h</text>
</a>
</g>
</g>
<!-- Node8&#45;&gt;Node17 -->
<g id="edge31" class="edge">
<title>Node8&#45;&gt;Node17</title>
<path fill="none" stroke="midnightblue" d="M372.67,-414.3C385.07,-405.44 399.41,-392.9 407.5,-378 415.17,-363.89 417.63,-345.95 418.19,-331.7"/>
<polygon fill="midnightblue" stroke="midnightblue" points="421.69,-331.68 418.31,-321.64 414.69,-331.6 421.69,-331.68"/>
</g>
<!-- Node20 -->
<g id="node20" class="node">
<title>Node20</title>
<g id="a_node20"><a xlink:href="../../d5/dfb/global__variables_8h.html" target="_top" xlink:title=" ">
<polygon fill="none" stroke="black" points="163,-358.5 163,-377.5 296,-377.5 296,-358.5 163,-358.5"/>
<text text-anchor="middle" x="229.5" y="-365.5" font-family="Helvetica,sans-Serif" font-size="10.00">includes/global_variables.h</text>
</a>
</g>
</g>
<!-- Node8&#45;&gt;Node20 -->
<g id="edge38" class="edge">
<title>Node8&#45;&gt;Node20</title>
<path fill="none" stroke="midnightblue" d="M321.06,-414.4C301.38,-404.64 275.36,-391.74 256.09,-382.18"/>
<polygon fill="midnightblue" stroke="midnightblue" points="257.48,-378.96 246.96,-377.66 254.37,-385.24 257.48,-378.96"/>
</g>
<!-- Node13&#45;&gt;Node2 -->
<g id="edge16" class="edge">
<title>Node13&#45;&gt;Node2</title>
<path fill="none" stroke="midnightblue" d="M320.98,-229.76C300.77,-202.69 238.99,-119.91 212.16,-83.96"/>
<polygon fill="midnightblue" stroke="midnightblue" points="214.64,-81.44 205.86,-75.52 209.03,-85.63 214.64,-81.44"/>
</g>
<!-- Node13&#45;&gt;Node9 -->
<g id="edge14" class="edge">
<title>Node13&#45;&gt;Node9</title>
<path fill="none" stroke="midnightblue" d="M380.58,-230.68C441.43,-221.15 536.98,-204.3 569.5,-188 622.01,-161.68 670.2,-110.18 692.87,-83.66"/>
<polygon fill="midnightblue" stroke="midnightblue" points="695.81,-85.6 699.55,-75.69 690.44,-81.1 695.81,-85.6"/>
</g>
<!-- Node13&#45;&gt;Node10 -->
<g id="edge15" class="edge">
<title>Node13&#45;&gt;Node10</title>
<path fill="none" stroke="midnightblue" d="M331.63,-229.76C344.3,-202.92 382.85,-121.32 400.05,-84.89"/>
<polygon fill="midnightblue" stroke="midnightblue" points="403.37,-86.06 404.48,-75.52 397.04,-83.07 403.37,-86.06"/>
</g>
<!-- Node14 -->
<g id="node14" class="node">
<title>Node14</title>
<g id="a_node14"><a xlink:href="../../d3/dc3/variable__data_8h.html" target="_top" xlink:title=" ">
<polygon fill="none" stroke="black" points="478.5,-168.5 478.5,-187.5 560.5,-187.5 560.5,-168.5 478.5,-168.5"/>
<text text-anchor="middle" x="519.5" y="-175.5" font-family="Helvetica,sans-Serif" font-size="10.00">variable_data.h</text>
</a>
</g>
</g>
<!-- Node13&#45;&gt;Node14 -->
<g id="edge17" class="edge">
<title>Node13&#45;&gt;Node14</title>
<path fill="none" stroke="midnightblue" d="M355.01,-229.98C388.37,-219.64 444.76,-202.16 482.06,-190.6"/>
<polygon fill="midnightblue" stroke="midnightblue" points="483.53,-193.81 492.04,-187.51 481.45,-187.13 483.53,-193.81"/>
</g>
<!-- Node14&#45;&gt;Node2 -->
<g id="edge21" class="edge">
<title>Node14&#45;&gt;Node2</title>
<path fill="none" stroke="midnightblue" d="M494.66,-168.46C438.06,-149.01 299.44,-101.36 234.34,-78.98"/>
<polygon fill="midnightblue" stroke="midnightblue" points="235.14,-75.55 224.55,-75.61 232.87,-82.17 235.14,-75.55"/>
</g>
<!-- Node14&#45;&gt;Node9 -->
<g id="edge18" class="edge">
<title>Node14&#45;&gt;Node9</title>
<path fill="none" stroke="midnightblue" d="M534.17,-168.37C566.4,-149.41 643.6,-104 682.8,-80.94"/>
<polygon fill="midnightblue" stroke="midnightblue" points="685.05,-83.68 691.89,-75.59 681.5,-77.64 685.05,-83.68"/>
</g>
<!-- Node14&#45;&gt;Node10 -->
<g id="edge19" class="edge">
<title>Node14&#45;&gt;Node10</title>
<path fill="none" stroke="midnightblue" d="M507.89,-168.18C496.64,-159.45 479.3,-145.46 465.5,-132 449.63,-116.53 433.11,-97.28 421.96,-83.76"/>
<polygon fill="midnightblue" stroke="midnightblue" points="424.5,-81.34 415.47,-75.8 419.08,-85.76 424.5,-81.34"/>
</g>
<!-- Node14&#45;&gt;Node11 -->
<g id="edge20" class="edge">
<title>Node14&#45;&gt;Node11</title>
<path fill="none" stroke="midnightblue" d="M557.53,-168.44C603.54,-158.09 680.34,-140.81 724.8,-130.81"/>
<polygon fill="midnightblue" stroke="midnightblue" points="725.85,-134.16 734.84,-128.55 724.31,-127.33 725.85,-134.16"/>
</g>
<!-- Node15 -->
<g id="node15" class="node">
<title>Node15</title>
<g id="a_node15"><a xlink:href="../../d7/da2/counter_8h.html" target="_top" xlink:title=" ">
<polygon fill="none" stroke="black" points="474.5,-112.5 474.5,-131.5 564.5,-131.5 564.5,-112.5 474.5,-112.5"/>
<text text-anchor="middle" x="519.5" y="-119.5" font-family="Helvetica,sans-Serif" font-size="10.00">utilities/counter.h</text>
</a>
</g>
</g>
<!-- Node14&#45;&gt;Node15 -->
<g id="edge22" class="edge">
<title>Node14&#45;&gt;Node15</title>
<path fill="none" stroke="midnightblue" d="M519.5,-168.08C519.5,-161.01 519.5,-150.86 519.5,-141.99"/>
<polygon fill="midnightblue" stroke="midnightblue" points="523,-141.75 519.5,-131.75 516,-141.75 523,-141.75"/>
</g>
<!-- Node15&#45;&gt;Node2 -->
<g id="edge25" class="edge">
<title>Node15&#45;&gt;Node2</title>
<path fill="none" stroke="midnightblue" d="M474.33,-113.38C416.48,-103.61 316.29,-86.71 254.19,-76.23"/>
<polygon fill="midnightblue" stroke="midnightblue" points="254.63,-72.75 244.18,-74.54 253.46,-79.66 254.63,-72.75"/>
</g>
<!-- Node15&#45;&gt;Node9 -->
<g id="edge23" class="edge">
<title>Node15&#45;&gt;Node9</title>
<path fill="none" stroke="midnightblue" d="M549.13,-112.44C583.91,-102.4 641.26,-85.84 676.29,-75.73"/>
<polygon fill="midnightblue" stroke="midnightblue" points="677.33,-79.07 685.96,-72.93 675.38,-72.34 677.33,-79.07"/>
</g>
<!-- Node15&#45;&gt;Node10 -->
<g id="edge24" class="edge">
<title>Node15&#45;&gt;Node10</title>
<path fill="none" stroke="midnightblue" d="M501.67,-112.32C483.78,-103.62 456.02,-90.12 435.45,-80.11"/>
<polygon fill="midnightblue" stroke="midnightblue" points="436.81,-76.88 426.29,-75.65 433.75,-83.18 436.81,-76.88"/>
</g>
<!-- Node16&#45;&gt;Node2 -->
<g id="edge29" class="edge">
<title>Node16&#45;&gt;Node2</title>
<path fill="none" stroke="midnightblue" d="M624.46,-226.23C621.43,-225.47 618.42,-224.73 615.5,-224 550.64,-207.9 533.2,-208.23 469.5,-188 404.45,-167.34 388.73,-160.03 326.5,-132 290.05,-115.59 249.09,-94.04 223.79,-80.35"/>
<polygon fill="midnightblue" stroke="midnightblue" points="225.35,-77.22 214.9,-75.51 222.01,-83.37 225.35,-77.22"/>
</g>
<!-- Node16&#45;&gt;Node9 -->
<g id="edge27" class="edge">
<title>Node16&#45;&gt;Node9</title>
<path fill="none" stroke="midnightblue" d="M676.2,-224.47C682.12,-193.7 696.24,-120.33 702.9,-85.7"/>
<polygon fill="midnightblue" stroke="midnightblue" points="706.4,-86.04 704.85,-75.56 699.53,-84.72 706.4,-86.04"/>
</g>
<!-- Node16&#45;&gt;Node10 -->
<g id="edge28" class="edge">
<title>Node16&#45;&gt;Node10</title>
<path fill="none" stroke="midnightblue" d="M666.28,-224.29C652.17,-197.98 618.34,-141.64 573.5,-112 534.67,-86.33 481.51,-75.22 446.14,-70.47"/>
<polygon fill="midnightblue" stroke="midnightblue" points="446.13,-66.94 435.77,-69.19 445.27,-73.89 446.13,-66.94"/>
</g>
<!-- Node16&#45;&gt;Node14 -->
<g id="edge30" class="edge">
<title>Node16&#45;&gt;Node14</title>
<path fill="none" stroke="midnightblue" d="M637,-224.4C610.93,-214.33 576.21,-200.91 551.28,-191.28"/>
<polygon fill="midnightblue" stroke="midnightblue" points="552.5,-188 541.91,-187.66 549.97,-194.53 552.5,-188"/>
</g>
<!-- Node17&#45;&gt;Node2 -->
<g id="edge36" class="edge">
<title>Node17&#45;&gt;Node2</title>
<path fill="none" stroke="midnightblue" d="M365.31,-299.89C332.77,-293.83 292.17,-281.22 265.5,-255 217.44,-207.74 204.31,-123.52 200.77,-85.97"/>
<polygon fill="midnightblue" stroke="midnightblue" points="204.25,-85.59 199.96,-75.91 197.28,-86.16 204.25,-85.59"/>
</g>
<!-- Node17&#45;&gt;Node9 -->
<g id="edge32" class="edge">
<title>Node17&#45;&gt;Node9</title>
<path fill="none" stroke="midnightblue" d="M469.59,-302.8C547.79,-297.82 690.73,-284.83 731.5,-255 787.4,-214.09 829.51,-171.17 793.5,-112 781.3,-91.96 756.99,-80.45 737.16,-74.1"/>
<polygon fill="midnightblue" stroke="midnightblue" points="737.86,-70.66 727.28,-71.23 735.91,-77.38 737.86,-70.66"/>
</g>
<!-- Node17&#45;&gt;Node10 -->
<g id="edge33" class="edge">
<title>Node17&#45;&gt;Node10</title>
<path fill="none" stroke="midnightblue" d="M416.96,-291.29C415.42,-250.43 410.97,-132.55 409.22,-86.12"/>
<polygon fill="midnightblue" stroke="midnightblue" points="412.71,-85.81 408.84,-75.95 405.72,-86.07 412.71,-85.81"/>
</g>
<!-- Node17&#45;&gt;Node13 -->
<g id="edge37" class="edge">
<title>Node17&#45;&gt;Node13</title>
<path fill="none" stroke="midnightblue" d="M397.97,-291.4C383.02,-280.6 362.47,-265.76 347.42,-254.89"/>
<polygon fill="midnightblue" stroke="midnightblue" points="349.43,-252.02 339.28,-249.01 345.34,-257.7 349.43,-252.02"/>
</g>
<!-- Node18 -->
<g id="node18" class="node">
<title>Node18</title>
<g id="a_node18"><a xlink:title=" ">
<polygon fill="none" stroke="#bfbfbf" points="436.5,-230 436.5,-249 480.5,-249 480.5,-230 436.5,-230"/>
<text text-anchor="middle" x="458.5" y="-237" font-family="Helvetica,sans-Serif" font-size="10.00">vector</text>
</a>
</g>
</g>
<!-- Node17&#45;&gt;Node18 -->
<g id="edge34" class="edge">
<title>Node17&#45;&gt;Node18</title>
<path fill="none" stroke="midnightblue" d="M426.4,-291.4C432.6,-281.56 440.92,-268.38 447.53,-257.89"/>
<polygon fill="midnightblue" stroke="midnightblue" points="450.64,-259.52 453.02,-249.19 444.72,-255.79 450.64,-259.52"/>
</g>
<!-- Node19 -->
<g id="node19" class="node">
<title>Node19</title>
<g id="a_node19"><a xlink:title=" ">
<polygon fill="none" stroke="#bfbfbf" points="498.5,-224.5 498.5,-254.5 606.5,-254.5 606.5,-224.5 498.5,-224.5"/>
<text text-anchor="start" x="506.5" y="-242.5" font-family="Helvetica,sans-Serif" font-size="10.00">boost/iterator/indirect</text>
<text text-anchor="middle" x="552.5" y="-231.5" font-family="Helvetica,sans-Serif" font-size="10.00">_iterator.hpp</text>
</a>
</g>
</g>
<!-- Node17&#45;&gt;Node19 -->
<g id="edge35" class="edge">
<title>Node17&#45;&gt;Node19</title>
<path fill="none" stroke="midnightblue" d="M446.79,-291.4C466.52,-281.9 492.73,-269.28 514.12,-258.98"/>
<polygon fill="midnightblue" stroke="midnightblue" points="515.77,-262.07 523.26,-254.58 512.74,-255.76 515.77,-262.07"/>
</g>
<!-- Node20&#45;&gt;Node2 -->
<g id="edge41" class="edge">
<title>Node20&#45;&gt;Node2</title>
<path fill="none" stroke="midnightblue" d="M219.94,-358.45C211.41,-350.12 199.51,-336.6 194.5,-322 165.61,-237.8 185.18,-128.59 194.91,-85.57"/>
<polygon fill="midnightblue" stroke="midnightblue" points="198.35,-86.23 197.24,-75.69 191.54,-84.62 198.35,-86.23"/>
</g>
<!-- Node20&#45;&gt;Node9 -->
<g id="edge39" class="edge">
<title>Node20&#45;&gt;Node9</title>
<path fill="none" stroke="midnightblue" d="M296.14,-359.03C421.45,-343.07 686.48,-304.46 763.5,-255 819.91,-218.78 850.38,-166.62 811.5,-112 794.29,-87.82 761.33,-76.54 736.91,-71.33"/>
<polygon fill="midnightblue" stroke="midnightblue" points="737.51,-67.88 727.04,-69.45 736.2,-74.76 737.51,-67.88"/>
</g>
<!-- Node20&#45;&gt;Node10 -->
<g id="edge40" class="edge">
<title>Node20&#45;&gt;Node10</title>
<path fill="none" stroke="midnightblue" d="M230.2,-358.42C232.37,-335.37 240.43,-270.69 265.5,-224 298.02,-163.43 359.03,-107.8 389.78,-82.05"/>
<polygon fill="midnightblue" stroke="midnightblue" points="392.11,-84.66 397.6,-75.6 387.66,-79.26 392.11,-84.66"/>
</g>
<!-- Node20&#45;&gt;Node17 -->
<g id="edge42" class="edge">
<title>Node20&#45;&gt;Node17</title>
<path fill="none" stroke="midnightblue" d="M256.44,-358.48C284.28,-349.66 328.5,-335.67 363.57,-324.57"/>
<polygon fill="midnightblue" stroke="midnightblue" points="364.71,-327.88 373.19,-321.52 362.6,-321.2 364.71,-327.88"/>
</g>
</g>
</svg>
        <g id="navigator" transform="translate(0 0)" fill="#404254">
                <rect fill="#f2f5e9" fill-opacity="0.5" stroke="#606060" stroke-width=".5" x="0" y="0" width="60" height="60"/>
                <use id="zoomplus" xlink:href="#zoomPlus" x="17" y="9" onmousedown="handleZoom(evt,'in')"/>
                <use id="zoomminus" xlink:href="#zoomMin" x="42" y="9" onmousedown="handleZoom(evt,'out')"/>
                <use id="reset" xlink:href="#resetDef" x="30" y="36" onmousedown="handleReset()"/>
                <g id="arrowUp" xlink:href="#dirArrow" transform="translate(30 24)" onmousedown="handlePan(0,-1)">
                  <use xlink:href="#rim" fill="#404040">
                        <set attributeName="fill" to="#808080" begin="arrowUp.mouseover" end="arrowUp.mouseout"/>
                  </use>
                  <path fill="none" stroke="white" stroke-width="1.5" d="M0,-3.0v7 M-2.5,-0.5L0,-3.0L2.5,-0.5"/>
                </g>
                <g id="arrowRight" xlink:href="#dirArrow" transform="rotate(90) translate(36 -43)" onmousedown="handlePan(1,0)">
                  <use xlink:href="#rim" fill="#404040">
                        <set attributeName="fill" to="#808080" begin="arrowRight.mouseover" end="arrowRight.mouseout"/>
                  </use>
                  <path fill="none" stroke="white" stroke-width="1.5" d="M0,-3.0v7 M-2.5,-0.5L0,-3.0L2.5,-0.5"/>
                </g>
                <g id="arrowDown" xlink:href="#dirArrow" transform="rotate(180) translate(-30 -48)" onmousedown="handlePan(0,1)">
                  <use xlink:href="#rim" fill="#404040">
                        <set attributeName="fill" to="#808080" begin="arrowDown.mouseover" end="arrowDown.mouseout"/>
                  </use>
                  <path fill="none" stroke="white" stroke-width="1.5" d="M0,-3.0v7 M-2.5,-0.5L0,-3.0L2.5,-0.5"/>
                </g>
                <g id="arrowLeft" xlink:href="#dirArrow" transform="rotate(270) translate(-36 17)" onmousedown="handlePan(-1,0)">
                  <use xlink:href="#rim" fill="#404040">
                        <set attributeName="fill" to="#808080" begin="arrowLeft.mouseover" end="arrowLeft.mouseout"/>
                  </use>
                  <path fill="none" stroke="white" stroke-width="1.5" d="M0,-3.0v7 M-2.5,-0.5L0,-3.0L2.5,-0.5"/>
                </g>
        </g>
        <svg viewBox="0 0 15 15" width="100%" height="30px" preserveAspectRatio="xMaxYMin meet">
         <g id="arrow_out" transform="scale(0.3 0.3)">
          <a xlink:href="variables__list__data__value__container_8cpp__incl_org.svg" target="_base">
           <rect id="button" ry="5" rx="5" y="6" x="6" height="38" width="38"
                fill="#f2f5e9" fill-opacity="0.5" stroke="#606060" stroke-width="1.0"/>
           <path id="arrow"
             d="M 11.500037,31.436501 C 11.940474,20.09759 22.043105,11.32322 32.158766,21.979434 L 37.068811,17.246167 C 37.068811,17.246167 37.088388,32 37.088388,32 L 22.160133,31.978069 C 22.160133,31.978069 26.997745,27.140456 26.997745,27.140456 C 18.528582,18.264221 13.291696,25.230495 11.500037,31.436501 z"
             style="fill:#404040;"/>
          </a>
         </g>
        </svg>
</svg>
