<?xml version="1.0" encoding="UTF-8" standalone="no"?>
<!DOCTYPE svg PUBLIC "-//W3C//DTD SVG 1.1//EN"
 "http://www.w3.org/Graphics/SVG/1.1/DTD/svg11.dtd">
<!-- Generated by graphviz version 2.48.0 (20210719.0153)
 -->
<!-- Title: /github/workspace/kratos/spaces/ublas_space.h Pages: 1 -->
<!--zoomable 218 -->
<svg id="main" version="1.1" xmlns="http://www.w3.org/2000/svg" xmlns:xlink="http://www.w3.org/1999/xlink" xml:space="preserve" onload="init(evt)">
<style type="text/css"><![CDATA[
.edge:hover path { stroke: red; }
.edge:hover polygon { stroke: red; fill: red; }
]]></style>
<script type="text/javascript"><![CDATA[
var edges = document.getElementsByTagName('g');
if (edges && edges.length) {
  for (var i=0;i<edges.length;i++) {
    if (edges[i].id.substr(0,4)=='edge') {
      edges[i].setAttribute('class','edge');
    }
  }
}
]]></script>
        <defs>
                <circle id="rim" cx="0" cy="0" r="7"/>
                <circle id="rim2" cx="0" cy="0" r="3.5"/>
                <g id="zoomPlus">
                        <use xlink:href="#rim" fill="#404040">
                                <set attributeName="fill" to="#808080" begin="zoomplus.mouseover" end="zoomplus.mouseout"/>
                        </use>
                        <path d="M-4,0h8M0,-4v8" fill="none" stroke="white" stroke-width="1.5" pointer-events="none"/>
                </g>
                <g id="zoomMin">
                        <use xlink:href="#rim" fill="#404040">
                                <set attributeName="fill" to="#808080" begin="zoomminus.mouseover" end="zoomminus.mouseout"/>
                        </use>
                        <path d="M-4,0h8" fill="none" stroke="white" stroke-width="1.5" pointer-events="none"/>
                </g>
                <g id="dirArrow">
                        <path fill="none" stroke="white" stroke-width="1.5" d="M0,-3.0v7 M-2.5,-0.5L0,-3.0L2.5,-0.5"/>
                </g>
               <g id="resetDef">
                       <use xlink:href="#rim2" fill="#404040">
                               <set attributeName="fill" to="#808080" begin="reset.mouseover" end="reset.mouseout"/>
                       </use>
               </g>
        </defs>

<script type="text/javascript">
var viewWidth = 2103;
var viewHeight = 218;
var sectionId = 'dynsection-0';
</script>
<script xlink:href="../../svgpan.js"/>
<svg id="graph" class="graph">
<g id="viewport">
<title>/github/workspace/kratos/spaces/ublas_space.h</title>
<!-- Node1 -->
<g id="node1" class="node">
<title>Node1</title>
<g id="a_node1"><a xlink:title=" ">
<polygon fill="#bfbfbf" stroke="black" points="136.5,-179.5 136.5,-209.5 262.5,-209.5 262.5,-179.5 136.5,-179.5"/>
<text text-anchor="start" x="144.5" y="-197.5" font-family="Helvetica,sans-Serif" font-size="10.00">/github/workspace/kratos</text>
<text text-anchor="middle" x="199.5" y="-186.5" font-family="Helvetica,sans-Serif" font-size="10.00">/spaces/ublas_space.h</text>
</a>
</g>
</g>
<!-- Node2 -->
<g id="node2" class="node">
<title>Node2</title>
<g id="a_node2"><a xlink:title=" ">
<polygon fill="none" stroke="#bfbfbf" points="23,-62 23,-81 64,-81 64,-62 23,-62"/>
<text text-anchor="middle" x="43.5" y="-69" font-family="Helvetica,sans-Serif" font-size="10.00">string</text>
</a>
</g>
</g>
<!-- Node1&#45;&gt;Node2 -->
<g id="edge1" class="edge">
<title>Node1&#45;&gt;Node2</title>
<path fill="none" stroke="midnightblue" d="M181.3,-179.38C151.6,-156.35 92.99,-110.89 62.67,-87.37"/>
<polygon fill="midnightblue" stroke="midnightblue" points="64.62,-84.46 54.58,-81.09 60.33,-89.99 64.62,-84.46"/>
</g>
<!-- Node3 -->
<g id="node3" class="node">
<title>Node3</title>
<g id="a_node3"><a xlink:title=" ">
<polygon fill="none" stroke="#bfbfbf" points="82.5,-62 82.5,-81 136.5,-81 136.5,-62 82.5,-62"/>
<text text-anchor="middle" x="109.5" y="-69" font-family="Helvetica,sans-Serif" font-size="10.00">iostream</text>
</a>
</g>
</g>
<!-- Node1&#45;&gt;Node3 -->
<g id="edge2" class="edge">
<title>Node1&#45;&gt;Node3</title>
<path fill="none" stroke="midnightblue" d="M188.82,-179.14C172.06,-156.61 139.65,-113.04 121.89,-89.16"/>
<polygon fill="midnightblue" stroke="midnightblue" points="124.64,-86.99 115.86,-81.05 119.02,-91.16 124.64,-86.99"/>
</g>
<!-- Node4 -->
<g id="node4" class="node">
<title>Node4</title>
<g id="a_node4"><a xlink:title=" ">
<polygon fill="none" stroke="#bfbfbf" points="948,-123.5 948,-142.5 997,-142.5 997,-123.5 948,-123.5"/>
<text text-anchor="middle" x="972.5" y="-130.5" font-family="Helvetica,sans-Serif" font-size="10.00">cstddef</text>
</a>
</g>
</g>
<!-- Node1&#45;&gt;Node4 -->
<g id="edge3" class="edge">
<title>Node1&#45;&gt;Node4</title>
<path fill="none" stroke="midnightblue" d="M262.85,-193.39C389.68,-192.25 683.69,-185.04 937.6,-143.02"/>
<polygon fill="midnightblue" stroke="midnightblue" points="938.47,-146.42 947.75,-141.31 937.31,-139.52 938.47,-146.42"/>
</g>
<!-- Node5 -->
<g id="node5" class="node">
<title>Node5</title>
<g id="a_node5"><a xlink:href="../../df/d67/define_8h.html" target="_top" xlink:title=" ">
<polygon fill="none" stroke="black" points="155,-62 155,-81 244,-81 244,-62 155,-62"/>
<text text-anchor="middle" x="199.5" y="-69" font-family="Helvetica,sans-Serif" font-size="10.00">includes/define.h</text>
</a>
</g>
</g>
<!-- Node1&#45;&gt;Node5 -->
<g id="edge4" class="edge">
<title>Node1&#45;&gt;Node5</title>
<path fill="none" stroke="midnightblue" d="M199.5,-179.14C199.5,-157.2 199.5,-115.33 199.5,-91.09"/>
<polygon fill="midnightblue" stroke="midnightblue" points="203,-91.05 199.5,-81.05 196,-91.05 203,-91.05"/>
</g>
<!-- Node11 -->
<g id="node11" class="node">
<title>Node11</title>
<g id="a_node11"><a xlink:href="../../d9/d3e/ublas__interface_8h.html" target="_top" xlink:title=" ">
<polygon fill="none" stroke="black" points="801,-123.5 801,-142.5 930,-142.5 930,-123.5 801,-123.5"/>
<text text-anchor="middle" x="865.5" y="-130.5" font-family="Helvetica,sans-Serif" font-size="10.00">includes/ublas_interface.h</text>
</a>
</g>
</g>
<!-- Node1&#45;&gt;Node11 -->
<g id="edge10" class="edge">
<title>Node1&#45;&gt;Node11</title>
<path fill="none" stroke="midnightblue" d="M262.76,-187.85C386.17,-176.82 658.53,-152.49 790.67,-140.68"/>
<polygon fill="midnightblue" stroke="midnightblue" points="791.06,-144.16 800.71,-139.79 790.44,-137.19 791.06,-144.16"/>
</g>
<!-- Node6 -->
<g id="node6" class="node">
<title>Node6</title>
<g id="a_node6"><a xlink:title=" ">
<polygon fill="none" stroke="#bfbfbf" points="0,-0.5 0,-19.5 59,-19.5 59,-0.5 0,-0.5"/>
<text text-anchor="middle" x="29.5" y="-7.5" font-family="Helvetica,sans-Serif" font-size="10.00">stdexcept</text>
</a>
</g>
</g>
<!-- Node5&#45;&gt;Node6 -->
<g id="edge5" class="edge">
<title>Node5&#45;&gt;Node6</title>
<path fill="none" stroke="midnightblue" d="M175.14,-61.98C145.86,-51.72 96.53,-34.46 63.5,-22.9"/>
<polygon fill="midnightblue" stroke="midnightblue" points="64.41,-19.51 53.81,-19.51 62.09,-26.12 64.41,-19.51"/>
</g>
<!-- Node7 -->
<g id="node7" class="node">
<title>Node7</title>
<g id="a_node7"><a xlink:title=" ">
<polygon fill="none" stroke="#bfbfbf" points="77.5,-0.5 77.5,-19.5 129.5,-19.5 129.5,-0.5 77.5,-0.5"/>
<text text-anchor="middle" x="103.5" y="-7.5" font-family="Helvetica,sans-Serif" font-size="10.00">sstream</text>
</a>
</g>
</g>
<!-- Node5&#45;&gt;Node7 -->
<g id="edge6" class="edge">
<title>Node5&#45;&gt;Node7</title>
<path fill="none" stroke="midnightblue" d="M185.75,-61.98C170.13,-52.3 144.44,-36.37 125.92,-24.89"/>
<polygon fill="midnightblue" stroke="midnightblue" points="127.57,-21.8 117.23,-19.51 123.88,-27.75 127.57,-21.8"/>
</g>
<!-- Node8 -->
<g id="node8" class="node">
<title>Node8</title>
<g id="a_node8"><a xlink:title=" ">
<polygon fill="none" stroke="#bfbfbf" points="148,-0.5 148,-19.5 251,-19.5 251,-0.5 148,-0.5"/>
<text text-anchor="middle" x="199.5" y="-7.5" font-family="Helvetica,sans-Serif" font-size="10.00">boost/smart_ptr.hpp</text>
</a>
</g>
</g>
<!-- Node5&#45;&gt;Node8 -->
<g id="edge7" class="edge">
<title>Node5&#45;&gt;Node8</title>
<path fill="none" stroke="midnightblue" d="M199.5,-61.98C199.5,-53.58 199.5,-40.48 199.5,-29.66"/>
<polygon fill="midnightblue" stroke="midnightblue" points="203,-29.51 199.5,-19.51 196,-29.51 203,-29.51"/>
</g>
<!-- Node9 -->
<g id="node9" class="node">
<title>Node9</title>
<g id="a_node9"><a xlink:title=" ">
<polygon fill="none" stroke="#bfbfbf" points="269,-0.5 269,-19.5 400,-19.5 400,-0.5 269,-0.5"/>
<text text-anchor="middle" x="334.5" y="-7.5" font-family="Helvetica,sans-Serif" font-size="10.00">boost/current_function.hpp</text>
</a>
</g>
</g>
<!-- Node5&#45;&gt;Node9 -->
<g id="edge8" class="edge">
<title>Node5&#45;&gt;Node9</title>
<path fill="none" stroke="midnightblue" d="M218.84,-61.98C241.6,-51.95 279.59,-35.2 305.79,-23.65"/>
<polygon fill="midnightblue" stroke="midnightblue" points="307.45,-26.74 315.19,-19.51 304.63,-20.34 307.45,-26.74"/>
</g>
<!-- Node10 -->
<g id="node10" class="node">
<title>Node10</title>
<g id="a_node10"><a xlink:href="../../de/d17/kratos__config_8h.html" target="_top" xlink:title=" ">
<polygon fill="none" stroke="black" points="418,-0.5 418,-19.5 539,-19.5 539,-0.5 418,-0.5"/>
<text text-anchor="middle" x="478.5" y="-7.5" font-family="Helvetica,sans-Serif" font-size="10.00">includes/kratos_config.h</text>
</a>
</g>
</g>
<!-- Node5&#45;&gt;Node10 -->
<g id="edge9" class="edge">
<title>Node5&#45;&gt;Node10</title>
<path fill="none" stroke="midnightblue" d="M229.97,-61.95C237.63,-59.9 245.84,-57.79 253.5,-56 310.3,-42.71 375.73,-29.9 421.34,-21.37"/>
<polygon fill="midnightblue" stroke="midnightblue" points="422.15,-24.78 431.34,-19.51 420.86,-17.9 422.15,-24.78"/>
</g>
<!-- Node11&#45;&gt;Node2 -->
<g id="edge11" class="edge">
<title>Node11&#45;&gt;Node2</title>
<path fill="none" stroke="midnightblue" d="M800.89,-131.58C637.38,-129.99 210.4,-122.47 73.5,-87 71.57,-86.5 69.61,-85.87 67.67,-85.16"/>
<polygon fill="midnightblue" stroke="midnightblue" points="68.88,-81.87 58.32,-81.08 66.09,-88.29 68.88,-81.87"/>
</g>
<!-- Node11&#45;&gt;Node3 -->
<g id="edge12" class="edge">
<title>Node11&#45;&gt;Node3</title>
<path fill="none" stroke="midnightblue" d="M800.79,-130.6C648.17,-126.88 269.26,-115.02 145.5,-87 142.67,-86.36 139.77,-85.52 136.9,-84.57"/>
<polygon fill="midnightblue" stroke="midnightblue" points="138.04,-81.26 127.45,-81.04 135.59,-87.82 138.04,-81.26"/>
</g>
<!-- Node11&#45;&gt;Node5 -->
<g id="edge28" class="edge">
<title>Node11&#45;&gt;Node5</title>
<path fill="none" stroke="midnightblue" d="M800.7,-131.24C688.46,-129.05 450.97,-120.46 253.5,-87 248.12,-86.09 242.49,-84.88 236.99,-83.54"/>
<polygon fill="midnightblue" stroke="midnightblue" points="237.86,-80.15 227.3,-81.04 236.11,-86.93 237.86,-80.15"/>
</g>
<!-- Node12 -->
<g id="node12" class="node">
<title>Node12</title>
<g id="a_node12"><a xlink:title=" ">
<polygon fill="none" stroke="#bfbfbf" points="1002.5,-56.5 1002.5,-86.5 1106.5,-86.5 1106.5,-56.5 1002.5,-56.5"/>
<text text-anchor="start" x="1010.5" y="-74.5" font-family="Helvetica,sans-Serif" font-size="10.00">boost/numeric/ublas</text>
<text text-anchor="middle" x="1054.5" y="-63.5" font-family="Helvetica,sans-Serif" font-size="10.00">/vector.hpp</text>
</a>
</g>
</g>
<!-- Node11&#45;&gt;Node12 -->
<g id="edge13" class="edge">
<title>Node11&#45;&gt;Node12</title>
<path fill="none" stroke="midnightblue" d="M892.58,-123.48C920.57,-114.66 965.02,-100.67 1000.28,-89.57"/>
<polygon fill="midnightblue" stroke="midnightblue" points="1001.47,-92.86 1009.96,-86.52 999.37,-86.19 1001.47,-92.86"/>
</g>
<!-- Node13 -->
<g id="node13" class="node">
<title>Node13</title>
<g id="a_node13"><a xlink:title=" ">
<polygon fill="none" stroke="#bfbfbf" points="1124.5,-56.5 1124.5,-86.5 1228.5,-86.5 1228.5,-56.5 1124.5,-56.5"/>
<text text-anchor="start" x="1132.5" y="-74.5" font-family="Helvetica,sans-Serif" font-size="10.00">boost/numeric/ublas</text>
<text text-anchor="middle" x="1176.5" y="-63.5" font-family="Helvetica,sans-Serif" font-size="10.00">/vector_proxy.hpp</text>
</a>
</g>
</g>
<!-- Node11&#45;&gt;Node13 -->
<g id="edge14" class="edge">
<title>Node11&#45;&gt;Node13</title>
<path fill="none" stroke="midnightblue" d="M917.85,-123.44C966.37,-115.32 1040.77,-102.36 1114.39,-87.17"/>
<polygon fill="midnightblue" stroke="midnightblue" points="1115.22,-90.57 1124.3,-85.11 1113.8,-83.72 1115.22,-90.57"/>
</g>
<!-- Node14 -->
<g id="node14" class="node">
<title>Node14</title>
<g id="a_node14"><a xlink:title=" ">
<polygon fill="none" stroke="#bfbfbf" points="1246.5,-56.5 1246.5,-86.5 1350.5,-86.5 1350.5,-56.5 1246.5,-56.5"/>
<text text-anchor="start" x="1254.5" y="-74.5" font-family="Helvetica,sans-Serif" font-size="10.00">boost/numeric/ublas</text>
<text text-anchor="middle" x="1298.5" y="-63.5" font-family="Helvetica,sans-Serif" font-size="10.00">/vector_sparse.hpp</text>
</a>
</g>
</g>
<!-- Node11&#45;&gt;Node14 -->
<g id="edge15" class="edge">
<title>Node11&#45;&gt;Node14</title>
<path fill="none" stroke="midnightblue" d="M930.07,-124.14C933.26,-123.76 936.42,-123.37 939.5,-123 1068.7,-107.34 1104.44,-110.3 1236.26,-87.1"/>
<polygon fill="midnightblue" stroke="midnightblue" points="1237.1,-90.51 1246.34,-85.31 1235.88,-83.61 1237.1,-90.51"/>
</g>
<!-- Node15 -->
<g id="node15" class="node">
<title>Node15</title>
<g id="a_node15"><a xlink:title=" ">
<polygon fill="none" stroke="#bfbfbf" points="1368.5,-56.5 1368.5,-86.5 1484.5,-86.5 1484.5,-56.5 1368.5,-56.5"/>
<text text-anchor="start" x="1376.5" y="-74.5" font-family="Helvetica,sans-Serif" font-size="10.00">boost/numeric/ublas</text>
<text text-anchor="middle" x="1426.5" y="-63.5" font-family="Helvetica,sans-Serif" font-size="10.00">/vector_expression.hpp</text>
</a>
</g>
</g>
<!-- Node11&#45;&gt;Node15 -->
<g id="edge16" class="edge">
<title>Node11&#45;&gt;Node15</title>
<path fill="none" stroke="midnightblue" d="M930.06,-124.01C933.25,-123.66 936.41,-123.32 939.5,-123 1122.58,-104.03 1172.49,-114.49 1358.37,-87.04"/>
<polygon fill="midnightblue" stroke="midnightblue" points="1359.11,-90.47 1368.48,-85.53 1358.07,-83.55 1359.11,-90.47"/>
</g>
<!-- Node16 -->
<g id="node16" class="node">
<title>Node16</title>
<g id="a_node16"><a xlink:title=" ">
<polygon fill="none" stroke="#bfbfbf" points="1502.5,-56.5 1502.5,-86.5 1606.5,-86.5 1606.5,-56.5 1502.5,-56.5"/>
<text text-anchor="start" x="1510.5" y="-74.5" font-family="Helvetica,sans-Serif" font-size="10.00">boost/numeric/ublas</text>
<text text-anchor="middle" x="1554.5" y="-63.5" font-family="Helvetica,sans-Serif" font-size="10.00">/matrix.hpp</text>
</a>
</g>
</g>
<!-- Node11&#45;&gt;Node16 -->
<g id="edge17" class="edge">
<title>Node11&#45;&gt;Node16</title>
<path fill="none" stroke="midnightblue" d="M930.05,-123.93C933.24,-123.6 936.41,-123.29 939.5,-123 1181.94,-100.4 1247.77,-123.05 1492.47,-86.98"/>
<polygon fill="midnightblue" stroke="midnightblue" points="1493,-90.44 1502.37,-85.5 1491.96,-83.52 1493,-90.44"/>
</g>
<!-- Node17 -->
<g id="node17" class="node">
<title>Node17</title>
<g id="a_node17"><a xlink:title=" ">
<polygon fill="none" stroke="#bfbfbf" points="1624.5,-56.5 1624.5,-86.5 1728.5,-86.5 1728.5,-56.5 1624.5,-56.5"/>
<text text-anchor="start" x="1632.5" y="-74.5" font-family="Helvetica,sans-Serif" font-size="10.00">boost/numeric/ublas</text>
<text text-anchor="middle" x="1676.5" y="-63.5" font-family="Helvetica,sans-Serif" font-size="10.00">/matrix_sparse.hpp</text>
</a>
</g>
</g>
<!-- Node11&#45;&gt;Node17 -->
<g id="edge18" class="edge">
<title>Node11&#45;&gt;Node17</title>
<path fill="none" stroke="midnightblue" d="M930.05,-123.89C933.24,-123.57 936.41,-123.27 939.5,-123 1235.86,-97.12 1315.92,-129.23 1614.13,-87.01"/>
<polygon fill="midnightblue" stroke="midnightblue" points="1614.97,-90.43 1624.38,-85.54 1613.98,-83.5 1614.97,-90.43"/>
</g>
<!-- Node18 -->
<g id="node18" class="node">
<title>Node18</title>
<g id="a_node18"><a xlink:title=" ">
<polygon fill="none" stroke="#bfbfbf" points="1746.5,-56.5 1746.5,-86.5 1850.5,-86.5 1850.5,-56.5 1746.5,-56.5"/>
<text text-anchor="start" x="1754.5" y="-74.5" font-family="Helvetica,sans-Serif" font-size="10.00">boost/numeric/ublas</text>
<text text-anchor="middle" x="1798.5" y="-63.5" font-family="Helvetica,sans-Serif" font-size="10.00">/matrix_proxy.hpp</text>
</a>
</g>
</g>
<!-- Node11&#45;&gt;Node18 -->
<g id="edge19" class="edge">
<title>Node11&#45;&gt;Node18</title>
<path fill="none" stroke="midnightblue" d="M930.04,-123.86C933.24,-123.55 936.4,-123.26 939.5,-123 1290.02,-93.82 1384.17,-135.48 1736.42,-86.96"/>
<polygon fill="midnightblue" stroke="midnightblue" points="1736.96,-90.42 1746.38,-85.57 1735.99,-83.48 1736.96,-90.42"/>
</g>
<!-- Node19 -->
<g id="node19" class="node">
<title>Node19</title>
<g id="a_node19"><a xlink:title=" ">
<polygon fill="none" stroke="#bfbfbf" points="1868.5,-56.5 1868.5,-86.5 1972.5,-86.5 1972.5,-56.5 1868.5,-56.5"/>
<text text-anchor="start" x="1876.5" y="-74.5" font-family="Helvetica,sans-Serif" font-size="10.00">boost/numeric/ublas</text>
<text text-anchor="middle" x="1920.5" y="-63.5" font-family="Helvetica,sans-Serif" font-size="10.00">/symmetric.hpp</text>
</a>
</g>
</g>
<!-- Node11&#45;&gt;Node19 -->
<g id="edge20" class="edge">
<title>Node11&#45;&gt;Node19</title>
<path fill="none" stroke="midnightblue" d="M930.04,-123.83C933.24,-123.53 936.4,-123.25 939.5,-123 1344.1,-90.53 1452.35,-141.74 1858.43,-86.95"/>
<polygon fill="midnightblue" stroke="midnightblue" points="1858.95,-90.41 1868.38,-85.59 1858,-83.47 1858.95,-90.41"/>
</g>
<!-- Node20 -->
<g id="node20" class="node">
<title>Node20</title>
<g id="a_node20"><a xlink:title=" ">
<polygon fill="none" stroke="#bfbfbf" points="1990.5,-56.5 1990.5,-86.5 2094.5,-86.5 2094.5,-56.5 1990.5,-56.5"/>
<text text-anchor="start" x="1998.5" y="-74.5" font-family="Helvetica,sans-Serif" font-size="10.00">boost/numeric/ublas</text>
<text text-anchor="middle" x="2042.5" y="-63.5" font-family="Helvetica,sans-Serif" font-size="10.00">/hermitian.hpp</text>
</a>
</g>
</g>
<!-- Node11&#45;&gt;Node20 -->
<g id="edge21" class="edge">
<title>Node11&#45;&gt;Node20</title>
<path fill="none" stroke="midnightblue" d="M930.04,-123.82C933.24,-123.52 936.4,-123.24 939.5,-123 1398.1,-87.26 1520.48,-147.99 1980.15,-86.98"/>
<polygon fill="midnightblue" stroke="midnightblue" points="1980.94,-90.4 1990.38,-85.61 1980.01,-83.47 1980.94,-90.4"/>
</g>
<!-- Node21 -->
<g id="node21" class="node">
<title>Node21</title>
<g id="a_node21"><a xlink:title=" ">
<polygon fill="none" stroke="#bfbfbf" points="262.5,-56.5 262.5,-86.5 366.5,-86.5 366.5,-56.5 262.5,-56.5"/>
<text text-anchor="start" x="270.5" y="-74.5" font-family="Helvetica,sans-Serif" font-size="10.00">boost/numeric/ublas</text>
<text text-anchor="middle" x="314.5" y="-63.5" font-family="Helvetica,sans-Serif" font-size="10.00">/banded.hpp</text>
</a>
</g>
</g>
<!-- Node11&#45;&gt;Node21 -->
<g id="edge22" class="edge">
<title>Node11&#45;&gt;Node21</title>
<path fill="none" stroke="midnightblue" d="M800.92,-128.99C708.77,-124.05 534.17,-112.3 376.52,-87.01"/>
<polygon fill="midnightblue" stroke="midnightblue" points="377.08,-83.56 366.65,-85.41 375.95,-90.47 377.08,-83.56"/>
</g>
<!-- Node22 -->
<g id="node22" class="node">
<title>Node22</title>
<g id="a_node22"><a xlink:title=" ">
<polygon fill="none" stroke="#bfbfbf" points="384.5,-56.5 384.5,-86.5 488.5,-86.5 488.5,-56.5 384.5,-56.5"/>
<text text-anchor="start" x="392.5" y="-74.5" font-family="Helvetica,sans-Serif" font-size="10.00">boost/numeric/ublas</text>
<text text-anchor="middle" x="436.5" y="-63.5" font-family="Helvetica,sans-Serif" font-size="10.00">/triangular.hpp</text>
</a>
</g>
</g>
<!-- Node11&#45;&gt;Node22 -->
<g id="edge23" class="edge">
<title>Node11&#45;&gt;Node22</title>
<path fill="none" stroke="midnightblue" d="M800.69,-126.28C729.08,-119.47 610.2,-106.7 498.73,-87.1"/>
<polygon fill="midnightblue" stroke="midnightblue" points="499.12,-83.61 488.66,-85.3 497.89,-90.5 499.12,-83.61"/>
</g>
<!-- Node23 -->
<g id="node23" class="node">
<title>Node23</title>
<g id="a_node23"><a xlink:title=" ">
<polygon fill="none" stroke="#bfbfbf" points="506.5,-56.5 506.5,-86.5 610.5,-86.5 610.5,-56.5 506.5,-56.5"/>
<text text-anchor="start" x="514.5" y="-74.5" font-family="Helvetica,sans-Serif" font-size="10.00">boost/numeric/ublas</text>
<text text-anchor="middle" x="558.5" y="-63.5" font-family="Helvetica,sans-Serif" font-size="10.00">/io.hpp</text>
</a>
</g>
</g>
<!-- Node11&#45;&gt;Node23 -->
<g id="edge24" class="edge">
<title>Node11&#45;&gt;Node23</title>
<path fill="none" stroke="midnightblue" d="M814.46,-123.47C766.75,-115.31 693.28,-102.29 620.5,-87.15"/>
<polygon fill="midnightblue" stroke="midnightblue" points="621.21,-83.72 610.7,-85.1 619.77,-90.57 621.21,-83.72"/>
</g>
<!-- Node24 -->
<g id="node24" class="node">
<title>Node24</title>
<g id="a_node24"><a xlink:title=" ">
<polygon fill="none" stroke="#bfbfbf" points="628.5,-56.5 628.5,-86.5 732.5,-86.5 732.5,-56.5 628.5,-56.5"/>
<text text-anchor="start" x="636.5" y="-74.5" font-family="Helvetica,sans-Serif" font-size="10.00">boost/numeric/ublas</text>
<text text-anchor="middle" x="680.5" y="-63.5" font-family="Helvetica,sans-Serif" font-size="10.00">/operation.hpp</text>
</a>
</g>
</g>
<!-- Node11&#45;&gt;Node24 -->
<g id="edge25" class="edge">
<title>Node11&#45;&gt;Node24</title>
<path fill="none" stroke="midnightblue" d="M838.99,-123.48C811.71,-114.7 768.45,-100.79 734.02,-89.71"/>
<polygon fill="midnightblue" stroke="midnightblue" points="734.69,-86.25 724.1,-86.52 732.55,-92.92 734.69,-86.25"/>
</g>
<!-- Node25 -->
<g id="node25" class="node">
<title>Node25</title>
<g id="a_node25"><a xlink:title=" ">
<polygon fill="none" stroke="#bfbfbf" points="750.5,-56.5 750.5,-86.5 854.5,-86.5 854.5,-56.5 750.5,-56.5"/>
<text text-anchor="start" x="758.5" y="-74.5" font-family="Helvetica,sans-Serif" font-size="10.00">boost/numeric/ublas</text>
<text text-anchor="middle" x="802.5" y="-63.5" font-family="Helvetica,sans-Serif" font-size="10.00">/lu.hpp</text>
</a>
</g>
</g>
<!-- Node11&#45;&gt;Node25 -->
<g id="edge26" class="edge">
<title>Node11&#45;&gt;Node25</title>
<path fill="none" stroke="midnightblue" d="M856.47,-123.48C848.26,-115.72 835.79,-103.94 824.91,-93.66"/>
<polygon fill="midnightblue" stroke="midnightblue" points="827.02,-90.84 817.35,-86.52 822.21,-95.93 827.02,-90.84"/>
</g>
<!-- Node26 -->
<g id="node26" class="node">
<title>Node26</title>
<g id="a_node26"><a xlink:title=" ">
<polygon fill="none" stroke="#bfbfbf" points="872.5,-56.5 872.5,-86.5 984.5,-86.5 984.5,-56.5 872.5,-56.5"/>
<text text-anchor="start" x="880.5" y="-74.5" font-family="Helvetica,sans-Serif" font-size="10.00">boost/numeric/ublas</text>
<text text-anchor="middle" x="928.5" y="-63.5" font-family="Helvetica,sans-Serif" font-size="10.00">/operation_sparse.hpp</text>
</a>
</g>
</g>
<!-- Node11&#45;&gt;Node26 -->
<g id="edge27" class="edge">
<title>Node11&#45;&gt;Node26</title>
<path fill="none" stroke="midnightblue" d="M874.53,-123.48C882.74,-115.72 895.21,-103.94 906.09,-93.66"/>
<polygon fill="midnightblue" stroke="midnightblue" points="908.79,-95.93 913.65,-86.52 903.98,-90.84 908.79,-95.93"/>
</g>
</g>
</svg>
        <g id="navigator" transform="translate(0 0)" fill="#404254">
                <rect fill="#f2f5e9" fill-opacity="0.5" stroke="#606060" stroke-width=".5" x="0" y="0" width="60" height="60"/>
                <use id="zoomplus" xlink:href="#zoomPlus" x="17" y="9" onmousedown="handleZoom(evt,'in')"/>
                <use id="zoomminus" xlink:href="#zoomMin" x="42" y="9" onmousedown="handleZoom(evt,'out')"/>
                <use id="reset" xlink:href="#resetDef" x="30" y="36" onmousedown="handleReset()"/>
                <g id="arrowUp" xlink:href="#dirArrow" transform="translate(30 24)" onmousedown="handlePan(0,-1)">
                  <use xlink:href="#rim" fill="#404040">
                        <set attributeName="fill" to="#808080" begin="arrowUp.mouseover" end="arrowUp.mouseout"/>
                  </use>
                  <path fill="none" stroke="white" stroke-width="1.5" d="M0,-3.0v7 M-2.5,-0.5L0,-3.0L2.5,-0.5"/>
                </g>
                <g id="arrowRight" xlink:href="#dirArrow" transform="rotate(90) translate(36 -43)" onmousedown="handlePan(1,0)">
                  <use xlink:href="#rim" fill="#404040">
                        <set attributeName="fill" to="#808080" begin="arrowRight.mouseover" end="arrowRight.mouseout"/>
                  </use>
                  <path fill="none" stroke="white" stroke-width="1.5" d="M0,-3.0v7 M-2.5,-0.5L0,-3.0L2.5,-0.5"/>
                </g>
                <g id="arrowDown" xlink:href="#dirArrow" transform="rotate(180) translate(-30 -48)" onmousedown="handlePan(0,1)">
                  <use xlink:href="#rim" fill="#404040">
                        <set attributeName="fill" to="#808080" begin="arrowDown.mouseover" end="arrowDown.mouseout"/>
                  </use>
                  <path fill="none" stroke="white" stroke-width="1.5" d="M0,-3.0v7 M-2.5,-0.5L0,-3.0L2.5,-0.5"/>
                </g>
                <g id="arrowLeft" xlink:href="#dirArrow" transform="rotate(270) translate(-36 17)" onmousedown="handlePan(-1,0)">
                  <use xlink:href="#rim" fill="#404040">
                        <set attributeName="fill" to="#808080" begin="arrowLeft.mouseover" end="arrowLeft.mouseout"/>
                  </use>
                  <path fill="none" stroke="white" stroke-width="1.5" d="M0,-3.0v7 M-2.5,-0.5L0,-3.0L2.5,-0.5"/>
                </g>
        </g>
        <svg viewBox="0 0 15 15" width="100%" height="30px" preserveAspectRatio="xMaxYMin meet">
         <g id="arrow_out" transform="scale(0.3 0.3)">
          <a xlink:href="ublas__space_8h__incl_org.svg" target="_base">
           <rect id="button" ry="5" rx="5" y="6" x="6" height="38" width="38"
                fill="#f2f5e9" fill-opacity="0.5" stroke="#606060" stroke-width="1.0"/>
           <path id="arrow"
             d="M 11.500037,31.436501 C 11.940474,20.09759 22.043105,11.32322 32.158766,21.979434 L 37.068811,17.246167 C 37.068811,17.246167 37.088388,32 37.088388,32 L 22.160133,31.978069 C 22.160133,31.978069 26.997745,27.140456 26.997745,27.140456 C 18.528582,18.264221 13.291696,25.230495 11.500037,31.436501 z"
             style="fill:#404040;"/>
          </a>
         </g>
        </svg>
</svg>
