<?xml version="1.0" encoding="UTF-8" standalone="no"?>
<!DOCTYPE svg PUBLIC "-//W3C//DTD SVG 1.1//EN"
 "http://www.w3.org/Graphics/SVG/1.1/DTD/svg11.dtd">
<!-- Generated by graphviz version 2.48.0 (20210719.0153)
 -->
<!-- Title: /github/workspace/applications/ExternalSolversApplication/external_includes/boost/numeric/bindings/traits/ublas_matrix.hpp Pages: 1 -->
<svg width="347pt" height="239pt"
 viewBox="0.00 0.00 346.50 239.00" xmlns="http://www.w3.org/2000/svg" xmlns:xlink="http://www.w3.org/1999/xlink">
<g id="graph0" class="graph" transform="scale(1 1) rotate(0) translate(4 235)">
<title>/github/workspace/applications/ExternalSolversApplication/external_includes/boost/numeric/bindings/traits/ublas_matrix.hpp</title>
<!-- Node1 -->
<g id="node1" class="node">
<title>Node1</title>
<g id="a_node1"><a xlink:title=" ">
<polygon fill="#bfbfbf" stroke="black" points="85,-178.5 85,-230.5 244,-230.5 244,-178.5 85,-178.5"/>
<text text-anchor="start" x="93" y="-218.5" font-family="Helvetica,sans-Serif" font-size="10.00">/github/workspace/applications</text>
<text text-anchor="start" x="93" y="-207.5" font-family="Helvetica,sans-Serif" font-size="10.00">/ExternalSolversApplication</text>
<text text-anchor="start" x="93" y="-196.5" font-family="Helvetica,sans-Serif" font-size="10.00">/external_includes/boost/numeric</text>
<text text-anchor="middle" x="164.5" y="-185.5" font-family="Helvetica,sans-Serif" font-size="10.00">/bindings/traits/ublas_matrix.hpp</text>
</a>
</g>
</g>
<!-- Node2 -->
<g id="node2" class="node">
<title>Node2</title>
<g id="a_node2"><a xlink:href="../../d2/da2/parallel__superlu__solver_8h.html" target="_top" xlink:title=" ">
<polygon fill="none" stroke="black" points="0,-89.5 0,-141.5 151,-141.5 151,-89.5 0,-89.5"/>
<text text-anchor="start" x="8" y="-129.5" font-family="Helvetica,sans-Serif" font-size="10.00">/github/workspace/applications</text>
<text text-anchor="start" x="8" y="-118.5" font-family="Helvetica,sans-Serif" font-size="10.00">/ExternalSolversApplication</text>
<text text-anchor="start" x="8" y="-107.5" font-family="Helvetica,sans-Serif" font-size="10.00">/external_includes/parallel</text>
<text text-anchor="middle" x="75.5" y="-96.5" font-family="Helvetica,sans-Serif" font-size="10.00">_superlu_solver.h</text>
</a>
</g>
</g>
<!-- Node1&#45;&gt;Node2 -->
<g id="edge1" class="edge">
<title>Node1&#45;&gt;Node2</title>
<path fill="none" stroke="midnightblue" d="M131.33,-171.08C121.37,-161.34 110.59,-150.8 101.18,-141.61"/>
<polygon fill="midnightblue" stroke="midnightblue" points="129.16,-173.85 138.76,-178.34 134.05,-168.84 129.16,-173.85"/>
</g>
<!-- Node3 -->
<g id="node3" class="node">
<title>Node3</title>
<g id="a_node3"><a xlink:href="../../dc/d29/applications_2_external_solvers_application_2external__includes_2superlu__solver_8h.html" target="_top" xlink:title=" ">
<polygon fill="none" stroke="black" points="169.5,-95 169.5,-136 337.5,-136 337.5,-95 169.5,-95"/>
<text text-anchor="start" x="177.5" y="-124" font-family="Helvetica,sans-Serif" font-size="10.00">/github/workspace/applications</text>
<text text-anchor="start" x="177.5" y="-113" font-family="Helvetica,sans-Serif" font-size="10.00">/ExternalSolversApplication</text>
<text text-anchor="middle" x="253.5" y="-102" font-family="Helvetica,sans-Serif" font-size="10.00">/external_includes/superlu_solver.h</text>
</a>
</g>
</g>
<!-- Node1&#45;&gt;Node3 -->
<g id="edge2" class="edge">
<title>Node1&#45;&gt;Node3</title>
<path fill="none" stroke="midnightblue" d="M197.56,-171.18C209.62,-159.39 222.88,-146.43 233.47,-136.08"/>
<polygon fill="midnightblue" stroke="midnightblue" points="194.95,-168.84 190.24,-178.34 199.84,-173.85 194.95,-168.84"/>
</g>
<!-- Node4 -->
<g id="node4" class="node">
<title>Node4</title>
<g id="a_node4"><a xlink:href="../../d3/dcd/applications_2_external_solvers_application_2custom__python_2add__linear__solvers__to__python_8cpp.html" target="_top" xlink:title=" ">
<polygon fill="none" stroke="black" points="168.5,-0.5 168.5,-52.5 338.5,-52.5 338.5,-0.5 168.5,-0.5"/>
<text text-anchor="start" x="176.5" y="-40.5" font-family="Helvetica,sans-Serif" font-size="10.00">/github/workspace/applications</text>
<text text-anchor="start" x="176.5" y="-29.5" font-family="Helvetica,sans-Serif" font-size="10.00">/ExternalSolversApplication</text>
<text text-anchor="start" x="176.5" y="-18.5" font-family="Helvetica,sans-Serif" font-size="10.00">/custom_python/add_linear_solvers</text>
<text text-anchor="middle" x="253.5" y="-7.5" font-family="Helvetica,sans-Serif" font-size="10.00">_to_python.cpp</text>
</a>
</g>
</g>
<!-- Node3&#45;&gt;Node4 -->
<g id="edge3" class="edge">
<title>Node3&#45;&gt;Node4</title>
<path fill="none" stroke="midnightblue" d="M253.5,-84.51C253.5,-74.17 253.5,-62.71 253.5,-52.79"/>
<polygon fill="midnightblue" stroke="midnightblue" points="250,-84.76 253.5,-94.76 257,-84.76 250,-84.76"/>
</g>
</g>
</svg>
