<?xml version="1.0" encoding="UTF-8" standalone="no"?>
<!DOCTYPE svg PUBLIC "-//W3C//DTD SVG 1.1//EN"
 "http://www.w3.org/Graphics/SVG/1.1/DTD/svg11.dtd">
<!-- Generated by graphviz version 2.48.0 (20210719.0153)
 -->
<!-- Title: /github/workspace/kratos/spatial_containers/tree.h Pages: 1 -->
<svg width="337pt" height="151pt"
 viewBox="0.00 0.00 337.00 151.00" xmlns="http://www.w3.org/2000/svg" xmlns:xlink="http://www.w3.org/1999/xlink">
<g id="graph0" class="graph" transform="scale(1 1) rotate(0) translate(4 147)">
<title>/github/workspace/kratos/spatial_containers/tree.h</title>
<!-- Node1 -->
<g id="node1" class="node">
<title>Node1</title>
<g id="a_node1"><a xlink:title=" ">
<polygon fill="#bfbfbf" stroke="black" points="90.5,-112.5 90.5,-142.5 216.5,-142.5 216.5,-112.5 90.5,-112.5"/>
<text text-anchor="start" x="98.5" y="-130.5" font-family="Helvetica,sans-Serif" font-size="10.00">/github/workspace/kratos</text>
<text text-anchor="middle" x="153.5" y="-119.5" font-family="Helvetica,sans-Serif" font-size="10.00">/spatial_containers/tree.h</text>
</a>
</g>
</g>
<!-- Node2 -->
<g id="node2" class="node">
<title>Node2</title>
<g id="a_node2"><a xlink:title=" ">
<polygon fill="none" stroke="#bfbfbf" points="0,-56.5 0,-75.5 41,-75.5 41,-56.5 0,-56.5"/>
<text text-anchor="middle" x="20.5" y="-63.5" font-family="Helvetica,sans-Serif" font-size="10.00">string</text>
</a>
</g>
</g>
<!-- Node1&#45;&gt;Node2 -->
<g id="edge1" class="edge">
<title>Node1&#45;&gt;Node2</title>
<path fill="none" stroke="midnightblue" d="M121.98,-112.4C99.86,-102.51 70.53,-89.38 49.09,-79.79"/>
<polygon fill="midnightblue" stroke="midnightblue" points="50.41,-76.55 39.85,-75.66 47.55,-82.94 50.41,-76.55"/>
</g>
<!-- Node3 -->
<g id="node3" class="node">
<title>Node3</title>
<g id="a_node3"><a xlink:title=" ">
<polygon fill="none" stroke="#bfbfbf" points="59.5,-56.5 59.5,-75.5 113.5,-75.5 113.5,-56.5 59.5,-56.5"/>
<text text-anchor="middle" x="86.5" y="-63.5" font-family="Helvetica,sans-Serif" font-size="10.00">iostream</text>
</a>
</g>
</g>
<!-- Node1&#45;&gt;Node3 -->
<g id="edge2" class="edge">
<title>Node1&#45;&gt;Node3</title>
<path fill="none" stroke="midnightblue" d="M137.62,-112.4C127.48,-103.4 114.34,-91.72 103.91,-82.47"/>
<polygon fill="midnightblue" stroke="midnightblue" points="106.05,-79.68 96.25,-75.66 101.4,-84.92 106.05,-79.68"/>
</g>
<!-- Node4 -->
<g id="node4" class="node">
<title>Node4</title>
<g id="a_node4"><a xlink:title=" ">
<polygon fill="none" stroke="#bfbfbf" points="131.5,-56.5 131.5,-75.5 175.5,-75.5 175.5,-56.5 131.5,-56.5"/>
<text text-anchor="middle" x="153.5" y="-63.5" font-family="Helvetica,sans-Serif" font-size="10.00">cmath</text>
</a>
</g>
</g>
<!-- Node1&#45;&gt;Node4 -->
<g id="edge3" class="edge">
<title>Node1&#45;&gt;Node4</title>
<path fill="none" stroke="midnightblue" d="M153.5,-112.4C153.5,-104.47 153.5,-94.46 153.5,-85.86"/>
<polygon fill="midnightblue" stroke="midnightblue" points="157,-85.66 153.5,-75.66 150,-85.66 157,-85.66"/>
</g>
<!-- Node5 -->
<g id="node5" class="node">
<title>Node5</title>
<g id="a_node5"><a xlink:title=" ">
<polygon fill="none" stroke="#bfbfbf" points="219.5,-0.5 219.5,-19.5 263.5,-19.5 263.5,-0.5 219.5,-0.5"/>
<text text-anchor="middle" x="241.5" y="-7.5" font-family="Helvetica,sans-Serif" font-size="10.00">vector</text>
</a>
</g>
</g>
<!-- Node1&#45;&gt;Node5 -->
<g id="edge4" class="edge">
<title>Node1&#45;&gt;Node5</title>
<path fill="none" stroke="midnightblue" d="M164.29,-112.34C180.58,-90.96 211.38,-50.53 228.75,-27.73"/>
<polygon fill="midnightblue" stroke="midnightblue" points="231.62,-29.74 234.89,-19.67 226.05,-25.5 231.62,-29.74"/>
</g>
<!-- Node6 -->
<g id="node6" class="node">
<title>Node6</title>
<g id="a_node6"><a xlink:href="../../da/d24/search__structure_8h.html" target="_top" xlink:title=" ">
<polygon fill="none" stroke="black" points="232,-56.5 232,-75.5 329,-75.5 329,-56.5 232,-56.5"/>
<text text-anchor="middle" x="280.5" y="-63.5" font-family="Helvetica,sans-Serif" font-size="10.00">search_structure.h</text>
</a>
</g>
</g>
<!-- Node1&#45;&gt;Node6 -->
<g id="edge5" class="edge">
<title>Node1&#45;&gt;Node6</title>
<path fill="none" stroke="midnightblue" d="M183.6,-112.4C204.62,-102.55 232.47,-89.5 252.92,-79.92"/>
<polygon fill="midnightblue" stroke="midnightblue" points="254.45,-83.07 262.02,-75.66 251.48,-76.73 254.45,-83.07"/>
</g>
<!-- Node6&#45;&gt;Node5 -->
<g id="edge6" class="edge">
<title>Node6&#45;&gt;Node5</title>
<path fill="none" stroke="midnightblue" d="M274.06,-56.08C268.55,-48.46 260.47,-37.26 253.74,-27.94"/>
<polygon fill="midnightblue" stroke="midnightblue" points="256.51,-25.81 247.82,-19.75 250.84,-29.91 256.51,-25.81"/>
</g>
</g>
</svg>
