<?xml version="1.0" encoding="UTF-8" standalone="no"?>
<!DOCTYPE svg PUBLIC "-//W3C//DTD SVG 1.1//EN"
 "http://www.w3.org/Graphics/SVG/1.1/DTD/svg11.dtd">
<!-- Generated by graphviz version 2.48.0 (20210719.0153)
 -->
<!-- Title: boost::numeric::ublas::matrix_scalar_real_unary_functor&lt; T &gt; Pages: 1 -->
<svg width="407pt" height="204pt"
 viewBox="0.00 0.00 407.00 204.00" xmlns="http://www.w3.org/2000/svg" xmlns:xlink="http://www.w3.org/1999/xlink">
<g id="graph0" class="graph" transform="scale(1 1) rotate(0) translate(4 200)">
<title>boost::numeric::ublas::matrix_scalar_real_unary_functor&lt; T &gt;</title>
<!-- Node1 -->
<g id="node1" class="node">
<title>Node1</title>
<g id="a_node1"><a xlink:title=" ">
<polygon fill="#bfbfbf" stroke="black" points="143,-116.5 143,-195.5 250,-195.5 250,-116.5 143,-116.5"/>
<text text-anchor="start" x="151" y="-183.5" font-family="Helvetica,sans-Serif" font-size="10.00">boost::numeric::ublas</text>
<text text-anchor="start" x="151" y="-172.5" font-family="Helvetica,sans-Serif" font-size="10.00">::matrix_scalar_real</text>
<text text-anchor="middle" x="196.5" y="-161.5" font-family="Helvetica,sans-Serif" font-size="10.00">_unary_functor&lt; T &gt;</text>
<polyline fill="none" stroke="black" points="143,-154.5 250,-154.5 "/>
<text text-anchor="middle" x="196.5" y="-142.5" font-family="Helvetica,sans-Serif" font-size="10.00"> </text>
<polyline fill="none" stroke="black" points="143,-135.5 250,-135.5 "/>
<text text-anchor="middle" x="196.5" y="-123.5" font-family="Helvetica,sans-Serif" font-size="10.00"> </text>
</a>
</g>
</g>
<!-- Node2 -->
<g id="node2" class="node">
<title>Node2</title>
<g id="a_node2"><a xlink:href="../../d2/dc1/structboost_1_1numeric_1_1ublas_1_1matrix__norm__1.html" target="_top" xlink:title=" ">
<polygon fill="none" stroke="black" points="0,-0.5 0,-79.5 107,-79.5 107,-0.5 0,-0.5"/>
<text text-anchor="start" x="8" y="-67.5" font-family="Helvetica,sans-Serif" font-size="10.00">boost::numeric::ublas</text>
<text text-anchor="middle" x="53.5" y="-56.5" font-family="Helvetica,sans-Serif" font-size="10.00">::matrix_norm_1&lt; T &gt;</text>
<polyline fill="none" stroke="black" points="0,-49.5 107,-49.5 "/>
<text text-anchor="middle" x="53.5" y="-37.5" font-family="Helvetica,sans-Serif" font-size="10.00"> </text>
<polyline fill="none" stroke="black" points="0,-30.5 107,-30.5 "/>
<text text-anchor="start" x="8" y="-18.5" font-family="Helvetica,sans-Serif" font-size="10.00">+ apply()</text>
<text text-anchor="start" x="8" y="-7.5" font-family="Helvetica,sans-Serif" font-size="10.00">+ apply()</text>
</a>
</g>
</g>
<!-- Node1&#45;&gt;Node2 -->
<g id="edge1" class="edge">
<title>Node1&#45;&gt;Node2</title>
<path fill="none" stroke="midnightblue" d="M134.76,-111.03C121.58,-100.73 107.96,-89.83 95.71,-79.78"/>
<polygon fill="none" stroke="midnightblue" points="132.85,-113.98 142.89,-117.36 137.14,-108.45 132.85,-113.98"/>
</g>
<!-- Node1&#45;&gt;Node2 -->
<g id="edge2" class="edge">
<title>Node1&#45;&gt;Node2</title>
<path fill="none" stroke="midnightblue" d="M146.72,-110.05C133.98,-99.7 120.23,-88.79 107.29,-78.78"/>
<polygon fill="none" stroke="midnightblue" points="144.55,-112.79 154.51,-116.4 148.98,-107.37 144.55,-112.79"/>
</g>
<!-- Node3 -->
<g id="node3" class="node">
<title>Node3</title>
<g id="a_node3"><a xlink:href="../../d8/d7f/structboost_1_1numeric_1_1ublas_1_1matrix__norm__frobenius.html" target="_top" xlink:title=" ">
<polygon fill="none" stroke="black" points="125.5,-0.5 125.5,-79.5 267.5,-79.5 267.5,-0.5 125.5,-0.5"/>
<text text-anchor="start" x="133.5" y="-67.5" font-family="Helvetica,sans-Serif" font-size="10.00">boost::numeric::ublas</text>
<text text-anchor="middle" x="196.5" y="-56.5" font-family="Helvetica,sans-Serif" font-size="10.00">::matrix_norm_frobenius&lt; T &gt;</text>
<polyline fill="none" stroke="black" points="125.5,-49.5 267.5,-49.5 "/>
<text text-anchor="middle" x="196.5" y="-37.5" font-family="Helvetica,sans-Serif" font-size="10.00"> </text>
<polyline fill="none" stroke="black" points="125.5,-30.5 267.5,-30.5 "/>
<text text-anchor="start" x="133.5" y="-18.5" font-family="Helvetica,sans-Serif" font-size="10.00">+ apply()</text>
<text text-anchor="start" x="133.5" y="-7.5" font-family="Helvetica,sans-Serif" font-size="10.00">+ apply()</text>
</a>
</g>
</g>
<!-- Node1&#45;&gt;Node3 -->
<g id="edge3" class="edge">
<title>Node1&#45;&gt;Node3</title>
<path fill="none" stroke="midnightblue" d="M189.81,-106.15C189.68,-97.26 189.76,-88.1 190.07,-79.56"/>
<polygon fill="none" stroke="midnightblue" points="186.32,-106.5 190.07,-116.4 193.32,-106.32 186.32,-106.5"/>
</g>
<!-- Node1&#45;&gt;Node3 -->
<g id="edge4" class="edge">
<title>Node1&#45;&gt;Node3</title>
<path fill="none" stroke="midnightblue" d="M203.19,-106.15C203.32,-97.26 203.24,-88.1 202.93,-79.56"/>
<polygon fill="none" stroke="midnightblue" points="199.68,-106.32 202.93,-116.4 206.68,-106.5 199.68,-106.32"/>
</g>
<!-- Node4 -->
<g id="node4" class="node">
<title>Node4</title>
<g id="a_node4"><a xlink:href="../../d6/d68/structboost_1_1numeric_1_1ublas_1_1matrix__norm__inf.html" target="_top" xlink:title=" ">
<polygon fill="none" stroke="black" points="286,-0.5 286,-79.5 399,-79.5 399,-0.5 286,-0.5"/>
<text text-anchor="start" x="294" y="-67.5" font-family="Helvetica,sans-Serif" font-size="10.00">boost::numeric::ublas</text>
<text text-anchor="middle" x="342.5" y="-56.5" font-family="Helvetica,sans-Serif" font-size="10.00">::matrix_norm_inf&lt; T &gt;</text>
<polyline fill="none" stroke="black" points="286,-49.5 399,-49.5 "/>
<text text-anchor="middle" x="342.5" y="-37.5" font-family="Helvetica,sans-Serif" font-size="10.00"> </text>
<polyline fill="none" stroke="black" points="286,-30.5 399,-30.5 "/>
<text text-anchor="start" x="294" y="-18.5" font-family="Helvetica,sans-Serif" font-size="10.00">+ apply()</text>
<text text-anchor="start" x="294" y="-7.5" font-family="Helvetica,sans-Serif" font-size="10.00">+ apply()</text>
</a>
</g>
</g>
<!-- Node1&#45;&gt;Node4 -->
<g id="edge5" class="edge">
<title>Node1&#45;&gt;Node4</title>
<path fill="none" stroke="midnightblue" d="M247.65,-109.9C260.28,-99.86 273.86,-89.3 286.7,-79.56"/>
<polygon fill="none" stroke="midnightblue" points="245.13,-107.43 239.5,-116.4 249.5,-112.9 245.13,-107.43"/>
</g>
<!-- Node1&#45;&gt;Node4 -->
<g id="edge6" class="edge">
<title>Node1&#45;&gt;Node4</title>
<path fill="none" stroke="midnightblue" d="M258.31,-111.87C272.09,-101.33 286.41,-90.11 299.26,-79.79"/>
<polygon fill="none" stroke="midnightblue" points="256.11,-109.15 250.27,-117.99 260.35,-114.72 256.11,-109.15"/>
</g>
</g>
</svg>
