<?xml version="1.0" encoding="UTF-8" standalone="no"?>
<!DOCTYPE svg PUBLIC "-//W3C//DTD SVG 1.1//EN"
 "http://www.w3.org/Graphics/SVG/1.1/DTD/svg11.dtd">
<!-- Generated by graphviz version 2.48.0 (20210719.0153)
 -->
<!-- Title: boost::numeric::ublas::matrix_range&lt; M &gt;::const_iterator2 Pages: 1 -->
<svg width="470pt" height="540pt"
 viewBox="0.00 0.00 470.00 540.00" xmlns="http://www.w3.org/2000/svg" xmlns:xlink="http://www.w3.org/1999/xlink">
<g id="graph0" class="graph" transform="scale(1 1) rotate(0) translate(4 536)">
<title>boost::numeric::ublas::matrix_range&lt; M &gt;::const_iterator2</title>
<!-- Node1 -->
<g id="node1" class="node">
<title>Node1</title>
<g id="a_node1"><a xlink:title=" ">
<polygon fill="#bfbfbf" stroke="black" points="99.5,-0.5 99.5,-189.5 206.5,-189.5 206.5,-0.5 99.5,-0.5"/>
<text text-anchor="start" x="107.5" y="-177.5" font-family="Helvetica,sans-Serif" font-size="10.00">boost::numeric::ublas</text>
<text text-anchor="start" x="107.5" y="-166.5" font-family="Helvetica,sans-Serif" font-size="10.00">::matrix_range&lt; M &gt;::</text>
<text text-anchor="middle" x="153" y="-155.5" font-family="Helvetica,sans-Serif" font-size="10.00">const_iterator2</text>
<polyline fill="none" stroke="black" points="99.5,-148.5 206.5,-148.5 "/>
<text text-anchor="middle" x="153" y="-136.5" font-family="Helvetica,sans-Serif" font-size="10.00"> </text>
<polyline fill="none" stroke="black" points="99.5,-129.5 206.5,-129.5 "/>
<text text-anchor="start" x="107.5" y="-117.5" font-family="Helvetica,sans-Serif" font-size="10.00">+ const_iterator2()</text>
<text text-anchor="start" x="107.5" y="-106.5" font-family="Helvetica,sans-Serif" font-size="10.00">+ const_iterator2()</text>
<text text-anchor="start" x="107.5" y="-95.5" font-family="Helvetica,sans-Serif" font-size="10.00">+ const_iterator2()</text>
<text text-anchor="start" x="107.5" y="-84.5" font-family="Helvetica,sans-Serif" font-size="10.00">+ operator++()</text>
<text text-anchor="start" x="107.5" y="-73.5" font-family="Helvetica,sans-Serif" font-size="10.00">+ operator&#45;&#45;()</text>
<text text-anchor="start" x="107.5" y="-62.5" font-family="Helvetica,sans-Serif" font-size="10.00">+ operator+=()</text>
<text text-anchor="start" x="107.5" y="-51.5" font-family="Helvetica,sans-Serif" font-size="10.00">+ operator&#45;=()</text>
<text text-anchor="start" x="107.5" y="-40.5" font-family="Helvetica,sans-Serif" font-size="10.00">+ operator&#45;()</text>
<text text-anchor="start" x="107.5" y="-29.5" font-family="Helvetica,sans-Serif" font-size="10.00">+ operator*()</text>
<text text-anchor="start" x="107.5" y="-18.5" font-family="Helvetica,sans-Serif" font-size="10.00">+ begin()</text>
<text text-anchor="start" x="107.5" y="-7.5" font-family="Helvetica,sans-Serif" font-size="10.00">and 26 more...</text>
</a>
</g>
</g>
<!-- Node2 -->
<g id="node2" class="node">
<title>Node2</title>
<g id="a_node2"><a xlink:href="../../dc/d2f/classboost_1_1numeric_1_1ublas_1_1container__const__reference.html" target="_top" xlink:title=" ">
<polygon fill="none" stroke="black" points="0,-226.5 0,-404.5 146,-404.5 146,-226.5 0,-226.5"/>
<text text-anchor="start" x="8" y="-392.5" font-family="Helvetica,sans-Serif" font-size="10.00">boost::numeric::ublas</text>
<text text-anchor="start" x="8" y="-381.5" font-family="Helvetica,sans-Serif" font-size="10.00">::container_const_reference</text>
<text text-anchor="middle" x="73" y="-370.5" font-family="Helvetica,sans-Serif" font-size="10.00">&lt; matrix_range &gt;</text>
<polyline fill="none" stroke="black" points="0,-363.5 146,-363.5 "/>
<text text-anchor="middle" x="73" y="-351.5" font-family="Helvetica,sans-Serif" font-size="10.00"> </text>
<polyline fill="none" stroke="black" points="0,-344.5 146,-344.5 "/>
<text text-anchor="start" x="8" y="-332.5" font-family="Helvetica,sans-Serif" font-size="10.00">+ container_const_reference()</text>
<text text-anchor="start" x="8" y="-321.5" font-family="Helvetica,sans-Serif" font-size="10.00">+ container_const_reference()</text>
<text text-anchor="start" x="8" y="-310.5" font-family="Helvetica,sans-Serif" font-size="10.00">+ container_const_reference()</text>
<text text-anchor="start" x="8" y="-299.5" font-family="Helvetica,sans-Serif" font-size="10.00">+ container_const_reference()</text>
<text text-anchor="start" x="8" y="-288.5" font-family="Helvetica,sans-Serif" font-size="10.00">+ operator()()</text>
<text text-anchor="start" x="8" y="-277.5" font-family="Helvetica,sans-Serif" font-size="10.00">+ operator()()</text>
<text text-anchor="start" x="8" y="-266.5" font-family="Helvetica,sans-Serif" font-size="10.00">+ assign()</text>
<text text-anchor="start" x="8" y="-255.5" font-family="Helvetica,sans-Serif" font-size="10.00">+ assign()</text>
<text text-anchor="start" x="8" y="-244.5" font-family="Helvetica,sans-Serif" font-size="10.00">+ same_closure()</text>
<text text-anchor="start" x="8" y="-233.5" font-family="Helvetica,sans-Serif" font-size="10.00">+ same_closure()</text>
</a>
</g>
</g>
<!-- Node2&#45;&gt;Node1 -->
<g id="edge1" class="edge">
<title>Node2&#45;&gt;Node1</title>
<path fill="none" stroke="midnightblue" d="M102.14,-216.57C105.37,-207.59 108.71,-198.51 112.05,-189.57"/>
<polygon fill="none" stroke="midnightblue" points="98.74,-215.66 98.67,-226.26 105.34,-218.02 98.74,-215.66"/>
</g>
<!-- Node2&#45;&gt;Node1 -->
<g id="edge5" class="edge">
<title>Node2&#45;&gt;Node1</title>
<path fill="none" stroke="midnightblue" d="M115.47,-216.85C118.84,-207.78 122.19,-198.6 125.43,-189.57"/>
<polygon fill="none" stroke="midnightblue" points="112.18,-215.67 111.95,-226.26 118.73,-218.12 112.18,-215.67"/>
</g>
<!-- Node3 -->
<g id="node3" class="node">
<title>Node3</title>
<g id="a_node3"><a xlink:href="../../d2/dbf/classboost_1_1numeric_1_1ublas_1_1nonassignable___1_1nonassignable.html" target="_top" xlink:title=" ">
<polygon fill="none" stroke="black" points="24,-441.5 24,-531.5 122,-531.5 122,-441.5 24,-441.5"/>
<text text-anchor="middle" x="73" y="-519.5" font-family="Helvetica,sans-Serif" font-size="10.00">nonassignable</text>
<polyline fill="none" stroke="black" points="24,-512.5 122,-512.5 "/>
<text text-anchor="middle" x="73" y="-500.5" font-family="Helvetica,sans-Serif" font-size="10.00"> </text>
<polyline fill="none" stroke="black" points="24,-493.5 122,-493.5 "/>
<text text-anchor="start" x="32" y="-481.5" font-family="Helvetica,sans-Serif" font-size="10.00"># nonassignable()</text>
<text text-anchor="start" x="32" y="-470.5" font-family="Helvetica,sans-Serif" font-size="10.00"># ~nonassignable()</text>
<text text-anchor="start" x="32" y="-459.5" font-family="Helvetica,sans-Serif" font-size="10.00"># nonassignable()</text>
<text text-anchor="start" x="32" y="-448.5" font-family="Helvetica,sans-Serif" font-size="10.00"># ~nonassignable()</text>
</a>
</g>
</g>
<!-- Node3&#45;&gt;Node2 -->
<g id="edge2" class="edge">
<title>Node3&#45;&gt;Node2</title>
<path fill="none" stroke="#8b1a1a" d="M66.64,-431.06C66.41,-422.63 66.28,-413.73 66.26,-404.78"/>
<polygon fill="none" stroke="#8b1a1a" points="63.15,-431.22 66.98,-441.1 70.14,-430.99 63.15,-431.22"/>
</g>
<!-- Node3&#45;&gt;Node2 -->
<g id="edge3" class="edge">
<title>Node3&#45;&gt;Node2</title>
<path fill="none" stroke="#8b1a1a" d="M79.36,-431.06C79.59,-422.63 79.72,-413.73 79.74,-404.78"/>
<polygon fill="none" stroke="#8b1a1a" points="75.86,-430.99 79.02,-441.1 82.85,-431.22 75.86,-430.99"/>
</g>
<!-- Node4 -->
<g id="node4" class="node">
<title>Node4</title>
<g id="a_node4"><a xlink:title=" ">
<polygon fill="none" stroke="#bfbfbf" points="164,-254 164,-377 304,-377 304,-254 164,-254"/>
<text text-anchor="start" x="172" y="-365" font-family="Helvetica,sans-Serif" font-size="10.00">iterator_base_traits</text>
<text text-anchor="start" x="172" y="-354" font-family="Helvetica,sans-Serif" font-size="10.00">&lt; const_subiterator2</text>
<text text-anchor="start" x="172" y="-343" font-family="Helvetica,sans-Serif" font-size="10.00">_type::iterator_category</text>
<text text-anchor="middle" x="234" y="-332" font-family="Helvetica,sans-Serif" font-size="10.00"> &gt;::template</text>
<text text-anchor="start" x="172" y="-321" font-family="Helvetica,sans-Serif" font-size="10.00"> </text>
<text text-anchor="start" x="172" y="-310" font-family="Helvetica,sans-Serif" font-size="10.00"> iterator_base&lt; const</text>
<text text-anchor="middle" x="234" y="-299" font-family="Helvetica,sans-Serif" font-size="10.00">_iterator2, value_type &gt;::type</text>
<polyline fill="none" stroke="#bfbfbf" points="164,-292 304,-292 "/>
<text text-anchor="middle" x="234" y="-280" font-family="Helvetica,sans-Serif" font-size="10.00"> </text>
<polyline fill="none" stroke="#bfbfbf" points="164,-273 304,-273 "/>
<text text-anchor="middle" x="234" y="-261" font-family="Helvetica,sans-Serif" font-size="10.00"> </text>
</a>
</g>
</g>
<!-- Node4&#45;&gt;Node1 -->
<g id="edge4" class="edge">
<title>Node4&#45;&gt;Node1</title>
<path fill="none" stroke="midnightblue" d="M208.03,-244.45C201.59,-227.08 194.59,-208.19 187.8,-189.89"/>
<polygon fill="none" stroke="midnightblue" points="204.79,-245.77 211.54,-253.93 211.35,-243.33 204.79,-245.77"/>
</g>
<!-- Node5 -->
<g id="node5" class="node">
<title>Node5</title>
<g id="a_node5"><a xlink:title=" ">
<polygon fill="none" stroke="#bfbfbf" points="322,-281.5 322,-349.5 462,-349.5 462,-281.5 322,-281.5"/>
<text text-anchor="start" x="330" y="-337.5" font-family="Helvetica,sans-Serif" font-size="10.00">iterator_base_traits</text>
<text text-anchor="middle" x="392" y="-326.5" font-family="Helvetica,sans-Serif" font-size="10.00">::template iterator_base::type</text>
<polyline fill="none" stroke="#bfbfbf" points="322,-319.5 462,-319.5 "/>
<text text-anchor="middle" x="392" y="-307.5" font-family="Helvetica,sans-Serif" font-size="10.00"> </text>
<polyline fill="none" stroke="#bfbfbf" points="322,-300.5 462,-300.5 "/>
<text text-anchor="middle" x="392" y="-288.5" font-family="Helvetica,sans-Serif" font-size="10.00"> </text>
</a>
</g>
</g>
<!-- Node5&#45;&gt;Node1 -->
<g id="edge6" class="edge">
<title>Node5&#45;&gt;Node1</title>
<path fill="none" stroke="midnightblue" d="M357.86,-273.54C344.4,-258.13 328.48,-240.77 313,-226 279.34,-193.87 238.61,-160.85 206.67,-136.13"/>
<polygon fill="none" stroke="midnightblue" points="355.47,-276.13 364.66,-281.4 360.77,-271.55 355.47,-276.13"/>
</g>
</g>
</svg>
