<?xml version="1.0" encoding="UTF-8" standalone="no"?>
<!DOCTYPE svg PUBLIC "-//W3C//DTD SVG 1.1//EN"
 "http://www.w3.org/Graphics/SVG/1.1/DTD/svg11.dtd">
<!-- Generated by graphviz version 2.48.0 (20210719.0153)
 -->
<!-- Title: boost::numeric::ublas::matrix_temporary_traits&lt; triangular_adaptor&lt; M, TRI &gt; &gt; Pages: 1 -->
<svg width="139pt" height="226pt"
 viewBox="0.00 0.00 139.00 226.00" xmlns="http://www.w3.org/2000/svg" xmlns:xlink="http://www.w3.org/1999/xlink">
<g id="graph0" class="graph" transform="scale(1 1) rotate(0) translate(4 222)">
<title>boost::numeric::ublas::matrix_temporary_traits&lt; triangular_adaptor&lt; M, TRI &gt; &gt;</title>
<!-- Node1 -->
<g id="node1" class="node">
<title>Node1</title>
<g id="a_node1"><a xlink:title=" ">
<polygon fill="#bfbfbf" stroke="black" points="4.5,-0.5 4.5,-90.5 126.5,-90.5 126.5,-0.5 4.5,-0.5"/>
<text text-anchor="start" x="12.5" y="-78.5" font-family="Helvetica,sans-Serif" font-size="10.00">boost::numeric::ublas</text>
<text text-anchor="start" x="12.5" y="-67.5" font-family="Helvetica,sans-Serif" font-size="10.00">::matrix_temporary_traits</text>
<text text-anchor="start" x="12.5" y="-56.5" font-family="Helvetica,sans-Serif" font-size="10.00">&lt; triangular_adaptor&lt; M,</text>
<text text-anchor="middle" x="65.5" y="-45.5" font-family="Helvetica,sans-Serif" font-size="10.00"> TRI &gt; &gt;</text>
<polyline fill="none" stroke="black" points="4.5,-38.5 126.5,-38.5 "/>
<text text-anchor="middle" x="65.5" y="-26.5" font-family="Helvetica,sans-Serif" font-size="10.00"> </text>
<polyline fill="none" stroke="black" points="4.5,-19.5 126.5,-19.5 "/>
<text text-anchor="middle" x="65.5" y="-7.5" font-family="Helvetica,sans-Serif" font-size="10.00"> </text>
</a>
</g>
</g>
<!-- Node2 -->
<g id="node2" class="node">
<title>Node2</title>
<g id="a_node2"><a xlink:href="../../db/d53/structboost_1_1numeric_1_1ublas_1_1matrix__temporary__traits.html" target="_top" xlink:title=" ">
<polygon fill="none" stroke="black" points="0,-127.5 0,-217.5 131,-217.5 131,-127.5 0,-127.5"/>
<text text-anchor="start" x="8" y="-205.5" font-family="Helvetica,sans-Serif" font-size="10.00">boost::numeric::ublas</text>
<text text-anchor="start" x="8" y="-194.5" font-family="Helvetica,sans-Serif" font-size="10.00">::matrix_temporary_traits</text>
<text text-anchor="start" x="8" y="-183.5" font-family="Helvetica,sans-Serif" font-size="10.00">&lt; boost::remove_const&lt; M</text>
<text text-anchor="middle" x="65.5" y="-172.5" font-family="Helvetica,sans-Serif" font-size="10.00"> &gt;::type &gt;</text>
<polyline fill="none" stroke="black" points="0,-165.5 131,-165.5 "/>
<text text-anchor="middle" x="65.5" y="-153.5" font-family="Helvetica,sans-Serif" font-size="10.00"> </text>
<polyline fill="none" stroke="black" points="0,-146.5 131,-146.5 "/>
<text text-anchor="middle" x="65.5" y="-134.5" font-family="Helvetica,sans-Serif" font-size="10.00"> </text>
</a>
</g>
</g>
<!-- Node2&#45;&gt;Node1 -->
<g id="edge1" class="edge">
<title>Node2&#45;&gt;Node1</title>
<path fill="none" stroke="midnightblue" d="M58.8,-117.16C58.69,-108.28 58.76,-99.18 59.02,-90.59"/>
<polygon fill="none" stroke="midnightblue" points="55.31,-117.51 59.02,-127.43 62.31,-117.36 55.31,-117.51"/>
</g>
<!-- Node2&#45;&gt;Node1 -->
<g id="edge2" class="edge">
<title>Node2&#45;&gt;Node1</title>
<path fill="none" stroke="midnightblue" d="M72.2,-117.16C72.31,-108.28 72.24,-99.18 71.98,-90.59"/>
<polygon fill="none" stroke="midnightblue" points="68.69,-117.36 71.98,-127.43 75.69,-117.51 68.69,-117.36"/>
</g>
</g>
</svg>
