<?xml version="1.0" encoding="UTF-8" standalone="no"?>
<!DOCTYPE svg PUBLIC "-//W3C//DTD SVG 1.1//EN"
 "http://www.w3.org/Graphics/SVG/1.1/DTD/svg11.dtd">
<!-- Generated by graphviz version 2.48.0 (20210719.0153)
 -->
<!-- Title: boost::numeric::ublas::matrix_vector_binary_functor&lt; T1, T2, TR &gt; Pages: 1 -->
<svg width="244pt" height="314pt"
 viewBox="0.00 0.00 244.00 314.00" xmlns="http://www.w3.org/2000/svg" xmlns:xlink="http://www.w3.org/1999/xlink">
<g id="graph0" class="graph" transform="scale(1 1) rotate(0) translate(4 310)">
<title>boost::numeric::ublas::matrix_vector_binary_functor&lt; T1, T2, TR &gt;</title>
<!-- Node1 -->
<g id="node1" class="node">
<title>Node1</title>
<g id="a_node1"><a xlink:title=" ">
<polygon fill="#bfbfbf" stroke="black" points="60.5,-226.5 60.5,-305.5 174.5,-305.5 174.5,-226.5 60.5,-226.5"/>
<text text-anchor="start" x="68.5" y="-293.5" font-family="Helvetica,sans-Serif" font-size="10.00">boost::numeric::ublas</text>
<text text-anchor="start" x="68.5" y="-282.5" font-family="Helvetica,sans-Serif" font-size="10.00">::matrix_vector_binary</text>
<text text-anchor="middle" x="117.5" y="-271.5" font-family="Helvetica,sans-Serif" font-size="10.00">_functor&lt; T1, T2, TR &gt;</text>
<polyline fill="none" stroke="black" points="60.5,-264.5 174.5,-264.5 "/>
<text text-anchor="middle" x="117.5" y="-252.5" font-family="Helvetica,sans-Serif" font-size="10.00"> </text>
<polyline fill="none" stroke="black" points="60.5,-245.5 174.5,-245.5 "/>
<text text-anchor="middle" x="117.5" y="-233.5" font-family="Helvetica,sans-Serif" font-size="10.00"> </text>
</a>
</g>
</g>
<!-- Node2 -->
<g id="node2" class="node">
<title>Node2</title>
<g id="a_node2"><a xlink:href="../../df/d2d/structboost_1_1numeric_1_1ublas_1_1matrix__vector__prod1.html" target="_top" xlink:title=" ">
<polygon fill="none" stroke="black" points="0,-0.5 0,-189.5 109,-189.5 109,-0.5 0,-0.5"/>
<text text-anchor="start" x="8" y="-177.5" font-family="Helvetica,sans-Serif" font-size="10.00">boost::numeric::ublas</text>
<text text-anchor="start" x="8" y="-166.5" font-family="Helvetica,sans-Serif" font-size="10.00">::matrix_vector_prod1</text>
<text text-anchor="middle" x="54.5" y="-155.5" font-family="Helvetica,sans-Serif" font-size="10.00">&lt; T1, T2, TR &gt;</text>
<polyline fill="none" stroke="black" points="0,-148.5 109,-148.5 "/>
<text text-anchor="middle" x="54.5" y="-136.5" font-family="Helvetica,sans-Serif" font-size="10.00"> </text>
<polyline fill="none" stroke="black" points="0,-129.5 109,-129.5 "/>
<text text-anchor="start" x="8" y="-117.5" font-family="Helvetica,sans-Serif" font-size="10.00">+ apply()</text>
<text text-anchor="start" x="8" y="-106.5" font-family="Helvetica,sans-Serif" font-size="10.00">+ apply()</text>
<text text-anchor="start" x="8" y="-95.5" font-family="Helvetica,sans-Serif" font-size="10.00">+ apply()</text>
<text text-anchor="start" x="8" y="-84.5" font-family="Helvetica,sans-Serif" font-size="10.00">+ apply()</text>
<text text-anchor="start" x="8" y="-73.5" font-family="Helvetica,sans-Serif" font-size="10.00">+ apply()</text>
<text text-anchor="start" x="8" y="-62.5" font-family="Helvetica,sans-Serif" font-size="10.00">+ apply()</text>
<text text-anchor="start" x="8" y="-51.5" font-family="Helvetica,sans-Serif" font-size="10.00">+ apply()</text>
<text text-anchor="start" x="8" y="-40.5" font-family="Helvetica,sans-Serif" font-size="10.00">+ apply()</text>
<text text-anchor="start" x="8" y="-29.5" font-family="Helvetica,sans-Serif" font-size="10.00">+ apply()</text>
<text text-anchor="start" x="8" y="-18.5" font-family="Helvetica,sans-Serif" font-size="10.00">+ apply()</text>
<text text-anchor="start" x="8" y="-7.5" font-family="Helvetica,sans-Serif" font-size="10.00">and 6 more...</text>
</a>
</g>
</g>
<!-- Node1&#45;&gt;Node2 -->
<g id="edge1" class="edge">
<title>Node1&#45;&gt;Node2</title>
<path fill="none" stroke="midnightblue" d="M93.37,-216.8C89.87,-208.2 86.24,-198.97 82.68,-189.6"/>
<polygon fill="none" stroke="midnightblue" points="90.21,-218.32 97.27,-226.23 96.68,-215.65 90.21,-218.32"/>
</g>
<!-- Node1&#45;&gt;Node2 -->
<g id="edge2" class="edge">
<title>Node1&#45;&gt;Node2</title>
<path fill="none" stroke="midnightblue" d="M105.6,-216.52C102.71,-208 99.49,-198.87 96.11,-189.6"/>
<polygon fill="none" stroke="midnightblue" points="102.35,-217.84 108.83,-226.23 108.99,-215.63 102.35,-217.84"/>
</g>
<!-- Node3 -->
<g id="node3" class="node">
<title>Node3</title>
<g id="a_node3"><a xlink:href="../../d6/d7d/structboost_1_1numeric_1_1ublas_1_1matrix__vector__prod2.html" target="_top" xlink:title=" ">
<polygon fill="none" stroke="black" points="127,-0.5 127,-189.5 236,-189.5 236,-0.5 127,-0.5"/>
<text text-anchor="start" x="135" y="-177.5" font-family="Helvetica,sans-Serif" font-size="10.00">boost::numeric::ublas</text>
<text text-anchor="start" x="135" y="-166.5" font-family="Helvetica,sans-Serif" font-size="10.00">::matrix_vector_prod2</text>
<text text-anchor="middle" x="181.5" y="-155.5" font-family="Helvetica,sans-Serif" font-size="10.00">&lt; T1, T2, TR &gt;</text>
<polyline fill="none" stroke="black" points="127,-148.5 236,-148.5 "/>
<text text-anchor="middle" x="181.5" y="-136.5" font-family="Helvetica,sans-Serif" font-size="10.00"> </text>
<polyline fill="none" stroke="black" points="127,-129.5 236,-129.5 "/>
<text text-anchor="start" x="135" y="-117.5" font-family="Helvetica,sans-Serif" font-size="10.00">+ apply()</text>
<text text-anchor="start" x="135" y="-106.5" font-family="Helvetica,sans-Serif" font-size="10.00">+ apply()</text>
<text text-anchor="start" x="135" y="-95.5" font-family="Helvetica,sans-Serif" font-size="10.00">+ apply()</text>
<text text-anchor="start" x="135" y="-84.5" font-family="Helvetica,sans-Serif" font-size="10.00">+ apply()</text>
<text text-anchor="start" x="135" y="-73.5" font-family="Helvetica,sans-Serif" font-size="10.00">+ apply()</text>
<text text-anchor="start" x="135" y="-62.5" font-family="Helvetica,sans-Serif" font-size="10.00">+ apply()</text>
<text text-anchor="start" x="135" y="-51.5" font-family="Helvetica,sans-Serif" font-size="10.00">+ apply()</text>
<text text-anchor="start" x="135" y="-40.5" font-family="Helvetica,sans-Serif" font-size="10.00">+ apply()</text>
<text text-anchor="start" x="135" y="-29.5" font-family="Helvetica,sans-Serif" font-size="10.00">+ apply()</text>
<text text-anchor="start" x="135" y="-18.5" font-family="Helvetica,sans-Serif" font-size="10.00">+ apply()</text>
<text text-anchor="start" x="135" y="-7.5" font-family="Helvetica,sans-Serif" font-size="10.00">and 6 more...</text>
</a>
</g>
</g>
<!-- Node1&#45;&gt;Node3 -->
<g id="edge3" class="edge">
<title>Node1&#45;&gt;Node3</title>
<path fill="none" stroke="midnightblue" d="M129.69,-216.52C132.62,-208 135.9,-198.87 139.34,-189.6"/>
<polygon fill="none" stroke="midnightblue" points="126.29,-215.63 126.4,-226.23 132.92,-217.88 126.29,-215.63"/>
</g>
<!-- Node1&#45;&gt;Node3 -->
<g id="edge4" class="edge">
<title>Node1&#45;&gt;Node3</title>
<path fill="none" stroke="midnightblue" d="M141.92,-216.8C145.47,-208.2 149.15,-198.97 152.77,-189.6"/>
<polygon fill="none" stroke="midnightblue" points="138.6,-215.65 137.96,-226.23 145.06,-218.36 138.6,-215.65"/>
</g>
</g>
</svg>
