<?xml version="1.0" encoding="UTF-8" standalone="no"?>
<!DOCTYPE svg PUBLIC "-//W3C//DTD SVG 1.1//EN"
 "http://www.w3.org/Graphics/SVG/1.1/DTD/svg11.dtd">
<!-- Generated by graphviz version 2.48.0 (20210719.0153)
 -->
<!-- Title: /github/workspace/kratos/python/matrix_python_interface.h Pages: 1 -->
<svg width="640pt" height="229pt"
 viewBox="0.00 0.00 640.00 229.00" xmlns="http://www.w3.org/2000/svg" xmlns:xlink="http://www.w3.org/1999/xlink">
<g id="graph0" class="graph" transform="scale(1 1) rotate(0) translate(4 225)">
<title>/github/workspace/kratos/python/matrix_python_interface.h</title>
<!-- Node1 -->
<g id="node1" class="node">
<title>Node1</title>
<g id="a_node1"><a xlink:title=" ">
<polygon fill="#bfbfbf" stroke="black" points="166,-190.5 166,-220.5 327,-220.5 327,-190.5 166,-190.5"/>
<text text-anchor="start" x="174" y="-208.5" font-family="Helvetica,sans-Serif" font-size="10.00">/github/workspace/kratos</text>
<text text-anchor="middle" x="246.5" y="-197.5" font-family="Helvetica,sans-Serif" font-size="10.00">/python/matrix_python_interface.h</text>
</a>
</g>
</g>
<!-- Node2 -->
<g id="node2" class="node">
<title>Node2</title>
<g id="a_node2"><a xlink:title=" ">
<polygon fill="none" stroke="#bfbfbf" points="0,-0.5 0,-19.5 103,-19.5 103,-0.5 0,-0.5"/>
<text text-anchor="middle" x="51.5" y="-7.5" font-family="Helvetica,sans-Serif" font-size="10.00">boost/smart_ptr.hpp</text>
</a>
</g>
</g>
<!-- Node1&#45;&gt;Node2 -->
<g id="edge1" class="edge">
<title>Node1&#45;&gt;Node2</title>
<path fill="none" stroke="midnightblue" d="M167.32,-190.41C144,-182.91 120.06,-171.47 102.5,-154 67.87,-119.55 56.65,-60.04 53.1,-29.8"/>
<polygon fill="midnightblue" stroke="midnightblue" points="56.57,-29.36 52.08,-19.76 49.61,-30.06 56.57,-29.36"/>
</g>
<!-- Node3 -->
<g id="node3" class="node">
<title>Node3</title>
<g id="a_node3"><a xlink:title=" ">
<polygon fill="none" stroke="#bfbfbf" points="507,-112.5 507,-153.5 632,-153.5 632,-112.5 507,-112.5"/>
<text text-anchor="start" x="515" y="-141.5" font-family="Helvetica,sans-Serif" font-size="10.00">boost/python/suite</text>
<text text-anchor="start" x="515" y="-130.5" font-family="Helvetica,sans-Serif" font-size="10.00">/indexing/vector_indexing</text>
<text text-anchor="middle" x="569.5" y="-119.5" font-family="Helvetica,sans-Serif" font-size="10.00">_suite.hpp</text>
</a>
</g>
</g>
<!-- Node1&#45;&gt;Node3 -->
<g id="edge2" class="edge">
<title>Node1&#45;&gt;Node3</title>
<path fill="none" stroke="midnightblue" d="M323.71,-190.46C371.08,-181.5 433.16,-169.13 496.91,-154.06"/>
<polygon fill="midnightblue" stroke="midnightblue" points="497.82,-157.44 506.74,-151.72 496.2,-150.63 497.82,-157.44"/>
</g>
<!-- Node4 -->
<g id="node4" class="node">
<title>Node4</title>
<g id="a_node4"><a xlink:href="../../d6/d1a/readonly__matrix__python__interface_8h.html" target="_top" xlink:title=" ">
<polygon fill="none" stroke="black" points="123.5,-118 123.5,-148 239.5,-148 239.5,-118 123.5,-118"/>
<text text-anchor="start" x="131.5" y="-136" font-family="Helvetica,sans-Serif" font-size="10.00">python/readonly_matrix</text>
<text text-anchor="middle" x="181.5" y="-125" font-family="Helvetica,sans-Serif" font-size="10.00">_python_interface.h</text>
</a>
</g>
</g>
<!-- Node1&#45;&gt;Node4 -->
<g id="edge3" class="edge">
<title>Node1&#45;&gt;Node4</title>
<path fill="none" stroke="midnightblue" d="M233.35,-190.23C224.18,-180.3 211.8,-166.86 201.43,-155.61"/>
<polygon fill="midnightblue" stroke="midnightblue" points="203.99,-153.23 194.63,-148.25 198.84,-157.97 203.99,-153.23"/>
</g>
<!-- Node5 -->
<g id="node5" class="node">
<title>Node5</title>
<g id="a_node5"><a xlink:href="../../df/d67/define_8h.html" target="_top" xlink:title=" ">
<polygon fill="none" stroke="black" points="242,-56.5 242,-75.5 331,-75.5 331,-56.5 242,-56.5"/>
<text text-anchor="middle" x="286.5" y="-63.5" font-family="Helvetica,sans-Serif" font-size="10.00">includes/define.h</text>
</a>
</g>
</g>
<!-- Node1&#45;&gt;Node5 -->
<g id="edge18" class="edge">
<title>Node1&#45;&gt;Node5</title>
<path fill="none" stroke="midnightblue" d="M165.69,-190.52C145.72,-183.05 126.6,-171.59 114.5,-154 103.92,-138.62 103.09,-126.78 114.5,-112 128.88,-93.37 187.14,-80.97 231.92,-73.99"/>
<polygon fill="midnightblue" stroke="midnightblue" points="232.45,-77.45 241.82,-72.5 231.41,-70.52 232.45,-77.45"/>
</g>
<!-- Node10 -->
<g id="node10" class="node">
<title>Node10</title>
<g id="a_node10"><a xlink:href="../../dd/d92/matrix__vector__operator__python_8h.html" target="_top" xlink:title=" ">
<polygon fill="none" stroke="black" points="258,-118 258,-148 365,-148 365,-118 258,-118"/>
<text text-anchor="start" x="266" y="-136" font-family="Helvetica,sans-Serif" font-size="10.00">python/matrix_vector</text>
<text text-anchor="middle" x="311.5" y="-125" font-family="Helvetica,sans-Serif" font-size="10.00">_operator_python.h</text>
</a>
</g>
</g>
<!-- Node1&#45;&gt;Node10 -->
<g id="edge10" class="edge">
<title>Node1&#45;&gt;Node10</title>
<path fill="none" stroke="midnightblue" d="M259.65,-190.23C268.82,-180.3 281.2,-166.86 291.57,-155.61"/>
<polygon fill="midnightblue" stroke="midnightblue" points="294.16,-157.97 298.37,-148.25 289.01,-153.23 294.16,-157.97"/>
</g>
<!-- Node13 -->
<g id="node13" class="node">
<title>Node13</title>
<g id="a_node13"><a xlink:href="../../dd/d0a/matrix__matrix__operator__python_8h.html" target="_top" xlink:title=" ">
<polygon fill="none" stroke="black" points="382.5,-118 382.5,-148 488.5,-148 488.5,-118 382.5,-118"/>
<text text-anchor="start" x="390.5" y="-136" font-family="Helvetica,sans-Serif" font-size="10.00">python/matrix_matrix</text>
<text text-anchor="middle" x="435.5" y="-125" font-family="Helvetica,sans-Serif" font-size="10.00">_operator_python.h</text>
</a>
</g>
</g>
<!-- Node1&#45;&gt;Node13 -->
<g id="edge14" class="edge">
<title>Node1&#45;&gt;Node13</title>
<path fill="none" stroke="midnightblue" d="M284.29,-190.4C314.17,-179.26 356.04,-163.64 388.15,-151.66"/>
<polygon fill="midnightblue" stroke="midnightblue" points="389.63,-154.85 397.77,-148.07 387.18,-148.29 389.63,-154.85"/>
</g>
<!-- Node4&#45;&gt;Node5 -->
<g id="edge4" class="edge">
<title>Node4&#45;&gt;Node5</title>
<path fill="none" stroke="midnightblue" d="M204.28,-117.9C222.05,-106.89 246.6,-91.7 264.24,-80.78"/>
<polygon fill="midnightblue" stroke="midnightblue" points="266.1,-83.75 272.76,-75.51 262.41,-77.79 266.1,-83.75"/>
</g>
<!-- Node5&#45;&gt;Node2 -->
<g id="edge7" class="edge">
<title>Node5&#45;&gt;Node2</title>
<path fill="none" stroke="midnightblue" d="M249.26,-56.44C208.44,-47.06 142.86,-31.99 98.52,-21.8"/>
<polygon fill="midnightblue" stroke="midnightblue" points="99.09,-18.34 88.56,-19.52 97.52,-25.17 99.09,-18.34"/>
</g>
<!-- Node6 -->
<g id="node6" class="node">
<title>Node6</title>
<g id="a_node6"><a xlink:title=" ">
<polygon fill="none" stroke="#bfbfbf" points="260,-0.5 260,-19.5 319,-19.5 319,-0.5 260,-0.5"/>
<text text-anchor="middle" x="289.5" y="-7.5" font-family="Helvetica,sans-Serif" font-size="10.00">stdexcept</text>
</a>
</g>
</g>
<!-- Node5&#45;&gt;Node6 -->
<g id="edge5" class="edge">
<title>Node5&#45;&gt;Node6</title>
<path fill="none" stroke="midnightblue" d="M287,-56.08C287.39,-49.01 287.95,-38.86 288.45,-29.99"/>
<polygon fill="midnightblue" stroke="midnightblue" points="291.95,-29.93 289.01,-19.75 284.96,-29.54 291.95,-29.93"/>
</g>
<!-- Node7 -->
<g id="node7" class="node">
<title>Node7</title>
<g id="a_node7"><a xlink:title=" ">
<polygon fill="none" stroke="#bfbfbf" points="337.5,-0.5 337.5,-19.5 389.5,-19.5 389.5,-0.5 337.5,-0.5"/>
<text text-anchor="middle" x="363.5" y="-7.5" font-family="Helvetica,sans-Serif" font-size="10.00">sstream</text>
</a>
</g>
</g>
<!-- Node5&#45;&gt;Node7 -->
<g id="edge6" class="edge">
<title>Node5&#45;&gt;Node7</title>
<path fill="none" stroke="midnightblue" d="M298.87,-56.32C310.66,-48.06 328.63,-35.45 342.64,-25.63"/>
<polygon fill="midnightblue" stroke="midnightblue" points="344.98,-28.26 351.16,-19.65 340.96,-22.53 344.98,-28.26"/>
</g>
<!-- Node8 -->
<g id="node8" class="node">
<title>Node8</title>
<g id="a_node8"><a xlink:title=" ">
<polygon fill="none" stroke="#bfbfbf" points="408,-0.5 408,-19.5 539,-19.5 539,-0.5 408,-0.5"/>
<text text-anchor="middle" x="473.5" y="-7.5" font-family="Helvetica,sans-Serif" font-size="10.00">boost/current_function.hpp</text>
</a>
</g>
</g>
<!-- Node5&#45;&gt;Node8 -->
<g id="edge8" class="edge">
<title>Node5&#45;&gt;Node8</title>
<path fill="none" stroke="midnightblue" d="M316.13,-56.44C348,-47.24 398.83,-32.56 434.06,-22.39"/>
<polygon fill="midnightblue" stroke="midnightblue" points="435.37,-25.65 444.01,-19.52 433.43,-18.93 435.37,-25.65"/>
</g>
<!-- Node9 -->
<g id="node9" class="node">
<title>Node9</title>
<g id="a_node9"><a xlink:href="../../de/d17/kratos__config_8h.html" target="_top" xlink:title=" ">
<polygon fill="none" stroke="black" points="121,-0.5 121,-19.5 242,-19.5 242,-0.5 121,-0.5"/>
<text text-anchor="middle" x="181.5" y="-7.5" font-family="Helvetica,sans-Serif" font-size="10.00">includes/kratos_config.h</text>
</a>
</g>
</g>
<!-- Node5&#45;&gt;Node9 -->
<g id="edge9" class="edge">
<title>Node5&#45;&gt;Node9</title>
<path fill="none" stroke="midnightblue" d="M269.63,-56.32C252.79,-47.66 226.69,-34.24 207.26,-24.25"/>
<polygon fill="midnightblue" stroke="midnightblue" points="208.82,-21.12 198.33,-19.65 205.62,-27.34 208.82,-21.12"/>
</g>
<!-- Node10&#45;&gt;Node5 -->
<g id="edge13" class="edge">
<title>Node10&#45;&gt;Node5</title>
<path fill="none" stroke="midnightblue" d="M306.08,-117.9C302.37,-108.26 297.43,-95.41 293.44,-85.04"/>
<polygon fill="midnightblue" stroke="midnightblue" points="296.7,-83.77 289.84,-75.69 290.17,-86.28 296.7,-83.77"/>
</g>
<!-- Node11 -->
<g id="node11" class="node">
<title>Node11</title>
<g id="a_node11"><a xlink:title=" ">
<polygon fill="none" stroke="#bfbfbf" points="349,-56.5 349,-75.5 390,-75.5 390,-56.5 349,-56.5"/>
<text text-anchor="middle" x="369.5" y="-63.5" font-family="Helvetica,sans-Serif" font-size="10.00">string</text>
</a>
</g>
</g>
<!-- Node10&#45;&gt;Node11 -->
<g id="edge11" class="edge">
<title>Node10&#45;&gt;Node11</title>
<path fill="none" stroke="midnightblue" d="M324.09,-117.9C333.13,-107.76 345.35,-94.07 354.83,-83.44"/>
<polygon fill="midnightblue" stroke="midnightblue" points="357.7,-85.49 361.74,-75.69 352.47,-80.83 357.7,-85.49"/>
</g>
<!-- Node12 -->
<g id="node12" class="node">
<title>Node12</title>
<g id="a_node12"><a xlink:title=" ">
<polygon fill="none" stroke="#bfbfbf" points="408.5,-56.5 408.5,-75.5 462.5,-75.5 462.5,-56.5 408.5,-56.5"/>
<text text-anchor="middle" x="435.5" y="-63.5" font-family="Helvetica,sans-Serif" font-size="10.00">iostream</text>
</a>
</g>
</g>
<!-- Node10&#45;&gt;Node12 -->
<g id="edge12" class="edge">
<title>Node10&#45;&gt;Node12</title>
<path fill="none" stroke="midnightblue" d="M338.41,-117.9C359.78,-106.69 389.45,-91.14 410.35,-80.19"/>
<polygon fill="midnightblue" stroke="midnightblue" points="412.04,-83.25 419.27,-75.51 408.79,-77.05 412.04,-83.25"/>
</g>
<!-- Node13&#45;&gt;Node5 -->
<g id="edge17" class="edge">
<title>Node13&#45;&gt;Node5</title>
<path fill="none" stroke="midnightblue" d="M403.17,-117.9C377.03,-106.49 340.55,-90.58 315.38,-79.6"/>
<polygon fill="midnightblue" stroke="midnightblue" points="316.57,-76.3 306,-75.51 313.77,-82.71 316.57,-76.3"/>
</g>
<!-- Node13&#45;&gt;Node11 -->
<g id="edge15" class="edge">
<title>Node13&#45;&gt;Node11</title>
<path fill="none" stroke="midnightblue" d="M421.18,-117.9C410.68,-107.56 396.43,-93.52 385.55,-82.81"/>
<polygon fill="midnightblue" stroke="midnightblue" points="387.91,-80.22 378.33,-75.69 383,-85.21 387.91,-80.22"/>
</g>
<!-- Node13&#45;&gt;Node12 -->
<g id="edge16" class="edge">
<title>Node13&#45;&gt;Node12</title>
<path fill="none" stroke="midnightblue" d="M435.5,-117.9C435.5,-108.56 435.5,-96.21 435.5,-86.02"/>
<polygon fill="midnightblue" stroke="midnightblue" points="439,-85.69 435.5,-75.69 432,-85.69 439,-85.69"/>
</g>
</g>
</svg>
