<?xml version="1.0" encoding="UTF-8" standalone="no"?>
<!DOCTYPE svg PUBLIC "-//W3C//DTD SVG 1.1//EN"
 "http://www.w3.org/Graphics/SVG/1.1/DTD/svg11.dtd">
<!-- Generated by graphviz version 2.48.0 (20210719.0153)
 -->
<!-- Title: /github/workspace/kratos/python/matrix_matrix_operator_python.h Pages: 1 -->
<svg width="1538pt" height="195pt"
 viewBox="0.00 0.00 1537.50 195.00" xmlns="http://www.w3.org/2000/svg" xmlns:xlink="http://www.w3.org/1999/xlink">
<g id="graph0" class="graph" transform="scale(1 1) rotate(0) translate(4 191)">
<title>/github/workspace/kratos/python/matrix_matrix_operator_python.h</title>
<!-- Node1 -->
<g id="node1" class="node">
<title>Node1</title>
<g id="a_node1"><a xlink:title=" ">
<polygon fill="#bfbfbf" stroke="black" points="336,-145.5 336,-186.5 485,-186.5 485,-145.5 336,-145.5"/>
<text text-anchor="start" x="344" y="-174.5" font-family="Helvetica,sans-Serif" font-size="10.00">/github/workspace/kratos</text>
<text text-anchor="start" x="344" y="-163.5" font-family="Helvetica,sans-Serif" font-size="10.00">/python/matrix_matrix_operator</text>
<text text-anchor="middle" x="410.5" y="-152.5" font-family="Helvetica,sans-Serif" font-size="10.00">_python.h</text>
</a>
</g>
</g>
<!-- Node2 -->
<g id="node2" class="node">
<title>Node2</title>
<g id="a_node2"><a xlink:href="../../da/dc7/add__banded__matrix__to__python_8cpp.html" target="_top" xlink:title=" ">
<polygon fill="none" stroke="black" points="0,-0.5 0,-41.5 135,-41.5 135,-0.5 0,-0.5"/>
<text text-anchor="start" x="8" y="-29.5" font-family="Helvetica,sans-Serif" font-size="10.00">/github/workspace/kratos</text>
<text text-anchor="start" x="8" y="-18.5" font-family="Helvetica,sans-Serif" font-size="10.00">/python/add_banded_matrix</text>
<text text-anchor="middle" x="67.5" y="-7.5" font-family="Helvetica,sans-Serif" font-size="10.00">_to_python.cpp</text>
</a>
</g>
</g>
<!-- Node1&#45;&gt;Node2 -->
<g id="edge1" class="edge">
<title>Node1&#45;&gt;Node2</title>
<path fill="none" stroke="midnightblue" d="M353.98,-141.44C287.07,-113.54 176.88,-67.6 114.46,-41.58"/>
<polygon fill="midnightblue" stroke="midnightblue" points="352.95,-144.8 363.53,-145.42 355.64,-138.34 352.95,-144.8"/>
</g>
<!-- Node3 -->
<g id="node3" class="node">
<title>Node3</title>
<g id="a_node3"><a xlink:href="../../db/deb/add__matrix__to__python_8cpp.html" target="_top" xlink:title=" ">
<polygon fill="none" stroke="black" points="153.5,-6 153.5,-36 317.5,-36 317.5,-6 153.5,-6"/>
<text text-anchor="start" x="161.5" y="-24" font-family="Helvetica,sans-Serif" font-size="10.00">/github/workspace/kratos</text>
<text text-anchor="middle" x="235.5" y="-13" font-family="Helvetica,sans-Serif" font-size="10.00">/python/add_matrix_to_python.cpp</text>
</a>
</g>
</g>
<!-- Node1&#45;&gt;Node3 -->
<g id="edge2" class="edge">
<title>Node1&#45;&gt;Node3</title>
<path fill="none" stroke="midnightblue" d="M378.56,-138.9C341.6,-108.7 282.09,-60.07 252.85,-36.18"/>
<polygon fill="midnightblue" stroke="midnightblue" points="376.58,-141.8 386.53,-145.42 381.01,-136.38 376.58,-141.8"/>
</g>
<!-- Node4 -->
<g id="node4" class="node">
<title>Node4</title>
<g id="a_node4"><a xlink:href="../../d1/d6c/add__symmetric__matrix__to__python_8cpp.html" target="_top" xlink:title=" ">
<polygon fill="none" stroke="black" points="336,-0.5 336,-41.5 485,-41.5 485,-0.5 336,-0.5"/>
<text text-anchor="start" x="344" y="-29.5" font-family="Helvetica,sans-Serif" font-size="10.00">/github/workspace/kratos</text>
<text text-anchor="start" x="344" y="-18.5" font-family="Helvetica,sans-Serif" font-size="10.00">/python/add_symmetric_matrix</text>
<text text-anchor="middle" x="410.5" y="-7.5" font-family="Helvetica,sans-Serif" font-size="10.00">_to_python.cpp</text>
</a>
</g>
</g>
<!-- Node1&#45;&gt;Node4 -->
<g id="edge3" class="edge">
<title>Node1&#45;&gt;Node4</title>
<path fill="none" stroke="midnightblue" d="M410.5,-135.39C410.5,-107.35 410.5,-66.06 410.5,-41.81"/>
<polygon fill="midnightblue" stroke="midnightblue" points="407,-135.42 410.5,-145.42 414,-135.42 407,-135.42"/>
</g>
<!-- Node5 -->
<g id="node5" class="node">
<title>Node5</title>
<g id="a_node5"><a xlink:href="../../d1/d95/add__triangular__matrix__to__python_8cpp.html" target="_top" xlink:title=" ">
<polygon fill="none" stroke="black" points="503.5,-0.5 503.5,-41.5 629.5,-41.5 629.5,-0.5 503.5,-0.5"/>
<text text-anchor="start" x="511.5" y="-29.5" font-family="Helvetica,sans-Serif" font-size="10.00">/github/workspace/kratos</text>
<text text-anchor="start" x="511.5" y="-18.5" font-family="Helvetica,sans-Serif" font-size="10.00">/python/add_triangular</text>
<text text-anchor="middle" x="566.5" y="-7.5" font-family="Helvetica,sans-Serif" font-size="10.00">_matrix_to_python.cpp</text>
</a>
</g>
</g>
<!-- Node1&#45;&gt;Node5 -->
<g id="edge4" class="edge">
<title>Node1&#45;&gt;Node5</title>
<path fill="none" stroke="midnightblue" d="M439.26,-138.64C469.9,-110.55 517.69,-66.75 545.14,-41.58"/>
<polygon fill="midnightblue" stroke="midnightblue" points="436.87,-136.08 431.86,-145.42 441.6,-141.24 436.87,-136.08"/>
</g>
<!-- Node6 -->
<g id="node6" class="node">
<title>Node6</title>
<g id="a_node6"><a xlink:href="../../df/daf/matrix__python__interface_8h.html" target="_top" xlink:title=" ">
<polygon fill="none" stroke="black" points="630,-78.5 630,-108.5 791,-108.5 791,-78.5 630,-78.5"/>
<text text-anchor="start" x="638" y="-96.5" font-family="Helvetica,sans-Serif" font-size="10.00">/github/workspace/kratos</text>
<text text-anchor="middle" x="710.5" y="-85.5" font-family="Helvetica,sans-Serif" font-size="10.00">/python/matrix_python_interface.h</text>
</a>
</g>
</g>
<!-- Node1&#45;&gt;Node6 -->
<g id="edge5" class="edge">
<title>Node1&#45;&gt;Node6</title>
<path fill="none" stroke="midnightblue" d="M494.82,-145.19C544.54,-133.5 606.26,-119 650.92,-108.5"/>
<polygon fill="midnightblue" stroke="midnightblue" points="493.98,-141.79 485.04,-147.48 495.58,-148.6 493.98,-141.79"/>
</g>
<!-- Node6&#45;&gt;Node2 -->
<g id="edge6" class="edge">
<title>Node6&#45;&gt;Node2</title>
<path fill="none" stroke="midnightblue" d="M619.55,-89.01C507.22,-83.64 310.64,-70.79 144.5,-42 141.51,-41.48 138.46,-40.9 135.39,-40.28"/>
<polygon fill="midnightblue" stroke="midnightblue" points="619.66,-92.52 629.82,-89.49 619.99,-85.53 619.66,-92.52"/>
</g>
<!-- Node6&#45;&gt;Node3 -->
<g id="edge10" class="edge">
<title>Node6&#45;&gt;Node3</title>
<path fill="none" stroke="midnightblue" d="M619.38,-82.74C541.36,-73.86 426.17,-59.47 326.5,-42 316.62,-40.27 306.19,-38.2 296.05,-36.07"/>
<polygon fill="midnightblue" stroke="midnightblue" points="619.33,-86.26 629.66,-83.9 620.11,-79.3 619.33,-86.26"/>
</g>
<!-- Node6&#45;&gt;Node4 -->
<g id="edge13" class="edge">
<title>Node6&#45;&gt;Node4</title>
<path fill="none" stroke="midnightblue" d="M640.06,-76.11C597.84,-66.26 543.08,-53.46 494.5,-42 491.44,-41.28 488.31,-40.54 485.15,-39.79"/>
<polygon fill="midnightblue" stroke="midnightblue" points="639.43,-79.56 649.97,-78.42 641.02,-72.74 639.43,-79.56"/>
</g>
<!-- Node6&#45;&gt;Node5 -->
<g id="edge14" class="edge">
<title>Node6&#45;&gt;Node5</title>
<path fill="none" stroke="midnightblue" d="M672.7,-74C652.31,-64.01 627.14,-51.69 606.42,-41.55"/>
<polygon fill="midnightblue" stroke="midnightblue" points="671.19,-77.15 681.71,-78.4 674.26,-70.86 671.19,-77.15"/>
</g>
<!-- Node7 -->
<g id="node7" class="node">
<title>Node7</title>
<g id="a_node7"><a xlink:href="../../d3/daa/add__compressed__matrix__to__python_8cpp.html" target="_top" xlink:title=" ">
<polygon fill="none" stroke="black" points="647.5,-0.5 647.5,-41.5 773.5,-41.5 773.5,-0.5 647.5,-0.5"/>
<text text-anchor="start" x="655.5" y="-29.5" font-family="Helvetica,sans-Serif" font-size="10.00">/github/workspace/kratos</text>
<text text-anchor="start" x="655.5" y="-18.5" font-family="Helvetica,sans-Serif" font-size="10.00">/python/add_compressed</text>
<text text-anchor="middle" x="710.5" y="-7.5" font-family="Helvetica,sans-Serif" font-size="10.00">_matrix_to_python.cpp</text>
</a>
</g>
</g>
<!-- Node6&#45;&gt;Node7 -->
<g id="edge7" class="edge">
<title>Node6&#45;&gt;Node7</title>
<path fill="none" stroke="midnightblue" d="M710.5,-67.98C710.5,-59.35 710.5,-49.76 710.5,-41.59"/>
<polygon fill="midnightblue" stroke="midnightblue" points="707,-68.23 710.5,-78.23 714,-68.23 707,-68.23"/>
</g>
<!-- Node8 -->
<g id="node8" class="node">
<title>Node8</title>
<g id="a_node8"><a xlink:href="../../de/dd1/add__constant__matrix__to__python_8cpp.html" target="_top" xlink:title=" ">
<polygon fill="none" stroke="black" points="792,-0.5 792,-41.5 933,-41.5 933,-0.5 792,-0.5"/>
<text text-anchor="start" x="800" y="-29.5" font-family="Helvetica,sans-Serif" font-size="10.00">/github/workspace/kratos</text>
<text text-anchor="start" x="800" y="-18.5" font-family="Helvetica,sans-Serif" font-size="10.00">/python/add_constant_matrix</text>
<text text-anchor="middle" x="862.5" y="-7.5" font-family="Helvetica,sans-Serif" font-size="10.00">_to_python.cpp</text>
</a>
</g>
</g>
<!-- Node6&#45;&gt;Node8 -->
<g id="edge8" class="edge">
<title>Node6&#45;&gt;Node8</title>
<path fill="none" stroke="midnightblue" d="M750.11,-74.13C771.69,-64.12 798.39,-51.73 820.36,-41.55"/>
<polygon fill="midnightblue" stroke="midnightblue" points="748.49,-71.02 740.89,-78.4 751.44,-77.37 748.49,-71.02"/>
</g>
<!-- Node9 -->
<g id="node9" class="node">
<title>Node9</title>
<g id="a_node9"><a xlink:href="../../de/d60/add__identity__matrix__to__python_8cpp.html" target="_top" xlink:title=" ">
<polygon fill="none" stroke="black" points="951.5,-0.5 951.5,-41.5 1085.5,-41.5 1085.5,-0.5 951.5,-0.5"/>
<text text-anchor="start" x="959.5" y="-29.5" font-family="Helvetica,sans-Serif" font-size="10.00">/github/workspace/kratos</text>
<text text-anchor="start" x="959.5" y="-18.5" font-family="Helvetica,sans-Serif" font-size="10.00">/python/add_identity_matrix</text>
<text text-anchor="middle" x="1018.5" y="-7.5" font-family="Helvetica,sans-Serif" font-size="10.00">_to_python.cpp</text>
</a>
</g>
</g>
<!-- Node6&#45;&gt;Node9 -->
<g id="edge9" class="edge">
<title>Node6&#45;&gt;Node9</title>
<path fill="none" stroke="midnightblue" d="M788.69,-76.35C833.77,-66.83 891.45,-54.27 942.5,-42 945.42,-41.3 948.4,-40.57 951.4,-39.82"/>
<polygon fill="midnightblue" stroke="midnightblue" points="787.75,-72.98 778.69,-78.46 789.2,-79.82 787.75,-72.98"/>
</g>
<!-- Node10 -->
<g id="node10" class="node">
<title>Node10</title>
<g id="a_node10"><a xlink:href="../../d1/dd9/add__scalar__matrix__to__python_8cpp.html" target="_top" xlink:title=" ">
<polygon fill="none" stroke="black" points="1103.5,-0.5 1103.5,-41.5 1233.5,-41.5 1233.5,-0.5 1103.5,-0.5"/>
<text text-anchor="start" x="1111.5" y="-29.5" font-family="Helvetica,sans-Serif" font-size="10.00">/github/workspace/kratos</text>
<text text-anchor="start" x="1111.5" y="-18.5" font-family="Helvetica,sans-Serif" font-size="10.00">/python/add_scalar_matrix</text>
<text text-anchor="middle" x="1168.5" y="-7.5" font-family="Helvetica,sans-Serif" font-size="10.00">_to_python.cpp</text>
</a>
</g>
</g>
<!-- Node6&#45;&gt;Node10 -->
<g id="edge11" class="edge">
<title>Node6&#45;&gt;Node10</title>
<path fill="none" stroke="midnightblue" d="M801.48,-83.99C879.64,-75.85 995.11,-61.87 1094.5,-42 1097.37,-41.43 1100.29,-40.8 1103.24,-40.14"/>
<polygon fill="midnightblue" stroke="midnightblue" points="800.77,-80.54 791.18,-85.05 801.48,-87.5 800.77,-80.54"/>
</g>
<!-- Node11 -->
<g id="node11" class="node">
<title>Node11</title>
<g id="a_node11"><a xlink:href="../../df/d3c/add__sparse__matrix__to__python_8cpp.html" target="_top" xlink:title=" ">
<polygon fill="none" stroke="black" points="1252,-0.5 1252,-41.5 1385,-41.5 1385,-0.5 1252,-0.5"/>
<text text-anchor="start" x="1260" y="-29.5" font-family="Helvetica,sans-Serif" font-size="10.00">/github/workspace/kratos</text>
<text text-anchor="start" x="1260" y="-18.5" font-family="Helvetica,sans-Serif" font-size="10.00">/python/add_sparse_matrix</text>
<text text-anchor="middle" x="1318.5" y="-7.5" font-family="Helvetica,sans-Serif" font-size="10.00">_to_python.cpp</text>
</a>
</g>
</g>
<!-- Node6&#45;&gt;Node11 -->
<g id="edge12" class="edge">
<title>Node6&#45;&gt;Node11</title>
<path fill="none" stroke="midnightblue" d="M801.32,-88.38C907.72,-82.52 1088.97,-69.3 1242.5,-42 1245.59,-41.45 1248.74,-40.84 1251.91,-40.18"/>
<polygon fill="midnightblue" stroke="midnightblue" points="801.06,-84.89 791.26,-88.93 801.44,-91.88 801.06,-84.89"/>
</g>
<!-- Node12 -->
<g id="node12" class="node">
<title>Node12</title>
<g id="a_node12"><a xlink:href="../../dc/d20/add__zero__matrix__to__python_8cpp.html" target="_top" xlink:title=" ">
<polygon fill="none" stroke="black" points="1403.5,-0.5 1403.5,-41.5 1529.5,-41.5 1529.5,-0.5 1403.5,-0.5"/>
<text text-anchor="start" x="1411.5" y="-29.5" font-family="Helvetica,sans-Serif" font-size="10.00">/github/workspace/kratos</text>
<text text-anchor="start" x="1411.5" y="-18.5" font-family="Helvetica,sans-Serif" font-size="10.00">/python/add_zero_matrix</text>
<text text-anchor="middle" x="1466.5" y="-7.5" font-family="Helvetica,sans-Serif" font-size="10.00">_to_python.cpp</text>
</a>
</g>
</g>
<!-- Node6&#45;&gt;Node12 -->
<g id="edge15" class="edge">
<title>Node6&#45;&gt;Node12</title>
<path fill="none" stroke="midnightblue" d="M801.2,-91.48C932.85,-88.71 1184.13,-78.61 1394.5,-42 1397.44,-41.49 1400.43,-40.91 1403.44,-40.27"/>
<polygon fill="midnightblue" stroke="midnightblue" points="801.09,-87.98 791.16,-91.68 801.23,-94.98 801.09,-87.98"/>
</g>
</g>
</svg>
