<?xml version="1.0" encoding="UTF-8" standalone="no"?>
<!DOCTYPE svg PUBLIC "-//W3C//DTD SVG 1.1//EN"
 "http://www.w3.org/Graphics/SVG/1.1/DTD/svg11.dtd">
<!-- Generated by graphviz version 2.48.0 (20210719.0153)
 -->
<!-- Title: boost::numeric::ublas::matrix_container&lt; C &gt; Pages: 1 -->
<svg width="130pt" height="386pt"
 viewBox="0.00 0.00 130.00 386.00" xmlns="http://www.w3.org/2000/svg" xmlns:xlink="http://www.w3.org/1999/xlink">
<g id="graph0" class="graph" transform="scale(1 1) rotate(0) translate(4 382)">
<title>boost::numeric::ublas::matrix_container&lt; C &gt;</title>
<!-- Node1 -->
<g id="node1" class="node">
<title>Node1</title>
<g id="a_node1"><a xlink:title=" ">
<polygon fill="#bfbfbf" stroke="black" points="3,-0.5 3,-101.5 119,-101.5 119,-0.5 3,-0.5"/>
<text text-anchor="start" x="11" y="-89.5" font-family="Helvetica,sans-Serif" font-size="10.00">boost::numeric::ublas</text>
<text text-anchor="middle" x="61" y="-78.5" font-family="Helvetica,sans-Serif" font-size="10.00">::matrix_container&lt; C &gt;</text>
<polyline fill="none" stroke="black" points="3,-71.5 119,-71.5 "/>
<text text-anchor="start" x="11" y="-59.5" font-family="Helvetica,sans-Serif" font-size="10.00">+ complexity</text>
<polyline fill="none" stroke="black" points="3,-52.5 119,-52.5 "/>
<text text-anchor="start" x="11" y="-40.5" font-family="Helvetica,sans-Serif" font-size="10.00">+ operator()()</text>
<text text-anchor="start" x="11" y="-29.5" font-family="Helvetica,sans-Serif" font-size="10.00">+ operator()()</text>
<text text-anchor="start" x="11" y="-18.5" font-family="Helvetica,sans-Serif" font-size="10.00">+ operator()()</text>
<text text-anchor="start" x="11" y="-7.5" font-family="Helvetica,sans-Serif" font-size="10.00">+ operator()()</text>
</a>
</g>
</g>
<!-- Node2 -->
<g id="node2" class="node">
<title>Node2</title>
<g id="a_node2"><a xlink:href="../../d9/da6/classboost_1_1numeric_1_1ublas_1_1matrix__expression.html" target="_top" xlink:title=" ">
<polygon fill="none" stroke="black" points="0,-138.5 0,-239.5 122,-239.5 122,-138.5 0,-138.5"/>
<text text-anchor="start" x="8" y="-227.5" font-family="Helvetica,sans-Serif" font-size="10.00">boost::numeric::ublas</text>
<text text-anchor="middle" x="61" y="-216.5" font-family="Helvetica,sans-Serif" font-size="10.00">::matrix_expression&lt; C &gt;</text>
<polyline fill="none" stroke="black" points="0,-209.5 122,-209.5 "/>
<text text-anchor="start" x="8" y="-197.5" font-family="Helvetica,sans-Serif" font-size="10.00">+ complexity</text>
<polyline fill="none" stroke="black" points="0,-190.5 122,-190.5 "/>
<text text-anchor="start" x="8" y="-178.5" font-family="Helvetica,sans-Serif" font-size="10.00">+ operator()()</text>
<text text-anchor="start" x="8" y="-167.5" font-family="Helvetica,sans-Serif" font-size="10.00">+ operator()()</text>
<text text-anchor="start" x="8" y="-156.5" font-family="Helvetica,sans-Serif" font-size="10.00">+ operator()()</text>
<text text-anchor="start" x="8" y="-145.5" font-family="Helvetica,sans-Serif" font-size="10.00">+ operator()()</text>
</a>
</g>
</g>
<!-- Node2&#45;&gt;Node1 -->
<g id="edge1" class="edge">
<title>Node2&#45;&gt;Node1</title>
<path fill="none" stroke="midnightblue" d="M54.29,-128C54.2,-119.27 54.26,-110.36 54.47,-101.86"/>
<polygon fill="none" stroke="midnightblue" points="50.79,-128.19 54.47,-138.13 57.79,-128.07 50.79,-128.19"/>
</g>
<!-- Node2&#45;&gt;Node1 -->
<g id="edge4" class="edge">
<title>Node2&#45;&gt;Node1</title>
<path fill="none" stroke="midnightblue" d="M67.71,-128C67.8,-119.27 67.74,-110.36 67.53,-101.86"/>
<polygon fill="none" stroke="midnightblue" points="64.21,-128.07 67.53,-138.13 71.21,-128.19 64.21,-128.07"/>
</g>
<!-- Node3 -->
<g id="node3" class="node">
<title>Node3</title>
<g id="a_node3"><a xlink:href="../../dd/db7/classboost_1_1numeric_1_1ublas_1_1ublas__expression.html" target="_top" xlink:title=" ">
<polygon fill="none" stroke="black" points="1.5,-276.5 1.5,-377.5 120.5,-377.5 120.5,-276.5 1.5,-276.5"/>
<text text-anchor="start" x="9.5" y="-365.5" font-family="Helvetica,sans-Serif" font-size="10.00">boost::numeric::ublas</text>
<text text-anchor="middle" x="61" y="-354.5" font-family="Helvetica,sans-Serif" font-size="10.00">::ublas_expression&lt; E &gt;</text>
<polyline fill="none" stroke="black" points="1.5,-347.5 120.5,-347.5 "/>
<text text-anchor="middle" x="61" y="-335.5" font-family="Helvetica,sans-Serif" font-size="10.00"> </text>
<polyline fill="none" stroke="black" points="1.5,-328.5 120.5,-328.5 "/>
<text text-anchor="start" x="9.5" y="-316.5" font-family="Helvetica,sans-Serif" font-size="10.00"># ublas_expression()</text>
<text text-anchor="start" x="9.5" y="-305.5" font-family="Helvetica,sans-Serif" font-size="10.00"># ~ublas_expression()</text>
<text text-anchor="start" x="9.5" y="-294.5" font-family="Helvetica,sans-Serif" font-size="10.00"># ublas_expression()</text>
<text text-anchor="start" x="9.5" y="-283.5" font-family="Helvetica,sans-Serif" font-size="10.00"># ~ublas_expression()</text>
</a>
</g>
</g>
<!-- Node3&#45;&gt;Node2 -->
<g id="edge2" class="edge">
<title>Node3&#45;&gt;Node2</title>
<path fill="none" stroke="midnightblue" d="M54.29,-266C54.2,-257.27 54.26,-248.36 54.47,-239.86"/>
<polygon fill="none" stroke="midnightblue" points="50.79,-266.19 54.47,-276.13 57.79,-266.07 50.79,-266.19"/>
</g>
<!-- Node3&#45;&gt;Node2 -->
<g id="edge3" class="edge">
<title>Node3&#45;&gt;Node2</title>
<path fill="none" stroke="midnightblue" d="M67.71,-266C67.8,-257.27 67.74,-248.36 67.53,-239.86"/>
<polygon fill="none" stroke="midnightblue" points="64.21,-266.07 67.53,-276.13 71.21,-266.19 64.21,-266.07"/>
</g>
</g>
</svg>
