<?xml version="1.0" encoding="UTF-8" standalone="no"?>
<!DOCTYPE svg PUBLIC "-//W3C//DTD SVG 1.1//EN"
 "http://www.w3.org/Graphics/SVG/1.1/DTD/svg11.dtd">
<!-- Generated by graphviz version 2.48.0 (20210719.0153)
 -->
<!-- Title: boost::numeric::ublas::matrix_matrix_binary_functor&lt; T1, T2, TR &gt; Pages: 1 -->
<svg width="122pt" height="303pt"
 viewBox="0.00 0.00 122.00 303.00" xmlns="http://www.w3.org/2000/svg" xmlns:xlink="http://www.w3.org/1999/xlink">
<g id="graph0" class="graph" transform="scale(1 1) rotate(0) translate(4 299)">
<title>boost::numeric::ublas::matrix_matrix_binary_functor&lt; T1, T2, TR &gt;</title>
<!-- Node1 -->
<g id="node1" class="node">
<title>Node1</title>
<g id="a_node1"><a xlink:title=" ">
<polygon fill="#bfbfbf" stroke="black" points="0,-215.5 0,-294.5 114,-294.5 114,-215.5 0,-215.5"/>
<text text-anchor="start" x="8" y="-282.5" font-family="Helvetica,sans-Serif" font-size="10.00">boost::numeric::ublas</text>
<text text-anchor="start" x="8" y="-271.5" font-family="Helvetica,sans-Serif" font-size="10.00">::matrix_matrix_binary</text>
<text text-anchor="middle" x="57" y="-260.5" font-family="Helvetica,sans-Serif" font-size="10.00">_functor&lt; T1, T2, TR &gt;</text>
<polyline fill="none" stroke="black" points="0,-253.5 114,-253.5 "/>
<text text-anchor="middle" x="57" y="-241.5" font-family="Helvetica,sans-Serif" font-size="10.00"> </text>
<polyline fill="none" stroke="black" points="0,-234.5 114,-234.5 "/>
<text text-anchor="middle" x="57" y="-222.5" font-family="Helvetica,sans-Serif" font-size="10.00"> </text>
</a>
</g>
</g>
<!-- Node2 -->
<g id="node2" class="node">
<title>Node2</title>
<g id="a_node2"><a xlink:href="../../d6/ddb/structboost_1_1numeric_1_1ublas_1_1matrix__matrix__prod.html" target="_top" xlink:title=" ">
<polygon fill="none" stroke="black" points="3.5,-0.5 3.5,-178.5 110.5,-178.5 110.5,-0.5 3.5,-0.5"/>
<text text-anchor="start" x="11.5" y="-166.5" font-family="Helvetica,sans-Serif" font-size="10.00">boost::numeric::ublas</text>
<text text-anchor="start" x="11.5" y="-155.5" font-family="Helvetica,sans-Serif" font-size="10.00">::matrix_matrix_prod</text>
<text text-anchor="middle" x="57" y="-144.5" font-family="Helvetica,sans-Serif" font-size="10.00">&lt; T1, T2, TR &gt;</text>
<polyline fill="none" stroke="black" points="3.5,-137.5 110.5,-137.5 "/>
<text text-anchor="middle" x="57" y="-125.5" font-family="Helvetica,sans-Serif" font-size="10.00"> </text>
<polyline fill="none" stroke="black" points="3.5,-118.5 110.5,-118.5 "/>
<text text-anchor="start" x="11.5" y="-106.5" font-family="Helvetica,sans-Serif" font-size="10.00">+ apply()</text>
<text text-anchor="start" x="11.5" y="-95.5" font-family="Helvetica,sans-Serif" font-size="10.00">+ apply()</text>
<text text-anchor="start" x="11.5" y="-84.5" font-family="Helvetica,sans-Serif" font-size="10.00">+ apply()</text>
<text text-anchor="start" x="11.5" y="-73.5" font-family="Helvetica,sans-Serif" font-size="10.00">+ apply()</text>
<text text-anchor="start" x="11.5" y="-62.5" font-family="Helvetica,sans-Serif" font-size="10.00">+ apply()</text>
<text text-anchor="start" x="11.5" y="-51.5" font-family="Helvetica,sans-Serif" font-size="10.00">+ apply()</text>
<text text-anchor="start" x="11.5" y="-40.5" font-family="Helvetica,sans-Serif" font-size="10.00">+ apply()</text>
<text text-anchor="start" x="11.5" y="-29.5" font-family="Helvetica,sans-Serif" font-size="10.00">+ apply()</text>
<text text-anchor="start" x="11.5" y="-18.5" font-family="Helvetica,sans-Serif" font-size="10.00">+ apply()</text>
<text text-anchor="start" x="11.5" y="-7.5" font-family="Helvetica,sans-Serif" font-size="10.00">+ apply()</text>
</a>
</g>
</g>
<!-- Node1&#45;&gt;Node2 -->
<g id="edge1" class="edge">
<title>Node1&#45;&gt;Node2</title>
<path fill="none" stroke="midnightblue" d="M50.76,-205.25C50.49,-196.79 50.32,-187.76 50.27,-178.63"/>
<polygon fill="none" stroke="midnightblue" points="47.27,-205.4 51.16,-215.25 54.26,-205.12 47.27,-205.4"/>
</g>
<!-- Node1&#45;&gt;Node2 -->
<g id="edge2" class="edge">
<title>Node1&#45;&gt;Node2</title>
<path fill="none" stroke="midnightblue" d="M63.24,-205.25C63.51,-196.79 63.68,-187.76 63.73,-178.63"/>
<polygon fill="none" stroke="midnightblue" points="59.74,-205.12 62.84,-215.25 66.73,-205.4 59.74,-205.12"/>
</g>
</g>
</svg>
