<?xml version="1.0" encoding="UTF-8" standalone="no"?>
<!DOCTYPE svg PUBLIC "-//W3C//DTD SVG 1.1//EN"
 "http://www.w3.org/Graphics/SVG/1.1/DTD/svg11.dtd">
<!-- Generated by graphviz version 2.48.0 (20210719.0153)
 -->
<!-- Title: /github/workspace/kratos/geometries/quadrilateral_3d_4.h Pages: 1 -->
<svg width="1466pt" height="373pt"
 viewBox="0.00 0.00 1466.00 373.00" xmlns="http://www.w3.org/2000/svg" xmlns:xlink="http://www.w3.org/1999/xlink">
<g id="graph0" class="graph" transform="scale(1 1) rotate(0) translate(4 369)">
<title>/github/workspace/kratos/geometries/quadrilateral_3d_4.h</title>
<!-- Node1 -->
<g id="node1" class="node">
<title>Node1</title>
<g id="a_node1"><a xlink:title=" ">
<polygon fill="#bfbfbf" stroke="black" points="698,-334.5 698,-364.5 855,-364.5 855,-334.5 698,-334.5"/>
<text text-anchor="start" x="706" y="-352.5" font-family="Helvetica,sans-Serif" font-size="10.00">/github/workspace/kratos</text>
<text text-anchor="middle" x="776.5" y="-341.5" font-family="Helvetica,sans-Serif" font-size="10.00">/geometries/quadrilateral_3d_4.h</text>
</a>
</g>
</g>
<!-- Node2 -->
<g id="node2" class="node">
<title>Node2</title>
<g id="a_node2"><a xlink:href="../../d3/dca/hexahedra__3d__8_8h.html" target="_top" xlink:title=" ">
<polygon fill="none" stroke="black" points="702,-267.5 702,-297.5 851,-297.5 851,-267.5 702,-267.5"/>
<text text-anchor="start" x="710" y="-285.5" font-family="Helvetica,sans-Serif" font-size="10.00">/github/workspace/kratos</text>
<text text-anchor="middle" x="776.5" y="-274.5" font-family="Helvetica,sans-Serif" font-size="10.00">/geometries/hexahedra_3d_8.h</text>
</a>
</g>
</g>
<!-- Node1&#45;&gt;Node2 -->
<g id="edge1" class="edge">
<title>Node1&#45;&gt;Node2</title>
<path fill="none" stroke="midnightblue" d="M776.5,-324.11C776.5,-315.15 776.5,-305.32 776.5,-297.58"/>
<polygon fill="midnightblue" stroke="midnightblue" points="773,-324.4 776.5,-334.4 780,-324.4 773,-324.4"/>
</g>
<!-- Node13 -->
<g id="node13" class="node">
<title>Node13</title>
<g id="a_node13"><a xlink:href="../../dc/d93/structural__application_8cpp.html" target="_top" xlink:title=" ">
<polygon fill="none" stroke="black" points="1134,-184 1134,-225 1289,-225 1289,-184 1134,-184"/>
<text text-anchor="start" x="1142" y="-213" font-family="Helvetica,sans-Serif" font-size="10.00">/github/workspace/applications</text>
<text text-anchor="start" x="1142" y="-202" font-family="Helvetica,sans-Serif" font-size="10.00">/structural_application/structural</text>
<text text-anchor="middle" x="1211.5" y="-191" font-family="Helvetica,sans-Serif" font-size="10.00">_application.cpp</text>
</a>
</g>
</g>
<!-- Node1&#45;&gt;Node13 -->
<g id="edge22" class="edge">
<title>Node1&#45;&gt;Node13</title>
<path fill="none" stroke="midnightblue" d="M828.95,-331.26C910.35,-304.5 1066.61,-253.13 1152.08,-225.03"/>
<polygon fill="midnightblue" stroke="midnightblue" points="827.81,-327.95 819.4,-334.4 829.99,-334.6 827.81,-327.95"/>
</g>
<!-- Node14 -->
<g id="node14" class="node">
<title>Node14</title>
<g id="a_node14"><a xlink:href="../../da/dad/prism__3d__6_8h.html" target="_top" xlink:title=" ">
<polygon fill="none" stroke="black" points="534.5,-267.5 534.5,-297.5 662.5,-297.5 662.5,-267.5 534.5,-267.5"/>
<text text-anchor="start" x="542.5" y="-285.5" font-family="Helvetica,sans-Serif" font-size="10.00">/github/workspace/kratos</text>
<text text-anchor="middle" x="598.5" y="-274.5" font-family="Helvetica,sans-Serif" font-size="10.00">/geometries/prism_3d_6.h</text>
</a>
</g>
</g>
<!-- Node1&#45;&gt;Node14 -->
<g id="edge16" class="edge">
<title>Node1&#45;&gt;Node14</title>
<path fill="none" stroke="midnightblue" d="M728.45,-330.96C699.78,-320.48 663.86,-307.37 637.05,-297.58"/>
<polygon fill="midnightblue" stroke="midnightblue" points="727.28,-334.25 737.88,-334.4 729.68,-327.68 727.28,-334.25"/>
</g>
<!-- Node3 -->
<g id="node3" class="node">
<title>Node3</title>
<g id="a_node3"><a xlink:href="../../db/dc2/unsaturated__soils__element__2phase_8cpp.html" target="_top" xlink:title=" ">
<polygon fill="none" stroke="black" points="398,-178.5 398,-230.5 579,-230.5 579,-178.5 398,-178.5"/>
<text text-anchor="start" x="406" y="-218.5" font-family="Helvetica,sans-Serif" font-size="10.00">/github/workspace/applications</text>
<text text-anchor="start" x="406" y="-207.5" font-family="Helvetica,sans-Serif" font-size="10.00">/structural_application/custom</text>
<text text-anchor="start" x="406" y="-196.5" font-family="Helvetica,sans-Serif" font-size="10.00">_elements/unsaturated_soils_element</text>
<text text-anchor="middle" x="488.5" y="-185.5" font-family="Helvetica,sans-Serif" font-size="10.00">_2phase.cpp</text>
</a>
</g>
</g>
<!-- Node2&#45;&gt;Node3 -->
<g id="edge2" class="edge">
<title>Node2&#45;&gt;Node3</title>
<path fill="none" stroke="midnightblue" d="M713.61,-264.9C674.28,-254.53 622.97,-240.99 579.27,-229.45"/>
<polygon fill="midnightblue" stroke="midnightblue" points="712.78,-268.3 723.34,-267.47 714.56,-261.54 712.78,-268.3"/>
</g>
<!-- Node4 -->
<g id="node4" class="node">
<title>Node4</title>
<g id="a_node4"><a xlink:href="../../d8/da8/unsaturated__soils__element__2phase__small__strain_8cpp.html" target="_top" xlink:title=" ">
<polygon fill="none" stroke="black" points="597,-178.5 597,-230.5 778,-230.5 778,-178.5 597,-178.5"/>
<text text-anchor="start" x="605" y="-218.5" font-family="Helvetica,sans-Serif" font-size="10.00">/github/workspace/applications</text>
<text text-anchor="start" x="605" y="-207.5" font-family="Helvetica,sans-Serif" font-size="10.00">/structural_application/custom</text>
<text text-anchor="start" x="605" y="-196.5" font-family="Helvetica,sans-Serif" font-size="10.00">_elements/unsaturated_soils_element</text>
<text text-anchor="middle" x="687.5" y="-185.5" font-family="Helvetica,sans-Serif" font-size="10.00">_2phase_small_strain.cpp</text>
</a>
</g>
</g>
<!-- Node2&#45;&gt;Node4 -->
<g id="edge3" class="edge">
<title>Node2&#45;&gt;Node4</title>
<path fill="none" stroke="midnightblue" d="M751.89,-260.49C741.02,-251.2 728.15,-240.21 716.78,-230.5"/>
<polygon fill="midnightblue" stroke="midnightblue" points="749.88,-263.37 759.76,-267.2 754.43,-258.05 749.88,-263.37"/>
</g>
<!-- Node5 -->
<g id="node5" class="node">
<title>Node5</title>
<g id="a_node5"><a xlink:href="../../dc/d7c/unsaturated__soils__element__3phase_8cpp.html" target="_top" xlink:title=" ">
<polygon fill="none" stroke="black" points="0,-178.5 0,-230.5 181,-230.5 181,-178.5 0,-178.5"/>
<text text-anchor="start" x="8" y="-218.5" font-family="Helvetica,sans-Serif" font-size="10.00">/github/workspace/applications</text>
<text text-anchor="start" x="8" y="-207.5" font-family="Helvetica,sans-Serif" font-size="10.00">/structural_application/custom</text>
<text text-anchor="start" x="8" y="-196.5" font-family="Helvetica,sans-Serif" font-size="10.00">_elements/unsaturated_soils_element</text>
<text text-anchor="middle" x="90.5" y="-185.5" font-family="Helvetica,sans-Serif" font-size="10.00">_3phase.cpp</text>
</a>
</g>
</g>
<!-- Node2&#45;&gt;Node5 -->
<g id="edge4" class="edge">
<title>Node2&#45;&gt;Node5</title>
<path fill="none" stroke="midnightblue" d="M691.71,-269.33C684.88,-268.49 678.08,-267.7 671.5,-267 457.88,-244.3 401.46,-265.93 189.5,-231 186.7,-230.54 183.86,-230.03 181,-229.5"/>
<polygon fill="midnightblue" stroke="midnightblue" points="691.36,-272.81 701.72,-270.59 692.23,-265.87 691.36,-272.81"/>
</g>
<!-- Node6 -->
<g id="node6" class="node">
<title>Node6</title>
<g id="a_node6"><a xlink:href="../../dc/dc6/unsaturated__soils__element__3phase__small__strain_8cpp.html" target="_top" xlink:title=" ">
<polygon fill="none" stroke="black" points="199,-178.5 199,-230.5 380,-230.5 380,-178.5 199,-178.5"/>
<text text-anchor="start" x="207" y="-218.5" font-family="Helvetica,sans-Serif" font-size="10.00">/github/workspace/applications</text>
<text text-anchor="start" x="207" y="-207.5" font-family="Helvetica,sans-Serif" font-size="10.00">/structural_application/custom</text>
<text text-anchor="start" x="207" y="-196.5" font-family="Helvetica,sans-Serif" font-size="10.00">_elements/unsaturated_soils_element</text>
<text text-anchor="middle" x="289.5" y="-185.5" font-family="Helvetica,sans-Serif" font-size="10.00">_3phase_small_strain.cpp</text>
</a>
</g>
</g>
<!-- Node2&#45;&gt;Node6 -->
<g id="edge5" class="edge">
<title>Node2&#45;&gt;Node6</title>
<path fill="none" stroke="midnightblue" d="M691.86,-269.73C684.97,-268.8 678.12,-267.88 671.5,-267 545.81,-250.33 513.03,-254.86 388.5,-231 385.71,-230.47 382.88,-229.9 380.03,-229.3"/>
<polygon fill="midnightblue" stroke="midnightblue" points="691.56,-273.22 701.94,-271.1 692.51,-266.29 691.56,-273.22"/>
</g>
<!-- Node7 -->
<g id="node7" class="node">
<title>Node7</title>
<g id="a_node7"><a xlink:href="../../d5/df9/parallel__variable__transfer__utility_8h.html" target="_top" xlink:title=" ">
<polygon fill="none" stroke="black" points="796,-178.5 796,-230.5 947,-230.5 947,-178.5 796,-178.5"/>
<text text-anchor="start" x="804" y="-218.5" font-family="Helvetica,sans-Serif" font-size="10.00">/github/workspace/applications</text>
<text text-anchor="start" x="804" y="-207.5" font-family="Helvetica,sans-Serif" font-size="10.00">/structural_application/custom</text>
<text text-anchor="start" x="804" y="-196.5" font-family="Helvetica,sans-Serif" font-size="10.00">_utilities/parallel_variable</text>
<text text-anchor="middle" x="871.5" y="-185.5" font-family="Helvetica,sans-Serif" font-size="10.00">_transfer_utility.h</text>
</a>
</g>
</g>
<!-- Node2&#45;&gt;Node7 -->
<g id="edge6" class="edge">
<title>Node2&#45;&gt;Node7</title>
<path fill="none" stroke="midnightblue" d="M802.43,-260.76C814.11,-251.41 828,-240.3 840.25,-230.5"/>
<polygon fill="midnightblue" stroke="midnightblue" points="799.99,-258.22 794.37,-267.2 804.36,-263.69 799.99,-258.22"/>
</g>
<!-- Node8 -->
<g id="node8" class="node">
<title>Node8</title>
<g id="a_node8"><a xlink:href="../../df/d49/restart__utility_8h.html" target="_top" xlink:title=" ">
<polygon fill="none" stroke="black" points="1307,-184 1307,-225 1458,-225 1458,-184 1307,-184"/>
<text text-anchor="start" x="1315" y="-213" font-family="Helvetica,sans-Serif" font-size="10.00">/github/workspace/applications</text>
<text text-anchor="start" x="1315" y="-202" font-family="Helvetica,sans-Serif" font-size="10.00">/structural_application/custom</text>
<text text-anchor="middle" x="1382.5" y="-191" font-family="Helvetica,sans-Serif" font-size="10.00">_utilities/restart_utility.h</text>
</a>
</g>
</g>
<!-- Node2&#45;&gt;Node8 -->
<g id="edge7" class="edge">
<title>Node2&#45;&gt;Node8</title>
<path fill="none" stroke="midnightblue" d="M861.2,-278.47C965.09,-273.56 1146.16,-261.18 1298.5,-231 1306.57,-229.4 1314.98,-227.34 1323.22,-225.09"/>
<polygon fill="midnightblue" stroke="midnightblue" points="860.91,-274.97 851.08,-278.93 861.23,-281.97 860.91,-274.97"/>
</g>
<!-- Node11 -->
<g id="node11" class="node">
<title>Node11</title>
<g id="a_node11"><a xlink:href="../../d7/df7/variable__transfer__utility_8h.html" target="_top" xlink:title=" ">
<polygon fill="none" stroke="black" points="965,-178.5 965,-230.5 1116,-230.5 1116,-178.5 965,-178.5"/>
<text text-anchor="start" x="973" y="-218.5" font-family="Helvetica,sans-Serif" font-size="10.00">/github/workspace/applications</text>
<text text-anchor="start" x="973" y="-207.5" font-family="Helvetica,sans-Serif" font-size="10.00">/structural_application/custom</text>
<text text-anchor="start" x="973" y="-196.5" font-family="Helvetica,sans-Serif" font-size="10.00">_utilities/variable_transfer</text>
<text text-anchor="middle" x="1040.5" y="-185.5" font-family="Helvetica,sans-Serif" font-size="10.00">_utility.h</text>
</a>
</g>
</g>
<!-- Node2&#45;&gt;Node11 -->
<g id="edge10" class="edge">
<title>Node2&#45;&gt;Node11</title>
<path fill="none" stroke="midnightblue" d="M837.08,-264.68C871.79,-254.97 916.14,-242.46 955.5,-231 958.61,-230.1 961.78,-229.17 964.98,-228.23"/>
<polygon fill="midnightblue" stroke="midnightblue" points="835.79,-261.4 827.1,-267.46 837.67,-268.14 835.79,-261.4"/>
</g>
<!-- Node2&#45;&gt;Node13 -->
<g id="edge15" class="edge">
<title>Node2&#45;&gt;Node13</title>
<path fill="none" stroke="midnightblue" d="M861.25,-272.59C932.09,-264.33 1035.53,-250.39 1124.5,-231 1132.34,-229.29 1140.51,-227.25 1148.57,-225.08"/>
<polygon fill="midnightblue" stroke="midnightblue" points="860.57,-269.14 851.04,-273.77 861.38,-276.1 860.57,-269.14"/>
</g>
<!-- Node9 -->
<g id="node9" class="node">
<title>Node9</title>
<g id="a_node9"><a xlink:href="../../dd/dee/structural__application_2custom__python_2add__custom__utilities__to__python_8cpp.html" target="_top" xlink:title=" ">
<polygon fill="none" stroke="black" points="1071,-0.5 1071,-52.5 1222,-52.5 1222,-0.5 1071,-0.5"/>
<text text-anchor="start" x="1079" y="-40.5" font-family="Helvetica,sans-Serif" font-size="10.00">/github/workspace/applications</text>
<text text-anchor="start" x="1079" y="-29.5" font-family="Helvetica,sans-Serif" font-size="10.00">/structural_application/custom</text>
<text text-anchor="start" x="1079" y="-18.5" font-family="Helvetica,sans-Serif" font-size="10.00">_python/add_custom_utilities</text>
<text text-anchor="middle" x="1146.5" y="-7.5" font-family="Helvetica,sans-Serif" font-size="10.00">_to_python.cpp</text>
</a>
</g>
</g>
<!-- Node8&#45;&gt;Node9 -->
<g id="edge8" class="edge">
<title>Node8&#45;&gt;Node9</title>
<path fill="none" stroke="midnightblue" d="M1381.53,-173.37C1379.1,-147.67 1371.62,-111.42 1349.5,-89 1316.14,-55.18 1264.85,-39.83 1222.18,-32.92"/>
<polygon fill="midnightblue" stroke="midnightblue" points="1378.07,-173.96 1382.29,-183.67 1385.05,-173.44 1378.07,-173.96"/>
</g>
<!-- Node10 -->
<g id="node10" class="node">
<title>Node10</title>
<g id="a_node10"><a xlink:href="../../d9/d93/structural__application_2custom__python_2add__custom__utilities__to__python_8h.html" target="_top" xlink:title=" ">
<polygon fill="none" stroke="black" points="1189,-89.5 1189,-141.5 1340,-141.5 1340,-89.5 1189,-89.5"/>
<text text-anchor="start" x="1197" y="-129.5" font-family="Helvetica,sans-Serif" font-size="10.00">/github/workspace/applications</text>
<text text-anchor="start" x="1197" y="-118.5" font-family="Helvetica,sans-Serif" font-size="10.00">/structural_application/custom</text>
<text text-anchor="start" x="1197" y="-107.5" font-family="Helvetica,sans-Serif" font-size="10.00">_python/add_custom_utilities</text>
<text text-anchor="middle" x="1264.5" y="-96.5" font-family="Helvetica,sans-Serif" font-size="10.00">_to_python.h</text>
</a>
</g>
</g>
<!-- Node8&#45;&gt;Node10 -->
<g id="edge9" class="edge">
<title>Node8&#45;&gt;Node10</title>
<path fill="none" stroke="midnightblue" d="M1347.71,-177.85C1332.18,-166.4 1313.96,-152.96 1298.52,-141.58"/>
<polygon fill="midnightblue" stroke="midnightblue" points="1345.89,-180.86 1356.02,-183.98 1350.05,-175.22 1345.89,-180.86"/>
</g>
<!-- Node11&#45;&gt;Node9 -->
<g id="edge11" class="edge">
<title>Node11&#45;&gt;Node9</title>
<path fill="none" stroke="midnightblue" d="M1098.14,-172.59C1109.43,-164.07 1120.07,-153.85 1127.5,-142 1144.52,-114.85 1147.73,-77.26 1147.71,-52.67"/>
<polygon fill="midnightblue" stroke="midnightblue" points="1095.96,-169.84 1089.83,-178.48 1100.01,-175.55 1095.96,-169.84"/>
</g>
<!-- Node11&#45;&gt;Node10 -->
<g id="edge12" class="edge">
<title>Node11&#45;&gt;Node10</title>
<path fill="none" stroke="midnightblue" d="M1114.61,-174.72C1142.25,-163.98 1173.38,-151.89 1200.08,-141.52"/>
<polygon fill="midnightblue" stroke="midnightblue" points="1113.04,-171.57 1104.99,-178.45 1115.58,-178.09 1113.04,-171.57"/>
</g>
<!-- Node12 -->
<g id="node12" class="node">
<title>Node12</title>
<g id="a_node12"><a xlink:href="../../d7/d0e/node__snapping__utility_8h.html" target="_top" xlink:title=" ">
<polygon fill="none" stroke="black" points="962.5,-95 962.5,-136 1118.5,-136 1118.5,-95 962.5,-95"/>
<text text-anchor="start" x="970.5" y="-124" font-family="Helvetica,sans-Serif" font-size="10.00">/github/workspace/applications</text>
<text text-anchor="start" x="970.5" y="-113" font-family="Helvetica,sans-Serif" font-size="10.00">/structural_application/custom</text>
<text text-anchor="middle" x="1040.5" y="-102" font-family="Helvetica,sans-Serif" font-size="10.00">_utilities/node_snapping_utility.h</text>
</a>
</g>
</g>
<!-- Node11&#45;&gt;Node12 -->
<g id="edge13" class="edge">
<title>Node11&#45;&gt;Node12</title>
<path fill="none" stroke="midnightblue" d="M1040.5,-168.16C1040.5,-157.21 1040.5,-145.55 1040.5,-136.08"/>
<polygon fill="midnightblue" stroke="midnightblue" points="1037,-168.34 1040.5,-178.34 1044,-168.34 1037,-168.34"/>
</g>
<!-- Node12&#45;&gt;Node9 -->
<g id="edge14" class="edge">
<title>Node12&#45;&gt;Node9</title>
<path fill="none" stroke="midnightblue" d="M1072.14,-88.53C1086,-77.15 1102.2,-63.86 1115.94,-52.58"/>
<polygon fill="midnightblue" stroke="midnightblue" points="1069.8,-85.93 1064.29,-94.98 1074.24,-91.34 1069.8,-85.93"/>
</g>
<!-- Node14&#45;&gt;Node3 -->
<g id="edge17" class="edge">
<title>Node14&#45;&gt;Node3</title>
<path fill="none" stroke="midnightblue" d="M569.53,-261.48C555.84,-252.03 539.36,-240.64 524.85,-230.62"/>
<polygon fill="midnightblue" stroke="midnightblue" points="567.85,-264.58 578.07,-267.38 571.83,-258.82 567.85,-264.58"/>
</g>
<!-- Node14&#45;&gt;Node4 -->
<g id="edge18" class="edge">
<title>Node14&#45;&gt;Node4</title>
<path fill="none" stroke="midnightblue" d="M623.11,-260.49C633.98,-251.2 646.85,-240.21 658.22,-230.5"/>
<polygon fill="midnightblue" stroke="midnightblue" points="620.57,-258.05 615.24,-267.2 625.12,-263.37 620.57,-258.05"/>
</g>
<!-- Node14&#45;&gt;Node5 -->
<g id="edge19" class="edge">
<title>Node14&#45;&gt;Node5</title>
<path fill="none" stroke="midnightblue" d="M524.34,-275.25C442.05,-267.64 305.56,-253.02 189.5,-231 186.71,-230.47 183.88,-229.91 181.03,-229.32"/>
<polygon fill="midnightblue" stroke="midnightblue" points="524.07,-278.74 534.34,-276.16 524.7,-271.77 524.07,-278.74"/>
</g>
<!-- Node14&#45;&gt;Node6 -->
<g id="edge20" class="edge">
<title>Node14&#45;&gt;Node6</title>
<path fill="none" stroke="midnightblue" d="M529.27,-265.15C488.29,-255.4 435.39,-242.68 388.5,-231 385.74,-230.31 382.95,-229.61 380.12,-228.9"/>
<polygon fill="midnightblue" stroke="midnightblue" points="528.61,-268.59 539.15,-267.5 530.23,-261.78 528.61,-268.59"/>
</g>
<!-- Node14&#45;&gt;Node13 -->
<g id="edge21" class="edge">
<title>Node14&#45;&gt;Node13</title>
<path fill="none" stroke="midnightblue" d="M672.98,-269.52C679.57,-268.61 686.15,-267.75 692.5,-267 883.82,-244.3 935.09,-266.28 1124.5,-231 1133.01,-229.42 1141.88,-227.33 1150.56,-225.04"/>
<polygon fill="midnightblue" stroke="midnightblue" points="672.04,-266.12 662.64,-270.99 673.03,-273.05 672.04,-266.12"/>
</g>
</g>
</svg>
