<?xml version="1.0" encoding="UTF-8" standalone="no"?>
<!DOCTYPE svg PUBLIC "-//W3C//DTD SVG 1.1//EN"
 "http://www.w3.org/Graphics/SVG/1.1/DTD/svg11.dtd">
<!-- Generated by graphviz version 2.48.0 (20210719.0153)
 -->
<!-- Title: boost::numeric::ublas::bounded_vector&lt; T, N &gt; Pages: 1 -->
<svg width="159pt" height="838pt"
 viewBox="0.00 0.00 159.00 838.00" xmlns="http://www.w3.org/2000/svg" xmlns:xlink="http://www.w3.org/1999/xlink">
<g id="graph0" class="graph" transform="scale(1 1) rotate(0) translate(4 834)">
<title>boost::numeric::ublas::bounded_vector&lt; T, N &gt;</title>
<!-- Node1 -->
<g id="node1" class="node">
<title>Node1</title>
<g id="a_node1"><a xlink:title=" ">
<polygon fill="#bfbfbf" stroke="black" points="13,-0.5 13,-178.5 138,-178.5 138,-0.5 13,-0.5"/>
<text text-anchor="start" x="21" y="-166.5" font-family="Helvetica,sans-Serif" font-size="10.00">boost::numeric::ublas</text>
<text text-anchor="middle" x="75.5" y="-155.5" font-family="Helvetica,sans-Serif" font-size="10.00">::bounded_vector&lt; T, N &gt;</text>
<polyline fill="none" stroke="black" points="13,-148.5 138,-148.5 "/>
<text text-anchor="start" x="21" y="-136.5" font-family="Helvetica,sans-Serif" font-size="10.00">+ max_size</text>
<polyline fill="none" stroke="black" points="13,-129.5 138,-129.5 "/>
<text text-anchor="start" x="21" y="-117.5" font-family="Helvetica,sans-Serif" font-size="10.00">+ bounded_vector()</text>
<text text-anchor="start" x="21" y="-106.5" font-family="Helvetica,sans-Serif" font-size="10.00">+ bounded_vector()</text>
<text text-anchor="start" x="21" y="-95.5" font-family="Helvetica,sans-Serif" font-size="10.00">+ bounded_vector()</text>
<text text-anchor="start" x="21" y="-84.5" font-family="Helvetica,sans-Serif" font-size="10.00">+ bounded_vector()</text>
<text text-anchor="start" x="21" y="-73.5" font-family="Helvetica,sans-Serif" font-size="10.00">+ bounded_vector()</text>
<text text-anchor="start" x="21" y="-62.5" font-family="Helvetica,sans-Serif" font-size="10.00">+ ~bounded_vector()</text>
<text text-anchor="start" x="21" y="-51.5" font-family="Helvetica,sans-Serif" font-size="10.00">+ operator=()</text>
<text text-anchor="start" x="21" y="-40.5" font-family="Helvetica,sans-Serif" font-size="10.00">+ operator=()</text>
<text text-anchor="start" x="21" y="-29.5" font-family="Helvetica,sans-Serif" font-size="10.00">+ operator=()</text>
<text text-anchor="start" x="21" y="-18.5" font-family="Helvetica,sans-Serif" font-size="10.00">+ operator=()</text>
<text text-anchor="start" x="21" y="-7.5" font-family="Helvetica,sans-Serif" font-size="10.00">and 10 more...</text>
</a>
</g>
</g>
<!-- Node2 -->
<g id="node2" class="node">
<title>Node2</title>
<g id="a_node2"><a xlink:href="../../d5/dbc/classboost_1_1numeric_1_1ublas_1_1vector.html" target="_top" xlink:title=" ">
<polygon fill="none" stroke="black" points="22,-215.5 22,-404.5 129,-404.5 129,-215.5 22,-215.5"/>
<text text-anchor="start" x="30" y="-392.5" font-family="Helvetica,sans-Serif" font-size="10.00">boost::numeric::ublas</text>
<text text-anchor="start" x="30" y="-381.5" font-family="Helvetica,sans-Serif" font-size="10.00">::vector&lt; T, bounded</text>
<text text-anchor="middle" x="75.5" y="-370.5" font-family="Helvetica,sans-Serif" font-size="10.00">_array&lt; T, N &gt; &gt;</text>
<polyline fill="none" stroke="black" points="22,-363.5 129,-363.5 "/>
<text text-anchor="middle" x="75.5" y="-351.5" font-family="Helvetica,sans-Serif" font-size="10.00"> </text>
<polyline fill="none" stroke="black" points="22,-344.5 129,-344.5 "/>
<text text-anchor="start" x="30" y="-332.5" font-family="Helvetica,sans-Serif" font-size="10.00">+ vector()</text>
<text text-anchor="start" x="30" y="-321.5" font-family="Helvetica,sans-Serif" font-size="10.00">+ vector()</text>
<text text-anchor="start" x="30" y="-310.5" font-family="Helvetica,sans-Serif" font-size="10.00">+ vector()</text>
<text text-anchor="start" x="30" y="-299.5" font-family="Helvetica,sans-Serif" font-size="10.00">+ vector()</text>
<text text-anchor="start" x="30" y="-288.5" font-family="Helvetica,sans-Serif" font-size="10.00">+ vector()</text>
<text text-anchor="start" x="30" y="-277.5" font-family="Helvetica,sans-Serif" font-size="10.00">+ vector()</text>
<text text-anchor="start" x="30" y="-266.5" font-family="Helvetica,sans-Serif" font-size="10.00">+ vector()</text>
<text text-anchor="start" x="30" y="-255.5" font-family="Helvetica,sans-Serif" font-size="10.00">+ vector()</text>
<text text-anchor="start" x="30" y="-244.5" font-family="Helvetica,sans-Serif" font-size="10.00">+ vector()</text>
<text text-anchor="start" x="30" y="-233.5" font-family="Helvetica,sans-Serif" font-size="10.00">+ vector()</text>
<text text-anchor="start" x="30" y="-222.5" font-family="Helvetica,sans-Serif" font-size="10.00">and 74 more...</text>
</a>
</g>
</g>
<!-- Node2&#45;&gt;Node1 -->
<g id="edge1" class="edge">
<title>Node2&#45;&gt;Node1</title>
<path fill="none" stroke="midnightblue" d="M68.76,-205.36C68.73,-196.45 68.77,-187.5 68.86,-178.73"/>
<polygon fill="none" stroke="midnightblue" points="65.26,-205.4 68.81,-215.39 72.26,-205.37 65.26,-205.4"/>
</g>
<!-- Node2&#45;&gt;Node1 -->
<g id="edge8" class="edge">
<title>Node2&#45;&gt;Node1</title>
<path fill="none" stroke="midnightblue" d="M82.24,-205.36C82.27,-196.45 82.23,-187.5 82.14,-178.73"/>
<polygon fill="none" stroke="midnightblue" points="78.74,-205.37 82.19,-215.39 85.74,-205.4 78.74,-205.37"/>
</g>
<!-- Node3 -->
<g id="node3" class="node">
<title>Node3</title>
<g id="a_node3"><a xlink:href="../../d7/dd9/classboost_1_1numeric_1_1ublas_1_1vector__container.html" target="_top" xlink:title=" ">
<polygon fill="none" stroke="black" points="0,-441.5 0,-553.5 151,-553.5 151,-441.5 0,-441.5"/>
<text text-anchor="start" x="8" y="-541.5" font-family="Helvetica,sans-Serif" font-size="10.00">boost::numeric::ublas</text>
<text text-anchor="start" x="8" y="-530.5" font-family="Helvetica,sans-Serif" font-size="10.00">::vector_container&lt; vector</text>
<text text-anchor="middle" x="75.5" y="-519.5" font-family="Helvetica,sans-Serif" font-size="10.00">&lt; T, bounded_array&lt; T, N &gt; &gt; &gt;</text>
<polyline fill="none" stroke="black" points="0,-512.5 151,-512.5 "/>
<text text-anchor="start" x="8" y="-500.5" font-family="Helvetica,sans-Serif" font-size="10.00">+ complexity</text>
<polyline fill="none" stroke="black" points="0,-493.5 151,-493.5 "/>
<text text-anchor="start" x="8" y="-481.5" font-family="Helvetica,sans-Serif" font-size="10.00">+ operator()()</text>
<text text-anchor="start" x="8" y="-470.5" font-family="Helvetica,sans-Serif" font-size="10.00">+ operator()()</text>
<text text-anchor="start" x="8" y="-459.5" font-family="Helvetica,sans-Serif" font-size="10.00">+ operator()()</text>
<text text-anchor="start" x="8" y="-448.5" font-family="Helvetica,sans-Serif" font-size="10.00">+ operator()()</text>
</a>
</g>
</g>
<!-- Node3&#45;&gt;Node2 -->
<g id="edge2" class="edge">
<title>Node3&#45;&gt;Node2</title>
<path fill="none" stroke="midnightblue" d="M69.02,-431.32C68.85,-422.62 68.75,-413.57 68.75,-404.5"/>
<polygon fill="none" stroke="midnightblue" points="65.52,-431.44 69.27,-441.35 72.52,-431.26 65.52,-431.44"/>
</g>
<!-- Node3&#45;&gt;Node2 -->
<g id="edge7" class="edge">
<title>Node3&#45;&gt;Node2</title>
<path fill="none" stroke="midnightblue" d="M81.98,-431.32C82.15,-422.62 82.25,-413.57 82.25,-404.5"/>
<polygon fill="none" stroke="midnightblue" points="78.48,-431.26 81.73,-441.35 85.48,-431.44 78.48,-431.26"/>
</g>
<!-- Node4 -->
<g id="node4" class="node">
<title>Node4</title>
<g id="a_node4"><a xlink:href="../../d1/d4d/classboost_1_1numeric_1_1ublas_1_1vector__expression.html" target="_top" xlink:title=" ">
<polygon fill="none" stroke="black" points="14.5,-590.5 14.5,-691.5 136.5,-691.5 136.5,-590.5 14.5,-590.5"/>
<text text-anchor="start" x="22.5" y="-679.5" font-family="Helvetica,sans-Serif" font-size="10.00">boost::numeric::ublas</text>
<text text-anchor="middle" x="75.5" y="-668.5" font-family="Helvetica,sans-Serif" font-size="10.00">::vector_expression&lt; E &gt;</text>
<polyline fill="none" stroke="black" points="14.5,-661.5 136.5,-661.5 "/>
<text text-anchor="start" x="22.5" y="-649.5" font-family="Helvetica,sans-Serif" font-size="10.00">+ complexity</text>
<polyline fill="none" stroke="black" points="14.5,-642.5 136.5,-642.5 "/>
<text text-anchor="start" x="22.5" y="-630.5" font-family="Helvetica,sans-Serif" font-size="10.00">+ operator()()</text>
<text text-anchor="start" x="22.5" y="-619.5" font-family="Helvetica,sans-Serif" font-size="10.00">+ operator()()</text>
<text text-anchor="start" x="22.5" y="-608.5" font-family="Helvetica,sans-Serif" font-size="10.00">+ operator()()</text>
<text text-anchor="start" x="22.5" y="-597.5" font-family="Helvetica,sans-Serif" font-size="10.00">+ operator()()</text>
</a>
</g>
</g>
<!-- Node4&#45;&gt;Node3 -->
<g id="edge3" class="edge">
<title>Node4&#45;&gt;Node3</title>
<path fill="none" stroke="midnightblue" d="M68.82,-580.01C68.71,-571.29 68.73,-562.34 68.9,-553.72"/>
<polygon fill="none" stroke="midnightblue" points="65.32,-580.18 69.02,-590.11 72.32,-580.05 65.32,-580.18"/>
</g>
<!-- Node4&#45;&gt;Node3 -->
<g id="edge6" class="edge">
<title>Node4&#45;&gt;Node3</title>
<path fill="none" stroke="midnightblue" d="M82.18,-580.01C82.29,-571.29 82.27,-562.34 82.1,-553.72"/>
<polygon fill="none" stroke="midnightblue" points="78.68,-580.05 81.98,-590.11 85.68,-580.18 78.68,-580.05"/>
</g>
<!-- Node5 -->
<g id="node5" class="node">
<title>Node5</title>
<g id="a_node5"><a xlink:href="../../dd/db7/classboost_1_1numeric_1_1ublas_1_1ublas__expression.html" target="_top" xlink:title=" ">
<polygon fill="none" stroke="black" points="16,-728.5 16,-829.5 135,-829.5 135,-728.5 16,-728.5"/>
<text text-anchor="start" x="24" y="-817.5" font-family="Helvetica,sans-Serif" font-size="10.00">boost::numeric::ublas</text>
<text text-anchor="middle" x="75.5" y="-806.5" font-family="Helvetica,sans-Serif" font-size="10.00">::ublas_expression&lt; E &gt;</text>
<polyline fill="none" stroke="black" points="16,-799.5 135,-799.5 "/>
<text text-anchor="middle" x="75.5" y="-787.5" font-family="Helvetica,sans-Serif" font-size="10.00"> </text>
<polyline fill="none" stroke="black" points="16,-780.5 135,-780.5 "/>
<text text-anchor="start" x="24" y="-768.5" font-family="Helvetica,sans-Serif" font-size="10.00"># ublas_expression()</text>
<text text-anchor="start" x="24" y="-757.5" font-family="Helvetica,sans-Serif" font-size="10.00"># ~ublas_expression()</text>
<text text-anchor="start" x="24" y="-746.5" font-family="Helvetica,sans-Serif" font-size="10.00"># ublas_expression()</text>
<text text-anchor="start" x="24" y="-735.5" font-family="Helvetica,sans-Serif" font-size="10.00"># ~ublas_expression()</text>
</a>
</g>
</g>
<!-- Node5&#45;&gt;Node4 -->
<g id="edge4" class="edge">
<title>Node5&#45;&gt;Node4</title>
<path fill="none" stroke="midnightblue" d="M68.79,-718C68.7,-709.27 68.76,-700.36 68.97,-691.86"/>
<polygon fill="none" stroke="midnightblue" points="65.29,-718.19 68.97,-728.13 72.29,-718.07 65.29,-718.19"/>
</g>
<!-- Node5&#45;&gt;Node4 -->
<g id="edge5" class="edge">
<title>Node5&#45;&gt;Node4</title>
<path fill="none" stroke="midnightblue" d="M82.21,-718C82.3,-709.27 82.24,-700.36 82.03,-691.86"/>
<polygon fill="none" stroke="midnightblue" points="78.71,-718.07 82.03,-728.13 85.71,-718.19 78.71,-718.07"/>
</g>
</g>
</svg>
