<?xml version="1.0" encoding="UTF-8" standalone="no"?>
<!DOCTYPE svg PUBLIC "-//W3C//DTD SVG 1.1//EN"
 "http://www.w3.org/Graphics/SVG/1.1/DTD/svg11.dtd">
<!-- Generated by graphviz version 2.48.0 (20210719.0153)
 -->
<!-- Title: /github/workspace/kratos/geometries/line_2d.h Pages: 1 -->
<svg width="742pt" height="117pt"
 viewBox="0.00 0.00 741.50 117.00" xmlns="http://www.w3.org/2000/svg" xmlns:xlink="http://www.w3.org/1999/xlink">
<g id="graph0" class="graph" transform="scale(1 1) rotate(0) translate(4 113)">
<title>/github/workspace/kratos/geometries/line_2d.h</title>
<!-- Node1 -->
<g id="node1" class="node">
<title>Node1</title>
<g id="a_node1"><a xlink:title=" ">
<polygon fill="#bfbfbf" stroke="black" points="311,-78.5 311,-108.5 437,-108.5 437,-78.5 311,-78.5"/>
<text text-anchor="start" x="319" y="-96.5" font-family="Helvetica,sans-Serif" font-size="10.00">/github/workspace/kratos</text>
<text text-anchor="middle" x="374" y="-85.5" font-family="Helvetica,sans-Serif" font-size="10.00">/geometries/line_2d.h</text>
</a>
</g>
</g>
<!-- Node2 -->
<g id="node2" class="node">
<title>Node2</title>
<g id="a_node2"><a xlink:href="../../dc/dd2/ale__application_8cpp.html" target="_top" xlink:title=" ">
<polygon fill="none" stroke="black" points="0,-6 0,-36 170,-36 170,-6 0,-6"/>
<text text-anchor="start" x="8" y="-24" font-family="Helvetica,sans-Serif" font-size="10.00">/github/workspace/applications</text>
<text text-anchor="middle" x="85" y="-13" font-family="Helvetica,sans-Serif" font-size="10.00">/ALEapplication/ale_application.cpp</text>
</a>
</g>
</g>
<!-- Node1&#45;&gt;Node2 -->
<g id="edge1" class="edge">
<title>Node1&#45;&gt;Node2</title>
<path fill="none" stroke="midnightblue" d="M306.55,-76.05C256.89,-63.93 190.06,-47.63 142.83,-36.11"/>
<polygon fill="midnightblue" stroke="midnightblue" points="306.01,-79.52 316.56,-78.49 307.67,-72.72 306.01,-79.52"/>
</g>
<!-- Node3 -->
<g id="node3" class="node">
<title>Node3</title>
<g id="a_node3"><a xlink:href="../../db/d5a/convection__diffusion__application_8cpp.html" target="_top" xlink:title=" ">
<polygon fill="none" stroke="black" points="188,-0.5 188,-41.5 366,-41.5 366,-0.5 188,-0.5"/>
<text text-anchor="start" x="196" y="-29.5" font-family="Helvetica,sans-Serif" font-size="10.00">/github/workspace/applications</text>
<text text-anchor="start" x="196" y="-18.5" font-family="Helvetica,sans-Serif" font-size="10.00">/convection_diffusion_application</text>
<text text-anchor="middle" x="277" y="-7.5" font-family="Helvetica,sans-Serif" font-size="10.00">/convection_diffusion_application.cpp</text>
</a>
</g>
</g>
<!-- Node1&#45;&gt;Node3 -->
<g id="edge2" class="edge">
<title>Node1&#45;&gt;Node3</title>
<path fill="none" stroke="midnightblue" d="M346.08,-72.21C332.83,-62.58 317.07,-51.12 303.95,-41.59"/>
<polygon fill="midnightblue" stroke="midnightblue" points="344.22,-75.19 354.37,-78.23 348.34,-69.52 344.22,-75.19"/>
</g>
<!-- Node4 -->
<g id="node4" class="node">
<title>Node4</title>
<g id="a_node4"><a xlink:href="../../d5/de1/incompressible__fluid__application_8cpp.html" target="_top" xlink:title=" ">
<polygon fill="none" stroke="black" points="383.5,-0.5 383.5,-41.5 560.5,-41.5 560.5,-0.5 383.5,-0.5"/>
<text text-anchor="start" x="391.5" y="-29.5" font-family="Helvetica,sans-Serif" font-size="10.00">/github/workspace/applications</text>
<text text-anchor="start" x="391.5" y="-18.5" font-family="Helvetica,sans-Serif" font-size="10.00">/incompressible_fluid_application</text>
<text text-anchor="middle" x="472" y="-7.5" font-family="Helvetica,sans-Serif" font-size="10.00">/incompressible_fluid_application.cpp</text>
</a>
</g>
</g>
<!-- Node1&#45;&gt;Node4 -->
<g id="edge3" class="edge">
<title>Node1&#45;&gt;Node4</title>
<path fill="none" stroke="midnightblue" d="M402.21,-72.21C415.59,-62.58 431.51,-51.12 444.77,-41.59"/>
<polygon fill="midnightblue" stroke="midnightblue" points="399.91,-69.55 393.83,-78.23 403.99,-75.23 399.91,-69.55"/>
</g>
<!-- Node5 -->
<g id="node5" class="node">
<title>Node5</title>
<g id="a_node5"><a xlink:href="../../dc/d93/structural__application_8cpp.html" target="_top" xlink:title=" ">
<polygon fill="none" stroke="black" points="578.5,-0.5 578.5,-41.5 733.5,-41.5 733.5,-0.5 578.5,-0.5"/>
<text text-anchor="start" x="586.5" y="-29.5" font-family="Helvetica,sans-Serif" font-size="10.00">/github/workspace/applications</text>
<text text-anchor="start" x="586.5" y="-18.5" font-family="Helvetica,sans-Serif" font-size="10.00">/structural_application/structural</text>
<text text-anchor="middle" x="656" y="-7.5" font-family="Helvetica,sans-Serif" font-size="10.00">_application.cpp</text>
</a>
</g>
</g>
<!-- Node1&#45;&gt;Node5 -->
<g id="edge4" class="edge">
<title>Node1&#45;&gt;Node5</title>
<path fill="none" stroke="midnightblue" d="M439.77,-76.06C481.21,-65.7 534.92,-52.27 578.43,-41.39"/>
<polygon fill="midnightblue" stroke="midnightblue" points="438.9,-72.67 430.05,-78.49 440.6,-79.46 438.9,-72.67"/>
</g>
</g>
</svg>
