<?xml version="1.0" encoding="UTF-8" standalone="no"?>
<!DOCTYPE svg PUBLIC "-//W3C//DTD SVG 1.1//EN"
 "http://www.w3.org/Graphics/SVG/1.1/DTD/svg11.dtd">
<!-- Generated by graphviz version 2.48.0 (20210719.0153)
 -->
<!-- Title: /github/workspace/kratos/containers/fix_data_value_container.h Pages: 1 -->
<svg width="1021pt" height="464pt"
 viewBox="0.00 0.00 1020.50 464.00" xmlns="http://www.w3.org/2000/svg" xmlns:xlink="http://www.w3.org/1999/xlink">
<g id="graph0" class="graph" transform="scale(1 1) rotate(0) translate(4 460)">
<title>/github/workspace/kratos/containers/fix_data_value_container.h</title>
<!-- Node1 -->
<g id="node1" class="node">
<title>Node1</title>
<g id="a_node1"><a xlink:title=" ">
<polygon fill="#bfbfbf" stroke="black" points="550.5,-414.5 550.5,-455.5 679.5,-455.5 679.5,-414.5 550.5,-414.5"/>
<text text-anchor="start" x="558.5" y="-443.5" font-family="Helvetica,sans-Serif" font-size="10.00">/github/workspace/kratos</text>
<text text-anchor="start" x="558.5" y="-432.5" font-family="Helvetica,sans-Serif" font-size="10.00">/containers/fix_data_value</text>
<text text-anchor="middle" x="615" y="-421.5" font-family="Helvetica,sans-Serif" font-size="10.00">_container.h</text>
</a>
</g>
</g>
<!-- Node2 -->
<g id="node2" class="node">
<title>Node2</title>
<g id="a_node2"><a xlink:title=" ">
<polygon fill="none" stroke="#bfbfbf" points="96.5,-56.5 96.5,-75.5 137.5,-75.5 137.5,-56.5 96.5,-56.5"/>
<text text-anchor="middle" x="117" y="-63.5" font-family="Helvetica,sans-Serif" font-size="10.00">string</text>
</a>
</g>
</g>
<!-- Node1&#45;&gt;Node2 -->
<g id="edge1" class="edge">
<title>Node1&#45;&gt;Node2</title>
<path fill="none" stroke="midnightblue" d="M550.35,-434.23C392.45,-433.07 0,-418.96 0,-307.5 0,-307.5 0,-307.5 0,-177 0,-129.22 52.44,-96.11 87.1,-79.45"/>
<polygon fill="midnightblue" stroke="midnightblue" points="88.74,-82.55 96.35,-75.18 85.81,-76.19 88.74,-82.55"/>
</g>
<!-- Node3 -->
<g id="node3" class="node">
<title>Node3</title>
<g id="a_node3"><a xlink:title=" ">
<polygon fill="none" stroke="#bfbfbf" points="318,-56.5 318,-75.5 372,-75.5 372,-56.5 318,-56.5"/>
<text text-anchor="middle" x="345" y="-63.5" font-family="Helvetica,sans-Serif" font-size="10.00">iostream</text>
</a>
</g>
</g>
<!-- Node1&#45;&gt;Node3 -->
<g id="edge2" class="edge">
<title>Node1&#45;&gt;Node3</title>
<path fill="none" stroke="midnightblue" d="M624.36,-414.46C639.25,-382.16 667.71,-315.24 678,-255 690.26,-183.21 659.57,-150.89 598,-112 562.7,-89.71 443.77,-75.96 382.38,-70.17"/>
<polygon fill="midnightblue" stroke="midnightblue" points="382.6,-66.68 372.32,-69.25 381.96,-73.65 382.6,-66.68"/>
</g>
<!-- Node4 -->
<g id="node4" class="node">
<title>Node4</title>
<g id="a_node4"><a xlink:title=" ">
<polygon fill="none" stroke="#bfbfbf" points="519.5,-112.5 519.5,-131.5 568.5,-131.5 568.5,-112.5 519.5,-112.5"/>
<text text-anchor="middle" x="544" y="-119.5" font-family="Helvetica,sans-Serif" font-size="10.00">cstddef</text>
</a>
</g>
</g>
<!-- Node1&#45;&gt;Node4 -->
<g id="edge3" class="edge">
<title>Node1&#45;&gt;Node4</title>
<path fill="none" stroke="midnightblue" d="M659.62,-414.41C698.6,-393.93 749,-357.73 749,-307.5 749,-307.5 749,-307.5 749,-238.5 749,-161.23 637.09,-135.09 578.64,-126.71"/>
<polygon fill="midnightblue" stroke="midnightblue" points="579.1,-123.24 568.73,-125.38 578.18,-130.18 579.1,-123.24"/>
</g>
<!-- Node5 -->
<g id="node5" class="node">
<title>Node5</title>
<g id="a_node5"><a xlink:href="../../df/d67/define_8h.html" target="_top" xlink:title=" ">
<polygon fill="none" stroke="black" points="628.5,-56.5 628.5,-75.5 717.5,-75.5 717.5,-56.5 628.5,-56.5"/>
<text text-anchor="middle" x="673" y="-63.5" font-family="Helvetica,sans-Serif" font-size="10.00">includes/define.h</text>
</a>
</g>
</g>
<!-- Node1&#45;&gt;Node5 -->
<g id="edge4" class="edge">
<title>Node1&#45;&gt;Node5</title>
<path fill="none" stroke="midnightblue" d="M679.51,-428.67C752.99,-418.66 863,-389.91 863,-307.5 863,-307.5 863,-307.5 863,-177 863,-113.9 783.53,-86.41 727.39,-74.86"/>
<polygon fill="midnightblue" stroke="midnightblue" points="728.03,-71.42 717.55,-72.95 726.7,-78.29 728.03,-71.42"/>
</g>
<!-- Node11 -->
<g id="node11" class="node">
<title>Node11</title>
<g id="a_node11"><a xlink:href="../../da/d89/variable_8h.html" target="_top" xlink:title=" ">
<polygon fill="none" stroke="black" points="368,-230 368,-249 474,-249 474,-230 368,-230"/>
<text text-anchor="middle" x="421" y="-237" font-family="Helvetica,sans-Serif" font-size="10.00">containers/variable.h</text>
</a>
</g>
</g>
<!-- Node1&#45;&gt;Node11 -->
<g id="edge10" class="edge">
<title>Node1&#45;&gt;Node11</title>
<path fill="none" stroke="midnightblue" d="M595.33,-414.38C556.82,-375.97 472.17,-291.54 436.91,-256.37"/>
<polygon fill="midnightblue" stroke="midnightblue" points="439.35,-253.86 429.8,-249.27 434.4,-258.81 439.35,-253.86"/>
</g>
<!-- Node14 -->
<g id="node14" class="node">
<title>Node14</title>
<g id="a_node14"><a xlink:href="../../d4/d59/variable__component_8h.html" target="_top" xlink:title=" ">
<polygon fill="none" stroke="black" points="547,-224.5 547,-254.5 645,-254.5 645,-224.5 547,-224.5"/>
<text text-anchor="start" x="555" y="-242.5" font-family="Helvetica,sans-Serif" font-size="10.00">containers/variable</text>
<text text-anchor="middle" x="596" y="-231.5" font-family="Helvetica,sans-Serif" font-size="10.00">_component.h</text>
</a>
</g>
</g>
<!-- Node1&#45;&gt;Node14 -->
<g id="edge23" class="edge">
<title>Node1&#45;&gt;Node14</title>
<path fill="none" stroke="midnightblue" d="M613.07,-414.38C609.58,-378.79 602.2,-303.68 598.39,-264.87"/>
<polygon fill="midnightblue" stroke="midnightblue" points="601.84,-264.12 597.38,-254.51 594.87,-264.8 601.84,-264.12"/>
</g>
<!-- Node15 -->
<g id="node15" class="node">
<title>Node15</title>
<g id="a_node15"><a xlink:href="../../de/d77/variables__list_8h.html" target="_top" xlink:title=" ">
<polygon fill="none" stroke="black" points="208,-291.5 208,-321.5 312,-321.5 312,-291.5 208,-291.5"/>
<text text-anchor="start" x="216" y="-309.5" font-family="Helvetica,sans-Serif" font-size="10.00">containers/variables</text>
<text text-anchor="middle" x="260" y="-298.5" font-family="Helvetica,sans-Serif" font-size="10.00">_list.h</text>
</a>
</g>
</g>
<!-- Node1&#45;&gt;Node15 -->
<g id="edge28" class="edge">
<title>Node1&#45;&gt;Node15</title>
<path fill="none" stroke="midnightblue" d="M550.2,-431.36C463.97,-426.5 317.83,-413.2 279,-378 266.3,-366.49 261.72,-347.48 260.22,-332.09"/>
<polygon fill="midnightblue" stroke="midnightblue" points="263.69,-331.47 259.6,-321.69 256.7,-331.88 263.69,-331.47"/>
</g>
<!-- Node18 -->
<g id="node18" class="node">
<title>Node18</title>
<g id="a_node18"><a xlink:href="../../d5/dfb/global__variables_8h.html" target="_top" xlink:title=" ">
<polygon fill="none" stroke="black" points="288.5,-358.5 288.5,-377.5 421.5,-377.5 421.5,-358.5 288.5,-358.5"/>
<text text-anchor="middle" x="355" y="-365.5" font-family="Helvetica,sans-Serif" font-size="10.00">includes/global_variables.h</text>
</a>
</g>
</g>
<!-- Node1&#45;&gt;Node18 -->
<g id="edge35" class="edge">
<title>Node1&#45;&gt;Node18</title>
<path fill="none" stroke="midnightblue" d="M550.4,-417.85C503.16,-406.04 440.34,-390.33 398.84,-379.96"/>
<polygon fill="midnightblue" stroke="midnightblue" points="399.58,-376.54 389.03,-377.51 397.88,-383.33 399.58,-376.54"/>
</g>
<!-- Node6 -->
<g id="node6" class="node">
<title>Node6</title>
<g id="a_node6"><a xlink:title=" ">
<polygon fill="none" stroke="#bfbfbf" points="473.5,-0.5 473.5,-19.5 532.5,-19.5 532.5,-0.5 473.5,-0.5"/>
<text text-anchor="middle" x="503" y="-7.5" font-family="Helvetica,sans-Serif" font-size="10.00">stdexcept</text>
</a>
</g>
</g>
<!-- Node5&#45;&gt;Node6 -->
<g id="edge5" class="edge">
<title>Node5&#45;&gt;Node6</title>
<path fill="none" stroke="midnightblue" d="M646.06,-56.44C617.34,-47.32 571.67,-32.81 539.68,-22.65"/>
<polygon fill="midnightblue" stroke="midnightblue" points="540.4,-19.21 529.81,-19.52 538.28,-25.88 540.4,-19.21"/>
</g>
<!-- Node7 -->
<g id="node7" class="node">
<title>Node7</title>
<g id="a_node7"><a xlink:title=" ">
<polygon fill="none" stroke="#bfbfbf" points="551,-0.5 551,-19.5 603,-19.5 603,-0.5 551,-0.5"/>
<text text-anchor="middle" x="577" y="-7.5" font-family="Helvetica,sans-Serif" font-size="10.00">sstream</text>
</a>
</g>
</g>
<!-- Node5&#45;&gt;Node7 -->
<g id="edge6" class="edge">
<title>Node5&#45;&gt;Node7</title>
<path fill="none" stroke="midnightblue" d="M657.58,-56.32C642.46,-47.82 619.18,-34.73 601.53,-24.8"/>
<polygon fill="midnightblue" stroke="midnightblue" points="602.82,-21.51 592.39,-19.65 599.39,-27.61 602.82,-21.51"/>
</g>
<!-- Node8 -->
<g id="node8" class="node">
<title>Node8</title>
<g id="a_node8"><a xlink:title=" ">
<polygon fill="none" stroke="#bfbfbf" points="621.5,-0.5 621.5,-19.5 724.5,-19.5 724.5,-0.5 621.5,-0.5"/>
<text text-anchor="middle" x="673" y="-7.5" font-family="Helvetica,sans-Serif" font-size="10.00">boost/smart_ptr.hpp</text>
</a>
</g>
</g>
<!-- Node5&#45;&gt;Node8 -->
<g id="edge7" class="edge">
<title>Node5&#45;&gt;Node8</title>
<path fill="none" stroke="midnightblue" d="M673,-56.08C673,-49.01 673,-38.86 673,-29.99"/>
<polygon fill="midnightblue" stroke="midnightblue" points="676.5,-29.75 673,-19.75 669.5,-29.75 676.5,-29.75"/>
</g>
<!-- Node9 -->
<g id="node9" class="node">
<title>Node9</title>
<g id="a_node9"><a xlink:title=" ">
<polygon fill="none" stroke="#bfbfbf" points="742.5,-0.5 742.5,-19.5 873.5,-19.5 873.5,-0.5 742.5,-0.5"/>
<text text-anchor="middle" x="808" y="-7.5" font-family="Helvetica,sans-Serif" font-size="10.00">boost/current_function.hpp</text>
</a>
</g>
</g>
<!-- Node5&#45;&gt;Node9 -->
<g id="edge8" class="edge">
<title>Node5&#45;&gt;Node9</title>
<path fill="none" stroke="midnightblue" d="M694.39,-56.44C716.71,-47.52 751.9,-33.44 777.21,-23.32"/>
<polygon fill="midnightblue" stroke="midnightblue" points="778.72,-26.48 786.71,-19.52 776.12,-19.98 778.72,-26.48"/>
</g>
<!-- Node10 -->
<g id="node10" class="node">
<title>Node10</title>
<g id="a_node10"><a xlink:href="../../de/d17/kratos__config_8h.html" target="_top" xlink:title=" ">
<polygon fill="none" stroke="black" points="891.5,-0.5 891.5,-19.5 1012.5,-19.5 1012.5,-0.5 891.5,-0.5"/>
<text text-anchor="middle" x="952" y="-7.5" font-family="Helvetica,sans-Serif" font-size="10.00">includes/kratos_config.h</text>
</a>
</g>
</g>
<!-- Node5&#45;&gt;Node10 -->
<g id="edge9" class="edge">
<title>Node5&#45;&gt;Node10</title>
<path fill="none" stroke="midnightblue" d="M717.21,-56.44C766.29,-46.94 845.51,-31.61 898.16,-21.42"/>
<polygon fill="midnightblue" stroke="midnightblue" points="898.85,-24.85 908,-19.52 897.52,-17.98 898.85,-24.85"/>
</g>
<!-- Node11&#45;&gt;Node2 -->
<g id="edge11" class="edge">
<title>Node11&#45;&gt;Node2</title>
<path fill="none" stroke="midnightblue" d="M367.95,-231.22C325.61,-224.06 265.55,-210.79 217,-188 179.02,-170.17 166.22,-165.53 141,-132 130.62,-118.19 124.33,-99.42 120.81,-85.6"/>
<polygon fill="midnightblue" stroke="midnightblue" points="124.2,-84.73 118.56,-75.77 117.38,-86.3 124.2,-84.73"/>
</g>
<!-- Node11&#45;&gt;Node3 -->
<g id="edge12" class="edge">
<title>Node11&#45;&gt;Node3</title>
<path fill="none" stroke="midnightblue" d="M410.03,-229.92C398.84,-220.65 381.65,-204.92 371,-188 350.85,-155.99 346.12,-110.79 345.13,-85.67"/>
<polygon fill="midnightblue" stroke="midnightblue" points="348.63,-85.58 344.89,-75.66 341.63,-85.74 348.63,-85.58"/>
</g>
<!-- Node11&#45;&gt;Node5 -->
<g id="edge13" class="edge">
<title>Node11&#45;&gt;Node5</title>
<path fill="none" stroke="midnightblue" d="M433.63,-229.96C460.31,-211.91 524.38,-168.53 578,-132 603.52,-114.61 632.85,-94.53 652.08,-81.35"/>
<polygon fill="midnightblue" stroke="midnightblue" points="654.14,-84.18 660.41,-75.64 650.18,-78.41 654.14,-84.18"/>
</g>
<!-- Node12 -->
<g id="node12" class="node">
<title>Node12</title>
<g id="a_node12"><a xlink:href="../../d3/dc3/variable__data_8h.html" target="_top" xlink:title=" ">
<polygon fill="none" stroke="black" points="380,-168.5 380,-187.5 462,-187.5 462,-168.5 380,-168.5"/>
<text text-anchor="middle" x="421" y="-175.5" font-family="Helvetica,sans-Serif" font-size="10.00">variable_data.h</text>
</a>
</g>
</g>
<!-- Node11&#45;&gt;Node12 -->
<g id="edge14" class="edge">
<title>Node11&#45;&gt;Node12</title>
<path fill="none" stroke="midnightblue" d="M421,-229.98C421,-221.58 421,-208.48 421,-197.66"/>
<polygon fill="midnightblue" stroke="midnightblue" points="424.5,-197.51 421,-187.51 417.5,-197.51 424.5,-197.51"/>
</g>
<!-- Node12&#45;&gt;Node2 -->
<g id="edge15" class="edge">
<title>Node12&#45;&gt;Node2</title>
<path fill="none" stroke="midnightblue" d="M397.4,-168.46C342.8,-148.7 207.84,-99.87 147.27,-77.95"/>
<polygon fill="midnightblue" stroke="midnightblue" points="148.13,-74.54 137.54,-74.43 145.75,-81.13 148.13,-74.54"/>
</g>
<!-- Node12&#45;&gt;Node3 -->
<g id="edge16" class="edge">
<title>Node12&#45;&gt;Node3</title>
<path fill="none" stroke="midnightblue" d="M405.47,-168.46C392.56,-160.6 374.65,-147.78 364,-132 354.65,-118.14 349.83,-99.63 347.38,-85.9"/>
<polygon fill="midnightblue" stroke="midnightblue" points="350.8,-85.07 345.85,-75.71 343.88,-86.12 350.8,-85.07"/>
</g>
<!-- Node12&#45;&gt;Node4 -->
<g id="edge17" class="edge">
<title>Node12&#45;&gt;Node4</title>
<path fill="none" stroke="midnightblue" d="M440.49,-168.44C460.64,-159.6 492.32,-145.69 515.33,-135.59"/>
<polygon fill="midnightblue" stroke="midnightblue" points="516.85,-138.74 524.6,-131.52 514.04,-132.33 516.85,-138.74"/>
</g>
<!-- Node12&#45;&gt;Node5 -->
<g id="edge18" class="edge">
<title>Node12&#45;&gt;Node5</title>
<path fill="none" stroke="midnightblue" d="M430.77,-168.11C446.53,-154.22 479.04,-127.37 511,-112 544.94,-95.68 585.83,-84.38 618.03,-77.18"/>
<polygon fill="midnightblue" stroke="midnightblue" points="619.13,-80.53 628.16,-74.99 617.65,-73.68 619.13,-80.53"/>
</g>
<!-- Node13 -->
<g id="node13" class="node">
<title>Node13</title>
<g id="a_node13"><a xlink:href="../../d7/da2/counter_8h.html" target="_top" xlink:title=" ">
<polygon fill="none" stroke="black" points="373,-112.5 373,-131.5 463,-131.5 463,-112.5 373,-112.5"/>
<text text-anchor="middle" x="418" y="-119.5" font-family="Helvetica,sans-Serif" font-size="10.00">utilities/counter.h</text>
</a>
</g>
</g>
<!-- Node12&#45;&gt;Node13 -->
<g id="edge19" class="edge">
<title>Node12&#45;&gt;Node13</title>
<path fill="none" stroke="midnightblue" d="M420.5,-168.08C420.11,-161.01 419.55,-150.86 419.05,-141.99"/>
<polygon fill="midnightblue" stroke="midnightblue" points="422.54,-141.54 418.49,-131.75 415.55,-141.93 422.54,-141.54"/>
</g>
<!-- Node13&#45;&gt;Node2 -->
<g id="edge20" class="edge">
<title>Node13&#45;&gt;Node2</title>
<path fill="none" stroke="midnightblue" d="M372.94,-112.92C310.82,-101.77 200.55,-81.99 147.36,-72.45"/>
<polygon fill="midnightblue" stroke="midnightblue" points="147.98,-69 137.52,-70.68 146.74,-75.89 147.98,-69"/>
</g>
<!-- Node13&#45;&gt;Node3 -->
<g id="edge21" class="edge">
<title>Node13&#45;&gt;Node3</title>
<path fill="none" stroke="midnightblue" d="M406.27,-112.32C395.16,-104.11 378.26,-91.6 365.02,-81.81"/>
<polygon fill="midnightblue" stroke="midnightblue" points="367.06,-78.97 356.94,-75.83 362.9,-84.59 367.06,-78.97"/>
</g>
<!-- Node13&#45;&gt;Node5 -->
<g id="edge22" class="edge">
<title>Node13&#45;&gt;Node5</title>
<path fill="none" stroke="midnightblue" d="M458.41,-112.44C502.98,-103 574.77,-87.8 622.89,-77.61"/>
<polygon fill="midnightblue" stroke="midnightblue" points="623.73,-81.01 632.78,-75.52 622.28,-74.16 623.73,-81.01"/>
</g>
<!-- Node14&#45;&gt;Node2 -->
<g id="edge24" class="edge">
<title>Node14&#45;&gt;Node2</title>
<path fill="none" stroke="midnightblue" d="M546.61,-230.03C500.57,-221.53 430.29,-206.97 371,-188 309.91,-168.46 295.87,-159.65 238,-132 203.62,-115.57 165.02,-94.33 140.86,-80.68"/>
<polygon fill="midnightblue" stroke="midnightblue" points="142.47,-77.57 132.04,-75.68 139.01,-83.66 142.47,-77.57"/>
</g>
<!-- Node14&#45;&gt;Node3 -->
<g id="edge25" class="edge">
<title>Node14&#45;&gt;Node3</title>
<path fill="none" stroke="midnightblue" d="M598.76,-224.11C602.85,-198 607.21,-142.69 578,-112 551.67,-84.34 441.31,-73.14 382.41,-69.07"/>
<polygon fill="midnightblue" stroke="midnightblue" points="382.59,-65.57 372.39,-68.41 382.14,-72.56 382.59,-65.57"/>
</g>
<!-- Node14&#45;&gt;Node5 -->
<g id="edge26" class="edge">
<title>Node14&#45;&gt;Node5</title>
<path fill="none" stroke="midnightblue" d="M616.09,-224.36C627.5,-215.27 641.04,-202.48 649,-188 667.08,-155.11 671.65,-110.55 672.74,-85.71"/>
<polygon fill="midnightblue" stroke="midnightblue" points="676.24,-85.61 673.03,-75.51 669.25,-85.41 676.24,-85.61"/>
</g>
<!-- Node14&#45;&gt;Node12 -->
<g id="edge27" class="edge">
<title>Node14&#45;&gt;Node12</title>
<path fill="none" stroke="midnightblue" d="M554.53,-224.4C524.42,-214.16 484.15,-200.47 455.73,-190.81"/>
<polygon fill="midnightblue" stroke="midnightblue" points="456.8,-187.48 446.21,-187.57 454.55,-194.1 456.8,-187.48"/>
</g>
<!-- Node15&#45;&gt;Node2 -->
<g id="edge29" class="edge">
<title>Node15&#45;&gt;Node2</title>
<path fill="none" stroke="midnightblue" d="M207.62,-304.87C169.65,-301.32 120.65,-289.68 95,-255 56.76,-203.3 89.83,-120.79 107.54,-84.78"/>
<polygon fill="midnightblue" stroke="midnightblue" points="110.83,-86.05 112.25,-75.55 104.59,-82.87 110.83,-86.05"/>
</g>
<!-- Node15&#45;&gt;Node3 -->
<g id="edge30" class="edge">
<title>Node15&#45;&gt;Node3</title>
<path fill="none" stroke="midnightblue" d="M268.36,-291.48C273.72,-281.65 280.18,-267.99 283,-255 285.92,-241.54 287.47,-237.03 283,-224 276.42,-204.83 261.58,-207.17 255,-188 244.04,-156.05 237.24,-140.73 255,-112 266.57,-93.27 288.57,-82.08 307.91,-75.54"/>
<polygon fill="midnightblue" stroke="midnightblue" points="309.19,-78.81 317.72,-72.53 307.13,-72.12 309.19,-78.81"/>
</g>
<!-- Node15&#45;&gt;Node5 -->
<g id="edge33" class="edge">
<title>Node15&#45;&gt;Node5</title>
<path fill="none" stroke="midnightblue" d="M312.34,-305.92C407.78,-305.56 604.82,-299.32 654,-255 701.91,-211.83 687.44,-124.09 678.15,-85.7"/>
<polygon fill="midnightblue" stroke="midnightblue" points="681.5,-84.67 675.61,-75.86 674.72,-86.42 681.5,-84.67"/>
</g>
<!-- Node15&#45;&gt;Node11 -->
<g id="edge34" class="edge">
<title>Node15&#45;&gt;Node11</title>
<path fill="none" stroke="midnightblue" d="M294.93,-291.4C323.43,-279.89 363.29,-263.8 390.52,-252.81"/>
<polygon fill="midnightblue" stroke="midnightblue" points="391.97,-256 399.93,-249.01 389.35,-249.51 391.97,-256"/>
</g>
<!-- Node16 -->
<g id="node16" class="node">
<title>Node16</title>
<g id="a_node16"><a xlink:title=" ">
<polygon fill="none" stroke="#bfbfbf" points="230,-230 230,-249 274,-249 274,-230 230,-230"/>
<text text-anchor="middle" x="252" y="-237" font-family="Helvetica,sans-Serif" font-size="10.00">vector</text>
</a>
</g>
</g>
<!-- Node15&#45;&gt;Node16 -->
<g id="edge31" class="edge">
<title>Node15&#45;&gt;Node16</title>
<path fill="none" stroke="midnightblue" d="M258.26,-291.4C257.1,-281.96 255.56,-269.45 254.3,-259.19"/>
<polygon fill="midnightblue" stroke="midnightblue" points="257.77,-258.69 253.07,-249.19 250.82,-259.55 257.77,-258.69"/>
</g>
<!-- Node17 -->
<g id="node17" class="node">
<title>Node17</title>
<g id="a_node17"><a xlink:title=" ">
<polygon fill="none" stroke="#bfbfbf" points="104,-224.5 104,-254.5 212,-254.5 212,-224.5 104,-224.5"/>
<text text-anchor="start" x="112" y="-242.5" font-family="Helvetica,sans-Serif" font-size="10.00">boost/iterator/indirect</text>
<text text-anchor="middle" x="158" y="-231.5" font-family="Helvetica,sans-Serif" font-size="10.00">_iterator.hpp</text>
</a>
</g>
</g>
<!-- Node15&#45;&gt;Node17 -->
<g id="edge32" class="edge">
<title>Node15&#45;&gt;Node17</title>
<path fill="none" stroke="midnightblue" d="M237.87,-291.4C223.43,-282.2 204.4,-270.07 188.53,-259.95"/>
<polygon fill="midnightblue" stroke="midnightblue" points="190.4,-257 180.09,-254.58 186.64,-262.9 190.4,-257"/>
</g>
<!-- Node18&#45;&gt;Node2 -->
<g id="edge36" class="edge">
<title>Node18&#45;&gt;Node2</title>
<path fill="none" stroke="midnightblue" d="M308.23,-358.45C220.05,-340.99 38,-297.98 38,-240.5 38,-240.5 38,-240.5 38,-177 38,-136.79 73.25,-101.22 96.66,-82.03"/>
<polygon fill="midnightblue" stroke="midnightblue" points="98.97,-84.66 104.66,-75.72 94.64,-79.17 98.97,-84.66"/>
</g>
<!-- Node18&#45;&gt;Node3 -->
<g id="edge37" class="edge">
<title>Node18&#45;&gt;Node3</title>
<path fill="none" stroke="midnightblue" d="M354.46,-358.47C352.54,-327.85 346.07,-220.61 344,-132 343.64,-116.47 343.95,-98.84 344.32,-85.87"/>
<polygon fill="midnightblue" stroke="midnightblue" points="347.82,-85.94 344.65,-75.83 340.83,-85.71 347.82,-85.94"/>
</g>
<!-- Node18&#45;&gt;Node5 -->
<g id="edge38" class="edge">
<title>Node18&#45;&gt;Node5</title>
<path fill="none" stroke="midnightblue" d="M421.73,-361.16C494.3,-351.32 609.12,-325.03 678,-255 723,-209.25 715.2,-173.83 698,-112 695.28,-102.22 690.05,-92.26 685.08,-84.21"/>
<polygon fill="midnightblue" stroke="midnightblue" points="687.94,-82.19 679.52,-75.75 682.09,-86.03 687.94,-82.19"/>
</g>
<!-- Node18&#45;&gt;Node15 -->
<g id="edge39" class="edge">
<title>Node18&#45;&gt;Node15</title>
<path fill="none" stroke="midnightblue" d="M341.39,-358.48C328.28,-350.27 307.99,-337.56 290.95,-326.88"/>
<polygon fill="midnightblue" stroke="midnightblue" points="292.72,-323.86 282.39,-321.52 289.01,-329.8 292.72,-323.86"/>
</g>
</g>
</svg>
