<?xml version="1.0" encoding="UTF-8" standalone="no"?>
<!DOCTYPE svg PUBLIC "-//W3C//DTD SVG 1.1//EN"
 "http://www.w3.org/Graphics/SVG/1.1/DTD/svg11.dtd">
<!-- Generated by graphviz version 2.48.0 (20210719.0153)
 -->
<!-- Title: /github/workspace/applications/mkl_solvers_application/external_includes/boost/numeric/bindings/traits/ublas_sparse.hpp Pages: 1 -->
<svg width="348pt" height="228pt"
 viewBox="0.00 0.00 348.00 228.00" xmlns="http://www.w3.org/2000/svg" xmlns:xlink="http://www.w3.org/1999/xlink">
<g id="graph0" class="graph" transform="scale(1 1) rotate(0) translate(4 224)">
<title>/github/workspace/applications/mkl_solvers_application/external_includes/boost/numeric/bindings/traits/ublas_sparse.hpp</title>
<!-- Node1 -->
<g id="node1" class="node">
<title>Node1</title>
<g id="a_node1"><a xlink:title=" ">
<polygon fill="#bfbfbf" stroke="black" points="89,-167.5 89,-219.5 250,-219.5 250,-167.5 89,-167.5"/>
<text text-anchor="start" x="97" y="-207.5" font-family="Helvetica,sans-Serif" font-size="10.00">/github/workspace/applications</text>
<text text-anchor="start" x="97" y="-196.5" font-family="Helvetica,sans-Serif" font-size="10.00">/mkl_solvers_application/external</text>
<text text-anchor="start" x="97" y="-185.5" font-family="Helvetica,sans-Serif" font-size="10.00">_includes/boost/numeric/bindings</text>
<text text-anchor="middle" x="169.5" y="-174.5" font-family="Helvetica,sans-Serif" font-size="10.00">/traits/ublas_sparse.hpp</text>
</a>
</g>
</g>
<!-- Node2 -->
<g id="node2" class="node">
<title>Node2</title>
<g id="a_node2"><a xlink:href="../../d9/d96/mkl__gmres__solver_8h.html" target="_top" xlink:title=" ">
<polygon fill="none" stroke="black" points="0,-89.5 0,-130.5 161,-130.5 161,-89.5 0,-89.5"/>
<text text-anchor="start" x="8" y="-118.5" font-family="Helvetica,sans-Serif" font-size="10.00">/github/workspace/applications</text>
<text text-anchor="start" x="8" y="-107.5" font-family="Helvetica,sans-Serif" font-size="10.00">/mkl_solvers_application/external</text>
<text text-anchor="middle" x="80.5" y="-96.5" font-family="Helvetica,sans-Serif" font-size="10.00">_includes/mkl_gmres_solver.h</text>
</a>
</g>
</g>
<!-- Node1&#45;&gt;Node2 -->
<g id="edge1" class="edge">
<title>Node1&#45;&gt;Node2</title>
<path fill="none" stroke="midnightblue" d="M134.4,-160.36C123.43,-150.31 111.67,-139.54 101.93,-130.63"/>
<polygon fill="midnightblue" stroke="midnightblue" points="132.09,-162.99 141.83,-167.16 136.82,-157.82 132.09,-162.99"/>
</g>
<!-- Node4 -->
<g id="node4" class="node">
<title>Node4</title>
<g id="a_node4"><a xlink:href="../../d8/d22/mkl__pardiso__solver_8h.html" target="_top" xlink:title=" ">
<polygon fill="none" stroke="black" points="179,-89.5 179,-130.5 340,-130.5 340,-89.5 179,-89.5"/>
<text text-anchor="start" x="187" y="-118.5" font-family="Helvetica,sans-Serif" font-size="10.00">/github/workspace/applications</text>
<text text-anchor="start" x="187" y="-107.5" font-family="Helvetica,sans-Serif" font-size="10.00">/mkl_solvers_application/external</text>
<text text-anchor="middle" x="259.5" y="-96.5" font-family="Helvetica,sans-Serif" font-size="10.00">_includes/mkl_pardiso_solver.h</text>
</a>
</g>
</g>
<!-- Node1&#45;&gt;Node4 -->
<g id="edge3" class="edge">
<title>Node1&#45;&gt;Node4</title>
<path fill="none" stroke="midnightblue" d="M205,-160.36C216.09,-150.31 227.98,-139.54 237.82,-130.63"/>
<polygon fill="midnightblue" stroke="midnightblue" points="202.55,-157.85 197.48,-167.16 207.25,-163.04 202.55,-157.85"/>
</g>
<!-- Node3 -->
<g id="node3" class="node">
<title>Node3</title>
<g id="a_node3"><a xlink:href="../../d3/da7/applications_2mkl__solvers__application_2custom__python_2add__linear__solvers__to__python_8cpp.html" target="_top" xlink:title=" ">
<polygon fill="none" stroke="black" points="90,-0.5 90,-52.5 249,-52.5 249,-0.5 90,-0.5"/>
<text text-anchor="start" x="98" y="-40.5" font-family="Helvetica,sans-Serif" font-size="10.00">/github/workspace/applications</text>
<text text-anchor="start" x="98" y="-29.5" font-family="Helvetica,sans-Serif" font-size="10.00">/mkl_solvers_application/custom</text>
<text text-anchor="start" x="98" y="-18.5" font-family="Helvetica,sans-Serif" font-size="10.00">_python/add_linear_solvers_to</text>
<text text-anchor="middle" x="169.5" y="-7.5" font-family="Helvetica,sans-Serif" font-size="10.00">_python.cpp</text>
</a>
</g>
</g>
<!-- Node2&#45;&gt;Node3 -->
<g id="edge2" class="edge">
<title>Node2&#45;&gt;Node3</title>
<path fill="none" stroke="midnightblue" d="M109.72,-82.24C120.13,-72.71 131.82,-62 142.08,-52.61"/>
<polygon fill="midnightblue" stroke="midnightblue" points="107.06,-79.94 102.04,-89.27 111.78,-85.1 107.06,-79.94"/>
</g>
<!-- Node4&#45;&gt;Node3 -->
<g id="edge4" class="edge">
<title>Node4&#45;&gt;Node3</title>
<path fill="none" stroke="midnightblue" d="M230.26,-82.52C219.65,-72.92 207.7,-62.09 197.23,-52.61"/>
<polygon fill="midnightblue" stroke="midnightblue" points="227.95,-85.15 237.71,-89.27 232.65,-79.96 227.95,-85.15"/>
</g>
</g>
</svg>
