<?xml version="1.0" encoding="UTF-8" standalone="no"?>
<!DOCTYPE svg PUBLIC "-//W3C//DTD SVG 1.1//EN"
 "http://www.w3.org/Graphics/SVG/1.1/DTD/svg11.dtd">
<!-- Generated by graphviz version 2.48.0 (20210719.0153)
 -->
<!-- Title: boost::numeric::ublas::mapped_vector_of_mapped_vector&lt; T, L, A &gt; Pages: 1 -->
<svg width="153pt" height="678pt"
 viewBox="0.00 0.00 153.00 678.00" xmlns="http://www.w3.org/2000/svg" xmlns:xlink="http://www.w3.org/1999/xlink">
<g id="graph0" class="graph" transform="scale(1 1) rotate(0) translate(4 674)">
<title>boost::numeric::ublas::mapped_vector_of_mapped_vector&lt; T, L, A &gt;</title>
<!-- Node1 -->
<g id="node1" class="node">
<title>Node1</title>
<g id="a_node1"><a xlink:title=" ">
<polygon fill="#bfbfbf" stroke="black" points="0,-0.5 0,-233.5 145,-233.5 145,-0.5 0,-0.5"/>
<text text-anchor="start" x="8" y="-221.5" font-family="Helvetica,sans-Serif" font-size="10.00">boost::numeric::ublas</text>
<text text-anchor="start" x="8" y="-210.5" font-family="Helvetica,sans-Serif" font-size="10.00">::mapped_vector_of_mapped</text>
<text text-anchor="middle" x="72.5" y="-199.5" font-family="Helvetica,sans-Serif" font-size="10.00">_vector&lt; T, L, A &gt;</text>
<polyline fill="none" stroke="black" points="0,-192.5 145,-192.5 "/>
<text text-anchor="middle" x="72.5" y="-180.5" font-family="Helvetica,sans-Serif" font-size="10.00"> </text>
<polyline fill="none" stroke="black" points="0,-173.5 145,-173.5 "/>
<text text-anchor="start" x="8" y="-161.5" font-family="Helvetica,sans-Serif" font-size="10.00">+ mapped_vector_of_mapped</text>
<text text-anchor="start" x="8" y="-150.5" font-family="Helvetica,sans-Serif" font-size="10.00">_vector()</text>
<text text-anchor="start" x="8" y="-139.5" font-family="Helvetica,sans-Serif" font-size="10.00">+ mapped_vector_of_mapped</text>
<text text-anchor="start" x="8" y="-128.5" font-family="Helvetica,sans-Serif" font-size="10.00">_vector()</text>
<text text-anchor="start" x="8" y="-117.5" font-family="Helvetica,sans-Serif" font-size="10.00">+ mapped_vector_of_mapped</text>
<text text-anchor="start" x="8" y="-106.5" font-family="Helvetica,sans-Serif" font-size="10.00">_vector()</text>
<text text-anchor="start" x="8" y="-95.5" font-family="Helvetica,sans-Serif" font-size="10.00">+ mapped_vector_of_mapped</text>
<text text-anchor="start" x="8" y="-84.5" font-family="Helvetica,sans-Serif" font-size="10.00">_vector()</text>
<text text-anchor="start" x="8" y="-73.5" font-family="Helvetica,sans-Serif" font-size="10.00">+ size1()</text>
<text text-anchor="start" x="8" y="-62.5" font-family="Helvetica,sans-Serif" font-size="10.00">+ size2()</text>
<text text-anchor="start" x="8" y="-51.5" font-family="Helvetica,sans-Serif" font-size="10.00">+ nnz_capacity()</text>
<text text-anchor="start" x="8" y="-40.5" font-family="Helvetica,sans-Serif" font-size="10.00">+ nnz()</text>
<text text-anchor="start" x="8" y="-29.5" font-family="Helvetica,sans-Serif" font-size="10.00">+ data()</text>
<text text-anchor="start" x="8" y="-18.5" font-family="Helvetica,sans-Serif" font-size="10.00">+ data()</text>
<text text-anchor="start" x="8" y="-7.5" font-family="Helvetica,sans-Serif" font-size="10.00">and 94 more...</text>
</a>
</g>
</g>
<!-- Node2 -->
<g id="node2" class="node">
<title>Node2</title>
<g id="a_node2"><a xlink:href="../../da/d15/classboost_1_1numeric_1_1ublas_1_1matrix__container.html" target="_top" xlink:title=" ">
<polygon fill="none" stroke="black" points="5,-270.5 5,-393.5 140,-393.5 140,-270.5 5,-270.5"/>
<text text-anchor="start" x="13" y="-381.5" font-family="Helvetica,sans-Serif" font-size="10.00">boost::numeric::ublas</text>
<text text-anchor="start" x="13" y="-370.5" font-family="Helvetica,sans-Serif" font-size="10.00">::matrix_container&lt; mapped</text>
<text text-anchor="start" x="13" y="-359.5" font-family="Helvetica,sans-Serif" font-size="10.00">_vector_of_mapped_vector</text>
<text text-anchor="middle" x="72.5" y="-348.5" font-family="Helvetica,sans-Serif" font-size="10.00">&lt; T, L, A &gt; &gt;</text>
<polyline fill="none" stroke="black" points="5,-341.5 140,-341.5 "/>
<text text-anchor="start" x="13" y="-329.5" font-family="Helvetica,sans-Serif" font-size="10.00">+ complexity</text>
<polyline fill="none" stroke="black" points="5,-322.5 140,-322.5 "/>
<text text-anchor="start" x="13" y="-310.5" font-family="Helvetica,sans-Serif" font-size="10.00">+ operator()()</text>
<text text-anchor="start" x="13" y="-299.5" font-family="Helvetica,sans-Serif" font-size="10.00">+ operator()()</text>
<text text-anchor="start" x="13" y="-288.5" font-family="Helvetica,sans-Serif" font-size="10.00">+ operator()()</text>
<text text-anchor="start" x="13" y="-277.5" font-family="Helvetica,sans-Serif" font-size="10.00">+ operator()()</text>
</a>
</g>
</g>
<!-- Node2&#45;&gt;Node1 -->
<g id="edge1" class="edge">
<title>Node2&#45;&gt;Node1</title>
<path fill="none" stroke="midnightblue" d="M66.1,-260.02C65.92,-251.48 65.82,-242.6 65.77,-233.62"/>
<polygon fill="none" stroke="midnightblue" points="62.6,-260.33 66.34,-270.25 69.6,-260.17 62.6,-260.33"/>
</g>
<!-- Node2&#45;&gt;Node1 -->
<g id="edge6" class="edge">
<title>Node2&#45;&gt;Node1</title>
<path fill="none" stroke="midnightblue" d="M78.9,-260.02C79.08,-251.48 79.18,-242.6 79.23,-233.62"/>
<polygon fill="none" stroke="midnightblue" points="75.4,-260.17 78.66,-270.25 82.4,-260.33 75.4,-260.17"/>
</g>
<!-- Node3 -->
<g id="node3" class="node">
<title>Node3</title>
<g id="a_node3"><a xlink:href="../../d9/da6/classboost_1_1numeric_1_1ublas_1_1matrix__expression.html" target="_top" xlink:title=" ">
<polygon fill="none" stroke="black" points="11.5,-430.5 11.5,-531.5 133.5,-531.5 133.5,-430.5 11.5,-430.5"/>
<text text-anchor="start" x="19.5" y="-519.5" font-family="Helvetica,sans-Serif" font-size="10.00">boost::numeric::ublas</text>
<text text-anchor="middle" x="72.5" y="-508.5" font-family="Helvetica,sans-Serif" font-size="10.00">::matrix_expression&lt; E &gt;</text>
<polyline fill="none" stroke="black" points="11.5,-501.5 133.5,-501.5 "/>
<text text-anchor="start" x="19.5" y="-489.5" font-family="Helvetica,sans-Serif" font-size="10.00">+ complexity</text>
<polyline fill="none" stroke="black" points="11.5,-482.5 133.5,-482.5 "/>
<text text-anchor="start" x="19.5" y="-470.5" font-family="Helvetica,sans-Serif" font-size="10.00">+ operator()()</text>
<text text-anchor="start" x="19.5" y="-459.5" font-family="Helvetica,sans-Serif" font-size="10.00">+ operator()()</text>
<text text-anchor="start" x="19.5" y="-448.5" font-family="Helvetica,sans-Serif" font-size="10.00">+ operator()()</text>
<text text-anchor="start" x="19.5" y="-437.5" font-family="Helvetica,sans-Serif" font-size="10.00">+ operator()()</text>
</a>
</g>
</g>
<!-- Node3&#45;&gt;Node2 -->
<g id="edge2" class="edge">
<title>Node3&#45;&gt;Node2</title>
<path fill="none" stroke="midnightblue" d="M65.85,-420.14C65.72,-411.41 65.72,-402.42 65.84,-393.67"/>
<polygon fill="none" stroke="midnightblue" points="62.36,-420.31 66.07,-430.23 69.36,-420.16 62.36,-420.31"/>
</g>
<!-- Node3&#45;&gt;Node2 -->
<g id="edge5" class="edge">
<title>Node3&#45;&gt;Node2</title>
<path fill="none" stroke="midnightblue" d="M79.15,-420.14C79.28,-411.41 79.28,-402.42 79.16,-393.67"/>
<polygon fill="none" stroke="midnightblue" points="75.64,-420.16 78.93,-430.23 82.64,-420.31 75.64,-420.16"/>
</g>
<!-- Node4 -->
<g id="node4" class="node">
<title>Node4</title>
<g id="a_node4"><a xlink:href="../../dd/db7/classboost_1_1numeric_1_1ublas_1_1ublas__expression.html" target="_top" xlink:title=" ">
<polygon fill="none" stroke="black" points="13,-568.5 13,-669.5 132,-669.5 132,-568.5 13,-568.5"/>
<text text-anchor="start" x="21" y="-657.5" font-family="Helvetica,sans-Serif" font-size="10.00">boost::numeric::ublas</text>
<text text-anchor="middle" x="72.5" y="-646.5" font-family="Helvetica,sans-Serif" font-size="10.00">::ublas_expression&lt; E &gt;</text>
<polyline fill="none" stroke="black" points="13,-639.5 132,-639.5 "/>
<text text-anchor="middle" x="72.5" y="-627.5" font-family="Helvetica,sans-Serif" font-size="10.00"> </text>
<polyline fill="none" stroke="black" points="13,-620.5 132,-620.5 "/>
<text text-anchor="start" x="21" y="-608.5" font-family="Helvetica,sans-Serif" font-size="10.00"># ublas_expression()</text>
<text text-anchor="start" x="21" y="-597.5" font-family="Helvetica,sans-Serif" font-size="10.00"># ~ublas_expression()</text>
<text text-anchor="start" x="21" y="-586.5" font-family="Helvetica,sans-Serif" font-size="10.00"># ublas_expression()</text>
<text text-anchor="start" x="21" y="-575.5" font-family="Helvetica,sans-Serif" font-size="10.00"># ~ublas_expression()</text>
</a>
</g>
</g>
<!-- Node4&#45;&gt;Node3 -->
<g id="edge3" class="edge">
<title>Node4&#45;&gt;Node3</title>
<path fill="none" stroke="midnightblue" d="M65.79,-558C65.7,-549.27 65.76,-540.36 65.97,-531.86"/>
<polygon fill="none" stroke="midnightblue" points="62.29,-558.19 65.97,-568.13 69.29,-558.07 62.29,-558.19"/>
</g>
<!-- Node4&#45;&gt;Node3 -->
<g id="edge4" class="edge">
<title>Node4&#45;&gt;Node3</title>
<path fill="none" stroke="midnightblue" d="M79.21,-558C79.3,-549.27 79.24,-540.36 79.03,-531.86"/>
<polygon fill="none" stroke="midnightblue" points="75.71,-558.07 79.03,-568.13 82.71,-558.19 75.71,-558.07"/>
</g>
</g>
</svg>
