<?xml version="1.0" encoding="UTF-8" standalone="no"?>
<!DOCTYPE svg PUBLIC "-//W3C//DTD SVG 1.1//EN"
 "http://www.w3.org/Graphics/SVG/1.1/DTD/svg11.dtd">
<!-- Generated by graphviz version 2.48.0 (20210719.0153)
 -->
<!-- Title: boost::numeric::ublas::triangular_adaptor&lt; M, TRI &gt;::const_iterator2 Pages: 1 -->
<!--zoomable 628 -->
<svg id="main" version="1.1" xmlns="http://www.w3.org/2000/svg" xmlns:xlink="http://www.w3.org/1999/xlink" xml:space="preserve" onload="init(evt)">
<style type="text/css"><![CDATA[
.edge:hover path { stroke: red; }
.edge:hover polygon { stroke: red; fill: red; }
]]></style>
<script type="text/javascript"><![CDATA[
var edges = document.getElementsByTagName('g');
if (edges && edges.length) {
  for (var i=0;i<edges.length;i++) {
    if (edges[i].id.substr(0,4)=='edge') {
      edges[i].setAttribute('class','edge');
    }
  }
}
]]></script>
        <defs>
                <circle id="rim" cx="0" cy="0" r="7"/>
                <circle id="rim2" cx="0" cy="0" r="3.5"/>
                <g id="zoomPlus">
                        <use xlink:href="#rim" fill="#404040">
                                <set attributeName="fill" to="#808080" begin="zoomplus.mouseover" end="zoomplus.mouseout"/>
                        </use>
                        <path d="M-4,0h8M0,-4v8" fill="none" stroke="white" stroke-width="1.5" pointer-events="none"/>
                </g>
                <g id="zoomMin">
                        <use xlink:href="#rim" fill="#404040">
                                <set attributeName="fill" to="#808080" begin="zoomminus.mouseover" end="zoomminus.mouseout"/>
                        </use>
                        <path d="M-4,0h8" fill="none" stroke="white" stroke-width="1.5" pointer-events="none"/>
                </g>
                <g id="dirArrow">
                        <path fill="none" stroke="white" stroke-width="1.5" d="M0,-3.0v7 M-2.5,-0.5L0,-3.0L2.5,-0.5"/>
                </g>
               <g id="resetDef">
                       <use xlink:href="#rim2" fill="#404040">
                               <set attributeName="fill" to="#808080" begin="reset.mouseover" end="reset.mouseout"/>
                       </use>
               </g>
        </defs>

<script type="text/javascript">
var viewWidth = 338;
var viewHeight = 628;
var sectionId = 'dynsection-0';
</script>
<script xlink:href="../../svgpan.js"/>
<svg id="graph" class="graph">
<g id="viewport">
<title>boost::numeric::ublas::triangular_adaptor&lt; M, TRI &gt;::const_iterator2</title>
<!-- Node1 -->
<g id="node1" class="node">
<title>Node1</title>
<g id="a_node1"><a xlink:title=" ">
<polygon fill="#bfbfbf" stroke="black" points="93.5,-0.5 93.5,-189.5 224.5,-189.5 224.5,-0.5 93.5,-0.5"/>
<text text-anchor="start" x="101.5" y="-177.5" font-family="Helvetica,sans-Serif" font-size="10.00">boost::numeric::ublas</text>
<text text-anchor="start" x="101.5" y="-166.5" font-family="Helvetica,sans-Serif" font-size="10.00">::triangular_adaptor</text>
<text text-anchor="middle" x="159" y="-155.5" font-family="Helvetica,sans-Serif" font-size="10.00">&lt; M, TRI &gt;::const_iterator2</text>
<polyline fill="none" stroke="black" points="93.5,-148.5 224.5,-148.5 "/>
<text text-anchor="middle" x="159" y="-136.5" font-family="Helvetica,sans-Serif" font-size="10.00"> </text>
<polyline fill="none" stroke="black" points="93.5,-129.5 224.5,-129.5 "/>
<text text-anchor="start" x="101.5" y="-117.5" font-family="Helvetica,sans-Serif" font-size="10.00">+ const_iterator2()</text>
<text text-anchor="start" x="101.5" y="-106.5" font-family="Helvetica,sans-Serif" font-size="10.00">+ const_iterator2()</text>
<text text-anchor="start" x="101.5" y="-95.5" font-family="Helvetica,sans-Serif" font-size="10.00">+ const_iterator2()</text>
<text text-anchor="start" x="101.5" y="-84.5" font-family="Helvetica,sans-Serif" font-size="10.00">+ operator++()</text>
<text text-anchor="start" x="101.5" y="-73.5" font-family="Helvetica,sans-Serif" font-size="10.00">+ operator&#45;&#45;()</text>
<text text-anchor="start" x="101.5" y="-62.5" font-family="Helvetica,sans-Serif" font-size="10.00">+ operator+=()</text>
<text text-anchor="start" x="101.5" y="-51.5" font-family="Helvetica,sans-Serif" font-size="10.00">+ operator&#45;=()</text>
<text text-anchor="start" x="101.5" y="-40.5" font-family="Helvetica,sans-Serif" font-size="10.00">+ operator&#45;()</text>
<text text-anchor="start" x="101.5" y="-29.5" font-family="Helvetica,sans-Serif" font-size="10.00">+ operator*()</text>
<text text-anchor="start" x="101.5" y="-18.5" font-family="Helvetica,sans-Serif" font-size="10.00">+ begin()</text>
<text text-anchor="start" x="101.5" y="-7.5" font-family="Helvetica,sans-Serif" font-size="10.00">and 26 more...</text>
</a>
</g>
</g>
<!-- Node2 -->
<g id="node2" class="node">
<title>Node2</title>
<g id="a_node2"><a xlink:href="../../dc/d2f/classboost_1_1numeric_1_1ublas_1_1container__const__reference.html" target="_top" xlink:title=" ">
<polygon fill="none" stroke="black" points="0,-259.5 0,-437.5 146,-437.5 146,-259.5 0,-259.5"/>
<text text-anchor="start" x="8" y="-425.5" font-family="Helvetica,sans-Serif" font-size="10.00">boost::numeric::ublas</text>
<text text-anchor="start" x="8" y="-414.5" font-family="Helvetica,sans-Serif" font-size="10.00">::container_const_reference</text>
<text text-anchor="middle" x="73" y="-403.5" font-family="Helvetica,sans-Serif" font-size="10.00">&lt; triangular_adaptor &gt;</text>
<polyline fill="none" stroke="black" points="0,-396.5 146,-396.5 "/>
<text text-anchor="middle" x="73" y="-384.5" font-family="Helvetica,sans-Serif" font-size="10.00"> </text>
<polyline fill="none" stroke="black" points="0,-377.5 146,-377.5 "/>
<text text-anchor="start" x="8" y="-365.5" font-family="Helvetica,sans-Serif" font-size="10.00">+ container_const_reference()</text>
<text text-anchor="start" x="8" y="-354.5" font-family="Helvetica,sans-Serif" font-size="10.00">+ container_const_reference()</text>
<text text-anchor="start" x="8" y="-343.5" font-family="Helvetica,sans-Serif" font-size="10.00">+ container_const_reference()</text>
<text text-anchor="start" x="8" y="-332.5" font-family="Helvetica,sans-Serif" font-size="10.00">+ container_const_reference()</text>
<text text-anchor="start" x="8" y="-321.5" font-family="Helvetica,sans-Serif" font-size="10.00">+ operator()()</text>
<text text-anchor="start" x="8" y="-310.5" font-family="Helvetica,sans-Serif" font-size="10.00">+ operator()()</text>
<text text-anchor="start" x="8" y="-299.5" font-family="Helvetica,sans-Serif" font-size="10.00">+ assign()</text>
<text text-anchor="start" x="8" y="-288.5" font-family="Helvetica,sans-Serif" font-size="10.00">+ assign()</text>
<text text-anchor="start" x="8" y="-277.5" font-family="Helvetica,sans-Serif" font-size="10.00">+ same_closure()</text>
<text text-anchor="start" x="8" y="-266.5" font-family="Helvetica,sans-Serif" font-size="10.00">+ same_closure()</text>
</a>
</g>
</g>
<!-- Node2&#45;&gt;Node1 -->
<g id="edge1" class="edge">
<title>Node2&#45;&gt;Node1</title>
<path fill="none" stroke="midnightblue" d="M99.88,-249.59C106.4,-229.89 113.49,-209.21 120.42,-189.65"/>
<polygon fill="none" stroke="midnightblue" points="96.52,-248.59 96.72,-259.18 103.17,-250.78 96.52,-248.59"/>
</g>
<!-- Node2&#45;&gt;Node1 -->
<g id="edge7" class="edge">
<title>Node2&#45;&gt;Node1</title>
<path fill="none" stroke="midnightblue" d="M113.08,-249.59C120.03,-229.89 127.09,-209.21 133.53,-189.65"/>
<polygon fill="none" stroke="midnightblue" points="109.72,-248.59 109.68,-259.18 116.32,-250.93 109.72,-248.59"/>
</g>
<!-- Node3 -->
<g id="node3" class="node">
<title>Node3</title>
<g id="a_node3"><a xlink:href="../../d2/dbf/classboost_1_1numeric_1_1ublas_1_1nonassignable___1_1nonassignable.html" target="_top" xlink:title=" ">
<polygon fill="none" stroke="black" points="24,-518.5 24,-608.5 122,-608.5 122,-518.5 24,-518.5"/>
<text text-anchor="middle" x="73" y="-596.5" font-family="Helvetica,sans-Serif" font-size="10.00">nonassignable</text>
<polyline fill="none" stroke="black" points="24,-589.5 122,-589.5 "/>
<text text-anchor="middle" x="73" y="-577.5" font-family="Helvetica,sans-Serif" font-size="10.00"> </text>
<polyline fill="none" stroke="black" points="24,-570.5 122,-570.5 "/>
<text text-anchor="start" x="32" y="-558.5" font-family="Helvetica,sans-Serif" font-size="10.00"># nonassignable()</text>
<text text-anchor="start" x="32" y="-547.5" font-family="Helvetica,sans-Serif" font-size="10.00"># ~nonassignable()</text>
<text text-anchor="start" x="32" y="-536.5" font-family="Helvetica,sans-Serif" font-size="10.00"># nonassignable()</text>
<text text-anchor="start" x="32" y="-525.5" font-family="Helvetica,sans-Serif" font-size="10.00"># ~nonassignable()</text>
</a>
</g>
</g>
<!-- Node3&#45;&gt;Node2 -->
<g id="edge2" class="edge">
<title>Node3&#45;&gt;Node2</title>
<path fill="none" stroke="#8b1a1a" d="M67.03,-508.15C66.33,-486.68 66.1,-461.46 66.34,-437.52"/>
<polygon fill="none" stroke="#8b1a1a" points="63.54,-508.5 67.41,-518.37 70.53,-508.24 63.54,-508.5"/>
</g>
<!-- Node3&#45;&gt;Node2 -->
<g id="edge3" class="edge">
<title>Node3&#45;&gt;Node2</title>
<path fill="none" stroke="#8b1a1a" d="M78.97,-508.15C79.67,-486.68 79.9,-461.46 79.66,-437.52"/>
<polygon fill="none" stroke="#8b1a1a" points="75.47,-508.24 78.59,-518.37 82.46,-508.5 75.47,-508.24"/>
</g>
<!-- Node4 -->
<g id="node4" class="node">
<title>Node4</title>
<g id="a_node4"><a xlink:href="../../df/d38/structboost_1_1numeric_1_1ublas_1_1random__access__iterator__base.html" target="_top" xlink:title=" ">
<polygon fill="none" stroke="black" points="164.5,-226.5 164.5,-470.5 325.5,-470.5 325.5,-226.5 164.5,-226.5"/>
<text text-anchor="start" x="172.5" y="-458.5" font-family="Helvetica,sans-Serif" font-size="10.00">boost::numeric::ublas</text>
<text text-anchor="start" x="172.5" y="-447.5" font-family="Helvetica,sans-Serif" font-size="10.00">::random_access_iterator</text>
<text text-anchor="start" x="172.5" y="-436.5" font-family="Helvetica,sans-Serif" font-size="10.00">_base&lt; iterator_restrict</text>
<text text-anchor="start" x="172.5" y="-425.5" font-family="Helvetica,sans-Serif" font-size="10.00">_traits&lt; const_subiterator1</text>
<text text-anchor="start" x="172.5" y="-414.5" font-family="Helvetica,sans-Serif" font-size="10.00">_type::iterator_category, packed</text>
<text text-anchor="start" x="172.5" y="-403.5" font-family="Helvetica,sans-Serif" font-size="10.00">_random_access_iterator_tag &gt;::</text>
<text text-anchor="start" x="172.5" y="-392.5" font-family="Helvetica,sans-Serif" font-size="10.00">iterator_category, const_iterator2,</text>
<text text-anchor="middle" x="245" y="-381.5" font-family="Helvetica,sans-Serif" font-size="10.00"> value_type &gt;</text>
<polyline fill="none" stroke="black" points="164.5,-374.5 325.5,-374.5 "/>
<text text-anchor="middle" x="245" y="-362.5" font-family="Helvetica,sans-Serif" font-size="10.00"> </text>
<polyline fill="none" stroke="black" points="164.5,-355.5 325.5,-355.5 "/>
<text text-anchor="start" x="172.5" y="-343.5" font-family="Helvetica,sans-Serif" font-size="10.00">+ operator++()</text>
<text text-anchor="start" x="172.5" y="-332.5" font-family="Helvetica,sans-Serif" font-size="10.00">+ operator++()</text>
<text text-anchor="start" x="172.5" y="-321.5" font-family="Helvetica,sans-Serif" font-size="10.00">+ operator&#45;&#45;()</text>
<text text-anchor="start" x="172.5" y="-310.5" font-family="Helvetica,sans-Serif" font-size="10.00">+ operator&#45;&#45;()</text>
<text text-anchor="start" x="172.5" y="-299.5" font-family="Helvetica,sans-Serif" font-size="10.00">+ operator+()</text>
<text text-anchor="start" x="172.5" y="-288.5" font-family="Helvetica,sans-Serif" font-size="10.00">+ operator+()</text>
<text text-anchor="start" x="172.5" y="-277.5" font-family="Helvetica,sans-Serif" font-size="10.00">+ operator&#45;()</text>
<text text-anchor="start" x="172.5" y="-266.5" font-family="Helvetica,sans-Serif" font-size="10.00">+ operator&#45;()</text>
<text text-anchor="start" x="172.5" y="-255.5" font-family="Helvetica,sans-Serif" font-size="10.00">+ operator!=()</text>
<text text-anchor="start" x="172.5" y="-244.5" font-family="Helvetica,sans-Serif" font-size="10.00">+ operator!=()</text>
<text text-anchor="start" x="172.5" y="-233.5" font-family="Helvetica,sans-Serif" font-size="10.00">and 6 more...</text>
</a>
</g>
</g>
<!-- Node4&#45;&gt;Node1 -->
<g id="edge4" class="edge">
<title>Node4&#45;&gt;Node1</title>
<path fill="none" stroke="midnightblue" d="M193.51,-216.65C190.4,-207.51 187.36,-198.41 184.44,-189.54"/>
<polygon fill="none" stroke="midnightblue" points="190.22,-217.84 196.77,-226.17 196.84,-215.58 190.22,-217.84"/>
</g>
<!-- Node4&#45;&gt;Node1 -->
<g id="edge8" class="edge">
<title>Node4&#45;&gt;Node1</title>
<path fill="none" stroke="midnightblue" d="M207,-216.65C203.86,-207.51 200.68,-198.41 197.54,-189.54"/>
<polygon fill="none" stroke="midnightblue" points="203.71,-217.84 210.26,-226.17 210.33,-215.58 203.71,-217.84"/>
</g>
<!-- Node5 -->
<g id="node5" class="node">
<title>Node5</title>
<g id="a_node5"><a xlink:title=" ">
<polygon fill="none" stroke="#bfbfbf" points="160,-507.5 160,-619.5 330,-619.5 330,-507.5 160,-507.5"/>
<text text-anchor="start" x="168" y="-607.5" font-family="Helvetica,sans-Serif" font-size="10.00">std::iterator&lt; iterator</text>
<text text-anchor="start" x="168" y="-596.5" font-family="Helvetica,sans-Serif" font-size="10.00">_restrict_traits&lt; const</text>
<text text-anchor="start" x="168" y="-585.5" font-family="Helvetica,sans-Serif" font-size="10.00">_subiterator1_type::iterator</text>
<text text-anchor="start" x="168" y="-574.5" font-family="Helvetica,sans-Serif" font-size="10.00">_category, packed_random_access</text>
<text text-anchor="start" x="168" y="-563.5" font-family="Helvetica,sans-Serif" font-size="10.00">_iterator_tag &gt;::iterator_category,</text>
<text text-anchor="middle" x="245" y="-552.5" font-family="Helvetica,sans-Serif" font-size="10.00"> value_type &gt;</text>
<polyline fill="none" stroke="#bfbfbf" points="160,-545.5 330,-545.5 "/>
<text text-anchor="middle" x="245" y="-533.5" font-family="Helvetica,sans-Serif" font-size="10.00"> </text>
<polyline fill="none" stroke="#bfbfbf" points="160,-526.5 330,-526.5 "/>
<text text-anchor="middle" x="245" y="-514.5" font-family="Helvetica,sans-Serif" font-size="10.00"> </text>
</a>
</g>
</g>
<!-- Node5&#45;&gt;Node4 -->
<g id="edge5" class="edge">
<title>Node5&#45;&gt;Node4</title>
<path fill="none" stroke="midnightblue" d="M238.72,-497.19C238.52,-488.65 238.38,-479.7 238.31,-470.6"/>
<polygon fill="none" stroke="midnightblue" points="235.23,-497.47 239,-507.37 242.22,-497.28 235.23,-497.47"/>
</g>
<!-- Node5&#45;&gt;Node4 -->
<g id="edge6" class="edge">
<title>Node5&#45;&gt;Node4</title>
<path fill="none" stroke="midnightblue" d="M251.28,-497.19C251.48,-488.65 251.62,-479.7 251.69,-470.6"/>
<polygon fill="none" stroke="midnightblue" points="247.78,-497.28 251,-507.37 254.77,-497.47 247.78,-497.28"/>
</g>
</g>
</svg>
        <g id="navigator" transform="translate(0 0)" fill="#404254">
                <rect fill="#f2f5e9" fill-opacity="0.5" stroke="#606060" stroke-width=".5" x="0" y="0" width="60" height="60"/>
                <use id="zoomplus" xlink:href="#zoomPlus" x="17" y="9" onmousedown="handleZoom(evt,'in')"/>
                <use id="zoomminus" xlink:href="#zoomMin" x="42" y="9" onmousedown="handleZoom(evt,'out')"/>
                <use id="reset" xlink:href="#resetDef" x="30" y="36" onmousedown="handleReset()"/>
                <g id="arrowUp" xlink:href="#dirArrow" transform="translate(30 24)" onmousedown="handlePan(0,-1)">
                  <use xlink:href="#rim" fill="#404040">
                        <set attributeName="fill" to="#808080" begin="arrowUp.mouseover" end="arrowUp.mouseout"/>
                  </use>
                  <path fill="none" stroke="white" stroke-width="1.5" d="M0,-3.0v7 M-2.5,-0.5L0,-3.0L2.5,-0.5"/>
                </g>
                <g id="arrowRight" xlink:href="#dirArrow" transform="rotate(90) translate(36 -43)" onmousedown="handlePan(1,0)">
                  <use xlink:href="#rim" fill="#404040">
                        <set attributeName="fill" to="#808080" begin="arrowRight.mouseover" end="arrowRight.mouseout"/>
                  </use>
                  <path fill="none" stroke="white" stroke-width="1.5" d="M0,-3.0v7 M-2.5,-0.5L0,-3.0L2.5,-0.5"/>
                </g>
                <g id="arrowDown" xlink:href="#dirArrow" transform="rotate(180) translate(-30 -48)" onmousedown="handlePan(0,1)">
                  <use xlink:href="#rim" fill="#404040">
                        <set attributeName="fill" to="#808080" begin="arrowDown.mouseover" end="arrowDown.mouseout"/>
                  </use>
                  <path fill="none" stroke="white" stroke-width="1.5" d="M0,-3.0v7 M-2.5,-0.5L0,-3.0L2.5,-0.5"/>
                </g>
                <g id="arrowLeft" xlink:href="#dirArrow" transform="rotate(270) translate(-36 17)" onmousedown="handlePan(-1,0)">
                  <use xlink:href="#rim" fill="#404040">
                        <set attributeName="fill" to="#808080" begin="arrowLeft.mouseover" end="arrowLeft.mouseout"/>
                  </use>
                  <path fill="none" stroke="white" stroke-width="1.5" d="M0,-3.0v7 M-2.5,-0.5L0,-3.0L2.5,-0.5"/>
                </g>
        </g>
        <svg viewBox="0 0 15 15" width="100%" height="30px" preserveAspectRatio="xMaxYMin meet">
         <g id="arrow_out" transform="scale(0.3 0.3)">
          <a xlink:href="classboost_1_1numeric_1_1ublas_1_1triangular__adaptor_1_1const__iterator2__inherit__graph_org.svg" target="_base">
           <rect id="button" ry="5" rx="5" y="6" x="6" height="38" width="38"
                fill="#f2f5e9" fill-opacity="0.5" stroke="#606060" stroke-width="1.0"/>
           <path id="arrow"
             d="M 11.500037,31.436501 C 11.940474,20.09759 22.043105,11.32322 32.158766,21.979434 L 37.068811,17.246167 C 37.068811,17.246167 37.088388,32 37.088388,32 L 22.160133,31.978069 C 22.160133,31.978069 26.997745,27.140456 26.997745,27.140456 C 18.528582,18.264221 13.291696,25.230495 11.500037,31.436501 z"
             style="fill:#404040;"/>
          </a>
         </g>
        </svg>
</svg>
