<?xml version="1.0" encoding="UTF-8" standalone="no"?>
<!DOCTYPE svg PUBLIC "-//W3C//DTD SVG 1.1//EN"
 "http://www.w3.org/Graphics/SVG/1.1/DTD/svg11.dtd">
<!-- Generated by graphviz version 2.48.0 (20210719.0153)
 -->
<!-- Title: /github/workspace/kratos/integration/hexahedra_gaussian_integration_points.h Pages: 1 -->
<svg width="1575pt" height="384pt"
 viewBox="0.00 0.00 1574.50 384.00" xmlns="http://www.w3.org/2000/svg" xmlns:xlink="http://www.w3.org/1999/xlink">
<g id="graph0" class="graph" transform="scale(1 1) rotate(0) translate(4 380)">
<title>/github/workspace/kratos/integration/hexahedra_gaussian_integration_points.h</title>
<!-- Node1 -->
<g id="node1" class="node">
<title>Node1</title>
<g id="a_node1"><a xlink:title=" ">
<polygon fill="#bfbfbf" stroke="black" points="390.5,-334.5 390.5,-375.5 540.5,-375.5 540.5,-334.5 390.5,-334.5"/>
<text text-anchor="start" x="398.5" y="-363.5" font-family="Helvetica,sans-Serif" font-size="10.00">/github/workspace/kratos</text>
<text text-anchor="start" x="398.5" y="-352.5" font-family="Helvetica,sans-Serif" font-size="10.00">/integration/hexahedra</text>
<text text-anchor="middle" x="465.5" y="-341.5" font-family="Helvetica,sans-Serif" font-size="10.00">_gaussian_integration_points.h</text>
</a>
</g>
</g>
<!-- Node2 -->
<g id="node2" class="node">
<title>Node2</title>
<g id="a_node2"><a xlink:href="../../d7/db8/hexahedra__3d__20_8h.html" target="_top" xlink:title=" ">
<polygon fill="none" stroke="black" points="110.5,-267.5 110.5,-297.5 264.5,-297.5 264.5,-267.5 110.5,-267.5"/>
<text text-anchor="start" x="118.5" y="-285.5" font-family="Helvetica,sans-Serif" font-size="10.00">/github/workspace/kratos</text>
<text text-anchor="middle" x="187.5" y="-274.5" font-family="Helvetica,sans-Serif" font-size="10.00">/geometries/hexahedra_3d_20.h</text>
</a>
</g>
</g>
<!-- Node1&#45;&gt;Node2 -->
<g id="edge1" class="edge">
<title>Node1&#45;&gt;Node2</title>
<path fill="none" stroke="midnightblue" d="M380.3,-332.39C335.64,-321.07 282.21,-307.52 242.94,-297.56"/>
<polygon fill="midnightblue" stroke="midnightblue" points="379.72,-335.86 390.27,-334.92 381.44,-329.07 379.72,-335.86"/>
</g>
<!-- Node4 -->
<g id="node4" class="node">
<title>Node4</title>
<g id="a_node4"><a xlink:href="../../df/da9/hexahedra__3d__27_8h.html" target="_top" xlink:title=" ">
<polygon fill="none" stroke="black" points="303.5,-267.5 303.5,-297.5 457.5,-297.5 457.5,-267.5 303.5,-267.5"/>
<text text-anchor="start" x="311.5" y="-285.5" font-family="Helvetica,sans-Serif" font-size="10.00">/github/workspace/kratos</text>
<text text-anchor="middle" x="380.5" y="-274.5" font-family="Helvetica,sans-Serif" font-size="10.00">/geometries/hexahedra_3d_27.h</text>
</a>
</g>
</g>
<!-- Node1&#45;&gt;Node4 -->
<g id="edge3" class="edge">
<title>Node1&#45;&gt;Node4</title>
<path fill="none" stroke="midnightblue" d="M433.96,-327.84C421.64,-317.62 408,-306.31 397.58,-297.67"/>
<polygon fill="midnightblue" stroke="midnightblue" points="431.89,-330.67 441.82,-334.36 436.36,-325.28 431.89,-330.67"/>
</g>
<!-- Node5 -->
<g id="node5" class="node">
<title>Node5</title>
<g id="a_node5"><a xlink:href="../../d3/dca/hexahedra__3d__8_8h.html" target="_top" xlink:title=" ">
<polygon fill="none" stroke="black" points="487,-267.5 487,-297.5 636,-297.5 636,-267.5 487,-267.5"/>
<text text-anchor="start" x="495" y="-285.5" font-family="Helvetica,sans-Serif" font-size="10.00">/github/workspace/kratos</text>
<text text-anchor="middle" x="561.5" y="-274.5" font-family="Helvetica,sans-Serif" font-size="10.00">/geometries/hexahedra_3d_8.h</text>
</a>
</g>
</g>
<!-- Node1&#45;&gt;Node5 -->
<g id="edge5" class="edge">
<title>Node1&#45;&gt;Node5</title>
<path fill="none" stroke="midnightblue" d="M500.32,-328.43C514.44,-318.06 530.21,-306.48 542.2,-297.67"/>
<polygon fill="midnightblue" stroke="midnightblue" points="498.23,-325.62 492.24,-334.36 502.37,-331.26 498.23,-325.62"/>
</g>
<!-- Node16 -->
<g id="node16" class="node">
<title>Node16</title>
<g id="a_node16"><a xlink:href="../../dd/d3d/integration__rules_8cpp.html" target="_top" xlink:title=" ">
<polygon fill="none" stroke="black" points="654.5,-267.5 654.5,-297.5 800.5,-297.5 800.5,-267.5 654.5,-267.5"/>
<text text-anchor="start" x="662.5" y="-285.5" font-family="Helvetica,sans-Serif" font-size="10.00">/github/workspace/kratos</text>
<text text-anchor="middle" x="727.5" y="-274.5" font-family="Helvetica,sans-Serif" font-size="10.00">/sources/integration_rules.cpp</text>
</a>
</g>
</g>
<!-- Node1&#45;&gt;Node16 -->
<g id="edge20" class="edge">
<title>Node1&#45;&gt;Node16</title>
<path fill="none" stroke="midnightblue" d="M547.98,-331.81C589.57,-320.62 638.75,-307.38 675.11,-297.6"/>
<polygon fill="midnightblue" stroke="midnightblue" points="546.88,-328.48 538.13,-334.46 548.7,-335.24 546.88,-328.48"/>
</g>
<!-- Node3 -->
<g id="node3" class="node">
<title>Node3</title>
<g id="a_node3"><a xlink:href="../../dc/d93/structural__application_8cpp.html" target="_top" xlink:title=" ">
<polygon fill="none" stroke="black" points="0,-184 0,-225 155,-225 155,-184 0,-184"/>
<text text-anchor="start" x="8" y="-213" font-family="Helvetica,sans-Serif" font-size="10.00">/github/workspace/applications</text>
<text text-anchor="start" x="8" y="-202" font-family="Helvetica,sans-Serif" font-size="10.00">/structural_application/structural</text>
<text text-anchor="middle" x="77.5" y="-191" font-family="Helvetica,sans-Serif" font-size="10.00">_application.cpp</text>
</a>
</g>
</g>
<!-- Node2&#45;&gt;Node3 -->
<g id="edge2" class="edge">
<title>Node2&#45;&gt;Node3</title>
<path fill="none" stroke="midnightblue" d="M158.53,-261.48C142.34,-250.3 122.25,-236.41 106.12,-225.27"/>
<polygon fill="midnightblue" stroke="midnightblue" points="156.85,-264.58 167.07,-267.38 160.83,-258.82 156.85,-264.58"/>
</g>
<!-- Node4&#45;&gt;Node3 -->
<g id="edge4" class="edge">
<title>Node4&#45;&gt;Node3</title>
<path fill="none" stroke="midnightblue" d="M305.82,-265.27C263.84,-255.87 210.58,-243.45 163.5,-231 156.57,-229.17 149.36,-227.17 142.19,-225.13"/>
<polygon fill="midnightblue" stroke="midnightblue" points="305.16,-268.71 315.68,-267.48 306.69,-261.88 305.16,-268.71"/>
</g>
<!-- Node5&#45;&gt;Node3 -->
<g id="edge19" class="edge">
<title>Node5&#45;&gt;Node3</title>
<path fill="none" stroke="midnightblue" d="M476.9,-268.44C473.39,-267.94 469.91,-267.46 466.5,-267 332.12,-248.77 296.32,-258.37 163.5,-231 155.42,-229.33 146.99,-227.26 138.72,-225.03"/>
<polygon fill="midnightblue" stroke="midnightblue" points="476.46,-271.91 486.86,-269.87 477.45,-264.98 476.46,-271.91"/>
</g>
<!-- Node6 -->
<g id="node6" class="node">
<title>Node6</title>
<g id="a_node6"><a xlink:href="../../db/dc2/unsaturated__soils__element__2phase_8cpp.html" target="_top" xlink:title=" ">
<polygon fill="none" stroke="black" points="173,-178.5 173,-230.5 354,-230.5 354,-178.5 173,-178.5"/>
<text text-anchor="start" x="181" y="-218.5" font-family="Helvetica,sans-Serif" font-size="10.00">/github/workspace/applications</text>
<text text-anchor="start" x="181" y="-207.5" font-family="Helvetica,sans-Serif" font-size="10.00">/structural_application/custom</text>
<text text-anchor="start" x="181" y="-196.5" font-family="Helvetica,sans-Serif" font-size="10.00">_elements/unsaturated_soils_element</text>
<text text-anchor="middle" x="263.5" y="-185.5" font-family="Helvetica,sans-Serif" font-size="10.00">_2phase.cpp</text>
</a>
</g>
</g>
<!-- Node5&#45;&gt;Node6 -->
<g id="edge6" class="edge">
<title>Node5&#45;&gt;Node6</title>
<path fill="none" stroke="midnightblue" d="M495.62,-264.84C456.85,-255.03 406.88,-242.35 362.5,-231 359.75,-230.3 356.95,-229.58 354.13,-228.86"/>
<polygon fill="midnightblue" stroke="midnightblue" points="495.18,-268.34 505.73,-267.4 496.9,-261.56 495.18,-268.34"/>
</g>
<!-- Node7 -->
<g id="node7" class="node">
<title>Node7</title>
<g id="a_node7"><a xlink:href="../../d8/da8/unsaturated__soils__element__2phase__small__strain_8cpp.html" target="_top" xlink:title=" ">
<polygon fill="none" stroke="black" points="372,-178.5 372,-230.5 553,-230.5 553,-178.5 372,-178.5"/>
<text text-anchor="start" x="380" y="-218.5" font-family="Helvetica,sans-Serif" font-size="10.00">/github/workspace/applications</text>
<text text-anchor="start" x="380" y="-207.5" font-family="Helvetica,sans-Serif" font-size="10.00">/structural_application/custom</text>
<text text-anchor="start" x="380" y="-196.5" font-family="Helvetica,sans-Serif" font-size="10.00">_elements/unsaturated_soils_element</text>
<text text-anchor="middle" x="462.5" y="-185.5" font-family="Helvetica,sans-Serif" font-size="10.00">_2phase_small_strain.cpp</text>
</a>
</g>
</g>
<!-- Node5&#45;&gt;Node7 -->
<g id="edge7" class="edge">
<title>Node5&#45;&gt;Node7</title>
<path fill="none" stroke="midnightblue" d="M534.83,-261.03C522.59,-251.63 507.96,-240.4 495.07,-230.5"/>
<polygon fill="midnightblue" stroke="midnightblue" points="532.82,-263.89 542.88,-267.2 537.08,-258.34 532.82,-263.89"/>
</g>
<!-- Node8 -->
<g id="node8" class="node">
<title>Node8</title>
<g id="a_node8"><a xlink:href="../../dc/d7c/unsaturated__soils__element__3phase_8cpp.html" target="_top" xlink:title=" ">
<polygon fill="none" stroke="black" points="571,-178.5 571,-230.5 752,-230.5 752,-178.5 571,-178.5"/>
<text text-anchor="start" x="579" y="-218.5" font-family="Helvetica,sans-Serif" font-size="10.00">/github/workspace/applications</text>
<text text-anchor="start" x="579" y="-207.5" font-family="Helvetica,sans-Serif" font-size="10.00">/structural_application/custom</text>
<text text-anchor="start" x="579" y="-196.5" font-family="Helvetica,sans-Serif" font-size="10.00">_elements/unsaturated_soils_element</text>
<text text-anchor="middle" x="661.5" y="-185.5" font-family="Helvetica,sans-Serif" font-size="10.00">_3phase.cpp</text>
</a>
</g>
</g>
<!-- Node5&#45;&gt;Node8 -->
<g id="edge8" class="edge">
<title>Node5&#45;&gt;Node8</title>
<path fill="none" stroke="midnightblue" d="M588.43,-261.03C600.8,-251.63 615.58,-240.4 628.6,-230.5"/>
<polygon fill="midnightblue" stroke="midnightblue" points="586.15,-258.37 580.31,-267.2 590.39,-263.94 586.15,-258.37"/>
</g>
<!-- Node9 -->
<g id="node9" class="node">
<title>Node9</title>
<g id="a_node9"><a xlink:href="../../dc/dc6/unsaturated__soils__element__3phase__small__strain_8cpp.html" target="_top" xlink:title=" ">
<polygon fill="none" stroke="black" points="770,-178.5 770,-230.5 951,-230.5 951,-178.5 770,-178.5"/>
<text text-anchor="start" x="778" y="-218.5" font-family="Helvetica,sans-Serif" font-size="10.00">/github/workspace/applications</text>
<text text-anchor="start" x="778" y="-207.5" font-family="Helvetica,sans-Serif" font-size="10.00">/structural_application/custom</text>
<text text-anchor="start" x="778" y="-196.5" font-family="Helvetica,sans-Serif" font-size="10.00">_elements/unsaturated_soils_element</text>
<text text-anchor="middle" x="860.5" y="-185.5" font-family="Helvetica,sans-Serif" font-size="10.00">_3phase_small_strain.cpp</text>
</a>
</g>
</g>
<!-- Node5&#45;&gt;Node9 -->
<g id="edge9" class="edge">
<title>Node5&#45;&gt;Node9</title>
<path fill="none" stroke="midnightblue" d="M626.96,-264.91C665.78,-255.07 715.95,-242.33 760.5,-231 763.54,-230.23 766.63,-229.44 769.75,-228.65"/>
<polygon fill="midnightblue" stroke="midnightblue" points="625.67,-261.63 616.83,-267.48 627.39,-268.41 625.67,-261.63"/>
</g>
<!-- Node10 -->
<g id="node10" class="node">
<title>Node10</title>
<g id="a_node10"><a xlink:href="../../d5/df9/parallel__variable__transfer__utility_8h.html" target="_top" xlink:title=" ">
<polygon fill="none" stroke="black" points="969,-178.5 969,-230.5 1120,-230.5 1120,-178.5 969,-178.5"/>
<text text-anchor="start" x="977" y="-218.5" font-family="Helvetica,sans-Serif" font-size="10.00">/github/workspace/applications</text>
<text text-anchor="start" x="977" y="-207.5" font-family="Helvetica,sans-Serif" font-size="10.00">/structural_application/custom</text>
<text text-anchor="start" x="977" y="-196.5" font-family="Helvetica,sans-Serif" font-size="10.00">_utilities/parallel_variable</text>
<text text-anchor="middle" x="1044.5" y="-185.5" font-family="Helvetica,sans-Serif" font-size="10.00">_transfer_utility.h</text>
</a>
</g>
</g>
<!-- Node5&#45;&gt;Node10 -->
<g id="edge10" class="edge">
<title>Node5&#45;&gt;Node10</title>
<path fill="none" stroke="midnightblue" d="M646.38,-266.95C786.35,-247.6 825.13,-258.63 959.5,-231 962.52,-230.38 965.58,-229.7 968.67,-228.98"/>
<polygon fill="midnightblue" stroke="midnightblue" points="645.53,-263.53 636.12,-268.39 646.51,-270.46 645.53,-263.53"/>
</g>
<!-- Node11 -->
<g id="node11" class="node">
<title>Node11</title>
<g id="a_node11"><a xlink:href="../../df/d49/restart__utility_8h.html" target="_top" xlink:title=" ">
<polygon fill="none" stroke="black" points="1138,-184 1138,-225 1289,-225 1289,-184 1138,-184"/>
<text text-anchor="start" x="1146" y="-213" font-family="Helvetica,sans-Serif" font-size="10.00">/github/workspace/applications</text>
<text text-anchor="start" x="1146" y="-202" font-family="Helvetica,sans-Serif" font-size="10.00">/structural_application/custom</text>
<text text-anchor="middle" x="1213.5" y="-191" font-family="Helvetica,sans-Serif" font-size="10.00">_utilities/restart_utility.h</text>
</a>
</g>
</g>
<!-- Node5&#45;&gt;Node11 -->
<g id="edge11" class="edge">
<title>Node5&#45;&gt;Node11</title>
<path fill="none" stroke="midnightblue" d="M646.12,-267.02C860.93,-241.54 920.03,-269.57 1128.5,-231 1136.83,-229.46 1145.51,-227.4 1153.99,-225.12"/>
<polygon fill="midnightblue" stroke="midnightblue" points="645.61,-263.56 636.1,-268.24 646.45,-270.51 645.61,-263.56"/>
</g>
<!-- Node14 -->
<g id="node14" class="node">
<title>Node14</title>
<g id="a_node14"><a xlink:href="../../d7/df7/variable__transfer__utility_8h.html" target="_top" xlink:title=" ">
<polygon fill="none" stroke="black" points="1307,-178.5 1307,-230.5 1458,-230.5 1458,-178.5 1307,-178.5"/>
<text text-anchor="start" x="1315" y="-218.5" font-family="Helvetica,sans-Serif" font-size="10.00">/github/workspace/applications</text>
<text text-anchor="start" x="1315" y="-207.5" font-family="Helvetica,sans-Serif" font-size="10.00">/structural_application/custom</text>
<text text-anchor="start" x="1315" y="-196.5" font-family="Helvetica,sans-Serif" font-size="10.00">_utilities/variable_transfer</text>
<text text-anchor="middle" x="1382.5" y="-185.5" font-family="Helvetica,sans-Serif" font-size="10.00">_utility.h</text>
</a>
</g>
</g>
<!-- Node5&#45;&gt;Node14 -->
<g id="edge14" class="edge">
<title>Node5&#45;&gt;Node14</title>
<path fill="none" stroke="midnightblue" d="M646.04,-267.05C935.64,-235.3 1014.84,-280.48 1297.5,-231 1300.54,-230.47 1303.61,-229.86 1306.71,-229.2"/>
<polygon fill="midnightblue" stroke="midnightblue" points="645.64,-263.57 636.09,-268.16 646.42,-270.53 645.64,-263.57"/>
</g>
<!-- Node12 -->
<g id="node12" class="node">
<title>Node12</title>
<g id="a_node12"><a xlink:href="../../dd/dee/structural__application_2custom__python_2add__custom__utilities__to__python_8cpp.html" target="_top" xlink:title=" ">
<polygon fill="none" stroke="black" points="1307,-0.5 1307,-52.5 1458,-52.5 1458,-0.5 1307,-0.5"/>
<text text-anchor="start" x="1315" y="-40.5" font-family="Helvetica,sans-Serif" font-size="10.00">/github/workspace/applications</text>
<text text-anchor="start" x="1315" y="-29.5" font-family="Helvetica,sans-Serif" font-size="10.00">/structural_application/custom</text>
<text text-anchor="start" x="1315" y="-18.5" font-family="Helvetica,sans-Serif" font-size="10.00">_python/add_custom_utilities</text>
<text text-anchor="middle" x="1382.5" y="-7.5" font-family="Helvetica,sans-Serif" font-size="10.00">_to_python.cpp</text>
</a>
</g>
</g>
<!-- Node11&#45;&gt;Node12 -->
<g id="edge12" class="edge">
<title>Node11&#45;&gt;Node12</title>
<path fill="none" stroke="midnightblue" d="M1197.32,-174.37C1185.89,-149.46 1175.49,-113.79 1193.5,-89 1219.35,-53.4 1266.33,-38.01 1306.99,-31.52"/>
<polygon fill="midnightblue" stroke="midnightblue" points="1194.33,-176.23 1201.87,-183.68 1200.62,-173.16 1194.33,-176.23"/>
</g>
<!-- Node13 -->
<g id="node13" class="node">
<title>Node13</title>
<g id="a_node13"><a xlink:href="../../d9/d93/structural__application_2custom__python_2add__custom__utilities__to__python_8h.html" target="_top" xlink:title=" ">
<polygon fill="none" stroke="black" points="1203,-89.5 1203,-141.5 1354,-141.5 1354,-89.5 1203,-89.5"/>
<text text-anchor="start" x="1211" y="-129.5" font-family="Helvetica,sans-Serif" font-size="10.00">/github/workspace/applications</text>
<text text-anchor="start" x="1211" y="-118.5" font-family="Helvetica,sans-Serif" font-size="10.00">/structural_application/custom</text>
<text text-anchor="start" x="1211" y="-107.5" font-family="Helvetica,sans-Serif" font-size="10.00">_python/add_custom_utilities</text>
<text text-anchor="middle" x="1278.5" y="-96.5" font-family="Helvetica,sans-Serif" font-size="10.00">_to_python.h</text>
</a>
</g>
</g>
<!-- Node11&#45;&gt;Node13 -->
<g id="edge13" class="edge">
<title>Node11&#45;&gt;Node13</title>
<path fill="none" stroke="midnightblue" d="M1234.45,-175.45C1242.54,-164.63 1251.73,-152.34 1259.61,-141.79"/>
<polygon fill="midnightblue" stroke="midnightblue" points="1231.43,-173.65 1228.25,-183.76 1237.04,-177.84 1231.43,-173.65"/>
</g>
<!-- Node14&#45;&gt;Node12 -->
<g id="edge15" class="edge">
<title>Node14&#45;&gt;Node12</title>
<path fill="none" stroke="midnightblue" d="M1382.5,-168.25C1382.5,-134.04 1382.5,-82.97 1382.5,-52.67"/>
<polygon fill="midnightblue" stroke="midnightblue" points="1379,-168.28 1382.5,-178.28 1386,-168.28 1379,-168.28"/>
</g>
<!-- Node14&#45;&gt;Node13 -->
<g id="edge16" class="edge">
<title>Node14&#45;&gt;Node13</title>
<path fill="none" stroke="midnightblue" d="M1344.43,-171.65C1332.59,-161.75 1319.72,-150.98 1308.51,-141.61"/>
<polygon fill="midnightblue" stroke="midnightblue" points="1342.5,-174.6 1352.42,-178.34 1346.99,-169.24 1342.5,-174.6"/>
</g>
<!-- Node15 -->
<g id="node15" class="node">
<title>Node15</title>
<g id="a_node15"><a xlink:href="../../d7/d0e/node__snapping__utility_8h.html" target="_top" xlink:title=" ">
<polygon fill="none" stroke="black" points="1410.5,-95 1410.5,-136 1566.5,-136 1566.5,-95 1410.5,-95"/>
<text text-anchor="start" x="1418.5" y="-124" font-family="Helvetica,sans-Serif" font-size="10.00">/github/workspace/applications</text>
<text text-anchor="start" x="1418.5" y="-113" font-family="Helvetica,sans-Serif" font-size="10.00">/structural_application/custom</text>
<text text-anchor="middle" x="1488.5" y="-102" font-family="Helvetica,sans-Serif" font-size="10.00">_utilities/node_snapping_utility.h</text>
</a>
</g>
</g>
<!-- Node14&#45;&gt;Node15 -->
<g id="edge17" class="edge">
<title>Node14&#45;&gt;Node15</title>
<path fill="none" stroke="midnightblue" d="M1421.07,-171.85C1435.64,-159.88 1451.8,-146.62 1464.64,-136.08"/>
<polygon fill="midnightblue" stroke="midnightblue" points="1418.67,-169.29 1413.16,-178.34 1423.11,-174.7 1418.67,-169.29"/>
</g>
<!-- Node15&#45;&gt;Node12 -->
<g id="edge18" class="edge">
<title>Node15&#45;&gt;Node12</title>
<path fill="none" stroke="midnightblue" d="M1456.86,-88.53C1443,-77.15 1426.8,-63.86 1413.06,-52.58"/>
<polygon fill="midnightblue" stroke="midnightblue" points="1454.76,-91.34 1464.71,-94.98 1459.2,-85.93 1454.76,-91.34"/>
</g>
</g>
</svg>
