<?xml version="1.0" encoding="UTF-8" standalone="no"?>
<!DOCTYPE svg PUBLIC "-//W3C//DTD SVG 1.1//EN"
 "http://www.w3.org/Graphics/SVG/1.1/DTD/svg11.dtd">
<!-- Generated by graphviz version 2.48.0 (20210719.0153)
 -->
<!-- Title: /github/workspace/kratos/integration/tetrahedra_gaussian_integration_points.h Pages: 1 -->
<!--zoomable 395 -->
<svg id="main" version="1.1" xmlns="http://www.w3.org/2000/svg" xmlns:xlink="http://www.w3.org/1999/xlink" xml:space="preserve" onload="init(evt)">
<style type="text/css"><![CDATA[
.edge:hover path { stroke: red; }
.edge:hover polygon { stroke: red; fill: red; }
]]></style>
<script type="text/javascript"><![CDATA[
var edges = document.getElementsByTagName('g');
if (edges && edges.length) {
  for (var i=0;i<edges.length;i++) {
    if (edges[i].id.substr(0,4)=='edge') {
      edges[i].setAttribute('class','edge');
    }
  }
}
]]></script>
        <defs>
                <circle id="rim" cx="0" cy="0" r="7"/>
                <circle id="rim2" cx="0" cy="0" r="3.5"/>
                <g id="zoomPlus">
                        <use xlink:href="#rim" fill="#404040">
                                <set attributeName="fill" to="#808080" begin="zoomplus.mouseover" end="zoomplus.mouseout"/>
                        </use>
                        <path d="M-4,0h8M0,-4v8" fill="none" stroke="white" stroke-width="1.5" pointer-events="none"/>
                </g>
                <g id="zoomMin">
                        <use xlink:href="#rim" fill="#404040">
                                <set attributeName="fill" to="#808080" begin="zoomminus.mouseover" end="zoomminus.mouseout"/>
                        </use>
                        <path d="M-4,0h8" fill="none" stroke="white" stroke-width="1.5" pointer-events="none"/>
                </g>
                <g id="dirArrow">
                        <path fill="none" stroke="white" stroke-width="1.5" d="M0,-3.0v7 M-2.5,-0.5L0,-3.0L2.5,-0.5"/>
                </g>
               <g id="resetDef">
                       <use xlink:href="#rim2" fill="#404040">
                               <set attributeName="fill" to="#808080" begin="reset.mouseover" end="reset.mouseout"/>
                       </use>
               </g>
        </defs>

<script type="text/javascript">
var viewWidth = 4391;
var viewHeight = 395;
var sectionId = 'dynsection-1';
</script>
<script xlink:href="../../svgpan.js"/>
<svg id="graph" class="graph">
<g id="viewport">
<title>/github/workspace/kratos/integration/tetrahedra_gaussian_integration_points.h</title>
<!-- Node1 -->
<g id="node1" class="node">
<title>Node1</title>
<g id="a_node1"><a xlink:title=" ">
<polygon fill="#bfbfbf" stroke="black" points="2011.5,-345.5 2011.5,-386.5 2161.5,-386.5 2161.5,-345.5 2011.5,-345.5"/>
<text text-anchor="start" x="2019.5" y="-374.5" font-family="Helvetica,sans-Serif" font-size="10.00">/github/workspace/kratos</text>
<text text-anchor="start" x="2019.5" y="-363.5" font-family="Helvetica,sans-Serif" font-size="10.00">/integration/tetrahedra</text>
<text text-anchor="middle" x="2086.5" y="-352.5" font-family="Helvetica,sans-Serif" font-size="10.00">_gaussian_integration_points.h</text>
</a>
</g>
</g>
<!-- Node2 -->
<g id="node2" class="node">
<title>Node2</title>
<g id="a_node2"><a xlink:href="../../de/dca/tetrahedra__3d__10_8h.html" target="_top" xlink:title=" ">
<polygon fill="none" stroke="black" points="941.5,-267.5 941.5,-308.5 1067.5,-308.5 1067.5,-267.5 941.5,-267.5"/>
<text text-anchor="start" x="949.5" y="-296.5" font-family="Helvetica,sans-Serif" font-size="10.00">/github/workspace/kratos</text>
<text text-anchor="start" x="949.5" y="-285.5" font-family="Helvetica,sans-Serif" font-size="10.00">/geometries/tetrahedra</text>
<text text-anchor="middle" x="1004.5" y="-274.5" font-family="Helvetica,sans-Serif" font-size="10.00">_3d_10.h</text>
</a>
</g>
</g>
<!-- Node1&#45;&gt;Node2 -->
<g id="edge1" class="edge">
<title>Node1&#45;&gt;Node2</title>
<path fill="none" stroke="midnightblue" d="M2001.22,-359.01C1791.18,-344.26 1252.55,-306.42 1067.81,-293.45"/>
<polygon fill="midnightblue" stroke="midnightblue" points="2001.05,-362.51 2011.27,-359.72 2001.54,-355.52 2001.05,-362.51"/>
</g>
<!-- Node4 -->
<g id="node4" class="node">
<title>Node4</title>
<g id="a_node4"><a xlink:href="../../da/d60/tetrahedra__3d__4_8h.html" target="_top" xlink:title=" ">
<polygon fill="none" stroke="black" points="2012.5,-273 2012.5,-303 2160.5,-303 2160.5,-273 2012.5,-273"/>
<text text-anchor="start" x="2020.5" y="-291" font-family="Helvetica,sans-Serif" font-size="10.00">/github/workspace/kratos</text>
<text text-anchor="middle" x="2086.5" y="-280" font-family="Helvetica,sans-Serif" font-size="10.00">/geometries/tetrahedra_3d_4.h</text>
</a>
</g>
</g>
<!-- Node1&#45;&gt;Node4 -->
<g id="edge3" class="edge">
<title>Node1&#45;&gt;Node4</title>
<path fill="none" stroke="midnightblue" d="M2086.5,-335.28C2086.5,-324.25 2086.5,-312.25 2086.5,-303.23"/>
<polygon fill="midnightblue" stroke="midnightblue" points="2083,-335.43 2086.5,-345.43 2090,-335.43 2083,-335.43"/>
</g>
<!-- Node38 -->
<g id="node38" class="node">
<title>Node38</title>
<g id="a_node38"><a xlink:href="../../dd/d3d/integration__rules_8cpp.html" target="_top" xlink:title=" ">
<polygon fill="none" stroke="black" points="2178.5,-273 2178.5,-303 2324.5,-303 2324.5,-273 2178.5,-273"/>
<text text-anchor="start" x="2186.5" y="-291" font-family="Helvetica,sans-Serif" font-size="10.00">/github/workspace/kratos</text>
<text text-anchor="middle" x="2251.5" y="-280" font-family="Helvetica,sans-Serif" font-size="10.00">/sources/integration_rules.cpp</text>
</a>
</g>
</g>
<!-- Node1&#45;&gt;Node38 -->
<g id="edge43" class="edge">
<title>Node1&#45;&gt;Node38</title>
<path fill="none" stroke="midnightblue" d="M2138.35,-341.12C2165.47,-328.63 2197.75,-313.76 2220.87,-303.11"/>
<polygon fill="midnightblue" stroke="midnightblue" points="2136.61,-338.07 2128.99,-345.43 2139.54,-344.42 2136.61,-338.07"/>
</g>
<!-- Node3 -->
<g id="node3" class="node">
<title>Node3</title>
<g id="a_node3"><a xlink:href="../../dc/d93/structural__application_8cpp.html" target="_top" xlink:title=" ">
<polygon fill="none" stroke="black" points="0,-184 0,-225 155,-225 155,-184 0,-184"/>
<text text-anchor="start" x="8" y="-213" font-family="Helvetica,sans-Serif" font-size="10.00">/github/workspace/applications</text>
<text text-anchor="start" x="8" y="-202" font-family="Helvetica,sans-Serif" font-size="10.00">/structural_application/structural</text>
<text text-anchor="middle" x="77.5" y="-191" font-family="Helvetica,sans-Serif" font-size="10.00">_application.cpp</text>
</a>
</g>
</g>
<!-- Node2&#45;&gt;Node3 -->
<g id="edge2" class="edge">
<title>Node2&#45;&gt;Node3</title>
<path fill="none" stroke="midnightblue" d="M931.27,-287.47C784.57,-287.23 444.68,-280.78 164.5,-231 155.82,-229.46 146.78,-227.37 137.94,-225.05"/>
<polygon fill="midnightblue" stroke="midnightblue" points="931.5,-290.97 941.5,-287.47 931.5,-283.97 931.5,-290.97"/>
</g>
<!-- Node4&#45;&gt;Node3 -->
<g id="edge38" class="edge">
<title>Node4&#45;&gt;Node3</title>
<path fill="none" stroke="midnightblue" d="M2002.22,-285.15C1643.3,-277.17 256.3,-245.54 164.5,-231 155.48,-229.57 146.09,-227.48 136.95,-225.1"/>
<polygon fill="midnightblue" stroke="midnightblue" points="2002.21,-288.65 2012.28,-285.37 2002.36,-281.65 2002.21,-288.65"/>
</g>
<!-- Node5 -->
<g id="node5" class="node">
<title>Node5</title>
<g id="a_node5"><a xlink:href="../../dc/dd2/ale__application_8cpp.html" target="_top" xlink:title=" ">
<polygon fill="none" stroke="black" points="173.5,-189.5 173.5,-219.5 343.5,-219.5 343.5,-189.5 173.5,-189.5"/>
<text text-anchor="start" x="181.5" y="-207.5" font-family="Helvetica,sans-Serif" font-size="10.00">/github/workspace/applications</text>
<text text-anchor="middle" x="258.5" y="-196.5" font-family="Helvetica,sans-Serif" font-size="10.00">/ALEapplication/ale_application.cpp</text>
</a>
</g>
</g>
<!-- Node4&#45;&gt;Node5 -->
<g id="edge4" class="edge">
<title>Node4&#45;&gt;Node5</title>
<path fill="none" stroke="midnightblue" d="M2002.11,-285.43C1677.08,-279.21 516.19,-255.5 352.5,-231 335.78,-228.5 317.78,-224.06 302.05,-219.58"/>
<polygon fill="midnightblue" stroke="midnightblue" points="2002.34,-288.93 2012.4,-285.62 2002.47,-281.93 2002.34,-288.93"/>
</g>
<!-- Node6 -->
<g id="node6" class="node">
<title>Node6</title>
<g id="a_node6"><a xlink:href="../../db/d5a/convection__diffusion__application_8cpp.html" target="_top" xlink:title=" ">
<polygon fill="none" stroke="black" points="361.5,-184 361.5,-225 539.5,-225 539.5,-184 361.5,-184"/>
<text text-anchor="start" x="369.5" y="-213" font-family="Helvetica,sans-Serif" font-size="10.00">/github/workspace/applications</text>
<text text-anchor="start" x="369.5" y="-202" font-family="Helvetica,sans-Serif" font-size="10.00">/convection_diffusion_application</text>
<text text-anchor="middle" x="450.5" y="-191" font-family="Helvetica,sans-Serif" font-size="10.00">/convection_diffusion_application.cpp</text>
</a>
</g>
</g>
<!-- Node4&#45;&gt;Node6 -->
<g id="edge5" class="edge">
<title>Node4&#45;&gt;Node6</title>
<path fill="none" stroke="midnightblue" d="M2001.99,-286.38C1722.8,-283.94 831.62,-272.99 547.5,-231 537.51,-229.52 527.07,-227.41 516.89,-225.02"/>
<polygon fill="midnightblue" stroke="midnightblue" points="2002.03,-289.88 2012.06,-286.47 2002.09,-282.88 2002.03,-289.88"/>
</g>
<!-- Node7 -->
<g id="node7" class="node">
<title>Node7</title>
<g id="a_node7"><a xlink:href="../../d7/d10/face__heat__utilities_8h.html" target="_top" xlink:title=" ">
<polygon fill="none" stroke="black" points="557,-184 557,-225 734,-225 734,-184 557,-184"/>
<text text-anchor="start" x="565" y="-213" font-family="Helvetica,sans-Serif" font-size="10.00">/github/workspace/applications</text>
<text text-anchor="start" x="565" y="-202" font-family="Helvetica,sans-Serif" font-size="10.00">/convection_diffusion_application</text>
<text text-anchor="middle" x="645.5" y="-191" font-family="Helvetica,sans-Serif" font-size="10.00">/custom_utilities/face_heat_utilities.h</text>
</a>
</g>
</g>
<!-- Node4&#45;&gt;Node7 -->
<g id="edge6" class="edge">
<title>Node4&#45;&gt;Node7</title>
<path fill="none" stroke="midnightblue" d="M2002.06,-285.86C1747.02,-282.04 987.08,-267.8 742.5,-231 732.6,-229.51 722.25,-227.4 712.16,-225.03"/>
<polygon fill="midnightblue" stroke="midnightblue" points="2002.32,-289.36 2012.37,-286.01 2002.43,-282.37 2002.32,-289.36"/>
</g>
<!-- Node9 -->
<g id="node9" class="node">
<title>Node9</title>
<g id="a_node9"><a xlink:href="../../d5/de1/incompressible__fluid__application_8cpp.html" target="_top" xlink:title=" ">
<polygon fill="none" stroke="black" points="752,-184 752,-225 929,-225 929,-184 752,-184"/>
<text text-anchor="start" x="760" y="-213" font-family="Helvetica,sans-Serif" font-size="10.00">/github/workspace/applications</text>
<text text-anchor="start" x="760" y="-202" font-family="Helvetica,sans-Serif" font-size="10.00">/incompressible_fluid_application</text>
<text text-anchor="middle" x="840.5" y="-191" font-family="Helvetica,sans-Serif" font-size="10.00">/incompressible_fluid_application.cpp</text>
</a>
</g>
</g>
<!-- Node4&#45;&gt;Node9 -->
<g id="edge8" class="edge">
<title>Node4&#45;&gt;Node9</title>
<path fill="none" stroke="midnightblue" d="M2001.96,-285.13C1772.86,-279.71 1143.57,-262.34 938.5,-231 928.59,-229.49 918.24,-227.38 908.13,-225.03"/>
<polygon fill="midnightblue" stroke="midnightblue" points="2002.16,-288.64 2012.24,-285.37 2002.32,-281.64 2002.16,-288.64"/>
</g>
<!-- Node10 -->
<g id="node10" class="node">
<title>Node10</title>
<g id="a_node10"><a xlink:href="../../d8/d45/_generate_model_part_utilities_8h.html" target="_top" xlink:title=" ">
<polygon fill="none" stroke="black" points="947.5,-184 947.5,-225 1127.5,-225 1127.5,-184 947.5,-184"/>
<text text-anchor="start" x="955.5" y="-213" font-family="Helvetica,sans-Serif" font-size="10.00">/github/workspace/applications</text>
<text text-anchor="start" x="955.5" y="-202" font-family="Helvetica,sans-Serif" font-size="10.00">/MeshingApplication/custom</text>
<text text-anchor="middle" x="1037.5" y="-191" font-family="Helvetica,sans-Serif" font-size="10.00">_utilities/GenerateModelPartUtilities.h</text>
</a>
</g>
</g>
<!-- Node4&#45;&gt;Node10 -->
<g id="edge9" class="edge">
<title>Node4&#45;&gt;Node10</title>
<path fill="none" stroke="midnightblue" d="M2002.2,-287.47C1835.69,-287.21 1453.26,-280.65 1136.5,-231 1126.68,-229.46 1116.42,-227.37 1106.38,-225.05"/>
<polygon fill="midnightblue" stroke="midnightblue" points="2002.37,-290.97 2012.38,-287.48 2002.38,-283.97 2002.37,-290.97"/>
</g>
<!-- Node12 -->
<g id="node12" class="node">
<title>Node12</title>
<g id="a_node12"><a xlink:href="../../d1/d67/tetgen__mesh__suite__optimized_8h.html" target="_top" xlink:title=" ">
<polygon fill="none" stroke="black" points="1146,-178.5 1146,-230.5 1297,-230.5 1297,-178.5 1146,-178.5"/>
<text text-anchor="start" x="1154" y="-218.5" font-family="Helvetica,sans-Serif" font-size="10.00">/github/workspace/applications</text>
<text text-anchor="start" x="1154" y="-207.5" font-family="Helvetica,sans-Serif" font-size="10.00">/MeshingApplication/external</text>
<text text-anchor="start" x="1154" y="-196.5" font-family="Helvetica,sans-Serif" font-size="10.00">_includes/tetgen_mesh_suite</text>
<text text-anchor="middle" x="1221.5" y="-185.5" font-family="Helvetica,sans-Serif" font-size="10.00">_optimized.h</text>
</a>
</g>
</g>
<!-- Node4&#45;&gt;Node12 -->
<g id="edge11" class="edge">
<title>Node4&#45;&gt;Node12</title>
<path fill="none" stroke="midnightblue" d="M2002.22,-287.09C1858.19,-285.87 1555.96,-277.39 1305.5,-231 1302.8,-230.5 1300.07,-229.94 1297.32,-229.34"/>
<polygon fill="midnightblue" stroke="midnightblue" points="2002.29,-290.59 2012.32,-287.16 2002.34,-283.59 2002.29,-290.59"/>
</g>
<!-- Node14 -->
<g id="node14" class="node">
<title>Node14</title>
<g id="a_node14"><a xlink:href="../../da/dcb/tetgen__mesh__suite__refine_8h.html" target="_top" xlink:title=" ">
<polygon fill="none" stroke="black" points="1315,-178.5 1315,-230.5 1466,-230.5 1466,-178.5 1315,-178.5"/>
<text text-anchor="start" x="1323" y="-218.5" font-family="Helvetica,sans-Serif" font-size="10.00">/github/workspace/applications</text>
<text text-anchor="start" x="1323" y="-207.5" font-family="Helvetica,sans-Serif" font-size="10.00">/MeshingApplication/external</text>
<text text-anchor="start" x="1323" y="-196.5" font-family="Helvetica,sans-Serif" font-size="10.00">_includes/tetgen_mesh_suite</text>
<text text-anchor="middle" x="1390.5" y="-185.5" font-family="Helvetica,sans-Serif" font-size="10.00">_refine.h</text>
</a>
</g>
</g>
<!-- Node4&#45;&gt;Node14 -->
<g id="edge13" class="edge">
<title>Node4&#45;&gt;Node14</title>
<path fill="none" stroke="midnightblue" d="M2002.22,-284.7C1883.5,-280.24 1660.7,-267.39 1474.5,-231 1471.81,-230.47 1469.08,-229.9 1466.33,-229.28"/>
<polygon fill="midnightblue" stroke="midnightblue" points="2002.21,-288.2 2012.33,-285.07 2002.47,-281.21 2002.21,-288.2"/>
</g>
<!-- Node15 -->
<g id="node15" class="node">
<title>Node15</title>
<g id="a_node15"><a xlink:href="../../d4/d8a/tetgen__pfem__refine_8h.html" target="_top" xlink:title=" ">
<polygon fill="none" stroke="black" points="1484,-184 1484,-225 1635,-225 1635,-184 1484,-184"/>
<text text-anchor="start" x="1492" y="-213" font-family="Helvetica,sans-Serif" font-size="10.00">/github/workspace/applications</text>
<text text-anchor="start" x="1492" y="-202" font-family="Helvetica,sans-Serif" font-size="10.00">/MeshingApplication/external</text>
<text text-anchor="middle" x="1559.5" y="-191" font-family="Helvetica,sans-Serif" font-size="10.00">_includes/tetgen_pfem_refine.h</text>
</a>
</g>
</g>
<!-- Node4&#45;&gt;Node15 -->
<g id="edge14" class="edge">
<title>Node4&#45;&gt;Node15</title>
<path fill="none" stroke="midnightblue" d="M2002.06,-280.6C1912.4,-272.81 1766.87,-257.33 1643.5,-231 1635.75,-229.35 1627.68,-227.31 1619.75,-225.12"/>
<polygon fill="midnightblue" stroke="midnightblue" points="2001.92,-284.1 2012.18,-281.47 2002.51,-277.13 2001.92,-284.1"/>
</g>
<!-- Node18 -->
<g id="node18" class="node">
<title>Node18</title>
<g id="a_node18"><a xlink:href="../../d8/d26/meshing__application_8cpp.html" target="_top" xlink:title=" ">
<polygon fill="none" stroke="black" points="1653,-184 1653,-225 1804,-225 1804,-184 1653,-184"/>
<text text-anchor="start" x="1661" y="-213" font-family="Helvetica,sans-Serif" font-size="10.00">/github/workspace/applications</text>
<text text-anchor="start" x="1661" y="-202" font-family="Helvetica,sans-Serif" font-size="10.00">/MeshingApplication/meshing</text>
<text text-anchor="middle" x="1728.5" y="-191" font-family="Helvetica,sans-Serif" font-size="10.00">_application.cpp</text>
</a>
</g>
</g>
<!-- Node4&#45;&gt;Node18 -->
<g id="edge18" class="edge">
<title>Node4&#45;&gt;Node18</title>
<path fill="none" stroke="midnightblue" d="M2002.32,-271.74C1948.13,-261.43 1876.33,-246.83 1813.5,-231 1806.33,-229.19 1798.86,-227.17 1791.45,-225.07"/>
<polygon fill="midnightblue" stroke="midnightblue" points="2001.75,-275.2 2012.23,-273.62 2003.05,-268.32 2001.75,-275.2"/>
</g>
<!-- Node19 -->
<g id="node19" class="node">
<title>Node19</title>
<g id="a_node19"><a xlink:href="../../dc/dad/lagrangian__fluid__utilities_8h.html" target="_top" xlink:title=" ">
<polygon fill="none" stroke="black" points="1822.5,-184 1822.5,-225 1986.5,-225 1986.5,-184 1822.5,-184"/>
<text text-anchor="start" x="1830.5" y="-213" font-family="Helvetica,sans-Serif" font-size="10.00">/github/workspace/applications</text>
<text text-anchor="start" x="1830.5" y="-202" font-family="Helvetica,sans-Serif" font-size="10.00">/PFEMapplication/custom_utilities</text>
<text text-anchor="middle" x="1904.5" y="-191" font-family="Helvetica,sans-Serif" font-size="10.00">/lagrangian_fluid_utilities.h</text>
</a>
</g>
</g>
<!-- Node4&#45;&gt;Node19 -->
<g id="edge19" class="edge">
<title>Node4&#45;&gt;Node19</title>
<path fill="none" stroke="midnightblue" d="M2045.8,-268.77C2016.83,-255.8 1977.95,-238.39 1948.31,-225.12"/>
<polygon fill="midnightblue" stroke="midnightblue" points="2044.66,-272.1 2055.21,-272.99 2047.52,-265.71 2044.66,-272.1"/>
</g>
<!-- Node20 -->
<g id="node20" class="node">
<title>Node20</title>
<g id="a_node20"><a xlink:href="../../de/da5/lagrangian__utilities_8h.html" target="_top" xlink:title=" ">
<polygon fill="none" stroke="black" points="2004.5,-184 2004.5,-225 2168.5,-225 2168.5,-184 2004.5,-184"/>
<text text-anchor="start" x="2012.5" y="-213" font-family="Helvetica,sans-Serif" font-size="10.00">/github/workspace/applications</text>
<text text-anchor="start" x="2012.5" y="-202" font-family="Helvetica,sans-Serif" font-size="10.00">/PFEMapplication/custom_utilities</text>
<text text-anchor="middle" x="2086.5" y="-191" font-family="Helvetica,sans-Serif" font-size="10.00">/lagrangian_utilities.h</text>
</a>
</g>
</g>
<!-- Node4&#45;&gt;Node20 -->
<g id="edge20" class="edge">
<title>Node4&#45;&gt;Node20</title>
<path fill="none" stroke="midnightblue" d="M2086.5,-262.57C2086.5,-250.56 2086.5,-236.29 2086.5,-225.03"/>
<polygon fill="midnightblue" stroke="midnightblue" points="2083,-262.8 2086.5,-272.8 2090,-262.8 2083,-262.8"/>
</g>
<!-- Node22 -->
<g id="node22" class="node">
<title>Node22</title>
<g id="a_node22"><a xlink:href="../../d0/d7e/_p_f_e_mapplication_2custom__utilities_2nist__utilities_8h.html" target="_top" xlink:title=" ">
<polygon fill="none" stroke="black" points="2186.5,-184 2186.5,-225 2350.5,-225 2350.5,-184 2186.5,-184"/>
<text text-anchor="start" x="2194.5" y="-213" font-family="Helvetica,sans-Serif" font-size="10.00">/github/workspace/applications</text>
<text text-anchor="start" x="2194.5" y="-202" font-family="Helvetica,sans-Serif" font-size="10.00">/PFEMapplication/custom_utilities</text>
<text text-anchor="middle" x="2268.5" y="-191" font-family="Helvetica,sans-Serif" font-size="10.00">/nist_utilities.h</text>
</a>
</g>
</g>
<!-- Node4&#45;&gt;Node22 -->
<g id="edge22" class="edge">
<title>Node4&#45;&gt;Node22</title>
<path fill="none" stroke="midnightblue" d="M2127.2,-268.77C2156.17,-255.8 2195.05,-238.39 2224.69,-225.12"/>
<polygon fill="midnightblue" stroke="midnightblue" points="2125.48,-265.71 2117.79,-272.99 2128.34,-272.1 2125.48,-265.71"/>
</g>
<!-- Node23 -->
<g id="node23" class="node">
<title>Node23</title>
<g id="a_node23"><a xlink:href="../../d4/dd5/pfem__utilities_8h.html" target="_top" xlink:title=" ">
<polygon fill="none" stroke="black" points="2368.5,-184 2368.5,-225 2532.5,-225 2532.5,-184 2368.5,-184"/>
<text text-anchor="start" x="2376.5" y="-213" font-family="Helvetica,sans-Serif" font-size="10.00">/github/workspace/applications</text>
<text text-anchor="start" x="2376.5" y="-202" font-family="Helvetica,sans-Serif" font-size="10.00">/PFEMapplication/custom_utilities</text>
<text text-anchor="middle" x="2450.5" y="-191" font-family="Helvetica,sans-Serif" font-size="10.00">/pfem_utilities.h</text>
</a>
</g>
</g>
<!-- Node4&#45;&gt;Node23 -->
<g id="edge23" class="edge">
<title>Node4&#45;&gt;Node23</title>
<path fill="none" stroke="midnightblue" d="M2153.08,-270.65C2158.63,-269.38 2164.16,-268.15 2169.5,-267 2253.53,-248.93 2275.82,-250.61 2359.5,-231 2367.17,-229.2 2375.16,-227.18 2383.08,-225.09"/>
<polygon fill="midnightblue" stroke="midnightblue" points="2152.07,-267.29 2143.12,-272.96 2153.65,-274.11 2152.07,-267.29"/>
</g>
<!-- Node24 -->
<g id="node24" class="node">
<title>Node24</title>
<g id="a_node24"><a xlink:href="../../db/dc2/unsaturated__soils__element__2phase_8cpp.html" target="_top" xlink:title=" ">
<polygon fill="none" stroke="black" points="2551,-178.5 2551,-230.5 2732,-230.5 2732,-178.5 2551,-178.5"/>
<text text-anchor="start" x="2559" y="-218.5" font-family="Helvetica,sans-Serif" font-size="10.00">/github/workspace/applications</text>
<text text-anchor="start" x="2559" y="-207.5" font-family="Helvetica,sans-Serif" font-size="10.00">/structural_application/custom</text>
<text text-anchor="start" x="2559" y="-196.5" font-family="Helvetica,sans-Serif" font-size="10.00">_elements/unsaturated_soils_element</text>
<text text-anchor="middle" x="2641.5" y="-185.5" font-family="Helvetica,sans-Serif" font-size="10.00">_2phase.cpp</text>
</a>
</g>
</g>
<!-- Node4&#45;&gt;Node24 -->
<g id="edge25" class="edge">
<title>Node4&#45;&gt;Node24</title>
<path fill="none" stroke="midnightblue" d="M2150.07,-270.73C2156.6,-269.34 2163.17,-268.06 2169.5,-267 2333.31,-239.48 2377.88,-259.61 2541.5,-231 2544.59,-230.46 2547.72,-229.87 2550.88,-229.25"/>
<polygon fill="midnightblue" stroke="midnightblue" points="2148.86,-267.41 2139.85,-272.98 2150.37,-274.24 2148.86,-267.41"/>
</g>
<!-- Node25 -->
<g id="node25" class="node">
<title>Node25</title>
<g id="a_node25"><a xlink:href="../../d8/da8/unsaturated__soils__element__2phase__small__strain_8cpp.html" target="_top" xlink:title=" ">
<polygon fill="none" stroke="black" points="2750,-178.5 2750,-230.5 2931,-230.5 2931,-178.5 2750,-178.5"/>
<text text-anchor="start" x="2758" y="-218.5" font-family="Helvetica,sans-Serif" font-size="10.00">/github/workspace/applications</text>
<text text-anchor="start" x="2758" y="-207.5" font-family="Helvetica,sans-Serif" font-size="10.00">/structural_application/custom</text>
<text text-anchor="start" x="2758" y="-196.5" font-family="Helvetica,sans-Serif" font-size="10.00">_elements/unsaturated_soils_element</text>
<text text-anchor="middle" x="2840.5" y="-185.5" font-family="Helvetica,sans-Serif" font-size="10.00">_2phase_small_strain.cpp</text>
</a>
</g>
</g>
<!-- Node4&#45;&gt;Node25 -->
<g id="edge26" class="edge">
<title>Node4&#45;&gt;Node25</title>
<path fill="none" stroke="midnightblue" d="M2148.95,-270.73C2155.85,-269.3 2162.8,-268.01 2169.5,-267 2420.94,-229.07 2489.32,-270.59 2740.5,-231 2743.6,-230.51 2746.74,-229.97 2749.9,-229.39"/>
<polygon fill="midnightblue" stroke="midnightblue" points="2147.94,-267.37 2138.92,-272.92 2149.43,-274.21 2147.94,-267.37"/>
</g>
<!-- Node26 -->
<g id="node26" class="node">
<title>Node26</title>
<g id="a_node26"><a xlink:href="../../dc/d7c/unsaturated__soils__element__3phase_8cpp.html" target="_top" xlink:title=" ">
<polygon fill="none" stroke="black" points="2949,-178.5 2949,-230.5 3130,-230.5 3130,-178.5 2949,-178.5"/>
<text text-anchor="start" x="2957" y="-218.5" font-family="Helvetica,sans-Serif" font-size="10.00">/github/workspace/applications</text>
<text text-anchor="start" x="2957" y="-207.5" font-family="Helvetica,sans-Serif" font-size="10.00">/structural_application/custom</text>
<text text-anchor="start" x="2957" y="-196.5" font-family="Helvetica,sans-Serif" font-size="10.00">_elements/unsaturated_soils_element</text>
<text text-anchor="middle" x="3039.5" y="-185.5" font-family="Helvetica,sans-Serif" font-size="10.00">_3phase.cpp</text>
</a>
</g>
</g>
<!-- Node4&#45;&gt;Node26 -->
<g id="edge27" class="edge">
<title>Node4&#45;&gt;Node26</title>
<path fill="none" stroke="midnightblue" d="M2147.83,-270.85C2155.1,-269.34 2162.44,-268.01 2169.5,-267 2508.67,-218.65 2600.66,-281.59 2939.5,-231 2942.6,-230.54 2945.75,-230.02 2948.91,-229.45"/>
<polygon fill="midnightblue" stroke="midnightblue" points="2147.03,-267.44 2138.01,-272.99 2148.53,-274.28 2147.03,-267.44"/>
</g>
<!-- Node27 -->
<g id="node27" class="node">
<title>Node27</title>
<g id="a_node27"><a xlink:href="../../dc/dc6/unsaturated__soils__element__3phase__small__strain_8cpp.html" target="_top" xlink:title=" ">
<polygon fill="none" stroke="black" points="3148,-178.5 3148,-230.5 3329,-230.5 3329,-178.5 3148,-178.5"/>
<text text-anchor="start" x="3156" y="-218.5" font-family="Helvetica,sans-Serif" font-size="10.00">/github/workspace/applications</text>
<text text-anchor="start" x="3156" y="-207.5" font-family="Helvetica,sans-Serif" font-size="10.00">/structural_application/custom</text>
<text text-anchor="start" x="3156" y="-196.5" font-family="Helvetica,sans-Serif" font-size="10.00">_elements/unsaturated_soils_element</text>
<text text-anchor="middle" x="3238.5" y="-185.5" font-family="Helvetica,sans-Serif" font-size="10.00">_3phase_small_strain.cpp</text>
</a>
</g>
</g>
<!-- Node4&#45;&gt;Node27 -->
<g id="edge28" class="edge">
<title>Node4&#45;&gt;Node27</title>
<path fill="none" stroke="midnightblue" d="M2147.83,-270.78C2155.09,-269.29 2162.43,-267.97 2169.5,-267 2596.44,-208.23 2711.96,-292.59 3138.5,-231 3141.6,-230.55 3144.75,-230.05 3147.92,-229.49"/>
<polygon fill="midnightblue" stroke="midnightblue" points="2147.03,-267.37 2138,-272.91 2148.51,-274.21 2147.03,-267.37"/>
</g>
<!-- Node28 -->
<g id="node28" class="node">
<title>Node28</title>
<g id="a_node28"><a xlink:href="../../d5/df9/parallel__variable__transfer__utility_8h.html" target="_top" xlink:title=" ">
<polygon fill="none" stroke="black" points="3347,-178.5 3347,-230.5 3498,-230.5 3498,-178.5 3347,-178.5"/>
<text text-anchor="start" x="3355" y="-218.5" font-family="Helvetica,sans-Serif" font-size="10.00">/github/workspace/applications</text>
<text text-anchor="start" x="3355" y="-207.5" font-family="Helvetica,sans-Serif" font-size="10.00">/structural_application/custom</text>
<text text-anchor="start" x="3355" y="-196.5" font-family="Helvetica,sans-Serif" font-size="10.00">_utilities/parallel_variable</text>
<text text-anchor="middle" x="3422.5" y="-185.5" font-family="Helvetica,sans-Serif" font-size="10.00">_transfer_utility.h</text>
</a>
</g>
</g>
<!-- Node4&#45;&gt;Node28 -->
<g id="edge29" class="edge">
<title>Node4&#45;&gt;Node28</title>
<path fill="none" stroke="midnightblue" d="M2147.51,-270.8C2154.88,-269.29 2162.33,-267.96 2169.5,-267 2684.23,-197.8 2824.87,-314.32 3337.5,-231 3340.54,-230.51 3343.63,-229.93 3346.73,-229.3"/>
<polygon fill="midnightblue" stroke="midnightblue" points="2146.58,-267.42 2137.55,-272.96 2148.06,-274.26 2146.58,-267.42"/>
</g>
<!-- Node29 -->
<g id="node29" class="node">
<title>Node29</title>
<g id="a_node29"><a xlink:href="../../df/d49/restart__utility_8h.html" target="_top" xlink:title=" ">
<polygon fill="none" stroke="black" points="3516,-184 3516,-225 3667,-225 3667,-184 3516,-184"/>
<text text-anchor="start" x="3524" y="-213" font-family="Helvetica,sans-Serif" font-size="10.00">/github/workspace/applications</text>
<text text-anchor="start" x="3524" y="-202" font-family="Helvetica,sans-Serif" font-size="10.00">/structural_application/custom</text>
<text text-anchor="middle" x="3591.5" y="-191" font-family="Helvetica,sans-Serif" font-size="10.00">_utilities/restart_utility.h</text>
</a>
</g>
</g>
<!-- Node4&#45;&gt;Node29 -->
<g id="edge30" class="edge">
<title>Node4&#45;&gt;Node29</title>
<path fill="none" stroke="midnightblue" d="M2147.5,-270.77C2154.87,-269.26 2162.33,-267.95 2169.5,-267 2758.79,-188.95 2919.58,-325.23 3506.5,-231 3515.48,-229.56 3524.83,-227.43 3533.91,-225"/>
<polygon fill="midnightblue" stroke="midnightblue" points="2146.58,-267.39 2137.54,-272.93 2148.06,-274.23 2146.58,-267.39"/>
</g>
<!-- Node32 -->
<g id="node32" class="node">
<title>Node32</title>
<g id="a_node32"><a xlink:href="../../d7/df7/variable__transfer__utility_8h.html" target="_top" xlink:title=" ">
<polygon fill="none" stroke="black" points="3685,-178.5 3685,-230.5 3836,-230.5 3836,-178.5 3685,-178.5"/>
<text text-anchor="start" x="3693" y="-218.5" font-family="Helvetica,sans-Serif" font-size="10.00">/github/workspace/applications</text>
<text text-anchor="start" x="3693" y="-207.5" font-family="Helvetica,sans-Serif" font-size="10.00">/structural_application/custom</text>
<text text-anchor="start" x="3693" y="-196.5" font-family="Helvetica,sans-Serif" font-size="10.00">_utilities/variable_transfer</text>
<text text-anchor="middle" x="3760.5" y="-185.5" font-family="Helvetica,sans-Serif" font-size="10.00">_utility.h</text>
</a>
</g>
</g>
<!-- Node4&#45;&gt;Node32 -->
<g id="edge33" class="edge">
<title>Node4&#45;&gt;Node32</title>
<path fill="none" stroke="midnightblue" d="M2147.5,-270.75C2154.87,-269.25 2162.33,-267.94 2169.5,-267 2501.65,-223.52 3345.76,-284.14 3676.5,-231 3679.21,-230.56 3681.95,-230.06 3684.71,-229.51"/>
<polygon fill="midnightblue" stroke="midnightblue" points="2146.58,-267.37 2137.54,-272.9 2148.05,-274.21 2146.58,-267.37"/>
</g>
<!-- Node34 -->
<g id="node34" class="node">
<title>Node34</title>
<g id="a_node34"><a xlink:href="../../d2/d1d/_u_l_fapplication_2custom__utilities_2nist__utilities_8h.html" target="_top" xlink:title=" ">
<polygon fill="none" stroke="black" points="3854,-184 3854,-225 4011,-225 4011,-184 3854,-184"/>
<text text-anchor="start" x="3862" y="-213" font-family="Helvetica,sans-Serif" font-size="10.00">/github/workspace/applications</text>
<text text-anchor="start" x="3862" y="-202" font-family="Helvetica,sans-Serif" font-size="10.00">/ULFapplication/custom_utilities</text>
<text text-anchor="middle" x="3932.5" y="-191" font-family="Helvetica,sans-Serif" font-size="10.00">/nist_utilities.h</text>
</a>
</g>
</g>
<!-- Node4&#45;&gt;Node34 -->
<g id="edge39" class="edge">
<title>Node4&#45;&gt;Node34</title>
<path fill="none" stroke="midnightblue" d="M2146.93,-270.85C2154.49,-269.3 2162.14,-267.95 2169.5,-267 2538.94,-219.09 3477.34,-287.88 3845.5,-231 3854.68,-229.58 3864.25,-227.46 3873.54,-225.04"/>
<polygon fill="midnightblue" stroke="midnightblue" points="2146.12,-267.44 2137.09,-272.98 2147.61,-274.28 2146.12,-267.44"/>
</g>
<!-- Node35 -->
<g id="node35" class="node">
<title>Node35</title>
<g id="a_node35"><a xlink:href="../../d7/db9/ulf__utilities_8h.html" target="_top" xlink:title=" ">
<polygon fill="none" stroke="black" points="4029,-184 4029,-225 4186,-225 4186,-184 4029,-184"/>
<text text-anchor="start" x="4037" y="-213" font-family="Helvetica,sans-Serif" font-size="10.00">/github/workspace/applications</text>
<text text-anchor="start" x="4037" y="-202" font-family="Helvetica,sans-Serif" font-size="10.00">/ULFapplication/custom_utilities</text>
<text text-anchor="middle" x="4107.5" y="-191" font-family="Helvetica,sans-Serif" font-size="10.00">/ulf_utilities.h</text>
</a>
</g>
</g>
<!-- Node4&#45;&gt;Node35 -->
<g id="edge40" class="edge">
<title>Node4&#45;&gt;Node35</title>
<path fill="none" stroke="midnightblue" d="M2146.93,-270.83C2154.48,-269.29 2162.14,-267.95 2169.5,-267 2577.55,-214.5 3613.85,-293.41 4020.5,-231 4029.68,-229.59 4039.25,-227.48 4048.54,-225.06"/>
<polygon fill="midnightblue" stroke="midnightblue" points="2146.12,-267.43 2137.09,-272.97 2147.61,-274.27 2146.12,-267.43"/>
</g>
<!-- Node37 -->
<g id="node37" class="node">
<title>Node37</title>
<g id="a_node37"><a xlink:href="../../d0/d88/_u_l_f__application_8cpp.html" target="_top" xlink:title=" ">
<polygon fill="none" stroke="black" points="4204.5,-189.5 4204.5,-219.5 4382.5,-219.5 4382.5,-189.5 4204.5,-189.5"/>
<text text-anchor="start" x="4212.5" y="-207.5" font-family="Helvetica,sans-Serif" font-size="10.00">/github/workspace/applications</text>
<text text-anchor="middle" x="4293.5" y="-196.5" font-family="Helvetica,sans-Serif" font-size="10.00">/ULFapplication/ULF_application.cpp</text>
</a>
</g>
</g>
<!-- Node4&#45;&gt;Node37 -->
<g id="edge42" class="edge">
<title>Node4&#45;&gt;Node37</title>
<path fill="none" stroke="midnightblue" d="M2146.93,-270.82C2154.48,-269.28 2162.14,-267.94 2169.5,-267 2616.16,-209.92 3749.37,-292.12 4195.5,-231 4213.09,-228.59 4232.06,-224.11 4248.57,-219.57"/>
<polygon fill="midnightblue" stroke="midnightblue" points="2146.12,-267.42 2137.09,-272.95 2147.61,-274.26 2146.12,-267.42"/>
</g>
<!-- Node8 -->
<g id="node8" class="node">
<title>Node8</title>
<g id="a_node8"><a xlink:href="../../d8/d50/convection__diffusion__application_2custom__python_2add__custom__utilities__to__python_8cpp.html" target="_top" xlink:title=" ">
<polygon fill="none" stroke="black" points="556.5,-89.5 556.5,-141.5 734.5,-141.5 734.5,-89.5 556.5,-89.5"/>
<text text-anchor="start" x="564.5" y="-129.5" font-family="Helvetica,sans-Serif" font-size="10.00">/github/workspace/applications</text>
<text text-anchor="start" x="564.5" y="-118.5" font-family="Helvetica,sans-Serif" font-size="10.00">/convection_diffusion_application</text>
<text text-anchor="start" x="564.5" y="-107.5" font-family="Helvetica,sans-Serif" font-size="10.00">/custom_python/add_custom_utilities</text>
<text text-anchor="middle" x="645.5" y="-96.5" font-family="Helvetica,sans-Serif" font-size="10.00">_to_python.cpp</text>
</a>
</g>
</g>
<!-- Node7&#45;&gt;Node8 -->
<g id="edge7" class="edge">
<title>Node7&#45;&gt;Node8</title>
<path fill="none" stroke="midnightblue" d="M645.5,-173.51C645.5,-163.17 645.5,-151.71 645.5,-141.79"/>
<polygon fill="midnightblue" stroke="midnightblue" points="642,-173.76 645.5,-183.76 649,-173.76 642,-173.76"/>
</g>
<!-- Node11 -->
<g id="node11" class="node">
<title>Node11</title>
<g id="a_node11"><a xlink:href="../../d4/d31/_meshing_application_2custom__python_2add__custom__utilities__to__python_8cpp.html" target="_top" xlink:title=" ">
<polygon fill="none" stroke="black" points="962,-89.5 962,-141.5 1113,-141.5 1113,-89.5 962,-89.5"/>
<text text-anchor="start" x="970" y="-129.5" font-family="Helvetica,sans-Serif" font-size="10.00">/github/workspace/applications</text>
<text text-anchor="start" x="970" y="-118.5" font-family="Helvetica,sans-Serif" font-size="10.00">/MeshingApplication/custom</text>
<text text-anchor="start" x="970" y="-107.5" font-family="Helvetica,sans-Serif" font-size="10.00">_python/add_custom_utilities</text>
<text text-anchor="middle" x="1037.5" y="-96.5" font-family="Helvetica,sans-Serif" font-size="10.00">_to_python.cpp</text>
</a>
</g>
</g>
<!-- Node10&#45;&gt;Node11 -->
<g id="edge10" class="edge">
<title>Node10&#45;&gt;Node11</title>
<path fill="none" stroke="midnightblue" d="M1037.5,-173.51C1037.5,-163.17 1037.5,-151.71 1037.5,-141.79"/>
<polygon fill="midnightblue" stroke="midnightblue" points="1034,-173.76 1037.5,-183.76 1041,-173.76 1034,-173.76"/>
</g>
<!-- Node13 -->
<g id="node13" class="node">
<title>Node13</title>
<g id="a_node13"><a xlink:href="../../dd/d57/_u_l_fapplication_2custom__python_2add__meshers__to__python_8cpp.html" target="_top" xlink:title=" ">
<polygon fill="none" stroke="black" points="1182,-95 1182,-136 1337,-136 1337,-95 1182,-95"/>
<text text-anchor="start" x="1190" y="-124" font-family="Helvetica,sans-Serif" font-size="10.00">/github/workspace/applications</text>
<text text-anchor="start" x="1190" y="-113" font-family="Helvetica,sans-Serif" font-size="10.00">/ULFapplication/custom_python</text>
<text text-anchor="middle" x="1259.5" y="-102" font-family="Helvetica,sans-Serif" font-size="10.00">/add_meshers_to_python.cpp</text>
</a>
</g>
</g>
<!-- Node12&#45;&gt;Node13 -->
<g id="edge12" class="edge">
<title>Node12&#45;&gt;Node13</title>
<path fill="none" stroke="midnightblue" d="M1236.5,-169.17C1241.4,-157.93 1246.68,-145.84 1250.95,-136.08"/>
<polygon fill="midnightblue" stroke="midnightblue" points="1233.29,-167.77 1232.49,-178.34 1239.7,-170.57 1233.29,-167.77"/>
</g>
<!-- Node15&#45;&gt;Node13 -->
<g id="edge17" class="edge">
<title>Node15&#45;&gt;Node13</title>
<path fill="none" stroke="midnightblue" d="M1484.74,-181.01C1481.28,-179.99 1477.85,-178.98 1474.5,-178 1425.88,-163.75 1370.96,-148.05 1328.8,-136.08"/>
<polygon fill="midnightblue" stroke="midnightblue" points="1483.97,-184.44 1494.55,-183.92 1485.96,-177.72 1483.97,-184.44"/>
</g>
<!-- Node16 -->
<g id="node16" class="node">
<title>Node16</title>
<g id="a_node16"><a xlink:href="../../de/dff/_meshing_application_2custom__python_2add__meshers__to__python_8cpp.html" target="_top" xlink:title=" ">
<polygon fill="none" stroke="black" points="1394,-95 1394,-136 1571,-136 1571,-95 1394,-95"/>
<text text-anchor="start" x="1402" y="-124" font-family="Helvetica,sans-Serif" font-size="10.00">/github/workspace/applications</text>
<text text-anchor="start" x="1402" y="-113" font-family="Helvetica,sans-Serif" font-size="10.00">/MeshingApplication/custom</text>
<text text-anchor="middle" x="1482.5" y="-102" font-family="Helvetica,sans-Serif" font-size="10.00">_python/add_meshers_to_python.cpp</text>
</a>
</g>
</g>
<!-- Node15&#45;&gt;Node16 -->
<g id="edge15" class="edge">
<title>Node15&#45;&gt;Node16</title>
<path fill="none" stroke="midnightblue" d="M1535.19,-176.03C1523.73,-163.09 1510.33,-147.94 1499.9,-136.16"/>
<polygon fill="midnightblue" stroke="midnightblue" points="1532.78,-178.59 1542.03,-183.76 1538.02,-173.95 1532.78,-178.59"/>
</g>
<!-- Node17 -->
<g id="node17" class="node">
<title>Node17</title>
<g id="a_node17"><a xlink:href="../../d9/d24/mesh__suites_8cpp.html" target="_top" xlink:title=" ">
<polygon fill="none" stroke="black" points="1589,-95 1589,-136 1740,-136 1740,-95 1589,-95"/>
<text text-anchor="start" x="1597" y="-124" font-family="Helvetica,sans-Serif" font-size="10.00">/github/workspace/applications</text>
<text text-anchor="start" x="1597" y="-113" font-family="Helvetica,sans-Serif" font-size="10.00">/MeshingApplication/external</text>
<text text-anchor="middle" x="1664.5" y="-102" font-family="Helvetica,sans-Serif" font-size="10.00">_includes/mesh_suites.cpp</text>
</a>
</g>
</g>
<!-- Node15&#45;&gt;Node17 -->
<g id="edge16" class="edge">
<title>Node15&#45;&gt;Node17</title>
<path fill="none" stroke="midnightblue" d="M1591.07,-177.34C1606.99,-164.15 1625.97,-148.42 1640.65,-136.26"/>
<polygon fill="midnightblue" stroke="midnightblue" points="1588.53,-174.9 1583.06,-183.98 1593,-180.29 1588.53,-174.9"/>
</g>
<!-- Node21 -->
<g id="node21" class="node">
<title>Node21</title>
<g id="a_node21"><a xlink:href="../../dc/dfc/_p_f_e_mapplication_2custom__python_2add__custom__utilities__to__python_8cpp.html" target="_top" xlink:title=" ">
<polygon fill="none" stroke="black" points="2181.5,-95 2181.5,-136 2355.5,-136 2355.5,-95 2181.5,-95"/>
<text text-anchor="start" x="2189.5" y="-124" font-family="Helvetica,sans-Serif" font-size="10.00">/github/workspace/applications</text>
<text text-anchor="start" x="2189.5" y="-113" font-family="Helvetica,sans-Serif" font-size="10.00">/PFEMapplication/custom_python</text>
<text text-anchor="middle" x="2268.5" y="-102" font-family="Helvetica,sans-Serif" font-size="10.00">/add_custom_utilities_to_python.cpp</text>
</a>
</g>
</g>
<!-- Node20&#45;&gt;Node21 -->
<g id="edge21" class="edge">
<title>Node20&#45;&gt;Node21</title>
<path fill="none" stroke="midnightblue" d="M2136.38,-179.66C2165,-165.98 2200.49,-149.01 2227.48,-136.11"/>
<polygon fill="midnightblue" stroke="midnightblue" points="2134.86,-176.5 2127.34,-183.98 2137.88,-182.82 2134.86,-176.5"/>
</g>
<!-- Node23&#45;&gt;Node21 -->
<g id="edge24" class="edge">
<title>Node23&#45;&gt;Node21</title>
<path fill="none" stroke="midnightblue" d="M2400.62,-179.66C2372,-165.98 2336.51,-149.01 2309.52,-136.11"/>
<polygon fill="midnightblue" stroke="midnightblue" points="2399.12,-182.82 2409.66,-183.98 2402.14,-176.5 2399.12,-182.82"/>
</g>
<!-- Node30 -->
<g id="node30" class="node">
<title>Node30</title>
<g id="a_node30"><a xlink:href="../../dd/dee/structural__application_2custom__python_2add__custom__utilities__to__python_8cpp.html" target="_top" xlink:title=" ">
<polygon fill="none" stroke="black" points="3685,-0.5 3685,-52.5 3836,-52.5 3836,-0.5 3685,-0.5"/>
<text text-anchor="start" x="3693" y="-40.5" font-family="Helvetica,sans-Serif" font-size="10.00">/github/workspace/applications</text>
<text text-anchor="start" x="3693" y="-29.5" font-family="Helvetica,sans-Serif" font-size="10.00">/structural_application/custom</text>
<text text-anchor="start" x="3693" y="-18.5" font-family="Helvetica,sans-Serif" font-size="10.00">_python/add_custom_utilities</text>
<text text-anchor="middle" x="3760.5" y="-7.5" font-family="Helvetica,sans-Serif" font-size="10.00">_to_python.cpp</text>
</a>
</g>
</g>
<!-- Node29&#45;&gt;Node30 -->
<g id="edge31" class="edge">
<title>Node29&#45;&gt;Node30</title>
<path fill="none" stroke="midnightblue" d="M3575.32,-174.37C3563.89,-149.46 3553.49,-113.79 3571.5,-89 3597.35,-53.4 3644.33,-38.01 3684.99,-31.52"/>
<polygon fill="midnightblue" stroke="midnightblue" points="3572.33,-176.23 3579.87,-183.68 3578.62,-173.16 3572.33,-176.23"/>
</g>
<!-- Node31 -->
<g id="node31" class="node">
<title>Node31</title>
<g id="a_node31"><a xlink:href="../../d9/d93/structural__application_2custom__python_2add__custom__utilities__to__python_8h.html" target="_top" xlink:title=" ">
<polygon fill="none" stroke="black" points="3581,-89.5 3581,-141.5 3732,-141.5 3732,-89.5 3581,-89.5"/>
<text text-anchor="start" x="3589" y="-129.5" font-family="Helvetica,sans-Serif" font-size="10.00">/github/workspace/applications</text>
<text text-anchor="start" x="3589" y="-118.5" font-family="Helvetica,sans-Serif" font-size="10.00">/structural_application/custom</text>
<text text-anchor="start" x="3589" y="-107.5" font-family="Helvetica,sans-Serif" font-size="10.00">_python/add_custom_utilities</text>
<text text-anchor="middle" x="3656.5" y="-96.5" font-family="Helvetica,sans-Serif" font-size="10.00">_to_python.h</text>
</a>
</g>
</g>
<!-- Node29&#45;&gt;Node31 -->
<g id="edge32" class="edge">
<title>Node29&#45;&gt;Node31</title>
<path fill="none" stroke="midnightblue" d="M3612.45,-175.45C3620.54,-164.63 3629.73,-152.34 3637.61,-141.79"/>
<polygon fill="midnightblue" stroke="midnightblue" points="3609.43,-173.65 3606.25,-183.76 3615.04,-177.84 3609.43,-173.65"/>
</g>
<!-- Node32&#45;&gt;Node30 -->
<g id="edge34" class="edge">
<title>Node32&#45;&gt;Node30</title>
<path fill="none" stroke="midnightblue" d="M3760.5,-168.25C3760.5,-134.04 3760.5,-82.97 3760.5,-52.67"/>
<polygon fill="midnightblue" stroke="midnightblue" points="3757,-168.28 3760.5,-178.28 3764,-168.28 3757,-168.28"/>
</g>
<!-- Node32&#45;&gt;Node31 -->
<g id="edge35" class="edge">
<title>Node32&#45;&gt;Node31</title>
<path fill="none" stroke="midnightblue" d="M3722.43,-171.65C3710.59,-161.75 3697.72,-150.98 3686.51,-141.61"/>
<polygon fill="midnightblue" stroke="midnightblue" points="3720.5,-174.6 3730.42,-178.34 3724.99,-169.24 3720.5,-174.6"/>
</g>
<!-- Node33 -->
<g id="node33" class="node">
<title>Node33</title>
<g id="a_node33"><a xlink:href="../../d7/d0e/node__snapping__utility_8h.html" target="_top" xlink:title=" ">
<polygon fill="none" stroke="black" points="3788.5,-95 3788.5,-136 3944.5,-136 3944.5,-95 3788.5,-95"/>
<text text-anchor="start" x="3796.5" y="-124" font-family="Helvetica,sans-Serif" font-size="10.00">/github/workspace/applications</text>
<text text-anchor="start" x="3796.5" y="-113" font-family="Helvetica,sans-Serif" font-size="10.00">/structural_application/custom</text>
<text text-anchor="middle" x="3866.5" y="-102" font-family="Helvetica,sans-Serif" font-size="10.00">_utilities/node_snapping_utility.h</text>
</a>
</g>
</g>
<!-- Node32&#45;&gt;Node33 -->
<g id="edge36" class="edge">
<title>Node32&#45;&gt;Node33</title>
<path fill="none" stroke="midnightblue" d="M3799.07,-171.85C3813.64,-159.88 3829.8,-146.62 3842.64,-136.08"/>
<polygon fill="midnightblue" stroke="midnightblue" points="3796.67,-169.29 3791.16,-178.34 3801.11,-174.7 3796.67,-169.29"/>
</g>
<!-- Node33&#45;&gt;Node30 -->
<g id="edge37" class="edge">
<title>Node33&#45;&gt;Node30</title>
<path fill="none" stroke="midnightblue" d="M3834.86,-88.53C3821,-77.15 3804.8,-63.86 3791.06,-52.58"/>
<polygon fill="midnightblue" stroke="midnightblue" points="3832.76,-91.34 3842.71,-94.98 3837.2,-85.93 3832.76,-91.34"/>
</g>
<!-- Node36 -->
<g id="node36" class="node">
<title>Node36</title>
<g id="a_node36"><a xlink:href="../../d5/d60/_u_l_fapplication_2custom__python_2add__custom__utilities__to__python_8cpp.html" target="_top" xlink:title=" ">
<polygon fill="none" stroke="black" points="4020.5,-95 4020.5,-136 4194.5,-136 4194.5,-95 4020.5,-95"/>
<text text-anchor="start" x="4028.5" y="-124" font-family="Helvetica,sans-Serif" font-size="10.00">/github/workspace/applications</text>
<text text-anchor="start" x="4028.5" y="-113" font-family="Helvetica,sans-Serif" font-size="10.00">/ULFapplication/custom_python</text>
<text text-anchor="middle" x="4107.5" y="-102" font-family="Helvetica,sans-Serif" font-size="10.00">/add_custom_utilities_to_python.cpp</text>
</a>
</g>
</g>
<!-- Node35&#45;&gt;Node36 -->
<g id="edge41" class="edge">
<title>Node35&#45;&gt;Node36</title>
<path fill="none" stroke="midnightblue" d="M4107.5,-173.44C4107.5,-161.1 4107.5,-147.16 4107.5,-136.16"/>
<polygon fill="midnightblue" stroke="midnightblue" points="4104,-173.76 4107.5,-183.76 4111,-173.76 4104,-173.76"/>
</g>
</g>
</svg>
        <g id="navigator" transform="translate(0 0)" fill="#404254">
                <rect fill="#f2f5e9" fill-opacity="0.5" stroke="#606060" stroke-width=".5" x="0" y="0" width="60" height="60"/>
                <use id="zoomplus" xlink:href="#zoomPlus" x="17" y="9" onmousedown="handleZoom(evt,'in')"/>
                <use id="zoomminus" xlink:href="#zoomMin" x="42" y="9" onmousedown="handleZoom(evt,'out')"/>
                <use id="reset" xlink:href="#resetDef" x="30" y="36" onmousedown="handleReset()"/>
                <g id="arrowUp" xlink:href="#dirArrow" transform="translate(30 24)" onmousedown="handlePan(0,-1)">
                  <use xlink:href="#rim" fill="#404040">
                        <set attributeName="fill" to="#808080" begin="arrowUp.mouseover" end="arrowUp.mouseout"/>
                  </use>
                  <path fill="none" stroke="white" stroke-width="1.5" d="M0,-3.0v7 M-2.5,-0.5L0,-3.0L2.5,-0.5"/>
                </g>
                <g id="arrowRight" xlink:href="#dirArrow" transform="rotate(90) translate(36 -43)" onmousedown="handlePan(1,0)">
                  <use xlink:href="#rim" fill="#404040">
                        <set attributeName="fill" to="#808080" begin="arrowRight.mouseover" end="arrowRight.mouseout"/>
                  </use>
                  <path fill="none" stroke="white" stroke-width="1.5" d="M0,-3.0v7 M-2.5,-0.5L0,-3.0L2.5,-0.5"/>
                </g>
                <g id="arrowDown" xlink:href="#dirArrow" transform="rotate(180) translate(-30 -48)" onmousedown="handlePan(0,1)">
                  <use xlink:href="#rim" fill="#404040">
                        <set attributeName="fill" to="#808080" begin="arrowDown.mouseover" end="arrowDown.mouseout"/>
                  </use>
                  <path fill="none" stroke="white" stroke-width="1.5" d="M0,-3.0v7 M-2.5,-0.5L0,-3.0L2.5,-0.5"/>
                </g>
                <g id="arrowLeft" xlink:href="#dirArrow" transform="rotate(270) translate(-36 17)" onmousedown="handlePan(-1,0)">
                  <use xlink:href="#rim" fill="#404040">
                        <set attributeName="fill" to="#808080" begin="arrowLeft.mouseover" end="arrowLeft.mouseout"/>
                  </use>
                  <path fill="none" stroke="white" stroke-width="1.5" d="M0,-3.0v7 M-2.5,-0.5L0,-3.0L2.5,-0.5"/>
                </g>
        </g>
        <svg viewBox="0 0 15 15" width="100%" height="30px" preserveAspectRatio="xMaxYMin meet">
         <g id="arrow_out" transform="scale(0.3 0.3)">
          <a xlink:href="tetrahedra__gaussian__integration__points_8h__dep__incl_org.svg" target="_base">
           <rect id="button" ry="5" rx="5" y="6" x="6" height="38" width="38"
                fill="#f2f5e9" fill-opacity="0.5" stroke="#606060" stroke-width="1.0"/>
           <path id="arrow"
             d="M 11.500037,31.436501 C 11.940474,20.09759 22.043105,11.32322 32.158766,21.979434 L 37.068811,17.246167 C 37.068811,17.246167 37.088388,32 37.088388,32 L 22.160133,31.978069 C 22.160133,31.978069 26.997745,27.140456 26.997745,27.140456 C 18.528582,18.264221 13.291696,25.230495 11.500037,31.436501 z"
             style="fill:#404040;"/>
          </a>
         </g>
        </svg>
</svg>
