<?xml version="1.0" encoding="UTF-8" standalone="no"?>
<!DOCTYPE svg PUBLIC "-//W3C//DTD SVG 1.1//EN"
 "http://www.w3.org/Graphics/SVG/1.1/DTD/svg11.dtd">
<!-- Generated by graphviz version 2.48.0 (20210719.0153)
 -->
<!-- Title: /github/workspace/applications/mkl_solvers_application/external_includes/mkl_pardiso_solver.h Pages: 1 -->
<svg width="3634pt" height="352pt"
 viewBox="0.00 0.00 3633.65 352.00" xmlns="http://www.w3.org/2000/svg" xmlns:xlink="http://www.w3.org/1999/xlink">
<g id="graph0" class="graph" transform="scale(1 1) rotate(0) translate(4 348)">
<title>/github/workspace/applications/mkl_solvers_application/external_includes/mkl_pardiso_solver.h</title>
<!-- Node1 -->
<g id="node1" class="node">
<title>Node1</title>
<g id="a_node1"><a xlink:title=" ">
<polygon fill="#bfbfbf" stroke="black" points="323,-302.5 323,-343.5 484,-343.5 484,-302.5 323,-302.5"/>
<text text-anchor="start" x="331" y="-331.5" font-family="Helvetica,sans-Serif" font-size="10.00">/github/workspace/applications</text>
<text text-anchor="start" x="331" y="-320.5" font-family="Helvetica,sans-Serif" font-size="10.00">/mkl_solvers_application/external</text>
<text text-anchor="middle" x="403.5" y="-309.5" font-family="Helvetica,sans-Serif" font-size="10.00">_includes/mkl_pardiso_solver.h</text>
</a>
</g>
</g>
<!-- Node2 -->
<g id="node2" class="node">
<title>Node2</title>
<g id="a_node2"><a xlink:title=" ">
<polygon fill="none" stroke="#bfbfbf" points="0,-241 0,-260 45,-260 45,-241 0,-241"/>
<text text-anchor="middle" x="22.5" y="-248" font-family="Helvetica,sans-Serif" font-size="10.00">stdio.h</text>
</a>
</g>
</g>
<!-- Node1&#45;&gt;Node2 -->
<g id="edge1" class="edge">
<title>Node1&#45;&gt;Node2</title>
<path fill="none" stroke="midnightblue" d="M322.82,-315.53C250.94,-308.25 143.5,-293.65 53.5,-266 51.63,-265.42 49.72,-264.76 47.82,-264.03"/>
<polygon fill="midnightblue" stroke="midnightblue" points="49.14,-260.79 38.57,-260.05 46.38,-267.22 49.14,-260.79"/>
</g>
<!-- Node3 -->
<g id="node3" class="node">
<title>Node3</title>
<g id="a_node3"><a xlink:title=" ">
<polygon fill="none" stroke="#bfbfbf" points="63,-241 63,-260 110,-260 110,-241 63,-241"/>
<text text-anchor="middle" x="86.5" y="-248" font-family="Helvetica,sans-Serif" font-size="10.00">stdlib.h</text>
</a>
</g>
</g>
<!-- Node1&#45;&gt;Node3 -->
<g id="edge2" class="edge">
<title>Node1&#45;&gt;Node3</title>
<path fill="none" stroke="midnightblue" d="M322.76,-310.91C265.27,-301.86 186.62,-287.08 119.5,-266 117.57,-265.4 115.61,-264.71 113.65,-263.98"/>
<polygon fill="midnightblue" stroke="midnightblue" points="114.62,-260.6 104.04,-260.06 111.97,-267.08 114.62,-260.6"/>
</g>
<!-- Node4 -->
<g id="node4" class="node">
<title>Node4</title>
<g id="a_node4"><a xlink:title=" ">
<polygon fill="none" stroke="#bfbfbf" points="128.5,-241 128.5,-260 174.5,-260 174.5,-241 128.5,-241"/>
<text text-anchor="middle" x="151.5" y="-248" font-family="Helvetica,sans-Serif" font-size="10.00">math.h</text>
</a>
</g>
</g>
<!-- Node1&#45;&gt;Node4 -->
<g id="edge3" class="edge">
<title>Node1&#45;&gt;Node4</title>
<path fill="none" stroke="midnightblue" d="M322.81,-305.05C280.75,-295.32 228.78,-281.88 183.5,-266 181.84,-265.42 180.14,-264.78 178.45,-264.11"/>
<polygon fill="midnightblue" stroke="midnightblue" points="179.45,-260.74 168.88,-260.04 176.71,-267.18 179.45,-260.74"/>
</g>
<!-- Node5 -->
<g id="node5" class="node">
<title>Node5</title>
<g id="a_node5"><a xlink:title=" ">
<polygon fill="none" stroke="#bfbfbf" points="193,-241 193,-260 276,-260 276,-241 193,-241"/>
<text text-anchor="middle" x="234.5" y="-248" font-family="Helvetica,sans-Serif" font-size="10.00">boost/timer.hpp</text>
</a>
</g>
</g>
<!-- Node1&#45;&gt;Node5 -->
<g id="edge4" class="edge">
<title>Node1&#45;&gt;Node5</title>
<path fill="none" stroke="midnightblue" d="M356.42,-302.36C327.11,-290.13 290.26,-274.76 264.79,-264.14"/>
<polygon fill="midnightblue" stroke="midnightblue" points="265.87,-260.79 255.29,-260.17 263.17,-267.25 265.87,-260.79"/>
</g>
<!-- Node6 -->
<g id="node6" class="node">
<title>Node6</title>
<g id="a_node6"><a xlink:title=" ">
<polygon fill="none" stroke="#bfbfbf" points="294,-241 294,-260 337,-260 337,-241 294,-241"/>
<text text-anchor="middle" x="315.5" y="-248" font-family="Helvetica,sans-Serif" font-size="10.00">omp.h</text>
</a>
</g>
</g>
<!-- Node1&#45;&gt;Node6 -->
<g id="edge5" class="edge">
<title>Node1&#45;&gt;Node6</title>
<path fill="none" stroke="midnightblue" d="M378.99,-302.36C364.8,-291 347.23,-276.92 334.17,-266.46"/>
<polygon fill="midnightblue" stroke="midnightblue" points="336.32,-263.69 326.33,-260.17 331.94,-269.16 336.32,-263.69"/>
</g>
<!-- Node7 -->
<g id="node7" class="node">
<title>Node7</title>
<g id="a_node7"><a xlink:title=" ">
<polygon fill="none" stroke="#bfbfbf" points="354,-0.5 354,-19.5 457,-19.5 457,-0.5 354,-0.5"/>
<text text-anchor="middle" x="405.5" y="-7.5" font-family="Helvetica,sans-Serif" font-size="10.00">boost/smart_ptr.hpp</text>
</a>
</g>
</g>
<!-- Node1&#45;&gt;Node7 -->
<g id="edge6" class="edge">
<title>Node1&#45;&gt;Node7</title>
<path fill="none" stroke="midnightblue" d="M394.49,-302.43C383.26,-276.18 365.5,-227.84 365.5,-184.5 365.5,-184.5 365.5,-184.5 365.5,-121 365.5,-86.62 382.97,-49.63 394.82,-28.5"/>
<polygon fill="midnightblue" stroke="midnightblue" points="397.92,-30.13 399.94,-19.73 391.88,-26.61 397.92,-30.13"/>
</g>
<!-- Node8 -->
<g id="node8" class="node">
<title>Node8</title>
<g id="a_node8"><a xlink:href="../../d9/d3e/ublas__interface_8h.html" target="_top" xlink:title=" ">
<polygon fill="none" stroke="black" points="2509,-241 2509,-260 2638,-260 2638,-241 2509,-241"/>
<text text-anchor="middle" x="2573.5" y="-248" font-family="Helvetica,sans-Serif" font-size="10.00">includes/ublas_interface.h</text>
</a>
</g>
</g>
<!-- Node1&#45;&gt;Node8 -->
<g id="edge7" class="edge">
<title>Node1&#45;&gt;Node8</title>
<path fill="none" stroke="midnightblue" d="M484.28,-319.38C827.98,-308.21 2166.24,-264.73 2498.51,-253.94"/>
<polygon fill="midnightblue" stroke="midnightblue" points="2499.1,-257.42 2508.98,-253.6 2498.87,-250.42 2499.1,-257.42"/>
</g>
<!-- Node26 -->
<g id="node26" class="node">
<title>Node26</title>
<g id="a_node26"><a xlink:href="../../df/d67/define_8h.html" target="_top" xlink:title=" ">
<polygon fill="none" stroke="black" points="546,-56.5 546,-75.5 635,-75.5 635,-56.5 546,-56.5"/>
<text text-anchor="middle" x="590.5" y="-63.5" font-family="Helvetica,sans-Serif" font-size="10.00">includes/define.h</text>
</a>
</g>
</g>
<!-- Node1&#45;&gt;Node26 -->
<g id="edge49" class="edge">
<title>Node1&#45;&gt;Node26</title>
<path fill="none" stroke="midnightblue" d="M405.26,-302.18C407.46,-283.99 412.26,-256.67 422.5,-235 452.24,-172.05 467.81,-158.63 519.5,-112 533.19,-99.65 550.66,-88.53 564.84,-80.44"/>
<polygon fill="midnightblue" stroke="midnightblue" points="566.57,-83.48 573.62,-75.57 563.17,-77.36 566.57,-83.48"/>
</g>
<!-- Node31 -->
<g id="node31" class="node">
<title>Node31</title>
<g id="a_node31"><a xlink:href="../../d1/d70/mkl__solvers__application_2external__includes_2boost_2numeric_2bindings_2traits_2sparse__traits_8hpp.html" target="_top" xlink:title=" ">
<polygon fill="none" stroke="black" points="604,-235.5 604,-265.5 723,-265.5 723,-235.5 604,-235.5"/>
<text text-anchor="start" x="612" y="-253.5" font-family="Helvetica,sans-Serif" font-size="10.00">boost/numeric/bindings</text>
<text text-anchor="middle" x="663.5" y="-242.5" font-family="Helvetica,sans-Serif" font-size="10.00">/traits/sparse_traits.hpp</text>
</a>
</g>
</g>
<!-- Node1&#45;&gt;Node31 -->
<g id="edge31" class="edge">
<title>Node1&#45;&gt;Node31</title>
<path fill="none" stroke="midnightblue" d="M475.58,-302.46C515.17,-291.72 563.78,-278.54 601.63,-268.28"/>
<polygon fill="midnightblue" stroke="midnightblue" points="602.78,-271.59 611.51,-265.6 600.94,-264.84 602.78,-271.59"/>
</g>
<!-- Node34 -->
<g id="node34" class="node">
<title>Node34</title>
<g id="a_node34"><a xlink:href="../../da/d3a/mkl__solvers__application_2external__includes_2boost_2numeric_2bindings_2traits_2ublas__matrix_8hpp.html" target="_top" xlink:title=" ">
<polygon fill="none" stroke="black" points="943,-235.5 943,-265.5 1060,-265.5 1060,-235.5 943,-235.5"/>
<text text-anchor="start" x="951" y="-253.5" font-family="Helvetica,sans-Serif" font-size="10.00">boost/numeric/bindings</text>
<text text-anchor="middle" x="1001.5" y="-242.5" font-family="Helvetica,sans-Serif" font-size="10.00">/traits/ublas_matrix.hpp</text>
</a>
</g>
</g>
<!-- Node1&#45;&gt;Node34 -->
<g id="edge34" class="edge">
<title>Node1&#45;&gt;Node34</title>
<path fill="none" stroke="midnightblue" d="M484.15,-312.49C602.55,-298.53 821.41,-272.73 932.68,-259.61"/>
<polygon fill="midnightblue" stroke="midnightblue" points="933.26,-263.07 942.78,-258.42 932.44,-256.12 933.26,-263.07"/>
</g>
<!-- Node38 -->
<g id="node38" class="node">
<title>Node38</title>
<g id="a_node38"><a xlink:href="../../dc/d4d/mkl__solvers__application_2external__includes_2boost_2numeric_2bindings_2traits_2ublas__sparse_8hpp.html" target="_top" xlink:title=" ">
<polygon fill="none" stroke="black" points="1687.5,-235.5 1687.5,-265.5 1807.5,-265.5 1807.5,-235.5 1687.5,-235.5"/>
<text text-anchor="start" x="1695.5" y="-253.5" font-family="Helvetica,sans-Serif" font-size="10.00">boost/numeric/bindings</text>
<text text-anchor="middle" x="1747.5" y="-242.5" font-family="Helvetica,sans-Serif" font-size="10.00">/traits/ublas_sparse.hpp</text>
</a>
</g>
</g>
<!-- Node1&#45;&gt;Node38 -->
<g id="edge40" class="edge">
<title>Node1&#45;&gt;Node38</title>
<path fill="none" stroke="midnightblue" d="M484.05,-317.77C726.81,-305.04 1448.7,-267.17 1677.27,-255.18"/>
<polygon fill="midnightblue" stroke="midnightblue" points="1677.65,-258.67 1687.46,-254.65 1677.29,-251.68 1677.65,-258.67"/>
</g>
<!-- Node42 -->
<g id="node42" class="node">
<title>Node42</title>
<g id="a_node42"><a xlink:href="../../d4/d35/mkl__solvers__application_2external__includes_2boost_2numeric_2bindings_2traits_2ublas__vector_8hpp.html" target="_top" xlink:title=" ">
<polygon fill="none" stroke="black" points="1145.5,-235.5 1145.5,-265.5 1263.5,-265.5 1263.5,-235.5 1145.5,-235.5"/>
<text text-anchor="start" x="1153.5" y="-253.5" font-family="Helvetica,sans-Serif" font-size="10.00">boost/numeric/bindings</text>
<text text-anchor="middle" x="1204.5" y="-242.5" font-family="Helvetica,sans-Serif" font-size="10.00">/traits/ublas_vector.hpp</text>
</a>
</g>
</g>
<!-- Node1&#45;&gt;Node42 -->
<g id="edge46" class="edge">
<title>Node1&#45;&gt;Node42</title>
<path fill="none" stroke="midnightblue" d="M484.03,-315.83C609.31,-306.1 858.41,-286.21 1069.5,-266 1090.88,-263.95 1114.13,-261.53 1135.22,-259.25"/>
<polygon fill="midnightblue" stroke="midnightblue" points="1135.82,-262.71 1145.39,-258.15 1135.07,-255.75 1135.82,-262.71"/>
</g>
<!-- Node44 -->
<g id="node44" class="node">
<title>Node44</title>
<g id="a_node44"><a xlink:href="../../d9/da7/direct__solver_8h.html" target="_top" xlink:title=" ">
<polygon fill="none" stroke="black" points="431.5,-235.5 431.5,-265.5 535.5,-265.5 535.5,-235.5 431.5,-235.5"/>
<text text-anchor="start" x="439.5" y="-253.5" font-family="Helvetica,sans-Serif" font-size="10.00">linear_solvers/direct</text>
<text text-anchor="middle" x="483.5" y="-242.5" font-family="Helvetica,sans-Serif" font-size="10.00">_solver.h</text>
</a>
</g>
</g>
<!-- Node1&#45;&gt;Node44 -->
<g id="edge50" class="edge">
<title>Node1&#45;&gt;Node44</title>
<path fill="none" stroke="midnightblue" d="M425.78,-302.36C436.32,-293.08 448.91,-281.98 459.64,-272.52"/>
<polygon fill="midnightblue" stroke="midnightblue" points="462.23,-274.91 467.42,-265.67 457.6,-269.66 462.23,-274.91"/>
</g>
<!-- Node9 -->
<g id="node9" class="node">
<title>Node9</title>
<g id="a_node9"><a xlink:title=" ">
<polygon fill="none" stroke="#bfbfbf" points="653,-56.5 653,-75.5 694,-75.5 694,-56.5 653,-56.5"/>
<text text-anchor="middle" x="673.5" y="-63.5" font-family="Helvetica,sans-Serif" font-size="10.00">string</text>
</a>
</g>
</g>
<!-- Node8&#45;&gt;Node9 -->
<g id="edge8" class="edge">
<title>Node8&#45;&gt;Node9</title>
<path fill="none" stroke="midnightblue" d="M2508.66,-249.48C2401.48,-248.24 2193.32,-240.39 2134.5,-199 2099.23,-174.18 2127.84,-135.23 2091.5,-112 2028.35,-71.63 849.34,-87.23 704.31,-75.14"/>
<polygon fill="midnightblue" stroke="midnightblue" points="704.65,-71.66 694.32,-74.02 703.86,-78.62 704.65,-71.66"/>
</g>
<!-- Node10 -->
<g id="node10" class="node">
<title>Node10</title>
<g id="a_node10"><a xlink:title=" ">
<polygon fill="none" stroke="#bfbfbf" points="712.5,-56.5 712.5,-75.5 766.5,-75.5 766.5,-56.5 712.5,-56.5"/>
<text text-anchor="middle" x="739.5" y="-63.5" font-family="Helvetica,sans-Serif" font-size="10.00">iostream</text>
</a>
</g>
</g>
<!-- Node8&#45;&gt;Node10 -->
<g id="edge9" class="edge">
<title>Node8&#45;&gt;Node10</title>
<path fill="none" stroke="midnightblue" d="M2638.04,-248.81C2860.64,-246.1 3584.59,-234.59 3618.5,-199 3628,-189.03 3628.06,-177.92 3618.5,-168 3515.11,-60.65 1107.31,-65.65 776.94,-66.84"/>
<polygon fill="midnightblue" stroke="midnightblue" points="776.9,-63.34 766.92,-66.88 776.93,-70.34 776.9,-63.34"/>
</g>
<!-- Node11 -->
<g id="node11" class="node">
<title>Node11</title>
<g id="a_node11"><a xlink:title=" ">
<polygon fill="none" stroke="#bfbfbf" points="1451.5,-168.5 1451.5,-198.5 1555.5,-198.5 1555.5,-168.5 1451.5,-168.5"/>
<text text-anchor="start" x="1459.5" y="-186.5" font-family="Helvetica,sans-Serif" font-size="10.00">boost/numeric/ublas</text>
<text text-anchor="middle" x="1503.5" y="-175.5" font-family="Helvetica,sans-Serif" font-size="10.00">/vector.hpp</text>
</a>
</g>
</g>
<!-- Node8&#45;&gt;Node11 -->
<g id="edge10" class="edge">
<title>Node8&#45;&gt;Node11</title>
<path fill="none" stroke="midnightblue" d="M2508.85,-250.27C2349.82,-251.3 1926.96,-248.83 1565.93,-198.85"/>
<polygon fill="midnightblue" stroke="midnightblue" points="1566.19,-195.35 1555.81,-197.43 1565.22,-202.28 1566.19,-195.35"/>
</g>
<!-- Node12 -->
<g id="node12" class="node">
<title>Node12</title>
<g id="a_node12"><a xlink:title=" ">
<polygon fill="none" stroke="#bfbfbf" points="2143.5,-168.5 2143.5,-198.5 2247.5,-198.5 2247.5,-168.5 2143.5,-168.5"/>
<text text-anchor="start" x="2151.5" y="-186.5" font-family="Helvetica,sans-Serif" font-size="10.00">boost/numeric/ublas</text>
<text text-anchor="middle" x="2195.5" y="-175.5" font-family="Helvetica,sans-Serif" font-size="10.00">/vector_proxy.hpp</text>
</a>
</g>
</g>
<!-- Node8&#45;&gt;Node12 -->
<g id="edge11" class="edge">
<title>Node8&#45;&gt;Node12</title>
<path fill="none" stroke="midnightblue" d="M2511,-240.96C2449.07,-232.18 2351.34,-217.47 2257.62,-199.14"/>
<polygon fill="midnightblue" stroke="midnightblue" points="2258.18,-195.68 2247.69,-197.18 2256.82,-202.55 2258.18,-195.68"/>
</g>
<!-- Node13 -->
<g id="node13" class="node">
<title>Node13</title>
<g id="a_node13"><a xlink:title=" ">
<polygon fill="none" stroke="#bfbfbf" points="2265.5,-168.5 2265.5,-198.5 2369.5,-198.5 2369.5,-168.5 2265.5,-168.5"/>
<text text-anchor="start" x="2273.5" y="-186.5" font-family="Helvetica,sans-Serif" font-size="10.00">boost/numeric/ublas</text>
<text text-anchor="middle" x="2317.5" y="-175.5" font-family="Helvetica,sans-Serif" font-size="10.00">/vector_sparse.hpp</text>
</a>
</g>
</g>
<!-- Node8&#45;&gt;Node13 -->
<g id="edge12" class="edge">
<title>Node8&#45;&gt;Node13</title>
<path fill="none" stroke="midnightblue" d="M2539.77,-240.94C2499.17,-230.63 2430.16,-213.11 2379.79,-200.32"/>
<polygon fill="midnightblue" stroke="midnightblue" points="2380.53,-196.89 2369.98,-197.82 2378.81,-203.68 2380.53,-196.89"/>
</g>
<!-- Node14 -->
<g id="node14" class="node">
<title>Node14</title>
<g id="a_node14"><a xlink:title=" ">
<polygon fill="none" stroke="#bfbfbf" points="2387.5,-168.5 2387.5,-198.5 2503.5,-198.5 2503.5,-168.5 2387.5,-168.5"/>
<text text-anchor="start" x="2395.5" y="-186.5" font-family="Helvetica,sans-Serif" font-size="10.00">boost/numeric/ublas</text>
<text text-anchor="middle" x="2445.5" y="-175.5" font-family="Helvetica,sans-Serif" font-size="10.00">/vector_expression.hpp</text>
</a>
</g>
</g>
<!-- Node8&#45;&gt;Node14 -->
<g id="edge13" class="edge">
<title>Node8&#45;&gt;Node14</title>
<path fill="none" stroke="midnightblue" d="M2556.5,-240.87C2537.69,-231.31 2506.8,-215.63 2482.37,-203.22"/>
<polygon fill="midnightblue" stroke="midnightblue" points="2483.87,-200.06 2473.37,-198.65 2480.7,-206.3 2483.87,-200.06"/>
</g>
<!-- Node15 -->
<g id="node15" class="node">
<title>Node15</title>
<g id="a_node15"><a xlink:title=" ">
<polygon fill="none" stroke="#bfbfbf" points="1711.5,-168.5 1711.5,-198.5 1815.5,-198.5 1815.5,-168.5 1711.5,-168.5"/>
<text text-anchor="start" x="1719.5" y="-186.5" font-family="Helvetica,sans-Serif" font-size="10.00">boost/numeric/ublas</text>
<text text-anchor="middle" x="1763.5" y="-175.5" font-family="Helvetica,sans-Serif" font-size="10.00">/matrix.hpp</text>
</a>
</g>
</g>
<!-- Node8&#45;&gt;Node15 -->
<g id="edge14" class="edge">
<title>Node8&#45;&gt;Node15</title>
<path fill="none" stroke="midnightblue" d="M2508.99,-248.75C2380.48,-246.47 2083.44,-237.3 1825.56,-198.99"/>
<polygon fill="midnightblue" stroke="midnightblue" points="1826.04,-195.52 1815.63,-197.49 1825,-202.44 1826.04,-195.52"/>
</g>
<!-- Node16 -->
<g id="node16" class="node">
<title>Node16</title>
<g id="a_node16"><a xlink:title=" ">
<polygon fill="none" stroke="#bfbfbf" points="1945.5,-168.5 1945.5,-198.5 2049.5,-198.5 2049.5,-168.5 1945.5,-168.5"/>
<text text-anchor="start" x="1953.5" y="-186.5" font-family="Helvetica,sans-Serif" font-size="10.00">boost/numeric/ublas</text>
<text text-anchor="middle" x="1997.5" y="-175.5" font-family="Helvetica,sans-Serif" font-size="10.00">/matrix_sparse.hpp</text>
</a>
</g>
</g>
<!-- Node8&#45;&gt;Node16 -->
<g id="edge15" class="edge">
<title>Node8&#45;&gt;Node16</title>
<path fill="none" stroke="midnightblue" d="M2508.78,-245.54C2411.64,-239.04 2222.55,-224.26 2063.5,-199 2062.23,-198.8 2060.95,-198.59 2059.65,-198.37"/>
<polygon fill="midnightblue" stroke="midnightblue" points="2060.1,-194.89 2049.63,-196.55 2058.84,-201.78 2060.1,-194.89"/>
</g>
<!-- Node17 -->
<g id="node17" class="node">
<title>Node17</title>
<g id="a_node17"><a xlink:title=" ">
<polygon fill="none" stroke="#bfbfbf" points="2521.5,-168.5 2521.5,-198.5 2625.5,-198.5 2625.5,-168.5 2521.5,-168.5"/>
<text text-anchor="start" x="2529.5" y="-186.5" font-family="Helvetica,sans-Serif" font-size="10.00">boost/numeric/ublas</text>
<text text-anchor="middle" x="2573.5" y="-175.5" font-family="Helvetica,sans-Serif" font-size="10.00">/matrix_proxy.hpp</text>
</a>
</g>
</g>
<!-- Node8&#45;&gt;Node17 -->
<g id="edge16" class="edge">
<title>Node8&#45;&gt;Node17</title>
<path fill="none" stroke="midnightblue" d="M2573.5,-240.73C2573.5,-232.54 2573.5,-219.92 2573.5,-208.71"/>
<polygon fill="midnightblue" stroke="midnightblue" points="2577,-208.59 2573.5,-198.59 2570,-208.59 2577,-208.59"/>
</g>
<!-- Node18 -->
<g id="node18" class="node">
<title>Node18</title>
<g id="a_node18"><a xlink:title=" ">
<polygon fill="none" stroke="#bfbfbf" points="2643.5,-168.5 2643.5,-198.5 2747.5,-198.5 2747.5,-168.5 2643.5,-168.5"/>
<text text-anchor="start" x="2651.5" y="-186.5" font-family="Helvetica,sans-Serif" font-size="10.00">boost/numeric/ublas</text>
<text text-anchor="middle" x="2695.5" y="-175.5" font-family="Helvetica,sans-Serif" font-size="10.00">/symmetric.hpp</text>
</a>
</g>
</g>
<!-- Node8&#45;&gt;Node18 -->
<g id="edge17" class="edge">
<title>Node8&#45;&gt;Node18</title>
<path fill="none" stroke="midnightblue" d="M2589.7,-240.87C2607.55,-231.36 2636.82,-215.77 2660.05,-203.39"/>
<polygon fill="midnightblue" stroke="midnightblue" points="2661.76,-206.44 2668.94,-198.65 2658.47,-200.26 2661.76,-206.44"/>
</g>
<!-- Node19 -->
<g id="node19" class="node">
<title>Node19</title>
<g id="a_node19"><a xlink:title=" ">
<polygon fill="none" stroke="#bfbfbf" points="2765.5,-168.5 2765.5,-198.5 2869.5,-198.5 2869.5,-168.5 2765.5,-168.5"/>
<text text-anchor="start" x="2773.5" y="-186.5" font-family="Helvetica,sans-Serif" font-size="10.00">boost/numeric/ublas</text>
<text text-anchor="middle" x="2817.5" y="-175.5" font-family="Helvetica,sans-Serif" font-size="10.00">/hermitian.hpp</text>
</a>
</g>
</g>
<!-- Node8&#45;&gt;Node19 -->
<g id="edge18" class="edge">
<title>Node8&#45;&gt;Node19</title>
<path fill="none" stroke="midnightblue" d="M2605.65,-240.94C2643.59,-230.83 2707.53,-213.8 2755.26,-201.08"/>
<polygon fill="midnightblue" stroke="midnightblue" points="2756.43,-204.39 2765.19,-198.44 2754.62,-197.63 2756.43,-204.39"/>
</g>
<!-- Node20 -->
<g id="node20" class="node">
<title>Node20</title>
<g id="a_node20"><a xlink:title=" ">
<polygon fill="none" stroke="#bfbfbf" points="2887.5,-168.5 2887.5,-198.5 2991.5,-198.5 2991.5,-168.5 2887.5,-168.5"/>
<text text-anchor="start" x="2895.5" y="-186.5" font-family="Helvetica,sans-Serif" font-size="10.00">boost/numeric/ublas</text>
<text text-anchor="middle" x="2939.5" y="-175.5" font-family="Helvetica,sans-Serif" font-size="10.00">/banded.hpp</text>
</a>
</g>
</g>
<!-- Node8&#45;&gt;Node20 -->
<g id="edge19" class="edge">
<title>Node8&#45;&gt;Node20</title>
<path fill="none" stroke="midnightblue" d="M2632.48,-240.97C2691.91,-232.1 2786.46,-217.23 2877.39,-199.15"/>
<polygon fill="midnightblue" stroke="midnightblue" points="2878.19,-202.55 2887.31,-197.16 2876.82,-195.69 2878.19,-202.55"/>
</g>
<!-- Node21 -->
<g id="node21" class="node">
<title>Node21</title>
<g id="a_node21"><a xlink:title=" ">
<polygon fill="none" stroke="#bfbfbf" points="3009.5,-168.5 3009.5,-198.5 3113.5,-198.5 3113.5,-168.5 3009.5,-168.5"/>
<text text-anchor="start" x="3017.5" y="-186.5" font-family="Helvetica,sans-Serif" font-size="10.00">boost/numeric/ublas</text>
<text text-anchor="middle" x="3061.5" y="-175.5" font-family="Helvetica,sans-Serif" font-size="10.00">/triangular.hpp</text>
</a>
</g>
</g>
<!-- Node8&#45;&gt;Node21 -->
<g id="edge20" class="edge">
<title>Node8&#45;&gt;Node21</title>
<path fill="none" stroke="midnightblue" d="M2638.22,-244.19C2720.13,-236.96 2865.65,-222.35 2999.33,-199.08"/>
<polygon fill="midnightblue" stroke="midnightblue" points="3000.1,-202.5 3009.34,-197.32 2998.88,-195.61 3000.1,-202.5"/>
</g>
<!-- Node22 -->
<g id="node22" class="node">
<title>Node22</title>
<g id="a_node22"><a xlink:title=" ">
<polygon fill="none" stroke="#bfbfbf" points="3131.5,-168.5 3131.5,-198.5 3235.5,-198.5 3235.5,-168.5 3131.5,-168.5"/>
<text text-anchor="start" x="3139.5" y="-186.5" font-family="Helvetica,sans-Serif" font-size="10.00">boost/numeric/ublas</text>
<text text-anchor="middle" x="3183.5" y="-175.5" font-family="Helvetica,sans-Serif" font-size="10.00">/io.hpp</text>
</a>
</g>
</g>
<!-- Node8&#45;&gt;Node22 -->
<g id="edge21" class="edge">
<title>Node8&#45;&gt;Node22</title>
<path fill="none" stroke="midnightblue" d="M2638.11,-246.53C2739.27,-241.22 2941.24,-227.99 3121.43,-199.02"/>
<polygon fill="midnightblue" stroke="midnightblue" points="3122.05,-202.47 3131.35,-197.41 3120.92,-195.56 3122.05,-202.47"/>
</g>
<!-- Node23 -->
<g id="node23" class="node">
<title>Node23</title>
<g id="a_node23"><a xlink:title=" ">
<polygon fill="none" stroke="#bfbfbf" points="3253.5,-168.5 3253.5,-198.5 3357.5,-198.5 3357.5,-168.5 3253.5,-168.5"/>
<text text-anchor="start" x="3261.5" y="-186.5" font-family="Helvetica,sans-Serif" font-size="10.00">boost/numeric/ublas</text>
<text text-anchor="middle" x="3305.5" y="-175.5" font-family="Helvetica,sans-Serif" font-size="10.00">/operation.hpp</text>
</a>
</g>
</g>
<!-- Node8&#45;&gt;Node23 -->
<g id="edge22" class="edge">
<title>Node8&#45;&gt;Node23</title>
<path fill="none" stroke="midnightblue" d="M2638.19,-248.03C2756.57,-244.6 3015.99,-233.65 3243.25,-199.03"/>
<polygon fill="midnightblue" stroke="midnightblue" points="3244.01,-202.45 3253.36,-197.47 3242.95,-195.53 3244.01,-202.45"/>
</g>
<!-- Node24 -->
<g id="node24" class="node">
<title>Node24</title>
<g id="a_node24"><a xlink:title=" ">
<polygon fill="none" stroke="#bfbfbf" points="3375.5,-168.5 3375.5,-198.5 3479.5,-198.5 3479.5,-168.5 3375.5,-168.5"/>
<text text-anchor="start" x="3383.5" y="-186.5" font-family="Helvetica,sans-Serif" font-size="10.00">boost/numeric/ublas</text>
<text text-anchor="middle" x="3427.5" y="-175.5" font-family="Helvetica,sans-Serif" font-size="10.00">/lu.hpp</text>
</a>
</g>
</g>
<!-- Node8&#45;&gt;Node24 -->
<g id="edge23" class="edge">
<title>Node8&#45;&gt;Node24</title>
<path fill="none" stroke="midnightblue" d="M2638.14,-249.09C2772.18,-247.44 3090.18,-239.35 3365.19,-199.02"/>
<polygon fill="midnightblue" stroke="midnightblue" points="3365.99,-202.44 3375.37,-197.51 3364.96,-195.51 3365.99,-202.44"/>
</g>
<!-- Node25 -->
<g id="node25" class="node">
<title>Node25</title>
<g id="a_node25"><a xlink:title=" ">
<polygon fill="none" stroke="#bfbfbf" points="3497.5,-168.5 3497.5,-198.5 3609.5,-198.5 3609.5,-168.5 3497.5,-168.5"/>
<text text-anchor="start" x="3505.5" y="-186.5" font-family="Helvetica,sans-Serif" font-size="10.00">boost/numeric/ublas</text>
<text text-anchor="middle" x="3553.5" y="-175.5" font-family="Helvetica,sans-Serif" font-size="10.00">/operation_sparse.hpp</text>
</a>
</g>
</g>
<!-- Node8&#45;&gt;Node25 -->
<g id="edge24" class="edge">
<title>Node8&#45;&gt;Node25</title>
<path fill="none" stroke="midnightblue" d="M2638.19,-249.57C2786.78,-248.95 3163.89,-242.9 3487.2,-199.02"/>
<polygon fill="midnightblue" stroke="midnightblue" points="3487.8,-202.47 3497.23,-197.65 3486.85,-195.54 3487.8,-202.47"/>
</g>
<!-- Node8&#45;&gt;Node26 -->
<g id="edge25" class="edge">
<title>Node8&#45;&gt;Node26</title>
<path fill="none" stroke="midnightblue" d="M2508.98,-245.87C2399.64,-239.14 2182.77,-223.2 2110.5,-199 2084.99,-190.46 2084.12,-176.22 2058.5,-168 1774.4,-76.82 1687.23,-131.65 1389.5,-112 1062.11,-90.39 975.87,-110.88 645.58,-75.97"/>
<polygon fill="midnightblue" stroke="midnightblue" points="645.55,-72.45 635.23,-74.87 644.81,-79.41 645.55,-72.45"/>
</g>
<!-- Node26&#45;&gt;Node7 -->
<g id="edge28" class="edge">
<title>Node26&#45;&gt;Node7</title>
<path fill="none" stroke="midnightblue" d="M561.19,-56.44C529.66,-47.24 479.37,-32.56 444.51,-22.39"/>
<polygon fill="midnightblue" stroke="midnightblue" points="445.26,-18.96 434.68,-19.52 443.3,-25.68 445.26,-18.96"/>
</g>
<!-- Node27 -->
<g id="node27" class="node">
<title>Node27</title>
<g id="a_node27"><a xlink:title=" ">
<polygon fill="none" stroke="#bfbfbf" points="685,-0.5 685,-19.5 744,-19.5 744,-0.5 685,-0.5"/>
<text text-anchor="middle" x="714.5" y="-7.5" font-family="Helvetica,sans-Serif" font-size="10.00">stdexcept</text>
</a>
</g>
</g>
<!-- Node26&#45;&gt;Node27 -->
<g id="edge26" class="edge">
<title>Node26&#45;&gt;Node27</title>
<path fill="none" stroke="midnightblue" d="M610.15,-56.44C630.46,-47.6 662.4,-33.69 685.6,-23.59"/>
<polygon fill="midnightblue" stroke="midnightblue" points="687.17,-26.72 694.94,-19.52 684.38,-20.3 687.17,-26.72"/>
</g>
<!-- Node28 -->
<g id="node28" class="node">
<title>Node28</title>
<g id="a_node28"><a xlink:title=" ">
<polygon fill="none" stroke="#bfbfbf" points="475.5,-0.5 475.5,-19.5 527.5,-19.5 527.5,-0.5 475.5,-0.5"/>
<text text-anchor="middle" x="501.5" y="-7.5" font-family="Helvetica,sans-Serif" font-size="10.00">sstream</text>
</a>
</g>
</g>
<!-- Node26&#45;&gt;Node28 -->
<g id="edge27" class="edge">
<title>Node26&#45;&gt;Node28</title>
<path fill="none" stroke="midnightblue" d="M576.2,-56.32C562.32,-47.9 541.01,-34.97 524.7,-25.07"/>
<polygon fill="midnightblue" stroke="midnightblue" points="526.13,-21.85 515.76,-19.65 522.5,-27.83 526.13,-21.85"/>
</g>
<!-- Node29 -->
<g id="node29" class="node">
<title>Node29</title>
<g id="a_node29"><a xlink:title=" ">
<polygon fill="none" stroke="#bfbfbf" points="762,-0.5 762,-19.5 893,-19.5 893,-0.5 762,-0.5"/>
<text text-anchor="middle" x="827.5" y="-7.5" font-family="Helvetica,sans-Serif" font-size="10.00">boost/current_function.hpp</text>
</a>
</g>
</g>
<!-- Node26&#45;&gt;Node29 -->
<g id="edge29" class="edge">
<title>Node26&#45;&gt;Node29</title>
<path fill="none" stroke="midnightblue" d="M628.05,-56.44C669.31,-47.04 735.64,-31.93 780.37,-21.74"/>
<polygon fill="midnightblue" stroke="midnightblue" points="781.15,-25.15 790.12,-19.52 779.59,-18.33 781.15,-25.15"/>
</g>
<!-- Node30 -->
<g id="node30" class="node">
<title>Node30</title>
<g id="a_node30"><a xlink:href="../../de/d17/kratos__config_8h.html" target="_top" xlink:title=" ">
<polygon fill="none" stroke="black" points="546,-0.5 546,-19.5 667,-19.5 667,-0.5 546,-0.5"/>
<text text-anchor="middle" x="606.5" y="-7.5" font-family="Helvetica,sans-Serif" font-size="10.00">includes/kratos_config.h</text>
</a>
</g>
</g>
<!-- Node26&#45;&gt;Node30 -->
<g id="edge30" class="edge">
<title>Node26&#45;&gt;Node30</title>
<path fill="none" stroke="midnightblue" d="M593.14,-56.08C595.29,-48.85 598.38,-38.41 601.05,-29.4"/>
<polygon fill="midnightblue" stroke="midnightblue" points="604.42,-30.33 603.91,-19.75 597.71,-28.34 604.42,-30.33"/>
</g>
<!-- Node32 -->
<g id="node32" class="node">
<title>Node32</title>
<g id="a_node32"><a xlink:title=" ">
<polygon fill="none" stroke="#bfbfbf" points="605,-168.5 605,-198.5 722,-198.5 722,-168.5 605,-168.5"/>
<text text-anchor="start" x="613" y="-186.5" font-family="Helvetica,sans-Serif" font-size="10.00">boost/numeric/bindings</text>
<text text-anchor="middle" x="663.5" y="-175.5" font-family="Helvetica,sans-Serif" font-size="10.00">/traits/config.hpp</text>
</a>
</g>
</g>
<!-- Node31&#45;&gt;Node32 -->
<g id="edge32" class="edge">
<title>Node31&#45;&gt;Node32</title>
<path fill="none" stroke="midnightblue" d="M663.5,-235.4C663.5,-227.64 663.5,-217.81 663.5,-208.86"/>
<polygon fill="midnightblue" stroke="midnightblue" points="667,-208.58 663.5,-198.58 660,-208.58 667,-208.58"/>
</g>
<!-- Node33 -->
<g id="node33" class="node">
<title>Node33</title>
<g id="a_node33"><a xlink:title=" ">
<polygon fill="none" stroke="#bfbfbf" points="740,-168.5 740,-198.5 857,-198.5 857,-168.5 740,-168.5"/>
<text text-anchor="start" x="748" y="-186.5" font-family="Helvetica,sans-Serif" font-size="10.00">boost/numeric/bindings</text>
<text text-anchor="middle" x="798.5" y="-175.5" font-family="Helvetica,sans-Serif" font-size="10.00">/traits/traits.hpp</text>
</a>
</g>
</g>
<!-- Node31&#45;&gt;Node33 -->
<g id="edge33" class="edge">
<title>Node31&#45;&gt;Node33</title>
<path fill="none" stroke="midnightblue" d="M692.79,-235.4C712.52,-225.9 738.73,-213.28 760.12,-202.98"/>
<polygon fill="midnightblue" stroke="midnightblue" points="761.77,-206.07 769.26,-198.58 758.74,-199.76 761.77,-206.07"/>
</g>
<!-- Node34&#45;&gt;Node15 -->
<g id="edge36" class="edge">
<title>Node34&#45;&gt;Node15</title>
<path fill="none" stroke="midnightblue" d="M1060.26,-242.63C1083.92,-240.01 1111.49,-237.14 1136.5,-235 1384.34,-213.82 1451.45,-235.69 1701.26,-199.01"/>
<polygon fill="midnightblue" stroke="midnightblue" points="1701.99,-202.44 1711.37,-197.51 1700.96,-195.51 1701.99,-202.44"/>
</g>
<!-- Node34&#45;&gt;Node33 -->
<g id="edge35" class="edge">
<title>Node34&#45;&gt;Node33</title>
<path fill="none" stroke="midnightblue" d="M957.45,-235.4C926.59,-225.52 885.17,-212.25 852.35,-201.74"/>
<polygon fill="midnightblue" stroke="midnightblue" points="853.05,-198.29 842.46,-198.58 850.92,-204.96 853.05,-198.29"/>
</g>
<!-- Node35 -->
<g id="node35" class="node">
<title>Node35</title>
<g id="a_node35"><a xlink:title=" ">
<polygon fill="none" stroke="#bfbfbf" points="1281.5,-168.5 1281.5,-198.5 1433.5,-198.5 1433.5,-168.5 1281.5,-168.5"/>
<text text-anchor="start" x="1289.5" y="-186.5" font-family="Helvetica,sans-Serif" font-size="10.00">boost/numeric/bindings</text>
<text text-anchor="middle" x="1357.5" y="-175.5" font-family="Helvetica,sans-Serif" font-size="10.00">/traits/detail/ublas_ordering.hpp</text>
</a>
</g>
</g>
<!-- Node34&#45;&gt;Node35 -->
<g id="edge37" class="edge">
<title>Node34&#45;&gt;Node35</title>
<path fill="none" stroke="midnightblue" d="M1060.29,-238.77C1117.77,-228.27 1205.94,-212.17 1271.34,-200.23"/>
<polygon fill="midnightblue" stroke="midnightblue" points="1272.02,-203.67 1281.22,-198.43 1270.76,-196.78 1272.02,-203.67"/>
</g>
<!-- Node36 -->
<g id="node36" class="node">
<title>Node36</title>
<g id="a_node36"><a xlink:title=" ">
<polygon fill="none" stroke="#bfbfbf" points="875.5,-174 875.5,-193 993.5,-193 993.5,-174 875.5,-174"/>
<text text-anchor="middle" x="934.5" y="-181" font-family="Helvetica,sans-Serif" font-size="10.00">boost/static_assert.hpp</text>
</a>
</g>
</g>
<!-- Node34&#45;&gt;Node36 -->
<g id="edge38" class="edge">
<title>Node34&#45;&gt;Node36</title>
<path fill="none" stroke="midnightblue" d="M986.96,-235.4C976.31,-225.06 961.84,-211.02 950.8,-200.31"/>
<polygon fill="midnightblue" stroke="midnightblue" points="953.08,-197.65 943.46,-193.19 948.2,-202.67 953.08,-197.65"/>
</g>
<!-- Node37 -->
<g id="node37" class="node">
<title>Node37</title>
<g id="a_node37"><a xlink:title=" ">
<polygon fill="none" stroke="#bfbfbf" points="1011.5,-168.5 1011.5,-198.5 1127.5,-198.5 1127.5,-168.5 1011.5,-168.5"/>
<text text-anchor="start" x="1019.5" y="-186.5" font-family="Helvetica,sans-Serif" font-size="10.00">boost/type_traits/same</text>
<text text-anchor="middle" x="1069.5" y="-175.5" font-family="Helvetica,sans-Serif" font-size="10.00">_traits.hpp</text>
</a>
</g>
</g>
<!-- Node34&#45;&gt;Node37 -->
<g id="edge39" class="edge">
<title>Node34&#45;&gt;Node37</title>
<path fill="none" stroke="midnightblue" d="M1016.25,-235.4C1025.34,-226.71 1037.17,-215.4 1047.37,-205.66"/>
<polygon fill="midnightblue" stroke="midnightblue" points="1049.96,-208.02 1054.77,-198.58 1045.13,-202.96 1049.96,-208.02"/>
</g>
<!-- Node38&#45;&gt;Node16 -->
<g id="edge42" class="edge">
<title>Node38&#45;&gt;Node16</title>
<path fill="none" stroke="midnightblue" d="M1801.44,-235.48C1840.82,-225.24 1894.3,-211.33 1935.46,-200.63"/>
<polygon fill="midnightblue" stroke="midnightblue" points="1936.57,-203.96 1945.37,-198.05 1934.81,-197.18 1936.57,-203.96"/>
</g>
<!-- Node38&#45;&gt;Node35 -->
<g id="edge44" class="edge">
<title>Node38&#45;&gt;Node35</title>
<path fill="none" stroke="midnightblue" d="M1687.3,-239.62C1627.93,-229.86 1534.32,-214.41 1443.83,-199.22"/>
<polygon fill="midnightblue" stroke="midnightblue" points="1444.39,-195.77 1433.95,-197.56 1443.23,-202.67 1444.39,-195.77"/>
</g>
<!-- Node39 -->
<g id="node39" class="node">
<title>Node39</title>
<g id="a_node39"><a xlink:title=" ">
<polygon fill="none" stroke="#bfbfbf" points="1331,-112.5 1331,-131.5 1380,-131.5 1380,-112.5 1331,-112.5"/>
<text text-anchor="middle" x="1355.5" y="-119.5" font-family="Helvetica,sans-Serif" font-size="10.00">cstddef</text>
</a>
</g>
</g>
<!-- Node38&#45;&gt;Node39 -->
<g id="edge41" class="edge">
<title>Node38&#45;&gt;Node39</title>
<path fill="none" stroke="midnightblue" d="M1807.61,-238.8C1862.67,-226.5 1931.03,-203.34 1898.5,-168 1864.09,-130.62 1505.07,-124.29 1390.46,-123.22"/>
<polygon fill="midnightblue" stroke="midnightblue" points="1390.18,-119.71 1380.15,-123.13 1390.12,-126.71 1390.18,-119.71"/>
</g>
<!-- Node40 -->
<g id="node40" class="node">
<title>Node40</title>
<g id="a_node40"><a xlink:title=" ">
<polygon fill="none" stroke="#bfbfbf" points="1574,-168.5 1574,-198.5 1693,-198.5 1693,-168.5 1574,-168.5"/>
<text text-anchor="start" x="1582" y="-186.5" font-family="Helvetica,sans-Serif" font-size="10.00">boost/numeric/bindings</text>
<text text-anchor="middle" x="1633.5" y="-175.5" font-family="Helvetica,sans-Serif" font-size="10.00">/traits/sparse_traits.hpp</text>
</a>
</g>
</g>
<!-- Node38&#45;&gt;Node40 -->
<g id="edge43" class="edge">
<title>Node38&#45;&gt;Node40</title>
<path fill="none" stroke="midnightblue" d="M1722.76,-235.4C1706.48,-226.11 1684.96,-213.84 1667.13,-203.67"/>
<polygon fill="midnightblue" stroke="midnightblue" points="1668.61,-200.49 1658.19,-198.58 1665.14,-206.57 1668.61,-200.49"/>
</g>
<!-- Node41 -->
<g id="node41" class="node">
<title>Node41</title>
<g id="a_node41"><a xlink:title=" ">
<polygon fill="none" stroke="#bfbfbf" points="1833.5,-174 1833.5,-193 1889.5,-193 1889.5,-174 1833.5,-174"/>
<text text-anchor="middle" x="1861.5" y="-181" font-family="Helvetica,sans-Serif" font-size="10.00">algorithm</text>
</a>
</g>
</g>
<!-- Node38&#45;&gt;Node41 -->
<g id="edge45" class="edge">
<title>Node38&#45;&gt;Node41</title>
<path fill="none" stroke="midnightblue" d="M1772.24,-235.4C1791.71,-224.29 1818.67,-208.92 1837.85,-197.98"/>
<polygon fill="midnightblue" stroke="midnightblue" points="1839.63,-201 1846.58,-193.01 1836.16,-194.92 1839.63,-201"/>
</g>
<!-- Node42&#45;&gt;Node11 -->
<g id="edge48" class="edge">
<title>Node42&#45;&gt;Node11</title>
<path fill="none" stroke="midnightblue" d="M1263.76,-237.34C1309.71,-227.82 1375.22,-214.04 1441.49,-199.2"/>
<polygon fill="midnightblue" stroke="midnightblue" points="1442.29,-202.61 1451.28,-197 1440.75,-195.78 1442.29,-202.61"/>
</g>
<!-- Node43 -->
<g id="node43" class="node">
<title>Node43</title>
<g id="a_node43"><a xlink:title=" ">
<polygon fill="none" stroke="#bfbfbf" points="1146,-168.5 1146,-198.5 1263,-198.5 1263,-168.5 1146,-168.5"/>
<text text-anchor="start" x="1154" y="-186.5" font-family="Helvetica,sans-Serif" font-size="10.00">boost/numeric/bindings</text>
<text text-anchor="middle" x="1204.5" y="-175.5" font-family="Helvetica,sans-Serif" font-size="10.00">/traits/vector_traits.hpp</text>
</a>
</g>
</g>
<!-- Node42&#45;&gt;Node43 -->
<g id="edge47" class="edge">
<title>Node42&#45;&gt;Node43</title>
<path fill="none" stroke="midnightblue" d="M1204.5,-235.4C1204.5,-227.64 1204.5,-217.81 1204.5,-208.86"/>
<polygon fill="midnightblue" stroke="midnightblue" points="1208,-208.58 1204.5,-198.58 1201,-208.58 1208,-208.58"/>
</g>
<!-- Node44&#45;&gt;Node7 -->
<g id="edge51" class="edge">
<title>Node44&#45;&gt;Node7</title>
<path fill="none" stroke="midnightblue" d="M478.85,-235.29C465.43,-194.26 426.61,-75.55 411.56,-29.53"/>
<polygon fill="midnightblue" stroke="midnightblue" points="414.86,-28.36 408.43,-19.95 408.21,-30.54 414.86,-28.36"/>
</g>
<!-- Node44&#45;&gt;Node26 -->
<g id="edge52" class="edge">
<title>Node44&#45;&gt;Node26</title>
<path fill="none" stroke="midnightblue" d="M484.01,-235.21C485.12,-218.33 488.6,-189.8 499.5,-168 517.12,-132.75 550.48,-100.51 571.54,-82.35"/>
<polygon fill="midnightblue" stroke="midnightblue" points="574.07,-84.8 579.47,-75.68 569.57,-79.44 574.07,-84.8"/>
</g>
<!-- Node45 -->
<g id="node45" class="node">
<title>Node45</title>
<g id="a_node45"><a xlink:href="../../d2/d9f/linear__solver_8h.html" target="_top" xlink:title=" ">
<polygon fill="none" stroke="black" points="508,-174 508,-193 587,-193 587,-174 508,-174"/>
<text text-anchor="middle" x="547.5" y="-181" font-family="Helvetica,sans-Serif" font-size="10.00">linear_solver.h</text>
</a>
</g>
</g>
<!-- Node44&#45;&gt;Node45 -->
<g id="edge53" class="edge">
<title>Node44&#45;&gt;Node45</title>
<path fill="none" stroke="midnightblue" d="M497.39,-235.4C507.46,-225.16 521.12,-211.3 531.63,-200.62"/>
<polygon fill="midnightblue" stroke="midnightblue" points="534.42,-202.78 538.94,-193.19 529.43,-197.86 534.42,-202.78"/>
</g>
<!-- Node45&#45;&gt;Node9 -->
<g id="edge54" class="edge">
<title>Node45&#45;&gt;Node9</title>
<path fill="none" stroke="midnightblue" d="M556.97,-173.82C578.13,-154.42 629.5,-107.33 656.41,-82.66"/>
<polygon fill="midnightblue" stroke="midnightblue" points="658.91,-85.12 663.92,-75.78 654.18,-79.96 658.91,-85.12"/>
</g>
<!-- Node45&#45;&gt;Node10 -->
<g id="edge55" class="edge">
<title>Node45&#45;&gt;Node10</title>
<path fill="none" stroke="midnightblue" d="M576.08,-173.97C622.13,-160.18 707.91,-134.3 710.5,-132 724.2,-119.84 731.76,-99.97 735.69,-85.4"/>
<polygon fill="midnightblue" stroke="midnightblue" points="739.14,-86.04 738.04,-75.5 732.33,-84.42 739.14,-86.04"/>
</g>
<!-- Node45&#45;&gt;Node26 -->
<g id="edge58" class="edge">
<title>Node45&#45;&gt;Node26</title>
<path fill="none" stroke="midnightblue" d="M550.73,-173.82C557.7,-155.09 574.29,-110.55 583.69,-85.29"/>
<polygon fill="midnightblue" stroke="midnightblue" points="587.02,-86.37 587.23,-75.78 580.46,-83.93 587.02,-86.37"/>
</g>
<!-- Node45&#45;&gt;Node28 -->
<g id="edge56" class="edge">
<title>Node45&#45;&gt;Node28</title>
<path fill="none" stroke="midnightblue" d="M545.16,-173.76C537.99,-147.04 516.26,-66.02 506.43,-29.36"/>
<polygon fill="midnightblue" stroke="midnightblue" points="509.76,-28.27 503.79,-19.52 503,-30.08 509.76,-28.27"/>
</g>
<!-- Node45&#45;&gt;Node39 -->
<g id="edge57" class="edge">
<title>Node45&#45;&gt;Node39</title>
<path fill="none" stroke="midnightblue" d="M572.42,-173.93C580.06,-171.63 588.55,-169.39 596.5,-168 738.62,-143.1 1191.47,-127.91 1320.74,-124.01"/>
<polygon fill="midnightblue" stroke="midnightblue" points="1320.97,-127.5 1330.86,-123.7 1320.76,-120.5 1320.97,-127.5"/>
</g>
<!-- Node46 -->
<g id="node46" class="node">
<title>Node46</title>
<g id="a_node46"><a xlink:href="../../d5/d67/reorderer_8h.html" target="_top" xlink:title=" ">
<polygon fill="none" stroke="black" points="639.5,-112.5 639.5,-131.5 701.5,-131.5 701.5,-112.5 639.5,-112.5"/>
<text text-anchor="middle" x="670.5" y="-119.5" font-family="Helvetica,sans-Serif" font-size="10.00">reorderer.h</text>
</a>
</g>
</g>
<!-- Node45&#45;&gt;Node46 -->
<g id="edge59" class="edge">
<title>Node45&#45;&gt;Node46</title>
<path fill="none" stroke="midnightblue" d="M565.12,-173.98C585.67,-164.03 619.86,-147.49 643.71,-135.96"/>
<polygon fill="midnightblue" stroke="midnightblue" points="645.43,-139.01 652.91,-131.51 642.38,-132.71 645.43,-139.01"/>
</g>
<!-- Node46&#45;&gt;Node9 -->
<g id="edge60" class="edge">
<title>Node46&#45;&gt;Node9</title>
<path fill="none" stroke="midnightblue" d="M671,-112.08C671.39,-105.01 671.95,-94.86 672.45,-85.99"/>
<polygon fill="midnightblue" stroke="midnightblue" points="675.95,-85.93 673.01,-75.75 668.96,-85.54 675.95,-85.93"/>
</g>
<!-- Node46&#45;&gt;Node10 -->
<g id="edge61" class="edge">
<title>Node46&#45;&gt;Node10</title>
<path fill="none" stroke="midnightblue" d="M681.59,-112.32C691.99,-104.18 707.76,-91.84 720.22,-82.09"/>
<polygon fill="midnightblue" stroke="midnightblue" points="722.49,-84.75 728.21,-75.83 718.18,-79.24 722.49,-84.75"/>
</g>
<!-- Node46&#45;&gt;Node26 -->
<g id="edge62" class="edge">
<title>Node46&#45;&gt;Node26</title>
<path fill="none" stroke="midnightblue" d="M657.65,-112.32C645.28,-103.98 626.37,-91.21 611.76,-81.35"/>
<polygon fill="midnightblue" stroke="midnightblue" points="613.57,-78.35 603.32,-75.65 609.65,-84.15 613.57,-78.35"/>
</g>
</g>
</svg>
