<?xml version="1.0" encoding="UTF-8" standalone="no"?>
<!DOCTYPE svg PUBLIC "-//W3C//DTD SVG 1.1//EN"
 "http://www.w3.org/Graphics/SVG/1.1/DTD/svg11.dtd">
<!-- Generated by graphviz version 2.48.0 (20210719.0153)
 -->
<!-- Title: boost::numeric::ublas::matrix&lt; T, L, A &gt; Pages: 1 -->
<svg width="1313pt" height="849pt"
 viewBox="0.00 0.00 1313.00 849.00" xmlns="http://www.w3.org/2000/svg" xmlns:xlink="http://www.w3.org/1999/xlink">
<g id="graph0" class="graph" transform="scale(1 1) rotate(0) translate(4 845)">
<title>boost::numeric::ublas::matrix&lt; T, L, A &gt;</title>
<!-- Node1 -->
<g id="node1" class="node">
<title>Node1</title>
<g id="a_node1"><a xlink:title=" ">
<polygon fill="#bfbfbf" stroke="black" points="599,-237.5 599,-415.5 706,-415.5 706,-237.5 599,-237.5"/>
<text text-anchor="start" x="607" y="-403.5" font-family="Helvetica,sans-Serif" font-size="10.00">boost::numeric::ublas</text>
<text text-anchor="middle" x="652.5" y="-392.5" font-family="Helvetica,sans-Serif" font-size="10.00">::matrix&lt; T, L, A &gt;</text>
<polyline fill="none" stroke="black" points="599,-385.5 706,-385.5 "/>
<text text-anchor="middle" x="652.5" y="-373.5" font-family="Helvetica,sans-Serif" font-size="10.00"> </text>
<polyline fill="none" stroke="black" points="599,-366.5 706,-366.5 "/>
<text text-anchor="start" x="607" y="-354.5" font-family="Helvetica,sans-Serif" font-size="10.00">+ matrix()</text>
<text text-anchor="start" x="607" y="-343.5" font-family="Helvetica,sans-Serif" font-size="10.00">+ matrix()</text>
<text text-anchor="start" x="607" y="-332.5" font-family="Helvetica,sans-Serif" font-size="10.00">+ matrix()</text>
<text text-anchor="start" x="607" y="-321.5" font-family="Helvetica,sans-Serif" font-size="10.00">+ matrix()</text>
<text text-anchor="start" x="607" y="-310.5" font-family="Helvetica,sans-Serif" font-size="10.00">+ matrix()</text>
<text text-anchor="start" x="607" y="-299.5" font-family="Helvetica,sans-Serif" font-size="10.00">+ size1()</text>
<text text-anchor="start" x="607" y="-288.5" font-family="Helvetica,sans-Serif" font-size="10.00">+ size2()</text>
<text text-anchor="start" x="607" y="-277.5" font-family="Helvetica,sans-Serif" font-size="10.00">+ data()</text>
<text text-anchor="start" x="607" y="-266.5" font-family="Helvetica,sans-Serif" font-size="10.00">+ data()</text>
<text text-anchor="start" x="607" y="-255.5" font-family="Helvetica,sans-Serif" font-size="10.00">+ resize()</text>
<text text-anchor="start" x="607" y="-244.5" font-family="Helvetica,sans-Serif" font-size="10.00">and 90 more...</text>
</a>
</g>
</g>
<!-- Node5 -->
<g id="node5" class="node">
<title>Node5</title>
<g id="a_node5"><a xlink:href="../../d2/d8e/classboost_1_1numeric_1_1ublas_1_1bounded__matrix.html" target="_top" xlink:title=" ">
<polygon fill="none" stroke="black" points="0,-0.5 0,-200.5 129,-200.5 129,-0.5 0,-0.5"/>
<text text-anchor="start" x="8" y="-188.5" font-family="Helvetica,sans-Serif" font-size="10.00">boost::numeric::ublas</text>
<text text-anchor="start" x="8" y="-177.5" font-family="Helvetica,sans-Serif" font-size="10.00">::bounded_matrix&lt; double,</text>
<text text-anchor="middle" x="64.5" y="-166.5" font-family="Helvetica,sans-Serif" font-size="10.00"> TDim, TDim &gt;</text>
<polyline fill="none" stroke="black" points="0,-159.5 129,-159.5 "/>
<text text-anchor="start" x="8" y="-147.5" font-family="Helvetica,sans-Serif" font-size="10.00">+ max_size1</text>
<text text-anchor="start" x="8" y="-136.5" font-family="Helvetica,sans-Serif" font-size="10.00">+ max_size2</text>
<polyline fill="none" stroke="black" points="0,-129.5 129,-129.5 "/>
<text text-anchor="start" x="8" y="-117.5" font-family="Helvetica,sans-Serif" font-size="10.00">+ bounded_matrix()</text>
<text text-anchor="start" x="8" y="-106.5" font-family="Helvetica,sans-Serif" font-size="10.00">+ bounded_matrix()</text>
<text text-anchor="start" x="8" y="-95.5" font-family="Helvetica,sans-Serif" font-size="10.00">+ bounded_matrix()</text>
<text text-anchor="start" x="8" y="-84.5" font-family="Helvetica,sans-Serif" font-size="10.00">+ bounded_matrix()</text>
<text text-anchor="start" x="8" y="-73.5" font-family="Helvetica,sans-Serif" font-size="10.00">+ bounded_matrix()</text>
<text text-anchor="start" x="8" y="-62.5" font-family="Helvetica,sans-Serif" font-size="10.00">+ bounded_matrix()</text>
<text text-anchor="start" x="8" y="-51.5" font-family="Helvetica,sans-Serif" font-size="10.00">+ bounded_matrix()</text>
<text text-anchor="start" x="8" y="-40.5" font-family="Helvetica,sans-Serif" font-size="10.00">+ bounded_matrix()</text>
<text text-anchor="start" x="8" y="-29.5" font-family="Helvetica,sans-Serif" font-size="10.00">+ bounded_matrix()</text>
<text text-anchor="start" x="8" y="-18.5" font-family="Helvetica,sans-Serif" font-size="10.00">+ bounded_matrix()</text>
<text text-anchor="start" x="8" y="-7.5" font-family="Helvetica,sans-Serif" font-size="10.00">and 10 more...</text>
</a>
</g>
</g>
<!-- Node1&#45;&gt;Node5 -->
<g id="edge7" class="edge">
<title>Node1&#45;&gt;Node5</title>
<path fill="none" stroke="midnightblue" d="M588.62,-324.14C483.77,-319.18 272.8,-297.1 128.5,-201 128.32,-200.88 128.14,-200.76 127.97,-200.64"/>
<polygon fill="none" stroke="midnightblue" points="588.59,-327.64 598.73,-324.58 588.89,-320.65 588.59,-327.64"/>
</g>
<!-- Node1&#45;&gt;Node5 -->
<g id="edge16" class="edge">
<title>Node1&#45;&gt;Node5</title>
<path fill="none" stroke="midnightblue" d="M588.57,-323.54C486.82,-317.51 285.66,-293.67 146.5,-201 140.44,-196.96 134.7,-192.24 129.28,-187.09"/>
<polygon fill="none" stroke="midnightblue" points="588.52,-327.05 598.7,-324.1 588.9,-320.06 588.52,-327.05"/>
</g>
<!-- Node6 -->
<g id="node6" class="node">
<title>Node6</title>
<g id="a_node6"><a xlink:href="../../d2/d8e/classboost_1_1numeric_1_1ublas_1_1bounded__matrix.html" target="_top" xlink:title=" ">
<polygon fill="none" stroke="black" points="147,-0.5 147,-200.5 276,-200.5 276,-0.5 147,-0.5"/>
<text text-anchor="start" x="155" y="-188.5" font-family="Helvetica,sans-Serif" font-size="10.00">boost::numeric::ublas</text>
<text text-anchor="start" x="155" y="-177.5" font-family="Helvetica,sans-Serif" font-size="10.00">::bounded_matrix&lt; double,</text>
<text text-anchor="middle" x="211.5" y="-166.5" font-family="Helvetica,sans-Serif" font-size="10.00"> 6, 12 &gt;</text>
<polyline fill="none" stroke="black" points="147,-159.5 276,-159.5 "/>
<text text-anchor="start" x="155" y="-147.5" font-family="Helvetica,sans-Serif" font-size="10.00">+ max_size1</text>
<text text-anchor="start" x="155" y="-136.5" font-family="Helvetica,sans-Serif" font-size="10.00">+ max_size2</text>
<polyline fill="none" stroke="black" points="147,-129.5 276,-129.5 "/>
<text text-anchor="start" x="155" y="-117.5" font-family="Helvetica,sans-Serif" font-size="10.00">+ bounded_matrix()</text>
<text text-anchor="start" x="155" y="-106.5" font-family="Helvetica,sans-Serif" font-size="10.00">+ bounded_matrix()</text>
<text text-anchor="start" x="155" y="-95.5" font-family="Helvetica,sans-Serif" font-size="10.00">+ bounded_matrix()</text>
<text text-anchor="start" x="155" y="-84.5" font-family="Helvetica,sans-Serif" font-size="10.00">+ bounded_matrix()</text>
<text text-anchor="start" x="155" y="-73.5" font-family="Helvetica,sans-Serif" font-size="10.00">+ bounded_matrix()</text>
<text text-anchor="start" x="155" y="-62.5" font-family="Helvetica,sans-Serif" font-size="10.00">+ bounded_matrix()</text>
<text text-anchor="start" x="155" y="-51.5" font-family="Helvetica,sans-Serif" font-size="10.00">+ bounded_matrix()</text>
<text text-anchor="start" x="155" y="-40.5" font-family="Helvetica,sans-Serif" font-size="10.00">+ bounded_matrix()</text>
<text text-anchor="start" x="155" y="-29.5" font-family="Helvetica,sans-Serif" font-size="10.00">+ bounded_matrix()</text>
<text text-anchor="start" x="155" y="-18.5" font-family="Helvetica,sans-Serif" font-size="10.00">+ bounded_matrix()</text>
<text text-anchor="start" x="155" y="-7.5" font-family="Helvetica,sans-Serif" font-size="10.00">and 10 more...</text>
</a>
</g>
</g>
<!-- Node1&#45;&gt;Node6 -->
<g id="edge8" class="edge">
<title>Node1&#45;&gt;Node6</title>
<path fill="none" stroke="midnightblue" d="M588.77,-317.11C508.88,-303.58 371.13,-271.02 275.5,-201 275.33,-200.87 275.15,-200.75 274.98,-200.62"/>
<polygon fill="none" stroke="midnightblue" points="588.26,-320.57 598.69,-318.74 589.4,-313.66 588.26,-320.57"/>
</g>
<!-- Node1&#45;&gt;Node6 -->
<g id="edge17" class="edge">
<title>Node1&#45;&gt;Node6</title>
<path fill="none" stroke="midnightblue" d="M588.79,-314.82C512.56,-300.06 384.12,-267.35 293.5,-201 287.45,-196.57 281.69,-191.49 276.23,-186.02"/>
<polygon fill="none" stroke="midnightblue" points="588.26,-318.28 598.74,-316.7 589.56,-311.4 588.26,-318.28"/>
</g>
<!-- Node7 -->
<g id="node7" class="node">
<title>Node7</title>
<g id="a_node7"><a xlink:href="../../d2/d8e/classboost_1_1numeric_1_1ublas_1_1bounded__matrix.html" target="_top" xlink:title=" ">
<polygon fill="none" stroke="black" points="294,-0.5 294,-200.5 423,-200.5 423,-0.5 294,-0.5"/>
<text text-anchor="start" x="302" y="-188.5" font-family="Helvetica,sans-Serif" font-size="10.00">boost::numeric::ublas</text>
<text text-anchor="start" x="302" y="-177.5" font-family="Helvetica,sans-Serif" font-size="10.00">::bounded_matrix&lt; double,</text>
<text text-anchor="middle" x="358.5" y="-166.5" font-family="Helvetica,sans-Serif" font-size="10.00"> 6, 6 &gt;</text>
<polyline fill="none" stroke="black" points="294,-159.5 423,-159.5 "/>
<text text-anchor="start" x="302" y="-147.5" font-family="Helvetica,sans-Serif" font-size="10.00">+ max_size1</text>
<text text-anchor="start" x="302" y="-136.5" font-family="Helvetica,sans-Serif" font-size="10.00">+ max_size2</text>
<polyline fill="none" stroke="black" points="294,-129.5 423,-129.5 "/>
<text text-anchor="start" x="302" y="-117.5" font-family="Helvetica,sans-Serif" font-size="10.00">+ bounded_matrix()</text>
<text text-anchor="start" x="302" y="-106.5" font-family="Helvetica,sans-Serif" font-size="10.00">+ bounded_matrix()</text>
<text text-anchor="start" x="302" y="-95.5" font-family="Helvetica,sans-Serif" font-size="10.00">+ bounded_matrix()</text>
<text text-anchor="start" x="302" y="-84.5" font-family="Helvetica,sans-Serif" font-size="10.00">+ bounded_matrix()</text>
<text text-anchor="start" x="302" y="-73.5" font-family="Helvetica,sans-Serif" font-size="10.00">+ bounded_matrix()</text>
<text text-anchor="start" x="302" y="-62.5" font-family="Helvetica,sans-Serif" font-size="10.00">+ bounded_matrix()</text>
<text text-anchor="start" x="302" y="-51.5" font-family="Helvetica,sans-Serif" font-size="10.00">+ bounded_matrix()</text>
<text text-anchor="start" x="302" y="-40.5" font-family="Helvetica,sans-Serif" font-size="10.00">+ bounded_matrix()</text>
<text text-anchor="start" x="302" y="-29.5" font-family="Helvetica,sans-Serif" font-size="10.00">+ bounded_matrix()</text>
<text text-anchor="start" x="302" y="-18.5" font-family="Helvetica,sans-Serif" font-size="10.00">+ bounded_matrix()</text>
<text text-anchor="start" x="302" y="-7.5" font-family="Helvetica,sans-Serif" font-size="10.00">and 10 more...</text>
</a>
</g>
</g>
<!-- Node1&#45;&gt;Node7 -->
<g id="edge9" class="edge">
<title>Node1&#45;&gt;Node7</title>
<path fill="none" stroke="midnightblue" d="M589.67,-302.22C540.43,-280.62 472.34,-245.19 422.5,-201 422.34,-200.86 422.18,-200.72 422.02,-200.57"/>
<polygon fill="none" stroke="midnightblue" points="588.37,-305.47 598.94,-306.22 591.15,-299.05 588.37,-305.47"/>
</g>
<!-- Node1&#45;&gt;Node7 -->
<g id="edge18" class="edge">
<title>Node1&#45;&gt;Node7</title>
<path fill="none" stroke="midnightblue" d="M589.66,-295.33C544.99,-273.45 485.35,-240.77 440.5,-201 434.57,-195.74 428.83,-189.92 423.32,-183.82"/>
<polygon fill="none" stroke="midnightblue" points="588.14,-298.48 598.66,-299.7 591.19,-292.19 588.14,-298.48"/>
</g>
<!-- Node8 -->
<g id="node8" class="node">
<title>Node8</title>
<g id="a_node8"><a xlink:href="../../d2/d8e/classboost_1_1numeric_1_1ublas_1_1bounded__matrix.html" target="_top" xlink:title=" ">
<polygon fill="none" stroke="black" points="441,-0.5 441,-200.5 570,-200.5 570,-0.5 441,-0.5"/>
<text text-anchor="start" x="449" y="-188.5" font-family="Helvetica,sans-Serif" font-size="10.00">boost::numeric::ublas</text>
<text text-anchor="start" x="449" y="-177.5" font-family="Helvetica,sans-Serif" font-size="10.00">::bounded_matrix&lt; double,</text>
<text text-anchor="middle" x="505.5" y="-166.5" font-family="Helvetica,sans-Serif" font-size="10.00"> 2, 2 &gt;</text>
<polyline fill="none" stroke="black" points="441,-159.5 570,-159.5 "/>
<text text-anchor="start" x="449" y="-147.5" font-family="Helvetica,sans-Serif" font-size="10.00">+ max_size1</text>
<text text-anchor="start" x="449" y="-136.5" font-family="Helvetica,sans-Serif" font-size="10.00">+ max_size2</text>
<polyline fill="none" stroke="black" points="441,-129.5 570,-129.5 "/>
<text text-anchor="start" x="449" y="-117.5" font-family="Helvetica,sans-Serif" font-size="10.00">+ bounded_matrix()</text>
<text text-anchor="start" x="449" y="-106.5" font-family="Helvetica,sans-Serif" font-size="10.00">+ bounded_matrix()</text>
<text text-anchor="start" x="449" y="-95.5" font-family="Helvetica,sans-Serif" font-size="10.00">+ bounded_matrix()</text>
<text text-anchor="start" x="449" y="-84.5" font-family="Helvetica,sans-Serif" font-size="10.00">+ bounded_matrix()</text>
<text text-anchor="start" x="449" y="-73.5" font-family="Helvetica,sans-Serif" font-size="10.00">+ bounded_matrix()</text>
<text text-anchor="start" x="449" y="-62.5" font-family="Helvetica,sans-Serif" font-size="10.00">+ bounded_matrix()</text>
<text text-anchor="start" x="449" y="-51.5" font-family="Helvetica,sans-Serif" font-size="10.00">+ bounded_matrix()</text>
<text text-anchor="start" x="449" y="-40.5" font-family="Helvetica,sans-Serif" font-size="10.00">+ bounded_matrix()</text>
<text text-anchor="start" x="449" y="-29.5" font-family="Helvetica,sans-Serif" font-size="10.00">+ bounded_matrix()</text>
<text text-anchor="start" x="449" y="-18.5" font-family="Helvetica,sans-Serif" font-size="10.00">+ bounded_matrix()</text>
<text text-anchor="start" x="449" y="-7.5" font-family="Helvetica,sans-Serif" font-size="10.00">and 10 more...</text>
</a>
</g>
</g>
<!-- Node1&#45;&gt;Node8 -->
<g id="edge10" class="edge">
<title>Node1&#45;&gt;Node8</title>
<path fill="none" stroke="midnightblue" d="M593.19,-245.04C583.56,-230.7 573.58,-215.61 563.97,-200.82"/>
<polygon fill="none" stroke="midnightblue" points="590.33,-247.06 598.83,-253.39 596.13,-243.14 590.33,-247.06"/>
</g>
<!-- Node1&#45;&gt;Node8 -->
<g id="edge19" class="edge">
<title>Node1&#45;&gt;Node8</title>
<path fill="none" stroke="midnightblue" d="M595.77,-228.85C587.39,-215.94 578.71,-202.76 570.19,-190"/>
<polygon fill="none" stroke="midnightblue" points="592.86,-230.79 601.23,-237.29 598.73,-226.99 592.86,-230.79"/>
</g>
<!-- Node9 -->
<g id="node9" class="node">
<title>Node9</title>
<g id="a_node9"><a xlink:href="../../d2/d8e/classboost_1_1numeric_1_1ublas_1_1bounded__matrix.html" target="_top" xlink:title=" ">
<polygon fill="none" stroke="black" points="588,-0.5 588,-200.5 717,-200.5 717,-0.5 588,-0.5"/>
<text text-anchor="start" x="596" y="-188.5" font-family="Helvetica,sans-Serif" font-size="10.00">boost::numeric::ublas</text>
<text text-anchor="start" x="596" y="-177.5" font-family="Helvetica,sans-Serif" font-size="10.00">::bounded_matrix&lt; double,</text>
<text text-anchor="middle" x="652.5" y="-166.5" font-family="Helvetica,sans-Serif" font-size="10.00"> 3, 3 &gt;</text>
<polyline fill="none" stroke="black" points="588,-159.5 717,-159.5 "/>
<text text-anchor="start" x="596" y="-147.5" font-family="Helvetica,sans-Serif" font-size="10.00">+ max_size1</text>
<text text-anchor="start" x="596" y="-136.5" font-family="Helvetica,sans-Serif" font-size="10.00">+ max_size2</text>
<polyline fill="none" stroke="black" points="588,-129.5 717,-129.5 "/>
<text text-anchor="start" x="596" y="-117.5" font-family="Helvetica,sans-Serif" font-size="10.00">+ bounded_matrix()</text>
<text text-anchor="start" x="596" y="-106.5" font-family="Helvetica,sans-Serif" font-size="10.00">+ bounded_matrix()</text>
<text text-anchor="start" x="596" y="-95.5" font-family="Helvetica,sans-Serif" font-size="10.00">+ bounded_matrix()</text>
<text text-anchor="start" x="596" y="-84.5" font-family="Helvetica,sans-Serif" font-size="10.00">+ bounded_matrix()</text>
<text text-anchor="start" x="596" y="-73.5" font-family="Helvetica,sans-Serif" font-size="10.00">+ bounded_matrix()</text>
<text text-anchor="start" x="596" y="-62.5" font-family="Helvetica,sans-Serif" font-size="10.00">+ bounded_matrix()</text>
<text text-anchor="start" x="596" y="-51.5" font-family="Helvetica,sans-Serif" font-size="10.00">+ bounded_matrix()</text>
<text text-anchor="start" x="596" y="-40.5" font-family="Helvetica,sans-Serif" font-size="10.00">+ bounded_matrix()</text>
<text text-anchor="start" x="596" y="-29.5" font-family="Helvetica,sans-Serif" font-size="10.00">+ bounded_matrix()</text>
<text text-anchor="start" x="596" y="-18.5" font-family="Helvetica,sans-Serif" font-size="10.00">+ bounded_matrix()</text>
<text text-anchor="start" x="596" y="-7.5" font-family="Helvetica,sans-Serif" font-size="10.00">and 10 more...</text>
</a>
</g>
</g>
<!-- Node1&#45;&gt;Node9 -->
<g id="edge11" class="edge">
<title>Node1&#45;&gt;Node9</title>
<path fill="none" stroke="midnightblue" d="M645.79,-227.09C645.74,-218.35 645.74,-209.49 645.79,-200.74"/>
<polygon fill="none" stroke="midnightblue" points="642.3,-227.32 645.89,-237.29 649.3,-227.26 642.3,-227.32"/>
</g>
<!-- Node1&#45;&gt;Node9 -->
<g id="edge20" class="edge">
<title>Node1&#45;&gt;Node9</title>
<path fill="none" stroke="midnightblue" d="M659.21,-227.09C659.26,-218.35 659.26,-209.49 659.21,-200.74"/>
<polygon fill="none" stroke="midnightblue" points="655.7,-227.26 659.11,-237.29 662.7,-227.32 655.7,-227.26"/>
</g>
<!-- Node10 -->
<g id="node10" class="node">
<title>Node10</title>
<g id="a_node10"><a xlink:href="../../d2/d8e/classboost_1_1numeric_1_1ublas_1_1bounded__matrix.html" target="_top" xlink:title=" ">
<polygon fill="none" stroke="black" points="735,-0.5 735,-200.5 864,-200.5 864,-0.5 735,-0.5"/>
<text text-anchor="start" x="743" y="-188.5" font-family="Helvetica,sans-Serif" font-size="10.00">boost::numeric::ublas</text>
<text text-anchor="start" x="743" y="-177.5" font-family="Helvetica,sans-Serif" font-size="10.00">::bounded_matrix&lt; double,</text>
<text text-anchor="middle" x="799.5" y="-166.5" font-family="Helvetica,sans-Serif" font-size="10.00"> 4, 3 &gt;</text>
<polyline fill="none" stroke="black" points="735,-159.5 864,-159.5 "/>
<text text-anchor="start" x="743" y="-147.5" font-family="Helvetica,sans-Serif" font-size="10.00">+ max_size1</text>
<text text-anchor="start" x="743" y="-136.5" font-family="Helvetica,sans-Serif" font-size="10.00">+ max_size2</text>
<polyline fill="none" stroke="black" points="735,-129.5 864,-129.5 "/>
<text text-anchor="start" x="743" y="-117.5" font-family="Helvetica,sans-Serif" font-size="10.00">+ bounded_matrix()</text>
<text text-anchor="start" x="743" y="-106.5" font-family="Helvetica,sans-Serif" font-size="10.00">+ bounded_matrix()</text>
<text text-anchor="start" x="743" y="-95.5" font-family="Helvetica,sans-Serif" font-size="10.00">+ bounded_matrix()</text>
<text text-anchor="start" x="743" y="-84.5" font-family="Helvetica,sans-Serif" font-size="10.00">+ bounded_matrix()</text>
<text text-anchor="start" x="743" y="-73.5" font-family="Helvetica,sans-Serif" font-size="10.00">+ bounded_matrix()</text>
<text text-anchor="start" x="743" y="-62.5" font-family="Helvetica,sans-Serif" font-size="10.00">+ bounded_matrix()</text>
<text text-anchor="start" x="743" y="-51.5" font-family="Helvetica,sans-Serif" font-size="10.00">+ bounded_matrix()</text>
<text text-anchor="start" x="743" y="-40.5" font-family="Helvetica,sans-Serif" font-size="10.00">+ bounded_matrix()</text>
<text text-anchor="start" x="743" y="-29.5" font-family="Helvetica,sans-Serif" font-size="10.00">+ bounded_matrix()</text>
<text text-anchor="start" x="743" y="-18.5" font-family="Helvetica,sans-Serif" font-size="10.00">+ bounded_matrix()</text>
<text text-anchor="start" x="743" y="-7.5" font-family="Helvetica,sans-Serif" font-size="10.00">and 10 more...</text>
</a>
</g>
</g>
<!-- Node1&#45;&gt;Node10 -->
<g id="edge12" class="edge">
<title>Node1&#45;&gt;Node10</title>
<path fill="none" stroke="midnightblue" d="M709.23,-228.85C717.61,-215.94 726.29,-202.76 734.81,-190"/>
<polygon fill="none" stroke="midnightblue" points="706.27,-226.99 703.77,-237.29 712.14,-230.79 706.27,-226.99"/>
</g>
<!-- Node1&#45;&gt;Node10 -->
<g id="edge21" class="edge">
<title>Node1&#45;&gt;Node10</title>
<path fill="none" stroke="midnightblue" d="M711.81,-245.04C721.44,-230.7 731.42,-215.61 741.03,-200.82"/>
<polygon fill="none" stroke="midnightblue" points="708.87,-243.14 706.17,-253.39 714.67,-247.06 708.87,-243.14"/>
</g>
<!-- Node11 -->
<g id="node11" class="node">
<title>Node11</title>
<g id="a_node11"><a xlink:href="../../d2/d8e/classboost_1_1numeric_1_1ublas_1_1bounded__matrix.html" target="_top" xlink:title=" ">
<polygon fill="none" stroke="black" points="882,-0.5 882,-200.5 1011,-200.5 1011,-0.5 882,-0.5"/>
<text text-anchor="start" x="890" y="-188.5" font-family="Helvetica,sans-Serif" font-size="10.00">boost::numeric::ublas</text>
<text text-anchor="start" x="890" y="-177.5" font-family="Helvetica,sans-Serif" font-size="10.00">::bounded_matrix&lt; double,</text>
<text text-anchor="middle" x="946.5" y="-166.5" font-family="Helvetica,sans-Serif" font-size="10.00"> 3, 2 &gt;</text>
<polyline fill="none" stroke="black" points="882,-159.5 1011,-159.5 "/>
<text text-anchor="start" x="890" y="-147.5" font-family="Helvetica,sans-Serif" font-size="10.00">+ max_size1</text>
<text text-anchor="start" x="890" y="-136.5" font-family="Helvetica,sans-Serif" font-size="10.00">+ max_size2</text>
<polyline fill="none" stroke="black" points="882,-129.5 1011,-129.5 "/>
<text text-anchor="start" x="890" y="-117.5" font-family="Helvetica,sans-Serif" font-size="10.00">+ bounded_matrix()</text>
<text text-anchor="start" x="890" y="-106.5" font-family="Helvetica,sans-Serif" font-size="10.00">+ bounded_matrix()</text>
<text text-anchor="start" x="890" y="-95.5" font-family="Helvetica,sans-Serif" font-size="10.00">+ bounded_matrix()</text>
<text text-anchor="start" x="890" y="-84.5" font-family="Helvetica,sans-Serif" font-size="10.00">+ bounded_matrix()</text>
<text text-anchor="start" x="890" y="-73.5" font-family="Helvetica,sans-Serif" font-size="10.00">+ bounded_matrix()</text>
<text text-anchor="start" x="890" y="-62.5" font-family="Helvetica,sans-Serif" font-size="10.00">+ bounded_matrix()</text>
<text text-anchor="start" x="890" y="-51.5" font-family="Helvetica,sans-Serif" font-size="10.00">+ bounded_matrix()</text>
<text text-anchor="start" x="890" y="-40.5" font-family="Helvetica,sans-Serif" font-size="10.00">+ bounded_matrix()</text>
<text text-anchor="start" x="890" y="-29.5" font-family="Helvetica,sans-Serif" font-size="10.00">+ bounded_matrix()</text>
<text text-anchor="start" x="890" y="-18.5" font-family="Helvetica,sans-Serif" font-size="10.00">+ bounded_matrix()</text>
<text text-anchor="start" x="890" y="-7.5" font-family="Helvetica,sans-Serif" font-size="10.00">and 10 more...</text>
</a>
</g>
</g>
<!-- Node1&#45;&gt;Node11 -->
<g id="edge13" class="edge">
<title>Node1&#45;&gt;Node11</title>
<path fill="none" stroke="midnightblue" d="M715.34,-295.33C760.01,-273.45 819.65,-240.77 864.5,-201 870.43,-195.74 876.17,-189.92 881.68,-183.82"/>
<polygon fill="none" stroke="midnightblue" points="713.81,-292.19 706.34,-299.7 716.86,-298.48 713.81,-292.19"/>
</g>
<!-- Node1&#45;&gt;Node11 -->
<g id="edge22" class="edge">
<title>Node1&#45;&gt;Node11</title>
<path fill="none" stroke="midnightblue" d="M715.33,-302.22C764.57,-280.62 832.66,-245.19 882.5,-201 882.66,-200.86 882.82,-200.72 882.98,-200.57"/>
<polygon fill="none" stroke="midnightblue" points="713.85,-299.05 706.06,-306.22 716.63,-305.47 713.85,-299.05"/>
</g>
<!-- Node12 -->
<g id="node12" class="node">
<title>Node12</title>
<g id="a_node12"><a xlink:href="../../d2/d8e/classboost_1_1numeric_1_1ublas_1_1bounded__matrix.html" target="_top" xlink:title=" ">
<polygon fill="none" stroke="black" points="1029,-0.5 1029,-200.5 1158,-200.5 1158,-0.5 1029,-0.5"/>
<text text-anchor="start" x="1037" y="-188.5" font-family="Helvetica,sans-Serif" font-size="10.00">boost::numeric::ublas</text>
<text text-anchor="start" x="1037" y="-177.5" font-family="Helvetica,sans-Serif" font-size="10.00">::bounded_matrix&lt; double,</text>
<text text-anchor="middle" x="1093.5" y="-166.5" font-family="Helvetica,sans-Serif" font-size="10.00"> 4, 4 &gt;</text>
<polyline fill="none" stroke="black" points="1029,-159.5 1158,-159.5 "/>
<text text-anchor="start" x="1037" y="-147.5" font-family="Helvetica,sans-Serif" font-size="10.00">+ max_size1</text>
<text text-anchor="start" x="1037" y="-136.5" font-family="Helvetica,sans-Serif" font-size="10.00">+ max_size2</text>
<polyline fill="none" stroke="black" points="1029,-129.5 1158,-129.5 "/>
<text text-anchor="start" x="1037" y="-117.5" font-family="Helvetica,sans-Serif" font-size="10.00">+ bounded_matrix()</text>
<text text-anchor="start" x="1037" y="-106.5" font-family="Helvetica,sans-Serif" font-size="10.00">+ bounded_matrix()</text>
<text text-anchor="start" x="1037" y="-95.5" font-family="Helvetica,sans-Serif" font-size="10.00">+ bounded_matrix()</text>
<text text-anchor="start" x="1037" y="-84.5" font-family="Helvetica,sans-Serif" font-size="10.00">+ bounded_matrix()</text>
<text text-anchor="start" x="1037" y="-73.5" font-family="Helvetica,sans-Serif" font-size="10.00">+ bounded_matrix()</text>
<text text-anchor="start" x="1037" y="-62.5" font-family="Helvetica,sans-Serif" font-size="10.00">+ bounded_matrix()</text>
<text text-anchor="start" x="1037" y="-51.5" font-family="Helvetica,sans-Serif" font-size="10.00">+ bounded_matrix()</text>
<text text-anchor="start" x="1037" y="-40.5" font-family="Helvetica,sans-Serif" font-size="10.00">+ bounded_matrix()</text>
<text text-anchor="start" x="1037" y="-29.5" font-family="Helvetica,sans-Serif" font-size="10.00">+ bounded_matrix()</text>
<text text-anchor="start" x="1037" y="-18.5" font-family="Helvetica,sans-Serif" font-size="10.00">+ bounded_matrix()</text>
<text text-anchor="start" x="1037" y="-7.5" font-family="Helvetica,sans-Serif" font-size="10.00">and 10 more...</text>
</a>
</g>
</g>
<!-- Node1&#45;&gt;Node12 -->
<g id="edge14" class="edge">
<title>Node1&#45;&gt;Node12</title>
<path fill="none" stroke="midnightblue" d="M716.21,-314.82C792.44,-300.06 920.88,-267.35 1011.5,-201 1017.55,-196.57 1023.31,-191.49 1028.77,-186.02"/>
<polygon fill="none" stroke="midnightblue" points="715.44,-311.4 706.26,-316.7 716.74,-318.28 715.44,-311.4"/>
</g>
<!-- Node1&#45;&gt;Node12 -->
<g id="edge23" class="edge">
<title>Node1&#45;&gt;Node12</title>
<path fill="none" stroke="midnightblue" d="M716.23,-317.11C796.12,-303.58 933.87,-271.02 1029.5,-201 1029.67,-200.87 1029.85,-200.75 1030.02,-200.62"/>
<polygon fill="none" stroke="midnightblue" points="715.6,-313.66 706.31,-318.74 716.74,-320.57 715.6,-313.66"/>
</g>
<!-- Node13 -->
<g id="node13" class="node">
<title>Node13</title>
<g id="a_node13"><a xlink:href="../../d2/d8e/classboost_1_1numeric_1_1ublas_1_1bounded__matrix.html" target="_top" xlink:title=" ">
<polygon fill="none" stroke="black" points="1176,-0.5 1176,-200.5 1305,-200.5 1305,-0.5 1176,-0.5"/>
<text text-anchor="start" x="1184" y="-188.5" font-family="Helvetica,sans-Serif" font-size="10.00">boost::numeric::ublas</text>
<text text-anchor="start" x="1184" y="-177.5" font-family="Helvetica,sans-Serif" font-size="10.00">::bounded_matrix&lt; double,</text>
<text text-anchor="middle" x="1240.5" y="-166.5" font-family="Helvetica,sans-Serif" font-size="10.00"> 3, 6 &gt;</text>
<polyline fill="none" stroke="black" points="1176,-159.5 1305,-159.5 "/>
<text text-anchor="start" x="1184" y="-147.5" font-family="Helvetica,sans-Serif" font-size="10.00">+ max_size1</text>
<text text-anchor="start" x="1184" y="-136.5" font-family="Helvetica,sans-Serif" font-size="10.00">+ max_size2</text>
<polyline fill="none" stroke="black" points="1176,-129.5 1305,-129.5 "/>
<text text-anchor="start" x="1184" y="-117.5" font-family="Helvetica,sans-Serif" font-size="10.00">+ bounded_matrix()</text>
<text text-anchor="start" x="1184" y="-106.5" font-family="Helvetica,sans-Serif" font-size="10.00">+ bounded_matrix()</text>
<text text-anchor="start" x="1184" y="-95.5" font-family="Helvetica,sans-Serif" font-size="10.00">+ bounded_matrix()</text>
<text text-anchor="start" x="1184" y="-84.5" font-family="Helvetica,sans-Serif" font-size="10.00">+ bounded_matrix()</text>
<text text-anchor="start" x="1184" y="-73.5" font-family="Helvetica,sans-Serif" font-size="10.00">+ bounded_matrix()</text>
<text text-anchor="start" x="1184" y="-62.5" font-family="Helvetica,sans-Serif" font-size="10.00">+ bounded_matrix()</text>
<text text-anchor="start" x="1184" y="-51.5" font-family="Helvetica,sans-Serif" font-size="10.00">+ bounded_matrix()</text>
<text text-anchor="start" x="1184" y="-40.5" font-family="Helvetica,sans-Serif" font-size="10.00">+ bounded_matrix()</text>
<text text-anchor="start" x="1184" y="-29.5" font-family="Helvetica,sans-Serif" font-size="10.00">+ bounded_matrix()</text>
<text text-anchor="start" x="1184" y="-18.5" font-family="Helvetica,sans-Serif" font-size="10.00">+ bounded_matrix()</text>
<text text-anchor="start" x="1184" y="-7.5" font-family="Helvetica,sans-Serif" font-size="10.00">and 10 more...</text>
</a>
</g>
</g>
<!-- Node1&#45;&gt;Node13 -->
<g id="edge15" class="edge">
<title>Node1&#45;&gt;Node13</title>
<path fill="none" stroke="midnightblue" d="M716.43,-323.54C818.18,-317.51 1019.34,-293.67 1158.5,-201 1164.56,-196.96 1170.3,-192.24 1175.72,-187.09"/>
<polygon fill="none" stroke="midnightblue" points="716.1,-320.06 706.3,-324.1 716.48,-327.05 716.1,-320.06"/>
</g>
<!-- Node1&#45;&gt;Node13 -->
<g id="edge24" class="edge">
<title>Node1&#45;&gt;Node13</title>
<path fill="none" stroke="midnightblue" d="M716.38,-324.14C821.23,-319.18 1032.2,-297.1 1176.5,-201 1176.68,-200.88 1176.86,-200.76 1177.03,-200.64"/>
<polygon fill="none" stroke="midnightblue" points="716.11,-320.65 706.27,-324.58 716.41,-327.64 716.11,-320.65"/>
</g>
<!-- Node2 -->
<g id="node2" class="node">
<title>Node2</title>
<g id="a_node2"><a xlink:href="../../da/d15/classboost_1_1numeric_1_1ublas_1_1matrix__container.html" target="_top" xlink:title=" ">
<polygon fill="none" stroke="black" points="589,-452.5 589,-564.5 716,-564.5 716,-452.5 589,-452.5"/>
<text text-anchor="start" x="597" y="-552.5" font-family="Helvetica,sans-Serif" font-size="10.00">boost::numeric::ublas</text>
<text text-anchor="start" x="597" y="-541.5" font-family="Helvetica,sans-Serif" font-size="10.00">::matrix_container&lt; matrix</text>
<text text-anchor="middle" x="652.5" y="-530.5" font-family="Helvetica,sans-Serif" font-size="10.00">&lt; T, L, A &gt; &gt;</text>
<polyline fill="none" stroke="black" points="589,-523.5 716,-523.5 "/>
<text text-anchor="start" x="597" y="-511.5" font-family="Helvetica,sans-Serif" font-size="10.00">+ complexity</text>
<polyline fill="none" stroke="black" points="589,-504.5 716,-504.5 "/>
<text text-anchor="start" x="597" y="-492.5" font-family="Helvetica,sans-Serif" font-size="10.00">+ operator()()</text>
<text text-anchor="start" x="597" y="-481.5" font-family="Helvetica,sans-Serif" font-size="10.00">+ operator()()</text>
<text text-anchor="start" x="597" y="-470.5" font-family="Helvetica,sans-Serif" font-size="10.00">+ operator()()</text>
<text text-anchor="start" x="597" y="-459.5" font-family="Helvetica,sans-Serif" font-size="10.00">+ operator()()</text>
</a>
</g>
</g>
<!-- Node2&#45;&gt;Node1 -->
<g id="edge1" class="edge">
<title>Node2&#45;&gt;Node1</title>
<path fill="none" stroke="midnightblue" d="M645.97,-441.79C645.81,-433.25 645.74,-424.4 645.75,-415.57"/>
<polygon fill="none" stroke="midnightblue" points="642.48,-442.11 646.21,-452.03 649.48,-441.95 642.48,-442.11"/>
</g>
<!-- Node2&#45;&gt;Node1 -->
<g id="edge6" class="edge">
<title>Node2&#45;&gt;Node1</title>
<path fill="none" stroke="midnightblue" d="M659.03,-441.79C659.19,-433.25 659.26,-424.4 659.25,-415.57"/>
<polygon fill="none" stroke="midnightblue" points="655.52,-441.95 658.79,-452.03 662.52,-442.11 655.52,-441.95"/>
</g>
<!-- Node3 -->
<g id="node3" class="node">
<title>Node3</title>
<g id="a_node3"><a xlink:href="../../d9/da6/classboost_1_1numeric_1_1ublas_1_1matrix__expression.html" target="_top" xlink:title=" ">
<polygon fill="none" stroke="black" points="591.5,-601.5 591.5,-702.5 713.5,-702.5 713.5,-601.5 591.5,-601.5"/>
<text text-anchor="start" x="599.5" y="-690.5" font-family="Helvetica,sans-Serif" font-size="10.00">boost::numeric::ublas</text>
<text text-anchor="middle" x="652.5" y="-679.5" font-family="Helvetica,sans-Serif" font-size="10.00">::matrix_expression&lt; E &gt;</text>
<polyline fill="none" stroke="black" points="591.5,-672.5 713.5,-672.5 "/>
<text text-anchor="start" x="599.5" y="-660.5" font-family="Helvetica,sans-Serif" font-size="10.00">+ complexity</text>
<polyline fill="none" stroke="black" points="591.5,-653.5 713.5,-653.5 "/>
<text text-anchor="start" x="599.5" y="-641.5" font-family="Helvetica,sans-Serif" font-size="10.00">+ operator()()</text>
<text text-anchor="start" x="599.5" y="-630.5" font-family="Helvetica,sans-Serif" font-size="10.00">+ operator()()</text>
<text text-anchor="start" x="599.5" y="-619.5" font-family="Helvetica,sans-Serif" font-size="10.00">+ operator()()</text>
<text text-anchor="start" x="599.5" y="-608.5" font-family="Helvetica,sans-Serif" font-size="10.00">+ operator()()</text>
</a>
</g>
</g>
<!-- Node3&#45;&gt;Node2 -->
<g id="edge2" class="edge">
<title>Node3&#45;&gt;Node2</title>
<path fill="none" stroke="midnightblue" d="M645.82,-591.01C645.71,-582.29 645.73,-573.34 645.9,-564.72"/>
<polygon fill="none" stroke="midnightblue" points="642.32,-591.18 646.02,-601.11 649.32,-591.05 642.32,-591.18"/>
</g>
<!-- Node3&#45;&gt;Node2 -->
<g id="edge5" class="edge">
<title>Node3&#45;&gt;Node2</title>
<path fill="none" stroke="midnightblue" d="M659.18,-591.01C659.29,-582.29 659.27,-573.34 659.1,-564.72"/>
<polygon fill="none" stroke="midnightblue" points="655.68,-591.05 658.98,-601.11 662.68,-591.18 655.68,-591.05"/>
</g>
<!-- Node4 -->
<g id="node4" class="node">
<title>Node4</title>
<g id="a_node4"><a xlink:href="../../dd/db7/classboost_1_1numeric_1_1ublas_1_1ublas__expression.html" target="_top" xlink:title=" ">
<polygon fill="none" stroke="black" points="593,-739.5 593,-840.5 712,-840.5 712,-739.5 593,-739.5"/>
<text text-anchor="start" x="601" y="-828.5" font-family="Helvetica,sans-Serif" font-size="10.00">boost::numeric::ublas</text>
<text text-anchor="middle" x="652.5" y="-817.5" font-family="Helvetica,sans-Serif" font-size="10.00">::ublas_expression&lt; E &gt;</text>
<polyline fill="none" stroke="black" points="593,-810.5 712,-810.5 "/>
<text text-anchor="middle" x="652.5" y="-798.5" font-family="Helvetica,sans-Serif" font-size="10.00"> </text>
<polyline fill="none" stroke="black" points="593,-791.5 712,-791.5 "/>
<text text-anchor="start" x="601" y="-779.5" font-family="Helvetica,sans-Serif" font-size="10.00"># ublas_expression()</text>
<text text-anchor="start" x="601" y="-768.5" font-family="Helvetica,sans-Serif" font-size="10.00"># ~ublas_expression()</text>
<text text-anchor="start" x="601" y="-757.5" font-family="Helvetica,sans-Serif" font-size="10.00"># ublas_expression()</text>
<text text-anchor="start" x="601" y="-746.5" font-family="Helvetica,sans-Serif" font-size="10.00"># ~ublas_expression()</text>
</a>
</g>
</g>
<!-- Node4&#45;&gt;Node3 -->
<g id="edge3" class="edge">
<title>Node4&#45;&gt;Node3</title>
<path fill="none" stroke="midnightblue" d="M645.79,-729C645.7,-720.27 645.76,-711.36 645.97,-702.86"/>
<polygon fill="none" stroke="midnightblue" points="642.29,-729.19 645.97,-739.13 649.29,-729.07 642.29,-729.19"/>
</g>
<!-- Node4&#45;&gt;Node3 -->
<g id="edge4" class="edge">
<title>Node4&#45;&gt;Node3</title>
<path fill="none" stroke="midnightblue" d="M659.21,-729C659.3,-720.27 659.24,-711.36 659.03,-702.86"/>
<polygon fill="none" stroke="midnightblue" points="655.71,-729.07 659.03,-739.13 662.71,-729.19 655.71,-729.07"/>
</g>
</g>
</svg>
