<?xml version="1.0" encoding="UTF-8" standalone="no"?>
<!DOCTYPE svg PUBLIC "-//W3C//DTD SVG 1.1//EN"
 "http://www.w3.org/Graphics/SVG/1.1/DTD/svg11.dtd">
<!-- Generated by graphviz version 2.48.0 (20210719.0153)
 -->
<!-- Title: /github/workspace/kratos/linear_solvers/deflated_cg_solver.h Pages: 1 -->
<svg width="896pt" height="419pt"
 viewBox="0.00 0.00 896.00 419.00" xmlns="http://www.w3.org/2000/svg" xmlns:xlink="http://www.w3.org/1999/xlink">
<g id="graph0" class="graph" transform="scale(1 1) rotate(0) translate(4 415)">
<title>/github/workspace/kratos/linear_solvers/deflated_cg_solver.h</title>
<!-- Node1 -->
<g id="node1" class="node">
<title>Node1</title>
<g id="a_node1"><a xlink:title=" ">
<polygon fill="#bfbfbf" stroke="black" points="561,-369.5 561,-410.5 687,-410.5 687,-369.5 561,-369.5"/>
<text text-anchor="start" x="569" y="-398.5" font-family="Helvetica,sans-Serif" font-size="10.00">/github/workspace/kratos</text>
<text text-anchor="start" x="569" y="-387.5" font-family="Helvetica,sans-Serif" font-size="10.00">/linear_solvers/deflated</text>
<text text-anchor="middle" x="624" y="-376.5" font-family="Helvetica,sans-Serif" font-size="10.00">_cg_solver.h</text>
</a>
</g>
</g>
<!-- Node2 -->
<g id="node2" class="node">
<title>Node2</title>
<g id="a_node2"><a xlink:title=" ">
<polygon fill="none" stroke="#bfbfbf" points="297.5,-56.5 297.5,-75.5 338.5,-75.5 338.5,-56.5 297.5,-56.5"/>
<text text-anchor="middle" x="318" y="-63.5" font-family="Helvetica,sans-Serif" font-size="10.00">string</text>
</a>
</g>
</g>
<!-- Node1&#45;&gt;Node2 -->
<g id="edge1" class="edge">
<title>Node1&#45;&gt;Node2</title>
<path fill="none" stroke="midnightblue" d="M560.87,-386.44C416.77,-378.87 76,-350.51 76,-251.5 76,-251.5 76,-251.5 76,-182.5 76,-89.89 222.12,-71.47 287.28,-67.85"/>
<polygon fill="midnightblue" stroke="midnightblue" points="287.54,-71.35 297.37,-67.38 287.21,-64.35 287.54,-71.35"/>
</g>
<!-- Node3 -->
<g id="node3" class="node">
<title>Node3</title>
<g id="a_node3"><a xlink:title=" ">
<polygon fill="none" stroke="#bfbfbf" points="87,-56.5 87,-75.5 141,-75.5 141,-56.5 87,-56.5"/>
<text text-anchor="middle" x="114" y="-63.5" font-family="Helvetica,sans-Serif" font-size="10.00">iostream</text>
</a>
</g>
</g>
<!-- Node1&#45;&gt;Node3 -->
<g id="edge2" class="edge">
<title>Node1&#45;&gt;Node3</title>
<path fill="none" stroke="midnightblue" d="M560.73,-388.37C402.09,-385.07 0,-365.48 0,-251.5 0,-251.5 0,-251.5 0,-182.5 0,-133.7 52.19,-98.06 85.95,-80.11"/>
<polygon fill="midnightblue" stroke="midnightblue" points="87.61,-83.19 94.92,-75.52 84.42,-76.96 87.61,-83.19"/>
</g>
<!-- Node4 -->
<g id="node4" class="node">
<title>Node4</title>
<g id="a_node4"><a xlink:title=" ">
<polygon fill="none" stroke="#bfbfbf" points="796,-308 796,-327 840,-327 840,-308 796,-308"/>
<text text-anchor="middle" x="818" y="-315" font-family="Helvetica,sans-Serif" font-size="10.00">vector</text>
</a>
</g>
</g>
<!-- Node1&#45;&gt;Node4 -->
<g id="edge3" class="edge">
<title>Node1&#45;&gt;Node4</title>
<path fill="none" stroke="midnightblue" d="M686.11,-369.39C716.76,-359.28 754.13,-346.29 787,-333 788.38,-332.44 789.78,-331.86 791.19,-331.25"/>
<polygon fill="midnightblue" stroke="midnightblue" points="792.74,-334.39 800.44,-327.11 789.88,-328 792.74,-334.39"/>
</g>
<!-- Node5 -->
<g id="node5" class="node">
<title>Node5</title>
<g id="a_node5"><a xlink:title=" ">
<polygon fill="none" stroke="#bfbfbf" points="858,-308 858,-327 888,-327 888,-308 858,-308"/>
<text text-anchor="middle" x="873" y="-315" font-family="Helvetica,sans-Serif" font-size="10.00">set</text>
</a>
</g>
</g>
<!-- Node1&#45;&gt;Node5 -->
<g id="edge4" class="edge">
<title>Node1&#45;&gt;Node5</title>
<path fill="none" stroke="midnightblue" d="M687.2,-378.53C733.2,-369.65 796.4,-354.85 849,-333 849.71,-332.71 850.42,-332.39 851.13,-332.06"/>
<polygon fill="midnightblue" stroke="midnightblue" points="853.01,-335.03 860.17,-327.22 849.7,-328.86 853.01,-335.03"/>
</g>
<!-- Node6 -->
<g id="node6" class="node">
<title>Node6</title>
<g id="a_node6"><a xlink:href="../../df/d67/define_8h.html" target="_top" xlink:title=" ">
<polygon fill="none" stroke="black" points="554.5,-56.5 554.5,-75.5 643.5,-75.5 643.5,-56.5 554.5,-56.5"/>
<text text-anchor="middle" x="599" y="-63.5" font-family="Helvetica,sans-Serif" font-size="10.00">includes/define.h</text>
</a>
</g>
</g>
<!-- Node1&#45;&gt;Node6 -->
<g id="edge5" class="edge">
<title>Node1&#45;&gt;Node6</title>
<path fill="none" stroke="midnightblue" d="M622.47,-369.34C617.98,-311.47 604.84,-142.25 600.45,-85.67"/>
<polygon fill="midnightblue" stroke="midnightblue" points="603.94,-85.35 599.67,-75.65 596.96,-85.9 603.94,-85.35"/>
</g>
<!-- Node12 -->
<g id="node12" class="node">
<title>Node12</title>
<g id="a_node12"><a xlink:href="../../da/df8/iterative__solver_8h.html" target="_top" xlink:title=" ">
<polygon fill="none" stroke="black" points="309,-235.5 309,-265.5 423,-265.5 423,-235.5 309,-235.5"/>
<text text-anchor="start" x="317" y="-253.5" font-family="Helvetica,sans-Serif" font-size="10.00">linear_solvers/iterative</text>
<text text-anchor="middle" x="366" y="-242.5" font-family="Helvetica,sans-Serif" font-size="10.00">_solver.h</text>
</a>
</g>
</g>
<!-- Node1&#45;&gt;Node12 -->
<g id="edge11" class="edge">
<title>Node1&#45;&gt;Node12</title>
<path fill="none" stroke="midnightblue" d="M587.31,-369.45C537.77,-343.05 450.11,-296.33 401.3,-270.31"/>
<polygon fill="midnightblue" stroke="midnightblue" points="402.84,-267.17 392.37,-265.55 399.55,-273.34 402.84,-267.17"/>
</g>
<!-- Node17 -->
<g id="node17" class="node">
<title>Node17</title>
<g id="a_node17"><a xlink:href="../../df/de4/skyline__lu__factorization__solver_8h.html" target="_top" xlink:title=" ">
<polygon fill="none" stroke="black" points="652,-302.5 652,-332.5 778,-332.5 778,-302.5 652,-302.5"/>
<text text-anchor="start" x="660" y="-320.5" font-family="Helvetica,sans-Serif" font-size="10.00">linear_solvers/skyline</text>
<text text-anchor="middle" x="715" y="-309.5" font-family="Helvetica,sans-Serif" font-size="10.00">_lu_factorization_solver.h</text>
</a>
</g>
</g>
<!-- Node1&#45;&gt;Node17 -->
<g id="edge29" class="edge">
<title>Node1&#45;&gt;Node17</title>
<path fill="none" stroke="midnightblue" d="M649.35,-369.36C661.57,-359.89 676.22,-348.54 688.58,-338.97"/>
<polygon fill="midnightblue" stroke="midnightblue" points="690.95,-341.56 696.71,-332.67 686.66,-336.03 690.95,-341.56"/>
</g>
<!-- Node7 -->
<g id="node7" class="node">
<title>Node7</title>
<g id="a_node7"><a xlink:title=" ">
<polygon fill="none" stroke="#bfbfbf" points="558.5,-0.5 558.5,-19.5 617.5,-19.5 617.5,-0.5 558.5,-0.5"/>
<text text-anchor="middle" x="588" y="-7.5" font-family="Helvetica,sans-Serif" font-size="10.00">stdexcept</text>
</a>
</g>
</g>
<!-- Node6&#45;&gt;Node7 -->
<g id="edge6" class="edge">
<title>Node6&#45;&gt;Node7</title>
<path fill="none" stroke="midnightblue" d="M597.18,-56.08C595.73,-48.93 593.63,-38.64 591.81,-29.69"/>
<polygon fill="midnightblue" stroke="midnightblue" points="595.21,-28.85 589.78,-19.75 588.35,-30.25 595.21,-28.85"/>
</g>
<!-- Node8 -->
<g id="node8" class="node">
<title>Node8</title>
<g id="a_node8"><a xlink:title=" ">
<polygon fill="none" stroke="#bfbfbf" points="349,-0.5 349,-19.5 401,-19.5 401,-0.5 349,-0.5"/>
<text text-anchor="middle" x="375" y="-7.5" font-family="Helvetica,sans-Serif" font-size="10.00">sstream</text>
</a>
</g>
</g>
<!-- Node6&#45;&gt;Node8 -->
<g id="edge7" class="edge">
<title>Node6&#45;&gt;Node8</title>
<path fill="none" stroke="midnightblue" d="M562.93,-56.48C527.06,-47.98 470.21,-34.44 411.21,-20.03"/>
<polygon fill="midnightblue" stroke="midnightblue" points="411.88,-16.59 401.34,-17.62 410.22,-23.39 411.88,-16.59"/>
</g>
<!-- Node9 -->
<g id="node9" class="node">
<title>Node9</title>
<g id="a_node9"><a xlink:title=" ">
<polygon fill="none" stroke="#bfbfbf" points="784.5,-0.5 784.5,-19.5 887.5,-19.5 887.5,-0.5 784.5,-0.5"/>
<text text-anchor="middle" x="836" y="-7.5" font-family="Helvetica,sans-Serif" font-size="10.00">boost/smart_ptr.hpp</text>
</a>
</g>
</g>
<!-- Node6&#45;&gt;Node9 -->
<g id="edge8" class="edge">
<title>Node6&#45;&gt;Node9</title>
<path fill="none" stroke="midnightblue" d="M636.55,-56.44C677.81,-47.04 744.14,-31.93 788.87,-21.74"/>
<polygon fill="midnightblue" stroke="midnightblue" points="789.65,-25.15 798.62,-19.52 788.09,-18.33 789.65,-25.15"/>
</g>
<!-- Node10 -->
<g id="node10" class="node">
<title>Node10</title>
<g id="a_node10"><a xlink:title=" ">
<polygon fill="none" stroke="#bfbfbf" points="635.5,-0.5 635.5,-19.5 766.5,-19.5 766.5,-0.5 635.5,-0.5"/>
<text text-anchor="middle" x="701" y="-7.5" font-family="Helvetica,sans-Serif" font-size="10.00">boost/current_function.hpp</text>
</a>
</g>
</g>
<!-- Node6&#45;&gt;Node10 -->
<g id="edge9" class="edge">
<title>Node6&#45;&gt;Node10</title>
<path fill="none" stroke="midnightblue" d="M615.39,-56.32C631.67,-47.7 656.87,-34.36 675.72,-24.39"/>
<polygon fill="midnightblue" stroke="midnightblue" points="677.45,-27.43 684.65,-19.65 674.18,-21.24 677.45,-27.43"/>
</g>
<!-- Node11 -->
<g id="node11" class="node">
<title>Node11</title>
<g id="a_node11"><a xlink:href="../../de/d17/kratos__config_8h.html" target="_top" xlink:title=" ">
<polygon fill="none" stroke="black" points="419.5,-0.5 419.5,-19.5 540.5,-19.5 540.5,-0.5 419.5,-0.5"/>
<text text-anchor="middle" x="480" y="-7.5" font-family="Helvetica,sans-Serif" font-size="10.00">includes/kratos_config.h</text>
</a>
</g>
</g>
<!-- Node6&#45;&gt;Node11 -->
<g id="edge10" class="edge">
<title>Node6&#45;&gt;Node11</title>
<path fill="none" stroke="midnightblue" d="M580.14,-56.44C560.73,-47.64 530.27,-33.81 508.04,-23.72"/>
<polygon fill="midnightblue" stroke="midnightblue" points="509.32,-20.46 498.77,-19.52 506.43,-26.84 509.32,-20.46"/>
</g>
<!-- Node12&#45;&gt;Node2 -->
<g id="edge12" class="edge">
<title>Node12&#45;&gt;Node2</title>
<path fill="none" stroke="midnightblue" d="M362.31,-235.48C353.76,-202.96 332.56,-122.34 322.91,-85.68"/>
<polygon fill="midnightblue" stroke="midnightblue" points="326.25,-84.6 320.32,-75.82 319.48,-86.38 326.25,-84.6"/>
</g>
<!-- Node12&#45;&gt;Node3 -->
<g id="edge13" class="edge">
<title>Node12&#45;&gt;Node3</title>
<path fill="none" stroke="midnightblue" d="M308.95,-240.03C249.9,-226.92 160.35,-197.03 117,-132 108,-118.5 108.15,-99.69 110.02,-85.78"/>
<polygon fill="midnightblue" stroke="midnightblue" points="113.48,-86.32 111.75,-75.87 106.59,-85.12 113.48,-86.32"/>
</g>
<!-- Node12&#45;&gt;Node6 -->
<g id="edge14" class="edge">
<title>Node12&#45;&gt;Node6</title>
<path fill="none" stroke="midnightblue" d="M418.53,-235.44C445.45,-227.01 478.12,-214.83 505,-199 544.09,-175.98 558.09,-170.55 582,-132 590.74,-117.91 595.02,-99.42 597.09,-85.76"/>
<polygon fill="midnightblue" stroke="midnightblue" points="600.59,-85.99 598.37,-75.63 593.65,-85.12 600.59,-85.99"/>
</g>
<!-- Node13 -->
<g id="node13" class="node">
<title>Node13</title>
<g id="a_node13"><a xlink:href="../../d2/d9f/linear__solver_8h.html" target="_top" xlink:title=" ">
<polygon fill="none" stroke="black" points="392.5,-168.5 392.5,-198.5 495.5,-198.5 495.5,-168.5 392.5,-168.5"/>
<text text-anchor="start" x="400.5" y="-186.5" font-family="Helvetica,sans-Serif" font-size="10.00">linear_solvers/linear</text>
<text text-anchor="middle" x="444" y="-175.5" font-family="Helvetica,sans-Serif" font-size="10.00">_solver.h</text>
</a>
</g>
</g>
<!-- Node12&#45;&gt;Node13 -->
<g id="edge15" class="edge">
<title>Node12&#45;&gt;Node13</title>
<path fill="none" stroke="midnightblue" d="M382.92,-235.4C393.55,-226.54 407.45,-214.96 419.3,-205.09"/>
<polygon fill="midnightblue" stroke="midnightblue" points="421.67,-207.67 427.11,-198.58 417.19,-202.29 421.67,-207.67"/>
</g>
<!-- Node16 -->
<g id="node16" class="node">
<title>Node16</title>
<g id="a_node16"><a xlink:href="../../d0/dd3/preconditioner_8h.html" target="_top" xlink:title=" ">
<polygon fill="none" stroke="black" points="142,-112.5 142,-131.5 290,-131.5 290,-112.5 142,-112.5"/>
<text text-anchor="middle" x="216" y="-119.5" font-family="Helvetica,sans-Serif" font-size="10.00">linear_solvers/preconditioner.h</text>
</a>
</g>
</g>
<!-- Node12&#45;&gt;Node16 -->
<g id="edge25" class="edge">
<title>Node12&#45;&gt;Node16</title>
<path fill="none" stroke="midnightblue" d="M348.52,-235.48C336.04,-225.42 318.89,-211.49 304,-199 279.28,-178.26 251.12,-153.79 233.46,-138.34"/>
<polygon fill="midnightblue" stroke="midnightblue" points="235.52,-135.49 225.69,-131.53 230.9,-140.75 235.52,-135.49"/>
</g>
<!-- Node13&#45;&gt;Node2 -->
<g id="edge16" class="edge">
<title>Node13&#45;&gt;Node2</title>
<path fill="none" stroke="midnightblue" d="M422.23,-168.39C408.16,-158.84 389.78,-145.53 375,-132 358.47,-116.87 341.84,-97.28 330.84,-83.58"/>
<polygon fill="midnightblue" stroke="midnightblue" points="333.43,-81.21 324.48,-75.53 327.93,-85.55 333.43,-81.21"/>
</g>
<!-- Node13&#45;&gt;Node3 -->
<g id="edge17" class="edge">
<title>Node13&#45;&gt;Node3</title>
<path fill="none" stroke="midnightblue" d="M392.35,-180.64C314.09,-176.77 170.61,-165.23 133,-132 119.94,-120.46 115.64,-100.49 114.32,-85.73"/>
<polygon fill="midnightblue" stroke="midnightblue" points="117.82,-85.48 113.81,-75.67 110.82,-85.84 117.82,-85.48"/>
</g>
<!-- Node13&#45;&gt;Node6 -->
<g id="edge20" class="edge">
<title>Node13&#45;&gt;Node6</title>
<path fill="none" stroke="midnightblue" d="M494.92,-168.45C517.07,-160.46 542.2,-148.64 561,-132 575.49,-119.17 585.93,-99.44 592.16,-85.08"/>
<polygon fill="midnightblue" stroke="midnightblue" points="595.43,-86.33 595.95,-75.75 588.94,-83.7 595.43,-86.33"/>
</g>
<!-- Node13&#45;&gt;Node8 -->
<g id="edge18" class="edge">
<title>Node13&#45;&gt;Node8</title>
<path fill="none" stroke="midnightblue" d="M450.13,-168.36C455.52,-153.86 461.56,-130.84 455,-112 442.78,-76.88 412.69,-44.78 393.1,-26.59"/>
<polygon fill="midnightblue" stroke="midnightblue" points="395.2,-23.77 385.42,-19.67 390.51,-28.97 395.2,-23.77"/>
</g>
<!-- Node14 -->
<g id="node14" class="node">
<title>Node14</title>
<g id="a_node14"><a xlink:title=" ">
<polygon fill="none" stroke="#bfbfbf" points="502.5,-112.5 502.5,-131.5 551.5,-131.5 551.5,-112.5 502.5,-112.5"/>
<text text-anchor="middle" x="527" y="-119.5" font-family="Helvetica,sans-Serif" font-size="10.00">cstddef</text>
</a>
</g>
</g>
<!-- Node13&#45;&gt;Node14 -->
<g id="edge19" class="edge">
<title>Node13&#45;&gt;Node14</title>
<path fill="none" stroke="midnightblue" d="M463.67,-168.4C476.6,-159.13 493.49,-147.03 506.57,-137.65"/>
<polygon fill="midnightblue" stroke="midnightblue" points="508.83,-140.33 514.92,-131.66 504.76,-134.64 508.83,-140.33"/>
</g>
<!-- Node15 -->
<g id="node15" class="node">
<title>Node15</title>
<g id="a_node15"><a xlink:href="../../d5/d67/reorderer_8h.html" target="_top" xlink:title=" ">
<polygon fill="none" stroke="black" points="384,-112.5 384,-131.5 446,-131.5 446,-112.5 384,-112.5"/>
<text text-anchor="middle" x="415" y="-119.5" font-family="Helvetica,sans-Serif" font-size="10.00">reorderer.h</text>
</a>
</g>
</g>
<!-- Node13&#45;&gt;Node15 -->
<g id="edge21" class="edge">
<title>Node13&#45;&gt;Node15</title>
<path fill="none" stroke="midnightblue" d="M437.13,-168.4C433.09,-160.11 427.94,-149.55 423.63,-140.71"/>
<polygon fill="midnightblue" stroke="midnightblue" points="426.75,-139.11 419.22,-131.66 420.45,-142.18 426.75,-139.11"/>
</g>
<!-- Node15&#45;&gt;Node2 -->
<g id="edge22" class="edge">
<title>Node15&#45;&gt;Node2</title>
<path fill="none" stroke="midnightblue" d="M399.42,-112.32C384,-103.74 360.19,-90.49 342.29,-80.52"/>
<polygon fill="midnightblue" stroke="midnightblue" points="343.99,-77.46 333.55,-75.65 340.58,-83.58 343.99,-77.46"/>
</g>
<!-- Node15&#45;&gt;Node3 -->
<g id="edge23" class="edge">
<title>Node15&#45;&gt;Node3</title>
<path fill="none" stroke="midnightblue" d="M383.92,-115.42C328.23,-105.43 211.67,-84.52 151.58,-73.74"/>
<polygon fill="midnightblue" stroke="midnightblue" points="151.86,-70.24 141.4,-71.92 150.62,-77.13 151.86,-70.24"/>
</g>
<!-- Node15&#45;&gt;Node6 -->
<g id="edge24" class="edge">
<title>Node15&#45;&gt;Node6</title>
<path fill="none" stroke="midnightblue" d="M444.16,-112.44C475.51,-103.24 525.53,-88.56 560.2,-78.39"/>
<polygon fill="midnightblue" stroke="midnightblue" points="561.37,-81.69 569.98,-75.52 559.4,-74.97 561.37,-81.69"/>
</g>
<!-- Node16&#45;&gt;Node2 -->
<g id="edge26" class="edge">
<title>Node16&#45;&gt;Node2</title>
<path fill="none" stroke="midnightblue" d="M232.39,-112.32C248.67,-103.7 273.87,-90.36 292.72,-80.39"/>
<polygon fill="midnightblue" stroke="midnightblue" points="294.45,-83.43 301.65,-75.65 291.18,-77.24 294.45,-83.43"/>
</g>
<!-- Node16&#45;&gt;Node3 -->
<g id="edge27" class="edge">
<title>Node16&#45;&gt;Node3</title>
<path fill="none" stroke="midnightblue" d="M199.61,-112.32C183.33,-103.7 158.13,-90.36 139.28,-80.39"/>
<polygon fill="midnightblue" stroke="midnightblue" points="140.82,-77.24 130.35,-75.65 137.55,-83.43 140.82,-77.24"/>
</g>
<!-- Node16&#45;&gt;Node6 -->
<g id="edge28" class="edge">
<title>Node16&#45;&gt;Node6</title>
<path fill="none" stroke="midnightblue" d="M276.69,-112.44C350.37,-102.05 473.54,-84.69 544.38,-74.7"/>
<polygon fill="midnightblue" stroke="midnightblue" points="545.02,-78.15 554.44,-73.28 544.04,-71.21 545.02,-78.15"/>
</g>
<!-- Node17&#45;&gt;Node6 -->
<g id="edge31" class="edge">
<title>Node17&#45;&gt;Node6</title>
<path fill="none" stroke="midnightblue" d="M735.24,-302.41C746.3,-293.43 758.95,-280.72 765,-266 770.24,-253.26 768.76,-248.25 765,-235 747.44,-173.18 736.43,-155.35 689,-112 673.33,-97.68 652.26,-86.82 634.45,-79.35"/>
<polygon fill="midnightblue" stroke="midnightblue" points="635.53,-76.02 624.94,-75.56 632.93,-82.52 635.53,-76.02"/>
</g>
<!-- Node17&#45;&gt;Node9 -->
<g id="edge30" class="edge">
<title>Node17&#45;&gt;Node9</title>
<path fill="none" stroke="midnightblue" d="M740.24,-302.45C774.09,-281.52 830,-238.75 830,-184.5 830,-184.5 830,-184.5 830,-121 830,-88.9 832.58,-51.61 834.36,-29.73"/>
<polygon fill="midnightblue" stroke="midnightblue" points="837.86,-29.81 835.22,-19.55 830.89,-29.22 837.86,-29.81"/>
</g>
<!-- Node18 -->
<g id="node18" class="node">
<title>Node18</title>
<g id="a_node18"><a xlink:href="../../d9/da7/direct__solver_8h.html" target="_top" xlink:title=" ">
<polygon fill="none" stroke="black" points="652,-235.5 652,-265.5 756,-265.5 756,-235.5 652,-235.5"/>
<text text-anchor="start" x="660" y="-253.5" font-family="Helvetica,sans-Serif" font-size="10.00">linear_solvers/direct</text>
<text text-anchor="middle" x="704" y="-242.5" font-family="Helvetica,sans-Serif" font-size="10.00">_solver.h</text>
</a>
</g>
</g>
<!-- Node17&#45;&gt;Node18 -->
<g id="edge32" class="edge">
<title>Node17&#45;&gt;Node18</title>
<path fill="none" stroke="midnightblue" d="M712.61,-302.4C711.29,-294.56 709.6,-284.6 708.07,-275.57"/>
<polygon fill="midnightblue" stroke="midnightblue" points="711.5,-274.85 706.38,-265.58 704.6,-276.02 711.5,-274.85"/>
</g>
<!-- Node18&#45;&gt;Node6 -->
<g id="edge34" class="edge">
<title>Node18&#45;&gt;Node6</title>
<path fill="none" stroke="midnightblue" d="M703.86,-235.2C702.92,-208.5 697.59,-150.31 670,-112 659.93,-98.01 644.03,-87.35 629.83,-79.93"/>
<polygon fill="midnightblue" stroke="midnightblue" points="631.35,-76.77 620.83,-75.51 628.27,-83.06 631.35,-76.77"/>
</g>
<!-- Node18&#45;&gt;Node9 -->
<g id="edge33" class="edge">
<title>Node18&#45;&gt;Node9</title>
<path fill="none" stroke="midnightblue" d="M711.86,-235.29C734.67,-194.09 800.83,-74.55 826.06,-28.96"/>
<polygon fill="midnightblue" stroke="midnightblue" points="829.27,-30.39 831.05,-19.95 823.14,-27 829.27,-30.39"/>
</g>
<!-- Node18&#45;&gt;Node13 -->
<g id="edge35" class="edge">
<title>Node18&#45;&gt;Node13</title>
<path fill="none" stroke="midnightblue" d="M651.7,-236.42C609.51,-225.88 550.08,-211.02 505.6,-199.9"/>
<polygon fill="midnightblue" stroke="midnightblue" points="506.32,-196.47 495.77,-197.44 504.63,-203.26 506.32,-196.47"/>
</g>
</g>
</svg>
