<?xml version="1.0" encoding="UTF-8" standalone="no"?>
<!DOCTYPE svg PUBLIC "-//W3C//DTD SVG 1.1//EN"
 "http://www.w3.org/Graphics/SVG/1.1/DTD/svg11.dtd">
<!-- Generated by graphviz version 2.48.0 (20210719.0153)
 -->
<!-- Title: boost::numeric::ublas::diagonal_matrix&lt; T, L, A &gt; Pages: 1 -->
<svg width="140pt" height="838pt"
 viewBox="0.00 0.00 140.00 838.00" xmlns="http://www.w3.org/2000/svg" xmlns:xlink="http://www.w3.org/1999/xlink">
<g id="graph0" class="graph" transform="scale(1 1) rotate(0) translate(4 834)">
<title>boost::numeric::ublas::diagonal_matrix&lt; T, L, A &gt;</title>
<!-- Node1 -->
<g id="node1" class="node">
<title>Node1</title>
<g id="a_node1"><a xlink:title=" ">
<polygon fill="#bfbfbf" stroke="black" points="12.5,-0.5 12.5,-189.5 119.5,-189.5 119.5,-0.5 12.5,-0.5"/>
<text text-anchor="start" x="20.5" y="-177.5" font-family="Helvetica,sans-Serif" font-size="10.00">boost::numeric::ublas</text>
<text text-anchor="start" x="20.5" y="-166.5" font-family="Helvetica,sans-Serif" font-size="10.00">::diagonal_matrix&lt; T,</text>
<text text-anchor="middle" x="66" y="-155.5" font-family="Helvetica,sans-Serif" font-size="10.00"> L, A &gt;</text>
<polyline fill="none" stroke="black" points="12.5,-148.5 119.5,-148.5 "/>
<text text-anchor="middle" x="66" y="-136.5" font-family="Helvetica,sans-Serif" font-size="10.00"> </text>
<polyline fill="none" stroke="black" points="12.5,-129.5 119.5,-129.5 "/>
<text text-anchor="start" x="20.5" y="-117.5" font-family="Helvetica,sans-Serif" font-size="10.00">+ diagonal_matrix()</text>
<text text-anchor="start" x="20.5" y="-106.5" font-family="Helvetica,sans-Serif" font-size="10.00">+ diagonal_matrix()</text>
<text text-anchor="start" x="20.5" y="-95.5" font-family="Helvetica,sans-Serif" font-size="10.00">+ diagonal_matrix()</text>
<text text-anchor="start" x="20.5" y="-84.5" font-family="Helvetica,sans-Serif" font-size="10.00">+ diagonal_matrix()</text>
<text text-anchor="start" x="20.5" y="-73.5" font-family="Helvetica,sans-Serif" font-size="10.00">+ diagonal_matrix()</text>
<text text-anchor="start" x="20.5" y="-62.5" font-family="Helvetica,sans-Serif" font-size="10.00">+ ~diagonal_matrix()</text>
<text text-anchor="start" x="20.5" y="-51.5" font-family="Helvetica,sans-Serif" font-size="10.00">+ operator=()</text>
<text text-anchor="start" x="20.5" y="-40.5" font-family="Helvetica,sans-Serif" font-size="10.00">+ operator=()</text>
<text text-anchor="start" x="20.5" y="-29.5" font-family="Helvetica,sans-Serif" font-size="10.00">+ diagonal_matrix()</text>
<text text-anchor="start" x="20.5" y="-18.5" font-family="Helvetica,sans-Serif" font-size="10.00">+ diagonal_matrix()</text>
<text text-anchor="start" x="20.5" y="-7.5" font-family="Helvetica,sans-Serif" font-size="10.00">and 6 more...</text>
</a>
</g>
</g>
<!-- Node2 -->
<g id="node2" class="node">
<title>Node2</title>
<g id="a_node2"><a xlink:href="../../d4/d4d/classboost_1_1numeric_1_1ublas_1_1banded__matrix.html" target="_top" xlink:title=" ">
<polygon fill="none" stroke="black" points="1,-226.5 1,-404.5 131,-404.5 131,-226.5 1,-226.5"/>
<text text-anchor="start" x="9" y="-392.5" font-family="Helvetica,sans-Serif" font-size="10.00">boost::numeric::ublas</text>
<text text-anchor="middle" x="66" y="-381.5" font-family="Helvetica,sans-Serif" font-size="10.00">::banded_matrix&lt; T, L, A &gt;</text>
<polyline fill="none" stroke="black" points="1,-374.5 131,-374.5 "/>
<text text-anchor="middle" x="66" y="-362.5" font-family="Helvetica,sans-Serif" font-size="10.00"> </text>
<polyline fill="none" stroke="black" points="1,-355.5 131,-355.5 "/>
<text text-anchor="start" x="9" y="-343.5" font-family="Helvetica,sans-Serif" font-size="10.00">+ banded_matrix()</text>
<text text-anchor="start" x="9" y="-332.5" font-family="Helvetica,sans-Serif" font-size="10.00">+ banded_matrix()</text>
<text text-anchor="start" x="9" y="-321.5" font-family="Helvetica,sans-Serif" font-size="10.00">+ banded_matrix()</text>
<text text-anchor="start" x="9" y="-310.5" font-family="Helvetica,sans-Serif" font-size="10.00">+ banded_matrix()</text>
<text text-anchor="start" x="9" y="-299.5" font-family="Helvetica,sans-Serif" font-size="10.00">+ banded_matrix()</text>
<text text-anchor="start" x="9" y="-288.5" font-family="Helvetica,sans-Serif" font-size="10.00">+ size1()</text>
<text text-anchor="start" x="9" y="-277.5" font-family="Helvetica,sans-Serif" font-size="10.00">+ size2()</text>
<text text-anchor="start" x="9" y="-266.5" font-family="Helvetica,sans-Serif" font-size="10.00">+ lower()</text>
<text text-anchor="start" x="9" y="-255.5" font-family="Helvetica,sans-Serif" font-size="10.00">+ upper()</text>
<text text-anchor="start" x="9" y="-244.5" font-family="Helvetica,sans-Serif" font-size="10.00">+ data()</text>
<text text-anchor="start" x="9" y="-233.5" font-family="Helvetica,sans-Serif" font-size="10.00">and 90 more...</text>
</a>
</g>
</g>
<!-- Node2&#45;&gt;Node1 -->
<g id="edge1" class="edge">
<title>Node2&#45;&gt;Node1</title>
<path fill="none" stroke="midnightblue" d="M59.28,-215.99C59.23,-207.2 59.24,-198.32 59.31,-189.57"/>
<polygon fill="none" stroke="midnightblue" points="55.78,-216.29 59.36,-226.26 62.78,-216.23 55.78,-216.29"/>
</g>
<!-- Node2&#45;&gt;Node1 -->
<g id="edge8" class="edge">
<title>Node2&#45;&gt;Node1</title>
<path fill="none" stroke="midnightblue" d="M72.72,-215.99C72.77,-207.2 72.76,-198.32 72.69,-189.57"/>
<polygon fill="none" stroke="midnightblue" points="69.22,-216.23 72.64,-226.26 76.22,-216.29 69.22,-216.23"/>
</g>
<!-- Node3 -->
<g id="node3" class="node">
<title>Node3</title>
<g id="a_node3"><a xlink:href="../../da/d15/classboost_1_1numeric_1_1ublas_1_1matrix__container.html" target="_top" xlink:title=" ">
<polygon fill="none" stroke="black" points="0,-441.5 0,-553.5 132,-553.5 132,-441.5 0,-441.5"/>
<text text-anchor="start" x="8" y="-541.5" font-family="Helvetica,sans-Serif" font-size="10.00">boost::numeric::ublas</text>
<text text-anchor="start" x="8" y="-530.5" font-family="Helvetica,sans-Serif" font-size="10.00">::matrix_container&lt; banded</text>
<text text-anchor="middle" x="66" y="-519.5" font-family="Helvetica,sans-Serif" font-size="10.00">_matrix&lt; T, L, A &gt; &gt;</text>
<polyline fill="none" stroke="black" points="0,-512.5 132,-512.5 "/>
<text text-anchor="start" x="8" y="-500.5" font-family="Helvetica,sans-Serif" font-size="10.00">+ complexity</text>
<polyline fill="none" stroke="black" points="0,-493.5 132,-493.5 "/>
<text text-anchor="start" x="8" y="-481.5" font-family="Helvetica,sans-Serif" font-size="10.00">+ operator()()</text>
<text text-anchor="start" x="8" y="-470.5" font-family="Helvetica,sans-Serif" font-size="10.00">+ operator()()</text>
<text text-anchor="start" x="8" y="-459.5" font-family="Helvetica,sans-Serif" font-size="10.00">+ operator()()</text>
<text text-anchor="start" x="8" y="-448.5" font-family="Helvetica,sans-Serif" font-size="10.00">+ operator()()</text>
</a>
</g>
</g>
<!-- Node3&#45;&gt;Node2 -->
<g id="edge2" class="edge">
<title>Node3&#45;&gt;Node2</title>
<path fill="none" stroke="midnightblue" d="M59.47,-430.79C59.31,-422.25 59.24,-413.4 59.25,-404.57"/>
<polygon fill="none" stroke="midnightblue" points="55.98,-431.11 59.71,-441.03 62.98,-430.95 55.98,-431.11"/>
</g>
<!-- Node3&#45;&gt;Node2 -->
<g id="edge7" class="edge">
<title>Node3&#45;&gt;Node2</title>
<path fill="none" stroke="midnightblue" d="M72.53,-430.79C72.69,-422.25 72.76,-413.4 72.75,-404.57"/>
<polygon fill="none" stroke="midnightblue" points="69.02,-430.95 72.29,-441.03 76.02,-431.11 69.02,-430.95"/>
</g>
<!-- Node4 -->
<g id="node4" class="node">
<title>Node4</title>
<g id="a_node4"><a xlink:href="../../d9/da6/classboost_1_1numeric_1_1ublas_1_1matrix__expression.html" target="_top" xlink:title=" ">
<polygon fill="none" stroke="black" points="5,-590.5 5,-691.5 127,-691.5 127,-590.5 5,-590.5"/>
<text text-anchor="start" x="13" y="-679.5" font-family="Helvetica,sans-Serif" font-size="10.00">boost::numeric::ublas</text>
<text text-anchor="middle" x="66" y="-668.5" font-family="Helvetica,sans-Serif" font-size="10.00">::matrix_expression&lt; E &gt;</text>
<polyline fill="none" stroke="black" points="5,-661.5 127,-661.5 "/>
<text text-anchor="start" x="13" y="-649.5" font-family="Helvetica,sans-Serif" font-size="10.00">+ complexity</text>
<polyline fill="none" stroke="black" points="5,-642.5 127,-642.5 "/>
<text text-anchor="start" x="13" y="-630.5" font-family="Helvetica,sans-Serif" font-size="10.00">+ operator()()</text>
<text text-anchor="start" x="13" y="-619.5" font-family="Helvetica,sans-Serif" font-size="10.00">+ operator()()</text>
<text text-anchor="start" x="13" y="-608.5" font-family="Helvetica,sans-Serif" font-size="10.00">+ operator()()</text>
<text text-anchor="start" x="13" y="-597.5" font-family="Helvetica,sans-Serif" font-size="10.00">+ operator()()</text>
</a>
</g>
</g>
<!-- Node4&#45;&gt;Node3 -->
<g id="edge3" class="edge">
<title>Node4&#45;&gt;Node3</title>
<path fill="none" stroke="midnightblue" d="M59.32,-580.01C59.21,-571.29 59.23,-562.34 59.4,-553.72"/>
<polygon fill="none" stroke="midnightblue" points="55.82,-580.18 59.52,-590.11 62.82,-580.05 55.82,-580.18"/>
</g>
<!-- Node4&#45;&gt;Node3 -->
<g id="edge6" class="edge">
<title>Node4&#45;&gt;Node3</title>
<path fill="none" stroke="midnightblue" d="M72.68,-580.01C72.79,-571.29 72.77,-562.34 72.6,-553.72"/>
<polygon fill="none" stroke="midnightblue" points="69.18,-580.05 72.48,-590.11 76.18,-580.18 69.18,-580.05"/>
</g>
<!-- Node5 -->
<g id="node5" class="node">
<title>Node5</title>
<g id="a_node5"><a xlink:href="../../dd/db7/classboost_1_1numeric_1_1ublas_1_1ublas__expression.html" target="_top" xlink:title=" ">
<polygon fill="none" stroke="black" points="6.5,-728.5 6.5,-829.5 125.5,-829.5 125.5,-728.5 6.5,-728.5"/>
<text text-anchor="start" x="14.5" y="-817.5" font-family="Helvetica,sans-Serif" font-size="10.00">boost::numeric::ublas</text>
<text text-anchor="middle" x="66" y="-806.5" font-family="Helvetica,sans-Serif" font-size="10.00">::ublas_expression&lt; E &gt;</text>
<polyline fill="none" stroke="black" points="6.5,-799.5 125.5,-799.5 "/>
<text text-anchor="middle" x="66" y="-787.5" font-family="Helvetica,sans-Serif" font-size="10.00"> </text>
<polyline fill="none" stroke="black" points="6.5,-780.5 125.5,-780.5 "/>
<text text-anchor="start" x="14.5" y="-768.5" font-family="Helvetica,sans-Serif" font-size="10.00"># ublas_expression()</text>
<text text-anchor="start" x="14.5" y="-757.5" font-family="Helvetica,sans-Serif" font-size="10.00"># ~ublas_expression()</text>
<text text-anchor="start" x="14.5" y="-746.5" font-family="Helvetica,sans-Serif" font-size="10.00"># ublas_expression()</text>
<text text-anchor="start" x="14.5" y="-735.5" font-family="Helvetica,sans-Serif" font-size="10.00"># ~ublas_expression()</text>
</a>
</g>
</g>
<!-- Node5&#45;&gt;Node4 -->
<g id="edge4" class="edge">
<title>Node5&#45;&gt;Node4</title>
<path fill="none" stroke="midnightblue" d="M59.29,-718C59.2,-709.27 59.26,-700.36 59.47,-691.86"/>
<polygon fill="none" stroke="midnightblue" points="55.79,-718.19 59.47,-728.13 62.79,-718.07 55.79,-718.19"/>
</g>
<!-- Node5&#45;&gt;Node4 -->
<g id="edge5" class="edge">
<title>Node5&#45;&gt;Node4</title>
<path fill="none" stroke="midnightblue" d="M72.71,-718C72.8,-709.27 72.74,-700.36 72.53,-691.86"/>
<polygon fill="none" stroke="midnightblue" points="69.21,-718.07 72.53,-728.13 76.21,-718.19 69.21,-718.07"/>
</g>
</g>
</svg>
