<?xml version="1.0" encoding="UTF-8" standalone="no"?>
<!DOCTYPE svg PUBLIC "-//W3C//DTD SVG 1.1//EN"
 "http://www.w3.org/Graphics/SVG/1.1/DTD/svg11.dtd">
<!-- Generated by graphviz version 2.48.0 (20210719.0153)
 -->
<!-- Title: /github/workspace/applications/incompressible_fluid_application/custom_strategies/builder_and_solvers/residualbased_elimination_discretelaplacian_builder_and_solver.h Pages: 1 -->
<svg width="444pt" height="250pt"
 viewBox="0.00 0.00 444.00 250.00" xmlns="http://www.w3.org/2000/svg" xmlns:xlink="http://www.w3.org/1999/xlink">
<g id="graph0" class="graph" transform="scale(1 1) rotate(0) translate(4 246)">
<title>/github/workspace/applications/incompressible_fluid_application/custom_strategies/builder_and_solvers/residualbased_elimination_discretelaplacian_builder_and_solver.h</title>
<!-- Node1 -->
<g id="node1" class="node">
<title>Node1</title>
<g id="a_node1"><a xlink:title=" ">
<polygon fill="#bfbfbf" stroke="black" points="123.5,-178.5 123.5,-241.5 311.5,-241.5 311.5,-178.5 123.5,-178.5"/>
<text text-anchor="start" x="131.5" y="-229.5" font-family="Helvetica,sans-Serif" font-size="10.00">/github/workspace/applications</text>
<text text-anchor="start" x="131.5" y="-218.5" font-family="Helvetica,sans-Serif" font-size="10.00">/incompressible_fluid_application</text>
<text text-anchor="start" x="131.5" y="-207.5" font-family="Helvetica,sans-Serif" font-size="10.00">/custom_strategies/builder_and</text>
<text text-anchor="start" x="131.5" y="-196.5" font-family="Helvetica,sans-Serif" font-size="10.00">_solvers/residualbased_elimination</text>
<text text-anchor="middle" x="217.5" y="-185.5" font-family="Helvetica,sans-Serif" font-size="10.00">_discretelaplacian_builder_and_solver.h</text>
</a>
</g>
</g>
<!-- Node2 -->
<g id="node2" class="node">
<title>Node2</title>
<g id="a_node2"><a xlink:href="../../d1/d06/residualbased__fluid__strategy_8h.html" target="_top" xlink:title=" ">
<polygon fill="none" stroke="black" points="0,-89.5 0,-141.5 209,-141.5 209,-89.5 0,-89.5"/>
<text text-anchor="start" x="8" y="-129.5" font-family="Helvetica,sans-Serif" font-size="10.00">/github/workspace/applications</text>
<text text-anchor="start" x="8" y="-118.5" font-family="Helvetica,sans-Serif" font-size="10.00">/incompressible_fluid_application</text>
<text text-anchor="start" x="8" y="-107.5" font-family="Helvetica,sans-Serif" font-size="10.00">/custom_strategies/strategies/residualbased</text>
<text text-anchor="middle" x="104.5" y="-96.5" font-family="Helvetica,sans-Serif" font-size="10.00">_fluid_strategy.h</text>
</a>
</g>
</g>
<!-- Node1&#45;&gt;Node2 -->
<g id="edge1" class="edge">
<title>Node1&#45;&gt;Node2</title>
<path fill="none" stroke="midnightblue" d="M172.19,-171.91C159.83,-161.79 146.72,-151.06 135.36,-141.77"/>
<polygon fill="midnightblue" stroke="midnightblue" points="170.23,-174.83 180.19,-178.46 174.67,-169.41 170.23,-174.83"/>
</g>
<!-- Node4 -->
<g id="node4" class="node">
<title>Node4</title>
<g id="a_node4"><a xlink:href="../../da/d32/residualbased__fluid__strategy__coupled_8h.html" target="_top" xlink:title=" ">
<polygon fill="none" stroke="black" points="227,-89.5 227,-141.5 436,-141.5 436,-89.5 227,-89.5"/>
<text text-anchor="start" x="235" y="-129.5" font-family="Helvetica,sans-Serif" font-size="10.00">/github/workspace/applications</text>
<text text-anchor="start" x="235" y="-118.5" font-family="Helvetica,sans-Serif" font-size="10.00">/incompressible_fluid_application</text>
<text text-anchor="start" x="235" y="-107.5" font-family="Helvetica,sans-Serif" font-size="10.00">/custom_strategies/strategies/residualbased</text>
<text text-anchor="middle" x="331.5" y="-96.5" font-family="Helvetica,sans-Serif" font-size="10.00">_fluid_strategy_coupled.h</text>
</a>
</g>
</g>
<!-- Node1&#45;&gt;Node4 -->
<g id="edge3" class="edge">
<title>Node1&#45;&gt;Node4</title>
<path fill="none" stroke="midnightblue" d="M263.21,-171.91C275.68,-161.79 288.91,-151.06 300.36,-141.77"/>
<polygon fill="midnightblue" stroke="midnightblue" points="260.7,-169.44 255.14,-178.46 265.11,-174.87 260.7,-169.44"/>
</g>
<!-- Node3 -->
<g id="node3" class="node">
<title>Node3</title>
<g id="a_node3"><a xlink:href="../../dc/dc8/incompressible__fluid__application_2custom__python_2add__custom__strategies__to__python_8cpp.html" target="_top" xlink:title=" ">
<polygon fill="none" stroke="black" points="122.5,-0.5 122.5,-52.5 312.5,-52.5 312.5,-0.5 122.5,-0.5"/>
<text text-anchor="start" x="130.5" y="-40.5" font-family="Helvetica,sans-Serif" font-size="10.00">/github/workspace/applications</text>
<text text-anchor="start" x="130.5" y="-29.5" font-family="Helvetica,sans-Serif" font-size="10.00">/incompressible_fluid_application</text>
<text text-anchor="start" x="130.5" y="-18.5" font-family="Helvetica,sans-Serif" font-size="10.00">/custom_python/add_custom_strategies</text>
<text text-anchor="middle" x="217.5" y="-7.5" font-family="Helvetica,sans-Serif" font-size="10.00">_to_python.cpp</text>
</a>
</g>
</g>
<!-- Node2&#45;&gt;Node3 -->
<g id="edge2" class="edge">
<title>Node2&#45;&gt;Node3</title>
<path fill="none" stroke="midnightblue" d="M145.13,-83.22C158.19,-73.16 172.48,-62.16 184.89,-52.61"/>
<polygon fill="midnightblue" stroke="midnightblue" points="142.97,-80.46 137.18,-89.34 147.24,-86.01 142.97,-80.46"/>
</g>
<!-- Node4&#45;&gt;Node3 -->
<g id="edge4" class="edge">
<title>Node4&#45;&gt;Node3</title>
<path fill="none" stroke="midnightblue" d="M290.51,-83.22C277.34,-73.16 262.92,-62.16 250.4,-52.61"/>
<polygon fill="midnightblue" stroke="midnightblue" points="288.45,-86.05 298.53,-89.34 292.7,-80.49 288.45,-86.05"/>
</g>
</g>
</svg>
