<?xml version="1.0" encoding="UTF-8" standalone="no"?>
<!DOCTYPE svg PUBLIC "-//W3C//DTD SVG 1.1//EN"
 "http://www.w3.org/Graphics/SVG/1.1/DTD/svg11.dtd">
<!-- Generated by graphviz version 2.48.0 (20210719.0153)
 -->
<!-- Title: boost::numeric::ublas::matrix_norm_frobenius&lt; T &gt; Pages: 1 -->
<svg width="150pt" height="204pt"
 viewBox="0.00 0.00 150.00 204.00" xmlns="http://www.w3.org/2000/svg" xmlns:xlink="http://www.w3.org/1999/xlink">
<g id="graph0" class="graph" transform="scale(1 1) rotate(0) translate(4 200)">
<title>boost::numeric::ublas::matrix_norm_frobenius&lt; T &gt;</title>
<!-- Node1 -->
<g id="node1" class="node">
<title>Node1</title>
<g id="a_node1"><a xlink:title=" ">
<polygon fill="#bfbfbf" stroke="black" points="0,-0.5 0,-79.5 142,-79.5 142,-0.5 0,-0.5"/>
<text text-anchor="start" x="8" y="-67.5" font-family="Helvetica,sans-Serif" font-size="10.00">boost::numeric::ublas</text>
<text text-anchor="middle" x="71" y="-56.5" font-family="Helvetica,sans-Serif" font-size="10.00">::matrix_norm_frobenius&lt; T &gt;</text>
<polyline fill="none" stroke="black" points="0,-49.5 142,-49.5 "/>
<text text-anchor="middle" x="71" y="-37.5" font-family="Helvetica,sans-Serif" font-size="10.00"> </text>
<polyline fill="none" stroke="black" points="0,-30.5 142,-30.5 "/>
<text text-anchor="start" x="8" y="-18.5" font-family="Helvetica,sans-Serif" font-size="10.00">+ apply()</text>
<text text-anchor="start" x="8" y="-7.5" font-family="Helvetica,sans-Serif" font-size="10.00">+ apply()</text>
</a>
</g>
</g>
<!-- Node2 -->
<g id="node2" class="node">
<title>Node2</title>
<g id="a_node2"><a xlink:href="../../df/de9/structboost_1_1numeric_1_1ublas_1_1matrix__scalar__real__unary__functor.html" target="_top" xlink:title=" ">
<polygon fill="none" stroke="black" points="17.5,-116.5 17.5,-195.5 124.5,-195.5 124.5,-116.5 17.5,-116.5"/>
<text text-anchor="start" x="25.5" y="-183.5" font-family="Helvetica,sans-Serif" font-size="10.00">boost::numeric::ublas</text>
<text text-anchor="start" x="25.5" y="-172.5" font-family="Helvetica,sans-Serif" font-size="10.00">::matrix_scalar_real</text>
<text text-anchor="middle" x="71" y="-161.5" font-family="Helvetica,sans-Serif" font-size="10.00">_unary_functor&lt; T &gt;</text>
<polyline fill="none" stroke="black" points="17.5,-154.5 124.5,-154.5 "/>
<text text-anchor="middle" x="71" y="-142.5" font-family="Helvetica,sans-Serif" font-size="10.00"> </text>
<polyline fill="none" stroke="black" points="17.5,-135.5 124.5,-135.5 "/>
<text text-anchor="middle" x="71" y="-123.5" font-family="Helvetica,sans-Serif" font-size="10.00"> </text>
</a>
</g>
</g>
<!-- Node2&#45;&gt;Node1 -->
<g id="edge1" class="edge">
<title>Node2&#45;&gt;Node1</title>
<path fill="none" stroke="midnightblue" d="M64.31,-106.15C64.18,-97.26 64.26,-88.1 64.57,-79.56"/>
<polygon fill="none" stroke="midnightblue" points="60.82,-106.5 64.57,-116.4 67.82,-106.32 60.82,-106.5"/>
</g>
<!-- Node2&#45;&gt;Node1 -->
<g id="edge2" class="edge">
<title>Node2&#45;&gt;Node1</title>
<path fill="none" stroke="midnightblue" d="M77.69,-106.15C77.82,-97.26 77.74,-88.1 77.43,-79.56"/>
<polygon fill="none" stroke="midnightblue" points="74.18,-106.32 77.43,-116.4 81.18,-106.5 74.18,-106.32"/>
</g>
</g>
</svg>
