<?xml version="1.0" encoding="UTF-8" standalone="no"?>
<!DOCTYPE svg PUBLIC "-//W3C//DTD SVG 1.1//EN"
 "http://www.w3.org/Graphics/SVG/1.1/DTD/svg11.dtd">
<!-- Generated by graphviz version 2.48.0 (20210719.0153)
 -->
<!-- Title: boost::numeric::ublas::vector_scalar_binary&lt; E1, E2, F &gt; Pages: 1 -->
<svg width="128pt" height="419pt"
 viewBox="0.00 0.00 128.00 419.00" xmlns="http://www.w3.org/2000/svg" xmlns:xlink="http://www.w3.org/1999/xlink">
<g id="graph0" class="graph" transform="scale(1 1) rotate(0) translate(4 415)">
<title>boost::numeric::ublas::vector_scalar_binary&lt; E1, E2, F &gt;</title>
<!-- Node1 -->
<g id="node1" class="node">
<title>Node1</title>
<g id="a_node1"><a xlink:title=" ">
<polygon fill="#bfbfbf" stroke="black" points="0,-0.5 0,-112.5 120,-112.5 120,-0.5 0,-0.5"/>
<text text-anchor="start" x="8" y="-100.5" font-family="Helvetica,sans-Serif" font-size="10.00">boost::numeric::ublas</text>
<text text-anchor="start" x="8" y="-89.5" font-family="Helvetica,sans-Serif" font-size="10.00">::vector_scalar_binary</text>
<text text-anchor="middle" x="60" y="-78.5" font-family="Helvetica,sans-Serif" font-size="10.00">&lt; E1, E2, F &gt;</text>
<polyline fill="none" stroke="black" points="0,-71.5 120,-71.5 "/>
<text text-anchor="start" x="8" y="-59.5" font-family="Helvetica,sans-Serif" font-size="10.00">+ complexity</text>
<polyline fill="none" stroke="black" points="0,-52.5 120,-52.5 "/>
<text text-anchor="start" x="8" y="-40.5" font-family="Helvetica,sans-Serif" font-size="10.00">+ vector_scalar_binary()</text>
<text text-anchor="start" x="8" y="-29.5" font-family="Helvetica,sans-Serif" font-size="10.00">+ operator value_type()</text>
<text text-anchor="start" x="8" y="-18.5" font-family="Helvetica,sans-Serif" font-size="10.00">+ vector_scalar_binary()</text>
<text text-anchor="start" x="8" y="-7.5" font-family="Helvetica,sans-Serif" font-size="10.00">+ operator value_type()</text>
</a>
</g>
</g>
<!-- Node2 -->
<g id="node2" class="node">
<title>Node2</title>
<g id="a_node2"><a xlink:href="../../d2/d52/classboost_1_1numeric_1_1ublas_1_1scalar__expression.html" target="_top" xlink:title=" ">
<polygon fill="none" stroke="black" points="6,-149.5 6,-272.5 114,-272.5 114,-149.5 6,-149.5"/>
<text text-anchor="start" x="14" y="-260.5" font-family="Helvetica,sans-Serif" font-size="10.00">boost::numeric::ublas</text>
<text text-anchor="start" x="14" y="-249.5" font-family="Helvetica,sans-Serif" font-size="10.00">::scalar_expression&lt;</text>
<text text-anchor="start" x="14" y="-238.5" font-family="Helvetica,sans-Serif" font-size="10.00"> vector_scalar_binary</text>
<text text-anchor="middle" x="60" y="-227.5" font-family="Helvetica,sans-Serif" font-size="10.00">&lt; E1, E2, F &gt; &gt;</text>
<polyline fill="none" stroke="black" points="6,-220.5 114,-220.5 "/>
<text text-anchor="middle" x="60" y="-208.5" font-family="Helvetica,sans-Serif" font-size="10.00"> </text>
<polyline fill="none" stroke="black" points="6,-201.5 114,-201.5 "/>
<text text-anchor="start" x="14" y="-189.5" font-family="Helvetica,sans-Serif" font-size="10.00">+ operator()()</text>
<text text-anchor="start" x="14" y="-178.5" font-family="Helvetica,sans-Serif" font-size="10.00">+ operator()()</text>
<text text-anchor="start" x="14" y="-167.5" font-family="Helvetica,sans-Serif" font-size="10.00">+ operator()()</text>
<text text-anchor="start" x="14" y="-156.5" font-family="Helvetica,sans-Serif" font-size="10.00">+ operator()()</text>
</a>
</g>
</g>
<!-- Node2&#45;&gt;Node1 -->
<g id="edge1" class="edge">
<title>Node2&#45;&gt;Node1</title>
<path fill="none" stroke="midnightblue" d="M53.27,-139.25C53.21,-130.29 53.29,-121.23 53.49,-112.56"/>
<polygon fill="none" stroke="midnightblue" points="49.77,-139.33 53.38,-149.29 56.77,-139.25 49.77,-139.33"/>
</g>
<!-- Node2&#45;&gt;Node1 -->
<g id="edge4" class="edge">
<title>Node2&#45;&gt;Node1</title>
<path fill="none" stroke="midnightblue" d="M66.73,-139.25C66.79,-130.29 66.71,-121.23 66.51,-112.56"/>
<polygon fill="none" stroke="midnightblue" points="63.23,-139.25 66.62,-149.29 70.23,-139.33 63.23,-139.25"/>
</g>
<!-- Node3 -->
<g id="node3" class="node">
<title>Node3</title>
<g id="a_node3"><a xlink:href="../../dd/db7/classboost_1_1numeric_1_1ublas_1_1ublas__expression.html" target="_top" xlink:title=" ">
<polygon fill="none" stroke="black" points="0.5,-309.5 0.5,-410.5 119.5,-410.5 119.5,-309.5 0.5,-309.5"/>
<text text-anchor="start" x="8.5" y="-398.5" font-family="Helvetica,sans-Serif" font-size="10.00">boost::numeric::ublas</text>
<text text-anchor="middle" x="60" y="-387.5" font-family="Helvetica,sans-Serif" font-size="10.00">::ublas_expression&lt; E &gt;</text>
<polyline fill="none" stroke="black" points="0.5,-380.5 119.5,-380.5 "/>
<text text-anchor="middle" x="60" y="-368.5" font-family="Helvetica,sans-Serif" font-size="10.00"> </text>
<polyline fill="none" stroke="black" points="0.5,-361.5 119.5,-361.5 "/>
<text text-anchor="start" x="8.5" y="-349.5" font-family="Helvetica,sans-Serif" font-size="10.00"># ublas_expression()</text>
<text text-anchor="start" x="8.5" y="-338.5" font-family="Helvetica,sans-Serif" font-size="10.00"># ~ublas_expression()</text>
<text text-anchor="start" x="8.5" y="-327.5" font-family="Helvetica,sans-Serif" font-size="10.00"># ublas_expression()</text>
<text text-anchor="start" x="8.5" y="-316.5" font-family="Helvetica,sans-Serif" font-size="10.00"># ~ublas_expression()</text>
</a>
</g>
</g>
<!-- Node3&#45;&gt;Node2 -->
<g id="edge2" class="edge">
<title>Node3&#45;&gt;Node2</title>
<path fill="none" stroke="midnightblue" d="M53.35,-299.14C53.22,-290.41 53.22,-281.42 53.34,-272.67"/>
<polygon fill="none" stroke="midnightblue" points="49.86,-299.31 53.57,-309.23 56.86,-299.16 49.86,-299.31"/>
</g>
<!-- Node3&#45;&gt;Node2 -->
<g id="edge3" class="edge">
<title>Node3&#45;&gt;Node2</title>
<path fill="none" stroke="midnightblue" d="M66.65,-299.14C66.78,-290.41 66.78,-281.42 66.66,-272.67"/>
<polygon fill="none" stroke="midnightblue" points="63.14,-299.16 66.43,-309.23 70.14,-299.31 63.14,-299.16"/>
</g>
</g>
</svg>
