<?xml version="1.0" encoding="UTF-8" standalone="no"?>
<!DOCTYPE svg PUBLIC "-//W3C//DTD SVG 1.1//EN"
 "http://www.w3.org/Graphics/SVG/1.1/DTD/svg11.dtd">
<!-- Generated by graphviz version 2.48.0 (20210719.0153)
 -->
<!-- Title: /github/workspace/kratos/geometries/quadrilateral_3d_8.h Pages: 1 -->
<svg width="352pt" height="184pt"
 viewBox="0.00 0.00 352.00 184.00" xmlns="http://www.w3.org/2000/svg" xmlns:xlink="http://www.w3.org/1999/xlink">
<g id="graph0" class="graph" transform="scale(1 1) rotate(0) translate(4 180)">
<title>/github/workspace/kratos/geometries/quadrilateral_3d_8.h</title>
<!-- Node1 -->
<g id="node1" class="node">
<title>Node1</title>
<g id="a_node1"><a xlink:title=" ">
<polygon fill="#bfbfbf" stroke="black" points="103.5,-145.5 103.5,-175.5 260.5,-175.5 260.5,-145.5 103.5,-145.5"/>
<text text-anchor="start" x="111.5" y="-163.5" font-family="Helvetica,sans-Serif" font-size="10.00">/github/workspace/kratos</text>
<text text-anchor="middle" x="182" y="-152.5" font-family="Helvetica,sans-Serif" font-size="10.00">/geometries/quadrilateral_3d_8.h</text>
</a>
</g>
</g>
<!-- Node2 -->
<g id="node2" class="node">
<title>Node2</title>
<g id="a_node2"><a xlink:href="../../d7/db8/hexahedra__3d__20_8h.html" target="_top" xlink:title=" ">
<polygon fill="none" stroke="black" points="0,-78.5 0,-108.5 154,-108.5 154,-78.5 0,-78.5"/>
<text text-anchor="start" x="8" y="-96.5" font-family="Helvetica,sans-Serif" font-size="10.00">/github/workspace/kratos</text>
<text text-anchor="middle" x="77" y="-85.5" font-family="Helvetica,sans-Serif" font-size="10.00">/geometries/hexahedra_3d_20.h</text>
</a>
</g>
</g>
<!-- Node1&#45;&gt;Node2 -->
<g id="edge1" class="edge">
<title>Node1&#45;&gt;Node2</title>
<path fill="none" stroke="midnightblue" d="M150.52,-140.02C134.18,-129.9 114.59,-117.77 99.74,-108.58"/>
<polygon fill="midnightblue" stroke="midnightblue" points="148.87,-143.11 159.22,-145.4 152.56,-137.16 148.87,-143.11"/>
</g>
<!-- Node3 -->
<g id="node3" class="node">
<title>Node3</title>
<g id="a_node3"><a xlink:href="../../dc/d93/structural__application_8cpp.html" target="_top" xlink:title=" ">
<polygon fill="none" stroke="black" points="104.5,-0.5 104.5,-41.5 259.5,-41.5 259.5,-0.5 104.5,-0.5"/>
<text text-anchor="start" x="112.5" y="-29.5" font-family="Helvetica,sans-Serif" font-size="10.00">/github/workspace/applications</text>
<text text-anchor="start" x="112.5" y="-18.5" font-family="Helvetica,sans-Serif" font-size="10.00">/structural_application/structural</text>
<text text-anchor="middle" x="182" y="-7.5" font-family="Helvetica,sans-Serif" font-size="10.00">_application.cpp</text>
</a>
</g>
</g>
<!-- Node1&#45;&gt;Node3 -->
<g id="edge5" class="edge">
<title>Node1&#45;&gt;Node3</title>
<path fill="none" stroke="midnightblue" d="M182,-135.26C182,-108.6 182,-66.28 182,-41.62"/>
<polygon fill="midnightblue" stroke="midnightblue" points="178.5,-135.3 182,-145.3 185.5,-135.3 178.5,-135.3"/>
</g>
<!-- Node4 -->
<g id="node4" class="node">
<title>Node4</title>
<g id="a_node4"><a xlink:href="../../d7/dfd/prism__3d__15_8h.html" target="_top" xlink:title=" ">
<polygon fill="none" stroke="black" points="210,-78.5 210,-108.5 344,-108.5 344,-78.5 210,-78.5"/>
<text text-anchor="start" x="218" y="-96.5" font-family="Helvetica,sans-Serif" font-size="10.00">/github/workspace/kratos</text>
<text text-anchor="middle" x="277" y="-85.5" font-family="Helvetica,sans-Serif" font-size="10.00">/geometries/prism_3d_15.h</text>
</a>
</g>
</g>
<!-- Node1&#45;&gt;Node4 -->
<g id="edge3" class="edge">
<title>Node1&#45;&gt;Node4</title>
<path fill="none" stroke="midnightblue" d="M210.89,-139.73C225.59,-129.68 243.11,-117.68 256.43,-108.58"/>
<polygon fill="midnightblue" stroke="midnightblue" points="208.89,-136.86 202.61,-145.4 212.84,-142.64 208.89,-136.86"/>
</g>
<!-- Node2&#45;&gt;Node3 -->
<g id="edge2" class="edge">
<title>Node2&#45;&gt;Node3</title>
<path fill="none" stroke="midnightblue" d="M106.56,-72.65C120.99,-62.97 138.29,-51.35 152.69,-41.68"/>
<polygon fill="midnightblue" stroke="midnightblue" points="104.35,-69.92 98,-78.4 108.25,-75.73 104.35,-69.92"/>
</g>
<!-- Node4&#45;&gt;Node3 -->
<g id="edge4" class="edge">
<title>Node4&#45;&gt;Node3</title>
<path fill="none" stroke="midnightblue" d="M249.66,-72.21C236.68,-62.58 221.25,-51.12 208.4,-41.59"/>
<polygon fill="midnightblue" stroke="midnightblue" points="247.66,-75.08 257.78,-78.23 251.83,-69.46 247.66,-75.08"/>
</g>
</g>
</svg>
