<?xml version="1.0" encoding="UTF-8" standalone="no"?>
<!DOCTYPE svg PUBLIC "-//W3C//DTD SVG 1.1//EN"
 "http://www.w3.org/Graphics/SVG/1.1/DTD/svg11.dtd">
<!-- Generated by graphviz version 2.48.0 (20210719.0153)
 -->
<!-- Title: boost::numeric::ublas::matrix_temporary_traits&lt; M &gt; Pages: 1 -->
<svg width="841pt" height="204pt"
 viewBox="0.00 0.00 841.00 204.00" xmlns="http://www.w3.org/2000/svg" xmlns:xlink="http://www.w3.org/1999/xlink">
<g id="graph0" class="graph" transform="scale(1 1) rotate(0) translate(4 200)">
<title>boost::numeric::ublas::matrix_temporary_traits&lt; M &gt;</title>
<!-- Node1 -->
<g id="node1" class="node">
<title>Node1</title>
<g id="a_node1"><a xlink:title="For the creation of temporary vectors in the assignment of proxies.">
<polygon fill="#bfbfbf" stroke="black" points="343,-127.5 343,-195.5 490,-195.5 490,-127.5 343,-127.5"/>
<text text-anchor="start" x="351" y="-183.5" font-family="Helvetica,sans-Serif" font-size="10.00">boost::numeric::ublas</text>
<text text-anchor="middle" x="416.5" y="-172.5" font-family="Helvetica,sans-Serif" font-size="10.00">::matrix_temporary_traits&lt; M &gt;</text>
<polyline fill="none" stroke="black" points="343,-165.5 490,-165.5 "/>
<text text-anchor="middle" x="416.5" y="-153.5" font-family="Helvetica,sans-Serif" font-size="10.00"> </text>
<polyline fill="none" stroke="black" points="343,-146.5 490,-146.5 "/>
<text text-anchor="middle" x="416.5" y="-134.5" font-family="Helvetica,sans-Serif" font-size="10.00"> </text>
</a>
</g>
</g>
<!-- Node2 -->
<g id="node2" class="node">
<title>Node2</title>
<g id="a_node2"><a xlink:href="../../d5/d67/structboost_1_1numeric_1_1ublas_1_1matrix__temporary__traits_3_01banded__adaptor_3_01_m_01_4_01_4.html" target="_top" xlink:title=" ">
<polygon fill="none" stroke="black" points="0,-6 0,-85 127,-85 127,-6 0,-6"/>
<text text-anchor="start" x="8" y="-73" font-family="Helvetica,sans-Serif" font-size="10.00">boost::numeric::ublas</text>
<text text-anchor="start" x="8" y="-62" font-family="Helvetica,sans-Serif" font-size="10.00">::matrix_temporary_traits</text>
<text text-anchor="middle" x="63.5" y="-51" font-family="Helvetica,sans-Serif" font-size="10.00">&lt; banded_adaptor&lt; M &gt; &gt;</text>
<polyline fill="none" stroke="black" points="0,-44 127,-44 "/>
<text text-anchor="middle" x="63.5" y="-32" font-family="Helvetica,sans-Serif" font-size="10.00"> </text>
<polyline fill="none" stroke="black" points="0,-25 127,-25 "/>
<text text-anchor="middle" x="63.5" y="-13" font-family="Helvetica,sans-Serif" font-size="10.00"> </text>
</a>
</g>
</g>
<!-- Node1&#45;&gt;Node2 -->
<g id="edge1" class="edge">
<title>Node1&#45;&gt;Node2</title>
<path fill="none" stroke="midnightblue" d="M332.76,-148.06C273.72,-137.16 193.81,-118.67 127.5,-91 123.25,-89.23 118.97,-87.23 114.72,-85.09"/>
<polygon fill="none" stroke="midnightblue" points="332.32,-151.54 342.79,-149.87 333.57,-144.65 332.32,-151.54"/>
</g>
<!-- Node1&#45;&gt;Node2 -->
<g id="edge2" class="edge">
<title>Node1&#45;&gt;Node2</title>
<path fill="none" stroke="midnightblue" d="M332.93,-145.13C278.31,-133.97 206.2,-116.33 145.5,-91 139.47,-88.48 133.36,-85.52 127.33,-82.33"/>
<polygon fill="none" stroke="midnightblue" points="332.43,-148.6 342.92,-147.14 333.81,-141.74 332.43,-148.6"/>
</g>
<!-- Node3 -->
<g id="node3" class="node">
<title>Node3</title>
<g id="a_node3"><a xlink:href="../../d3/dac/structboost_1_1numeric_1_1ublas_1_1matrix__temporary__traits_3_01hermitian__adaptor_3_01_m_00_01_t_r_i_01_4_01_4.html" target="_top" xlink:title=" ">
<polygon fill="none" stroke="black" points="145.5,-0.5 145.5,-90.5 267.5,-90.5 267.5,-0.5 145.5,-0.5"/>
<text text-anchor="start" x="153.5" y="-78.5" font-family="Helvetica,sans-Serif" font-size="10.00">boost::numeric::ublas</text>
<text text-anchor="start" x="153.5" y="-67.5" font-family="Helvetica,sans-Serif" font-size="10.00">::matrix_temporary_traits</text>
<text text-anchor="start" x="153.5" y="-56.5" font-family="Helvetica,sans-Serif" font-size="10.00">&lt; hermitian_adaptor&lt; M,</text>
<text text-anchor="middle" x="206.5" y="-45.5" font-family="Helvetica,sans-Serif" font-size="10.00"> TRI &gt; &gt;</text>
<polyline fill="none" stroke="black" points="145.5,-38.5 267.5,-38.5 "/>
<text text-anchor="middle" x="206.5" y="-26.5" font-family="Helvetica,sans-Serif" font-size="10.00"> </text>
<polyline fill="none" stroke="black" points="145.5,-19.5 267.5,-19.5 "/>
<text text-anchor="middle" x="206.5" y="-7.5" font-family="Helvetica,sans-Serif" font-size="10.00"> </text>
</a>
</g>
</g>
<!-- Node1&#45;&gt;Node3 -->
<g id="edge3" class="edge">
<title>Node1&#45;&gt;Node3</title>
<path fill="none" stroke="midnightblue" d="M333.59,-125.44C311.77,-114.83 288.49,-102.84 267.5,-91 267.25,-90.86 267,-90.72 266.75,-90.57"/>
<polygon fill="none" stroke="midnightblue" points="332.32,-128.71 342.85,-129.9 335.36,-122.4 332.32,-128.71"/>
</g>
<!-- Node1&#45;&gt;Node3 -->
<g id="edge4" class="edge">
<title>Node1&#45;&gt;Node3</title>
<path fill="none" stroke="midnightblue" d="M345.92,-122.96C326.18,-112.98 304.87,-101.92 285.5,-91 279.73,-87.75 273.77,-84.22 267.83,-80.64"/>
<polygon fill="none" stroke="midnightblue" points="344.36,-126.09 354.86,-127.46 347.51,-119.84 344.36,-126.09"/>
</g>
<!-- Node4 -->
<g id="node4" class="node">
<title>Node4</title>
<g id="a_node4"><a xlink:href="../../de/d91/structboost_1_1numeric_1_1ublas_1_1matrix__temporary__traits_3_01matrix__indirect_3_01_m_01_4_01_4.html" target="_top" xlink:title="Specialization of temporary_traits.">
<polygon fill="none" stroke="black" points="285.5,-6 285.5,-85 407.5,-85 407.5,-6 285.5,-6"/>
<text text-anchor="start" x="293.5" y="-73" font-family="Helvetica,sans-Serif" font-size="10.00">boost::numeric::ublas</text>
<text text-anchor="start" x="293.5" y="-62" font-family="Helvetica,sans-Serif" font-size="10.00">::matrix_temporary_traits</text>
<text text-anchor="middle" x="346.5" y="-51" font-family="Helvetica,sans-Serif" font-size="10.00">&lt; matrix_indirect&lt; M &gt; &gt;</text>
<polyline fill="none" stroke="black" points="285.5,-44 407.5,-44 "/>
<text text-anchor="middle" x="346.5" y="-32" font-family="Helvetica,sans-Serif" font-size="10.00"> </text>
<polyline fill="none" stroke="black" points="285.5,-25 407.5,-25 "/>
<text text-anchor="middle" x="346.5" y="-13" font-family="Helvetica,sans-Serif" font-size="10.00"> </text>
</a>
</g>
</g>
<!-- Node1&#45;&gt;Node4 -->
<g id="edge5" class="edge">
<title>Node1&#45;&gt;Node4</title>
<path fill="none" stroke="midnightblue" d="M384.28,-118.66C377.25,-107.74 370.08,-96.01 363.86,-85.25"/>
<polygon fill="none" stroke="midnightblue" points="381.47,-120.76 389.86,-127.22 387.33,-116.93 381.47,-120.76"/>
</g>
<!-- Node1&#45;&gt;Node4 -->
<g id="edge6" class="edge">
<title>Node1&#45;&gt;Node4</title>
<path fill="none" stroke="midnightblue" d="M397.15,-118.34C390.81,-107.5 383.65,-95.9 376.73,-85.25"/>
<polygon fill="none" stroke="midnightblue" points="394.24,-120.3 402.27,-127.22 400.31,-116.81 394.24,-120.3"/>
</g>
<!-- Node5 -->
<g id="node5" class="node">
<title>Node5</title>
<g id="a_node5"><a xlink:href="../../d5/d5f/structboost_1_1numeric_1_1ublas_1_1matrix__temporary__traits_3_01matrix__range_3_01_m_01_4_01_4.html" target="_top" xlink:title=" ">
<polygon fill="none" stroke="black" points="425.5,-6 425.5,-85 547.5,-85 547.5,-6 425.5,-6"/>
<text text-anchor="start" x="433.5" y="-73" font-family="Helvetica,sans-Serif" font-size="10.00">boost::numeric::ublas</text>
<text text-anchor="start" x="433.5" y="-62" font-family="Helvetica,sans-Serif" font-size="10.00">::matrix_temporary_traits</text>
<text text-anchor="middle" x="486.5" y="-51" font-family="Helvetica,sans-Serif" font-size="10.00">&lt; matrix_range&lt; M &gt; &gt;</text>
<polyline fill="none" stroke="black" points="425.5,-44 547.5,-44 "/>
<text text-anchor="middle" x="486.5" y="-32" font-family="Helvetica,sans-Serif" font-size="10.00"> </text>
<polyline fill="none" stroke="black" points="425.5,-25 547.5,-25 "/>
<text text-anchor="middle" x="486.5" y="-13" font-family="Helvetica,sans-Serif" font-size="10.00"> </text>
</a>
</g>
</g>
<!-- Node1&#45;&gt;Node5 -->
<g id="edge7" class="edge">
<title>Node1&#45;&gt;Node5</title>
<path fill="none" stroke="midnightblue" d="M435.85,-118.34C442.19,-107.5 449.35,-95.9 456.27,-85.25"/>
<polygon fill="none" stroke="midnightblue" points="432.69,-116.81 430.73,-127.22 438.76,-120.3 432.69,-116.81"/>
</g>
<!-- Node1&#45;&gt;Node5 -->
<g id="edge8" class="edge">
<title>Node1&#45;&gt;Node5</title>
<path fill="none" stroke="midnightblue" d="M448.72,-118.66C455.75,-107.74 462.92,-96.01 469.14,-85.25"/>
<polygon fill="none" stroke="midnightblue" points="445.67,-116.93 443.14,-127.22 451.53,-120.76 445.67,-116.93"/>
</g>
<!-- Node6 -->
<g id="node6" class="node">
<title>Node6</title>
<g id="a_node6"><a xlink:href="../../d0/dc2/structboost_1_1numeric_1_1ublas_1_1matrix__temporary__traits_3_01matrix__slice_3_01_m_01_4_01_4.html" target="_top" xlink:title=" ">
<polygon fill="none" stroke="black" points="565.5,-6 565.5,-85 687.5,-85 687.5,-6 565.5,-6"/>
<text text-anchor="start" x="573.5" y="-73" font-family="Helvetica,sans-Serif" font-size="10.00">boost::numeric::ublas</text>
<text text-anchor="start" x="573.5" y="-62" font-family="Helvetica,sans-Serif" font-size="10.00">::matrix_temporary_traits</text>
<text text-anchor="middle" x="626.5" y="-51" font-family="Helvetica,sans-Serif" font-size="10.00">&lt; matrix_slice&lt; M &gt; &gt;</text>
<polyline fill="none" stroke="black" points="565.5,-44 687.5,-44 "/>
<text text-anchor="middle" x="626.5" y="-32" font-family="Helvetica,sans-Serif" font-size="10.00"> </text>
<polyline fill="none" stroke="black" points="565.5,-25 687.5,-25 "/>
<text text-anchor="middle" x="626.5" y="-13" font-family="Helvetica,sans-Serif" font-size="10.00"> </text>
</a>
</g>
</g>
<!-- Node1&#45;&gt;Node6 -->
<g id="edge9" class="edge">
<title>Node1&#45;&gt;Node6</title>
<path fill="none" stroke="midnightblue" d="M487.08,-122.96C506.82,-112.98 528.13,-101.92 547.5,-91 553.27,-87.75 559.23,-84.22 565.17,-80.64"/>
<polygon fill="none" stroke="midnightblue" points="485.49,-119.84 478.14,-127.46 488.64,-126.09 485.49,-119.84"/>
</g>
<!-- Node1&#45;&gt;Node6 -->
<g id="edge10" class="edge">
<title>Node1&#45;&gt;Node6</title>
<path fill="none" stroke="midnightblue" d="M499.41,-125.44C521.23,-114.83 544.51,-102.84 565.5,-91 568.89,-89.09 572.34,-87.09 575.79,-85.03"/>
<polygon fill="none" stroke="midnightblue" points="497.64,-122.4 490.15,-129.9 500.68,-128.71 497.64,-122.4"/>
</g>
<!-- Node7 -->
<g id="node7" class="node">
<title>Node7</title>
<g id="a_node7"><a xlink:href="../../d4/dca/structboost_1_1numeric_1_1ublas_1_1matrix__temporary__traits_3_01symmetric__adaptor_3_01_m_00_01_t_r_i_01_4_01_4.html" target="_top" xlink:title=" ">
<polygon fill="none" stroke="black" points="706,-0.5 706,-90.5 833,-90.5 833,-0.5 706,-0.5"/>
<text text-anchor="start" x="714" y="-78.5" font-family="Helvetica,sans-Serif" font-size="10.00">boost::numeric::ublas</text>
<text text-anchor="start" x="714" y="-67.5" font-family="Helvetica,sans-Serif" font-size="10.00">::matrix_temporary_traits</text>
<text text-anchor="start" x="714" y="-56.5" font-family="Helvetica,sans-Serif" font-size="10.00">&lt; symmetric_adaptor&lt; M,</text>
<text text-anchor="middle" x="769.5" y="-45.5" font-family="Helvetica,sans-Serif" font-size="10.00"> TRI &gt; &gt;</text>
<polyline fill="none" stroke="black" points="706,-38.5 833,-38.5 "/>
<text text-anchor="middle" x="769.5" y="-26.5" font-family="Helvetica,sans-Serif" font-size="10.00"> </text>
<polyline fill="none" stroke="black" points="706,-19.5 833,-19.5 "/>
<text text-anchor="middle" x="769.5" y="-7.5" font-family="Helvetica,sans-Serif" font-size="10.00"> </text>
</a>
</g>
</g>
<!-- Node1&#45;&gt;Node7 -->
<g id="edge11" class="edge">
<title>Node1&#45;&gt;Node7</title>
<path fill="none" stroke="midnightblue" d="M500.07,-145.13C554.69,-133.97 626.8,-116.33 687.5,-91 693.53,-88.48 699.64,-85.52 705.67,-82.33"/>
<polygon fill="none" stroke="midnightblue" points="499.19,-141.74 490.08,-147.14 500.57,-148.6 499.19,-141.74"/>
</g>
<!-- Node1&#45;&gt;Node7 -->
<g id="edge12" class="edge">
<title>Node1&#45;&gt;Node7</title>
<path fill="none" stroke="midnightblue" d="M500.24,-148.06C559.28,-137.16 639.19,-118.67 705.5,-91 705.77,-90.89 706.05,-90.77 706.32,-90.65"/>
<polygon fill="none" stroke="midnightblue" points="499.43,-144.65 490.21,-149.87 500.68,-151.54 499.43,-144.65"/>
</g>
</g>
</svg>
