<?xml version="1.0" encoding="UTF-8" standalone="no"?>
<!DOCTYPE svg PUBLIC "-//W3C//DTD SVG 1.1//EN"
 "http://www.w3.org/Graphics/SVG/1.1/DTD/svg11.dtd">
<!-- Generated by graphviz version 2.48.0 (20210719.0153)
 -->
<!-- Title: boost::numeric::ublas::indexed_iterator1&lt; C, IC &gt; Pages: 1 -->
<svg width="296pt" height="573pt"
 viewBox="0.00 0.00 296.00 573.00" xmlns="http://www.w3.org/2000/svg" xmlns:xlink="http://www.w3.org/1999/xlink">
<g id="graph0" class="graph" transform="scale(1 1) rotate(0) translate(4 569)">
<title>boost::numeric::ublas::indexed_iterator1&lt; C, IC &gt;</title>
<!-- Node1 -->
<g id="node1" class="node">
<title>Node1</title>
<g id="a_node1"><a xlink:title="A class implementing an indexed random access iterator of a matrix.">
<polygon fill="#bfbfbf" stroke="black" points="87.5,-0.5 87.5,-189.5 194.5,-189.5 194.5,-0.5 87.5,-0.5"/>
<text text-anchor="start" x="95.5" y="-177.5" font-family="Helvetica,sans-Serif" font-size="10.00">boost::numeric::ublas</text>
<text text-anchor="start" x="95.5" y="-166.5" font-family="Helvetica,sans-Serif" font-size="10.00">::indexed_iterator1&lt;</text>
<text text-anchor="middle" x="141" y="-155.5" font-family="Helvetica,sans-Serif" font-size="10.00"> C, IC &gt;</text>
<polyline fill="none" stroke="black" points="87.5,-148.5 194.5,-148.5 "/>
<text text-anchor="middle" x="141" y="-136.5" font-family="Helvetica,sans-Serif" font-size="10.00"> </text>
<polyline fill="none" stroke="black" points="87.5,-129.5 194.5,-129.5 "/>
<text text-anchor="start" x="95.5" y="-117.5" font-family="Helvetica,sans-Serif" font-size="10.00">+ indexed_iterator1()</text>
<text text-anchor="start" x="95.5" y="-106.5" font-family="Helvetica,sans-Serif" font-size="10.00">+ indexed_iterator1()</text>
<text text-anchor="start" x="95.5" y="-95.5" font-family="Helvetica,sans-Serif" font-size="10.00">+ operator++()</text>
<text text-anchor="start" x="95.5" y="-84.5" font-family="Helvetica,sans-Serif" font-size="10.00">+ operator&#45;&#45;()</text>
<text text-anchor="start" x="95.5" y="-73.5" font-family="Helvetica,sans-Serif" font-size="10.00">+ operator+=()</text>
<text text-anchor="start" x="95.5" y="-62.5" font-family="Helvetica,sans-Serif" font-size="10.00">+ operator&#45;=()</text>
<text text-anchor="start" x="95.5" y="-51.5" font-family="Helvetica,sans-Serif" font-size="10.00">+ operator&#45;()</text>
<text text-anchor="start" x="95.5" y="-40.5" font-family="Helvetica,sans-Serif" font-size="10.00">+ operator*()</text>
<text text-anchor="start" x="95.5" y="-29.5" font-family="Helvetica,sans-Serif" font-size="10.00">+ operator[]()</text>
<text text-anchor="start" x="95.5" y="-18.5" font-family="Helvetica,sans-Serif" font-size="10.00">+ index1()</text>
<text text-anchor="start" x="95.5" y="-7.5" font-family="Helvetica,sans-Serif" font-size="10.00">and 26 more...</text>
</a>
</g>
</g>
<!-- Node2 -->
<g id="node2" class="node">
<title>Node2</title>
<g id="a_node2"><a xlink:href="../../dc/d0a/classboost_1_1numeric_1_1ublas_1_1container__reference.html" target="_top" xlink:title="Base class of all proxy classes that contain a (redirectable) reference to a mutable object.">
<polygon fill="none" stroke="black" points="0,-248.5 0,-415.5 130,-415.5 130,-248.5 0,-248.5"/>
<text text-anchor="start" x="8" y="-403.5" font-family="Helvetica,sans-Serif" font-size="10.00">boost::numeric::ublas</text>
<text text-anchor="middle" x="65" y="-392.5" font-family="Helvetica,sans-Serif" font-size="10.00">::container_reference&lt; C &gt;</text>
<polyline fill="none" stroke="black" points="0,-385.5 130,-385.5 "/>
<text text-anchor="middle" x="65" y="-373.5" font-family="Helvetica,sans-Serif" font-size="10.00"> </text>
<polyline fill="none" stroke="black" points="0,-366.5 130,-366.5 "/>
<text text-anchor="start" x="8" y="-354.5" font-family="Helvetica,sans-Serif" font-size="10.00">+ container_reference()</text>
<text text-anchor="start" x="8" y="-343.5" font-family="Helvetica,sans-Serif" font-size="10.00">+ container_reference()</text>
<text text-anchor="start" x="8" y="-332.5" font-family="Helvetica,sans-Serif" font-size="10.00">+ operator()()</text>
<text text-anchor="start" x="8" y="-321.5" font-family="Helvetica,sans-Serif" font-size="10.00">+ assign()</text>
<text text-anchor="start" x="8" y="-310.5" font-family="Helvetica,sans-Serif" font-size="10.00">+ same_closure()</text>
<text text-anchor="start" x="8" y="-299.5" font-family="Helvetica,sans-Serif" font-size="10.00">+ container_reference()</text>
<text text-anchor="start" x="8" y="-288.5" font-family="Helvetica,sans-Serif" font-size="10.00">+ container_reference()</text>
<text text-anchor="start" x="8" y="-277.5" font-family="Helvetica,sans-Serif" font-size="10.00">+ operator()()</text>
<text text-anchor="start" x="8" y="-266.5" font-family="Helvetica,sans-Serif" font-size="10.00">+ assign()</text>
<text text-anchor="start" x="8" y="-255.5" font-family="Helvetica,sans-Serif" font-size="10.00">+ same_closure()</text>
</a>
</g>
</g>
<!-- Node2&#45;&gt;Node1 -->
<g id="edge1" class="edge">
<title>Node2&#45;&gt;Node1</title>
<path fill="none" stroke="midnightblue" d="M88.29,-238.55C93.31,-222.45 98.73,-205.69 104.12,-189.56"/>
<polygon fill="none" stroke="midnightblue" points="84.83,-237.89 85.21,-248.48 91.51,-239.96 84.83,-237.89"/>
</g>
<!-- Node2&#45;&gt;Node1 -->
<g id="edge7" class="edge">
<title>Node2&#45;&gt;Node1</title>
<path fill="none" stroke="midnightblue" d="M101.51,-238.55C106.9,-222.45 112.32,-205.69 117.36,-189.56"/>
<polygon fill="none" stroke="midnightblue" points="98.04,-237.88 98.16,-248.48 104.68,-240.12 98.04,-237.88"/>
</g>
<!-- Node3 -->
<g id="node3" class="node">
<title>Node3</title>
<g id="a_node3"><a xlink:href="../../d2/dbf/classboost_1_1numeric_1_1ublas_1_1nonassignable___1_1nonassignable.html" target="_top" xlink:title=" ">
<polygon fill="none" stroke="black" points="16,-474.5 16,-564.5 114,-564.5 114,-474.5 16,-474.5"/>
<text text-anchor="middle" x="65" y="-552.5" font-family="Helvetica,sans-Serif" font-size="10.00">nonassignable</text>
<polyline fill="none" stroke="black" points="16,-545.5 114,-545.5 "/>
<text text-anchor="middle" x="65" y="-533.5" font-family="Helvetica,sans-Serif" font-size="10.00"> </text>
<polyline fill="none" stroke="black" points="16,-526.5 114,-526.5 "/>
<text text-anchor="start" x="24" y="-514.5" font-family="Helvetica,sans-Serif" font-size="10.00"># nonassignable()</text>
<text text-anchor="start" x="24" y="-503.5" font-family="Helvetica,sans-Serif" font-size="10.00"># ~nonassignable()</text>
<text text-anchor="start" x="24" y="-492.5" font-family="Helvetica,sans-Serif" font-size="10.00"># nonassignable()</text>
<text text-anchor="start" x="24" y="-481.5" font-family="Helvetica,sans-Serif" font-size="10.00"># ~nonassignable()</text>
</a>
</g>
</g>
<!-- Node3&#45;&gt;Node2 -->
<g id="edge2" class="edge">
<title>Node3&#45;&gt;Node2</title>
<path fill="none" stroke="#8b1a1a" d="M58.78,-463.87C58.34,-448.72 58.17,-431.92 58.29,-415.56"/>
<polygon fill="none" stroke="#8b1a1a" points="55.29,-464.2 59.14,-474.07 62.29,-463.95 55.29,-464.2"/>
</g>
<!-- Node3&#45;&gt;Node2 -->
<g id="edge3" class="edge">
<title>Node3&#45;&gt;Node2</title>
<path fill="none" stroke="#8b1a1a" d="M71.22,-463.87C71.66,-448.72 71.83,-431.92 71.71,-415.56"/>
<polygon fill="none" stroke="#8b1a1a" points="67.71,-463.95 70.86,-474.07 74.71,-464.2 67.71,-463.95"/>
</g>
<!-- Node4 -->
<g id="node4" class="node">
<title>Node4</title>
<g id="a_node4"><a xlink:href="../../df/d38/structboost_1_1numeric_1_1ublas_1_1random__access__iterator__base.html" target="_top" xlink:title=" ">
<polygon fill="none" stroke="black" points="148,-226.5 148,-437.5 288,-437.5 288,-226.5 148,-226.5"/>
<text text-anchor="start" x="156" y="-425.5" font-family="Helvetica,sans-Serif" font-size="10.00">boost::numeric::ublas</text>
<text text-anchor="start" x="156" y="-414.5" font-family="Helvetica,sans-Serif" font-size="10.00">::random_access_iterator</text>
<text text-anchor="start" x="156" y="-403.5" font-family="Helvetica,sans-Serif" font-size="10.00">_base&lt; IC, indexed_iterator1</text>
<text text-anchor="start" x="156" y="-392.5" font-family="Helvetica,sans-Serif" font-size="10.00">&lt; C, IC &gt;, C::value_type, C</text>
<text text-anchor="middle" x="218" y="-381.5" font-family="Helvetica,sans-Serif" font-size="10.00">::reference &gt;</text>
<polyline fill="none" stroke="black" points="148,-374.5 288,-374.5 "/>
<text text-anchor="middle" x="218" y="-362.5" font-family="Helvetica,sans-Serif" font-size="10.00"> </text>
<polyline fill="none" stroke="black" points="148,-355.5 288,-355.5 "/>
<text text-anchor="start" x="156" y="-343.5" font-family="Helvetica,sans-Serif" font-size="10.00">+ operator++()</text>
<text text-anchor="start" x="156" y="-332.5" font-family="Helvetica,sans-Serif" font-size="10.00">+ operator++()</text>
<text text-anchor="start" x="156" y="-321.5" font-family="Helvetica,sans-Serif" font-size="10.00">+ operator&#45;&#45;()</text>
<text text-anchor="start" x="156" y="-310.5" font-family="Helvetica,sans-Serif" font-size="10.00">+ operator&#45;&#45;()</text>
<text text-anchor="start" x="156" y="-299.5" font-family="Helvetica,sans-Serif" font-size="10.00">+ operator+()</text>
<text text-anchor="start" x="156" y="-288.5" font-family="Helvetica,sans-Serif" font-size="10.00">+ operator+()</text>
<text text-anchor="start" x="156" y="-277.5" font-family="Helvetica,sans-Serif" font-size="10.00">+ operator&#45;()</text>
<text text-anchor="start" x="156" y="-266.5" font-family="Helvetica,sans-Serif" font-size="10.00">+ operator&#45;()</text>
<text text-anchor="start" x="156" y="-255.5" font-family="Helvetica,sans-Serif" font-size="10.00">+ operator!=()</text>
<text text-anchor="start" x="156" y="-244.5" font-family="Helvetica,sans-Serif" font-size="10.00">+ operator!=()</text>
<text text-anchor="start" x="156" y="-233.5" font-family="Helvetica,sans-Serif" font-size="10.00">and 6 more...</text>
</a>
</g>
</g>
<!-- Node4&#45;&gt;Node1 -->
<g id="edge4" class="edge">
<title>Node4&#45;&gt;Node1</title>
<path fill="none" stroke="midnightblue" d="M173.74,-216.53C170.8,-207.59 167.91,-198.62 165.12,-189.84"/>
<polygon fill="none" stroke="midnightblue" points="170.49,-217.82 176.95,-226.21 177.13,-215.62 170.49,-217.82"/>
</g>
<!-- Node4&#45;&gt;Node1 -->
<g id="edge8" class="edge">
<title>Node4&#45;&gt;Node1</title>
<path fill="none" stroke="midnightblue" d="M187.24,-216.53C184.32,-207.59 181.34,-198.62 178.37,-189.84"/>
<polygon fill="none" stroke="midnightblue" points="183.97,-217.78 190.38,-226.21 190.63,-215.62 183.97,-217.78"/>
</g>
<!-- Node5 -->
<g id="node5" class="node">
<title>Node5</title>
<g id="a_node5"><a xlink:title=" ">
<polygon fill="none" stroke="#bfbfbf" points="175,-485.5 175,-553.5 261,-553.5 261,-485.5 175,-485.5"/>
<text text-anchor="start" x="183" y="-541.5" font-family="Helvetica,sans-Serif" font-size="10.00">std::iterator&lt; IC,</text>
<text text-anchor="middle" x="218" y="-530.5" font-family="Helvetica,sans-Serif" font-size="10.00"> C::value_type &gt;</text>
<polyline fill="none" stroke="#bfbfbf" points="175,-523.5 261,-523.5 "/>
<text text-anchor="middle" x="218" y="-511.5" font-family="Helvetica,sans-Serif" font-size="10.00"> </text>
<polyline fill="none" stroke="#bfbfbf" points="175,-504.5 261,-504.5 "/>
<text text-anchor="middle" x="218" y="-492.5" font-family="Helvetica,sans-Serif" font-size="10.00"> </text>
</a>
</g>
</g>
<!-- Node5&#45;&gt;Node4 -->
<g id="edge5" class="edge">
<title>Node5&#45;&gt;Node4</title>
<path fill="none" stroke="midnightblue" d="M212.19,-475.28C211.71,-463.85 211.41,-451.01 211.3,-437.84"/>
<polygon fill="none" stroke="midnightblue" points="208.7,-475.52 212.68,-485.34 215.69,-475.18 208.7,-475.52"/>
</g>
<!-- Node5&#45;&gt;Node4 -->
<g id="edge6" class="edge">
<title>Node5&#45;&gt;Node4</title>
<path fill="none" stroke="midnightblue" d="M223.81,-475.28C224.29,-463.85 224.59,-451.01 224.7,-437.84"/>
<polygon fill="none" stroke="midnightblue" points="220.31,-475.18 223.32,-485.34 227.3,-475.52 220.31,-475.18"/>
</g>
</g>
</svg>
