<?xml version="1.0" encoding="UTF-8" standalone="no"?>
<!DOCTYPE svg PUBLIC "-//W3C//DTD SVG 1.1//EN"
 "http://www.w3.org/Graphics/SVG/1.1/DTD/svg11.dtd">
<!-- Generated by graphviz version 2.48.0 (20210719.0153)
 -->
<!-- Title: /github/workspace/applications/structural_application/custom_utilities/variable_transfer_utility.h Pages: 1 -->
<svg width="352pt" height="239pt"
 viewBox="0.00 0.00 351.71 239.00" xmlns="http://www.w3.org/2000/svg" xmlns:xlink="http://www.w3.org/1999/xlink">
<g id="graph0" class="graph" transform="scale(1 1) rotate(0) translate(4 235)">
<title>/github/workspace/applications/structural_application/custom_utilities/variable_transfer_utility.h</title>
<!-- Node1 -->
<g id="node1" class="node">
<title>Node1</title>
<g id="a_node1"><a xlink:title=" ">
<polygon fill="#bfbfbf" stroke="black" points="18.21,-178.5 18.21,-230.5 169.21,-230.5 169.21,-178.5 18.21,-178.5"/>
<text text-anchor="start" x="26.21" y="-218.5" font-family="Helvetica,sans-Serif" font-size="10.00">/github/workspace/applications</text>
<text text-anchor="start" x="26.21" y="-207.5" font-family="Helvetica,sans-Serif" font-size="10.00">/structural_application/custom</text>
<text text-anchor="start" x="26.21" y="-196.5" font-family="Helvetica,sans-Serif" font-size="10.00">_utilities/variable_transfer</text>
<text text-anchor="middle" x="93.71" y="-185.5" font-family="Helvetica,sans-Serif" font-size="10.00">_utility.h</text>
</a>
</g>
</g>
<!-- Node2 -->
<g id="node2" class="node">
<title>Node2</title>
<g id="a_node2"><a xlink:href="../../dd/dee/structural__application_2custom__python_2add__custom__utilities__to__python_8cpp.html" target="_top" xlink:title=" ">
<polygon fill="none" stroke="black" points="52.21,-0.5 52.21,-52.5 203.21,-52.5 203.21,-0.5 52.21,-0.5"/>
<text text-anchor="start" x="60.21" y="-40.5" font-family="Helvetica,sans-Serif" font-size="10.00">/github/workspace/applications</text>
<text text-anchor="start" x="60.21" y="-29.5" font-family="Helvetica,sans-Serif" font-size="10.00">/structural_application/custom</text>
<text text-anchor="start" x="60.21" y="-18.5" font-family="Helvetica,sans-Serif" font-size="10.00">_python/add_custom_utilities</text>
<text text-anchor="middle" x="127.71" y="-7.5" font-family="Helvetica,sans-Serif" font-size="10.00">_to_python.cpp</text>
</a>
</g>
</g>
<!-- Node1&#45;&gt;Node2 -->
<g id="edge1" class="edge">
<title>Node1&#45;&gt;Node2</title>
<path fill="none" stroke="midnightblue" d="M34.91,-172.41C24.35,-164.02 14.78,-153.89 8.71,-142 -2.01,-121.02 -3.54,-109.12 8.71,-89 18.81,-72.41 34.98,-60.1 52.18,-51.05"/>
<polygon fill="midnightblue" stroke="midnightblue" points="33.01,-175.36 43.14,-178.49 37.17,-169.73 33.01,-175.36"/>
</g>
<!-- Node3 -->
<g id="node3" class="node">
<title>Node3</title>
<g id="a_node3"><a xlink:href="../../d9/d93/structural__application_2custom__python_2add__custom__utilities__to__python_8h.html" target="_top" xlink:title=" ">
<polygon fill="none" stroke="black" points="18.21,-89.5 18.21,-141.5 169.21,-141.5 169.21,-89.5 18.21,-89.5"/>
<text text-anchor="start" x="26.21" y="-129.5" font-family="Helvetica,sans-Serif" font-size="10.00">/github/workspace/applications</text>
<text text-anchor="start" x="26.21" y="-118.5" font-family="Helvetica,sans-Serif" font-size="10.00">/structural_application/custom</text>
<text text-anchor="start" x="26.21" y="-107.5" font-family="Helvetica,sans-Serif" font-size="10.00">_python/add_custom_utilities</text>
<text text-anchor="middle" x="93.71" y="-96.5" font-family="Helvetica,sans-Serif" font-size="10.00">_to_python.h</text>
</a>
</g>
</g>
<!-- Node1&#45;&gt;Node3 -->
<g id="edge2" class="edge">
<title>Node1&#45;&gt;Node3</title>
<path fill="none" stroke="midnightblue" d="M93.71,-168.19C93.71,-159.28 93.71,-149.9 93.71,-141.61"/>
<polygon fill="midnightblue" stroke="midnightblue" points="90.21,-168.34 93.71,-178.34 97.21,-168.34 90.21,-168.34"/>
</g>
<!-- Node4 -->
<g id="node4" class="node">
<title>Node4</title>
<g id="a_node4"><a xlink:href="../../d7/d0e/node__snapping__utility_8h.html" target="_top" xlink:title=" ">
<polygon fill="none" stroke="black" points="187.71,-95 187.71,-136 343.71,-136 343.71,-95 187.71,-95"/>
<text text-anchor="start" x="195.71" y="-124" font-family="Helvetica,sans-Serif" font-size="10.00">/github/workspace/applications</text>
<text text-anchor="start" x="195.71" y="-113" font-family="Helvetica,sans-Serif" font-size="10.00">/structural_application/custom</text>
<text text-anchor="middle" x="265.71" y="-102" font-family="Helvetica,sans-Serif" font-size="10.00">_utilities/node_snapping_utility.h</text>
</a>
</g>
</g>
<!-- Node1&#45;&gt;Node4 -->
<g id="edge3" class="edge">
<title>Node1&#45;&gt;Node4</title>
<path fill="none" stroke="midnightblue" d="M152.69,-173.66C177.26,-161.24 205.09,-147.16 226.99,-136.08"/>
<polygon fill="midnightblue" stroke="midnightblue" points="150.8,-170.7 143.46,-178.34 153.96,-176.95 150.8,-170.7"/>
</g>
<!-- Node4&#45;&gt;Node2 -->
<g id="edge4" class="edge">
<title>Node4&#45;&gt;Node2</title>
<path fill="none" stroke="midnightblue" d="M226.27,-89.64C207.85,-78.03 185.96,-64.23 167.5,-52.58"/>
<polygon fill="midnightblue" stroke="midnightblue" points="224.41,-92.6 234.74,-94.98 228.15,-86.68 224.41,-92.6"/>
</g>
</g>
</svg>
