<?xml version="1.0" encoding="UTF-8" standalone="no"?>
<!DOCTYPE svg PUBLIC "-//W3C//DTD SVG 1.1//EN"
 "http://www.w3.org/Graphics/SVG/1.1/DTD/svg11.dtd">
<!-- Generated by graphviz version 2.48.0 (20210719.0153)
 -->
<!-- Title: boost::numeric::ublas::hermitian_matrix&lt; T, TRI, L, A &gt; Pages: 1 -->
<svg width="148pt" height="623pt"
 viewBox="0.00 0.00 148.00 623.00" xmlns="http://www.w3.org/2000/svg" xmlns:xlink="http://www.w3.org/1999/xlink">
<g id="graph0" class="graph" transform="scale(1 1) rotate(0) translate(4 619)">
<title>boost::numeric::ublas::hermitian_matrix&lt; T, TRI, L, A &gt;</title>
<!-- Node1 -->
<g id="node1" class="node">
<title>Node1</title>
<g id="a_node1"><a xlink:title=" ">
<polygon fill="#bfbfbf" stroke="black" points="15,-0.5 15,-189.5 125,-189.5 125,-0.5 15,-0.5"/>
<text text-anchor="start" x="23" y="-177.5" font-family="Helvetica,sans-Serif" font-size="10.00">boost::numeric::ublas</text>
<text text-anchor="start" x="23" y="-166.5" font-family="Helvetica,sans-Serif" font-size="10.00">::hermitian_matrix&lt; T,</text>
<text text-anchor="middle" x="70" y="-155.5" font-family="Helvetica,sans-Serif" font-size="10.00"> TRI, L, A &gt;</text>
<polyline fill="none" stroke="black" points="15,-148.5 125,-148.5 "/>
<text text-anchor="middle" x="70" y="-136.5" font-family="Helvetica,sans-Serif" font-size="10.00"> </text>
<polyline fill="none" stroke="black" points="15,-129.5 125,-129.5 "/>
<text text-anchor="start" x="23" y="-117.5" font-family="Helvetica,sans-Serif" font-size="10.00">+ hermitian_matrix()</text>
<text text-anchor="start" x="23" y="-106.5" font-family="Helvetica,sans-Serif" font-size="10.00">+ hermitian_matrix()</text>
<text text-anchor="start" x="23" y="-95.5" font-family="Helvetica,sans-Serif" font-size="10.00">+ hermitian_matrix()</text>
<text text-anchor="start" x="23" y="-84.5" font-family="Helvetica,sans-Serif" font-size="10.00">+ hermitian_matrix()</text>
<text text-anchor="start" x="23" y="-73.5" font-family="Helvetica,sans-Serif" font-size="10.00">+ hermitian_matrix()</text>
<text text-anchor="start" x="23" y="-62.5" font-family="Helvetica,sans-Serif" font-size="10.00">+ hermitian_matrix()</text>
<text text-anchor="start" x="23" y="-51.5" font-family="Helvetica,sans-Serif" font-size="10.00">+ size1()</text>
<text text-anchor="start" x="23" y="-40.5" font-family="Helvetica,sans-Serif" font-size="10.00">+ size2()</text>
<text text-anchor="start" x="23" y="-29.5" font-family="Helvetica,sans-Serif" font-size="10.00">+ data()</text>
<text text-anchor="start" x="23" y="-18.5" font-family="Helvetica,sans-Serif" font-size="10.00">+ data()</text>
<text text-anchor="start" x="23" y="-7.5" font-family="Helvetica,sans-Serif" font-size="10.00">and 90 more...</text>
</a>
</g>
</g>
<!-- Node2 -->
<g id="node2" class="node">
<title>Node2</title>
<g id="a_node2"><a xlink:href="../../da/d15/classboost_1_1numeric_1_1ublas_1_1matrix__container.html" target="_top" xlink:title=" ">
<polygon fill="none" stroke="black" points="0,-226.5 0,-338.5 140,-338.5 140,-226.5 0,-226.5"/>
<text text-anchor="start" x="8" y="-326.5" font-family="Helvetica,sans-Serif" font-size="10.00">boost::numeric::ublas</text>
<text text-anchor="start" x="8" y="-315.5" font-family="Helvetica,sans-Serif" font-size="10.00">::matrix_container&lt; hermitian</text>
<text text-anchor="middle" x="70" y="-304.5" font-family="Helvetica,sans-Serif" font-size="10.00">_matrix&lt; T, TRI, L, A &gt; &gt;</text>
<polyline fill="none" stroke="black" points="0,-297.5 140,-297.5 "/>
<text text-anchor="start" x="8" y="-285.5" font-family="Helvetica,sans-Serif" font-size="10.00">+ complexity</text>
<polyline fill="none" stroke="black" points="0,-278.5 140,-278.5 "/>
<text text-anchor="start" x="8" y="-266.5" font-family="Helvetica,sans-Serif" font-size="10.00">+ operator()()</text>
<text text-anchor="start" x="8" y="-255.5" font-family="Helvetica,sans-Serif" font-size="10.00">+ operator()()</text>
<text text-anchor="start" x="8" y="-244.5" font-family="Helvetica,sans-Serif" font-size="10.00">+ operator()()</text>
<text text-anchor="start" x="8" y="-233.5" font-family="Helvetica,sans-Serif" font-size="10.00">+ operator()()</text>
</a>
</g>
</g>
<!-- Node2&#45;&gt;Node1 -->
<g id="edge1" class="edge">
<title>Node2&#45;&gt;Node1</title>
<path fill="none" stroke="midnightblue" d="M63.52,-216.32C63.35,-207.62 63.25,-198.57 63.25,-189.5"/>
<polygon fill="none" stroke="midnightblue" points="60.02,-216.44 63.77,-226.35 67.02,-216.26 60.02,-216.44"/>
</g>
<!-- Node2&#45;&gt;Node1 -->
<g id="edge6" class="edge">
<title>Node2&#45;&gt;Node1</title>
<path fill="none" stroke="midnightblue" d="M76.48,-216.32C76.65,-207.62 76.75,-198.57 76.75,-189.5"/>
<polygon fill="none" stroke="midnightblue" points="72.98,-216.26 76.23,-226.35 79.98,-216.44 72.98,-216.26"/>
</g>
<!-- Node3 -->
<g id="node3" class="node">
<title>Node3</title>
<g id="a_node3"><a xlink:href="../../d9/da6/classboost_1_1numeric_1_1ublas_1_1matrix__expression.html" target="_top" xlink:title=" ">
<polygon fill="none" stroke="black" points="9,-375.5 9,-476.5 131,-476.5 131,-375.5 9,-375.5"/>
<text text-anchor="start" x="17" y="-464.5" font-family="Helvetica,sans-Serif" font-size="10.00">boost::numeric::ublas</text>
<text text-anchor="middle" x="70" y="-453.5" font-family="Helvetica,sans-Serif" font-size="10.00">::matrix_expression&lt; E &gt;</text>
<polyline fill="none" stroke="black" points="9,-446.5 131,-446.5 "/>
<text text-anchor="start" x="17" y="-434.5" font-family="Helvetica,sans-Serif" font-size="10.00">+ complexity</text>
<polyline fill="none" stroke="black" points="9,-427.5 131,-427.5 "/>
<text text-anchor="start" x="17" y="-415.5" font-family="Helvetica,sans-Serif" font-size="10.00">+ operator()()</text>
<text text-anchor="start" x="17" y="-404.5" font-family="Helvetica,sans-Serif" font-size="10.00">+ operator()()</text>
<text text-anchor="start" x="17" y="-393.5" font-family="Helvetica,sans-Serif" font-size="10.00">+ operator()()</text>
<text text-anchor="start" x="17" y="-382.5" font-family="Helvetica,sans-Serif" font-size="10.00">+ operator()()</text>
</a>
</g>
</g>
<!-- Node3&#45;&gt;Node2 -->
<g id="edge2" class="edge">
<title>Node3&#45;&gt;Node2</title>
<path fill="none" stroke="midnightblue" d="M63.32,-365.01C63.21,-356.29 63.23,-347.34 63.4,-338.72"/>
<polygon fill="none" stroke="midnightblue" points="59.82,-365.18 63.52,-375.11 66.82,-365.05 59.82,-365.18"/>
</g>
<!-- Node3&#45;&gt;Node2 -->
<g id="edge5" class="edge">
<title>Node3&#45;&gt;Node2</title>
<path fill="none" stroke="midnightblue" d="M76.68,-365.01C76.79,-356.29 76.77,-347.34 76.6,-338.72"/>
<polygon fill="none" stroke="midnightblue" points="73.18,-365.05 76.48,-375.11 80.18,-365.18 73.18,-365.05"/>
</g>
<!-- Node4 -->
<g id="node4" class="node">
<title>Node4</title>
<g id="a_node4"><a xlink:href="../../dd/db7/classboost_1_1numeric_1_1ublas_1_1ublas__expression.html" target="_top" xlink:title=" ">
<polygon fill="none" stroke="black" points="10.5,-513.5 10.5,-614.5 129.5,-614.5 129.5,-513.5 10.5,-513.5"/>
<text text-anchor="start" x="18.5" y="-602.5" font-family="Helvetica,sans-Serif" font-size="10.00">boost::numeric::ublas</text>
<text text-anchor="middle" x="70" y="-591.5" font-family="Helvetica,sans-Serif" font-size="10.00">::ublas_expression&lt; E &gt;</text>
<polyline fill="none" stroke="black" points="10.5,-584.5 129.5,-584.5 "/>
<text text-anchor="middle" x="70" y="-572.5" font-family="Helvetica,sans-Serif" font-size="10.00"> </text>
<polyline fill="none" stroke="black" points="10.5,-565.5 129.5,-565.5 "/>
<text text-anchor="start" x="18.5" y="-553.5" font-family="Helvetica,sans-Serif" font-size="10.00"># ublas_expression()</text>
<text text-anchor="start" x="18.5" y="-542.5" font-family="Helvetica,sans-Serif" font-size="10.00"># ~ublas_expression()</text>
<text text-anchor="start" x="18.5" y="-531.5" font-family="Helvetica,sans-Serif" font-size="10.00"># ublas_expression()</text>
<text text-anchor="start" x="18.5" y="-520.5" font-family="Helvetica,sans-Serif" font-size="10.00"># ~ublas_expression()</text>
</a>
</g>
</g>
<!-- Node4&#45;&gt;Node3 -->
<g id="edge3" class="edge">
<title>Node4&#45;&gt;Node3</title>
<path fill="none" stroke="midnightblue" d="M63.29,-503C63.2,-494.27 63.26,-485.36 63.47,-476.86"/>
<polygon fill="none" stroke="midnightblue" points="59.79,-503.19 63.47,-513.13 66.79,-503.07 59.79,-503.19"/>
</g>
<!-- Node4&#45;&gt;Node3 -->
<g id="edge4" class="edge">
<title>Node4&#45;&gt;Node3</title>
<path fill="none" stroke="midnightblue" d="M76.71,-503C76.8,-494.27 76.74,-485.36 76.53,-476.86"/>
<polygon fill="none" stroke="midnightblue" points="73.21,-503.07 76.53,-513.13 80.21,-503.19 73.21,-503.07"/>
</g>
</g>
</svg>
