<?xml version="1.0" encoding="UTF-8" standalone="no"?>
<!DOCTYPE svg PUBLIC "-//W3C//DTD SVG 1.1//EN"
 "http://www.w3.org/Graphics/SVG/1.1/DTD/svg11.dtd">
<!-- Generated by graphviz version 2.48.0 (20210719.0153)
 -->
<!-- Title: /github/workspace/applications/incompressible_fluid_application/incompressible_fluid_application.h Pages: 1 -->
<svg width="4725pt" height="228pt"
 viewBox="0.00 0.00 4724.50 228.00" xmlns="http://www.w3.org/2000/svg" xmlns:xlink="http://www.w3.org/1999/xlink">
<g id="graph0" class="graph" transform="scale(1 1) rotate(0) translate(4 224)">
<title>/github/workspace/applications/incompressible_fluid_application/incompressible_fluid_application.h</title>
<!-- Node1 -->
<g id="node1" class="node">
<title>Node1</title>
<g id="a_node1"><a xlink:title=" ">
<polygon fill="#bfbfbf" stroke="black" points="2339,-178.5 2339,-219.5 2506,-219.5 2506,-178.5 2339,-178.5"/>
<text text-anchor="start" x="2347" y="-207.5" font-family="Helvetica,sans-Serif" font-size="10.00">/github/workspace/applications</text>
<text text-anchor="start" x="2347" y="-196.5" font-family="Helvetica,sans-Serif" font-size="10.00">/incompressible_fluid_application</text>
<text text-anchor="middle" x="2422.5" y="-185.5" font-family="Helvetica,sans-Serif" font-size="10.00">/incompressible_fluid_application.h</text>
</a>
</g>
</g>
<!-- Node2 -->
<g id="node2" class="node">
<title>Node2</title>
<g id="a_node2"><a xlink:href="../../d1/d15/fluid3d__neumann_8cpp.html" target="_top" xlink:title=" ">
<polygon fill="none" stroke="black" points="0,-95 0,-136 195,-136 195,-95 0,-95"/>
<text text-anchor="start" x="8" y="-124" font-family="Helvetica,sans-Serif" font-size="10.00">/github/workspace/applications</text>
<text text-anchor="start" x="8" y="-113" font-family="Helvetica,sans-Serif" font-size="10.00">/incompressible_fluid_application</text>
<text text-anchor="middle" x="97.5" y="-102" font-family="Helvetica,sans-Serif" font-size="10.00">/custom_conditions/fluid3d_neumann.cpp</text>
</a>
</g>
</g>
<!-- Node1&#45;&gt;Node2 -->
<g id="edge1" class="edge">
<title>Node1&#45;&gt;Node2</title>
<path fill="none" stroke="midnightblue" d="M2328.76,-198.26C1962.03,-198.89 624.03,-197.26 203.5,-142 192.52,-140.56 181.03,-138.44 169.82,-136.04"/>
<polygon fill="midnightblue" stroke="midnightblue" points="2328.81,-201.76 2338.81,-198.25 2328.8,-194.76 2328.81,-201.76"/>
</g>
<!-- Node3 -->
<g id="node3" class="node">
<title>Node3</title>
<g id="a_node3"><a xlink:href="../../d3/dd7/incompressible__fluid__application_2custom__elements_2fluid__2d_8cpp.html" target="_top" xlink:title=" ">
<polygon fill="none" stroke="black" points="213,-95 213,-136 372,-136 372,-95 213,-95"/>
<text text-anchor="start" x="221" y="-124" font-family="Helvetica,sans-Serif" font-size="10.00">/github/workspace/applications</text>
<text text-anchor="start" x="221" y="-113" font-family="Helvetica,sans-Serif" font-size="10.00">/incompressible_fluid_application</text>
<text text-anchor="middle" x="292.5" y="-102" font-family="Helvetica,sans-Serif" font-size="10.00">/custom_elements/fluid_2d.cpp</text>
</a>
</g>
</g>
<!-- Node1&#45;&gt;Node3 -->
<g id="edge2" class="edge">
<title>Node1&#45;&gt;Node3</title>
<path fill="none" stroke="midnightblue" d="M2328.62,-196.83C1953.61,-191.97 573.99,-172.18 380.5,-142 371.38,-140.58 361.88,-138.49 352.64,-136.11"/>
<polygon fill="midnightblue" stroke="midnightblue" points="2328.85,-200.33 2338.89,-196.96 2328.94,-193.33 2328.85,-200.33"/>
</g>
<!-- Node4 -->
<g id="node4" class="node">
<title>Node4</title>
<g id="a_node4"><a xlink:href="../../de/d4d/fluid__2d__asgs_8cpp.html" target="_top" xlink:title=" ">
<polygon fill="none" stroke="black" points="390,-95 390,-136 567,-136 567,-95 390,-95"/>
<text text-anchor="start" x="398" y="-124" font-family="Helvetica,sans-Serif" font-size="10.00">/github/workspace/applications</text>
<text text-anchor="start" x="398" y="-113" font-family="Helvetica,sans-Serif" font-size="10.00">/incompressible_fluid_application</text>
<text text-anchor="middle" x="478.5" y="-102" font-family="Helvetica,sans-Serif" font-size="10.00">/custom_elements/fluid_2d_asgs.cpp</text>
</a>
</g>
</g>
<!-- Node1&#45;&gt;Node4 -->
<g id="edge3" class="edge">
<title>Node1&#45;&gt;Node4</title>
<path fill="none" stroke="midnightblue" d="M2328.58,-197.93C2002.43,-197.26 920.01,-191.26 576.5,-142 566.32,-140.54 555.67,-138.42 545.31,-136.01"/>
<polygon fill="midnightblue" stroke="midnightblue" points="2328.93,-201.43 2338.94,-197.95 2328.95,-194.43 2328.93,-201.43"/>
</g>
<!-- Node5 -->
<g id="node5" class="node">
<title>Node5</title>
<g id="a_node5"><a xlink:href="../../d1/d54/fluid__2d__oss_8cpp.html" target="_top" xlink:title=" ">
<polygon fill="none" stroke="black" points="585.5,-95 585.5,-136 757.5,-136 757.5,-95 585.5,-95"/>
<text text-anchor="start" x="593.5" y="-124" font-family="Helvetica,sans-Serif" font-size="10.00">/github/workspace/applications</text>
<text text-anchor="start" x="593.5" y="-113" font-family="Helvetica,sans-Serif" font-size="10.00">/incompressible_fluid_application</text>
<text text-anchor="middle" x="671.5" y="-102" font-family="Helvetica,sans-Serif" font-size="10.00">/custom_elements/fluid_2d_oss.cpp</text>
</a>
</g>
</g>
<!-- Node1&#45;&gt;Node5 -->
<g id="edge4" class="edge">
<title>Node1&#45;&gt;Node5</title>
<path fill="none" stroke="midnightblue" d="M2328.81,-197.64C2025.3,-196.04 1071.21,-187.44 766.5,-142 756.7,-140.54 746.47,-138.43 736.5,-136.04"/>
<polygon fill="midnightblue" stroke="midnightblue" points="2328.88,-201.14 2338.89,-197.69 2328.91,-194.14 2328.88,-201.14"/>
</g>
<!-- Node6 -->
<g id="node6" class="node">
<title>Node6</title>
<g id="a_node6"><a xlink:href="../../d5/d03/fluid__2dcoupled_8cpp.html" target="_top" xlink:title=" ">
<polygon fill="none" stroke="black" points="776,-95 776,-136 961,-136 961,-95 776,-95"/>
<text text-anchor="start" x="784" y="-124" font-family="Helvetica,sans-Serif" font-size="10.00">/github/workspace/applications</text>
<text text-anchor="start" x="784" y="-113" font-family="Helvetica,sans-Serif" font-size="10.00">/incompressible_fluid_application</text>
<text text-anchor="middle" x="868.5" y="-102" font-family="Helvetica,sans-Serif" font-size="10.00">/custom_elements/fluid_2dcoupled.cpp</text>
</a>
</g>
</g>
<!-- Node1&#45;&gt;Node6 -->
<g id="edge5" class="edge">
<title>Node1&#45;&gt;Node6</title>
<path fill="none" stroke="midnightblue" d="M2328.59,-196.94C2050.34,-193.4 1233.29,-179.96 969.5,-142 959.21,-140.52 948.44,-138.42 937.94,-136.05"/>
<polygon fill="midnightblue" stroke="midnightblue" points="2328.61,-200.44 2338.65,-197.07 2328.7,-193.44 2328.61,-200.44"/>
</g>
<!-- Node7 -->
<g id="node7" class="node">
<title>Node7</title>
<g id="a_node7"><a xlink:href="../../dd/d0b/fluid__3d_8cpp.html" target="_top" xlink:title=" ">
<polygon fill="none" stroke="black" points="979,-95 979,-136 1138,-136 1138,-95 979,-95"/>
<text text-anchor="start" x="987" y="-124" font-family="Helvetica,sans-Serif" font-size="10.00">/github/workspace/applications</text>
<text text-anchor="start" x="987" y="-113" font-family="Helvetica,sans-Serif" font-size="10.00">/incompressible_fluid_application</text>
<text text-anchor="middle" x="1058.5" y="-102" font-family="Helvetica,sans-Serif" font-size="10.00">/custom_elements/fluid_3d.cpp</text>
</a>
</g>
</g>
<!-- Node1&#45;&gt;Node7 -->
<g id="edge6" class="edge">
<title>Node1&#45;&gt;Node7</title>
<path fill="none" stroke="midnightblue" d="M2328.26,-196.77C2073.31,-192.98 1373.91,-179.39 1146.5,-142 1137.55,-140.53 1128.23,-138.45 1119.14,-136.1"/>
<polygon fill="midnightblue" stroke="midnightblue" points="2328.55,-200.28 2338.6,-196.92 2328.66,-193.28 2328.55,-200.28"/>
</g>
<!-- Node8 -->
<g id="node8" class="node">
<title>Node8</title>
<g id="a_node8"><a xlink:href="../../dc/d98/fluid__3dcoupled_8cpp.html" target="_top" xlink:title=" ">
<polygon fill="none" stroke="black" points="1156,-95 1156,-136 1341,-136 1341,-95 1156,-95"/>
<text text-anchor="start" x="1164" y="-124" font-family="Helvetica,sans-Serif" font-size="10.00">/github/workspace/applications</text>
<text text-anchor="start" x="1164" y="-113" font-family="Helvetica,sans-Serif" font-size="10.00">/incompressible_fluid_application</text>
<text text-anchor="middle" x="1248.5" y="-102" font-family="Helvetica,sans-Serif" font-size="10.00">/custom_elements/fluid_3dcoupled.cpp</text>
</a>
</g>
</g>
<!-- Node1&#45;&gt;Node8 -->
<g id="edge7" class="edge">
<title>Node1&#45;&gt;Node8</title>
<path fill="none" stroke="midnightblue" d="M2328.48,-195.45C2103.12,-188.95 1536.95,-170.28 1349.5,-142 1339.4,-140.48 1328.83,-138.38 1318.5,-136.05"/>
<polygon fill="midnightblue" stroke="midnightblue" points="2328.53,-198.95 2338.63,-195.74 2328.73,-191.95 2328.53,-198.95"/>
</g>
<!-- Node9 -->
<g id="node9" class="node">
<title>Node9</title>
<g id="a_node9"><a xlink:href="../../d6/da4/_n_dfluid__2d_8cpp.html" target="_top" xlink:title=" ">
<polygon fill="none" stroke="black" points="1359,-95 1359,-136 1524,-136 1524,-95 1359,-95"/>
<text text-anchor="start" x="1367" y="-124" font-family="Helvetica,sans-Serif" font-size="10.00">/github/workspace/applications</text>
<text text-anchor="start" x="1367" y="-113" font-family="Helvetica,sans-Serif" font-size="10.00">/incompressible_fluid_application</text>
<text text-anchor="middle" x="1441.5" y="-102" font-family="Helvetica,sans-Serif" font-size="10.00">/custom_elements/NDfluid_2d.cpp</text>
</a>
</g>
</g>
<!-- Node1&#45;&gt;Node9 -->
<g id="edge8" class="edge">
<title>Node1&#45;&gt;Node9</title>
<path fill="none" stroke="midnightblue" d="M2328.33,-198.45C2165.25,-197.82 1820.2,-190.23 1533.5,-142 1524.35,-140.46 1514.8,-138.37 1505.46,-136.05"/>
<polygon fill="midnightblue" stroke="midnightblue" points="2328.79,-201.95 2338.8,-198.49 2328.82,-194.95 2328.79,-201.95"/>
</g>
<!-- Node10 -->
<g id="node10" class="node">
<title>Node10</title>
<g id="a_node10"><a xlink:href="../../d1/d42/_n_dfluid__2d___crank_nicolson_8cpp.html" target="_top" xlink:title=" ">
<polygon fill="none" stroke="black" points="1542.5,-95 1542.5,-136 1776.5,-136 1776.5,-95 1542.5,-95"/>
<text text-anchor="start" x="1550.5" y="-124" font-family="Helvetica,sans-Serif" font-size="10.00">/github/workspace/applications</text>
<text text-anchor="start" x="1550.5" y="-113" font-family="Helvetica,sans-Serif" font-size="10.00">/incompressible_fluid_application</text>
<text text-anchor="middle" x="1659.5" y="-102" font-family="Helvetica,sans-Serif" font-size="10.00">/custom_elements/NDfluid_2d_CrankNicolson.cpp</text>
</a>
</g>
</g>
<!-- Node1&#45;&gt;Node10 -->
<g id="edge9" class="edge">
<title>Node1&#45;&gt;Node10</title>
<path fill="none" stroke="midnightblue" d="M2328.68,-193.05C2204.1,-185.72 1977.46,-169.77 1785.5,-142 1773.9,-140.32 1761.76,-138.26 1749.79,-136.04"/>
<polygon fill="midnightblue" stroke="midnightblue" points="2328.75,-196.56 2338.94,-193.65 2329.16,-189.57 2328.75,-196.56"/>
</g>
<!-- Node11 -->
<g id="node11" class="node">
<title>Node11</title>
<g id="a_node11"><a xlink:href="../../d2/d60/_n_dfluid__3d_8cpp.html" target="_top" xlink:title=" ">
<polygon fill="none" stroke="black" points="1795,-95 1795,-136 1960,-136 1960,-95 1795,-95"/>
<text text-anchor="start" x="1803" y="-124" font-family="Helvetica,sans-Serif" font-size="10.00">/github/workspace/applications</text>
<text text-anchor="start" x="1803" y="-113" font-family="Helvetica,sans-Serif" font-size="10.00">/incompressible_fluid_application</text>
<text text-anchor="middle" x="1877.5" y="-102" font-family="Helvetica,sans-Serif" font-size="10.00">/custom_elements/NDfluid_3d.cpp</text>
</a>
</g>
</g>
<!-- Node1&#45;&gt;Node11 -->
<g id="edge10" class="edge">
<title>Node1&#45;&gt;Node11</title>
<path fill="none" stroke="midnightblue" d="M2328.48,-190.56C2236.21,-182.29 2091.77,-166.73 1968.5,-142 1960.13,-140.32 1951.41,-138.27 1942.83,-136.07"/>
<polygon fill="midnightblue" stroke="midnightblue" points="2328.37,-194.07 2338.64,-191.46 2328.98,-187.09 2328.37,-194.07"/>
</g>
<!-- Node12 -->
<g id="node12" class="node">
<title>Node12</title>
<g id="a_node12"><a xlink:href="../../d1/d06/residualbased__fluid__strategy_8h.html" target="_top" xlink:title=" ">
<polygon fill="none" stroke="black" points="1978,-89.5 1978,-141.5 2187,-141.5 2187,-89.5 1978,-89.5"/>
<text text-anchor="start" x="1986" y="-129.5" font-family="Helvetica,sans-Serif" font-size="10.00">/github/workspace/applications</text>
<text text-anchor="start" x="1986" y="-118.5" font-family="Helvetica,sans-Serif" font-size="10.00">/incompressible_fluid_application</text>
<text text-anchor="start" x="1986" y="-107.5" font-family="Helvetica,sans-Serif" font-size="10.00">/custom_strategies/strategies/residualbased</text>
<text text-anchor="middle" x="2082.5" y="-96.5" font-family="Helvetica,sans-Serif" font-size="10.00">_fluid_strategy.h</text>
</a>
</g>
</g>
<!-- Node1&#45;&gt;Node12 -->
<g id="edge11" class="edge">
<title>Node1&#45;&gt;Node12</title>
<path fill="none" stroke="midnightblue" d="M2331.13,-176.1C2286.63,-165.43 2232.9,-152.55 2186.8,-141.5"/>
<polygon fill="midnightblue" stroke="midnightblue" points="2330.52,-179.55 2341.06,-178.48 2332.15,-172.74 2330.52,-179.55"/>
</g>
<!-- Node14 -->
<g id="node14" class="node">
<title>Node14</title>
<g id="a_node14"><a xlink:href="../../da/d32/residualbased__fluid__strategy__coupled_8h.html" target="_top" xlink:title=" ">
<polygon fill="none" stroke="black" points="2205,-89.5 2205,-141.5 2414,-141.5 2414,-89.5 2205,-89.5"/>
<text text-anchor="start" x="2213" y="-129.5" font-family="Helvetica,sans-Serif" font-size="10.00">/github/workspace/applications</text>
<text text-anchor="start" x="2213" y="-118.5" font-family="Helvetica,sans-Serif" font-size="10.00">/incompressible_fluid_application</text>
<text text-anchor="start" x="2213" y="-107.5" font-family="Helvetica,sans-Serif" font-size="10.00">/custom_strategies/strategies/residualbased</text>
<text text-anchor="middle" x="2309.5" y="-96.5" font-family="Helvetica,sans-Serif" font-size="10.00">_fluid_strategy_coupled.h</text>
</a>
</g>
</g>
<!-- Node1&#45;&gt;Node14 -->
<g id="edge13" class="edge">
<title>Node1&#45;&gt;Node14</title>
<path fill="none" stroke="midnightblue" d="M2387.24,-172.57C2373.62,-162.74 2358.07,-151.53 2344.48,-141.73"/>
<polygon fill="midnightblue" stroke="midnightblue" points="2385.28,-175.47 2395.43,-178.48 2389.37,-169.79 2385.28,-175.47"/>
</g>
<!-- Node15 -->
<g id="node15" class="node">
<title>Node15</title>
<g id="a_node15"><a xlink:href="../../de/d5b/residualbased___n_d__fluid__strategy_8h.html" target="_top" xlink:title=" ">
<polygon fill="none" stroke="black" points="2432,-89.5 2432,-141.5 2641,-141.5 2641,-89.5 2432,-89.5"/>
<text text-anchor="start" x="2440" y="-129.5" font-family="Helvetica,sans-Serif" font-size="10.00">/github/workspace/applications</text>
<text text-anchor="start" x="2440" y="-118.5" font-family="Helvetica,sans-Serif" font-size="10.00">/incompressible_fluid_application</text>
<text text-anchor="start" x="2440" y="-107.5" font-family="Helvetica,sans-Serif" font-size="10.00">/custom_strategies/strategies/residualbased</text>
<text text-anchor="middle" x="2536.5" y="-96.5" font-family="Helvetica,sans-Serif" font-size="10.00">_ND_fluid_strategy.h</text>
</a>
</g>
</g>
<!-- Node1&#45;&gt;Node15 -->
<g id="edge15" class="edge">
<title>Node1&#45;&gt;Node15</title>
<path fill="none" stroke="midnightblue" d="M2458.07,-172.57C2471.81,-162.74 2487.5,-151.53 2501.21,-141.73"/>
<polygon fill="midnightblue" stroke="midnightblue" points="2455.91,-169.82 2449.81,-178.48 2459.98,-175.51 2455.91,-169.82"/>
</g>
<!-- Node16 -->
<g id="node16" class="node">
<title>Node16</title>
<g id="a_node16"><a xlink:href="../../de/d79/calculate__forces__utilities_8h.html" target="_top" xlink:title=" ">
<polygon fill="none" stroke="black" points="2659.5,-89.5 2659.5,-141.5 2821.5,-141.5 2821.5,-89.5 2659.5,-89.5"/>
<text text-anchor="start" x="2667.5" y="-129.5" font-family="Helvetica,sans-Serif" font-size="10.00">/github/workspace/applications</text>
<text text-anchor="start" x="2667.5" y="-118.5" font-family="Helvetica,sans-Serif" font-size="10.00">/incompressible_fluid_application</text>
<text text-anchor="start" x="2667.5" y="-107.5" font-family="Helvetica,sans-Serif" font-size="10.00">/custom_utilities/calculate_forces</text>
<text text-anchor="middle" x="2740.5" y="-96.5" font-family="Helvetica,sans-Serif" font-size="10.00">_utilities.h</text>
</a>
</g>
</g>
<!-- Node1&#45;&gt;Node16 -->
<g id="edge17" class="edge">
<title>Node1&#45;&gt;Node16</title>
<path fill="none" stroke="midnightblue" d="M2514.15,-176.08C2555.56,-166 2605.08,-153.7 2649.5,-142 2652.67,-141.16 2655.91,-140.3 2659.17,-139.43"/>
<polygon fill="midnightblue" stroke="midnightblue" points="2513.24,-172.7 2504.35,-178.46 2514.89,-179.5 2513.24,-172.7"/>
</g>
<!-- Node18 -->
<g id="node18" class="node">
<title>Node18</title>
<g id="a_node18"><a xlink:href="../../d2/d39/edge__data_8h.html" target="_top" xlink:title=" ">
<polygon fill="none" stroke="black" points="2840,-95 2840,-136 2999,-136 2999,-95 2840,-95"/>
<text text-anchor="start" x="2848" y="-124" font-family="Helvetica,sans-Serif" font-size="10.00">/github/workspace/applications</text>
<text text-anchor="start" x="2848" y="-113" font-family="Helvetica,sans-Serif" font-size="10.00">/incompressible_fluid_application</text>
<text text-anchor="middle" x="2919.5" y="-102" font-family="Helvetica,sans-Serif" font-size="10.00">/custom_utilities/edge_data.h</text>
</a>
</g>
</g>
<!-- Node1&#45;&gt;Node18 -->
<g id="edge19" class="edge">
<title>Node1&#45;&gt;Node18</title>
<path fill="none" stroke="midnightblue" d="M2516.5,-188.95C2599.62,-180.03 2723.88,-164.47 2830.5,-142 2838.52,-140.31 2846.88,-138.28 2855.12,-136.11"/>
<polygon fill="midnightblue" stroke="midnightblue" points="2515.89,-185.49 2506.32,-190.03 2516.63,-192.45 2515.89,-185.49"/>
</g>
<!-- Node19 -->
<g id="node19" class="node">
<title>Node19</title>
<g id="a_node19"><a xlink:href="../../d1/d4c/elementbased__navierstokes__solver_8h.html" target="_top" xlink:title=" ">
<polygon fill="none" stroke="black" points="3017,-89.5 3017,-141.5 3176,-141.5 3176,-89.5 3017,-89.5"/>
<text text-anchor="start" x="3025" y="-129.5" font-family="Helvetica,sans-Serif" font-size="10.00">/github/workspace/applications</text>
<text text-anchor="start" x="3025" y="-118.5" font-family="Helvetica,sans-Serif" font-size="10.00">/incompressible_fluid_application</text>
<text text-anchor="start" x="3025" y="-107.5" font-family="Helvetica,sans-Serif" font-size="10.00">/custom_utilities/elementbased</text>
<text text-anchor="middle" x="3096.5" y="-96.5" font-family="Helvetica,sans-Serif" font-size="10.00">_navierstokes_solver.h</text>
</a>
</g>
</g>
<!-- Node1&#45;&gt;Node19 -->
<g id="edge21" class="edge">
<title>Node1&#45;&gt;Node19</title>
<path fill="none" stroke="midnightblue" d="M2516.28,-194.33C2632.45,-188.57 2836,-174.49 3007.5,-142 3010.5,-141.43 3013.55,-140.81 3016.61,-140.14"/>
<polygon fill="midnightblue" stroke="midnightblue" points="2515.83,-190.85 2506.01,-194.83 2516.16,-197.84 2515.83,-190.85"/>
</g>
<!-- Node20 -->
<g id="node20" class="node">
<title>Node20</title>
<g id="a_node20"><a xlink:href="../../d4/d76/fluid__solver_8h.html" target="_top" xlink:title=" ">
<polygon fill="none" stroke="black" points="3194,-95 3194,-136 3353,-136 3353,-95 3194,-95"/>
<text text-anchor="start" x="3202" y="-124" font-family="Helvetica,sans-Serif" font-size="10.00">/github/workspace/applications</text>
<text text-anchor="start" x="3202" y="-113" font-family="Helvetica,sans-Serif" font-size="10.00">/incompressible_fluid_application</text>
<text text-anchor="middle" x="3273.5" y="-102" font-family="Helvetica,sans-Serif" font-size="10.00">/custom_utilities/fluid_solver.h</text>
</a>
</g>
</g>
<!-- Node1&#45;&gt;Node20 -->
<g id="edge23" class="edge">
<title>Node1&#45;&gt;Node20</title>
<path fill="none" stroke="midnightblue" d="M2516.23,-197.29C2660.78,-194.81 2946.33,-184.41 3184.5,-142 3193.2,-140.45 3202.27,-138.39 3211.15,-136.11"/>
<polygon fill="midnightblue" stroke="midnightblue" points="2516.01,-193.79 2506.07,-197.46 2516.13,-200.79 2516.01,-193.79"/>
</g>
<!-- Node21 -->
<g id="node21" class="node">
<title>Node21</title>
<g id="a_node21"><a xlink:href="../../d1/d48/level__set__utilities_8h.html" target="_top" xlink:title=" ">
<polygon fill="none" stroke="black" points="3371,-95 3371,-136 3544,-136 3544,-95 3371,-95"/>
<text text-anchor="start" x="3379" y="-124" font-family="Helvetica,sans-Serif" font-size="10.00">/github/workspace/applications</text>
<text text-anchor="start" x="3379" y="-113" font-family="Helvetica,sans-Serif" font-size="10.00">/incompressible_fluid_application</text>
<text text-anchor="middle" x="3457.5" y="-102" font-family="Helvetica,sans-Serif" font-size="10.00">/custom_utilities/level_set_utilities.h</text>
</a>
</g>
</g>
<!-- Node1&#45;&gt;Node21 -->
<g id="edge25" class="edge">
<title>Node1&#45;&gt;Node21</title>
<path fill="none" stroke="midnightblue" d="M2516.16,-198.59C2685.85,-198.28 3054.97,-191.34 3361.5,-142 3371.12,-140.45 3381.17,-138.34 3390.99,-136"/>
<polygon fill="midnightblue" stroke="midnightblue" points="2516.01,-195.09 2506.01,-198.6 2516.02,-202.09 2516.01,-195.09"/>
</g>
<!-- Node22 -->
<g id="node22" class="node">
<title>Node22</title>
<g id="a_node22"><a xlink:href="../../db/d1a/level__set__utilities__implicitextrapolation_8h.html" target="_top" xlink:title=" ">
<polygon fill="none" stroke="black" points="3562.5,-89.5 3562.5,-141.5 3728.5,-141.5 3728.5,-89.5 3562.5,-89.5"/>
<text text-anchor="start" x="3570.5" y="-129.5" font-family="Helvetica,sans-Serif" font-size="10.00">/github/workspace/applications</text>
<text text-anchor="start" x="3570.5" y="-118.5" font-family="Helvetica,sans-Serif" font-size="10.00">/incompressible_fluid_application</text>
<text text-anchor="start" x="3570.5" y="-107.5" font-family="Helvetica,sans-Serif" font-size="10.00">/custom_utilities/level_set_utilities</text>
<text text-anchor="middle" x="3645.5" y="-96.5" font-family="Helvetica,sans-Serif" font-size="10.00">_implicitextrapolation.h</text>
</a>
</g>
</g>
<!-- Node1&#45;&gt;Node22 -->
<g id="edge27" class="edge">
<title>Node1&#45;&gt;Node22</title>
<path fill="none" stroke="midnightblue" d="M2516.59,-196.02C2750.71,-190.65 3354.85,-174.04 3553.5,-142 3556.45,-141.52 3559.43,-140.99 3562.44,-140.41"/>
<polygon fill="midnightblue" stroke="midnightblue" points="2516.32,-192.52 2506.4,-196.25 2516.48,-199.52 2516.32,-192.52"/>
</g>
<!-- Node23 -->
<g id="node23" class="node">
<title>Node23</title>
<g id="a_node23"><a xlink:href="../../d5/d87/levelset__fluid__solver_8h.html" target="_top" xlink:title=" ">
<polygon fill="none" stroke="black" points="3746.5,-95 3746.5,-136 3932.5,-136 3932.5,-95 3746.5,-95"/>
<text text-anchor="start" x="3754.5" y="-124" font-family="Helvetica,sans-Serif" font-size="10.00">/github/workspace/applications</text>
<text text-anchor="start" x="3754.5" y="-113" font-family="Helvetica,sans-Serif" font-size="10.00">/incompressible_fluid_application</text>
<text text-anchor="middle" x="3839.5" y="-102" font-family="Helvetica,sans-Serif" font-size="10.00">/custom_utilities/levelset_fluid_solver.h</text>
</a>
</g>
</g>
<!-- Node1&#45;&gt;Node23 -->
<g id="edge29" class="edge">
<title>Node1&#45;&gt;Node23</title>
<path fill="none" stroke="midnightblue" d="M2516.37,-196.47C2776.26,-191.84 3501.5,-176.17 3737.5,-142 3747.89,-140.5 3758.75,-138.38 3769.36,-136.01"/>
<polygon fill="midnightblue" stroke="midnightblue" points="2516.15,-192.97 2506.21,-196.65 2516.27,-199.97 2516.15,-192.97"/>
</g>
<!-- Node24 -->
<g id="node24" class="node">
<title>Node24</title>
<g id="a_node24"><a xlink:href="../../d0/d89/pure__convection__edgebased_8h.html" target="_top" xlink:title=" ">
<polygon fill="none" stroke="black" points="3950.5,-89.5 3950.5,-141.5 4112.5,-141.5 4112.5,-89.5 3950.5,-89.5"/>
<text text-anchor="start" x="3958.5" y="-129.5" font-family="Helvetica,sans-Serif" font-size="10.00">/github/workspace/applications</text>
<text text-anchor="start" x="3958.5" y="-118.5" font-family="Helvetica,sans-Serif" font-size="10.00">/incompressible_fluid_application</text>
<text text-anchor="start" x="3958.5" y="-107.5" font-family="Helvetica,sans-Serif" font-size="10.00">/custom_utilities/pure_convection</text>
<text text-anchor="middle" x="4031.5" y="-96.5" font-family="Helvetica,sans-Serif" font-size="10.00">_edgebased.h</text>
</a>
</g>
</g>
<!-- Node1&#45;&gt;Node24 -->
<g id="edge31" class="edge">
<title>Node1&#45;&gt;Node24</title>
<path fill="none" stroke="midnightblue" d="M2516.68,-197.47C2803.76,-195.4 3665.02,-185.62 3941.5,-142 3944.39,-141.54 3947.31,-141.03 3950.26,-140.46"/>
<polygon fill="midnightblue" stroke="midnightblue" points="2516.28,-193.98 2506.31,-197.55 2516.33,-200.98 2516.28,-193.98"/>
</g>
<!-- Node25 -->
<g id="node25" class="node">
<title>Node25</title>
<g id="a_node25"><a xlink:href="../../d0/d4f/_turbolence___smagorinsky_8h.html" target="_top" xlink:title=" ">
<polygon fill="none" stroke="black" points="4130.5,-95 4130.5,-136 4338.5,-136 4338.5,-95 4130.5,-95"/>
<text text-anchor="start" x="4138.5" y="-124" font-family="Helvetica,sans-Serif" font-size="10.00">/github/workspace/applications</text>
<text text-anchor="start" x="4138.5" y="-113" font-family="Helvetica,sans-Serif" font-size="10.00">/incompressible_fluid_application</text>
<text text-anchor="middle" x="4234.5" y="-102" font-family="Helvetica,sans-Serif" font-size="10.00">/custom_utilities/Turbolence_Smagorinsky.h</text>
</a>
</g>
</g>
<!-- Node1&#45;&gt;Node25 -->
<g id="edge33" class="edge">
<title>Node1&#45;&gt;Node25</title>
<path fill="none" stroke="midnightblue" d="M2516.41,-197.24C2825.2,-194.38 3807.27,-182.27 4121.5,-142 4133.07,-140.52 4145.2,-138.4 4157.04,-136.01"/>
<polygon fill="midnightblue" stroke="midnightblue" points="2516.12,-193.74 2506.15,-197.34 2516.18,-200.74 2516.12,-193.74"/>
</g>
<!-- Node26 -->
<g id="node26" class="node">
<title>Node26</title>
<g id="a_node26"><a xlink:href="../../d5/de1/incompressible__fluid__application_8cpp.html" target="_top" xlink:title=" ">
<polygon fill="none" stroke="black" points="4357,-95 4357,-136 4534,-136 4534,-95 4357,-95"/>
<text text-anchor="start" x="4365" y="-124" font-family="Helvetica,sans-Serif" font-size="10.00">/github/workspace/applications</text>
<text text-anchor="start" x="4365" y="-113" font-family="Helvetica,sans-Serif" font-size="10.00">/incompressible_fluid_application</text>
<text text-anchor="middle" x="4445.5" y="-102" font-family="Helvetica,sans-Serif" font-size="10.00">/incompressible_fluid_application.cpp</text>
</a>
</g>
</g>
<!-- Node1&#45;&gt;Node26 -->
<g id="edge35" class="edge">
<title>Node1&#45;&gt;Node26</title>
<path fill="none" stroke="midnightblue" d="M2516.18,-198.07C2851.03,-197.88 3987.76,-193.36 4347.5,-142 4357.68,-140.55 4368.33,-138.43 4378.69,-136.02"/>
<polygon fill="midnightblue" stroke="midnightblue" points="2516.03,-194.57 2506.04,-198.07 2516.04,-201.57 2516.03,-194.57"/>
</g>
<!-- Node27 -->
<g id="node27" class="node">
<title>Node27</title>
<g id="a_node27"><a xlink:href="../../dc/dad/lagrangian__fluid__utilities_8h.html" target="_top" xlink:title=" ">
<polygon fill="none" stroke="black" points="4552.5,-95 4552.5,-136 4716.5,-136 4716.5,-95 4552.5,-95"/>
<text text-anchor="start" x="4560.5" y="-124" font-family="Helvetica,sans-Serif" font-size="10.00">/github/workspace/applications</text>
<text text-anchor="start" x="4560.5" y="-113" font-family="Helvetica,sans-Serif" font-size="10.00">/PFEMapplication/custom_utilities</text>
<text text-anchor="middle" x="4634.5" y="-102" font-family="Helvetica,sans-Serif" font-size="10.00">/lagrangian_fluid_utilities.h</text>
</a>
</g>
</g>
<!-- Node1&#45;&gt;Node27 -->
<g id="edge36" class="edge">
<title>Node1&#45;&gt;Node27</title>
<path fill="none" stroke="midnightblue" d="M2516.47,-196.88C2900.73,-192.14 4341.77,-172.45 4543.5,-142 4552.91,-140.58 4562.73,-138.49 4572.28,-136.12"/>
<polygon fill="midnightblue" stroke="midnightblue" points="2516.18,-193.39 2506.22,-197.01 2516.27,-200.39 2516.18,-193.39"/>
</g>
<!-- Node13 -->
<g id="node13" class="node">
<title>Node13</title>
<g id="a_node13"><a xlink:href="../../dc/dc8/incompressible__fluid__application_2custom__python_2add__custom__strategies__to__python_8cpp.html" target="_top" xlink:title=" ">
<polygon fill="none" stroke="black" points="2214.5,-0.5 2214.5,-52.5 2404.5,-52.5 2404.5,-0.5 2214.5,-0.5"/>
<text text-anchor="start" x="2222.5" y="-40.5" font-family="Helvetica,sans-Serif" font-size="10.00">/github/workspace/applications</text>
<text text-anchor="start" x="2222.5" y="-29.5" font-family="Helvetica,sans-Serif" font-size="10.00">/incompressible_fluid_application</text>
<text text-anchor="start" x="2222.5" y="-18.5" font-family="Helvetica,sans-Serif" font-size="10.00">/custom_python/add_custom_strategies</text>
<text text-anchor="middle" x="2309.5" y="-7.5" font-family="Helvetica,sans-Serif" font-size="10.00">_to_python.cpp</text>
</a>
</g>
</g>
<!-- Node12&#45;&gt;Node13 -->
<g id="edge12" class="edge">
<title>Node12&#45;&gt;Node13</title>
<path fill="none" stroke="midnightblue" d="M2157.23,-85.86C2185.33,-75.09 2217.04,-62.94 2244.22,-52.52"/>
<polygon fill="midnightblue" stroke="midnightblue" points="2155.94,-82.61 2147.85,-89.45 2158.44,-89.14 2155.94,-82.61"/>
</g>
<!-- Node14&#45;&gt;Node13 -->
<g id="edge14" class="edge">
<title>Node14&#45;&gt;Node13</title>
<path fill="none" stroke="midnightblue" d="M2309.5,-79.19C2309.5,-70.28 2309.5,-60.9 2309.5,-52.61"/>
<polygon fill="midnightblue" stroke="midnightblue" points="2306,-79.34 2309.5,-89.34 2313,-79.34 2306,-79.34"/>
</g>
<!-- Node15&#45;&gt;Node13 -->
<g id="edge16" class="edge">
<title>Node15&#45;&gt;Node13</title>
<path fill="none" stroke="midnightblue" d="M2461.77,-85.86C2433.67,-75.09 2401.96,-62.94 2374.78,-52.52"/>
<polygon fill="midnightblue" stroke="midnightblue" points="2460.56,-89.14 2471.15,-89.45 2463.06,-82.61 2460.56,-89.14"/>
</g>
<!-- Node17 -->
<g id="node17" class="node">
<title>Node17</title>
<g id="a_node17"><a xlink:href="../../d7/d0f/incompressible__fluid__application_2custom__python_2add__custom__utilities__to__python_8cpp.html" target="_top" xlink:title=" ">
<polygon fill="none" stroke="black" points="3368.5,-0.5 3368.5,-52.5 3546.5,-52.5 3546.5,-0.5 3368.5,-0.5"/>
<text text-anchor="start" x="3376.5" y="-40.5" font-family="Helvetica,sans-Serif" font-size="10.00">/github/workspace/applications</text>
<text text-anchor="start" x="3376.5" y="-29.5" font-family="Helvetica,sans-Serif" font-size="10.00">/incompressible_fluid_application</text>
<text text-anchor="start" x="3376.5" y="-18.5" font-family="Helvetica,sans-Serif" font-size="10.00">/custom_python/add_custom_utilities</text>
<text text-anchor="middle" x="3457.5" y="-7.5" font-family="Helvetica,sans-Serif" font-size="10.00">_to_python.cpp</text>
</a>
</g>
</g>
<!-- Node16&#45;&gt;Node17 -->
<g id="edge18" class="edge">
<title>Node16&#45;&gt;Node17</title>
<path fill="none" stroke="midnightblue" d="M2831.68,-88.91C3027.53,-52.63 3248.06,-37.4 3368.27,-31.24"/>
<polygon fill="midnightblue" stroke="midnightblue" points="2830.96,-85.49 2821.78,-90.77 2832.25,-92.37 2830.96,-85.49"/>
</g>
<!-- Node18&#45;&gt;Node17 -->
<g id="edge20" class="edge">
<title>Node18&#45;&gt;Node17</title>
<path fill="none" stroke="midnightblue" d="M2992.43,-92.48C2997.51,-91.22 3002.57,-90.05 3007.5,-89 3131.5,-62.71 3277.2,-45.19 3368.47,-35.79"/>
<polygon fill="midnightblue" stroke="midnightblue" points="2991.48,-89.11 2982.67,-95 2993.23,-95.89 2991.48,-89.11"/>
</g>
<!-- Node19&#45;&gt;Node17 -->
<g id="edge22" class="edge">
<title>Node19&#45;&gt;Node17</title>
<path fill="none" stroke="midnightblue" d="M3185.83,-88.71C3252.01,-71.84 3317.35,-57.17 3368.34,-46.16"/>
<polygon fill="midnightblue" stroke="midnightblue" points="3184.88,-85.34 3176.07,-91.21 3186.62,-92.12 3184.88,-85.34"/>
</g>
<!-- Node20&#45;&gt;Node17 -->
<g id="edge24" class="edge">
<title>Node20&#45;&gt;Node17</title>
<path fill="none" stroke="midnightblue" d="M3324.09,-90.58C3349.05,-78.78 3379.16,-64.54 3404.45,-52.58"/>
<polygon fill="midnightblue" stroke="midnightblue" points="3322.34,-87.54 3314.79,-94.98 3325.33,-93.87 3322.34,-87.54"/>
</g>
<!-- Node21&#45;&gt;Node17 -->
<g id="edge26" class="edge">
<title>Node21&#45;&gt;Node17</title>
<path fill="none" stroke="midnightblue" d="M3457.5,-84.51C3457.5,-74.17 3457.5,-62.71 3457.5,-52.79"/>
<polygon fill="midnightblue" stroke="midnightblue" points="3454,-84.76 3457.5,-94.76 3461,-84.76 3454,-84.76"/>
</g>
<!-- Node22&#45;&gt;Node17 -->
<g id="edge28" class="edge">
<title>Node22&#45;&gt;Node17</title>
<path fill="none" stroke="midnightblue" d="M3582.08,-85.15C3559.19,-74.56 3533.59,-62.71 3511.57,-52.52"/>
<polygon fill="midnightblue" stroke="midnightblue" points="3580.83,-88.43 3591.37,-89.45 3583.77,-82.08 3580.83,-88.43"/>
</g>
<!-- Node23&#45;&gt;Node17 -->
<g id="edge30" class="edge">
<title>Node23&#45;&gt;Node17</title>
<path fill="none" stroke="midnightblue" d="M3752.58,-92.59C3747.48,-91.36 3742.43,-90.16 3737.5,-89 3673.78,-74.04 3601.65,-58.22 3546.55,-46.38"/>
<polygon fill="midnightblue" stroke="midnightblue" points="3751.88,-96.02 3762.42,-94.98 3753.53,-89.22 3751.88,-96.02"/>
</g>
<!-- Node24&#45;&gt;Node17 -->
<g id="edge32" class="edge">
<title>Node24&#45;&gt;Node17</title>
<path fill="none" stroke="midnightblue" d="M3939.98,-88.81C3797.69,-60.38 3642.26,-43.54 3546.92,-34.82"/>
<polygon fill="midnightblue" stroke="midnightblue" points="3939.7,-92.32 3950.2,-90.88 3941.09,-85.46 3939.7,-92.32"/>
</g>
<!-- Node25&#45;&gt;Node17 -->
<g id="edge34" class="edge">
<title>Node25&#45;&gt;Node17</title>
<path fill="none" stroke="midnightblue" d="M4143.94,-92.98C4136.37,-91.51 4128.82,-90.16 4121.5,-89 3917.11,-56.61 3674.42,-39.47 3546.56,-32.07"/>
<polygon fill="midnightblue" stroke="midnightblue" points="4143.39,-96.44 4153.88,-94.97 4144.77,-89.58 4143.39,-96.44"/>
</g>
</g>
</svg>
