<?xml version="1.0" encoding="UTF-8" standalone="no"?>
<!DOCTYPE svg PUBLIC "-//W3C//DTD SVG 1.1//EN"
 "http://www.w3.org/Graphics/SVG/1.1/DTD/svg11.dtd">
<!-- Generated by graphviz version 2.48.0 (20210719.0153)
 -->
<!-- Title: /github/workspace/kratos/python/vector_python_interface.h Pages: 1 -->
<!--zoomable 251 -->
<svg id="main" version="1.1" xmlns="http://www.w3.org/2000/svg" xmlns:xlink="http://www.w3.org/1999/xlink" xml:space="preserve" onload="init(evt)">
<style type="text/css"><![CDATA[
.edge:hover path { stroke: red; }
.edge:hover polygon { stroke: red; fill: red; }
]]></style>
<script type="text/javascript"><![CDATA[
var edges = document.getElementsByTagName('g');
if (edges && edges.length) {
  for (var i=0;i<edges.length;i++) {
    if (edges[i].id.substr(0,4)=='edge') {
      edges[i].setAttribute('class','edge');
    }
  }
}
]]></script>
        <defs>
                <circle id="rim" cx="0" cy="0" r="7"/>
                <circle id="rim2" cx="0" cy="0" r="3.5"/>
                <g id="zoomPlus">
                        <use xlink:href="#rim" fill="#404040">
                                <set attributeName="fill" to="#808080" begin="zoomplus.mouseover" end="zoomplus.mouseout"/>
                        </use>
                        <path d="M-4,0h8M0,-4v8" fill="none" stroke="white" stroke-width="1.5" pointer-events="none"/>
                </g>
                <g id="zoomMin">
                        <use xlink:href="#rim" fill="#404040">
                                <set attributeName="fill" to="#808080" begin="zoomminus.mouseover" end="zoomminus.mouseout"/>
                        </use>
                        <path d="M-4,0h8" fill="none" stroke="white" stroke-width="1.5" pointer-events="none"/>
                </g>
                <g id="dirArrow">
                        <path fill="none" stroke="white" stroke-width="1.5" d="M0,-3.0v7 M-2.5,-0.5L0,-3.0L2.5,-0.5"/>
                </g>
               <g id="resetDef">
                       <use xlink:href="#rim2" fill="#404040">
                               <set attributeName="fill" to="#808080" begin="reset.mouseover" end="reset.mouseout"/>
                       </use>
               </g>
        </defs>

<script type="text/javascript">
var viewWidth = 645;
var viewHeight = 251;
var sectionId = 'dynsection-0';
</script>
<script xlink:href="../../svgpan.js"/>
<svg id="graph" class="graph">
<g id="viewport">
<title>/github/workspace/kratos/python/vector_python_interface.h</title>
<!-- Node1 -->
<g id="node1" class="node">
<title>Node1</title>
<g id="a_node1"><a xlink:title=" ">
<polygon fill="#bfbfbf" stroke="black" points="240.5,-212.5 240.5,-242.5 402.5,-242.5 402.5,-212.5 240.5,-212.5"/>
<text text-anchor="start" x="248.5" y="-230.5" font-family="Helvetica,sans-Serif" font-size="10.00">/github/workspace/kratos</text>
<text text-anchor="middle" x="321.5" y="-219.5" font-family="Helvetica,sans-Serif" font-size="10.00">/python/vector_python_interface.h</text>
</a>
</g>
</g>
<!-- Node2 -->
<g id="node2" class="node">
<title>Node2</title>
<g id="a_node2"><a xlink:href="../../df/d67/define_8h.html" target="_top" xlink:title=" ">
<polygon fill="none" stroke="black" points="286,-67.5 286,-86.5 375,-86.5 375,-67.5 286,-67.5"/>
<text text-anchor="middle" x="330.5" y="-74.5" font-family="Helvetica,sans-Serif" font-size="10.00">includes/define.h</text>
</a>
</g>
</g>
<!-- Node1&#45;&gt;Node2 -->
<g id="edge1" class="edge">
<title>Node1&#45;&gt;Node2</title>
<path fill="none" stroke="midnightblue" d="M294.2,-212.36C280.8,-203.81 265.96,-191.54 258.5,-176 250.42,-159.17 250.3,-150.77 258.5,-134 267.63,-115.33 286.32,-101.08 302.37,-91.63"/>
<polygon fill="midnightblue" stroke="midnightblue" points="304.37,-94.53 311.43,-86.63 300.98,-88.4 304.37,-94.53"/>
</g>
<!-- Node8 -->
<g id="node8" class="node">
<title>Node8</title>
<g id="a_node8"><a xlink:href="../../df/ddb/readonly__vector__python__interface_8h.html" target="_top" xlink:title=" ">
<polygon fill="none" stroke="black" points="95.5,-140 95.5,-170 211.5,-170 211.5,-140 95.5,-140"/>
<text text-anchor="start" x="103.5" y="-158" font-family="Helvetica,sans-Serif" font-size="10.00">python/readonly_vector</text>
<text text-anchor="middle" x="153.5" y="-147" font-family="Helvetica,sans-Serif" font-size="10.00">_python_interface.h</text>
</a>
</g>
</g>
<!-- Node1&#45;&gt;Node8 -->
<g id="edge7" class="edge">
<title>Node1&#45;&gt;Node8</title>
<path fill="none" stroke="midnightblue" d="M287.91,-212.4C261.58,-201.36 224.77,-185.91 196.33,-173.97"/>
<polygon fill="midnightblue" stroke="midnightblue" points="197.61,-170.72 187.04,-170.07 194.9,-177.17 197.61,-170.72"/>
</g>
<!-- Node10 -->
<g id="node10" class="node">
<title>Node10</title>
<g id="a_node10"><a xlink:href="../../dc/d4f/vector__vector__operator__python_8h.html" target="_top" xlink:title=" ">
<polygon fill="none" stroke="black" points="268,-140 268,-170 375,-170 375,-140 268,-140"/>
<text text-anchor="start" x="276" y="-158" font-family="Helvetica,sans-Serif" font-size="10.00">python/vector_vector</text>
<text text-anchor="middle" x="321.5" y="-147" font-family="Helvetica,sans-Serif" font-size="10.00">_operator_python.h</text>
</a>
</g>
</g>
<!-- Node1&#45;&gt;Node10 -->
<g id="edge11" class="edge">
<title>Node1&#45;&gt;Node10</title>
<path fill="none" stroke="midnightblue" d="M321.5,-212.23C321.5,-203.16 321.5,-191.16 321.5,-180.58"/>
<polygon fill="midnightblue" stroke="midnightblue" points="325,-180.25 321.5,-170.25 318,-180.25 325,-180.25"/>
</g>
<!-- Node13 -->
<g id="node13" class="node">
<title>Node13</title>
<g id="a_node13"><a xlink:href="../../d1/dfc/vector__scalar__assignment__operator__python_8h.html" target="_top" xlink:title=" ">
<polygon fill="none" stroke="black" points="393,-134.5 393,-175.5 506,-175.5 506,-134.5 393,-134.5"/>
<text text-anchor="start" x="401" y="-163.5" font-family="Helvetica,sans-Serif" font-size="10.00">python/vector_scalar</text>
<text text-anchor="start" x="401" y="-152.5" font-family="Helvetica,sans-Serif" font-size="10.00">_assignment_operator</text>
<text text-anchor="middle" x="449.5" y="-141.5" font-family="Helvetica,sans-Serif" font-size="10.00">_python.h</text>
</a>
</g>
</g>
<!-- Node1&#45;&gt;Node13 -->
<g id="edge15" class="edge">
<title>Node1&#45;&gt;Node13</title>
<path fill="none" stroke="midnightblue" d="M347.1,-212.4C363.6,-203.31 385.5,-191.25 404.82,-180.61"/>
<polygon fill="midnightblue" stroke="midnightblue" points="406.7,-183.57 413.77,-175.68 403.32,-177.44 406.7,-183.57"/>
</g>
<!-- Node14 -->
<g id="node14" class="node">
<title>Node14</title>
<g id="a_node14"><a xlink:href="../../d5/dba/vector__vector__assignment__operator__python_8h.html" target="_top" xlink:title=" ">
<polygon fill="none" stroke="black" points="524,-134.5 524,-175.5 637,-175.5 637,-134.5 524,-134.5"/>
<text text-anchor="start" x="532" y="-163.5" font-family="Helvetica,sans-Serif" font-size="10.00">python/vector_vector</text>
<text text-anchor="start" x="532" y="-152.5" font-family="Helvetica,sans-Serif" font-size="10.00">_assignment_operator</text>
<text text-anchor="middle" x="580.5" y="-141.5" font-family="Helvetica,sans-Serif" font-size="10.00">_python.h</text>
</a>
</g>
</g>
<!-- Node1&#45;&gt;Node14 -->
<g id="edge19" class="edge">
<title>Node1&#45;&gt;Node14</title>
<path fill="none" stroke="midnightblue" d="M378.13,-212.46C414.57,-203.26 463.15,-190.7 513.97,-176.39"/>
<polygon fill="midnightblue" stroke="midnightblue" points="515.15,-179.69 523.82,-173.6 513.25,-172.96 515.15,-179.69"/>
</g>
<!-- Node3 -->
<g id="node3" class="node">
<title>Node3</title>
<g id="a_node3"><a xlink:title=" ">
<polygon fill="none" stroke="#bfbfbf" points="327,-0.5 327,-19.5 386,-19.5 386,-0.5 327,-0.5"/>
<text text-anchor="middle" x="356.5" y="-7.5" font-family="Helvetica,sans-Serif" font-size="10.00">stdexcept</text>
</a>
</g>
</g>
<!-- Node2&#45;&gt;Node3 -->
<g id="edge2" class="edge">
<title>Node2&#45;&gt;Node3</title>
<path fill="none" stroke="midnightblue" d="M334.01,-67.23C337.9,-57.49 344.31,-41.48 349.29,-29.03"/>
<polygon fill="midnightblue" stroke="midnightblue" points="352.58,-30.21 353.05,-19.63 346.09,-27.61 352.58,-30.21"/>
</g>
<!-- Node4 -->
<g id="node4" class="node">
<title>Node4</title>
<g id="a_node4"><a xlink:title=" ">
<polygon fill="none" stroke="#bfbfbf" points="404.5,-0.5 404.5,-19.5 456.5,-19.5 456.5,-0.5 404.5,-0.5"/>
<text text-anchor="middle" x="430.5" y="-7.5" font-family="Helvetica,sans-Serif" font-size="10.00">sstream</text>
</a>
</g>
</g>
<!-- Node2&#45;&gt;Node4 -->
<g id="edge3" class="edge">
<title>Node2&#45;&gt;Node4</title>
<path fill="none" stroke="midnightblue" d="M343.99,-67.23C360.55,-56.46 388.88,-38.05 408.59,-25.24"/>
<polygon fill="midnightblue" stroke="midnightblue" points="410.75,-28.01 417.23,-19.63 406.94,-22.14 410.75,-28.01"/>
</g>
<!-- Node5 -->
<g id="node5" class="node">
<title>Node5</title>
<g id="a_node5"><a xlink:title=" ">
<polygon fill="none" stroke="#bfbfbf" points="67,-0.5 67,-19.5 170,-19.5 170,-0.5 67,-0.5"/>
<text text-anchor="middle" x="118.5" y="-7.5" font-family="Helvetica,sans-Serif" font-size="10.00">boost/smart_ptr.hpp</text>
</a>
</g>
</g>
<!-- Node2&#45;&gt;Node5 -->
<g id="edge4" class="edge">
<title>Node2&#45;&gt;Node5</title>
<path fill="none" stroke="midnightblue" d="M302.35,-67.37C264.71,-55.83 197.87,-35.34 155.99,-22.5"/>
<polygon fill="midnightblue" stroke="midnightblue" points="157.02,-19.15 146.43,-19.56 154.97,-25.84 157.02,-19.15"/>
</g>
<!-- Node6 -->
<g id="node6" class="node">
<title>Node6</title>
<g id="a_node6"><a xlink:title=" ">
<polygon fill="none" stroke="#bfbfbf" points="475,-0.5 475,-19.5 606,-19.5 606,-0.5 475,-0.5"/>
<text text-anchor="middle" x="540.5" y="-7.5" font-family="Helvetica,sans-Serif" font-size="10.00">boost/current_function.hpp</text>
</a>
</g>
</g>
<!-- Node2&#45;&gt;Node6 -->
<g id="edge5" class="edge">
<title>Node2&#45;&gt;Node6</title>
<path fill="none" stroke="midnightblue" d="M358.39,-67.37C395.6,-55.85 461.6,-35.42 503.1,-22.58"/>
<polygon fill="midnightblue" stroke="midnightblue" points="504.31,-25.86 512.83,-19.56 502.24,-19.18 504.31,-25.86"/>
</g>
<!-- Node7 -->
<g id="node7" class="node">
<title>Node7</title>
<g id="a_node7"><a xlink:href="../../de/d17/kratos__config_8h.html" target="_top" xlink:title=" ">
<polygon fill="none" stroke="black" points="188,-0.5 188,-19.5 309,-19.5 309,-0.5 188,-0.5"/>
<text text-anchor="middle" x="248.5" y="-7.5" font-family="Helvetica,sans-Serif" font-size="10.00">includes/kratos_config.h</text>
</a>
</g>
</g>
<!-- Node2&#45;&gt;Node7 -->
<g id="edge6" class="edge">
<title>Node2&#45;&gt;Node7</title>
<path fill="none" stroke="midnightblue" d="M319.44,-67.23C306.16,-56.71 283.67,-38.88 267.57,-26.12"/>
<polygon fill="midnightblue" stroke="midnightblue" points="269.39,-23.1 259.38,-19.63 265.05,-28.58 269.39,-23.1"/>
</g>
<!-- Node8&#45;&gt;Node2 -->
<g id="edge10" class="edge">
<title>Node8&#45;&gt;Node2</title>
<path fill="none" stroke="midnightblue" d="M186.38,-139.88C219.21,-125.78 269.23,-104.31 300.87,-90.72"/>
<polygon fill="midnightblue" stroke="midnightblue" points="302.65,-93.77 310.46,-86.61 299.89,-87.34 302.65,-93.77"/>
</g>
<!-- Node8&#45;&gt;Node5 -->
<g id="edge8" class="edge">
<title>Node8&#45;&gt;Node5</title>
<path fill="none" stroke="midnightblue" d="M151.18,-139.92C147.89,-120.77 141.4,-85.52 133.5,-56 131.1,-47.04 127.91,-37.25 125.09,-29.1"/>
<polygon fill="midnightblue" stroke="midnightblue" points="128.33,-27.78 121.69,-19.53 121.74,-30.13 128.33,-27.78"/>
</g>
<!-- Node9 -->
<g id="node9" class="node">
<title>Node9</title>
<g id="a_node9"><a xlink:title=" ">
<polygon fill="none" stroke="#bfbfbf" points="0,-56.5 0,-97.5 125,-97.5 125,-56.5 0,-56.5"/>
<text text-anchor="start" x="8" y="-85.5" font-family="Helvetica,sans-Serif" font-size="10.00">boost/python/suite</text>
<text text-anchor="start" x="8" y="-74.5" font-family="Helvetica,sans-Serif" font-size="10.00">/indexing/vector_indexing</text>
<text text-anchor="middle" x="62.5" y="-63.5" font-family="Helvetica,sans-Serif" font-size="10.00">_suite.hpp</text>
</a>
</g>
</g>
<!-- Node8&#45;&gt;Node9 -->
<g id="edge9" class="edge">
<title>Node8&#45;&gt;Node9</title>
<path fill="none" stroke="midnightblue" d="M136.38,-139.7C124.39,-129.69 108.03,-116.02 93.74,-104.09"/>
<polygon fill="midnightblue" stroke="midnightblue" points="95.98,-101.4 86.06,-97.68 91.5,-106.78 95.98,-101.4"/>
</g>
<!-- Node10&#45;&gt;Node2 -->
<g id="edge14" class="edge">
<title>Node10&#45;&gt;Node2</title>
<path fill="none" stroke="midnightblue" d="M323.19,-139.7C324.63,-127.6 326.69,-110.15 328.26,-96.89"/>
<polygon fill="midnightblue" stroke="midnightblue" points="331.79,-96.91 329.49,-86.56 324.83,-96.08 331.79,-96.91"/>
</g>
<!-- Node11 -->
<g id="node11" class="node">
<title>Node11</title>
<g id="a_node11"><a xlink:title=" ">
<polygon fill="none" stroke="#bfbfbf" points="485,-67.5 485,-86.5 526,-86.5 526,-67.5 485,-67.5"/>
<text text-anchor="middle" x="505.5" y="-74.5" font-family="Helvetica,sans-Serif" font-size="10.00">string</text>
</a>
</g>
</g>
<!-- Node10&#45;&gt;Node11 -->
<g id="edge12" class="edge">
<title>Node10&#45;&gt;Node11</title>
<path fill="none" stroke="midnightblue" d="M363.84,-139.88C402.17,-126.86 455.57,-108.08 475.5,-98 478.78,-96.34 482.14,-94.39 485.36,-92.36"/>
<polygon fill="midnightblue" stroke="midnightblue" points="487.54,-95.12 493.93,-86.66 483.66,-89.29 487.54,-95.12"/>
</g>
<!-- Node12 -->
<g id="node12" class="node">
<title>Node12</title>
<g id="a_node12"><a xlink:title=" ">
<polygon fill="none" stroke="#bfbfbf" points="412.5,-67.5 412.5,-86.5 466.5,-86.5 466.5,-67.5 412.5,-67.5"/>
<text text-anchor="middle" x="439.5" y="-74.5" font-family="Helvetica,sans-Serif" font-size="10.00">iostream</text>
</a>
</g>
</g>
<!-- Node10&#45;&gt;Node12 -->
<g id="edge13" class="edge">
<title>Node10&#45;&gt;Node12</title>
<path fill="none" stroke="midnightblue" d="M343.42,-139.88C364.55,-126.27 396.36,-105.79 417.51,-92.16"/>
<polygon fill="midnightblue" stroke="midnightblue" points="419.63,-94.96 426.14,-86.61 415.84,-89.08 419.63,-94.96"/>
</g>
<!-- Node13&#45;&gt;Node2 -->
<g id="edge18" class="edge">
<title>Node13&#45;&gt;Node2</title>
<path fill="none" stroke="midnightblue" d="M418.85,-134.43C398.12,-121.18 371.21,-104 352.56,-92.09"/>
<polygon fill="midnightblue" stroke="midnightblue" points="354.2,-88.98 343.89,-86.55 350.43,-94.88 354.2,-88.98"/>
</g>
<!-- Node13&#45;&gt;Node11 -->
<g id="edge16" class="edge">
<title>Node13&#45;&gt;Node11</title>
<path fill="none" stroke="midnightblue" d="M463.92,-134.43C473.01,-122.09 484.62,-106.34 493.26,-94.61"/>
<polygon fill="midnightblue" stroke="midnightblue" points="496.08,-96.68 499.2,-86.55 490.45,-92.53 496.08,-96.68"/>
</g>
<!-- Node13&#45;&gt;Node12 -->
<g id="edge17" class="edge">
<title>Node13&#45;&gt;Node12</title>
<path fill="none" stroke="midnightblue" d="M446.92,-134.43C445.4,-122.82 443.47,-108.18 441.96,-96.72"/>
<polygon fill="midnightblue" stroke="midnightblue" points="445.4,-96.01 440.63,-86.55 438.46,-96.92 445.4,-96.01"/>
</g>
<!-- Node14&#45;&gt;Node2 -->
<g id="edge22" class="edge">
<title>Node14&#45;&gt;Node2</title>
<path fill="none" stroke="midnightblue" d="M523.78,-136.53C520.98,-135.67 518.21,-134.83 515.5,-134 464.89,-118.55 406.44,-100.89 369.01,-89.6"/>
<polygon fill="midnightblue" stroke="midnightblue" points="369.62,-86.13 359.04,-86.59 367.6,-92.83 369.62,-86.13"/>
</g>
<!-- Node14&#45;&gt;Node11 -->
<g id="edge20" class="edge">
<title>Node14&#45;&gt;Node11</title>
<path fill="none" stroke="midnightblue" d="M561.19,-134.43C548.77,-121.85 532.85,-105.72 521.22,-93.92"/>
<polygon fill="midnightblue" stroke="midnightblue" points="523.45,-91.21 513.94,-86.55 518.47,-96.13 523.45,-91.21"/>
</g>
<!-- Node14&#45;&gt;Node12 -->
<g id="edge21" class="edge">
<title>Node14&#45;&gt;Node12</title>
<path fill="none" stroke="midnightblue" d="M543.49,-134.46C523.34,-123.77 498,-110.25 475.5,-98 471.69,-95.92 467.65,-93.71 463.72,-91.53"/>
<polygon fill="midnightblue" stroke="midnightblue" points="465.33,-88.42 454.88,-86.62 461.93,-94.54 465.33,-88.42"/>
</g>
</g>
</svg>
        <g id="navigator" transform="translate(0 0)" fill="#404254">
                <rect fill="#f2f5e9" fill-opacity="0.5" stroke="#606060" stroke-width=".5" x="0" y="0" width="60" height="60"/>
                <use id="zoomplus" xlink:href="#zoomPlus" x="17" y="9" onmousedown="handleZoom(evt,'in')"/>
                <use id="zoomminus" xlink:href="#zoomMin" x="42" y="9" onmousedown="handleZoom(evt,'out')"/>
                <use id="reset" xlink:href="#resetDef" x="30" y="36" onmousedown="handleReset()"/>
                <g id="arrowUp" xlink:href="#dirArrow" transform="translate(30 24)" onmousedown="handlePan(0,-1)">
                  <use xlink:href="#rim" fill="#404040">
                        <set attributeName="fill" to="#808080" begin="arrowUp.mouseover" end="arrowUp.mouseout"/>
                  </use>
                  <path fill="none" stroke="white" stroke-width="1.5" d="M0,-3.0v7 M-2.5,-0.5L0,-3.0L2.5,-0.5"/>
                </g>
                <g id="arrowRight" xlink:href="#dirArrow" transform="rotate(90) translate(36 -43)" onmousedown="handlePan(1,0)">
                  <use xlink:href="#rim" fill="#404040">
                        <set attributeName="fill" to="#808080" begin="arrowRight.mouseover" end="arrowRight.mouseout"/>
                  </use>
                  <path fill="none" stroke="white" stroke-width="1.5" d="M0,-3.0v7 M-2.5,-0.5L0,-3.0L2.5,-0.5"/>
                </g>
                <g id="arrowDown" xlink:href="#dirArrow" transform="rotate(180) translate(-30 -48)" onmousedown="handlePan(0,1)">
                  <use xlink:href="#rim" fill="#404040">
                        <set attributeName="fill" to="#808080" begin="arrowDown.mouseover" end="arrowDown.mouseout"/>
                  </use>
                  <path fill="none" stroke="white" stroke-width="1.5" d="M0,-3.0v7 M-2.5,-0.5L0,-3.0L2.5,-0.5"/>
                </g>
                <g id="arrowLeft" xlink:href="#dirArrow" transform="rotate(270) translate(-36 17)" onmousedown="handlePan(-1,0)">
                  <use xlink:href="#rim" fill="#404040">
                        <set attributeName="fill" to="#808080" begin="arrowLeft.mouseover" end="arrowLeft.mouseout"/>
                  </use>
                  <path fill="none" stroke="white" stroke-width="1.5" d="M0,-3.0v7 M-2.5,-0.5L0,-3.0L2.5,-0.5"/>
                </g>
        </g>
        <svg viewBox="0 0 15 15" width="100%" height="30px" preserveAspectRatio="xMaxYMin meet">
         <g id="arrow_out" transform="scale(0.3 0.3)">
          <a xlink:href="vector__python__interface_8h__incl_org.svg" target="_base">
           <rect id="button" ry="5" rx="5" y="6" x="6" height="38" width="38"
                fill="#f2f5e9" fill-opacity="0.5" stroke="#606060" stroke-width="1.0"/>
           <path id="arrow"
             d="M 11.500037,31.436501 C 11.940474,20.09759 22.043105,11.32322 32.158766,21.979434 L 37.068811,17.246167 C 37.068811,17.246167 37.088388,32 37.088388,32 L 22.160133,31.978069 C 22.160133,31.978069 26.997745,27.140456 26.997745,27.140456 C 18.528582,18.264221 13.291696,25.230495 11.500037,31.436501 z"
             style="fill:#404040;"/>
          </a>
         </g>
        </svg>
</svg>
