<?xml version="1.0" encoding="UTF-8" standalone="no"?>
<!DOCTYPE svg PUBLIC "-//W3C//DTD SVG 1.1//EN"
 "http://www.w3.org/Graphics/SVG/1.1/DTD/svg11.dtd">
<!-- Generated by graphviz version 2.48.0 (20210719.0153)
 -->
<!-- Title: /github/workspace/kratos/solving_strategies/schemes/residualbased_incrementalupdate_static_scheme.h Pages: 1 -->
<svg width="1683pt" height="239pt"
 viewBox="0.00 0.00 1682.50 239.00" xmlns="http://www.w3.org/2000/svg" xmlns:xlink="http://www.w3.org/1999/xlink">
<g id="graph0" class="graph" transform="scale(1 1) rotate(0) translate(4 235)">
<title>/github/workspace/kratos/solving_strategies/schemes/residualbased_incrementalupdate_static_scheme.h</title>
<!-- Node1 -->
<g id="node1" class="node">
<title>Node1</title>
<g id="a_node1"><a xlink:title=" ">
<polygon fill="#bfbfbf" stroke="black" points="693,-178.5 693,-230.5 857,-230.5 857,-178.5 693,-178.5"/>
<text text-anchor="start" x="701" y="-218.5" font-family="Helvetica,sans-Serif" font-size="10.00">/github/workspace/kratos</text>
<text text-anchor="start" x="701" y="-207.5" font-family="Helvetica,sans-Serif" font-size="10.00">/solving_strategies/schemes</text>
<text text-anchor="start" x="701" y="-196.5" font-family="Helvetica,sans-Serif" font-size="10.00">/residualbased_incrementalupdate</text>
<text text-anchor="middle" x="775" y="-185.5" font-family="Helvetica,sans-Serif" font-size="10.00">_static_scheme.h</text>
</a>
</g>
</g>
<!-- Node2 -->
<g id="node2" class="node">
<title>Node2</title>
<g id="a_node2"><a xlink:href="../../d8/dd7/add__strategies__to__python_8cpp.html" target="_top" xlink:title=" ">
<polygon fill="none" stroke="black" points="0,-95 0,-136 126,-136 126,-95 0,-95"/>
<text text-anchor="start" x="8" y="-124" font-family="Helvetica,sans-Serif" font-size="10.00">/github/workspace/kratos</text>
<text text-anchor="start" x="8" y="-113" font-family="Helvetica,sans-Serif" font-size="10.00">/python/add_strategies</text>
<text text-anchor="middle" x="63" y="-102" font-family="Helvetica,sans-Serif" font-size="10.00">_to_python.cpp</text>
</a>
</g>
</g>
<!-- Node1&#45;&gt;Node2 -->
<g id="edge1" class="edge">
<title>Node1&#45;&gt;Node2</title>
<path fill="none" stroke="midnightblue" d="M682.6,-201.68C557.19,-197.62 326.73,-184.49 135,-142 127.88,-140.42 120.49,-138.34 113.29,-136.06"/>
<polygon fill="midnightblue" stroke="midnightblue" points="682.82,-205.19 692.93,-202.01 683.04,-198.2 682.82,-205.19"/>
</g>
<!-- Node3 -->
<g id="node3" class="node">
<title>Node3</title>
<g id="a_node3"><a xlink:href="../../d0/dc7/laplacian__meshmoving__strategy_8h.html" target="_top" xlink:title=" ">
<polygon fill="none" stroke="black" points="144,-89.5 144,-141.5 312,-141.5 312,-89.5 144,-89.5"/>
<text text-anchor="start" x="152" y="-129.5" font-family="Helvetica,sans-Serif" font-size="10.00">/github/workspace/applications</text>
<text text-anchor="start" x="152" y="-118.5" font-family="Helvetica,sans-Serif" font-size="10.00">/ALEapplication/custom_strategies</text>
<text text-anchor="start" x="152" y="-107.5" font-family="Helvetica,sans-Serif" font-size="10.00">/strategies/laplacian_meshmoving</text>
<text text-anchor="middle" x="228" y="-96.5" font-family="Helvetica,sans-Serif" font-size="10.00">_strategy.h</text>
</a>
</g>
</g>
<!-- Node1&#45;&gt;Node3 -->
<g id="edge2" class="edge">
<title>Node1&#45;&gt;Node3</title>
<path fill="none" stroke="midnightblue" d="M682.71,-194.64C590.55,-184.93 445.14,-167.31 321,-142 318.05,-141.4 315.05,-140.75 312.03,-140.08"/>
<polygon fill="midnightblue" stroke="midnightblue" points="682.54,-198.14 692.85,-195.69 683.26,-191.17 682.54,-198.14"/>
</g>
<!-- Node5 -->
<g id="node5" class="node">
<title>Node5</title>
<g id="a_node5"><a xlink:href="../../d3/d97/residualbased__convdiff__strategy_8h.html" target="_top" xlink:title=" ">
<polygon fill="none" stroke="black" points="330.5,-89.5 330.5,-141.5 539.5,-141.5 539.5,-89.5 330.5,-89.5"/>
<text text-anchor="start" x="338.5" y="-129.5" font-family="Helvetica,sans-Serif" font-size="10.00">/github/workspace/applications</text>
<text text-anchor="start" x="338.5" y="-118.5" font-family="Helvetica,sans-Serif" font-size="10.00">/convection_diffusion_application</text>
<text text-anchor="start" x="338.5" y="-107.5" font-family="Helvetica,sans-Serif" font-size="10.00">/custom_strategies/strategies/residualbased</text>
<text text-anchor="middle" x="435" y="-96.5" font-family="Helvetica,sans-Serif" font-size="10.00">_convdiff_strategy.h</text>
</a>
</g>
</g>
<!-- Node1&#45;&gt;Node5 -->
<g id="edge4" class="edge">
<title>Node1&#45;&gt;Node5</title>
<path fill="none" stroke="midnightblue" d="M682.94,-179.94C636.48,-168.06 580.11,-153.63 532.86,-141.54"/>
<polygon fill="midnightblue" stroke="midnightblue" points="682.14,-183.35 692.7,-182.44 683.88,-176.57 682.14,-183.35"/>
</g>
<!-- Node7 -->
<g id="node7" class="node">
<title>Node7</title>
<g id="a_node7"><a xlink:href="../../d4/de9/residualbased__convdiff__strategy__nonlinear_8h.html" target="_top" xlink:title=" ">
<polygon fill="none" stroke="black" points="557.5,-89.5 557.5,-141.5 766.5,-141.5 766.5,-89.5 557.5,-89.5"/>
<text text-anchor="start" x="565.5" y="-129.5" font-family="Helvetica,sans-Serif" font-size="10.00">/github/workspace/applications</text>
<text text-anchor="start" x="565.5" y="-118.5" font-family="Helvetica,sans-Serif" font-size="10.00">/convection_diffusion_application</text>
<text text-anchor="start" x="565.5" y="-107.5" font-family="Helvetica,sans-Serif" font-size="10.00">/custom_strategies/strategies/residualbased</text>
<text text-anchor="middle" x="662" y="-96.5" font-family="Helvetica,sans-Serif" font-size="10.00">_convdiff_strategy_nonlinear.h</text>
</a>
</g>
</g>
<!-- Node1&#45;&gt;Node7 -->
<g id="edge6" class="edge">
<title>Node1&#45;&gt;Node7</title>
<path fill="none" stroke="midnightblue" d="M734.37,-172.22C721.31,-162.16 707.02,-151.16 694.61,-141.61"/>
<polygon fill="midnightblue" stroke="midnightblue" points="732.26,-175.01 742.32,-178.34 736.53,-169.46 732.26,-175.01"/>
</g>
<!-- Node8 -->
<g id="node8" class="node">
<title>Node8</title>
<g id="a_node8"><a xlink:href="../../d1/d06/residualbased__fluid__strategy_8h.html" target="_top" xlink:title=" ">
<polygon fill="none" stroke="black" points="784.5,-89.5 784.5,-141.5 993.5,-141.5 993.5,-89.5 784.5,-89.5"/>
<text text-anchor="start" x="792.5" y="-129.5" font-family="Helvetica,sans-Serif" font-size="10.00">/github/workspace/applications</text>
<text text-anchor="start" x="792.5" y="-118.5" font-family="Helvetica,sans-Serif" font-size="10.00">/incompressible_fluid_application</text>
<text text-anchor="start" x="792.5" y="-107.5" font-family="Helvetica,sans-Serif" font-size="10.00">/custom_strategies/strategies/residualbased</text>
<text text-anchor="middle" x="889" y="-96.5" font-family="Helvetica,sans-Serif" font-size="10.00">_fluid_strategy.h</text>
</a>
</g>
</g>
<!-- Node1&#45;&gt;Node8 -->
<g id="edge8" class="edge">
<title>Node1&#45;&gt;Node8</title>
<path fill="none" stroke="midnightblue" d="M815.99,-172.22C829.16,-162.16 843.58,-151.16 856.1,-141.61"/>
<polygon fill="midnightblue" stroke="midnightblue" points="813.8,-169.49 807.97,-178.34 818.05,-175.05 813.8,-169.49"/>
</g>
<!-- Node10 -->
<g id="node10" class="node">
<title>Node10</title>
<g id="a_node10"><a xlink:href="../../da/d32/residualbased__fluid__strategy__coupled_8h.html" target="_top" xlink:title=" ">
<polygon fill="none" stroke="black" points="1011.5,-89.5 1011.5,-141.5 1220.5,-141.5 1220.5,-89.5 1011.5,-89.5"/>
<text text-anchor="start" x="1019.5" y="-129.5" font-family="Helvetica,sans-Serif" font-size="10.00">/github/workspace/applications</text>
<text text-anchor="start" x="1019.5" y="-118.5" font-family="Helvetica,sans-Serif" font-size="10.00">/incompressible_fluid_application</text>
<text text-anchor="start" x="1019.5" y="-107.5" font-family="Helvetica,sans-Serif" font-size="10.00">/custom_strategies/strategies/residualbased</text>
<text text-anchor="middle" x="1116" y="-96.5" font-family="Helvetica,sans-Serif" font-size="10.00">_fluid_strategy_coupled.h</text>
</a>
</g>
</g>
<!-- Node1&#45;&gt;Node10 -->
<g id="edge10" class="edge">
<title>Node1&#45;&gt;Node10</title>
<path fill="none" stroke="midnightblue" d="M866.92,-180.05C913.62,-168.13 970.38,-153.65 1017.92,-141.52"/>
<polygon fill="midnightblue" stroke="midnightblue" points="865.94,-176.69 857.11,-182.55 867.67,-183.47 865.94,-176.69"/>
</g>
<!-- Node11 -->
<g id="node11" class="node">
<title>Node11</title>
<g id="a_node11"><a xlink:href="../../da/dea/residualbased__lagrangian__monolithic__scheme_8h.html" target="_top" xlink:title=" ">
<polygon fill="none" stroke="black" points="1238.5,-89.5 1238.5,-141.5 1447.5,-141.5 1447.5,-89.5 1238.5,-89.5"/>
<text text-anchor="start" x="1246.5" y="-129.5" font-family="Helvetica,sans-Serif" font-size="10.00">/github/workspace/applications</text>
<text text-anchor="start" x="1246.5" y="-118.5" font-family="Helvetica,sans-Serif" font-size="10.00">/incompressible_fluid_application</text>
<text text-anchor="start" x="1246.5" y="-107.5" font-family="Helvetica,sans-Serif" font-size="10.00">/custom_strategies/strategies/residualbased</text>
<text text-anchor="middle" x="1343" y="-96.5" font-family="Helvetica,sans-Serif" font-size="10.00">_lagrangian_monolithic_scheme.h</text>
</a>
</g>
</g>
<!-- Node1&#45;&gt;Node11 -->
<g id="edge12" class="edge">
<title>Node1&#45;&gt;Node11</title>
<path fill="none" stroke="midnightblue" d="M867.26,-193.43C959.44,-182.81 1105.05,-164.5 1230,-142 1232.77,-141.5 1235.58,-140.98 1238.41,-140.44"/>
<polygon fill="midnightblue" stroke="midnightblue" points="866.66,-189.98 857.12,-194.59 867.46,-196.93 866.66,-189.98"/>
</g>
<!-- Node12 -->
<g id="node12" class="node">
<title>Node12</title>
<g id="a_node12"><a xlink:href="../../de/d5b/residualbased___n_d__fluid__strategy_8h.html" target="_top" xlink:title=" ">
<polygon fill="none" stroke="black" points="1465.5,-89.5 1465.5,-141.5 1674.5,-141.5 1674.5,-89.5 1465.5,-89.5"/>
<text text-anchor="start" x="1473.5" y="-129.5" font-family="Helvetica,sans-Serif" font-size="10.00">/github/workspace/applications</text>
<text text-anchor="start" x="1473.5" y="-118.5" font-family="Helvetica,sans-Serif" font-size="10.00">/incompressible_fluid_application</text>
<text text-anchor="start" x="1473.5" y="-107.5" font-family="Helvetica,sans-Serif" font-size="10.00">/custom_strategies/strategies/residualbased</text>
<text text-anchor="middle" x="1570" y="-96.5" font-family="Helvetica,sans-Serif" font-size="10.00">_ND_fluid_strategy.h</text>
</a>
</g>
</g>
<!-- Node1&#45;&gt;Node12 -->
<g id="edge14" class="edge">
<title>Node1&#45;&gt;Node12</title>
<path fill="none" stroke="midnightblue" d="M867.09,-199.06C998.57,-191.85 1247.4,-174.95 1457,-142 1459.78,-141.56 1462.6,-141.1 1465.43,-140.61"/>
<polygon fill="midnightblue" stroke="midnightblue" points="866.85,-195.57 857.05,-199.61 867.23,-202.56 866.85,-195.57"/>
</g>
<!-- Node4 -->
<g id="node4" class="node">
<title>Node4</title>
<g id="a_node4"><a xlink:href="../../d4/d38/_a_l_eapplication_2custom__python_2add__custom__strategies__to__python_8cpp.html" target="_top" xlink:title=" ">
<polygon fill="none" stroke="black" points="135,-6 135,-47 321,-47 321,-6 135,-6"/>
<text text-anchor="start" x="143" y="-35" font-family="Helvetica,sans-Serif" font-size="10.00">/github/workspace/applications</text>
<text text-anchor="start" x="143" y="-24" font-family="Helvetica,sans-Serif" font-size="10.00">/ALEapplication/custom_python</text>
<text text-anchor="middle" x="228" y="-13" font-family="Helvetica,sans-Serif" font-size="10.00">/add_custom_strategies_to_python.cpp</text>
</a>
</g>
</g>
<!-- Node3&#45;&gt;Node4 -->
<g id="edge3" class="edge">
<title>Node3&#45;&gt;Node4</title>
<path fill="none" stroke="midnightblue" d="M228,-79.16C228,-68.21 228,-56.55 228,-47.08"/>
<polygon fill="midnightblue" stroke="midnightblue" points="224.5,-79.34 228,-89.34 231.5,-79.34 224.5,-79.34"/>
</g>
<!-- Node6 -->
<g id="node6" class="node">
<title>Node6</title>
<g id="a_node6"><a xlink:href="../../de/d74/convection__diffusion__application_2custom__python_2add__custom__strategies__to__python_8cpp.html" target="_top" xlink:title=" ">
<polygon fill="none" stroke="black" points="453,-0.5 453,-52.5 643,-52.5 643,-0.5 453,-0.5"/>
<text text-anchor="start" x="461" y="-40.5" font-family="Helvetica,sans-Serif" font-size="10.00">/github/workspace/applications</text>
<text text-anchor="start" x="461" y="-29.5" font-family="Helvetica,sans-Serif" font-size="10.00">/convection_diffusion_application</text>
<text text-anchor="start" x="461" y="-18.5" font-family="Helvetica,sans-Serif" font-size="10.00">/custom_python/add_custom_strategies</text>
<text text-anchor="middle" x="548" y="-7.5" font-family="Helvetica,sans-Serif" font-size="10.00">_to_python.cpp</text>
</a>
</g>
</g>
<!-- Node5&#45;&gt;Node6 -->
<g id="edge5" class="edge">
<title>Node5&#45;&gt;Node6</title>
<path fill="none" stroke="midnightblue" d="M475.63,-83.22C488.69,-73.16 502.98,-62.16 515.39,-52.61"/>
<polygon fill="midnightblue" stroke="midnightblue" points="473.47,-80.46 467.68,-89.34 477.74,-86.01 473.47,-80.46"/>
</g>
<!-- Node7&#45;&gt;Node6 -->
<g id="edge7" class="edge">
<title>Node7&#45;&gt;Node6</title>
<path fill="none" stroke="midnightblue" d="M621.01,-83.22C607.84,-73.16 593.42,-62.16 580.9,-52.61"/>
<polygon fill="midnightblue" stroke="midnightblue" points="618.95,-86.05 629.03,-89.34 623.2,-80.49 618.95,-86.05"/>
</g>
<!-- Node9 -->
<g id="node9" class="node">
<title>Node9</title>
<g id="a_node9"><a xlink:href="../../dc/dc8/incompressible__fluid__application_2custom__python_2add__custom__strategies__to__python_8cpp.html" target="_top" xlink:title=" ">
<polygon fill="none" stroke="black" points="1134,-0.5 1134,-52.5 1324,-52.5 1324,-0.5 1134,-0.5"/>
<text text-anchor="start" x="1142" y="-40.5" font-family="Helvetica,sans-Serif" font-size="10.00">/github/workspace/applications</text>
<text text-anchor="start" x="1142" y="-29.5" font-family="Helvetica,sans-Serif" font-size="10.00">/incompressible_fluid_application</text>
<text text-anchor="start" x="1142" y="-18.5" font-family="Helvetica,sans-Serif" font-size="10.00">/custom_python/add_custom_strategies</text>
<text text-anchor="middle" x="1229" y="-7.5" font-family="Helvetica,sans-Serif" font-size="10.00">_to_python.cpp</text>
</a>
</g>
</g>
<!-- Node8&#45;&gt;Node9 -->
<g id="edge9" class="edge">
<title>Node8&#45;&gt;Node9</title>
<path fill="none" stroke="midnightblue" d="M996.75,-86.93C1040.76,-75.67 1091.23,-62.75 1133.85,-51.85"/>
<polygon fill="midnightblue" stroke="midnightblue" points="995.71,-83.58 986.89,-89.45 997.44,-90.36 995.71,-83.58"/>
</g>
<!-- Node10&#45;&gt;Node9 -->
<g id="edge11" class="edge">
<title>Node10&#45;&gt;Node9</title>
<path fill="none" stroke="midnightblue" d="M1156.63,-83.22C1169.69,-73.16 1183.98,-62.16 1196.39,-52.61"/>
<polygon fill="midnightblue" stroke="midnightblue" points="1154.47,-80.46 1148.68,-89.34 1158.74,-86.01 1154.47,-80.46"/>
</g>
<!-- Node11&#45;&gt;Node9 -->
<g id="edge13" class="edge">
<title>Node11&#45;&gt;Node9</title>
<path fill="none" stroke="midnightblue" d="M1302.01,-83.22C1288.84,-73.16 1274.42,-62.16 1261.9,-52.61"/>
<polygon fill="midnightblue" stroke="midnightblue" points="1299.95,-86.05 1310.03,-89.34 1304.2,-80.49 1299.95,-86.05"/>
</g>
<!-- Node12&#45;&gt;Node9 -->
<g id="edge15" class="edge">
<title>Node12&#45;&gt;Node9</title>
<path fill="none" stroke="midnightblue" d="M1461.91,-86.92C1417.67,-75.64 1366.94,-62.69 1324.13,-51.77"/>
<polygon fill="midnightblue" stroke="midnightblue" points="1461.27,-90.37 1471.83,-89.45 1463,-83.59 1461.27,-90.37"/>
</g>
</g>
</svg>
