<?xml version="1.0" encoding="UTF-8" standalone="no"?>
<!DOCTYPE svg PUBLIC "-//W3C//DTD SVG 1.1//EN"
 "http://www.w3.org/Graphics/SVG/1.1/DTD/svg11.dtd">
<!-- Generated by graphviz version 2.48.0 (20210719.0153)
 -->
<!-- Title: /github/workspace/kratos/containers/pointer_vector_map.h Pages: 1 -->
<svg width="570pt" height="229pt"
 viewBox="0.00 0.00 570.00 229.00" xmlns="http://www.w3.org/2000/svg" xmlns:xlink="http://www.w3.org/1999/xlink">
<g id="graph0" class="graph" transform="scale(1 1) rotate(0) translate(4 225)">
<title>/github/workspace/kratos/containers/pointer_vector_map.h</title>
<!-- Node1 -->
<g id="node1" class="node">
<title>Node1</title>
<g id="a_node1"><a xlink:title=" ">
<polygon fill="#bfbfbf" stroke="black" points="150.5,-190.5 150.5,-220.5 311.5,-220.5 311.5,-190.5 150.5,-190.5"/>
<text text-anchor="start" x="158.5" y="-208.5" font-family="Helvetica,sans-Serif" font-size="10.00">/github/workspace/kratos</text>
<text text-anchor="middle" x="231" y="-197.5" font-family="Helvetica,sans-Serif" font-size="10.00">/containers/pointer_vector_map.h</text>
</a>
</g>
</g>
<!-- Node2 -->
<g id="node2" class="node">
<title>Node2</title>
<g id="a_node2"><a xlink:title=" ">
<polygon fill="none" stroke="#bfbfbf" points="0,-129 0,-148 44,-148 44,-129 0,-129"/>
<text text-anchor="middle" x="22" y="-136" font-family="Helvetica,sans-Serif" font-size="10.00">vector</text>
</a>
</g>
</g>
<!-- Node1&#45;&gt;Node2 -->
<g id="edge1" class="edge">
<title>Node1&#45;&gt;Node2</title>
<path fill="none" stroke="midnightblue" d="M172.52,-190.45C137.42,-181.39 92.13,-168.59 53,-154 51.57,-153.47 50.12,-152.9 48.66,-152.3"/>
<polygon fill="midnightblue" stroke="midnightblue" points="49.73,-148.95 39.17,-148.13 46.92,-155.36 49.73,-148.95"/>
</g>
<!-- Node3 -->
<g id="node3" class="node">
<title>Node3</title>
<g id="a_node3"><a xlink:title=" ">
<polygon fill="none" stroke="#bfbfbf" points="62.5,-129 62.5,-148 121.5,-148 121.5,-129 62.5,-129"/>
<text text-anchor="middle" x="92" y="-136" font-family="Helvetica,sans-Serif" font-size="10.00">functional</text>
</a>
</g>
</g>
<!-- Node1&#45;&gt;Node3 -->
<g id="edge2" class="edge">
<title>Node1&#45;&gt;Node3</title>
<path fill="none" stroke="midnightblue" d="M200.84,-190.4C176.56,-179.04 142.72,-163.22 119.25,-152.24"/>
<polygon fill="midnightblue" stroke="midnightblue" points="120.73,-149.07 110.19,-148.01 117.77,-155.41 120.73,-149.07"/>
</g>
<!-- Node4 -->
<g id="node4" class="node">
<title>Node4</title>
<g id="a_node4"><a xlink:title=" ">
<polygon fill="none" stroke="#bfbfbf" points="88.5,-62 88.5,-81 129.5,-81 129.5,-62 88.5,-62"/>
<text text-anchor="middle" x="109" y="-69" font-family="Helvetica,sans-Serif" font-size="10.00">string</text>
</a>
</g>
</g>
<!-- Node1&#45;&gt;Node4 -->
<g id="edge3" class="edge">
<title>Node1&#45;&gt;Node4</title>
<path fill="none" stroke="midnightblue" d="M217.94,-190.37C195.09,-165.65 147.99,-114.68 123.9,-88.62"/>
<polygon fill="midnightblue" stroke="midnightblue" points="126.3,-86.07 116.95,-81.1 121.16,-90.82 126.3,-86.07"/>
</g>
<!-- Node5 -->
<g id="node5" class="node">
<title>Node5</title>
<g id="a_node5"><a xlink:title=" ">
<polygon fill="none" stroke="#bfbfbf" points="148,-62 148,-81 202,-81 202,-62 148,-62"/>
<text text-anchor="middle" x="175" y="-69" font-family="Helvetica,sans-Serif" font-size="10.00">iostream</text>
</a>
</g>
</g>
<!-- Node1&#45;&gt;Node5 -->
<g id="edge4" class="edge">
<title>Node1&#45;&gt;Node5</title>
<path fill="none" stroke="midnightblue" d="M224.01,-190.47C219.07,-180.4 212.4,-166.47 207,-154 197.68,-132.49 187.98,-107.32 181.73,-90.7"/>
<polygon fill="midnightblue" stroke="midnightblue" points="184.94,-89.29 178.17,-81.15 178.38,-91.74 184.94,-89.29"/>
</g>
<!-- Node6 -->
<g id="node6" class="node">
<title>Node6</title>
<g id="a_node6"><a xlink:title=" ">
<polygon fill="none" stroke="#bfbfbf" points="510,-0.5 510,-19.5 562,-19.5 562,-0.5 510,-0.5"/>
<text text-anchor="middle" x="536" y="-7.5" font-family="Helvetica,sans-Serif" font-size="10.00">sstream</text>
</a>
</g>
</g>
<!-- Node1&#45;&gt;Node6 -->
<g id="edge5" class="edge">
<title>Node1&#45;&gt;Node6</title>
<path fill="none" stroke="midnightblue" d="M282.04,-190.41C308.67,-181.91 341.19,-169.68 368,-154 430.89,-117.22 493.08,-56.14 520.88,-27.19"/>
<polygon fill="midnightblue" stroke="midnightblue" points="523.73,-29.27 528.08,-19.6 518.66,-24.45 523.73,-29.27"/>
</g>
<!-- Node7 -->
<g id="node7" class="node">
<title>Node7</title>
<g id="a_node7"><a xlink:title=" ">
<polygon fill="none" stroke="#bfbfbf" points="491.5,-129 491.5,-148 540.5,-148 540.5,-129 491.5,-129"/>
<text text-anchor="middle" x="516" y="-136" font-family="Helvetica,sans-Serif" font-size="10.00">cstddef</text>
</a>
</g>
</g>
<!-- Node1&#45;&gt;Node7 -->
<g id="edge6" class="edge">
<title>Node1&#45;&gt;Node7</title>
<path fill="none" stroke="midnightblue" d="M311.52,-191.19C359.93,-182.4 422.52,-169.62 477,-154 479.64,-153.24 482.36,-152.39 485.08,-151.49"/>
<polygon fill="midnightblue" stroke="midnightblue" points="486.47,-154.7 494.74,-148.08 484.15,-148.1 486.47,-154.7"/>
</g>
<!-- Node8 -->
<g id="node8" class="node">
<title>Node8</title>
<g id="a_node8"><a xlink:href="../../df/d67/define_8h.html" target="_top" xlink:title=" ">
<polygon fill="none" stroke="black" points="345.5,-62 345.5,-81 434.5,-81 434.5,-62 345.5,-62"/>
<text text-anchor="middle" x="390" y="-69" font-family="Helvetica,sans-Serif" font-size="10.00">includes/define.h</text>
</a>
</g>
</g>
<!-- Node1&#45;&gt;Node8 -->
<g id="edge7" class="edge">
<title>Node1&#45;&gt;Node8</title>
<path fill="none" stroke="midnightblue" d="M277.14,-190.4C298.34,-182.25 322.76,-170.32 341,-154 360.75,-136.33 374.99,-108.78 382.87,-90.69"/>
<polygon fill="midnightblue" stroke="midnightblue" points="386.18,-91.85 386.77,-81.27 379.71,-89.17 386.18,-91.85"/>
</g>
<!-- Node13 -->
<g id="node13" class="node">
<title>Node13</title>
<g id="a_node13"><a xlink:href="../../d8/d53/pointer__vector__map__iterator_8h.html" target="_top" xlink:title=" ">
<polygon fill="none" stroke="black" points="216,-123.5 216,-153.5 332,-153.5 332,-123.5 216,-123.5"/>
<text text-anchor="start" x="224" y="-141.5" font-family="Helvetica,sans-Serif" font-size="10.00">containers/pointer</text>
<text text-anchor="middle" x="274" y="-130.5" font-family="Helvetica,sans-Serif" font-size="10.00">_vector_map_iterator.h</text>
</a>
</g>
</g>
<!-- Node1&#45;&gt;Node13 -->
<g id="edge13" class="edge">
<title>Node1&#45;&gt;Node13</title>
<path fill="none" stroke="midnightblue" d="M240.33,-190.4C245.8,-182.13 252.83,-171.51 259.05,-162.1"/>
<polygon fill="midnightblue" stroke="midnightblue" points="262.09,-163.85 264.69,-153.58 256.25,-159.99 262.09,-163.85"/>
</g>
<!-- Node8&#45;&gt;Node6 -->
<g id="edge9" class="edge">
<title>Node8&#45;&gt;Node6</title>
<path fill="none" stroke="midnightblue" d="M410.92,-61.98C435.75,-51.86 477.34,-34.9 505.69,-23.35"/>
<polygon fill="midnightblue" stroke="midnightblue" points="507.18,-26.52 515.12,-19.51 504.54,-20.04 507.18,-26.52"/>
</g>
<!-- Node9 -->
<g id="node9" class="node">
<title>Node9</title>
<g id="a_node9"><a xlink:title=" ">
<polygon fill="none" stroke="#bfbfbf" points="311.5,-0.5 311.5,-19.5 370.5,-19.5 370.5,-0.5 311.5,-0.5"/>
<text text-anchor="middle" x="341" y="-7.5" font-family="Helvetica,sans-Serif" font-size="10.00">stdexcept</text>
</a>
</g>
</g>
<!-- Node8&#45;&gt;Node9 -->
<g id="edge8" class="edge">
<title>Node8&#45;&gt;Node9</title>
<path fill="none" stroke="midnightblue" d="M382.98,-61.98C375.56,-52.96 363.67,-38.52 354.43,-27.31"/>
<polygon fill="midnightblue" stroke="midnightblue" points="357.07,-25 348.01,-19.51 351.66,-29.45 357.07,-25"/>
</g>
<!-- Node10 -->
<g id="node10" class="node">
<title>Node10</title>
<g id="a_node10"><a xlink:title=" ">
<polygon fill="none" stroke="#bfbfbf" points="388.5,-0.5 388.5,-19.5 491.5,-19.5 491.5,-0.5 388.5,-0.5"/>
<text text-anchor="middle" x="440" y="-7.5" font-family="Helvetica,sans-Serif" font-size="10.00">boost/smart_ptr.hpp</text>
</a>
</g>
</g>
<!-- Node8&#45;&gt;Node10 -->
<g id="edge10" class="edge">
<title>Node8&#45;&gt;Node10</title>
<path fill="none" stroke="midnightblue" d="M397.16,-61.98C404.74,-52.96 416.87,-38.52 426.29,-27.31"/>
<polygon fill="midnightblue" stroke="midnightblue" points="429.1,-29.42 432.85,-19.51 423.74,-24.91 429.1,-29.42"/>
</g>
<!-- Node11 -->
<g id="node11" class="node">
<title>Node11</title>
<g id="a_node11"><a xlink:title=" ">
<polygon fill="none" stroke="#bfbfbf" points="23.5,-0.5 23.5,-19.5 154.5,-19.5 154.5,-0.5 23.5,-0.5"/>
<text text-anchor="middle" x="89" y="-7.5" font-family="Helvetica,sans-Serif" font-size="10.00">boost/current_function.hpp</text>
</a>
</g>
</g>
<!-- Node8&#45;&gt;Node11 -->
<g id="edge11" class="edge">
<title>Node8&#45;&gt;Node11</title>
<path fill="none" stroke="midnightblue" d="M359.83,-61.93C352.1,-59.86 343.77,-57.75 336,-56 274.33,-42.13 203.28,-29.53 153.25,-21.22"/>
<polygon fill="midnightblue" stroke="midnightblue" points="153.66,-17.74 143.22,-19.56 152.52,-24.65 153.66,-17.74"/>
</g>
<!-- Node12 -->
<g id="node12" class="node">
<title>Node12</title>
<g id="a_node12"><a xlink:href="../../de/d17/kratos__config_8h.html" target="_top" xlink:title=" ">
<polygon fill="none" stroke="black" points="172.5,-0.5 172.5,-19.5 293.5,-19.5 293.5,-0.5 172.5,-0.5"/>
<text text-anchor="middle" x="233" y="-7.5" font-family="Helvetica,sans-Serif" font-size="10.00">includes/kratos_config.h</text>
</a>
</g>
</g>
<!-- Node8&#45;&gt;Node12 -->
<g id="edge12" class="edge">
<title>Node8&#45;&gt;Node12</title>
<path fill="none" stroke="midnightblue" d="M367.51,-61.98C340.69,-51.81 295.68,-34.76 265.19,-23.2"/>
<polygon fill="midnightblue" stroke="midnightblue" points="266.04,-19.78 255.45,-19.51 263.56,-26.33 266.04,-19.78"/>
</g>
<!-- Node13&#45;&gt;Node4 -->
<g id="edge14" class="edge">
<title>Node13&#45;&gt;Node4</title>
<path fill="none" stroke="midnightblue" d="M233.45,-123.43C206.44,-113.8 170.29,-100.38 139,-87 137.8,-86.49 136.59,-85.95 135.36,-85.41"/>
<polygon fill="midnightblue" stroke="midnightblue" points="136.55,-82.1 126.01,-81.06 133.6,-88.45 136.55,-82.1"/>
</g>
<!-- Node13&#45;&gt;Node5 -->
<g id="edge15" class="edge">
<title>Node13&#45;&gt;Node5</title>
<path fill="none" stroke="midnightblue" d="M252.52,-123.4C235.92,-112.5 213.04,-97.48 196.45,-86.58"/>
<polygon fill="midnightblue" stroke="midnightblue" points="198.24,-83.57 187.96,-81.01 194.4,-89.42 198.24,-83.57"/>
</g>
<!-- Node13&#45;&gt;Node8 -->
<g id="edge17" class="edge">
<title>Node13&#45;&gt;Node8</title>
<path fill="none" stroke="midnightblue" d="M299.17,-123.4C318.98,-112.29 346.42,-96.92 365.94,-85.98"/>
<polygon fill="midnightblue" stroke="midnightblue" points="367.81,-88.95 374.82,-81.01 364.38,-82.84 367.81,-88.95"/>
</g>
<!-- Node14 -->
<g id="node14" class="node">
<title>Node14</title>
<g id="a_node14"><a xlink:title=" ">
<polygon fill="none" stroke="#bfbfbf" points="220.5,-56.5 220.5,-86.5 327.5,-86.5 327.5,-56.5 220.5,-56.5"/>
<text text-anchor="start" x="228.5" y="-74.5" font-family="Helvetica,sans-Serif" font-size="10.00">boost/iterator/iterator</text>
<text text-anchor="middle" x="274" y="-63.5" font-family="Helvetica,sans-Serif" font-size="10.00">_adaptor.hpp</text>
</a>
</g>
</g>
<!-- Node13&#45;&gt;Node14 -->
<g id="edge16" class="edge">
<title>Node13&#45;&gt;Node14</title>
<path fill="none" stroke="midnightblue" d="M274,-123.4C274,-115.64 274,-105.81 274,-96.86"/>
<polygon fill="midnightblue" stroke="midnightblue" points="277.5,-96.58 274,-86.58 270.5,-96.58 277.5,-96.58"/>
</g>
</g>
</svg>
