<?xml version="1.0" encoding="UTF-8" standalone="no"?>
<!DOCTYPE svg PUBLIC "-//W3C//DTD SVG 1.1//EN"
 "http://www.w3.org/Graphics/SVG/1.1/DTD/svg11.dtd">
<!-- Generated by graphviz version 2.48.0 (20210719.0153)
 -->
<!-- Title: boost::numeric::ublas::matrix_temporary_traits&lt; banded_adaptor&lt; M &gt; &gt; Pages: 1 -->
<svg width="155pt" height="193pt"
 viewBox="0.00 0.00 155.00 193.00" xmlns="http://www.w3.org/2000/svg" xmlns:xlink="http://www.w3.org/1999/xlink">
<g id="graph0" class="graph" transform="scale(1 1) rotate(0) translate(4 189)">
<title>boost::numeric::ublas::matrix_temporary_traits&lt; banded_adaptor&lt; M &gt; &gt;</title>
<!-- Node1 -->
<g id="node1" class="node">
<title>Node1</title>
<g id="a_node1"><a xlink:title=" ">
<polygon fill="#bfbfbf" stroke="black" points="10,-0.5 10,-79.5 137,-79.5 137,-0.5 10,-0.5"/>
<text text-anchor="start" x="18" y="-67.5" font-family="Helvetica,sans-Serif" font-size="10.00">boost::numeric::ublas</text>
<text text-anchor="start" x="18" y="-56.5" font-family="Helvetica,sans-Serif" font-size="10.00">::matrix_temporary_traits</text>
<text text-anchor="middle" x="73.5" y="-45.5" font-family="Helvetica,sans-Serif" font-size="10.00">&lt; banded_adaptor&lt; M &gt; &gt;</text>
<polyline fill="none" stroke="black" points="10,-38.5 137,-38.5 "/>
<text text-anchor="middle" x="73.5" y="-26.5" font-family="Helvetica,sans-Serif" font-size="10.00"> </text>
<polyline fill="none" stroke="black" points="10,-19.5 137,-19.5 "/>
<text text-anchor="middle" x="73.5" y="-7.5" font-family="Helvetica,sans-Serif" font-size="10.00"> </text>
</a>
</g>
</g>
<!-- Node2 -->
<g id="node2" class="node">
<title>Node2</title>
<g id="a_node2"><a xlink:href="../../db/d53/structboost_1_1numeric_1_1ublas_1_1matrix__temporary__traits.html" target="_top" xlink:title="For the creation of temporary vectors in the assignment of proxies.">
<polygon fill="none" stroke="black" points="0,-116.5 0,-184.5 147,-184.5 147,-116.5 0,-116.5"/>
<text text-anchor="start" x="8" y="-172.5" font-family="Helvetica,sans-Serif" font-size="10.00">boost::numeric::ublas</text>
<text text-anchor="middle" x="73.5" y="-161.5" font-family="Helvetica,sans-Serif" font-size="10.00">::matrix_temporary_traits&lt; M &gt;</text>
<polyline fill="none" stroke="black" points="0,-154.5 147,-154.5 "/>
<text text-anchor="middle" x="73.5" y="-142.5" font-family="Helvetica,sans-Serif" font-size="10.00"> </text>
<polyline fill="none" stroke="black" points="0,-135.5 147,-135.5 "/>
<text text-anchor="middle" x="73.5" y="-123.5" font-family="Helvetica,sans-Serif" font-size="10.00"> </text>
</a>
</g>
</g>
<!-- Node2&#45;&gt;Node1 -->
<g id="edge1" class="edge">
<title>Node2&#45;&gt;Node1</title>
<path fill="none" stroke="midnightblue" d="M66.88,-106.27C66.67,-97.48 66.72,-88.28 67,-79.65"/>
<polygon fill="none" stroke="midnightblue" points="63.38,-106.48 67.23,-116.36 70.38,-106.24 63.38,-106.48"/>
</g>
<!-- Node2&#45;&gt;Node1 -->
<g id="edge2" class="edge">
<title>Node2&#45;&gt;Node1</title>
<path fill="none" stroke="midnightblue" d="M80.12,-106.27C80.33,-97.48 80.28,-88.28 80,-79.65"/>
<polygon fill="none" stroke="midnightblue" points="76.62,-106.24 79.77,-116.36 83.62,-106.48 76.62,-106.24"/>
</g>
</g>
</svg>
