<?xml version="1.0" encoding="UTF-8" standalone="no"?>
<!DOCTYPE svg PUBLIC "-//W3C//DTD SVG 1.1//EN"
 "http://www.w3.org/Graphics/SVG/1.1/DTD/svg11.dtd">
<!-- Generated by graphviz version 2.48.0 (20210719.0153)
 -->
<!-- Title: /github/workspace/kratos/spaces/parallel_ublas_space.h Pages: 1 -->
<svg width="336pt" height="139pt"
 viewBox="0.00 0.00 336.00 139.00" xmlns="http://www.w3.org/2000/svg" xmlns:xlink="http://www.w3.org/1999/xlink">
<g id="graph0" class="graph" transform="scale(1 1) rotate(0) translate(4 135)">
<title>/github/workspace/kratos/spaces/parallel_ublas_space.h</title>
<!-- Node1 -->
<g id="node1" class="node">
<title>Node1</title>
<g id="a_node1"><a xlink:title=" ">
<polygon fill="#bfbfbf" stroke="black" points="102.5,-89.5 102.5,-130.5 228.5,-130.5 228.5,-89.5 102.5,-89.5"/>
<text text-anchor="start" x="110.5" y="-118.5" font-family="Helvetica,sans-Serif" font-size="10.00">/github/workspace/kratos</text>
<text text-anchor="start" x="110.5" y="-107.5" font-family="Helvetica,sans-Serif" font-size="10.00">/spaces/parallel_ublas</text>
<text text-anchor="middle" x="165.5" y="-96.5" font-family="Helvetica,sans-Serif" font-size="10.00">_space.h</text>
</a>
</g>
</g>
<!-- Node2 -->
<g id="node2" class="node">
<title>Node2</title>
<g id="a_node2"><a xlink:href="../../d3/da7/applications_2mkl__solvers__application_2custom__python_2add__linear__solvers__to__python_8cpp.html" target="_top" xlink:title=" ">
<polygon fill="none" stroke="black" points="0,-0.5 0,-52.5 159,-52.5 159,-0.5 0,-0.5"/>
<text text-anchor="start" x="8" y="-40.5" font-family="Helvetica,sans-Serif" font-size="10.00">/github/workspace/applications</text>
<text text-anchor="start" x="8" y="-29.5" font-family="Helvetica,sans-Serif" font-size="10.00">/mkl_solvers_application/custom</text>
<text text-anchor="start" x="8" y="-18.5" font-family="Helvetica,sans-Serif" font-size="10.00">_python/add_linear_solvers_to</text>
<text text-anchor="middle" x="79.5" y="-7.5" font-family="Helvetica,sans-Serif" font-size="10.00">_python.cpp</text>
</a>
</g>
</g>
<!-- Node1&#45;&gt;Node2 -->
<g id="edge1" class="edge">
<title>Node1&#45;&gt;Node2</title>
<path fill="none" stroke="midnightblue" d="M137.27,-82.24C127.2,-72.71 115.91,-62 105.99,-52.61"/>
<polygon fill="midnightblue" stroke="midnightblue" points="135.02,-84.93 144.68,-89.27 139.83,-79.85 135.02,-84.93"/>
</g>
<!-- Node3 -->
<g id="node3" class="node">
<title>Node3</title>
<g id="a_node3"><a xlink:href="../../d5/df9/parallel__variable__transfer__utility_8h.html" target="_top" xlink:title=" ">
<polygon fill="none" stroke="black" points="177,-0.5 177,-52.5 328,-52.5 328,-0.5 177,-0.5"/>
<text text-anchor="start" x="185" y="-40.5" font-family="Helvetica,sans-Serif" font-size="10.00">/github/workspace/applications</text>
<text text-anchor="start" x="185" y="-29.5" font-family="Helvetica,sans-Serif" font-size="10.00">/structural_application/custom</text>
<text text-anchor="start" x="185" y="-18.5" font-family="Helvetica,sans-Serif" font-size="10.00">_utilities/parallel_variable</text>
<text text-anchor="middle" x="252.5" y="-7.5" font-family="Helvetica,sans-Serif" font-size="10.00">_transfer_utility.h</text>
</a>
</g>
</g>
<!-- Node1&#45;&gt;Node3 -->
<g id="edge2" class="edge">
<title>Node1&#45;&gt;Node3</title>
<path fill="none" stroke="midnightblue" d="M194.06,-82.24C204.24,-72.71 215.67,-62 225.7,-52.61"/>
<polygon fill="midnightblue" stroke="midnightblue" points="191.47,-79.88 186.56,-89.27 196.25,-84.99 191.47,-79.88"/>
</g>
</g>
</svg>
