<?xml version="1.0" encoding="UTF-8" standalone="no"?>
<!DOCTYPE svg PUBLIC "-//W3C//DTD SVG 1.1//EN"
 "http://www.w3.org/Graphics/SVG/1.1/DTD/svg11.dtd">
<!-- Generated by graphviz version 2.48.0 (20210719.0153)
 -->
<!-- Title: Kratos::array_1d&lt; T, N &gt;::const_iterator Pages: 1 -->
<svg width="324pt" height="584pt"
 viewBox="0.00 0.00 324.00 584.00" xmlns="http://www.w3.org/2000/svg" xmlns:xlink="http://www.w3.org/1999/xlink">
<g id="graph0" class="graph" transform="scale(1 1) rotate(0) translate(4 580)">
<title>Kratos::array_1d&lt; T, N &gt;::const_iterator</title>
<!-- Node1 -->
<g id="node1" class="node">
<title>Node1</title>
<g id="a_node1"><a xlink:title=" ">
<polygon fill="#bfbfbf" stroke="black" points="104,-0.5 104,-200.5 208,-200.5 208,-0.5 104,-0.5"/>
<text text-anchor="start" x="112" y="-188.5" font-family="Helvetica,sans-Serif" font-size="10.00">Kratos::array_1d&lt; T,</text>
<text text-anchor="middle" x="156" y="-177.5" font-family="Helvetica,sans-Serif" font-size="10.00"> N &gt;::const_iterator</text>
<polyline fill="none" stroke="black" points="104,-170.5 208,-170.5 "/>
<text text-anchor="middle" x="156" y="-158.5" font-family="Helvetica,sans-Serif" font-size="10.00"> </text>
<polyline fill="none" stroke="black" points="104,-151.5 208,-151.5 "/>
<text text-anchor="start" x="112" y="-139.5" font-family="Helvetica,sans-Serif" font-size="10.00">+ const_iterator()</text>
<text text-anchor="start" x="112" y="-128.5" font-family="Helvetica,sans-Serif" font-size="10.00">+ const_iterator()</text>
<text text-anchor="start" x="112" y="-117.5" font-family="Helvetica,sans-Serif" font-size="10.00">+ const_iterator()</text>
<text text-anchor="start" x="112" y="-106.5" font-family="Helvetica,sans-Serif" font-size="10.00">+ operator++()</text>
<text text-anchor="start" x="112" y="-95.5" font-family="Helvetica,sans-Serif" font-size="10.00">+ operator&#45;&#45;()</text>
<text text-anchor="start" x="112" y="-84.5" font-family="Helvetica,sans-Serif" font-size="10.00">+ operator+=()</text>
<text text-anchor="start" x="112" y="-73.5" font-family="Helvetica,sans-Serif" font-size="10.00">+ operator&#45;=()</text>
<text text-anchor="start" x="112" y="-62.5" font-family="Helvetica,sans-Serif" font-size="10.00">+ operator&#45;()</text>
<text text-anchor="start" x="112" y="-51.5" font-family="Helvetica,sans-Serif" font-size="10.00">+ operator*()</text>
<text text-anchor="start" x="112" y="-40.5" font-family="Helvetica,sans-Serif" font-size="10.00">+ index()</text>
<text text-anchor="start" x="112" y="-29.5" font-family="Helvetica,sans-Serif" font-size="10.00">+ operator=()</text>
<text text-anchor="start" x="112" y="-18.5" font-family="Helvetica,sans-Serif" font-size="10.00">+ operator==()</text>
<text text-anchor="start" x="112" y="-7.5" font-family="Helvetica,sans-Serif" font-size="10.00">+ operator&lt;()</text>
</a>
</g>
</g>
<!-- Node2 -->
<g id="node2" class="node">
<title>Node2</title>
<g id="a_node2"><a xlink:href="../../dc/d2f/classboost_1_1numeric_1_1ublas_1_1container__const__reference.html" target="_top" xlink:title=" ">
<polygon fill="none" stroke="black" points="0,-254 0,-432 146,-432 146,-254 0,-254"/>
<text text-anchor="start" x="8" y="-420" font-family="Helvetica,sans-Serif" font-size="10.00">boost::numeric::ublas</text>
<text text-anchor="start" x="8" y="-409" font-family="Helvetica,sans-Serif" font-size="10.00">::container_const_reference</text>
<text text-anchor="middle" x="73" y="-398" font-family="Helvetica,sans-Serif" font-size="10.00">&lt; array_1d &gt;</text>
<polyline fill="none" stroke="black" points="0,-391 146,-391 "/>
<text text-anchor="middle" x="73" y="-379" font-family="Helvetica,sans-Serif" font-size="10.00"> </text>
<polyline fill="none" stroke="black" points="0,-372 146,-372 "/>
<text text-anchor="start" x="8" y="-360" font-family="Helvetica,sans-Serif" font-size="10.00">+ container_const_reference()</text>
<text text-anchor="start" x="8" y="-349" font-family="Helvetica,sans-Serif" font-size="10.00">+ container_const_reference()</text>
<text text-anchor="start" x="8" y="-338" font-family="Helvetica,sans-Serif" font-size="10.00">+ container_const_reference()</text>
<text text-anchor="start" x="8" y="-327" font-family="Helvetica,sans-Serif" font-size="10.00">+ container_const_reference()</text>
<text text-anchor="start" x="8" y="-316" font-family="Helvetica,sans-Serif" font-size="10.00">+ operator()()</text>
<text text-anchor="start" x="8" y="-305" font-family="Helvetica,sans-Serif" font-size="10.00">+ operator()()</text>
<text text-anchor="start" x="8" y="-294" font-family="Helvetica,sans-Serif" font-size="10.00">+ assign()</text>
<text text-anchor="start" x="8" y="-283" font-family="Helvetica,sans-Serif" font-size="10.00">+ assign()</text>
<text text-anchor="start" x="8" y="-272" font-family="Helvetica,sans-Serif" font-size="10.00">+ same_closure()</text>
<text text-anchor="start" x="8" y="-261" font-family="Helvetica,sans-Serif" font-size="10.00">+ same_closure()</text>
</a>
</g>
</g>
<!-- Node2&#45;&gt;Node1 -->
<g id="edge1" class="edge">
<title>Node2&#45;&gt;Node1</title>
<path fill="none" stroke="midnightblue" d="M106.82,-243.99C111.76,-229.7 116.84,-214.97 121.78,-200.65"/>
<polygon fill="none" stroke="midnightblue" points="103.39,-243.22 103.43,-253.81 110.01,-245.5 103.39,-243.22"/>
</g>
<!-- Node3 -->
<g id="node3" class="node">
<title>Node3</title>
<g id="a_node3"><a xlink:href="../../d2/dbf/classboost_1_1numeric_1_1ublas_1_1nonassignable___1_1nonassignable.html" target="_top" xlink:title=" ">
<polygon fill="none" stroke="black" points="24,-485.5 24,-575.5 122,-575.5 122,-485.5 24,-485.5"/>
<text text-anchor="middle" x="73" y="-563.5" font-family="Helvetica,sans-Serif" font-size="10.00">nonassignable</text>
<polyline fill="none" stroke="black" points="24,-556.5 122,-556.5 "/>
<text text-anchor="middle" x="73" y="-544.5" font-family="Helvetica,sans-Serif" font-size="10.00"> </text>
<polyline fill="none" stroke="black" points="24,-537.5 122,-537.5 "/>
<text text-anchor="start" x="32" y="-525.5" font-family="Helvetica,sans-Serif" font-size="10.00"># nonassignable()</text>
<text text-anchor="start" x="32" y="-514.5" font-family="Helvetica,sans-Serif" font-size="10.00"># ~nonassignable()</text>
<text text-anchor="start" x="32" y="-503.5" font-family="Helvetica,sans-Serif" font-size="10.00"># nonassignable()</text>
<text text-anchor="start" x="32" y="-492.5" font-family="Helvetica,sans-Serif" font-size="10.00"># ~nonassignable()</text>
</a>
</g>
</g>
<!-- Node3&#45;&gt;Node2 -->
<g id="edge2" class="edge">
<title>Node3&#45;&gt;Node2</title>
<path fill="none" stroke="#8b1a1a" d="M66.79,-475.03C66.39,-461.54 66.21,-446.74 66.26,-432.1"/>
<polygon fill="none" stroke="#8b1a1a" points="63.29,-475.2 67.14,-485.07 70.29,-474.95 63.29,-475.2"/>
</g>
<!-- Node3&#45;&gt;Node2 -->
<g id="edge3" class="edge">
<title>Node3&#45;&gt;Node2</title>
<path fill="none" stroke="#8b1a1a" d="M79.21,-475.03C79.61,-461.54 79.79,-446.74 79.74,-432.1"/>
<polygon fill="none" stroke="#8b1a1a" points="75.71,-474.95 78.86,-485.07 82.71,-475.2 75.71,-474.95"/>
</g>
<!-- Node4 -->
<g id="node4" class="node">
<title>Node4</title>
<g id="a_node4"><a xlink:href="../../df/d38/structboost_1_1numeric_1_1ublas_1_1random__access__iterator__base.html" target="_top" xlink:title=" ">
<polygon fill="none" stroke="black" points="164,-237.5 164,-448.5 316,-448.5 316,-237.5 164,-237.5"/>
<text text-anchor="start" x="172" y="-436.5" font-family="Helvetica,sans-Serif" font-size="10.00">boost::numeric::ublas</text>
<text text-anchor="start" x="172" y="-425.5" font-family="Helvetica,sans-Serif" font-size="10.00">::random_access_iterator</text>
<text text-anchor="start" x="172" y="-414.5" font-family="Helvetica,sans-Serif" font-size="10.00">_base&lt; dense_random_access</text>
<text text-anchor="start" x="172" y="-403.5" font-family="Helvetica,sans-Serif" font-size="10.00">_iterator_tag, const_iterator,</text>
<text text-anchor="middle" x="240" y="-392.5" font-family="Helvetica,sans-Serif" font-size="10.00"> value_type, difference_type &gt;</text>
<polyline fill="none" stroke="black" points="164,-385.5 316,-385.5 "/>
<text text-anchor="middle" x="240" y="-373.5" font-family="Helvetica,sans-Serif" font-size="10.00"> </text>
<polyline fill="none" stroke="black" points="164,-366.5 316,-366.5 "/>
<text text-anchor="start" x="172" y="-354.5" font-family="Helvetica,sans-Serif" font-size="10.00">+ operator++()</text>
<text text-anchor="start" x="172" y="-343.5" font-family="Helvetica,sans-Serif" font-size="10.00">+ operator++()</text>
<text text-anchor="start" x="172" y="-332.5" font-family="Helvetica,sans-Serif" font-size="10.00">+ operator&#45;&#45;()</text>
<text text-anchor="start" x="172" y="-321.5" font-family="Helvetica,sans-Serif" font-size="10.00">+ operator&#45;&#45;()</text>
<text text-anchor="start" x="172" y="-310.5" font-family="Helvetica,sans-Serif" font-size="10.00">+ operator+()</text>
<text text-anchor="start" x="172" y="-299.5" font-family="Helvetica,sans-Serif" font-size="10.00">+ operator+()</text>
<text text-anchor="start" x="172" y="-288.5" font-family="Helvetica,sans-Serif" font-size="10.00">+ operator&#45;()</text>
<text text-anchor="start" x="172" y="-277.5" font-family="Helvetica,sans-Serif" font-size="10.00">+ operator&#45;()</text>
<text text-anchor="start" x="172" y="-266.5" font-family="Helvetica,sans-Serif" font-size="10.00">+ operator!=()</text>
<text text-anchor="start" x="172" y="-255.5" font-family="Helvetica,sans-Serif" font-size="10.00">+ operator!=()</text>
<text text-anchor="start" x="172" y="-244.5" font-family="Helvetica,sans-Serif" font-size="10.00">and 6 more...</text>
</a>
</g>
</g>
<!-- Node4&#45;&gt;Node1 -->
<g id="edge4" class="edge">
<title>Node4&#45;&gt;Node1</title>
<path fill="none" stroke="midnightblue" d="M200.01,-227.49C196.87,-218.51 193.72,-209.49 190.62,-200.62"/>
<polygon fill="none" stroke="midnightblue" points="196.8,-228.93 203.4,-237.21 203.41,-226.62 196.8,-228.93"/>
</g>
<!-- Node5 -->
<g id="node5" class="node">
<title>Node5</title>
<g id="a_node5"><a xlink:title=" ">
<polygon fill="none" stroke="#bfbfbf" points="177,-491 177,-570 303,-570 303,-491 177,-491"/>
<text text-anchor="start" x="185" y="-558" font-family="Helvetica,sans-Serif" font-size="10.00">std::iterator&lt; dense</text>
<text text-anchor="start" x="185" y="-547" font-family="Helvetica,sans-Serif" font-size="10.00">_random_access_iterator</text>
<text text-anchor="middle" x="240" y="-536" font-family="Helvetica,sans-Serif" font-size="10.00">_tag, value_type &gt;</text>
<polyline fill="none" stroke="#bfbfbf" points="177,-529 303,-529 "/>
<text text-anchor="middle" x="240" y="-517" font-family="Helvetica,sans-Serif" font-size="10.00"> </text>
<polyline fill="none" stroke="#bfbfbf" points="177,-510 303,-510 "/>
<text text-anchor="middle" x="240" y="-498" font-family="Helvetica,sans-Serif" font-size="10.00"> </text>
</a>
</g>
</g>
<!-- Node5&#45;&gt;Node4 -->
<g id="edge5" class="edge">
<title>Node5&#45;&gt;Node4</title>
<path fill="none" stroke="midnightblue" d="M233.97,-480.54C233.61,-470.55 233.39,-459.67 233.3,-448.57"/>
<polygon fill="none" stroke="midnightblue" points="230.48,-480.77 234.39,-490.61 237.47,-480.48 230.48,-480.77"/>
</g>
<!-- Node5&#45;&gt;Node4 -->
<g id="edge6" class="edge">
<title>Node5&#45;&gt;Node4</title>
<path fill="none" stroke="midnightblue" d="M246.03,-480.54C246.39,-470.55 246.61,-459.67 246.7,-448.57"/>
<polygon fill="none" stroke="midnightblue" points="242.53,-480.48 245.61,-490.61 249.52,-480.77 242.53,-480.48"/>
</g>
</g>
</svg>
