<?xml version="1.0" encoding="UTF-8" standalone="no"?>
<!DOCTYPE svg PUBLIC "-//W3C//DTD SVG 1.1//EN"
 "http://www.w3.org/Graphics/SVG/1.1/DTD/svg11.dtd">
<!-- Generated by graphviz version 2.48.0 (20210719.0153)
 -->
<!-- Title: /github/workspace/kratos/python/add_parallel_strategies_to_python.h Pages: 1 -->
<svg width="308pt" height="128pt"
 viewBox="0.00 0.00 307.50 128.00" xmlns="http://www.w3.org/2000/svg" xmlns:xlink="http://www.w3.org/1999/xlink">
<g id="graph0" class="graph" transform="scale(1 1) rotate(0) translate(4 124)">
<title>/github/workspace/kratos/python/add_parallel_strategies_to_python.h</title>
<!-- Node1 -->
<g id="node1" class="node">
<title>Node1</title>
<g id="a_node1"><a xlink:title=" ">
<polygon fill="#bfbfbf" stroke="black" points="79,-78.5 79,-119.5 230,-119.5 230,-78.5 79,-78.5"/>
<text text-anchor="start" x="87" y="-107.5" font-family="Helvetica,sans-Serif" font-size="10.00">/github/workspace/kratos</text>
<text text-anchor="start" x="87" y="-96.5" font-family="Helvetica,sans-Serif" font-size="10.00">/python/add_parallel_strategies</text>
<text text-anchor="middle" x="154.5" y="-85.5" font-family="Helvetica,sans-Serif" font-size="10.00">_to_python.h</text>
</a>
</g>
</g>
<!-- Node2 -->
<g id="node2" class="node">
<title>Node2</title>
<g id="a_node2"><a xlink:href="../../d3/d35/add__parallel__strategies__to__python_8cpp.html" target="_top" xlink:title=" ">
<polygon fill="none" stroke="black" points="0,-0.5 0,-41.5 151,-41.5 151,-0.5 0,-0.5"/>
<text text-anchor="start" x="8" y="-29.5" font-family="Helvetica,sans-Serif" font-size="10.00">/github/workspace/kratos</text>
<text text-anchor="start" x="8" y="-18.5" font-family="Helvetica,sans-Serif" font-size="10.00">/python/add_parallel_strategies</text>
<text text-anchor="middle" x="75.5" y="-7.5" font-family="Helvetica,sans-Serif" font-size="10.00">_to_python.cpp</text>
</a>
</g>
</g>
<!-- Node1&#45;&gt;Node2 -->
<g id="edge1" class="edge">
<title>Node1&#45;&gt;Node2</title>
<path fill="none" stroke="midnightblue" d="M126.95,-71.49C116.69,-61.63 105.26,-50.63 95.78,-41.51"/>
<polygon fill="midnightblue" stroke="midnightblue" points="124.52,-74.02 134.16,-78.43 129.38,-68.97 124.52,-74.02"/>
</g>
<!-- Node3 -->
<g id="node3" class="node">
<title>Node3</title>
<g id="a_node3"><a xlink:href="../../d6/dc7/kratos__python_8cpp.html" target="_top" xlink:title=" ">
<polygon fill="none" stroke="black" points="169.5,-6 169.5,-36 299.5,-36 299.5,-6 169.5,-6"/>
<text text-anchor="start" x="177.5" y="-24" font-family="Helvetica,sans-Serif" font-size="10.00">/github/workspace/kratos</text>
<text text-anchor="middle" x="234.5" y="-13" font-family="Helvetica,sans-Serif" font-size="10.00">/python/kratos_python.cpp</text>
</a>
</g>
</g>
<!-- Node1&#45;&gt;Node3 -->
<g id="edge2" class="edge">
<title>Node1&#45;&gt;Node3</title>
<path fill="none" stroke="midnightblue" d="M182.58,-71.32C195.02,-59.51 209.15,-46.08 219.53,-36.23"/>
<polygon fill="midnightblue" stroke="midnightblue" points="179.94,-69 175.1,-78.43 184.76,-74.08 179.94,-69"/>
</g>
</g>
</svg>
