<?xml version="1.0" encoding="UTF-8" standalone="no"?>
<!DOCTYPE svg PUBLIC "-//W3C//DTD SVG 1.1//EN"
 "http://www.w3.org/Graphics/SVG/1.1/DTD/svg11.dtd">
<!-- Generated by graphviz version 2.48.0 (20210719.0153)
 -->
<!-- Title: boost::numeric::ublas::vector_temporary_traits&lt; M &gt; Pages: 1 -->
<!--zoomable 204 -->
<svg id="main" version="1.1" xmlns="http://www.w3.org/2000/svg" xmlns:xlink="http://www.w3.org/1999/xlink" xml:space="preserve" onload="init(evt)">
<style type="text/css"><![CDATA[
.edge:hover path { stroke: red; }
.edge:hover polygon { stroke: red; fill: red; }
]]></style>
<script type="text/javascript"><![CDATA[
var edges = document.getElementsByTagName('g');
if (edges && edges.length) {
  for (var i=0;i<edges.length;i++) {
    if (edges[i].id.substr(0,4)=='edge') {
      edges[i].setAttribute('class','edge');
    }
  }
}
]]></script>
        <defs>
                <circle id="rim" cx="0" cy="0" r="7"/>
                <circle id="rim2" cx="0" cy="0" r="3.5"/>
                <g id="zoomPlus">
                        <use xlink:href="#rim" fill="#404040">
                                <set attributeName="fill" to="#808080" begin="zoomplus.mouseover" end="zoomplus.mouseout"/>
                        </use>
                        <path d="M-4,0h8M0,-4v8" fill="none" stroke="white" stroke-width="1.5" pointer-events="none"/>
                </g>
                <g id="zoomMin">
                        <use xlink:href="#rim" fill="#404040">
                                <set attributeName="fill" to="#808080" begin="zoomminus.mouseover" end="zoomminus.mouseout"/>
                        </use>
                        <path d="M-4,0h8" fill="none" stroke="white" stroke-width="1.5" pointer-events="none"/>
                </g>
                <g id="dirArrow">
                        <path fill="none" stroke="white" stroke-width="1.5" d="M0,-3.0v7 M-2.5,-0.5L0,-3.0L2.5,-0.5"/>
                </g>
               <g id="resetDef">
                       <use xlink:href="#rim2" fill="#404040">
                               <set attributeName="fill" to="#808080" begin="reset.mouseover" end="reset.mouseout"/>
                       </use>
               </g>
        </defs>

<script type="text/javascript">
var viewWidth = 1592;
var viewHeight = 204;
var sectionId = 'dynsection-0';
</script>
<script xlink:href="../../svgpan.js"/>
<svg id="graph" class="graph">
<g id="viewport">
<title>boost::numeric::ublas::vector_temporary_traits&lt; M &gt;</title>
<!-- Node1 -->
<g id="node1" class="node">
<title>Node1</title>
<g id="a_node1"><a xlink:title="For the creation of temporary vectors in the assignment of proxies.">
<polygon fill="#bfbfbf" stroke="black" points="696.5,-127.5 696.5,-195.5 844.5,-195.5 844.5,-127.5 696.5,-127.5"/>
<text text-anchor="start" x="704.5" y="-183.5" font-family="Helvetica,sans-Serif" font-size="10.00">boost::numeric::ublas</text>
<text text-anchor="middle" x="770.5" y="-172.5" font-family="Helvetica,sans-Serif" font-size="10.00">::vector_temporary_traits&lt; M &gt;</text>
<polyline fill="none" stroke="black" points="696.5,-165.5 844.5,-165.5 "/>
<text text-anchor="middle" x="770.5" y="-153.5" font-family="Helvetica,sans-Serif" font-size="10.00"> </text>
<polyline fill="none" stroke="black" points="696.5,-146.5 844.5,-146.5 "/>
<text text-anchor="middle" x="770.5" y="-134.5" font-family="Helvetica,sans-Serif" font-size="10.00"> </text>
</a>
</g>
</g>
<!-- Node2 -->
<g id="node2" class="node">
<title>Node2</title>
<g id="a_node2"><a xlink:href="../../df/d51/structboost_1_1numeric_1_1ublas_1_1vector__temporary__traits_3_01banded__adaptor_3_01_m_01_4_01_4.html" target="_top" xlink:title=" ">
<polygon fill="none" stroke="black" points="0,-6 0,-85 127,-85 127,-6 0,-6"/>
<text text-anchor="start" x="8" y="-73" font-family="Helvetica,sans-Serif" font-size="10.00">boost::numeric::ublas</text>
<text text-anchor="start" x="8" y="-62" font-family="Helvetica,sans-Serif" font-size="10.00">::vector_temporary_traits</text>
<text text-anchor="middle" x="63.5" y="-51" font-family="Helvetica,sans-Serif" font-size="10.00">&lt; banded_adaptor&lt; M &gt; &gt;</text>
<polyline fill="none" stroke="black" points="0,-44 127,-44 "/>
<text text-anchor="middle" x="63.5" y="-32" font-family="Helvetica,sans-Serif" font-size="10.00"> </text>
<polyline fill="none" stroke="black" points="0,-25 127,-25 "/>
<text text-anchor="middle" x="63.5" y="-13" font-family="Helvetica,sans-Serif" font-size="10.00"> </text>
</a>
</g>
</g>
<!-- Node1&#45;&gt;Node2 -->
<g id="edge1" class="edge">
<title>Node1&#45;&gt;Node2</title>
<path fill="none" stroke="midnightblue" d="M686.31,-156.21C535.87,-147.54 227.48,-125.73 126.5,-91 121.78,-89.37 117.04,-87.4 112.39,-85.19"/>
<polygon fill="none" stroke="midnightblue" points="686.24,-159.71 696.42,-156.79 686.64,-152.73 686.24,-159.71"/>
</g>
<!-- Node1&#45;&gt;Node2 -->
<g id="edge2" class="edge">
<title>Node1&#45;&gt;Node2</title>
<path fill="none" stroke="midnightblue" d="M686.17,-155.57C539.29,-146.49 243.07,-124.91 144.5,-91 138.66,-88.99 132.8,-86.45 127.05,-83.59"/>
<polygon fill="none" stroke="midnightblue" points="686.28,-159.08 696.48,-156.2 686.71,-152.1 686.28,-159.08"/>
</g>
<!-- Node3 -->
<g id="node3" class="node">
<title>Node3</title>
<g id="a_node3"><a xlink:href="../../da/dc5/structboost_1_1numeric_1_1ublas_1_1vector__temporary__traits_3_01hermitian__adaptor_3_01_m_00_01_t_r_i_01_4_01_4.html" target="_top" xlink:title=" ">
<polygon fill="none" stroke="black" points="145,-0.5 145,-90.5 268,-90.5 268,-0.5 145,-0.5"/>
<text text-anchor="start" x="153" y="-78.5" font-family="Helvetica,sans-Serif" font-size="10.00">boost::numeric::ublas</text>
<text text-anchor="start" x="153" y="-67.5" font-family="Helvetica,sans-Serif" font-size="10.00">::vector_temporary_traits</text>
<text text-anchor="start" x="153" y="-56.5" font-family="Helvetica,sans-Serif" font-size="10.00">&lt; hermitian_adaptor&lt; M,</text>
<text text-anchor="middle" x="206.5" y="-45.5" font-family="Helvetica,sans-Serif" font-size="10.00"> TRI &gt; &gt;</text>
<polyline fill="none" stroke="black" points="145,-38.5 268,-38.5 "/>
<text text-anchor="middle" x="206.5" y="-26.5" font-family="Helvetica,sans-Serif" font-size="10.00"> </text>
<polyline fill="none" stroke="black" points="145,-19.5 268,-19.5 "/>
<text text-anchor="middle" x="206.5" y="-7.5" font-family="Helvetica,sans-Serif" font-size="10.00"> </text>
</a>
</g>
</g>
<!-- Node1&#45;&gt;Node3 -->
<g id="edge3" class="edge">
<title>Node1&#45;&gt;Node3</title>
<path fill="none" stroke="midnightblue" d="M686.17,-159.65C583.89,-156.3 407.94,-142.75 267.5,-91 267.09,-90.85 266.69,-90.7 266.28,-90.54"/>
<polygon fill="none" stroke="midnightblue" points="686.35,-163.15 696.45,-159.96 686.56,-156.16 686.35,-163.15"/>
</g>
<!-- Node1&#45;&gt;Node3 -->
<g id="edge4" class="edge">
<title>Node1&#45;&gt;Node3</title>
<path fill="none" stroke="midnightblue" d="M686.18,-159.17C587.34,-155.11 420.11,-140.6 285.5,-91 279.69,-88.86 273.86,-86.18 268.13,-83.21"/>
<polygon fill="none" stroke="midnightblue" points="686.29,-162.68 696.41,-159.57 686.56,-155.69 686.29,-162.68"/>
</g>
<!-- Node4 -->
<g id="node4" class="node">
<title>Node4</title>
<g id="a_node4"><a xlink:href="../../df/db6/structboost_1_1numeric_1_1ublas_1_1vector__temporary__traits_3_01matrix__column_3_01_m_01_4_01_4.html" target="_top" xlink:title=" ">
<polygon fill="none" stroke="black" points="286,-6 286,-85 409,-85 409,-6 286,-6"/>
<text text-anchor="start" x="294" y="-73" font-family="Helvetica,sans-Serif" font-size="10.00">boost::numeric::ublas</text>
<text text-anchor="start" x="294" y="-62" font-family="Helvetica,sans-Serif" font-size="10.00">::vector_temporary_traits</text>
<text text-anchor="middle" x="347.5" y="-51" font-family="Helvetica,sans-Serif" font-size="10.00">&lt; matrix_column&lt; M &gt; &gt;</text>
<polyline fill="none" stroke="black" points="286,-44 409,-44 "/>
<text text-anchor="middle" x="347.5" y="-32" font-family="Helvetica,sans-Serif" font-size="10.00"> </text>
<polyline fill="none" stroke="black" points="286,-25 409,-25 "/>
<text text-anchor="middle" x="347.5" y="-13" font-family="Helvetica,sans-Serif" font-size="10.00"> </text>
</a>
</g>
</g>
<!-- Node1&#45;&gt;Node4 -->
<g id="edge5" class="edge">
<title>Node1&#45;&gt;Node4</title>
<path fill="none" stroke="midnightblue" d="M686.01,-153.59C610.83,-145.16 499.21,-127.26 408.5,-91 404.22,-89.29 399.92,-87.31 395.68,-85.16"/>
<polygon fill="none" stroke="midnightblue" points="686.05,-157.12 696.37,-154.72 686.81,-150.16 686.05,-157.12"/>
</g>
<!-- Node1&#45;&gt;Node4 -->
<g id="edge6" class="edge">
<title>Node1&#45;&gt;Node4</title>
<path fill="none" stroke="midnightblue" d="M686.01,-151.88C614.85,-142.83 511.49,-124.98 426.5,-91 420.75,-88.7 414.96,-85.92 409.25,-82.88"/>
<polygon fill="none" stroke="midnightblue" points="685.91,-155.4 696.27,-153.16 686.78,-148.45 685.91,-155.4"/>
</g>
<!-- Node5 -->
<g id="node5" class="node">
<title>Node5</title>
<g id="a_node5"><a xlink:href="../../de/dc2/structboost_1_1numeric_1_1ublas_1_1vector__temporary__traits_3_01matrix__indirect_3_01_m_01_4_01_4.html" target="_top" xlink:title=" ">
<polygon fill="none" stroke="black" points="427,-6 427,-85 550,-85 550,-6 427,-6"/>
<text text-anchor="start" x="435" y="-73" font-family="Helvetica,sans-Serif" font-size="10.00">boost::numeric::ublas</text>
<text text-anchor="start" x="435" y="-62" font-family="Helvetica,sans-Serif" font-size="10.00">::vector_temporary_traits</text>
<text text-anchor="middle" x="488.5" y="-51" font-family="Helvetica,sans-Serif" font-size="10.00">&lt; matrix_indirect&lt; M &gt; &gt;</text>
<polyline fill="none" stroke="black" points="427,-44 550,-44 "/>
<text text-anchor="middle" x="488.5" y="-32" font-family="Helvetica,sans-Serif" font-size="10.00"> </text>
<polyline fill="none" stroke="black" points="427,-25 550,-25 "/>
<text text-anchor="middle" x="488.5" y="-13" font-family="Helvetica,sans-Serif" font-size="10.00"> </text>
</a>
</g>
</g>
<!-- Node1&#45;&gt;Node5 -->
<g id="edge7" class="edge">
<title>Node1&#45;&gt;Node5</title>
<path fill="none" stroke="midnightblue" d="M686.51,-140.58C644.28,-128.56 593.03,-111.58 549.5,-91 545.72,-89.22 541.91,-87.26 538.12,-85.21"/>
<polygon fill="none" stroke="midnightblue" points="685.64,-143.97 696.21,-143.3 687.53,-137.23 685.64,-143.97"/>
</g>
<!-- Node1&#45;&gt;Node5 -->
<g id="edge8" class="edge">
<title>Node1&#45;&gt;Node5</title>
<path fill="none" stroke="midnightblue" d="M686.43,-135.7C649.22,-124.13 605.43,-108.93 567.5,-91 561.77,-88.29 555.94,-85.2 550.18,-81.94"/>
<polygon fill="none" stroke="midnightblue" points="685.66,-139.12 696.24,-138.71 687.71,-132.43 685.66,-139.12"/>
</g>
<!-- Node6 -->
<g id="node6" class="node">
<title>Node6</title>
<g id="a_node6"><a xlink:href="../../d0/d67/structboost_1_1numeric_1_1ublas_1_1vector__temporary__traits_3_01matrix__range_3_01_m_01_4_01_4.html" target="_top" xlink:title=" ">
<polygon fill="none" stroke="black" points="568,-6 568,-85 691,-85 691,-6 568,-6"/>
<text text-anchor="start" x="576" y="-73" font-family="Helvetica,sans-Serif" font-size="10.00">boost::numeric::ublas</text>
<text text-anchor="start" x="576" y="-62" font-family="Helvetica,sans-Serif" font-size="10.00">::vector_temporary_traits</text>
<text text-anchor="middle" x="629.5" y="-51" font-family="Helvetica,sans-Serif" font-size="10.00">&lt; matrix_range&lt; M &gt; &gt;</text>
<polyline fill="none" stroke="black" points="568,-44 691,-44 "/>
<text text-anchor="middle" x="629.5" y="-32" font-family="Helvetica,sans-Serif" font-size="10.00"> </text>
<polyline fill="none" stroke="black" points="568,-25 691,-25 "/>
<text text-anchor="middle" x="629.5" y="-13" font-family="Helvetica,sans-Serif" font-size="10.00"> </text>
</a>
</g>
</g>
<!-- Node1&#45;&gt;Node6 -->
<g id="edge9" class="edge">
<title>Node1&#45;&gt;Node6</title>
<path fill="none" stroke="midnightblue" d="M715.09,-120.92C700.4,-109.37 684.81,-96.75 670.99,-85.25"/>
<polygon fill="none" stroke="midnightblue" points="713.1,-123.81 723.14,-127.22 717.42,-118.3 713.1,-123.81"/>
</g>
<!-- Node1&#45;&gt;Node6 -->
<g id="edge10" class="edge">
<title>Node1&#45;&gt;Node6</title>
<path fill="none" stroke="midnightblue" d="M727.58,-120.57C713.71,-109.04 698.17,-96.49 683.6,-85.04"/>
<polygon fill="none" stroke="midnightblue" points="725.62,-123.49 735.54,-127.22 730.11,-118.12 725.62,-123.49"/>
</g>
<!-- Node7 -->
<g id="node7" class="node">
<title>Node7</title>
<g id="a_node7"><a xlink:href="../../df/d89/structboost_1_1numeric_1_1ublas_1_1vector__temporary__traits_3_01matrix__row_3_01_m_01_4_01_4.html" target="_top" xlink:title=" ">
<polygon fill="none" stroke="black" points="709,-6 709,-85 832,-85 832,-6 709,-6"/>
<text text-anchor="start" x="717" y="-73" font-family="Helvetica,sans-Serif" font-size="10.00">boost::numeric::ublas</text>
<text text-anchor="start" x="717" y="-62" font-family="Helvetica,sans-Serif" font-size="10.00">::vector_temporary_traits</text>
<text text-anchor="middle" x="770.5" y="-51" font-family="Helvetica,sans-Serif" font-size="10.00">&lt; matrix_row&lt; M &gt; &gt;</text>
<polyline fill="none" stroke="black" points="709,-44 832,-44 "/>
<text text-anchor="middle" x="770.5" y="-32" font-family="Helvetica,sans-Serif" font-size="10.00"> </text>
<polyline fill="none" stroke="black" points="709,-25 832,-25 "/>
<text text-anchor="middle" x="770.5" y="-13" font-family="Helvetica,sans-Serif" font-size="10.00"> </text>
</a>
</g>
</g>
<!-- Node1&#45;&gt;Node7 -->
<g id="edge11" class="edge">
<title>Node1&#45;&gt;Node7</title>
<path fill="none" stroke="midnightblue" d="M763.92,-117.03C763.65,-106.58 763.7,-95.48 764.07,-85.25"/>
<polygon fill="none" stroke="midnightblue" points="760.43,-117.36 764.3,-127.22 767.43,-117.1 760.43,-117.36"/>
</g>
<!-- Node1&#45;&gt;Node7 -->
<g id="edge12" class="edge">
<title>Node1&#45;&gt;Node7</title>
<path fill="none" stroke="midnightblue" d="M777.08,-117.03C777.35,-106.58 777.3,-95.48 776.93,-85.25"/>
<polygon fill="none" stroke="midnightblue" points="773.57,-117.1 776.7,-127.22 780.57,-117.36 773.57,-117.1"/>
</g>
<!-- Node8 -->
<g id="node8" class="node">
<title>Node8</title>
<g id="a_node8"><a xlink:href="../../db/dcb/structboost_1_1numeric_1_1ublas_1_1vector__temporary__traits_3_01matrix__slice_3_01_m_01_4_01_4.html" target="_top" xlink:title=" ">
<polygon fill="none" stroke="black" points="850,-6 850,-85 973,-85 973,-6 850,-6"/>
<text text-anchor="start" x="858" y="-73" font-family="Helvetica,sans-Serif" font-size="10.00">boost::numeric::ublas</text>
<text text-anchor="start" x="858" y="-62" font-family="Helvetica,sans-Serif" font-size="10.00">::vector_temporary_traits</text>
<text text-anchor="middle" x="911.5" y="-51" font-family="Helvetica,sans-Serif" font-size="10.00">&lt; matrix_slice&lt; M &gt; &gt;</text>
<polyline fill="none" stroke="black" points="850,-44 973,-44 "/>
<text text-anchor="middle" x="911.5" y="-32" font-family="Helvetica,sans-Serif" font-size="10.00"> </text>
<polyline fill="none" stroke="black" points="850,-25 973,-25 "/>
<text text-anchor="middle" x="911.5" y="-13" font-family="Helvetica,sans-Serif" font-size="10.00"> </text>
</a>
</g>
</g>
<!-- Node1&#45;&gt;Node8 -->
<g id="edge13" class="edge">
<title>Node1&#45;&gt;Node8</title>
<path fill="none" stroke="midnightblue" d="M813.42,-120.57C827.29,-109.04 842.83,-96.49 857.4,-85.04"/>
<polygon fill="none" stroke="midnightblue" points="810.89,-118.12 805.46,-127.22 815.38,-123.49 810.89,-118.12"/>
</g>
<!-- Node1&#45;&gt;Node8 -->
<g id="edge14" class="edge">
<title>Node1&#45;&gt;Node8</title>
<path fill="none" stroke="midnightblue" d="M825.91,-120.92C840.6,-109.37 856.19,-96.75 870.01,-85.25"/>
<polygon fill="none" stroke="midnightblue" points="823.58,-118.3 817.86,-127.22 827.9,-123.81 823.58,-118.3"/>
</g>
<!-- Node9 -->
<g id="node9" class="node">
<title>Node9</title>
<g id="a_node9"><a xlink:href="../../db/d0d/structboost_1_1numeric_1_1ublas_1_1vector__temporary__traits_3_01matrix__vector__indirect_3_01_m_00_01_i_a_01_4_01_4.html" target="_top" xlink:title=" ">
<polygon fill="none" stroke="black" points="991,-0.5 991,-90.5 1114,-90.5 1114,-0.5 991,-0.5"/>
<text text-anchor="start" x="999" y="-78.5" font-family="Helvetica,sans-Serif" font-size="10.00">boost::numeric::ublas</text>
<text text-anchor="start" x="999" y="-67.5" font-family="Helvetica,sans-Serif" font-size="10.00">::vector_temporary_traits</text>
<text text-anchor="start" x="999" y="-56.5" font-family="Helvetica,sans-Serif" font-size="10.00">&lt; matrix_vector_indirect</text>
<text text-anchor="middle" x="1052.5" y="-45.5" font-family="Helvetica,sans-Serif" font-size="10.00">&lt; M, IA &gt; &gt;</text>
<polyline fill="none" stroke="black" points="991,-38.5 1114,-38.5 "/>
<text text-anchor="middle" x="1052.5" y="-26.5" font-family="Helvetica,sans-Serif" font-size="10.00"> </text>
<polyline fill="none" stroke="black" points="991,-19.5 1114,-19.5 "/>
<text text-anchor="middle" x="1052.5" y="-7.5" font-family="Helvetica,sans-Serif" font-size="10.00"> </text>
</a>
</g>
</g>
<!-- Node1&#45;&gt;Node9 -->
<g id="edge15" class="edge">
<title>Node1&#45;&gt;Node9</title>
<path fill="none" stroke="midnightblue" d="M854.57,-135.7C891.78,-124.13 935.57,-108.93 973.5,-91 979.23,-88.29 985.06,-85.2 990.82,-81.94"/>
<polygon fill="none" stroke="midnightblue" points="853.29,-132.43 844.76,-138.71 855.34,-139.12 853.29,-132.43"/>
</g>
<!-- Node1&#45;&gt;Node9 -->
<g id="edge16" class="edge">
<title>Node1&#45;&gt;Node9</title>
<path fill="none" stroke="midnightblue" d="M854.49,-140.58C896.72,-128.56 947.97,-111.58 991.5,-91 991.76,-90.88 992.02,-90.75 992.28,-90.63"/>
<polygon fill="none" stroke="midnightblue" points="853.47,-137.23 844.79,-143.3 855.36,-143.97 853.47,-137.23"/>
</g>
<!-- Node10 -->
<g id="node10" class="node">
<title>Node10</title>
<g id="a_node10"><a xlink:href="../../dc/d04/structboost_1_1numeric_1_1ublas_1_1vector__temporary__traits_3_01matrix__vector__range_3_01_m_01_4_01_4.html" target="_top" xlink:title=" ">
<polygon fill="none" stroke="black" points="1132.5,-6 1132.5,-85 1278.5,-85 1278.5,-6 1132.5,-6"/>
<text text-anchor="start" x="1140.5" y="-73" font-family="Helvetica,sans-Serif" font-size="10.00">boost::numeric::ublas</text>
<text text-anchor="start" x="1140.5" y="-62" font-family="Helvetica,sans-Serif" font-size="10.00">::vector_temporary_traits</text>
<text text-anchor="middle" x="1205.5" y="-51" font-family="Helvetica,sans-Serif" font-size="10.00">&lt; matrix_vector_range&lt; M &gt; &gt;</text>
<polyline fill="none" stroke="black" points="1132.5,-44 1278.5,-44 "/>
<text text-anchor="middle" x="1205.5" y="-32" font-family="Helvetica,sans-Serif" font-size="10.00"> </text>
<polyline fill="none" stroke="black" points="1132.5,-25 1278.5,-25 "/>
<text text-anchor="middle" x="1205.5" y="-13" font-family="Helvetica,sans-Serif" font-size="10.00"> </text>
</a>
</g>
</g>
<!-- Node1&#45;&gt;Node10 -->
<g id="edge17" class="edge">
<title>Node1&#45;&gt;Node10</title>
<path fill="none" stroke="midnightblue" d="M854.72,-150.22C925.53,-140.24 1028.53,-121.97 1114.5,-91 1120.44,-88.86 1126.48,-86.34 1132.47,-83.6"/>
<polygon fill="none" stroke="midnightblue" points="853.94,-146.79 844.51,-151.63 854.9,-153.72 853.94,-146.79"/>
</g>
<!-- Node1&#45;&gt;Node10 -->
<g id="edge18" class="edge">
<title>Node1&#45;&gt;Node10</title>
<path fill="none" stroke="midnightblue" d="M855.13,-152.07C929.92,-142.59 1040.88,-124.01 1132.5,-91 1137.38,-89.24 1142.31,-87.23 1147.21,-85.05"/>
<polygon fill="none" stroke="midnightblue" points="854.32,-148.65 844.82,-153.35 855.18,-155.59 854.32,-148.65"/>
</g>
<!-- Node11 -->
<g id="node11" class="node">
<title>Node11</title>
<g id="a_node11"><a xlink:href="../../de/db0/structboost_1_1numeric_1_1ublas_1_1vector__temporary__traits_3_01matrix__vector__slice_3_01_m_01_4_01_4.html" target="_top" xlink:title=" ">
<polygon fill="none" stroke="black" points="1296.5,-6 1296.5,-85 1438.5,-85 1438.5,-6 1296.5,-6"/>
<text text-anchor="start" x="1304.5" y="-73" font-family="Helvetica,sans-Serif" font-size="10.00">boost::numeric::ublas</text>
<text text-anchor="start" x="1304.5" y="-62" font-family="Helvetica,sans-Serif" font-size="10.00">::vector_temporary_traits</text>
<text text-anchor="middle" x="1367.5" y="-51" font-family="Helvetica,sans-Serif" font-size="10.00">&lt; matrix_vector_slice&lt; M &gt; &gt;</text>
<polyline fill="none" stroke="black" points="1296.5,-44 1438.5,-44 "/>
<text text-anchor="middle" x="1367.5" y="-32" font-family="Helvetica,sans-Serif" font-size="10.00"> </text>
<polyline fill="none" stroke="black" points="1296.5,-25 1438.5,-25 "/>
<text text-anchor="middle" x="1367.5" y="-13" font-family="Helvetica,sans-Serif" font-size="10.00"> </text>
</a>
</g>
</g>
<!-- Node1&#45;&gt;Node11 -->
<g id="edge19" class="edge">
<title>Node1&#45;&gt;Node11</title>
<path fill="none" stroke="midnightblue" d="M854.74,-158.48C957.28,-153.84 1134.39,-138.86 1278.5,-91 1284.38,-89.05 1290.33,-86.66 1296.22,-84.01"/>
<polygon fill="none" stroke="midnightblue" points="854.59,-154.98 844.75,-158.91 854.89,-161.98 854.59,-154.98"/>
</g>
<!-- Node1&#45;&gt;Node11 -->
<g id="edge20" class="edge">
<title>Node1&#45;&gt;Node11</title>
<path fill="none" stroke="midnightblue" d="M854.99,-158.99C960.91,-155 1146.57,-140.79 1296.5,-91 1301.63,-89.3 1306.81,-87.26 1311.91,-85.01"/>
<polygon fill="none" stroke="midnightblue" points="854.55,-155.51 844.68,-159.36 854.79,-162.5 854.55,-155.51"/>
</g>
<!-- Node12 -->
<g id="node12" class="node">
<title>Node12</title>
<g id="a_node12"><a xlink:href="../../d3/d98/structboost_1_1numeric_1_1ublas_1_1vector__temporary__traits_3_01symmetric__adaptor_3_01_m_00_01_t_r_i_01_4_01_4.html" target="_top" xlink:title=" ">
<polygon fill="none" stroke="black" points="1457,-0.5 1457,-90.5 1584,-90.5 1584,-0.5 1457,-0.5"/>
<text text-anchor="start" x="1465" y="-78.5" font-family="Helvetica,sans-Serif" font-size="10.00">boost::numeric::ublas</text>
<text text-anchor="start" x="1465" y="-67.5" font-family="Helvetica,sans-Serif" font-size="10.00">::vector_temporary_traits</text>
<text text-anchor="start" x="1465" y="-56.5" font-family="Helvetica,sans-Serif" font-size="10.00">&lt; symmetric_adaptor&lt; M,</text>
<text text-anchor="middle" x="1520.5" y="-45.5" font-family="Helvetica,sans-Serif" font-size="10.00"> TRI &gt; &gt;</text>
<polyline fill="none" stroke="black" points="1457,-38.5 1584,-38.5 "/>
<text text-anchor="middle" x="1520.5" y="-26.5" font-family="Helvetica,sans-Serif" font-size="10.00"> </text>
<polyline fill="none" stroke="black" points="1457,-19.5 1584,-19.5 "/>
<text text-anchor="middle" x="1520.5" y="-7.5" font-family="Helvetica,sans-Serif" font-size="10.00"> </text>
</a>
</g>
</g>
<!-- Node1&#45;&gt;Node12 -->
<g id="edge21" class="edge">
<title>Node1&#45;&gt;Node12</title>
<path fill="none" stroke="midnightblue" d="M855.14,-156.2C1009.87,-147.81 1331.98,-126.87 1438.5,-91 1444.55,-88.96 1450.62,-86.35 1456.59,-83.42"/>
<polygon fill="none" stroke="midnightblue" points="854.54,-152.73 844.75,-156.76 854.92,-159.72 854.54,-152.73"/>
</g>
<!-- Node1&#45;&gt;Node12 -->
<g id="edge22" class="edge">
<title>Node1&#45;&gt;Node12</title>
<path fill="none" stroke="midnightblue" d="M854.89,-156.76C1013.03,-148.76 1347.55,-127.69 1456.5,-91 1456.92,-90.86 1457.34,-90.71 1457.77,-90.57"/>
<polygon fill="none" stroke="midnightblue" points="854.55,-153.27 844.73,-157.26 854.9,-160.26 854.55,-153.27"/>
</g>
</g>
</svg>
        <g id="navigator" transform="translate(0 0)" fill="#404254">
                <rect fill="#f2f5e9" fill-opacity="0.5" stroke="#606060" stroke-width=".5" x="0" y="0" width="60" height="60"/>
                <use id="zoomplus" xlink:href="#zoomPlus" x="17" y="9" onmousedown="handleZoom(evt,'in')"/>
                <use id="zoomminus" xlink:href="#zoomMin" x="42" y="9" onmousedown="handleZoom(evt,'out')"/>
                <use id="reset" xlink:href="#resetDef" x="30" y="36" onmousedown="handleReset()"/>
                <g id="arrowUp" xlink:href="#dirArrow" transform="translate(30 24)" onmousedown="handlePan(0,-1)">
                  <use xlink:href="#rim" fill="#404040">
                        <set attributeName="fill" to="#808080" begin="arrowUp.mouseover" end="arrowUp.mouseout"/>
                  </use>
                  <path fill="none" stroke="white" stroke-width="1.5" d="M0,-3.0v7 M-2.5,-0.5L0,-3.0L2.5,-0.5"/>
                </g>
                <g id="arrowRight" xlink:href="#dirArrow" transform="rotate(90) translate(36 -43)" onmousedown="handlePan(1,0)">
                  <use xlink:href="#rim" fill="#404040">
                        <set attributeName="fill" to="#808080" begin="arrowRight.mouseover" end="arrowRight.mouseout"/>
                  </use>
                  <path fill="none" stroke="white" stroke-width="1.5" d="M0,-3.0v7 M-2.5,-0.5L0,-3.0L2.5,-0.5"/>
                </g>
                <g id="arrowDown" xlink:href="#dirArrow" transform="rotate(180) translate(-30 -48)" onmousedown="handlePan(0,1)">
                  <use xlink:href="#rim" fill="#404040">
                        <set attributeName="fill" to="#808080" begin="arrowDown.mouseover" end="arrowDown.mouseout"/>
                  </use>
                  <path fill="none" stroke="white" stroke-width="1.5" d="M0,-3.0v7 M-2.5,-0.5L0,-3.0L2.5,-0.5"/>
                </g>
                <g id="arrowLeft" xlink:href="#dirArrow" transform="rotate(270) translate(-36 17)" onmousedown="handlePan(-1,0)">
                  <use xlink:href="#rim" fill="#404040">
                        <set attributeName="fill" to="#808080" begin="arrowLeft.mouseover" end="arrowLeft.mouseout"/>
                  </use>
                  <path fill="none" stroke="white" stroke-width="1.5" d="M0,-3.0v7 M-2.5,-0.5L0,-3.0L2.5,-0.5"/>
                </g>
        </g>
        <svg viewBox="0 0 15 15" width="100%" height="30px" preserveAspectRatio="xMaxYMin meet">
         <g id="arrow_out" transform="scale(0.3 0.3)">
          <a xlink:href="structboost_1_1numeric_1_1ublas_1_1vector__temporary__traits__inherit__graph_org.svg" target="_base">
           <rect id="button" ry="5" rx="5" y="6" x="6" height="38" width="38"
                fill="#f2f5e9" fill-opacity="0.5" stroke="#606060" stroke-width="1.0"/>
           <path id="arrow"
             d="M 11.500037,31.436501 C 11.940474,20.09759 22.043105,11.32322 32.158766,21.979434 L 37.068811,17.246167 C 37.068811,17.246167 37.088388,32 37.088388,32 L 22.160133,31.978069 C 22.160133,31.978069 26.997745,27.140456 26.997745,27.140456 C 18.528582,18.264221 13.291696,25.230495 11.500037,31.436501 z"
             style="fill:#404040;"/>
          </a>
         </g>
        </svg>
</svg>
