<?xml version="1.0" encoding="UTF-8" standalone="no"?>
<!DOCTYPE svg PUBLIC "-//W3C//DTD SVG 1.1//EN"
 "http://www.w3.org/Graphics/SVG/1.1/DTD/svg11.dtd">
<!-- Generated by graphviz version 2.48.0 (20210719.0153)
 -->
<!-- Title: /github/workspace/applications/ExternalSolversApplication/external_includes/superlu/superlu.hpp Pages: 1 -->
<svg width="347pt" height="228pt"
 viewBox="0.00 0.00 346.50 228.00" xmlns="http://www.w3.org/2000/svg" xmlns:xlink="http://www.w3.org/1999/xlink">
<g id="graph0" class="graph" transform="scale(1 1) rotate(0) translate(4 224)">
<title>/github/workspace/applications/ExternalSolversApplication/external_includes/superlu/superlu.hpp</title>
<!-- Node1 -->
<g id="node1" class="node">
<title>Node1</title>
<g id="a_node1"><a xlink:title=" ">
<polygon fill="#bfbfbf" stroke="black" points="73.5,-178.5 73.5,-219.5 255.5,-219.5 255.5,-178.5 73.5,-178.5"/>
<text text-anchor="start" x="81.5" y="-207.5" font-family="Helvetica,sans-Serif" font-size="10.00">/github/workspace/applications</text>
<text text-anchor="start" x="81.5" y="-196.5" font-family="Helvetica,sans-Serif" font-size="10.00">/ExternalSolversApplication</text>
<text text-anchor="middle" x="164.5" y="-185.5" font-family="Helvetica,sans-Serif" font-size="10.00">/external_includes/superlu/superlu.hpp</text>
</a>
</g>
</g>
<!-- Node2 -->
<g id="node2" class="node">
<title>Node2</title>
<g id="a_node2"><a xlink:href="../../d2/da2/parallel__superlu__solver_8h.html" target="_top" xlink:title=" ">
<polygon fill="none" stroke="black" points="0,-89.5 0,-141.5 151,-141.5 151,-89.5 0,-89.5"/>
<text text-anchor="start" x="8" y="-129.5" font-family="Helvetica,sans-Serif" font-size="10.00">/github/workspace/applications</text>
<text text-anchor="start" x="8" y="-118.5" font-family="Helvetica,sans-Serif" font-size="10.00">/ExternalSolversApplication</text>
<text text-anchor="start" x="8" y="-107.5" font-family="Helvetica,sans-Serif" font-size="10.00">/external_includes/parallel</text>
<text text-anchor="middle" x="75.5" y="-96.5" font-family="Helvetica,sans-Serif" font-size="10.00">_superlu_solver.h</text>
</a>
</g>
</g>
<!-- Node1&#45;&gt;Node2 -->
<g id="edge1" class="edge">
<title>Node1&#45;&gt;Node2</title>
<path fill="none" stroke="midnightblue" d="M135.28,-171.24C124.87,-161.71 113.18,-151 102.92,-141.61"/>
<polygon fill="midnightblue" stroke="midnightblue" points="133.22,-174.1 142.96,-178.27 137.94,-168.94 133.22,-174.1"/>
</g>
<!-- Node3 -->
<g id="node3" class="node">
<title>Node3</title>
<g id="a_node3"><a xlink:href="../../dc/d29/applications_2_external_solvers_application_2external__includes_2superlu__solver_8h.html" target="_top" xlink:title=" ">
<polygon fill="none" stroke="black" points="169.5,-95 169.5,-136 337.5,-136 337.5,-95 169.5,-95"/>
<text text-anchor="start" x="177.5" y="-124" font-family="Helvetica,sans-Serif" font-size="10.00">/github/workspace/applications</text>
<text text-anchor="start" x="177.5" y="-113" font-family="Helvetica,sans-Serif" font-size="10.00">/ExternalSolversApplication</text>
<text text-anchor="middle" x="253.5" y="-102" font-family="Helvetica,sans-Serif" font-size="10.00">/external_includes/superlu_solver.h</text>
</a>
</g>
</g>
<!-- Node1&#45;&gt;Node3 -->
<g id="edge2" class="edge">
<title>Node1&#45;&gt;Node3</title>
<path fill="none" stroke="midnightblue" d="M193.59,-171.36C206.16,-159.85 220.6,-146.63 232.15,-136.05"/>
<polygon fill="midnightblue" stroke="midnightblue" points="191.06,-168.94 186.04,-178.27 195.78,-174.1 191.06,-168.94"/>
</g>
<!-- Node4 -->
<g id="node4" class="node">
<title>Node4</title>
<g id="a_node4"><a xlink:href="../../d3/dcd/applications_2_external_solvers_application_2custom__python_2add__linear__solvers__to__python_8cpp.html" target="_top" xlink:title=" ">
<polygon fill="none" stroke="black" points="168.5,-0.5 168.5,-52.5 338.5,-52.5 338.5,-0.5 168.5,-0.5"/>
<text text-anchor="start" x="176.5" y="-40.5" font-family="Helvetica,sans-Serif" font-size="10.00">/github/workspace/applications</text>
<text text-anchor="start" x="176.5" y="-29.5" font-family="Helvetica,sans-Serif" font-size="10.00">/ExternalSolversApplication</text>
<text text-anchor="start" x="176.5" y="-18.5" font-family="Helvetica,sans-Serif" font-size="10.00">/custom_python/add_linear_solvers</text>
<text text-anchor="middle" x="253.5" y="-7.5" font-family="Helvetica,sans-Serif" font-size="10.00">_to_python.cpp</text>
</a>
</g>
</g>
<!-- Node3&#45;&gt;Node4 -->
<g id="edge3" class="edge">
<title>Node3&#45;&gt;Node4</title>
<path fill="none" stroke="midnightblue" d="M253.5,-84.51C253.5,-74.17 253.5,-62.71 253.5,-52.79"/>
<polygon fill="midnightblue" stroke="midnightblue" points="250,-84.76 253.5,-94.76 257,-84.76 250,-84.76"/>
</g>
</g>
</svg>
