<?xml version="1.0" encoding="UTF-8" standalone="no"?>
<!DOCTYPE svg PUBLIC "-//W3C//DTD SVG 1.1//EN"
 "http://www.w3.org/Graphics/SVG/1.1/DTD/svg11.dtd">
<!-- Generated by graphviz version 2.48.0 (20210719.0153)
 -->
<!-- Title: /github/workspace/kratos/includes/properties.h Pages: 1 -->
<svg width="4168pt" height="665pt"
 viewBox="0.00 0.00 4168.00 665.00" xmlns="http://www.w3.org/2000/svg" xmlns:xlink="http://www.w3.org/1999/xlink">
<g id="graph0" class="graph" transform="scale(1 1) rotate(0) translate(4 661)">
<title>/github/workspace/kratos/includes/properties.h</title>
<!-- Node1 -->
<g id="node1" class="node">
<title>Node1</title>
<g id="a_node1"><a xlink:title=" ">
<polygon fill="#bfbfbf" stroke="black" points="742,-626.5 742,-656.5 868,-656.5 868,-626.5 742,-626.5"/>
<text text-anchor="start" x="750" y="-644.5" font-family="Helvetica,sans-Serif" font-size="10.00">/github/workspace/kratos</text>
<text text-anchor="middle" x="805" y="-633.5" font-family="Helvetica,sans-Serif" font-size="10.00">/includes/properties.h</text>
</a>
</g>
</g>
<!-- Node2 -->
<g id="node2" class="node">
<title>Node2</title>
<g id="a_node2"><a xlink:title=" ">
<polygon fill="none" stroke="#bfbfbf" points="1945.5,-62 1945.5,-81 1986.5,-81 1986.5,-62 1945.5,-62"/>
<text text-anchor="middle" x="1966" y="-69" font-family="Helvetica,sans-Serif" font-size="10.00">string</text>
</a>
</g>
</g>
<!-- Node1&#45;&gt;Node2 -->
<g id="edge1" class="edge">
<title>Node1&#45;&gt;Node2</title>
<path fill="none" stroke="midnightblue" d="M741.58,-637.39C617.15,-630.83 345.31,-614.19 255,-590 188.35,-572.14 114,-594 114,-525 114,-525 114,-525 114,-271.5 114,-142.32 267.23,-219.49 393,-190 558.26,-151.26 600.27,-141.51 769,-123 1004.97,-97.12 1771.75,-77.24 1935.18,-73.24"/>
<polygon fill="midnightblue" stroke="midnightblue" points="1935.57,-76.73 1945.48,-72.99 1935.4,-69.73 1935.57,-76.73"/>
</g>
<!-- Node3 -->
<g id="node3" class="node">
<title>Node3</title>
<g id="a_node3"><a xlink:title=" ">
<polygon fill="none" stroke="#bfbfbf" points="3157,-62 3157,-81 3211,-81 3211,-62 3157,-62"/>
<text text-anchor="middle" x="3184" y="-69" font-family="Helvetica,sans-Serif" font-size="10.00">iostream</text>
</a>
</g>
</g>
<!-- Node1&#45;&gt;Node3 -->
<g id="edge2" class="edge">
<title>Node1&#45;&gt;Node3</title>
<path fill="none" stroke="midnightblue" d="M868.3,-639.98C1323.83,-636.02 4084,-608.62 4084,-525 4084,-525 4084,-525 4084,-204.5 4084,-144.01 4031.76,-143.91 3975,-123 3834.05,-71.09 3358.25,-70.99 3221.22,-72.09"/>
<polygon fill="midnightblue" stroke="midnightblue" points="3221.18,-68.59 3211.21,-72.17 3221.24,-75.59 3221.18,-68.59"/>
</g>
<!-- Node4 -->
<g id="node4" class="node">
<title>Node4</title>
<g id="a_node4"><a xlink:title=" ">
<polygon fill="none" stroke="#bfbfbf" points="823.5,-129 823.5,-148 872.5,-148 872.5,-129 823.5,-129"/>
<text text-anchor="middle" x="848" y="-136" font-family="Helvetica,sans-Serif" font-size="10.00">cstddef</text>
</a>
</g>
</g>
<!-- Node1&#45;&gt;Node4 -->
<g id="edge3" class="edge">
<title>Node1&#45;&gt;Node4</title>
<path fill="none" stroke="midnightblue" d="M741.88,-641.03C592.16,-640.61 228,-628.88 228,-525 228,-525 228,-525 228,-338.5 228,-214.66 682.11,-157.04 813.05,-142.99"/>
<polygon fill="midnightblue" stroke="midnightblue" points="813.73,-146.44 823.31,-141.91 813,-139.48 813.73,-146.44"/>
</g>
<!-- Node5 -->
<g id="node5" class="node">
<title>Node5</title>
<g id="a_node5"><a xlink:href="../../df/d67/define_8h.html" target="_top" xlink:title=" ">
<polygon fill="none" stroke="black" points="598.5,-62 598.5,-81 687.5,-81 687.5,-62 598.5,-62"/>
<text text-anchor="middle" x="643" y="-69" font-family="Helvetica,sans-Serif" font-size="10.00">includes/define.h</text>
</a>
</g>
</g>
<!-- Node1&#45;&gt;Node5 -->
<g id="edge4" class="edge">
<title>Node1&#45;&gt;Node5</title>
<path fill="none" stroke="midnightblue" d="M741.76,-640C591.73,-638.16 218,-629.62 100,-590 49.75,-573.13 0,-578.01 0,-525 0,-525 0,-525 0,-204.5 0,-84.88 432.38,-72.68 588.01,-72.16"/>
<polygon fill="midnightblue" stroke="midnightblue" points="588.3,-75.66 598.3,-72.15 588.29,-68.66 588.3,-75.66"/>
</g>
<!-- Node11 -->
<g id="node11" class="node">
<title>Node11</title>
<g id="a_node11"><a xlink:href="../../d1/d77/node_8h.html" target="_top" xlink:title=" ">
<polygon fill="none" stroke="black" points="1576,-570.5 1576,-589.5 1660,-589.5 1660,-570.5 1576,-570.5"/>
<text text-anchor="middle" x="1618" y="-577.5" font-family="Helvetica,sans-Serif" font-size="10.00">includes/node.h</text>
</a>
</g>
</g>
<!-- Node1&#45;&gt;Node11 -->
<g id="edge10" class="edge">
<title>Node1&#45;&gt;Node11</title>
<path fill="none" stroke="midnightblue" d="M868.12,-635.88C1023.35,-624.52 1421.53,-595.38 1565.26,-584.86"/>
<polygon fill="midnightblue" stroke="midnightblue" points="1565.84,-588.33 1575.56,-584.11 1565.33,-581.35 1565.84,-588.33"/>
</g>
<!-- Node37 -->
<g id="node25" class="node">
<title>Node37</title>
<g id="a_node25"><a xlink:href="../../d1/d82/data__value__container_8h.html" target="_top" xlink:title=" ">
<polygon fill="none" stroke="black" points="2211,-324.5 2211,-354.5 2323,-354.5 2323,-324.5 2211,-324.5"/>
<text text-anchor="start" x="2219" y="-342.5" font-family="Helvetica,sans-Serif" font-size="10.00">containers/data_value</text>
<text text-anchor="middle" x="2267" y="-331.5" font-family="Helvetica,sans-Serif" font-size="10.00">_container.h</text>
</a>
</g>
</g>
<!-- Node1&#45;&gt;Node37 -->
<g id="edge144" class="edge">
<title>Node1&#45;&gt;Node37</title>
<path fill="none" stroke="midnightblue" d="M868.09,-640.72C1134.7,-641.03 2159.76,-635.55 2257,-534 2300.78,-488.28 2285.6,-405.22 2274.48,-364.42"/>
<polygon fill="midnightblue" stroke="midnightblue" points="2277.77,-363.19 2271.65,-354.55 2271.05,-365.13 2277.77,-363.19"/>
</g>
<!-- Node58 -->
<g id="node46" class="node">
<title>Node58</title>
<g id="a_node46"><a xlink:href="../../de/db8/process__info_8h.html" target="_top" xlink:title=" ">
<polygon fill="none" stroke="black" points="745.5,-453 745.5,-472 864.5,-472 864.5,-453 745.5,-453"/>
<text text-anchor="middle" x="805" y="-460" font-family="Helvetica,sans-Serif" font-size="10.00">includes/process_info.h</text>
</a>
</g>
</g>
<!-- Node1&#45;&gt;Node58 -->
<g id="edge145" class="edge">
<title>Node1&#45;&gt;Node58</title>
<path fill="none" stroke="midnightblue" d="M805,-626.31C805,-594.63 805,-518.11 805,-482.42"/>
<polygon fill="midnightblue" stroke="midnightblue" points="808.5,-482.37 805,-472.37 801.5,-482.37 808.5,-482.37"/>
</g>
<!-- Node6 -->
<g id="node6" class="node">
<title>Node6</title>
<g id="a_node6"><a xlink:title=" ">
<polygon fill="none" stroke="#bfbfbf" points="721.5,-0.5 721.5,-19.5 780.5,-19.5 780.5,-0.5 721.5,-0.5"/>
<text text-anchor="middle" x="751" y="-7.5" font-family="Helvetica,sans-Serif" font-size="10.00">stdexcept</text>
</a>
</g>
</g>
<!-- Node5&#45;&gt;Node6 -->
<g id="edge5" class="edge">
<title>Node5&#45;&gt;Node6</title>
<path fill="none" stroke="midnightblue" d="M658.47,-61.98C676.28,-52.17 705.74,-35.93 726.63,-24.42"/>
<polygon fill="midnightblue" stroke="midnightblue" points="728.49,-27.4 735.55,-19.51 725.11,-21.27 728.49,-27.4"/>
</g>
<!-- Node7 -->
<g id="node7" class="node">
<title>Node7</title>
<g id="a_node7"><a xlink:title=" ">
<polygon fill="none" stroke="#bfbfbf" points="989,-0.5 989,-19.5 1041,-19.5 1041,-0.5 989,-0.5"/>
<text text-anchor="middle" x="1015" y="-7.5" font-family="Helvetica,sans-Serif" font-size="10.00">sstream</text>
</a>
</g>
</g>
<!-- Node5&#45;&gt;Node7 -->
<g id="edge6" class="edge">
<title>Node5&#45;&gt;Node7</title>
<path fill="none" stroke="midnightblue" d="M677,-62C686.06,-59.88 695.88,-57.73 705,-56 756.84,-46.19 908.19,-25.4 978.42,-15.91"/>
<polygon fill="midnightblue" stroke="midnightblue" points="979.13,-19.35 988.57,-14.54 978.19,-12.41 979.13,-19.35"/>
</g>
<!-- Node8 -->
<g id="node8" class="node">
<title>Node8</title>
<g id="a_node8"><a xlink:title=" ">
<polygon fill="none" stroke="#bfbfbf" points="832.5,-0.5 832.5,-19.5 935.5,-19.5 935.5,-0.5 832.5,-0.5"/>
<text text-anchor="middle" x="884" y="-7.5" font-family="Helvetica,sans-Serif" font-size="10.00">boost/smart_ptr.hpp</text>
</a>
</g>
</g>
<!-- Node5&#45;&gt;Node8 -->
<g id="edge7" class="edge">
<title>Node5&#45;&gt;Node8</title>
<path fill="none" stroke="midnightblue" d="M677.53,-61.98C720.21,-51.44 792.92,-33.49 839.68,-21.94"/>
<polygon fill="midnightblue" stroke="midnightblue" points="840.67,-25.3 849.53,-19.51 838.99,-18.51 840.67,-25.3"/>
</g>
<!-- Node9 -->
<g id="node9" class="node">
<title>Node9</title>
<g id="a_node9"><a xlink:title=" ">
<polygon fill="none" stroke="#bfbfbf" points="433.5,-0.5 433.5,-19.5 564.5,-19.5 564.5,-0.5 433.5,-0.5"/>
<text text-anchor="middle" x="499" y="-7.5" font-family="Helvetica,sans-Serif" font-size="10.00">boost/current_function.hpp</text>
</a>
</g>
</g>
<!-- Node5&#45;&gt;Node9 -->
<g id="edge8" class="edge">
<title>Node5&#45;&gt;Node9</title>
<path fill="none" stroke="midnightblue" d="M622.37,-61.98C597.88,-51.86 556.85,-34.9 528.89,-23.35"/>
<polygon fill="midnightblue" stroke="midnightblue" points="530.17,-20.09 519.59,-19.51 527.5,-26.56 530.17,-20.09"/>
</g>
<!-- Node10 -->
<g id="node10" class="node">
<title>Node10</title>
<g id="a_node10"><a xlink:href="../../de/d17/kratos__config_8h.html" target="_top" xlink:title=" ">
<polygon fill="none" stroke="black" points="582.5,-0.5 582.5,-19.5 703.5,-19.5 703.5,-0.5 582.5,-0.5"/>
<text text-anchor="middle" x="643" y="-7.5" font-family="Helvetica,sans-Serif" font-size="10.00">includes/kratos_config.h</text>
</a>
</g>
</g>
<!-- Node5&#45;&gt;Node10 -->
<g id="edge9" class="edge">
<title>Node5&#45;&gt;Node10</title>
<path fill="none" stroke="midnightblue" d="M643,-61.98C643,-53.58 643,-40.48 643,-29.66"/>
<polygon fill="midnightblue" stroke="midnightblue" points="646.5,-29.51 643,-19.51 639.5,-29.51 646.5,-29.51"/>
</g>
<!-- Node11&#45;&gt;Node2 -->
<g id="edge11" class="edge">
<title>Node11&#45;&gt;Node2</title>
<path fill="none" stroke="midnightblue" d="M1575.75,-577.32C1506.63,-572.07 1377,-550.61 1377,-463.5 1377,-463.5 1377,-463.5 1377,-204.5 1377,-167.31 1367.92,-147.39 1396,-123 1436.97,-87.43 1823.08,-75.79 1935.46,-73.14"/>
<polygon fill="midnightblue" stroke="midnightblue" points="1935.54,-76.64 1945.46,-72.92 1935.38,-69.65 1935.54,-76.64"/>
</g>
<!-- Node11&#45;&gt;Node3 -->
<g id="edge12" class="edge">
<title>Node11&#45;&gt;Node3</title>
<path fill="none" stroke="midnightblue" d="M1660.24,-578.16C1980.08,-571.53 4008,-524.64 4008,-402 4008,-402 4008,-402 4008,-271.5 4008,-199.63 4002.7,-164.47 3944,-123 3929.07,-112.45 3372.56,-82.43 3221.5,-74.46"/>
<polygon fill="midnightblue" stroke="midnightblue" points="3221.51,-70.96 3211.34,-73.93 3221.14,-77.95 3221.51,-70.96"/>
</g>
<!-- Node11&#45;&gt;Node4 -->
<g id="edge14" class="edge">
<title>Node11&#45;&gt;Node4</title>
<path fill="none" stroke="midnightblue" d="M1575.62,-578.34C1433.89,-575.85 977.31,-565.52 834,-534 767.74,-519.43 742.9,-522.85 692,-478 585.07,-383.78 459.06,-298.89 551,-190 584.22,-150.66 742.02,-141.96 813.12,-140.04"/>
<polygon fill="midnightblue" stroke="midnightblue" points="813.45,-143.53 823.36,-139.8 813.28,-136.54 813.45,-143.53"/>
</g>
<!-- Node11&#45;&gt;Node5 -->
<g id="edge15" class="edge">
<title>Node11&#45;&gt;Node5</title>
<path fill="none" stroke="midnightblue" d="M1575.67,-579.34C1365.9,-580.22 438.93,-574.66 214,-411 134.37,-353.06 126.29,-315.91 100,-221 85.57,-168.91 122.83,-145.44 172,-123 245.02,-89.68 480.54,-77.81 588.28,-74.05"/>
<polygon fill="midnightblue" stroke="midnightblue" points="588.42,-77.55 598.3,-73.71 588.18,-70.55 588.42,-77.55"/>
</g>
<!-- Node11&#45;&gt;Node7 -->
<g id="edge13" class="edge">
<title>Node11&#45;&gt;Node7</title>
<path fill="none" stroke="midnightblue" d="M1660,-578.23C1990.51,-572.02 4160,-528.8 4160,-463.5 4160,-463.5 4160,-463.5 4160,-137.5 4160,33.06 3954.43,-75.59 3785,-56 3501.1,-23.17 1356.61,-12.51 1051.16,-11.15"/>
<polygon fill="midnightblue" stroke="midnightblue" points="1051.09,-7.65 1041.07,-11.11 1051.06,-14.65 1051.09,-7.65"/>
</g>
<!-- Node12 -->
<g id="node12" class="node">
<title>Node12</title>
<g id="a_node12"><a xlink:href="../../d2/d91/point_8h.html" target="_top" xlink:title=" ">
<polygon fill="none" stroke="black" points="2908,-263 2908,-282 3004,-282 3004,-263 2908,-263"/>
<text text-anchor="middle" x="2956" y="-270" font-family="Helvetica,sans-Serif" font-size="10.00">geometries/point.h</text>
</a>
</g>
</g>
<!-- Node11&#45;&gt;Node12 -->
<g id="edge16" class="edge">
<title>Node11&#45;&gt;Node12</title>
<path fill="none" stroke="midnightblue" d="M1660.25,-578.78C1869.85,-577.5 2789.81,-569.87 2838,-534 2864.55,-514.24 2862,-496.6 2862,-463.5 2862,-463.5 2862,-463.5 2862,-400 2862,-351.61 2906.86,-309.7 2934.6,-288.42"/>
<polygon fill="midnightblue" stroke="midnightblue" points="2936.98,-291.02 2942.93,-282.25 2932.81,-285.39 2936.98,-291.02"/>
</g>
<!-- Node34 -->
<g id="node22" class="node">
<title>Node34</title>
<g id="a_node22"><a xlink:href="../../d1/d4e/dof_8h.html" target="_top" xlink:title=" ">
<polygon fill="none" stroke="black" points="2171.5,-514.5 2171.5,-533.5 2248.5,-533.5 2248.5,-514.5 2171.5,-514.5"/>
<text text-anchor="middle" x="2210" y="-521.5" font-family="Helvetica,sans-Serif" font-size="10.00">includes/dof.h</text>
</a>
</g>
</g>
<!-- Node11&#45;&gt;Node34 -->
<g id="edge38" class="edge">
<title>Node11&#45;&gt;Node34</title>
<path fill="none" stroke="midnightblue" d="M1660.1,-575.16C1766.79,-565.43 2047.35,-539.84 2161.07,-529.46"/>
<polygon fill="midnightblue" stroke="midnightblue" points="2161.58,-532.93 2171.23,-528.54 2160.95,-525.96 2161.58,-532.93"/>
</g>
<!-- Node36 -->
<g id="node24" class="node">
<title>Node36</title>
<g id="a_node24"><a xlink:href="../../d5/d08/buffer_8h.html" target="_top" xlink:title=" ">
<polygon fill="none" stroke="black" points="2368,-129 2368,-148 2464,-148 2464,-129 2368,-129"/>
<text text-anchor="middle" x="2416" y="-136" font-family="Helvetica,sans-Serif" font-size="10.00">containers/buffer.h</text>
</a>
</g>
</g>
<!-- Node11&#45;&gt;Node36 -->
<g id="edge105" class="edge">
<title>Node11&#45;&gt;Node36</title>
<path fill="none" stroke="midnightblue" d="M1660.2,-578.2C1827.34,-574.85 2437.81,-560.89 2520,-534 2563,-519.93 2573.03,-510.01 2605,-478 2675.64,-407.25 2697.97,-343.01 2647,-257 2624.72,-219.39 2612.75,-212.04 2575,-190 2564.44,-183.84 2498.64,-163.83 2455.07,-150.93"/>
<polygon fill="midnightblue" stroke="midnightblue" points="2455.91,-147.53 2445.32,-148.05 2453.92,-154.24 2455.91,-147.53"/>
</g>
<!-- Node43 -->
<g id="node31" class="node">
<title>Node43</title>
<g id="a_node31"><a xlink:href="../../d4/d52/variables__list__data__value__container_8h.html" target="_top" xlink:title=" ">
<polygon fill="none" stroke="black" points="1704,-447.5 1704,-477.5 1844,-477.5 1844,-447.5 1704,-447.5"/>
<text text-anchor="start" x="1712" y="-465.5" font-family="Helvetica,sans-Serif" font-size="10.00">containers/variables</text>
<text text-anchor="middle" x="1774" y="-454.5" font-family="Helvetica,sans-Serif" font-size="10.00">_list_data_value_container.h</text>
</a>
</g>
</g>
<!-- Node11&#45;&gt;Node43 -->
<g id="edge129" class="edge">
<title>Node11&#45;&gt;Node43</title>
<path fill="none" stroke="midnightblue" d="M1629.73,-570.32C1654.42,-552.04 1712.33,-509.16 1746.8,-483.64"/>
<polygon fill="midnightblue" stroke="midnightblue" points="1749.08,-486.31 1755.03,-477.55 1744.91,-480.68 1749.08,-486.31"/>
</g>
<!-- Node49 -->
<g id="node37" class="node">
<title>Node49</title>
<g id="a_node37"><a xlink:href="../../de/d69/indexed__object_8h.html" target="_top" xlink:title=" ">
<polygon fill="none" stroke="black" points="857,-196 857,-215 979,-215 979,-196 857,-196"/>
<text text-anchor="middle" x="918" y="-203" font-family="Helvetica,sans-Serif" font-size="10.00">utilities/indexed_object.h</text>
</a>
</g>
</g>
<!-- Node11&#45;&gt;Node49 -->
<g id="edge130" class="edge">
<title>Node11&#45;&gt;Node49</title>
<path fill="none" stroke="midnightblue" d="M1575.76,-577.56C1407.24,-571.36 789.44,-544.23 736,-478 688.45,-419.07 606.39,-477.11 813,-257 830.17,-238.71 855.34,-226.29 876.74,-218.34"/>
<polygon fill="midnightblue" stroke="midnightblue" points="877.98,-221.62 886.26,-215 875.66,-215.01 877.98,-221.62"/>
</g>
<!-- Node50 -->
<g id="node38" class="node">
<title>Node50</title>
<g id="a_node38"><a xlink:href="../../d1/dd4/vector__map_8h.html" target="_top" xlink:title=" ">
<polygon fill="none" stroke="black" points="1225.5,-196 1225.5,-215 1348.5,-215 1348.5,-196 1225.5,-196"/>
<text text-anchor="middle" x="1287" y="-203" font-family="Helvetica,sans-Serif" font-size="10.00">containers/vector_map.h</text>
</a>
</g>
</g>
<!-- Node11&#45;&gt;Node50 -->
<g id="edge106" class="edge">
<title>Node11&#45;&gt;Node50</title>
<path fill="none" stroke="midnightblue" d="M1575.89,-576.77C1421.15,-568.04 893,-533.12 893,-463.5 893,-463.5 893,-463.5 893,-400 893,-209.81 1190.45,-439.06 1306,-288 1320.3,-269.31 1308.89,-241.63 1298.59,-223.83"/>
<polygon fill="midnightblue" stroke="midnightblue" points="1301.4,-221.73 1293.15,-215.08 1295.45,-225.42 1301.4,-221.73"/>
</g>
<!-- Node54 -->
<g id="node42" class="node">
<title>Node54</title>
<g id="a_node42"><a xlink:href="../../d4/d35/pointer__vector__set_8h.html" target="_top" xlink:title=" ">
<polygon fill="none" stroke="black" points="2393,-190.5 2393,-220.5 2487,-220.5 2487,-190.5 2393,-190.5"/>
<text text-anchor="start" x="2401" y="-208.5" font-family="Helvetica,sans-Serif" font-size="10.00">containers/pointer</text>
<text text-anchor="middle" x="2440" y="-197.5" font-family="Helvetica,sans-Serif" font-size="10.00">_vector_set.h</text>
</a>
</g>
</g>
<!-- Node11&#45;&gt;Node54 -->
<g id="edge119" class="edge">
<title>Node11&#45;&gt;Node54</title>
<path fill="none" stroke="midnightblue" d="M1660.04,-578.71C1851.78,-576.86 2634,-563.19 2634,-463.5 2634,-463.5 2634,-463.5 2634,-400 2634,-314.61 2538.61,-253.83 2481.61,-225.13"/>
<polygon fill="midnightblue" stroke="midnightblue" points="2482.99,-221.91 2472.47,-220.64 2479.9,-228.19 2482.99,-221.91"/>
</g>
<!-- Node55 -->
<g id="node43" class="node">
<title>Node55</title>
<g id="a_node43"><a xlink:href="../../d5/d10/weak__pointer__vector_8h.html" target="_top" xlink:title=" ">
<polygon fill="none" stroke="black" points="1621,-190.5 1621,-220.5 1743,-220.5 1743,-190.5 1621,-190.5"/>
<text text-anchor="start" x="1629" y="-208.5" font-family="Helvetica,sans-Serif" font-size="10.00">containers/weak_pointer</text>
<text text-anchor="middle" x="1682" y="-197.5" font-family="Helvetica,sans-Serif" font-size="10.00">_vector.h</text>
</a>
</g>
</g>
<!-- Node11&#45;&gt;Node55 -->
<g id="edge131" class="edge">
<title>Node11&#45;&gt;Node55</title>
<path fill="none" stroke="midnightblue" d="M1609.29,-570.17C1584.17,-543.56 1514.82,-461.68 1539,-391 1562.56,-322.13 1623.45,-259.09 1657.69,-227.59"/>
<polygon fill="midnightblue" stroke="midnightblue" points="1660.31,-229.94 1665.38,-220.63 1655.61,-224.75 1660.31,-229.94"/>
</g>
<!-- Node12&#45;&gt;Node2 -->
<g id="edge17" class="edge">
<title>Node12&#45;&gt;Node2</title>
<path fill="none" stroke="midnightblue" d="M2939.2,-262.95C2905.54,-246.2 2827.07,-209.06 2757,-190 2648.25,-160.42 2607.56,-202.85 2506,-154 2487.87,-145.28 2491.32,-131.33 2473,-123 2387.23,-84 2093.1,-74.94 1996.8,-72.99"/>
<polygon fill="midnightblue" stroke="midnightblue" points="1996.63,-69.49 1986.57,-72.8 1996.5,-76.49 1996.63,-69.49"/>
</g>
<!-- Node12&#45;&gt;Node3 -->
<g id="edge18" class="edge">
<title>Node12&#45;&gt;Node3</title>
<path fill="none" stroke="midnightblue" d="M3004.21,-271.26C3168.25,-270.06 3698.08,-262.94 3761,-221 3788.62,-202.59 3786.47,-186.33 3794,-154 3797.13,-140.58 3803.33,-133.14 3794,-123 3755.19,-80.84 3348.67,-73.87 3221.68,-72.73"/>
<polygon fill="midnightblue" stroke="midnightblue" points="3221.34,-69.22 3211.31,-72.64 3221.28,-76.22 3221.34,-69.22"/>
</g>
<!-- Node12&#45;&gt;Node4 -->
<g id="edge20" class="edge">
<title>Node12&#45;&gt;Node4</title>
<path fill="none" stroke="midnightblue" d="M2908,-270.56C2636.36,-265.19 1301.15,-238.02 1216,-221 1178.2,-213.45 1172.33,-199.61 1135,-190 1022.88,-161.12 987.57,-188.34 877,-154 875.37,-153.49 873.73,-152.91 872.09,-152.26"/>
<polygon fill="midnightblue" stroke="midnightblue" points="873.52,-149.07 862.96,-148.14 870.64,-155.45 873.52,-149.07"/>
</g>
<!-- Node12&#45;&gt;Node5 -->
<g id="edge22" class="edge">
<title>Node12&#45;&gt;Node5</title>
<path fill="none" stroke="midnightblue" d="M2907.87,-270.54C2596,-264.3 873.25,-229.49 848,-221 825.67,-213.49 826.29,-200.09 805,-190 748.89,-163.4 715.19,-196.59 670,-154 652.57,-137.58 646.39,-109.67 644.19,-91.16"/>
<polygon fill="midnightblue" stroke="midnightblue" points="647.66,-90.68 643.28,-81.04 640.69,-91.31 647.66,-90.68"/>
</g>
<!-- Node12&#45;&gt;Node7 -->
<g id="edge19" class="edge">
<title>Node12&#45;&gt;Node7</title>
<path fill="none" stroke="midnightblue" d="M3004.22,-271.65C3172.17,-271.74 3724.67,-268.42 3787,-221 3822.61,-193.91 3839.8,-156.37 3810,-123 3713.61,-15.04 1372.51,-11.03 1051.38,-10.98"/>
<polygon fill="midnightblue" stroke="midnightblue" points="1051.23,-7.48 1041.23,-10.98 1051.23,-14.48 1051.23,-7.48"/>
</g>
<!-- Node13 -->
<g id="node13" class="node">
<title>Node13</title>
<g id="a_node13"><a xlink:title=" ">
<polygon fill="none" stroke="#bfbfbf" points="3656.5,-190.5 3656.5,-220.5 3751.5,-220.5 3751.5,-190.5 3656.5,-190.5"/>
<text text-anchor="start" x="3664.5" y="-208.5" font-family="Helvetica,sans-Serif" font-size="10.00">boost/serialization</text>
<text text-anchor="middle" x="3704" y="-197.5" font-family="Helvetica,sans-Serif" font-size="10.00">/base_object.hpp</text>
</a>
</g>
</g>
<!-- Node12&#45;&gt;Node13 -->
<g id="edge21" class="edge">
<title>Node12&#45;&gt;Node13</title>
<path fill="none" stroke="midnightblue" d="M3004.11,-270.54C3116.43,-267.74 3404.43,-257.3 3642,-221 3643.47,-220.78 3644.95,-220.53 3646.45,-220.28"/>
<polygon fill="midnightblue" stroke="midnightblue" points="3647.23,-223.69 3656.42,-218.42 3645.95,-216.81 3647.23,-223.69"/>
</g>
<!-- Node14 -->
<g id="node14" class="node">
<title>Node14</title>
<g id="a_node14"><a xlink:href="../../d9/d36/array__1d_8h.html" target="_top" xlink:title=" ">
<polygon fill="none" stroke="black" points="2923.5,-196 2923.5,-215 3032.5,-215 3032.5,-196 2923.5,-196"/>
<text text-anchor="middle" x="2978" y="-203" font-family="Helvetica,sans-Serif" font-size="10.00">containers/array_1d.h</text>
</a>
</g>
</g>
<!-- Node12&#45;&gt;Node14 -->
<g id="edge23" class="edge">
<title>Node12&#45;&gt;Node14</title>
<path fill="none" stroke="midnightblue" d="M2958.97,-262.73C2962.23,-253.09 2967.58,-237.3 2971.77,-224.91"/>
<polygon fill="midnightblue" stroke="midnightblue" points="2975.19,-225.72 2975.08,-215.13 2968.56,-223.48 2975.19,-225.72"/>
</g>
<!-- Node14&#45;&gt;Node2 -->
<g id="edge24" class="edge">
<title>Node14&#45;&gt;Node2</title>
<path fill="none" stroke="midnightblue" d="M2923.17,-199.6C2815.34,-189.73 2583.16,-167.29 2549,-154 2527.04,-145.46 2528.06,-131.28 2506,-123 2411.48,-87.54 2096.42,-76.05 1996.61,-73.26"/>
<polygon fill="midnightblue" stroke="midnightblue" points="1996.66,-69.76 1986.57,-72.99 1996.48,-76.75 1996.66,-69.76"/>
</g>
<!-- Node14&#45;&gt;Node3 -->
<g id="edge25" class="edge">
<title>Node14&#45;&gt;Node3</title>
<path fill="none" stroke="midnightblue" d="M3032.76,-204.87C3193.67,-205.4 3656.64,-202.63 3702,-154 3711.4,-143.92 3711.26,-133.2 3702,-123 3669.8,-87.51 3335.21,-76.16 3221.54,-73.31"/>
<polygon fill="midnightblue" stroke="midnightblue" points="3221.33,-69.81 3211.25,-73.06 3221.16,-76.81 3221.33,-69.81"/>
</g>
<!-- Node14&#45;&gt;Node5 -->
<g id="edge27" class="edge">
<title>Node14&#45;&gt;Node5</title>
<path fill="none" stroke="midnightblue" d="M2923.43,-202.81C2834.08,-200.06 2651.02,-194.46 2496,-190 2350.45,-185.81 1327.67,-187.66 1186,-154 1154.47,-146.51 1151.21,-131.72 1120,-123 971.29,-81.48 787.78,-73.61 697.88,-72.43"/>
<polygon fill="midnightblue" stroke="midnightblue" points="697.69,-68.93 687.65,-72.32 697.61,-75.93 697.69,-68.93"/>
</g>
<!-- Node15 -->
<g id="node15" class="node">
<title>Node15</title>
<g id="a_node15"><a xlink:title=" ">
<polygon fill="none" stroke="#bfbfbf" points="3326.5,-129 3326.5,-148 3409.5,-148 3409.5,-129 3326.5,-129"/>
<text text-anchor="middle" x="3368" y="-136" font-family="Helvetica,sans-Serif" font-size="10.00">boost/array.hpp</text>
</a>
</g>
</g>
<!-- Node14&#45;&gt;Node15 -->
<g id="edge26" class="edge">
<title>Node14&#45;&gt;Node15</title>
<path fill="none" stroke="midnightblue" d="M3032.69,-197.99C3099.09,-189.69 3214.32,-173.97 3312,-154 3317.04,-152.97 3322.3,-151.77 3327.49,-150.51"/>
<polygon fill="midnightblue" stroke="midnightblue" points="3328.47,-153.88 3337.32,-148.05 3326.77,-147.09 3328.47,-153.88"/>
</g>
<!-- Node16 -->
<g id="node16" class="node">
<title>Node16</title>
<g id="a_node16"><a xlink:href="../../d9/d3e/ublas__interface_8h.html" target="_top" xlink:title=" ">
<polygon fill="none" stroke="red" points="2558.5,-129 2558.5,-148 2687.5,-148 2687.5,-129 2558.5,-129"/>
<text text-anchor="middle" x="2623" y="-136" font-family="Helvetica,sans-Serif" font-size="10.00">includes/ublas_interface.h</text>
</a>
</g>
</g>
<!-- Node14&#45;&gt;Node16 -->
<g id="edge28" class="edge">
<title>Node14&#45;&gt;Node16</title>
<path fill="none" stroke="midnightblue" d="M2931.22,-195.94C2866.35,-184.06 2749.21,-162.61 2679.52,-149.85"/>
<polygon fill="midnightblue" stroke="midnightblue" points="2680.06,-146.39 2669.6,-148.03 2678.8,-153.28 2680.06,-146.39"/>
</g>
<!-- Node20 -->
<g id="node19" class="node">
<title>Node20</title>
<g id="a_node19"><a xlink:title=" ">
<polygon fill="none" stroke="#bfbfbf" points="2903,-56.5 2903,-86.5 3019,-86.5 3019,-56.5 2903,-56.5"/>
<text text-anchor="start" x="2911" y="-74.5" font-family="Helvetica,sans-Serif" font-size="10.00">boost/numeric/ublas</text>
<text text-anchor="middle" x="2961" y="-63.5" font-family="Helvetica,sans-Serif" font-size="10.00">/vector_expression.hpp</text>
</a>
</g>
</g>
<!-- Node14&#45;&gt;Node20 -->
<g id="edge35" class="edge">
<title>Node14&#45;&gt;Node20</title>
<path fill="none" stroke="midnightblue" d="M3032.6,-204.77C3190.76,-205 3640.84,-201.42 3685,-154 3694.39,-143.92 3694.41,-133.06 3685,-123 3644.15,-79.32 3207.64,-91.31 3148,-87 3108.69,-84.16 3064.74,-80.76 3029.33,-77.97"/>
<polygon fill="midnightblue" stroke="midnightblue" points="3029.35,-74.46 3019.11,-77.16 3028.8,-81.44 3029.35,-74.46"/>
</g>
<!-- Node32 -->
<g id="node20" class="node">
<title>Node32</title>
<g id="a_node20"><a xlink:title=" ">
<polygon fill="none" stroke="#bfbfbf" points="3428,-123.5 3428,-153.5 3532,-153.5 3532,-123.5 3428,-123.5"/>
<text text-anchor="start" x="3436" y="-141.5" font-family="Helvetica,sans-Serif" font-size="10.00">boost/numeric/ublas</text>
<text text-anchor="middle" x="3480" y="-130.5" font-family="Helvetica,sans-Serif" font-size="10.00">/storage.hpp</text>
</a>
</g>
</g>
<!-- Node14&#45;&gt;Node32 -->
<g id="edge36" class="edge">
<title>Node14&#45;&gt;Node32</title>
<path fill="none" stroke="midnightblue" d="M3032.82,-200.26C3116.35,-193.33 3280.31,-177.92 3418,-154 3418.1,-153.98 3418.2,-153.96 3418.31,-153.95"/>
<polygon fill="midnightblue" stroke="midnightblue" points="3418.81,-157.41 3427.99,-152.12 3417.52,-150.53 3418.81,-157.41"/>
</g>
<!-- Node33 -->
<g id="node21" class="node">
<title>Node33</title>
<g id="a_node21"><a xlink:title=" ">
<polygon fill="none" stroke="#bfbfbf" points="3550.5,-123.5 3550.5,-153.5 3675.5,-153.5 3675.5,-123.5 3550.5,-123.5"/>
<text text-anchor="start" x="3558.5" y="-141.5" font-family="Helvetica,sans-Serif" font-size="10.00">boost/numeric/ublas</text>
<text text-anchor="middle" x="3613" y="-130.5" font-family="Helvetica,sans-Serif" font-size="10.00">/detail/vector_assign.hpp</text>
</a>
</g>
</g>
<!-- Node14&#45;&gt;Node33 -->
<g id="edge37" class="edge">
<title>Node14&#45;&gt;Node33</title>
<path fill="none" stroke="midnightblue" d="M3032.58,-201.59C3131.68,-195.88 3347.95,-181.42 3540.23,-154"/>
<polygon fill="midnightblue" stroke="midnightblue" points="3540.84,-157.45 3550.24,-152.56 3539.84,-150.52 3540.84,-157.45"/>
</g>
<!-- Node16&#45;&gt;Node2 -->
<g id="edge29" class="edge">
<title>Node16&#45;&gt;Node2</title>
<path fill="none" stroke="midnightblue" d="M2580.48,-128.93C2568.7,-126.77 2555.88,-124.61 2544,-123 2335.79,-94.86 2083.17,-79.05 1996.72,-74.16"/>
<polygon fill="midnightblue" stroke="midnightblue" points="1996.73,-70.66 1986.55,-73.59 1996.34,-77.64 1996.73,-70.66"/>
</g>
<!-- Node16&#45;&gt;Node3 -->
<g id="edge30" class="edge">
<title>Node16&#45;&gt;Node3</title>
<path fill="none" stroke="midnightblue" d="M2665.95,-128.99C2677.62,-126.85 2690.27,-124.69 2702,-123 2788.08,-110.61 3049.43,-85.3 3146.86,-76.02"/>
<polygon fill="midnightblue" stroke="midnightblue" points="3147.22,-79.5 3156.84,-75.07 3146.55,-72.53 3147.22,-79.5"/>
</g>
<!-- Node16&#45;&gt;Node5 -->
<g id="edge34" class="edge">
<title>Node16&#45;&gt;Node5</title>
<path fill="none" stroke="midnightblue" d="M2558.47,-130.28C2532.02,-127.58 2501.07,-124.74 2473,-123 2292.24,-111.78 982.63,-80.51 697.65,-73.78"/>
<polygon fill="midnightblue" stroke="midnightblue" points="697.64,-70.28 687.56,-73.55 697.47,-77.28 697.64,-70.28"/>
</g>
<!-- Node17 -->
<g id="node17" class="node">
<title>Node17</title>
<g id="a_node17"><a xlink:title=" ">
<polygon fill="none" stroke="#bfbfbf" points="2455,-56.5 2455,-86.5 2559,-86.5 2559,-56.5 2455,-56.5"/>
<text text-anchor="start" x="2463" y="-74.5" font-family="Helvetica,sans-Serif" font-size="10.00">boost/numeric/ublas</text>
<text text-anchor="middle" x="2507" y="-63.5" font-family="Helvetica,sans-Serif" font-size="10.00">/vector.hpp</text>
</a>
</g>
</g>
<!-- Node16&#45;&gt;Node17 -->
<g id="edge31" class="edge">
<title>Node16&#45;&gt;Node17</title>
<path fill="none" stroke="midnightblue" d="M2607.36,-128.73C2590.47,-119.27 2563.06,-103.91 2541.15,-91.64"/>
<polygon fill="midnightblue" stroke="midnightblue" points="2542.58,-88.42 2532.14,-86.59 2539.16,-94.53 2542.58,-88.42"/>
</g>
<!-- Node18 -->
<g id="node18" class="node">
<title>Node18</title>
<g id="a_node18"><a xlink:title=" ">
<polygon fill="none" stroke="#bfbfbf" points="2577,-56.5 2577,-86.5 2681,-86.5 2681,-56.5 2577,-56.5"/>
<text text-anchor="start" x="2585" y="-74.5" font-family="Helvetica,sans-Serif" font-size="10.00">boost/numeric/ublas</text>
<text text-anchor="middle" x="2629" y="-63.5" font-family="Helvetica,sans-Serif" font-size="10.00">/vector_proxy.hpp</text>
</a>
</g>
</g>
<!-- Node16&#45;&gt;Node18 -->
<g id="edge32" class="edge">
<title>Node16&#45;&gt;Node18</title>
<path fill="none" stroke="midnightblue" d="M2623.81,-128.73C2624.57,-120.54 2625.73,-107.92 2626.76,-96.71"/>
<polygon fill="midnightblue" stroke="midnightblue" points="2630.27,-96.87 2627.7,-86.59 2623.3,-96.22 2630.27,-96.87"/>
</g>
<!-- Node16&#45;&gt;Node20 -->
<g id="edge33" class="edge">
<title>Node16&#45;&gt;Node20</title>
<path fill="none" stroke="midnightblue" d="M2667.54,-128.94C2725,-117.89 2825.53,-98.55 2892.69,-85.64"/>
<polygon fill="midnightblue" stroke="midnightblue" points="2893.6,-89.03 2902.76,-83.7 2892.28,-82.15 2893.6,-89.03"/>
</g>
<!-- Node34&#45;&gt;Node2 -->
<g id="edge39" class="edge">
<title>Node34&#45;&gt;Node2</title>
<path fill="none" stroke="midnightblue" d="M2220.42,-514.41C2247.44,-491.54 2320.1,-426.05 2356,-355 2389.31,-289.07 2382.31,-247.56 2336,-190 2306.93,-153.87 2298.06,-142.54 2256,-123 2168.23,-82.23 2051.62,-74.15 1996.87,-72.7"/>
<polygon fill="midnightblue" stroke="midnightblue" points="1996.84,-69.2 1986.77,-72.49 1996.69,-76.19 1996.84,-69.2"/>
</g>
<!-- Node34&#45;&gt;Node3 -->
<g id="edge40" class="edge">
<title>Node34&#45;&gt;Node3</title>
<path fill="none" stroke="midnightblue" d="M2248.72,-522.08C2473.48,-516.08 3610.35,-476.66 3893,-288 3954.69,-246.82 3974.94,-170.53 3918,-123 3864.24,-78.13 3364.01,-73.08 3221.64,-72.55"/>
<polygon fill="midnightblue" stroke="midnightblue" points="3221.27,-69.05 3211.26,-72.52 3221.25,-76.05 3221.27,-69.05"/>
</g>
<!-- Node34&#45;&gt;Node4 -->
<g id="edge42" class="edge">
<title>Node34&#45;&gt;Node4</title>
<path fill="none" stroke="midnightblue" d="M2171.3,-521.67C2085.19,-518.27 1871.4,-507.35 1695,-478 1470.53,-440.65 1404.26,-451.1 1198,-355 1152.15,-333.64 1144.61,-320.68 1106,-288 1058.5,-247.8 1059.89,-221.12 1006,-190 954.45,-160.23 932.54,-175.41 877,-154 875.62,-153.47 874.22,-152.89 872.82,-152.29"/>
<polygon fill="midnightblue" stroke="midnightblue" points="874.25,-149.1 863.71,-148.04 871.29,-155.44 874.25,-149.1"/>
</g>
<!-- Node34&#45;&gt;Node5 -->
<g id="edge44" class="edge">
<title>Node34&#45;&gt;Node5</title>
<path fill="none" stroke="midnightblue" d="M2171.22,-522.64C1952.71,-520.53 879.83,-508.63 736,-478 475.25,-422.48 331.07,-449.66 194,-221 171.6,-183.64 163.97,-155.47 193,-123 218.91,-94.02 473.49,-79.67 587.86,-74.65"/>
<polygon fill="midnightblue" stroke="midnightblue" points="588.31,-78.13 598.15,-74.2 588.01,-71.14 588.31,-78.13"/>
</g>
<!-- Node34&#45;&gt;Node7 -->
<g id="edge41" class="edge">
<title>Node34&#45;&gt;Node7</title>
<path fill="none" stroke="midnightblue" d="M2248.77,-523.34C2513.64,-525.19 4046,-527.79 4046,-340.5 4046,-340.5 4046,-340.5 4046,-271.5 4046,-205.21 4103.9,-172.68 4060,-123 3899.87,58.23 3761.24,-73.08 3520,-56 3009.42,-19.84 1320.38,-12.13 1051.28,-11.13"/>
<polygon fill="midnightblue" stroke="midnightblue" points="1051.28,-7.63 1041.26,-11.09 1051.25,-14.63 1051.28,-7.63"/>
</g>
<!-- Node34&#45;&gt;Node14 -->
<g id="edge104" class="edge">
<title>Node34&#45;&gt;Node14</title>
<path fill="none" stroke="midnightblue" d="M2248.78,-523.51C2353.92,-524.28 2641.99,-522.19 2724,-478 2834.3,-418.57 2806.05,-341.01 2899,-257 2915.15,-242.4 2935.99,-229.27 2952.21,-220.06"/>
<polygon fill="midnightblue" stroke="midnightblue" points="2954.1,-223.02 2961.16,-215.11 2950.71,-216.89 2954.1,-223.02"/>
</g>
<!-- Node35 -->
<g id="node23" class="node">
<title>Node35</title>
<g id="a_node23"><a xlink:title=" ">
<polygon fill="none" stroke="#bfbfbf" points="2090.5,-453 2090.5,-472 2181.5,-472 2181.5,-453 2090.5,-453"/>
<text text-anchor="middle" x="2136" y="-460" font-family="Helvetica,sans-Serif" font-size="10.00">boost/variant.hpp</text>
</a>
</g>
</g>
<!-- Node34&#45;&gt;Node35 -->
<g id="edge43" class="edge">
<title>Node34&#45;&gt;Node35</title>
<path fill="none" stroke="midnightblue" d="M2199.4,-514.48C2187.75,-505.11 2168.81,-489.88 2154.67,-478.51"/>
<polygon fill="midnightblue" stroke="midnightblue" points="2156.57,-475.55 2146.58,-472.01 2152.18,-481 2156.57,-475.55"/>
</g>
<!-- Node34&#45;&gt;Node36 -->
<g id="edge45" class="edge">
<title>Node34&#45;&gt;Node36</title>
<path fill="none" stroke="midnightblue" d="M2248.58,-522.35C2330.59,-520.3 2519.1,-511.95 2572,-478 2626.08,-443.3 2630.44,-416.82 2648,-355 2677.69,-250.45 2523.16,-178.86 2451.24,-151.67"/>
<polygon fill="midnightblue" stroke="midnightblue" points="2452.26,-148.32 2441.66,-148.13 2449.83,-154.88 2452.26,-148.32"/>
</g>
<!-- Node34&#45;&gt;Node37 -->
<g id="edge49" class="edge">
<title>Node34&#45;&gt;Node37</title>
<path fill="none" stroke="midnightblue" d="M2212.75,-514.2C2221.16,-487.28 2246.73,-405.4 2259.53,-364.41"/>
<polygon fill="midnightblue" stroke="midnightblue" points="2262.93,-365.28 2262.57,-354.69 2256.24,-363.2 2262.93,-365.28"/>
</g>
<!-- Node34&#45;&gt;Node43 -->
<g id="edge73" class="edge">
<title>Node34&#45;&gt;Node43</title>
<path fill="none" stroke="midnightblue" d="M2171.31,-517.72C2100.43,-508.05 1948.4,-487.3 1854.31,-474.46"/>
<polygon fill="midnightblue" stroke="midnightblue" points="1854.64,-470.97 1844.26,-473.09 1853.7,-477.91 1854.64,-470.97"/>
</g>
<!-- Node48 -->
<g id="node36" class="node">
<title>Node48</title>
<g id="a_node36"><a xlink:href="../../dc/d8f/vector__component__adaptor_8h.html" target="_top" xlink:title=" ">
<polygon fill="none" stroke="black" points="1960.5,-324.5 1960.5,-354.5 2105.5,-354.5 2105.5,-324.5 1960.5,-324.5"/>
<text text-anchor="start" x="1968.5" y="-342.5" font-family="Helvetica,sans-Serif" font-size="10.00">containers/vector_component</text>
<text text-anchor="middle" x="2033" y="-331.5" font-family="Helvetica,sans-Serif" font-size="10.00">_adaptor.h</text>
</a>
</g>
</g>
<!-- Node34&#45;&gt;Node48 -->
<g id="edge93" class="edge">
<title>Node34&#45;&gt;Node48</title>
<path fill="none" stroke="midnightblue" d="M2209.65,-514.19C2208.66,-499.11 2204.82,-467.93 2190,-447 2161.26,-406.41 2111.8,-376.65 2076.06,-359.06"/>
<polygon fill="midnightblue" stroke="midnightblue" points="2077.37,-355.81 2066.83,-354.64 2074.34,-362.12 2077.37,-355.81"/>
</g>
<!-- Node34&#45;&gt;Node49 -->
<g id="edge98" class="edge">
<title>Node34&#45;&gt;Node49</title>
<path fill="none" stroke="midnightblue" d="M2171.26,-522.61C2061.75,-521.09 1740.75,-513.69 1477,-478 1333.87,-458.63 1299.37,-445.02 1159,-411 1067.62,-388.85 1020.69,-422.27 955,-355 920.43,-319.6 916.58,-257.13 917.04,-225.7"/>
<polygon fill="midnightblue" stroke="midnightblue" points="920.55,-225.4 917.38,-215.29 913.56,-225.18 920.55,-225.4"/>
</g>
<!-- Node36&#45;&gt;Node2 -->
<g id="edge46" class="edge">
<title>Node36&#45;&gt;Node2</title>
<path fill="none" stroke="midnightblue" d="M2382.34,-128.98C2373.19,-126.84 2363.25,-124.68 2354,-123 2221.99,-99.04 2062.73,-81.99 1996.84,-75.45"/>
<polygon fill="midnightblue" stroke="midnightblue" points="1997.02,-71.95 1986.72,-74.46 1996.33,-78.92 1997.02,-71.95"/>
</g>
<!-- Node36&#45;&gt;Node3 -->
<g id="edge47" class="edge">
<title>Node36&#45;&gt;Node3</title>
<path fill="none" stroke="midnightblue" d="M2464.29,-131.84C2489.51,-128.98 2520.9,-125.59 2549,-123 2761.59,-103.43 2815.26,-104.88 3028,-87 3068.67,-83.58 3115.25,-79.19 3146.85,-76.14"/>
<polygon fill="midnightblue" stroke="midnightblue" points="3147.34,-79.61 3156.96,-75.16 3146.67,-72.64 3147.34,-79.61"/>
</g>
<!-- Node36&#45;&gt;Node5 -->
<g id="edge48" class="edge">
<title>Node36&#45;&gt;Node5</title>
<path fill="none" stroke="midnightblue" d="M2367.85,-134.8C2311.2,-131.68 2214.28,-126.53 2131,-123 1571.53,-99.28 893.35,-79.54 698.03,-74.03"/>
<polygon fill="midnightblue" stroke="midnightblue" points="697.84,-70.53 687.75,-73.74 697.65,-77.52 697.84,-70.53"/>
</g>
<!-- Node37&#45;&gt;Node2 -->
<g id="edge50" class="edge">
<title>Node37&#45;&gt;Node2</title>
<path fill="none" stroke="midnightblue" d="M2271.34,-324.33C2275.68,-307.81 2280.83,-279.86 2274,-257 2253.59,-188.74 2244.49,-163.68 2186,-123 2127.77,-82.5 2041.91,-74.03 1996.6,-72.54"/>
<polygon fill="midnightblue" stroke="midnightblue" points="1996.59,-69.03 1986.52,-72.3 1996.43,-76.03 1996.59,-69.03"/>
</g>
<!-- Node37&#45;&gt;Node3 -->
<g id="edge51" class="edge">
<title>Node37&#45;&gt;Node3</title>
<path fill="none" stroke="midnightblue" d="M2323.33,-336.91C2602.46,-328.97 3824.41,-293.93 3832,-288 3891.29,-241.66 3921.22,-178.13 3870,-123 3825.68,-75.3 3358.99,-72.22 3221.75,-72.36"/>
<polygon fill="midnightblue" stroke="midnightblue" points="3221.34,-68.86 3211.34,-72.37 3221.35,-75.86 3221.34,-68.86"/>
</g>
<!-- Node37&#45;&gt;Node4 -->
<g id="edge52" class="edge">
<title>Node37&#45;&gt;Node4</title>
<path fill="none" stroke="midnightblue" d="M2263.42,-324.26C2257.77,-305.14 2244.79,-271.87 2220,-257 2116.57,-194.94 1247.94,-263.35 1135,-221 1114.59,-213.35 1116.87,-198.95 1097,-190 1006.66,-149.31 971.27,-184.5 877,-154 875.38,-153.48 873.74,-152.87 872.1,-152.22"/>
<polygon fill="midnightblue" stroke="midnightblue" points="873.54,-149.03 862.99,-148.07 870.64,-155.4 873.54,-149.03"/>
</g>
<!-- Node37&#45;&gt;Node5 -->
<g id="edge54" class="edge">
<title>Node37&#45;&gt;Node5</title>
<path fill="none" stroke="midnightblue" d="M2217.78,-324.46C2185.24,-314.89 2141.79,-301.53 2104,-288 2069.66,-275.7 2063.69,-264.53 2028,-257 1890.85,-228.07 897.7,-271.65 767,-221 747.31,-213.37 749.43,-200.3 731,-190 684.99,-164.28 649.1,-196.55 618,-154 603.79,-134.57 617.73,-106.93 629.78,-89.36"/>
<polygon fill="midnightblue" stroke="midnightblue" points="632.68,-91.32 635.76,-81.18 627.03,-87.19 632.68,-91.32"/>
</g>
<!-- Node38 -->
<g id="node26" class="node">
<title>Node38</title>
<g id="a_node26"><a xlink:title=" ">
<polygon fill="none" stroke="#bfbfbf" points="1894,-129 1894,-148 1938,-148 1938,-129 1894,-129"/>
<text text-anchor="middle" x="1916" y="-136" font-family="Helvetica,sans-Serif" font-size="10.00">vector</text>
</a>
</g>
</g>
<!-- Node37&#45;&gt;Node38 -->
<g id="edge53" class="edge">
<title>Node37&#45;&gt;Node38</title>
<path fill="none" stroke="midnightblue" d="M2268.47,-324.44C2269.53,-306.74 2268.63,-276.3 2253,-257 2213.43,-208.14 2024.79,-162.9 1948.31,-146.25"/>
<polygon fill="midnightblue" stroke="midnightblue" points="1948.81,-142.78 1938.3,-144.09 1947.33,-149.62 1948.81,-142.78"/>
</g>
<!-- Node39 -->
<g id="node27" class="node">
<title>Node39</title>
<g id="a_node27"><a xlink:href="../../da/d89/variable_8h.html" target="_top" xlink:title=" ">
<polygon fill="none" stroke="black" points="1913,-263 1913,-282 2019,-282 2019,-263 1913,-263"/>
<text text-anchor="middle" x="1966" y="-270" font-family="Helvetica,sans-Serif" font-size="10.00">containers/variable.h</text>
</a>
</g>
</g>
<!-- Node37&#45;&gt;Node39 -->
<g id="edge55" class="edge">
<title>Node37&#45;&gt;Node39</title>
<path fill="none" stroke="midnightblue" d="M2210.73,-326.37C2163.33,-316.14 2093.73,-301.12 2033,-288 2027.26,-286.76 2021.25,-285.46 2015.28,-284.17"/>
<polygon fill="midnightblue" stroke="midnightblue" points="2015.84,-280.71 2005.32,-282.01 2014.36,-287.55 2015.84,-280.71"/>
</g>
<!-- Node42 -->
<g id="node30" class="node">
<title>Node42</title>
<g id="a_node30"><a xlink:href="../../d4/d59/variable__component_8h.html" target="_top" xlink:title=" ">
<polygon fill="none" stroke="black" points="2113,-257.5 2113,-287.5 2211,-287.5 2211,-257.5 2113,-257.5"/>
<text text-anchor="start" x="2121" y="-275.5" font-family="Helvetica,sans-Serif" font-size="10.00">containers/variable</text>
<text text-anchor="middle" x="2162" y="-264.5" font-family="Helvetica,sans-Serif" font-size="10.00">_component.h</text>
</a>
</g>
</g>
<!-- Node37&#45;&gt;Node42 -->
<g id="edge68" class="edge">
<title>Node37&#45;&gt;Node42</title>
<path fill="none" stroke="midnightblue" d="M2244.22,-324.4C2229.36,-315.2 2209.76,-303.07 2193.43,-292.95"/>
<polygon fill="midnightblue" stroke="midnightblue" points="2195.08,-289.86 2184.74,-287.58 2191.4,-295.82 2195.08,-289.86"/>
</g>
<!-- Node39&#45;&gt;Node2 -->
<g id="edge56" class="edge">
<title>Node39&#45;&gt;Node2</title>
<path fill="none" stroke="midnightblue" d="M1966,-262.95C1966,-233.16 1966,-133.51 1966,-91.47"/>
<polygon fill="midnightblue" stroke="midnightblue" points="1969.5,-91.24 1966,-81.24 1962.5,-91.24 1969.5,-91.24"/>
</g>
<!-- Node39&#45;&gt;Node3 -->
<g id="edge57" class="edge">
<title>Node39&#45;&gt;Node3</title>
<path fill="none" stroke="midnightblue" d="M2019.04,-265.45C2044.68,-262.65 2075.92,-259.41 2104,-257 2343.21,-236.45 2404.87,-251.62 2643,-221 2715.71,-211.65 2732.46,-200.6 2805,-190 2883.46,-178.54 3098.98,-204.64 3160,-154 3178.42,-138.72 3183.13,-110.07 3184.11,-91.14"/>
<polygon fill="midnightblue" stroke="midnightblue" points="3187.61,-91.12 3184.33,-81.05 3180.61,-90.97 3187.61,-91.12"/>
</g>
<!-- Node39&#45;&gt;Node5 -->
<g id="edge58" class="edge">
<title>Node39&#45;&gt;Node5</title>
<path fill="none" stroke="midnightblue" d="M1912.9,-270.15C1684.56,-264.25 795.27,-240.11 739,-221 716.35,-213.31 716.98,-199.44 695,-190 620.03,-157.81 566.72,-217.09 515,-154 487.63,-120.62 547.73,-96.58 594.54,-83.6"/>
<polygon fill="midnightblue" stroke="midnightblue" points="595.53,-86.96 604.29,-81 593.73,-80.2 595.53,-86.96"/>
</g>
<!-- Node40 -->
<g id="node28" class="node">
<title>Node40</title>
<g id="a_node28"><a xlink:href="../../d3/dc3/variable__data_8h.html" target="_top" xlink:title=" ">
<polygon fill="none" stroke="black" points="1994,-196 1994,-215 2076,-215 2076,-196 1994,-196"/>
<text text-anchor="middle" x="2035" y="-203" font-family="Helvetica,sans-Serif" font-size="10.00">variable_data.h</text>
</a>
</g>
</g>
<!-- Node39&#45;&gt;Node40 -->
<g id="edge59" class="edge">
<title>Node39&#45;&gt;Node40</title>
<path fill="none" stroke="midnightblue" d="M1975.31,-262.73C1986.27,-252.4 2004.71,-235.04 2018.19,-222.33"/>
<polygon fill="midnightblue" stroke="midnightblue" points="2020.96,-224.53 2025.84,-215.13 2016.16,-219.44 2020.96,-224.53"/>
</g>
<!-- Node40&#45;&gt;Node2 -->
<g id="edge60" class="edge">
<title>Node40&#45;&gt;Node2</title>
<path fill="none" stroke="midnightblue" d="M2030.47,-195.84C2019.26,-174.39 1990.04,-118.49 1975.09,-89.9"/>
<polygon fill="midnightblue" stroke="midnightblue" points="1978.19,-88.26 1970.45,-81.02 1971.99,-91.5 1978.19,-88.26"/>
</g>
<!-- Node40&#45;&gt;Node3 -->
<g id="edge61" class="edge">
<title>Node40&#45;&gt;Node3</title>
<path fill="none" stroke="midnightblue" d="M2076.11,-202.72C2230.24,-195.92 2768.89,-171.18 2844,-154 2879.56,-145.87 2885.02,-133.37 2920,-123 2999.32,-99.49 3095.39,-84.32 3146.97,-77.22"/>
<polygon fill="midnightblue" stroke="midnightblue" points="3147.53,-80.67 3156.98,-75.87 3146.6,-73.74 3147.53,-80.67"/>
</g>
<!-- Node40&#45;&gt;Node4 -->
<g id="edge62" class="edge">
<title>Node40&#45;&gt;Node4</title>
<path fill="none" stroke="midnightblue" d="M1993.8,-202.39C1834.64,-194.21 1259.69,-164.6 1077,-154 1008.15,-150.01 927.69,-144.78 882.82,-141.82"/>
<polygon fill="midnightblue" stroke="midnightblue" points="882.94,-138.32 872.73,-141.15 882.48,-145.3 882.94,-138.32"/>
</g>
<!-- Node40&#45;&gt;Node5 -->
<g id="edge63" class="edge">
<title>Node40&#45;&gt;Node5</title>
<path fill="none" stroke="midnightblue" d="M1993.88,-202.33C1818.03,-193.05 1137.08,-157 1115,-154 1050.99,-145.31 1036.51,-134.78 973,-123 876.58,-105.12 763.46,-88.81 697.83,-79.81"/>
<polygon fill="midnightblue" stroke="midnightblue" points="698.1,-76.32 687.72,-78.43 697.15,-83.25 698.1,-76.32"/>
</g>
<!-- Node41 -->
<g id="node29" class="node">
<title>Node41</title>
<g id="a_node29"><a xlink:href="../../d7/da2/counter_8h.html" target="_top" xlink:title=" ">
<polygon fill="none" stroke="black" points="2032,-129 2032,-148 2122,-148 2122,-129 2032,-129"/>
<text text-anchor="middle" x="2077" y="-136" font-family="Helvetica,sans-Serif" font-size="10.00">utilities/counter.h</text>
</a>
</g>
</g>
<!-- Node40&#45;&gt;Node41 -->
<g id="edge64" class="edge">
<title>Node40&#45;&gt;Node41</title>
<path fill="none" stroke="midnightblue" d="M2040.66,-195.73C2047.09,-185.79 2057.72,-169.34 2065.83,-156.79"/>
<polygon fill="midnightblue" stroke="midnightblue" points="2068.94,-158.43 2071.43,-148.13 2063.06,-154.63 2068.94,-158.43"/>
</g>
<!-- Node41&#45;&gt;Node2 -->
<g id="edge65" class="edge">
<title>Node41&#45;&gt;Node2</title>
<path fill="none" stroke="midnightblue" d="M2062.03,-128.73C2043.39,-117.82 2011.34,-99.05 1989.43,-86.22"/>
<polygon fill="midnightblue" stroke="midnightblue" points="1991.13,-83.16 1980.73,-81.13 1987.59,-89.2 1991.13,-83.16"/>
</g>
<!-- Node41&#45;&gt;Node3 -->
<g id="edge66" class="edge">
<title>Node41&#45;&gt;Node3</title>
<path fill="none" stroke="midnightblue" d="M2122.29,-135.15C2305.28,-125.62 2982.4,-90.33 3028,-87 3068.7,-84.03 3115.28,-79.56 3146.87,-76.37"/>
<polygon fill="midnightblue" stroke="midnightblue" points="3147.38,-79.83 3156.97,-75.34 3146.67,-72.87 3147.38,-79.83"/>
</g>
<!-- Node41&#45;&gt;Node5 -->
<g id="edge67" class="edge">
<title>Node41&#45;&gt;Node5</title>
<path fill="none" stroke="midnightblue" d="M2031.95,-131.66C2006.97,-128.63 1975.31,-125.12 1947,-123 1463.55,-86.73 877.2,-75.81 697.77,-73.2"/>
<polygon fill="midnightblue" stroke="midnightblue" points="697.59,-69.7 687.54,-73.06 697.49,-76.7 697.59,-69.7"/>
</g>
<!-- Node42&#45;&gt;Node2 -->
<g id="edge69" class="edge">
<title>Node42&#45;&gt;Node2</title>
<path fill="none" stroke="midnightblue" d="M2167.39,-257.43C2177.36,-228.75 2195.01,-162.91 2164,-123 2143.63,-96.78 2047.19,-81.9 1996.81,-75.8"/>
<polygon fill="midnightblue" stroke="midnightblue" points="1997.15,-72.32 1986.81,-74.63 1996.33,-79.27 1997.15,-72.32"/>
</g>
<!-- Node42&#45;&gt;Node3 -->
<g id="edge70" class="edge">
<title>Node42&#45;&gt;Node3</title>
<path fill="none" stroke="midnightblue" d="M2211.09,-269.68C2470,-259.83 3667.07,-211.32 3719,-154 3728.25,-143.79 3728.27,-133.19 3719,-123 3685.55,-86.24 3337.08,-75.69 3221.22,-73.18"/>
<polygon fill="midnightblue" stroke="midnightblue" points="3221.14,-69.68 3211.07,-72.97 3220.99,-76.68 3221.14,-69.68"/>
</g>
<!-- Node42&#45;&gt;Node5 -->
<g id="edge71" class="edge">
<title>Node42&#45;&gt;Node5</title>
<path fill="none" stroke="midnightblue" d="M2112.81,-263.29C2096.38,-260.86 2077.94,-258.46 2061,-257 1923.01,-245.14 947.27,-262.08 815,-221 790.75,-213.47 790.25,-200.22 767,-190 708.98,-164.48 667.75,-204.16 629,-154 614.85,-135.68 624.08,-108.1 632.85,-90.2"/>
<polygon fill="midnightblue" stroke="midnightblue" points="636.06,-91.62 637.65,-81.14 629.88,-88.34 636.06,-91.62"/>
</g>
<!-- Node42&#45;&gt;Node40 -->
<g id="edge72" class="edge">
<title>Node42&#45;&gt;Node40</title>
<path fill="none" stroke="midnightblue" d="M2134.44,-257.4C2112.55,-246.19 2082.17,-230.64 2060.76,-219.69"/>
<polygon fill="midnightblue" stroke="midnightblue" points="2062.12,-216.45 2051.62,-215.01 2058.93,-222.68 2062.12,-216.45"/>
</g>
<!-- Node43&#45;&gt;Node2 -->
<g id="edge74" class="edge">
<title>Node43&#45;&gt;Node2</title>
<path fill="none" stroke="midnightblue" d="M1844.03,-458.84C1979.78,-452.04 2270.79,-429 2332,-355 2405.1,-266.63 2316.54,-183.33 2219,-123 2148.38,-79.32 2047.35,-72.42 1997,-71.94"/>
<polygon fill="midnightblue" stroke="midnightblue" points="1996.77,-68.44 1986.77,-71.92 1996.76,-75.44 1996.77,-68.44"/>
</g>
<!-- Node43&#45;&gt;Node3 -->
<g id="edge75" class="edge">
<title>Node43&#45;&gt;Node3</title>
<path fill="none" stroke="midnightblue" d="M1844.38,-455.44C2070.86,-435.97 2801.31,-373.39 3406,-324 3507.09,-315.74 3773.44,-339.2 3861,-288 3925.48,-250.29 3948.91,-172.54 3893,-123 3842.48,-78.23 3360.4,-73.1 3221.36,-72.55"/>
<polygon fill="midnightblue" stroke="midnightblue" points="3221.22,-69.05 3211.21,-72.52 3221.2,-76.05 3221.22,-69.05"/>
</g>
<!-- Node43&#45;&gt;Node4 -->
<g id="edge76" class="edge">
<title>Node43&#45;&gt;Node4</title>
<path fill="none" stroke="midnightblue" d="M1703.96,-448.1C1657.04,-438.72 1594.02,-425.34 1539,-411 1359.02,-364.08 1293.32,-391.83 1139,-288 1092.35,-256.61 1107.2,-218.94 1059,-190 988.31,-147.55 955.02,-180.68 877,-154 875.57,-153.51 874.12,-152.96 872.67,-152.38"/>
<polygon fill="midnightblue" stroke="midnightblue" points="873.87,-149.08 863.32,-148.12 870.97,-155.45 873.87,-149.08"/>
</g>
<!-- Node43&#45;&gt;Node5 -->
<g id="edge78" class="edge">
<title>Node43&#45;&gt;Node5</title>
<path fill="none" stroke="midnightblue" d="M1703.78,-461.83C1500.88,-460.82 898.51,-443.92 431,-288 416.05,-283.01 314.29,-234.4 306,-221 283.07,-183.96 275.55,-156 304,-123 340.03,-81.21 501.77,-73.46 588.18,-72.37"/>
<polygon fill="midnightblue" stroke="midnightblue" points="588.36,-75.87 598.33,-72.27 588.29,-68.87 588.36,-75.87"/>
</g>
<!-- Node43&#45;&gt;Node39 -->
<g id="edge79" class="edge">
<title>Node43&#45;&gt;Node39</title>
<path fill="none" stroke="midnightblue" d="M1844.09,-448.57C1868.44,-441.08 1894.3,-429.34 1913,-411 1921.9,-402.27 1947.95,-327.18 1959.89,-291.8"/>
<polygon fill="midnightblue" stroke="midnightblue" points="1963.25,-292.8 1963.11,-282.21 1956.61,-290.58 1963.25,-292.8"/>
</g>
<!-- Node43&#45;&gt;Node42 -->
<g id="edge80" class="edge">
<title>Node43&#45;&gt;Node42</title>
<path fill="none" stroke="midnightblue" d="M1844.18,-461.14C1927.12,-456.77 2063.71,-436.58 2142,-355 2156.61,-339.78 2161.09,-315.71 2162.23,-297.67"/>
<polygon fill="midnightblue" stroke="midnightblue" points="2165.73,-297.71 2162.56,-287.6 2158.73,-297.48 2165.73,-297.71"/>
</g>
<!-- Node44 -->
<g id="node32" class="node">
<title>Node44</title>
<g id="a_node32"><a xlink:title=" ">
<polygon fill="none" stroke="#bfbfbf" points="1700,-391.5 1700,-410.5 1746,-410.5 1746,-391.5 1700,-391.5"/>
<text text-anchor="middle" x="1723" y="-398.5" font-family="Helvetica,sans-Serif" font-size="10.00">cstring</text>
</a>
</g>
</g>
<!-- Node43&#45;&gt;Node44 -->
<g id="edge77" class="edge">
<title>Node43&#45;&gt;Node44</title>
<path fill="none" stroke="midnightblue" d="M1761.91,-447.4C1754.43,-438.66 1744.78,-427.41 1736.97,-418.3"/>
<polygon fill="midnightblue" stroke="midnightblue" points="1739.59,-415.97 1730.42,-410.66 1734.27,-420.53 1739.59,-415.97"/>
</g>
<!-- Node45 -->
<g id="node33" class="node">
<title>Node45</title>
<g id="a_node33"><a xlink:href="../../de/d77/variables__list_8h.html" target="_top" xlink:title=" ">
<polygon fill="none" stroke="black" points="1731,-324.5 1731,-354.5 1835,-354.5 1835,-324.5 1731,-324.5"/>
<text text-anchor="start" x="1739" y="-342.5" font-family="Helvetica,sans-Serif" font-size="10.00">containers/variables</text>
<text text-anchor="middle" x="1783" y="-331.5" font-family="Helvetica,sans-Serif" font-size="10.00">_list.h</text>
</a>
</g>
</g>
<!-- Node43&#45;&gt;Node45 -->
<g id="edge81" class="edge">
<title>Node43&#45;&gt;Node45</title>
<path fill="none" stroke="midnightblue" d="M1775.07,-447.14C1776.58,-426.86 1779.35,-389.53 1781.19,-364.86"/>
<polygon fill="midnightblue" stroke="midnightblue" points="1784.68,-365.07 1781.93,-354.84 1777.7,-364.55 1784.68,-365.07"/>
</g>
<!-- Node47 -->
<g id="node35" class="node">
<title>Node47</title>
<g id="a_node35"><a xlink:href="../../d5/dfb/global__variables_8h.html" target="_top" xlink:title=" ">
<polygon fill="none" stroke="black" points="1548.5,-391.5 1548.5,-410.5 1681.5,-410.5 1681.5,-391.5 1548.5,-391.5"/>
<text text-anchor="middle" x="1615" y="-398.5" font-family="Helvetica,sans-Serif" font-size="10.00">includes/global_variables.h</text>
</a>
</g>
</g>
<!-- Node43&#45;&gt;Node47 -->
<g id="edge88" class="edge">
<title>Node43&#45;&gt;Node47</title>
<path fill="none" stroke="midnightblue" d="M1736.32,-447.4C1709.4,-437.33 1673.55,-423.91 1647.81,-414.28"/>
<polygon fill="midnightblue" stroke="midnightblue" points="1648.73,-410.88 1638.14,-410.66 1646.27,-417.44 1648.73,-410.88"/>
</g>
<!-- Node45&#45;&gt;Node2 -->
<g id="edge82" class="edge">
<title>Node45&#45;&gt;Node2</title>
<path fill="none" stroke="midnightblue" d="M1786.35,-324.38C1795.82,-287.14 1826,-184.85 1885,-123 1899.92,-107.36 1920.65,-94.55 1937.41,-85.75"/>
<polygon fill="midnightblue" stroke="midnightblue" points="1939.4,-88.67 1946.75,-81.03 1936.24,-82.42 1939.4,-88.67"/>
</g>
<!-- Node45&#45;&gt;Node3 -->
<g id="edge83" class="edge">
<title>Node45&#45;&gt;Node3</title>
<path fill="none" stroke="midnightblue" d="M1808.65,-324.47C1825.63,-314.85 1848.16,-301.43 1867,-288 1884.47,-275.55 1884.04,-264.87 1904,-257 2041.88,-202.62 2425.61,-254.47 2570,-221 2604.34,-213.04 2608.75,-198.32 2643,-190 2747.16,-164.71 3030.22,-205.9 3124,-154 3149.54,-139.87 3167.2,-109.75 3176.45,-90.35"/>
<polygon fill="midnightblue" stroke="midnightblue" points="3179.71,-91.64 3180.62,-81.08 3173.33,-88.77 3179.71,-91.64"/>
</g>
<!-- Node45&#45;&gt;Node5 -->
<g id="edge86" class="edge">
<title>Node45&#45;&gt;Node5</title>
<path fill="none" stroke="midnightblue" d="M1730.59,-339.38C1616.06,-340.27 1335.47,-336.76 1107,-288 1067.27,-279.52 1060.77,-265.32 1021,-257 903.06,-232.33 591.67,-266.24 480,-221 428.15,-199.99 365.71,-166.41 401,-123 424.11,-94.57 524.05,-81.6 588.05,-76.11"/>
<polygon fill="midnightblue" stroke="midnightblue" points="588.7,-79.57 598.38,-75.26 588.13,-72.59 588.7,-79.57"/>
</g>
<!-- Node45&#45;&gt;Node38 -->
<g id="edge84" class="edge">
<title>Node45&#45;&gt;Node38</title>
<path fill="none" stroke="midnightblue" d="M1791.22,-324.48C1800.92,-308.11 1817.66,-280.29 1833,-257 1857.04,-220.52 1886.97,-179.04 1903.53,-156.42"/>
<polygon fill="midnightblue" stroke="midnightblue" points="1906.46,-158.34 1909.56,-148.21 1900.82,-154.2 1906.46,-158.34"/>
</g>
<!-- Node45&#45;&gt;Node39 -->
<g id="edge87" class="edge">
<title>Node45&#45;&gt;Node39</title>
<path fill="none" stroke="midnightblue" d="M1822.71,-324.4C1855.53,-312.74 1901.6,-296.37 1932.56,-285.38"/>
<polygon fill="midnightblue" stroke="midnightblue" points="1933.8,-288.65 1942.05,-282.01 1931.45,-282.06 1933.8,-288.65"/>
</g>
<!-- Node46 -->
<g id="node34" class="node">
<title>Node46</title>
<g id="a_node34"><a xlink:title=" ">
<polygon fill="none" stroke="#bfbfbf" points="2972,-123.5 2972,-153.5 3080,-153.5 3080,-123.5 2972,-123.5"/>
<text text-anchor="start" x="2980" y="-141.5" font-family="Helvetica,sans-Serif" font-size="10.00">boost/iterator/indirect</text>
<text text-anchor="middle" x="3026" y="-130.5" font-family="Helvetica,sans-Serif" font-size="10.00">_iterator.hpp</text>
</a>
</g>
</g>
<!-- Node45&#45;&gt;Node46 -->
<g id="edge85" class="edge">
<title>Node45&#45;&gt;Node46</title>
<path fill="none" stroke="midnightblue" d="M1797.14,-324.4C1819.67,-302.1 1862.09,-260.79 1871,-257 1999.01,-202.53 2358.57,-242.64 2496,-221 2549.99,-212.5 2561.23,-199.79 2615,-190 2764.94,-162.71 2805.42,-177.48 2956,-154 2957.93,-153.7 2959.89,-153.38 2961.87,-153.05"/>
<polygon fill="midnightblue" stroke="midnightblue" points="2962.6,-156.47 2971.83,-151.27 2961.37,-149.58 2962.6,-156.47"/>
</g>
<!-- Node47&#45;&gt;Node2 -->
<g id="edge89" class="edge">
<title>Node47&#45;&gt;Node2</title>
<path fill="none" stroke="midnightblue" d="M1607.64,-391.47C1591.62,-371.98 1555,-322.11 1555,-273.5 1555,-273.5 1555,-273.5 1555,-204.5 1555,-165.25 1557.86,-146.89 1589,-123 1643.04,-81.54 1854.81,-74.11 1935,-72.78"/>
<polygon fill="midnightblue" stroke="midnightblue" points="1935.46,-76.28 1945.41,-72.63 1935.36,-69.28 1935.46,-76.28"/>
</g>
<!-- Node47&#45;&gt;Node3 -->
<g id="edge90" class="edge">
<title>Node47&#45;&gt;Node3</title>
<path fill="none" stroke="midnightblue" d="M1681.7,-391.86C1684.84,-391.56 1687.96,-391.27 1691,-391 1975.26,-366.21 2052.2,-410.96 2332,-355 2372.66,-346.87 2380.72,-337.28 2420,-324 2560.74,-276.43 2596.72,-266.93 2738,-221 2780.24,-207.27 2789.55,-199.21 2833,-190 2909.71,-173.75 3131.46,-212.2 3184,-154 3199.22,-137.13 3195.35,-109.36 3190.35,-91"/>
<polygon fill="midnightblue" stroke="midnightblue" points="3193.61,-89.72 3187.32,-81.2 3186.92,-91.78 3193.61,-89.72"/>
</g>
<!-- Node47&#45;&gt;Node5 -->
<g id="edge91" class="edge">
<title>Node47&#45;&gt;Node5</title>
<path fill="none" stroke="midnightblue" d="M1548.18,-397.29C1439.41,-392.34 1217.46,-379.94 1031,-355 958.34,-345.28 941.01,-337.74 869,-324 808.89,-312.53 368.06,-267.26 328,-221 299.47,-188.06 296.71,-156.14 325,-123 358.2,-84.12 506.32,-75.02 588.18,-72.99"/>
<polygon fill="midnightblue" stroke="midnightblue" points="588.38,-76.49 598.3,-72.77 588.23,-69.49 588.38,-76.49"/>
</g>
<!-- Node47&#45;&gt;Node45 -->
<g id="edge92" class="edge">
<title>Node47&#45;&gt;Node45</title>
<path fill="none" stroke="midnightblue" d="M1639.07,-391.48C1663.63,-382.78 1702.45,-369.03 1733.59,-358"/>
<polygon fill="midnightblue" stroke="midnightblue" points="1735.15,-361.16 1743.41,-354.52 1732.81,-354.56 1735.15,-361.16"/>
</g>
<!-- Node48&#45;&gt;Node2 -->
<g id="edge94" class="edge">
<title>Node48&#45;&gt;Node2</title>
<path fill="none" stroke="midnightblue" d="M2043.2,-324.4C2073.1,-282.24 2156.85,-157.94 2131,-123 2100.14,-81.28 2035.5,-72.9 1996.92,-71.84"/>
<polygon fill="midnightblue" stroke="midnightblue" points="1996.83,-68.34 1986.78,-71.71 1996.74,-75.34 1996.83,-68.34"/>
</g>
<!-- Node48&#45;&gt;Node3 -->
<g id="edge95" class="edge">
<title>Node48&#45;&gt;Node3</title>
<path fill="none" stroke="midnightblue" d="M2105.74,-331.6C2135.55,-328.94 2170.41,-326.06 2202,-324 2378.11,-312.54 3647.93,-329.65 3787,-221 3822.25,-193.46 3840.34,-155.88 3810,-123 3770,-79.64 3350.25,-73.5 3221.4,-72.64"/>
<polygon fill="midnightblue" stroke="midnightblue" points="3221.26,-69.14 3211.24,-72.58 3221.22,-76.14 3221.26,-69.14"/>
</g>
<!-- Node48&#45;&gt;Node5 -->
<g id="edge96" class="edge">
<title>Node48&#45;&gt;Node5</title>
<path fill="none" stroke="midnightblue" d="M1960.33,-332.49C1925.21,-329.69 1882.43,-326.45 1844,-324 1687.45,-314 1290.57,-328.42 1139,-288 1109.62,-280.16 1107.34,-265.02 1078,-257 956,-223.66 618.67,-285.71 510,-221 469.28,-196.76 439.51,-160.87 468,-123 482.58,-103.62 542.52,-89.33 588.23,-80.99"/>
<polygon fill="midnightblue" stroke="midnightblue" points="589.09,-84.39 598.33,-79.2 587.87,-77.5 589.09,-84.39"/>
</g>
<!-- Node48&#45;&gt;Node39 -->
<g id="edge97" class="edge">
<title>Node48&#45;&gt;Node39</title>
<path fill="none" stroke="midnightblue" d="M2018.46,-324.4C2007.81,-314.06 1993.34,-300.02 1982.3,-289.31"/>
<polygon fill="midnightblue" stroke="midnightblue" points="1984.58,-286.65 1974.96,-282.19 1979.7,-291.67 1984.58,-286.65"/>
</g>
<!-- Node49&#45;&gt;Node2 -->
<g id="edge99" class="edge">
<title>Node49&#45;&gt;Node2</title>
<path fill="none" stroke="midnightblue" d="M876.35,-195.9C824.69,-183.5 747.3,-158.17 781,-123 801.58,-101.52 1751.07,-77.66 1935.24,-73.23"/>
<polygon fill="midnightblue" stroke="midnightblue" points="1935.41,-76.73 1945.32,-72.99 1935.24,-69.73 1935.41,-76.73"/>
</g>
<!-- Node49&#45;&gt;Node3 -->
<g id="edge100" class="edge">
<title>Node49&#45;&gt;Node3</title>
<path fill="none" stroke="midnightblue" d="M979.05,-201.09C1039.27,-197.84 1133.96,-192.99 1216,-190 1298.19,-187 2619.68,-184.64 2696,-154 2714.98,-146.38 2711.37,-131.43 2730,-123 2748.95,-114.42 3041.75,-85.99 3146.82,-76"/>
<polygon fill="midnightblue" stroke="midnightblue" points="3147.34,-79.47 3156.96,-75.04 3146.68,-72.5 3147.34,-79.47"/>
</g>
<!-- Node49&#45;&gt;Node4 -->
<g id="edge102" class="edge">
<title>Node49&#45;&gt;Node4</title>
<path fill="none" stroke="midnightblue" d="M908.56,-195.73C897.33,-185.31 878.38,-167.71 864.66,-154.97"/>
<polygon fill="midnightblue" stroke="midnightblue" points="867,-152.37 857.29,-148.13 862.24,-157.5 867,-152.37"/>
</g>
<!-- Node49&#45;&gt;Node5 -->
<g id="edge103" class="edge">
<title>Node49&#45;&gt;Node5</title>
<path fill="none" stroke="midnightblue" d="M875.17,-195.96C817.16,-184.15 719.22,-163.25 705,-154 680.49,-138.06 661.89,-108.97 651.71,-90.2"/>
<polygon fill="midnightblue" stroke="midnightblue" points="654.77,-88.49 647.06,-81.22 648.55,-91.71 654.77,-88.49"/>
</g>
<!-- Node49&#45;&gt;Node7 -->
<g id="edge101" class="edge">
<title>Node49&#45;&gt;Node7</title>
<path fill="none" stroke="midnightblue" d="M875.86,-195.93C836.41,-186.95 781.69,-171.7 769,-154 760.97,-142.8 761.54,-134.59 769,-123 815.76,-50.34 922.52,-24.26 978.78,-15.34"/>
<polygon fill="midnightblue" stroke="midnightblue" points="979.62,-18.76 989,-13.83 978.59,-11.83 979.62,-18.76"/>
</g>
<!-- Node50&#45;&gt;Node2 -->
<g id="edge109" class="edge">
<title>Node50&#45;&gt;Node2</title>
<path fill="none" stroke="midnightblue" d="M1291.95,-195.9C1302.46,-178.54 1328.89,-139.56 1363,-123 1465.45,-73.27 1826.86,-71.55 1935.13,-72.19"/>
<polygon fill="midnightblue" stroke="midnightblue" points="1935.34,-75.69 1945.36,-72.26 1935.39,-68.69 1935.34,-75.69"/>
</g>
<!-- Node50&#45;&gt;Node3 -->
<g id="edge110" class="edge">
<title>Node50&#45;&gt;Node3</title>
<path fill="none" stroke="midnightblue" d="M1348.69,-201.52C1414.06,-198.42 1520.29,-193.52 1612,-190 1860.39,-180.46 2486.87,-205.75 2730,-154 2765.68,-146.4 2770.75,-132.38 2806,-123 2869.98,-105.98 3064.67,-84.73 3146.82,-76.25"/>
<polygon fill="midnightblue" stroke="midnightblue" points="3147.36,-79.71 3156.95,-75.21 3146.64,-72.75 3147.36,-79.71"/>
</g>
<!-- Node50&#45;&gt;Node4 -->
<g id="edge112" class="edge">
<title>Node50&#45;&gt;Node4</title>
<path fill="none" stroke="midnightblue" d="M1245.29,-195.94C1234.18,-193.82 1222.16,-191.68 1211,-190 1067.73,-168.41 1027.96,-187.5 887,-154 884,-153.29 880.93,-152.41 877.87,-151.44"/>
<polygon fill="midnightblue" stroke="midnightblue" points="878.95,-148.11 868.35,-148.14 876.65,-154.73 878.95,-148.11"/>
</g>
<!-- Node50&#45;&gt;Node5 -->
<g id="edge113" class="edge">
<title>Node50&#45;&gt;Node5</title>
<path fill="none" stroke="midnightblue" d="M1244.87,-195.97C1233.87,-193.88 1222.01,-191.74 1211,-190 1084.46,-169.99 1044.47,-200.27 925,-154 902.69,-145.36 902.93,-132.57 881,-123 821.36,-96.98 747.32,-83.99 697.8,-77.77"/>
<polygon fill="midnightblue" stroke="midnightblue" points="697.97,-74.26 687.62,-76.54 697.13,-81.21 697.97,-74.26"/>
</g>
<!-- Node50&#45;&gt;Node7 -->
<g id="edge111" class="edge">
<title>Node50&#45;&gt;Node7</title>
<path fill="none" stroke="midnightblue" d="M1233.74,-195.98C1152.04,-182.78 1004.74,-158.46 1001,-154 971.03,-118.27 992.3,-58.46 1005.95,-28.8"/>
<polygon fill="midnightblue" stroke="midnightblue" points="1009.17,-30.18 1010.37,-19.65 1002.87,-27.14 1009.17,-30.18"/>
</g>
<!-- Node50&#45;&gt;Node38 -->
<g id="edge107" class="edge">
<title>Node50&#45;&gt;Node38</title>
<path fill="none" stroke="midnightblue" d="M1348.83,-199.25C1446.48,-190.79 1642.35,-173.14 1808,-154 1833.4,-151.06 1862.09,-147.19 1883.51,-144.18"/>
<polygon fill="midnightblue" stroke="midnightblue" points="1884.28,-147.61 1893.69,-142.74 1883.3,-140.67 1884.28,-147.61"/>
</g>
<!-- Node51 -->
<g id="node39" class="node">
<title>Node51</title>
<g id="a_node39"><a xlink:title=" ">
<polygon fill="none" stroke="#bfbfbf" points="1740.5,-129 1740.5,-148 1799.5,-148 1799.5,-129 1740.5,-129"/>
<text text-anchor="middle" x="1770" y="-136" font-family="Helvetica,sans-Serif" font-size="10.00">functional</text>
</a>
</g>
</g>
<!-- Node50&#45;&gt;Node51 -->
<g id="edge108" class="edge">
<title>Node50&#45;&gt;Node51</title>
<path fill="none" stroke="midnightblue" d="M1348.86,-202.2C1435.41,-197.91 1597.07,-186.01 1731,-154 1733.99,-153.28 1737.07,-152.4 1740.13,-151.44"/>
<polygon fill="midnightblue" stroke="midnightblue" points="1741.35,-154.72 1749.64,-148.13 1739.05,-148.1 1741.35,-154.72"/>
</g>
<!-- Node52 -->
<g id="node40" class="node">
<title>Node52</title>
<g id="a_node40"><a xlink:href="../../dd/dc7/vector__map__iterator_8h.html" target="_top" xlink:title=" ">
<polygon fill="none" stroke="black" points="1195,-123.5 1195,-153.5 1311,-153.5 1311,-123.5 1195,-123.5"/>
<text text-anchor="start" x="1203" y="-141.5" font-family="Helvetica,sans-Serif" font-size="10.00">containers/vector_map</text>
<text text-anchor="middle" x="1253" y="-130.5" font-family="Helvetica,sans-Serif" font-size="10.00">_iterator.h</text>
</a>
</g>
</g>
<!-- Node50&#45;&gt;Node52 -->
<g id="edge114" class="edge">
<title>Node50&#45;&gt;Node52</title>
<path fill="none" stroke="midnightblue" d="M1282.41,-195.73C1278,-187.29 1271.12,-174.14 1265.12,-162.68"/>
<polygon fill="midnightblue" stroke="midnightblue" points="1268.11,-160.83 1260.37,-153.59 1261.9,-164.07 1268.11,-160.83"/>
</g>
<!-- Node52&#45;&gt;Node2 -->
<g id="edge115" class="edge">
<title>Node52&#45;&gt;Node2</title>
<path fill="none" stroke="midnightblue" d="M1311.06,-125.19C1315.76,-124.38 1320.45,-123.63 1325,-123 1558.43,-90.42 1842.84,-77.23 1935.35,-73.61"/>
<polygon fill="midnightblue" stroke="midnightblue" points="1935.57,-77.1 1945.42,-73.22 1935.3,-70.11 1935.57,-77.1"/>
</g>
<!-- Node52&#45;&gt;Node3 -->
<g id="edge116" class="edge">
<title>Node52&#45;&gt;Node3</title>
<path fill="none" stroke="midnightblue" d="M1311.01,-130.57C1336.97,-127.74 1367.98,-124.73 1396,-123 2120.14,-78.37 2303.68,-128.6 3028,-87 3068.74,-84.66 3115.31,-80.08 3146.89,-76.69"/>
<polygon fill="midnightblue" stroke="midnightblue" points="3147.43,-80.16 3156.99,-75.59 3146.67,-73.2 3147.43,-80.16"/>
</g>
<!-- Node52&#45;&gt;Node5 -->
<g id="edge118" class="edge">
<title>Node52&#45;&gt;Node5</title>
<path fill="none" stroke="midnightblue" d="M1194.93,-125.26C1190.23,-124.44 1185.54,-123.67 1181,-123 1005.48,-97.16 795.7,-81.94 698.05,-75.75"/>
<polygon fill="midnightblue" stroke="midnightblue" points="698.03,-72.24 687.83,-75.11 697.59,-79.23 698.03,-72.24"/>
</g>
<!-- Node53 -->
<g id="node41" class="node">
<title>Node53</title>
<g id="a_node41"><a xlink:title=" ">
<polygon fill="none" stroke="#bfbfbf" points="1306.5,-56.5 1306.5,-86.5 1413.5,-86.5 1413.5,-56.5 1306.5,-56.5"/>
<text text-anchor="start" x="1314.5" y="-74.5" font-family="Helvetica,sans-Serif" font-size="10.00">boost/iterator/iterator</text>
<text text-anchor="middle" x="1360" y="-63.5" font-family="Helvetica,sans-Serif" font-size="10.00">_adaptor.hpp</text>
</a>
</g>
</g>
<!-- Node52&#45;&gt;Node53 -->
<g id="edge117" class="edge">
<title>Node52&#45;&gt;Node53</title>
<path fill="none" stroke="midnightblue" d="M1276.22,-123.4C1291.36,-114.2 1311.33,-102.07 1327.97,-91.95"/>
<polygon fill="midnightblue" stroke="midnightblue" points="1330.1,-94.76 1336.83,-86.58 1326.46,-88.78 1330.1,-94.76"/>
</g>
<!-- Node54&#45;&gt;Node2 -->
<g id="edge122" class="edge">
<title>Node54&#45;&gt;Node2</title>
<path fill="none" stroke="midnightblue" d="M2416.34,-190.33C2400.04,-180.42 2377.99,-166.74 2359,-154 2339.44,-140.87 2337.84,-131.83 2316,-123 2204.84,-78.09 2059.62,-72.31 1996.97,-72.1"/>
<polygon fill="midnightblue" stroke="midnightblue" points="1996.6,-68.6 1986.61,-72.11 1996.61,-75.6 1996.6,-68.6"/>
</g>
<!-- Node54&#45;&gt;Node3 -->
<g id="edge123" class="edge">
<title>Node54&#45;&gt;Node3</title>
<path fill="none" stroke="midnightblue" d="M2487.02,-197.11C2503.44,-194.66 2522.01,-192.05 2539,-190 2707.87,-169.67 2760.78,-213.83 2920,-154 2942.05,-145.71 2941.53,-132.71 2963,-123 3024.05,-95.4 3101.64,-82.17 3146.77,-76.41"/>
<polygon fill="midnightblue" stroke="midnightblue" points="3147.2,-79.88 3156.7,-75.2 3146.35,-72.94 3147.2,-79.88"/>
</g>
<!-- Node54&#45;&gt;Node4 -->
<g id="edge125" class="edge">
<title>Node54&#45;&gt;Node4</title>
<path fill="none" stroke="midnightblue" d="M2392.91,-202.52C2324.93,-199.68 2195.33,-194.3 2085,-190 1653.92,-173.2 1545.96,-173.7 1115,-154 1031.66,-150.19 933.75,-144.58 882.79,-141.58"/>
<polygon fill="midnightblue" stroke="midnightblue" points="882.85,-138.08 872.66,-140.98 882.43,-145.07 882.85,-138.08"/>
</g>
<!-- Node54&#45;&gt;Node5 -->
<g id="edge128" class="edge">
<title>Node54&#45;&gt;Node5</title>
<path fill="none" stroke="midnightblue" d="M2392.91,-202.54C2324.93,-199.73 2195.33,-194.38 2085,-190 1877.9,-181.77 1357.03,-190.5 1153,-154 1109.28,-146.18 1101.36,-132.62 1058,-123 930.85,-94.8 778.05,-81.32 698.03,-75.78"/>
<polygon fill="midnightblue" stroke="midnightblue" points="697.91,-72.27 687.7,-75.08 697.44,-79.25 697.91,-72.27"/>
</g>
<!-- Node54&#45;&gt;Node7 -->
<g id="edge124" class="edge">
<title>Node54&#45;&gt;Node7</title>
<path fill="none" stroke="midnightblue" d="M2487.28,-191.11C2488.87,-190.72 2490.45,-190.35 2492,-190 2536.89,-179.81 2666.41,-189.27 2696,-154 2709.01,-138.49 2709.01,-73.85 2690,-56 2659.09,-26.96 1293.52,-13.48 1051.48,-11.31"/>
<polygon fill="midnightblue" stroke="midnightblue" points="1051.15,-7.81 1041.12,-11.22 1051.09,-14.81 1051.15,-7.81"/>
</g>
<!-- Node54&#45;&gt;Node8 -->
<g id="edge126" class="edge">
<title>Node54&#45;&gt;Node8</title>
<path fill="none" stroke="midnightblue" d="M2487.28,-191.11C2488.87,-190.72 2490.45,-190.35 2492,-190 2536.89,-179.81 2666.41,-189.27 2696,-154 2709.03,-138.46 2709.06,-73.8 2690,-56 2655.28,-23.57 1027.43,-22.72 980,-20 969,-19.37 957.3,-18.47 946,-17.48"/>
<polygon fill="midnightblue" stroke="midnightblue" points="946.04,-13.97 935.76,-16.55 945.41,-20.94 946.04,-13.97"/>
</g>
<!-- Node54&#45;&gt;Node38 -->
<g id="edge120" class="edge">
<title>Node54&#45;&gt;Node38</title>
<path fill="none" stroke="midnightblue" d="M2392.76,-199C2315.42,-189.95 2156.99,-171.19 2023,-154 1997.87,-150.78 1969.45,-146.91 1948.21,-143.99"/>
<polygon fill="midnightblue" stroke="midnightblue" points="1948.51,-140.49 1938.12,-142.59 1947.55,-147.43 1948.51,-140.49"/>
</g>
<!-- Node54&#45;&gt;Node46 -->
<g id="edge127" class="edge">
<title>Node54&#45;&gt;Node46</title>
<path fill="none" stroke="midnightblue" d="M2487.01,-197.03C2503.43,-194.57 2522,-191.97 2539,-190 2724.66,-168.45 2773.13,-181.54 2958,-154 2959.28,-153.81 2960.56,-153.61 2961.86,-153.4"/>
<polygon fill="midnightblue" stroke="midnightblue" points="2962.66,-156.82 2971.92,-151.67 2961.47,-149.92 2962.66,-156.82"/>
</g>
<!-- Node54&#45;&gt;Node51 -->
<g id="edge121" class="edge">
<title>Node54&#45;&gt;Node51</title>
<path fill="none" stroke="midnightblue" d="M2392.8,-200.76C2296.98,-193.05 2072.81,-174.38 1885,-154 1859.96,-151.28 1831.91,-147.76 1809.78,-144.86"/>
<polygon fill="midnightblue" stroke="midnightblue" points="1810.12,-141.38 1799.75,-143.54 1809.21,-148.32 1810.12,-141.38"/>
</g>
<!-- Node55&#45;&gt;Node2 -->
<g id="edge133" class="edge">
<title>Node55&#45;&gt;Node2</title>
<path fill="none" stroke="midnightblue" d="M1723.96,-190.47C1749.01,-181.41 1781.08,-168.62 1808,-154 1829.02,-142.58 1831.19,-134.79 1852,-123 1879.36,-107.5 1912.37,-93.33 1935.81,-83.98"/>
<polygon fill="midnightblue" stroke="midnightblue" points="1937.21,-87.19 1945.23,-80.27 1934.64,-80.67 1937.21,-87.19"/>
</g>
<!-- Node55&#45;&gt;Node3 -->
<g id="edge134" class="edge">
<title>Node55&#45;&gt;Node3</title>
<path fill="none" stroke="midnightblue" d="M1743.22,-201.5C1804.42,-198.51 1901.22,-193.84 1985,-190 2076.21,-185.82 2720.67,-186.51 2806,-154 2826.37,-146.24 2824.06,-131.81 2844,-123 2897.77,-99.26 3070.1,-82.15 3146.7,-75.53"/>
<polygon fill="midnightblue" stroke="midnightblue" points="3147.18,-79 3156.85,-74.66 3146.59,-72.03 3147.18,-79"/>
</g>
<!-- Node55&#45;&gt;Node5 -->
<g id="edge138" class="edge">
<title>Node55&#45;&gt;Node5</title>
<path fill="none" stroke="midnightblue" d="M1620.84,-202.15C1476.58,-196.26 1118.38,-179.48 1001,-154 962.11,-145.56 955.38,-133.53 917,-123 842.13,-102.45 753.43,-87.82 697.68,-79.76"/>
<polygon fill="midnightblue" stroke="midnightblue" points="698.06,-76.28 687.66,-78.33 697.07,-83.21 698.06,-76.28"/>
</g>
<!-- Node55&#45;&gt;Node7 -->
<g id="edge135" class="edge">
<title>Node55&#45;&gt;Node7</title>
<path fill="none" stroke="midnightblue" d="M1620.65,-202.73C1505.8,-198.67 1262.97,-186.45 1186,-154 1117.22,-125.01 1055.02,-58.53 1028.52,-27.51"/>
<polygon fill="midnightblue" stroke="midnightblue" points="1031.13,-25.17 1022.02,-19.76 1025.77,-29.67 1031.13,-25.17"/>
</g>
<!-- Node55&#45;&gt;Node38 -->
<g id="edge136" class="edge">
<title>Node55&#45;&gt;Node38</title>
<path fill="none" stroke="midnightblue" d="M1732.49,-190.48C1778.49,-177.7 1845.04,-159.21 1884.08,-148.37"/>
<polygon fill="midnightblue" stroke="midnightblue" points="1885.15,-151.7 1893.85,-145.65 1883.28,-144.96 1885.15,-151.7"/>
</g>
<!-- Node55&#45;&gt;Node51 -->
<g id="edge132" class="edge">
<title>Node55&#45;&gt;Node51</title>
<path fill="none" stroke="midnightblue" d="M1701.09,-190.4C1715.58,-179.7 1735.43,-165.03 1750.11,-154.19"/>
<polygon fill="midnightblue" stroke="midnightblue" points="1752.52,-156.76 1758.48,-148.01 1748.36,-151.13 1752.52,-156.76"/>
</g>
<!-- Node56 -->
<g id="node44" class="node">
<title>Node56</title>
<g id="a_node44"><a xlink:title=" ">
<polygon fill="none" stroke="#bfbfbf" points="1621.5,-129 1621.5,-148 1722.5,-148 1722.5,-129 1621.5,-129"/>
<text text-anchor="middle" x="1672" y="-136" font-family="Helvetica,sans-Serif" font-size="10.00">boost/weak_ptr.hpp</text>
</a>
</g>
</g>
<!-- Node55&#45;&gt;Node56 -->
<g id="edge137" class="edge">
<title>Node55&#45;&gt;Node56</title>
<path fill="none" stroke="midnightblue" d="M1679.83,-190.4C1678.38,-180.96 1676.45,-168.45 1674.88,-158.19"/>
<polygon fill="midnightblue" stroke="midnightblue" points="1678.32,-157.55 1673.34,-148.19 1671.4,-158.61 1678.32,-157.55"/>
</g>
<!-- Node57 -->
<g id="node45" class="node">
<title>Node57</title>
<g id="a_node45"><a xlink:href="../../d2/d80/weak__pointer__vector__iterator_8h.html" target="_top" xlink:title=" ">
<polygon fill="none" stroke="black" points="1405,-123.5 1405,-153.5 1527,-153.5 1527,-123.5 1405,-123.5"/>
<text text-anchor="start" x="1413" y="-141.5" font-family="Helvetica,sans-Serif" font-size="10.00">containers/weak_pointer</text>
<text text-anchor="middle" x="1466" y="-130.5" font-family="Helvetica,sans-Serif" font-size="10.00">_vector_iterator.h</text>
</a>
</g>
</g>
<!-- Node55&#45;&gt;Node57 -->
<g id="edge139" class="edge">
<title>Node55&#45;&gt;Node57</title>
<path fill="none" stroke="midnightblue" d="M1635.4,-190.48C1602.3,-180.51 1557.67,-167.09 1522.53,-156.51"/>
<polygon fill="midnightblue" stroke="midnightblue" points="1523.48,-153.14 1512.89,-153.61 1521.46,-159.84 1523.48,-153.14"/>
</g>
<!-- Node57&#45;&gt;Node2 -->
<g id="edge140" class="edge">
<title>Node57&#45;&gt;Node2</title>
<path fill="none" stroke="midnightblue" d="M1527.33,-125.27C1531.95,-124.46 1536.54,-123.69 1541,-123 1687.7,-100.13 1864.3,-82.2 1934.77,-75.43"/>
<polygon fill="midnightblue" stroke="midnightblue" points="1935.52,-78.87 1945.14,-74.44 1934.85,-71.9 1935.52,-78.87"/>
</g>
<!-- Node57&#45;&gt;Node3 -->
<g id="edge141" class="edge">
<title>Node57&#45;&gt;Node3</title>
<path fill="none" stroke="midnightblue" d="M1527.01,-130.43C1553.15,-127.66 1584.04,-124.74 1612,-123 2240.32,-83.87 2399.56,-124.15 3028,-87 3068.74,-84.59 3115.31,-80.03 3146.88,-76.66"/>
<polygon fill="midnightblue" stroke="midnightblue" points="3147.42,-80.12 3156.99,-75.57 3146.67,-73.16 3147.42,-80.12"/>
</g>
<!-- Node57&#45;&gt;Node5 -->
<g id="edge143" class="edge">
<title>Node57&#45;&gt;Node5</title>
<path fill="none" stroke="midnightblue" d="M1404.94,-131.1C1378.8,-128.45 1347.91,-125.43 1320,-123 1088.91,-102.91 813.01,-83.86 697.78,-76.13"/>
<polygon fill="midnightblue" stroke="midnightblue" points="698,-72.64 687.79,-75.46 697.53,-79.62 698,-72.64"/>
</g>
<!-- Node57&#45;&gt;Node53 -->
<g id="edge142" class="edge">
<title>Node57&#45;&gt;Node53</title>
<path fill="none" stroke="midnightblue" d="M1443,-123.4C1428,-114.2 1408.21,-102.07 1391.73,-91.95"/>
<polygon fill="midnightblue" stroke="midnightblue" points="1393.31,-88.82 1382.96,-86.58 1389.65,-94.79 1393.31,-88.82"/>
</g>
<!-- Node58&#45;&gt;Node2 -->
<g id="edge146" class="edge">
<title>Node58&#45;&gt;Node2</title>
<path fill="none" stroke="midnightblue" d="M810.35,-452.9C824.12,-430.91 862.26,-371.04 898,-324 921.65,-292.87 929.12,-286.3 955,-257 976.97,-232.12 1008.96,-215.74 988,-190 938.14,-128.76 863.86,-215.24 814,-154 805.3,-143.32 804.47,-132.95 814,-123 833.97,-102.14 1754.18,-77.85 1935.26,-73.27"/>
<polygon fill="midnightblue" stroke="midnightblue" points="1935.5,-76.76 1945.41,-73.01 1935.33,-69.76 1935.5,-76.76"/>
</g>
<!-- Node58&#45;&gt;Node3 -->
<g id="edge147" class="edge">
<title>Node58&#45;&gt;Node3</title>
<path fill="none" stroke="midnightblue" d="M864.7,-460.53C1038.15,-457.38 1556.93,-445.52 1986,-411 2308.28,-385.07 2396.47,-390.85 2703,-288 2779.21,-262.43 2800.53,-259.68 2871,-221 2891.65,-209.66 2891.99,-198.41 2914,-190 2984.97,-162.88 3203.18,-210.48 3254,-154 3275.07,-130.58 3237.86,-102.59 3210.11,-86.25"/>
<polygon fill="midnightblue" stroke="midnightblue" points="3211.58,-83.06 3201.16,-81.18 3208.13,-89.15 3211.58,-83.06"/>
</g>
<!-- Node58&#45;&gt;Node4 -->
<g id="edge149" class="edge">
<title>Node58&#45;&gt;Node4</title>
<path fill="none" stroke="midnightblue" d="M784.9,-452.89C710.52,-419.91 459.81,-298.01 551,-190 584.22,-150.66 742.02,-141.96 813.12,-140.04"/>
<polygon fill="midnightblue" stroke="midnightblue" points="813.45,-143.53 823.36,-139.8 813.28,-136.54 813.45,-143.53"/>
</g>
<!-- Node58&#45;&gt;Node5 -->
<g id="edge150" class="edge">
<title>Node58&#45;&gt;Node5</title>
<path fill="none" stroke="midnightblue" d="M779.91,-452.92C751.61,-443.14 704.28,-426.52 664,-411 530.29,-359.5 492.93,-354.48 366,-288 343.5,-276.22 340.83,-268.12 318,-257 274.03,-235.58 242.37,-260.84 214,-221 188.74,-185.52 185.06,-155.55 214,-123 238.47,-95.48 477.93,-80.46 588.07,-74.96"/>
<polygon fill="midnightblue" stroke="midnightblue" points="588.5,-78.44 598.32,-74.46 588.16,-71.45 588.5,-78.44"/>
</g>
<!-- Node58&#45;&gt;Node7 -->
<g id="edge148" class="edge">
<title>Node58&#45;&gt;Node7</title>
<path fill="none" stroke="midnightblue" d="M745.46,-454.55C550.75,-429.59 -44.44,-334.55 138,-123 255.93,13.74 764.6,-40.46 944,-20 955.23,-18.72 967.44,-17.21 978.51,-15.8"/>
<polygon fill="midnightblue" stroke="midnightblue" points="979.25,-19.24 988.72,-14.49 978.35,-12.29 979.25,-19.24"/>
</g>
<!-- Node58&#45;&gt;Node37 -->
<g id="edge151" class="edge">
<title>Node58&#45;&gt;Node37</title>
<path fill="none" stroke="midnightblue" d="M864.72,-461.94C1031.29,-462.48 1514.93,-459.43 1913,-411 2014.24,-398.68 2129.83,-373.53 2200.6,-356.85"/>
<polygon fill="midnightblue" stroke="midnightblue" points="2201.79,-360.16 2210.71,-354.45 2200.17,-353.35 2201.79,-360.16"/>
</g>
<!-- Node59 -->
<g id="node47" class="node">
<title>Node59</title>
<g id="a_node47"><a xlink:href="../../de/dca/variables_8h.html" target="_top" xlink:title=" ">
<polygon fill="none" stroke="black" points="1802,-391.5 1802,-410.5 1904,-410.5 1904,-391.5 1802,-391.5"/>
<text text-anchor="middle" x="1853" y="-398.5" font-family="Helvetica,sans-Serif" font-size="10.00">includes/variables.h</text>
</a>
</g>
</g>
<!-- Node58&#45;&gt;Node59 -->
<g id="edge152" class="edge">
<title>Node58&#45;&gt;Node59</title>
<path fill="none" stroke="midnightblue" d="M864.52,-459.13C1014.23,-453 1418.54,-435.38 1755,-411 1766.92,-410.14 1779.63,-409.07 1791.82,-407.98"/>
<polygon fill="midnightblue" stroke="midnightblue" points="1792.27,-411.46 1801.91,-407.07 1791.64,-404.49 1792.27,-411.46"/>
</g>
<!-- Node59&#45;&gt;Node2 -->
<g id="edge153" class="edge">
<title>Node59&#45;&gt;Node2</title>
<path fill="none" stroke="midnightblue" d="M1801.81,-394.26C1769.74,-388.56 1728.95,-377.28 1699,-355 1610.65,-289.27 1539.84,-206.19 1612,-123 1653.77,-74.85 1856.29,-71.45 1934.81,-71.99"/>
<polygon fill="midnightblue" stroke="midnightblue" points="1935,-75.5 1945.03,-72.09 1935.07,-68.5 1935,-75.5"/>
</g>
<!-- Node59&#45;&gt;Node3 -->
<g id="edge154" class="edge">
<title>Node59&#45;&gt;Node3</title>
<path fill="none" stroke="midnightblue" d="M1904.24,-399.04C1998.84,-396.5 2206.97,-387.4 2379,-355 2482.37,-335.53 2737.39,-264.87 2833,-221 2856.08,-210.41 2857.03,-198.4 2881,-190 2955.83,-163.76 3182.83,-212.83 3236,-154 3254.88,-133.11 3226.69,-104.61 3205.01,-87.44"/>
<polygon fill="midnightblue" stroke="midnightblue" points="3206.93,-84.5 3196.85,-81.24 3202.7,-90.07 3206.93,-84.5"/>
</g>
<!-- Node59&#45;&gt;Node5 -->
<g id="edge155" class="edge">
<title>Node59&#45;&gt;Node5</title>
<path fill="none" stroke="midnightblue" d="M1801.69,-395.01C1552.16,-370.57 475.27,-262.98 418,-221 381.16,-193.99 357.99,-158.29 387,-123 411.97,-92.63 520.78,-80.22 588.25,-75.39"/>
<polygon fill="midnightblue" stroke="midnightblue" points="588.56,-78.87 598.3,-74.7 588.09,-71.89 588.56,-78.87"/>
</g>
<!-- Node59&#45;&gt;Node14 -->
<g id="edge167" class="edge">
<title>Node59&#45;&gt;Node14</title>
<path fill="none" stroke="midnightblue" d="M1904.08,-398.32C2040.89,-393.56 2413.38,-378.74 2534,-355 2616.93,-338.67 2858.18,-250.86 2945.75,-218.49"/>
<polygon fill="midnightblue" stroke="midnightblue" points="2947.01,-221.76 2955.18,-215 2944.58,-215.19 2947.01,-221.76"/>
</g>
<!-- Node59&#45;&gt;Node16 -->
<g id="edge166" class="edge">
<title>Node59&#45;&gt;Node16</title>
<path fill="none" stroke="midnightblue" d="M1904.13,-398.66C2011.08,-395.29 2254.87,-384.52 2332,-355 2453.09,-308.65 2567.95,-197.11 2608.02,-155.5"/>
<polygon fill="midnightblue" stroke="midnightblue" points="2610.66,-157.81 2615.02,-148.15 2605.59,-152.98 2610.66,-157.81"/>
</g>
<!-- Node59&#45;&gt;Node39 -->
<g id="edge156" class="edge">
<title>Node59&#45;&gt;Node39</title>
<path fill="none" stroke="midnightblue" d="M1860.07,-391.44C1871.86,-377.24 1896.37,-347.98 1918,-324 1928.51,-312.35 1940.69,-299.54 1950.15,-289.74"/>
<polygon fill="midnightblue" stroke="midnightblue" points="1952.91,-291.92 1957.36,-282.31 1947.88,-287.05 1952.91,-291.92"/>
</g>
<!-- Node59&#45;&gt;Node42 -->
<g id="edge157" class="edge">
<title>Node59&#45;&gt;Node42</title>
<path fill="none" stroke="midnightblue" d="M1904.06,-396.28C1970.15,-390.61 2080.76,-377.97 2114,-355 2134.06,-341.14 2147,-315.93 2154.33,-297.21"/>
<polygon fill="midnightblue" stroke="midnightblue" points="2157.7,-298.18 2157.83,-287.59 2151.12,-295.79 2157.7,-298.18"/>
</g>
<!-- Node59&#45;&gt;Node48 -->
<g id="edge158" class="edge">
<title>Node59&#45;&gt;Node48</title>
<path fill="none" stroke="midnightblue" d="M1878.79,-391.48C1905.33,-382.7 1947.42,-368.79 1980.93,-357.71"/>
<polygon fill="midnightblue" stroke="midnightblue" points="1982.18,-360.98 1990.58,-354.52 1979.98,-354.34 1982.18,-360.98"/>
</g>
<!-- Node59&#45;&gt;Node55 -->
<g id="edge168" class="edge">
<title>Node59&#45;&gt;Node55</title>
<path fill="none" stroke="midnightblue" d="M1801.97,-394.1C1774.74,-388.39 1742.69,-377.14 1722,-355 1690.04,-320.8 1683.09,-263.79 1681.89,-231.26"/>
<polygon fill="midnightblue" stroke="midnightblue" points="1685.38,-230.77 1681.67,-220.85 1678.38,-230.92 1685.38,-230.77"/>
</g>
<!-- Node60 -->
<g id="node48" class="node">
<title>Node60</title>
<g id="a_node48"><a xlink:href="../../dc/d8e/kratos__components_8h.html" target="_top" xlink:title=" ">
<polygon fill="none" stroke="black" points="1148.5,-263 1148.5,-282 1297.5,-282 1297.5,-263 1148.5,-263"/>
<text text-anchor="middle" x="1223" y="-270" font-family="Helvetica,sans-Serif" font-size="10.00">includes/kratos_components.h</text>
</a>
</g>
</g>
<!-- Node59&#45;&gt;Node60 -->
<g id="edge159" class="edge">
<title>Node59&#45;&gt;Node60</title>
<path fill="none" stroke="midnightblue" d="M1807.28,-391.5C1759.7,-382.6 1683.07,-368.13 1617,-355 1493.33,-330.42 1348.17,-299.98 1273.32,-284.17"/>
<polygon fill="midnightblue" stroke="midnightblue" points="1273.74,-280.68 1263.23,-282.04 1272.29,-287.53 1273.74,-280.68"/>
</g>
<!-- Node60&#45;&gt;Node2 -->
<g id="edge160" class="edge">
<title>Node60&#45;&gt;Node2</title>
<path fill="none" stroke="midnightblue" d="M1216.15,-262.78C1197.18,-237.56 1147.84,-163.71 1186,-123 1212.06,-95.2 1793.03,-77.3 1934.94,-73.34"/>
<polygon fill="midnightblue" stroke="midnightblue" points="1935.22,-76.83 1945.12,-73.05 1935.03,-69.83 1935.22,-76.83"/>
</g>
<!-- Node60&#45;&gt;Node3 -->
<g id="edge161" class="edge">
<title>Node60&#45;&gt;Node3</title>
<path fill="none" stroke="midnightblue" d="M1297.87,-269.47C1552.81,-262.43 2377.85,-238.52 2496,-221 2550.06,-212.98 2561.09,-198.99 2615,-190 2719.2,-172.62 2991.39,-194.4 3089,-154 3106.97,-146.56 3146.26,-109.67 3168.27,-88.16"/>
<polygon fill="midnightblue" stroke="midnightblue" points="3170.86,-90.52 3175.52,-81.01 3165.94,-85.54 3170.86,-90.52"/>
</g>
<!-- Node60&#45;&gt;Node5 -->
<g id="edge164" class="edge">
<title>Node60&#45;&gt;Node5</title>
<path fill="none" stroke="midnightblue" d="M1176.54,-262.94C1163.17,-260.72 1148.54,-258.53 1135,-257 1005.8,-242.41 670.83,-271.48 551,-221 540.78,-216.69 481.5,-164.14 477,-154 471.41,-141.41 468.8,-134.07 477,-123 502.33,-88.82 550.23,-76.98 588.09,-73.24"/>
<polygon fill="midnightblue" stroke="midnightblue" points="588.8,-76.69 598.47,-72.39 588.22,-69.72 588.8,-76.69"/>
</g>
<!-- Node60&#45;&gt;Node40 -->
<g id="edge165" class="edge">
<title>Node60&#45;&gt;Node40</title>
<path fill="none" stroke="midnightblue" d="M1297.57,-265.53C1460.35,-252.5 1844.04,-221.79 1983.33,-210.64"/>
<polygon fill="midnightblue" stroke="midnightblue" points="1984.02,-214.09 1993.71,-209.81 1983.46,-207.11 1984.02,-214.09"/>
</g>
<!-- Node61 -->
<g id="node49" class="node">
<title>Node61</title>
<g id="a_node49"><a xlink:title=" ">
<polygon fill="none" stroke="#bfbfbf" points="560.5,-196 560.5,-215 595.5,-215 595.5,-196 560.5,-196"/>
<text text-anchor="middle" x="578" y="-203" font-family="Helvetica,sans-Serif" font-size="10.00">map</text>
</a>
</g>
</g>
<!-- Node60&#45;&gt;Node61 -->
<g id="edge162" class="edge">
<title>Node60&#45;&gt;Node61</title>
<path fill="none" stroke="midnightblue" d="M1176.53,-262.99C1163.16,-260.77 1148.53,-258.57 1135,-257 900.03,-229.74 830.79,-288.23 604,-221 602.58,-220.58 601.14,-220.07 599.72,-219.49"/>
<polygon fill="midnightblue" stroke="midnightblue" points="601.24,-216.34 590.73,-215.06 598.15,-222.62 601.24,-216.34"/>
</g>
<!-- Node62 -->
<g id="node50" class="node">
<title>Node62</title>
<g id="a_node50"><a xlink:title=" ">
<polygon fill="none" stroke="#bfbfbf" points="613.5,-196 613.5,-215 686.5,-215 686.5,-196 613.5,-196"/>
<text text-anchor="middle" x="650" y="-203" font-family="Helvetica,sans-Serif" font-size="10.00">boost/ref.hpp</text>
</a>
</g>
</g>
<!-- Node60&#45;&gt;Node62 -->
<g id="edge163" class="edge">
<title>Node60&#45;&gt;Node62</title>
<path fill="none" stroke="midnightblue" d="M1175.6,-262.97C1162.48,-260.81 1148.22,-258.63 1135,-257 942.91,-233.25 891.43,-255.63 701,-221 696.16,-220.12 691.12,-218.98 686.17,-217.72"/>
<polygon fill="midnightblue" stroke="midnightblue" points="686.81,-214.26 676.24,-215.01 684.97,-221.02 686.81,-214.26"/>
</g>
</g>
</svg>
