<?xml version="1.0" encoding="UTF-8" standalone="no"?>
<!DOCTYPE svg PUBLIC "-//W3C//DTD SVG 1.1//EN"
 "http://www.w3.org/Graphics/SVG/1.1/DTD/svg11.dtd">
<!-- Generated by graphviz version 2.48.0 (20210719.0153)
 -->
<!-- Title: /github/workspace/kratos/python/vectorial_spaces_python.cpp Pages: 1 -->
<svg width="2336pt" height="329pt"
 viewBox="0.00 0.00 2335.50 329.00" xmlns="http://www.w3.org/2000/svg" xmlns:xlink="http://www.w3.org/1999/xlink">
<g id="graph0" class="graph" transform="scale(1 1) rotate(0) translate(4 325)">
<title>/github/workspace/kratos/python/vectorial_spaces_python.cpp</title>
<!-- Node1 -->
<g id="node1" class="node">
<title>Node1</title>
<g id="a_node1"><a xlink:title=" ">
<polygon fill="#bfbfbf" stroke="black" points="210.5,-279.5 210.5,-320.5 336.5,-320.5 336.5,-279.5 210.5,-279.5"/>
<text text-anchor="start" x="218.5" y="-308.5" font-family="Helvetica,sans-Serif" font-size="10.00">/github/workspace/kratos</text>
<text text-anchor="start" x="218.5" y="-297.5" font-family="Helvetica,sans-Serif" font-size="10.00">/python/vectorial_spaces</text>
<text text-anchor="middle" x="273.5" y="-286.5" font-family="Helvetica,sans-Serif" font-size="10.00">_python.cpp</text>
</a>
</g>
</g>
<!-- Node2 -->
<g id="node2" class="node">
<title>Node2</title>
<g id="a_node2"><a xlink:title=" ">
<polygon fill="none" stroke="#bfbfbf" points="35.5,-218 35.5,-237 125.5,-237 125.5,-218 35.5,-218"/>
<text text-anchor="middle" x="80.5" y="-225" font-family="Helvetica,sans-Serif" font-size="10.00">boost/python.hpp</text>
</a>
</g>
</g>
<!-- Node1&#45;&gt;Node2 -->
<g id="edge1" class="edge">
<title>Node1&#45;&gt;Node2</title>
<path fill="none" stroke="midnightblue" d="M220,-279.46C185.87,-266.99 142.72,-251.23 113.52,-240.56"/>
<polygon fill="midnightblue" stroke="midnightblue" points="114.4,-237.16 103.81,-237.01 112,-243.73 114.4,-237.16"/>
</g>
<!-- Node3 -->
<g id="node3" class="node">
<title>Node3</title>
<g id="a_node3"><a xlink:href="../../df/d67/define_8h.html" target="_top" xlink:title=" ">
<polygon fill="none" stroke="black" points="245,-67.5 245,-86.5 334,-86.5 334,-67.5 245,-67.5"/>
<text text-anchor="middle" x="289.5" y="-74.5" font-family="Helvetica,sans-Serif" font-size="10.00">includes/define.h</text>
</a>
</g>
</g>
<!-- Node1&#45;&gt;Node3 -->
<g id="edge2" class="edge">
<title>Node1&#45;&gt;Node3</title>
<path fill="none" stroke="midnightblue" d="M242.62,-279.35C230.31,-269.88 217.25,-257.44 209.5,-243 186.51,-200.17 177,-176.55 200.5,-134 211.88,-113.4 234.36,-99.35 253.88,-90.47"/>
<polygon fill="midnightblue" stroke="midnightblue" points="255.34,-93.66 263.17,-86.52 252.6,-87.22 255.34,-93.66"/>
</g>
<!-- Node9 -->
<g id="node9" class="node">
<title>Node9</title>
<g id="a_node9"><a xlink:href="../../d9/d3e/ublas__interface_8h.html" target="_top" xlink:title=" ">
<polygon fill="none" stroke="black" points="1105,-145.5 1105,-164.5 1234,-164.5 1234,-145.5 1105,-145.5"/>
<text text-anchor="middle" x="1169.5" y="-152.5" font-family="Helvetica,sans-Serif" font-size="10.00">includes/ublas_interface.h</text>
</a>
</g>
</g>
<!-- Node1&#45;&gt;Node9 -->
<g id="edge8" class="edge">
<title>Node1&#45;&gt;Node9</title>
<path fill="none" stroke="midnightblue" d="M336.5,-288.94C500.86,-262.71 941.3,-192.42 1106.1,-166.12"/>
<polygon fill="midnightblue" stroke="midnightblue" points="1106.76,-169.56 1116.08,-164.53 1105.66,-162.65 1106.76,-169.56"/>
</g>
<!-- Node27 -->
<g id="node27" class="node">
<title>Node27</title>
<g id="a_node27"><a xlink:href="../../d7/db5/vector__python__interface_8h.html" target="_top" xlink:title=" ">
<polygon fill="none" stroke="black" points="219,-212.5 219,-242.5 328,-242.5 328,-212.5 219,-212.5"/>
<text text-anchor="start" x="227" y="-230.5" font-family="Helvetica,sans-Serif" font-size="10.00">python/vector_python</text>
<text text-anchor="middle" x="273.5" y="-219.5" font-family="Helvetica,sans-Serif" font-size="10.00">_interface.h</text>
</a>
</g>
</g>
<!-- Node1&#45;&gt;Node27 -->
<g id="edge27" class="edge">
<title>Node1&#45;&gt;Node27</title>
<path fill="none" stroke="midnightblue" d="M273.5,-279.36C273.5,-271.23 273.5,-261.7 273.5,-253.11"/>
<polygon fill="midnightblue" stroke="midnightblue" points="277,-252.89 273.5,-242.89 270,-252.89 277,-252.89"/>
</g>
<!-- Node33 -->
<g id="node33" class="node">
<title>Node33</title>
<g id="a_node33"><a xlink:href="../../d7/dae/vector__scalar__operator__python_8h.html" target="_top" xlink:title=" ">
<polygon fill="none" stroke="black" points="607,-140 607,-170 714,-170 714,-140 607,-140"/>
<text text-anchor="start" x="615" y="-158" font-family="Helvetica,sans-Serif" font-size="10.00">python/vector_scalar</text>
<text text-anchor="middle" x="660.5" y="-147" font-family="Helvetica,sans-Serif" font-size="10.00">_operator_python.h</text>
</a>
</g>
</g>
<!-- Node1&#45;&gt;Node33 -->
<g id="edge45" class="edge">
<title>Node1&#45;&gt;Node33</title>
<path fill="none" stroke="midnightblue" d="M326.5,-279.42C402.12,-251.47 539.87,-200.57 612.59,-173.7"/>
<polygon fill="midnightblue" stroke="midnightblue" points="614.24,-176.83 622.4,-170.08 611.81,-170.26 614.24,-176.83"/>
</g>
<!-- Node4 -->
<g id="node4" class="node">
<title>Node4</title>
<g id="a_node4"><a xlink:title=" ">
<polygon fill="none" stroke="#bfbfbf" points="260,-0.5 260,-19.5 319,-19.5 319,-0.5 260,-0.5"/>
<text text-anchor="middle" x="289.5" y="-7.5" font-family="Helvetica,sans-Serif" font-size="10.00">stdexcept</text>
</a>
</g>
</g>
<!-- Node3&#45;&gt;Node4 -->
<g id="edge3" class="edge">
<title>Node3&#45;&gt;Node4</title>
<path fill="none" stroke="midnightblue" d="M289.5,-67.23C289.5,-57.68 289.5,-42.12 289.5,-29.78"/>
<polygon fill="midnightblue" stroke="midnightblue" points="293,-29.63 289.5,-19.63 286,-29.63 293,-29.63"/>
</g>
<!-- Node5 -->
<g id="node5" class="node">
<title>Node5</title>
<g id="a_node5"><a xlink:title=" ">
<polygon fill="none" stroke="#bfbfbf" points="337.5,-0.5 337.5,-19.5 389.5,-19.5 389.5,-0.5 337.5,-0.5"/>
<text text-anchor="middle" x="363.5" y="-7.5" font-family="Helvetica,sans-Serif" font-size="10.00">sstream</text>
</a>
</g>
</g>
<!-- Node3&#45;&gt;Node5 -->
<g id="edge4" class="edge">
<title>Node3&#45;&gt;Node5</title>
<path fill="none" stroke="midnightblue" d="M299.48,-67.23C311.35,-56.81 331.39,-39.21 345.88,-26.47"/>
<polygon fill="midnightblue" stroke="midnightblue" points="348.47,-28.86 353.68,-19.63 343.86,-23.6 348.47,-28.86"/>
</g>
<!-- Node6 -->
<g id="node6" class="node">
<title>Node6</title>
<g id="a_node6"><a xlink:title=" ">
<polygon fill="none" stroke="#bfbfbf" points="0,-0.5 0,-19.5 103,-19.5 103,-0.5 0,-0.5"/>
<text text-anchor="middle" x="51.5" y="-7.5" font-family="Helvetica,sans-Serif" font-size="10.00">boost/smart_ptr.hpp</text>
</a>
</g>
</g>
<!-- Node3&#45;&gt;Node6 -->
<g id="edge5" class="edge">
<title>Node3&#45;&gt;Node6</title>
<path fill="none" stroke="midnightblue" d="M257.9,-67.37C215.37,-55.75 139.65,-35.08 92.7,-22.25"/>
<polygon fill="midnightblue" stroke="midnightblue" points="93.43,-18.82 82.86,-19.56 91.58,-25.57 93.43,-18.82"/>
</g>
<!-- Node7 -->
<g id="node7" class="node">
<title>Node7</title>
<g id="a_node7"><a xlink:title=" ">
<polygon fill="none" stroke="#bfbfbf" points="408,-0.5 408,-19.5 539,-19.5 539,-0.5 408,-0.5"/>
<text text-anchor="middle" x="473.5" y="-7.5" font-family="Helvetica,sans-Serif" font-size="10.00">boost/current_function.hpp</text>
</a>
</g>
</g>
<!-- Node3&#45;&gt;Node7 -->
<g id="edge6" class="edge">
<title>Node3&#45;&gt;Node7</title>
<path fill="none" stroke="midnightblue" d="M313.93,-67.37C346.19,-55.97 403.15,-35.85 439.57,-22.99"/>
<polygon fill="midnightblue" stroke="midnightblue" points="441,-26.19 449.26,-19.56 438.66,-19.59 441,-26.19"/>
</g>
<!-- Node8 -->
<g id="node8" class="node">
<title>Node8</title>
<g id="a_node8"><a xlink:href="../../de/d17/kratos__config_8h.html" target="_top" xlink:title=" ">
<polygon fill="none" stroke="black" points="121,-0.5 121,-19.5 242,-19.5 242,-0.5 121,-0.5"/>
<text text-anchor="middle" x="181.5" y="-7.5" font-family="Helvetica,sans-Serif" font-size="10.00">includes/kratos_config.h</text>
</a>
</g>
</g>
<!-- Node3&#45;&gt;Node8 -->
<g id="edge7" class="edge">
<title>Node3&#45;&gt;Node8</title>
<path fill="none" stroke="midnightblue" d="M274.93,-67.23C256.88,-56.37 225.89,-37.72 204.58,-24.89"/>
<polygon fill="midnightblue" stroke="midnightblue" points="206.21,-21.79 195.83,-19.63 202.6,-27.78 206.21,-21.79"/>
</g>
<!-- Node9&#45;&gt;Node3 -->
<g id="edge26" class="edge">
<title>Node9&#45;&gt;Node3</title>
<path fill="none" stroke="midnightblue" d="M1104.81,-151.48C938.33,-144.68 498.13,-124.66 354.5,-98 343.88,-96.03 332.55,-92.91 322.37,-89.72"/>
<polygon fill="midnightblue" stroke="midnightblue" points="323.24,-86.32 312.64,-86.54 321.06,-92.97 323.24,-86.32"/>
</g>
<!-- Node10 -->
<g id="node10" class="node">
<title>Node10</title>
<g id="a_node10"><a xlink:title=" ">
<polygon fill="none" stroke="#bfbfbf" points="436,-67.5 436,-86.5 477,-86.5 477,-67.5 436,-67.5"/>
<text text-anchor="middle" x="456.5" y="-74.5" font-family="Helvetica,sans-Serif" font-size="10.00">string</text>
</a>
</g>
</g>
<!-- Node9&#45;&gt;Node10 -->
<g id="edge9" class="edge">
<title>Node9&#45;&gt;Node10</title>
<path fill="none" stroke="midnightblue" d="M1104.96,-150.56C945.94,-141.81 543.98,-118 486.5,-98 482.56,-96.63 478.63,-94.61 474.98,-92.38"/>
<polygon fill="midnightblue" stroke="midnightblue" points="476.85,-89.42 466.63,-86.64 472.88,-95.19 476.85,-89.42"/>
</g>
<!-- Node11 -->
<g id="node11" class="node">
<title>Node11</title>
<g id="a_node11"><a xlink:title=" ">
<polygon fill="none" stroke="#bfbfbf" points="363.5,-67.5 363.5,-86.5 417.5,-86.5 417.5,-67.5 363.5,-67.5"/>
<text text-anchor="middle" x="390.5" y="-74.5" font-family="Helvetica,sans-Serif" font-size="10.00">iostream</text>
</a>
</g>
</g>
<!-- Node9&#45;&gt;Node11 -->
<g id="edge10" class="edge">
<title>Node9&#45;&gt;Node11</title>
<path fill="none" stroke="midnightblue" d="M1104.69,-150.71C935.76,-141.91 490.55,-117.19 426.5,-98 421.54,-96.51 416.5,-94.27 411.83,-91.81"/>
<polygon fill="midnightblue" stroke="midnightblue" points="413.31,-88.62 402.9,-86.64 409.8,-94.68 413.31,-88.62"/>
</g>
<!-- Node12 -->
<g id="node12" class="node">
<title>Node12</title>
<g id="a_node12"><a xlink:title=" ">
<polygon fill="none" stroke="#bfbfbf" points="495.5,-62 495.5,-92 599.5,-92 599.5,-62 495.5,-62"/>
<text text-anchor="start" x="503.5" y="-80" font-family="Helvetica,sans-Serif" font-size="10.00">boost/numeric/ublas</text>
<text text-anchor="middle" x="547.5" y="-69" font-family="Helvetica,sans-Serif" font-size="10.00">/vector.hpp</text>
</a>
</g>
</g>
<!-- Node9&#45;&gt;Node12 -->
<g id="edge11" class="edge">
<title>Node9&#45;&gt;Node12</title>
<path fill="none" stroke="midnightblue" d="M1104.86,-152.1C999.75,-148 785.67,-135.42 608.5,-98 604.39,-97.13 600.17,-96.09 595.96,-94.93"/>
<polygon fill="midnightblue" stroke="midnightblue" points="596.79,-91.53 586.21,-92.08 594.82,-98.25 596.79,-91.53"/>
</g>
<!-- Node13 -->
<g id="node13" class="node">
<title>Node13</title>
<g id="a_node13"><a xlink:title=" ">
<polygon fill="none" stroke="#bfbfbf" points="617.5,-62 617.5,-92 721.5,-92 721.5,-62 617.5,-62"/>
<text text-anchor="start" x="625.5" y="-80" font-family="Helvetica,sans-Serif" font-size="10.00">boost/numeric/ublas</text>
<text text-anchor="middle" x="669.5" y="-69" font-family="Helvetica,sans-Serif" font-size="10.00">/vector_proxy.hpp</text>
</a>
</g>
</g>
<!-- Node9&#45;&gt;Node13 -->
<g id="edge12" class="edge">
<title>Node9&#45;&gt;Node13</title>
<path fill="none" stroke="midnightblue" d="M1104.86,-149.61C1018.65,-142.89 861.66,-127.59 730.5,-98 726.46,-97.09 722.32,-96.02 718.17,-94.86"/>
<polygon fill="midnightblue" stroke="midnightblue" points="719.15,-91.5 708.57,-92.02 717.17,-98.22 719.15,-91.5"/>
</g>
<!-- Node14 -->
<g id="node14" class="node">
<title>Node14</title>
<g id="a_node14"><a xlink:title=" ">
<polygon fill="none" stroke="#bfbfbf" points="739.5,-62 739.5,-92 843.5,-92 843.5,-62 739.5,-62"/>
<text text-anchor="start" x="747.5" y="-80" font-family="Helvetica,sans-Serif" font-size="10.00">boost/numeric/ublas</text>
<text text-anchor="middle" x="791.5" y="-69" font-family="Helvetica,sans-Serif" font-size="10.00">/vector_sparse.hpp</text>
</a>
</g>
</g>
<!-- Node9&#45;&gt;Node14 -->
<g id="edge13" class="edge">
<title>Node9&#45;&gt;Node14</title>
<path fill="none" stroke="midnightblue" d="M1105.79,-145.46C1041.38,-136.2 939.23,-119.76 852.5,-98 848.88,-97.09 845.17,-96.08 841.44,-95.01"/>
<polygon fill="midnightblue" stroke="midnightblue" points="842.21,-91.58 831.62,-92.05 840.19,-98.28 842.21,-91.58"/>
</g>
<!-- Node15 -->
<g id="node15" class="node">
<title>Node15</title>
<g id="a_node15"><a xlink:title=" ">
<polygon fill="none" stroke="#bfbfbf" points="861.5,-62 861.5,-92 977.5,-92 977.5,-62 861.5,-62"/>
<text text-anchor="start" x="869.5" y="-80" font-family="Helvetica,sans-Serif" font-size="10.00">boost/numeric/ublas</text>
<text text-anchor="middle" x="919.5" y="-69" font-family="Helvetica,sans-Serif" font-size="10.00">/vector_expression.hpp</text>
</a>
</g>
</g>
<!-- Node9&#45;&gt;Node15 -->
<g id="edge14" class="edge">
<title>Node9&#45;&gt;Node15</title>
<path fill="none" stroke="midnightblue" d="M1141.31,-145.43C1101.24,-133.25 1026.98,-110.67 975.48,-95.02"/>
<polygon fill="midnightblue" stroke="midnightblue" points="976.41,-91.64 965.82,-92.08 974.37,-98.34 976.41,-91.64"/>
</g>
<!-- Node16 -->
<g id="node16" class="node">
<title>Node16</title>
<g id="a_node16"><a xlink:title=" ">
<polygon fill="none" stroke="#bfbfbf" points="995.5,-62 995.5,-92 1099.5,-92 1099.5,-62 995.5,-62"/>
<text text-anchor="start" x="1003.5" y="-80" font-family="Helvetica,sans-Serif" font-size="10.00">boost/numeric/ublas</text>
<text text-anchor="middle" x="1047.5" y="-69" font-family="Helvetica,sans-Serif" font-size="10.00">/matrix.hpp</text>
</a>
</g>
</g>
<!-- Node9&#45;&gt;Node16 -->
<g id="edge15" class="edge">
<title>Node9&#45;&gt;Node16</title>
<path fill="none" stroke="midnightblue" d="M1155.51,-145.28C1136.89,-133.68 1103.45,-112.85 1078.69,-97.43"/>
<polygon fill="midnightblue" stroke="midnightblue" points="1080.34,-94.34 1070.01,-92.02 1076.64,-100.28 1080.34,-94.34"/>
</g>
<!-- Node17 -->
<g id="node17" class="node">
<title>Node17</title>
<g id="a_node17"><a xlink:title=" ">
<polygon fill="none" stroke="#bfbfbf" points="1117.5,-62 1117.5,-92 1221.5,-92 1221.5,-62 1117.5,-62"/>
<text text-anchor="start" x="1125.5" y="-80" font-family="Helvetica,sans-Serif" font-size="10.00">boost/numeric/ublas</text>
<text text-anchor="middle" x="1169.5" y="-69" font-family="Helvetica,sans-Serif" font-size="10.00">/matrix_sparse.hpp</text>
</a>
</g>
</g>
<!-- Node9&#45;&gt;Node17 -->
<g id="edge16" class="edge">
<title>Node9&#45;&gt;Node17</title>
<path fill="none" stroke="midnightblue" d="M1169.5,-145.28C1169.5,-134.8 1169.5,-116.79 1169.5,-102.03"/>
<polygon fill="midnightblue" stroke="midnightblue" points="1173,-102.02 1169.5,-92.02 1166,-102.02 1173,-102.02"/>
</g>
<!-- Node18 -->
<g id="node18" class="node">
<title>Node18</title>
<g id="a_node18"><a xlink:title=" ">
<polygon fill="none" stroke="#bfbfbf" points="1239.5,-62 1239.5,-92 1343.5,-92 1343.5,-62 1239.5,-62"/>
<text text-anchor="start" x="1247.5" y="-80" font-family="Helvetica,sans-Serif" font-size="10.00">boost/numeric/ublas</text>
<text text-anchor="middle" x="1291.5" y="-69" font-family="Helvetica,sans-Serif" font-size="10.00">/matrix_proxy.hpp</text>
</a>
</g>
</g>
<!-- Node9&#45;&gt;Node18 -->
<g id="edge17" class="edge">
<title>Node9&#45;&gt;Node18</title>
<path fill="none" stroke="midnightblue" d="M1183.49,-145.28C1202.11,-133.68 1235.55,-112.85 1260.31,-97.43"/>
<polygon fill="midnightblue" stroke="midnightblue" points="1262.36,-100.28 1268.99,-92.02 1258.66,-94.34 1262.36,-100.28"/>
</g>
<!-- Node19 -->
<g id="node19" class="node">
<title>Node19</title>
<g id="a_node19"><a xlink:title=" ">
<polygon fill="none" stroke="#bfbfbf" points="1361.5,-62 1361.5,-92 1465.5,-92 1465.5,-62 1361.5,-62"/>
<text text-anchor="start" x="1369.5" y="-80" font-family="Helvetica,sans-Serif" font-size="10.00">boost/numeric/ublas</text>
<text text-anchor="middle" x="1413.5" y="-69" font-family="Helvetica,sans-Serif" font-size="10.00">/symmetric.hpp</text>
</a>
</g>
</g>
<!-- Node9&#45;&gt;Node19 -->
<g id="edge18" class="edge">
<title>Node9&#45;&gt;Node19</title>
<path fill="none" stroke="midnightblue" d="M1198.08,-145.45C1234.14,-134.61 1298.02,-115.26 1352.5,-98 1355.38,-97.09 1358.34,-96.14 1361.32,-95.18"/>
<polygon fill="midnightblue" stroke="midnightblue" points="1362.44,-98.5 1370.87,-92.1 1360.28,-91.84 1362.44,-98.5"/>
</g>
<!-- Node20 -->
<g id="node20" class="node">
<title>Node20</title>
<g id="a_node20"><a xlink:title=" ">
<polygon fill="none" stroke="#bfbfbf" points="1483.5,-62 1483.5,-92 1587.5,-92 1587.5,-62 1483.5,-62"/>
<text text-anchor="start" x="1491.5" y="-80" font-family="Helvetica,sans-Serif" font-size="10.00">boost/numeric/ublas</text>
<text text-anchor="middle" x="1535.5" y="-69" font-family="Helvetica,sans-Serif" font-size="10.00">/hermitian.hpp</text>
</a>
</g>
</g>
<!-- Node9&#45;&gt;Node20 -->
<g id="edge19" class="edge">
<title>Node9&#45;&gt;Node20</title>
<path fill="none" stroke="midnightblue" d="M1229.34,-145.46C1291.21,-136.07 1390.37,-119.41 1474.5,-98 1478.11,-97.08 1481.83,-96.06 1485.55,-94.98"/>
<polygon fill="midnightblue" stroke="midnightblue" points="1486.81,-98.25 1495.37,-92.01 1484.78,-91.55 1486.81,-98.25"/>
</g>
<!-- Node21 -->
<g id="node21" class="node">
<title>Node21</title>
<g id="a_node21"><a xlink:title=" ">
<polygon fill="none" stroke="#bfbfbf" points="1605.5,-62 1605.5,-92 1709.5,-92 1709.5,-62 1605.5,-62"/>
<text text-anchor="start" x="1613.5" y="-80" font-family="Helvetica,sans-Serif" font-size="10.00">boost/numeric/ublas</text>
<text text-anchor="middle" x="1657.5" y="-69" font-family="Helvetica,sans-Serif" font-size="10.00">/banded.hpp</text>
</a>
</g>
</g>
<!-- Node9&#45;&gt;Node21 -->
<g id="edge20" class="edge">
<title>Node9&#45;&gt;Node21</title>
<path fill="none" stroke="midnightblue" d="M1234.18,-149.29C1318.41,-142.31 1469.83,-126.81 1596.5,-98 1600.53,-97.08 1604.68,-96.01 1608.82,-94.85"/>
<polygon fill="midnightblue" stroke="midnightblue" points="1609.83,-98.2 1618.43,-92 1607.84,-91.49 1609.83,-98.2"/>
</g>
<!-- Node22 -->
<g id="node22" class="node">
<title>Node22</title>
<g id="a_node22"><a xlink:title=" ">
<polygon fill="none" stroke="#bfbfbf" points="1727.5,-62 1727.5,-92 1831.5,-92 1831.5,-62 1727.5,-62"/>
<text text-anchor="start" x="1735.5" y="-80" font-family="Helvetica,sans-Serif" font-size="10.00">boost/numeric/ublas</text>
<text text-anchor="middle" x="1779.5" y="-69" font-family="Helvetica,sans-Serif" font-size="10.00">/triangular.hpp</text>
</a>
</g>
</g>
<!-- Node9&#45;&gt;Node22 -->
<g id="edge21" class="edge">
<title>Node9&#45;&gt;Node22</title>
<path fill="none" stroke="midnightblue" d="M1234.01,-151.91C1337.32,-147.56 1545.83,-134.67 1718.5,-98 1722.61,-97.13 1726.83,-96.08 1731.04,-94.92"/>
<polygon fill="midnightblue" stroke="midnightblue" points="1732.18,-98.24 1740.79,-92.07 1730.21,-91.52 1732.18,-98.24"/>
</g>
<!-- Node23 -->
<g id="node23" class="node">
<title>Node23</title>
<g id="a_node23"><a xlink:title=" ">
<polygon fill="none" stroke="#bfbfbf" points="1849.5,-62 1849.5,-92 1953.5,-92 1953.5,-62 1849.5,-62"/>
<text text-anchor="start" x="1857.5" y="-80" font-family="Helvetica,sans-Serif" font-size="10.00">boost/numeric/ublas</text>
<text text-anchor="middle" x="1901.5" y="-69" font-family="Helvetica,sans-Serif" font-size="10.00">/io.hpp</text>
</a>
</g>
</g>
<!-- Node9&#45;&gt;Node23 -->
<g id="edge22" class="edge">
<title>Node9&#45;&gt;Node23</title>
<path fill="none" stroke="midnightblue" d="M1234.04,-153.6C1354.47,-151.75 1621.1,-142.48 1840.5,-98 1844.68,-97.15 1848.97,-96.11 1853.25,-94.96"/>
<polygon fill="midnightblue" stroke="midnightblue" points="1854.52,-98.23 1863.14,-92.08 1852.56,-91.51 1854.52,-98.23"/>
</g>
<!-- Node24 -->
<g id="node24" class="node">
<title>Node24</title>
<g id="a_node24"><a xlink:title=" ">
<polygon fill="none" stroke="#bfbfbf" points="1971.5,-62 1971.5,-92 2075.5,-92 2075.5,-62 1971.5,-62"/>
<text text-anchor="start" x="1979.5" y="-80" font-family="Helvetica,sans-Serif" font-size="10.00">boost/numeric/ublas</text>
<text text-anchor="middle" x="2023.5" y="-69" font-family="Helvetica,sans-Serif" font-size="10.00">/operation.hpp</text>
</a>
</g>
</g>
<!-- Node9&#45;&gt;Node24 -->
<g id="edge23" class="edge">
<title>Node9&#45;&gt;Node24</title>
<path fill="none" stroke="midnightblue" d="M1234.19,-154.79C1370.33,-155.28 1695.86,-150.29 1962.5,-98 1966.86,-97.14 1971.35,-96.07 1975.81,-94.87"/>
<polygon fill="midnightblue" stroke="midnightblue" points="1976.86,-98.21 1985.49,-92.06 1974.91,-91.48 1976.86,-98.21"/>
</g>
<!-- Node25 -->
<g id="node25" class="node">
<title>Node25</title>
<g id="a_node25"><a xlink:title=" ">
<polygon fill="none" stroke="#bfbfbf" points="2093.5,-62 2093.5,-92 2197.5,-92 2197.5,-62 2093.5,-62"/>
<text text-anchor="start" x="2101.5" y="-80" font-family="Helvetica,sans-Serif" font-size="10.00">boost/numeric/ublas</text>
<text text-anchor="middle" x="2145.5" y="-69" font-family="Helvetica,sans-Serif" font-size="10.00">/lu.hpp</text>
</a>
</g>
</g>
<!-- Node9&#45;&gt;Node25 -->
<g id="edge24" class="edge">
<title>Node9&#45;&gt;Node25</title>
<path fill="none" stroke="midnightblue" d="M1234.18,-152.19C1414.65,-146.8 1921.15,-129.24 2084.5,-98 2088.93,-97.15 2093.48,-96.07 2098.01,-94.86"/>
<polygon fill="midnightblue" stroke="midnightblue" points="2099.19,-98.16 2107.82,-92.01 2097.24,-91.44 2099.19,-98.16"/>
</g>
<!-- Node26 -->
<g id="node26" class="node">
<title>Node26</title>
<g id="a_node26"><a xlink:title=" ">
<polygon fill="none" stroke="#bfbfbf" points="2215.5,-62 2215.5,-92 2327.5,-92 2327.5,-62 2215.5,-62"/>
<text text-anchor="start" x="2223.5" y="-80" font-family="Helvetica,sans-Serif" font-size="10.00">boost/numeric/ublas</text>
<text text-anchor="middle" x="2271.5" y="-69" font-family="Helvetica,sans-Serif" font-size="10.00">/operation_sparse.hpp</text>
</a>
</g>
</g>
<!-- Node9&#45;&gt;Node26 -->
<g id="edge25" class="edge">
<title>Node9&#45;&gt;Node26</title>
<path fill="none" stroke="midnightblue" d="M1234.2,-152.58C1430.66,-147.92 2018.34,-131.51 2206.5,-98 2211.46,-97.12 2216.57,-95.97 2221.64,-94.68"/>
<polygon fill="midnightblue" stroke="midnightblue" points="2222.59,-98.05 2231.31,-92.04 2220.74,-91.3 2222.59,-98.05"/>
</g>
<!-- Node27&#45;&gt;Node3 -->
<g id="edge28" class="edge">
<title>Node27&#45;&gt;Node3</title>
<path fill="none" stroke="midnightblue" d="M246.2,-212.36C232.8,-203.81 217.96,-191.54 210.5,-176 202.42,-159.17 201.93,-150.58 210.5,-134 220.53,-114.59 240.73,-100.46 258.19,-91.25"/>
<polygon fill="midnightblue" stroke="midnightblue" points="260.12,-94.2 267.53,-86.63 257.02,-87.93 260.12,-94.2"/>
</g>
<!-- Node28 -->
<g id="node28" class="node">
<title>Node28</title>
<g id="a_node28"><a xlink:href="../../df/ddb/readonly__vector__python__interface_8h.html" target="_top" xlink:title=" ">
<polygon fill="none" stroke="black" points="9.5,-140 9.5,-170 125.5,-170 125.5,-140 9.5,-140"/>
<text text-anchor="start" x="17.5" y="-158" font-family="Helvetica,sans-Serif" font-size="10.00">python/readonly_vector</text>
<text text-anchor="middle" x="67.5" y="-147" font-family="Helvetica,sans-Serif" font-size="10.00">_python_interface.h</text>
</a>
</g>
</g>
<!-- Node27&#45;&gt;Node28 -->
<g id="edge29" class="edge">
<title>Node27&#45;&gt;Node28</title>
<path fill="none" stroke="midnightblue" d="M232.31,-212.4C199.47,-201.16 153.32,-185.37 118.21,-173.36"/>
<polygon fill="midnightblue" stroke="midnightblue" points="119.22,-170 108.62,-170.07 116.95,-176.62 119.22,-170"/>
</g>
<!-- Node30 -->
<g id="node30" class="node">
<title>Node30</title>
<g id="a_node30"><a xlink:href="../../dc/d4f/vector__vector__operator__python_8h.html" target="_top" xlink:title=" ">
<polygon fill="none" stroke="black" points="220,-140 220,-170 327,-170 327,-140 220,-140"/>
<text text-anchor="start" x="228" y="-158" font-family="Helvetica,sans-Serif" font-size="10.00">python/vector_vector</text>
<text text-anchor="middle" x="273.5" y="-147" font-family="Helvetica,sans-Serif" font-size="10.00">_operator_python.h</text>
</a>
</g>
</g>
<!-- Node27&#45;&gt;Node30 -->
<g id="edge33" class="edge">
<title>Node27&#45;&gt;Node30</title>
<path fill="none" stroke="midnightblue" d="M273.5,-212.23C273.5,-203.16 273.5,-191.16 273.5,-180.58"/>
<polygon fill="midnightblue" stroke="midnightblue" points="277,-180.25 273.5,-170.25 270,-180.25 277,-180.25"/>
</g>
<!-- Node31 -->
<g id="node31" class="node">
<title>Node31</title>
<g id="a_node31"><a xlink:href="../../d1/dfc/vector__scalar__assignment__operator__python_8h.html" target="_top" xlink:title=" ">
<polygon fill="none" stroke="black" points="345,-134.5 345,-175.5 458,-175.5 458,-134.5 345,-134.5"/>
<text text-anchor="start" x="353" y="-163.5" font-family="Helvetica,sans-Serif" font-size="10.00">python/vector_scalar</text>
<text text-anchor="start" x="353" y="-152.5" font-family="Helvetica,sans-Serif" font-size="10.00">_assignment_operator</text>
<text text-anchor="middle" x="401.5" y="-141.5" font-family="Helvetica,sans-Serif" font-size="10.00">_python.h</text>
</a>
</g>
</g>
<!-- Node27&#45;&gt;Node31 -->
<g id="edge37" class="edge">
<title>Node27&#45;&gt;Node31</title>
<path fill="none" stroke="midnightblue" d="M299.1,-212.4C315.6,-203.31 337.5,-191.25 356.82,-180.61"/>
<polygon fill="midnightblue" stroke="midnightblue" points="358.7,-183.57 365.77,-175.68 355.32,-177.44 358.7,-183.57"/>
</g>
<!-- Node32 -->
<g id="node32" class="node">
<title>Node32</title>
<g id="a_node32"><a xlink:href="../../d5/dba/vector__vector__assignment__operator__python_8h.html" target="_top" xlink:title=" ">
<polygon fill="none" stroke="black" points="476,-134.5 476,-175.5 589,-175.5 589,-134.5 476,-134.5"/>
<text text-anchor="start" x="484" y="-163.5" font-family="Helvetica,sans-Serif" font-size="10.00">python/vector_vector</text>
<text text-anchor="start" x="484" y="-152.5" font-family="Helvetica,sans-Serif" font-size="10.00">_assignment_operator</text>
<text text-anchor="middle" x="532.5" y="-141.5" font-family="Helvetica,sans-Serif" font-size="10.00">_python.h</text>
</a>
</g>
</g>
<!-- Node27&#45;&gt;Node32 -->
<g id="edge41" class="edge">
<title>Node27&#45;&gt;Node32</title>
<path fill="none" stroke="midnightblue" d="M328.14,-212.8C364.6,-203.52 413.82,-190.73 465.9,-176.12"/>
<polygon fill="midnightblue" stroke="midnightblue" points="466.98,-179.46 475.66,-173.38 465.08,-172.72 466.98,-179.46"/>
</g>
<!-- Node28&#45;&gt;Node3 -->
<g id="edge32" class="edge">
<title>Node28&#45;&gt;Node3</title>
<path fill="none" stroke="midnightblue" d="M108.48,-139.97C150.63,-125.54 215.56,-103.31 255.13,-89.77"/>
<polygon fill="midnightblue" stroke="midnightblue" points="256.28,-93.07 264.61,-86.52 254.02,-86.45 256.28,-93.07"/>
</g>
<!-- Node28&#45;&gt;Node6 -->
<g id="edge30" class="edge">
<title>Node28&#45;&gt;Node6</title>
<path fill="none" stroke="midnightblue" d="M65.91,-139.77C63,-113.82 56.85,-58.85 53.61,-29.84"/>
<polygon fill="midnightblue" stroke="midnightblue" points="57.07,-29.33 52.48,-19.78 50.12,-30.11 57.07,-29.33"/>
</g>
<!-- Node29 -->
<g id="node29" class="node">
<title>Node29</title>
<g id="a_node29"><a xlink:title=" ">
<polygon fill="none" stroke="#bfbfbf" points="80,-56.5 80,-97.5 205,-97.5 205,-56.5 80,-56.5"/>
<text text-anchor="start" x="88" y="-85.5" font-family="Helvetica,sans-Serif" font-size="10.00">boost/python/suite</text>
<text text-anchor="start" x="88" y="-74.5" font-family="Helvetica,sans-Serif" font-size="10.00">/indexing/vector_indexing</text>
<text text-anchor="middle" x="142.5" y="-63.5" font-family="Helvetica,sans-Serif" font-size="10.00">_suite.hpp</text>
</a>
</g>
</g>
<!-- Node28&#45;&gt;Node29 -->
<g id="edge31" class="edge">
<title>Node28&#45;&gt;Node29</title>
<path fill="none" stroke="midnightblue" d="M81.61,-139.7C91.21,-129.97 104.23,-116.78 115.77,-105.09"/>
<polygon fill="midnightblue" stroke="midnightblue" points="118.55,-107.26 123.08,-97.68 113.56,-102.34 118.55,-107.26"/>
</g>
<!-- Node30&#45;&gt;Node3 -->
<g id="edge36" class="edge">
<title>Node30&#45;&gt;Node3</title>
<path fill="none" stroke="midnightblue" d="M276.51,-139.7C279.08,-127.48 282.81,-109.8 285.61,-96.49"/>
<polygon fill="midnightblue" stroke="midnightblue" points="289.06,-97.07 287.7,-86.56 282.21,-95.63 289.06,-97.07"/>
</g>
<!-- Node30&#45;&gt;Node10 -->
<g id="edge34" class="edge">
<title>Node30&#45;&gt;Node10</title>
<path fill="none" stroke="midnightblue" d="M315.2,-139.98C353.3,-126.95 406.63,-108.08 426.5,-98 429.78,-96.34 433.14,-94.38 436.36,-92.36"/>
<polygon fill="midnightblue" stroke="midnightblue" points="438.54,-95.11 444.92,-86.65 434.66,-89.29 438.54,-95.11"/>
</g>
<!-- Node30&#45;&gt;Node11 -->
<g id="edge35" class="edge">
<title>Node30&#45;&gt;Node11</title>
<path fill="none" stroke="midnightblue" d="M295.23,-139.88C316.19,-126.27 347.72,-105.79 368.7,-92.16"/>
<polygon fill="midnightblue" stroke="midnightblue" points="370.77,-94.99 377.25,-86.61 366.96,-89.12 370.77,-94.99"/>
</g>
<!-- Node31&#45;&gt;Node3 -->
<g id="edge40" class="edge">
<title>Node31&#45;&gt;Node3</title>
<path fill="none" stroke="midnightblue" d="M372.66,-134.43C353.23,-121.24 328.05,-104.16 310.51,-92.26"/>
<polygon fill="midnightblue" stroke="midnightblue" points="312.34,-89.27 302.1,-86.55 308.41,-95.06 312.34,-89.27"/>
</g>
<!-- Node31&#45;&gt;Node10 -->
<g id="edge38" class="edge">
<title>Node31&#45;&gt;Node10</title>
<path fill="none" stroke="midnightblue" d="M415.66,-134.43C424.5,-122.21 435.77,-106.64 444.23,-94.96"/>
<polygon fill="midnightblue" stroke="midnightblue" points="447.28,-96.71 450.31,-86.55 441.61,-92.6 447.28,-96.71"/>
</g>
<!-- Node31&#45;&gt;Node11 -->
<g id="edge39" class="edge">
<title>Node31&#45;&gt;Node11</title>
<path fill="none" stroke="midnightblue" d="M398.67,-134.43C396.99,-122.82 394.87,-108.18 393.21,-96.72"/>
<polygon fill="midnightblue" stroke="midnightblue" points="396.63,-95.95 391.74,-86.55 389.71,-96.95 396.63,-95.95"/>
</g>
<!-- Node32&#45;&gt;Node3 -->
<g id="edge44" class="edge">
<title>Node32&#45;&gt;Node3</title>
<path fill="none" stroke="midnightblue" d="M475.83,-136.28C429.81,-121.88 366.23,-102 326.51,-89.57"/>
<polygon fill="midnightblue" stroke="midnightblue" points="327.54,-86.23 316.95,-86.58 325.45,-92.91 327.54,-86.23"/>
</g>
<!-- Node32&#45;&gt;Node10 -->
<g id="edge42" class="edge">
<title>Node32&#45;&gt;Node10</title>
<path fill="none" stroke="midnightblue" d="M512.93,-134.43C500.35,-121.85 484.22,-105.72 472.42,-93.92"/>
<polygon fill="midnightblue" stroke="midnightblue" points="474.6,-91.15 465.05,-86.55 469.65,-96.1 474.6,-91.15"/>
</g>
<!-- Node32&#45;&gt;Node11 -->
<g id="edge43" class="edge">
<title>Node32&#45;&gt;Node11</title>
<path fill="none" stroke="midnightblue" d="M495.12,-134.49C474.77,-123.82 449.19,-110.3 426.5,-98 422.68,-95.93 418.65,-93.72 414.72,-91.54"/>
<polygon fill="midnightblue" stroke="midnightblue" points="416.32,-88.43 405.88,-86.64 412.92,-94.55 416.32,-88.43"/>
</g>
<!-- Node33&#45;&gt;Node3 -->
<g id="edge48" class="edge">
<title>Node33&#45;&gt;Node3</title>
<path fill="none" stroke="midnightblue" d="M619.42,-139.92C612.17,-137.73 604.66,-135.65 597.5,-134 491.13,-109.4 460.98,-122.12 354.5,-98 344.5,-95.73 333.81,-92.71 324.04,-89.69"/>
<polygon fill="midnightblue" stroke="midnightblue" points="324.85,-86.28 314.26,-86.59 322.74,-92.95 324.85,-86.28"/>
</g>
<!-- Node33&#45;&gt;Node10 -->
<g id="edge46" class="edge">
<title>Node33&#45;&gt;Node10</title>
<path fill="none" stroke="midnightblue" d="M616.26,-139.92C565.72,-123.82 489.55,-99.47 486.5,-98 483.03,-96.32 479.49,-94.29 476.11,-92.18"/>
<polygon fill="midnightblue" stroke="midnightblue" points="477.99,-89.23 467.74,-86.57 474.1,-95.04 477.99,-89.23"/>
</g>
<!-- Node33&#45;&gt;Node11 -->
<g id="edge47" class="edge">
<title>Node33&#45;&gt;Node11</title>
<path fill="none" stroke="midnightblue" d="M618.31,-139.97C611.39,-137.85 604.27,-135.78 597.5,-134 522.39,-114.23 499.26,-125.16 426.5,-98 421.81,-96.25 416.99,-93.96 412.46,-91.55"/>
<polygon fill="midnightblue" stroke="midnightblue" points="414.14,-88.48 403.71,-86.6 410.69,-94.57 414.14,-88.48"/>
</g>
</g>
</svg>
