<?xml version="1.0" encoding="UTF-8" standalone="no"?>
<!DOCTYPE svg PUBLIC "-//W3C//DTD SVG 1.1//EN"
 "http://www.w3.org/Graphics/SVG/1.1/DTD/svg11.dtd">
<!-- Generated by graphviz version 2.48.0 (20210719.0153)
 -->
<!-- Title: /github/workspace/applications/ExternalSolversApplication/external_includes/boost/numeric/bindings/lapack/hbev.hpp Pages: 1 -->
<svg width="1197pt" height="128pt"
 viewBox="0.00 0.00 1197.00 128.00" xmlns="http://www.w3.org/2000/svg" xmlns:xlink="http://www.w3.org/1999/xlink">
<g id="graph0" class="graph" transform="scale(1 1) rotate(0) translate(4 124)">
<title>/github/workspace/applications/ExternalSolversApplication/external_includes/boost/numeric/bindings/lapack/hbev.hpp</title>
<!-- Node1 -->
<g id="node1" class="node">
<title>Node1</title>
<g id="a_node1"><a xlink:title=" ">
<polygon fill="#bfbfbf" stroke="black" points="519,-67.5 519,-119.5 678,-119.5 678,-67.5 519,-67.5"/>
<text text-anchor="start" x="527" y="-107.5" font-family="Helvetica,sans-Serif" font-size="10.00">/github/workspace/applications</text>
<text text-anchor="start" x="527" y="-96.5" font-family="Helvetica,sans-Serif" font-size="10.00">/ExternalSolversApplication</text>
<text text-anchor="start" x="527" y="-85.5" font-family="Helvetica,sans-Serif" font-size="10.00">/external_includes/boost/numeric</text>
<text text-anchor="middle" x="598.5" y="-74.5" font-family="Helvetica,sans-Serif" font-size="10.00">/bindings/lapack/hbev.hpp</text>
</a>
</g>
</g>
<!-- Node2 -->
<g id="node2" class="node">
<title>Node2</title>
<g id="a_node2"><a xlink:title=" ">
<polygon fill="none" stroke="#bfbfbf" points="0,-0.5 0,-30.5 117,-30.5 117,-0.5 0,-0.5"/>
<text text-anchor="start" x="8" y="-18.5" font-family="Helvetica,sans-Serif" font-size="10.00">boost/numeric/bindings</text>
<text text-anchor="middle" x="58.5" y="-7.5" font-family="Helvetica,sans-Serif" font-size="10.00">/traits/type.hpp</text>
</a>
</g>
</g>
<!-- Node1&#45;&gt;Node2 -->
<g id="edge1" class="edge">
<title>Node1&#45;&gt;Node2</title>
<path fill="none" stroke="midnightblue" d="M518.69,-84.19C426.62,-74.14 270.52,-55.66 127.54,-31.28"/>
<polygon fill="midnightblue" stroke="midnightblue" points="127.72,-27.76 117.27,-29.51 126.53,-34.66 127.72,-27.76"/>
</g>
<!-- Node3 -->
<g id="node3" class="node">
<title>Node3</title>
<g id="a_node3"><a xlink:title=" ">
<polygon fill="none" stroke="#bfbfbf" points="135,-0.5 135,-30.5 252,-30.5 252,-0.5 135,-0.5"/>
<text text-anchor="start" x="143" y="-18.5" font-family="Helvetica,sans-Serif" font-size="10.00">boost/numeric/bindings</text>
<text text-anchor="middle" x="193.5" y="-7.5" font-family="Helvetica,sans-Serif" font-size="10.00">/traits/traits.hpp</text>
</a>
</g>
</g>
<!-- Node1&#45;&gt;Node3 -->
<g id="edge2" class="edge">
<title>Node1&#45;&gt;Node3</title>
<path fill="none" stroke="midnightblue" d="M518.8,-78.77C452.56,-67.17 355.58,-49.8 262.2,-31.31"/>
<polygon fill="midnightblue" stroke="midnightblue" points="262.79,-27.86 252.3,-29.34 261.43,-34.72 262.79,-27.86"/>
</g>
<!-- Node4 -->
<g id="node4" class="node">
<title>Node4</title>
<g id="a_node4"><a xlink:title=" ">
<polygon fill="none" stroke="#bfbfbf" points="270,-0.5 270,-30.5 387,-30.5 387,-0.5 270,-0.5"/>
<text text-anchor="start" x="278" y="-18.5" font-family="Helvetica,sans-Serif" font-size="10.00">boost/numeric/bindings</text>
<text text-anchor="middle" x="328.5" y="-7.5" font-family="Helvetica,sans-Serif" font-size="10.00">/traits/type_traits.hpp</text>
</a>
</g>
</g>
<!-- Node1&#45;&gt;Node4 -->
<g id="edge3" class="edge">
<title>Node1&#45;&gt;Node4</title>
<path fill="none" stroke="midnightblue" d="M518.95,-70.11C477.26,-58.37 427.02,-44.23 388.61,-33.42"/>
<polygon fill="midnightblue" stroke="midnightblue" points="389.19,-29.95 378.61,-30.61 387.29,-36.68 389.19,-29.95"/>
</g>
<!-- Node5 -->
<g id="node5" class="node">
<title>Node5</title>
<g id="a_node5"><a xlink:title=" ">
<polygon fill="none" stroke="#bfbfbf" points="405,-0.5 405,-30.5 522,-30.5 522,-0.5 405,-0.5"/>
<text text-anchor="start" x="413" y="-18.5" font-family="Helvetica,sans-Serif" font-size="10.00">boost/numeric/bindings</text>
<text text-anchor="middle" x="463.5" y="-7.5" font-family="Helvetica,sans-Serif" font-size="10.00">/lapack/lapack.h</text>
</a>
</g>
</g>
<!-- Node1&#45;&gt;Node5 -->
<g id="edge4" class="edge">
<title>Node1&#45;&gt;Node5</title>
<path fill="none" stroke="midnightblue" d="M553.92,-67.4C535.65,-57.12 514.83,-45.4 497.78,-35.8"/>
<polygon fill="midnightblue" stroke="midnightblue" points="499.17,-32.56 488.74,-30.71 495.73,-38.66 499.17,-32.56"/>
</g>
<!-- Node6 -->
<g id="node6" class="node">
<title>Node6</title>
<g id="a_node6"><a xlink:title=" ">
<polygon fill="none" stroke="#bfbfbf" points="540,-0.5 540,-30.5 657,-30.5 657,-0.5 540,-0.5"/>
<text text-anchor="start" x="548" y="-18.5" font-family="Helvetica,sans-Serif" font-size="10.00">boost/numeric/bindings</text>
<text text-anchor="middle" x="598.5" y="-7.5" font-family="Helvetica,sans-Serif" font-size="10.00">/lapack/workspace.hpp</text>
</a>
</g>
</g>
<!-- Node1&#45;&gt;Node6 -->
<g id="edge5" class="edge">
<title>Node1&#45;&gt;Node6</title>
<path fill="none" stroke="midnightblue" d="M598.5,-67.19C598.5,-58.79 598.5,-49.44 598.5,-41.09"/>
<polygon fill="midnightblue" stroke="midnightblue" points="602,-40.85 598.5,-30.85 595,-40.85 602,-40.85"/>
</g>
<!-- Node7 -->
<g id="node7" class="node">
<title>Node7</title>
<g id="a_node7"><a xlink:title=" ">
<polygon fill="none" stroke="#bfbfbf" points="675,-0.5 675,-30.5 792,-30.5 792,-0.5 675,-0.5"/>
<text text-anchor="start" x="683" y="-18.5" font-family="Helvetica,sans-Serif" font-size="10.00">boost/numeric/bindings</text>
<text text-anchor="middle" x="733.5" y="-7.5" font-family="Helvetica,sans-Serif" font-size="10.00">/traits/detail/array.hpp</text>
</a>
</g>
</g>
<!-- Node1&#45;&gt;Node7 -->
<g id="edge6" class="edge">
<title>Node1&#45;&gt;Node7</title>
<path fill="none" stroke="midnightblue" d="M643.08,-67.4C661.35,-57.12 682.17,-45.4 699.22,-35.8"/>
<polygon fill="midnightblue" stroke="midnightblue" points="701.27,-38.66 708.26,-30.71 697.83,-32.56 701.27,-38.66"/>
</g>
<!-- Node8 -->
<g id="node8" class="node">
<title>Node8</title>
<g id="a_node8"><a xlink:title=" ">
<polygon fill="none" stroke="#bfbfbf" points="810,-0.5 810,-30.5 927,-30.5 927,-0.5 810,-0.5"/>
<text text-anchor="start" x="818" y="-18.5" font-family="Helvetica,sans-Serif" font-size="10.00">boost/numeric/bindings</text>
<text text-anchor="middle" x="868.5" y="-7.5" font-family="Helvetica,sans-Serif" font-size="10.00">/traits/detail/utils.hpp</text>
</a>
</g>
</g>
<!-- Node1&#45;&gt;Node8 -->
<g id="edge7" class="edge">
<title>Node1&#45;&gt;Node8</title>
<path fill="none" stroke="midnightblue" d="M678.05,-70.11C719.74,-58.37 769.98,-44.23 808.39,-33.42"/>
<polygon fill="midnightblue" stroke="midnightblue" points="809.71,-36.68 818.39,-30.61 807.81,-29.95 809.71,-36.68"/>
</g>
<!-- Node9 -->
<g id="node9" class="node">
<title>Node9</title>
<g id="a_node9"><a xlink:title=" ">
<polygon fill="none" stroke="#bfbfbf" points="945.5,-6 945.5,-25 1063.5,-25 1063.5,-6 945.5,-6"/>
<text text-anchor="middle" x="1004.5" y="-13" font-family="Helvetica,sans-Serif" font-size="10.00">boost/static_assert.hpp</text>
</a>
</g>
</g>
<!-- Node1&#45;&gt;Node9 -->
<g id="edge8" class="edge">
<title>Node1&#45;&gt;Node9</title>
<path fill="none" stroke="midnightblue" d="M678.19,-78.7C746.76,-66.65 848.29,-48.43 936.5,-31 942.64,-29.79 949.08,-28.47 955.45,-27.14"/>
<polygon fill="midnightblue" stroke="midnightblue" points="956.28,-30.54 965.35,-25.06 954.84,-23.69 956.28,-30.54"/>
</g>
<!-- Node10 -->
<g id="node10" class="node">
<title>Node10</title>
<g id="a_node10"><a xlink:title=" ">
<polygon fill="none" stroke="#bfbfbf" points="1082,-6 1082,-25 1189,-25 1189,-6 1082,-6"/>
<text text-anchor="middle" x="1135.5" y="-13" font-family="Helvetica,sans-Serif" font-size="10.00">boost/type_traits.hpp</text>
</a>
</g>
</g>
<!-- Node1&#45;&gt;Node10 -->
<g id="edge9" class="edge">
<title>Node1&#45;&gt;Node10</title>
<path fill="none" stroke="midnightblue" d="M678.12,-84.56C772.59,-74.59 934.67,-55.74 1072.5,-31 1078.66,-29.89 1085.13,-28.58 1091.48,-27.2"/>
<polygon fill="midnightblue" stroke="midnightblue" points="1092.3,-30.61 1101.29,-25.01 1090.77,-23.78 1092.3,-30.61"/>
</g>
</g>
</svg>
