<?xml version="1.0" encoding="UTF-8" standalone="no"?>
<!DOCTYPE svg PUBLIC "-//W3C//DTD SVG 1.1//EN"
 "http://www.w3.org/Graphics/SVG/1.1/DTD/svg11.dtd">
<!-- Generated by graphviz version 2.48.0 (20210719.0153)
 -->
<!-- Title: /github/workspace/kratos/containers/vector_component_adaptor.h Pages: 1 -->
<svg width="587pt" height="330pt"
 viewBox="0.00 0.00 586.50 330.00" xmlns="http://www.w3.org/2000/svg" xmlns:xlink="http://www.w3.org/1999/xlink">
<g id="graph0" class="graph" transform="scale(1 1) rotate(0) translate(4 326)">
<title>/github/workspace/kratos/containers/vector_component_adaptor.h</title>
<!-- Node1 -->
<g id="node1" class="node">
<title>Node1</title>
<g id="a_node1"><a xlink:title=" ">
<polygon fill="#bfbfbf" stroke="black" points="281,-280.5 281,-321.5 429,-321.5 429,-280.5 281,-280.5"/>
<text text-anchor="start" x="289" y="-309.5" font-family="Helvetica,sans-Serif" font-size="10.00">/github/workspace/kratos</text>
<text text-anchor="start" x="289" y="-298.5" font-family="Helvetica,sans-Serif" font-size="10.00">/containers/vector_component</text>
<text text-anchor="middle" x="355" y="-287.5" font-family="Helvetica,sans-Serif" font-size="10.00">_adaptor.h</text>
</a>
</g>
</g>
<!-- Node2 -->
<g id="node2" class="node">
<title>Node2</title>
<g id="a_node2"><a xlink:title=" ">
<polygon fill="none" stroke="#bfbfbf" points="334.5,-56.5 334.5,-75.5 375.5,-75.5 375.5,-56.5 334.5,-56.5"/>
<text text-anchor="middle" x="355" y="-63.5" font-family="Helvetica,sans-Serif" font-size="10.00">string</text>
</a>
</g>
</g>
<!-- Node1&#45;&gt;Node2 -->
<g id="edge1" class="edge">
<title>Node1&#45;&gt;Node2</title>
<path fill="none" stroke="midnightblue" d="M392.08,-280.27C405.32,-271.15 418.74,-258.97 426,-244 451.6,-191.21 454.28,-163.4 426,-112 417.29,-96.16 400.38,-85.12 385.26,-77.93"/>
<polygon fill="midnightblue" stroke="midnightblue" points="386.24,-74.54 375.67,-73.76 383.44,-80.96 386.24,-74.54"/>
</g>
<!-- Node3 -->
<g id="node3" class="node">
<title>Node3</title>
<g id="a_node3"><a xlink:title=" ">
<polygon fill="none" stroke="#bfbfbf" points="0,-56.5 0,-75.5 54,-75.5 54,-56.5 0,-56.5"/>
<text text-anchor="middle" x="27" y="-63.5" font-family="Helvetica,sans-Serif" font-size="10.00">iostream</text>
</a>
</g>
</g>
<!-- Node1&#45;&gt;Node3 -->
<g id="edge2" class="edge">
<title>Node1&#45;&gt;Node3</title>
<path fill="none" stroke="midnightblue" d="M288.02,-280.46C233.15,-262.31 155.31,-231.51 97,-188 70.96,-168.57 66.12,-160.21 50,-132 41.65,-117.38 35.53,-99.21 31.71,-85.8"/>
<polygon fill="midnightblue" stroke="midnightblue" points="35.02,-84.6 29.05,-75.84 28.25,-86.4 35.02,-84.6"/>
</g>
<!-- Node4 -->
<g id="node4" class="node">
<title>Node4</title>
<g id="a_node4"><a xlink:href="../../df/d67/define_8h.html" target="_top" xlink:title=" ">
<polygon fill="none" stroke="black" points="194.5,-56.5 194.5,-75.5 283.5,-75.5 283.5,-56.5 194.5,-56.5"/>
<text text-anchor="middle" x="239" y="-63.5" font-family="Helvetica,sans-Serif" font-size="10.00">includes/define.h</text>
</a>
</g>
</g>
<!-- Node1&#45;&gt;Node4 -->
<g id="edge3" class="edge">
<title>Node1&#45;&gt;Node4</title>
<path fill="none" stroke="midnightblue" d="M352.93,-280.34C348.27,-244.01 334.21,-165.21 296,-112 287.18,-99.72 274.11,-89.07 262.71,-81.21"/>
<polygon fill="midnightblue" stroke="midnightblue" points="264.33,-78.09 254.04,-75.54 260.49,-83.94 264.33,-78.09"/>
</g>
<!-- Node10 -->
<g id="node10" class="node">
<title>Node10</title>
<g id="a_node10"><a xlink:href="../../da/d89/variable_8h.html" target="_top" xlink:title=" ">
<polygon fill="none" stroke="black" points="269,-224.5 269,-243.5 327,-243.5 327,-224.5 269,-224.5"/>
<text text-anchor="middle" x="298" y="-231.5" font-family="Helvetica,sans-Serif" font-size="10.00">variable.h</text>
</a>
</g>
</g>
<!-- Node1&#45;&gt;Node10 -->
<g id="edge9" class="edge">
<title>Node1&#45;&gt;Node10</title>
<path fill="none" stroke="midnightblue" d="M337.9,-280.5C329.75,-271.2 320.11,-260.21 312.34,-251.36"/>
<polygon fill="midnightblue" stroke="midnightblue" points="314.81,-248.86 305.59,-243.65 309.55,-253.48 314.81,-248.86"/>
</g>
<!-- Node5 -->
<g id="node5" class="node">
<title>Node5</title>
<g id="a_node5"><a xlink:title=" ">
<polygon fill="none" stroke="#bfbfbf" points="39.5,-0.5 39.5,-19.5 98.5,-19.5 98.5,-0.5 39.5,-0.5"/>
<text text-anchor="middle" x="69" y="-7.5" font-family="Helvetica,sans-Serif" font-size="10.00">stdexcept</text>
</a>
</g>
</g>
<!-- Node4&#45;&gt;Node5 -->
<g id="edge4" class="edge">
<title>Node4&#45;&gt;Node5</title>
<path fill="none" stroke="midnightblue" d="M212.06,-56.44C183.34,-47.32 137.67,-32.81 105.68,-22.65"/>
<polygon fill="midnightblue" stroke="midnightblue" points="106.4,-19.21 95.81,-19.52 104.28,-25.88 106.4,-19.21"/>
</g>
<!-- Node6 -->
<g id="node6" class="node">
<title>Node6</title>
<g id="a_node6"><a xlink:title=" ">
<polygon fill="none" stroke="#bfbfbf" points="117,-0.5 117,-19.5 169,-19.5 169,-0.5 117,-0.5"/>
<text text-anchor="middle" x="143" y="-7.5" font-family="Helvetica,sans-Serif" font-size="10.00">sstream</text>
</a>
</g>
</g>
<!-- Node4&#45;&gt;Node6 -->
<g id="edge5" class="edge">
<title>Node4&#45;&gt;Node6</title>
<path fill="none" stroke="midnightblue" d="M223.58,-56.32C208.46,-47.82 185.18,-34.73 167.53,-24.8"/>
<polygon fill="midnightblue" stroke="midnightblue" points="168.82,-21.51 158.39,-19.65 165.39,-27.61 168.82,-21.51"/>
</g>
<!-- Node7 -->
<g id="node7" class="node">
<title>Node7</title>
<g id="a_node7"><a xlink:title=" ">
<polygon fill="none" stroke="#bfbfbf" points="187.5,-0.5 187.5,-19.5 290.5,-19.5 290.5,-0.5 187.5,-0.5"/>
<text text-anchor="middle" x="239" y="-7.5" font-family="Helvetica,sans-Serif" font-size="10.00">boost/smart_ptr.hpp</text>
</a>
</g>
</g>
<!-- Node4&#45;&gt;Node7 -->
<g id="edge6" class="edge">
<title>Node4&#45;&gt;Node7</title>
<path fill="none" stroke="midnightblue" d="M239,-56.08C239,-49.01 239,-38.86 239,-29.99"/>
<polygon fill="midnightblue" stroke="midnightblue" points="242.5,-29.75 239,-19.75 235.5,-29.75 242.5,-29.75"/>
</g>
<!-- Node8 -->
<g id="node8" class="node">
<title>Node8</title>
<g id="a_node8"><a xlink:title=" ">
<polygon fill="none" stroke="#bfbfbf" points="308.5,-0.5 308.5,-19.5 439.5,-19.5 439.5,-0.5 308.5,-0.5"/>
<text text-anchor="middle" x="374" y="-7.5" font-family="Helvetica,sans-Serif" font-size="10.00">boost/current_function.hpp</text>
</a>
</g>
</g>
<!-- Node4&#45;&gt;Node8 -->
<g id="edge7" class="edge">
<title>Node4&#45;&gt;Node8</title>
<path fill="none" stroke="midnightblue" d="M260.39,-56.44C282.71,-47.52 317.9,-33.44 343.21,-23.32"/>
<polygon fill="midnightblue" stroke="midnightblue" points="344.72,-26.48 352.71,-19.52 342.12,-19.98 344.72,-26.48"/>
</g>
<!-- Node9 -->
<g id="node9" class="node">
<title>Node9</title>
<g id="a_node9"><a xlink:href="../../de/d17/kratos__config_8h.html" target="_top" xlink:title=" ">
<polygon fill="none" stroke="black" points="457.5,-0.5 457.5,-19.5 578.5,-19.5 578.5,-0.5 457.5,-0.5"/>
<text text-anchor="middle" x="518" y="-7.5" font-family="Helvetica,sans-Serif" font-size="10.00">includes/kratos_config.h</text>
</a>
</g>
</g>
<!-- Node4&#45;&gt;Node9 -->
<g id="edge8" class="edge">
<title>Node4&#45;&gt;Node9</title>
<path fill="none" stroke="midnightblue" d="M283.21,-56.44C332.29,-46.94 411.51,-31.61 464.16,-21.42"/>
<polygon fill="midnightblue" stroke="midnightblue" points="464.85,-24.85 474,-19.52 463.52,-17.98 464.85,-24.85"/>
</g>
<!-- Node10&#45;&gt;Node2 -->
<g id="edge10" class="edge">
<title>Node10&#45;&gt;Node2</title>
<path fill="none" stroke="midnightblue" d="M301.06,-224.08C310.08,-197.83 336.61,-120.55 348.78,-85.12"/>
<polygon fill="midnightblue" stroke="midnightblue" points="352.12,-86.16 352.06,-75.57 345.5,-83.89 352.12,-86.16"/>
</g>
<!-- Node10&#45;&gt;Node3 -->
<g id="edge11" class="edge">
<title>Node10&#45;&gt;Node3</title>
<path fill="none" stroke="midnightblue" d="M268.72,-229.29C234.13,-223.99 175.66,-212.1 131,-188 98.03,-170.21 92.23,-160.57 68,-132 55.36,-117.1 43.76,-97.97 36.15,-84.33"/>
<polygon fill="midnightblue" stroke="midnightblue" points="39.21,-82.63 31.36,-75.51 33.06,-85.97 39.21,-82.63"/>
</g>
<!-- Node10&#45;&gt;Node4 -->
<g id="edge12" class="edge">
<title>Node10&#45;&gt;Node4</title>
<path fill="none" stroke="midnightblue" d="M298.27,-224.3C298.57,-203.72 297.34,-150.84 279,-112 273.84,-101.08 265.2,-90.86 257.26,-82.92"/>
<polygon fill="midnightblue" stroke="midnightblue" points="259.39,-80.12 249.72,-75.81 254.59,-85.21 259.39,-80.12"/>
</g>
<!-- Node11 -->
<g id="node11" class="node">
<title>Node11</title>
<g id="a_node11"><a xlink:href="../../d3/dc3/variable__data_8h.html" target="_top" xlink:title=" ">
<polygon fill="none" stroke="black" points="140,-168.5 140,-187.5 222,-187.5 222,-168.5 140,-168.5"/>
<text text-anchor="middle" x="181" y="-175.5" font-family="Helvetica,sans-Serif" font-size="10.00">variable_data.h</text>
</a>
</g>
</g>
<!-- Node10&#45;&gt;Node11 -->
<g id="edge13" class="edge">
<title>Node10&#45;&gt;Node11</title>
<path fill="none" stroke="midnightblue" d="M279.46,-224.44C260.38,-215.64 230.43,-201.81 208.56,-191.72"/>
<polygon fill="midnightblue" stroke="midnightblue" points="210,-188.53 199.45,-187.52 207.07,-194.88 210,-188.53"/>
</g>
<!-- Node11&#45;&gt;Node2 -->
<g id="edge14" class="edge">
<title>Node11&#45;&gt;Node2</title>
<path fill="none" stroke="midnightblue" d="M204.51,-168.35C224.97,-160.32 255.03,-147.33 279,-132 301.46,-117.63 324.32,-97.12 339.02,-82.99"/>
<polygon fill="midnightblue" stroke="midnightblue" points="341.59,-85.38 346.29,-75.89 336.7,-80.37 341.59,-85.38"/>
</g>
<!-- Node11&#45;&gt;Node3 -->
<g id="edge15" class="edge">
<title>Node11&#45;&gt;Node3</title>
<path fill="none" stroke="midnightblue" d="M161.23,-168.39C143.42,-160.21 116.91,-146.97 96,-132 75.64,-117.43 55.11,-97.22 41.8,-83.22"/>
<polygon fill="midnightblue" stroke="midnightblue" points="44.24,-80.7 34.86,-75.78 39.13,-85.48 44.24,-80.7"/>
</g>
<!-- Node11&#45;&gt;Node4 -->
<g id="edge17" class="edge">
<title>Node11&#45;&gt;Node4</title>
<path fill="none" stroke="midnightblue" d="M155.89,-168.48C127.21,-157.36 86.41,-136.41 104,-112 122.28,-86.63 155.49,-75.35 184.39,-70.42"/>
<polygon fill="midnightblue" stroke="midnightblue" points="185.03,-73.87 194.41,-68.93 184,-66.94 185.03,-73.87"/>
</g>
<!-- Node12 -->
<g id="node12" class="node">
<title>Node12</title>
<g id="a_node12"><a xlink:title=" ">
<polygon fill="none" stroke="#bfbfbf" points="112.5,-112.5 112.5,-131.5 161.5,-131.5 161.5,-112.5 112.5,-112.5"/>
<text text-anchor="middle" x="137" y="-119.5" font-family="Helvetica,sans-Serif" font-size="10.00">cstddef</text>
</a>
</g>
</g>
<!-- Node11&#45;&gt;Node12 -->
<g id="edge16" class="edge">
<title>Node11&#45;&gt;Node12</title>
<path fill="none" stroke="midnightblue" d="M173.73,-168.08C167.46,-160.38 158.21,-149.03 150.57,-139.65"/>
<polygon fill="midnightblue" stroke="midnightblue" points="153.16,-137.29 144.13,-131.75 147.73,-141.71 153.16,-137.29"/>
</g>
<!-- Node13 -->
<g id="node13" class="node">
<title>Node13</title>
<g id="a_node13"><a xlink:href="../../d7/da2/counter_8h.html" target="_top" xlink:title=" ">
<polygon fill="none" stroke="black" points="180,-112.5 180,-131.5 270,-131.5 270,-112.5 180,-112.5"/>
<text text-anchor="middle" x="225" y="-119.5" font-family="Helvetica,sans-Serif" font-size="10.00">utilities/counter.h</text>
</a>
</g>
</g>
<!-- Node11&#45;&gt;Node13 -->
<g id="edge18" class="edge">
<title>Node11&#45;&gt;Node13</title>
<path fill="none" stroke="midnightblue" d="M188.27,-168.08C194.54,-160.38 203.79,-149.03 211.43,-139.65"/>
<polygon fill="midnightblue" stroke="midnightblue" points="214.27,-141.71 217.87,-131.75 208.84,-137.29 214.27,-141.71"/>
</g>
<!-- Node13&#45;&gt;Node2 -->
<g id="edge19" class="edge">
<title>Node13&#45;&gt;Node2</title>
<path fill="none" stroke="midnightblue" d="M245.6,-112.44C266.99,-103.56 300.68,-89.56 325.02,-79.45"/>
<polygon fill="midnightblue" stroke="midnightblue" points="326.61,-82.58 334.5,-75.52 323.92,-76.12 326.61,-82.58"/>
</g>
<!-- Node13&#45;&gt;Node3 -->
<g id="edge20" class="edge">
<title>Node13&#45;&gt;Node3</title>
<path fill="none" stroke="midnightblue" d="M193.63,-112.44C158.44,-102.85 101.43,-87.3 64.07,-77.11"/>
<polygon fill="midnightblue" stroke="midnightblue" points="64.66,-73.64 54.09,-74.39 62.82,-80.4 64.66,-73.64"/>
</g>
<!-- Node13&#45;&gt;Node4 -->
<g id="edge21" class="edge">
<title>Node13&#45;&gt;Node4</title>
<path fill="none" stroke="midnightblue" d="M227.31,-112.08C229.17,-104.93 231.84,-94.64 234.15,-85.69"/>
<polygon fill="midnightblue" stroke="midnightblue" points="237.61,-86.31 236.73,-75.75 230.83,-84.55 237.61,-86.31"/>
</g>
</g>
</svg>
