<?xml version="1.0" encoding="UTF-8" standalone="no"?>
<!DOCTYPE svg PUBLIC "-//W3C//DTD SVG 1.1//EN"
 "http://www.w3.org/Graphics/SVG/1.1/DTD/svg11.dtd">
<!-- Generated by graphviz version 2.48.0 (20210719.0153)
 -->
<!-- Title: boost::numeric::ublas::unknown_storage_tag Pages: 1 -->
<svg width="302pt" height="497pt"
 viewBox="0.00 0.00 302.00 497.00" xmlns="http://www.w3.org/2000/svg" xmlns:xlink="http://www.w3.org/1999/xlink">
<g id="graph0" class="graph" transform="scale(1 1) rotate(0) translate(4 493)">
<title>boost::numeric::ublas::unknown_storage_tag</title>
<!-- Node1 -->
<g id="node1" class="node">
<title>Node1</title>
<g id="a_node1"><a xlink:title=" ">
<polygon fill="#bfbfbf" stroke="black" points="119.5,-420.5 119.5,-488.5 235.5,-488.5 235.5,-420.5 119.5,-420.5"/>
<text text-anchor="start" x="127.5" y="-476.5" font-family="Helvetica,sans-Serif" font-size="10.00">boost::numeric::ublas</text>
<text text-anchor="middle" x="177.5" y="-465.5" font-family="Helvetica,sans-Serif" font-size="10.00">::unknown_storage_tag</text>
<polyline fill="none" stroke="black" points="119.5,-458.5 235.5,-458.5 "/>
<text text-anchor="middle" x="177.5" y="-446.5" font-family="Helvetica,sans-Serif" font-size="10.00"> </text>
<polyline fill="none" stroke="black" points="119.5,-439.5 235.5,-439.5 "/>
<text text-anchor="middle" x="177.5" y="-427.5" font-family="Helvetica,sans-Serif" font-size="10.00"> </text>
</a>
</g>
</g>
<!-- Node2 -->
<g id="node2" class="node">
<title>Node2</title>
<g id="a_node2"><a xlink:href="../../d5/d6d/structboost_1_1numeric_1_1ublas_1_1sparse__proxy__tag.html" target="_top" xlink:title=" ">
<polygon fill="none" stroke="black" points="124,-315.5 124,-383.5 231,-383.5 231,-315.5 124,-315.5"/>
<text text-anchor="start" x="132" y="-371.5" font-family="Helvetica,sans-Serif" font-size="10.00">boost::numeric::ublas</text>
<text text-anchor="middle" x="177.5" y="-360.5" font-family="Helvetica,sans-Serif" font-size="10.00">::sparse_proxy_tag</text>
<polyline fill="none" stroke="black" points="124,-353.5 231,-353.5 "/>
<text text-anchor="middle" x="177.5" y="-341.5" font-family="Helvetica,sans-Serif" font-size="10.00"> </text>
<polyline fill="none" stroke="black" points="124,-334.5 231,-334.5 "/>
<text text-anchor="middle" x="177.5" y="-322.5" font-family="Helvetica,sans-Serif" font-size="10.00"> </text>
</a>
</g>
</g>
<!-- Node1&#45;&gt;Node2 -->
<g id="edge1" class="edge">
<title>Node1&#45;&gt;Node2</title>
<path fill="none" stroke="midnightblue" d="M170.83,-410.14C170.66,-401.26 170.77,-392.04 171.15,-383.59"/>
<polygon fill="none" stroke="midnightblue" points="167.33,-410.46 171.15,-420.34 174.33,-410.24 167.33,-410.46"/>
</g>
<!-- Node1&#45;&gt;Node2 -->
<g id="edge12" class="edge">
<title>Node1&#45;&gt;Node2</title>
<path fill="none" stroke="midnightblue" d="M184.17,-410.14C184.34,-401.26 184.23,-392.04 183.85,-383.59"/>
<polygon fill="none" stroke="midnightblue" points="180.67,-410.24 183.85,-420.34 187.67,-410.46 180.67,-410.24"/>
</g>
<!-- Node3 -->
<g id="node3" class="node">
<title>Node3</title>
<g id="a_node3"><a xlink:href="../../dc/dcb/structboost_1_1numeric_1_1ublas_1_1packed__proxy__tag.html" target="_top" xlink:title=" ">
<polygon fill="none" stroke="black" points="62,-210.5 62,-278.5 169,-278.5 169,-210.5 62,-210.5"/>
<text text-anchor="start" x="70" y="-266.5" font-family="Helvetica,sans-Serif" font-size="10.00">boost::numeric::ublas</text>
<text text-anchor="middle" x="115.5" y="-255.5" font-family="Helvetica,sans-Serif" font-size="10.00">::packed_proxy_tag</text>
<polyline fill="none" stroke="black" points="62,-248.5 169,-248.5 "/>
<text text-anchor="middle" x="115.5" y="-236.5" font-family="Helvetica,sans-Serif" font-size="10.00"> </text>
<polyline fill="none" stroke="black" points="62,-229.5 169,-229.5 "/>
<text text-anchor="middle" x="115.5" y="-217.5" font-family="Helvetica,sans-Serif" font-size="10.00"> </text>
</a>
</g>
</g>
<!-- Node2&#45;&gt;Node3 -->
<g id="edge2" class="edge">
<title>Node2&#45;&gt;Node3</title>
<path fill="none" stroke="midnightblue" d="M145.8,-306.87C139.92,-297.46 134.08,-287.6 129.07,-278.59"/>
<polygon fill="none" stroke="midnightblue" points="142.87,-308.78 151.19,-315.34 148.78,-305.03 142.87,-308.78"/>
</g>
<!-- Node2&#45;&gt;Node3 -->
<g id="edge9" class="edge">
<title>Node2&#45;&gt;Node3</title>
<path fill="none" stroke="midnightblue" d="M158.91,-306.58C153.51,-297.26 147.54,-287.5 141.77,-278.59"/>
<polygon fill="none" stroke="midnightblue" points="155.91,-308.38 163.9,-315.34 161.99,-304.92 155.91,-308.38"/>
</g>
<!-- Node7 -->
<g id="node7" class="node">
<title>Node7</title>
<g id="a_node7"><a xlink:href="../../da/dcc/structboost_1_1numeric_1_1ublas_1_1sparse__tag.html" target="_top" xlink:title=" ">
<polygon fill="none" stroke="black" points="187,-210.5 187,-278.5 294,-278.5 294,-210.5 187,-210.5"/>
<text text-anchor="start" x="195" y="-266.5" font-family="Helvetica,sans-Serif" font-size="10.00">boost::numeric::ublas</text>
<text text-anchor="middle" x="240.5" y="-255.5" font-family="Helvetica,sans-Serif" font-size="10.00">::sparse_tag</text>
<polyline fill="none" stroke="black" points="187,-248.5 294,-248.5 "/>
<text text-anchor="middle" x="240.5" y="-236.5" font-family="Helvetica,sans-Serif" font-size="10.00"> </text>
<polyline fill="none" stroke="black" points="187,-229.5 294,-229.5 "/>
<text text-anchor="middle" x="240.5" y="-217.5" font-family="Helvetica,sans-Serif" font-size="10.00"> </text>
</a>
</g>
</g>
<!-- Node2&#45;&gt;Node7 -->
<g id="edge10" class="edge">
<title>Node2&#45;&gt;Node7</title>
<path fill="none" stroke="midnightblue" d="M196.49,-306.58C201.99,-297.26 208.05,-287.5 213.91,-278.59"/>
<polygon fill="none" stroke="midnightblue" points="193.4,-304.93 191.43,-315.34 199.46,-308.44 193.4,-304.93"/>
</g>
<!-- Node2&#45;&gt;Node7 -->
<g id="edge11" class="edge">
<title>Node2&#45;&gt;Node7</title>
<path fill="none" stroke="midnightblue" d="M209.6,-306.87C215.57,-297.46 221.51,-287.6 226.61,-278.59"/>
<polygon fill="none" stroke="midnightblue" points="206.62,-305.04 204.13,-315.34 212.5,-308.84 206.62,-305.04"/>
</g>
<!-- Node4 -->
<g id="node4" class="node">
<title>Node4</title>
<g id="a_node4"><a xlink:href="../../da/d7f/structboost_1_1numeric_1_1ublas_1_1dense__proxy__tag.html" target="_top" xlink:title=" ">
<polygon fill="none" stroke="black" points="0,-105.5 0,-173.5 107,-173.5 107,-105.5 0,-105.5"/>
<text text-anchor="start" x="8" y="-161.5" font-family="Helvetica,sans-Serif" font-size="10.00">boost::numeric::ublas</text>
<text text-anchor="middle" x="53.5" y="-150.5" font-family="Helvetica,sans-Serif" font-size="10.00">::dense_proxy_tag</text>
<polyline fill="none" stroke="black" points="0,-143.5 107,-143.5 "/>
<text text-anchor="middle" x="53.5" y="-131.5" font-family="Helvetica,sans-Serif" font-size="10.00"> </text>
<polyline fill="none" stroke="black" points="0,-124.5 107,-124.5 "/>
<text text-anchor="middle" x="53.5" y="-112.5" font-family="Helvetica,sans-Serif" font-size="10.00"> </text>
</a>
</g>
</g>
<!-- Node3&#45;&gt;Node4 -->
<g id="edge3" class="edge">
<title>Node3&#45;&gt;Node4</title>
<path fill="none" stroke="midnightblue" d="M83.8,-201.87C77.92,-192.46 72.08,-182.6 67.07,-173.59"/>
<polygon fill="none" stroke="midnightblue" points="80.87,-203.78 89.19,-210.34 86.78,-200.03 80.87,-203.78"/>
</g>
<!-- Node3&#45;&gt;Node4 -->
<g id="edge6" class="edge">
<title>Node3&#45;&gt;Node4</title>
<path fill="none" stroke="midnightblue" d="M96.91,-201.58C91.51,-192.26 85.54,-182.5 79.77,-173.59"/>
<polygon fill="none" stroke="midnightblue" points="93.91,-203.38 101.9,-210.34 99.99,-199.92 93.91,-203.38"/>
</g>
<!-- Node6 -->
<g id="node6" class="node">
<title>Node6</title>
<g id="a_node6"><a xlink:href="../../d4/d3d/structboost_1_1numeric_1_1ublas_1_1packed__tag.html" target="_top" xlink:title=" ">
<polygon fill="none" stroke="black" points="125,-105.5 125,-173.5 232,-173.5 232,-105.5 125,-105.5"/>
<text text-anchor="start" x="133" y="-161.5" font-family="Helvetica,sans-Serif" font-size="10.00">boost::numeric::ublas</text>
<text text-anchor="middle" x="178.5" y="-150.5" font-family="Helvetica,sans-Serif" font-size="10.00">::packed_tag</text>
<polyline fill="none" stroke="black" points="125,-143.5 232,-143.5 "/>
<text text-anchor="middle" x="178.5" y="-131.5" font-family="Helvetica,sans-Serif" font-size="10.00"> </text>
<polyline fill="none" stroke="black" points="125,-124.5 232,-124.5 "/>
<text text-anchor="middle" x="178.5" y="-112.5" font-family="Helvetica,sans-Serif" font-size="10.00"> </text>
</a>
</g>
</g>
<!-- Node3&#45;&gt;Node6 -->
<g id="edge7" class="edge">
<title>Node3&#45;&gt;Node6</title>
<path fill="none" stroke="midnightblue" d="M134.49,-201.58C139.99,-192.26 146.05,-182.5 151.91,-173.59"/>
<polygon fill="none" stroke="midnightblue" points="131.4,-199.93 129.43,-210.34 137.46,-203.44 131.4,-199.93"/>
</g>
<!-- Node3&#45;&gt;Node6 -->
<g id="edge8" class="edge">
<title>Node3&#45;&gt;Node6</title>
<path fill="none" stroke="midnightblue" d="M147.6,-201.87C153.57,-192.46 159.51,-182.6 164.61,-173.59"/>
<polygon fill="none" stroke="midnightblue" points="144.62,-200.04 142.13,-210.34 150.5,-203.84 144.62,-200.04"/>
</g>
<!-- Node5 -->
<g id="node5" class="node">
<title>Node5</title>
<g id="a_node5"><a xlink:href="../../d8/dff/structboost_1_1numeric_1_1ublas_1_1dense__tag.html" target="_top" xlink:title=" ">
<polygon fill="none" stroke="black" points="0,-0.5 0,-68.5 107,-68.5 107,-0.5 0,-0.5"/>
<text text-anchor="start" x="8" y="-56.5" font-family="Helvetica,sans-Serif" font-size="10.00">boost::numeric::ublas</text>
<text text-anchor="middle" x="53.5" y="-45.5" font-family="Helvetica,sans-Serif" font-size="10.00">::dense_tag</text>
<polyline fill="none" stroke="black" points="0,-38.5 107,-38.5 "/>
<text text-anchor="middle" x="53.5" y="-26.5" font-family="Helvetica,sans-Serif" font-size="10.00"> </text>
<polyline fill="none" stroke="black" points="0,-19.5 107,-19.5 "/>
<text text-anchor="middle" x="53.5" y="-7.5" font-family="Helvetica,sans-Serif" font-size="10.00"> </text>
</a>
</g>
</g>
<!-- Node4&#45;&gt;Node5 -->
<g id="edge4" class="edge">
<title>Node4&#45;&gt;Node5</title>
<path fill="none" stroke="midnightblue" d="M46.83,-95.14C46.66,-86.26 46.77,-77.04 47.15,-68.59"/>
<polygon fill="none" stroke="midnightblue" points="43.33,-95.46 47.15,-105.34 50.33,-95.24 43.33,-95.46"/>
</g>
<!-- Node4&#45;&gt;Node5 -->
<g id="edge5" class="edge">
<title>Node4&#45;&gt;Node5</title>
<path fill="none" stroke="midnightblue" d="M60.17,-95.14C60.34,-86.26 60.23,-77.04 59.85,-68.59"/>
<polygon fill="none" stroke="midnightblue" points="56.67,-95.24 59.85,-105.34 63.67,-95.46 56.67,-95.24"/>
</g>
</g>
</svg>
