<?xml version="1.0" encoding="UTF-8" standalone="no"?>
<!DOCTYPE svg PUBLIC "-//W3C//DTD SVG 1.1//EN"
 "http://www.w3.org/Graphics/SVG/1.1/DTD/svg11.dtd">
<!-- Generated by graphviz version 2.48.0 (20210719.0153)
 -->
<!-- Title: boost::numeric::ublas::basic_lower&lt; Z &gt; Pages: 1 -->
<svg width="264pt" height="413pt"
 viewBox="0.00 0.00 264.00 413.00" xmlns="http://www.w3.org/2000/svg" xmlns:xlink="http://www.w3.org/1999/xlink">
<g id="graph0" class="graph" transform="scale(1 1) rotate(0) translate(4 409)">
<title>boost::numeric::ublas::basic_lower&lt; Z &gt;</title>
<!-- Node1 -->
<g id="node1" class="node">
<title>Node1</title>
<g id="a_node1"><a xlink:title=" ">
<polygon fill="#bfbfbf" stroke="black" points="75.5,-226.5 75.5,-404.5 182.5,-404.5 182.5,-226.5 75.5,-226.5"/>
<text text-anchor="start" x="83.5" y="-392.5" font-family="Helvetica,sans-Serif" font-size="10.00">boost::numeric::ublas</text>
<text text-anchor="middle" x="129" y="-381.5" font-family="Helvetica,sans-Serif" font-size="10.00">::basic_lower&lt; Z &gt;</text>
<polyline fill="none" stroke="black" points="75.5,-374.5 182.5,-374.5 "/>
<text text-anchor="middle" x="129" y="-362.5" font-family="Helvetica,sans-Serif" font-size="10.00"> </text>
<polyline fill="none" stroke="black" points="75.5,-355.5 182.5,-355.5 "/>
<text text-anchor="start" x="83.5" y="-343.5" font-family="Helvetica,sans-Serif" font-size="10.00">+ packed_size()</text>
<text text-anchor="start" x="83.5" y="-332.5" font-family="Helvetica,sans-Serif" font-size="10.00">+ zero()</text>
<text text-anchor="start" x="83.5" y="-321.5" font-family="Helvetica,sans-Serif" font-size="10.00">+ one()</text>
<text text-anchor="start" x="83.5" y="-310.5" font-family="Helvetica,sans-Serif" font-size="10.00">+ other()</text>
<text text-anchor="start" x="83.5" y="-299.5" font-family="Helvetica,sans-Serif" font-size="10.00">+ element()</text>
<text text-anchor="start" x="83.5" y="-288.5" font-family="Helvetica,sans-Serif" font-size="10.00">+ restrict1()</text>
<text text-anchor="start" x="83.5" y="-277.5" font-family="Helvetica,sans-Serif" font-size="10.00">+ restrict2()</text>
<text text-anchor="start" x="83.5" y="-266.5" font-family="Helvetica,sans-Serif" font-size="10.00">+ mutable_restrict1()</text>
<text text-anchor="start" x="83.5" y="-255.5" font-family="Helvetica,sans-Serif" font-size="10.00">+ mutable_restrict2()</text>
<text text-anchor="start" x="83.5" y="-244.5" font-family="Helvetica,sans-Serif" font-size="10.00">+ packed_size()</text>
<text text-anchor="start" x="83.5" y="-233.5" font-family="Helvetica,sans-Serif" font-size="10.00">and 8 more...</text>
</a>
</g>
</g>
<!-- Node2 -->
<g id="node2" class="node">
<title>Node2</title>
<g id="a_node2"><a xlink:href="../../d4/d93/structboost_1_1numeric_1_1ublas_1_1basic__strict__lower.html" target="_top" xlink:title=" ">
<polygon fill="none" stroke="black" points="0,-6 0,-184 122,-184 122,-6 0,-6"/>
<text text-anchor="start" x="8" y="-172" font-family="Helvetica,sans-Serif" font-size="10.00">boost::numeric::ublas</text>
<text text-anchor="middle" x="61" y="-161" font-family="Helvetica,sans-Serif" font-size="10.00">::basic_strict_lower&lt; Z &gt;</text>
<polyline fill="none" stroke="black" points="0,-154 122,-154 "/>
<text text-anchor="middle" x="61" y="-142" font-family="Helvetica,sans-Serif" font-size="10.00"> </text>
<polyline fill="none" stroke="black" points="0,-135 122,-135 "/>
<text text-anchor="start" x="8" y="-123" font-family="Helvetica,sans-Serif" font-size="10.00">+ packed_size()</text>
<text text-anchor="start" x="8" y="-112" font-family="Helvetica,sans-Serif" font-size="10.00">+ zero()</text>
<text text-anchor="start" x="8" y="-101" font-family="Helvetica,sans-Serif" font-size="10.00">+ one()</text>
<text text-anchor="start" x="8" y="-90" font-family="Helvetica,sans-Serif" font-size="10.00">+ other()</text>
<text text-anchor="start" x="8" y="-79" font-family="Helvetica,sans-Serif" font-size="10.00">+ element()</text>
<text text-anchor="start" x="8" y="-68" font-family="Helvetica,sans-Serif" font-size="10.00">+ restrict1()</text>
<text text-anchor="start" x="8" y="-57" font-family="Helvetica,sans-Serif" font-size="10.00">+ restrict2()</text>
<text text-anchor="start" x="8" y="-46" font-family="Helvetica,sans-Serif" font-size="10.00">+ mutable_restrict1()</text>
<text text-anchor="start" x="8" y="-35" font-family="Helvetica,sans-Serif" font-size="10.00">+ mutable_restrict2()</text>
<text text-anchor="start" x="8" y="-24" font-family="Helvetica,sans-Serif" font-size="10.00">+ packed_size()</text>
<text text-anchor="start" x="8" y="-13" font-family="Helvetica,sans-Serif" font-size="10.00">and 8 more...</text>
</a>
</g>
</g>
<!-- Node1&#45;&gt;Node2 -->
<g id="edge1" class="edge">
<title>Node1&#45;&gt;Node2</title>
<path fill="none" stroke="midnightblue" d="M91.77,-216.45C88.36,-205.71 85,-194.83 81.82,-184.22"/>
<polygon fill="none" stroke="midnightblue" points="88.52,-217.8 94.9,-226.26 95.19,-215.67 88.52,-217.8"/>
</g>
<!-- Node1&#45;&gt;Node2 -->
<g id="edge2" class="edge">
<title>Node1&#45;&gt;Node2</title>
<path fill="none" stroke="midnightblue" d="M105.2,-216.45C101.92,-205.71 98.51,-194.83 95.09,-184.22"/>
<polygon fill="none" stroke="midnightblue" points="101.93,-217.7 108.18,-226.26 108.63,-215.67 101.93,-217.7"/>
</g>
<!-- Node3 -->
<g id="node3" class="node">
<title>Node3</title>
<g id="a_node3"><a xlink:href="../../df/d6d/structboost_1_1numeric_1_1ublas_1_1basic__unit__lower.html" target="_top" xlink:title=" ">
<polygon fill="none" stroke="black" points="140,-0.5 140,-189.5 256,-189.5 256,-0.5 140,-0.5"/>
<text text-anchor="start" x="148" y="-177.5" font-family="Helvetica,sans-Serif" font-size="10.00">boost::numeric::ublas</text>
<text text-anchor="middle" x="198" y="-166.5" font-family="Helvetica,sans-Serif" font-size="10.00">::basic_unit_lower&lt; Z &gt;</text>
<polyline fill="none" stroke="black" points="140,-159.5 256,-159.5 "/>
<text text-anchor="middle" x="198" y="-147.5" font-family="Helvetica,sans-Serif" font-size="10.00"> </text>
<polyline fill="none" stroke="black" points="140,-140.5 256,-140.5 "/>
<text text-anchor="start" x="148" y="-128.5" font-family="Helvetica,sans-Serif" font-size="10.00">+ packed_size()</text>
<text text-anchor="start" x="148" y="-117.5" font-family="Helvetica,sans-Serif" font-size="10.00">+ one()</text>
<text text-anchor="start" x="148" y="-106.5" font-family="Helvetica,sans-Serif" font-size="10.00">+ other()</text>
<text text-anchor="start" x="148" y="-95.5" font-family="Helvetica,sans-Serif" font-size="10.00">+ element()</text>
<text text-anchor="start" x="148" y="-84.5" font-family="Helvetica,sans-Serif" font-size="10.00">+ mutable_restrict1()</text>
<text text-anchor="start" x="148" y="-73.5" font-family="Helvetica,sans-Serif" font-size="10.00">+ mutable_restrict2()</text>
<text text-anchor="start" x="148" y="-62.5" font-family="Helvetica,sans-Serif" font-size="10.00">+ packed_size()</text>
<text text-anchor="start" x="148" y="-51.5" font-family="Helvetica,sans-Serif" font-size="10.00">+ one()</text>
<text text-anchor="start" x="148" y="-40.5" font-family="Helvetica,sans-Serif" font-size="10.00">+ other()</text>
<text text-anchor="start" x="148" y="-29.5" font-family="Helvetica,sans-Serif" font-size="10.00">+ element()</text>
<text text-anchor="start" x="148" y="-18.5" font-family="Helvetica,sans-Serif" font-size="10.00">+ mutable_restrict1()</text>
<text text-anchor="start" x="148" y="-7.5" font-family="Helvetica,sans-Serif" font-size="10.00">+ mutable_restrict2()</text>
</a>
</g>
</g>
<!-- Node1&#45;&gt;Node3 -->
<g id="edge3" class="edge">
<title>Node1&#45;&gt;Node3</title>
<path fill="none" stroke="midnightblue" d="M153.21,-216.57C155.99,-207.59 158.87,-198.51 161.76,-189.57"/>
<polygon fill="none" stroke="midnightblue" points="149.82,-215.67 150.23,-226.26 156.51,-217.73 149.82,-215.67"/>
</g>
<!-- Node1&#45;&gt;Node3 -->
<g id="edge4" class="edge">
<title>Node1&#45;&gt;Node3</title>
<path fill="none" stroke="midnightblue" d="M166.64,-216.57C169.53,-207.59 172.39,-198.51 175.14,-189.57"/>
<polygon fill="none" stroke="midnightblue" points="163.26,-215.67 163.5,-226.26 169.92,-217.82 163.26,-215.67"/>
</g>
</g>
</svg>
