<?xml version="1.0" encoding="UTF-8" standalone="no"?>
<!DOCTYPE svg PUBLIC "-//W3C//DTD SVG 1.1//EN"
 "http://www.w3.org/Graphics/SVG/1.1/DTD/svg11.dtd">
<!-- Generated by graphviz version 2.48.0 (20210719.0153)
 -->
<!-- Title: boost::numeric::ublas::scalar_binary_assign_functor&lt; T1, T2 &gt; Pages: 1 -->
<svg width="671pt" height="215pt"
 viewBox="0.00 0.00 671.00 215.00" xmlns="http://www.w3.org/2000/svg" xmlns:xlink="http://www.w3.org/1999/xlink">
<g id="graph0" class="graph" transform="scale(1 1) rotate(0) translate(4 211)">
<title>boost::numeric::ublas::scalar_binary_assign_functor&lt; T1, T2 &gt;</title>
<!-- Node1 -->
<g id="node1" class="node">
<title>Node1</title>
<g id="a_node1"><a xlink:title=" ">
<polygon fill="#bfbfbf" stroke="black" points="278.5,-127.5 278.5,-206.5 390.5,-206.5 390.5,-127.5 278.5,-127.5"/>
<text text-anchor="start" x="286.5" y="-194.5" font-family="Helvetica,sans-Serif" font-size="10.00">boost::numeric::ublas</text>
<text text-anchor="start" x="286.5" y="-183.5" font-family="Helvetica,sans-Serif" font-size="10.00">::scalar_binary_assign</text>
<text text-anchor="middle" x="334.5" y="-172.5" font-family="Helvetica,sans-Serif" font-size="10.00">_functor&lt; T1, T2 &gt;</text>
<polyline fill="none" stroke="black" points="278.5,-165.5 390.5,-165.5 "/>
<text text-anchor="middle" x="334.5" y="-153.5" font-family="Helvetica,sans-Serif" font-size="10.00"> </text>
<polyline fill="none" stroke="black" points="278.5,-146.5 390.5,-146.5 "/>
<text text-anchor="middle" x="334.5" y="-134.5" font-family="Helvetica,sans-Serif" font-size="10.00"> </text>
</a>
</g>
</g>
<!-- Node2 -->
<g id="node2" class="node">
<title>Node2</title>
<g id="a_node2"><a xlink:href="../../d9/ddc/structboost_1_1numeric_1_1ublas_1_1scalar__assign.html" target="_top" xlink:title=" ">
<polygon fill="none" stroke="black" points="0,-6 0,-85 125,-85 125,-6 0,-6"/>
<text text-anchor="start" x="8" y="-73" font-family="Helvetica,sans-Serif" font-size="10.00">boost::numeric::ublas</text>
<text text-anchor="middle" x="62.5" y="-62" font-family="Helvetica,sans-Serif" font-size="10.00">::scalar_assign&lt; T1, T2 &gt;</text>
<polyline fill="none" stroke="black" points="0,-55 125,-55 "/>
<text text-anchor="start" x="8" y="-43" font-family="Helvetica,sans-Serif" font-size="10.00">+ computed</text>
<polyline fill="none" stroke="black" points="0,-36 125,-36 "/>
<text text-anchor="start" x="8" y="-24" font-family="Helvetica,sans-Serif" font-size="10.00">+ apply()</text>
<text text-anchor="start" x="8" y="-13" font-family="Helvetica,sans-Serif" font-size="10.00">+ apply()</text>
</a>
</g>
</g>
<!-- Node1&#45;&gt;Node2 -->
<g id="edge1" class="edge">
<title>Node1&#45;&gt;Node2</title>
<path fill="none" stroke="midnightblue" d="M268.6,-147.73C226.32,-134.1 170.98,-113.94 124.5,-91 120.72,-89.13 116.88,-87.12 113.06,-85.01"/>
<polygon fill="none" stroke="midnightblue" points="267.64,-151.1 278.23,-150.79 269.76,-144.43 267.64,-151.1"/>
</g>
<!-- Node1&#45;&gt;Node2 -->
<g id="edge2" class="edge">
<title>Node1&#45;&gt;Node2</title>
<path fill="none" stroke="midnightblue" d="M268.54,-142.43C230.88,-129.11 183.28,-111.13 142.5,-91 136.76,-88.17 130.9,-84.99 125.07,-81.68"/>
<polygon fill="none" stroke="midnightblue" points="267.79,-145.87 278.39,-145.88 270.11,-139.27 267.79,-145.87"/>
</g>
<!-- Node3 -->
<g id="node3" class="node">
<title>Node3</title>
<g id="a_node3"><a xlink:href="../../d2/dfd/structboost_1_1numeric_1_1ublas_1_1scalar__divides__assign.html" target="_top" xlink:title=" ">
<polygon fill="none" stroke="black" points="143,-0.5 143,-90.5 260,-90.5 260,-0.5 143,-0.5"/>
<text text-anchor="start" x="151" y="-78.5" font-family="Helvetica,sans-Serif" font-size="10.00">boost::numeric::ublas</text>
<text text-anchor="start" x="151" y="-67.5" font-family="Helvetica,sans-Serif" font-size="10.00">::scalar_divides_assign</text>
<text text-anchor="middle" x="201.5" y="-56.5" font-family="Helvetica,sans-Serif" font-size="10.00">&lt; T1, T2 &gt;</text>
<polyline fill="none" stroke="black" points="143,-49.5 260,-49.5 "/>
<text text-anchor="start" x="151" y="-37.5" font-family="Helvetica,sans-Serif" font-size="10.00">+ computed</text>
<polyline fill="none" stroke="black" points="143,-30.5 260,-30.5 "/>
<text text-anchor="start" x="151" y="-18.5" font-family="Helvetica,sans-Serif" font-size="10.00">+ apply()</text>
<text text-anchor="start" x="151" y="-7.5" font-family="Helvetica,sans-Serif" font-size="10.00">+ apply()</text>
</a>
</g>
</g>
<!-- Node1&#45;&gt;Node3 -->
<g id="edge3" class="edge">
<title>Node1&#45;&gt;Node3</title>
<path fill="none" stroke="midnightblue" d="M277.36,-120.57C266.3,-110.85 254.9,-100.59 244.38,-90.91"/>
<polygon fill="none" stroke="midnightblue" points="275.12,-123.26 284.95,-127.2 279.73,-117.99 275.12,-123.26"/>
</g>
<!-- Node1&#45;&gt;Node3 -->
<g id="edge4" class="edge">
<title>Node1&#45;&gt;Node3</title>
<path fill="none" stroke="midnightblue" d="M290.21,-120.29C279.72,-110.65 268.41,-100.5 257.48,-90.91"/>
<polygon fill="none" stroke="midnightblue" points="287.97,-122.98 297.69,-127.2 292.72,-117.84 287.97,-122.98"/>
</g>
<!-- Node4 -->
<g id="node4" class="node">
<title>Node4</title>
<g id="a_node4"><a xlink:href="../../d8/dcd/structboost_1_1numeric_1_1ublas_1_1scalar__minus__assign.html" target="_top" xlink:title=" ">
<polygon fill="none" stroke="black" points="278,-0.5 278,-90.5 391,-90.5 391,-0.5 278,-0.5"/>
<text text-anchor="start" x="286" y="-78.5" font-family="Helvetica,sans-Serif" font-size="10.00">boost::numeric::ublas</text>
<text text-anchor="start" x="286" y="-67.5" font-family="Helvetica,sans-Serif" font-size="10.00">::scalar_minus_assign</text>
<text text-anchor="middle" x="334.5" y="-56.5" font-family="Helvetica,sans-Serif" font-size="10.00">&lt; T1, T2 &gt;</text>
<polyline fill="none" stroke="black" points="278,-49.5 391,-49.5 "/>
<text text-anchor="start" x="286" y="-37.5" font-family="Helvetica,sans-Serif" font-size="10.00">+ computed</text>
<polyline fill="none" stroke="black" points="278,-30.5 391,-30.5 "/>
<text text-anchor="start" x="286" y="-18.5" font-family="Helvetica,sans-Serif" font-size="10.00">+ apply()</text>
<text text-anchor="start" x="286" y="-7.5" font-family="Helvetica,sans-Serif" font-size="10.00">+ apply()</text>
</a>
</g>
</g>
<!-- Node1&#45;&gt;Node4 -->
<g id="edge5" class="edge">
<title>Node1&#45;&gt;Node4</title>
<path fill="none" stroke="midnightblue" d="M327.85,-117.19C327.69,-108.49 327.72,-99.48 327.95,-90.91"/>
<polygon fill="none" stroke="midnightblue" points="324.35,-117.3 328.13,-127.2 331.35,-117.11 324.35,-117.3"/>
</g>
<!-- Node1&#45;&gt;Node4 -->
<g id="edge6" class="edge">
<title>Node1&#45;&gt;Node4</title>
<path fill="none" stroke="midnightblue" d="M341.15,-117.19C341.31,-108.49 341.28,-99.48 341.05,-90.91"/>
<polygon fill="none" stroke="midnightblue" points="337.65,-117.11 340.87,-127.2 344.65,-117.3 337.65,-117.11"/>
</g>
<!-- Node5 -->
<g id="node5" class="node">
<title>Node5</title>
<g id="a_node5"><a xlink:href="../../df/d20/structboost_1_1numeric_1_1ublas_1_1scalar__multiplies__assign.html" target="_top" xlink:title=" ">
<polygon fill="none" stroke="black" points="409.5,-0.5 409.5,-90.5 537.5,-90.5 537.5,-0.5 409.5,-0.5"/>
<text text-anchor="start" x="417.5" y="-78.5" font-family="Helvetica,sans-Serif" font-size="10.00">boost::numeric::ublas</text>
<text text-anchor="start" x="417.5" y="-67.5" font-family="Helvetica,sans-Serif" font-size="10.00">::scalar_multiplies_assign</text>
<text text-anchor="middle" x="473.5" y="-56.5" font-family="Helvetica,sans-Serif" font-size="10.00">&lt; T1, T2 &gt;</text>
<polyline fill="none" stroke="black" points="409.5,-49.5 537.5,-49.5 "/>
<text text-anchor="start" x="417.5" y="-37.5" font-family="Helvetica,sans-Serif" font-size="10.00">+ computed</text>
<polyline fill="none" stroke="black" points="409.5,-30.5 537.5,-30.5 "/>
<text text-anchor="start" x="417.5" y="-18.5" font-family="Helvetica,sans-Serif" font-size="10.00">+ apply()</text>
<text text-anchor="start" x="417.5" y="-7.5" font-family="Helvetica,sans-Serif" font-size="10.00">+ apply()</text>
</a>
</g>
</g>
<!-- Node1&#45;&gt;Node5 -->
<g id="edge7" class="edge">
<title>Node1&#45;&gt;Node5</title>
<path fill="none" stroke="midnightblue" d="M380.81,-120.53C391.94,-110.75 403.96,-100.43 415.54,-90.7"/>
<polygon fill="none" stroke="midnightblue" points="378.44,-117.96 373.26,-127.2 383.07,-123.2 378.44,-117.96"/>
</g>
<!-- Node1&#45;&gt;Node5 -->
<g id="edge8" class="edge">
<title>Node1&#45;&gt;Node5</title>
<path fill="none" stroke="midnightblue" d="M393.92,-120.57C405.47,-110.85 417.39,-100.59 428.39,-90.91"/>
<polygon fill="none" stroke="midnightblue" points="391.42,-118.1 386,-127.2 395.91,-123.47 391.42,-118.1"/>
</g>
<!-- Node6 -->
<g id="node6" class="node">
<title>Node6</title>
<g id="a_node6"><a xlink:href="../../d0/de2/structboost_1_1numeric_1_1ublas_1_1scalar__plus__assign.html" target="_top" xlink:title=" ">
<polygon fill="none" stroke="black" points="556,-0.5 556,-90.5 663,-90.5 663,-0.5 556,-0.5"/>
<text text-anchor="start" x="564" y="-78.5" font-family="Helvetica,sans-Serif" font-size="10.00">boost::numeric::ublas</text>
<text text-anchor="start" x="564" y="-67.5" font-family="Helvetica,sans-Serif" font-size="10.00">::scalar_plus_assign</text>
<text text-anchor="middle" x="609.5" y="-56.5" font-family="Helvetica,sans-Serif" font-size="10.00">&lt; T1, T2 &gt;</text>
<polyline fill="none" stroke="black" points="556,-49.5 663,-49.5 "/>
<text text-anchor="start" x="564" y="-37.5" font-family="Helvetica,sans-Serif" font-size="10.00">+ computed</text>
<polyline fill="none" stroke="black" points="556,-30.5 663,-30.5 "/>
<text text-anchor="start" x="564" y="-18.5" font-family="Helvetica,sans-Serif" font-size="10.00">+ apply()</text>
<text text-anchor="start" x="564" y="-7.5" font-family="Helvetica,sans-Serif" font-size="10.00">+ apply()</text>
</a>
</g>
</g>
<!-- Node1&#45;&gt;Node6 -->
<g id="edge9" class="edge">
<title>Node1&#45;&gt;Node6</title>
<path fill="none" stroke="midnightblue" d="M400.71,-145.28C441.31,-132.29 493.62,-113.71 537.5,-91 543.57,-87.86 549.71,-84.21 555.74,-80.37"/>
<polygon fill="none" stroke="midnightblue" points="399.4,-142.03 390.92,-148.38 401.51,-148.7 399.4,-142.03"/>
</g>
<!-- Node1&#45;&gt;Node6 -->
<g id="edge10" class="edge">
<title>Node1&#45;&gt;Node6</title>
<path fill="none" stroke="midnightblue" d="M400.39,-150.06C445.57,-137.05 505.91,-116.66 555.5,-91 555.74,-90.88 555.98,-90.75 556.21,-90.63"/>
<polygon fill="none" stroke="midnightblue" points="399.37,-146.71 390.71,-152.8 401.28,-153.45 399.37,-146.71"/>
</g>
</g>
</svg>
