<?xml version="1.0" encoding="UTF-8" standalone="no"?>
<!DOCTYPE svg PUBLIC "-//W3C//DTD SVG 1.1//EN"
 "http://www.w3.org/Graphics/SVG/1.1/DTD/svg11.dtd">
<!-- Generated by graphviz version 2.48.0 (20210719.0153)
 -->
<!-- Title: boost::numeric::ublas::scalar_binary_assign_functor&lt; T1, T2 &gt; Pages: 1 -->
<!--zoomable 215 -->
<svg id="main" version="1.1" xmlns="http://www.w3.org/2000/svg" xmlns:xlink="http://www.w3.org/1999/xlink" xml:space="preserve" onload="init(evt)">
<style type="text/css"><![CDATA[
.edge:hover path { stroke: red; }
.edge:hover polygon { stroke: red; fill: red; }
]]></style>
<script type="text/javascript"><![CDATA[
var edges = document.getElementsByTagName('g');
if (edges && edges.length) {
  for (var i=0;i<edges.length;i++) {
    if (edges[i].id.substr(0,4)=='edge') {
      edges[i].setAttribute('class','edge');
    }
  }
}
]]></script>
        <defs>
                <circle id="rim" cx="0" cy="0" r="7"/>
                <circle id="rim2" cx="0" cy="0" r="3.5"/>
                <g id="zoomPlus">
                        <use xlink:href="#rim" fill="#404040">
                                <set attributeName="fill" to="#808080" begin="zoomplus.mouseover" end="zoomplus.mouseout"/>
                        </use>
                        <path d="M-4,0h8M0,-4v8" fill="none" stroke="white" stroke-width="1.5" pointer-events="none"/>
                </g>
                <g id="zoomMin">
                        <use xlink:href="#rim" fill="#404040">
                                <set attributeName="fill" to="#808080" begin="zoomminus.mouseover" end="zoomminus.mouseout"/>
                        </use>
                        <path d="M-4,0h8" fill="none" stroke="white" stroke-width="1.5" pointer-events="none"/>
                </g>
                <g id="dirArrow">
                        <path fill="none" stroke="white" stroke-width="1.5" d="M0,-3.0v7 M-2.5,-0.5L0,-3.0L2.5,-0.5"/>
                </g>
               <g id="resetDef">
                       <use xlink:href="#rim2" fill="#404040">
                               <set attributeName="fill" to="#808080" begin="reset.mouseover" end="reset.mouseout"/>
                       </use>
               </g>
        </defs>

<script type="text/javascript">
var viewWidth = 671;
var viewHeight = 215;
var sectionId = 'dynsection-0';
</script>
<script xlink:href="../../svgpan.js"/>
<svg id="graph" class="graph">
<g id="viewport">
<title>boost::numeric::ublas::scalar_binary_assign_functor&lt; T1, T2 &gt;</title>
<!-- Node1 -->
<g id="node1" class="node">
<title>Node1</title>
<g id="a_node1"><a xlink:title=" ">
<polygon fill="#bfbfbf" stroke="black" points="278.5,-127.5 278.5,-206.5 390.5,-206.5 390.5,-127.5 278.5,-127.5"/>
<text text-anchor="start" x="286.5" y="-194.5" font-family="Helvetica,sans-Serif" font-size="10.00">boost::numeric::ublas</text>
<text text-anchor="start" x="286.5" y="-183.5" font-family="Helvetica,sans-Serif" font-size="10.00">::scalar_binary_assign</text>
<text text-anchor="middle" x="334.5" y="-172.5" font-family="Helvetica,sans-Serif" font-size="10.00">_functor&lt; T1, T2 &gt;</text>
<polyline fill="none" stroke="black" points="278.5,-165.5 390.5,-165.5 "/>
<text text-anchor="middle" x="334.5" y="-153.5" font-family="Helvetica,sans-Serif" font-size="10.00"> </text>
<polyline fill="none" stroke="black" points="278.5,-146.5 390.5,-146.5 "/>
<text text-anchor="middle" x="334.5" y="-134.5" font-family="Helvetica,sans-Serif" font-size="10.00"> </text>
</a>
</g>
</g>
<!-- Node2 -->
<g id="node2" class="node">
<title>Node2</title>
<g id="a_node2"><a xlink:href="../../d9/ddc/structboost_1_1numeric_1_1ublas_1_1scalar__assign.html" target="_top" xlink:title=" ">
<polygon fill="none" stroke="black" points="0,-6 0,-85 125,-85 125,-6 0,-6"/>
<text text-anchor="start" x="8" y="-73" font-family="Helvetica,sans-Serif" font-size="10.00">boost::numeric::ublas</text>
<text text-anchor="middle" x="62.5" y="-62" font-family="Helvetica,sans-Serif" font-size="10.00">::scalar_assign&lt; T1, T2 &gt;</text>
<polyline fill="none" stroke="black" points="0,-55 125,-55 "/>
<text text-anchor="start" x="8" y="-43" font-family="Helvetica,sans-Serif" font-size="10.00">+ computed</text>
<polyline fill="none" stroke="black" points="0,-36 125,-36 "/>
<text text-anchor="start" x="8" y="-24" font-family="Helvetica,sans-Serif" font-size="10.00">+ apply()</text>
<text text-anchor="start" x="8" y="-13" font-family="Helvetica,sans-Serif" font-size="10.00">+ apply()</text>
</a>
</g>
</g>
<!-- Node1&#45;&gt;Node2 -->
<g id="edge1" class="edge">
<title>Node1&#45;&gt;Node2</title>
<path fill="none" stroke="midnightblue" d="M268.6,-147.73C226.32,-134.1 170.98,-113.94 124.5,-91 120.72,-89.13 116.88,-87.12 113.06,-85.01"/>
<polygon fill="none" stroke="midnightblue" points="267.64,-151.1 278.23,-150.79 269.76,-144.43 267.64,-151.1"/>
</g>
<!-- Node1&#45;&gt;Node2 -->
<g id="edge2" class="edge">
<title>Node1&#45;&gt;Node2</title>
<path fill="none" stroke="midnightblue" d="M268.54,-142.43C230.88,-129.11 183.28,-111.13 142.5,-91 136.76,-88.17 130.9,-84.99 125.07,-81.68"/>
<polygon fill="none" stroke="midnightblue" points="267.79,-145.87 278.39,-145.88 270.11,-139.27 267.79,-145.87"/>
</g>
<!-- Node3 -->
<g id="node3" class="node">
<title>Node3</title>
<g id="a_node3"><a xlink:href="../../d2/dfd/structboost_1_1numeric_1_1ublas_1_1scalar__divides__assign.html" target="_top" xlink:title=" ">
<polygon fill="none" stroke="black" points="143,-0.5 143,-90.5 260,-90.5 260,-0.5 143,-0.5"/>
<text text-anchor="start" x="151" y="-78.5" font-family="Helvetica,sans-Serif" font-size="10.00">boost::numeric::ublas</text>
<text text-anchor="start" x="151" y="-67.5" font-family="Helvetica,sans-Serif" font-size="10.00">::scalar_divides_assign</text>
<text text-anchor="middle" x="201.5" y="-56.5" font-family="Helvetica,sans-Serif" font-size="10.00">&lt; T1, T2 &gt;</text>
<polyline fill="none" stroke="black" points="143,-49.5 260,-49.5 "/>
<text text-anchor="start" x="151" y="-37.5" font-family="Helvetica,sans-Serif" font-size="10.00">+ computed</text>
<polyline fill="none" stroke="black" points="143,-30.5 260,-30.5 "/>
<text text-anchor="start" x="151" y="-18.5" font-family="Helvetica,sans-Serif" font-size="10.00">+ apply()</text>
<text text-anchor="start" x="151" y="-7.5" font-family="Helvetica,sans-Serif" font-size="10.00">+ apply()</text>
</a>
</g>
</g>
<!-- Node1&#45;&gt;Node3 -->
<g id="edge3" class="edge">
<title>Node1&#45;&gt;Node3</title>
<path fill="none" stroke="midnightblue" d="M277.36,-120.57C266.3,-110.85 254.9,-100.59 244.38,-90.91"/>
<polygon fill="none" stroke="midnightblue" points="275.12,-123.26 284.95,-127.2 279.73,-117.99 275.12,-123.26"/>
</g>
<!-- Node1&#45;&gt;Node3 -->
<g id="edge4" class="edge">
<title>Node1&#45;&gt;Node3</title>
<path fill="none" stroke="midnightblue" d="M290.21,-120.29C279.72,-110.65 268.41,-100.5 257.48,-90.91"/>
<polygon fill="none" stroke="midnightblue" points="287.97,-122.98 297.69,-127.2 292.72,-117.84 287.97,-122.98"/>
</g>
<!-- Node4 -->
<g id="node4" class="node">
<title>Node4</title>
<g id="a_node4"><a xlink:href="../../d8/dcd/structboost_1_1numeric_1_1ublas_1_1scalar__minus__assign.html" target="_top" xlink:title=" ">
<polygon fill="none" stroke="black" points="278,-0.5 278,-90.5 391,-90.5 391,-0.5 278,-0.5"/>
<text text-anchor="start" x="286" y="-78.5" font-family="Helvetica,sans-Serif" font-size="10.00">boost::numeric::ublas</text>
<text text-anchor="start" x="286" y="-67.5" font-family="Helvetica,sans-Serif" font-size="10.00">::scalar_minus_assign</text>
<text text-anchor="middle" x="334.5" y="-56.5" font-family="Helvetica,sans-Serif" font-size="10.00">&lt; T1, T2 &gt;</text>
<polyline fill="none" stroke="black" points="278,-49.5 391,-49.5 "/>
<text text-anchor="start" x="286" y="-37.5" font-family="Helvetica,sans-Serif" font-size="10.00">+ computed</text>
<polyline fill="none" stroke="black" points="278,-30.5 391,-30.5 "/>
<text text-anchor="start" x="286" y="-18.5" font-family="Helvetica,sans-Serif" font-size="10.00">+ apply()</text>
<text text-anchor="start" x="286" y="-7.5" font-family="Helvetica,sans-Serif" font-size="10.00">+ apply()</text>
</a>
</g>
</g>
<!-- Node1&#45;&gt;Node4 -->
<g id="edge5" class="edge">
<title>Node1&#45;&gt;Node4</title>
<path fill="none" stroke="midnightblue" d="M327.85,-117.19C327.69,-108.49 327.72,-99.48 327.95,-90.91"/>
<polygon fill="none" stroke="midnightblue" points="324.35,-117.3 328.13,-127.2 331.35,-117.11 324.35,-117.3"/>
</g>
<!-- Node1&#45;&gt;Node4 -->
<g id="edge6" class="edge">
<title>Node1&#45;&gt;Node4</title>
<path fill="none" stroke="midnightblue" d="M341.15,-117.19C341.31,-108.49 341.28,-99.48 341.05,-90.91"/>
<polygon fill="none" stroke="midnightblue" points="337.65,-117.11 340.87,-127.2 344.65,-117.3 337.65,-117.11"/>
</g>
<!-- Node5 -->
<g id="node5" class="node">
<title>Node5</title>
<g id="a_node5"><a xlink:href="../../df/d20/structboost_1_1numeric_1_1ublas_1_1scalar__multiplies__assign.html" target="_top" xlink:title=" ">
<polygon fill="none" stroke="black" points="409.5,-0.5 409.5,-90.5 537.5,-90.5 537.5,-0.5 409.5,-0.5"/>
<text text-anchor="start" x="417.5" y="-78.5" font-family="Helvetica,sans-Serif" font-size="10.00">boost::numeric::ublas</text>
<text text-anchor="start" x="417.5" y="-67.5" font-family="Helvetica,sans-Serif" font-size="10.00">::scalar_multiplies_assign</text>
<text text-anchor="middle" x="473.5" y="-56.5" font-family="Helvetica,sans-Serif" font-size="10.00">&lt; T1, T2 &gt;</text>
<polyline fill="none" stroke="black" points="409.5,-49.5 537.5,-49.5 "/>
<text text-anchor="start" x="417.5" y="-37.5" font-family="Helvetica,sans-Serif" font-size="10.00">+ computed</text>
<polyline fill="none" stroke="black" points="409.5,-30.5 537.5,-30.5 "/>
<text text-anchor="start" x="417.5" y="-18.5" font-family="Helvetica,sans-Serif" font-size="10.00">+ apply()</text>
<text text-anchor="start" x="417.5" y="-7.5" font-family="Helvetica,sans-Serif" font-size="10.00">+ apply()</text>
</a>
</g>
</g>
<!-- Node1&#45;&gt;Node5 -->
<g id="edge7" class="edge">
<title>Node1&#45;&gt;Node5</title>
<path fill="none" stroke="midnightblue" d="M380.81,-120.53C391.94,-110.75 403.96,-100.43 415.54,-90.7"/>
<polygon fill="none" stroke="midnightblue" points="378.44,-117.96 373.26,-127.2 383.07,-123.2 378.44,-117.96"/>
</g>
<!-- Node1&#45;&gt;Node5 -->
<g id="edge8" class="edge">
<title>Node1&#45;&gt;Node5</title>
<path fill="none" stroke="midnightblue" d="M393.92,-120.57C405.47,-110.85 417.39,-100.59 428.39,-90.91"/>
<polygon fill="none" stroke="midnightblue" points="391.42,-118.1 386,-127.2 395.91,-123.47 391.42,-118.1"/>
</g>
<!-- Node6 -->
<g id="node6" class="node">
<title>Node6</title>
<g id="a_node6"><a xlink:href="../../d0/de2/structboost_1_1numeric_1_1ublas_1_1scalar__plus__assign.html" target="_top" xlink:title=" ">
<polygon fill="none" stroke="black" points="556,-0.5 556,-90.5 663,-90.5 663,-0.5 556,-0.5"/>
<text text-anchor="start" x="564" y="-78.5" font-family="Helvetica,sans-Serif" font-size="10.00">boost::numeric::ublas</text>
<text text-anchor="start" x="564" y="-67.5" font-family="Helvetica,sans-Serif" font-size="10.00">::scalar_plus_assign</text>
<text text-anchor="middle" x="609.5" y="-56.5" font-family="Helvetica,sans-Serif" font-size="10.00">&lt; T1, T2 &gt;</text>
<polyline fill="none" stroke="black" points="556,-49.5 663,-49.5 "/>
<text text-anchor="start" x="564" y="-37.5" font-family="Helvetica,sans-Serif" font-size="10.00">+ computed</text>
<polyline fill="none" stroke="black" points="556,-30.5 663,-30.5 "/>
<text text-anchor="start" x="564" y="-18.5" font-family="Helvetica,sans-Serif" font-size="10.00">+ apply()</text>
<text text-anchor="start" x="564" y="-7.5" font-family="Helvetica,sans-Serif" font-size="10.00">+ apply()</text>
</a>
</g>
</g>
<!-- Node1&#45;&gt;Node6 -->
<g id="edge9" class="edge">
<title>Node1&#45;&gt;Node6</title>
<path fill="none" stroke="midnightblue" d="M400.71,-145.28C441.31,-132.29 493.62,-113.71 537.5,-91 543.57,-87.86 549.71,-84.21 555.74,-80.37"/>
<polygon fill="none" stroke="midnightblue" points="399.4,-142.03 390.92,-148.38 401.51,-148.7 399.4,-142.03"/>
</g>
<!-- Node1&#45;&gt;Node6 -->
<g id="edge10" class="edge">
<title>Node1&#45;&gt;Node6</title>
<path fill="none" stroke="midnightblue" d="M400.39,-150.06C445.57,-137.05 505.91,-116.66 555.5,-91 555.74,-90.88 555.98,-90.75 556.21,-90.63"/>
<polygon fill="none" stroke="midnightblue" points="399.37,-146.71 390.71,-152.8 401.28,-153.45 399.37,-146.71"/>
</g>
</g>
</svg>
        <g id="navigator" transform="translate(0 0)" fill="#404254">
                <rect fill="#f2f5e9" fill-opacity="0.5" stroke="#606060" stroke-width=".5" x="0" y="0" width="60" height="60"/>
                <use id="zoomplus" xlink:href="#zoomPlus" x="17" y="9" onmousedown="handleZoom(evt,'in')"/>
                <use id="zoomminus" xlink:href="#zoomMin" x="42" y="9" onmousedown="handleZoom(evt,'out')"/>
                <use id="reset" xlink:href="#resetDef" x="30" y="36" onmousedown="handleReset()"/>
                <g id="arrowUp" xlink:href="#dirArrow" transform="translate(30 24)" onmousedown="handlePan(0,-1)">
                  <use xlink:href="#rim" fill="#404040">
                        <set attributeName="fill" to="#808080" begin="arrowUp.mouseover" end="arrowUp.mouseout"/>
                  </use>
                  <path fill="none" stroke="white" stroke-width="1.5" d="M0,-3.0v7 M-2.5,-0.5L0,-3.0L2.5,-0.5"/>
                </g>
                <g id="arrowRight" xlink:href="#dirArrow" transform="rotate(90) translate(36 -43)" onmousedown="handlePan(1,0)">
                  <use xlink:href="#rim" fill="#404040">
                        <set attributeName="fill" to="#808080" begin="arrowRight.mouseover" end="arrowRight.mouseout"/>
                  </use>
                  <path fill="none" stroke="white" stroke-width="1.5" d="M0,-3.0v7 M-2.5,-0.5L0,-3.0L2.5,-0.5"/>
                </g>
                <g id="arrowDown" xlink:href="#dirArrow" transform="rotate(180) translate(-30 -48)" onmousedown="handlePan(0,1)">
                  <use xlink:href="#rim" fill="#404040">
                        <set attributeName="fill" to="#808080" begin="arrowDown.mouseover" end="arrowDown.mouseout"/>
                  </use>
                  <path fill="none" stroke="white" stroke-width="1.5" d="M0,-3.0v7 M-2.5,-0.5L0,-3.0L2.5,-0.5"/>
                </g>
                <g id="arrowLeft" xlink:href="#dirArrow" transform="rotate(270) translate(-36 17)" onmousedown="handlePan(-1,0)">
                  <use xlink:href="#rim" fill="#404040">
                        <set attributeName="fill" to="#808080" begin="arrowLeft.mouseover" end="arrowLeft.mouseout"/>
                  </use>
                  <path fill="none" stroke="white" stroke-width="1.5" d="M0,-3.0v7 M-2.5,-0.5L0,-3.0L2.5,-0.5"/>
                </g>
        </g>
        <svg viewBox="0 0 15 15" width="100%" height="30px" preserveAspectRatio="xMaxYMin meet">
         <g id="arrow_out" transform="scale(0.3 0.3)">
          <a xlink:href="structboost_1_1numeric_1_1ublas_1_1scalar__binary__assign__functor__inherit__graph_org.svg" target="_base">
           <rect id="button" ry="5" rx="5" y="6" x="6" height="38" width="38"
                fill="#f2f5e9" fill-opacity="0.5" stroke="#606060" stroke-width="1.0"/>
           <path id="arrow"
             d="M 11.500037,31.436501 C 11.940474,20.09759 22.043105,11.32322 32.158766,21.979434 L 37.068811,17.246167 C 37.068811,17.246167 37.088388,32 37.088388,32 L 22.160133,31.978069 C 22.160133,31.978069 26.997745,27.140456 26.997745,27.140456 C 18.528582,18.264221 13.291696,25.230495 11.500037,31.436501 z"
             style="fill:#404040;"/>
          </a>
         </g>
        </svg>
</svg>
