<?xml version="1.0" encoding="UTF-8" standalone="no"?>
<!DOCTYPE svg PUBLIC "-//W3C//DTD SVG 1.1//EN"
 "http://www.w3.org/Graphics/SVG/1.1/DTD/svg11.dtd">
<!-- Generated by graphviz version 2.48.0 (20210719.0153)
 -->
<!-- Title: /github/workspace/kratos/python/pointer_indexing_python_interface.h Pages: 1 -->
<svg width="1153pt" height="217pt"
 viewBox="0.00 0.00 1153.00 217.00" xmlns="http://www.w3.org/2000/svg" xmlns:xlink="http://www.w3.org/1999/xlink">
<g id="graph0" class="graph" transform="scale(1 1) rotate(0) translate(4 213)">
<title>/github/workspace/kratos/python/pointer_indexing_python_interface.h</title>
<!-- Node1 -->
<g id="node1" class="node">
<title>Node1</title>
<g id="a_node1"><a xlink:title=" ">
<polygon fill="#bfbfbf" stroke="black" points="499.5,-167.5 499.5,-208.5 625.5,-208.5 625.5,-167.5 499.5,-167.5"/>
<text text-anchor="start" x="507.5" y="-196.5" font-family="Helvetica,sans-Serif" font-size="10.00">/github/workspace/kratos</text>
<text text-anchor="start" x="507.5" y="-185.5" font-family="Helvetica,sans-Serif" font-size="10.00">/python/pointer_indexing</text>
<text text-anchor="middle" x="562.5" y="-174.5" font-family="Helvetica,sans-Serif" font-size="10.00">_python_interface.h</text>
</a>
</g>
</g>
<!-- Node2 -->
<g id="node2" class="node">
<title>Node2</title>
<g id="a_node2"><a xlink:href="../../d0/db0/pointer__vector__set__python__interface_8h.html" target="_top" xlink:title=" ">
<polygon fill="none" stroke="black" points="499.5,-89.5 499.5,-130.5 625.5,-130.5 625.5,-89.5 499.5,-89.5"/>
<text text-anchor="start" x="507.5" y="-118.5" font-family="Helvetica,sans-Serif" font-size="10.00">/github/workspace/kratos</text>
<text text-anchor="start" x="507.5" y="-107.5" font-family="Helvetica,sans-Serif" font-size="10.00">/python/pointer_vector</text>
<text text-anchor="middle" x="562.5" y="-96.5" font-family="Helvetica,sans-Serif" font-size="10.00">_set_python_interface.h</text>
</a>
</g>
</g>
<!-- Node1&#45;&gt;Node2 -->
<g id="edge1" class="edge">
<title>Node1&#45;&gt;Node2</title>
<path fill="none" stroke="midnightblue" d="M562.5,-157.3C562.5,-148.3 562.5,-138.65 562.5,-130.51"/>
<polygon fill="midnightblue" stroke="midnightblue" points="559,-157.43 562.5,-167.43 566,-157.43 559,-157.43"/>
</g>
<!-- Node3 -->
<g id="node3" class="node">
<title>Node3</title>
<g id="a_node3"><a xlink:href="../../df/d0b/add__mesh__to__python_8cpp.html" target="_top" xlink:title=" ">
<polygon fill="none" stroke="black" points="0,-11.5 0,-41.5 161,-41.5 161,-11.5 0,-11.5"/>
<text text-anchor="start" x="8" y="-29.5" font-family="Helvetica,sans-Serif" font-size="10.00">/github/workspace/kratos</text>
<text text-anchor="middle" x="80.5" y="-18.5" font-family="Helvetica,sans-Serif" font-size="10.00">/python/add_mesh_to_python.cpp</text>
</a>
</g>
</g>
<!-- Node2&#45;&gt;Node3 -->
<g id="edge2" class="edge">
<title>Node2&#45;&gt;Node3</title>
<path fill="none" stroke="midnightblue" d="M488.89,-101.47C409.72,-92.68 280.4,-76.31 170.5,-53 155.73,-49.87 139.81,-45.64 125.53,-41.54"/>
<polygon fill="midnightblue" stroke="midnightblue" points="488.92,-104.99 499.24,-102.61 489.68,-98.04 488.92,-104.99"/>
</g>
<!-- Node4 -->
<g id="node4" class="node">
<title>Node4</title>
<g id="a_node4"><a xlink:href="../../d7/db8/add__node__to__python_8cpp.html" target="_top" xlink:title=" ">
<polygon fill="none" stroke="black" points="179.5,-11.5 179.5,-41.5 337.5,-41.5 337.5,-11.5 179.5,-11.5"/>
<text text-anchor="start" x="187.5" y="-29.5" font-family="Helvetica,sans-Serif" font-size="10.00">/github/workspace/kratos</text>
<text text-anchor="middle" x="258.5" y="-18.5" font-family="Helvetica,sans-Serif" font-size="10.00">/python/add_node_to_python.cpp</text>
</a>
</g>
</g>
<!-- Node2&#45;&gt;Node4 -->
<g id="edge3" class="edge">
<title>Node2&#45;&gt;Node4</title>
<path fill="none" stroke="midnightblue" d="M489.21,-90.55C447.33,-79.87 393.88,-66 346.5,-53 333.31,-49.38 319.05,-45.31 305.93,-41.51"/>
<polygon fill="midnightblue" stroke="midnightblue" points="488.49,-93.98 499.05,-93.05 490.22,-87.19 488.49,-93.98"/>
</g>
<!-- Node5 -->
<g id="node5" class="node">
<title>Node5</title>
<g id="a_node5"><a xlink:href="../../d8/dfd/add__properties__to__python_8cpp.html" target="_top" xlink:title=" ">
<polygon fill="none" stroke="black" points="355.5,-6 355.5,-47 481.5,-47 481.5,-6 355.5,-6"/>
<text text-anchor="start" x="363.5" y="-35" font-family="Helvetica,sans-Serif" font-size="10.00">/github/workspace/kratos</text>
<text text-anchor="start" x="363.5" y="-24" font-family="Helvetica,sans-Serif" font-size="10.00">/python/add_properties</text>
<text text-anchor="middle" x="418.5" y="-13" font-family="Helvetica,sans-Serif" font-size="10.00">_to_python.cpp</text>
</a>
</g>
</g>
<!-- Node2&#45;&gt;Node5 -->
<g id="edge4" class="edge">
<title>Node2&#45;&gt;Node5</title>
<path fill="none" stroke="midnightblue" d="M519.23,-84.51C498.11,-72.56 473.05,-58.37 453.21,-47.14"/>
<polygon fill="midnightblue" stroke="midnightblue" points="517.58,-87.6 528.01,-89.48 521.03,-81.51 517.58,-87.6"/>
</g>
<!-- Node6 -->
<g id="node6" class="node">
<title>Node6</title>
<g id="a_node6"><a xlink:href="../../d8/dd7/add__strategies__to__python_8cpp.html" target="_top" xlink:title=" ">
<polygon fill="none" stroke="black" points="499.5,-6 499.5,-47 625.5,-47 625.5,-6 499.5,-6"/>
<text text-anchor="start" x="507.5" y="-35" font-family="Helvetica,sans-Serif" font-size="10.00">/github/workspace/kratos</text>
<text text-anchor="start" x="507.5" y="-24" font-family="Helvetica,sans-Serif" font-size="10.00">/python/add_strategies</text>
<text text-anchor="middle" x="562.5" y="-13" font-family="Helvetica,sans-Serif" font-size="10.00">_to_python.cpp</text>
</a>
</g>
</g>
<!-- Node2&#45;&gt;Node6 -->
<g id="edge5" class="edge">
<title>Node2&#45;&gt;Node6</title>
<path fill="none" stroke="midnightblue" d="M562.5,-79.06C562.5,-68.38 562.5,-56.63 562.5,-47.05"/>
<polygon fill="midnightblue" stroke="midnightblue" points="559,-79.27 562.5,-89.27 566,-79.27 559,-79.27"/>
</g>
<!-- Node7 -->
<g id="node7" class="node">
<title>Node7</title>
<g id="a_node7"><a xlink:href="../../d6/dc7/kratos__python_8cpp.html" target="_top" xlink:title=" ">
<polygon fill="none" stroke="black" points="643.5,-11.5 643.5,-41.5 773.5,-41.5 773.5,-11.5 643.5,-11.5"/>
<text text-anchor="start" x="651.5" y="-29.5" font-family="Helvetica,sans-Serif" font-size="10.00">/github/workspace/kratos</text>
<text text-anchor="middle" x="708.5" y="-18.5" font-family="Helvetica,sans-Serif" font-size="10.00">/python/kratos_python.cpp</text>
</a>
</g>
</g>
<!-- Node2&#45;&gt;Node7 -->
<g id="edge6" class="edge">
<title>Node2&#45;&gt;Node7</title>
<path fill="none" stroke="midnightblue" d="M606.47,-84.46C631.64,-70.41 662.31,-53.28 683.41,-41.5"/>
<polygon fill="midnightblue" stroke="midnightblue" points="604.5,-81.55 597.47,-89.48 607.91,-87.66 604.5,-81.55"/>
</g>
<!-- Node8 -->
<g id="node8" class="node">
<title>Node8</title>
<g id="a_node8"><a xlink:href="../../d4/db1/add__conditions__to__python_8cpp.html" target="_top" xlink:title=" ">
<polygon fill="none" stroke="black" points="791.5,-6 791.5,-47 975.5,-47 975.5,-6 791.5,-6"/>
<text text-anchor="start" x="799.5" y="-35" font-family="Helvetica,sans-Serif" font-size="10.00">/github/workspace/applications</text>
<text text-anchor="start" x="799.5" y="-24" font-family="Helvetica,sans-Serif" font-size="10.00">/structural_application/custom</text>
<text text-anchor="middle" x="883.5" y="-13" font-family="Helvetica,sans-Serif" font-size="10.00">_python/add_conditions_to_python.cpp</text>
</a>
</g>
</g>
<!-- Node2&#45;&gt;Node8 -->
<g id="edge7" class="edge">
<title>Node2&#45;&gt;Node8</title>
<path fill="none" stroke="midnightblue" d="M635.51,-90.46C686.53,-77.51 754.55,-60.24 806.44,-47.06"/>
<polygon fill="midnightblue" stroke="midnightblue" points="634.37,-87.14 625.54,-93 636.09,-93.93 634.37,-87.14"/>
</g>
<!-- Node9 -->
<g id="node9" class="node">
<title>Node9</title>
<g id="a_node9"><a xlink:href="../../d0/d75/add__constitutive__laws__to__python_8cpp.html" target="_top" xlink:title=" ">
<polygon fill="none" stroke="black" points="994,-0.5 994,-52.5 1145,-52.5 1145,-0.5 994,-0.5"/>
<text text-anchor="start" x="1002" y="-40.5" font-family="Helvetica,sans-Serif" font-size="10.00">/github/workspace/applications</text>
<text text-anchor="start" x="1002" y="-29.5" font-family="Helvetica,sans-Serif" font-size="10.00">/structural_application/custom</text>
<text text-anchor="start" x="1002" y="-18.5" font-family="Helvetica,sans-Serif" font-size="10.00">_python/add_constitutive_laws</text>
<text text-anchor="middle" x="1069.5" y="-7.5" font-family="Helvetica,sans-Serif" font-size="10.00">_to_python.cpp</text>
</a>
</g>
</g>
<!-- Node2&#45;&gt;Node9 -->
<g id="edge8" class="edge">
<title>Node2&#45;&gt;Node9</title>
<path fill="none" stroke="midnightblue" d="M635.62,-102.87C720.26,-94.95 863.51,-79 984.5,-53 987.51,-52.35 990.57,-51.65 993.66,-50.91"/>
<polygon fill="midnightblue" stroke="midnightblue" points="635.23,-99.39 625.6,-103.79 635.88,-106.36 635.23,-99.39"/>
</g>
</g>
</svg>
