<?xml version="1.0" encoding="UTF-8" standalone="no"?>
<!DOCTYPE svg PUBLIC "-//W3C//DTD SVG 1.1//EN"
 "http://www.w3.org/Graphics/SVG/1.1/DTD/svg11.dtd">
<!-- Generated by graphviz version 2.48.0 (20210719.0153)
 -->
<!-- Title: /github/workspace/kratos/python/bounded_vector_python_interface.h Pages: 1 -->
<!--zoomable 262 -->
<svg id="main" version="1.1" xmlns="http://www.w3.org/2000/svg" xmlns:xlink="http://www.w3.org/1999/xlink" xml:space="preserve" onload="init(evt)">
<style type="text/css"><![CDATA[
.edge:hover path { stroke: red; }
.edge:hover polygon { stroke: red; fill: red; }
]]></style>
<script type="text/javascript"><![CDATA[
var edges = document.getElementsByTagName('g');
if (edges && edges.length) {
  for (var i=0;i<edges.length;i++) {
    if (edges[i].id.substr(0,4)=='edge') {
      edges[i].setAttribute('class','edge');
    }
  }
}
]]></script>
        <defs>
                <circle id="rim" cx="0" cy="0" r="7"/>
                <circle id="rim2" cx="0" cy="0" r="3.5"/>
                <g id="zoomPlus">
                        <use xlink:href="#rim" fill="#404040">
                                <set attributeName="fill" to="#808080" begin="zoomplus.mouseover" end="zoomplus.mouseout"/>
                        </use>
                        <path d="M-4,0h8M0,-4v8" fill="none" stroke="white" stroke-width="1.5" pointer-events="none"/>
                </g>
                <g id="zoomMin">
                        <use xlink:href="#rim" fill="#404040">
                                <set attributeName="fill" to="#808080" begin="zoomminus.mouseover" end="zoomminus.mouseout"/>
                        </use>
                        <path d="M-4,0h8" fill="none" stroke="white" stroke-width="1.5" pointer-events="none"/>
                </g>
                <g id="dirArrow">
                        <path fill="none" stroke="white" stroke-width="1.5" d="M0,-3.0v7 M-2.5,-0.5L0,-3.0L2.5,-0.5"/>
                </g>
               <g id="resetDef">
                       <use xlink:href="#rim2" fill="#404040">
                               <set attributeName="fill" to="#808080" begin="reset.mouseover" end="reset.mouseout"/>
                       </use>
               </g>
        </defs>

<script type="text/javascript">
var viewWidth = 648;
var viewHeight = 262;
var sectionId = 'dynsection-0';
</script>
<script xlink:href="../../svgpan.js"/>
<svg id="graph" class="graph">
<g id="viewport">
<title>/github/workspace/kratos/python/bounded_vector_python_interface.h</title>
<!-- Node1 -->
<g id="node1" class="node">
<title>Node1</title>
<g id="a_node1"><a xlink:title=" ">
<polygon fill="#bfbfbf" stroke="black" points="188.5,-212.5 188.5,-253.5 314.5,-253.5 314.5,-212.5 188.5,-212.5"/>
<text text-anchor="start" x="196.5" y="-241.5" font-family="Helvetica,sans-Serif" font-size="10.00">/github/workspace/kratos</text>
<text text-anchor="start" x="196.5" y="-230.5" font-family="Helvetica,sans-Serif" font-size="10.00">/python/bounded_vector</text>
<text text-anchor="middle" x="251.5" y="-219.5" font-family="Helvetica,sans-Serif" font-size="10.00">_python_interface.h</text>
</a>
</g>
</g>
<!-- Node2 -->
<g id="node2" class="node">
<title>Node2</title>
<g id="a_node2"><a xlink:title=" ">
<polygon fill="none" stroke="#bfbfbf" points="0,-145.5 0,-164.5 49,-164.5 49,-145.5 0,-145.5"/>
<text text-anchor="middle" x="24.5" y="-152.5" font-family="Helvetica,sans-Serif" font-size="10.00">cstddef</text>
</a>
</g>
</g>
<!-- Node1&#45;&gt;Node2 -->
<g id="edge1" class="edge">
<title>Node1&#45;&gt;Node2</title>
<path fill="none" stroke="midnightblue" d="M188.44,-218.27C149.76,-208.77 99.72,-194.5 57.5,-176 53.5,-174.25 49.39,-172.09 45.49,-169.84"/>
<polygon fill="midnightblue" stroke="midnightblue" points="47.28,-166.84 36.93,-164.6 43.63,-172.81 47.28,-166.84"/>
</g>
<!-- Node3 -->
<g id="node3" class="node">
<title>Node3</title>
<g id="a_node3"><a xlink:href="../../df/d67/define_8h.html" target="_top" xlink:title=" ">
<polygon fill="none" stroke="black" points="251,-67.5 251,-86.5 340,-86.5 340,-67.5 251,-67.5"/>
<text text-anchor="middle" x="295.5" y="-74.5" font-family="Helvetica,sans-Serif" font-size="10.00">includes/define.h</text>
</a>
</g>
</g>
<!-- Node1&#45;&gt;Node3 -->
<g id="edge2" class="edge">
<title>Node1&#45;&gt;Node3</title>
<path fill="none" stroke="midnightblue" d="M240.33,-212.43C230.28,-192.06 218.75,-159.62 230.5,-134 238.72,-116.06 255.85,-101.69 270.46,-92"/>
<polygon fill="midnightblue" stroke="midnightblue" points="272.5,-94.85 279.12,-86.58 268.79,-88.91 272.5,-94.85"/>
</g>
<!-- Node9 -->
<g id="node9" class="node">
<title>Node9</title>
<g id="a_node9"><a xlink:href="../../df/ddb/readonly__vector__python__interface_8h.html" target="_top" xlink:title=" ">
<polygon fill="none" stroke="black" points="66.5,-140 66.5,-170 182.5,-170 182.5,-140 66.5,-140"/>
<text text-anchor="start" x="74.5" y="-158" font-family="Helvetica,sans-Serif" font-size="10.00">python/readonly_vector</text>
<text text-anchor="middle" x="124.5" y="-147" font-family="Helvetica,sans-Serif" font-size="10.00">_python_interface.h</text>
</a>
</g>
</g>
<!-- Node1&#45;&gt;Node9 -->
<g id="edge8" class="edge">
<title>Node1&#45;&gt;Node9</title>
<path fill="none" stroke="midnightblue" d="M218.79,-212.43C199.76,-201.04 175.86,-186.73 156.88,-175.38"/>
<polygon fill="midnightblue" stroke="midnightblue" points="158.65,-172.36 148.27,-170.23 155.05,-178.36 158.65,-172.36"/>
</g>
<!-- Node11 -->
<g id="node11" class="node">
<title>Node11</title>
<g id="a_node11"><a xlink:href="../../dc/d4f/vector__vector__operator__python_8h.html" target="_top" xlink:title=" ">
<polygon fill="none" stroke="black" points="239,-140 239,-170 346,-170 346,-140 239,-140"/>
<text text-anchor="start" x="247" y="-158" font-family="Helvetica,sans-Serif" font-size="10.00">python/vector_vector</text>
<text text-anchor="middle" x="292.5" y="-147" font-family="Helvetica,sans-Serif" font-size="10.00">_operator_python.h</text>
</a>
</g>
</g>
<!-- Node1&#45;&gt;Node11 -->
<g id="edge12" class="edge">
<title>Node1&#45;&gt;Node11</title>
<path fill="none" stroke="midnightblue" d="M262.06,-212.43C267.51,-202.33 274.19,-189.93 279.91,-179.33"/>
<polygon fill="midnightblue" stroke="midnightblue" points="283.16,-180.69 284.83,-170.23 277,-177.36 283.16,-180.69"/>
</g>
<!-- Node14 -->
<g id="node14" class="node">
<title>Node14</title>
<g id="a_node14"><a xlink:href="../../d1/dfc/vector__scalar__assignment__operator__python_8h.html" target="_top" xlink:title=" ">
<polygon fill="none" stroke="black" points="364,-134.5 364,-175.5 477,-175.5 477,-134.5 364,-134.5"/>
<text text-anchor="start" x="372" y="-163.5" font-family="Helvetica,sans-Serif" font-size="10.00">python/vector_scalar</text>
<text text-anchor="start" x="372" y="-152.5" font-family="Helvetica,sans-Serif" font-size="10.00">_assignment_operator</text>
<text text-anchor="middle" x="420.5" y="-141.5" font-family="Helvetica,sans-Serif" font-size="10.00">_python.h</text>
</a>
</g>
</g>
<!-- Node1&#45;&gt;Node14 -->
<g id="edge16" class="edge">
<title>Node1&#45;&gt;Node14</title>
<path fill="none" stroke="midnightblue" d="M295.02,-212.43C317.2,-202.46 344.34,-190.25 367.71,-179.74"/>
<polygon fill="midnightblue" stroke="midnightblue" points="369.44,-182.8 377.13,-175.51 366.57,-176.41 369.44,-182.8"/>
</g>
<!-- Node15 -->
<g id="node15" class="node">
<title>Node15</title>
<g id="a_node15"><a xlink:href="../../d5/d54/bounded__vector__vector__assignment__operator__python_8h.html" target="_top" xlink:title=" ">
<polygon fill="none" stroke="black" points="495,-134.5 495,-175.5 640,-175.5 640,-134.5 495,-134.5"/>
<text text-anchor="start" x="503" y="-163.5" font-family="Helvetica,sans-Serif" font-size="10.00">python/bounded_vector</text>
<text text-anchor="start" x="503" y="-152.5" font-family="Helvetica,sans-Serif" font-size="10.00">_vector_assignment_operator</text>
<text text-anchor="middle" x="567.5" y="-141.5" font-family="Helvetica,sans-Serif" font-size="10.00">_python.h</text>
</a>
</g>
</g>
<!-- Node1&#45;&gt;Node15 -->
<g id="edge20" class="edge">
<title>Node1&#45;&gt;Node15</title>
<path fill="none" stroke="midnightblue" d="M314.87,-217.05C359.78,-206.41 421.74,-191.68 484.56,-176.46"/>
<polygon fill="midnightblue" stroke="midnightblue" points="485.76,-179.78 494.65,-174.02 484.11,-172.97 485.76,-179.78"/>
</g>
<!-- Node4 -->
<g id="node4" class="node">
<title>Node4</title>
<g id="a_node4"><a xlink:title=" ">
<polygon fill="none" stroke="#bfbfbf" points="153,-0.5 153,-19.5 212,-19.5 212,-0.5 153,-0.5"/>
<text text-anchor="middle" x="182.5" y="-7.5" font-family="Helvetica,sans-Serif" font-size="10.00">stdexcept</text>
</a>
</g>
</g>
<!-- Node3&#45;&gt;Node4 -->
<g id="edge3" class="edge">
<title>Node3&#45;&gt;Node4</title>
<path fill="none" stroke="midnightblue" d="M280.26,-67.23C261.28,-56.32 228.65,-37.55 206.35,-24.72"/>
<polygon fill="midnightblue" stroke="midnightblue" points="207.91,-21.58 197.5,-19.63 204.42,-27.65 207.91,-21.58"/>
</g>
<!-- Node5 -->
<g id="node5" class="node">
<title>Node5</title>
<g id="a_node5"><a xlink:title=" ">
<polygon fill="none" stroke="#bfbfbf" points="531.5,-0.5 531.5,-19.5 583.5,-19.5 583.5,-0.5 531.5,-0.5"/>
<text text-anchor="middle" x="557.5" y="-7.5" font-family="Helvetica,sans-Serif" font-size="10.00">sstream</text>
</a>
</g>
</g>
<!-- Node3&#45;&gt;Node5 -->
<g id="edge4" class="edge">
<title>Node3&#45;&gt;Node5</title>
<path fill="none" stroke="midnightblue" d="M327.26,-67.49C340.87,-63.88 356.95,-59.67 371.5,-56 423.47,-42.88 483.81,-28.42 521.33,-19.53"/>
<polygon fill="midnightblue" stroke="midnightblue" points="522.35,-22.88 531.28,-17.17 520.74,-16.07 522.35,-22.88"/>
</g>
<!-- Node6 -->
<g id="node6" class="node">
<title>Node6</title>
<g id="a_node6"><a xlink:title=" ">
<polygon fill="none" stroke="#bfbfbf" points="30,-0.5 30,-19.5 133,-19.5 133,-0.5 30,-0.5"/>
<text text-anchor="middle" x="81.5" y="-7.5" font-family="Helvetica,sans-Serif" font-size="10.00">boost/smart_ptr.hpp</text>
</a>
</g>
</g>
<!-- Node3&#45;&gt;Node6 -->
<g id="edge5" class="edge">
<title>Node3&#45;&gt;Node6</title>
<path fill="none" stroke="midnightblue" d="M274.25,-67.49C264.62,-63.76 253.06,-59.46 242.5,-56 203.3,-43.15 158.01,-30.7 125.47,-22.17"/>
<polygon fill="midnightblue" stroke="midnightblue" points="125.93,-18.67 115.37,-19.54 124.17,-25.44 125.93,-18.67"/>
</g>
<!-- Node7 -->
<g id="node7" class="node">
<title>Node7</title>
<g id="a_node7"><a xlink:title=" ">
<polygon fill="none" stroke="#bfbfbf" points="230,-0.5 230,-19.5 361,-19.5 361,-0.5 230,-0.5"/>
<text text-anchor="middle" x="295.5" y="-7.5" font-family="Helvetica,sans-Serif" font-size="10.00">boost/current_function.hpp</text>
</a>
</g>
</g>
<!-- Node3&#45;&gt;Node7 -->
<g id="edge6" class="edge">
<title>Node3&#45;&gt;Node7</title>
<path fill="none" stroke="midnightblue" d="M295.5,-67.23C295.5,-57.68 295.5,-42.12 295.5,-29.78"/>
<polygon fill="midnightblue" stroke="midnightblue" points="299,-29.63 295.5,-19.63 292,-29.63 299,-29.63"/>
</g>
<!-- Node8 -->
<g id="node8" class="node">
<title>Node8</title>
<g id="a_node8"><a xlink:href="../../de/d17/kratos__config_8h.html" target="_top" xlink:title=" ">
<polygon fill="none" stroke="black" points="379,-0.5 379,-19.5 500,-19.5 500,-0.5 379,-0.5"/>
<text text-anchor="middle" x="439.5" y="-7.5" font-family="Helvetica,sans-Serif" font-size="10.00">includes/kratos_config.h</text>
</a>
</g>
</g>
<!-- Node3&#45;&gt;Node8 -->
<g id="edge7" class="edge">
<title>Node3&#45;&gt;Node8</title>
<path fill="none" stroke="midnightblue" d="M314.62,-67.37C339.26,-56.25 382.31,-36.82 410.86,-23.93"/>
<polygon fill="midnightblue" stroke="midnightblue" points="412.62,-26.97 420.3,-19.67 409.74,-20.59 412.62,-26.97"/>
</g>
<!-- Node9&#45;&gt;Node3 -->
<g id="edge11" class="edge">
<title>Node9&#45;&gt;Node3</title>
<path fill="none" stroke="midnightblue" d="M156.26,-139.88C187.99,-125.78 236.31,-104.31 266.88,-90.72"/>
<polygon fill="midnightblue" stroke="midnightblue" points="268.42,-93.87 276.14,-86.61 265.58,-87.47 268.42,-93.87"/>
</g>
<!-- Node9&#45;&gt;Node6 -->
<g id="edge9" class="edge">
<title>Node9&#45;&gt;Node6</title>
<path fill="none" stroke="midnightblue" d="M117.03,-139.6C111.53,-128.49 104.21,-112.59 99.5,-98 92.05,-74.89 86.95,-47.3 84.14,-29.48"/>
<polygon fill="midnightblue" stroke="midnightblue" points="87.59,-28.92 82.64,-19.56 80.67,-29.96 87.59,-28.92"/>
</g>
<!-- Node10 -->
<g id="node10" class="node">
<title>Node10</title>
<g id="a_node10"><a xlink:title=" ">
<polygon fill="none" stroke="#bfbfbf" points="108,-56.5 108,-97.5 233,-97.5 233,-56.5 108,-56.5"/>
<text text-anchor="start" x="116" y="-85.5" font-family="Helvetica,sans-Serif" font-size="10.00">boost/python/suite</text>
<text text-anchor="start" x="116" y="-74.5" font-family="Helvetica,sans-Serif" font-size="10.00">/indexing/vector_indexing</text>
<text text-anchor="middle" x="170.5" y="-63.5" font-family="Helvetica,sans-Serif" font-size="10.00">_suite.hpp</text>
</a>
</g>
</g>
<!-- Node9&#45;&gt;Node10 -->
<g id="edge10" class="edge">
<title>Node9&#45;&gt;Node10</title>
<path fill="none" stroke="midnightblue" d="M133.15,-139.7C138.82,-130.34 146.42,-117.78 153.29,-106.43"/>
<polygon fill="midnightblue" stroke="midnightblue" points="156.4,-108.05 158.59,-97.68 150.42,-104.42 156.4,-108.05"/>
</g>
<!-- Node11&#45;&gt;Node3 -->
<g id="edge15" class="edge">
<title>Node11&#45;&gt;Node3</title>
<path fill="none" stroke="midnightblue" d="M293.06,-139.7C293.54,-127.6 294.23,-110.15 294.75,-96.89"/>
<polygon fill="midnightblue" stroke="midnightblue" points="298.26,-96.69 295.16,-86.56 291.27,-96.42 298.26,-96.69"/>
</g>
<!-- Node12 -->
<g id="node12" class="node">
<title>Node12</title>
<g id="a_node12"><a xlink:title=" ">
<polygon fill="none" stroke="#bfbfbf" points="380,-67.5 380,-86.5 421,-86.5 421,-67.5 380,-67.5"/>
<text text-anchor="middle" x="400.5" y="-74.5" font-family="Helvetica,sans-Serif" font-size="10.00">string</text>
</a>
</g>
</g>
<!-- Node11&#45;&gt;Node12 -->
<g id="edge13" class="edge">
<title>Node11&#45;&gt;Node12</title>
<path fill="none" stroke="midnightblue" d="M312.56,-139.88C331.73,-126.39 360.49,-106.15 379.85,-92.53"/>
<polygon fill="midnightblue" stroke="midnightblue" points="382.11,-95.22 388.27,-86.61 378.08,-89.5 382.11,-95.22"/>
</g>
<!-- Node13 -->
<g id="node13" class="node">
<title>Node13</title>
<g id="a_node13"><a xlink:title=" ">
<polygon fill="none" stroke="#bfbfbf" points="439.5,-67.5 439.5,-86.5 493.5,-86.5 493.5,-67.5 439.5,-67.5"/>
<text text-anchor="middle" x="466.5" y="-74.5" font-family="Helvetica,sans-Serif" font-size="10.00">iostream</text>
</a>
</g>
</g>
<!-- Node11&#45;&gt;Node13 -->
<g id="edge14" class="edge">
<title>Node11&#45;&gt;Node13</title>
<path fill="none" stroke="midnightblue" d="M330.82,-139.89C358.82,-129.23 397.5,-113.79 430.5,-98 434.68,-96 439.04,-93.73 443.24,-91.46"/>
<polygon fill="midnightblue" stroke="midnightblue" points="444.96,-94.51 452,-86.58 441.56,-88.39 444.96,-94.51"/>
</g>
<!-- Node14&#45;&gt;Node3 -->
<g id="edge19" class="edge">
<title>Node14&#45;&gt;Node3</title>
<path fill="none" stroke="midnightblue" d="M388.31,-134.43C366.33,-121.06 337.75,-103.69 318.14,-91.77"/>
<polygon fill="midnightblue" stroke="midnightblue" points="319.93,-88.76 309.57,-86.55 316.29,-94.74 319.93,-88.76"/>
</g>
<!-- Node14&#45;&gt;Node12 -->
<g id="edge17" class="edge">
<title>Node14&#45;&gt;Node12</title>
<path fill="none" stroke="midnightblue" d="M415.35,-134.43C412.26,-122.7 408.36,-107.87 405.33,-96.36"/>
<polygon fill="midnightblue" stroke="midnightblue" points="408.68,-95.33 402.75,-86.55 401.91,-97.11 408.68,-95.33"/>
</g>
<!-- Node14&#45;&gt;Node13 -->
<g id="edge18" class="edge">
<title>Node14&#45;&gt;Node13</title>
<path fill="none" stroke="midnightblue" d="M432.35,-134.43C439.67,-122.33 448.98,-106.95 456.03,-95.3"/>
<polygon fill="midnightblue" stroke="midnightblue" points="459.14,-96.92 461.32,-86.55 453.15,-93.29 459.14,-96.92"/>
</g>
<!-- Node15&#45;&gt;Node3 -->
<g id="edge24" class="edge">
<title>Node15&#45;&gt;Node3</title>
<path fill="none" stroke="midnightblue" d="M497.45,-134.43C446.16,-120.1 378.35,-101.15 335.83,-89.27"/>
<polygon fill="midnightblue" stroke="midnightblue" points="336.68,-85.87 326.11,-86.55 334.8,-92.61 336.68,-85.87"/>
</g>
<!-- Node15&#45;&gt;Node5 -->
<g id="edge23" class="edge">
<title>Node15&#45;&gt;Node5</title>
<path fill="none" stroke="midnightblue" d="M566.13,-134.42C564.2,-106.84 560.71,-56.91 558.81,-29.78"/>
<polygon fill="midnightblue" stroke="midnightblue" points="562.3,-29.41 558.11,-19.68 555.31,-29.9 562.3,-29.41"/>
</g>
<!-- Node15&#45;&gt;Node12 -->
<g id="edge21" class="edge">
<title>Node15&#45;&gt;Node12</title>
<path fill="none" stroke="midnightblue" d="M512.69,-134.49C487.16,-124.67 456.71,-111.92 430.5,-98 427.25,-96.27 423.91,-94.29 420.69,-92.25"/>
<polygon fill="midnightblue" stroke="midnightblue" points="422.4,-89.18 412.13,-86.55 418.52,-95 422.4,-89.18"/>
</g>
<!-- Node15&#45;&gt;Node13 -->
<g id="edge22" class="edge">
<title>Node15&#45;&gt;Node13</title>
<path fill="none" stroke="midnightblue" d="M541.49,-134.43C524.13,-121.37 501.68,-104.47 485.88,-92.58"/>
<polygon fill="midnightblue" stroke="midnightblue" points="487.96,-89.77 477.87,-86.55 483.75,-95.36 487.96,-89.77"/>
</g>
</g>
</svg>
        <g id="navigator" transform="translate(0 0)" fill="#404254">
                <rect fill="#f2f5e9" fill-opacity="0.5" stroke="#606060" stroke-width=".5" x="0" y="0" width="60" height="60"/>
                <use id="zoomplus" xlink:href="#zoomPlus" x="17" y="9" onmousedown="handleZoom(evt,'in')"/>
                <use id="zoomminus" xlink:href="#zoomMin" x="42" y="9" onmousedown="handleZoom(evt,'out')"/>
                <use id="reset" xlink:href="#resetDef" x="30" y="36" onmousedown="handleReset()"/>
                <g id="arrowUp" xlink:href="#dirArrow" transform="translate(30 24)" onmousedown="handlePan(0,-1)">
                  <use xlink:href="#rim" fill="#404040">
                        <set attributeName="fill" to="#808080" begin="arrowUp.mouseover" end="arrowUp.mouseout"/>
                  </use>
                  <path fill="none" stroke="white" stroke-width="1.5" d="M0,-3.0v7 M-2.5,-0.5L0,-3.0L2.5,-0.5"/>
                </g>
                <g id="arrowRight" xlink:href="#dirArrow" transform="rotate(90) translate(36 -43)" onmousedown="handlePan(1,0)">
                  <use xlink:href="#rim" fill="#404040">
                        <set attributeName="fill" to="#808080" begin="arrowRight.mouseover" end="arrowRight.mouseout"/>
                  </use>
                  <path fill="none" stroke="white" stroke-width="1.5" d="M0,-3.0v7 M-2.5,-0.5L0,-3.0L2.5,-0.5"/>
                </g>
                <g id="arrowDown" xlink:href="#dirArrow" transform="rotate(180) translate(-30 -48)" onmousedown="handlePan(0,1)">
                  <use xlink:href="#rim" fill="#404040">
                        <set attributeName="fill" to="#808080" begin="arrowDown.mouseover" end="arrowDown.mouseout"/>
                  </use>
                  <path fill="none" stroke="white" stroke-width="1.5" d="M0,-3.0v7 M-2.5,-0.5L0,-3.0L2.5,-0.5"/>
                </g>
                <g id="arrowLeft" xlink:href="#dirArrow" transform="rotate(270) translate(-36 17)" onmousedown="handlePan(-1,0)">
                  <use xlink:href="#rim" fill="#404040">
                        <set attributeName="fill" to="#808080" begin="arrowLeft.mouseover" end="arrowLeft.mouseout"/>
                  </use>
                  <path fill="none" stroke="white" stroke-width="1.5" d="M0,-3.0v7 M-2.5,-0.5L0,-3.0L2.5,-0.5"/>
                </g>
        </g>
        <svg viewBox="0 0 15 15" width="100%" height="30px" preserveAspectRatio="xMaxYMin meet">
         <g id="arrow_out" transform="scale(0.3 0.3)">
          <a xlink:href="bounded__vector__python__interface_8h__incl_org.svg" target="_base">
           <rect id="button" ry="5" rx="5" y="6" x="6" height="38" width="38"
                fill="#f2f5e9" fill-opacity="0.5" stroke="#606060" stroke-width="1.0"/>
           <path id="arrow"
             d="M 11.500037,31.436501 C 11.940474,20.09759 22.043105,11.32322 32.158766,21.979434 L 37.068811,17.246167 C 37.068811,17.246167 37.088388,32 37.088388,32 L 22.160133,31.978069 C 22.160133,31.978069 26.997745,27.140456 26.997745,27.140456 C 18.528582,18.264221 13.291696,25.230495 11.500037,31.436501 z"
             style="fill:#404040;"/>
          </a>
         </g>
        </svg>
</svg>
