<?xml version="1.0" encoding="UTF-8" standalone="no"?>
<!DOCTYPE svg PUBLIC "-//W3C//DTD SVG 1.1//EN"
 "http://www.w3.org/Graphics/SVG/1.1/DTD/svg11.dtd">
<!-- Generated by graphviz version 2.48.0 (20210719.0153)
 -->
<!-- Title: /github/workspace/kratos/containers/vector_map_iterator.h Pages: 1 -->
<svg width="649pt" height="173pt"
 viewBox="0.00 0.00 649.00 173.00" xmlns="http://www.w3.org/2000/svg" xmlns:xlink="http://www.w3.org/1999/xlink">
<g id="graph0" class="graph" transform="scale(1 1) rotate(0) translate(4 169)">
<title>/github/workspace/kratos/containers/vector_map_iterator.h</title>
<!-- Node1 -->
<g id="node1" class="node">
<title>Node1</title>
<g id="a_node1"><a xlink:title=" ">
<polygon fill="#bfbfbf" stroke="black" points="72.5,-123.5 72.5,-164.5 198.5,-164.5 198.5,-123.5 72.5,-123.5"/>
<text text-anchor="start" x="80.5" y="-152.5" font-family="Helvetica,sans-Serif" font-size="10.00">/github/workspace/kratos</text>
<text text-anchor="start" x="80.5" y="-141.5" font-family="Helvetica,sans-Serif" font-size="10.00">/containers/vector_map</text>
<text text-anchor="middle" x="135.5" y="-130.5" font-family="Helvetica,sans-Serif" font-size="10.00">_iterator.h</text>
</a>
</g>
</g>
<!-- Node2 -->
<g id="node2" class="node">
<title>Node2</title>
<g id="a_node2"><a xlink:title=" ">
<polygon fill="none" stroke="#bfbfbf" points="0,-62 0,-81 41,-81 41,-62 0,-62"/>
<text text-anchor="middle" x="20.5" y="-69" font-family="Helvetica,sans-Serif" font-size="10.00">string</text>
</a>
</g>
</g>
<!-- Node1&#45;&gt;Node2 -->
<g id="edge1" class="edge">
<title>Node1&#45;&gt;Node2</title>
<path fill="none" stroke="midnightblue" d="M103.47,-123.36C84.4,-111.67 60.65,-97.12 43.46,-86.57"/>
<polygon fill="midnightblue" stroke="midnightblue" points="45,-83.42 34.65,-81.17 41.34,-89.38 45,-83.42"/>
</g>
<!-- Node3 -->
<g id="node3" class="node">
<title>Node3</title>
<g id="a_node3"><a xlink:title=" ">
<polygon fill="none" stroke="#bfbfbf" points="59.5,-62 59.5,-81 113.5,-81 113.5,-62 59.5,-62"/>
<text text-anchor="middle" x="86.5" y="-69" font-family="Helvetica,sans-Serif" font-size="10.00">iostream</text>
</a>
</g>
</g>
<!-- Node1&#45;&gt;Node3 -->
<g id="edge2" class="edge">
<title>Node1&#45;&gt;Node3</title>
<path fill="none" stroke="midnightblue" d="M121.85,-123.36C114.48,-112.76 105.47,-99.79 98.38,-89.6"/>
<polygon fill="midnightblue" stroke="midnightblue" points="101.11,-87.39 92.53,-81.17 95.36,-91.38 101.11,-87.39"/>
</g>
<!-- Node4 -->
<g id="node4" class="node">
<title>Node4</title>
<g id="a_node4"><a xlink:title=" ">
<polygon fill="none" stroke="#bfbfbf" points="132,-56.5 132,-86.5 239,-86.5 239,-56.5 132,-56.5"/>
<text text-anchor="start" x="140" y="-74.5" font-family="Helvetica,sans-Serif" font-size="10.00">boost/iterator/iterator</text>
<text text-anchor="middle" x="185.5" y="-63.5" font-family="Helvetica,sans-Serif" font-size="10.00">_adaptor.hpp</text>
</a>
</g>
</g>
<!-- Node1&#45;&gt;Node4 -->
<g id="edge3" class="edge">
<title>Node1&#45;&gt;Node4</title>
<path fill="none" stroke="midnightblue" d="M149.43,-123.36C155.65,-114.59 163.01,-104.21 169.46,-95.12"/>
<polygon fill="midnightblue" stroke="midnightblue" points="172.36,-97.07 175.29,-86.89 166.65,-93.02 172.36,-97.07"/>
</g>
<!-- Node5 -->
<g id="node5" class="node">
<title>Node5</title>
<g id="a_node5"><a xlink:href="../../df/d67/define_8h.html" target="_top" xlink:title=" ">
<polygon fill="none" stroke="black" points="257,-62 257,-81 346,-81 346,-62 257,-62"/>
<text text-anchor="middle" x="301.5" y="-69" font-family="Helvetica,sans-Serif" font-size="10.00">includes/define.h</text>
</a>
</g>
</g>
<!-- Node1&#45;&gt;Node5 -->
<g id="edge4" class="edge">
<title>Node1&#45;&gt;Node5</title>
<path fill="none" stroke="midnightblue" d="M181.74,-123.36C210.54,-111.13 246.73,-95.76 271.75,-85.14"/>
<polygon fill="midnightblue" stroke="midnightblue" points="273.24,-88.3 281.08,-81.17 270.51,-81.86 273.24,-88.3"/>
</g>
<!-- Node6 -->
<g id="node6" class="node">
<title>Node6</title>
<g id="a_node6"><a xlink:title=" ">
<polygon fill="none" stroke="#bfbfbf" points="102,-0.5 102,-19.5 161,-19.5 161,-0.5 102,-0.5"/>
<text text-anchor="middle" x="131.5" y="-7.5" font-family="Helvetica,sans-Serif" font-size="10.00">stdexcept</text>
</a>
</g>
</g>
<!-- Node5&#45;&gt;Node6 -->
<g id="edge5" class="edge">
<title>Node5&#45;&gt;Node6</title>
<path fill="none" stroke="midnightblue" d="M277.14,-61.98C247.86,-51.72 198.53,-34.46 165.5,-22.9"/>
<polygon fill="midnightblue" stroke="midnightblue" points="166.41,-19.51 155.81,-19.51 164.09,-26.12 166.41,-19.51"/>
</g>
<!-- Node7 -->
<g id="node7" class="node">
<title>Node7</title>
<g id="a_node7"><a xlink:title=" ">
<polygon fill="none" stroke="#bfbfbf" points="179.5,-0.5 179.5,-19.5 231.5,-19.5 231.5,-0.5 179.5,-0.5"/>
<text text-anchor="middle" x="205.5" y="-7.5" font-family="Helvetica,sans-Serif" font-size="10.00">sstream</text>
</a>
</g>
</g>
<!-- Node5&#45;&gt;Node7 -->
<g id="edge6" class="edge">
<title>Node5&#45;&gt;Node7</title>
<path fill="none" stroke="midnightblue" d="M287.75,-61.98C272.13,-52.3 246.44,-36.37 227.92,-24.89"/>
<polygon fill="midnightblue" stroke="midnightblue" points="229.57,-21.8 219.23,-19.51 225.88,-27.75 229.57,-21.8"/>
</g>
<!-- Node8 -->
<g id="node8" class="node">
<title>Node8</title>
<g id="a_node8"><a xlink:title=" ">
<polygon fill="none" stroke="#bfbfbf" points="250,-0.5 250,-19.5 353,-19.5 353,-0.5 250,-0.5"/>
<text text-anchor="middle" x="301.5" y="-7.5" font-family="Helvetica,sans-Serif" font-size="10.00">boost/smart_ptr.hpp</text>
</a>
</g>
</g>
<!-- Node5&#45;&gt;Node8 -->
<g id="edge7" class="edge">
<title>Node5&#45;&gt;Node8</title>
<path fill="none" stroke="midnightblue" d="M301.5,-61.98C301.5,-53.58 301.5,-40.48 301.5,-29.66"/>
<polygon fill="midnightblue" stroke="midnightblue" points="305,-29.51 301.5,-19.51 298,-29.51 305,-29.51"/>
</g>
<!-- Node9 -->
<g id="node9" class="node">
<title>Node9</title>
<g id="a_node9"><a xlink:title=" ">
<polygon fill="none" stroke="#bfbfbf" points="371,-0.5 371,-19.5 502,-19.5 502,-0.5 371,-0.5"/>
<text text-anchor="middle" x="436.5" y="-7.5" font-family="Helvetica,sans-Serif" font-size="10.00">boost/current_function.hpp</text>
</a>
</g>
</g>
<!-- Node5&#45;&gt;Node9 -->
<g id="edge8" class="edge">
<title>Node5&#45;&gt;Node9</title>
<path fill="none" stroke="midnightblue" d="M320.84,-61.98C343.6,-51.95 381.59,-35.2 407.79,-23.65"/>
<polygon fill="midnightblue" stroke="midnightblue" points="409.45,-26.74 417.19,-19.51 406.63,-20.34 409.45,-26.74"/>
</g>
<!-- Node10 -->
<g id="node10" class="node">
<title>Node10</title>
<g id="a_node10"><a xlink:href="../../de/d17/kratos__config_8h.html" target="_top" xlink:title=" ">
<polygon fill="none" stroke="black" points="520,-0.5 520,-19.5 641,-19.5 641,-0.5 520,-0.5"/>
<text text-anchor="middle" x="580.5" y="-7.5" font-family="Helvetica,sans-Serif" font-size="10.00">includes/kratos_config.h</text>
</a>
</g>
</g>
<!-- Node5&#45;&gt;Node10 -->
<g id="edge9" class="edge">
<title>Node5&#45;&gt;Node10</title>
<path fill="none" stroke="midnightblue" d="M341.47,-61.98C391.3,-51.35 476.47,-33.18 530.55,-21.65"/>
<polygon fill="midnightblue" stroke="midnightblue" points="531.55,-25.02 540.6,-19.51 530.09,-18.17 531.55,-25.02"/>
</g>
</g>
</svg>
