<?xml version="1.0" encoding="UTF-8" standalone="no"?>
<!DOCTYPE svg PUBLIC "-//W3C//DTD SVG 1.1//EN"
 "http://www.w3.org/Graphics/SVG/1.1/DTD/svg11.dtd">
<!-- Generated by graphviz version 2.48.0 (20210719.0153)
 -->
<!-- Title: /github/workspace/applications/incompressible_fluid_application/custom_elements/fluid_2d.h Pages: 1 -->
<svg width="4725pt" height="306pt"
 viewBox="0.00 0.00 4724.50 306.00" xmlns="http://www.w3.org/2000/svg" xmlns:xlink="http://www.w3.org/1999/xlink">
<g id="graph0" class="graph" transform="scale(1 1) rotate(0) translate(4 302)">
<title>/github/workspace/applications/incompressible_fluid_application/custom_elements/fluid_2d.h</title>
<!-- Node1 -->
<g id="node1" class="node">
<title>Node1</title>
<g id="a_node1"><a xlink:title=" ">
<polygon fill="#bfbfbf" stroke="black" points="1115,-256.5 1115,-297.5 1274,-297.5 1274,-256.5 1115,-256.5"/>
<text text-anchor="start" x="1123" y="-285.5" font-family="Helvetica,sans-Serif" font-size="10.00">/github/workspace/applications</text>
<text text-anchor="start" x="1123" y="-274.5" font-family="Helvetica,sans-Serif" font-size="10.00">/incompressible_fluid_application</text>
<text text-anchor="middle" x="1194.5" y="-263.5" font-family="Helvetica,sans-Serif" font-size="10.00">/custom_elements/fluid_2d.h</text>
</a>
</g>
</g>
<!-- Node2 -->
<g id="node2" class="node">
<title>Node2</title>
<g id="a_node2"><a xlink:href="../../d3/dd7/incompressible__fluid__application_2custom__elements_2fluid__2d_8cpp.html" target="_top" xlink:title=" ">
<polygon fill="none" stroke="black" points="0,-95 0,-136 159,-136 159,-95 0,-95"/>
<text text-anchor="start" x="8" y="-124" font-family="Helvetica,sans-Serif" font-size="10.00">/github/workspace/applications</text>
<text text-anchor="start" x="8" y="-113" font-family="Helvetica,sans-Serif" font-size="10.00">/incompressible_fluid_application</text>
<text text-anchor="middle" x="79.5" y="-102" font-family="Helvetica,sans-Serif" font-size="10.00">/custom_elements/fluid_2d.cpp</text>
</a>
</g>
</g>
<!-- Node1&#45;&gt;Node2 -->
<g id="edge1" class="edge">
<title>Node1&#45;&gt;Node2</title>
<path fill="none" stroke="midnightblue" d="M1104.71,-268.92C925.23,-253.74 510.01,-213.54 167.5,-142 159.4,-140.31 150.97,-138.25 142.66,-136.05"/>
<polygon fill="midnightblue" stroke="midnightblue" points="1104.63,-272.42 1114.89,-269.77 1105.22,-265.45 1104.63,-272.42"/>
</g>
<!-- Node3 -->
<g id="node3" class="node">
<title>Node3</title>
<g id="a_node3"><a xlink:href="../../d1/dd4/incompressible__fluid__application_8h.html" target="_top" xlink:title=" ">
<polygon fill="none" stroke="black" points="2226,-178.5 2226,-219.5 2393,-219.5 2393,-178.5 2226,-178.5"/>
<text text-anchor="start" x="2234" y="-207.5" font-family="Helvetica,sans-Serif" font-size="10.00">/github/workspace/applications</text>
<text text-anchor="start" x="2234" y="-196.5" font-family="Helvetica,sans-Serif" font-size="10.00">/incompressible_fluid_application</text>
<text text-anchor="middle" x="2309.5" y="-185.5" font-family="Helvetica,sans-Serif" font-size="10.00">/incompressible_fluid_application.h</text>
</a>
</g>
</g>
<!-- Node1&#45;&gt;Node3 -->
<g id="edge2" class="edge">
<title>Node1&#45;&gt;Node3</title>
<path fill="none" stroke="midnightblue" d="M1284.36,-269.88C1495.52,-255.48 2020.9,-219.67 2225.8,-205.71"/>
<polygon fill="midnightblue" stroke="midnightblue" points="1283.98,-266.39 1274.24,-270.56 1284.46,-273.38 1283.98,-266.39"/>
</g>
<!-- Node3&#45;&gt;Node2 -->
<g id="edge4" class="edge">
<title>Node3&#45;&gt;Node2</title>
<path fill="none" stroke="midnightblue" d="M2215.76,-196.22C1816.05,-188.53 269.86,-157.9 167.5,-142 158.23,-140.56 148.55,-138.43 139.16,-136"/>
<polygon fill="midnightblue" stroke="midnightblue" points="2215.77,-199.72 2225.83,-196.41 2215.9,-192.72 2215.77,-199.72"/>
</g>
<!-- Node4 -->
<g id="node4" class="node">
<title>Node4</title>
<g id="a_node4"><a xlink:href="../../d1/d15/fluid3d__neumann_8cpp.html" target="_top" xlink:title=" ">
<polygon fill="none" stroke="black" points="177,-95 177,-136 372,-136 372,-95 177,-95"/>
<text text-anchor="start" x="185" y="-124" font-family="Helvetica,sans-Serif" font-size="10.00">/github/workspace/applications</text>
<text text-anchor="start" x="185" y="-113" font-family="Helvetica,sans-Serif" font-size="10.00">/incompressible_fluid_application</text>
<text text-anchor="middle" x="274.5" y="-102" font-family="Helvetica,sans-Serif" font-size="10.00">/custom_conditions/fluid3d_neumann.cpp</text>
</a>
</g>
</g>
<!-- Node3&#45;&gt;Node4 -->
<g id="edge3" class="edge">
<title>Node3&#45;&gt;Node4</title>
<path fill="none" stroke="midnightblue" d="M2215.76,-196.42C1854.42,-190.17 563.01,-166.33 380.5,-142 369.52,-140.54 358.03,-138.41 346.83,-136"/>
<polygon fill="midnightblue" stroke="midnightblue" points="2215.86,-199.92 2225.92,-196.59 2215.98,-192.92 2215.86,-199.92"/>
</g>
<!-- Node5 -->
<g id="node5" class="node">
<title>Node5</title>
<g id="a_node5"><a xlink:href="../../de/d4d/fluid__2d__asgs_8cpp.html" target="_top" xlink:title=" ">
<polygon fill="none" stroke="black" points="390,-95 390,-136 567,-136 567,-95 390,-95"/>
<text text-anchor="start" x="398" y="-124" font-family="Helvetica,sans-Serif" font-size="10.00">/github/workspace/applications</text>
<text text-anchor="start" x="398" y="-113" font-family="Helvetica,sans-Serif" font-size="10.00">/incompressible_fluid_application</text>
<text text-anchor="middle" x="478.5" y="-102" font-family="Helvetica,sans-Serif" font-size="10.00">/custom_elements/fluid_2d_asgs.cpp</text>
</a>
</g>
</g>
<!-- Node3&#45;&gt;Node5 -->
<g id="edge5" class="edge">
<title>Node3&#45;&gt;Node5</title>
<path fill="none" stroke="midnightblue" d="M2215.54,-196.19C1878.08,-189.5 738.64,-165.42 576.5,-142 566.41,-140.54 555.86,-138.44 545.58,-136.05"/>
<polygon fill="midnightblue" stroke="midnightblue" points="2215.7,-199.69 2225.77,-196.39 2215.84,-192.69 2215.7,-199.69"/>
</g>
<!-- Node6 -->
<g id="node6" class="node">
<title>Node6</title>
<g id="a_node6"><a xlink:href="../../d1/d54/fluid__2d__oss_8cpp.html" target="_top" xlink:title=" ">
<polygon fill="none" stroke="black" points="585.5,-95 585.5,-136 757.5,-136 757.5,-95 585.5,-95"/>
<text text-anchor="start" x="593.5" y="-124" font-family="Helvetica,sans-Serif" font-size="10.00">/github/workspace/applications</text>
<text text-anchor="start" x="593.5" y="-113" font-family="Helvetica,sans-Serif" font-size="10.00">/incompressible_fluid_application</text>
<text text-anchor="middle" x="671.5" y="-102" font-family="Helvetica,sans-Serif" font-size="10.00">/custom_elements/fluid_2d_oss.cpp</text>
</a>
</g>
</g>
<!-- Node3&#45;&gt;Node6 -->
<g id="edge6" class="edge">
<title>Node3&#45;&gt;Node6</title>
<path fill="none" stroke="midnightblue" d="M2215.81,-197.37C1926.25,-194.99 1048.28,-184.37 766.5,-142 756.71,-140.53 746.47,-138.41 736.5,-136.02"/>
<polygon fill="midnightblue" stroke="midnightblue" points="2215.83,-200.87 2225.86,-197.45 2215.89,-193.87 2215.83,-200.87"/>
</g>
<!-- Node7 -->
<g id="node7" class="node">
<title>Node7</title>
<g id="a_node7"><a xlink:href="../../d5/d03/fluid__2dcoupled_8cpp.html" target="_top" xlink:title=" ">
<polygon fill="none" stroke="black" points="776,-95 776,-136 961,-136 961,-95 776,-95"/>
<text text-anchor="start" x="784" y="-124" font-family="Helvetica,sans-Serif" font-size="10.00">/github/workspace/applications</text>
<text text-anchor="start" x="784" y="-113" font-family="Helvetica,sans-Serif" font-size="10.00">/incompressible_fluid_application</text>
<text text-anchor="middle" x="868.5" y="-102" font-family="Helvetica,sans-Serif" font-size="10.00">/custom_elements/fluid_2dcoupled.cpp</text>
</a>
</g>
</g>
<!-- Node3&#45;&gt;Node7 -->
<g id="edge7" class="edge">
<title>Node3&#45;&gt;Node7</title>
<path fill="none" stroke="midnightblue" d="M2215.71,-196.59C1952.5,-192.22 1210.52,-177.08 969.5,-142 959.21,-140.5 948.45,-138.39 937.94,-136.02"/>
<polygon fill="midnightblue" stroke="midnightblue" points="2215.94,-200.09 2226,-196.76 2216.06,-193.09 2215.94,-200.09"/>
</g>
<!-- Node8 -->
<g id="node8" class="node">
<title>Node8</title>
<g id="a_node8"><a xlink:href="../../dd/d0b/fluid__3d_8cpp.html" target="_top" xlink:title=" ">
<polygon fill="none" stroke="black" points="979,-95 979,-136 1138,-136 1138,-95 979,-95"/>
<text text-anchor="start" x="987" y="-124" font-family="Helvetica,sans-Serif" font-size="10.00">/github/workspace/applications</text>
<text text-anchor="start" x="987" y="-113" font-family="Helvetica,sans-Serif" font-size="10.00">/incompressible_fluid_application</text>
<text text-anchor="middle" x="1058.5" y="-102" font-family="Helvetica,sans-Serif" font-size="10.00">/custom_elements/fluid_3d.cpp</text>
</a>
</g>
</g>
<!-- Node3&#45;&gt;Node8 -->
<g id="edge8" class="edge">
<title>Node3&#45;&gt;Node8</title>
<path fill="none" stroke="midnightblue" d="M2215.67,-196.31C1977.04,-191.56 1351.43,-176.14 1146.5,-142 1137.56,-140.51 1128.23,-138.42 1119.14,-136.07"/>
<polygon fill="midnightblue" stroke="midnightblue" points="2215.64,-199.81 2225.71,-196.51 2215.78,-192.81 2215.64,-199.81"/>
</g>
<!-- Node9 -->
<g id="node9" class="node">
<title>Node9</title>
<g id="a_node9"><a xlink:href="../../dc/d98/fluid__3dcoupled_8cpp.html" target="_top" xlink:title=" ">
<polygon fill="none" stroke="black" points="1156,-95 1156,-136 1341,-136 1341,-95 1156,-95"/>
<text text-anchor="start" x="1164" y="-124" font-family="Helvetica,sans-Serif" font-size="10.00">/github/workspace/applications</text>
<text text-anchor="start" x="1164" y="-113" font-family="Helvetica,sans-Serif" font-size="10.00">/incompressible_fluid_application</text>
<text text-anchor="middle" x="1248.5" y="-102" font-family="Helvetica,sans-Serif" font-size="10.00">/custom_elements/fluid_3dcoupled.cpp</text>
</a>
</g>
</g>
<!-- Node3&#45;&gt;Node9 -->
<g id="edge9" class="edge">
<title>Node3&#45;&gt;Node9</title>
<path fill="none" stroke="midnightblue" d="M2215.74,-198.39C2043.23,-197.8 1664.37,-190.49 1349.5,-142 1339.49,-140.46 1329.03,-138.37 1318.79,-136.05"/>
<polygon fill="midnightblue" stroke="midnightblue" points="2215.79,-201.89 2225.8,-198.41 2215.81,-194.89 2215.79,-201.89"/>
</g>
<!-- Node10 -->
<g id="node10" class="node">
<title>Node10</title>
<g id="a_node10"><a xlink:href="../../d6/da4/_n_dfluid__2d_8cpp.html" target="_top" xlink:title=" ">
<polygon fill="none" stroke="black" points="1359,-95 1359,-136 1524,-136 1524,-95 1359,-95"/>
<text text-anchor="start" x="1367" y="-124" font-family="Helvetica,sans-Serif" font-size="10.00">/github/workspace/applications</text>
<text text-anchor="start" x="1367" y="-113" font-family="Helvetica,sans-Serif" font-size="10.00">/incompressible_fluid_application</text>
<text text-anchor="middle" x="1441.5" y="-102" font-family="Helvetica,sans-Serif" font-size="10.00">/custom_elements/NDfluid_2d.cpp</text>
</a>
</g>
</g>
<!-- Node3&#45;&gt;Node10 -->
<g id="edge10" class="edge">
<title>Node3&#45;&gt;Node10</title>
<path fill="none" stroke="midnightblue" d="M2215.56,-197.21C2068.89,-194.63 1777.05,-184.11 1533.5,-142 1524.44,-140.43 1514.98,-138.35 1505.72,-136.04"/>
<polygon fill="midnightblue" stroke="midnightblue" points="2215.81,-200.71 2225.87,-197.38 2215.93,-193.71 2215.81,-200.71"/>
</g>
<!-- Node11 -->
<g id="node11" class="node">
<title>Node11</title>
<g id="a_node11"><a xlink:href="../../d1/d42/_n_dfluid__2d___crank_nicolson_8cpp.html" target="_top" xlink:title=" ">
<polygon fill="none" stroke="black" points="1542.5,-95 1542.5,-136 1776.5,-136 1776.5,-95 1542.5,-95"/>
<text text-anchor="start" x="1550.5" y="-124" font-family="Helvetica,sans-Serif" font-size="10.00">/github/workspace/applications</text>
<text text-anchor="start" x="1550.5" y="-113" font-family="Helvetica,sans-Serif" font-size="10.00">/incompressible_fluid_application</text>
<text text-anchor="middle" x="1659.5" y="-102" font-family="Helvetica,sans-Serif" font-size="10.00">/custom_elements/NDfluid_2d_CrankNicolson.cpp</text>
</a>
</g>
</g>
<!-- Node3&#45;&gt;Node11 -->
<g id="edge11" class="edge">
<title>Node3&#45;&gt;Node11</title>
<path fill="none" stroke="midnightblue" d="M2215.43,-190.61C2110.28,-181.73 1935.14,-165.09 1785.5,-142 1774.25,-140.26 1762.48,-138.21 1750.85,-136.03"/>
<polygon fill="midnightblue" stroke="midnightblue" points="2215.44,-194.12 2225.69,-191.47 2216.02,-187.14 2215.44,-194.12"/>
</g>
<!-- Node12 -->
<g id="node12" class="node">
<title>Node12</title>
<g id="a_node12"><a xlink:href="../../d2/d60/_n_dfluid__3d_8cpp.html" target="_top" xlink:title=" ">
<polygon fill="none" stroke="black" points="1795,-95 1795,-136 1960,-136 1960,-95 1795,-95"/>
<text text-anchor="start" x="1803" y="-124" font-family="Helvetica,sans-Serif" font-size="10.00">/github/workspace/applications</text>
<text text-anchor="start" x="1803" y="-113" font-family="Helvetica,sans-Serif" font-size="10.00">/incompressible_fluid_application</text>
<text text-anchor="middle" x="1877.5" y="-102" font-family="Helvetica,sans-Serif" font-size="10.00">/custom_elements/NDfluid_3d.cpp</text>
</a>
</g>
</g>
<!-- Node3&#45;&gt;Node12 -->
<g id="edge12" class="edge">
<title>Node3&#45;&gt;Node12</title>
<path fill="none" stroke="midnightblue" d="M2216.02,-185.49C2147.2,-175.59 2051.55,-160.4 1968.5,-142 1960.49,-140.23 1952.14,-138.17 1943.88,-136.02"/>
<polygon fill="midnightblue" stroke="midnightblue" points="2215.58,-188.96 2225.97,-186.91 2216.57,-182.03 2215.58,-188.96"/>
</g>
<!-- Node13 -->
<g id="node13" class="node">
<title>Node13</title>
<g id="a_node13"><a xlink:href="../../d1/d06/residualbased__fluid__strategy_8h.html" target="_top" xlink:title=" ">
<polygon fill="none" stroke="black" points="1978,-89.5 1978,-141.5 2187,-141.5 2187,-89.5 1978,-89.5"/>
<text text-anchor="start" x="1986" y="-129.5" font-family="Helvetica,sans-Serif" font-size="10.00">/github/workspace/applications</text>
<text text-anchor="start" x="1986" y="-118.5" font-family="Helvetica,sans-Serif" font-size="10.00">/incompressible_fluid_application</text>
<text text-anchor="start" x="1986" y="-107.5" font-family="Helvetica,sans-Serif" font-size="10.00">/custom_strategies/strategies/residualbased</text>
<text text-anchor="middle" x="2082.5" y="-96.5" font-family="Helvetica,sans-Serif" font-size="10.00">_fluid_strategy.h</text>
</a>
</g>
</g>
<!-- Node3&#45;&gt;Node13 -->
<g id="edge13" class="edge">
<title>Node3&#45;&gt;Node13</title>
<path fill="none" stroke="midnightblue" d="M2245.5,-175.02C2216.46,-164.6 2182.05,-152.24 2152.34,-141.58"/>
<polygon fill="midnightblue" stroke="midnightblue" points="2244.53,-178.39 2255.13,-178.48 2246.9,-171.81 2244.53,-178.39"/>
</g>
<!-- Node15 -->
<g id="node15" class="node">
<title>Node15</title>
<g id="a_node15"><a xlink:href="../../da/d32/residualbased__fluid__strategy__coupled_8h.html" target="_top" xlink:title=" ">
<polygon fill="none" stroke="black" points="2205,-89.5 2205,-141.5 2414,-141.5 2414,-89.5 2205,-89.5"/>
<text text-anchor="start" x="2213" y="-129.5" font-family="Helvetica,sans-Serif" font-size="10.00">/github/workspace/applications</text>
<text text-anchor="start" x="2213" y="-118.5" font-family="Helvetica,sans-Serif" font-size="10.00">/incompressible_fluid_application</text>
<text text-anchor="start" x="2213" y="-107.5" font-family="Helvetica,sans-Serif" font-size="10.00">/custom_strategies/strategies/residualbased</text>
<text text-anchor="middle" x="2309.5" y="-96.5" font-family="Helvetica,sans-Serif" font-size="10.00">_fluid_strategy_coupled.h</text>
</a>
</g>
</g>
<!-- Node3&#45;&gt;Node15 -->
<g id="edge15" class="edge">
<title>Node3&#45;&gt;Node15</title>
<path fill="none" stroke="midnightblue" d="M2309.5,-168.12C2309.5,-159.41 2309.5,-149.99 2309.5,-141.61"/>
<polygon fill="midnightblue" stroke="midnightblue" points="2306,-168.27 2309.5,-178.27 2313,-168.27 2306,-168.27"/>
</g>
<!-- Node16 -->
<g id="node16" class="node">
<title>Node16</title>
<g id="a_node16"><a xlink:href="../../de/d5b/residualbased___n_d__fluid__strategy_8h.html" target="_top" xlink:title=" ">
<polygon fill="none" stroke="black" points="2432,-89.5 2432,-141.5 2641,-141.5 2641,-89.5 2432,-89.5"/>
<text text-anchor="start" x="2440" y="-129.5" font-family="Helvetica,sans-Serif" font-size="10.00">/github/workspace/applications</text>
<text text-anchor="start" x="2440" y="-118.5" font-family="Helvetica,sans-Serif" font-size="10.00">/incompressible_fluid_application</text>
<text text-anchor="start" x="2440" y="-107.5" font-family="Helvetica,sans-Serif" font-size="10.00">/custom_strategies/strategies/residualbased</text>
<text text-anchor="middle" x="2536.5" y="-96.5" font-family="Helvetica,sans-Serif" font-size="10.00">_ND_fluid_strategy.h</text>
</a>
</g>
</g>
<!-- Node3&#45;&gt;Node16 -->
<g id="edge17" class="edge">
<title>Node3&#45;&gt;Node16</title>
<path fill="none" stroke="midnightblue" d="M2373.5,-175.02C2402.54,-164.6 2436.95,-152.24 2466.66,-141.58"/>
<polygon fill="midnightblue" stroke="midnightblue" points="2372.1,-171.81 2363.87,-178.48 2374.47,-178.39 2372.1,-171.81"/>
</g>
<!-- Node17 -->
<g id="node17" class="node">
<title>Node17</title>
<g id="a_node17"><a xlink:href="../../de/d79/calculate__forces__utilities_8h.html" target="_top" xlink:title=" ">
<polygon fill="none" stroke="black" points="2659.5,-89.5 2659.5,-141.5 2821.5,-141.5 2821.5,-89.5 2659.5,-89.5"/>
<text text-anchor="start" x="2667.5" y="-129.5" font-family="Helvetica,sans-Serif" font-size="10.00">/github/workspace/applications</text>
<text text-anchor="start" x="2667.5" y="-118.5" font-family="Helvetica,sans-Serif" font-size="10.00">/incompressible_fluid_application</text>
<text text-anchor="start" x="2667.5" y="-107.5" font-family="Helvetica,sans-Serif" font-size="10.00">/custom_utilities/calculate_forces</text>
<text text-anchor="middle" x="2740.5" y="-96.5" font-family="Helvetica,sans-Serif" font-size="10.00">_utilities.h</text>
</a>
</g>
</g>
<!-- Node3&#45;&gt;Node17 -->
<g id="edge19" class="edge">
<title>Node3&#45;&gt;Node17</title>
<path fill="none" stroke="midnightblue" d="M2403.05,-185.42C2471.65,-175.51 2566.84,-160.33 2649.5,-142 2652.7,-141.29 2655.96,-140.53 2659.25,-139.75"/>
<polygon fill="midnightblue" stroke="midnightblue" points="2402.53,-181.96 2393.13,-186.84 2403.52,-188.89 2402.53,-181.96"/>
</g>
<!-- Node19 -->
<g id="node19" class="node">
<title>Node19</title>
<g id="a_node19"><a xlink:href="../../d2/d39/edge__data_8h.html" target="_top" xlink:title=" ">
<polygon fill="none" stroke="black" points="2840,-95 2840,-136 2999,-136 2999,-95 2840,-95"/>
<text text-anchor="start" x="2848" y="-124" font-family="Helvetica,sans-Serif" font-size="10.00">/github/workspace/applications</text>
<text text-anchor="start" x="2848" y="-113" font-family="Helvetica,sans-Serif" font-size="10.00">/incompressible_fluid_application</text>
<text text-anchor="middle" x="2919.5" y="-102" font-family="Helvetica,sans-Serif" font-size="10.00">/custom_utilities/edge_data.h</text>
</a>
</g>
</g>
<!-- Node3&#45;&gt;Node19 -->
<g id="edge21" class="edge">
<title>Node3&#45;&gt;Node19</title>
<path fill="none" stroke="midnightblue" d="M2403.42,-192.78C2508.3,-185.83 2682.75,-170.88 2830.5,-142 2838.86,-140.37 2847.57,-138.31 2856.14,-136.09"/>
<polygon fill="midnightblue" stroke="midnightblue" points="2402.93,-189.31 2393.18,-193.45 2403.38,-196.29 2402.93,-189.31"/>
</g>
<!-- Node20 -->
<g id="node20" class="node">
<title>Node20</title>
<g id="a_node20"><a xlink:href="../../d1/d4c/elementbased__navierstokes__solver_8h.html" target="_top" xlink:title=" ">
<polygon fill="none" stroke="black" points="3017,-89.5 3017,-141.5 3176,-141.5 3176,-89.5 3017,-89.5"/>
<text text-anchor="start" x="3025" y="-129.5" font-family="Helvetica,sans-Serif" font-size="10.00">/github/workspace/applications</text>
<text text-anchor="start" x="3025" y="-118.5" font-family="Helvetica,sans-Serif" font-size="10.00">/incompressible_fluid_application</text>
<text text-anchor="start" x="3025" y="-107.5" font-family="Helvetica,sans-Serif" font-size="10.00">/custom_utilities/elementbased</text>
<text text-anchor="middle" x="3096.5" y="-96.5" font-family="Helvetica,sans-Serif" font-size="10.00">_navierstokes_solver.h</text>
</a>
</g>
</g>
<!-- Node3&#45;&gt;Node20 -->
<g id="edge23" class="edge">
<title>Node3&#45;&gt;Node20</title>
<path fill="none" stroke="midnightblue" d="M2403.48,-196.38C2538.24,-192.72 2793.72,-180.8 3007.5,-142 3010.5,-141.45 3013.55,-140.85 3016.62,-140.2"/>
<polygon fill="midnightblue" stroke="midnightblue" points="2403.1,-192.89 2393.19,-196.65 2403.28,-199.89 2403.1,-192.89"/>
</g>
<!-- Node21 -->
<g id="node21" class="node">
<title>Node21</title>
<g id="a_node21"><a xlink:href="../../d4/d76/fluid__solver_8h.html" target="_top" xlink:title=" ">
<polygon fill="none" stroke="black" points="3194,-95 3194,-136 3353,-136 3353,-95 3194,-95"/>
<text text-anchor="start" x="3202" y="-124" font-family="Helvetica,sans-Serif" font-size="10.00">/github/workspace/applications</text>
<text text-anchor="start" x="3202" y="-113" font-family="Helvetica,sans-Serif" font-size="10.00">/incompressible_fluid_application</text>
<text text-anchor="middle" x="3273.5" y="-102" font-family="Helvetica,sans-Serif" font-size="10.00">/custom_utilities/fluid_solver.h</text>
</a>
</g>
</g>
<!-- Node3&#45;&gt;Node21 -->
<g id="edge25" class="edge">
<title>Node3&#45;&gt;Node21</title>
<path fill="none" stroke="midnightblue" d="M2403.49,-198.58C2564.58,-198.1 2903.26,-190.7 3184.5,-142 3193.37,-140.46 3202.62,-138.38 3211.65,-136.06"/>
<polygon fill="midnightblue" stroke="midnightblue" points="2403.13,-195.08 2393.14,-198.6 2403.15,-202.08 2403.13,-195.08"/>
</g>
<!-- Node22 -->
<g id="node22" class="node">
<title>Node22</title>
<g id="a_node22"><a xlink:href="../../d1/d48/level__set__utilities_8h.html" target="_top" xlink:title=" ">
<polygon fill="none" stroke="black" points="3371,-95 3371,-136 3544,-136 3544,-95 3371,-95"/>
<text text-anchor="start" x="3379" y="-124" font-family="Helvetica,sans-Serif" font-size="10.00">/github/workspace/applications</text>
<text text-anchor="start" x="3379" y="-113" font-family="Helvetica,sans-Serif" font-size="10.00">/incompressible_fluid_application</text>
<text text-anchor="middle" x="3457.5" y="-102" font-family="Helvetica,sans-Serif" font-size="10.00">/custom_utilities/level_set_utilities.h</text>
</a>
</g>
</g>
<!-- Node3&#45;&gt;Node22 -->
<g id="edge27" class="edge">
<title>Node3&#45;&gt;Node22</title>
<path fill="none" stroke="midnightblue" d="M2403.31,-195.49C2625.39,-189.14 3178.34,-170.88 3361.5,-142 3371.12,-140.48 3381.18,-138.39 3391,-136.06"/>
<polygon fill="midnightblue" stroke="midnightblue" points="2403.21,-191.99 2393.31,-195.77 2403.41,-198.99 2403.21,-191.99"/>
</g>
<!-- Node23 -->
<g id="node23" class="node">
<title>Node23</title>
<g id="a_node23"><a xlink:href="../../db/d1a/level__set__utilities__implicitextrapolation_8h.html" target="_top" xlink:title=" ">
<polygon fill="none" stroke="black" points="3562.5,-89.5 3562.5,-141.5 3728.5,-141.5 3728.5,-89.5 3562.5,-89.5"/>
<text text-anchor="start" x="3570.5" y="-129.5" font-family="Helvetica,sans-Serif" font-size="10.00">/github/workspace/applications</text>
<text text-anchor="start" x="3570.5" y="-118.5" font-family="Helvetica,sans-Serif" font-size="10.00">/incompressible_fluid_application</text>
<text text-anchor="start" x="3570.5" y="-107.5" font-family="Helvetica,sans-Serif" font-size="10.00">/custom_utilities/level_set_utilities</text>
<text text-anchor="middle" x="3645.5" y="-96.5" font-family="Helvetica,sans-Serif" font-size="10.00">_implicitextrapolation.h</text>
</a>
</g>
</g>
<!-- Node3&#45;&gt;Node23 -->
<g id="edge29" class="edge">
<title>Node3&#45;&gt;Node23</title>
<path fill="none" stroke="midnightblue" d="M2403.58,-196.51C2653.9,-192.1 3332.25,-177.18 3553.5,-142 3556.45,-141.53 3559.43,-141 3562.44,-140.42"/>
<polygon fill="midnightblue" stroke="midnightblue" points="2403.35,-193.01 2393.42,-196.69 2403.48,-200.01 2403.35,-193.01"/>
</g>
<!-- Node24 -->
<g id="node24" class="node">
<title>Node24</title>
<g id="a_node24"><a xlink:href="../../d5/d87/levelset__fluid__solver_8h.html" target="_top" xlink:title=" ">
<polygon fill="none" stroke="black" points="3746.5,-95 3746.5,-136 3932.5,-136 3932.5,-95 3746.5,-95"/>
<text text-anchor="start" x="3754.5" y="-124" font-family="Helvetica,sans-Serif" font-size="10.00">/github/workspace/applications</text>
<text text-anchor="start" x="3754.5" y="-113" font-family="Helvetica,sans-Serif" font-size="10.00">/incompressible_fluid_application</text>
<text text-anchor="middle" x="3839.5" y="-102" font-family="Helvetica,sans-Serif" font-size="10.00">/custom_utilities/levelset_fluid_solver.h</text>
</a>
</g>
</g>
<!-- Node3&#45;&gt;Node24 -->
<g id="edge31" class="edge">
<title>Node3&#45;&gt;Node24</title>
<path fill="none" stroke="midnightblue" d="M2403.64,-196.84C2678.85,-193.03 3478.79,-179.01 3737.5,-142 3747.89,-140.51 3758.76,-138.41 3769.37,-136.04"/>
<polygon fill="midnightblue" stroke="midnightblue" points="2403.24,-193.34 2393.29,-196.98 2403.34,-200.34 2403.24,-193.34"/>
</g>
<!-- Node25 -->
<g id="node25" class="node">
<title>Node25</title>
<g id="a_node25"><a xlink:href="../../d0/d89/pure__convection__edgebased_8h.html" target="_top" xlink:title=" ">
<polygon fill="none" stroke="black" points="3950.5,-89.5 3950.5,-141.5 4112.5,-141.5 4112.5,-89.5 3950.5,-89.5"/>
<text text-anchor="start" x="3958.5" y="-129.5" font-family="Helvetica,sans-Serif" font-size="10.00">/github/workspace/applications</text>
<text text-anchor="start" x="3958.5" y="-118.5" font-family="Helvetica,sans-Serif" font-size="10.00">/incompressible_fluid_application</text>
<text text-anchor="start" x="3958.5" y="-107.5" font-family="Helvetica,sans-Serif" font-size="10.00">/custom_utilities/pure_convection</text>
<text text-anchor="middle" x="4031.5" y="-96.5" font-family="Helvetica,sans-Serif" font-size="10.00">_edgebased.h</text>
</a>
</g>
</g>
<!-- Node3&#45;&gt;Node25 -->
<g id="edge33" class="edge">
<title>Node3&#45;&gt;Node25</title>
<path fill="none" stroke="midnightblue" d="M2403.61,-197.76C2704.68,-196.5 3642.11,-188.84 3941.5,-142 3944.39,-141.55 3947.31,-141.03 3950.26,-140.47"/>
<polygon fill="midnightblue" stroke="midnightblue" points="2403.15,-194.26 2393.17,-197.8 2403.18,-201.26 2403.15,-194.26"/>
</g>
<!-- Node26 -->
<g id="node26" class="node">
<title>Node26</title>
<g id="a_node26"><a xlink:href="../../d0/d4f/_turbolence___smagorinsky_8h.html" target="_top" xlink:title=" ">
<polygon fill="none" stroke="black" points="4130.5,-95 4130.5,-136 4338.5,-136 4338.5,-95 4130.5,-95"/>
<text text-anchor="start" x="4138.5" y="-124" font-family="Helvetica,sans-Serif" font-size="10.00">/github/workspace/applications</text>
<text text-anchor="start" x="4138.5" y="-113" font-family="Helvetica,sans-Serif" font-size="10.00">/incompressible_fluid_application</text>
<text text-anchor="middle" x="4234.5" y="-102" font-family="Helvetica,sans-Serif" font-size="10.00">/custom_utilities/Turbolence_Smagorinsky.h</text>
</a>
</g>
</g>
<!-- Node3&#45;&gt;Node26 -->
<g id="edge35" class="edge">
<title>Node3&#45;&gt;Node26</title>
<path fill="none" stroke="midnightblue" d="M2403.29,-197.47C2725.25,-195.27 3784.16,-184.88 4121.5,-142 4133.07,-140.53 4145.2,-138.42 4157.04,-136.03"/>
<polygon fill="midnightblue" stroke="midnightblue" points="2403.04,-193.97 2393.06,-197.54 2403.08,-200.97 2403.04,-193.97"/>
</g>
<!-- Node27 -->
<g id="node27" class="node">
<title>Node27</title>
<g id="a_node27"><a xlink:href="../../d5/de1/incompressible__fluid__application_8cpp.html" target="_top" xlink:title=" ">
<polygon fill="none" stroke="black" points="4357,-95 4357,-136 4534,-136 4534,-95 4357,-95"/>
<text text-anchor="start" x="4365" y="-124" font-family="Helvetica,sans-Serif" font-size="10.00">/github/workspace/applications</text>
<text text-anchor="start" x="4365" y="-113" font-family="Helvetica,sans-Serif" font-size="10.00">/incompressible_fluid_application</text>
<text text-anchor="middle" x="4445.5" y="-102" font-family="Helvetica,sans-Serif" font-size="10.00">/incompressible_fluid_application.cpp</text>
</a>
</g>
</g>
<!-- Node3&#45;&gt;Node27 -->
<g id="edge37" class="edge">
<title>Node3&#45;&gt;Node27</title>
<path fill="none" stroke="midnightblue" d="M2403.08,-198.25C2750.32,-198.72 3964.59,-196.36 4347.5,-142 4357.68,-140.55 4368.33,-138.44 4378.7,-136.03"/>
<polygon fill="midnightblue" stroke="midnightblue" points="2403.07,-194.75 2393.06,-198.23 2403.06,-201.75 2403.07,-194.75"/>
</g>
<!-- Node28 -->
<g id="node28" class="node">
<title>Node28</title>
<g id="a_node28"><a xlink:href="../../dc/dad/lagrangian__fluid__utilities_8h.html" target="_top" xlink:title=" ">
<polygon fill="none" stroke="black" points="4552.5,-95 4552.5,-136 4716.5,-136 4716.5,-95 4552.5,-95"/>
<text text-anchor="start" x="4560.5" y="-124" font-family="Helvetica,sans-Serif" font-size="10.00">/github/workspace/applications</text>
<text text-anchor="start" x="4560.5" y="-113" font-family="Helvetica,sans-Serif" font-size="10.00">/PFEMapplication/custom_utilities</text>
<text text-anchor="middle" x="4634.5" y="-102" font-family="Helvetica,sans-Serif" font-size="10.00">/lagrangian_fluid_utilities.h</text>
</a>
</g>
</g>
<!-- Node3&#45;&gt;Node28 -->
<g id="edge38" class="edge">
<title>Node3&#45;&gt;Node28</title>
<path fill="none" stroke="midnightblue" d="M2403.19,-197.02C2799.8,-192.7 4330.07,-174.07 4543.5,-142 4553.07,-140.56 4563.07,-138.43 4572.78,-136.01"/>
<polygon fill="midnightblue" stroke="midnightblue" points="2403.15,-193.52 2393.18,-197.13 2403.22,-200.52 2403.15,-193.52"/>
</g>
<!-- Node14 -->
<g id="node14" class="node">
<title>Node14</title>
<g id="a_node14"><a xlink:href="../../dc/dc8/incompressible__fluid__application_2custom__python_2add__custom__strategies__to__python_8cpp.html" target="_top" xlink:title=" ">
<polygon fill="none" stroke="black" points="2214.5,-0.5 2214.5,-52.5 2404.5,-52.5 2404.5,-0.5 2214.5,-0.5"/>
<text text-anchor="start" x="2222.5" y="-40.5" font-family="Helvetica,sans-Serif" font-size="10.00">/github/workspace/applications</text>
<text text-anchor="start" x="2222.5" y="-29.5" font-family="Helvetica,sans-Serif" font-size="10.00">/incompressible_fluid_application</text>
<text text-anchor="start" x="2222.5" y="-18.5" font-family="Helvetica,sans-Serif" font-size="10.00">/custom_python/add_custom_strategies</text>
<text text-anchor="middle" x="2309.5" y="-7.5" font-family="Helvetica,sans-Serif" font-size="10.00">_to_python.cpp</text>
</a>
</g>
</g>
<!-- Node13&#45;&gt;Node14 -->
<g id="edge14" class="edge">
<title>Node13&#45;&gt;Node14</title>
<path fill="none" stroke="midnightblue" d="M2157.23,-85.86C2185.33,-75.09 2217.04,-62.94 2244.22,-52.52"/>
<polygon fill="midnightblue" stroke="midnightblue" points="2155.94,-82.61 2147.85,-89.45 2158.44,-89.14 2155.94,-82.61"/>
</g>
<!-- Node15&#45;&gt;Node14 -->
<g id="edge16" class="edge">
<title>Node15&#45;&gt;Node14</title>
<path fill="none" stroke="midnightblue" d="M2309.5,-79.19C2309.5,-70.28 2309.5,-60.9 2309.5,-52.61"/>
<polygon fill="midnightblue" stroke="midnightblue" points="2306,-79.34 2309.5,-89.34 2313,-79.34 2306,-79.34"/>
</g>
<!-- Node16&#45;&gt;Node14 -->
<g id="edge18" class="edge">
<title>Node16&#45;&gt;Node14</title>
<path fill="none" stroke="midnightblue" d="M2461.77,-85.86C2433.67,-75.09 2401.96,-62.94 2374.78,-52.52"/>
<polygon fill="midnightblue" stroke="midnightblue" points="2460.56,-89.14 2471.15,-89.45 2463.06,-82.61 2460.56,-89.14"/>
</g>
<!-- Node18 -->
<g id="node18" class="node">
<title>Node18</title>
<g id="a_node18"><a xlink:href="../../d7/d0f/incompressible__fluid__application_2custom__python_2add__custom__utilities__to__python_8cpp.html" target="_top" xlink:title=" ">
<polygon fill="none" stroke="black" points="3368.5,-0.5 3368.5,-52.5 3546.5,-52.5 3546.5,-0.5 3368.5,-0.5"/>
<text text-anchor="start" x="3376.5" y="-40.5" font-family="Helvetica,sans-Serif" font-size="10.00">/github/workspace/applications</text>
<text text-anchor="start" x="3376.5" y="-29.5" font-family="Helvetica,sans-Serif" font-size="10.00">/incompressible_fluid_application</text>
<text text-anchor="start" x="3376.5" y="-18.5" font-family="Helvetica,sans-Serif" font-size="10.00">/custom_python/add_custom_utilities</text>
<text text-anchor="middle" x="3457.5" y="-7.5" font-family="Helvetica,sans-Serif" font-size="10.00">_to_python.cpp</text>
</a>
</g>
</g>
<!-- Node17&#45;&gt;Node18 -->
<g id="edge20" class="edge">
<title>Node17&#45;&gt;Node18</title>
<path fill="none" stroke="midnightblue" d="M2831.68,-88.91C3027.53,-52.63 3248.06,-37.4 3368.27,-31.24"/>
<polygon fill="midnightblue" stroke="midnightblue" points="2830.96,-85.49 2821.78,-90.77 2832.25,-92.37 2830.96,-85.49"/>
</g>
<!-- Node19&#45;&gt;Node18 -->
<g id="edge22" class="edge">
<title>Node19&#45;&gt;Node18</title>
<path fill="none" stroke="midnightblue" d="M2992.43,-92.48C2997.51,-91.22 3002.57,-90.05 3007.5,-89 3131.5,-62.71 3277.2,-45.19 3368.47,-35.79"/>
<polygon fill="midnightblue" stroke="midnightblue" points="2991.48,-89.11 2982.67,-95 2993.23,-95.89 2991.48,-89.11"/>
</g>
<!-- Node20&#45;&gt;Node18 -->
<g id="edge24" class="edge">
<title>Node20&#45;&gt;Node18</title>
<path fill="none" stroke="midnightblue" d="M3185.83,-88.71C3252.01,-71.84 3317.35,-57.17 3368.34,-46.16"/>
<polygon fill="midnightblue" stroke="midnightblue" points="3184.88,-85.34 3176.07,-91.21 3186.62,-92.12 3184.88,-85.34"/>
</g>
<!-- Node21&#45;&gt;Node18 -->
<g id="edge26" class="edge">
<title>Node21&#45;&gt;Node18</title>
<path fill="none" stroke="midnightblue" d="M3324.09,-90.58C3349.05,-78.78 3379.16,-64.54 3404.45,-52.58"/>
<polygon fill="midnightblue" stroke="midnightblue" points="3322.34,-87.54 3314.79,-94.98 3325.33,-93.87 3322.34,-87.54"/>
</g>
<!-- Node22&#45;&gt;Node18 -->
<g id="edge28" class="edge">
<title>Node22&#45;&gt;Node18</title>
<path fill="none" stroke="midnightblue" d="M3457.5,-84.51C3457.5,-74.17 3457.5,-62.71 3457.5,-52.79"/>
<polygon fill="midnightblue" stroke="midnightblue" points="3454,-84.76 3457.5,-94.76 3461,-84.76 3454,-84.76"/>
</g>
<!-- Node23&#45;&gt;Node18 -->
<g id="edge30" class="edge">
<title>Node23&#45;&gt;Node18</title>
<path fill="none" stroke="midnightblue" d="M3582.08,-85.15C3559.19,-74.56 3533.59,-62.71 3511.57,-52.52"/>
<polygon fill="midnightblue" stroke="midnightblue" points="3580.83,-88.43 3591.37,-89.45 3583.77,-82.08 3580.83,-88.43"/>
</g>
<!-- Node24&#45;&gt;Node18 -->
<g id="edge32" class="edge">
<title>Node24&#45;&gt;Node18</title>
<path fill="none" stroke="midnightblue" d="M3752.58,-92.59C3747.48,-91.36 3742.43,-90.16 3737.5,-89 3673.78,-74.04 3601.65,-58.22 3546.55,-46.38"/>
<polygon fill="midnightblue" stroke="midnightblue" points="3751.88,-96.02 3762.42,-94.98 3753.53,-89.22 3751.88,-96.02"/>
</g>
<!-- Node25&#45;&gt;Node18 -->
<g id="edge34" class="edge">
<title>Node25&#45;&gt;Node18</title>
<path fill="none" stroke="midnightblue" d="M3939.98,-88.81C3797.69,-60.38 3642.26,-43.54 3546.92,-34.82"/>
<polygon fill="midnightblue" stroke="midnightblue" points="3939.7,-92.32 3950.2,-90.88 3941.09,-85.46 3939.7,-92.32"/>
</g>
<!-- Node26&#45;&gt;Node18 -->
<g id="edge36" class="edge">
<title>Node26&#45;&gt;Node18</title>
<path fill="none" stroke="midnightblue" d="M4143.94,-92.98C4136.37,-91.51 4128.82,-90.16 4121.5,-89 3917.11,-56.61 3674.42,-39.47 3546.56,-32.07"/>
<polygon fill="midnightblue" stroke="midnightblue" points="4143.39,-96.44 4153.88,-94.97 4144.77,-89.58 4143.39,-96.44"/>
</g>
</g>
</svg>
