<?xml version="1.0" encoding="UTF-8" standalone="no"?>
<!DOCTYPE svg PUBLIC "-//W3C//DTD SVG 1.1//EN"
 "http://www.w3.org/Graphics/SVG/1.1/DTD/svg11.dtd">
<!-- Generated by graphviz version 2.48.0 (20210719.0153)
 -->
<!-- Title: boost::numeric::ublas::coordinate_vector&lt; T, IB, IA, TA &gt; Pages: 1 -->
<svg width="154pt" height="645pt"
 viewBox="0.00 0.00 154.00 645.00" xmlns="http://www.w3.org/2000/svg" xmlns:xlink="http://www.w3.org/1999/xlink">
<g id="graph0" class="graph" transform="scale(1 1) rotate(0) translate(4 641)">
<title>boost::numeric::ublas::coordinate_vector&lt; T, IB, IA, TA &gt;</title>
<!-- Node1 -->
<g id="node1" class="node">
<title>Node1</title>
<g id="a_node1"><a xlink:title=" ">
<polygon fill="#bfbfbf" stroke="black" points="19,-0.5 19,-211.5 127,-211.5 127,-0.5 19,-0.5"/>
<text text-anchor="start" x="27" y="-199.5" font-family="Helvetica,sans-Serif" font-size="10.00">boost::numeric::ublas</text>
<text text-anchor="start" x="27" y="-188.5" font-family="Helvetica,sans-Serif" font-size="10.00">::coordinate_vector&lt;</text>
<text text-anchor="middle" x="73" y="-177.5" font-family="Helvetica,sans-Serif" font-size="10.00"> T, IB, IA, TA &gt;</text>
<polyline fill="none" stroke="black" points="19,-170.5 127,-170.5 "/>
<text text-anchor="middle" x="73" y="-158.5" font-family="Helvetica,sans-Serif" font-size="10.00"> </text>
<polyline fill="none" stroke="black" points="19,-151.5 127,-151.5 "/>
<text text-anchor="start" x="27" y="-139.5" font-family="Helvetica,sans-Serif" font-size="10.00">+ coordinate_vector()</text>
<text text-anchor="start" x="27" y="-128.5" font-family="Helvetica,sans-Serif" font-size="10.00">+ coordinate_vector()</text>
<text text-anchor="start" x="27" y="-117.5" font-family="Helvetica,sans-Serif" font-size="10.00">+ coordinate_vector()</text>
<text text-anchor="start" x="27" y="-106.5" font-family="Helvetica,sans-Serif" font-size="10.00">+ coordinate_vector()</text>
<text text-anchor="start" x="27" y="-95.5" font-family="Helvetica,sans-Serif" font-size="10.00">+ size()</text>
<text text-anchor="start" x="27" y="-84.5" font-family="Helvetica,sans-Serif" font-size="10.00">+ nnz_capacity()</text>
<text text-anchor="start" x="27" y="-73.5" font-family="Helvetica,sans-Serif" font-size="10.00">+ nnz()</text>
<text text-anchor="start" x="27" y="-62.5" font-family="Helvetica,sans-Serif" font-size="10.00">+ filled()</text>
<text text-anchor="start" x="27" y="-51.5" font-family="Helvetica,sans-Serif" font-size="10.00">+ index_data()</text>
<text text-anchor="start" x="27" y="-40.5" font-family="Helvetica,sans-Serif" font-size="10.00">+ value_data()</text>
<text text-anchor="start" x="27" y="-29.5" font-family="Helvetica,sans-Serif" font-size="10.00">and 96 more...</text>
<text text-anchor="start" x="27" y="-18.5" font-family="Helvetica,sans-Serif" font-size="10.00">+ index_base()</text>
<text text-anchor="start" x="27" y="-7.5" font-family="Helvetica,sans-Serif" font-size="10.00">+ index_base()</text>
</a>
</g>
</g>
<!-- Node2 -->
<g id="node2" class="node">
<title>Node2</title>
<g id="a_node2"><a xlink:href="../../d7/dd9/classboost_1_1numeric_1_1ublas_1_1vector__container.html" target="_top" xlink:title=" ">
<polygon fill="none" stroke="black" points="0,-248.5 0,-360.5 146,-360.5 146,-248.5 0,-248.5"/>
<text text-anchor="start" x="8" y="-348.5" font-family="Helvetica,sans-Serif" font-size="10.00">boost::numeric::ublas</text>
<text text-anchor="start" x="8" y="-337.5" font-family="Helvetica,sans-Serif" font-size="10.00">::vector_container&lt; coordinate</text>
<text text-anchor="middle" x="73" y="-326.5" font-family="Helvetica,sans-Serif" font-size="10.00">_vector&lt; T, IB, IA, TA &gt; &gt;</text>
<polyline fill="none" stroke="black" points="0,-319.5 146,-319.5 "/>
<text text-anchor="start" x="8" y="-307.5" font-family="Helvetica,sans-Serif" font-size="10.00">+ complexity</text>
<polyline fill="none" stroke="black" points="0,-300.5 146,-300.5 "/>
<text text-anchor="start" x="8" y="-288.5" font-family="Helvetica,sans-Serif" font-size="10.00">+ operator()()</text>
<text text-anchor="start" x="8" y="-277.5" font-family="Helvetica,sans-Serif" font-size="10.00">+ operator()()</text>
<text text-anchor="start" x="8" y="-266.5" font-family="Helvetica,sans-Serif" font-size="10.00">+ operator()()</text>
<text text-anchor="start" x="8" y="-255.5" font-family="Helvetica,sans-Serif" font-size="10.00">+ operator()()</text>
</a>
</g>
</g>
<!-- Node2&#45;&gt;Node1 -->
<g id="edge1" class="edge">
<title>Node2&#45;&gt;Node1</title>
<path fill="none" stroke="midnightblue" d="M66.6,-238.07C66.41,-229.57 66.3,-220.7 66.26,-211.76"/>
<polygon fill="none" stroke="midnightblue" points="63.1,-238.34 66.86,-248.24 70.1,-238.15 63.1,-238.34"/>
</g>
<!-- Node2&#45;&gt;Node1 -->
<g id="edge6" class="edge">
<title>Node2&#45;&gt;Node1</title>
<path fill="none" stroke="midnightblue" d="M79.4,-238.07C79.59,-229.57 79.7,-220.7 79.74,-211.76"/>
<polygon fill="none" stroke="midnightblue" points="75.9,-238.15 79.14,-248.24 82.9,-238.34 75.9,-238.15"/>
</g>
<!-- Node3 -->
<g id="node3" class="node">
<title>Node3</title>
<g id="a_node3"><a xlink:href="../../d1/d4d/classboost_1_1numeric_1_1ublas_1_1vector__expression.html" target="_top" xlink:title=" ">
<polygon fill="none" stroke="black" points="12,-397.5 12,-498.5 134,-498.5 134,-397.5 12,-397.5"/>
<text text-anchor="start" x="20" y="-486.5" font-family="Helvetica,sans-Serif" font-size="10.00">boost::numeric::ublas</text>
<text text-anchor="middle" x="73" y="-475.5" font-family="Helvetica,sans-Serif" font-size="10.00">::vector_expression&lt; E &gt;</text>
<polyline fill="none" stroke="black" points="12,-468.5 134,-468.5 "/>
<text text-anchor="start" x="20" y="-456.5" font-family="Helvetica,sans-Serif" font-size="10.00">+ complexity</text>
<polyline fill="none" stroke="black" points="12,-449.5 134,-449.5 "/>
<text text-anchor="start" x="20" y="-437.5" font-family="Helvetica,sans-Serif" font-size="10.00">+ operator()()</text>
<text text-anchor="start" x="20" y="-426.5" font-family="Helvetica,sans-Serif" font-size="10.00">+ operator()()</text>
<text text-anchor="start" x="20" y="-415.5" font-family="Helvetica,sans-Serif" font-size="10.00">+ operator()()</text>
<text text-anchor="start" x="20" y="-404.5" font-family="Helvetica,sans-Serif" font-size="10.00">+ operator()()</text>
</a>
</g>
</g>
<!-- Node3&#45;&gt;Node2 -->
<g id="edge2" class="edge">
<title>Node3&#45;&gt;Node2</title>
<path fill="none" stroke="midnightblue" d="M66.32,-387.01C66.21,-378.29 66.23,-369.34 66.4,-360.72"/>
<polygon fill="none" stroke="midnightblue" points="62.82,-387.18 66.52,-397.11 69.82,-387.05 62.82,-387.18"/>
</g>
<!-- Node3&#45;&gt;Node2 -->
<g id="edge5" class="edge">
<title>Node3&#45;&gt;Node2</title>
<path fill="none" stroke="midnightblue" d="M79.68,-387.01C79.79,-378.29 79.77,-369.34 79.6,-360.72"/>
<polygon fill="none" stroke="midnightblue" points="76.18,-387.05 79.48,-397.11 83.18,-387.18 76.18,-387.05"/>
</g>
<!-- Node4 -->
<g id="node4" class="node">
<title>Node4</title>
<g id="a_node4"><a xlink:href="../../dd/db7/classboost_1_1numeric_1_1ublas_1_1ublas__expression.html" target="_top" xlink:title=" ">
<polygon fill="none" stroke="black" points="13.5,-535.5 13.5,-636.5 132.5,-636.5 132.5,-535.5 13.5,-535.5"/>
<text text-anchor="start" x="21.5" y="-624.5" font-family="Helvetica,sans-Serif" font-size="10.00">boost::numeric::ublas</text>
<text text-anchor="middle" x="73" y="-613.5" font-family="Helvetica,sans-Serif" font-size="10.00">::ublas_expression&lt; E &gt;</text>
<polyline fill="none" stroke="black" points="13.5,-606.5 132.5,-606.5 "/>
<text text-anchor="middle" x="73" y="-594.5" font-family="Helvetica,sans-Serif" font-size="10.00"> </text>
<polyline fill="none" stroke="black" points="13.5,-587.5 132.5,-587.5 "/>
<text text-anchor="start" x="21.5" y="-575.5" font-family="Helvetica,sans-Serif" font-size="10.00"># ublas_expression()</text>
<text text-anchor="start" x="21.5" y="-564.5" font-family="Helvetica,sans-Serif" font-size="10.00"># ~ublas_expression()</text>
<text text-anchor="start" x="21.5" y="-553.5" font-family="Helvetica,sans-Serif" font-size="10.00"># ublas_expression()</text>
<text text-anchor="start" x="21.5" y="-542.5" font-family="Helvetica,sans-Serif" font-size="10.00"># ~ublas_expression()</text>
</a>
</g>
</g>
<!-- Node4&#45;&gt;Node3 -->
<g id="edge3" class="edge">
<title>Node4&#45;&gt;Node3</title>
<path fill="none" stroke="midnightblue" d="M66.29,-525C66.2,-516.27 66.26,-507.36 66.47,-498.86"/>
<polygon fill="none" stroke="midnightblue" points="62.79,-525.19 66.47,-535.13 69.79,-525.07 62.79,-525.19"/>
</g>
<!-- Node4&#45;&gt;Node3 -->
<g id="edge4" class="edge">
<title>Node4&#45;&gt;Node3</title>
<path fill="none" stroke="midnightblue" d="M79.71,-525C79.8,-516.27 79.74,-507.36 79.53,-498.86"/>
<polygon fill="none" stroke="midnightblue" points="76.21,-525.07 79.53,-535.13 83.21,-525.19 76.21,-525.07"/>
</g>
</g>
</svg>
