<?xml version="1.0" encoding="UTF-8" standalone="no"?>
<!DOCTYPE svg PUBLIC "-//W3C//DTD SVG 1.1//EN"
 "http://www.w3.org/Graphics/SVG/1.1/DTD/svg11.dtd">
<!-- Generated by graphviz version 2.48.0 (20210719.0153)
 -->
<!-- Title: boost::numeric::ublas::vector_indirect&lt; V, IA &gt;::const_iterator Pages: 1 -->
<svg width="476pt" height="540pt"
 viewBox="0.00 0.00 476.00 540.00" xmlns="http://www.w3.org/2000/svg" xmlns:xlink="http://www.w3.org/1999/xlink">
<g id="graph0" class="graph" transform="scale(1 1) rotate(0) translate(4 536)">
<title>boost::numeric::ublas::vector_indirect&lt; V, IA &gt;::const_iterator</title>
<!-- Node1 -->
<g id="node1" class="node">
<title>Node1</title>
<g id="a_node1"><a xlink:title=" ">
<polygon fill="#bfbfbf" stroke="black" points="101.5,-0.5 101.5,-189.5 208.5,-189.5 208.5,-0.5 101.5,-0.5"/>
<text text-anchor="start" x="109.5" y="-177.5" font-family="Helvetica,sans-Serif" font-size="10.00">boost::numeric::ublas</text>
<text text-anchor="start" x="109.5" y="-166.5" font-family="Helvetica,sans-Serif" font-size="10.00">::vector_indirect&lt; V,</text>
<text text-anchor="middle" x="155" y="-155.5" font-family="Helvetica,sans-Serif" font-size="10.00"> IA &gt;::const_iterator</text>
<polyline fill="none" stroke="black" points="101.5,-148.5 208.5,-148.5 "/>
<text text-anchor="middle" x="155" y="-136.5" font-family="Helvetica,sans-Serif" font-size="10.00"> </text>
<polyline fill="none" stroke="black" points="101.5,-129.5 208.5,-129.5 "/>
<text text-anchor="start" x="109.5" y="-117.5" font-family="Helvetica,sans-Serif" font-size="10.00">+ const_iterator()</text>
<text text-anchor="start" x="109.5" y="-106.5" font-family="Helvetica,sans-Serif" font-size="10.00">+ const_iterator()</text>
<text text-anchor="start" x="109.5" y="-95.5" font-family="Helvetica,sans-Serif" font-size="10.00">+ const_iterator()</text>
<text text-anchor="start" x="109.5" y="-84.5" font-family="Helvetica,sans-Serif" font-size="10.00">+ operator++()</text>
<text text-anchor="start" x="109.5" y="-73.5" font-family="Helvetica,sans-Serif" font-size="10.00">+ operator&#45;&#45;()</text>
<text text-anchor="start" x="109.5" y="-62.5" font-family="Helvetica,sans-Serif" font-size="10.00">+ operator+=()</text>
<text text-anchor="start" x="109.5" y="-51.5" font-family="Helvetica,sans-Serif" font-size="10.00">+ operator&#45;=()</text>
<text text-anchor="start" x="109.5" y="-40.5" font-family="Helvetica,sans-Serif" font-size="10.00">+ operator&#45;()</text>
<text text-anchor="start" x="109.5" y="-29.5" font-family="Helvetica,sans-Serif" font-size="10.00">+ operator*()</text>
<text text-anchor="start" x="109.5" y="-18.5" font-family="Helvetica,sans-Serif" font-size="10.00">+ index()</text>
<text text-anchor="start" x="109.5" y="-7.5" font-family="Helvetica,sans-Serif" font-size="10.00">and 16 more...</text>
</a>
</g>
</g>
<!-- Node2 -->
<g id="node2" class="node">
<title>Node2</title>
<g id="a_node2"><a xlink:href="../../dc/d2f/classboost_1_1numeric_1_1ublas_1_1container__const__reference.html" target="_top" xlink:title=" ">
<polygon fill="none" stroke="black" points="0,-226.5 0,-404.5 146,-404.5 146,-226.5 0,-226.5"/>
<text text-anchor="start" x="8" y="-392.5" font-family="Helvetica,sans-Serif" font-size="10.00">boost::numeric::ublas</text>
<text text-anchor="start" x="8" y="-381.5" font-family="Helvetica,sans-Serif" font-size="10.00">::container_const_reference</text>
<text text-anchor="middle" x="73" y="-370.5" font-family="Helvetica,sans-Serif" font-size="10.00">&lt; vector_indirect &gt;</text>
<polyline fill="none" stroke="black" points="0,-363.5 146,-363.5 "/>
<text text-anchor="middle" x="73" y="-351.5" font-family="Helvetica,sans-Serif" font-size="10.00"> </text>
<polyline fill="none" stroke="black" points="0,-344.5 146,-344.5 "/>
<text text-anchor="start" x="8" y="-332.5" font-family="Helvetica,sans-Serif" font-size="10.00">+ container_const_reference()</text>
<text text-anchor="start" x="8" y="-321.5" font-family="Helvetica,sans-Serif" font-size="10.00">+ container_const_reference()</text>
<text text-anchor="start" x="8" y="-310.5" font-family="Helvetica,sans-Serif" font-size="10.00">+ container_const_reference()</text>
<text text-anchor="start" x="8" y="-299.5" font-family="Helvetica,sans-Serif" font-size="10.00">+ container_const_reference()</text>
<text text-anchor="start" x="8" y="-288.5" font-family="Helvetica,sans-Serif" font-size="10.00">+ operator()()</text>
<text text-anchor="start" x="8" y="-277.5" font-family="Helvetica,sans-Serif" font-size="10.00">+ operator()()</text>
<text text-anchor="start" x="8" y="-266.5" font-family="Helvetica,sans-Serif" font-size="10.00">+ assign()</text>
<text text-anchor="start" x="8" y="-255.5" font-family="Helvetica,sans-Serif" font-size="10.00">+ assign()</text>
<text text-anchor="start" x="8" y="-244.5" font-family="Helvetica,sans-Serif" font-size="10.00">+ same_closure()</text>
<text text-anchor="start" x="8" y="-233.5" font-family="Helvetica,sans-Serif" font-size="10.00">+ same_closure()</text>
</a>
</g>
</g>
<!-- Node2&#45;&gt;Node1 -->
<g id="edge1" class="edge">
<title>Node2&#45;&gt;Node1</title>
<path fill="none" stroke="midnightblue" d="M102.93,-216.85C106.28,-207.78 109.74,-198.6 113.2,-189.57"/>
<polygon fill="none" stroke="midnightblue" points="99.64,-215.66 99.48,-226.26 106.21,-218.08 99.64,-215.66"/>
</g>
<!-- Node2&#45;&gt;Node1 -->
<g id="edge5" class="edge">
<title>Node2&#45;&gt;Node1</title>
<path fill="none" stroke="midnightblue" d="M116.36,-216.85C119.82,-207.78 123.26,-198.6 126.57,-189.57"/>
<polygon fill="none" stroke="midnightblue" points="113.07,-215.67 112.75,-226.26 119.6,-218.17 113.07,-215.67"/>
</g>
<!-- Node3 -->
<g id="node3" class="node">
<title>Node3</title>
<g id="a_node3"><a xlink:href="../../d2/dbf/classboost_1_1numeric_1_1ublas_1_1nonassignable___1_1nonassignable.html" target="_top" xlink:title=" ">
<polygon fill="none" stroke="black" points="24,-441.5 24,-531.5 122,-531.5 122,-441.5 24,-441.5"/>
<text text-anchor="middle" x="73" y="-519.5" font-family="Helvetica,sans-Serif" font-size="10.00">nonassignable</text>
<polyline fill="none" stroke="black" points="24,-512.5 122,-512.5 "/>
<text text-anchor="middle" x="73" y="-500.5" font-family="Helvetica,sans-Serif" font-size="10.00"> </text>
<polyline fill="none" stroke="black" points="24,-493.5 122,-493.5 "/>
<text text-anchor="start" x="32" y="-481.5" font-family="Helvetica,sans-Serif" font-size="10.00"># nonassignable()</text>
<text text-anchor="start" x="32" y="-470.5" font-family="Helvetica,sans-Serif" font-size="10.00"># ~nonassignable()</text>
<text text-anchor="start" x="32" y="-459.5" font-family="Helvetica,sans-Serif" font-size="10.00"># nonassignable()</text>
<text text-anchor="start" x="32" y="-448.5" font-family="Helvetica,sans-Serif" font-size="10.00"># ~nonassignable()</text>
</a>
</g>
</g>
<!-- Node3&#45;&gt;Node2 -->
<g id="edge2" class="edge">
<title>Node3&#45;&gt;Node2</title>
<path fill="none" stroke="#8b1a1a" d="M66.64,-431.06C66.41,-422.63 66.28,-413.73 66.26,-404.78"/>
<polygon fill="none" stroke="#8b1a1a" points="63.15,-431.22 66.98,-441.1 70.14,-430.99 63.15,-431.22"/>
</g>
<!-- Node3&#45;&gt;Node2 -->
<g id="edge3" class="edge">
<title>Node3&#45;&gt;Node2</title>
<path fill="none" stroke="#8b1a1a" d="M79.36,-431.06C79.59,-422.63 79.72,-413.73 79.74,-404.78"/>
<polygon fill="none" stroke="#8b1a1a" points="75.86,-430.99 79.02,-441.1 82.85,-431.22 75.86,-430.99"/>
</g>
<!-- Node4 -->
<g id="node4" class="node">
<title>Node4</title>
<g id="a_node4"><a xlink:title=" ">
<polygon fill="none" stroke="#bfbfbf" points="164,-259.5 164,-371.5 310,-371.5 310,-259.5 164,-259.5"/>
<text text-anchor="start" x="172" y="-359.5" font-family="Helvetica,sans-Serif" font-size="10.00">iterator_base_traits</text>
<text text-anchor="start" x="172" y="-348.5" font-family="Helvetica,sans-Serif" font-size="10.00">&lt; V::const_iterator::</text>
<text text-anchor="middle" x="237" y="-337.5" font-family="Helvetica,sans-Serif" font-size="10.00">iterator_category &gt;::template</text>
<text text-anchor="start" x="172" y="-326.5" font-family="Helvetica,sans-Serif" font-size="10.00"> </text>
<text text-anchor="start" x="172" y="-315.5" font-family="Helvetica,sans-Serif" font-size="10.00"> iterator_base&lt; const_iterator,</text>
<text text-anchor="middle" x="237" y="-304.5" font-family="Helvetica,sans-Serif" font-size="10.00"> value_type &gt;::type</text>
<polyline fill="none" stroke="#bfbfbf" points="164,-297.5 310,-297.5 "/>
<text text-anchor="middle" x="237" y="-285.5" font-family="Helvetica,sans-Serif" font-size="10.00"> </text>
<polyline fill="none" stroke="#bfbfbf" points="164,-278.5 310,-278.5 "/>
<text text-anchor="middle" x="237" y="-266.5" font-family="Helvetica,sans-Serif" font-size="10.00"> </text>
</a>
</g>
</g>
<!-- Node4&#45;&gt;Node1 -->
<g id="edge4" class="edge">
<title>Node4&#45;&gt;Node1</title>
<path fill="none" stroke="midnightblue" d="M212.79,-250C205.71,-231.13 197.82,-210.1 190.2,-189.8"/>
<polygon fill="none" stroke="midnightblue" points="209.52,-251.23 216.31,-259.36 216.07,-248.77 209.52,-251.23"/>
</g>
<!-- Node5 -->
<g id="node5" class="node">
<title>Node5</title>
<g id="a_node5"><a xlink:title=" ">
<polygon fill="none" stroke="#bfbfbf" points="328,-281.5 328,-349.5 468,-349.5 468,-281.5 328,-281.5"/>
<text text-anchor="start" x="336" y="-337.5" font-family="Helvetica,sans-Serif" font-size="10.00">iterator_base_traits</text>
<text text-anchor="middle" x="398" y="-326.5" font-family="Helvetica,sans-Serif" font-size="10.00">::template iterator_base::type</text>
<polyline fill="none" stroke="#bfbfbf" points="328,-319.5 468,-319.5 "/>
<text text-anchor="middle" x="398" y="-307.5" font-family="Helvetica,sans-Serif" font-size="10.00"> </text>
<polyline fill="none" stroke="#bfbfbf" points="328,-300.5 468,-300.5 "/>
<text text-anchor="middle" x="398" y="-288.5" font-family="Helvetica,sans-Serif" font-size="10.00"> </text>
</a>
</g>
</g>
<!-- Node5&#45;&gt;Node1 -->
<g id="edge6" class="edge">
<title>Node5&#45;&gt;Node1</title>
<path fill="none" stroke="midnightblue" d="M363.96,-273.45C350.51,-258.02 334.57,-240.68 319,-226 284.11,-193.09 241.6,-159.56 208.6,-134.79"/>
<polygon fill="none" stroke="midnightblue" points="361.57,-276.03 370.75,-281.31 366.86,-271.45 361.57,-276.03"/>
</g>
</g>
</svg>
