<?xml version="1.0" encoding="UTF-8" standalone="no"?>
<!DOCTYPE svg PUBLIC "-//W3C//DTD SVG 1.1//EN"
 "http://www.w3.org/Graphics/SVG/1.1/DTD/svg11.dtd">
<!-- Generated by graphviz version 2.48.0 (20210719.0153)
 -->
<!-- Title: /github/workspace/kratos/geometries/point.h Pages: 1 -->
<svg width="2207pt" height="296pt"
 viewBox="0.00 0.00 2207.00 296.00" xmlns="http://www.w3.org/2000/svg" xmlns:xlink="http://www.w3.org/1999/xlink">
<g id="graph0" class="graph" transform="scale(1 1) rotate(0) translate(4 292)">
<title>/github/workspace/kratos/geometries/point.h</title>
<!-- Node1 -->
<g id="node1" class="node">
<title>Node1</title>
<g id="a_node1"><a xlink:title=" ">
<polygon fill="#bfbfbf" stroke="black" points="743,-257.5 743,-287.5 869,-287.5 869,-257.5 743,-257.5"/>
<text text-anchor="start" x="751" y="-275.5" font-family="Helvetica,sans-Serif" font-size="10.00">/github/workspace/kratos</text>
<text text-anchor="middle" x="806" y="-264.5" font-family="Helvetica,sans-Serif" font-size="10.00">/geometries/point.h</text>
</a>
</g>
</g>
<!-- Node2 -->
<g id="node2" class="node">
<title>Node2</title>
<g id="a_node2"><a xlink:title=" ">
<polygon fill="none" stroke="#bfbfbf" points="128.5,-62 128.5,-81 169.5,-81 169.5,-62 128.5,-62"/>
<text text-anchor="middle" x="149" y="-69" font-family="Helvetica,sans-Serif" font-size="10.00">string</text>
</a>
</g>
</g>
<!-- Node1&#45;&gt;Node2 -->
<g id="edge1" class="edge">
<title>Node1&#45;&gt;Node2</title>
<path fill="none" stroke="midnightblue" d="M742.78,-260.69C693.42,-251.7 623.32,-237.69 563,-221 388.38,-172.69 344.93,-157.44 178,-87 176.8,-86.5 175.59,-85.96 174.37,-85.41"/>
<polygon fill="midnightblue" stroke="midnightblue" points="175.62,-82.14 165.09,-81 172.61,-88.46 175.62,-82.14"/>
</g>
<!-- Node3 -->
<g id="node3" class="node">
<title>Node3</title>
<g id="a_node3"><a xlink:title=" ">
<polygon fill="none" stroke="#bfbfbf" points="2145,-62 2145,-81 2199,-81 2199,-62 2145,-62"/>
<text text-anchor="middle" x="2172" y="-69" font-family="Helvetica,sans-Serif" font-size="10.00">iostream</text>
</a>
</g>
</g>
<!-- Node1&#45;&gt;Node3 -->
<g id="edge2" class="edge">
<title>Node1&#45;&gt;Node3</title>
<path fill="none" stroke="midnightblue" d="M866.49,-257.43C944.73,-239.65 1085.41,-209.06 1207,-190 1617.41,-125.68 1733.15,-188.43 2136,-87 2138.66,-86.33 2141.39,-85.5 2144.1,-84.59"/>
<polygon fill="midnightblue" stroke="midnightblue" points="2145.5,-87.8 2153.64,-81.02 2143.05,-81.25 2145.5,-87.8"/>
</g>
<!-- Node4 -->
<g id="node4" class="node">
<title>Node4</title>
<g id="a_node4"><a xlink:title=" ">
<polygon fill="none" stroke="#bfbfbf" points="0,-0.5 0,-19.5 52,-19.5 52,-0.5 0,-0.5"/>
<text text-anchor="middle" x="26" y="-7.5" font-family="Helvetica,sans-Serif" font-size="10.00">sstream</text>
</a>
</g>
</g>
<!-- Node1&#45;&gt;Node4 -->
<g id="edge3" class="edge">
<title>Node1&#45;&gt;Node4</title>
<path fill="none" stroke="midnightblue" d="M742.94,-266.29C671.58,-259.52 552.24,-245.57 452,-221 365.03,-199.68 344.87,-187.93 262,-154 197.05,-127.41 178.4,-124.38 119,-87 90.34,-68.96 60.61,-43.22 42.7,-26.81"/>
<polygon fill="midnightblue" stroke="midnightblue" points="44.63,-23.82 34.92,-19.58 39.87,-28.95 44.63,-23.82"/>
</g>
<!-- Node5 -->
<g id="node5" class="node">
<title>Node5</title>
<g id="a_node5"><a xlink:title=" ">
<polygon fill="none" stroke="#bfbfbf" points="1215.5,-196 1215.5,-215 1264.5,-215 1264.5,-196 1215.5,-196"/>
<text text-anchor="middle" x="1240" y="-203" font-family="Helvetica,sans-Serif" font-size="10.00">cstddef</text>
</a>
</g>
</g>
<!-- Node1&#45;&gt;Node5 -->
<g id="edge4" class="edge">
<title>Node1&#45;&gt;Node5</title>
<path fill="none" stroke="midnightblue" d="M869.07,-267.9C947.73,-262.39 1085.88,-249.36 1201,-221 1203.99,-220.26 1207.07,-219.37 1210.11,-218.39"/>
<polygon fill="midnightblue" stroke="midnightblue" points="1211.34,-221.67 1219.63,-215.07 1209.04,-215.06 1211.34,-221.67"/>
</g>
<!-- Node6 -->
<g id="node6" class="node">
<title>Node6</title>
<g id="a_node6"><a xlink:title=" ">
<polygon fill="none" stroke="#bfbfbf" points="1282.5,-190.5 1282.5,-220.5 1377.5,-220.5 1377.5,-190.5 1282.5,-190.5"/>
<text text-anchor="start" x="1290.5" y="-208.5" font-family="Helvetica,sans-Serif" font-size="10.00">boost/serialization</text>
<text text-anchor="middle" x="1330" y="-197.5" font-family="Helvetica,sans-Serif" font-size="10.00">/base_object.hpp</text>
</a>
</g>
</g>
<!-- Node1&#45;&gt;Node6 -->
<g id="edge5" class="edge">
<title>Node1&#45;&gt;Node6</title>
<path fill="none" stroke="midnightblue" d="M869.25,-267.61C957.55,-261.54 1122.86,-247.81 1272.18,-221.17"/>
<polygon fill="midnightblue" stroke="midnightblue" points="1273.23,-224.54 1282.45,-219.32 1271.98,-217.65 1273.23,-224.54"/>
</g>
<!-- Node7 -->
<g id="node7" class="node">
<title>Node7</title>
<g id="a_node7"><a xlink:href="../../df/d67/define_8h.html" target="_top" xlink:title=" ">
<polygon fill="none" stroke="black" points="187.5,-62 187.5,-81 276.5,-81 276.5,-62 187.5,-62"/>
<text text-anchor="middle" x="232" y="-69" font-family="Helvetica,sans-Serif" font-size="10.00">includes/define.h</text>
</a>
</g>
</g>
<!-- Node1&#45;&gt;Node7 -->
<g id="edge6" class="edge">
<title>Node1&#45;&gt;Node7</title>
<path fill="none" stroke="midnightblue" d="M763.72,-257.46C698.28,-235.67 568.6,-192.23 459,-154 389.86,-129.88 309.25,-100.68 265.11,-84.6"/>
<polygon fill="midnightblue" stroke="midnightblue" points="266.07,-81.23 255.48,-81.09 263.67,-87.8 266.07,-81.23"/>
</g>
<!-- Node12 -->
<g id="node12" class="node">
<title>Node12</title>
<g id="a_node12"><a xlink:href="../../d9/d36/array__1d_8h.html" target="_top" xlink:title=" ">
<polygon fill="none" stroke="black" points="751.5,-196 751.5,-215 860.5,-215 860.5,-196 751.5,-196"/>
<text text-anchor="middle" x="806" y="-203" font-family="Helvetica,sans-Serif" font-size="10.00">containers/array_1d.h</text>
</a>
</g>
</g>
<!-- Node1&#45;&gt;Node12 -->
<g id="edge12" class="edge">
<title>Node1&#45;&gt;Node12</title>
<path fill="none" stroke="midnightblue" d="M806,-257.4C806,-248.06 806,-235.71 806,-225.52"/>
<polygon fill="midnightblue" stroke="midnightblue" points="809.5,-225.19 806,-215.19 802.5,-225.19 809.5,-225.19"/>
</g>
<!-- Node7&#45;&gt;Node4 -->
<g id="edge8" class="edge">
<title>Node7&#45;&gt;Node4</title>
<path fill="none" stroke="midnightblue" d="M202.49,-61.98C165.44,-51.27 101.92,-32.93 62.04,-21.41"/>
<polygon fill="midnightblue" stroke="midnightblue" points="62.78,-17.98 52.2,-18.57 60.83,-24.7 62.78,-17.98"/>
</g>
<!-- Node8 -->
<g id="node8" class="node">
<title>Node8</title>
<g id="a_node8"><a xlink:title=" ">
<polygon fill="none" stroke="#bfbfbf" points="479.5,-0.5 479.5,-19.5 538.5,-19.5 538.5,-0.5 479.5,-0.5"/>
<text text-anchor="middle" x="509" y="-7.5" font-family="Helvetica,sans-Serif" font-size="10.00">stdexcept</text>
</a>
</g>
</g>
<!-- Node7&#45;&gt;Node8 -->
<g id="edge7" class="edge">
<title>Node7&#45;&gt;Node8</title>
<path fill="none" stroke="midnightblue" d="M262.46,-61.93C270.12,-59.88 278.34,-57.78 286,-56 364.16,-37.88 386.84,-37.38 469.39,-20.06"/>
<polygon fill="midnightblue" stroke="midnightblue" points="470.15,-23.48 479.21,-17.98 468.7,-16.63 470.15,-23.48"/>
</g>
<!-- Node9 -->
<g id="node9" class="node">
<title>Node9</title>
<g id="a_node9"><a xlink:title=" ">
<polygon fill="none" stroke="#bfbfbf" points="70.5,-0.5 70.5,-19.5 173.5,-19.5 173.5,-0.5 70.5,-0.5"/>
<text text-anchor="middle" x="122" y="-7.5" font-family="Helvetica,sans-Serif" font-size="10.00">boost/smart_ptr.hpp</text>
</a>
</g>
</g>
<!-- Node7&#45;&gt;Node9 -->
<g id="edge9" class="edge">
<title>Node7&#45;&gt;Node9</title>
<path fill="none" stroke="midnightblue" d="M216.24,-61.98C198.02,-52.12 167.83,-35.79 146.53,-24.27"/>
<polygon fill="midnightblue" stroke="midnightblue" points="148.19,-21.19 137.73,-19.51 144.86,-27.35 148.19,-21.19"/>
</g>
<!-- Node10 -->
<g id="node10" class="node">
<title>Node10</title>
<g id="a_node10"><a xlink:title=" ">
<polygon fill="none" stroke="#bfbfbf" points="191.5,-0.5 191.5,-19.5 322.5,-19.5 322.5,-0.5 191.5,-0.5"/>
<text text-anchor="middle" x="257" y="-7.5" font-family="Helvetica,sans-Serif" font-size="10.00">boost/current_function.hpp</text>
</a>
</g>
</g>
<!-- Node7&#45;&gt;Node10 -->
<g id="edge10" class="edge">
<title>Node7&#45;&gt;Node10</title>
<path fill="none" stroke="midnightblue" d="M235.58,-61.98C239.18,-53.4 244.85,-39.93 249.44,-28.98"/>
<polygon fill="midnightblue" stroke="midnightblue" points="252.78,-30.08 253.42,-19.51 246.32,-27.37 252.78,-30.08"/>
</g>
<!-- Node11 -->
<g id="node11" class="node">
<title>Node11</title>
<g id="a_node11"><a xlink:href="../../de/d17/kratos__config_8h.html" target="_top" xlink:title=" ">
<polygon fill="none" stroke="black" points="340.5,-0.5 340.5,-19.5 461.5,-19.5 461.5,-0.5 340.5,-0.5"/>
<text text-anchor="middle" x="401" y="-7.5" font-family="Helvetica,sans-Serif" font-size="10.00">includes/kratos_config.h</text>
</a>
</g>
</g>
<!-- Node7&#45;&gt;Node11 -->
<g id="edge11" class="edge">
<title>Node7&#45;&gt;Node11</title>
<path fill="none" stroke="midnightblue" d="M256.21,-61.98C285.33,-51.72 334.37,-34.46 367.2,-22.9"/>
<polygon fill="midnightblue" stroke="midnightblue" points="368.56,-26.13 376.83,-19.51 366.24,-19.53 368.56,-26.13"/>
</g>
<!-- Node12&#45;&gt;Node2 -->
<g id="edge13" class="edge">
<title>Node12&#45;&gt;Node2</title>
<path fill="none" stroke="midnightblue" d="M751.09,-200.24C639.96,-190.33 381.64,-160.71 178,-87 176.58,-86.49 175.13,-85.92 173.69,-85.32"/>
<polygon fill="midnightblue" stroke="midnightblue" points="174.91,-82.02 164.36,-81.01 171.97,-88.38 174.91,-82.02"/>
</g>
<!-- Node12&#45;&gt;Node3 -->
<g id="edge14" class="edge">
<title>Node12&#45;&gt;Node3</title>
<path fill="none" stroke="midnightblue" d="M860.7,-203.08C926.14,-199.78 1038.01,-188.98 1127,-154 1149.94,-144.98 1149.56,-130.64 1173,-123 1376.6,-56.62 1926.56,-131.67 2136,-87 2138.84,-86.39 2141.75,-85.58 2144.62,-84.65"/>
<polygon fill="midnightblue" stroke="midnightblue" points="2145.91,-87.9 2154.07,-81.14 2143.48,-81.34 2145.91,-87.9"/>
</g>
<!-- Node12&#45;&gt;Node7 -->
<g id="edge16" class="edge">
<title>Node12&#45;&gt;Node7</title>
<path fill="none" stroke="midnightblue" d="M764.68,-195.94C718.9,-186.31 642.97,-169.94 578,-154 526.59,-141.38 514.52,-135.17 463,-123 384.87,-104.54 364.14,-105.42 286,-87 281.58,-85.96 276.96,-84.81 272.38,-83.63"/>
<polygon fill="midnightblue" stroke="midnightblue" points="273.03,-80.19 262.47,-81.03 271.26,-86.96 273.03,-80.19"/>
</g>
<!-- Node13 -->
<g id="node13" class="node">
<title>Node13</title>
<g id="a_node13"><a xlink:title=" ">
<polygon fill="none" stroke="#bfbfbf" points="586.5,-129 586.5,-148 669.5,-148 669.5,-129 586.5,-129"/>
<text text-anchor="middle" x="628" y="-136" font-family="Helvetica,sans-Serif" font-size="10.00">boost/array.hpp</text>
</a>
</g>
</g>
<!-- Node12&#45;&gt;Node13 -->
<g id="edge15" class="edge">
<title>Node12&#45;&gt;Node13</title>
<path fill="none" stroke="midnightblue" d="M782.36,-195.87C751.29,-184.52 696.53,-164.52 661.28,-151.65"/>
<polygon fill="midnightblue" stroke="midnightblue" points="662.05,-148.21 651.45,-148.06 659.64,-154.78 662.05,-148.21"/>
</g>
<!-- Node14 -->
<g id="node14" class="node">
<title>Node14</title>
<g id="a_node14"><a xlink:href="../../d9/d3e/ublas__interface_8h.html" target="_top" xlink:title=" ">
<polygon fill="none" stroke="black" points="953.5,-129 953.5,-148 1082.5,-148 1082.5,-129 953.5,-129"/>
<text text-anchor="middle" x="1018" y="-136" font-family="Helvetica,sans-Serif" font-size="10.00">includes/ublas_interface.h</text>
</a>
</g>
</g>
<!-- Node12&#45;&gt;Node14 -->
<g id="edge17" class="edge">
<title>Node12&#45;&gt;Node14</title>
<path fill="none" stroke="midnightblue" d="M834.15,-195.87C871.79,-184.33 938.63,-163.84 980.51,-151"/>
<polygon fill="midnightblue" stroke="midnightblue" points="981.53,-154.34 990.07,-148.06 979.48,-147.65 981.53,-154.34"/>
</g>
<!-- Node18 -->
<g id="node18" class="node">
<title>Node18</title>
<g id="a_node18"><a xlink:title=" ">
<polygon fill="none" stroke="#bfbfbf" points="2011,-56.5 2011,-86.5 2127,-86.5 2127,-56.5 2011,-56.5"/>
<text text-anchor="start" x="2019" y="-74.5" font-family="Helvetica,sans-Serif" font-size="10.00">boost/numeric/ublas</text>
<text text-anchor="middle" x="2069" y="-63.5" font-family="Helvetica,sans-Serif" font-size="10.00">/vector_expression.hpp</text>
</a>
</g>
</g>
<!-- Node12&#45;&gt;Node18 -->
<g id="edge36" class="edge">
<title>Node12&#45;&gt;Node18</title>
<path fill="none" stroke="midnightblue" d="M860.75,-202.09C919.88,-197.85 1015.83,-186.18 1092,-154 1113.7,-144.83 1112.74,-130.7 1135,-123 1314.21,-61 1794.43,-109.8 2000.44,-86.97"/>
<polygon fill="midnightblue" stroke="midnightblue" points="2001.12,-90.41 2010.64,-85.75 2000.29,-83.46 2001.12,-90.41"/>
</g>
<!-- Node30 -->
<g id="node30" class="node">
<title>Node30</title>
<g id="a_node30"><a xlink:title=" ">
<polygon fill="none" stroke="#bfbfbf" points="688,-123.5 688,-153.5 792,-153.5 792,-123.5 688,-123.5"/>
<text text-anchor="start" x="696" y="-141.5" font-family="Helvetica,sans-Serif" font-size="10.00">boost/numeric/ublas</text>
<text text-anchor="middle" x="740" y="-130.5" font-family="Helvetica,sans-Serif" font-size="10.00">/storage.hpp</text>
</a>
</g>
</g>
<!-- Node12&#45;&gt;Node30 -->
<g id="edge37" class="edge">
<title>Node12&#45;&gt;Node30</title>
<path fill="none" stroke="midnightblue" d="M797.1,-195.73C788.01,-186.78 773.55,-172.54 761.46,-160.63"/>
<polygon fill="midnightblue" stroke="midnightblue" points="763.89,-158.11 754.31,-153.59 758.97,-163.1 763.89,-158.11"/>
</g>
<!-- Node31 -->
<g id="node31" class="node">
<title>Node31</title>
<g id="a_node31"><a xlink:title=" ">
<polygon fill="none" stroke="#bfbfbf" points="810.5,-123.5 810.5,-153.5 935.5,-153.5 935.5,-123.5 810.5,-123.5"/>
<text text-anchor="start" x="818.5" y="-141.5" font-family="Helvetica,sans-Serif" font-size="10.00">boost/numeric/ublas</text>
<text text-anchor="middle" x="873" y="-130.5" font-family="Helvetica,sans-Serif" font-size="10.00">/detail/vector_assign.hpp</text>
</a>
</g>
</g>
<!-- Node12&#45;&gt;Node31 -->
<g id="edge38" class="edge">
<title>Node12&#45;&gt;Node31</title>
<path fill="none" stroke="midnightblue" d="M815.04,-195.73C824.26,-186.78 838.94,-172.54 851.22,-160.63"/>
<polygon fill="midnightblue" stroke="midnightblue" points="853.74,-163.06 858.48,-153.59 848.86,-158.04 853.74,-163.06"/>
</g>
<!-- Node14&#45;&gt;Node2 -->
<g id="edge18" class="edge">
<title>Node14&#45;&gt;Node2</title>
<path fill="none" stroke="midnightblue" d="M980.66,-128.97C969.27,-126.67 956.67,-124.43 945,-123 775.63,-102.32 343.1,-130.09 178,-87 176.28,-86.55 174.54,-85.99 172.81,-85.35"/>
<polygon fill="midnightblue" stroke="midnightblue" points="173.85,-81.98 163.29,-81.12 171,-88.38 173.85,-81.98"/>
</g>
<!-- Node14&#45;&gt;Node3 -->
<g id="edge19" class="edge">
<title>Node14&#45;&gt;Node3</title>
<path fill="none" stroke="midnightblue" d="M1078.62,-128.96C1096.73,-126.69 1116.64,-124.47 1135,-123 1356.88,-105.29 1918.28,-133.28 2136,-87 2138.84,-86.4 2141.75,-85.58 2144.62,-84.65"/>
<polygon fill="midnightblue" stroke="midnightblue" points="2145.91,-87.9 2154.07,-81.14 2143.48,-81.34 2145.91,-87.9"/>
</g>
<!-- Node14&#45;&gt;Node7 -->
<g id="edge35" class="edge">
<title>Node14&#45;&gt;Node7</title>
<path fill="none" stroke="midnightblue" d="M980.28,-128.95C968.99,-126.68 956.54,-124.45 945,-123 653.97,-86.33 575.65,-133.28 286,-87 280.55,-86.13 274.85,-84.93 269.29,-83.59"/>
<polygon fill="midnightblue" stroke="midnightblue" points="270.07,-80.17 259.51,-81.07 268.32,-86.95 270.07,-80.17"/>
</g>
<!-- Node15 -->
<g id="node15" class="node">
<title>Node15</title>
<g id="a_node15"><a xlink:title=" ">
<polygon fill="none" stroke="#bfbfbf" points="295,-56.5 295,-86.5 399,-86.5 399,-56.5 295,-56.5"/>
<text text-anchor="start" x="303" y="-74.5" font-family="Helvetica,sans-Serif" font-size="10.00">boost/numeric/ublas</text>
<text text-anchor="middle" x="347" y="-63.5" font-family="Helvetica,sans-Serif" font-size="10.00">/vector.hpp</text>
</a>
</g>
</g>
<!-- Node14&#45;&gt;Node15 -->
<g id="edge20" class="edge">
<title>Node14&#45;&gt;Node15</title>
<path fill="none" stroke="midnightblue" d="M979.89,-128.96C968.7,-126.72 956.4,-124.51 945,-123 711.11,-92.06 646.28,-121.94 409.09,-86.99"/>
<polygon fill="midnightblue" stroke="midnightblue" points="409.54,-83.51 399.13,-85.49 408.5,-90.44 409.54,-83.51"/>
</g>
<!-- Node16 -->
<g id="node16" class="node">
<title>Node16</title>
<g id="a_node16"><a xlink:title=" ">
<polygon fill="none" stroke="#bfbfbf" points="417,-56.5 417,-86.5 521,-86.5 521,-56.5 417,-56.5"/>
<text text-anchor="start" x="425" y="-74.5" font-family="Helvetica,sans-Serif" font-size="10.00">boost/numeric/ublas</text>
<text text-anchor="middle" x="469" y="-63.5" font-family="Helvetica,sans-Serif" font-size="10.00">/vector_proxy.hpp</text>
</a>
</g>
</g>
<!-- Node14&#45;&gt;Node16 -->
<g id="edge21" class="edge">
<title>Node14&#45;&gt;Node16</title>
<path fill="none" stroke="midnightblue" d="M979.11,-128.96C968.13,-126.76 956.13,-124.58 945,-123 764.93,-97.38 714.54,-115.81 531.12,-87.02"/>
<polygon fill="midnightblue" stroke="midnightblue" points="531.57,-83.55 521.14,-85.43 530.47,-90.46 531.57,-83.55"/>
</g>
<!-- Node17 -->
<g id="node17" class="node">
<title>Node17</title>
<g id="a_node17"><a xlink:title=" ">
<polygon fill="none" stroke="#bfbfbf" points="539,-56.5 539,-86.5 643,-86.5 643,-56.5 539,-56.5"/>
<text text-anchor="start" x="547" y="-74.5" font-family="Helvetica,sans-Serif" font-size="10.00">boost/numeric/ublas</text>
<text text-anchor="middle" x="591" y="-63.5" font-family="Helvetica,sans-Serif" font-size="10.00">/vector_sparse.hpp</text>
</a>
</g>
</g>
<!-- Node14&#45;&gt;Node17 -->
<g id="edge22" class="edge">
<title>Node14&#45;&gt;Node17</title>
<path fill="none" stroke="midnightblue" d="M977.93,-128.99C967.26,-126.87 955.72,-124.72 945,-123 818.62,-102.71 782.87,-109.83 653.09,-87.07"/>
<polygon fill="midnightblue" stroke="midnightblue" points="653.62,-83.61 643.16,-85.3 652.4,-90.5 653.62,-83.61"/>
</g>
<!-- Node14&#45;&gt;Node18 -->
<g id="edge23" class="edge">
<title>Node14&#45;&gt;Node18</title>
<path fill="none" stroke="midnightblue" d="M1058.43,-128.94C1070.76,-126.64 1084.39,-124.4 1097,-123 1493.76,-78.92 1600.9,-136.79 2000.54,-87.03"/>
<polygon fill="midnightblue" stroke="midnightblue" points="2001.15,-90.48 2010.64,-85.75 2000.28,-83.53 2001.15,-90.48"/>
</g>
<!-- Node19 -->
<g id="node19" class="node">
<title>Node19</title>
<g id="a_node19"><a xlink:title=" ">
<polygon fill="none" stroke="#bfbfbf" points="661,-56.5 661,-86.5 765,-86.5 765,-56.5 661,-56.5"/>
<text text-anchor="start" x="669" y="-74.5" font-family="Helvetica,sans-Serif" font-size="10.00">boost/numeric/ublas</text>
<text text-anchor="middle" x="713" y="-63.5" font-family="Helvetica,sans-Serif" font-size="10.00">/matrix.hpp</text>
</a>
</g>
</g>
<!-- Node14&#45;&gt;Node19 -->
<g id="edge24" class="edge">
<title>Node14&#45;&gt;Node19</title>
<path fill="none" stroke="midnightblue" d="M974.72,-128.94C927.98,-119.61 851.07,-104 775.4,-87.28"/>
<polygon fill="midnightblue" stroke="midnightblue" points="775.74,-83.77 765.22,-85.02 774.23,-90.6 775.74,-83.77"/>
</g>
<!-- Node20 -->
<g id="node20" class="node">
<title>Node20</title>
<g id="a_node20"><a xlink:title=" ">
<polygon fill="none" stroke="#bfbfbf" points="783,-56.5 783,-86.5 887,-86.5 887,-56.5 783,-56.5"/>
<text text-anchor="start" x="791" y="-74.5" font-family="Helvetica,sans-Serif" font-size="10.00">boost/numeric/ublas</text>
<text text-anchor="middle" x="835" y="-63.5" font-family="Helvetica,sans-Serif" font-size="10.00">/matrix_sparse.hpp</text>
</a>
</g>
</g>
<!-- Node14&#45;&gt;Node20 -->
<g id="edge25" class="edge">
<title>Node14&#45;&gt;Node20</title>
<path fill="none" stroke="midnightblue" d="M993.7,-128.87C965.88,-118.99 919.6,-102.55 884.17,-89.97"/>
<polygon fill="midnightblue" stroke="midnightblue" points="885.09,-86.58 874.49,-86.53 882.75,-93.17 885.09,-86.58"/>
</g>
<!-- Node21 -->
<g id="node21" class="node">
<title>Node21</title>
<g id="a_node21"><a xlink:title=" ">
<polygon fill="none" stroke="#bfbfbf" points="905,-56.5 905,-86.5 1009,-86.5 1009,-56.5 905,-56.5"/>
<text text-anchor="start" x="913" y="-74.5" font-family="Helvetica,sans-Serif" font-size="10.00">boost/numeric/ublas</text>
<text text-anchor="middle" x="957" y="-63.5" font-family="Helvetica,sans-Serif" font-size="10.00">/matrix_proxy.hpp</text>
</a>
</g>
</g>
<!-- Node14&#45;&gt;Node21 -->
<g id="edge26" class="edge">
<title>Node14&#45;&gt;Node21</title>
<path fill="none" stroke="midnightblue" d="M1009.77,-128.73C1001.45,-119.86 988.26,-105.81 977.15,-93.97"/>
<polygon fill="midnightblue" stroke="midnightblue" points="979.62,-91.49 970.22,-86.59 974.51,-96.28 979.62,-91.49"/>
</g>
<!-- Node22 -->
<g id="node22" class="node">
<title>Node22</title>
<g id="a_node22"><a xlink:title=" ">
<polygon fill="none" stroke="#bfbfbf" points="1027,-56.5 1027,-86.5 1131,-86.5 1131,-56.5 1027,-56.5"/>
<text text-anchor="start" x="1035" y="-74.5" font-family="Helvetica,sans-Serif" font-size="10.00">boost/numeric/ublas</text>
<text text-anchor="middle" x="1079" y="-63.5" font-family="Helvetica,sans-Serif" font-size="10.00">/symmetric.hpp</text>
</a>
</g>
</g>
<!-- Node14&#45;&gt;Node22 -->
<g id="edge27" class="edge">
<title>Node14&#45;&gt;Node22</title>
<path fill="none" stroke="midnightblue" d="M1026.23,-128.73C1034.55,-119.86 1047.74,-105.81 1058.85,-93.97"/>
<polygon fill="midnightblue" stroke="midnightblue" points="1061.49,-96.28 1065.78,-86.59 1056.38,-91.49 1061.49,-96.28"/>
</g>
<!-- Node23 -->
<g id="node23" class="node">
<title>Node23</title>
<g id="a_node23"><a xlink:title=" ">
<polygon fill="none" stroke="#bfbfbf" points="1149,-56.5 1149,-86.5 1253,-86.5 1253,-56.5 1149,-56.5"/>
<text text-anchor="start" x="1157" y="-74.5" font-family="Helvetica,sans-Serif" font-size="10.00">boost/numeric/ublas</text>
<text text-anchor="middle" x="1201" y="-63.5" font-family="Helvetica,sans-Serif" font-size="10.00">/hermitian.hpp</text>
</a>
</g>
</g>
<!-- Node14&#45;&gt;Node23 -->
<g id="edge28" class="edge">
<title>Node14&#45;&gt;Node23</title>
<path fill="none" stroke="midnightblue" d="M1042.3,-128.87C1070.12,-118.99 1116.4,-102.55 1151.83,-89.97"/>
<polygon fill="midnightblue" stroke="midnightblue" points="1153.25,-93.17 1161.51,-86.53 1150.91,-86.58 1153.25,-93.17"/>
</g>
<!-- Node24 -->
<g id="node24" class="node">
<title>Node24</title>
<g id="a_node24"><a xlink:title=" ">
<polygon fill="none" stroke="#bfbfbf" points="1271,-56.5 1271,-86.5 1375,-86.5 1375,-56.5 1271,-56.5"/>
<text text-anchor="start" x="1279" y="-74.5" font-family="Helvetica,sans-Serif" font-size="10.00">boost/numeric/ublas</text>
<text text-anchor="middle" x="1323" y="-63.5" font-family="Helvetica,sans-Serif" font-size="10.00">/banded.hpp</text>
</a>
</g>
</g>
<!-- Node14&#45;&gt;Node24 -->
<g id="edge29" class="edge">
<title>Node14&#45;&gt;Node24</title>
<path fill="none" stroke="midnightblue" d="M1061.28,-128.94C1108.02,-119.61 1184.93,-104 1260.6,-87.28"/>
<polygon fill="midnightblue" stroke="midnightblue" points="1261.77,-90.6 1270.78,-85.02 1260.26,-83.77 1261.77,-90.6"/>
</g>
<!-- Node25 -->
<g id="node25" class="node">
<title>Node25</title>
<g id="a_node25"><a xlink:title=" ">
<polygon fill="none" stroke="#bfbfbf" points="1393,-56.5 1393,-86.5 1497,-86.5 1497,-56.5 1393,-56.5"/>
<text text-anchor="start" x="1401" y="-74.5" font-family="Helvetica,sans-Serif" font-size="10.00">boost/numeric/ublas</text>
<text text-anchor="middle" x="1445" y="-63.5" font-family="Helvetica,sans-Serif" font-size="10.00">/triangular.hpp</text>
</a>
</g>
</g>
<!-- Node14&#45;&gt;Node25 -->
<g id="edge30" class="edge">
<title>Node14&#45;&gt;Node25</title>
<path fill="none" stroke="midnightblue" d="M1062.21,-128.93C1073.53,-126.86 1085.7,-124.74 1097,-123 1220.82,-103.89 1255.74,-109.58 1382.72,-87.11"/>
<polygon fill="midnightblue" stroke="midnightblue" points="1383.61,-90.5 1392.84,-85.29 1382.37,-83.61 1383.61,-90.5"/>
</g>
<!-- Node26 -->
<g id="node26" class="node">
<title>Node26</title>
<g id="a_node26"><a xlink:title=" ">
<polygon fill="none" stroke="#bfbfbf" points="1515,-56.5 1515,-86.5 1619,-86.5 1619,-56.5 1515,-56.5"/>
<text text-anchor="start" x="1523" y="-74.5" font-family="Helvetica,sans-Serif" font-size="10.00">boost/numeric/ublas</text>
<text text-anchor="middle" x="1567" y="-63.5" font-family="Helvetica,sans-Serif" font-size="10.00">/io.hpp</text>
</a>
</g>
</g>
<!-- Node14&#45;&gt;Node26 -->
<g id="edge31" class="edge">
<title>Node14&#45;&gt;Node26</title>
<path fill="none" stroke="midnightblue" d="M1060.52,-128.94C1072.3,-126.77 1085.12,-124.61 1097,-123 1274.56,-98.94 1324.09,-115.55 1504.75,-87.04"/>
<polygon fill="midnightblue" stroke="midnightblue" points="1505.54,-90.46 1514.86,-85.42 1504.43,-83.55 1505.54,-90.46"/>
</g>
<!-- Node27 -->
<g id="node27" class="node">
<title>Node27</title>
<g id="a_node27"><a xlink:title=" ">
<polygon fill="none" stroke="#bfbfbf" points="1637,-56.5 1637,-86.5 1741,-86.5 1741,-56.5 1637,-56.5"/>
<text text-anchor="start" x="1645" y="-74.5" font-family="Helvetica,sans-Serif" font-size="10.00">boost/numeric/ublas</text>
<text text-anchor="middle" x="1689" y="-63.5" font-family="Helvetica,sans-Serif" font-size="10.00">/operation.hpp</text>
</a>
</g>
</g>
<!-- Node14&#45;&gt;Node27 -->
<g id="edge32" class="edge">
<title>Node14&#45;&gt;Node27</title>
<path fill="none" stroke="midnightblue" d="M1059.68,-128.93C1071.68,-126.72 1084.82,-124.53 1097,-123 1328.38,-94.02 1392.33,-121.67 1626.66,-87.02"/>
<polygon fill="midnightblue" stroke="midnightblue" points="1627.5,-90.44 1636.87,-85.49 1626.46,-83.52 1627.5,-90.44"/>
</g>
<!-- Node28 -->
<g id="node28" class="node">
<title>Node28</title>
<g id="a_node28"><a xlink:title=" ">
<polygon fill="none" stroke="#bfbfbf" points="1759,-56.5 1759,-86.5 1863,-86.5 1863,-56.5 1759,-56.5"/>
<text text-anchor="start" x="1767" y="-74.5" font-family="Helvetica,sans-Serif" font-size="10.00">boost/numeric/ublas</text>
<text text-anchor="middle" x="1811" y="-63.5" font-family="Helvetica,sans-Serif" font-size="10.00">/lu.hpp</text>
</a>
</g>
</g>
<!-- Node14&#45;&gt;Node28 -->
<g id="edge33" class="edge">
<title>Node14&#45;&gt;Node28</title>
<path fill="none" stroke="midnightblue" d="M1058.85,-128.98C1071.07,-126.71 1084.54,-124.48 1097,-123 1382.39,-89.08 1460.6,-127.88 1748.97,-86.96"/>
<polygon fill="midnightblue" stroke="midnightblue" points="1749.47,-90.42 1758.87,-85.54 1748.48,-83.5 1749.47,-90.42"/>
</g>
<!-- Node29 -->
<g id="node29" class="node">
<title>Node29</title>
<g id="a_node29"><a xlink:title=" ">
<polygon fill="none" stroke="#bfbfbf" points="1881,-56.5 1881,-86.5 1993,-86.5 1993,-56.5 1881,-56.5"/>
<text text-anchor="start" x="1889" y="-74.5" font-family="Helvetica,sans-Serif" font-size="10.00">boost/numeric/ublas</text>
<text text-anchor="middle" x="1937" y="-63.5" font-family="Helvetica,sans-Serif" font-size="10.00">/operation_sparse.hpp</text>
</a>
</g>
</g>
<!-- Node14&#45;&gt;Node29 -->
<g id="edge34" class="edge">
<title>Node14&#45;&gt;Node29</title>
<path fill="none" stroke="midnightblue" d="M1058.44,-128.99C1070.77,-126.69 1084.39,-124.44 1097,-123 1436.32,-84.16 1528.48,-131.78 1870.8,-86.99"/>
<polygon fill="midnightblue" stroke="midnightblue" points="1871.28,-90.46 1880.74,-85.68 1870.36,-83.52 1871.28,-90.46"/>
</g>
</g>
</svg>
