<?xml version="1.0" encoding="UTF-8" standalone="no"?>
<!DOCTYPE svg PUBLIC "-//W3C//DTD SVG 1.1//EN"
 "http://www.w3.org/Graphics/SVG/1.1/DTD/svg11.dtd">
<!-- Generated by graphviz version 2.48.0 (20210719.0153)
 -->
<!-- Title: /github/workspace/kratos/python/kratos_python.cpp Pages: 1 -->
<!--zoomable 251 -->
<svg id="main" version="1.1" xmlns="http://www.w3.org/2000/svg" xmlns:xlink="http://www.w3.org/1999/xlink" xml:space="preserve" onload="init(evt)">
<style type="text/css"><![CDATA[
.edge:hover path { stroke: red; }
.edge:hover polygon { stroke: red; fill: red; }
]]></style>
<script type="text/javascript"><![CDATA[
var edges = document.getElementsByTagName('g');
if (edges && edges.length) {
  for (var i=0;i<edges.length;i++) {
    if (edges[i].id.substr(0,4)=='edge') {
      edges[i].setAttribute('class','edge');
    }
  }
}
]]></script>
        <defs>
                <circle id="rim" cx="0" cy="0" r="7"/>
                <circle id="rim2" cx="0" cy="0" r="3.5"/>
                <g id="zoomPlus">
                        <use xlink:href="#rim" fill="#404040">
                                <set attributeName="fill" to="#808080" begin="zoomplus.mouseover" end="zoomplus.mouseout"/>
                        </use>
                        <path d="M-4,0h8M0,-4v8" fill="none" stroke="white" stroke-width="1.5" pointer-events="none"/>
                </g>
                <g id="zoomMin">
                        <use xlink:href="#rim" fill="#404040">
                                <set attributeName="fill" to="#808080" begin="zoomminus.mouseover" end="zoomminus.mouseout"/>
                        </use>
                        <path d="M-4,0h8" fill="none" stroke="white" stroke-width="1.5" pointer-events="none"/>
                </g>
                <g id="dirArrow">
                        <path fill="none" stroke="white" stroke-width="1.5" d="M0,-3.0v7 M-2.5,-0.5L0,-3.0L2.5,-0.5"/>
                </g>
               <g id="resetDef">
                       <use xlink:href="#rim2" fill="#404040">
                               <set attributeName="fill" to="#808080" begin="reset.mouseover" end="reset.mouseout"/>
                       </use>
               </g>
        </defs>

<script type="text/javascript">
var viewWidth = 3560;
var viewHeight = 251;
var sectionId = 'dynsection-0';
</script>
<script xlink:href="../../svgpan.js"/>
<svg id="graph" class="graph">
<g id="viewport">
<title>/github/workspace/kratos/python/kratos_python.cpp</title>
<!-- Node1 -->
<g id="node1" class="node">
<title>Node1</title>
<g id="a_node1"><a xlink:title=" ">
<polygon fill="#bfbfbf" stroke="black" points="1446,-212.5 1446,-242.5 1576,-242.5 1576,-212.5 1446,-212.5"/>
<text text-anchor="start" x="1454" y="-230.5" font-family="Helvetica,sans-Serif" font-size="10.00">/github/workspace/kratos</text>
<text text-anchor="middle" x="1511" y="-219.5" font-family="Helvetica,sans-Serif" font-size="10.00">/python/kratos_python.cpp</text>
</a>
</g>
</g>
<!-- Node2 -->
<g id="node2" class="node">
<title>Node2</title>
<g id="a_node2"><a xlink:title=" ">
<polygon fill="none" stroke="#bfbfbf" points="0,-84 0,-103 90,-103 90,-84 0,-84"/>
<text text-anchor="middle" x="45" y="-91" font-family="Helvetica,sans-Serif" font-size="10.00">boost/python.hpp</text>
</a>
</g>
</g>
<!-- Node1&#45;&gt;Node2 -->
<g id="edge1" class="edge">
<title>Node1&#45;&gt;Node2</title>
<path fill="none" stroke="midnightblue" d="M1445.61,-226.78C1164.55,-227.69 71.15,-227.87 21,-176 4.16,-158.58 18.81,-129.96 31.47,-111.69"/>
<polygon fill="midnightblue" stroke="midnightblue" points="34.45,-113.55 37.56,-103.42 28.81,-109.4 34.45,-113.55"/>
</g>
<!-- Node3 -->
<g id="node3" class="node">
<title>Node3</title>
<g id="a_node3"><a xlink:href="../../df/d67/define_8h.html" target="_top" xlink:title=" ">
<polygon fill="none" stroke="black" points="1600.5,-84 1600.5,-103 1689.5,-103 1689.5,-84 1600.5,-84"/>
<text text-anchor="middle" x="1645" y="-91" font-family="Helvetica,sans-Serif" font-size="10.00">includes/define.h</text>
</a>
</g>
</g>
<!-- Node1&#45;&gt;Node3 -->
<g id="edge2" class="edge">
<title>Node1&#45;&gt;Node3</title>
<path fill="none" stroke="midnightblue" d="M1576.26,-224.99C1769.1,-220.23 2324.54,-204.1 2351,-176 2360.45,-165.97 2360.39,-155.08 2351,-145 2306.95,-97.69 1858.36,-94.03 1699.99,-94.23"/>
<polygon fill="midnightblue" stroke="midnightblue" points="1699.54,-90.73 1689.55,-94.25 1699.55,-97.73 1699.54,-90.73"/>
</g>
<!-- Node9 -->
<g id="node9" class="node">
<title>Node9</title>
<g id="a_node9"><a xlink:href="../../d9/de9/add__vector__to__python_8h.html" target="_top" xlink:title=" ">
<polygon fill="none" stroke="black" points="161.5,-151 161.5,-170 280.5,-170 280.5,-151 161.5,-151"/>
<text text-anchor="middle" x="221" y="-158" font-family="Helvetica,sans-Serif" font-size="10.00">add_vector_to_python.h</text>
</a>
</g>
</g>
<!-- Node1&#45;&gt;Node9 -->
<g id="edge8" class="edge">
<title>Node1&#45;&gt;Node9</title>
<path fill="none" stroke="midnightblue" d="M1445.97,-225.26C1226.76,-220.86 515.98,-204.68 289,-176 281.34,-175.03 273.26,-173.64 265.45,-172.1"/>
<polygon fill="midnightblue" stroke="midnightblue" points="265.9,-168.62 255.4,-170.01 264.48,-175.47 265.9,-168.62"/>
</g>
<!-- Node10 -->
<g id="node10" class="node">
<title>Node10</title>
<g id="a_node10"><a xlink:href="../../da/df9/add__matrix__to__python_8h.html" target="_top" xlink:title=" ">
<polygon fill="none" stroke="black" points="298.5,-151 298.5,-170 417.5,-170 417.5,-151 298.5,-151"/>
<text text-anchor="middle" x="358" y="-158" font-family="Helvetica,sans-Serif" font-size="10.00">add_matrix_to_python.h</text>
</a>
</g>
</g>
<!-- Node1&#45;&gt;Node10 -->
<g id="edge10" class="edge">
<title>Node1&#45;&gt;Node10</title>
<path fill="none" stroke="midnightblue" d="M1445.93,-227.1C1277.03,-227.86 811.05,-224.98 427,-176 419.23,-175.01 411.03,-173.61 403.11,-172.06"/>
<polygon fill="midnightblue" stroke="midnightblue" points="403.77,-168.63 393.27,-170.05 402.37,-175.48 403.77,-168.63"/>
</g>
<!-- Node11 -->
<g id="node11" class="node">
<title>Node11</title>
<g id="a_node11"><a xlink:href="../../dc/d6f/add__geometries__to__python_8h.html" target="_top" xlink:title=" ">
<polygon fill="none" stroke="black" points="436,-151 436,-170 576,-170 576,-151 436,-151"/>
<text text-anchor="middle" x="506" y="-158" font-family="Helvetica,sans-Serif" font-size="10.00">add_geometries_to_python.h</text>
</a>
</g>
</g>
<!-- Node1&#45;&gt;Node11 -->
<g id="edge12" class="edge">
<title>Node1&#45;&gt;Node11</title>
<path fill="none" stroke="midnightblue" d="M1445.92,-225.79C1294.42,-223.51 906.56,-214.12 585,-176 575.85,-174.91 566.16,-173.42 556.81,-171.81"/>
<polygon fill="midnightblue" stroke="midnightblue" points="557.31,-168.34 546.85,-170.02 556.08,-175.23 557.31,-168.34"/>
</g>
<!-- Node12 -->
<g id="node12" class="node">
<title>Node12</title>
<g id="a_node12"><a xlink:href="../../d1/d70/add__containers__to__python_8h.html" target="_top" xlink:title=" ">
<polygon fill="none" stroke="black" points="594.5,-151 594.5,-170 731.5,-170 731.5,-151 594.5,-151"/>
<text text-anchor="middle" x="663" y="-158" font-family="Helvetica,sans-Serif" font-size="10.00">add_containers_to_python.h</text>
</a>
</g>
</g>
<!-- Node1&#45;&gt;Node12 -->
<g id="edge14" class="edge">
<title>Node1&#45;&gt;Node12</title>
<path fill="none" stroke="midnightblue" d="M1445.76,-224.88C1312.62,-221 1000.17,-208.9 740,-176 731.27,-174.9 722.04,-173.43 713.12,-171.84"/>
<polygon fill="midnightblue" stroke="midnightblue" points="713.69,-168.39 703.22,-170.02 712.42,-175.27 713.69,-168.39"/>
</g>
<!-- Node13 -->
<g id="node13" class="node">
<title>Node13</title>
<g id="a_node13"><a xlink:href="../../d9/de5/kratos_2python_2add__processes__to__python_8h.html" target="_top" xlink:title=" ">
<polygon fill="none" stroke="black" points="749.5,-151 749.5,-170 886.5,-170 886.5,-151 749.5,-151"/>
<text text-anchor="middle" x="818" y="-158" font-family="Helvetica,sans-Serif" font-size="10.00">add_processes_to_python.h</text>
</a>
</g>
</g>
<!-- Node1&#45;&gt;Node13 -->
<g id="edge16" class="edge">
<title>Node1&#45;&gt;Node13</title>
<path fill="none" stroke="midnightblue" d="M1445.68,-223.33C1333.09,-217.37 1095.36,-202.65 896,-176 887.46,-174.86 878.44,-173.41 869.68,-171.87"/>
<polygon fill="midnightblue" stroke="midnightblue" points="870.03,-168.38 859.57,-170.04 868.78,-175.27 870.03,-168.38"/>
</g>
<!-- Node14 -->
<g id="node14" class="node">
<title>Node14</title>
<g id="a_node14"><a xlink:href="../../d4/d28/add__model__part__to__python_8h.html" target="_top" xlink:title=" ">
<polygon fill="none" stroke="black" points="905,-151 905,-170 1045,-170 1045,-151 905,-151"/>
<text text-anchor="middle" x="975" y="-158" font-family="Helvetica,sans-Serif" font-size="10.00">add_model_part_to_python.h</text>
</a>
</g>
</g>
<!-- Node1&#45;&gt;Node14 -->
<g id="edge18" class="edge">
<title>Node1&#45;&gt;Node14</title>
<path fill="none" stroke="midnightblue" d="M1445.73,-220.77C1356.88,-212.63 1193,-196.41 1054,-176 1045.67,-174.78 1036.88,-173.32 1028.3,-171.82"/>
<polygon fill="midnightblue" stroke="midnightblue" points="1028.83,-168.36 1018.37,-170.04 1027.6,-175.25 1028.83,-168.36"/>
</g>
<!-- Node15 -->
<g id="node15" class="node">
<title>Node15</title>
<g id="a_node15"><a xlink:href="../../de/de2/add__io__to__python_8h.html" target="_top" xlink:title=" ">
<polygon fill="none" stroke="black" points="1063,-151 1063,-170 1163,-170 1163,-151 1063,-151"/>
<text text-anchor="middle" x="1113" y="-158" font-family="Helvetica,sans-Serif" font-size="10.00">add_io_to_python.h</text>
</a>
</g>
</g>
<!-- Node1&#45;&gt;Node15 -->
<g id="edge20" class="edge">
<title>Node1&#45;&gt;Node15</title>
<path fill="none" stroke="midnightblue" d="M1445.7,-218.61C1377.21,-209.9 1266.58,-194.62 1172,-176 1166.57,-174.93 1160.88,-173.69 1155.27,-172.39"/>
<polygon fill="midnightblue" stroke="midnightblue" points="1155.88,-168.94 1145.34,-170.02 1154.25,-175.75 1155.88,-168.94"/>
</g>
<!-- Node16 -->
<g id="node16" class="node">
<title>Node16</title>
<g id="a_node16"><a xlink:href="../../da/d14/add__mesh__to__python_8h.html" target="_top" xlink:title=" ">
<polygon fill="none" stroke="black" points="1181,-151 1181,-170 1297,-170 1297,-151 1181,-151"/>
<text text-anchor="middle" x="1239" y="-158" font-family="Helvetica,sans-Serif" font-size="10.00">add_mesh_to_python.h</text>
</a>
</g>
</g>
<!-- Node1&#45;&gt;Node16 -->
<g id="edge22" class="edge">
<title>Node1&#45;&gt;Node16</title>
<path fill="none" stroke="midnightblue" d="M1452.31,-212.48C1402.08,-200.47 1330.77,-183.43 1284.69,-172.42"/>
<polygon fill="midnightblue" stroke="midnightblue" points="1285.23,-168.95 1274.69,-170.03 1283.6,-175.76 1285.23,-168.95"/>
</g>
<!-- Node17 -->
<g id="node17" class="node">
<title>Node17</title>
<g id="a_node17"><a xlink:href="../../dd/d03/add__kernel__to__python_8h.html" target="_top" xlink:title=" ">
<polygon fill="none" stroke="black" points="1315.5,-151 1315.5,-170 1434.5,-170 1434.5,-151 1315.5,-151"/>
<text text-anchor="middle" x="1375" y="-158" font-family="Helvetica,sans-Serif" font-size="10.00">add_kernel_to_python.h</text>
</a>
</g>
</g>
<!-- Node1&#45;&gt;Node17 -->
<g id="edge24" class="edge">
<title>Node1&#45;&gt;Node17</title>
<path fill="none" stroke="midnightblue" d="M1481.49,-212.4C1457.84,-201.09 1424.92,-185.36 1401.97,-174.39"/>
<polygon fill="midnightblue" stroke="midnightblue" points="1403.33,-171.16 1392.8,-170.01 1400.31,-177.48 1403.33,-171.16"/>
</g>
<!-- Node18 -->
<g id="node18" class="node">
<title>Node18</title>
<g id="a_node18"><a xlink:href="../../de/d38/add__kratos__application__to__python_8h.html" target="_top" xlink:title=" ">
<polygon fill="none" stroke="black" points="1453,-145.5 1453,-175.5 1569,-175.5 1569,-145.5 1453,-145.5"/>
<text text-anchor="start" x="1461" y="-163.5" font-family="Helvetica,sans-Serif" font-size="10.00">add_kratos_application</text>
<text text-anchor="middle" x="1511" y="-152.5" font-family="Helvetica,sans-Serif" font-size="10.00">_to_python.h</text>
</a>
</g>
</g>
<!-- Node1&#45;&gt;Node18 -->
<g id="edge26" class="edge">
<title>Node1&#45;&gt;Node18</title>
<path fill="none" stroke="midnightblue" d="M1511,-212.4C1511,-204.64 1511,-194.81 1511,-185.86"/>
<polygon fill="midnightblue" stroke="midnightblue" points="1514.5,-185.58 1511,-175.58 1507.5,-185.58 1514.5,-185.58"/>
</g>
<!-- Node19 -->
<g id="node19" class="node">
<title>Node19</title>
<g id="a_node19"><a xlink:href="../../d6/dda/add__equation__systems__to__python_8h.html" target="_top" xlink:title=" ">
<polygon fill="none" stroke="black" points="1587,-145.5 1587,-175.5 1703,-175.5 1703,-145.5 1587,-145.5"/>
<text text-anchor="start" x="1595" y="-163.5" font-family="Helvetica,sans-Serif" font-size="10.00">add_equation_systems</text>
<text text-anchor="middle" x="1645" y="-152.5" font-family="Helvetica,sans-Serif" font-size="10.00">_to_python.h</text>
</a>
</g>
</g>
<!-- Node1&#45;&gt;Node19 -->
<g id="edge28" class="edge">
<title>Node1&#45;&gt;Node19</title>
<path fill="none" stroke="midnightblue" d="M1540.08,-212.4C1559.65,-202.9 1585.68,-190.28 1606.91,-179.98"/>
<polygon fill="midnightblue" stroke="midnightblue" points="1608.51,-183.09 1615.98,-175.58 1605.46,-176.79 1608.51,-183.09"/>
</g>
<!-- Node20 -->
<g id="node20" class="node">
<title>Node20</title>
<g id="a_node20"><a xlink:href="../../d8/d28/kratos_2python_2add__linear__solvers__to__python_8h.html" target="_top" xlink:title=" ">
<polygon fill="none" stroke="black" points="1721,-145.5 1721,-175.5 1819,-175.5 1819,-145.5 1721,-145.5"/>
<text text-anchor="start" x="1729" y="-163.5" font-family="Helvetica,sans-Serif" font-size="10.00">add_linear_solvers</text>
<text text-anchor="middle" x="1770" y="-152.5" font-family="Helvetica,sans-Serif" font-size="10.00">_to_python.h</text>
</a>
</g>
</g>
<!-- Node1&#45;&gt;Node20 -->
<g id="edge30" class="edge">
<title>Node1&#45;&gt;Node20</title>
<path fill="none" stroke="midnightblue" d="M1566.88,-212.48C1609.37,-201.81 1667.7,-187.17 1710.95,-176.32"/>
<polygon fill="midnightblue" stroke="midnightblue" points="1711.93,-179.68 1720.77,-173.85 1710.22,-172.89 1711.93,-179.68"/>
</g>
<!-- Node21 -->
<g id="node21" class="node">
<title>Node21</title>
<g id="a_node21"><a xlink:href="../../d7/d85/add__process__info__to__python_8h.html" target="_top" xlink:title=" ">
<polygon fill="none" stroke="black" points="1836.5,-145.5 1836.5,-175.5 1943.5,-175.5 1943.5,-145.5 1836.5,-145.5"/>
<text text-anchor="start" x="1844.5" y="-163.5" font-family="Helvetica,sans-Serif" font-size="10.00">add_process_info_to</text>
<text text-anchor="middle" x="1890" y="-152.5" font-family="Helvetica,sans-Serif" font-size="10.00">_python.h</text>
</a>
</g>
</g>
<!-- Node1&#45;&gt;Node21 -->
<g id="edge32" class="edge">
<title>Node1&#45;&gt;Node21</title>
<path fill="none" stroke="midnightblue" d="M1576.2,-217.51C1638.2,-208.64 1734.28,-194.09 1826.25,-176.27"/>
<polygon fill="midnightblue" stroke="midnightblue" points="1827.14,-179.66 1836.28,-174.31 1825.8,-172.79 1827.14,-179.66"/>
</g>
<!-- Node22 -->
<g id="node22" class="node">
<title>Node22</title>
<g id="a_node22"><a xlink:href="../../db/dee/add__constitutive__law__to__python_8h.html" target="_top" xlink:title=" ">
<polygon fill="none" stroke="black" points="2398,-145.5 2398,-175.5 2506,-175.5 2506,-145.5 2398,-145.5"/>
<text text-anchor="start" x="2406" y="-163.5" font-family="Helvetica,sans-Serif" font-size="10.00">add_constitutive_law</text>
<text text-anchor="middle" x="2452" y="-152.5" font-family="Helvetica,sans-Serif" font-size="10.00">_to_python.h</text>
</a>
</g>
</g>
<!-- Node1&#45;&gt;Node22 -->
<g id="edge34" class="edge">
<title>Node1&#45;&gt;Node22</title>
<path fill="none" stroke="midnightblue" d="M1576.21,-226.11C1721.79,-224.51 2084.03,-216.42 2384,-176 2385.28,-175.83 2386.57,-175.64 2387.87,-175.45"/>
<polygon fill="midnightblue" stroke="midnightblue" points="2388.64,-178.87 2397.94,-173.8 2387.51,-171.96 2388.64,-178.87"/>
</g>
<!-- Node23 -->
<g id="node23" class="node">
<title>Node23</title>
<g id="a_node23"><a xlink:href="../../d7/d7b/add__sparse__vector__to__python_8h.html" target="_top" xlink:title=" ">
<polygon fill="none" stroke="black" points="1961.5,-145.5 1961.5,-175.5 2074.5,-175.5 2074.5,-145.5 1961.5,-145.5"/>
<text text-anchor="start" x="1969.5" y="-163.5" font-family="Helvetica,sans-Serif" font-size="10.00">add_sparse_vector_to</text>
<text text-anchor="middle" x="2018" y="-152.5" font-family="Helvetica,sans-Serif" font-size="10.00">_python.h</text>
</a>
</g>
</g>
<!-- Node1&#45;&gt;Node23 -->
<g id="edge37" class="edge">
<title>Node1&#45;&gt;Node23</title>
<path fill="none" stroke="midnightblue" d="M1576.09,-221.23C1660.53,-213.92 1812.56,-199.1 1951.38,-176.17"/>
<polygon fill="midnightblue" stroke="midnightblue" points="1952.06,-179.61 1961.35,-174.51 1950.91,-172.7 1952.06,-179.61"/>
</g>
<!-- Node24 -->
<g id="node24" class="node">
<title>Node24</title>
<g id="a_node24"><a xlink:href="../../d0/db0/pointer__vector__set__python__interface_8h.html" target="_top" xlink:title=" ">
<polygon fill="none" stroke="black" points="2812.5,-145.5 2812.5,-175.5 2913.5,-175.5 2913.5,-145.5 2812.5,-145.5"/>
<text text-anchor="start" x="2820.5" y="-163.5" font-family="Helvetica,sans-Serif" font-size="10.00">pointer_vector_set</text>
<text text-anchor="middle" x="2863" y="-152.5" font-family="Helvetica,sans-Serif" font-size="10.00">_python_interface.h</text>
</a>
</g>
</g>
<!-- Node1&#45;&gt;Node24 -->
<g id="edge39" class="edge">
<title>Node1&#45;&gt;Node24</title>
<path fill="none" stroke="midnightblue" d="M1576.2,-225.66C1800.79,-222.5 2542.27,-209.81 2802.24,-175.85"/>
<polygon fill="midnightblue" stroke="midnightblue" points="2802.96,-179.28 2812.4,-174.47 2802.02,-172.35 2802.96,-179.28"/>
</g>
<!-- Node34 -->
<g id="node34" class="node">
<title>Node34</title>
<g id="a_node34"><a xlink:href="../../d1/dd2/solution__step__variable__indexing__python_8h.html" target="_top" xlink:title=" ">
<polygon fill="none" stroke="black" points="30.5,-145.5 30.5,-175.5 143.5,-175.5 143.5,-145.5 30.5,-145.5"/>
<text text-anchor="start" x="38.5" y="-163.5" font-family="Helvetica,sans-Serif" font-size="10.00">solution_step_variable</text>
<text text-anchor="middle" x="87" y="-152.5" font-family="Helvetica,sans-Serif" font-size="10.00">_indexing_python.h</text>
</a>
</g>
</g>
<!-- Node1&#45;&gt;Node34 -->
<g id="edge50" class="edge">
<title>Node1&#45;&gt;Node34</title>
<path fill="none" stroke="midnightblue" d="M1445.72,-225.65C1213.48,-222.39 427.11,-209.21 153.9,-176.06"/>
<polygon fill="midnightblue" stroke="midnightblue" points="153.97,-172.54 143.61,-174.77 153.1,-179.48 153.97,-172.54"/>
</g>
<!-- Node35 -->
<g id="node35" class="node">
<title>Node35</title>
<g id="a_node35"><a xlink:href="../../d8/d70/add__strategies__to__python_8h.html" target="_top" xlink:title=" ">
<polygon fill="none" stroke="black" points="2524.5,-151 2524.5,-170 2659.5,-170 2659.5,-151 2524.5,-151"/>
<text text-anchor="middle" x="2592" y="-158" font-family="Helvetica,sans-Serif" font-size="10.00">add_strategies_to_python.h</text>
</a>
</g>
</g>
<!-- Node1&#45;&gt;Node35 -->
<g id="edge53" class="edge">
<title>Node1&#45;&gt;Node35</title>
<path fill="none" stroke="midnightblue" d="M1576.15,-226.28C1736.44,-225.08 2162.53,-217.85 2515,-176 2523.83,-174.95 2533.18,-173.49 2542.2,-171.9"/>
<polygon fill="midnightblue" stroke="midnightblue" points="2542.99,-175.31 2552.19,-170.06 2541.73,-168.43 2542.99,-175.31"/>
</g>
<!-- Node36 -->
<g id="node36" class="node">
<title>Node36</title>
<g id="a_node36"><a xlink:href="../../d4/dee/add__utilities__to__python_8h.html" target="_top" xlink:title=" ">
<polygon fill="none" stroke="black" points="2092.5,-151 2092.5,-170 2215.5,-170 2215.5,-151 2092.5,-151"/>
<text text-anchor="middle" x="2154" y="-158" font-family="Helvetica,sans-Serif" font-size="10.00">add_utilities_to_python.h</text>
</a>
</g>
</g>
<!-- Node1&#45;&gt;Node36 -->
<g id="edge56" class="edge">
<title>Node1&#45;&gt;Node36</title>
<path fill="none" stroke="midnightblue" d="M1576.17,-223.23C1682.79,-217.33 1900.97,-202.93 2084,-176 2091.43,-174.91 2099.25,-173.52 2106.87,-172.04"/>
<polygon fill="midnightblue" stroke="midnightblue" points="2107.61,-175.46 2116.73,-170.06 2106.23,-168.6 2107.61,-175.46"/>
</g>
<!-- Node37 -->
<g id="node37" class="node">
<title>Node37</title>
<g id="a_node37"><a xlink:href="../../da/dd1/add__parallel__strategies__to__python_8h.html" target="_top" xlink:title=" ">
<polygon fill="none" stroke="black" points="2678,-145.5 2678,-175.5 2794,-175.5 2794,-145.5 2678,-145.5"/>
<text text-anchor="start" x="2686" y="-163.5" font-family="Helvetica,sans-Serif" font-size="10.00">add_parallel_strategies</text>
<text text-anchor="middle" x="2736" y="-152.5" font-family="Helvetica,sans-Serif" font-size="10.00">_to_python.h</text>
</a>
</g>
</g>
<!-- Node1&#45;&gt;Node37 -->
<g id="edge58" class="edge">
<title>Node1&#45;&gt;Node37</title>
<path fill="none" stroke="midnightblue" d="M1576.29,-225.11C1785.07,-220.44 2435.76,-204.08 2667.58,-176"/>
<polygon fill="midnightblue" stroke="midnightblue" points="2668.15,-179.46 2677.64,-174.74 2667.28,-172.51 2668.15,-179.46"/>
</g>
<!-- Node38 -->
<g id="node38" class="node">
<title>Node38</title>
<g id="a_node38"><a xlink:href="../../df/dee/add__parallel__linear__solvers__to__python_8h.html" target="_top" xlink:title=" ">
<polygon fill="none" stroke="black" points="2234,-145.5 2234,-175.5 2342,-175.5 2342,-145.5 2234,-145.5"/>
<text text-anchor="start" x="2242" y="-163.5" font-family="Helvetica,sans-Serif" font-size="10.00">add_parallel_linear</text>
<text text-anchor="middle" x="2288" y="-152.5" font-family="Helvetica,sans-Serif" font-size="10.00">_solvers_to_python.h</text>
</a>
</g>
</g>
<!-- Node1&#45;&gt;Node38 -->
<g id="edge61" class="edge">
<title>Node1&#45;&gt;Node38</title>
<path fill="none" stroke="midnightblue" d="M1576.35,-225.27C1700.71,-222.2 1980.03,-211.76 2223.69,-176.04"/>
<polygon fill="midnightblue" stroke="midnightblue" points="2224.43,-179.47 2233.81,-174.54 2223.4,-172.54 2224.43,-179.47"/>
</g>
<!-- Node4 -->
<g id="node4" class="node">
<title>Node4</title>
<g id="a_node4"><a xlink:title=" ">
<polygon fill="none" stroke="#bfbfbf" points="1578.5,-11.5 1578.5,-30.5 1637.5,-30.5 1637.5,-11.5 1578.5,-11.5"/>
<text text-anchor="middle" x="1608" y="-18.5" font-family="Helvetica,sans-Serif" font-size="10.00">stdexcept</text>
</a>
</g>
</g>
<!-- Node3&#45;&gt;Node4 -->
<g id="edge3" class="edge">
<title>Node3&#45;&gt;Node4</title>
<path fill="none" stroke="midnightblue" d="M1640.46,-83.86C1634.75,-72.97 1624.79,-53.98 1617.4,-39.91"/>
<polygon fill="midnightblue" stroke="midnightblue" points="1620.32,-37.94 1612.57,-30.72 1614.12,-41.2 1620.32,-37.94"/>
</g>
<!-- Node5 -->
<g id="node5" class="node">
<title>Node5</title>
<g id="a_node5"><a xlink:title=" ">
<polygon fill="none" stroke="#bfbfbf" points="1656,-11.5 1656,-30.5 1708,-30.5 1708,-11.5 1656,-11.5"/>
<text text-anchor="middle" x="1682" y="-18.5" font-family="Helvetica,sans-Serif" font-size="10.00">sstream</text>
</a>
</g>
</g>
<!-- Node3&#45;&gt;Node5 -->
<g id="edge4" class="edge">
<title>Node3&#45;&gt;Node5</title>
<path fill="none" stroke="midnightblue" d="M1649.54,-83.86C1655.25,-72.97 1665.21,-53.98 1672.6,-39.91"/>
<polygon fill="midnightblue" stroke="midnightblue" points="1675.88,-41.2 1677.43,-30.72 1669.68,-37.94 1675.88,-41.2"/>
</g>
<!-- Node6 -->
<g id="node6" class="node">
<title>Node6</title>
<g id="a_node6"><a xlink:title=" ">
<polygon fill="none" stroke="#bfbfbf" points="2400.5,-11.5 2400.5,-30.5 2503.5,-30.5 2503.5,-11.5 2400.5,-11.5"/>
<text text-anchor="middle" x="2452" y="-18.5" font-family="Helvetica,sans-Serif" font-size="10.00">boost/smart_ptr.hpp</text>
</a>
</g>
</g>
<!-- Node3&#45;&gt;Node6 -->
<g id="edge5" class="edge">
<title>Node3&#45;&gt;Node6</title>
<path fill="none" stroke="midnightblue" d="M1689.54,-88.61C1825.2,-76.76 2233.57,-41.08 2390.05,-27.41"/>
<polygon fill="midnightblue" stroke="midnightblue" points="2390.78,-30.86 2400.44,-26.5 2390.17,-23.89 2390.78,-30.86"/>
</g>
<!-- Node7 -->
<g id="node7" class="node">
<title>Node7</title>
<g id="a_node7"><a xlink:title=" ">
<polygon fill="none" stroke="#bfbfbf" points="1726.5,-11.5 1726.5,-30.5 1857.5,-30.5 1857.5,-11.5 1726.5,-11.5"/>
<text text-anchor="middle" x="1792" y="-18.5" font-family="Helvetica,sans-Serif" font-size="10.00">boost/current_function.hpp</text>
</a>
</g>
</g>
<!-- Node3&#45;&gt;Node7 -->
<g id="edge6" class="edge">
<title>Node3&#45;&gt;Node7</title>
<path fill="none" stroke="midnightblue" d="M1662.73,-84C1688.12,-71.82 1735.03,-49.32 1764.82,-35.04"/>
<polygon fill="midnightblue" stroke="midnightblue" points="1766.7,-38.01 1774.21,-30.53 1763.68,-31.7 1766.7,-38.01"/>
</g>
<!-- Node8 -->
<g id="node8" class="node">
<title>Node8</title>
<g id="a_node8"><a xlink:href="../../de/d17/kratos__config_8h.html" target="_top" xlink:title=" ">
<polygon fill="none" stroke="black" points="1439.5,-11.5 1439.5,-30.5 1560.5,-30.5 1560.5,-11.5 1439.5,-11.5"/>
<text text-anchor="middle" x="1500" y="-18.5" font-family="Helvetica,sans-Serif" font-size="10.00">includes/kratos_config.h</text>
</a>
</g>
</g>
<!-- Node3&#45;&gt;Node8 -->
<g id="edge7" class="edge">
<title>Node3&#45;&gt;Node8</title>
<path fill="none" stroke="midnightblue" d="M1627.51,-84C1602.47,-71.82 1556.19,-49.32 1526.81,-35.04"/>
<polygon fill="midnightblue" stroke="midnightblue" points="1528.08,-31.76 1517.55,-30.53 1525.02,-38.05 1528.08,-31.76"/>
</g>
<!-- Node9&#45;&gt;Node3 -->
<g id="edge9" class="edge">
<title>Node9&#45;&gt;Node3</title>
<path fill="none" stroke="midnightblue" d="M255.4,-150.96C266.1,-148.63 277.98,-146.37 289,-145 547.32,-112.89 1370.14,-98.59 1590.35,-95.27"/>
<polygon fill="midnightblue" stroke="midnightblue" points="1590.43,-98.77 1600.38,-95.12 1590.33,-91.77 1590.43,-98.77"/>
</g>
<!-- Node10&#45;&gt;Node3 -->
<g id="edge11" class="edge">
<title>Node10&#45;&gt;Node3</title>
<path fill="none" stroke="midnightblue" d="M392.91,-150.99C403.77,-148.66 415.83,-146.4 427,-145 656.77,-116.3 1383.64,-99.77 1589.93,-95.57"/>
<polygon fill="midnightblue" stroke="midnightblue" points="1590.28,-99.06 1600.21,-95.36 1590.14,-92.06 1590.28,-99.06"/>
</g>
<!-- Node11&#45;&gt;Node3 -->
<g id="edge13" class="edge">
<title>Node11&#45;&gt;Node3</title>
<path fill="none" stroke="midnightblue" d="M546.85,-150.93C559.07,-148.65 572.53,-146.43 585,-145 967.88,-100.94 1432.83,-95.17 1590.05,-94.53"/>
<polygon fill="midnightblue" stroke="midnightblue" points="1590.41,-98.03 1600.4,-94.49 1590.38,-91.03 1590.41,-98.03"/>
</g>
<!-- Node12&#45;&gt;Node3 -->
<g id="edge15" class="edge">
<title>Node12&#45;&gt;Node3</title>
<path fill="none" stroke="midnightblue" d="M702.81,-150.98C714.72,-148.71 727.85,-146.48 740,-145 1060.42,-106.06 1448.37,-97.1 1589.93,-95.08"/>
<polygon fill="midnightblue" stroke="midnightblue" points="1590.14,-98.57 1600.09,-94.94 1590.04,-91.58 1590.14,-98.57"/>
</g>
<!-- Node13&#45;&gt;Node3 -->
<g id="edge17" class="edge">
<title>Node13&#45;&gt;Node3</title>
<path fill="none" stroke="midnightblue" d="M858.75,-151C870.7,-148.76 883.84,-146.54 896,-145 1154.45,-112.38 1465.92,-99.91 1590.06,-96.01"/>
<polygon fill="midnightblue" stroke="midnightblue" points="1590.19,-99.51 1600.08,-95.7 1589.98,-92.51 1590.19,-99.51"/>
</g>
<!-- Node14&#45;&gt;Node3 -->
<g id="edge19" class="edge">
<title>Node14&#45;&gt;Node3</title>
<path fill="none" stroke="midnightblue" d="M1017.11,-151C1029,-148.8 1041.98,-146.61 1054,-145 1250.56,-118.63 1485.85,-103.35 1590.36,-97.41"/>
<polygon fill="midnightblue" stroke="midnightblue" points="1590.57,-100.9 1600.36,-96.84 1590.18,-93.91 1590.57,-100.9"/>
</g>
<!-- Node15&#45;&gt;Node3 -->
<g id="edge21" class="edge">
<title>Node15&#45;&gt;Node3</title>
<path fill="none" stroke="midnightblue" d="M1144.37,-150.96C1153.25,-148.77 1162.96,-146.59 1172,-145 1322.23,-118.64 1501.88,-104.03 1590.31,-97.94"/>
<polygon fill="midnightblue" stroke="midnightblue" points="1590.64,-101.42 1600.38,-97.25 1590.16,-94.44 1590.64,-101.42"/>
</g>
<!-- Node16&#45;&gt;Node3 -->
<g id="edge23" class="edge">
<title>Node16&#45;&gt;Node3</title>
<path fill="none" stroke="midnightblue" d="M1276.48,-150.94C1286.08,-148.87 1296.4,-146.75 1306,-145 1405.94,-126.76 1523.36,-110.39 1590.49,-101.5"/>
<polygon fill="midnightblue" stroke="midnightblue" points="1590.97,-104.97 1600.42,-100.2 1590.05,-98.03 1590.97,-104.97"/>
</g>
<!-- Node17&#45;&gt;Node3 -->
<g id="edge25" class="edge">
<title>Node17&#45;&gt;Node3</title>
<path fill="none" stroke="midnightblue" d="M1410.58,-150.94C1459.14,-139.24 1546.22,-118.28 1599.49,-105.46"/>
<polygon fill="midnightblue" stroke="midnightblue" points="1600.44,-108.83 1609.35,-103.08 1598.8,-102.02 1600.44,-108.83"/>
</g>
<!-- Node18&#45;&gt;Node3 -->
<g id="edge27" class="edge">
<title>Node18&#45;&gt;Node3</title>
<path fill="none" stroke="midnightblue" d="M1540.08,-145.4C1563.38,-134.09 1595.81,-118.36 1618.43,-107.39"/>
<polygon fill="midnightblue" stroke="midnightblue" points="1619.99,-110.52 1627.46,-103.01 1616.94,-104.22 1619.99,-110.52"/>
</g>
<!-- Node19&#45;&gt;Node3 -->
<g id="edge29" class="edge">
<title>Node19&#45;&gt;Node3</title>
<path fill="none" stroke="midnightblue" d="M1645,-145.4C1645,-136.06 1645,-123.71 1645,-113.52"/>
<polygon fill="midnightblue" stroke="midnightblue" points="1648.5,-113.19 1645,-103.19 1641.5,-113.19 1648.5,-113.19"/>
</g>
<!-- Node20&#45;&gt;Node3 -->
<g id="edge31" class="edge">
<title>Node20&#45;&gt;Node3</title>
<path fill="none" stroke="midnightblue" d="M1742.88,-145.4C1721.33,-134.19 1691.43,-118.64 1670.36,-107.69"/>
<polygon fill="midnightblue" stroke="midnightblue" points="1671.85,-104.52 1661.36,-103.01 1668.62,-110.73 1671.85,-104.52"/>
</g>
<!-- Node21&#45;&gt;Node3 -->
<g id="edge33" class="edge">
<title>Node21&#45;&gt;Node3</title>
<path fill="none" stroke="midnightblue" d="M1837.14,-145.48C1792.18,-133.55 1728.47,-116.64 1686.94,-105.63"/>
<polygon fill="midnightblue" stroke="midnightblue" points="1687.71,-102.21 1677.15,-103.03 1685.91,-108.98 1687.71,-102.21"/>
</g>
<!-- Node22&#45;&gt;Node3 -->
<g id="edge36" class="edge">
<title>Node22&#45;&gt;Node3</title>
<path fill="none" stroke="midnightblue" d="M2397.93,-147.25C2393.23,-146.4 2388.54,-145.64 2384,-145 2130.01,-109.42 1823.25,-98.63 1700.09,-95.6"/>
<polygon fill="midnightblue" stroke="midnightblue" points="1699.88,-92.09 1689.79,-95.35 1699.71,-99.09 1699.88,-92.09"/>
</g>
<!-- Node22&#45;&gt;Node6 -->
<g id="edge35" class="edge">
<title>Node22&#45;&gt;Node6</title>
<path fill="none" stroke="midnightblue" d="M2452,-145.3C2452,-120.34 2452,-68.58 2452,-40.72"/>
<polygon fill="midnightblue" stroke="midnightblue" points="2455.5,-40.7 2452,-30.7 2448.5,-40.7 2455.5,-40.7"/>
</g>
<!-- Node23&#45;&gt;Node3 -->
<g id="edge38" class="edge">
<title>Node23&#45;&gt;Node3</title>
<path fill="none" stroke="midnightblue" d="M1961.32,-146.66C1958.51,-146.08 1955.72,-145.53 1953,-145 1864.56,-127.9 1761.09,-111.71 1699.42,-102.46"/>
<polygon fill="midnightblue" stroke="midnightblue" points="1699.92,-99 1689.52,-100.98 1698.89,-105.92 1699.92,-99"/>
</g>
<!-- Node24&#45;&gt;Node3 -->
<g id="edge40" class="edge">
<title>Node24&#45;&gt;Node3</title>
<path fill="none" stroke="midnightblue" d="M2812.39,-146.54C2809.23,-145.96 2806.08,-145.43 2803,-145 2585.96,-114.34 1899.72,-99.29 1700.02,-95.49"/>
<polygon fill="midnightblue" stroke="midnightblue" points="1699.84,-91.98 1689.77,-95.29 1699.71,-98.98 1699.84,-91.98"/>
</g>
<!-- Node25 -->
<g id="node25" class="node">
<title>Node25</title>
<g id="a_node25"><a xlink:href="../../dd/dc3/pointer__indexing__python__interface_8h.html" target="_top" xlink:title=" ">
<polygon fill="none" stroke="black" points="2919,-78.5 2919,-108.5 3037,-108.5 3037,-78.5 2919,-78.5"/>
<text text-anchor="start" x="2927" y="-96.5" font-family="Helvetica,sans-Serif" font-size="10.00">python/pointer_indexing</text>
<text text-anchor="middle" x="2978" y="-85.5" font-family="Helvetica,sans-Serif" font-size="10.00">_python_interface.h</text>
</a>
</g>
</g>
<!-- Node24&#45;&gt;Node25 -->
<g id="edge41" class="edge">
<title>Node24&#45;&gt;Node25</title>
<path fill="none" stroke="midnightblue" d="M2887.95,-145.4C2904.38,-136.11 2926.09,-123.84 2944.08,-113.67"/>
<polygon fill="midnightblue" stroke="midnightblue" points="2946.11,-116.54 2953.1,-108.58 2942.67,-110.45 2946.11,-116.54"/>
</g>
<!-- Node26 -->
<g id="node26" class="node">
<title>Node26</title>
<g id="a_node26"><a xlink:title=" ">
<polygon fill="none" stroke="#bfbfbf" points="2634,-11.5 2634,-30.5 2750,-30.5 2750,-11.5 2634,-11.5"/>
<text text-anchor="middle" x="2692" y="-18.5" font-family="Helvetica,sans-Serif" font-size="10.00">boost/python/class.hpp</text>
</a>
</g>
</g>
<!-- Node25&#45;&gt;Node26 -->
<g id="edge42" class="edge">
<title>Node25&#45;&gt;Node26</title>
<path fill="none" stroke="midnightblue" d="M2918.73,-79.9C2874.52,-70.24 2812.76,-56.21 2759,-42 2749.24,-39.42 2738.76,-36.41 2729.05,-33.52"/>
<polygon fill="midnightblue" stroke="midnightblue" points="2729.86,-30.1 2719.27,-30.57 2727.84,-36.81 2729.86,-30.1"/>
</g>
<!-- Node27 -->
<g id="node27" class="node">
<title>Node27</title>
<g id="a_node27"><a xlink:title=" ">
<polygon fill="none" stroke="#bfbfbf" points="2768,-11.5 2768,-30.5 2906,-30.5 2906,-11.5 2768,-11.5"/>
<text text-anchor="middle" x="2837" y="-18.5" font-family="Helvetica,sans-Serif" font-size="10.00">boost/python/def_visitor.hpp</text>
</a>
</g>
</g>
<!-- Node25&#45;&gt;Node27 -->
<g id="edge43" class="edge">
<title>Node25&#45;&gt;Node27</title>
<path fill="none" stroke="midnightblue" d="M2949.81,-78.4C2924.55,-65.77 2887.79,-47.4 2863.17,-35.09"/>
<polygon fill="midnightblue" stroke="midnightblue" points="2864.58,-31.88 2854.07,-30.53 2861.45,-38.14 2864.58,-31.88"/>
</g>
<!-- Node28 -->
<g id="node28" class="node">
<title>Node28</title>
<g id="a_node28"><a xlink:title=" ">
<polygon fill="none" stroke="#bfbfbf" points="2924.5,-6 2924.5,-36 3031.5,-36 3031.5,-6 2924.5,-6"/>
<text text-anchor="start" x="2932.5" y="-24" font-family="Helvetica,sans-Serif" font-size="10.00">boost/python/register</text>
<text text-anchor="middle" x="2978" y="-13" font-family="Helvetica,sans-Serif" font-size="10.00">_ptr_to_python.hpp</text>
</a>
</g>
</g>
<!-- Node25&#45;&gt;Node28 -->
<g id="edge44" class="edge">
<title>Node25&#45;&gt;Node28</title>
<path fill="none" stroke="midnightblue" d="M2978,-78.23C2978,-69.16 2978,-57.16 2978,-46.58"/>
<polygon fill="midnightblue" stroke="midnightblue" points="2981.5,-46.25 2978,-36.25 2974.5,-46.25 2981.5,-46.25"/>
</g>
<!-- Node29 -->
<g id="node29" class="node">
<title>Node29</title>
<g id="a_node29"><a xlink:title=" ">
<polygon fill="none" stroke="#bfbfbf" points="3049.5,-0.5 3049.5,-41.5 3168.5,-41.5 3168.5,-0.5 3049.5,-0.5"/>
<text text-anchor="start" x="3057.5" y="-29.5" font-family="Helvetica,sans-Serif" font-size="10.00">boost/python/suite</text>
<text text-anchor="start" x="3057.5" y="-18.5" font-family="Helvetica,sans-Serif" font-size="10.00">/indexing/detail/indexing</text>
<text text-anchor="middle" x="3109" y="-7.5" font-family="Helvetica,sans-Serif" font-size="10.00">_suite_detail.hpp</text>
</a>
</g>
</g>
<!-- Node25&#45;&gt;Node29 -->
<g id="edge45" class="edge">
<title>Node25&#45;&gt;Node29</title>
<path fill="none" stroke="midnightblue" d="M3004.19,-78.4C3021.16,-69.27 3043.71,-57.14 3063.54,-46.47"/>
<polygon fill="midnightblue" stroke="midnightblue" points="3065.28,-49.5 3072.43,-41.68 3061.97,-43.34 3065.28,-49.5"/>
</g>
<!-- Node30 -->
<g id="node30" class="node">
<title>Node30</title>
<g id="a_node30"><a xlink:title=" ">
<polygon fill="none" stroke="#bfbfbf" points="3186.5,-6 3186.5,-36 3303.5,-36 3303.5,-6 3186.5,-6"/>
<text text-anchor="start" x="3194.5" y="-24" font-family="Helvetica,sans-Serif" font-size="10.00">boost/python/return</text>
<text text-anchor="middle" x="3245" y="-13" font-family="Helvetica,sans-Serif" font-size="10.00">_internal_reference.hpp</text>
</a>
</g>
</g>
<!-- Node25&#45;&gt;Node30 -->
<g id="edge46" class="edge">
<title>Node25&#45;&gt;Node30</title>
<path fill="none" stroke="midnightblue" d="M3036.37,-78.46C3076.35,-68.67 3130.53,-55.07 3178,-42 3181.61,-41.01 3185.31,-39.96 3189.05,-38.9"/>
<polygon fill="midnightblue" stroke="midnightblue" points="3190.31,-42.17 3198.94,-36.03 3188.36,-35.45 3190.31,-42.17"/>
</g>
<!-- Node31 -->
<g id="node31" class="node">
<title>Node31</title>
<g id="a_node31"><a xlink:title=" ">
<polygon fill="none" stroke="#bfbfbf" points="3321.5,-11.5 3321.5,-30.5 3444.5,-30.5 3444.5,-11.5 3321.5,-11.5"/>
<text text-anchor="middle" x="3383" y="-18.5" font-family="Helvetica,sans-Serif" font-size="10.00">boost/python/iterator.hpp</text>
</a>
</g>
</g>
<!-- Node25&#45;&gt;Node31 -->
<g id="edge47" class="edge">
<title>Node25&#45;&gt;Node31</title>
<path fill="none" stroke="midnightblue" d="M3037.12,-85.92C3104.38,-77.9 3217.3,-62.79 3313,-42 3323.95,-39.62 3335.71,-36.49 3346.41,-33.41"/>
<polygon fill="midnightblue" stroke="midnightblue" points="3347.68,-36.69 3356.28,-30.51 3345.7,-29.98 3347.68,-36.69"/>
</g>
<!-- Node32 -->
<g id="node32" class="node">
<title>Node32</title>
<g id="a_node32"><a xlink:title=" ">
<polygon fill="none" stroke="#bfbfbf" points="3462.5,-11.5 3462.5,-30.5 3551.5,-30.5 3551.5,-11.5 3462.5,-11.5"/>
<text text-anchor="middle" x="3507" y="-18.5" font-family="Helvetica,sans-Serif" font-size="10.00">boost/mpl/or.hpp</text>
</a>
</g>
</g>
<!-- Node25&#45;&gt;Node32 -->
<g id="edge48" class="edge">
<title>Node25&#45;&gt;Node32</title>
<path fill="none" stroke="midnightblue" d="M3037.07,-91.06C3127.85,-87.77 3306.65,-77.01 3454,-42 3462.07,-40.08 3470.58,-37.26 3478.36,-34.33"/>
<polygon fill="midnightblue" stroke="midnightblue" points="3479.72,-37.55 3487.74,-30.63 3477.15,-31.04 3479.72,-37.55"/>
</g>
<!-- Node33 -->
<g id="node33" class="node">
<title>Node33</title>
<g id="a_node33"><a xlink:title=" ">
<polygon fill="none" stroke="#bfbfbf" points="2522,-11.5 2522,-30.5 2616,-30.5 2616,-11.5 2522,-11.5"/>
<text text-anchor="middle" x="2569" y="-18.5" font-family="Helvetica,sans-Serif" font-size="10.00">boost/mpl/not.hpp</text>
</a>
</g>
</g>
<!-- Node25&#45;&gt;Node33 -->
<g id="edge49" class="edge">
<title>Node25&#45;&gt;Node33</title>
<path fill="none" stroke="midnightblue" d="M2918.91,-87.7C2848.23,-81.13 2726.71,-67.17 2625,-42 2616.52,-39.9 2607.53,-37.01 2599.29,-34.07"/>
<polygon fill="midnightblue" stroke="midnightblue" points="2600.3,-30.71 2589.7,-30.52 2597.86,-37.27 2600.3,-30.71"/>
</g>
<!-- Node34&#45;&gt;Node2 -->
<g id="edge51" class="edge">
<title>Node34&#45;&gt;Node2</title>
<path fill="none" stroke="midnightblue" d="M77.89,-145.4C71.53,-135.56 63.01,-122.38 56.24,-111.89"/>
<polygon fill="midnightblue" stroke="midnightblue" points="58.98,-109.69 50.62,-103.19 53.11,-113.49 58.98,-109.69"/>
</g>
<!-- Node34&#45;&gt;Node3 -->
<g id="edge52" class="edge">
<title>Node34&#45;&gt;Node3</title>
<path fill="none" stroke="midnightblue" d="M143.61,-146.22C146.44,-145.76 149.25,-145.35 152,-145 438.32,-108.54 1355.38,-97.31 1589.95,-94.99"/>
<polygon fill="midnightblue" stroke="midnightblue" points="1590.31,-98.49 1600.27,-94.89 1590.24,-91.49 1590.31,-98.49"/>
</g>
<!-- Node35&#45;&gt;Node3 -->
<g id="edge55" class="edge">
<title>Node35&#45;&gt;Node3</title>
<path fill="none" stroke="midnightblue" d="M2552.19,-151C2540.28,-148.73 2527.15,-146.49 2515,-145 2208.38,-107.39 1837.43,-97.65 1699.82,-95.25"/>
<polygon fill="midnightblue" stroke="midnightblue" points="1699.6,-91.74 1689.55,-95.07 1699.48,-98.74 1699.6,-91.74"/>
</g>
<!-- Node35&#45;&gt;Node6 -->
<g id="edge54" class="edge">
<title>Node35&#45;&gt;Node6</title>
<path fill="none" stroke="midnightblue" d="M2583.24,-150.9C2560.26,-128.33 2497.96,-67.13 2468.22,-37.93"/>
<polygon fill="midnightblue" stroke="midnightblue" points="2470.34,-35.11 2460.75,-30.6 2465.44,-40.1 2470.34,-35.11"/>
</g>
<!-- Node36&#45;&gt;Node3 -->
<g id="edge57" class="edge">
<title>Node36&#45;&gt;Node3</title>
<path fill="none" stroke="midnightblue" d="M2115.97,-150.98C2105.63,-148.84 2094.42,-146.67 2084,-145 1946.39,-122.88 1783.01,-106.72 1699.73,-99.2"/>
<polygon fill="midnightblue" stroke="midnightblue" points="1700.01,-95.72 1689.74,-98.31 1699.38,-102.69 1700.01,-95.72"/>
</g>
<!-- Node37&#45;&gt;Node3 -->
<g id="edge60" class="edge">
<title>Node37&#45;&gt;Node3</title>
<path fill="none" stroke="midnightblue" d="M2678,-146.34C2674.96,-145.84 2671.95,-145.39 2669,-145 2301.14,-96.46 1853.38,-93.49 1699.77,-94.06"/>
<polygon fill="midnightblue" stroke="midnightblue" points="1699.63,-90.56 1689.65,-94.1 1699.66,-97.56 1699.63,-90.56"/>
</g>
<!-- Node37&#45;&gt;Node6 -->
<g id="edge59" class="edge">
<title>Node37&#45;&gt;Node6</title>
<path fill="none" stroke="midnightblue" d="M2706.94,-145.43C2651.71,-118.69 2532.33,-60.89 2478.85,-35"/>
<polygon fill="midnightblue" stroke="midnightblue" points="2480.19,-31.76 2469.67,-30.55 2477.14,-38.06 2480.19,-31.76"/>
</g>
<!-- Node38&#45;&gt;Node3 -->
<g id="edge62" class="edge">
<title>Node38&#45;&gt;Node3</title>
<path fill="none" stroke="midnightblue" d="M2233.8,-146.52C2230.83,-145.97 2227.88,-145.45 2225,-145 2033.4,-114.76 1803.12,-101.48 1699.83,-96.72"/>
<polygon fill="midnightblue" stroke="midnightblue" points="1699.79,-93.22 1689.64,-96.26 1699.47,-100.21 1699.79,-93.22"/>
</g>
</g>
</svg>
        <g id="navigator" transform="translate(0 0)" fill="#404254">
                <rect fill="#f2f5e9" fill-opacity="0.5" stroke="#606060" stroke-width=".5" x="0" y="0" width="60" height="60"/>
                <use id="zoomplus" xlink:href="#zoomPlus" x="17" y="9" onmousedown="handleZoom(evt,'in')"/>
                <use id="zoomminus" xlink:href="#zoomMin" x="42" y="9" onmousedown="handleZoom(evt,'out')"/>
                <use id="reset" xlink:href="#resetDef" x="30" y="36" onmousedown="handleReset()"/>
                <g id="arrowUp" xlink:href="#dirArrow" transform="translate(30 24)" onmousedown="handlePan(0,-1)">
                  <use xlink:href="#rim" fill="#404040">
                        <set attributeName="fill" to="#808080" begin="arrowUp.mouseover" end="arrowUp.mouseout"/>
                  </use>
                  <path fill="none" stroke="white" stroke-width="1.5" d="M0,-3.0v7 M-2.5,-0.5L0,-3.0L2.5,-0.5"/>
                </g>
                <g id="arrowRight" xlink:href="#dirArrow" transform="rotate(90) translate(36 -43)" onmousedown="handlePan(1,0)">
                  <use xlink:href="#rim" fill="#404040">
                        <set attributeName="fill" to="#808080" begin="arrowRight.mouseover" end="arrowRight.mouseout"/>
                  </use>
                  <path fill="none" stroke="white" stroke-width="1.5" d="M0,-3.0v7 M-2.5,-0.5L0,-3.0L2.5,-0.5"/>
                </g>
                <g id="arrowDown" xlink:href="#dirArrow" transform="rotate(180) translate(-30 -48)" onmousedown="handlePan(0,1)">
                  <use xlink:href="#rim" fill="#404040">
                        <set attributeName="fill" to="#808080" begin="arrowDown.mouseover" end="arrowDown.mouseout"/>
                  </use>
                  <path fill="none" stroke="white" stroke-width="1.5" d="M0,-3.0v7 M-2.5,-0.5L0,-3.0L2.5,-0.5"/>
                </g>
                <g id="arrowLeft" xlink:href="#dirArrow" transform="rotate(270) translate(-36 17)" onmousedown="handlePan(-1,0)">
                  <use xlink:href="#rim" fill="#404040">
                        <set attributeName="fill" to="#808080" begin="arrowLeft.mouseover" end="arrowLeft.mouseout"/>
                  </use>
                  <path fill="none" stroke="white" stroke-width="1.5" d="M0,-3.0v7 M-2.5,-0.5L0,-3.0L2.5,-0.5"/>
                </g>
        </g>
        <svg viewBox="0 0 15 15" width="100%" height="30px" preserveAspectRatio="xMaxYMin meet">
         <g id="arrow_out" transform="scale(0.3 0.3)">
          <a xlink:href="kratos__python_8cpp__incl_org.svg" target="_base">
           <rect id="button" ry="5" rx="5" y="6" x="6" height="38" width="38"
                fill="#f2f5e9" fill-opacity="0.5" stroke="#606060" stroke-width="1.0"/>
           <path id="arrow"
             d="M 11.500037,31.436501 C 11.940474,20.09759 22.043105,11.32322 32.158766,21.979434 L 37.068811,17.246167 C 37.068811,17.246167 37.088388,32 37.088388,32 L 22.160133,31.978069 C 22.160133,31.978069 26.997745,27.140456 26.997745,27.140456 C 18.528582,18.264221 13.291696,25.230495 11.500037,31.436501 z"
             style="fill:#404040;"/>
          </a>
         </g>
        </svg>
</svg>
