<?xml version="1.0" encoding="UTF-8" standalone="no"?>
<!DOCTYPE svg PUBLIC "-//W3C//DTD SVG 1.1//EN"
 "http://www.w3.org/Graphics/SVG/1.1/DTD/svg11.dtd">
<!-- Generated by graphviz version 2.48.0 (20210719.0153)
 -->
<!-- Title: /github/workspace/kratos/containers/fix_data_value_container.cpp Pages: 1 -->
<svg width="897pt" height="531pt"
 viewBox="0.00 0.00 896.50 531.00" xmlns="http://www.w3.org/2000/svg" xmlns:xlink="http://www.w3.org/1999/xlink">
<g id="graph0" class="graph" transform="scale(1 1) rotate(0) translate(4 527)">
<title>/github/workspace/kratos/containers/fix_data_value_container.cpp</title>
<!-- Node1 -->
<g id="node1" class="node">
<title>Node1</title>
<g id="a_node1"><a xlink:title=" ">
<polygon fill="#bfbfbf" stroke="black" points="82,-481.5 82,-522.5 211,-522.5 211,-481.5 82,-481.5"/>
<text text-anchor="start" x="90" y="-510.5" font-family="Helvetica,sans-Serif" font-size="10.00">/github/workspace/kratos</text>
<text text-anchor="start" x="90" y="-499.5" font-family="Helvetica,sans-Serif" font-size="10.00">/containers/fix_data_value</text>
<text text-anchor="middle" x="146.5" y="-488.5" font-family="Helvetica,sans-Serif" font-size="10.00">_container.cpp</text>
</a>
</g>
</g>
<!-- Node2 -->
<g id="node2" class="node">
<title>Node2</title>
<g id="a_node2"><a xlink:href="../../df/d67/define_8h.html" target="_top" xlink:title=" ">
<polygon fill="none" stroke="black" points="155,-56.5 155,-75.5 244,-75.5 244,-56.5 155,-56.5"/>
<text text-anchor="middle" x="199.5" y="-63.5" font-family="Helvetica,sans-Serif" font-size="10.00">includes/define.h</text>
</a>
</g>
</g>
<!-- Node1&#45;&gt;Node2 -->
<g id="edge1" class="edge">
<title>Node1&#45;&gt;Node2</title>
<path fill="none" stroke="midnightblue" d="M111.42,-481.44C76.63,-459.16 28.5,-419.26 28.5,-369 28.5,-369 28.5,-369 28.5,-177 28.5,-120.74 94.78,-91.9 144.81,-78.14"/>
<polygon fill="midnightblue" stroke="midnightblue" points="145.78,-81.5 154.57,-75.58 144.01,-74.73 145.78,-81.5"/>
</g>
<!-- Node8 -->
<g id="node8" class="node">
<title>Node8</title>
<g id="a_node8"><a xlink:href="../../d3/d16/fix__data__value__container_8h.html" target="_top" xlink:title=" ">
<polygon fill="none" stroke="black" points="240.5,-414.5 240.5,-444.5 338.5,-444.5 338.5,-414.5 240.5,-414.5"/>
<text text-anchor="start" x="248.5" y="-432.5" font-family="Helvetica,sans-Serif" font-size="10.00">containers/fix_data</text>
<text text-anchor="middle" x="289.5" y="-421.5" font-family="Helvetica,sans-Serif" font-size="10.00">_value_container.h</text>
</a>
</g>
</g>
<!-- Node1&#45;&gt;Node8 -->
<g id="edge7" class="edge">
<title>Node1&#45;&gt;Node8</title>
<path fill="none" stroke="midnightblue" d="M186.33,-481.36C206.74,-471.3 231.45,-459.12 251.58,-449.2"/>
<polygon fill="midnightblue" stroke="midnightblue" points="253.34,-452.23 260.76,-444.67 250.24,-445.95 253.34,-452.23"/>
</g>
<!-- Node3 -->
<g id="node3" class="node">
<title>Node3</title>
<g id="a_node3"><a xlink:title=" ">
<polygon fill="none" stroke="#bfbfbf" points="0,-0.5 0,-19.5 59,-19.5 59,-0.5 0,-0.5"/>
<text text-anchor="middle" x="29.5" y="-7.5" font-family="Helvetica,sans-Serif" font-size="10.00">stdexcept</text>
</a>
</g>
</g>
<!-- Node2&#45;&gt;Node3 -->
<g id="edge2" class="edge">
<title>Node2&#45;&gt;Node3</title>
<path fill="none" stroke="midnightblue" d="M172.56,-56.44C143.84,-47.32 98.17,-32.81 66.18,-22.65"/>
<polygon fill="midnightblue" stroke="midnightblue" points="66.9,-19.21 56.31,-19.52 64.78,-25.88 66.9,-19.21"/>
</g>
<!-- Node4 -->
<g id="node4" class="node">
<title>Node4</title>
<g id="a_node4"><a xlink:title=" ">
<polygon fill="none" stroke="#bfbfbf" points="77.5,-0.5 77.5,-19.5 129.5,-19.5 129.5,-0.5 77.5,-0.5"/>
<text text-anchor="middle" x="103.5" y="-7.5" font-family="Helvetica,sans-Serif" font-size="10.00">sstream</text>
</a>
</g>
</g>
<!-- Node2&#45;&gt;Node4 -->
<g id="edge3" class="edge">
<title>Node2&#45;&gt;Node4</title>
<path fill="none" stroke="midnightblue" d="M184.08,-56.32C168.96,-47.82 145.68,-34.73 128.03,-24.8"/>
<polygon fill="midnightblue" stroke="midnightblue" points="129.32,-21.51 118.89,-19.65 125.89,-27.61 129.32,-21.51"/>
</g>
<!-- Node5 -->
<g id="node5" class="node">
<title>Node5</title>
<g id="a_node5"><a xlink:title=" ">
<polygon fill="none" stroke="#bfbfbf" points="148,-0.5 148,-19.5 251,-19.5 251,-0.5 148,-0.5"/>
<text text-anchor="middle" x="199.5" y="-7.5" font-family="Helvetica,sans-Serif" font-size="10.00">boost/smart_ptr.hpp</text>
</a>
</g>
</g>
<!-- Node2&#45;&gt;Node5 -->
<g id="edge4" class="edge">
<title>Node2&#45;&gt;Node5</title>
<path fill="none" stroke="midnightblue" d="M199.5,-56.08C199.5,-49.01 199.5,-38.86 199.5,-29.99"/>
<polygon fill="midnightblue" stroke="midnightblue" points="203,-29.75 199.5,-19.75 196,-29.75 203,-29.75"/>
</g>
<!-- Node6 -->
<g id="node6" class="node">
<title>Node6</title>
<g id="a_node6"><a xlink:title=" ">
<polygon fill="none" stroke="#bfbfbf" points="269,-0.5 269,-19.5 400,-19.5 400,-0.5 269,-0.5"/>
<text text-anchor="middle" x="334.5" y="-7.5" font-family="Helvetica,sans-Serif" font-size="10.00">boost/current_function.hpp</text>
</a>
</g>
</g>
<!-- Node2&#45;&gt;Node6 -->
<g id="edge5" class="edge">
<title>Node2&#45;&gt;Node6</title>
<path fill="none" stroke="midnightblue" d="M220.89,-56.44C243.21,-47.52 278.4,-33.44 303.71,-23.32"/>
<polygon fill="midnightblue" stroke="midnightblue" points="305.22,-26.48 313.21,-19.52 302.62,-19.98 305.22,-26.48"/>
</g>
<!-- Node7 -->
<g id="node7" class="node">
<title>Node7</title>
<g id="a_node7"><a xlink:href="../../de/d17/kratos__config_8h.html" target="_top" xlink:title=" ">
<polygon fill="none" stroke="black" points="418,-0.5 418,-19.5 539,-19.5 539,-0.5 418,-0.5"/>
<text text-anchor="middle" x="478.5" y="-7.5" font-family="Helvetica,sans-Serif" font-size="10.00">includes/kratos_config.h</text>
</a>
</g>
</g>
<!-- Node2&#45;&gt;Node7 -->
<g id="edge6" class="edge">
<title>Node2&#45;&gt;Node7</title>
<path fill="none" stroke="midnightblue" d="M243.71,-56.44C292.79,-46.94 372.01,-31.61 424.66,-21.42"/>
<polygon fill="midnightblue" stroke="midnightblue" points="425.35,-24.85 434.5,-19.52 424.02,-17.98 425.35,-24.85"/>
</g>
<!-- Node8&#45;&gt;Node2 -->
<g id="edge11" class="edge">
<title>Node8&#45;&gt;Node2</title>
<path fill="none" stroke="midnightblue" d="M240.29,-423.52C174.61,-413.85 66.5,-386.01 66.5,-307.5 66.5,-307.5 66.5,-307.5 66.5,-177 66.5,-126.73 123.63,-95.1 163,-79.27"/>
<polygon fill="midnightblue" stroke="midnightblue" points="164.51,-82.45 172.59,-75.59 162,-75.91 164.51,-82.45"/>
</g>
<!-- Node9 -->
<g id="node9" class="node">
<title>Node9</title>
<g id="a_node9"><a xlink:title=" ">
<polygon fill="none" stroke="#bfbfbf" points="754,-56.5 754,-75.5 795,-75.5 795,-56.5 754,-56.5"/>
<text text-anchor="middle" x="774.5" y="-63.5" font-family="Helvetica,sans-Serif" font-size="10.00">string</text>
</a>
</g>
</g>
<!-- Node8&#45;&gt;Node9 -->
<g id="edge8" class="edge">
<title>Node8&#45;&gt;Node9</title>
<path fill="none" stroke="midnightblue" d="M338.52,-428.97C481.58,-429.05 888.5,-419.43 888.5,-307.5 888.5,-307.5 888.5,-307.5 888.5,-177 888.5,-130.11 837.95,-96.89 804.17,-79.93"/>
<polygon fill="midnightblue" stroke="midnightblue" points="805.67,-76.77 795.14,-75.58 802.63,-83.07 805.67,-76.77"/>
</g>
<!-- Node10 -->
<g id="node10" class="node">
<title>Node10</title>
<g id="a_node10"><a xlink:title=" ">
<polygon fill="none" stroke="#bfbfbf" points="381.5,-56.5 381.5,-75.5 435.5,-75.5 435.5,-56.5 381.5,-56.5"/>
<text text-anchor="middle" x="408.5" y="-63.5" font-family="Helvetica,sans-Serif" font-size="10.00">iostream</text>
</a>
</g>
</g>
<!-- Node8&#45;&gt;Node10 -->
<g id="edge9" class="edge">
<title>Node8&#45;&gt;Node10</title>
<path fill="none" stroke="midnightblue" d="M250.38,-414.48C234.07,-406.47 216.79,-394.64 207.5,-378 203.17,-370.24 206.01,-366.76 207.5,-358 227.89,-238.27 233.02,-189.55 326.5,-112 342.28,-98.91 362.43,-87.79 378.81,-79.88"/>
<polygon fill="midnightblue" stroke="midnightblue" points="380.38,-83.01 387.96,-75.6 377.42,-76.67 380.38,-83.01"/>
</g>
<!-- Node11 -->
<g id="node11" class="node">
<title>Node11</title>
<g id="a_node11"><a xlink:title=" ">
<polygon fill="none" stroke="#bfbfbf" points="697,-112.5 697,-131.5 746,-131.5 746,-112.5 697,-112.5"/>
<text text-anchor="middle" x="721.5" y="-119.5" font-family="Helvetica,sans-Serif" font-size="10.00">cstddef</text>
</a>
</g>
</g>
<!-- Node8&#45;&gt;Node11 -->
<g id="edge10" class="edge">
<title>Node8&#45;&gt;Node11</title>
<path fill="none" stroke="midnightblue" d="M338.61,-426.25C433.79,-418.92 641.91,-387.73 731.5,-255 754.88,-220.36 740,-168.32 729.41,-141.08"/>
<polygon fill="midnightblue" stroke="midnightblue" points="732.57,-139.56 725.53,-131.65 726.1,-142.23 732.57,-139.56"/>
</g>
<!-- Node12 -->
<g id="node12" class="node">
<title>Node12</title>
<g id="a_node12"><a xlink:href="../../da/d89/variable_8h.html" target="_top" xlink:title=" ">
<polygon fill="none" stroke="black" points="274.5,-230 274.5,-249 380.5,-249 380.5,-230 274.5,-230"/>
<text text-anchor="middle" x="327.5" y="-237" font-family="Helvetica,sans-Serif" font-size="10.00">containers/variable.h</text>
</a>
</g>
</g>
<!-- Node8&#45;&gt;Node12 -->
<g id="edge12" class="edge">
<title>Node8&#45;&gt;Node12</title>
<path fill="none" stroke="midnightblue" d="M254.95,-414.29C230.87,-402 204.68,-382.37 214.5,-358 232.84,-312.48 278.18,-274.72 305.53,-255.09"/>
<polygon fill="midnightblue" stroke="midnightblue" points="307.85,-257.73 314.05,-249.14 303.84,-251.99 307.85,-257.73"/>
</g>
<!-- Node15 -->
<g id="node15" class="node">
<title>Node15</title>
<g id="a_node15"><a xlink:href="../../d4/d59/variable__component_8h.html" target="_top" xlink:title=" ">
<polygon fill="none" stroke="black" points="624.5,-224.5 624.5,-254.5 722.5,-254.5 722.5,-224.5 624.5,-224.5"/>
<text text-anchor="start" x="632.5" y="-242.5" font-family="Helvetica,sans-Serif" font-size="10.00">containers/variable</text>
<text text-anchor="middle" x="673.5" y="-231.5" font-family="Helvetica,sans-Serif" font-size="10.00">_component.h</text>
</a>
</g>
</g>
<!-- Node8&#45;&gt;Node15 -->
<g id="edge25" class="edge">
<title>Node8&#45;&gt;Node15</title>
<path fill="none" stroke="midnightblue" d="M318.36,-414.37C386.77,-380.88 558.78,-296.66 635.52,-259.09"/>
<polygon fill="midnightblue" stroke="midnightblue" points="637.38,-262.08 644.83,-254.54 634.31,-255.79 637.38,-262.08"/>
</g>
<!-- Node16 -->
<g id="node16" class="node">
<title>Node16</title>
<g id="a_node16"><a xlink:href="../../de/d77/variables__list_8h.html" target="_top" xlink:title=" ">
<polygon fill="none" stroke="black" points="350.5,-291.5 350.5,-321.5 454.5,-321.5 454.5,-291.5 350.5,-291.5"/>
<text text-anchor="start" x="358.5" y="-309.5" font-family="Helvetica,sans-Serif" font-size="10.00">containers/variables</text>
<text text-anchor="middle" x="402.5" y="-298.5" font-family="Helvetica,sans-Serif" font-size="10.00">_list.h</text>
</a>
</g>
</g>
<!-- Node8&#45;&gt;Node16 -->
<g id="edge30" class="edge">
<title>Node8&#45;&gt;Node16</title>
<path fill="none" stroke="midnightblue" d="M317.68,-414.34C333.22,-405.49 352.03,-392.94 365.5,-378 377.84,-364.32 387.35,-345.78 393.65,-331.15"/>
<polygon fill="midnightblue" stroke="midnightblue" points="396.94,-332.33 397.48,-321.75 390.46,-329.68 396.94,-332.33"/>
</g>
<!-- Node19 -->
<g id="node19" class="node">
<title>Node19</title>
<g id="a_node19"><a xlink:href="../../d5/dfb/global__variables_8h.html" target="_top" xlink:title=" ">
<polygon fill="none" stroke="black" points="223,-358.5 223,-377.5 356,-377.5 356,-358.5 223,-358.5"/>
<text text-anchor="middle" x="289.5" y="-365.5" font-family="Helvetica,sans-Serif" font-size="10.00">includes/global_variables.h</text>
</a>
</g>
</g>
<!-- Node8&#45;&gt;Node19 -->
<g id="edge37" class="edge">
<title>Node8&#45;&gt;Node19</title>
<path fill="none" stroke="midnightblue" d="M289.5,-414.4C289.5,-406.47 289.5,-396.46 289.5,-387.86"/>
<polygon fill="midnightblue" stroke="midnightblue" points="293,-387.66 289.5,-377.66 286,-387.66 293,-387.66"/>
</g>
<!-- Node12&#45;&gt;Node2 -->
<g id="edge15" class="edge">
<title>Node12&#45;&gt;Node2</title>
<path fill="none" stroke="midnightblue" d="M320.98,-229.76C300.77,-202.69 238.99,-119.91 212.16,-83.96"/>
<polygon fill="midnightblue" stroke="midnightblue" points="214.64,-81.44 205.86,-75.52 209.03,-85.63 214.64,-81.44"/>
</g>
<!-- Node12&#45;&gt;Node9 -->
<g id="edge13" class="edge">
<title>Node12&#45;&gt;Node9</title>
<path fill="none" stroke="midnightblue" d="M379.11,-229.98C439.52,-219.63 535.62,-201.81 569.5,-188 627.61,-164.31 634.2,-143.47 688.5,-112 708,-100.7 730.6,-88.92 747.74,-80.25"/>
<polygon fill="midnightblue" stroke="midnightblue" points="749.77,-83.15 757.13,-75.54 746.62,-76.9 749.77,-83.15"/>
</g>
<!-- Node12&#45;&gt;Node10 -->
<g id="edge14" class="edge">
<title>Node12&#45;&gt;Node10</title>
<path fill="none" stroke="midnightblue" d="M331.63,-229.76C344.3,-202.92 382.85,-121.32 400.05,-84.89"/>
<polygon fill="midnightblue" stroke="midnightblue" points="403.37,-86.06 404.48,-75.52 397.04,-83.07 403.37,-86.06"/>
</g>
<!-- Node13 -->
<g id="node13" class="node">
<title>Node13</title>
<g id="a_node13"><a xlink:href="../../d3/dc3/variable__data_8h.html" target="_top" xlink:title=" ">
<polygon fill="none" stroke="black" points="478.5,-168.5 478.5,-187.5 560.5,-187.5 560.5,-168.5 478.5,-168.5"/>
<text text-anchor="middle" x="519.5" y="-175.5" font-family="Helvetica,sans-Serif" font-size="10.00">variable_data.h</text>
</a>
</g>
</g>
<!-- Node12&#45;&gt;Node13 -->
<g id="edge16" class="edge">
<title>Node12&#45;&gt;Node13</title>
<path fill="none" stroke="midnightblue" d="M355.01,-229.98C388.37,-219.64 444.76,-202.16 482.06,-190.6"/>
<polygon fill="midnightblue" stroke="midnightblue" points="483.53,-193.81 492.04,-187.51 481.45,-187.13 483.53,-193.81"/>
</g>
<!-- Node13&#45;&gt;Node2 -->
<g id="edge20" class="edge">
<title>Node13&#45;&gt;Node2</title>
<path fill="none" stroke="midnightblue" d="M494.66,-168.46C438.06,-149.01 299.44,-101.36 234.34,-78.98"/>
<polygon fill="midnightblue" stroke="midnightblue" points="235.14,-75.55 224.55,-75.61 232.87,-82.17 235.14,-75.55"/>
</g>
<!-- Node13&#45;&gt;Node9 -->
<g id="edge17" class="edge">
<title>Node13&#45;&gt;Node9</title>
<path fill="none" stroke="midnightblue" d="M536.32,-168.29C561.64,-155.33 611.2,-130.5 654.5,-112 684.71,-99.09 719.99,-86.1 744.45,-77.42"/>
<polygon fill="midnightblue" stroke="midnightblue" points="745.63,-80.72 753.89,-74.09 743.3,-74.12 745.63,-80.72"/>
</g>
<!-- Node13&#45;&gt;Node10 -->
<g id="edge18" class="edge">
<title>Node13&#45;&gt;Node10</title>
<path fill="none" stroke="midnightblue" d="M507.89,-168.18C496.64,-159.45 479.3,-145.46 465.5,-132 449.63,-116.53 433.11,-97.28 421.96,-83.76"/>
<polygon fill="midnightblue" stroke="midnightblue" points="424.5,-81.34 415.47,-75.8 419.08,-85.76 424.5,-81.34"/>
</g>
<!-- Node13&#45;&gt;Node11 -->
<g id="edge19" class="edge">
<title>Node13&#45;&gt;Node11</title>
<path fill="none" stroke="midnightblue" d="M551.51,-168.44C588.42,-158.58 648.88,-142.41 686.87,-132.26"/>
<polygon fill="midnightblue" stroke="midnightblue" points="688.19,-135.53 696.95,-129.56 686.38,-128.76 688.19,-135.53"/>
</g>
<!-- Node14 -->
<g id="node14" class="node">
<title>Node14</title>
<g id="a_node14"><a xlink:href="../../d7/da2/counter_8h.html" target="_top" xlink:title=" ">
<polygon fill="none" stroke="black" points="474.5,-112.5 474.5,-131.5 564.5,-131.5 564.5,-112.5 474.5,-112.5"/>
<text text-anchor="middle" x="519.5" y="-119.5" font-family="Helvetica,sans-Serif" font-size="10.00">utilities/counter.h</text>
</a>
</g>
</g>
<!-- Node13&#45;&gt;Node14 -->
<g id="edge21" class="edge">
<title>Node13&#45;&gt;Node14</title>
<path fill="none" stroke="midnightblue" d="M519.5,-168.08C519.5,-161.01 519.5,-150.86 519.5,-141.99"/>
<polygon fill="midnightblue" stroke="midnightblue" points="523,-141.75 519.5,-131.75 516,-141.75 523,-141.75"/>
</g>
<!-- Node14&#45;&gt;Node2 -->
<g id="edge24" class="edge">
<title>Node14&#45;&gt;Node2</title>
<path fill="none" stroke="midnightblue" d="M474.33,-113.38C416.48,-103.61 316.29,-86.71 254.19,-76.23"/>
<polygon fill="midnightblue" stroke="midnightblue" points="254.63,-72.75 244.18,-74.54 253.46,-79.66 254.63,-72.75"/>
</g>
<!-- Node14&#45;&gt;Node9 -->
<g id="edge22" class="edge">
<title>Node14&#45;&gt;Node9</title>
<path fill="none" stroke="midnightblue" d="M559.91,-112.44C610.98,-101.63 697.76,-83.25 743.76,-73.51"/>
<polygon fill="midnightblue" stroke="midnightblue" points="744.68,-76.89 753.73,-71.4 743.23,-70.05 744.68,-76.89"/>
</g>
<!-- Node14&#45;&gt;Node10 -->
<g id="edge23" class="edge">
<title>Node14&#45;&gt;Node10</title>
<path fill="none" stroke="midnightblue" d="M501.67,-112.32C483.78,-103.62 456.02,-90.12 435.45,-80.11"/>
<polygon fill="midnightblue" stroke="midnightblue" points="436.81,-76.88 426.29,-75.65 433.75,-83.18 436.81,-76.88"/>
</g>
<!-- Node15&#45;&gt;Node2 -->
<g id="edge28" class="edge">
<title>Node15&#45;&gt;Node2</title>
<path fill="none" stroke="midnightblue" d="M624.46,-226.23C621.43,-225.47 618.42,-224.73 615.5,-224 550.64,-207.9 533.2,-208.23 469.5,-188 404.45,-167.34 388.73,-160.03 326.5,-132 290.05,-115.59 249.09,-94.04 223.79,-80.35"/>
<polygon fill="midnightblue" stroke="midnightblue" points="225.35,-77.22 214.9,-75.51 222.01,-83.37 225.35,-77.22"/>
</g>
<!-- Node15&#45;&gt;Node9 -->
<g id="edge26" class="edge">
<title>Node15&#45;&gt;Node9</title>
<path fill="none" stroke="midnightblue" d="M687.38,-224.19C705.47,-204.8 737,-168.4 755.5,-132 762.99,-117.26 767.99,-99.1 770.97,-85.73"/>
<polygon fill="midnightblue" stroke="midnightblue" points="774.42,-86.3 773.01,-75.8 767.57,-84.89 774.42,-86.3"/>
</g>
<!-- Node15&#45;&gt;Node10 -->
<g id="edge27" class="edge">
<title>Node15&#45;&gt;Node10</title>
<path fill="none" stroke="midnightblue" d="M666.28,-224.29C652.17,-197.98 618.34,-141.64 573.5,-112 534.67,-86.33 481.51,-75.22 446.14,-70.47"/>
<polygon fill="midnightblue" stroke="midnightblue" points="446.13,-66.94 435.77,-69.19 445.27,-73.89 446.13,-66.94"/>
</g>
<!-- Node15&#45;&gt;Node13 -->
<g id="edge29" class="edge">
<title>Node15&#45;&gt;Node13</title>
<path fill="none" stroke="midnightblue" d="M637,-224.4C610.93,-214.33 576.21,-200.91 551.28,-191.28"/>
<polygon fill="midnightblue" stroke="midnightblue" points="552.5,-188 541.91,-187.66 549.97,-194.53 552.5,-188"/>
</g>
<!-- Node16&#45;&gt;Node2 -->
<g id="edge35" class="edge">
<title>Node16&#45;&gt;Node2</title>
<path fill="none" stroke="midnightblue" d="M350.4,-297.43C321.98,-290.55 288.09,-277.94 265.5,-255 218.21,-206.97 204.67,-123.15 200.9,-85.84"/>
<polygon fill="midnightblue" stroke="midnightblue" points="204.39,-85.5 200.02,-75.84 197.41,-86.11 204.39,-85.5"/>
</g>
<!-- Node16&#45;&gt;Node9 -->
<g id="edge31" class="edge">
<title>Node16&#45;&gt;Node9</title>
<path fill="none" stroke="midnightblue" d="M454.59,-303.93C536.54,-300.44 690.46,-289.36 731.5,-255 781.99,-212.73 780.28,-124.46 776.78,-85.81"/>
<polygon fill="midnightblue" stroke="midnightblue" points="780.22,-85.09 775.69,-75.51 773.26,-85.83 780.22,-85.09"/>
</g>
<!-- Node16&#45;&gt;Node10 -->
<g id="edge32" class="edge">
<title>Node16&#45;&gt;Node10</title>
<path fill="none" stroke="midnightblue" d="M402.86,-291.29C403.89,-250.43 406.85,-132.55 408.02,-86.12"/>
<polygon fill="midnightblue" stroke="midnightblue" points="411.52,-86.03 408.27,-75.95 404.52,-85.85 411.52,-86.03"/>
</g>
<!-- Node16&#45;&gt;Node12 -->
<g id="edge36" class="edge">
<title>Node16&#45;&gt;Node12</title>
<path fill="none" stroke="midnightblue" d="M386.23,-291.4C374.18,-280.96 357.79,-266.75 345.38,-256"/>
<polygon fill="midnightblue" stroke="midnightblue" points="347.38,-253.1 337.53,-249.19 342.8,-258.39 347.38,-253.1"/>
</g>
<!-- Node17 -->
<g id="node17" class="node">
<title>Node17</title>
<g id="a_node17"><a xlink:title=" ">
<polygon fill="none" stroke="#bfbfbf" points="436.5,-230 436.5,-249 480.5,-249 480.5,-230 436.5,-230"/>
<text text-anchor="middle" x="458.5" y="-237" font-family="Helvetica,sans-Serif" font-size="10.00">vector</text>
</a>
</g>
</g>
<!-- Node16&#45;&gt;Node17 -->
<g id="edge33" class="edge">
<title>Node16&#45;&gt;Node17</title>
<path fill="none" stroke="midnightblue" d="M414.65,-291.4C423.38,-281.26 435.18,-267.57 444.34,-256.94"/>
<polygon fill="midnightblue" stroke="midnightblue" points="447.13,-259.06 451.01,-249.19 441.83,-254.49 447.13,-259.06"/>
</g>
<!-- Node18 -->
<g id="node18" class="node">
<title>Node18</title>
<g id="a_node18"><a xlink:title=" ">
<polygon fill="none" stroke="#bfbfbf" points="498.5,-224.5 498.5,-254.5 606.5,-254.5 606.5,-224.5 498.5,-224.5"/>
<text text-anchor="start" x="506.5" y="-242.5" font-family="Helvetica,sans-Serif" font-size="10.00">boost/iterator/indirect</text>
<text text-anchor="middle" x="552.5" y="-231.5" font-family="Helvetica,sans-Serif" font-size="10.00">_iterator.hpp</text>
</a>
</g>
</g>
<!-- Node16&#45;&gt;Node18 -->
<g id="edge34" class="edge">
<title>Node16&#45;&gt;Node18</title>
<path fill="none" stroke="midnightblue" d="M435.05,-291.4C457.26,-281.77 486.88,-268.94 510.81,-258.56"/>
<polygon fill="midnightblue" stroke="midnightblue" points="512.23,-261.76 520.02,-254.58 509.45,-255.34 512.23,-261.76"/>
</g>
<!-- Node19&#45;&gt;Node2 -->
<g id="edge40" class="edge">
<title>Node19&#45;&gt;Node2</title>
<path fill="none" stroke="midnightblue" d="M275.59,-358.28C263.2,-350.03 245.14,-336.73 232.5,-322 210.21,-296.02 203.23,-288.1 194.5,-255 178.63,-194.87 189.15,-120.15 195.57,-85.83"/>
<polygon fill="midnightblue" stroke="midnightblue" points="199.04,-86.31 197.54,-75.82 192.17,-84.95 199.04,-86.31"/>
</g>
<!-- Node19&#45;&gt;Node9 -->
<g id="edge38" class="edge">
<title>Node19&#45;&gt;Node9</title>
<path fill="none" stroke="midnightblue" d="M356.08,-358.58C470.34,-342.92 697.29,-306.22 757.5,-255 807.26,-212.67 803.23,-176.26 791.5,-112 789.81,-102.76 786.33,-92.95 782.95,-84.85"/>
<polygon fill="midnightblue" stroke="midnightblue" points="786.13,-83.4 778.87,-75.69 779.74,-86.25 786.13,-83.4"/>
</g>
<!-- Node19&#45;&gt;Node10 -->
<g id="edge39" class="edge">
<title>Node19&#45;&gt;Node10</title>
<path fill="none" stroke="midnightblue" d="M284.97,-358.3C273.73,-335.49 246.78,-272.36 265.5,-224 290.18,-160.25 354.13,-106.48 387.52,-81.68"/>
<polygon fill="midnightblue" stroke="midnightblue" points="389.66,-84.45 395.69,-75.74 385.54,-78.79 389.66,-84.45"/>
</g>
<!-- Node19&#45;&gt;Node16 -->
<g id="edge41" class="edge">
<title>Node19&#45;&gt;Node16</title>
<path fill="none" stroke="midnightblue" d="M305.69,-358.48C321.57,-350.12 346.3,-337.09 366.8,-326.3"/>
<polygon fill="midnightblue" stroke="midnightblue" points="368.65,-329.28 375.87,-321.52 365.39,-323.09 368.65,-329.28"/>
</g>
</g>
</svg>
