<?xml version="1.0" encoding="UTF-8" standalone="no"?>
<!DOCTYPE svg PUBLIC "-//W3C//DTD SVG 1.1//EN"
 "http://www.w3.org/Graphics/SVG/1.1/DTD/svg11.dtd">
<!-- Generated by graphviz version 2.48.0 (20210719.0153)
 -->
<!-- Title: boost::numeric::ublas::unbounded_array&lt; T, ALLOC &gt; Pages: 1 -->
<svg width="143pt" height="441pt"
 viewBox="0.00 0.00 143.00 441.00" xmlns="http://www.w3.org/2000/svg" xmlns:xlink="http://www.w3.org/1999/xlink">
<g id="graph0" class="graph" transform="scale(1 1) rotate(0) translate(4 437)">
<title>boost::numeric::ublas::unbounded_array&lt; T, ALLOC &gt;</title>
<!-- Node1 -->
<g id="node1" class="node">
<title>Node1</title>
<g id="a_node1"><a xlink:title=" ">
<polygon fill="#bfbfbf" stroke="black" points="11.5,-0.5 11.5,-189.5 123.5,-189.5 123.5,-0.5 11.5,-0.5"/>
<text text-anchor="start" x="19.5" y="-177.5" font-family="Helvetica,sans-Serif" font-size="10.00">boost::numeric::ublas</text>
<text text-anchor="start" x="19.5" y="-166.5" font-family="Helvetica,sans-Serif" font-size="10.00">::unbounded_array&lt; T,</text>
<text text-anchor="middle" x="67.5" y="-155.5" font-family="Helvetica,sans-Serif" font-size="10.00"> ALLOC &gt;</text>
<polyline fill="none" stroke="black" points="11.5,-148.5 123.5,-148.5 "/>
<text text-anchor="middle" x="67.5" y="-136.5" font-family="Helvetica,sans-Serif" font-size="10.00"> </text>
<polyline fill="none" stroke="black" points="11.5,-129.5 123.5,-129.5 "/>
<text text-anchor="start" x="19.5" y="-117.5" font-family="Helvetica,sans-Serif" font-size="10.00">+ unbounded_array()</text>
<text text-anchor="start" x="19.5" y="-106.5" font-family="Helvetica,sans-Serif" font-size="10.00">+ unbounded_array()</text>
<text text-anchor="start" x="19.5" y="-95.5" font-family="Helvetica,sans-Serif" font-size="10.00">+ unbounded_array()</text>
<text text-anchor="start" x="19.5" y="-84.5" font-family="Helvetica,sans-Serif" font-size="10.00">+ unbounded_array()</text>
<text text-anchor="start" x="19.5" y="-73.5" font-family="Helvetica,sans-Serif" font-size="10.00">+ ~unbounded_array()</text>
<text text-anchor="start" x="19.5" y="-62.5" font-family="Helvetica,sans-Serif" font-size="10.00">+ resize()</text>
<text text-anchor="start" x="19.5" y="-51.5" font-family="Helvetica,sans-Serif" font-size="10.00">+ resize()</text>
<text text-anchor="start" x="19.5" y="-40.5" font-family="Helvetica,sans-Serif" font-size="10.00">+ size()</text>
<text text-anchor="start" x="19.5" y="-29.5" font-family="Helvetica,sans-Serif" font-size="10.00">+ operator[]()</text>
<text text-anchor="start" x="19.5" y="-18.5" font-family="Helvetica,sans-Serif" font-size="10.00">+ operator[]()</text>
<text text-anchor="start" x="19.5" y="-7.5" font-family="Helvetica,sans-Serif" font-size="10.00">and 34 more...</text>
</a>
</g>
</g>
<!-- Node2 -->
<g id="node2" class="node">
<title>Node2</title>
<g id="a_node2"><a xlink:href="../../d2/d06/classboost_1_1numeric_1_1ublas_1_1storage__array.html" target="_top" xlink:title=" ">
<polygon fill="none" stroke="black" points="0,-226.5 0,-305.5 135,-305.5 135,-226.5 0,-226.5"/>
<text text-anchor="start" x="8" y="-293.5" font-family="Helvetica,sans-Serif" font-size="10.00">boost::numeric::ublas</text>
<text text-anchor="start" x="8" y="-282.5" font-family="Helvetica,sans-Serif" font-size="10.00">::storage_array&lt; unbounded</text>
<text text-anchor="middle" x="67.5" y="-271.5" font-family="Helvetica,sans-Serif" font-size="10.00">_array&lt; T, ALLOC &gt; &gt;</text>
<polyline fill="none" stroke="black" points="0,-264.5 135,-264.5 "/>
<text text-anchor="middle" x="67.5" y="-252.5" font-family="Helvetica,sans-Serif" font-size="10.00"> </text>
<polyline fill="none" stroke="black" points="0,-245.5 135,-245.5 "/>
<text text-anchor="middle" x="67.5" y="-233.5" font-family="Helvetica,sans-Serif" font-size="10.00"> </text>
</a>
</g>
</g>
<!-- Node2&#45;&gt;Node1 -->
<g id="edge1" class="edge">
<title>Node2&#45;&gt;Node1</title>
<path fill="none" stroke="midnightblue" d="M61.31,-215.97C61.03,-207.6 60.85,-198.67 60.78,-189.6"/>
<polygon fill="none" stroke="midnightblue" points="57.82,-216.38 61.72,-226.23 64.82,-216.1 57.82,-216.38"/>
</g>
<!-- Node2&#45;&gt;Node1 -->
<g id="edge4" class="edge">
<title>Node2&#45;&gt;Node1</title>
<path fill="none" stroke="midnightblue" d="M73.69,-215.97C73.97,-207.6 74.15,-198.67 74.22,-189.6"/>
<polygon fill="none" stroke="midnightblue" points="70.18,-216.1 73.28,-226.23 77.18,-216.38 70.18,-216.1"/>
</g>
<!-- Node3 -->
<g id="node3" class="node">
<title>Node3</title>
<g id="a_node3"><a xlink:href="../../d2/dbf/classboost_1_1numeric_1_1ublas_1_1nonassignable___1_1nonassignable.html" target="_top" xlink:title=" ">
<polygon fill="none" stroke="black" points="18.5,-342.5 18.5,-432.5 116.5,-432.5 116.5,-342.5 18.5,-342.5"/>
<text text-anchor="middle" x="67.5" y="-420.5" font-family="Helvetica,sans-Serif" font-size="10.00">nonassignable</text>
<polyline fill="none" stroke="black" points="18.5,-413.5 116.5,-413.5 "/>
<text text-anchor="middle" x="67.5" y="-401.5" font-family="Helvetica,sans-Serif" font-size="10.00"> </text>
<polyline fill="none" stroke="black" points="18.5,-394.5 116.5,-394.5 "/>
<text text-anchor="start" x="26.5" y="-382.5" font-family="Helvetica,sans-Serif" font-size="10.00"># nonassignable()</text>
<text text-anchor="start" x="26.5" y="-371.5" font-family="Helvetica,sans-Serif" font-size="10.00"># ~nonassignable()</text>
<text text-anchor="start" x="26.5" y="-360.5" font-family="Helvetica,sans-Serif" font-size="10.00"># nonassignable()</text>
<text text-anchor="start" x="26.5" y="-349.5" font-family="Helvetica,sans-Serif" font-size="10.00"># ~nonassignable()</text>
</a>
</g>
</g>
<!-- Node3&#45;&gt;Node2 -->
<g id="edge2" class="edge">
<title>Node3&#45;&gt;Node2</title>
<path fill="none" stroke="#8b1a1a" d="M60.77,-332.08C60.69,-323.23 60.81,-314.23 61.13,-305.86"/>
<polygon fill="none" stroke="#8b1a1a" points="57.28,-332.41 60.96,-342.34 64.28,-332.28 57.28,-332.41"/>
</g>
<!-- Node3&#45;&gt;Node2 -->
<g id="edge3" class="edge">
<title>Node3&#45;&gt;Node2</title>
<path fill="none" stroke="#8b1a1a" d="M74.23,-332.08C74.31,-323.23 74.19,-314.23 73.87,-305.86"/>
<polygon fill="none" stroke="#8b1a1a" points="70.72,-332.28 74.04,-342.34 77.72,-332.41 70.72,-332.28"/>
</g>
</g>
</svg>
