<?xml version="1.0" encoding="UTF-8" standalone="no"?>
<!DOCTYPE svg PUBLIC "-//W3C//DTD SVG 1.1//EN"
 "http://www.w3.org/Graphics/SVG/1.1/DTD/svg11.dtd">
<!-- Generated by graphviz version 2.48.0 (20210719.0153)
 -->
<!-- Title: /github/workspace/applications/mkl_solvers_application/external_includes/boost/numeric/bindings/atlas/cblas1.hpp Pages: 1 -->
<svg width="753pt" height="128pt"
 viewBox="0.00 0.00 752.50 128.00" xmlns="http://www.w3.org/2000/svg" xmlns:xlink="http://www.w3.org/1999/xlink">
<g id="graph0" class="graph" transform="scale(1 1) rotate(0) translate(4 124)">
<title>/github/workspace/applications/mkl_solvers_application/external_includes/boost/numeric/bindings/atlas/cblas1.hpp</title>
<!-- Node1 -->
<g id="node1" class="node">
<title>Node1</title>
<g id="a_node1"><a xlink:title=" ">
<polygon fill="#bfbfbf" stroke="black" points="252,-67.5 252,-119.5 413,-119.5 413,-67.5 252,-67.5"/>
<text text-anchor="start" x="260" y="-107.5" font-family="Helvetica,sans-Serif" font-size="10.00">/github/workspace/applications</text>
<text text-anchor="start" x="260" y="-96.5" font-family="Helvetica,sans-Serif" font-size="10.00">/mkl_solvers_application/external</text>
<text text-anchor="start" x="260" y="-85.5" font-family="Helvetica,sans-Serif" font-size="10.00">_includes/boost/numeric/bindings</text>
<text text-anchor="middle" x="332.5" y="-74.5" font-family="Helvetica,sans-Serif" font-size="10.00">/atlas/cblas1.hpp</text>
</a>
</g>
</g>
<!-- Node2 -->
<g id="node2" class="node">
<title>Node2</title>
<g id="a_node2"><a xlink:title=" ">
<polygon fill="none" stroke="#bfbfbf" points="0,-6 0,-25 49,-25 49,-6 0,-6"/>
<text text-anchor="middle" x="24.5" y="-13" font-family="Helvetica,sans-Serif" font-size="10.00">cassert</text>
</a>
</g>
</g>
<!-- Node1&#45;&gt;Node2 -->
<g id="edge1" class="edge">
<title>Node1&#45;&gt;Node2</title>
<path fill="none" stroke="midnightblue" d="M251.97,-78.76C196.55,-68.27 121.65,-52.05 57.5,-31 55.63,-30.39 53.72,-29.7 51.8,-28.98"/>
<polygon fill="midnightblue" stroke="midnightblue" points="52.99,-25.68 42.41,-25.12 50.33,-32.16 52.99,-25.68"/>
</g>
<!-- Node3 -->
<g id="node3" class="node">
<title>Node3</title>
<g id="a_node3"><a xlink:title=" ">
<polygon fill="none" stroke="#bfbfbf" points="67,-0.5 67,-30.5 184,-30.5 184,-0.5 67,-0.5"/>
<text text-anchor="start" x="75" y="-18.5" font-family="Helvetica,sans-Serif" font-size="10.00">boost/numeric/bindings</text>
<text text-anchor="middle" x="125.5" y="-7.5" font-family="Helvetica,sans-Serif" font-size="10.00">/traits/type_traits.hpp</text>
</a>
</g>
</g>
<!-- Node1&#45;&gt;Node3 -->
<g id="edge2" class="edge">
<title>Node1&#45;&gt;Node3</title>
<path fill="none" stroke="midnightblue" d="M264.15,-67.4C234.47,-56.51 200.41,-44 173.47,-34.11"/>
<polygon fill="midnightblue" stroke="midnightblue" points="174.49,-30.76 163.9,-30.6 172.08,-37.33 174.49,-30.76"/>
</g>
<!-- Node4 -->
<g id="node4" class="node">
<title>Node4</title>
<g id="a_node4"><a xlink:title=" ">
<polygon fill="none" stroke="#bfbfbf" points="202,-0.5 202,-30.5 319,-30.5 319,-0.5 202,-0.5"/>
<text text-anchor="start" x="210" y="-18.5" font-family="Helvetica,sans-Serif" font-size="10.00">boost/numeric/bindings</text>
<text text-anchor="middle" x="260.5" y="-7.5" font-family="Helvetica,sans-Serif" font-size="10.00">/traits/vector_traits.hpp</text>
</a>
</g>
</g>
<!-- Node1&#45;&gt;Node4 -->
<g id="edge3" class="edge">
<title>Node1&#45;&gt;Node4</title>
<path fill="none" stroke="midnightblue" d="M308.53,-67.19C299.67,-57.84 289.71,-47.33 281.17,-38.32"/>
<polygon fill="midnightblue" stroke="midnightblue" points="283.51,-35.7 274.09,-30.85 278.43,-40.51 283.51,-35.7"/>
</g>
<!-- Node5 -->
<g id="node5" class="node">
<title>Node5</title>
<g id="a_node5"><a xlink:title=" ">
<polygon fill="none" stroke="#bfbfbf" points="337,-0.5 337,-30.5 474,-30.5 474,-0.5 337,-0.5"/>
<text text-anchor="start" x="345" y="-18.5" font-family="Helvetica,sans-Serif" font-size="10.00">boost/numeric/bindings</text>
<text text-anchor="middle" x="405.5" y="-7.5" font-family="Helvetica,sans-Serif" font-size="10.00">/atlas/cblas1_overloads.hpp</text>
</a>
</g>
</g>
<!-- Node1&#45;&gt;Node5 -->
<g id="edge4" class="edge">
<title>Node1&#45;&gt;Node5</title>
<path fill="none" stroke="midnightblue" d="M356.81,-67.19C365.79,-57.84 375.89,-47.33 384.54,-38.32"/>
<polygon fill="midnightblue" stroke="midnightblue" points="387.32,-40.48 391.72,-30.85 382.27,-35.63 387.32,-40.48"/>
</g>
<!-- Node6 -->
<g id="node6" class="node">
<title>Node6</title>
<g id="a_node6"><a xlink:title=" ">
<polygon fill="none" stroke="#bfbfbf" points="492.5,-0.5 492.5,-30.5 608.5,-30.5 608.5,-0.5 492.5,-0.5"/>
<text text-anchor="start" x="500.5" y="-18.5" font-family="Helvetica,sans-Serif" font-size="10.00">boost/type_traits/same</text>
<text text-anchor="middle" x="550.5" y="-7.5" font-family="Helvetica,sans-Serif" font-size="10.00">_traits.hpp</text>
</a>
</g>
</g>
<!-- Node1&#45;&gt;Node6 -->
<g id="edge5" class="edge">
<title>Node1&#45;&gt;Node6</title>
<path fill="none" stroke="midnightblue" d="M404.49,-67.4C435.88,-56.46 471.93,-43.89 500.35,-33.98"/>
<polygon fill="midnightblue" stroke="midnightblue" points="501.77,-37.19 510.06,-30.6 499.47,-30.58 501.77,-37.19"/>
</g>
<!-- Node7 -->
<g id="node7" class="node">
<title>Node7</title>
<g id="a_node7"><a xlink:title=" ">
<polygon fill="none" stroke="#bfbfbf" points="626.5,-6 626.5,-25 744.5,-25 744.5,-6 626.5,-6"/>
<text text-anchor="middle" x="685.5" y="-13" font-family="Helvetica,sans-Serif" font-size="10.00">boost/static_assert.hpp</text>
</a>
</g>
</g>
<!-- Node1&#45;&gt;Node7 -->
<g id="edge6" class="edge">
<title>Node1&#45;&gt;Node7</title>
<path fill="none" stroke="midnightblue" d="M413.04,-75.16C481.57,-60.41 577.83,-39.68 635.69,-27.22"/>
<polygon fill="midnightblue" stroke="midnightblue" points="636.64,-30.6 645.68,-25.07 635.17,-23.76 636.64,-30.6"/>
</g>
</g>
</svg>
