<?xml version="1.0" encoding="UTF-8" standalone="no"?>
<!DOCTYPE svg PUBLIC "-//W3C//DTD SVG 1.1//EN"
 "http://www.w3.org/Graphics/SVG/1.1/DTD/svg11.dtd">
<!-- Generated by graphviz version 2.48.0 (20210719.0153)
 -->
<!-- Title: /github/workspace/applications/mkl_solvers_application/external_includes/boost/numeric/bindings/lapack/ppsv.hpp Pages: 1 -->
<svg width="791pt" height="139pt"
 viewBox="0.00 0.00 791.00 139.00" xmlns="http://www.w3.org/2000/svg" xmlns:xlink="http://www.w3.org/1999/xlink">
<g id="graph0" class="graph" transform="scale(1 1) rotate(0) translate(4 135)">
<title>/github/workspace/applications/mkl_solvers_application/external_includes/boost/numeric/bindings/lapack/ppsv.hpp</title>
<!-- Node1 -->
<g id="node1" class="node">
<title>Node1</title>
<g id="a_node1"><a xlink:title=" ">
<polygon fill="#bfbfbf" stroke="black" points="317,-78.5 317,-130.5 478,-130.5 478,-78.5 317,-78.5"/>
<text text-anchor="start" x="325" y="-118.5" font-family="Helvetica,sans-Serif" font-size="10.00">/github/workspace/applications</text>
<text text-anchor="start" x="325" y="-107.5" font-family="Helvetica,sans-Serif" font-size="10.00">/mkl_solvers_application/external</text>
<text text-anchor="start" x="325" y="-96.5" font-family="Helvetica,sans-Serif" font-size="10.00">_includes/boost/numeric/bindings</text>
<text text-anchor="middle" x="397.5" y="-85.5" font-family="Helvetica,sans-Serif" font-size="10.00">/lapack/ppsv.hpp</text>
</a>
</g>
</g>
<!-- Node2 -->
<g id="node2" class="node">
<title>Node2</title>
<g id="a_node2"><a xlink:title=" ">
<polygon fill="none" stroke="#bfbfbf" points="0,-6 0,-36 117,-36 117,-6 0,-6"/>
<text text-anchor="start" x="8" y="-24" font-family="Helvetica,sans-Serif" font-size="10.00">boost/numeric/bindings</text>
<text text-anchor="middle" x="58.5" y="-13" font-family="Helvetica,sans-Serif" font-size="10.00">/traits/type_traits.hpp</text>
</a>
</g>
</g>
<!-- Node1&#45;&gt;Node2 -->
<g id="edge1" class="edge">
<title>Node1&#45;&gt;Node2</title>
<path fill="none" stroke="midnightblue" d="M316.82,-86.76C262.51,-75.12 189.43,-58.75 125.5,-42 121.71,-41.01 117.81,-39.95 113.89,-38.85"/>
<polygon fill="midnightblue" stroke="midnightblue" points="114.73,-35.45 104.16,-36.08 112.81,-42.18 114.73,-35.45"/>
</g>
<!-- Node3 -->
<g id="node3" class="node">
<title>Node3</title>
<g id="a_node3"><a xlink:title=" ">
<polygon fill="none" stroke="#bfbfbf" points="135,-6 135,-36 252,-36 252,-6 135,-6"/>
<text text-anchor="start" x="143" y="-24" font-family="Helvetica,sans-Serif" font-size="10.00">boost/numeric/bindings</text>
<text text-anchor="middle" x="193.5" y="-13" font-family="Helvetica,sans-Serif" font-size="10.00">/traits/traits.hpp</text>
</a>
</g>
</g>
<!-- Node1&#45;&gt;Node3 -->
<g id="edge2" class="edge">
<title>Node1&#45;&gt;Node3</title>
<path fill="none" stroke="midnightblue" d="M334.91,-78.49C303.69,-66.02 266.64,-51.22 238.3,-39.9"/>
<polygon fill="midnightblue" stroke="midnightblue" points="239.25,-36.51 228.67,-36.05 236.66,-43.01 239.25,-36.51"/>
</g>
<!-- Node4 -->
<g id="node4" class="node">
<title>Node4</title>
<g id="a_node4"><a xlink:title=" ">
<polygon fill="none" stroke="#bfbfbf" points="270,-6 270,-36 387,-36 387,-6 270,-6"/>
<text text-anchor="start" x="278" y="-24" font-family="Helvetica,sans-Serif" font-size="10.00">boost/numeric/bindings</text>
<text text-anchor="middle" x="328.5" y="-13" font-family="Helvetica,sans-Serif" font-size="10.00">/lapack/lapack.h</text>
</a>
</g>
</g>
<!-- Node1&#45;&gt;Node4 -->
<g id="edge3" class="edge">
<title>Node1&#45;&gt;Node4</title>
<path fill="none" stroke="midnightblue" d="M376.05,-78.16C366.81,-67.25 356.1,-54.6 347.19,-44.08"/>
<polygon fill="midnightblue" stroke="midnightblue" points="349.63,-41.54 340.49,-36.17 344.28,-46.06 349.63,-41.54"/>
</g>
<!-- Node5 -->
<g id="node5" class="node">
<title>Node5</title>
<g id="a_node5"><a xlink:title=" ">
<polygon fill="none" stroke="#bfbfbf" points="405.5,-0.5 405.5,-41.5 529.5,-41.5 529.5,-0.5 405.5,-0.5"/>
<text text-anchor="start" x="413.5" y="-29.5" font-family="Helvetica,sans-Serif" font-size="10.00">boost/numeric/bindings</text>
<text text-anchor="start" x="413.5" y="-18.5" font-family="Helvetica,sans-Serif" font-size="10.00">/traits/detail/symm_herm</text>
<text text-anchor="middle" x="467.5" y="-7.5" font-family="Helvetica,sans-Serif" font-size="10.00">_traits.hpp</text>
</a>
</g>
</g>
<!-- Node1&#45;&gt;Node5 -->
<g id="edge4" class="edge">
<title>Node1&#45;&gt;Node5</title>
<path fill="none" stroke="midnightblue" d="M419.26,-78.16C427.09,-69.05 435.94,-58.74 443.91,-49.46"/>
<polygon fill="midnightblue" stroke="midnightblue" points="446.78,-51.49 450.64,-41.63 441.47,-46.93 446.78,-51.49"/>
</g>
<!-- Node6 -->
<g id="node6" class="node">
<title>Node6</title>
<g id="a_node6"><a xlink:title=" ">
<polygon fill="none" stroke="#bfbfbf" points="547.5,-11.5 547.5,-30.5 665.5,-30.5 665.5,-11.5 547.5,-11.5"/>
<text text-anchor="middle" x="606.5" y="-18.5" font-family="Helvetica,sans-Serif" font-size="10.00">boost/static_assert.hpp</text>
</a>
</g>
</g>
<!-- Node1&#45;&gt;Node6 -->
<g id="edge5" class="edge">
<title>Node1&#45;&gt;Node6</title>
<path fill="none" stroke="midnightblue" d="M461.63,-78.49C499.14,-63.86 544.86,-46.04 574.78,-34.37"/>
<polygon fill="midnightblue" stroke="midnightblue" points="576.24,-37.56 584.28,-30.66 573.7,-31.04 576.24,-37.56"/>
</g>
<!-- Node7 -->
<g id="node7" class="node">
<title>Node7</title>
<g id="a_node7"><a xlink:title=" ">
<polygon fill="none" stroke="#bfbfbf" points="684,-6 684,-36 783,-36 783,-6 684,-6"/>
<text text-anchor="start" x="692" y="-24" font-family="Helvetica,sans-Serif" font-size="10.00">boost/type_traits/is</text>
<text text-anchor="middle" x="733.5" y="-13" font-family="Helvetica,sans-Serif" font-size="10.00">_same.hpp</text>
</a>
</g>
</g>
<!-- Node1&#45;&gt;Node7 -->
<g id="edge6" class="edge">
<title>Node1&#45;&gt;Node7</title>
<path fill="none" stroke="midnightblue" d="M478.07,-88.01C533.65,-76.75 609.03,-60.31 674.5,-42 677.68,-41.11 680.93,-40.15 684.21,-39.15"/>
<polygon fill="midnightblue" stroke="midnightblue" points="685.54,-42.4 694.01,-36.04 683.42,-35.73 685.54,-42.4"/>
</g>
</g>
</svg>
