<?xml version="1.0" encoding="UTF-8" standalone="no"?>
<!DOCTYPE svg PUBLIC "-//W3C//DTD SVG 1.1//EN"
 "http://www.w3.org/Graphics/SVG/1.1/DTD/svg11.dtd">
<!-- Generated by graphviz version 2.48.0 (20210719.0153)
 -->
<!-- Title: boost::numeric::ublas::container_reference&lt; C &gt; Pages: 1 -->
<svg width="387pt" height="529pt"
 viewBox="0.00 0.00 386.50 529.00" xmlns="http://www.w3.org/2000/svg" xmlns:xlink="http://www.w3.org/1999/xlink">
<g id="graph0" class="graph" transform="scale(1 1) rotate(0) translate(4 525)">
<title>boost::numeric::ublas::container_reference&lt; C &gt;</title>
<!-- Node1 -->
<g id="node1" class="node">
<title>Node1</title>
<g id="a_node1"><a xlink:title="Base class of all proxy classes that contain a (redirectable) reference to a mutable object.">
<polygon fill="#bfbfbf" stroke="black" points="135,-226.5 135,-393.5 265,-393.5 265,-226.5 135,-226.5"/>
<text text-anchor="start" x="143" y="-381.5" font-family="Helvetica,sans-Serif" font-size="10.00">boost::numeric::ublas</text>
<text text-anchor="middle" x="200" y="-370.5" font-family="Helvetica,sans-Serif" font-size="10.00">::container_reference&lt; C &gt;</text>
<polyline fill="none" stroke="black" points="135,-363.5 265,-363.5 "/>
<text text-anchor="middle" x="200" y="-351.5" font-family="Helvetica,sans-Serif" font-size="10.00"> </text>
<polyline fill="none" stroke="black" points="135,-344.5 265,-344.5 "/>
<text text-anchor="start" x="143" y="-332.5" font-family="Helvetica,sans-Serif" font-size="10.00">+ container_reference()</text>
<text text-anchor="start" x="143" y="-321.5" font-family="Helvetica,sans-Serif" font-size="10.00">+ container_reference()</text>
<text text-anchor="start" x="143" y="-310.5" font-family="Helvetica,sans-Serif" font-size="10.00">+ operator()()</text>
<text text-anchor="start" x="143" y="-299.5" font-family="Helvetica,sans-Serif" font-size="10.00">+ assign()</text>
<text text-anchor="start" x="143" y="-288.5" font-family="Helvetica,sans-Serif" font-size="10.00">+ same_closure()</text>
<text text-anchor="start" x="143" y="-277.5" font-family="Helvetica,sans-Serif" font-size="10.00">+ container_reference()</text>
<text text-anchor="start" x="143" y="-266.5" font-family="Helvetica,sans-Serif" font-size="10.00">+ container_reference()</text>
<text text-anchor="start" x="143" y="-255.5" font-family="Helvetica,sans-Serif" font-size="10.00">+ operator()()</text>
<text text-anchor="start" x="143" y="-244.5" font-family="Helvetica,sans-Serif" font-size="10.00">+ assign()</text>
<text text-anchor="start" x="143" y="-233.5" font-family="Helvetica,sans-Serif" font-size="10.00">+ same_closure()</text>
</a>
</g>
</g>
<!-- Node3 -->
<g id="node3" class="node">
<title>Node3</title>
<g id="a_node3"><a xlink:href="../../d3/d79/classboost_1_1numeric_1_1ublas_1_1indexed__iterator.html" target="_top" xlink:title="A class implementing an indexed random access iterator.">
<polygon fill="none" stroke="black" points="0,-6 0,-184 128,-184 128,-6 0,-6"/>
<text text-anchor="start" x="8" y="-172" font-family="Helvetica,sans-Serif" font-size="10.00">boost::numeric::ublas</text>
<text text-anchor="middle" x="64" y="-161" font-family="Helvetica,sans-Serif" font-size="10.00">::indexed_iterator&lt; C, IC &gt;</text>
<polyline fill="none" stroke="black" points="0,-154 128,-154 "/>
<text text-anchor="middle" x="64" y="-142" font-family="Helvetica,sans-Serif" font-size="10.00"> </text>
<polyline fill="none" stroke="black" points="0,-135 128,-135 "/>
<text text-anchor="start" x="8" y="-123" font-family="Helvetica,sans-Serif" font-size="10.00">+ indexed_iterator()</text>
<text text-anchor="start" x="8" y="-112" font-family="Helvetica,sans-Serif" font-size="10.00">+ indexed_iterator()</text>
<text text-anchor="start" x="8" y="-101" font-family="Helvetica,sans-Serif" font-size="10.00">+ operator++()</text>
<text text-anchor="start" x="8" y="-90" font-family="Helvetica,sans-Serif" font-size="10.00">+ operator&#45;&#45;()</text>
<text text-anchor="start" x="8" y="-79" font-family="Helvetica,sans-Serif" font-size="10.00">+ operator+=()</text>
<text text-anchor="start" x="8" y="-68" font-family="Helvetica,sans-Serif" font-size="10.00">+ operator&#45;=()</text>
<text text-anchor="start" x="8" y="-57" font-family="Helvetica,sans-Serif" font-size="10.00">+ operator&#45;()</text>
<text text-anchor="start" x="8" y="-46" font-family="Helvetica,sans-Serif" font-size="10.00">+ operator*()</text>
<text text-anchor="start" x="8" y="-35" font-family="Helvetica,sans-Serif" font-size="10.00">+ operator[]()</text>
<text text-anchor="start" x="8" y="-24" font-family="Helvetica,sans-Serif" font-size="10.00">+ index()</text>
<text text-anchor="start" x="8" y="-13" font-family="Helvetica,sans-Serif" font-size="10.00">and 16 more...</text>
</a>
</g>
</g>
<!-- Node1&#45;&gt;Node3 -->
<g id="edge3" class="edge">
<title>Node1&#45;&gt;Node3</title>
<path fill="none" stroke="midnightblue" d="M135.13,-217.87C127.92,-206.73 120.67,-195.35 113.69,-184.25"/>
<polygon fill="none" stroke="midnightblue" points="132.25,-219.86 140.63,-226.34 138.12,-216.05 132.25,-219.86"/>
</g>
<!-- Node1&#45;&gt;Node3 -->
<g id="edge4" class="edge">
<title>Node1&#45;&gt;Node3</title>
<path fill="none" stroke="midnightblue" d="M148.5,-217.87C141.48,-206.73 134.21,-195.35 127.01,-184.25"/>
<polygon fill="none" stroke="midnightblue" points="145.54,-219.74 153.82,-226.34 151.47,-216.01 145.54,-219.74"/>
</g>
<!-- Node4 -->
<g id="node4" class="node">
<title>Node4</title>
<g id="a_node4"><a xlink:href="../../dd/dcf/classboost_1_1numeric_1_1ublas_1_1indexed__iterator1.html" target="_top" xlink:title="A class implementing an indexed random access iterator of a matrix.">
<polygon fill="none" stroke="black" points="146.5,-0.5 146.5,-189.5 253.5,-189.5 253.5,-0.5 146.5,-0.5"/>
<text text-anchor="start" x="154.5" y="-177.5" font-family="Helvetica,sans-Serif" font-size="10.00">boost::numeric::ublas</text>
<text text-anchor="start" x="154.5" y="-166.5" font-family="Helvetica,sans-Serif" font-size="10.00">::indexed_iterator1&lt;</text>
<text text-anchor="middle" x="200" y="-155.5" font-family="Helvetica,sans-Serif" font-size="10.00"> C, IC &gt;</text>
<polyline fill="none" stroke="black" points="146.5,-148.5 253.5,-148.5 "/>
<text text-anchor="middle" x="200" y="-136.5" font-family="Helvetica,sans-Serif" font-size="10.00"> </text>
<polyline fill="none" stroke="black" points="146.5,-129.5 253.5,-129.5 "/>
<text text-anchor="start" x="154.5" y="-117.5" font-family="Helvetica,sans-Serif" font-size="10.00">+ indexed_iterator1()</text>
<text text-anchor="start" x="154.5" y="-106.5" font-family="Helvetica,sans-Serif" font-size="10.00">+ indexed_iterator1()</text>
<text text-anchor="start" x="154.5" y="-95.5" font-family="Helvetica,sans-Serif" font-size="10.00">+ operator++()</text>
<text text-anchor="start" x="154.5" y="-84.5" font-family="Helvetica,sans-Serif" font-size="10.00">+ operator&#45;&#45;()</text>
<text text-anchor="start" x="154.5" y="-73.5" font-family="Helvetica,sans-Serif" font-size="10.00">+ operator+=()</text>
<text text-anchor="start" x="154.5" y="-62.5" font-family="Helvetica,sans-Serif" font-size="10.00">+ operator&#45;=()</text>
<text text-anchor="start" x="154.5" y="-51.5" font-family="Helvetica,sans-Serif" font-size="10.00">+ operator&#45;()</text>
<text text-anchor="start" x="154.5" y="-40.5" font-family="Helvetica,sans-Serif" font-size="10.00">+ operator*()</text>
<text text-anchor="start" x="154.5" y="-29.5" font-family="Helvetica,sans-Serif" font-size="10.00">+ operator[]()</text>
<text text-anchor="start" x="154.5" y="-18.5" font-family="Helvetica,sans-Serif" font-size="10.00">+ index1()</text>
<text text-anchor="start" x="154.5" y="-7.5" font-family="Helvetica,sans-Serif" font-size="10.00">and 26 more...</text>
</a>
</g>
</g>
<!-- Node1&#45;&gt;Node4 -->
<g id="edge5" class="edge">
<title>Node1&#45;&gt;Node4</title>
<path fill="none" stroke="midnightblue" d="M193.3,-216.09C193.24,-207.3 193.23,-198.38 193.29,-189.58"/>
<polygon fill="none" stroke="midnightblue" points="189.8,-216.38 193.4,-226.34 196.8,-216.31 189.8,-216.38"/>
</g>
<!-- Node1&#45;&gt;Node4 -->
<g id="edge6" class="edge">
<title>Node1&#45;&gt;Node4</title>
<path fill="none" stroke="midnightblue" d="M206.7,-216.09C206.76,-207.3 206.77,-198.38 206.71,-189.58"/>
<polygon fill="none" stroke="midnightblue" points="203.2,-216.31 206.6,-226.34 210.2,-216.38 203.2,-216.31"/>
</g>
<!-- Node5 -->
<g id="node5" class="node">
<title>Node5</title>
<g id="a_node5"><a xlink:href="../../da/d40/classboost_1_1numeric_1_1ublas_1_1indexed__iterator2.html" target="_top" xlink:title="A class implementing an indexed random access iterator of a matrix.">
<polygon fill="none" stroke="black" points="271.5,-0.5 271.5,-189.5 378.5,-189.5 378.5,-0.5 271.5,-0.5"/>
<text text-anchor="start" x="279.5" y="-177.5" font-family="Helvetica,sans-Serif" font-size="10.00">boost::numeric::ublas</text>
<text text-anchor="start" x="279.5" y="-166.5" font-family="Helvetica,sans-Serif" font-size="10.00">::indexed_iterator2&lt;</text>
<text text-anchor="middle" x="325" y="-155.5" font-family="Helvetica,sans-Serif" font-size="10.00"> C, IC &gt;</text>
<polyline fill="none" stroke="black" points="271.5,-148.5 378.5,-148.5 "/>
<text text-anchor="middle" x="325" y="-136.5" font-family="Helvetica,sans-Serif" font-size="10.00"> </text>
<polyline fill="none" stroke="black" points="271.5,-129.5 378.5,-129.5 "/>
<text text-anchor="start" x="279.5" y="-117.5" font-family="Helvetica,sans-Serif" font-size="10.00">+ indexed_iterator2()</text>
<text text-anchor="start" x="279.5" y="-106.5" font-family="Helvetica,sans-Serif" font-size="10.00">+ indexed_iterator2()</text>
<text text-anchor="start" x="279.5" y="-95.5" font-family="Helvetica,sans-Serif" font-size="10.00">+ operator++()</text>
<text text-anchor="start" x="279.5" y="-84.5" font-family="Helvetica,sans-Serif" font-size="10.00">+ operator&#45;&#45;()</text>
<text text-anchor="start" x="279.5" y="-73.5" font-family="Helvetica,sans-Serif" font-size="10.00">+ operator+=()</text>
<text text-anchor="start" x="279.5" y="-62.5" font-family="Helvetica,sans-Serif" font-size="10.00">+ operator&#45;=()</text>
<text text-anchor="start" x="279.5" y="-51.5" font-family="Helvetica,sans-Serif" font-size="10.00">+ operator&#45;()</text>
<text text-anchor="start" x="279.5" y="-40.5" font-family="Helvetica,sans-Serif" font-size="10.00">+ operator*()</text>
<text text-anchor="start" x="279.5" y="-29.5" font-family="Helvetica,sans-Serif" font-size="10.00">+ operator[]()</text>
<text text-anchor="start" x="279.5" y="-18.5" font-family="Helvetica,sans-Serif" font-size="10.00">+ index1()</text>
<text text-anchor="start" x="279.5" y="-7.5" font-family="Helvetica,sans-Serif" font-size="10.00">and 26 more...</text>
</a>
</g>
</g>
<!-- Node1&#45;&gt;Node5 -->
<g id="edge7" class="edge">
<title>Node1&#45;&gt;Node5</title>
<path fill="none" stroke="midnightblue" d="M247.07,-217.39C255.01,-203.67 263.3,-189.62 271.39,-176.16"/>
<polygon fill="none" stroke="midnightblue" points="243.87,-215.93 241.91,-226.34 249.94,-219.43 243.87,-215.93"/>
</g>
<!-- Node1&#45;&gt;Node5 -->
<g id="edge8" class="edge">
<title>Node1&#45;&gt;Node5</title>
<path fill="none" stroke="midnightblue" d="M260.37,-217.53C265.88,-208.27 271.41,-198.86 276.79,-189.58"/>
<polygon fill="none" stroke="midnightblue" points="257.23,-215.96 255.1,-226.34 263.24,-219.55 257.23,-215.96"/>
</g>
<!-- Node2 -->
<g id="node2" class="node">
<title>Node2</title>
<g id="a_node2"><a xlink:href="../../d2/dbf/classboost_1_1numeric_1_1ublas_1_1nonassignable___1_1nonassignable.html" target="_top" xlink:title=" ">
<polygon fill="none" stroke="black" points="151,-430.5 151,-520.5 249,-520.5 249,-430.5 151,-430.5"/>
<text text-anchor="middle" x="200" y="-508.5" font-family="Helvetica,sans-Serif" font-size="10.00">nonassignable</text>
<polyline fill="none" stroke="black" points="151,-501.5 249,-501.5 "/>
<text text-anchor="middle" x="200" y="-489.5" font-family="Helvetica,sans-Serif" font-size="10.00"> </text>
<polyline fill="none" stroke="black" points="151,-482.5 249,-482.5 "/>
<text text-anchor="start" x="159" y="-470.5" font-family="Helvetica,sans-Serif" font-size="10.00"># nonassignable()</text>
<text text-anchor="start" x="159" y="-459.5" font-family="Helvetica,sans-Serif" font-size="10.00"># ~nonassignable()</text>
<text text-anchor="start" x="159" y="-448.5" font-family="Helvetica,sans-Serif" font-size="10.00"># nonassignable()</text>
<text text-anchor="start" x="159" y="-437.5" font-family="Helvetica,sans-Serif" font-size="10.00"># ~nonassignable()</text>
</a>
</g>
</g>
<!-- Node2&#45;&gt;Node1 -->
<g id="edge1" class="edge">
<title>Node2&#45;&gt;Node1</title>
<path fill="none" stroke="#8b1a1a" d="M193.6,-420.13C193.37,-411.63 193.26,-402.68 193.25,-393.72"/>
<polygon fill="none" stroke="#8b1a1a" points="190.1,-420.37 193.93,-430.25 197.1,-420.15 190.1,-420.37"/>
</g>
<!-- Node2&#45;&gt;Node1 -->
<g id="edge2" class="edge">
<title>Node2&#45;&gt;Node1</title>
<path fill="none" stroke="#8b1a1a" d="M206.4,-420.13C206.63,-411.63 206.74,-402.68 206.75,-393.72"/>
<polygon fill="none" stroke="#8b1a1a" points="202.9,-420.15 206.07,-430.25 209.9,-420.37 202.9,-420.15"/>
</g>
</g>
</svg>
