<?xml version="1.0" encoding="UTF-8" standalone="no"?>
<!DOCTYPE svg PUBLIC "-//W3C//DTD SVG 1.1//EN"
 "http://www.w3.org/Graphics/SVG/1.1/DTD/svg11.dtd">
<!-- Generated by graphviz version 2.48.0 (20210719.0153)
 -->
<!-- Title: /github/workspace/applications/structural_application/custom_utilities/sd_math_utils.h Pages: 1 -->
<!--zoomable 306 -->
<svg id="main" version="1.1" xmlns="http://www.w3.org/2000/svg" xmlns:xlink="http://www.w3.org/1999/xlink" xml:space="preserve" onload="init(evt)">
<style type="text/css"><![CDATA[
.edge:hover path { stroke: red; }
.edge:hover polygon { stroke: red; fill: red; }
]]></style>
<script type="text/javascript"><![CDATA[
var edges = document.getElementsByTagName('g');
if (edges && edges.length) {
  for (var i=0;i<edges.length;i++) {
    if (edges[i].id.substr(0,4)=='edge') {
      edges[i].setAttribute('class','edge');
    }
  }
}
]]></script>
        <defs>
                <circle id="rim" cx="0" cy="0" r="7"/>
                <circle id="rim2" cx="0" cy="0" r="3.5"/>
                <g id="zoomPlus">
                        <use xlink:href="#rim" fill="#404040">
                                <set attributeName="fill" to="#808080" begin="zoomplus.mouseover" end="zoomplus.mouseout"/>
                        </use>
                        <path d="M-4,0h8M0,-4v8" fill="none" stroke="white" stroke-width="1.5" pointer-events="none"/>
                </g>
                <g id="zoomMin">
                        <use xlink:href="#rim" fill="#404040">
                                <set attributeName="fill" to="#808080" begin="zoomminus.mouseover" end="zoomminus.mouseout"/>
                        </use>
                        <path d="M-4,0h8" fill="none" stroke="white" stroke-width="1.5" pointer-events="none"/>
                </g>
                <g id="dirArrow">
                        <path fill="none" stroke="white" stroke-width="1.5" d="M0,-3.0v7 M-2.5,-0.5L0,-3.0L2.5,-0.5"/>
                </g>
               <g id="resetDef">
                       <use xlink:href="#rim2" fill="#404040">
                               <set attributeName="fill" to="#808080" begin="reset.mouseover" end="reset.mouseout"/>
                       </use>
               </g>
        </defs>

<script type="text/javascript">
var viewWidth = 5646;
var viewHeight = 306;
var sectionId = 'dynsection-1';
</script>
<script xlink:href="../../svgpan.js"/>
<svg id="graph" class="graph">
<g id="viewport">
<title>/github/workspace/applications/structural_application/custom_utilities/sd_math_utils.h</title>
<!-- Node1 -->
<g id="node1" class="node">
<title>Node1</title>
<g id="a_node1"><a xlink:title=" ">
<polygon fill="#bfbfbf" stroke="black" points="2815,-256.5 2815,-297.5 2966,-297.5 2966,-256.5 2815,-256.5"/>
<text text-anchor="start" x="2823" y="-285.5" font-family="Helvetica,sans-Serif" font-size="10.00">/github/workspace/applications</text>
<text text-anchor="start" x="2823" y="-274.5" font-family="Helvetica,sans-Serif" font-size="10.00">/structural_application/custom</text>
<text text-anchor="middle" x="2890.5" y="-263.5" font-family="Helvetica,sans-Serif" font-size="10.00">_utilities/sd_math_utils.h</text>
</a>
</g>
</g>
<!-- Node2 -->
<g id="node2" class="node">
<title>Node2</title>
<g id="a_node2"><a xlink:href="../../da/db4/drucker__prager_8cpp.html" target="_top" xlink:title=" ">
<polygon fill="none" stroke="black" points="0,-173 0,-214 165,-214 165,-173 0,-173"/>
<text text-anchor="start" x="8" y="-202" font-family="Helvetica,sans-Serif" font-size="10.00">/github/workspace/applications</text>
<text text-anchor="start" x="8" y="-191" font-family="Helvetica,sans-Serif" font-size="10.00">/structural_application/constitutive</text>
<text text-anchor="middle" x="82.5" y="-180" font-family="Helvetica,sans-Serif" font-size="10.00">_laws/drucker_prager.cpp</text>
</a>
</g>
</g>
<!-- Node1&#45;&gt;Node2 -->
<g id="edge1" class="edge">
<title>Node1&#45;&gt;Node2</title>
<path fill="none" stroke="midnightblue" d="M2804.53,-275.52C2371.39,-272.92 438.47,-259.21 173.5,-220 163.92,-218.58 153.93,-216.46 144.22,-214.04"/>
<polygon fill="midnightblue" stroke="midnightblue" points="2804.77,-279.02 2814.79,-275.58 2804.81,-272.02 2804.77,-279.02"/>
</g>
<!-- Node3 -->
<g id="node3" class="node">
<title>Node3</title>
<g id="a_node3"><a xlink:href="../../da/df3/drucker__prager__law_8cpp.html" target="_top" xlink:title=" ">
<polygon fill="none" stroke="black" points="183,-173 183,-214 348,-214 348,-173 183,-173"/>
<text text-anchor="start" x="191" y="-202" font-family="Helvetica,sans-Serif" font-size="10.00">/github/workspace/applications</text>
<text text-anchor="start" x="191" y="-191" font-family="Helvetica,sans-Serif" font-size="10.00">/structural_application/constitutive</text>
<text text-anchor="middle" x="265.5" y="-180" font-family="Helvetica,sans-Serif" font-size="10.00">_laws/drucker_prager_law.cpp</text>
</a>
</g>
</g>
<!-- Node1&#45;&gt;Node3 -->
<g id="edge2" class="edge">
<title>Node1&#45;&gt;Node3</title>
<path fill="none" stroke="midnightblue" d="M2804.64,-275.38C2389.75,-272.22 602.47,-256.58 356.5,-220 346.93,-218.58 336.93,-216.45 327.22,-214.03"/>
<polygon fill="midnightblue" stroke="midnightblue" points="2804.74,-278.88 2814.77,-275.46 2804.8,-271.88 2804.74,-278.88"/>
</g>
<!-- Node4 -->
<g id="node4" class="node">
<title>Node4</title>
<g id="a_node4"><a xlink:href="../../de/dd4/hooks__law_8cpp.html" target="_top" xlink:title=" ">
<polygon fill="none" stroke="black" points="366,-173 366,-214 531,-214 531,-173 366,-173"/>
<text text-anchor="start" x="374" y="-202" font-family="Helvetica,sans-Serif" font-size="10.00">/github/workspace/applications</text>
<text text-anchor="start" x="374" y="-191" font-family="Helvetica,sans-Serif" font-size="10.00">/structural_application/constitutive</text>
<text text-anchor="middle" x="448.5" y="-180" font-family="Helvetica,sans-Serif" font-size="10.00">_laws/hooks_law.cpp</text>
</a>
</g>
</g>
<!-- Node1&#45;&gt;Node4 -->
<g id="edge3" class="edge">
<title>Node1&#45;&gt;Node4</title>
<path fill="none" stroke="midnightblue" d="M2804.46,-275.22C2407.96,-271.46 766.44,-253.95 539.5,-220 529.93,-218.57 519.93,-216.44 510.22,-214.02"/>
<polygon fill="midnightblue" stroke="midnightblue" points="2804.68,-278.72 2814.71,-275.32 2804.75,-271.72 2804.68,-278.72"/>
</g>
<!-- Node5 -->
<g id="node5" class="node">
<title>Node5</title>
<g id="a_node5"><a xlink:href="../../d9/d8c/hyperelastic__2d_8cpp.html" target="_top" xlink:title=" ">
<polygon fill="none" stroke="black" points="549,-173 549,-214 714,-214 714,-173 549,-173"/>
<text text-anchor="start" x="557" y="-202" font-family="Helvetica,sans-Serif" font-size="10.00">/github/workspace/applications</text>
<text text-anchor="start" x="557" y="-191" font-family="Helvetica,sans-Serif" font-size="10.00">/structural_application/constitutive</text>
<text text-anchor="middle" x="631.5" y="-180" font-family="Helvetica,sans-Serif" font-size="10.00">_laws/hyperelastic_2d.cpp</text>
</a>
</g>
</g>
<!-- Node1&#45;&gt;Node5 -->
<g id="edge4" class="edge">
<title>Node1&#45;&gt;Node5</title>
<path fill="none" stroke="midnightblue" d="M2804.73,-275.04C2428.13,-270.65 930.55,-251.34 722.5,-220 713.09,-218.58 703.27,-216.5 693.72,-214.12"/>
<polygon fill="midnightblue" stroke="midnightblue" points="2804.71,-278.54 2814.75,-275.15 2804.79,-271.54 2804.71,-278.54"/>
</g>
<!-- Node6 -->
<g id="node6" class="node">
<title>Node6</title>
<g id="a_node6"><a xlink:href="../../d3/dea/hyperelastic__3d_8cpp.html" target="_top" xlink:title=" ">
<polygon fill="none" stroke="black" points="732,-173 732,-214 897,-214 897,-173 732,-173"/>
<text text-anchor="start" x="740" y="-202" font-family="Helvetica,sans-Serif" font-size="10.00">/github/workspace/applications</text>
<text text-anchor="start" x="740" y="-191" font-family="Helvetica,sans-Serif" font-size="10.00">/structural_application/constitutive</text>
<text text-anchor="middle" x="814.5" y="-180" font-family="Helvetica,sans-Serif" font-size="10.00">_laws/hyperelastic_3d.cpp</text>
</a>
</g>
</g>
<!-- Node1&#45;&gt;Node6 -->
<g id="edge5" class="edge">
<title>Node1&#45;&gt;Node6</title>
<path fill="none" stroke="midnightblue" d="M2804.78,-276.37C2473.92,-277.37 1279.96,-276.87 905.5,-220 896.09,-218.57 886.28,-216.48 876.72,-214.1"/>
<polygon fill="midnightblue" stroke="midnightblue" points="2804.79,-279.87 2814.78,-276.34 2804.77,-272.87 2804.79,-279.87"/>
</g>
<!-- Node7 -->
<g id="node7" class="node">
<title>Node7</title>
<g id="a_node7"><a xlink:href="../../dc/db1/hypoelastic__2d_8cpp.html" target="_top" xlink:title=" ">
<polygon fill="none" stroke="black" points="915,-173 915,-214 1080,-214 1080,-173 915,-173"/>
<text text-anchor="start" x="923" y="-202" font-family="Helvetica,sans-Serif" font-size="10.00">/github/workspace/applications</text>
<text text-anchor="start" x="923" y="-191" font-family="Helvetica,sans-Serif" font-size="10.00">/structural_application/constitutive</text>
<text text-anchor="middle" x="997.5" y="-180" font-family="Helvetica,sans-Serif" font-size="10.00">_laws/hypoelastic_2d.cpp</text>
</a>
</g>
</g>
<!-- Node1&#45;&gt;Node7 -->
<g id="edge6" class="edge">
<title>Node1&#45;&gt;Node7</title>
<path fill="none" stroke="midnightblue" d="M2804.56,-275.89C2494,-275.09 1430.57,-268.77 1094.5,-220 1084.42,-218.54 1073.88,-216.41 1063.62,-214"/>
<polygon fill="midnightblue" stroke="midnightblue" points="2804.84,-279.39 2814.85,-275.91 2804.85,-272.39 2804.84,-279.39"/>
</g>
<!-- Node8 -->
<g id="node8" class="node">
<title>Node8</title>
<g id="a_node8"><a xlink:href="../../d6/da7/_isotropic___damage_8cpp.html" target="_top" xlink:title=" ">
<polygon fill="none" stroke="black" points="1078,-89.5 1078,-130.5 1243,-130.5 1243,-89.5 1078,-89.5"/>
<text text-anchor="start" x="1086" y="-118.5" font-family="Helvetica,sans-Serif" font-size="10.00">/github/workspace/applications</text>
<text text-anchor="start" x="1086" y="-107.5" font-family="Helvetica,sans-Serif" font-size="10.00">/structural_application/constitutive</text>
<text text-anchor="middle" x="1160.5" y="-96.5" font-family="Helvetica,sans-Serif" font-size="10.00">_laws/Isotropic_Damage.cpp</text>
</a>
</g>
</g>
<!-- Node1&#45;&gt;Node8 -->
<g id="edge7" class="edge">
<title>Node1&#45;&gt;Node8</title>
<path fill="none" stroke="midnightblue" d="M2804.69,-274.88C2455.32,-270.13 1157,-250.45 1127.5,-220 1103.84,-195.57 1126.87,-154.77 1144.53,-130.62"/>
<polygon fill="midnightblue" stroke="midnightblue" points="2804.71,-278.38 2814.75,-275.02 2804.8,-271.38 2804.71,-278.38"/>
</g>
<!-- Node9 -->
<g id="node9" class="node">
<title>Node9</title>
<g id="a_node9"><a xlink:href="../../d8/de9/_isotropic___damage__3_d_8cpp.html" target="_top" xlink:title=" ">
<polygon fill="none" stroke="black" points="3196,-89.5 3196,-130.5 3361,-130.5 3361,-89.5 3196,-89.5"/>
<text text-anchor="start" x="3204" y="-118.5" font-family="Helvetica,sans-Serif" font-size="10.00">/github/workspace/applications</text>
<text text-anchor="start" x="3204" y="-107.5" font-family="Helvetica,sans-Serif" font-size="10.00">/structural_application/constitutive</text>
<text text-anchor="middle" x="3278.5" y="-96.5" font-family="Helvetica,sans-Serif" font-size="10.00">_laws/Isotropic_Damage_3D.cpp</text>
</a>
</g>
</g>
<!-- Node1&#45;&gt;Node9 -->
<g id="edge8" class="edge">
<title>Node1&#45;&gt;Node9</title>
<path fill="none" stroke="midnightblue" d="M2976.06,-275.41C3373.92,-272.47 5025.46,-258.01 5062.5,-220 5078.94,-203.13 5078.89,-183.92 5062.5,-167 5032.53,-136.07 3708.5,-116.62 3361.2,-112.04"/>
<polygon fill="midnightblue" stroke="midnightblue" points="2976.03,-271.91 2966.05,-275.48 2976.08,-278.91 2976.03,-271.91"/>
</g>
<!-- Node10 -->
<g id="node10" class="node">
<title>Node10</title>
<g id="a_node10"><a xlink:href="../../d4/d1a/isotropic__elastic__large__strain_8cpp.html" target="_top" xlink:title=" ">
<polygon fill="none" stroke="black" points="1306,-173 1306,-214 1495,-214 1495,-173 1306,-173"/>
<text text-anchor="start" x="1314" y="-202" font-family="Helvetica,sans-Serif" font-size="10.00">/github/workspace/applications</text>
<text text-anchor="start" x="1314" y="-191" font-family="Helvetica,sans-Serif" font-size="10.00">/structural_application/constitutive</text>
<text text-anchor="middle" x="1400.5" y="-180" font-family="Helvetica,sans-Serif" font-size="10.00">_laws/isotropic_elastic_large_strain.cpp</text>
</a>
</g>
</g>
<!-- Node1&#45;&gt;Node10 -->
<g id="edge9" class="edge">
<title>Node1&#45;&gt;Node10</title>
<path fill="none" stroke="midnightblue" d="M2804.69,-274.81C2542.85,-270.81 1756.6,-256.06 1503.5,-220 1493.01,-218.51 1482.04,-216.4 1471.33,-214.02"/>
<polygon fill="midnightblue" stroke="midnightblue" points="2804.85,-278.31 2814.9,-274.96 2804.96,-271.31 2804.85,-278.31"/>
</g>
<!-- Node11 -->
<g id="node11" class="node">
<title>Node11</title>
<g id="a_node11"><a xlink:href="../../d0/d5e/isotropic__linear__elastic_8cpp.html" target="_top" xlink:title=" ">
<polygon fill="none" stroke="black" points="1513,-173 1513,-214 1678,-214 1678,-173 1513,-173"/>
<text text-anchor="start" x="1521" y="-202" font-family="Helvetica,sans-Serif" font-size="10.00">/github/workspace/applications</text>
<text text-anchor="start" x="1521" y="-191" font-family="Helvetica,sans-Serif" font-size="10.00">/structural_application/constitutive</text>
<text text-anchor="middle" x="1595.5" y="-180" font-family="Helvetica,sans-Serif" font-size="10.00">_laws/isotropic_linear_elastic.cpp</text>
</a>
</g>
</g>
<!-- Node1&#45;&gt;Node11 -->
<g id="edge10" class="edge">
<title>Node1&#45;&gt;Node11</title>
<path fill="none" stroke="midnightblue" d="M2804.28,-274.53C2566.02,-270.05 1902.02,-254.75 1686.5,-220 1677.27,-218.51 1667.63,-216.42 1658.24,-214.07"/>
<polygon fill="midnightblue" stroke="midnightblue" points="2804.56,-278.03 2814.62,-274.72 2804.69,-271.03 2804.56,-278.03"/>
</g>
<!-- Node12 -->
<g id="node12" class="node">
<title>Node12</title>
<g id="a_node12"><a xlink:href="../../d3/d6e/vonmiseskinemver3d_8cpp.html" target="_top" xlink:title=" ">
<polygon fill="none" stroke="black" points="1696,-173 1696,-214 1861,-214 1861,-173 1696,-173"/>
<text text-anchor="start" x="1704" y="-202" font-family="Helvetica,sans-Serif" font-size="10.00">/github/workspace/applications</text>
<text text-anchor="start" x="1704" y="-191" font-family="Helvetica,sans-Serif" font-size="10.00">/structural_application/constitutive</text>
<text text-anchor="middle" x="1778.5" y="-180" font-family="Helvetica,sans-Serif" font-size="10.00">_laws/vonmiseskinemver3d.cpp</text>
</a>
</g>
</g>
<!-- Node1&#45;&gt;Node12 -->
<g id="edge11" class="edge">
<title>Node1&#45;&gt;Node12</title>
<path fill="none" stroke="midnightblue" d="M2804.6,-273.7C2592.56,-267.64 2048.5,-249.62 1869.5,-220 1860.27,-218.47 1850.64,-216.36 1841.25,-214"/>
<polygon fill="midnightblue" stroke="midnightblue" points="2804.66,-277.21 2814.75,-273.99 2804.86,-270.21 2804.66,-277.21"/>
</g>
<!-- Node13 -->
<g id="node13" class="node">
<title>Node13</title>
<g id="a_node13"><a xlink:href="../../da/d3d/contact__link__3_d_8cpp.html" target="_top" xlink:title=" ">
<polygon fill="none" stroke="black" points="1879,-173 1879,-214 2036,-214 2036,-173 1879,-173"/>
<text text-anchor="start" x="1887" y="-202" font-family="Helvetica,sans-Serif" font-size="10.00">/github/workspace/applications</text>
<text text-anchor="start" x="1887" y="-191" font-family="Helvetica,sans-Serif" font-size="10.00">/structural_application/custom</text>
<text text-anchor="middle" x="1957.5" y="-180" font-family="Helvetica,sans-Serif" font-size="10.00">_conditions/contact_link_3D.cpp</text>
</a>
</g>
</g>
<!-- Node1&#45;&gt;Node13 -->
<g id="edge12" class="edge">
<title>Node1&#45;&gt;Node13</title>
<path fill="none" stroke="midnightblue" d="M2804.66,-276.4C2651.14,-275.76 2319.93,-268.27 2045.5,-220 2036.73,-218.46 2027.58,-216.37 2018.65,-214.05"/>
<polygon fill="midnightblue" stroke="midnightblue" points="2804.95,-279.9 2814.96,-276.43 2804.97,-272.9 2804.95,-279.9"/>
</g>
<!-- Node14 -->
<g id="node14" class="node">
<title>Node14</title>
<g id="a_node14"><a xlink:href="../../d1/d7f/contact__link__3_d__newmark_8cpp.html" target="_top" xlink:title=" ">
<polygon fill="none" stroke="black" points="2054.5,-173 2054.5,-214 2256.5,-214 2256.5,-173 2054.5,-173"/>
<text text-anchor="start" x="2062.5" y="-202" font-family="Helvetica,sans-Serif" font-size="10.00">/github/workspace/applications</text>
<text text-anchor="start" x="2062.5" y="-191" font-family="Helvetica,sans-Serif" font-size="10.00">/structural_application/custom</text>
<text text-anchor="middle" x="2155.5" y="-180" font-family="Helvetica,sans-Serif" font-size="10.00">_conditions/contact_link_3D_newmark.cpp</text>
</a>
</g>
</g>
<!-- Node1&#45;&gt;Node14 -->
<g id="edge13" class="edge">
<title>Node1&#45;&gt;Node14</title>
<path fill="none" stroke="midnightblue" d="M2804.25,-272.05C2683.26,-265.66 2456.53,-250.55 2265.5,-220 2255.14,-218.34 2244.31,-216.27 2233.66,-214.02"/>
<polygon fill="midnightblue" stroke="midnightblue" points="2804.39,-275.57 2814.56,-272.59 2804.75,-268.58 2804.39,-275.57"/>
</g>
<!-- Node15 -->
<g id="node15" class="node">
<title>Node15</title>
<g id="a_node15"><a xlink:href="../../d5/df8/face3_d_8cpp.html" target="_top" xlink:title=" ">
<polygon fill="none" stroke="black" points="2275,-173 2275,-214 2426,-214 2426,-173 2275,-173"/>
<text text-anchor="start" x="2283" y="-202" font-family="Helvetica,sans-Serif" font-size="10.00">/github/workspace/applications</text>
<text text-anchor="start" x="2283" y="-191" font-family="Helvetica,sans-Serif" font-size="10.00">/structural_application/custom</text>
<text text-anchor="middle" x="2350.5" y="-180" font-family="Helvetica,sans-Serif" font-size="10.00">_conditions/face3D.cpp</text>
</a>
</g>
</g>
<!-- Node1&#45;&gt;Node15 -->
<g id="edge14" class="edge">
<title>Node1&#45;&gt;Node15</title>
<path fill="none" stroke="midnightblue" d="M2804.68,-269.9C2712.48,-262.32 2561.99,-246.97 2434.5,-220 2426.6,-218.33 2418.37,-216.26 2410.28,-214.02"/>
<polygon fill="midnightblue" stroke="midnightblue" points="2804.55,-273.4 2814.8,-270.72 2805.12,-266.43 2804.55,-273.4"/>
</g>
<!-- Node16 -->
<g id="node16" class="node">
<title>Node16</title>
<g id="a_node16"><a xlink:href="../../d6/dce/face__pressure3_d_8cpp.html" target="_top" xlink:title=" ">
<polygon fill="none" stroke="black" points="2444,-173 2444,-214 2605,-214 2605,-173 2444,-173"/>
<text text-anchor="start" x="2452" y="-202" font-family="Helvetica,sans-Serif" font-size="10.00">/github/workspace/applications</text>
<text text-anchor="start" x="2452" y="-191" font-family="Helvetica,sans-Serif" font-size="10.00">/structural_application/custom</text>
<text text-anchor="middle" x="2524.5" y="-180" font-family="Helvetica,sans-Serif" font-size="10.00">_conditions/face_pressure3D.cpp</text>
</a>
</g>
</g>
<!-- Node1&#45;&gt;Node16 -->
<g id="edge15" class="edge">
<title>Node1&#45;&gt;Node16</title>
<path fill="none" stroke="midnightblue" d="M2804.85,-260.51C2749.92,-250.12 2677.22,-235.54 2613.5,-220 2606,-218.17 2598.19,-216.13 2590.44,-214.03"/>
<polygon fill="midnightblue" stroke="midnightblue" points="2804.42,-263.99 2814.9,-262.4 2805.72,-257.11 2804.42,-263.99"/>
</g>
<!-- Node17 -->
<g id="node17" class="node">
<title>Node17</title>
<g id="a_node17"><a xlink:href="../../d6/d1f/faceforce3_d_8cpp.html" target="_top" xlink:title=" ">
<polygon fill="none" stroke="black" points="2623,-173 2623,-214 2774,-214 2774,-173 2623,-173"/>
<text text-anchor="start" x="2631" y="-202" font-family="Helvetica,sans-Serif" font-size="10.00">/github/workspace/applications</text>
<text text-anchor="start" x="2631" y="-191" font-family="Helvetica,sans-Serif" font-size="10.00">/structural_application/custom</text>
<text text-anchor="middle" x="2698.5" y="-180" font-family="Helvetica,sans-Serif" font-size="10.00">_conditions/faceforce3D.cpp</text>
</a>
</g>
</g>
<!-- Node1&#45;&gt;Node17 -->
<g id="edge16" class="edge">
<title>Node1&#45;&gt;Node17</title>
<path fill="none" stroke="midnightblue" d="M2835.02,-252.45C2806.3,-240.26 2771.65,-225.55 2744.45,-214"/>
<polygon fill="midnightblue" stroke="midnightblue" points="2833.94,-255.79 2844.51,-256.48 2836.67,-249.35 2833.94,-255.79"/>
</g>
<!-- Node18 -->
<g id="node18" class="node">
<title>Node18</title>
<g id="a_node18"><a xlink:href="../../d5/d1f/master__contact__face__3_d_8cpp.html" target="_top" xlink:title=" ">
<polygon fill="none" stroke="black" points="2792.5,-173 2792.5,-214 2988.5,-214 2988.5,-173 2792.5,-173"/>
<text text-anchor="start" x="2800.5" y="-202" font-family="Helvetica,sans-Serif" font-size="10.00">/github/workspace/applications</text>
<text text-anchor="start" x="2800.5" y="-191" font-family="Helvetica,sans-Serif" font-size="10.00">/structural_application/custom</text>
<text text-anchor="middle" x="2890.5" y="-180" font-family="Helvetica,sans-Serif" font-size="10.00">_conditions/master_contact_face_3D.cpp</text>
</a>
</g>
</g>
<!-- Node1&#45;&gt;Node18 -->
<g id="edge17" class="edge">
<title>Node1&#45;&gt;Node18</title>
<path fill="none" stroke="midnightblue" d="M2890.5,-246.06C2890.5,-235.38 2890.5,-223.63 2890.5,-214.05"/>
<polygon fill="midnightblue" stroke="midnightblue" points="2887,-246.27 2890.5,-256.27 2894,-246.27 2887,-246.27"/>
</g>
<!-- Node19 -->
<g id="node19" class="node">
<title>Node19</title>
<g id="a_node19"><a xlink:href="../../d0/d6a/master__contact__face__3_d__newmark_8cpp.html" target="_top" xlink:title=" ">
<polygon fill="none" stroke="black" points="3007,-167.5 3007,-219.5 3168,-219.5 3168,-167.5 3007,-167.5"/>
<text text-anchor="start" x="3015" y="-207.5" font-family="Helvetica,sans-Serif" font-size="10.00">/github/workspace/applications</text>
<text text-anchor="start" x="3015" y="-196.5" font-family="Helvetica,sans-Serif" font-size="10.00">/structural_application/custom</text>
<text text-anchor="start" x="3015" y="-185.5" font-family="Helvetica,sans-Serif" font-size="10.00">_conditions/master_contact_face</text>
<text text-anchor="middle" x="3087.5" y="-174.5" font-family="Helvetica,sans-Serif" font-size="10.00">_3D_newmark.cpp</text>
</a>
</g>
</g>
<!-- Node1&#45;&gt;Node19 -->
<g id="edge18" class="edge">
<title>Node1&#45;&gt;Node19</title>
<path fill="none" stroke="midnightblue" d="M2947.03,-252.61C2972.02,-242.28 3001.44,-230.1 3026.89,-219.58"/>
<polygon fill="midnightblue" stroke="midnightblue" points="2945.59,-249.42 2937.69,-256.48 2948.26,-255.89 2945.59,-249.42"/>
</g>
<!-- Node20 -->
<g id="node20" class="node">
<title>Node20</title>
<g id="a_node20"><a xlink:href="../../d6/d7b/slave__contact__face__3_d_8cpp.html" target="_top" xlink:title=" ">
<polygon fill="none" stroke="black" points="3186,-173 3186,-214 3375,-214 3375,-173 3186,-173"/>
<text text-anchor="start" x="3194" y="-202" font-family="Helvetica,sans-Serif" font-size="10.00">/github/workspace/applications</text>
<text text-anchor="start" x="3194" y="-191" font-family="Helvetica,sans-Serif" font-size="10.00">/structural_application/custom</text>
<text text-anchor="middle" x="3280.5" y="-180" font-family="Helvetica,sans-Serif" font-size="10.00">_conditions/slave_contact_face_3D.cpp</text>
</a>
</g>
</g>
<!-- Node1&#45;&gt;Node20 -->
<g id="edge19" class="edge">
<title>Node1&#45;&gt;Node20</title>
<path fill="none" stroke="midnightblue" d="M2976.31,-260.29C3033.23,-249.6 3109.5,-234.77 3176.5,-220 3184.94,-218.14 3193.75,-216.11 3202.51,-214.04"/>
<polygon fill="midnightblue" stroke="midnightblue" points="2975.46,-256.89 2966.27,-262.17 2976.75,-263.77 2975.46,-256.89"/>
</g>
<!-- Node21 -->
<g id="node21" class="node">
<title>Node21</title>
<g id="a_node21"><a xlink:href="../../d5/d27/slave__contact__face__3_d__newmark_8cpp.html" target="_top" xlink:title=" ">
<polygon fill="none" stroke="black" points="3393.5,-167.5 3393.5,-219.5 3547.5,-219.5 3547.5,-167.5 3393.5,-167.5"/>
<text text-anchor="start" x="3401.5" y="-207.5" font-family="Helvetica,sans-Serif" font-size="10.00">/github/workspace/applications</text>
<text text-anchor="start" x="3401.5" y="-196.5" font-family="Helvetica,sans-Serif" font-size="10.00">/structural_application/custom</text>
<text text-anchor="start" x="3401.5" y="-185.5" font-family="Helvetica,sans-Serif" font-size="10.00">_conditions/slave_contact_face</text>
<text text-anchor="middle" x="3470.5" y="-174.5" font-family="Helvetica,sans-Serif" font-size="10.00">_3D_newmark.cpp</text>
</a>
</g>
</g>
<!-- Node1&#45;&gt;Node21 -->
<g id="edge20" class="edge">
<title>Node1&#45;&gt;Node21</title>
<path fill="none" stroke="midnightblue" d="M2976.54,-270.73C3075.48,-263.63 3242.41,-248.47 3383.5,-220 3386.74,-219.35 3390.03,-218.63 3393.35,-217.86"/>
<polygon fill="midnightblue" stroke="midnightblue" points="2976.03,-267.26 2966.3,-271.45 2976.52,-274.24 2976.03,-267.26"/>
</g>
<!-- Node22 -->
<g id="node22" class="node">
<title>Node22</title>
<g id="a_node22"><a xlink:href="../../d2/dd4/beam__element_8cpp.html" target="_top" xlink:title=" ">
<polygon fill="none" stroke="black" points="3566,-173 3566,-214 3717,-214 3717,-173 3566,-173"/>
<text text-anchor="start" x="3574" y="-202" font-family="Helvetica,sans-Serif" font-size="10.00">/github/workspace/applications</text>
<text text-anchor="start" x="3574" y="-191" font-family="Helvetica,sans-Serif" font-size="10.00">/structural_application/custom</text>
<text text-anchor="middle" x="3641.5" y="-180" font-family="Helvetica,sans-Serif" font-size="10.00">_elements/beam_element.cpp</text>
</a>
</g>
</g>
<!-- Node1&#45;&gt;Node22 -->
<g id="edge21" class="edge">
<title>Node1&#45;&gt;Node22</title>
<path fill="none" stroke="midnightblue" d="M2976.19,-274.46C3103.74,-270.9 3350.61,-259.1 3556.5,-220 3564.82,-218.42 3573.5,-216.34 3581.98,-214.05"/>
<polygon fill="midnightblue" stroke="midnightblue" points="2976,-270.97 2966.1,-274.73 2976.19,-277.96 2976,-270.97"/>
</g>
<!-- Node23 -->
<g id="node23" class="node">
<title>Node23</title>
<g id="a_node23"><a xlink:href="../../d6/d69/crisfield__truss__element_8cpp.html" target="_top" xlink:title=" ">
<polygon fill="none" stroke="black" points="3735.5,-173 3735.5,-214 3917.5,-214 3917.5,-173 3735.5,-173"/>
<text text-anchor="start" x="3743.5" y="-202" font-family="Helvetica,sans-Serif" font-size="10.00">/github/workspace/applications</text>
<text text-anchor="start" x="3743.5" y="-191" font-family="Helvetica,sans-Serif" font-size="10.00">/structural_application/custom</text>
<text text-anchor="middle" x="3826.5" y="-180" font-family="Helvetica,sans-Serif" font-size="10.00">_elements/crisfield_truss_element.cpp</text>
</a>
</g>
</g>
<!-- Node1&#45;&gt;Node23 -->
<g id="edge22" class="edge">
<title>Node1&#45;&gt;Node23</title>
<path fill="none" stroke="midnightblue" d="M2976.34,-275.33C3128.3,-273.02 3454.24,-262.98 3725.5,-220 3735.41,-218.43 3745.78,-216.34 3755.93,-214.03"/>
<polygon fill="midnightblue" stroke="midnightblue" points="2976.09,-271.84 2966.14,-275.48 2976.19,-278.83 2976.09,-271.84"/>
</g>
<!-- Node24 -->
<g id="node24" class="node">
<title>Node24</title>
<g id="a_node24"><a xlink:href="../../df/d40/kinematic__linear_8cpp.html" target="_top" xlink:title=" ">
<polygon fill="none" stroke="black" points="3936,-173 3936,-214 4089,-214 4089,-173 3936,-173"/>
<text text-anchor="start" x="3944" y="-202" font-family="Helvetica,sans-Serif" font-size="10.00">/github/workspace/applications</text>
<text text-anchor="start" x="3944" y="-191" font-family="Helvetica,sans-Serif" font-size="10.00">/structural_application/custom</text>
<text text-anchor="middle" x="4012.5" y="-180" font-family="Helvetica,sans-Serif" font-size="10.00">_elements/kinematic_linear.cpp</text>
</a>
</g>
</g>
<!-- Node1&#45;&gt;Node24 -->
<g id="edge23" class="edge">
<title>Node1&#45;&gt;Node24</title>
<path fill="none" stroke="midnightblue" d="M2976.52,-273.94C3190.91,-268.4 3744.77,-251.41 3926.5,-220 3935.25,-218.49 3944.36,-216.39 3953.25,-214.03"/>
<polygon fill="midnightblue" stroke="midnightblue" points="2976.17,-270.45 2966.27,-274.21 2976.35,-277.45 2976.17,-270.45"/>
</g>
<!-- Node25 -->
<g id="node25" class="node">
<title>Node25</title>
<g id="a_node25"><a xlink:href="../../d9/d02/truss__element_8cpp.html" target="_top" xlink:title=" ">
<polygon fill="none" stroke="black" points="4107,-173 4107,-214 4258,-214 4258,-173 4107,-173"/>
<text text-anchor="start" x="4115" y="-202" font-family="Helvetica,sans-Serif" font-size="10.00">/github/workspace/applications</text>
<text text-anchor="start" x="4115" y="-191" font-family="Helvetica,sans-Serif" font-size="10.00">/structural_application/custom</text>
<text text-anchor="middle" x="4182.5" y="-180" font-family="Helvetica,sans-Serif" font-size="10.00">_elements/truss_element.cpp</text>
</a>
</g>
</g>
<!-- Node1&#45;&gt;Node25 -->
<g id="edge24" class="edge">
<title>Node1&#45;&gt;Node25</title>
<path fill="none" stroke="midnightblue" d="M2976.19,-274.75C3214.46,-270.84 3881.54,-256.83 4097.5,-220 4106.16,-218.52 4115.17,-216.44 4123.96,-214.09"/>
<polygon fill="midnightblue" stroke="midnightblue" points="2976.13,-271.25 2966.19,-274.91 2976.25,-278.25 2976.13,-271.25"/>
</g>
<!-- Node26 -->
<g id="node26" class="node">
<title>Node26</title>
<g id="a_node26"><a xlink:href="../../db/dc2/unsaturated__soils__element__2phase_8cpp.html" target="_top" xlink:title=" ">
<polygon fill="none" stroke="black" points="4276,-167.5 4276,-219.5 4457,-219.5 4457,-167.5 4276,-167.5"/>
<text text-anchor="start" x="4284" y="-207.5" font-family="Helvetica,sans-Serif" font-size="10.00">/github/workspace/applications</text>
<text text-anchor="start" x="4284" y="-196.5" font-family="Helvetica,sans-Serif" font-size="10.00">/structural_application/custom</text>
<text text-anchor="start" x="4284" y="-185.5" font-family="Helvetica,sans-Serif" font-size="10.00">_elements/unsaturated_soils_element</text>
<text text-anchor="middle" x="4366.5" y="-174.5" font-family="Helvetica,sans-Serif" font-size="10.00">_2phase.cpp</text>
</a>
</g>
</g>
<!-- Node1&#45;&gt;Node26 -->
<g id="edge25" class="edge">
<title>Node1&#45;&gt;Node26</title>
<path fill="none" stroke="midnightblue" d="M2976.55,-274.85C3237.25,-271 4015.83,-256.65 4266.5,-220 4269.6,-219.55 4272.75,-219.04 4275.92,-218.48"/>
<polygon fill="midnightblue" stroke="midnightblue" points="2976.33,-271.35 2966.38,-275 2976.43,-278.35 2976.33,-271.35"/>
</g>
<!-- Node27 -->
<g id="node27" class="node">
<title>Node27</title>
<g id="a_node27"><a xlink:href="../../d8/da8/unsaturated__soils__element__2phase__small__strain_8cpp.html" target="_top" xlink:title=" ">
<polygon fill="none" stroke="black" points="4475,-167.5 4475,-219.5 4656,-219.5 4656,-167.5 4475,-167.5"/>
<text text-anchor="start" x="4483" y="-207.5" font-family="Helvetica,sans-Serif" font-size="10.00">/github/workspace/applications</text>
<text text-anchor="start" x="4483" y="-196.5" font-family="Helvetica,sans-Serif" font-size="10.00">/structural_application/custom</text>
<text text-anchor="start" x="4483" y="-185.5" font-family="Helvetica,sans-Serif" font-size="10.00">_elements/unsaturated_soils_element</text>
<text text-anchor="middle" x="4565.5" y="-174.5" font-family="Helvetica,sans-Serif" font-size="10.00">_2phase_small_strain.cpp</text>
</a>
</g>
</g>
<!-- Node1&#45;&gt;Node27 -->
<g id="edge26" class="edge">
<title>Node1&#45;&gt;Node27</title>
<path fill="none" stroke="midnightblue" d="M2976.48,-275.37C3261.6,-272.89 4174.4,-261.8 4465.5,-220 4468.6,-219.55 4471.75,-219.05 4474.92,-218.5"/>
<polygon fill="midnightblue" stroke="midnightblue" points="2976.17,-271.87 2966.2,-275.45 2976.23,-278.87 2976.17,-271.87"/>
</g>
<!-- Node28 -->
<g id="node28" class="node">
<title>Node28</title>
<g id="a_node28"><a xlink:href="../../dc/d7c/unsaturated__soils__element__3phase_8cpp.html" target="_top" xlink:title=" ">
<polygon fill="none" stroke="black" points="4674,-167.5 4674,-219.5 4855,-219.5 4855,-167.5 4674,-167.5"/>
<text text-anchor="start" x="4682" y="-207.5" font-family="Helvetica,sans-Serif" font-size="10.00">/github/workspace/applications</text>
<text text-anchor="start" x="4682" y="-196.5" font-family="Helvetica,sans-Serif" font-size="10.00">/structural_application/custom</text>
<text text-anchor="start" x="4682" y="-185.5" font-family="Helvetica,sans-Serif" font-size="10.00">_elements/unsaturated_soils_element</text>
<text text-anchor="middle" x="4764.5" y="-174.5" font-family="Helvetica,sans-Serif" font-size="10.00">_3phase.cpp</text>
</a>
</g>
</g>
<!-- Node1&#45;&gt;Node28 -->
<g id="edge27" class="edge">
<title>Node1&#45;&gt;Node28</title>
<path fill="none" stroke="midnightblue" d="M2976.43,-275.77C3284.48,-274.55 4332.76,-266.96 4664.5,-220 4667.6,-219.56 4670.75,-219.06 4673.92,-218.51"/>
<polygon fill="midnightblue" stroke="midnightblue" points="2976.2,-272.27 2966.22,-275.81 2976.23,-279.27 2976.2,-272.27"/>
</g>
<!-- Node29 -->
<g id="node29" class="node">
<title>Node29</title>
<g id="a_node29"><a xlink:href="../../dc/dc6/unsaturated__soils__element__3phase__small__strain_8cpp.html" target="_top" xlink:title=" ">
<polygon fill="none" stroke="black" points="4873,-167.5 4873,-219.5 5054,-219.5 5054,-167.5 4873,-167.5"/>
<text text-anchor="start" x="4881" y="-207.5" font-family="Helvetica,sans-Serif" font-size="10.00">/github/workspace/applications</text>
<text text-anchor="start" x="4881" y="-196.5" font-family="Helvetica,sans-Serif" font-size="10.00">/structural_application/custom</text>
<text text-anchor="start" x="4881" y="-185.5" font-family="Helvetica,sans-Serif" font-size="10.00">_elements/unsaturated_soils_element</text>
<text text-anchor="middle" x="4963.5" y="-174.5" font-family="Helvetica,sans-Serif" font-size="10.00">_3phase_small_strain.cpp</text>
</a>
</g>
</g>
<!-- Node1&#45;&gt;Node29 -->
<g id="edge28" class="edge">
<title>Node1&#45;&gt;Node29</title>
<path fill="none" stroke="midnightblue" d="M2976.71,-276.09C3306.89,-276.03 4491.06,-272.12 4863.5,-220 4866.61,-219.57 4869.75,-219.07 4872.92,-218.53"/>
<polygon fill="midnightblue" stroke="midnightblue" points="2976.26,-272.59 2966.26,-276.09 2976.26,-279.59 2976.26,-272.59"/>
</g>
<!-- Node30 -->
<g id="node30" class="node">
<title>Node30</title>
<g id="a_node30"><a xlink:href="../../d0/d01/circle__3d_8h.html" target="_top" xlink:title=" ">
<polygon fill="none" stroke="black" points="5487,-173 5487,-214 5638,-214 5638,-173 5487,-173"/>
<text text-anchor="start" x="5495" y="-202" font-family="Helvetica,sans-Serif" font-size="10.00">/github/workspace/applications</text>
<text text-anchor="start" x="5495" y="-191" font-family="Helvetica,sans-Serif" font-size="10.00">/structural_application/custom</text>
<text text-anchor="middle" x="5562.5" y="-180" font-family="Helvetica,sans-Serif" font-size="10.00">_utilities/circle_3d.h</text>
</a>
</g>
</g>
<!-- Node1&#45;&gt;Node30 -->
<g id="edge29" class="edge">
<title>Node1&#45;&gt;Node30</title>
<path fill="none" stroke="midnightblue" d="M2976.47,-275.53C3397.01,-273.06 5227.36,-260.06 5478.5,-220 5487.38,-218.58 5496.63,-216.47 5505.6,-214.04"/>
<polygon fill="midnightblue" stroke="midnightblue" points="2976.19,-272.03 2966.21,-275.59 2976.23,-279.03 2976.19,-272.03"/>
</g>
<!-- Node31 -->
<g id="node31" class="node">
<title>Node31</title>
<g id="a_node31"><a xlink:href="../../d7/d0e/node__snapping__utility_8h.html" target="_top" xlink:title=" ">
<polygon fill="none" stroke="black" points="5230.5,-89.5 5230.5,-130.5 5386.5,-130.5 5386.5,-89.5 5230.5,-89.5"/>
<text text-anchor="start" x="5238.5" y="-118.5" font-family="Helvetica,sans-Serif" font-size="10.00">/github/workspace/applications</text>
<text text-anchor="start" x="5238.5" y="-107.5" font-family="Helvetica,sans-Serif" font-size="10.00">/structural_application/custom</text>
<text text-anchor="middle" x="5308.5" y="-96.5" font-family="Helvetica,sans-Serif" font-size="10.00">_utilities/node_snapping_utility.h</text>
</a>
</g>
</g>
<!-- Node1&#45;&gt;Node31 -->
<g id="edge36" class="edge">
<title>Node1&#45;&gt;Node31</title>
<path fill="none" stroke="midnightblue" d="M2976.42,-275.52C3369.87,-273.13 4984.63,-260.84 5083.5,-220 5115.17,-206.92 5110.09,-184.59 5139.5,-167 5167.22,-150.42 5200.47,-138.05 5230.12,-129.21"/>
<polygon fill="midnightblue" stroke="midnightblue" points="2976.23,-272.03 2966.25,-275.59 2976.27,-279.03 2976.23,-272.03"/>
</g>
<!-- Node33 -->
<g id="node33" class="node">
<title>Node33</title>
<g id="a_node33"><a xlink:href="../../d9/d66/closed__cylinder__3d_8h.html" target="_top" xlink:title=" ">
<polygon fill="none" stroke="black" points="5149,-173 5149,-214 5300,-214 5300,-173 5149,-173"/>
<text text-anchor="start" x="5157" y="-202" font-family="Helvetica,sans-Serif" font-size="10.00">/github/workspace/applications</text>
<text text-anchor="start" x="5157" y="-191" font-family="Helvetica,sans-Serif" font-size="10.00">/structural_application/custom</text>
<text text-anchor="middle" x="5224.5" y="-180" font-family="Helvetica,sans-Serif" font-size="10.00">_utilities/closed_cylinder_3d.h</text>
</a>
</g>
</g>
<!-- Node1&#45;&gt;Node33 -->
<g id="edge32" class="edge">
<title>Node1&#45;&gt;Node33</title>
<path fill="none" stroke="midnightblue" d="M2976.38,-275.13C3361.35,-271.07 4918.65,-252.74 5134.5,-220 5143.97,-218.56 5153.86,-216.43 5163.47,-214.01"/>
<polygon fill="midnightblue" stroke="midnightblue" points="2976.11,-271.63 2966.15,-275.24 2976.19,-278.63 2976.11,-271.63"/>
</g>
<!-- Node34 -->
<g id="node34" class="node">
<title>Node34</title>
<g id="a_node34"><a xlink:href="../../dd/db4/cylinder__3d_8h.html" target="_top" xlink:title=" ">
<polygon fill="none" stroke="black" points="5318,-173 5318,-214 5469,-214 5469,-173 5318,-173"/>
<text text-anchor="start" x="5326" y="-202" font-family="Helvetica,sans-Serif" font-size="10.00">/github/workspace/applications</text>
<text text-anchor="start" x="5326" y="-191" font-family="Helvetica,sans-Serif" font-size="10.00">/structural_application/custom</text>
<text text-anchor="middle" x="5393.5" y="-180" font-family="Helvetica,sans-Serif" font-size="10.00">_utilities/cylinder_3d.h</text>
</a>
</g>
</g>
<!-- Node1&#45;&gt;Node34 -->
<g id="edge34" class="edge">
<title>Node1&#45;&gt;Node34</title>
<path fill="none" stroke="midnightblue" d="M2976.4,-275.39C3379.74,-272.36 5075.86,-257.45 5309.5,-220 5318.38,-218.58 5327.63,-216.46 5336.6,-214.03"/>
<polygon fill="midnightblue" stroke="midnightblue" points="2976.23,-271.89 2966.26,-275.47 2976.28,-278.89 2976.23,-271.89"/>
</g>
<!-- Node35 -->
<g id="node35" class="node">
<title>Node35</title>
<g id="a_node35"><a xlink:href="../../d1/da9/_tensor__utils_8h.html" target="_top" xlink:title=" ">
<polygon fill="none" stroke="black" points="1137,-173 1137,-214 1288,-214 1288,-173 1137,-173"/>
<text text-anchor="start" x="1145" y="-202" font-family="Helvetica,sans-Serif" font-size="10.00">/github/workspace/applications</text>
<text text-anchor="start" x="1145" y="-191" font-family="Helvetica,sans-Serif" font-size="10.00">/structural_application/custom</text>
<text text-anchor="middle" x="1212.5" y="-180" font-family="Helvetica,sans-Serif" font-size="10.00">_utilities/Tensor_utils.h</text>
</a>
</g>
</g>
<!-- Node1&#45;&gt;Node35 -->
<g id="edge37" class="edge">
<title>Node1&#45;&gt;Node35</title>
<path fill="none" stroke="midnightblue" d="M2804.4,-275.91C2516.72,-275.17 1590.43,-268.92 1296.5,-220 1287.78,-218.55 1278.7,-216.45 1269.87,-214.06"/>
<polygon fill="midnightblue" stroke="midnightblue" points="2804.76,-279.41 2814.77,-275.94 2804.78,-272.41 2804.76,-279.41"/>
</g>
<!-- Node30&#45;&gt;Node31 -->
<g id="edge30" class="edge">
<title>Node30&#45;&gt;Node31</title>
<path fill="none" stroke="midnightblue" d="M5492.06,-169.9C5453.5,-157.53 5406.21,-142.35 5369.28,-130.5"/>
<polygon fill="midnightblue" stroke="midnightblue" points="5491.07,-173.26 5501.66,-172.98 5493.21,-166.59 5491.07,-173.26"/>
</g>
<!-- Node32 -->
<g id="node32" class="node">
<title>Node32</title>
<g id="a_node32"><a xlink:href="../../dd/dee/structural__application_2custom__python_2add__custom__utilities__to__python_8cpp.html" target="_top" xlink:title=" ">
<polygon fill="none" stroke="black" points="5233,-0.5 5233,-52.5 5384,-52.5 5384,-0.5 5233,-0.5"/>
<text text-anchor="start" x="5241" y="-40.5" font-family="Helvetica,sans-Serif" font-size="10.00">/github/workspace/applications</text>
<text text-anchor="start" x="5241" y="-29.5" font-family="Helvetica,sans-Serif" font-size="10.00">/structural_application/custom</text>
<text text-anchor="start" x="5241" y="-18.5" font-family="Helvetica,sans-Serif" font-size="10.00">_python/add_custom_utilities</text>
<text text-anchor="middle" x="5308.5" y="-7.5" font-family="Helvetica,sans-Serif" font-size="10.00">_to_python.cpp</text>
</a>
</g>
</g>
<!-- Node31&#45;&gt;Node32 -->
<g id="edge31" class="edge">
<title>Node31&#45;&gt;Node32</title>
<path fill="none" stroke="midnightblue" d="M5308.5,-79.12C5308.5,-70.41 5308.5,-60.99 5308.5,-52.61"/>
<polygon fill="midnightblue" stroke="midnightblue" points="5305,-79.27 5308.5,-89.27 5312,-79.27 5305,-79.27"/>
</g>
<!-- Node33&#45;&gt;Node31 -->
<g id="edge33" class="edge">
<title>Node33&#45;&gt;Node31</title>
<path fill="none" stroke="midnightblue" d="M5252.29,-165.54C5264.07,-154.1 5277.55,-141.03 5288.35,-130.55"/>
<polygon fill="midnightblue" stroke="midnightblue" points="5249.57,-163.3 5244.83,-172.77 5254.45,-168.32 5249.57,-163.3"/>
</g>
<!-- Node34&#45;&gt;Node31 -->
<g id="edge35" class="edge">
<title>Node34&#45;&gt;Node31</title>
<path fill="none" stroke="midnightblue" d="M5365.38,-165.54C5353.46,-154.1 5339.82,-141.03 5328.89,-130.55"/>
<polygon fill="midnightblue" stroke="midnightblue" points="5363.28,-168.38 5372.92,-172.77 5368.13,-163.32 5363.28,-168.38"/>
</g>
<!-- Node35&#45;&gt;Node8 -->
<g id="edge38" class="edge">
<title>Node35&#45;&gt;Node8</title>
<path fill="none" stroke="midnightblue" d="M1194.46,-164.22C1187.37,-153.11 1179.4,-140.63 1172.97,-130.55"/>
<polygon fill="midnightblue" stroke="midnightblue" points="1191.58,-166.22 1199.91,-172.77 1197.48,-162.46 1191.58,-166.22"/>
</g>
<!-- Node35&#45;&gt;Node9 -->
<g id="edge39" class="edge">
<title>Node35&#45;&gt;Node9</title>
<path fill="none" stroke="midnightblue" d="M1279.87,-170.35C1285.45,-169.04 1291.05,-167.89 1296.5,-167 1485.6,-136.2 2844.7,-116.62 3195.86,-112.04"/>
<polygon fill="midnightblue" stroke="midnightblue" points="1278.7,-167.04 1269.86,-172.88 1280.41,-173.83 1278.7,-167.04"/>
</g>
</g>
</svg>
        <g id="navigator" transform="translate(0 0)" fill="#404254">
                <rect fill="#f2f5e9" fill-opacity="0.5" stroke="#606060" stroke-width=".5" x="0" y="0" width="60" height="60"/>
                <use id="zoomplus" xlink:href="#zoomPlus" x="17" y="9" onmousedown="handleZoom(evt,'in')"/>
                <use id="zoomminus" xlink:href="#zoomMin" x="42" y="9" onmousedown="handleZoom(evt,'out')"/>
                <use id="reset" xlink:href="#resetDef" x="30" y="36" onmousedown="handleReset()"/>
                <g id="arrowUp" xlink:href="#dirArrow" transform="translate(30 24)" onmousedown="handlePan(0,-1)">
                  <use xlink:href="#rim" fill="#404040">
                        <set attributeName="fill" to="#808080" begin="arrowUp.mouseover" end="arrowUp.mouseout"/>
                  </use>
                  <path fill="none" stroke="white" stroke-width="1.5" d="M0,-3.0v7 M-2.5,-0.5L0,-3.0L2.5,-0.5"/>
                </g>
                <g id="arrowRight" xlink:href="#dirArrow" transform="rotate(90) translate(36 -43)" onmousedown="handlePan(1,0)">
                  <use xlink:href="#rim" fill="#404040">
                        <set attributeName="fill" to="#808080" begin="arrowRight.mouseover" end="arrowRight.mouseout"/>
                  </use>
                  <path fill="none" stroke="white" stroke-width="1.5" d="M0,-3.0v7 M-2.5,-0.5L0,-3.0L2.5,-0.5"/>
                </g>
                <g id="arrowDown" xlink:href="#dirArrow" transform="rotate(180) translate(-30 -48)" onmousedown="handlePan(0,1)">
                  <use xlink:href="#rim" fill="#404040">
                        <set attributeName="fill" to="#808080" begin="arrowDown.mouseover" end="arrowDown.mouseout"/>
                  </use>
                  <path fill="none" stroke="white" stroke-width="1.5" d="M0,-3.0v7 M-2.5,-0.5L0,-3.0L2.5,-0.5"/>
                </g>
                <g id="arrowLeft" xlink:href="#dirArrow" transform="rotate(270) translate(-36 17)" onmousedown="handlePan(-1,0)">
                  <use xlink:href="#rim" fill="#404040">
                        <set attributeName="fill" to="#808080" begin="arrowLeft.mouseover" end="arrowLeft.mouseout"/>
                  </use>
                  <path fill="none" stroke="white" stroke-width="1.5" d="M0,-3.0v7 M-2.5,-0.5L0,-3.0L2.5,-0.5"/>
                </g>
        </g>
        <svg viewBox="0 0 15 15" width="100%" height="30px" preserveAspectRatio="xMaxYMin meet">
         <g id="arrow_out" transform="scale(0.3 0.3)">
          <a xlink:href="sd__math__utils_8h__dep__incl_org.svg" target="_base">
           <rect id="button" ry="5" rx="5" y="6" x="6" height="38" width="38"
                fill="#f2f5e9" fill-opacity="0.5" stroke="#606060" stroke-width="1.0"/>
           <path id="arrow"
             d="M 11.500037,31.436501 C 11.940474,20.09759 22.043105,11.32322 32.158766,21.979434 L 37.068811,17.246167 C 37.068811,17.246167 37.088388,32 37.088388,32 L 22.160133,31.978069 C 22.160133,31.978069 26.997745,27.140456 26.997745,27.140456 C 18.528582,18.264221 13.291696,25.230495 11.500037,31.436501 z"
             style="fill:#404040;"/>
          </a>
         </g>
        </svg>
</svg>
