<?xml version="1.0" encoding="UTF-8" standalone="no"?>
<!DOCTYPE svg PUBLIC "-//W3C//DTD SVG 1.1//EN"
 "http://www.w3.org/Graphics/SVG/1.1/DTD/svg11.dtd">
<!-- Generated by graphviz version 2.48.0 (20210719.0153)
 -->
<!-- Title: boost::numeric::ublas::compressed_matrix&lt; T, L, IB, IA, TA &gt;::const_iterator2 Pages: 1 -->
<svg width="316pt" height="551pt"
 viewBox="0.00 0.00 315.50 551.00" xmlns="http://www.w3.org/2000/svg" xmlns:xlink="http://www.w3.org/1999/xlink">
<g id="graph0" class="graph" transform="scale(1 1) rotate(0) translate(4 547)">
<title>boost::numeric::ublas::compressed_matrix&lt; T, L, IB, IA, TA &gt;::const_iterator2</title>
<!-- Node1 -->
<g id="node1" class="node">
<title>Node1</title>
<g id="a_node1"><a xlink:title=" ">
<polygon fill="#bfbfbf" stroke="black" points="93.5,-0.5 93.5,-200.5 214.5,-200.5 214.5,-0.5 93.5,-0.5"/>
<text text-anchor="start" x="101.5" y="-188.5" font-family="Helvetica,sans-Serif" font-size="10.00">boost::numeric::ublas</text>
<text text-anchor="start" x="101.5" y="-177.5" font-family="Helvetica,sans-Serif" font-size="10.00">::compressed_matrix&lt;</text>
<text text-anchor="start" x="101.5" y="-166.5" font-family="Helvetica,sans-Serif" font-size="10.00"> T, L, IB, IA, TA &gt;::const</text>
<text text-anchor="middle" x="154" y="-155.5" font-family="Helvetica,sans-Serif" font-size="10.00">_iterator2</text>
<polyline fill="none" stroke="black" points="93.5,-148.5 214.5,-148.5 "/>
<text text-anchor="middle" x="154" y="-136.5" font-family="Helvetica,sans-Serif" font-size="10.00"> </text>
<polyline fill="none" stroke="black" points="93.5,-129.5 214.5,-129.5 "/>
<text text-anchor="start" x="101.5" y="-117.5" font-family="Helvetica,sans-Serif" font-size="10.00">+ const_iterator2()</text>
<text text-anchor="start" x="101.5" y="-106.5" font-family="Helvetica,sans-Serif" font-size="10.00">+ const_iterator2()</text>
<text text-anchor="start" x="101.5" y="-95.5" font-family="Helvetica,sans-Serif" font-size="10.00">+ const_iterator2()</text>
<text text-anchor="start" x="101.5" y="-84.5" font-family="Helvetica,sans-Serif" font-size="10.00">+ operator++()</text>
<text text-anchor="start" x="101.5" y="-73.5" font-family="Helvetica,sans-Serif" font-size="10.00">+ operator&#45;&#45;()</text>
<text text-anchor="start" x="101.5" y="-62.5" font-family="Helvetica,sans-Serif" font-size="10.00">+ operator*()</text>
<text text-anchor="start" x="101.5" y="-51.5" font-family="Helvetica,sans-Serif" font-size="10.00">+ begin()</text>
<text text-anchor="start" x="101.5" y="-40.5" font-family="Helvetica,sans-Serif" font-size="10.00">+ end()</text>
<text text-anchor="start" x="101.5" y="-29.5" font-family="Helvetica,sans-Serif" font-size="10.00">+ rbegin()</text>
<text text-anchor="start" x="101.5" y="-18.5" font-family="Helvetica,sans-Serif" font-size="10.00">+ rend()</text>
<text text-anchor="start" x="101.5" y="-7.5" font-family="Helvetica,sans-Serif" font-size="10.00">and 18 more...</text>
</a>
</g>
</g>
<!-- Node2 -->
<g id="node2" class="node">
<title>Node2</title>
<g id="a_node2"><a xlink:href="../../dc/d2f/classboost_1_1numeric_1_1ublas_1_1container__const__reference.html" target="_top" xlink:title=" ">
<polygon fill="none" stroke="black" points="0,-237.5 0,-415.5 146,-415.5 146,-237.5 0,-237.5"/>
<text text-anchor="start" x="8" y="-403.5" font-family="Helvetica,sans-Serif" font-size="10.00">boost::numeric::ublas</text>
<text text-anchor="start" x="8" y="-392.5" font-family="Helvetica,sans-Serif" font-size="10.00">::container_const_reference</text>
<text text-anchor="middle" x="73" y="-381.5" font-family="Helvetica,sans-Serif" font-size="10.00">&lt; compressed_matrix &gt;</text>
<polyline fill="none" stroke="black" points="0,-374.5 146,-374.5 "/>
<text text-anchor="middle" x="73" y="-362.5" font-family="Helvetica,sans-Serif" font-size="10.00"> </text>
<polyline fill="none" stroke="black" points="0,-355.5 146,-355.5 "/>
<text text-anchor="start" x="8" y="-343.5" font-family="Helvetica,sans-Serif" font-size="10.00">+ container_const_reference()</text>
<text text-anchor="start" x="8" y="-332.5" font-family="Helvetica,sans-Serif" font-size="10.00">+ container_const_reference()</text>
<text text-anchor="start" x="8" y="-321.5" font-family="Helvetica,sans-Serif" font-size="10.00">+ container_const_reference()</text>
<text text-anchor="start" x="8" y="-310.5" font-family="Helvetica,sans-Serif" font-size="10.00">+ container_const_reference()</text>
<text text-anchor="start" x="8" y="-299.5" font-family="Helvetica,sans-Serif" font-size="10.00">+ operator()()</text>
<text text-anchor="start" x="8" y="-288.5" font-family="Helvetica,sans-Serif" font-size="10.00">+ operator()()</text>
<text text-anchor="start" x="8" y="-277.5" font-family="Helvetica,sans-Serif" font-size="10.00">+ assign()</text>
<text text-anchor="start" x="8" y="-266.5" font-family="Helvetica,sans-Serif" font-size="10.00">+ assign()</text>
<text text-anchor="start" x="8" y="-255.5" font-family="Helvetica,sans-Serif" font-size="10.00">+ same_closure()</text>
<text text-anchor="start" x="8" y="-244.5" font-family="Helvetica,sans-Serif" font-size="10.00">+ same_closure()</text>
</a>
</g>
</g>
<!-- Node2&#45;&gt;Node1 -->
<g id="edge1" class="edge">
<title>Node2&#45;&gt;Node1</title>
<path fill="none" stroke="midnightblue" d="M101.68,-227.66C104.85,-218.73 108.12,-209.68 111.4,-200.74"/>
<polygon fill="none" stroke="midnightblue" points="98.31,-226.7 98.28,-237.29 104.91,-229.02 98.31,-226.7"/>
</g>
<!-- Node2&#45;&gt;Node1 -->
<g id="edge7" class="edge">
<title>Node2&#45;&gt;Node1</title>
<path fill="none" stroke="midnightblue" d="M115.08,-227.66C118.37,-218.73 121.65,-209.68 124.83,-200.74"/>
<polygon fill="none" stroke="midnightblue" points="111.71,-226.7 111.51,-237.29 118.27,-229.13 111.71,-226.7"/>
</g>
<!-- Node3 -->
<g id="node3" class="node">
<title>Node3</title>
<g id="a_node3"><a xlink:href="../../d2/dbf/classboost_1_1numeric_1_1ublas_1_1nonassignable___1_1nonassignable.html" target="_top" xlink:title=" ">
<polygon fill="none" stroke="black" points="24,-452.5 24,-542.5 122,-542.5 122,-452.5 24,-452.5"/>
<text text-anchor="middle" x="73" y="-530.5" font-family="Helvetica,sans-Serif" font-size="10.00">nonassignable</text>
<polyline fill="none" stroke="black" points="24,-523.5 122,-523.5 "/>
<text text-anchor="middle" x="73" y="-511.5" font-family="Helvetica,sans-Serif" font-size="10.00"> </text>
<polyline fill="none" stroke="black" points="24,-504.5 122,-504.5 "/>
<text text-anchor="start" x="32" y="-492.5" font-family="Helvetica,sans-Serif" font-size="10.00"># nonassignable()</text>
<text text-anchor="start" x="32" y="-481.5" font-family="Helvetica,sans-Serif" font-size="10.00"># ~nonassignable()</text>
<text text-anchor="start" x="32" y="-470.5" font-family="Helvetica,sans-Serif" font-size="10.00"># nonassignable()</text>
<text text-anchor="start" x="32" y="-459.5" font-family="Helvetica,sans-Serif" font-size="10.00"># ~nonassignable()</text>
</a>
</g>
</g>
<!-- Node3&#45;&gt;Node2 -->
<g id="edge2" class="edge">
<title>Node3&#45;&gt;Node2</title>
<path fill="none" stroke="#8b1a1a" d="M66.64,-442.06C66.41,-433.63 66.28,-424.73 66.26,-415.78"/>
<polygon fill="none" stroke="#8b1a1a" points="63.15,-442.22 66.98,-452.1 70.14,-441.99 63.15,-442.22"/>
</g>
<!-- Node3&#45;&gt;Node2 -->
<g id="edge3" class="edge">
<title>Node3&#45;&gt;Node2</title>
<path fill="none" stroke="#8b1a1a" d="M79.36,-442.06C79.59,-433.63 79.72,-424.73 79.74,-415.78"/>
<polygon fill="none" stroke="#8b1a1a" points="75.86,-441.99 79.02,-452.1 82.85,-442.22 75.86,-441.99"/>
</g>
<!-- Node4 -->
<g id="node4" class="node">
<title>Node4</title>
<g id="a_node4"><a xlink:href="../../da/dc7/structboost_1_1numeric_1_1ublas_1_1bidirectional__iterator__base.html" target="_top" xlink:title=" ">
<polygon fill="none" stroke="black" points="164.5,-248.5 164.5,-404.5 307.5,-404.5 307.5,-248.5 164.5,-248.5"/>
<text text-anchor="start" x="172.5" y="-392.5" font-family="Helvetica,sans-Serif" font-size="10.00">boost::numeric::ublas</text>
<text text-anchor="start" x="172.5" y="-381.5" font-family="Helvetica,sans-Serif" font-size="10.00">::bidirectional_iterator</text>
<text text-anchor="start" x="172.5" y="-370.5" font-family="Helvetica,sans-Serif" font-size="10.00">_base&lt; sparse_bidirectional</text>
<text text-anchor="start" x="172.5" y="-359.5" font-family="Helvetica,sans-Serif" font-size="10.00">_iterator_tag, const_iterator2,</text>
<text text-anchor="middle" x="236" y="-348.5" font-family="Helvetica,sans-Serif" font-size="10.00"> value_type &gt;</text>
<polyline fill="none" stroke="black" points="164.5,-341.5 307.5,-341.5 "/>
<text text-anchor="middle" x="236" y="-329.5" font-family="Helvetica,sans-Serif" font-size="10.00"> </text>
<polyline fill="none" stroke="black" points="164.5,-322.5 307.5,-322.5 "/>
<text text-anchor="start" x="172.5" y="-310.5" font-family="Helvetica,sans-Serif" font-size="10.00">+ operator++()</text>
<text text-anchor="start" x="172.5" y="-299.5" font-family="Helvetica,sans-Serif" font-size="10.00">+ operator++()</text>
<text text-anchor="start" x="172.5" y="-288.5" font-family="Helvetica,sans-Serif" font-size="10.00">+ operator&#45;&#45;()</text>
<text text-anchor="start" x="172.5" y="-277.5" font-family="Helvetica,sans-Serif" font-size="10.00">+ operator&#45;&#45;()</text>
<text text-anchor="start" x="172.5" y="-266.5" font-family="Helvetica,sans-Serif" font-size="10.00">+ operator!=()</text>
<text text-anchor="start" x="172.5" y="-255.5" font-family="Helvetica,sans-Serif" font-size="10.00">+ operator!=()</text>
</a>
</g>
</g>
<!-- Node4&#45;&gt;Node1 -->
<g id="edge4" class="edge">
<title>Node4&#45;&gt;Node1</title>
<path fill="none" stroke="midnightblue" d="M197.73,-238.97C193.01,-226.5 188.24,-213.58 183.67,-200.88"/>
<polygon fill="none" stroke="midnightblue" points="194.5,-240.31 201.33,-248.41 201.04,-237.82 194.5,-240.31"/>
</g>
<!-- Node4&#45;&gt;Node1 -->
<g id="edge8" class="edge">
<title>Node4&#45;&gt;Node1</title>
<path fill="none" stroke="midnightblue" d="M210.92,-238.97C206.51,-226.5 201.82,-213.58 197.09,-200.88"/>
<polygon fill="none" stroke="midnightblue" points="207.62,-240.14 214.23,-248.41 214.22,-237.82 207.62,-240.14"/>
</g>
<!-- Node5 -->
<g id="node5" class="node">
<title>Node5</title>
<g id="a_node5"><a xlink:title=" ">
<polygon fill="none" stroke="#bfbfbf" points="181.5,-458 181.5,-537 290.5,-537 290.5,-458 181.5,-458"/>
<text text-anchor="start" x="189.5" y="-525" font-family="Helvetica,sans-Serif" font-size="10.00">std::iterator&lt; sparse</text>
<text text-anchor="start" x="189.5" y="-514" font-family="Helvetica,sans-Serif" font-size="10.00">_bidirectional_iterator</text>
<text text-anchor="middle" x="236" y="-503" font-family="Helvetica,sans-Serif" font-size="10.00">_tag, value_type &gt;</text>
<polyline fill="none" stroke="#bfbfbf" points="181.5,-496 290.5,-496 "/>
<text text-anchor="middle" x="236" y="-484" font-family="Helvetica,sans-Serif" font-size="10.00"> </text>
<polyline fill="none" stroke="#bfbfbf" points="181.5,-477 290.5,-477 "/>
<text text-anchor="middle" x="236" y="-465" font-family="Helvetica,sans-Serif" font-size="10.00"> </text>
</a>
</g>
</g>
<!-- Node5&#45;&gt;Node4 -->
<g id="edge5" class="edge">
<title>Node5&#45;&gt;Node4</title>
<path fill="none" stroke="midnightblue" d="M229.81,-447.36C229.36,-434.02 229.18,-419.23 229.27,-404.73"/>
<polygon fill="none" stroke="midnightblue" points="226.32,-447.88 230.22,-457.73 233.32,-447.6 226.32,-447.88"/>
</g>
<!-- Node5&#45;&gt;Node4 -->
<g id="edge6" class="edge">
<title>Node5&#45;&gt;Node4</title>
<path fill="none" stroke="midnightblue" d="M242.19,-447.36C242.64,-434.02 242.82,-419.23 242.73,-404.73"/>
<polygon fill="none" stroke="midnightblue" points="238.68,-447.6 241.78,-457.73 245.68,-447.88 238.68,-447.6"/>
</g>
</g>
</svg>
