<?xml version="1.0" encoding="UTF-8" standalone="no"?>
<!DOCTYPE svg PUBLIC "-//W3C//DTD SVG 1.1//EN"
 "http://www.w3.org/Graphics/SVG/1.1/DTD/svg11.dtd">
<!-- Generated by graphviz version 2.48.0 (20210719.0153)
 -->
<!-- Title: /github/workspace/applications/structural_application/custom_utilities/Tensor_utils.h Pages: 1 -->
<svg width="189pt" height="173pt"
 viewBox="0.00 0.00 188.50 173.00" xmlns="http://www.w3.org/2000/svg" xmlns:xlink="http://www.w3.org/1999/xlink">
<g id="graph0" class="graph" transform="scale(1 1) rotate(0) translate(4 169)">
<title>/github/workspace/applications/structural_application/custom_utilities/Tensor_utils.h</title>
<!-- Node1 -->
<g id="node1" class="node">
<title>Node1</title>
<g id="a_node1"><a xlink:title=" ">
<polygon fill="#bfbfbf" stroke="black" points="22,-123.5 22,-164.5 173,-164.5 173,-123.5 22,-123.5"/>
<text text-anchor="start" x="30" y="-152.5" font-family="Helvetica,sans-Serif" font-size="10.00">/github/workspace/applications</text>
<text text-anchor="start" x="30" y="-141.5" font-family="Helvetica,sans-Serif" font-size="10.00">/structural_application/custom</text>
<text text-anchor="middle" x="97.5" y="-130.5" font-family="Helvetica,sans-Serif" font-size="10.00">_utilities/Tensor_utils.h</text>
</a>
</g>
</g>
<!-- Node2 -->
<g id="node2" class="node">
<title>Node2</title>
<g id="a_node2"><a xlink:href="../../d8/d88/math__utils_8h.html" target="_top" xlink:title=" ">
<polygon fill="none" stroke="black" points="0,-0.5 0,-19.5 103,-19.5 103,-0.5 0,-0.5"/>
<text text-anchor="middle" x="51.5" y="-7.5" font-family="Helvetica,sans-Serif" font-size="10.00">utilities/math_utils.h</text>
</a>
</g>
</g>
<!-- Node1&#45;&gt;Node2 -->
<g id="edge1" class="edge">
<title>Node1&#45;&gt;Node2</title>
<path fill="none" stroke="midnightblue" d="M68.91,-123.47C57.49,-113.95 45.63,-101.43 39.5,-87 31.61,-68.42 37.22,-45.29 43.14,-29.46"/>
<polygon fill="midnightblue" stroke="midnightblue" points="46.54,-30.39 47.12,-19.81 40.07,-27.72 46.54,-30.39"/>
</g>
<!-- Node3 -->
<g id="node3" class="node">
<title>Node3</title>
<g id="a_node3"><a xlink:href="../../d2/d10/sd__math__utils_8h.html" target="_top" xlink:title=" ">
<polygon fill="none" stroke="black" points="48.5,-56.5 48.5,-86.5 146.5,-86.5 146.5,-56.5 48.5,-56.5"/>
<text text-anchor="start" x="56.5" y="-74.5" font-family="Helvetica,sans-Serif" font-size="10.00">custom_utilities/sd</text>
<text text-anchor="middle" x="97.5" y="-63.5" font-family="Helvetica,sans-Serif" font-size="10.00">_math_utils.h</text>
</a>
</g>
</g>
<!-- Node1&#45;&gt;Node3 -->
<g id="edge2" class="edge">
<title>Node1&#45;&gt;Node3</title>
<path fill="none" stroke="midnightblue" d="M97.5,-123.36C97.5,-115.23 97.5,-105.7 97.5,-97.11"/>
<polygon fill="midnightblue" stroke="midnightblue" points="101,-96.89 97.5,-86.89 94,-96.89 101,-96.89"/>
</g>
<!-- Node4 -->
<g id="node4" class="node">
<title>Node4</title>
<g id="a_node4"><a xlink:title=" ">
<polygon fill="none" stroke="#bfbfbf" points="136.5,-0.5 136.5,-19.5 180.5,-19.5 180.5,-0.5 136.5,-0.5"/>
<text text-anchor="middle" x="158.5" y="-7.5" font-family="Helvetica,sans-Serif" font-size="10.00">cmath</text>
</a>
</g>
</g>
<!-- Node1&#45;&gt;Node4 -->
<g id="edge5" class="edge">
<title>Node1&#45;&gt;Node4</title>
<path fill="none" stroke="midnightblue" d="M125.83,-123.36C137.19,-113.81 149.09,-101.31 155.5,-87 163.58,-68.96 163.24,-46.04 161.56,-30.11"/>
<polygon fill="midnightblue" stroke="midnightblue" points="164.99,-29.36 160.2,-19.91 158.05,-30.29 164.99,-29.36"/>
</g>
<!-- Node3&#45;&gt;Node2 -->
<g id="edge3" class="edge">
<title>Node3&#45;&gt;Node2</title>
<path fill="none" stroke="midnightblue" d="M86.6,-56.4C79.91,-47.75 71.32,-36.64 64.32,-27.58"/>
<polygon fill="midnightblue" stroke="midnightblue" points="67.08,-25.43 58.19,-19.66 61.54,-29.71 67.08,-25.43"/>
</g>
<!-- Node3&#45;&gt;Node4 -->
<g id="edge4" class="edge">
<title>Node3&#45;&gt;Node4</title>
<path fill="none" stroke="midnightblue" d="M111.96,-56.4C121.09,-47.49 132.92,-35.95 142.36,-26.74"/>
<polygon fill="midnightblue" stroke="midnightblue" points="144.91,-29.15 149.62,-19.66 140.02,-24.13 144.91,-29.15"/>
</g>
</g>
</svg>
